<?xml version="1.0" encoding="UTF-8"?>
<svg xmlns="http://www.w3.org/2000/svg" xmlns:xlink="http://www.w3.org/1999/xlink" width="128pt" height="178pt" viewBox="0 0 128 178" version="1.1">
<g id="surface1">
<path style=" stroke:none;fill-rule:nonzero;fill:rgb(100%,100%,100%);fill-opacity:1;" d="M 66.863281 10.828125 C 63.792969 14.625 59.582031 19.144531 54.234375 24.390625 L 41.191406 36.660156 C 39.578125 33.371094 37.691406 30.984375 35.527344 29.496094 C 38.910156 22.53125 42.546875 15.503906 46.445312 8.421875 C 48.804688 10.769531 51.972656 11.945312 55.945312 11.945312 C 58.382812 11.945312 60.863281 11.492188 63.378906 10.59375 C 65.898438 9.652344 68.140625 8.363281 70.109375 6.71875 L 66.863281 10.828125 M 73.53125 6.601562 C 74.867188 4.488281 75.753906 2.492188 76.1875 0.613281 L 76.128906 0.0273438 L 79.726562 1.433594 C 78.980469 5.976562 76.679688 10.886719 72.824219 16.171875 C 70.816406 18.949219 67.253906 23.097656 62.140625 28.617188 C 56.789062 34.449219 51.441406 39.636719 46.089844 44.175781 C 44.199219 42.960938 42.351562 41.90625 40.542969 41.003906 C 45.933594 36.308594 51.480469 31.121094 57.183594 25.445312 C 62.101562 20.554688 66.234375 16.035156 69.578125 11.886719 L 73.53125 6.601562 M 91.472656 10.066406 C 97.097656 15.113281 102.152344 21.316406 106.636719 28.675781 C 110.964844 35.800781 114.742188 43.648438 117.96875 52.21875 C 119.972656 57.464844 121.566406 62.355469 122.746094 66.894531 L 122.925781 67.367188 C 123.238281 68.578125 123.339844 69.441406 123.21875 69.949219 C 122.789062 71.671875 122.117188 73.277344 121.214844 74.761719 C 119.640625 77.425781 117.691406 79.085938 115.371094 79.753906 C 111.632812 80.769531 109.117188 80.964844 107.816406 80.339844 L 104.335938 72.589844 C 101.621094 67.386719 98.570312 62.628906 95.1875 58.324219 C 91.570312 53.785156 86.554688 49.125 80.140625 44.351562 L 71.523438 38.480469 L 71.171875 40.769531 L 77.839844 45.878906 C 82.953125 50.066406 87.222656 54.117188 90.644531 58.03125 L 90.527344 58.382812 L 90.46875 59.5 C 88.382812 61.0625 85.667969 62.511719 82.324219 63.84375 C 76.617188 66.152344 70.226562 67.601562 63.144531 68.1875 C 62.238281 66.738281 61.375 62.648438 60.546875 55.917969 C 59.644531 48.402344 59.386719 41.472656 59.78125 35.132812 L 64.5625 30.144531 C 69.4375 24.859375 72.960938 20.730469 75.125 17.757812 C 78.863281 12.511719 81.164062 7.617188 82.027344 3.078125 C 85.371094 5.152344 88.519531 7.480469 91.472656 10.066406 M 126.878906 78.636719 C 127.625 84.078125 127.390625 88.988281 126.171875 93.375 C 125.582031 95.488281 124.578125 96.542969 123.160156 96.542969 L 123.75 92.257812 C 124.222656 89.246094 124.144531 87.445312 123.515625 86.855469 C 123.277344 86.621094 122.765625 88.910156 121.980469 93.726562 C 120.839844 98.890625 119.1875 101.847656 117.023438 102.589844 L 116.375 102.707031 L 116.136719 102.589844 L 117.199219 96.074219 C 117.789062 91.769531 117.652344 89.480469 116.789062 89.207031 C 116.667969 89.207031 116.257812 91.183594 115.546875 95.136719 L 113.777344 103.238281 C 112.242188 107.386719 110.886719 109.265625 109.707031 108.875 C 108.917969 108.636719 108.761719 106.25 109.234375 101.710938 L 109.351562 100.59375 L 109.882812 93.726562 L 110.117188 89.558594 L 110 88.96875 C 109.921875 88.8125 109.136719 89.089844 107.640625 89.792969 L 103.570312 91.613281 L 99.554688 92.082031 C 98.375 91.886719 97.960938 91.398438 98.316406 90.613281 L 98.789062 90.027344 L 99.792969 89.382812 C 101.367188 88.480469 102.78125 87.40625 104.039062 86.152344 C 104.984375 85.214844 105.773438 84.019531 106.402344 82.570312 L 115.667969 82.21875 C 119.875 81.003906 123.042969 77.855469 125.167969 72.765625 C 126.070312 74.957031 126.644531 76.914062 126.878906 78.636719 M 55.707031 52.570312 C 53.9375 50.339844 51.539062 48.089844 48.507812 45.820312 L 57.300781 37.660156 C 57.144531 43.609375 57.460938 49.910156 58.246094 56.5625 L 56.238281 53.214844 L 55.707031 52.570312 M 62.910156 70.535156 C 73.925781 69.714844 83.070312 67.03125 90.347656 62.492188 C 90.269531 65.703125 90.46875 68.558594 90.941406 71.0625 C 91.058594 71.691406 90.507812 72.511719 89.289062 73.53125 L 86.574219 75.410156 C 84.371094 76.894531 81.359375 78.285156 77.542969 79.578125 C 71.367188 81.613281 65.113281 82.589844 58.777344 82.511719 C 52.128906 82.394531 45.972656 81.105469 40.304688 78.636719 L 44.730469 77.875 C 45.125 77.992188 45.421875 77.914062 45.617188 77.640625 C 54.195312 75.371094 58.933594 71.378906 59.839844 65.664062 C 60.46875 68.050781 61.058594 69.519531 61.609375 70.066406 C 61.925781 70.378906 62.316406 70.535156 62.789062 70.535156 L 62.910156 70.535156 M 57.65625 62.082031 C 57.972656 65.644531 56.769531 68.578125 54.054688 70.886719 C 51.773438 72.84375 48.546875 74.292969 44.378906 75.234375 C 41.386719 73.316406 39.324219 70.828125 38.183594 67.777344 C 36.960938 64.605469 37.019531 61.417969 38.359375 58.207031 L 39.066406 57.503906 C 41.191406 55.507812 43.609375 54.117188 46.324219 53.332031 C 49.472656 52.394531 52.167969 52.667969 54.410156 54.15625 C 56.296875 56.660156 57.378906 59.300781 57.65625 62.082031 M 91.234375 75.351562 C 91.628906 81.417969 91.253906 88.011719 90.113281 95.136719 C 89.207031 100.769531 87.734375 107.210938 85.6875 114.449219 C 81.359375 129.675781 75.578125 143.628906 68.335938 156.3125 C 65.898438 160.578125 63.378906 164.355469 60.785156 167.640625 C 58.304688 162.75 55.414062 158.523438 52.109375 154.960938 C 48.136719 150.695312 43.945312 147.894531 39.539062 146.566406 C 41.308594 143.902344 42.902344 139.949219 44.320312 134.707031 C 45.695312 129.890625 46.933594 123.277344 48.035156 114.863281 C 49.179688 106.171875 49.886719 97.445312 50.160156 88.675781 C 50.160156 88.050781 49.769531 87.503906 48.980469 87.035156 C 48.234375 86.601562 47.839844 86.757812 47.800781 87.503906 C 47.644531 92.785156 47.230469 98.914062 46.5625 105.878906 C 39.363281 98.636719 34.464844 89.714844 31.867188 79.109375 L 36.117188 79.046875 L 37.058594 78.988281 L 37.828125 79.871094 C 43.886719 82.882812 50.476562 84.546875 57.597656 84.859375 C 64.167969 85.175781 70.933594 84.332031 77.898438 82.335938 C 83.328125 80.730469 87.773438 78.402344 91.234375 75.351562 M 96.132812 126.898438 C 98.257812 129.792969 100.5 133.433594 102.859375 137.816406 L 103.628906 139.109375 L 103.507812 139.402344 C 102.210938 144.253906 99.59375 148.03125 95.660156 150.734375 C 91.332031 153.707031 86.925781 154.078125 82.441406 151.847656 L 77.011719 145.332031 C 81.144531 136.527344 84.625 127.269531 87.457031 117.5625 C 90.449219 119.910156 93.339844 123.023438 96.132812 126.898438 M 104.808594 151.730469 C 104.257812 153.179688 103.253906 155.214844 101.796875 157.835938 C 98.925781 163.003906 94.933594 166.996094 89.816406 169.8125 C 83.640625 173.140625 79.351562 173.628906 76.953125 171.28125 C 75.65625 170.027344 75.320312 168.308594 75.949219 166.113281 C 76.304688 164.980469 77.148438 163.238281 78.488281 160.890625 C 81.003906 160.34375 83.996094 160.929688 87.457031 162.652344 C 88.246094 163.042969 88.65625 162.847656 88.695312 162.0625 C 88.777344 161.320312 88.480469 160.773438 87.8125 160.421875 C 84.980469 159.089844 82.382812 158.367188 80.023438 158.246094 L 82.617188 154.3125 C 87.300781 156.46875 91.902344 156.191406 96.429688 153.492188 C 100.558594 151.027344 103.507812 147.328125 105.28125 142.394531 C 105.671875 143.21875 105.929688 144.117188 106.046875 145.097656 C 106.242188 146.9375 105.832031 149.148438 104.808594 151.730469 M 59.367188 169.34375 L 58.011719 170.929688 L 53.820312 174.980469 C 53.9375 172.828125 53.25 170.207031 51.753906 167.113281 L 47.976562 160.421875 C 45.578125 156.507812 42.960938 152.75 40.128906 149.148438 C 44.179688 150.519531 48.015625 153.277344 51.636719 157.425781 C 54.546875 160.753906 57.125 164.726562 59.367188 169.34375 M 50.457031 177.035156 L 48.332031 177.621094 C 46.523438 177.855469 44.476562 177.328125 42.195312 176.035156 L 36.824219 172.164062 L 49.277344 166.410156 C 51.675781 171.027344 52.109375 174.472656 50.574219 176.742188 L 50.457031 177.035156 M 24.492188 24.332031 L 24.960938 24.683594 L 23.429688 27.441406 L 21.246094 31.492188 C 19.082031 30.125 15.699219 29.554688 11.09375 29.792969 L 15.167969 24.859375 C 16.699219 23.175781 19.160156 22.6875 22.542969 23.390625 L 24.492188 24.332031 M 36.46875 1.492188 C 37.21875 2.082031 38.121094 2.667969 39.183594 3.253906 C 34.738281 8.851562 30.332031 15.40625 25.964844 22.921875 L 23.839844 21.570312 C 24.550781 17.109375 25.828125 13.175781 27.675781 9.769531 C 29.960938 5.621094 32.890625 2.863281 36.46875 1.492188 M 44.378906 5.601562 L 44.613281 6.015625 C 38.910156 16.464844 34.050781 26.015625 30.039062 34.664062 C 26.378906 42.570312 24 48.734375 22.898438 53.15625 C 21.757812 57.660156 21.167969 61.554688 21.125 64.839844 C 21.085938 69.382812 22.050781 73.097656 24.019531 75.996094 C 20.359375 75.488281 16.957031 74.625 13.808594 73.414062 C 12.628906 66.523438 13.375 58.871094 16.050781 50.457031 C 17.980469 44.429688 21.167969 37.324219 25.613281 29.144531 C 30.449219 20.144531 35.820312 11.925781 41.722656 4.488281 L 44.378906 5.601562 M 34.640625 31.375 C 36.410156 32.550781 38.0625 34.761719 39.597656 38.011719 L 38.0625 39.417969 L 37.53125 39.597656 C 35.839844 38.65625 33.875 37.992188 31.632812 37.601562 L 34.640625 31.375 M 27.558594 48.460938 C 30.550781 46.035156 34.128906 43.960938 38.300781 42.238281 C 43.570312 44.742188 47.820312 47.503906 51.046875 50.515625 C 48.136719 49.929688 45.125 50.417969 42.015625 51.984375 C 39.066406 53.472656 36.46875 55.644531 34.226562 58.5 C 31.984375 61.359375 30.53125 64.351562 29.859375 67.484375 C 29.113281 70.886719 29.429688 73.921875 30.804688 76.582031 L 30.15625 76.523438 L 29.507812 76.523438 L 26.792969 76.347656 C 24.3125 73.609375 23.191406 69.695312 23.429688 64.605469 C 23.585938 61.238281 24.390625 57.089844 25.847656 52.160156 L 27.027344 48.636719 L 27.558594 48.460938 M 34.875 40.769531 C 32.632812 41.75 30.609375 42.863281 28.796875 44.117188 L 30.628906 39.890625 L 30.746094 39.949219 C 32.082031 40.027344 33.460938 40.300781 34.875 40.769531 M 20.300781 33.371094 L 17.351562 39.597656 L 16.699219 39.539062 C 13.554688 40.554688 10.5625 42.101562 7.730469 44.175781 C 4.976562 46.25 2.617188 48.65625 0.648438 51.398438 C 1.988281 45.210938 4.859375 38.871094 9.265625 32.375 L 9.796875 32.433594 L 15.046875 32.199219 C 17.332031 32.277344 19.082031 32.667969 20.300781 33.371094 M 16.050781 42.707031 C 14.515625 46.503906 13.296875 50.222656 12.394531 53.863281 L 11.800781 53.980469 C 9.441406 55.429688 7.476562 57.128906 5.902344 59.085938 C 4.089844 61.277344 2.988281 63.589844 2.597656 66.015625 C 0.984375 63.707031 0.117188 61.0625 0 58.089844 C 1.535156 54.683594 3.71875 51.632812 6.550781 48.929688 C 9.382812 46.191406 12.550781 44.117188 16.050781 42.707031 M 7.847656 70.652344 L 4.839844 68.480469 C 4.878906 64.488281 7.160156 60.808594 11.683594 57.445312 C 10.742188 62.84375 10.640625 67.835938 11.390625 72.414062 C 10.171875 71.90625 8.988281 71.320312 7.847656 70.652344 M 32.042969 69.832031 C 32.4375 67.523438 33.402344 65.152344 34.9375 62.726562 C 34.976562 65.191406 35.605469 67.582031 36.824219 69.890625 C 38.003906 72.082031 39.636719 74.039062 41.722656 75.761719 L 33.105469 76.523438 C 31.886719 74.722656 31.53125 72.492188 32.042969 69.832031 M 36.707031 147.972656 C 39.5 151.339844 42.214844 155.097656 44.851562 159.246094 L 47.976562 164.058594 L 34.523438 170.167969 C 30.550781 166.605469 26.929688 162.535156 23.664062 157.953125 L 19.59375 151.671875 C 18.058594 148.660156 17.742188 146.347656 18.648438 144.746094 C 19.472656 143.257812 21.304688 142.59375 24.136719 142.75 C 26.183594 142.867188 28.1875 143.316406 30.15625 144.097656 C 32.476562 145.039062 34.660156 146.328125 36.707031 147.972656 "/>
</g>
</svg>
