<?xml version="1.0" encoding="UTF-8"?>
<svg xmlns="http://www.w3.org/2000/svg" xmlns:xlink="http://www.w3.org/1999/xlink" width="128pt" height="173pt" viewBox="0 0 128 173" version="1.1">
<g id="surface1">
<path style=" stroke:none;fill-rule:nonzero;fill:rgb(100%,100%,100%);fill-opacity:1;" d="M 28.625 153.746094 L 24.800781 147.738281 C 23.339844 144.855469 23.019531 142.648438 23.84375 141.113281 C 24.632812 139.6875 26.375 139.050781 29.074219 139.203125 C 31.0625 139.316406 32.992188 139.746094 34.867188 140.492188 C 37.082031 141.390625 39.160156 142.628906 41.109375 144.199219 C 43.660156 147.382812 46.246094 150.976562 48.871094 154.980469 L 51.796875 159.585938 L 39.03125 165.425781 C 35.28125 162.058594 31.8125 158.164062 28.625 153.746094 M 15.972656 67.882812 L 19.234375 68.503906 L 19.007812 70.410156 C 18.859375 71.234375 18.519531 72.152344 17.996094 73.164062 L 16.535156 75.410156 L 19.796875 80.292969 C 21.632812 83.253906 22.289062 84.957031 21.765625 85.40625 C 20.976562 86.078125 19.890625 85.6875 18.503906 84.226562 L 16.085938 81.53125 L 15.746094 81.53125 C 15.671875 81.792969 16.289062 83.046875 17.601562 85.292969 C 18.765625 87.351562 18.972656 88.699219 18.222656 89.335938 C 17.132812 90.234375 15.484375 89.46875 13.273438 87.035156 L 13.441406 86.921875 C 14.265625 86.320312 14.640625 85.179688 14.566406 83.496094 C 14.566406 82.523438 14.320312 80.875 13.835938 78.554688 L 12.992188 73.894531 C 14.789062 73.03125 15.785156 71.027344 15.972656 67.882812 M 14.058594 67.210938 C 14.058594 68.933594 13.628906 70.261719 12.765625 71.199219 L 11.417969 72.097656 L 10.460938 72.433594 L 11.640625 79.003906 C 12.390625 82.785156 12.542969 84.824219 12.089844 85.125 C 11.792969 85.273438 11.078125 85.011719 9.953125 84.339844 C 7.554688 82.914062 6.054688 80.070312 5.457031 75.800781 C 5.230469 74.117188 5.191406 71.832031 5.34375 68.953125 C 5.34375 68.390625 5.023438 68.089844 4.386719 68.054688 C 3.710938 68.015625 3.28125 68.238281 3.09375 68.726562 C 2.53125 70 2.550781 72.527344 3.148438 76.308594 C 3.9375 81.25 5.8125 84.582031 8.773438 86.304688 C 10.386719 87.238281 11.699219 87.558594 12.710938 87.257812 L 12.878906 87.761719 L 14.171875 90.234375 C 14.398438 90.535156 14.472656 90.925781 14.398438 91.414062 C 14.320312 91.976562 14.078125 92.367188 13.667969 92.59375 C 12.578125 93.230469 10.855469 92.628906 8.492188 90.796875 L 7.367188 89.898438 L 6.410156 88.773438 C 4.875 86.789062 3.5625 84.695312 2.472656 82.484375 C 0.863281 79.152344 0.0546875 75.988281 0.0546875 72.996094 C 0.0195312 68.765625 1.820312 63.484375 5.457031 57.160156 C 6.691406 61.652344 8.980469 64.738281 12.316406 66.425781 L 14.058594 67.210938 M 37.003906 11.222656 L 37.175781 12.683594 C 37.960938 15.679688 40.8125 18 45.722656 19.644531 C 45.871094 20.359375 45.554688 22.867188 44.765625 27.171875 C 43.867188 32.300781 43.417969 35.800781 43.417969 37.671875 C 43.492188 42.765625 44.015625 49.519531 44.992188 57.945312 C 45.554688 62.773438 45.777344 65.5625 45.667969 66.3125 C 41.917969 66.199219 38.597656 64.609375 35.710938 61.539062 L 35.65625 60.136719 C 35.503906 57.4375 34.773438 53.300781 33.460938 47.722656 L 31.886719 41.378906 L 30.539062 35.089844 L 27.667969 30.484375 C 27.933594 33.328125 28.550781 36.773438 29.527344 40.816406 L 32.054688 51.09375 C 27.105469 55.960938 23.078125 60.941406 19.964844 66.03125 C 18.578125 66.367188 16.273438 65.730469 13.046875 64.121094 C 10.984375 63.074219 9.46875 61.164062 8.492188 58.394531 C 7.929688 56.894531 7.574219 55.269531 7.421875 53.507812 C 7.421875 52.984375 7.6875 52.199219 8.210938 51.148438 L 8.4375 50.699219 C 10.386719 46.621094 12.765625 42.296875 15.578125 37.730469 C 20.152344 30.277344 25.101562 23.597656 30.425781 17.679688 L 37.003906 11.222656 M 54.328125 171.714844 L 54.214844 171.996094 L 52.132812 172.558594 C 50.445312 172.820312 48.515625 172.316406 46.339844 171.042969 C 45.027344 170.332031 43.324219 169.097656 41.222656 167.335938 L 52.863281 161.945312 L 53.035156 161.832031 C 55.320312 166.25 55.75 169.546875 54.328125 171.714844 M 61.414062 166.15625 L 57.421875 170.03125 C 57.53125 168.011719 56.875 165.519531 55.453125 162.5625 C 54.8125 161.179688 53.597656 159.027344 51.796875 156.105469 C 49.398438 152.175781 46.921875 148.582031 44.371094 145.324219 C 48.234375 146.632812 51.890625 149.273438 55.339844 153.242188 C 58.113281 156.421875 60.570312 160.222656 62.707031 164.640625 L 61.414062 166.15625 M 89.476562 115.113281 C 92.324219 117.359375 95.082031 120.332031 97.742188 124.039062 C 99.691406 126.773438 101.832031 130.253906 104.15625 134.484375 L 104.886719 135.71875 L 104.773438 136 C 103.535156 140.644531 101.042969 144.257812 97.292969 146.839844 C 93.167969 149.683594 88.96875 150.039062 84.695312 147.90625 L 79.523438 141.671875 C 83.308594 133.585938 86.625 124.734375 89.476562 115.113281 M 82.390625 154.027344 L 84.863281 150.265625 C 89.328125 152.324219 93.714844 152.0625 98.023438 149.480469 C 101.960938 147.121094 104.773438 143.582031 106.460938 138.867188 L 107.191406 141.449219 C 107.378906 143.246094 106.984375 145.359375 106.011719 147.792969 C 105.410156 149.328125 104.4375 151.277344 103.085938 153.632812 C 100.347656 158.539062 96.5625 162.355469 91.726562 165.089844 C 85.839844 168.308594 81.734375 168.777344 79.410156 166.492188 C 78.210938 165.296875 77.910156 163.648438 78.507812 161.550781 C 78.808594 160.542969 79.597656 158.875 80.871094 156.554688 C 83.269531 156.03125 86.121094 156.59375 89.421875 158.238281 C 90.207031 158.613281 90.621094 158.425781 90.65625 157.675781 C 90.695312 156.964844 90.394531 156.441406 89.757812 156.105469 C 87.09375 154.832031 84.640625 154.140625 82.390625 154.027344 M 90.375 76.871094 L 93.074219 74.960938 C 93.414062 80.726562 93.039062 86.996094 91.949219 93.773438 C 91.089844 99.125 89.683594 105.246094 87.734375 112.136719 C 83.722656 126.472656 78.210938 139.820312 71.199219 152.175781 C 68.800781 156.40625 66.417969 160.015625 64.054688 163.011719 C 61.65625 158.296875 58.902344 154.253906 55.789062 150.882812 C 52.003906 146.800781 47.992188 144.125 43.753906 142.851562 C 45.480469 140.195312 47.015625 136.414062 48.367188 131.507812 C 49.753906 126.378906 50.914062 120.054688 51.851562 112.527344 C 52.976562 103.730469 53.652344 95.382812 53.878906 87.484375 C 53.914062 86.882812 53.558594 86.359375 52.808594 85.910156 C 52.058594 85.5 51.664062 85.648438 51.628906 86.359375 C 51.441406 92.238281 51.046875 98.097656 50.445312 103.9375 C 46.472656 99.96875 43.210938 95.550781 40.660156 90.683594 C 37.847656 85.441406 36.160156 80.238281 35.597656 75.074219 C 37.886719 76.832031 40.71875 78.480469 44.089844 80.015625 C 51.101562 83.234375 58.9375 84.5625 67.597656 84 C 76.261719 83.402344 83.851562 81.023438 90.375 76.871094 M 105.28125 85.066406 C 106.066406 84.28125 106.816406 83.140625 107.527344 81.640625 L 116.300781 81.304688 C 120.3125 80.144531 123.332031 77.132812 125.355469 72.265625 C 126.257812 74.25 126.820312 76.121094 127.042969 77.878906 C 127.679688 83.121094 127.4375 87.820312 126.3125 91.976562 C 125.789062 93.996094 124.832031 95.007812 123.445312 95.007812 L 124.0625 90.910156 C 124.511719 88.027344 124.4375 86.304688 123.839844 85.742188 C 123.613281 85.515625 123.125 87.707031 122.375 92.3125 C 121.25 97.253906 119.675781 100.082031 117.652344 100.792969 L 116.976562 100.902344 L 116.753906 100.792969 L 117.765625 94.558594 C 118.363281 90.441406 118.25 88.269531 117.425781 88.042969 C 117.316406 88.007812 116.921875 89.878906 116.246094 93.660156 L 114.503906 101.410156 C 113.039062 105.378906 111.765625 107.175781 110.679688 106.800781 C 109.929688 106.574219 109.777344 104.292969 110.226562 99.949219 L 110.339844 98.9375 L 111.070312 88.324219 L 110.960938 87.761719 C 110.882812 87.613281 110.132812 87.875 108.710938 88.550781 L 104.828125 90.289062 L 101.003906 90.738281 C 99.878906 90.589844 99.46875 90.121094 99.769531 89.335938 L 100.21875 88.773438 L 101.175781 88.15625 L 105.28125 85.066406 M 81.265625 7.347656 C 80.964844 9.21875 80.535156 10.566406 79.972656 11.390625 C 78.472656 13.601562 76.335938 15.492188 73.5625 17.0625 C 70.824219 18.636719 68.085938 19.554688 65.351562 19.816406 C 62.460938 20.1875 60.945312 25.429688 60.792969 35.539062 C 60.71875 41.042969 61.039062 47.480469 61.75 54.855469 C 62.425781 61.21875 63.15625 65.582031 63.945312 67.941406 C 64.46875 69.4375 65.085938 70.1875 65.800781 70.1875 L 66.023438 70.128906 C 76.671875 69.308594 85.351562 66.761719 92.0625 62.492188 C 92.0625 65.078125 92.230469 67.359375 92.570312 69.34375 L 92.738281 70.804688 C 92.699219 71.140625 92.457031 71.554688 92.007812 72.039062 C 91.03125 73.050781 89.625 74.136719 87.789062 75.296875 C 84.527344 77.355469 80.234375 78.964844 74.910156 80.125 C 64.976562 82.410156 55.789062 82.074219 47.351562 79.117188 C 42.742188 77.503906 38.765625 75.296875 35.429688 72.488281 L 35.769531 64.683594 C 38.878906 67.265625 42.308594 68.558594 46.058594 68.558594 C 46.621094 68.558594 47.035156 68.390625 47.296875 68.054688 C 47.746094 67.566406 47.953125 66.574219 47.914062 65.078125 L 47.242188 57.664062 C 46.265625 49.351562 45.742188 42.6875 45.667969 37.671875 C 45.667969 35.574219 46.117188 32.207031 47.015625 27.5625 C 47.652344 23.933594 47.992188 21.59375 48.027344 20.542969 C 48.066406 19.011719 47.710938 18.054688 46.960938 17.679688 L 46.789062 17.625 C 42.402344 16.164062 39.929688 14.332031 39.367188 12.121094 C 39.066406 11.109375 39.199219 10.023438 39.761719 8.863281 L 43.640625 5.886719 C 44.878906 6.597656 46.472656 7.3125 48.421875 8.023438 C 49.433594 10.042969 50.953125 11.578125 52.976562 12.625 C 54.851562 13.601562 57.007812 14.085938 59.445312 14.085938 C 63.757812 14.085938 67.785156 12.777344 71.535156 10.15625 C 75.511719 7.386719 77.777344 4.015625 78.339844 0.046875 L 81.378906 2.238281 C 81.601562 3.773438 81.566406 5.476562 81.265625 7.347656 M 81.828125 12.683594 C 83.777344 9.875 84.527344 7.085938 84.078125 4.316406 C 87.789062 7.234375 90.84375 9.894531 93.246094 12.289062 C 99.429688 18.390625 104.265625 24.324219 107.753906 30.089844 C 111.878906 36.90625 115.476562 44.410156 118.550781 52.609375 C 120.464844 57.625 121.984375 62.304688 123.105469 66.648438 L 123.21875 67.097656 C 123.558594 68.332031 123.667969 69.15625 123.558594 69.570312 C 123.144531 71.179688 122.507812 72.714844 121.644531 74.171875 C 120.109375 76.71875 118.234375 78.3125 116.019531 78.945312 L 110.789062 79.84375 L 108.878906 79.507812 L 105.5625 72.097656 C 102.261719 65.992188 96.617188 59.125 88.632812 51.488281 C 83.160156 46.246094 79.148438 42.78125 76.597656 41.097656 L 75.585938 42.050781 C 84.171875 49.277344 89.757812 54.613281 92.34375 58.058594 L 92.230469 59.683594 C 90.09375 61.21875 87.46875 62.605469 84.359375 63.839844 C 78.960938 65.976562 72.941406 67.324219 66.304688 67.882812 C 65.105469 65.527344 64.148438 58.695312 63.4375 47.386719 C 62.6875 35.296875 63.0625 27.339844 64.5625 23.519531 C 64.898438 22.660156 65.238281 22.171875 65.574219 22.0625 C 68.648438 21.800781 71.6875 20.789062 74.683594 19.027344 C 77.722656 17.304688 80.101562 15.191406 81.828125 12.683594 "/>
</g>
</svg>
