<?xml version="1.0" encoding="UTF-8"?>
<svg xmlns="http://www.w3.org/2000/svg" xmlns:xlink="http://www.w3.org/1999/xlink" width="128pt" height="161pt" viewBox="0 0 128 161" version="1.1">
<g id="surface1">
<path style=" stroke:none;fill-rule:nonzero;fill:rgb(100%,100%,100%);fill-opacity:1;" d="M 75.601562 1.273438 C 80.648438 3.195312 84.695312 8.582031 87.742188 17.421875 C 90.660156 25.675781 91.578125 34.140625 90.496094 42.820312 C 89.808594 48.757812 87.105469 54.402344 82.386719 59.75 C 79.894531 62.621094 76.863281 65.199219 73.292969 67.484375 L 72.308594 68.070312 L 72.257812 68.121094 C 70.128906 67.824219 68.0625 67.253906 66.066406 66.40625 C 64.261719 65.6875 62.804688 64.660156 61.691406 63.324219 C 60.671875 62.148438 59.820312 60.566406 59.132812 58.578125 C 58.640625 57.140625 58.3125 55.542969 58.148438 53.78125 L 58.101562 53.144531 C 61.050781 52.199219 63.394531 50.4375 65.128906 47.859375 C 66.148438 46.425781 66.785156 44.644531 67.046875 42.527344 C 67.179688 42.328125 67.195312 42.070312 67.097656 41.742188 C 67.261719 38.773438 66.492188 34.664062 64.785156 29.410156 L 63.507812 26.425781 C 62.789062 25.1875 61.984375 24.550781 61.097656 24.515625 C 60.773438 24.484375 60.574219 24.597656 60.507812 24.859375 C 60.445312 25.054688 60.492188 25.316406 60.65625 25.640625 L 56.722656 24.613281 L 52.449219 23.34375 L 52.347656 23.246094 L 52.003906 18.058594 C 55.871094 17.566406 58.96875 16.148438 61.296875 13.800781 C 63.785156 11.253906 64.769531 8.105469 64.246094 4.355469 L 64.195312 4.257812 L 64.34375 4.011719 C 65.394531 2.121094 67.0625 0.960938 69.359375 0.539062 C 71.359375 0.179688 73.4375 0.425781 75.601562 1.273438 M 50.628906 16.050781 C 50.203125 16.082031 49.988281 16.34375 49.988281 16.835938 L 50.332031 22.21875 L 49.695312 21.972656 C 48.285156 21.546875 47.039062 22.039062 45.957031 23.441406 C 45.628906 24.289062 45.253906 24.859375 44.828125 25.152344 L 43.15625 26.816406 C 42.238281 27.957031 41.601562 29.183594 41.238281 30.488281 L 40.847656 22.609375 L 40.945312 19.574219 L 40.945312 16.539062 C 40.910156 16.179688 40.648438 15.773438 40.15625 15.316406 L 39.078125 14.339844 C 37.796875 13.035156 37.242188 11.449219 37.40625 9.589844 C 37.46875 8.742188 37.714844 7.925781 38.140625 7.144531 C 39.648438 10.277344 42.453125 12.121094 46.546875 12.675781 C 49.367188 13.035156 52.21875 12.707031 55.101562 11.695312 C 58.085938 10.621094 60.460938 9.035156 62.230469 6.949219 C 61.835938 9.527344 60.527344 11.664062 58.296875 13.359375 C 56.167969 14.894531 53.609375 15.789062 50.628906 16.050781 M 62.378906 28.039062 L 62.722656 28.921875 C 64.394531 33.226562 65.179688 37.109375 65.082031 40.566406 C 61.640625 40.308594 58.085938 39.28125 54.414062 37.484375 C 53.363281 36.964844 52.757812 35.65625 52.59375 33.570312 C 52.59375 31.222656 52.496094 29.65625 52.300781 28.871094 C 52.039062 27.699219 51.53125 26.71875 50.777344 25.9375 C 49.988281 25.152344 49.070312 24.679688 48.023438 24.515625 C 48.546875 23.898438 49.316406 23.78125 50.332031 24.175781 L 52.742188 25.398438 C 53.957031 25.953125 55.542969 26.472656 57.511719 26.964844 L 62.378906 28.039062 M 48.464844 40.765625 C 45.253906 40.144531 43.453125 38.203125 43.058594 34.941406 C 42.632812 31.777344 43.664062 29.164062 46.15625 27.109375 L 46.5 26.769531 L 46.648438 26.71875 C 48.808594 26 50.105469 27.0625 50.53125 29.898438 L 51.464844 36.554688 C 51.988281 37.535156 52.742188 38.351562 53.726562 39.003906 C 54.382812 39.425781 55.429688 39.914062 56.871094 40.46875 C 59.722656 41.578125 62.394531 42.28125 64.886719 42.574219 L 64 45.265625 L 56.085938 43.0625 C 55.824219 42.410156 55.347656 41.742188 54.660156 41.058594 C 54.035156 40.46875 53.429688 40.03125 52.839844 39.734375 L 50.53125 39.589844 C 49.777344 39.785156 49.089844 40.175781 48.464844 40.765625 M 53.285156 42.035156 C 54.101562 42.492188 54.445312 42.980469 54.316406 43.503906 L 53.039062 47.957031 C 51.167969 54.613281 49.5625 60.796875 48.21875 66.503906 C 46.253906 75.019531 45.402344 81.96875 45.664062 87.351562 C 45.859375 90.320312 46.464844 93.304688 47.484375 96.304688 L 48.808594 100.808594 C 49.105469 102.375 49.105469 103.925781 48.808594 105.457031 C 48.710938 105.980469 48.988281 106.417969 49.644531 106.777344 C 50.269531 107.171875 50.644531 107.054688 50.777344 106.4375 C 51.167969 104.480469 51.136719 102.488281 50.679688 100.464844 L 50.921875 100.320312 L 56.085938 95.621094 C 57.855469 93.730469 59.132812 91.820312 59.917969 89.894531 C 61.066406 87.15625 61.871094 83.761719 62.328125 79.71875 L 66.210938 80.058594 L 66.507812 80.011719 C 65.882812 83.632812 65.195312 86.601562 64.441406 88.917969 C 63.359375 92.082031 61.96875 94.757812 60.265625 96.941406 L 54.855469 103.304688 C 52.824219 105.847656 51.464844 108.261719 50.777344 110.546875 L 47.335938 122.339844 L 44.042969 134.230469 L 36.816406 160.609375 L 35.191406 160.949219 L 33.324219 161 C 32.832031 160.933594 32.257812 160.640625 31.605469 160.121094 L 31.359375 159.875 C 32.503906 154.949219 34.027344 149.320312 35.929688 142.992188 C 39.402344 131.3125 42.15625 120.773438 44.1875 111.378906 L 45.222656 107.074219 C 45.550781 105.277344 45.582031 103.792969 45.320312 102.621094 C 45.089844 101.542969 44.597656 100.089844 43.84375 98.265625 L 42.222656 93.859375 C 41.109375 89.585938 40.976562 84.511719 41.828125 78.640625 L 45.074219 63.566406 L 49.941406 42.625 L 51.21875 41.742188 C 51.742188 41.480469 52.429688 41.578125 53.285156 42.035156 M 127.90625 105.945312 C 124.628906 110.1875 120.746094 113.367188 116.257812 115.488281 C 111.144531 117.902344 106.226562 118.375 101.507812 116.910156 L 99.835938 114.414062 L 102.539062 112.601562 L 102.640625 112.652344 C 107.324219 112.617188 111.898438 111.527344 116.355469 109.371094 C 120.714844 107.21875 124.382812 104.316406 127.367188 100.660156 L 127.660156 102.71875 L 127.90625 105.945312 M 94.132812 43.847656 L 92.167969 45.363281 C 92.5625 43.40625 92.808594 41.417969 92.90625 39.394531 L 94.625 43.257812 L 94.132812 43.847656 M 91.382812 48.542969 L 91.675781 48.445312 C 93.21875 47.535156 94.496094 46.636719 95.511719 45.753906 C 96.855469 50.289062 97.527344 55.25 97.527344 60.632812 C 97.230469 60.566406 97.003906 60.632812 96.839844 60.828125 C 94.019531 64.089844 90.332031 66.894531 85.777344 69.246094 C 81.777344 71.300781 77.355469 72.882812 72.503906 73.992188 L 73.636719 70.078125 C 74.226562 69.878906 74.929688 69.457031 75.75 68.804688 L 77.519531 67.386719 C 81.386719 64.480469 84.648438 61.074219 87.300781 57.15625 C 89.039062 54.582031 90.398438 51.710938 91.382812 48.542969 M 100.035156 78.789062 C 100.820312 78.296875 101.769531 77.808594 102.886719 77.320312 C 104.851562 78.132812 106.539062 79.554688 107.949219 81.578125 C 109.195312 83.371094 110.128906 85.476562 110.75 87.890625 L 110.847656 88.425781 L 111.390625 91.558594 C 111.71875 95.636719 110.703125 99.519531 108.339844 103.207031 C 106.308594 106.402344 103.425781 109.257812 99.691406 111.769531 C 105.589844 103.972656 107.636719 96.421875 105.835938 89.113281 C 104.882812 85.132812 102.949219 81.691406 100.035156 78.789062 M 93.152344 86.566406 C 92.429688 88.722656 91.726562 90.15625 91.039062 90.875 C 90.644531 91.265625 90.710938 91.753906 91.234375 92.34375 C 91.757812 92.929688 92.21875 93.027344 92.609375 92.636719 C 93.300781 91.886719 93.921875 90.792969 94.480469 89.359375 C 96.25 96.535156 95.132812 102.878906 91.136719 108.394531 C 89.660156 110.417969 87.480469 111.867188 84.597656 112.75 C 82.042969 113.53125 79.371094 113.742188 76.585938 113.386719 C 73.078125 112.894531 70.097656 110.9375 67.636719 107.511719 C 65.539062 104.542969 64.195312 101.101562 63.605469 97.1875 L 63.3125 96.648438 C 64.785156 94.398438 65.984375 91.609375 66.902344 88.28125 L 68.71875 79.324219 L 68.769531 79.128906 C 69.71875 78.542969 70.570312 77.660156 71.324219 76.488281 L 71.519531 76.488281 C 76.503906 75.507812 81.140625 74.007812 85.433594 71.984375 C 90.347656 69.667969 94.363281 66.863281 97.476562 63.566406 L 97.183594 67.089844 C 96.460938 74.59375 95.117188 81.085938 93.152344 86.566406 M 103.71875 88.183594 C 105.128906 92.554688 104.820312 97.203125 102.785156 102.128906 C 101.148438 106.011719 98.476562 109.960938 94.773438 113.972656 C 92.019531 114.65625 89.644531 114.671875 87.644531 114.019531 C 89.710938 113.109375 91.398438 111.820312 92.710938 110.15625 C 95.265625 106.894531 96.738281 103.09375 97.132812 98.753906 C 97.492188 94.773438 96.953125 90.695312 95.511719 86.519531 L 97.132812 80.84375 L 97.328125 80.695312 L 98.609375 79.71875 C 100.902344 81.871094 102.605469 84.691406 103.71875 88.183594 M 117.335938 78.589844 C 116.519531 81.558594 114.8125 84.171875 112.226562 86.421875 C 110.71875 81.953125 108.324219 78.65625 105.046875 76.535156 L 107.160156 75.949219 C 111.09375 75.035156 114.488281 75.917969 117.335938 78.589844 M 119.007812 80.550781 L 121.566406 84.21875 L 121.515625 84.5625 C 121.875 89.160156 120.761719 93.84375 118.171875 98.605469 C 115.847656 102.816406 112.71875 106.519531 108.785156 109.714844 L 105.292969 110.351562 C 108.144531 107.707031 110.257812 104.820312 111.636719 101.6875 C 113.109375 98.265625 113.652344 94.675781 113.257812 90.921875 L 112.914062 88.867188 C 115.863281 86.648438 117.894531 83.875 119.007812 80.550781 M 56.183594 53.78125 C 55.265625 53.75 54.382812 53.925781 53.527344 54.320312 L 56.132812 45.019531 L 62.96875 46.929688 C 61.261719 49.117188 59.117188 50.566406 56.527344 51.285156 C 56.265625 51.351562 56.132812 51.511719 56.132812 51.773438 L 56.183594 53.78125 M 56.480469 55.835938 C 57.167969 60.011719 58.691406 63.160156 61.050781 65.28125 C 63.605469 67.566406 67.082031 69.128906 71.472656 69.980469 C 70.359375 74.90625 68.277344 77.597656 65.230469 78.054688 C 64.179688 78.214844 63.113281 78.085938 62.035156 77.660156 C 62.722656 76.8125 63.359375 75.738281 63.949219 74.433594 C 64.179688 73.941406 64 73.453125 63.410156 72.964844 C 62.789062 72.441406 62.363281 72.441406 62.132812 72.964844 C 60.363281 76.847656 58.296875 78.589844 55.9375 78.199219 C 55.480469 78.132812 54.9375 77.90625 54.316406 77.515625 C 55.890625 76.535156 57.132812 75.101562 58.050781 73.207031 C 58.28125 72.71875 58.101562 72.246094 57.511719 71.789062 C 56.886719 71.300781 56.445312 71.300781 56.183594 71.789062 C 54.871094 74.59375 53.070312 76.195312 50.777344 76.585938 L 48.664062 76.535156 L 48.316406 76.4375 L 48.90625 73.0625 L 49.007812 73.011719 C 50.808594 71.445312 52.085938 70.125 52.839844 69.050781 C 54.085938 67.253906 54.480469 65.527344 54.019531 63.863281 C 53.691406 62.753906 52.9375 61.804688 51.757812 61.023438 L 52.300781 59.066406 L 52.695312 58.675781 C 53.285156 56.945312 54.546875 56 56.480469 55.835938 M 52.546875 78.347656 C 53.824219 79.390625 55.117188 80.027344 56.429688 80.253906 C 57.742188 80.515625 59.019531 80.222656 60.265625 79.375 C 59.902344 82.3125 59.265625 85.117188 58.347656 87.792969 C 57.691406 89.683594 56.542969 91.574219 54.90625 93.46875 L 49.988281 98.066406 L 49.941406 97.921875 C 48.5 93.710938 47.710938 89.832031 47.582031 86.273438 C 47.546875 83.632812 47.695312 80.988281 48.023438 78.347656 C 49.660156 78.835938 51.167969 78.835938 52.546875 78.347656 M 51.316406 62.785156 C 53.019531 63.960938 52.511719 66.015625 49.792969 68.949219 L 51.316406 62.785156 M 56.625 104.820312 L 61.984375 98.507812 C 62.574219 101.214844 63.523438 103.726562 64.835938 106.042969 C 66.210938 108.558594 67.898438 110.597656 69.898438 112.160156 C 70.0625 121.199219 70.585938 129.402344 71.472656 136.777344 C 71.703125 138.863281 72.078125 141.050781 72.601562 143.335938 L 72.652344 144.019531 L 72.945312 143.96875 L 72.160156 144.703125 C 66.066406 147.152344 60.707031 147.835938 56.085938 146.757812 C 54.808594 146.433594 53.527344 145.910156 52.25 145.195312 L 51.167969 144.410156 C 49.398438 140.234375 48.234375 136.253906 47.679688 132.46875 C 47.644531 132.144531 47.433594 131.851562 47.039062 131.589844 L 52.59375 111.964844 C 53.285156 109.714844 54.628906 107.332031 56.625 104.820312 M 120.679688 98.605469 C 122.386719 95.050781 123.335938 91.511719 123.53125 87.988281 C 124.808594 90.761719 125.890625 93.957031 126.777344 97.578125 C 123.664062 102.015625 119.5 105.425781 114.289062 107.804688 C 116.945312 104.96875 119.074219 101.902344 120.679688 98.605469 M 117.4375 123.027344 C 115.042969 123.875 112.617188 123.921875 110.160156 123.171875 C 107.933594 122.519531 105.835938 121.28125 103.867188 119.453125 C 108.097656 120.269531 112.4375 119.699219 116.894531 117.742188 C 120.828125 115.980469 124.417969 113.335938 127.660156 109.8125 C 127.203125 112.945312 126.1875 115.621094 124.613281 117.839844 C 122.84375 120.285156 120.453125 122.015625 117.4375 123.027344 M 69.503906 152.042969 L 64.394531 152.730469 L 64.394531 151.605469 C 64.394531 151.277344 64.214844 150.953125 63.851562 150.625 C 63.460938 150.265625 63.113281 150.167969 62.820312 150.332031 C 53.183594 155.617188 45.710938 157.394531 40.402344 155.664062 L 41.976562 149.941406 L 42.46875 149.746094 C 44.925781 147.460938 47.582031 146.203125 50.433594 145.976562 C 53.085938 148.226562 56.578125 149.351562 60.902344 149.351562 C 64.410156 149.351562 68.128906 148.621094 72.0625 147.152344 C 72.128906 148.457031 72.011719 149.449219 71.71875 150.136719 C 71.324219 151.082031 70.585938 151.71875 69.503906 152.042969 M 36.472656 5.480469 C 35.355469 7.273438 35.09375 9.234375 35.683594 11.351562 C 36.207031 13.179688 37.289062 14.894531 38.929688 16.492188 C 38.109375 31.53125 40.273438 43.488281 45.417969 52.363281 L 43.992188 58.722656 C 41.566406 54.285156 39.453125 48.871094 37.652344 42.476562 L 37.503906 41.988281 L 35.191406 32.835938 C 33.785156 26.898438 32.667969 21.074219 31.851562 15.367188 C 31.785156 14.8125 31.40625 14.417969 30.71875 14.191406 C 30.03125 13.964844 29.753906 14.191406 29.882812 14.875 L 30.769531 20.554688 L 26.6875 19.527344 C 26.589844 16.101562 26.902344 13 27.621094 10.226562 C 28.574219 6.574219 30.144531 4.027344 32.339844 2.59375 L 36.472656 5.480469 M 21.082031 23.441406 C 20.820312 22.265625 20.3125 21.289062 19.558594 20.503906 C 18.773438 19.753906 17.855469 19.296875 16.808594 19.132812 C 17.332031 18.480469 18.101562 18.367188 19.117188 18.792969 L 21.476562 20.015625 C 22.691406 20.570312 24.28125 21.089844 26.246094 21.582031 L 31.160156 22.65625 L 33.128906 32.152344 L 33.867188 35.183594 C 30.359375 34.890625 26.785156 33.847656 23.148438 32.054688 C 22.101562 31.5625 21.492188 30.273438 21.328125 28.1875 C 21.328125 25.804688 21.246094 24.222656 21.082031 23.441406 M 15.382812 21.335938 C 17.542969 20.617188 18.839844 21.664062 19.265625 24.46875 L 20.199219 31.125 C 20.691406 32.132812 21.460938 32.964844 22.507812 33.621094 C 23.164062 34.042969 24.199219 34.515625 25.605469 35.039062 C 28.882812 36.3125 31.800781 37.042969 34.355469 37.242188 L 35.242188 40.714844 L 24.820312 37.679688 C 24.558594 37.027344 24.097656 36.359375 23.445312 35.675781 C 22.820312 35.085938 22.214844 34.648438 21.625 34.351562 L 19.3125 34.207031 C 18.558594 34.402344 17.855469 34.777344 17.199219 35.332031 C 13.988281 34.746094 12.1875 32.820312 11.792969 29.558594 C 11.367188 26.394531 12.398438 23.765625 14.890625 21.679688 L 15.28125 21.335938 L 15.382812 21.335938 M 18.675781 37.242188 L 19.953125 36.3125 C 20.476562 36.082031 21.164062 36.195312 22.019531 36.652344 C 22.835938 37.109375 23.179688 37.582031 23.050781 38.074219 L 21.773438 42.574219 L 17.003906 61.074219 C 15.003906 69.554688 14.152344 76.519531 14.449219 81.96875 C 14.578125 84.644531 15.167969 87.628906 16.21875 90.921875 L 17.542969 95.425781 C 17.871094 96.957031 17.886719 98.492188 17.59375 100.027344 C 17.496094 100.546875 17.773438 101.003906 18.429688 101.394531 C 19.050781 101.789062 19.429688 101.671875 19.558594 101.054688 C 19.953125 98.800781 19.820312 96.503906 19.167969 94.152344 C 21.886719 92.816406 24.359375 90.628906 26.589844 87.597656 C 28.457031 85.082031 30.046875 82.148438 31.359375 78.789062 L 31.40625 78.445312 C 33.144531 78.3125 34.554688 77.402344 35.636719 75.703125 C 36.75 73.941406 36.960938 72.230469 36.273438 70.566406 C 38.011719 69.425781 38.929688 67.921875 39.027344 66.0625 C 39.125 64.398438 38.585938 62.71875 37.40625 61.023438 L 39.566406 53.4375 L 41.4375 57.550781 C 40.125 62.996094 38.976562 67.433594 37.996094 70.859375 C 36.554688 75.6875 35.011719 79.996094 33.375 83.777344 C 32.324219 86.160156 30.457031 89 27.769531 92.292969 C 24.492188 96.339844 22.425781 99.046875 21.574219 100.417969 C 20.789062 101.65625 20.101562 103.207031 19.511719 105.066406 L 18.085938 109.960938 L 10.316406 137.753906 L 5.648438 154.835938 L 5.5 155.175781 L 5.058594 155.226562 C 4.273438 155.617188 3.46875 155.765625 2.648438 155.664062 C 1.796875 155.566406 1.027344 155.242188 0.339844 154.6875 L 0.09375 154.492188 L 1.910156 147.394531 L 4.761719 137.414062 L 7.613281 127.480469 C 9.320312 121.34375 10.84375 115.261719 12.1875 109.226562 L 13.5625 103.648438 C 14.054688 101.429688 14.265625 99.535156 14.203125 97.96875 C 14.167969 96.828125 13.742188 95.3125 12.921875 93.417969 L 11.152344 89.015625 C 9.746094 84.089844 9.761719 77.824219 11.203125 70.222656 L 14.347656 55.542969 L 17.789062 40.863281 L 18.675781 37.242188 M 38.140625 50.453125 L 35.734375 59.066406 L 34.355469 57.941406 C 30.914062 55.625 26.394531 54.53125 20.789062 54.660156 L 24.871094 39.636719 L 35.832031 42.867188 L 38.289062 50.207031 L 38.140625 50.453125 M 30.425781 59.847656 C 30.949219 60.730469 30.734375 61.609375 29.785156 62.492188 C 29.128906 63.113281 28.246094 63.632812 27.128906 64.058594 C 26.605469 64.253906 26.523438 64.644531 26.882812 65.230469 C 27.210938 65.820312 27.605469 66.097656 28.066406 66.0625 L 30.671875 66.40625 C 31.75 66.699219 31.832031 67.386719 30.914062 68.460938 C 30.03125 69.472656 29.195312 70.042969 28.410156 70.175781 C 27.03125 70.371094 25.769531 70.09375 24.625 69.34375 C 23.445312 68.59375 22.65625 67.582031 22.265625 66.308594 C 21.738281 64.578125 21.871094 62.621094 22.65625 60.4375 C 22.855469 59.945312 22.65625 59.457031 22.066406 58.96875 L 20.839844 59.015625 C 20.085938 61.074219 19.886719 63.175781 20.25 65.328125 L 20.199219 65.328125 C 19.675781 65.785156 18.953125 65.949219 18.035156 65.820312 L 20.25 56.71875 L 20.59375 56.765625 C 23.609375 56.636719 26.671875 56.996094 29.785156 57.84375 C 32.867188 58.722656 35.0625 60.207031 36.371094 62.296875 C 37.160156 63.535156 37.355469 64.792969 36.960938 66.0625 C 36.570312 67.304688 35.71875 68.265625 34.40625 68.949219 C 33.847656 69.246094 33.832031 69.765625 34.355469 70.515625 C 35.078125 71.429688 34.945312 72.636719 33.964844 74.136719 C 33.011719 75.640625 31.898438 76.390625 30.621094 76.390625 C 31.570312 75.019531 32.078125 73.175781 32.144531 70.859375 L 32.144531 70.8125 C 32.832031 70.058594 33.242188 69.195312 33.375 68.21875 C 33.503906 67.171875 33.242188 66.292969 32.585938 65.574219 C 32.195312 65.117188 31.636719 64.757812 30.914062 64.496094 C 32.847656 62.933594 33.226562 61.1875 32.046875 59.261719 C 31.71875 58.675781 31.277344 58.460938 30.71875 58.625 C 30.128906 58.789062 30.03125 59.195312 30.425781 59.847656 M 23.835938 71.007812 C 23.148438 71.917969 22.363281 72.605469 21.476562 73.0625 C 20.429688 73.617188 19.296875 73.4375 18.085938 72.523438 L 17.445312 71.59375 C 17.414062 71.398438 17.28125 71.1875 17.054688 70.957031 L 17.644531 67.726562 L 20.886719 67.582031 L 21.230469 68.316406 C 21.722656 69.359375 22.589844 70.257812 23.835938 71.007812 M 22.65625 74.96875 C 23.96875 74.414062 25.082031 73.386719 26 71.886719 L 29.933594 72.082031 C 29.734375 73.226562 29.308594 74.234375 28.65625 75.117188 C 27.738281 76.226562 26.179688 76.453125 23.984375 75.800781 C 23.363281 75.671875 22.917969 75.394531 22.65625 74.96875 M 42.222656 38.171875 C 43.535156 40.421875 45.367188 41.890625 47.726562 42.574219 L 46.007812 49.867188 C 44.335938 46.503906 43.074219 42.605469 42.222656 38.171875 "/>
</g>
</svg>
