<?xml version="1.0" encoding="UTF-8"?>
<svg xmlns="http://www.w3.org/2000/svg" xmlns:xlink="http://www.w3.org/1999/xlink" width="128pt" height="163pt" viewBox="0 0 128 163" version="1.1">
<g id="surface1">
<path style=" stroke:none;fill-rule:nonzero;fill:rgb(100%,100%,100%);fill-opacity:1;" d="M 46.28125 68.683594 L 44.191406 69.886719 L 38.578125 76.679688 L 32.746094 81.828125 L 28.785156 85.003906 L 27.90625 86.429688 L 27.90625 88.074219 L 30.765625 95.300781 C 31.644531 96.980469 33.148438 97.566406 35.277344 97.054688 C 36.453125 96.910156 36.816406 96.25 36.378906 95.082031 L 33.957031 89.605469 C 33.445312 88.4375 33.625 87.34375 34.507812 86.320312 L 40.230469 79.636719 C 42.503906 76.9375 44.523438 74.015625 46.28125 70.875 C 46.941406 69.707031 46.941406 68.976562 46.28125 68.683594 M 30.214844 69.996094 C 29.554688 68.171875 28.96875 67.367188 28.453125 67.589844 C 26.035156 68.246094 23.503906 69.597656 20.863281 71.640625 L 16.460938 75.695312 C 15.945312 76.351562 16.277344 76.863281 17.449219 77.226562 L 19.980469 77.335938 L 29.886719 73.394531 C 30.765625 73.027344 30.875 71.898438 30.214844 69.996094 M 57.726562 103.300781 C 57.214844 103.738281 57.175781 104.539062 57.617188 105.710938 L 58.386719 107.242188 C 55.964844 109.066406 54.167969 109.871094 52.996094 109.652344 L 48.375 108.777344 C 45.730469 108.191406 43.53125 107.460938 41.769531 106.585938 C 39.128906 105.34375 36.339844 104.394531 33.40625 103.738281 C 29.8125 103.007812 26.804688 103.007812 24.382812 103.738281 C 18 105.710938 14.660156 106.914062 14.367188 107.351562 C 14.222656 107.644531 14.773438 108.007812 16.019531 108.449219 L 19.210938 109.871094 C 21.707031 111.625 23.941406 115.277344 25.921875 120.824219 L 23.722656 126.523438 C 22.253906 130.683594 21.59375 133.714844 21.742188 135.613281 C 22.035156 137.804688 22.769531 139.921875 23.941406 141.96875 C 25.335938 144.449219 27.207031 146.347656 29.554688 147.664062 C 31.390625 148.613281 33.625 149.125 36.269531 149.199219 C 39.347656 149.269531 41.84375 148.539062 43.75 147.007812 C 45.144531 145.910156 46.246094 144.050781 47.050781 141.421875 L 48.042969 136.050781 L 47.164062 129.261719 C 46.941406 127.070312 47.492188 125.097656 48.8125 123.34375 C 52.335938 118.597656 54.390625 115.203125 54.976562 113.15625 C 55.121094 112.648438 56.261719 111.953125 58.386719 111.078125 L 61.578125 109.980469 C 63.78125 112.464844 65.246094 113.339844 65.980469 112.609375 C 66.640625 111.953125 66.898438 111.039062 66.75 109.871094 C 66.457031 108.484375 65.613281 107.132812 64.21875 105.820312 C 61.140625 102.96875 58.972656 102.128906 57.726562 103.300781 M 74.234375 77.996094 L 69.28125 73.066406 C 65.46875 70.65625 63.082031 69.925781 62.128906 70.875 C 61.617188 71.386719 61.210938 72.226562 60.917969 73.394531 C 60.625 74.5625 60.550781 75.4375 60.699219 76.023438 C 60.917969 76.753906 62.3125 77.484375 64.878906 78.214844 L 70.382812 79.636719 L 73.464844 81.171875 C 74.492188 81.753906 75.261719 81.9375 75.773438 81.71875 C 76.363281 81.425781 75.847656 80.183594 74.234375 77.996094 M 61.800781 50.28125 C 59.816406 51.375 58.972656 52.179688 59.269531 52.691406 L 62.019531 53.238281 L 66.972656 54.882812 L 70.714844 58.277344 L 73.023438 60.359375 C 73.609375 58.53125 72.546875 56.121094 69.832031 53.128906 L 65.539062 49.183594 C 65.027344 48.820312 63.78125 49.183594 61.800781 50.28125 M 67.960938 38.121094 L 68.183594 38.339844 L 87.769531 51.15625 L 87.769531 51.8125 C 91.21875 68.171875 92.503906 82.925781 91.621094 96.070312 C 90.59375 110.089844 86.449219 122.796875 79.1875 134.191406 C 70.96875 147.042969 60.515625 155.003906 47.824219 158.070312 C 44.375 157.265625 40.230469 155.734375 35.386719 153.46875 L 28.015625 148.976562 C 23.757812 145.984375 20.054688 142.480469 16.898438 138.460938 L 16.898438 138.570312 C 10.222656 130.320312 5.75 120.605469 3.472656 109.433594 C 1.199219 98.480469 1.382812 87.671875 4.023438 77.007812 C 5.492188 71.675781 7.617188 66.128906 10.40625 60.359375 C 19.871094 51.230469 34.726562 44.4375 54.976562 39.984375 L 67.960938 38.121094 M 41.441406 53.238281 C 41.953125 52.070312 41.441406 51.082031 39.898438 50.28125 L 33.625 50.609375 C 31.132812 51.851562 28.710938 53.820312 26.363281 56.523438 C 24.164062 59.082031 23.503906 60.539062 24.382812 60.90625 C 24.75 61.050781 25.738281 60.320312 27.355469 58.714844 L 31.425781 55.539062 L 37.257812 54.773438 C 39.753906 54.550781 41.148438 54.042969 41.441406 53.238281 M 104.71875 26.617188 C 113.960938 32.167969 119.683594 38.195312 121.886719 44.695312 C 105.304688 37.246094 88.429688 33.886719 71.261719 34.617188 L 70.164062 34.617188 L 69.722656 34.726562 C 62.605469 35.089844 55.34375 36.1875 47.933594 38.011719 C 28.636719 42.976562 14.257812 50.9375 4.792969 61.890625 C 2.742188 43.050781 8.609375 28.589844 22.402344 18.511719 C 27.171875 15.082031 33.480469 12.890625 41.332031 11.941406 L 52.003906 11.503906 C 61.617188 11.792969 71.628906 13.511719 82.046875 16.652344 C 90.265625 19.058594 97.820312 22.382812 104.71875 26.617188 M 106.148438 43.816406 C 116.640625 46.8125 122.289062 49.222656 123.09375 51.046875 C 126.324219 58.421875 127.902344 65.617188 127.828125 72.628906 C 127.828125 79.566406 126.175781 86.613281 122.875 93.769531 L 118.144531 83.691406 C 116.75 78.871094 113.886719 73.648438 109.558594 68.027344 C 106.113281 62.914062 102.699219 58.640625 99.324219 55.210938 C 94.851562 50.609375 87.328125 45.023438 76.765625 38.449219 L 85.019531 39.214844 C 91.035156 39.875 98.078125 41.40625 106.148438 43.816406 M 109.449219 18.621094 C 112.382812 22.859375 114.109375 25.960938 114.621094 27.933594 C 104.058594 19.535156 91.953125 13.730469 78.304688 10.515625 C 65.761719 7.59375 52.261719 6.972656 37.808594 8.652344 C 43.53125 4.785156 50.355469 2.117188 58.277344 0.65625 L 80.285156 0 C 88.722656 1.023438 96.5 4.785156 103.617188 11.28125 L 109.449219 18.621094 M 29.996094 123.34375 L 32.195312 122.578125 L 32.085938 123.894531 L 29.554688 129.589844 C 28.308594 133.023438 28.566406 135.652344 30.324219 137.476562 C 30.914062 138.0625 31.351562 137.148438 31.644531 134.738281 C 32.011719 131.523438 32.671875 129.261719 33.625 127.945312 C 34.800781 126.339844 36.855469 124.734375 39.789062 123.125 C 42.355469 121.738281 44.339844 120.933594 45.730469 120.714844 L 45.070312 124.003906 C 44.191406 126.703125 43.898438 128.785156 44.191406 130.246094 C 44.777344 132.949219 44.703125 135.871094 43.972656 139.011719 C 43.019531 143.101562 41.148438 145.472656 38.359375 146.128906 C 35.351562 146.789062 32.601562 146.277344 30.105469 144.597656 C 27.90625 142.988281 26.4375 140.800781 25.703125 138.023438 C 25.042969 135.613281 25.226562 132.730469 26.253906 129.371094 C 27.28125 126.230469 28.527344 124.222656 29.996094 123.34375 M 118.695312 110.96875 C 117.667969 114.253906 115.6875 116.847656 112.75 118.746094 C 114.730469 113.777344 116.382812 108.007812 117.703125 101.4375 C 119.390625 104.429688 119.71875 107.609375 118.695312 110.96875 M 62.570312 161.464844 C 58.386719 162.488281 54.574219 162.269531 51.125 160.808594 C 70.347656 155.113281 83.367188 140.945312 90.191406 118.304688 C 95.695312 99.902344 96.539062 79.34375 92.722656 56.632812 C 98.445312 61.746094 103.285156 66.96875 107.25 72.296875 L 114.84375 86.539062 C 115.503906 88.730469 115.722656 90.773438 115.503906 92.671875 C 114.546875 101.363281 112.496094 109.871094 109.339844 118.195312 C 104.425781 131.851562 96.792969 142.734375 86.449219 150.839844 C 80.214844 155.734375 72.253906 159.277344 62.570312 161.464844 "/>
</g>
</svg>
