<?xml version="1.0" encoding="UTF-8"?>
<svg xmlns="http://www.w3.org/2000/svg" xmlns:xlink="http://www.w3.org/1999/xlink" width="128pt" height="176pt" viewBox="0 0 128 176" version="1.1">
<g id="surface1">
<path style=" stroke:none;fill-rule:nonzero;fill:rgb(100%,100%,100%);fill-opacity:1;" d="M 82.875 0.132812 C 84.347656 3.90625 85.292969 9.257812 85.71875 16.1875 C 86.222656 24.195312 86.824219 29.625 87.519531 32.472656 C 88.371094 35.820312 89.667969 39.691406 91.410156 44.082031 L 96.175781 55.398438 L 99.660156 64.582031 C 100.742188 68.277344 100.996094 71.492188 100.414062 74.226562 C 95.070312 76.152344 89.496094 77.652344 83.6875 78.730469 C 85.585938 75.457031 86.457031 71.53125 86.300781 66.949219 C 86.222656 64.601562 85.738281 61.617188 84.847656 58 L 82.640625 49.164062 C 81.90625 44.964844 81.578125 39.902344 81.65625 33.972656 L 82.0625 18.671875 L 82.0625 13.761719 L 82.292969 13.53125 L 82.0625 13.300781 C 82.023438 8.910156 81.847656 4.558594 81.539062 0.246094 L 82.875 0.132812 M 93.851562 3.828125 C 96.832031 5.253906 100.085938 7.910156 103.609375 11.796875 C 106.9375 15.492188 109.765625 19.460938 112.085938 23.695312 C 107.558594 23.386719 103.375 23.847656 99.542969 25.082031 C 94.972656 26.582031 91.703125 28.988281 89.726562 32.300781 C 89.148438 29.679688 88.585938 24.328125 88.042969 16.246094 C 87.578125 9.46875 86.628906 4.195312 85.199219 0.421875 C 87.09375 0.804688 89.980469 1.941406 93.851562 3.828125 M 45.9375 4.753906 C 45.667969 8.332031 45.648438 12.066406 45.878906 15.957031 C 43.789062 14.953125 42.414062 13.605469 41.757812 11.914062 C 41.214844 10.375 41.273438 8.601562 41.929688 6.601562 L 45.066406 4.289062 L 45.9375 4.753906 M 55.871094 30.105469 C 58.929688 38.304688 62.722656 45.484375 67.253906 51.644531 C 64.929688 53.03125 62.703125 54.648438 60.574219 56.496094 C 55.964844 49.257812 52.578125 41.136719 50.410156 32.125 C 48.320312 23.269531 47.601562 14.492188 48.261719 5.792969 L 49.828125 6.425781 C 51.144531 14.820312 53.160156 22.710938 55.871094 30.105469 M 67.71875 20.921875 C 72.285156 20.539062 76.292969 18.921875 79.738281 16.070312 L 79.390625 30.566406 C 79.234375 36.304688 79.390625 41.117188 79.855469 45.003906 C 75.75 46.851562 72.09375 48.71875 68.878906 50.605469 L 64.988281 44.714844 L 65.160156 44.714844 C 64.96875 37.941406 65.179688 32.164062 65.800781 27.390625 C 66.34375 23.269531 66.980469 21.113281 67.71875 20.921875 M 61.386719 12.722656 C 64.910156 12.722656 68.355469 11.816406 71.722656 10.007812 C 75.207031 8.121094 77.765625 5.714844 79.390625 2.789062 L 79.679688 12.894531 C 76.390625 16.320312 72.324219 18.226562 67.484375 18.613281 C 64.269531 19.074219 62.703125 26.484375 62.78125 40.847656 C 58.058594 31.835938 54.667969 21.480469 52.617188 9.777344 C 54.941406 11.738281 57.863281 12.722656 61.386719 12.722656 M 28.863281 31.605469 C 29.25 34.222656 30.160156 38.382812 31.59375 44.082031 L 33.160156 50.664062 C 30.027344 53.746094 27.101562 57.09375 24.390625 60.710938 L 20.617188 66.140625 C 19.183594 66.488281 16.804688 65.832031 13.472656 64.179688 C 11.34375 63.101562 9.777344 61.136719 8.769531 58.289062 C 8.1875 56.746094 7.820312 55.074219 7.667969 53.261719 C 7.667969 52.722656 7.9375 51.914062 8.480469 50.835938 L 8.710938 50.375 C 10.414062 46.71875 12.601562 42.695312 15.273438 38.304688 C 19.496094 31.335938 24.042969 24.984375 28.921875 19.246094 C 28.1875 22.90625 28.167969 27.023438 28.863281 31.605469 M 39.085938 8.96875 C 39.007812 10.277344 39.164062 11.507812 39.550781 12.664062 C 40.480469 15.28125 42.589844 17.226562 45.878906 18.496094 C 46.152344 19.191406 46.015625 22.289062 45.472656 27.792969 L 44.835938 36.976562 C 44.914062 42.289062 45.453125 49.21875 46.460938 57.765625 C 47.042969 62.8125 47.273438 65.699219 47.15625 66.429688 C 44.71875 66.316406 42.375 65.582031 40.128906 64.234375 C 38.8125 63.386719 37.730469 62.484375 36.878906 61.519531 L 36.820312 60.078125 C 36.664062 57.304688 35.910156 53.050781 34.554688 47.316406 L 31.011719 31.144531 C 30.238281 25.101562 30.898438 19.710938 32.988281 14.972656 L 33.046875 14.683594 L 39.085938 8.96875 M 63.824219 57.363281 C 67.542969 54.398438 73 51.203125 80.203125 47.777344 L 83.6875 63.714844 C 84.113281 66.0625 84.132812 68.433594 83.746094 70.820312 C 83.28125 73.476562 82.410156 75.726562 81.132812 77.574219 C 80.398438 73.265625 78.730469 69.546875 76.136719 66.429688 C 73.3125 63.042969 69.828125 60.945312 65.683594 60.136719 L 63.824219 57.363281 M 47.15625 36.976562 L 47.679688 29.585938 C 49.847656 40.097656 53.644531 49.507812 59.0625 57.824219 C 55.347656 61.289062 53.507812 64.71875 53.546875 68.105469 C 53.585938 71.300781 55.113281 74.148438 58.132812 76.652344 C 60.496094 78.617188 63.496094 80.195312 67.136719 81.386719 L 71.027344 82.136719 C 64.214844 82.675781 57.746094 82.117188 51.628906 80.464844 C 45.859375 78.886719 40.847656 76.324219 36.589844 72.78125 L 36.9375 64.753906 C 40.148438 67.410156 43.691406 68.738281 47.5625 68.738281 C 48.144531 68.738281 48.570312 68.566406 48.84375 68.21875 C 49.308594 67.71875 49.519531 66.679688 49.480469 65.101562 L 48.785156 57.535156 C 47.777344 48.988281 47.234375 42.136719 47.15625 36.976562 M 63.710938 60.710938 C 63.710938 61.328125 63.941406 61.773438 64.40625 62.042969 C 65.453125 64.429688 65.957031 67.007812 65.917969 69.78125 C 65.878906 72.476562 65.355469 75.074219 64.347656 77.574219 L 64.347656 78.097656 C 61.792969 77.019531 59.761719 75.691406 58.25 74.109375 C 56.429688 72.1875 55.675781 70.085938 55.984375 67.816406 C 56.371094 65.003906 58.484375 61.945312 62.316406 58.632812 L 63.710938 60.710938 M 14.519531 67.355469 C 14.519531 69.085938 14.074219 70.453125 13.183594 71.453125 L 11.789062 72.378906 L 10.800781 72.667969 L 12.023438 79.480469 C 12.796875 83.371094 12.949219 85.46875 12.488281 85.777344 C 12.175781 85.929688 11.441406 85.660156 10.28125 84.96875 C 7.800781 83.503906 6.253906 80.578125 5.632812 76.191406 C 5.402344 74.417969 5.363281 72.070312 5.515625 69.144531 C 5.515625 68.566406 5.1875 68.257812 4.53125 68.21875 C 3.832031 68.183594 3.386719 68.414062 3.195312 68.914062 C 2.613281 70.222656 2.632812 72.820312 3.253906 76.710938 C 4.066406 81.792969 6 85.21875 9.058594 86.988281 C 10.726562 87.953125 12.078125 88.277344 13.125 87.972656 L 13.300781 88.433594 L 14.636719 91.03125 C 14.867188 91.339844 14.945312 91.746094 14.867188 92.246094 C 14.789062 92.785156 14.539062 93.167969 14.113281 93.398438 C 13.027344 94.09375 11.246094 93.496094 8.769531 91.609375 L 7.609375 90.683594 L 6.621094 89.472656 C 5.035156 87.507812 3.679688 85.371094 2.554688 83.0625 C 0.890625 79.636719 0.0585938 76.382812 0.0585938 73.300781 C 0.0195312 68.953125 1.878906 63.523438 5.632812 57.015625 C 6.910156 61.636719 9.273438 64.8125 12.71875 66.546875 L 14.519531 67.355469 M 17.074219 75.785156 L 20.441406 80.808594 C 22.339844 83.851562 23.015625 85.601562 22.476562 86.066406 C 21.664062 86.757812 20.539062 86.355469 19.105469 84.851562 L 16.609375 82.023438 L 16.378906 82.082031 L 16.261719 82.082031 C 16.183594 82.351562 16.824219 83.621094 18.179688 85.890625 C 19.378906 88.007812 19.589844 89.394531 18.816406 90.050781 C 18.121094 90.667969 17.210938 90.609375 16.085938 89.875 L 13.707031 87.738281 L 13.878906 87.625 C 14.730469 87.007812 15.121094 85.816406 15.042969 84.042969 C 15.042969 83.003906 14.789062 81.328125 14.285156 79.019531 L 13.414062 74.226562 C 15.273438 73.339844 16.300781 71.28125 16.492188 68.046875 L 19.863281 68.683594 L 19.628906 70.644531 C 19.476562 71.492188 19.125 72.4375 18.585938 73.476562 L 17.074219 75.785156 M 53.3125 87.046875 C 53.121094 93.089844 52.714844 99.117188 52.09375 105.125 C 47.992188 101.003906 44.621094 96.480469 41.988281 91.550781 C 39.085938 86.160156 37.34375 80.808594 36.761719 75.496094 L 38.332031 76.480469 C 41.621094 78.75 45.53125 80.675781 50.0625 82.253906 C 55.015625 83.984375 61.308594 84.71875 68.9375 84.449219 C 76.988281 84.179688 83.707031 82.832031 89.089844 80.40625 L 89.378906 80.234375 L 96.289062 78.382812 C 96.484375 84.042969 95.941406 90.28125 94.664062 97.097656 C 93.695312 102.140625 92.148438 108.203125 90.019531 115.289062 C 85.527344 130.03125 79.855469 143.394531 73 155.367188 C 70.71875 159.332031 68.414062 162.816406 66.089844 165.820312 C 63.613281 160.96875 60.765625 156.828125 57.554688 153.402344 C 53.644531 149.207031 49.519531 146.453125 45.183594 145.144531 C 46.964844 142.488281 48.550781 138.597656 49.945312 133.480469 C 51.339844 128.433594 52.558594 121.929688 53.605469 113.957031 C 54.765625 104.601562 55.445312 96.019531 55.636719 88.203125 C 55.675781 87.585938 55.308594 87.046875 54.535156 86.585938 C 53.757812 86.160156 53.351562 86.316406 53.3125 87.046875 M 66.613281 78.902344 C 67.660156 76.285156 68.199219 73.589844 68.238281 70.820312 C 68.277344 67.96875 67.8125 65.273438 66.847656 62.734375 C 70.445312 63.65625 73.371094 65.738281 75.617188 68.972656 C 77.628906 71.9375 78.789062 75.421875 79.101562 79.425781 L 66.902344 78.960938 L 66.613281 78.902344 M 124.980469 59.441406 C 120.296875 55.667969 115.707031 52.800781 111.214844 50.835938 C 105.445312 48.296875 100.179688 47.429688 95.417969 48.238281 L 93.503906 43.675781 L 93.734375 43.617188 C 98.691406 41.617188 104.265625 40.886719 110.460938 41.425781 C 116.074219 41.925781 121.515625 43.386719 126.78125 45.8125 L 127.535156 49.914062 C 127.84375 53.261719 126.992188 56.4375 124.980469 59.441406 M 125.910156 43.097656 C 120.796875 40.902344 115.550781 39.558594 110.171875 39.054688 C 104.324219 38.515625 98.960938 39.054688 94.082031 40.671875 C 96.792969 37.515625 100.78125 35.320312 106.046875 34.089844 C 110.578125 33.011719 115.261719 32.761719 120.101562 33.339844 L 120.449219 33.339844 C 122.8125 36.574219 124.632812 39.828125 125.910156 43.097656 M 114.121094 26.234375 L 118.535156 30.855469 C 113.308594 30.316406 108.46875 30.644531 104.015625 31.835938 C 98.75 33.222656 94.683594 35.648438 91.820312 39.113281 L 90.832031 36.226562 C 92.339844 32.105469 95.59375 29.199219 100.589844 27.507812 C 104.613281 26.160156 109.125 25.734375 114.121094 26.234375 M 110.578125 52.917969 C 111.621094 58.691406 110.285156 64.949219 106.570312 71.683594 L 106.453125 71.917969 L 103.027344 73.300781 C 103.183594 71.144531 102.890625 68.683594 102.15625 65.910156 L 99.773438 58.863281 L 96.40625 50.664062 C 100.511719 49.894531 105.234375 50.644531 110.578125 52.917969 M 123.761719 61 C 120.894531 64.351562 116.382812 67.449219 110.230469 70.300781 C 112.824219 64.449219 113.753906 59.039062 113.015625 54.070312 C 116.539062 55.84375 120.121094 58.152344 123.761719 61 M 110.691406 143.699219 C 110.886719 145.546875 110.480469 147.722656 109.472656 150.226562 C 108.855469 151.804688 107.847656 153.808594 106.453125 156.234375 C 103.589844 161.316406 99.679688 165.222656 94.722656 167.957031 C 88.683594 171.34375 84.441406 171.84375 82.003906 169.457031 C 80.765625 168.226562 80.453125 166.53125 81.074219 164.375 C 81.382812 163.335938 82.195312 161.621094 83.511719 159.234375 C 85.992188 158.695312 88.933594 159.273438 92.339844 160.96875 C 93.152344 161.351562 93.582031 161.160156 93.617188 160.390625 C 93.65625 159.660156 93.347656 159.121094 92.691406 158.773438 C 89.941406 157.464844 87.40625 156.753906 85.082031 156.636719 L 87.636719 152.710938 C 92.246094 154.867188 96.773438 154.617188 101.226562 151.957031 C 105.292969 149.535156 108.195312 145.894531 109.9375 141.042969 L 110.691406 143.699219 M 107.558594 136.480469 L 108.3125 137.808594 L 108.195312 138.097656 C 106.917969 142.871094 104.34375 146.589844 100.472656 149.246094 C 96.214844 152.171875 91.875 152.535156 87.460938 150.34375 L 82.003906 143.757812 C 85.796875 135.597656 89.222656 126.53125 92.28125 116.558594 C 95.265625 118.867188 98.128906 121.929688 100.878906 125.738281 C 102.929688 128.550781 105.15625 132.132812 107.558594 136.480469 M 42.453125 146.53125 C 45.085938 149.804688 47.757812 153.5 50.46875 157.617188 L 53.488281 162.355469 L 40.304688 168.359375 C 36.316406 164.855469 32.621094 160.660156 29.210938 155.769531 L 25.4375 149.878906 C 24.042969 147.070312 23.773438 144.894531 24.625 143.355469 C 25.4375 141.890625 27.238281 141.238281 30.027344 141.390625 C 32.078125 141.507812 34.070312 141.949219 36.007812 142.71875 C 38.292969 143.644531 40.441406 144.914062 42.453125 146.53125 M 54.765625 164.664062 C 57.128906 169.207031 57.574219 172.59375 56.101562 174.828125 L 55.984375 175.058594 L 53.488281 175.695312 C 51.746094 175.808594 49.808594 175.269531 47.679688 174.078125 C 46.285156 173.269531 44.582031 172.019531 42.570312 170.324219 L 54.589844 164.78125 L 54.765625 164.664062 M 63.011719 169.515625 C 61.773438 170.902344 60.535156 172.074219 59.296875 173.039062 C 59.375 170.957031 58.695312 168.398438 57.261719 165.355469 L 53.488281 158.773438 C 51.242188 155.039062 48.6875 151.34375 45.820312 147.683594 C 49.808594 148.996094 53.566406 151.6875 57.089844 155.769531 C 59.914062 159.003906 62.453125 162.914062 64.695312 167.492188 L 63.011719 169.515625 "/>
</g>
</svg>
