<?xml version="1.0" encoding="UTF-8"?>
<svg xmlns="http://www.w3.org/2000/svg" xmlns:xlink="http://www.w3.org/1999/xlink" width="128pt" height="181pt" viewBox="0 0 128 181" version="1.1">
<g id="surface1">
<path style=" stroke:none;fill-rule:nonzero;fill:rgb(100%,100%,100%);fill-opacity:1;" d="M 91.617188 1.15625 L 95.054688 2.867188 L 98.035156 4.527344 C 100.632812 6.011719 103.554688 8.789062 106.800781 12.867188 C 109.703125 16.523438 112.261719 20.710938 114.476562 25.433594 L 114.476562 25.492188 L 101.988281 25.949219 C 97.402344 27.050781 94.003906 29.183594 91.789062 32.347656 C 91.292969 29.414062 91.082031 25.644531 91.160156 21.035156 L 91.273438 9.667969 C 91.273438 7.992188 91.121094 6.773438 90.816406 6.011719 C 91.234375 4.296875 91.503906 2.679688 91.617188 1.15625 M 89.269531 0.355469 C 88.847656 5.230469 86.957031 10.238281 83.59375 15.378906 L 83.25 15.894531 C 79.203125 21.910156 72.59375 28.59375 63.425781 35.945312 C 62.625 33.964844 61.859375 31.832031 61.136719 29.546875 C 66.941406 24.671875 71.984375 20.0625 76.261719 15.722656 L 81.359375 10.007812 C 83.15625 7.6875 84.378906 5.476562 85.027344 3.382812 C 85.140625 3.078125 85.105469 2.773438 84.914062 2.46875 L 85.542969 0.0703125 L 85.601562 0.0703125 L 89.269531 0.355469 M 73.683594 14.410156 C 70.628906 17.53125 66.15625 21.625 60.277344 26.691406 C 58.710938 21.320312 57.601562 15.796875 56.953125 10.125 C 59.089844 12.140625 61.824219 13.265625 65.144531 13.496094 C 69.347656 13.800781 73.378906 12.867188 77.234375 10.695312 L 73.683594 14.410156 M 89.039062 10.980469 L 89.097656 12.867188 L 88.980469 24.121094 C 89.058594 28.421875 89.476562 32.175781 90.242188 35.375 C 90.929688 38.421875 91.921875 41.980469 93.222656 46.054688 L 96.714844 56.566406 L 99.292969 65.421875 C 99.945312 68.886719 99.925781 71.894531 99.238281 74.449219 C 93.621094 76.007812 88.066406 77.074219 82.5625 77.648438 C 85.734375 73.34375 86.535156 66.621094 84.96875 57.480469 C 83.710938 50.09375 83.175781 43.714844 83.367188 38.34375 C 83.441406 35.753906 83.765625 32.25 84.339844 27.832031 L 85.542969 17.378906 C 86.878906 15.324219 88.046875 13.191406 89.039062 10.980469 M 32.886719 20.292969 C 33.882812 15.988281 35.390625 12.238281 37.414062 9.039062 C 39.972656 5.117188 43.03125 2.621094 46.582031 1.554688 L 48.988281 3.441406 C 44.25 8.734375 39.535156 14.808594 34.835938 21.664062 L 32.886719 20.292969 M 54.203125 6.355469 C 48.28125 15.53125 42.859375 24.578125 37.929688 33.488281 L 33.460938 42 C 31.855469 45.238281 30.632812 48.207031 29.792969 50.910156 C 28.378906 55.40625 27.558594 59.136719 27.332031 62.109375 C 26.949219 66.488281 27.636719 70.164062 29.394531 73.132812 L 28.191406 72.847656 C 25.097656 72.125 22.269531 71.191406 19.710938 70.050781 C 18.984375 63.308594 20.226562 55.902344 23.433594 47.828125 C 25.6875 42.078125 29.257812 35.335938 34.148438 27.605469 C 39.574219 19.148438 45.300781 11.589844 51.335938 4.925781 C 52.445312 5.535156 53.398438 6.011719 54.203125 6.355469 M 51.910156 14.980469 L 54.773438 10.523438 C 55.539062 16.617188 56.800781 22.578125 58.558594 28.402344 C 58.558594 28.707031 58.652344 29.011719 58.84375 29.316406 C 61.210938 36.820312 64.34375 43.636719 68.238281 49.769531 L 62.109375 53.484375 C 62.070312 53.101562 61.878906 52.738281 61.535156 52.398438 L 61.136719 52.113281 L 59.933594 50.570312 C 58.824219 48.472656 57.8125 46.207031 56.894531 43.769531 L 56.609375 43.144531 C 53.859375 35.5625 52.3125 26.214844 51.96875 15.09375 L 51.910156 14.980469 M 49.90625 50.683594 C 47.652344 51.367188 45.492188 52.492188 43.429688 54.054688 C 40.453125 56.261719 38.140625 59.269531 36.496094 63.078125 C 34.664062 67.308594 34.453125 71 35.867188 74.160156 L 32.027344 73.648438 C 28.207031 68.847656 28.589844 60.679688 33.175781 49.140625 L 34.207031 46.683594 L 34.722656 46.570312 C 37.546875 44.550781 41.140625 42.78125 45.492188 41.257812 C 50.113281 43.886719 53.953125 46.855469 57.011719 50.167969 C 54.832031 49.675781 52.464844 49.84375 49.90625 50.683594 M 52.882812 43.769531 L 47.671875 40.230469 L 52.425781 36.574219 L 54.316406 42.800781 L 52.882812 43.769531 M 55.578125 46.054688 L 55.0625 45.597656 L 55.347656 45.425781 L 55.578125 46.054688 M 64.515625 38.574219 C 72.539062 32.175781 78.628906 26.367188 82.792969 21.148438 L 81.875 28.003906 L 81.1875 34.917969 C 80.996094 37.660156 80.960938 40.722656 81.074219 44.113281 C 76.644531 45.828125 72.9375 47.40625 69.957031 48.855469 C 67.894531 45.503906 66.082031 42.078125 64.515625 38.574219 M 43.660156 28.746094 L 49.847656 18.351562 C 50.152344 23.910156 50.785156 28.996094 51.738281 33.601562 L 48.703125 36 C 47.25 32.6875 45.570312 30.269531 43.660156 28.746094 M 43.429688 31.203125 C 44.921875 32.804688 46.105469 34.820312 46.984375 37.257812 L 47.039062 37.316406 L 45.378906 38.515625 L 44.921875 38.6875 C 43.203125 37.582031 41.347656 36.820312 39.363281 36.402344 L 42.6875 30.519531 L 43.429688 31.203125 M 28.589844 31.488281 L 25.324219 37.316406 L 24.636719 37.257812 C 21.503906 38.019531 18.507812 39.335938 15.640625 41.199219 C 12.851562 42.992188 10.390625 45.179688 8.25 47.769531 C 9.550781 43.429688 12.492188 37.980469 17.074219 31.433594 L 18.335938 29.773438 L 18.679688 29.832031 C 21.886719 29.757812 24.65625 30.0625 26.988281 30.746094 L 28.589844 31.488281 M 33.746094 23.320312 L 29.679688 29.71875 C 27.578125 28.234375 24.410156 27.453125 20.167969 27.375 L 23.605469 23.546875 C 25.476562 21.566406 28.113281 21.015625 31.511719 21.890625 L 33.691406 23.207031 L 33.691406 23.261719 L 33.746094 23.320312 M 42.34375 39.601562 C 40.050781 40.476562 38.007812 41.410156 36.210938 42.398438 L 38.214844 38.457031 L 42.34375 39.601562 M 45.265625 56.109375 C 47.328125 54.359375 49.65625 53.195312 52.253906 52.625 C 55.234375 51.941406 57.753906 52.265625 59.816406 53.597656 L 60.503906 54.683594 L 59.703125 55.253906 C 55.804688 58.414062 53.761719 61.707031 53.570312 65.136719 C 53.417969 67.382812 54.105469 69.554688 55.632812 71.648438 C 53.648438 72.5625 51.492188 73.265625 49.160156 73.761719 C 46.371094 71.667969 44.539062 69.117188 43.660156 66.105469 C 42.703125 62.910156 42.992188 59.785156 44.519531 56.738281 L 45.265625 56.109375 M 46.640625 74.21875 C 44.195312 74.523438 41.386719 74.582031 38.214844 74.390625 C 37.183594 72.484375 36.976562 70.257812 37.585938 67.707031 C 38.121094 65.535156 39.191406 63.308594 40.796875 61.023438 C 40.679688 63.421875 41.15625 65.800781 42.226562 68.164062 C 43.257812 70.410156 44.730469 72.429688 46.640625 74.21875 M 64.457031 55.140625 C 68.203125 52.550781 73.816406 49.808594 81.304688 46.914062 C 81.457031 48.929688 81.722656 51.121094 82.105469 53.484375 C 83.023438 59.234375 83.480469 63.195312 83.480469 65.363281 C 83.480469 70.085938 82.335938 73.761719 80.042969 76.390625 C 79.621094 72.046875 78.246094 68.257812 75.917969 65.023438 C 73.433594 61.480469 70.167969 59.15625 66.121094 58.050781 L 64.457031 55.140625 M 64.058594 58.339844 C 64.058594 58.871094 64.25 59.328125 64.628906 59.710938 C 65.507812 62.109375 65.832031 64.71875 65.605469 67.535156 C 65.375 70.203125 64.667969 72.753906 63.484375 75.191406 L 63.371094 75.648438 C 61.652344 74.769531 60.160156 73.742188 58.902344 72.5625 L 58.5 71.363281 C 58.195312 70.980469 57.851562 70.8125 57.46875 70.847656 C 56.132812 69.019531 55.632812 67.136719 55.976562 65.191406 C 56.398438 62.453125 58.613281 59.539062 62.625 56.453125 L 62.910156 56.28125 L 64.058594 58.339844 M 67.839844 68.734375 C 68.105469 65.917969 67.859375 63.210938 67.09375 60.625 C 70.570312 61.804688 73.28125 64.089844 75.230469 67.476562 C 77.023438 70.5625 77.902344 74.085938 77.867188 78.046875 C 73.472656 78.238281 69.730469 77.894531 66.636719 77.019531 L 65.660156 76.675781 C 66.882812 74.160156 67.609375 71.515625 67.839844 68.734375 M 66.0625 79.074219 C 69.234375 80.253906 73.53125 80.695312 78.953125 80.390625 C 79.261719 80.578125 79.546875 80.578125 79.8125 80.390625 L 80.101562 80.332031 L 85.085938 79.933594 C 79.851562 81.53125 73.777344 82.789062 66.863281 83.703125 L 52.769531 83.128906 C 47.460938 81.988281 43.257812 79.933594 40.164062 76.960938 C 46.925781 77.226562 52.675781 76.160156 57.410156 73.761719 C 59.777344 76.007812 62.664062 77.78125 66.0625 79.074219 M 19.195312 50.796875 C 16.789062 52.015625 14.746094 53.519531 13.0625 55.308594 C 11.078125 57.40625 9.816406 59.59375 9.28125 61.878906 C 8.023438 59.824219 7.332031 57.59375 7.21875 55.195312 L 7.21875 54.167969 L 7.332031 53.996094 C 9.054688 50.796875 11.363281 47.980469 14.265625 45.542969 C 17.167969 43.144531 20.378906 41.351562 23.890625 40.171875 C 22.058594 43.980469 20.644531 47.503906 19.652344 50.742188 L 19.195312 50.796875 M 17.304688 68.90625 C 14.859375 67.574219 12.871094 66.105469 11.34375 64.507812 C 11.726562 60.625 14.152344 57.195312 18.621094 54.226562 C 17.359375 59.328125 16.921875 64.222656 17.304688 68.90625 M 23.546875 127.632812 C 24.199219 122.871094 25.9375 119.386719 28.761719 117.179688 C 31.246094 118.738281 34.761719 119.976562 39.304688 120.890625 C 39.34375 123.632812 40.109375 126.300781 41.597656 128.886719 C 42.933594 131.25 44.75 133.402344 47.039062 135.34375 L 43.71875 135.402344 C 40.738281 135.402344 36.632812 134.792969 31.398438 133.574219 C 26.242188 132.46875 23.625 130.546875 23.546875 127.804688 L 23.546875 127.632812 M 58.214844 102.382812 C 57.714844 102.800781 57.753906 103.316406 58.328125 103.925781 C 60.007812 105.714844 61.5 107.789062 62.796875 110.152344 C 61.5 112.207031 60.390625 115.082031 59.472656 118.777344 C 54.621094 119.691406 49.960938 120.035156 45.492188 119.804688 L 37.414062 118.261719 C 34.167969 117.578125 31.589844 116.644531 29.679688 115.464844 L 33.804688 96.785156 C 35.484375 89.546875 37.148438 83.398438 38.789062 78.332031 C 41.960938 81.378906 46.125 83.585938 51.28125 84.957031 C 55.710938 86.140625 60.429688 86.597656 65.433594 86.328125 C 73.070312 85.910156 81.285156 84.140625 90.070312 81.015625 C 93.355469 79.875 95.648438 78.789062 96.945312 77.761719 L 97.347656 77.648438 C 99.523438 84.578125 101.222656 92.269531 102.445312 100.726562 C 103.402344 107.429688 104.125 115.273438 104.625 124.261719 C 105.3125 135.574219 105.445312 147.074219 105.023438 158.765625 L 104.910156 161.222656 C 101.855469 163.8125 98.261719 164.953125 94.136719 164.648438 C 90.355469 164.382812 86.785156 163.011719 83.421875 160.535156 L 79.070312 146.597656 C 75.785156 136.582031 72.710938 128.070312 69.84375 121.0625 C 67.78125 116.074219 66.253906 112.644531 65.261719 110.78125 C 65.261719 110.511719 65.109375 110.226562 64.800781 109.921875 C 63.234375 106.992188 61.574219 104.570312 59.816406 102.667969 C 59.246094 102.058594 58.710938 101.964844 58.214844 102.382812 M 46.179688 122.203125 C 50.6875 122.472656 55.5 122.109375 60.621094 121.121094 L 61.707031 131.117188 C 59.453125 133.441406 55.519531 134.792969 49.90625 135.171875 L 49.5625 134.886719 C 47.191406 133.097656 45.320312 131.136719 43.945312 129.003906 C 42.34375 126.488281 41.558594 123.9375 41.597656 121.347656 L 45.894531 122.203125 L 46.179688 122.203125 M 61.878906 134.371094 C 62.070312 138.066406 62.070312 141.742188 61.878906 145.398438 C 58.328125 146.121094 54.203125 146.214844 49.503906 145.683594 L 37.242188 143.339844 L 30.023438 141.742188 C 27.234375 140.941406 25.078125 139.835938 23.546875 138.429688 C 23.28125 135.800781 23.167969 133.535156 23.203125 131.628906 C 24.886719 133.609375 26.757812 134.828125 28.820312 135.285156 L 33.691406 136.601562 L 38.558594 137.515625 C 46.734375 138.199219 53.476562 137.628906 58.785156 135.800781 L 61.878906 134.371094 M 121.925781 35.601562 C 124.105469 39.105469 125.652344 42.4375 126.566406 45.597656 C 121.679688 43.046875 116.636719 41.332031 111.441406 40.457031 C 105.75 39.503906 100.441406 39.640625 95.511719 40.859375 C 98.53125 37.847656 102.65625 35.945312 107.890625 35.144531 L 121.699219 35.546875 L 121.925781 35.601562 M 120.265625 32.972656 C 115.183594 32.097656 110.410156 32.058594 105.941406 32.859375 C 100.59375 33.8125 96.390625 35.90625 93.335938 39.144531 L 92.589844 36.230469 L 92.648438 36.171875 C 94.445312 32.25 97.882812 29.640625 102.960938 28.347656 C 107.011719 27.320312 111.460938 27.222656 116.3125 28.0625 L 120.207031 32.917969 L 120.265625 32.972656 M 124.449219 61.59375 C 120.054688 57.519531 115.738281 54.359375 111.5 52.113281 C 106 49.179688 100.898438 47.960938 96.199219 48.457031 L 94.710938 43.769531 L 94.996094 43.714844 C 100 42.152344 105.519531 41.867188 111.554688 42.855469 C 116.980469 43.734375 122.195312 45.542969 127.199219 48.285156 L 127.65625 51.769531 C 127.886719 55.425781 126.816406 58.699219 124.449219 61.59375 M 101.527344 65.878906 L 99.464844 58.28125 L 97.058594 50.855469 C 101.300781 50.4375 105.882812 51.503906 110.8125 54.054688 C 111.421875 59.804688 109.628906 65.9375 105.425781 72.449219 L 105.367188 72.621094 L 101.929688 73.703125 C 102.273438 71.421875 102.140625 68.8125 101.527344 65.878906 M 113.160156 55.367188 C 116.484375 57.347656 119.804688 59.898438 123.128906 63.023438 C 120.074219 66.144531 115.453125 68.886719 109.265625 71.25 C 112.242188 65.648438 113.542969 60.355469 113.160156 55.367188 M 84.109375 171.390625 C 83.765625 170.703125 83.558594 169.5625 83.480469 167.960938 L 83.539062 165.621094 L 83.710938 163.164062 C 87.375 165.5625 91.160156 166.878906 95.054688 167.105469 C 99.371094 167.335938 103.132812 166.152344 106.34375 163.5625 C 110.160156 166.800781 113.273438 169.828125 115.679688 172.648438 L 117.570312 175.21875 C 118.257812 176.472656 118.355469 177.425781 117.859375 178.074219 C 116.445312 179.789062 113.503906 180.246094 109.035156 179.445312 C 104.757812 178.570312 99.582031 176.074219 93.507812 171.960938 L 91.617188 170.589844 C 91.347656 170.363281 91.023438 170.265625 90.644531 170.304688 C 90.261719 170.304688 90.050781 170.515625 90.011719 170.933594 C 89.972656 171.695312 89.515625 172.210938 88.636719 172.476562 L 86.171875 172.53125 C 85.027344 172.34375 84.339844 171.960938 84.109375 171.390625 M 52.3125 149.226562 C 56.972656 152.273438 59.453125 155.660156 59.761719 159.394531 L 59.988281 159.964844 L 58.328125 165.277344 C 56.226562 159.792969 51.546875 155.300781 44.289062 151.796875 C 39.933594 149.703125 33.421875 147.585938 24.753906 145.453125 L 23.949219 141.226562 C 25.554688 142.332031 27.578125 143.226562 30.023438 143.914062 L 36.726562 145.511719 C 42.914062 146.996094 47.878906 147.910156 51.625 148.253906 L 52.3125 149.226562 M 61.078125 153.96875 L 60.792969 155.625 C 59.453125 152.84375 57.390625 150.445312 54.601562 148.425781 L 61.652344 148.027344 L 61.078125 153.96875 M 25.785156 175.273438 C 25.132812 177.140625 23.855469 178.796875 21.945312 180.246094 L 21.65625 180.816406 L 18.621094 180.246094 L 11.117188 178.074219 C 8.480469 177.046875 6.320312 175.578125 4.640625 173.675781 C 1.546875 170.132812 2.292969 165.8125 6.875 160.707031 C 9.96875 160.820312 13.3125 161.621094 16.902344 163.105469 C 17.78125 163.488281 18.792969 164.117188 19.9375 164.992188 L 22.6875 167.277344 C 24.21875 168.457031 25.230469 169.582031 25.726562 170.648438 C 26.375 172.019531 26.394531 173.5625 25.785156 175.273438 M 28.304688 171.449219 C 32.085938 174.1875 34.070312 176.949219 34.261719 179.730469 C 30.75 180.492188 27.75 180.890625 25.269531 180.929688 C 26.527344 179.597656 27.425781 178.113281 27.960938 176.472656 C 28.570312 174.722656 28.6875 173.046875 28.304688 171.449219 M 26.011719 167.335938 L 25.726562 167.164062 L 25.324219 166.820312 L 22 164.019531 C 20.589844 162.839844 19.40625 162.003906 18.449219 161.507812 C 15.011719 159.945312 11.859375 158.957031 8.996094 158.535156 C 10.257812 157.316406 11.976562 155.871094 14.152344 154.195312 L 14.78125 154.421875 C 17.035156 154.460938 19.441406 154.898438 22 155.738281 L 28.820312 158.480469 C 32.179688 159.890625 34.777344 162.707031 36.613281 166.933594 C 38.101562 170.324219 38.921875 174.113281 39.074219 178.300781 L 39.074219 178.472656 L 38.730469 178.53125 L 36.441406 179.160156 C 35.980469 176.835938 34.625 174.589844 32.371094 172.417969 C 31.339844 171.390625 29.222656 169.695312 26.011719 167.335938 M 55.921875 169.90625 C 54.621094 171.808594 52.484375 173.484375 49.503906 174.933594 C 47.554688 175.847656 44.824219 176.816406 41.3125 177.84375 C 40.660156 168.476562 36.996094 161.527344 30.308594 156.996094 C 26.605469 154.480469 22.15625 152.902344 16.960938 152.253906 C 19.863281 150.3125 22.34375 148.789062 24.410156 147.683594 C 33.613281 149.890625 40.164062 151.949219 44.0625 153.851562 C 51.546875 157.433594 55.863281 162.210938 57.011719 168.191406 L 55.921875 169.90625 "/>
</g>
</svg>
