<?xml version="1.0" encoding="UTF-8"?>
<svg xmlns="http://www.w3.org/2000/svg" xmlns:xlink="http://www.w3.org/1999/xlink" width="128pt" height="147pt" viewBox="0 0 128 147" version="1.1">
<g id="surface1">
<path style=" stroke:none;fill-rule:nonzero;fill:rgb(100%,100%,100%);fill-opacity:1;" d="M 86.488281 3.1875 C 84.992188 9.726562 79.839844 16.296875 71.035156 22.898438 L 70.511719 23.277344 C 67.457031 21.882812 64.738281 20.152344 62.355469 18.089844 C 64.804688 18.058594 67.25 17.421875 69.699219 16.183594 C 71.957031 15.011719 73.960938 13.457031 75.707031 11.519531 C 77.296875 9.742188 78.761719 7.347656 80.097656 4.332031 L 80.621094 2.476562 C 80.683594 2.191406 81.128906 2.109375 81.957031 2.238281 L 86.488281 3.1875 M 88.441406 3.855469 C 89.96875 4.363281 91.734375 5.125 93.734375 6.140625 L 93.785156 6.140625 C 92.417969 14.613281 89 22.292969 83.53125 29.179688 C 77.933594 36.226562 71.195312 41.144531 63.308594 43.9375 L 63.261719 43.9375 C 59.128906 42.003906 54.867188 39.636719 50.480469 36.84375 L 54.390625 35.417969 C 59.285156 33.324219 65.042969 29.925781 71.65625 25.230469 C 75.691406 22.40625 79.125 19.34375 81.957031 16.042969 C 85.453125 11.917969 87.617188 7.855469 88.441406 3.855469 M 62.402344 11.902344 C 64.597656 12.125 66.855469 11.902344 69.175781 11.234375 C 71.496094 10.535156 73.53125 9.488281 75.277344 8.09375 C 73.308594 10.820312 71.113281 12.867188 68.699219 14.234375 C 65.929688 15.820312 63.070312 16.421875 60.113281 16.042969 C 57.0625 12.964844 54.882812 9.550781 53.578125 5.808594 L 53.628906 5.808594 C 54.328125 7.617188 55.488281 9.0625 57.109375 10.140625 C 58.601562 11.125 60.367188 11.710938 62.402344 11.902344 M 59.351562 17.566406 C 62.179688 20.390625 65.375 22.675781 68.9375 24.421875 C 66.390625 26.230469 63.832031 27.878906 61.257812 29.371094 L 61.113281 29.277344 C 55.519531 27.148438 51.097656 23.339844 47.855469 17.851562 C 44.804688 12.679688 43.339844 6.964844 43.46875 0.714844 L 43.421875 0.523438 L 45.664062 0 C 47.316406 1.808594 49.207031 3.347656 51.335938 4.617188 C 52.671875 9.3125 55.328125 13.613281 59.300781 17.519531 L 59.351562 17.566406 M 81.144531 37.75 C 80.476562 37.464844 80.128906 37.621094 80.097656 38.226562 C 80.0625 38.828125 80.320312 39.257812 80.859375 39.511719 C 83.210938 40.558594 85.582031 42.003906 87.964844 43.84375 L 88.203125 44.460938 C 85.40625 46.046875 82.019531 47.746094 78.046875 49.554688 L 77.949219 49.554688 C 73.945312 48.414062 69.984375 46.984375 66.074219 45.269531 C 73.769531 42.160156 80.320312 37.097656 85.722656 30.085938 C 91 23.167969 94.308594 15.535156 95.644531 7.1875 L 99.125 9.519531 C 99.15625 15.867188 98.457031 21.691406 97.027344 26.992188 C 95.308594 33.402344 92.640625 38.511719 89.015625 42.320312 C 88.792969 42.066406 88.472656 41.90625 88.058594 41.84375 C 85.613281 40.097656 83.308594 38.734375 81.144531 37.75 M 109.664062 20.230469 C 109.824219 23.785156 109.792969 26.816406 109.570312 29.324219 C 109.25 32.71875 108.535156 35.640625 107.421875 38.082031 C 102.367188 40.429688 97.949219 40.859375 94.164062 39.367188 C 96.550781 35.527344 98.328125 30.941406 99.507812 25.609375 C 100.492188 21.074219 101 16.199219 101.03125 10.996094 C 104.054688 13.441406 106.929688 16.519531 109.664062 20.230469 M 111.667969 23.136719 C 113.449219 25.894531 115.085938 28.816406 116.578125 31.894531 C 114.609375 33.671875 112.496094 35.226562 110.238281 36.558594 C 111.316406 33.035156 111.796875 28.5625 111.667969 23.136719 M 106.183594 40.9375 C 110.09375 39.574219 113.894531 37.273438 117.582031 34.035156 L 118.820312 36.75 L 122.113281 45.128906 C 117.121094 50.269531 111.476562 52.570312 105.183594 52.03125 L 100.507812 50.984375 C 98.792969 50.414062 97.472656 49.839844 96.550781 49.269531 L 95.835938 49.078125 C 94.179688 47.175781 92.449219 45.460938 90.636719 43.9375 L 93.164062 40.84375 C 96.980469 42.621094 101.320312 42.652344 106.183594 40.9375 M 38.746094 2.191406 L 41.5625 1.09375 C 41.59375 7.347656 43.167969 13.121094 46.28125 18.421875 C 49.527344 23.976562 53.882812 27.976562 59.351562 30.417969 L 53.722656 33.273438 C 51.019531 34.417969 49.191406 35.066406 48.238281 35.226562 L 48.046875 35.273438 C 44.582031 32.988281 41.242188 30.609375 38.03125 28.132812 L 37.890625 23.945312 C 37.824219 22.867188 37.585938 21.867188 37.171875 20.945312 L 35.648438 18.183594 L 33.023438 12.757812 C 32.164062 10.566406 31.847656 8.617188 32.070312 6.902344 L 32.164062 6.570312 L 32.164062 6.523438 C 32.515625 5.792969 33.566406 4.933594 35.3125 3.949219 L 38.746094 2.191406 M 27.015625 10.949219 L 30.113281 8.28125 C 30.210938 9.585938 30.671875 11.296875 31.5 13.425781 C 32.484375 15.929688 33.929688 18.707031 35.839844 21.753906 C 35.964844 21.976562 36.042969 22.5 36.078125 23.324219 L 36.027344 25.132812 L 36.125 31.703125 L 36.125 31.847656 C 32.847656 31.179688 29.890625 29.195312 27.253906 25.894531 C 25.125 23.261719 23.375 20.042969 22.007812 16.234375 L 27.015625 10.949219 M 35.597656 44.269531 L 35.550781 44.746094 C 33.675781 46.269531 32.117188 48.0625 30.878906 50.125 C 26.394531 48.222656 22.738281 44.875 19.910156 40.082031 C 17.398438 35.765625 15.886719 30.941406 15.378906 25.609375 C 16.90625 23.007812 18.699219 20.375 20.765625 17.707031 C 22.355469 21.675781 24.328125 25.007812 26.679688 27.707031 C 29.511719 31.003906 32.644531 33.019531 36.078125 33.75 C 35.980469 37.050781 35.839844 40.335938 35.648438 43.605469 C 35.519531 43.796875 35.503906 44.015625 35.597656 44.269531 M 38.078125 30.179688 C 50.957031 40.050781 63.4375 46.890625 75.515625 50.699219 L 69.9375 53.078125 L 62.925781 55.839844 C 57.871094 55.140625 53.308594 53.933594 49.238281 52.222656 C 44.246094 50.191406 40.367188 47.554688 37.601562 44.320312 C 37.921875 39.082031 38.078125 34.371094 38.078125 30.179688 M 17.332031 38.75 C 19.082031 42.207031 21.226562 45.128906 23.773438 47.507812 C 21.484375 49.222656 18.734375 49.808594 15.519531 49.269531 C 12.785156 48.824219 10.164062 47.667969 7.652344 45.792969 C 8.890625 39.765625 10.976562 33.925781 13.898438 28.277344 C 14.566406 31.988281 15.710938 35.480469 17.332031 38.75 M 37.410156 46.507812 C 42.339844 51.585938 49.621094 55.125 59.253906 57.125 C 50.226562 60.171875 42.402344 61.328125 35.789062 60.597656 C 36.488281 56.1875 36.949219 52.523438 37.171875 49.601562 L 37.410156 46.507812 M 52.671875 61.21875 C 57.027344 60.203125 62.511719 58.394531 69.125 55.792969 C 76.40625 52.933594 83.054688 49.855469 89.0625 46.554688 L 92.113281 54.746094 L 91.921875 54.886719 L 89.730469 56.980469 L 87.203125 58.789062 C 81.574219 62.628906 74.851562 66.105469 67.027344 69.214844 C 56.632812 73.308594 45.375 75.453125 33.261719 75.640625 L 35.503906 62.503906 C 40.589844 63.171875 46.3125 62.742188 52.671875 61.21875 M 28.492188 54.886719 C 25.410156 57.488281 21.929688 59.28125 18.050781 60.265625 C 13.882812 61.3125 9.988281 61.171875 6.363281 59.835938 C 6.238281 56.503906 6.445312 53.015625 6.984375 49.363281 L 7.320312 47.605469 C 10.210938 49.667969 13.167969 50.902344 16.1875 51.316406 C 19.71875 51.824219 22.769531 51.109375 25.347656 49.175781 L 25.488281 48.984375 C 26.886719 50.03125 28.382812 50.921875 29.972656 51.648438 L 28.542969 54.886719 L 28.492188 54.886719 M 23.820312 67.738281 L 26.539062 68.167969 L 27.445312 69.929688 C 28.652344 73.039062 29.097656 75.65625 28.78125 77.785156 C 28.558594 79.53125 27.460938 80.894531 25.488281 81.878906 C 23.804688 82.703125 21.976562 83.066406 20.003906 82.972656 C 18.796875 80.878906 18.699219 78.339844 19.71875 75.355469 C 20.480469 73.039062 21.800781 70.738281 23.675781 68.453125 C 23.835938 68.261719 23.882812 68.027344 23.820312 67.738281 M 26.300781 66.214844 C 22.867188 65.390625 19.621094 65.550781 16.570312 66.691406 C 13.359375 67.898438 10.941406 69.992188 9.320312 72.976562 L 8.414062 70.644531 C 7.398438 67.820312 6.761719 64.851562 6.507812 61.742188 C 9.910156 62.949219 13.503906 63.234375 17.285156 62.597656 C 20.847656 61.996094 24.21875 60.648438 27.398438 58.550781 C 26.761719 60.964844 26.394531 63.519531 26.300781 66.214844 M 17.953125 82.640625 C 15.09375 81.847656 12.597656 79.449219 10.464844 75.453125 L 10.609375 75.261719 C 11.625 73.039062 13.105469 71.277344 15.042969 69.976562 C 16.886719 68.738281 18.988281 68.007812 21.339844 67.789062 C 19.558594 70.199219 18.335938 72.578125 17.667969 74.929688 C 16.839844 77.816406 16.9375 80.386719 17.953125 82.640625 M 32.929688 77.640625 L 35.839844 77.59375 C 36.761719 82.355469 36.855469 86.65625 36.125 90.496094 L 31.257812 90.542969 L 32.929688 77.640625 M 45.28125 76.832031 C 47.792969 79.75 50.335938 83.195312 52.910156 87.164062 L 59.539062 98.253906 C 55.40625 93.589844 48.285156 91.019531 38.175781 90.542969 C 38.777344 86.605469 38.605469 82.257812 37.648438 77.5 L 45.28125 76.832031 M 50.433594 76.023438 C 51.132812 77.992188 52.464844 79.800781 54.4375 81.449219 C 56.089844 82.8125 58.078125 83.988281 60.398438 84.972656 L 61.402344 92.160156 L 61.304688 92.492188 L 60.875 97.207031 C 55.820312 88.289062 51.242188 81.402344 47.140625 76.546875 L 50.433594 76.023438 M 13.46875 112.867188 C 15.984375 114.074219 18.476562 115.929688 20.957031 118.4375 C 23.691406 121.324219 25.363281 124.722656 25.964844 128.625 C 26.539062 132.273438 26.125 136.050781 24.726562 139.953125 L 22.960938 139.859375 C 23.46875 136.6875 23.121094 133.542969 21.910156 130.433594 C 20.703125 127.355469 18.84375 124.769531 16.332031 122.675781 L 15.855469 122.4375 C 14.105469 118.914062 11.59375 116.390625 8.320312 114.867188 L 13.136719 112.964844 L 13.46875 112.867188 M 6.507812 116.105469 C 8.480469 116.644531 10.242188 117.707031 11.800781 119.292969 C 13.230469 120.753906 14.3125 122.484375 15.042969 124.484375 C 16 127.085938 15.917969 129.464844 14.804688 131.625 C 13.726562 133.78125 11.882812 135.289062 9.273438 136.144531 L 7.367188 135.003906 C 4.664062 133.195312 2.789062 130.988281 1.738281 128.386719 C 0.59375 125.5 0.785156 122.722656 2.3125 120.054688 C 3.234375 118.46875 4.566406 117.121094 6.316406 116.011719 L 6.507812 116.105469 M 45.949219 104.585938 C 48.777344 106.839844 51.117188 109.519531 52.960938 112.628906 C 54.867188 115.898438 56.011719 119.246094 56.394531 122.675781 L 56.535156 123.054688 L 55.582031 126.339844 C 55.042969 128.148438 54.390625 129.65625 53.628906 130.863281 C 51.910156 125.5 48.808594 120.800781 44.328125 116.773438 C 39.941406 112.835938 34.917969 110.171875 29.257812 108.773438 L 29.734375 104.015625 C 35.171875 102.902344 40.464844 102.984375 45.613281 104.25 L 45.949219 104.585938 M 52.671875 95.539062 C 56.363281 97.09375 58.890625 99.300781 60.257812 102.15625 L 59.160156 109.679688 C 55.566406 106.15625 51.035156 103.710938 45.566406 102.347656 C 40.511719 101.109375 35.3125 100.9375 29.972656 101.824219 L 30.972656 92.636719 L 42.5625 93.113281 C 46.664062 93.621094 50.035156 94.429688 52.671875 95.539062 M 17.046875 112.203125 C 20.035156 112.234375 23.167969 113.34375 26.441406 115.535156 C 32.832031 119.882812 36.347656 127.800781 36.984375 139.289062 L 30.210938 139.90625 L 26.96875 140.003906 C 28.113281 136.226562 28.414062 132.574219 27.875 129.054688 C 27.300781 125.371094 25.824219 121.992188 23.4375 118.914062 C 21.433594 116.28125 18.90625 114.042969 15.855469 112.203125 L 16.523438 112.011719 L 17.046875 112.203125 M 28.445312 110.488281 C 34.167969 111.695312 39.207031 114.28125 43.5625 118.246094 C 48.015625 122.308594 50.941406 127.117188 52.339844 132.671875 C 51.449219 133.625 50.433594 134.449219 49.289062 135.148438 C 46.394531 136.957031 42.929688 138.226562 38.890625 138.953125 C 38.0625 127.5 34.28125 119.277344 27.539062 114.296875 C 25.695312 112.933594 23.613281 111.867188 21.292969 111.105469 L 28.445312 110.488281 M 17.09375 125.625 C 18.78125 127.5 19.972656 129.6875 20.671875 132.195312 C 21.339844 134.703125 21.417969 137.195312 20.910156 139.667969 C 17.699219 139.320312 14.726562 138.574219 11.992188 137.433594 C 14.410156 136.289062 16.046875 134.605469 16.90625 132.386719 C 17.667969 130.355469 17.730469 128.101562 17.09375 125.625 M 125.402344 56.410156 C 124.164062 57.742188 122.765625 58.742188 121.207031 59.410156 C 119.488281 60.203125 117.882812 60.425781 116.390625 60.074219 C 117.628906 57.28125 118.390625 54.347656 118.679688 51.269531 L 118.582031 50.792969 C 120.203125 49.839844 121.652344 48.746094 122.921875 47.507812 C 123.84375 50.332031 124.671875 53.300781 125.402344 56.410156 M 121.160156 61.835938 C 122.875 61.328125 124.496094 60.394531 126.023438 59.027344 C 126.59375 61.726562 127.007812 64.25 127.261719 66.597656 C 125.261719 68.566406 122.75 69.53125 119.726562 69.5 C 117.089844 69.5 114.417969 68.753906 111.714844 67.265625 C 113.179688 65.742188 114.464844 63.898438 115.578125 61.742188 C 117.359375 62.34375 119.21875 62.375 121.160156 61.835938 M 113.625 60.648438 C 112.097656 63.535156 110.15625 65.898438 107.804688 67.738281 L 106.945312 65.980469 L 103.988281 60.503906 C 104.941406 59.011719 106.039062 56.964844 107.28125 54.363281 L 107.328125 54.078125 C 110.507812 54.046875 113.589844 53.316406 116.578125 51.886719 C 116.101562 55 115.117188 57.917969 113.625 60.648438 M 105.039062 53.984375 L 102.703125 58.363281 L 98.363281 52.125 C 100.492188 53.109375 102.71875 53.730469 105.039062 53.984375 M 108.519531 70.074219 L 110.476562 68.5 C 112.796875 69.929688 115.214844 70.867188 117.726562 71.308594 C 120.492188 71.785156 122.988281 71.5625 125.210938 70.644531 C 122.414062 75.054688 118.011719 78.117188 112 79.832031 C 109.933594 80.5625 108.027344 81.039062 106.277344 81.257812 L 104.226562 81.210938 C 103.941406 81.148438 103.894531 80.671875 104.085938 79.785156 L 104.515625 78.355469 C 104.925781 77.085938 105.660156 75.402344 106.707031 73.308594 C 107.726562 71.882812 108.328125 70.800781 108.519531 70.074219 M 96.882812 73.023438 C 93.355469 77.433594 90.398438 80.863281 88.011719 83.304688 C 84.355469 86.957031 80.8125 89.699219 77.378906 91.542969 C 74.769531 89.289062 72.195312 86.6875 69.652344 83.734375 C 74.546875 82.179688 79.300781 79.6875 83.910156 76.261719 C 88.171875 73.085938 91.972656 69.375 95.308594 65.121094 L 97.40625 72.832031 L 96.882812 73.023438 M 100.890625 87.78125 C 98.949219 91.875 94.484375 95.492188 87.488281 98.632812 C 84.59375 97.078125 81.84375 95.238281 79.238281 93.113281 C 82.542969 91.242188 85.929688 88.558594 89.394531 85.066406 C 91.78125 82.65625 94.640625 79.386719 97.980469 75.261719 L 100.890625 87.734375 L 100.890625 87.78125 M 127.835938 73.167969 C 127.929688 76.722656 127.675781 79.734375 127.070312 82.210938 C 125.070312 82.941406 123.191406 83.242188 121.445312 83.117188 C 119.21875 82.957031 117.613281 82.117188 116.628906 80.59375 C 121.585938 78.464844 125.277344 75.230469 127.691406 70.882812 L 127.835938 73.167969 M 115.054688 81.164062 C 116.167969 82.972656 117.820312 84.164062 120.015625 84.734375 C 121.921875 85.242188 124.019531 85.242188 126.308594 84.734375 C 125.164062 87.8125 123.242188 90.429688 120.539062 92.589844 C 119.234375 93.667969 117.804688 94.398438 116.246094 94.777344 C 114.339844 95.222656 112.859375 94.890625 111.8125 93.777344 C 109.808594 91.714844 110.316406 87.703125 113.335938 81.734375 L 115.054688 81.164062 M 90.492188 59.265625 L 92.925781 57.171875 L 94.117188 60.980469 C 90.332031 62.28125 87.28125 62.917969 84.960938 62.882812 L 87.820312 61.074219 L 90.492188 59.265625 M 68.078125 84.355469 C 74.085938 91.429688 80.445312 96.777344 87.15625 100.394531 C 87.410156 100.648438 87.679688 100.777344 87.964844 100.777344 C 93.496094 103.632812 99.078125 105.1875 104.703125 105.441406 L 106.039062 111.488281 L 101.082031 111.203125 C 95.199219 110.597656 89.699219 109.378906 84.578125 107.535156 C 78.1875 105.285156 71.367188 101.949219 64.121094 97.539062 C 63.417969 93.859375 62.816406 89.78125 62.308594 85.304688 L 67.980469 84.210938 L 68.078125 84.355469 M 61.019531 83.355469 C 55.933594 81.292969 52.976562 78.738281 52.148438 75.691406 C 57.554688 74.578125 62.59375 73.183594 67.265625 71.5 C 72.386719 69.597656 77.394531 67.25 82.289062 64.457031 C 85.152344 65.28125 89 64.929688 93.832031 63.40625 C 89.667969 68.738281 84.847656 73.167969 79.378906 76.6875 C 73.277344 80.5625 67.15625 82.78125 61.019531 83.355469 M 90.875 111.34375 L 101.128906 113.152344 L 106.46875 113.488281 L 106.992188 116.582031 C 107.25 117.851562 107.566406 118.804688 107.949219 119.4375 L 108.378906 119.960938 C 105.421875 119.546875 102.226562 119.914062 98.792969 121.054688 C 95.800781 122.039062 92.972656 123.46875 90.300781 125.339844 C 87.695312 127.179688 85.4375 129.53125 83.53125 132.386719 C 81.589844 135.304688 80.285156 138.320312 79.617188 141.429688 C 77.964844 139.683594 76.421875 137.449219 74.992188 134.71875 L 75.089844 134.574219 C 79.0625 123.4375 84.246094 115.789062 90.636719 111.628906 L 90.875 111.34375 M 86.675781 110.15625 C 83.402344 110.789062 80.269531 111.964844 77.28125 113.675781 C 74.292969 115.390625 71.71875 117.484375 69.554688 119.960938 L 69.175781 118.722656 C 68.410156 116.3125 67.679688 113.675781 66.980469 110.820312 C 69.875 108.410156 73.210938 106.980469 76.996094 106.535156 L 77.328125 106.441406 L 84.816406 109.535156 L 86.675781 110.15625 M 85.722656 112.582031 C 80.921875 116.960938 76.933594 123.4375 73.753906 132.003906 C 72.609375 129.433594 71.464844 126.246094 70.320312 122.4375 L 70.605469 122.246094 C 72.480469 119.960938 74.738281 117.976562 77.378906 116.296875 C 79.984375 114.613281 82.765625 113.375 85.722656 112.582031 M 58.777344 112.152344 L 57.488281 118.960938 C 55.996094 113.820312 53.230469 109.28125 49.191406 105.347656 C 53.039062 106.742188 56.265625 108.835938 58.875 111.628906 L 58.777344 112.152344 M 64.5 99.730469 C 68 101.792969 71.210938 103.523438 74.132812 104.917969 C 71.242188 105.585938 68.664062 106.742188 66.410156 108.394531 L 64.5 99.730469 M 89.871094 128.625 C 92.796875 125.960938 96.28125 124.007812 100.316406 122.769531 C 104.894531 121.339844 108.855469 121.375 112.191406 122.863281 C 113.558594 124.199219 114.65625 125.546875 115.484375 126.910156 C 116.976562 129.386719 117.34375 131.8125 116.578125 134.195312 C 115.371094 132.671875 113.558594 131.847656 111.144531 131.71875 C 109.011719 131.59375 106.898438 131.988281 104.800781 132.910156 C 102.066406 134.117188 99.378906 136.082031 96.742188 138.8125 C 94.546875 141.066406 92.511719 143.746094 90.636719 146.855469 C 87.042969 146.445312 83.957031 145.191406 81.382812 143.097656 C 81.890625 140.429688 82.925781 137.796875 84.484375 135.195312 C 85.945312 132.75 87.742188 130.5625 89.871094 128.625 M 109.042969 133.863281 C 112.542969 132.910156 114.785156 133.625 115.769531 136.003906 C 114.464844 138.257812 112.175781 140.351562 108.902344 142.289062 C 106.292969 143.8125 103.480469 145.015625 100.460938 145.90625 C 98.074219 146.636719 95.660156 147 93.210938 147 C 95.597656 143.382812 98.441406 140.222656 101.746094 137.527344 C 103.878906 135.78125 106.308594 134.558594 109.042969 133.863281 M 101.605469 90.96875 L 104.277344 103.394531 C 99.539062 103.269531 94.800781 102.109375 90.0625 99.921875 C 95.53125 97.253906 99.378906 94.269531 101.605469 90.96875 "/>
</g>
</svg>
