<?xml version="1.0" encoding="UTF-8"?>
<svg xmlns="http://www.w3.org/2000/svg" xmlns:xlink="http://www.w3.org/1999/xlink" width="128pt" height="158pt" viewBox="0 0 128 158" version="1.1">
<g id="surface1">
<path style=" stroke:none;fill-rule:nonzero;fill:rgb(100%,100%,100%);fill-opacity:1;" d="M 78.867188 1.257812 C 83.78125 3.191406 87.773438 8.503906 90.847656 17.203125 C 92.238281 21.132812 93.160156 25.269531 93.609375 29.621094 C 94.0625 33.902344 94.046875 38.125 93.5625 42.277344 C 92.851562 48.140625 90.167969 53.714844 85.511719 58.996094 C 83.054688 61.832031 80.0625 64.375 76.539062 66.628906 L 75.617188 67.210938 L 75.519531 67.257812 C 73.480469 66.96875 71.445312 66.40625 69.40625 65.566406 C 67.628906 64.859375 66.191406 63.859375 65.089844 62.570312 C 64.089844 61.414062 63.25 59.835938 62.570312 57.835938 C 62.085938 56.417969 61.761719 54.839844 61.597656 53.101562 L 61.597656 52.472656 C 64.414062 51.539062 66.722656 49.800781 68.535156 47.253906 C 70.121094 44.9375 70.734375 41.941406 70.378906 38.269531 C 70.121094 35.917969 69.375 32.839844 68.148438 29.039062 L 66.886719 26.09375 C 66.175781 24.867188 65.382812 24.242188 64.507812 24.207031 C 63.925781 24.175781 63.765625 24.515625 64.023438 25.222656 L 59.367188 23.871094 C 58.65625 23.644531 57.832031 23.324219 56.894531 22.902344 L 54.566406 21.746094 L 53.691406 18.121094 C 57.476562 17.636719 60.660156 16.1875 63.25 13.773438 C 65.996094 11.257812 67.53125 8.167969 67.855469 4.496094 L 67.757812 3.964844 C 68.792969 2.09375 70.441406 0.96875 72.707031 0.582031 C 74.679688 0.226562 76.730469 0.453125 78.867188 1.257812 M 51.65625 17.203125 L 52.527344 21.019531 C 51.398438 20.859375 50.3125 21.617188 49.277344 23.289062 L 48.113281 24.59375 L 46.804688 25.851562 C 44.476562 28.429688 43.765625 31.421875 44.671875 34.839844 C 45.578125 38.253906 47.628906 40.476562 50.832031 41.507812 L 48.792969 48.945312 C 46.820312 45.179688 45.398438 40.714844 44.527344 35.5625 C 43.878906 31.664062 43.492188 26.945312 43.363281 21.40625 L 43.457031 18.410156 L 43.457031 15.414062 C 43.425781 15.058594 43.167969 14.65625 42.683594 14.207031 L 41.617188 13.289062 C 40.417969 12.03125 39.871094 10.46875 39.964844 8.601562 C 40 7.699219 40.304688 6.765625 40.886719 5.800781 L 41.421875 6.089844 C 42.070312 7.957031 43.199219 9.441406 44.816406 10.535156 C 46.273438 11.566406 48.050781 12.226562 50.152344 12.515625 C 52.707031 12.871094 55.324219 12.613281 58.011719 11.742188 C 60.726562 10.90625 62.988281 9.585938 64.800781 7.78125 C 63.734375 10.132812 62.050781 12.066406 59.757812 13.578125 C 57.523438 15.027344 55.019531 15.882812 52.238281 16.140625 C 51.71875 16.171875 51.527344 16.527344 51.65625 17.203125 M 65.769531 27.640625 L 66.109375 28.605469 C 67.792969 32.953125 68.566406 36.820312 68.4375 40.203125 C 66.464844 40.007812 64.492188 39.605469 62.519531 38.992188 C 60.417969 38.316406 58.640625 37.464844 57.183594 36.433594 C 56.3125 35.820312 55.859375 34.386719 55.828125 32.132812 C 55.828125 29.328125 55.761719 27.734375 55.632812 27.347656 C 54.988281 25.351562 53.675781 24.144531 51.703125 23.726562 L 51.800781 23.675781 C 52.285156 23.066406 53.078125 23 54.179688 23.484375 L 55.292969 24.257812 L 56.359375 24.789062 C 57.558594 25.367188 59.09375 25.914062 60.96875 26.429688 L 65.769531 27.640625 M 50.296875 25.851562 C 52.464844 25.207031 53.710938 26.351562 54.03125 29.28125 L 54.226562 33.050781 C 54.324219 34.46875 54.535156 35.464844 54.855469 36.046875 C 55.4375 37.078125 56.328125 37.929688 57.523438 38.605469 L 60.96875 40.152344 C 63.71875 41.214844 66.140625 41.875 68.242188 42.132812 C 68.050781 43.101562 67.726562 44.035156 67.273438 44.9375 L 67.03125 44.839844 L 59.027344 42.277344 C 58.769531 41.601562 58.332031 40.941406 57.71875 40.296875 L 55.925781 38.898438 L 53.691406 38.65625 C 52.949219 38.847656 52.253906 39.21875 51.609375 39.765625 C 48.4375 39.058594 46.726562 37.078125 46.464844 33.824219 C 46.207031 30.667969 47.324219 28.121094 49.8125 26.1875 L 50.152344 25.851562 L 50.296875 25.851562 M 56.167969 41.070312 C 57.105469 41.457031 57.492188 41.925781 57.332031 42.472656 L 56.019531 46.578125 C 53.953125 53.085938 52.171875 59.0625 50.6875 64.503906 C 48.390625 72.75 47.257812 79.675781 47.289062 85.28125 C 47.289062 88.082031 47.777344 91.175781 48.746094 94.558594 L 49.910156 99.050781 C 50.167969 100.597656 50.121094 102.128906 49.765625 103.640625 C 49.636719 104.15625 49.894531 104.59375 50.539062 104.945312 C 51.1875 105.332031 51.574219 105.21875 51.703125 104.609375 C 52.125 102.675781 52.140625 100.710938 51.753906 98.714844 L 52.042969 98.617188 C 54.242188 96.972656 55.988281 95.476562 57.28125 94.125 C 59.09375 92.289062 60.417969 90.433594 61.257812 88.566406 C 62.488281 85.894531 63.394531 82.589844 63.976562 78.660156 C 65.269531 79.113281 66.5625 79.273438 67.855469 79.144531 L 68.050781 79.097656 C 67.304688 82.671875 66.53125 85.585938 65.722656 87.84375 C 64.558594 90.964844 63.085938 93.558594 61.308594 95.621094 L 55.777344 101.757812 C 53.710938 104.171875 52.285156 106.492188 51.511719 108.714844 C 50.410156 111.902344 47.9375 119.617188 44.089844 131.859375 L 40.304688 144.035156 L 40.210938 144.277344 L 36.71875 155.535156 C 36.523438 155.597656 36.457031 155.824219 36.523438 156.210938 L 36.039062 157.660156 L 34.4375 157.949219 L 32.59375 157.902344 L 30.898438 156.886719 L 30.703125 156.695312 C 32.125 151.605469 33.917969 145.824219 36.085938 139.347656 C 38.253906 132.96875 40.304688 126.335938 42.246094 119.441406 L 44.71875 110.984375 C 45.59375 107.667969 46.191406 104.785156 46.515625 102.335938 C 46.613281 101.304688 46.351562 99.984375 45.738281 98.375 C 44.574219 95.121094 43.832031 92.671875 43.507812 91.03125 C 42.796875 87.164062 42.875 82.703125 43.75 77.648438 C 44.074219 75.746094 45.109375 71.382812 46.855469 64.554688 L 53.015625 41.601562 L 53.984375 40.925781 L 56.167969 41.070312 M 103.554688 89.050781 L 103.652344 91.851562 C 103.652344 93.140625 103.765625 94.125 103.992188 94.800781 C 103.246094 96.765625 100.320312 98.890625 95.210938 101.175781 C 87.644531 104.59375 81.761719 105.382812 77.558594 103.546875 C 76.167969 98.84375 74.386719 95.089844 72.222656 92.289062 L 71.832031 91.804688 L 70.328125 90.066406 C 69.8125 89.550781 69.34375 89.46875 68.921875 89.824219 C 68.503906 90.175781 68.550781 90.613281 69.070312 91.128906 L 70.234375 92.382812 C 68.875 95.28125 67.9375 98.230469 67.417969 101.226562 C 64.347656 102.03125 61.179688 102.53125 57.914062 102.722656 L 58.882812 101.660156 L 63.636719 96.394531 C 65.21875 94.332031 66.367188 92.289062 67.078125 90.257812 C 68.4375 86.519531 69.519531 82.542969 70.328125 78.324219 C 71.847656 77.453125 73.078125 75.957031 74.015625 73.828125 C 85.367188 71.574219 93.773438 68.242188 99.238281 63.828125 L 100.011719 67.5 C 101.597656 75.039062 102.777344 82.222656 103.554688 89.050781 M 98.753906 61.460938 L 98.265625 61.605469 C 93.160156 65.953125 85.367188 69.222656 74.890625 71.414062 L 75.519531 69.238281 L 75.957031 69.289062 C 76.570312 69.386719 77.410156 69.0625 78.476562 68.320312 L 80.710938 66.582031 C 84.460938 63.8125 87.695312 60.429688 90.410156 56.4375 C 92.511719 53.375 94.015625 49.898438 94.921875 46 L 98.753906 61.460938 M 59.660156 52.957031 L 59.5625 52.957031 C 58.367188 52.765625 57.234375 52.894531 56.167969 53.34375 L 59.027344 44.210938 L 66.207031 46.484375 C 64.589844 48.609375 62.519531 49.992188 60 50.636719 C 59.738281 50.703125 59.609375 50.863281 59.609375 51.121094 L 59.660156 52.957031 M 59.902344 54.9375 C 60.582031 59.15625 62.101562 62.332031 64.460938 64.457031 C 66.660156 66.453125 69.652344 67.902344 73.433594 68.804688 L 72.414062 72.042969 C 72.316406 72.105469 72.269531 72.21875 72.269531 72.378906 C 70.945312 75.28125 69.132812 76.859375 66.835938 77.117188 L 63.925781 76.679688 L 63.734375 76.632812 L 65.769531 73.445312 C 65.996094 72.960938 65.820312 72.476562 65.238281 71.992188 L 63.976562 72.042969 C 63.167969 73.652344 62.359375 74.859375 61.550781 75.667969 C 60.355469 76.824219 59.0625 77.261719 57.671875 76.96875 L 56.117188 76.246094 C 57.703125 75.3125 58.980469 73.925781 59.949219 72.089844 C 60.207031 71.609375 60.046875 71.125 59.464844 70.640625 L 58.15625 70.691406 C 57.316406 72.269531 56.199219 73.476562 54.808594 74.3125 C 53.289062 75.28125 51.769531 75.519531 50.25 75.039062 L 50.976562 71.65625 L 51.074219 71.558594 C 52.917969 70.109375 54.226562 68.851562 55.003906 67.789062 C 56.265625 66.082031 56.683594 64.390625 56.265625 62.71875 C 56.039062 61.652344 55.34375 60.71875 54.179688 59.914062 L 54.179688 59.867188 L 54.761719 57.933594 L 55.195312 57.546875 C 55.519531 56.613281 56.117188 55.90625 56.992188 55.421875 C 57.832031 54.9375 58.753906 54.777344 59.757812 54.9375 L 59.902344 54.9375 M 48.210938 51.167969 L 46.613281 57.304688 C 44.605469 53.699219 42.84375 49.496094 41.324219 44.695312 C 40.226562 41.28125 39.046875 36.882812 37.785156 31.503906 C 36.394531 25.640625 35.292969 19.890625 34.484375 14.253906 C 34.421875 13.707031 34.050781 13.320312 33.371094 13.09375 C 32.722656 12.871094 32.449219 13.09375 32.546875 13.773438 L 33.46875 19.523438 L 29.394531 18.363281 C 29.328125 14.882812 29.652344 11.808594 30.363281 9.132812 C 31.300781 5.492188 32.867188 2.980469 35.066406 1.597656 L 38.074219 4.058594 L 38.753906 4.976562 C 37.847656 6.683594 37.71875 8.523438 38.367188 10.488281 C 38.914062 12.226562 39.949219 13.851562 41.46875 15.367188 C 40.660156 30.214844 42.8125 42.019531 47.921875 50.78125 L 48.210938 51.167969 M 51.996094 67.597656 L 53.691406 61.605469 C 55.277344 62.765625 54.710938 64.761719 51.996094 67.597656 M 61.9375 78.273438 C 61.390625 81.433594 60.644531 84.1875 59.707031 86.539062 C 58.511719 89.660156 55.664062 92.929688 51.171875 96.347656 L 51.121094 96.152344 C 49.730469 91.546875 49.117188 87.34375 49.277344 83.542969 C 49.3125 81.382812 49.539062 79.144531 49.957031 76.824219 L 54.371094 76.96875 C 55.503906 78.035156 56.765625 78.710938 58.15625 79 C 59.480469 79.257812 60.742188 79.015625 61.9375 78.273438 M 75.808594 111.757812 C 78.722656 114.046875 82.035156 116.027344 85.753906 117.703125 C 83.265625 118.796875 80.96875 120.84375 78.867188 123.839844 C 77.765625 120.550781 76.925781 117.460938 76.34375 114.5625 L 75.808594 111.757812 M 70.234375 114.269531 C 70.589844 117.523438 70.765625 120.632812 70.765625 123.597656 C 62.78125 125.949219 55.390625 126.300781 48.601562 124.660156 L 50.6875 118.136719 C 57.605469 118.332031 63.230469 117.523438 67.566406 115.722656 C 68.664062 115.238281 69.554688 114.753906 70.234375 114.269531 M 66.402344 113.738281 C 64.558594 114.546875 62.441406 115.15625 60.046875 115.574219 L 59.804688 115.382812 C 57.445312 113.835938 55.761719 112.355469 54.761719 110.9375 L 54.03125 109.585938 L 53.9375 109.292969 L 53.789062 108.910156 C 54.535156 107.363281 55.34375 106.007812 56.214844 104.851562 C 60.191406 104.851562 64.28125 104.316406 68.488281 103.253906 L 69.894531 111.515625 C 69.148438 112.324219 67.984375 113.0625 66.402344 113.738281 M 75.664062 109.441406 C 75.664062 107.378906 76.167969 106.007812 77.167969 105.332031 C 79.660156 106.460938 82.699219 106.75 86.289062 106.203125 L 86.382812 106.25 C 97.183594 111.984375 107.015625 115.671875 115.875 117.316406 L 117.328125 123.5 L 117.765625 126.253906 C 114.46875 124.546875 110.492188 123.03125 105.835938 121.710938 C 104.121094 121.195312 99.980469 120.148438 93.417969 118.570312 C 90.28125 117.832031 87.160156 116.65625 84.054688 115.042969 C 80.984375 113.464844 78.1875 111.597656 75.664062 109.441406 M 52.917969 111.324219 C 53.757812 112.742188 55.308594 114.253906 57.574219 115.867188 L 51.316406 116.109375 L 52.917969 111.324219 M 59.5625 133.550781 C 63.992188 136.09375 66.707031 139.265625 67.710938 143.070312 L 67.226562 144.035156 C 66.609375 145.195312 65.671875 146.242188 64.414062 147.175781 L 60.773438 149.351562 C 58.738281 150.445312 56.78125 151.347656 54.90625 152.054688 C 53.96875 144.582031 50.75 139.027344 45.253906 135.386719 L 47.289062 128.910156 C 52.398438 130.230469 56.488281 131.777344 59.5625 133.550781 M 62.910156 127.414062 L 63.003906 127.511719 C 64.6875 128.445312 66.09375 129.539062 67.226562 130.796875 C 68.582031 132.308594 69.375 133.886719 69.601562 135.53125 L 69.796875 135.964844 L 69.796875 136.253906 L 68.679688 140.652344 C 65.835938 134.566406 58.882812 130.054688 47.824219 127.125 L 48.066406 126.496094 C 52.691406 127.71875 57.636719 128.027344 62.910156 127.414062 M 85.21875 139.300781 C 86.871094 133.984375 91.589844 129.28125 99.382812 125.191406 C 97.054688 128.542969 95.148438 132.214844 93.660156 136.207031 C 92.203125 140.136719 91.25 144.132812 90.796875 148.191406 C 88.695312 145.675781 86.804688 142.777344 85.125 139.492188 L 85.21875 139.300781 M 70.328125 132.34375 C 69.230469 130.378906 67.613281 128.621094 65.480469 127.074219 L 70.765625 125.914062 L 70.328125 132.34375 M 80.03125 127.21875 L 79.835938 126.59375 C 82.261719 122.5 85.15625 120.003906 88.519531 119.101562 L 88.710938 119.007812 L 90.894531 119.78125 L 99.964844 122.339844 C 91.589844 126.398438 86.207031 131.214844 83.8125 136.789062 C 82.84375 134.628906 81.582031 131.441406 80.03125 127.21875 M 115.339844 115.285156 C 110.359375 114.289062 105.316406 112.773438 100.207031 110.746094 L 105.300781 107.070312 L 109.957031 102.867188 C 112.089844 106.316406 113.886719 110.453125 115.339844 115.285156 M 95.503906 103.496094 C 100.707031 101.5 104.023438 99.277344 105.445312 96.828125 L 108.648438 100.9375 L 103.507812 105.574219 C 101.5 107.25 99.625 108.539062 97.878906 109.441406 L 97.636719 109.679688 C 95.46875 108.8125 92.59375 107.476562 89.003906 105.671875 C 90.847656 105.21875 93.011719 104.496094 95.503906 103.496094 M 103.796875 123.308594 C 107 124.113281 109.601562 124.867188 111.605469 125.578125 C 114.417969 126.578125 116.925781 127.703125 119.125 128.960938 L 119.804688 129.054688 L 121.839844 131.230469 C 118.605469 131.261719 115.210938 132.179688 111.65625 133.984375 C 108.519531 135.53125 105.65625 137.542969 103.070312 140.023438 C 101.289062 141.730469 99.753906 143.679688 98.460938 145.871094 C 97.070312 148.222656 96.164062 150.558594 95.746094 152.875 L 92.640625 150.171875 C 93.0625 145.308594 94.226562 140.554688 96.132812 135.917969 C 98.105469 131.085938 100.660156 126.882812 103.796875 123.308594 M 123.585938 133.308594 C 126.496094 137.109375 127.96875 140.652344 128 143.9375 L 127.222656 143.261719 C 126.351562 142.683594 125.15625 142.535156 123.632812 142.828125 L 120.046875 143.890625 C 112.253906 145.953125 107.710938 150.378906 106.417969 157.175781 C 103.246094 156.789062 100.320312 155.792969 97.636719 154.179688 C 98.316406 150.089844 100.433594 146.160156 103.992188 142.390625 C 106.480469 139.75 109.4375 137.578125 112.867188 135.871094 C 116.648438 133.96875 120.222656 133.113281 123.585938 133.308594 M 118.300781 146.742188 L 123.683594 145.195312 L 126.253906 145.050781 C 126.964844 145.273438 127.417969 145.855469 127.613281 146.789062 C 127.09375 148.496094 126.09375 150.074219 124.605469 151.523438 C 122.503906 153.519531 120.011719 155.019531 117.136719 156.015625 C 114.386719 156.984375 111.523438 157.417969 108.550781 157.320312 C 109.746094 152.265625 112.996094 148.738281 118.300781 146.742188 M 50.832031 153.457031 C 50.085938 149.882812 47.402344 146.546875 42.78125 143.453125 L 42.730469 143.40625 L 44.71875 137.027344 C 49.570312 140.28125 52.351562 145.4375 53.0625 152.492188 L 53.109375 152.683594 L 50.832031 153.457031 M 49.085938 153.941406 L 41.664062 155.246094 C 42.859375 153.761719 43.554688 152.167969 43.75 150.460938 C 43.910156 148.65625 43.507812 146.949219 42.539062 145.339844 C 46.515625 148.109375 48.695312 150.960938 49.085938 153.890625 L 49.085938 153.941406 M 23.910156 18.652344 C 25.140625 19.230469 26.757812 19.78125 28.761719 20.292969 L 33.757812 21.503906 L 33.855469 21.550781 L 35.796875 30.875 L 36.472656 33.921875 C 34.535156 33.824219 32.53125 33.46875 30.460938 32.855469 C 28.261719 32.179688 26.417969 31.328125 24.929688 30.296875 C 24.023438 29.683594 23.554688 28.265625 23.523438 26.042969 C 23.460938 23.242188 23.363281 21.648438 23.234375 21.261719 C 22.523438 19.199219 21.210938 17.992188 19.304688 17.636719 C 19.820312 17.023438 20.582031 16.929688 21.582031 17.347656 L 23.910156 18.652344 M 17.753906 19.8125 L 17.898438 19.8125 C 20.0625 19.167969 21.308594 20.292969 21.632812 23.195312 L 21.921875 26.960938 C 22.019531 28.378906 22.246094 29.378906 22.601562 29.957031 C 23.21875 30.957031 24.105469 31.792969 25.269531 32.46875 C 25.917969 32.855469 27.066406 33.355469 28.714844 33.96875 C 31.753906 35.128906 34.519531 35.789062 37.007812 35.949219 L 37.976562 39.667969 L 26.871094 36.144531 C 26.613281 35.5 26.144531 34.820312 25.464844 34.113281 C 24.851562 33.5 24.269531 33.050781 23.71875 32.761719 L 21.4375 32.566406 C 20.695312 32.761719 20 33.132812 19.351562 33.679688 C 16.183594 33.035156 14.4375 31.085938 14.113281 27.832031 C 13.824219 24.707031 14.921875 22.148438 17.414062 20.148438 L 17.753906 19.8125 M 20.808594 35.5625 L 21.730469 34.839844 L 23.960938 34.886719 C 24.898438 35.273438 25.269531 35.820312 25.074219 36.527344 L 23.71875 40.925781 L 18.578125 59.140625 C 16.539062 67.324219 15.570312 74.023438 15.667969 79.242188 C 15.699219 82.203125 16.214844 85.296875 17.21875 88.519531 L 18.480469 93.011719 C 18.738281 94.558594 18.707031 96.089844 18.382812 97.601562 C 18.285156 98.117188 18.542969 98.550781 19.160156 98.90625 C 19.804688 99.292969 20.195312 99.179688 20.324219 98.570312 C 20.777344 96.410156 20.726562 94.234375 20.175781 92.046875 C 22.375 91.144531 24.671875 89.113281 27.066406 85.957031 C 29.199219 83.21875 30.765625 80.09375 31.769531 76.585938 L 31.769531 76.488281 C 33.613281 76.714844 35.179688 75.941406 36.472656 74.167969 C 37.800781 72.398438 38.125 70.609375 37.445312 68.804688 C 39.191406 67.742188 40.144531 66.292969 40.304688 64.457031 C 40.402344 62.847656 39.886719 61.1875 38.753906 59.480469 L 41.519531 50.445312 L 43.796875 55.566406 C 43.28125 55.371094 42.957031 55.535156 42.828125 56.050781 L 39.140625 69.144531 C 37.621094 73.910156 36.003906 78.144531 34.292969 81.851562 C 33.226562 84.171875 31.332031 86.941406 28.617188 90.160156 C 25.320312 94.027344 23.21875 96.652344 22.3125 98.035156 C 21.535156 99.230469 20.824219 100.742188 20.175781 102.578125 L 18.671875 107.363281 L 10.476562 134.660156 L 5.480469 151.425781 L 5.335938 151.765625 C 5.238281 151.667969 5.09375 151.667969 4.898438 151.765625 C 4.121094 152.152344 3.296875 152.28125 2.425781 152.152344 C 1.550781 152.023438 0.808594 151.667969 0.195312 151.089844 L 0 150.945312 L 1.941406 143.9375 L 4.949219 134.179688 L 8.003906 124.417969 C 9.847656 118.203125 11.480469 112.226562 12.902344 106.492188 L 14.355469 101.03125 C 14.90625 98.84375 15.164062 96.972656 15.132812 95.429688 C 15.101562 94.300781 14.710938 92.800781 13.96875 90.933594 L 12.269531 86.539062 C 10.976562 81.640625 11.140625 75.441406 12.757812 67.933594 C 13.984375 62.265625 16.34375 52.667969 19.835938 39.136719 L 20.808594 35.5625 M 38.558594 41.746094 L 40.839844 48.65625 C 40.226562 48.398438 39.835938 48.542969 39.675781 49.089844 L 37.105469 57.449219 L 35.40625 56.050781 C 32.078125 53.859375 27.792969 52.699219 22.554688 52.570312 L 26.824219 38.074219 L 38.558594 41.746094 M 32.207031 56.96875 C 31.65625 57.097656 31.558594 57.484375 31.914062 58.128906 C 32.398438 58.964844 32.171875 59.816406 31.234375 60.6875 C 30.523438 61.332031 29.621094 61.847656 28.519531 62.234375 C 28.003906 62.425781 27.921875 62.8125 28.277344 63.394531 C 28.601562 63.972656 28.988281 64.261719 29.441406 64.261719 L 32.011719 64.601562 C 32.433594 64.730469 32.675781 64.90625 32.738281 65.132812 L 32.546875 66.050781 C 31.964844 67.371094 30.992188 68.113281 29.636719 68.273438 C 28.246094 68.46875 26.96875 68.160156 25.804688 67.355469 C 24.640625 66.519531 23.929688 65.421875 23.667969 64.070312 C 23.3125 62.363281 23.507812 60.527344 24.25 58.5625 C 24.445312 58.078125 24.25 57.59375 23.667969 57.113281 L 22.457031 57.160156 C 21.679688 59.15625 21.4375 61.21875 21.730469 63.34375 L 21.679688 63.394531 C 21.164062 63.78125 20.46875 63.910156 19.59375 63.78125 L 22.019531 54.550781 L 22.070312 54.601562 C 25.207031 54.566406 28.324219 55.066406 31.429688 56.097656 C 34.144531 57 36.230469 58.625 37.6875 60.976562 C 39.304688 63.683594 38.625 65.777344 35.648438 67.257812 C 35.101562 67.515625 35.085938 68.015625 35.601562 68.757812 C 36.25 69.660156 36.085938 70.835938 35.117188 72.285156 C 34.113281 73.734375 32.980469 74.472656 31.722656 74.507812 C 32.753906 73.089844 33.304688 71.269531 33.371094 69.046875 L 33.371094 69 C 34.082031 68.289062 34.503906 67.453125 34.632812 66.484375 C 34.792969 65.421875 34.550781 64.535156 33.902344 63.828125 C 33.484375 63.378906 32.949219 63.023438 32.304688 62.765625 C 34.179688 61.25 34.582031 59.527344 33.515625 57.59375 C 33.191406 57.015625 32.753906 56.804688 32.207031 56.96875 M 22.652344 66.339844 C 23.167969 67.402344 24.007812 68.289062 25.171875 69 C 24.398438 69.933594 23.605469 70.59375 22.796875 70.980469 C 21.761719 71.496094 20.644531 71.285156 19.449219 70.351562 L 18.820312 69.433594 L 18.527344 68.851562 L 19.160156 65.664062 C 20.257812 65.988281 21.308594 65.96875 22.3125 65.617188 L 22.652344 66.339844 M 23.910156 72.910156 C 25.207031 72.363281 26.335938 71.367188 27.308594 69.917969 L 31.140625 70.207031 C 30.847656 71.460938 30.394531 72.445312 29.78125 73.152344 C 28.8125 74.378906 27.226562 74.570312 25.027344 73.734375 C 24.445312 73.476562 24.074219 73.203125 23.910156 72.910156 M 43.363281 96.925781 L 43.796875 98.085938 C 44.121094 98.921875 44.316406 99.855469 44.378906 100.886719 L 42.199219 99.96875 L 43.363281 96.925781 M 44.285156 102.773438 C 44.1875 103.707031 43.929688 104.976562 43.507812 106.589844 L 41.421875 114.511719 C 39.835938 113.867188 38.6875 113.046875 37.976562 112.050781 L 37.492188 111.035156 L 37.347656 110.40625 C 37.734375 106.378906 39.0625 103.382812 41.324219 101.417969 L 44.285156 102.773438 M 37.976562 119.632812 L 37.929688 119.585938 C 37.542969 117.492188 37.332031 115.558594 37.300781 113.789062 C 38.171875 114.691406 39.402344 115.496094 40.984375 116.203125 L 39.628906 120.84375 L 37.976562 119.632812 M 38.851562 123.644531 L 38.464844 122.050781 L 39.140625 122.535156 L 38.851562 123.644531 M 33.902344 139.011719 C 31.511719 138.109375 29.199219 137.542969 26.96875 137.320312 L 30.898438 133.5 L 31.285156 133.597656 L 35.648438 133.839844 L 33.902344 139.011719 M 33.226562 131.617188 L 37.300781 128.621094 L 36.230469 132.003906 L 33.226562 131.617188 M 41.519531 150.992188 C 41.097656 152.25 40.355469 153.410156 39.289062 154.472656 L 41.566406 147.128906 C 41.988281 148.351562 41.972656 149.640625 41.519531 150.992188 M 29.925781 151.765625 L 29.152344 153.84375 L 29.101562 153.792969 C 26.933594 152.796875 25.320312 151.796875 24.25 150.800781 C 22.730469 149.351562 22.019531 147.691406 22.117188 145.824219 C 22.246094 143.859375 23.296875 141.667969 25.269531 139.25 C 28.019531 139.25 30.71875 139.75 33.371094 140.75 L 32.886719 142.101562 L 29.925781 151.765625 "/>
</g>
</svg>
