<?xml version="1.0" encoding="UTF-8"?>
<svg xmlns="http://www.w3.org/2000/svg" xmlns:xlink="http://www.w3.org/1999/xlink" width="128pt" height="164pt" viewBox="0 0 128 164" version="1.1">
<g id="surface1">
<path style=" stroke:none;fill-rule:nonzero;fill:rgb(100%,100%,100%);fill-opacity:1;" d="M 84.921875 7.988281 C 86.53125 10.46875 88.039062 13.683594 89.449219 17.636719 C 91.5625 23.765625 92.632812 30.03125 92.667969 36.425781 C 92.667969 38.839844 92.535156 41.269531 92.265625 43.714844 C 91.527344 49.808594 88.746094 55.605469 83.917969 61.097656 L 82.910156 62.203125 L 80.34375 64.714844 L 79.339844 65.621094 C 77.863281 66.859375 76.289062 68.015625 74.613281 69.085938 L 73.65625 69.691406 L 73.554688 69.738281 C 71.476562 69.40625 69.363281 68.820312 67.21875 67.980469 C 65.375 67.210938 63.882812 66.15625 62.742188 64.816406 C 61.703125 63.578125 60.832031 61.933594 60.128906 59.890625 C 59.625 58.453125 59.289062 56.808594 59.121094 54.96875 L 59.121094 54.316406 C 62.003906 53.410156 64.402344 51.601562 66.3125 48.886719 C 67.957031 46.476562 68.59375 43.363281 68.226562 39.542969 C 67.988281 37.03125 67.21875 33.847656 65.910156 29.996094 C 64.839844 26.714844 63.582031 25.023438 62.140625 24.921875 C 61.535156 24.886719 61.367188 25.238281 61.636719 25.976562 L 58.265625 24.972656 C 60.546875 22.695312 62.894531 19.929688 65.308594 16.679688 C 67.453125 13.765625 69.03125 11.253906 70.035156 9.144531 C 71.445312 6.03125 71.964844 3.164062 71.59375 0.550781 L 71.492188 0.25 C 73.40625 0.0820312 75.25 0.367188 77.027344 1.105469 C 80.011719 2.246094 82.640625 4.539062 84.921875 7.988281 M 67.671875 8.691406 C 66.765625 10.433594 65.222656 12.796875 63.042969 15.777344 C 60.699219 18.925781 58.25 21.722656 55.703125 24.167969 L 51.277344 22.15625 L 59.070312 13.917969 L 62.238281 10.300781 C 63.378906 8.828125 64.152344 7.453125 64.554688 6.179688 L 64.402344 5.375 L 65.007812 4.269531 C 65.207031 4.203125 65.359375 4.085938 65.457031 3.917969 C 66.429688 2.246094 67.824219 1.140625 69.632812 0.601562 C 69.867188 3.015625 69.214844 5.710938 67.671875 8.691406 M 53.335938 12.511719 C 55.417969 12.074219 57.34375 11.355469 59.121094 10.351562 L 56.757812 12.914062 C 54.378906 15.59375 51.375 18.707031 47.753906 22.257812 L 41.667969 28.1875 L 41.46875 18.136719 C 41.5 17.101562 41.167969 16.179688 40.460938 15.375 L 38.449219 12.8125 L 38.398438 12.710938 L 40.210938 9.394531 C 41.921875 11.273438 44.269531 12.394531 47.253906 12.761719 L 53.335938 12.511719 M 63.796875 29.492188 C 65.542969 34.015625 66.347656 38.035156 66.214844 41.550781 C 64.203125 41.386719 62.15625 40.964844 60.078125 40.296875 C 57.898438 39.59375 56.054688 38.707031 54.542969 37.632812 C 53.640625 36.996094 53.171875 35.523438 53.136719 33.210938 C 53.136719 30.265625 53.070312 28.589844 52.933594 28.1875 C 52.265625 26.078125 50.941406 24.835938 48.960938 24.46875 L 49.464844 23.96875 L 51.425781 24.167969 C 51.726562 24.738281 52.113281 25.023438 52.582031 25.023438 L 52.835938 24.972656 L 53.691406 25.523438 C 54.929688 26.160156 56.523438 26.730469 58.46875 27.234375 L 63.445312 28.488281 L 63.796875 29.492188 M 47.402344 26.628906 C 49.648438 25.960938 50.941406 27.164062 51.277344 30.246094 C 51.710938 34.734375 51.996094 37.082031 52.128906 37.28125 C 52.734375 38.320312 53.65625 39.191406 54.898438 39.894531 C 55.5 40.230469 56.691406 40.765625 58.46875 41.503906 C 61.316406 42.609375 63.832031 43.292969 66.011719 43.5625 C 65.8125 44.535156 65.476562 45.503906 65.007812 46.476562 L 64.753906 46.375 L 56.457031 43.714844 C 56.1875 43.011719 55.734375 42.324219 55.097656 41.652344 L 53.238281 40.195312 L 50.921875 39.996094 C 50.152344 40.195312 49.429688 40.566406 48.761719 41.101562 C 45.476562 40.363281 43.699219 38.320312 43.429688 34.96875 C 43.160156 31.6875 44.316406 29.023438 46.898438 26.980469 L 47.300781 26.628906 L 47.402344 26.628906 M 51.226562 42.304688 L 53.488281 42.457031 C 54.460938 42.859375 54.863281 43.34375 54.695312 43.914062 L 51.023438 55.621094 C 50.6875 53.511719 49.832031 51.449219 48.460938 49.441406 L 48.460938 49.390625 L 50.21875 43.058594 L 51.226562 42.304688 M 97.648438 63.660156 L 97.144531 63.8125 L 96.039062 64.714844 L 94.78125 65.621094 C 89.582031 69.238281 82.308594 72.050781 72.953125 74.0625 L 73.554688 71.75 L 74.007812 71.800781 C 74.679688 71.902344 75.550781 71.566406 76.625 70.796875 L 78.9375 68.988281 L 82.910156 65.621094 L 83.867188 64.714844 L 86.179688 62.203125 L 88.996094 58.484375 C 91.175781 55.234375 92.734375 51.601562 93.671875 47.582031 L 97.34375 62.203125 L 97.648438 63.660156 M 98.953125 69.941406 C 100.597656 77.710938 101.820312 85.183594 102.625 92.351562 L 102.726562 95.265625 C 102.726562 96.605469 102.84375 97.625 103.078125 98.328125 C 102.308594 100.441406 99.273438 102.667969 93.976562 105.011719 C 86.0625 108.496094 79.960938 109.316406 75.667969 107.472656 C 74.191406 102.550781 72.347656 98.632812 70.136719 95.71875 L 69.785156 95.214844 L 68.175781 93.40625 C 67.636719 92.871094 67.152344 92.785156 66.714844 93.15625 C 66.28125 93.523438 66.332031 93.976562 66.867188 94.511719 L 68.074219 95.816406 C 66.699219 98.796875 65.726562 101.878906 65.15625 105.0625 C 61.636719 105.933594 58.351562 106.4375 55.300781 106.570312 L 56.304688 105.464844 L 61.234375 99.988281 C 62.875 97.84375 64.066406 95.71875 64.804688 93.605469 C 66.214844 89.722656 67.335938 85.585938 68.175781 81.195312 C 69.714844 80.324219 70.992188 78.765625 71.996094 76.523438 C 83.664062 74.277344 92.382812 70.8125 98.148438 66.121094 L 98.953125 69.941406 M 57.058594 52.957031 L 57.109375 54.867188 L 57.007812 54.816406 C 55.769531 54.617188 54.59375 54.75 53.488281 55.21875 L 56.457031 45.722656 L 63.949219 48.136719 C 62.207031 50.3125 60.042969 51.734375 57.460938 52.40625 C 57.195312 52.472656 57.058594 52.65625 57.058594 52.957031 M 57.359375 56.878906 C 58.066406 61.265625 59.65625 64.582031 62.140625 66.824219 C 64.453125 68.9375 67.539062 70.425781 71.394531 71.296875 L 70.335938 74.664062 C 70.238281 74.765625 70.1875 74.882812 70.1875 75.015625 C 68.8125 78.03125 66.933594 79.671875 64.554688 79.941406 L 61.535156 79.539062 L 61.335938 79.4375 L 63.445312 76.121094 C 63.714844 75.652344 63.53125 75.167969 62.894531 74.664062 C 62.289062 74.160156 61.855469 74.160156 61.585938 74.664062 C 60.746094 76.371094 59.910156 77.628906 59.070312 78.433594 C 57.832031 79.636719 56.488281 80.089844 55.046875 79.789062 L 53.4375 79.035156 C 55.082031 78.0625 56.40625 76.625 57.410156 74.714844 C 57.679688 74.210938 57.511719 73.726562 56.910156 73.257812 C 56.304688 72.753906 55.851562 72.753906 55.550781 73.257812 C 54.679688 74.898438 53.523438 76.15625 52.082031 77.027344 C 50.503906 78.03125 48.929688 78.28125 47.351562 77.78125 L 48.105469 74.261719 L 48.207031 74.210938 C 50.152344 72.636719 51.511719 71.316406 52.28125 70.242188 C 53.589844 68.46875 54.023438 66.707031 53.589844 64.96875 C 53.355469 63.863281 52.632812 62.890625 51.425781 62.050781 L 51.476562 62.003906 L 52.082031 59.992188 L 52.484375 59.589844 C 52.816406 58.621094 53.4375 57.882812 54.34375 57.378906 C 55.214844 56.878906 56.171875 56.710938 57.210938 56.878906 L 57.359375 56.878906 M 49.164062 70.042969 L 50.921875 63.8125 C 52.566406 65.015625 51.980469 67.09375 49.164062 70.042969 M 47.804688 66.824219 C 45.425781 75.402344 44.25 82.601562 44.285156 88.429688 C 44.285156 91.34375 44.789062 94.5625 45.792969 98.078125 L 47 102.75 C 47.269531 104.359375 47.21875 105.949219 46.851562 107.523438 C 46.714844 108.09375 46.984375 108.5625 47.65625 108.929688 C 48.324219 109.332031 48.726562 109.199219 48.863281 108.53125 C 49.296875 106.519531 49.3125 104.492188 48.910156 102.449219 L 49.265625 102.300781 L 54.644531 97.625 C 56.523438 95.75 57.898438 93.839844 58.769531 91.898438 C 60.042969 89.050781 60.980469 85.601562 61.585938 81.546875 L 65.609375 82.050781 L 65.8125 82 C 65.105469 85.652344 64.300781 88.683594 63.394531 91.09375 C 62.1875 94.308594 60.664062 97.007812 58.820312 99.183594 L 53.085938 105.566406 C 50.941406 108.078125 49.464844 110.488281 48.660156 112.800781 L 40.964844 136.867188 L 40.160156 139.53125 C 39.65625 139.597656 39.539062 139.984375 39.808594 140.6875 L 37.042969 149.578125 L 36.941406 149.832031 L 33.320312 161.488281 C 33.121094 161.589844 33.050781 161.824219 33.121094 162.191406 L 32.617188 163.699219 C 32.582031 163.867188 32.03125 163.964844 30.957031 164 L 29.046875 163.949219 C 28.410156 163.847656 27.820312 163.496094 27.285156 162.894531 L 27.132812 162.742188 C 28.542969 157.484375 30.386719 151.472656 32.667969 144.707031 C 34.8125 138.308594 36.957031 131.390625 39.105469 123.953125 L 41.617188 115.160156 C 42.558594 111.710938 43.179688 108.714844 43.480469 106.167969 C 43.582031 105.164062 43.3125 103.789062 42.675781 102.046875 C 41.46875 98.664062 40.695312 96.136719 40.363281 94.460938 C 39.625 90.542969 39.675781 86.085938 40.511719 81.09375 C 40.949219 78.484375 41.972656 74.113281 43.582031 67.980469 C 45.660156 66.976562 47.269531 65.855469 48.410156 64.613281 L 47.804688 66.824219 M 51.628906 79.839844 C 52.800781 80.910156 54.109375 81.597656 55.550781 81.898438 C 56.957031 82.234375 58.265625 81.984375 59.472656 81.144531 C 58.9375 84.394531 58.164062 87.257812 57.160156 89.738281 C 56.421875 91.648438 55.199219 93.539062 53.488281 95.414062 C 52.214844 96.789062 50.488281 98.3125 48.308594 99.988281 L 48.257812 99.785156 C 46.816406 94.964844 46.179688 90.574219 46.347656 86.621094 C 46.378906 84.378906 46.613281 82.050781 47.050781 79.636719 L 51.628906 79.839844 M 84.820312 110.238281 C 95.988281 116.199219 106.179688 120.050781 115.402344 121.792969 L 116.910156 128.175781 L 117.363281 131.039062 C 113.976562 129.265625 109.851562 127.691406 104.988281 126.316406 L 92.113281 123.101562 C 88.828125 122.296875 85.59375 121.058594 82.40625 119.382812 C 79.222656 117.742188 76.320312 115.796875 73.707031 113.554688 C 73.707031 111.445312 74.226562 110.019531 75.265625 109.28125 C 77.847656 110.457031 81 110.757812 84.722656 110.1875 L 84.820312 110.238281 M 73.859375 115.964844 C 76.875 118.34375 80.3125 120.402344 84.167969 122.144531 C 81.519531 123.386719 79.136719 125.527344 77.027344 128.578125 C 75.886719 125.058594 75.015625 121.828125 74.410156 118.878906 L 73.859375 115.964844 M 51.277344 113.753906 L 51.074219 113 C 51.679688 111.59375 52.5 110.1875 53.539062 108.78125 C 57.664062 108.78125 61.90625 108.226562 66.261719 107.121094 L 67.722656 115.765625 C 66.984375 116.535156 65.777344 117.289062 64.101562 118.027344 C 62.15625 118.929688 59.960938 119.566406 57.511719 119.933594 L 57.3125 119.734375 C 54.828125 118.125 53.070312 116.585938 52.03125 115.113281 L 51.277344 113.753906 M 65.007812 135.8125 C 66.378906 137.386719 67.183594 139.011719 67.421875 140.6875 L 67.621094 141.136719 L 67.621094 141.441406 L 66.464844 146.0625 C 63.515625 139.699219 56.304688 134.992188 44.839844 131.945312 L 45.089844 131.289062 C 49.816406 132.5625 54.945312 132.898438 60.480469 132.296875 L 60.578125 132.34375 C 62.324219 133.285156 63.796875 134.4375 65.007812 135.8125 M 48.507812 120.488281 L 50.117188 115.511719 C 51.023438 117.054688 52.632812 118.644531 54.945312 120.285156 L 48.507812 120.488281 M 81.804688 126.667969 C 83.480469 125.128906 85.222656 124.105469 87.035156 123.601562 L 87.234375 123.503906 L 89.5 124.304688 C 92.316406 125.277344 95.449219 126.164062 98.902344 126.96875 C 90.253906 131.15625 84.671875 136.164062 82.15625 141.992188 C 80.949219 139.28125 79.640625 135.964844 78.234375 132.042969 L 78.03125 131.390625 C 79.136719 129.546875 80.394531 127.972656 81.804688 126.667969 M 83.613281 144.605469 C 85.324219 139.078125 90.21875 134.1875 98.300781 129.933594 C 95.886719 133.417969 93.910156 137.234375 92.367188 141.390625 C 90.855469 145.511719 89.867188 149.664062 89.398438 153.851562 C 87.21875 151.238281 85.257812 148.222656 83.515625 144.804688 L 83.613281 144.605469 M 68.175781 137.421875 C 67 135.308594 65.324219 133.46875 63.144531 131.894531 L 68.628906 130.6875 L 68.175781 137.421875 M 68.628906 128.324219 C 60.3125 130.738281 52.648438 131.105469 45.644531 129.429688 L 47.804688 122.597656 C 55.046875 122.800781 60.882812 121.960938 65.308594 120.085938 C 66.449219 119.582031 67.371094 119.082031 68.074219 118.578125 C 68.441406 121.960938 68.628906 125.210938 68.628906 128.324219 M 114.847656 119.632812 C 109.785156 118.628906 104.554688 117.070312 99.15625 114.960938 C 100.765625 113.988281 102.523438 112.699219 104.4375 111.09375 L 109.265625 106.71875 C 111.542969 110.339844 113.40625 114.640625 114.847656 119.632812 M 96.488281 113.855469 C 94.210938 112.882812 91.226562 111.476562 87.539062 109.636719 C 89.683594 109.097656 91.929688 108.363281 94.277344 107.425781 C 99.707031 105.246094 103.144531 102.933594 104.585938 100.488281 L 107.90625 104.710938 L 102.574219 109.535156 C 100.464844 111.308594 98.519531 112.667969 96.742188 113.605469 L 96.488281 113.855469 M 102.878906 127.972656 C 109.648438 129.714844 114.949219 131.675781 118.769531 133.851562 L 119.472656 134.003906 L 121.585938 136.214844 C 118.234375 136.246094 114.714844 137.203125 111.023438 139.078125 C 107.804688 140.6875 104.839844 142.78125 102.121094 145.359375 C 100.246094 147.167969 98.652344 149.195312 97.34375 151.4375 C 95.902344 153.882812 94.964844 156.3125 94.527344 158.722656 L 91.308594 155.910156 C 91.746094 150.851562 92.953125 145.910156 94.929688 141.089844 C 96.976562 136.0625 99.625 131.691406 102.878906 127.972656 M 123.398438 138.375 C 126.414062 142.328125 127.941406 146.011719 127.972656 149.429688 L 127.167969 148.726562 C 126.296875 148.121094 125.074219 147.988281 123.496094 148.324219 L 119.726562 149.378906 C 111.644531 151.523438 106.933594 156.128906 105.59375 163.195312 C 102.207031 162.761719 99.171875 161.722656 96.488281 160.082031 C 97.195312 155.925781 99.390625 151.839844 103.078125 147.820312 C 105.660156 145.074219 108.726562 142.8125 112.28125 141.039062 C 116.207031 139.0625 119.910156 138.175781 123.398438 138.375 M 127.570312 152.394531 C 127.035156 154.167969 125.996094 155.808594 124.453125 157.316406 C 122.273438 159.394531 119.691406 160.953125 116.707031 161.988281 C 113.859375 162.996094 110.890625 163.449219 107.804688 163.347656 C 109.046875 158.085938 112.417969 154.421875 117.914062 152.34375 L 123.496094 150.785156 L 126.164062 150.585938 C 126.902344 150.820312 127.371094 151.421875 127.570312 152.394531 M 47.957031 159.328125 C 47.183594 155.609375 44.402344 152.140625 39.605469 148.925781 L 39.558594 148.925781 L 41.617188 142.292969 C 46.648438 145.609375 49.53125 150.953125 50.269531 158.324219 L 50.320312 158.574219 L 47.957031 159.328125 M 64.957031 149.53125 C 64.320312 150.734375 63.363281 151.824219 62.089844 152.796875 L 58.265625 155.054688 C 56.152344 156.195312 54.125 157.132812 52.179688 157.871094 C 51.207031 150.097656 47.871094 144.320312 42.171875 140.535156 L 44.285156 133.800781 C 49.582031 135.175781 53.824219 136.785156 57.007812 138.625 C 61.601562 141.273438 64.417969 144.570312 65.457031 148.523438 L 64.957031 149.53125 M 46.800781 47.28125 C 45.121094 45.40625 43.246094 43.730469 41.167969 42.257812 L 43.179688 39.34375 C 44.453125 41.082031 46.046875 42.273438 47.957031 42.910156 L 46.800781 47.28125 M 38.199219 6.078125 L 38.703125 7.234375 C 33.839844 16.078125 29.566406 24.46875 25.878906 32.40625 L 22.355469 40.398438 C 21.117188 43.445312 20.175781 46.207031 19.539062 48.6875 C 18.566406 52.574219 18.082031 55.90625 18.082031 58.6875 C 18.046875 62.539062 18.871094 65.71875 20.546875 68.234375 C 17.394531 67.765625 14.476562 67.027344 11.792969 66.023438 C 10.789062 59.992188 11.492188 53.226562 13.90625 45.722656 C 15.582031 40.53125 18.398438 34.25 22.355469 26.882812 C 26.648438 18.910156 31.324219 11.640625 36.386719 5.074219 L 38.199219 6.078125 M 34.375 3.769531 C 30.152344 9.226562 26.027344 15.527344 22.003906 22.660156 L 20.34375 21.605469 C 20.980469 17.417969 22.273438 13.683594 24.21875 10.402344 C 26.496094 6.582031 29.363281 3.953125 32.816406 2.511719 L 34.375 3.769531 M 39.457031 16.730469 C 39.355469 20.25 39.421875 24.183594 39.65625 28.539062 C 39.726562 28.941406 39.941406 29.257812 40.3125 29.492188 L 35.082031 34.417969 C 33.671875 31.636719 32.097656 29.644531 30.351562 28.4375 L 37.496094 14.421875 L 39.457031 16.730469 M 20.898438 23.96875 L 21.199219 24.167969 L 18.03125 30.046875 C 16.152344 28.875 13.304688 28.421875 9.480469 28.691406 L 12.953125 24.46875 C 14.191406 23.0625 16.289062 22.628906 19.238281 23.164062 L 20.898438 23.96875 M 8.425781 30.949219 C 12.648438 30.515625 15.601562 30.75 17.277344 31.65625 L 14.761719 37.03125 L 14.257812 36.980469 C 11.578125 37.851562 9.046875 39.175781 6.664062 40.949219 C 4.316406 42.726562 2.304688 44.785156 0.628906 47.128906 C 1.703125 41.90625 4.148438 36.476562 7.972656 30.851562 L 8.425781 30.949219 M 23.511719 44.667969 C 25.894531 42.691406 28.945312 40.917969 32.667969 39.34375 C 36.992188 41.351562 40.613281 43.695312 43.53125 46.375 C 41.050781 45.875 38.484375 46.292969 35.835938 47.632812 C 33.320312 48.90625 31.109375 50.765625 29.195312 53.210938 C 27.285156 55.65625 26.042969 58.21875 25.476562 60.898438 C 24.835938 63.8125 25.105469 66.40625 26.28125 68.683594 L 22.859375 68.484375 C 20.714844 66.105469 19.757812 62.6875 19.992188 58.234375 C 20.160156 55.253906 20.898438 51.636719 22.207031 47.382812 L 23.0625 44.820312 C 23.261719 44.820312 23.414062 44.769531 23.511719 44.667969 M 26.128906 37.28125 L 26.230469 37.332031 C 27.367188 37.367188 28.542969 37.601562 29.75 38.035156 C 27.839844 38.90625 26.128906 39.859375 24.621094 40.898438 L 26.128906 37.28125 M 32.414062 36.878906 L 32.0625 37.03125 C 30.519531 36.191406 28.84375 35.640625 27.035156 35.371094 L 29.597656 29.996094 C 31.039062 31 32.433594 32.878906 33.773438 35.625 L 32.414062 36.878906 M 39.203125 40.898438 C 37.898438 40.0625 36.339844 39.15625 34.527344 38.1875 L 41.367188 31.855469 C 41.132812 33.628906 41.316406 35.339844 41.921875 36.980469 L 39.203125 40.898438 M 13.65625 39.695312 C 12.347656 43.078125 11.34375 46.257812 10.636719 49.238281 L 10.136719 49.339844 C 8.125 50.546875 6.445312 52.003906 5.105469 53.710938 C 3.5625 55.621094 2.625 57.597656 2.289062 59.640625 C 0.882812 57.730469 0.125 55.46875 0.0273438 52.859375 C 1.332031 49.945312 3.195312 47.332031 5.609375 45.019531 C 7.988281 42.707031 10.671875 40.933594 13.65625 39.695312 M 46.398438 49.492188 C 48.074219 51.769531 48.996094 54.03125 49.164062 56.273438 C 49.53125 60.328125 47.570312 63.460938 43.277344 65.671875 C 43.011719 65.4375 42.726562 65.320312 42.421875 65.320312 C 42.121094 65.320312 41.921875 65.503906 41.820312 65.871094 L 41.71875 66.375 C 40.914062 66.707031 39.640625 67.109375 37.898438 67.578125 C 35.316406 65.9375 33.539062 63.8125 32.566406 61.199219 C 31.527344 58.453125 31.59375 55.703125 32.765625 52.957031 L 33.320312 52.40625 C 35.097656 50.699219 37.160156 49.492188 39.507812 48.789062 C 42.1875 48.015625 44.484375 48.253906 46.398438 49.492188 M 27.335938 62.90625 C 27.703125 60.996094 28.527344 58.972656 29.800781 56.828125 C 29.832031 58.9375 30.371094 60.980469 31.410156 62.957031 C 32.414062 64.867188 33.808594 66.558594 35.582031 68.03125 L 28.242188 68.683594 C 27.203125 67.144531 26.898438 65.21875 27.335938 62.90625 M 9.984375 52.355469 C 9.179688 56.84375 9.09375 61.113281 9.734375 65.167969 L 6.714844 63.609375 C 5.710938 63.039062 4.855469 62.421875 4.148438 61.75 C 4.183594 59.976562 4.785156 58.21875 5.960938 56.476562 C 6.964844 54.96875 8.308594 53.59375 9.984375 52.355469 M 41.167969 106.621094 C 41.066406 107.589844 40.796875 108.914062 40.363281 110.589844 L 38.199219 118.878906 C 36.523438 118.144531 35.332031 117.273438 34.628906 116.265625 L 34.125 115.210938 L 33.972656 114.558594 C 34.375 110.371094 35.75 107.257812 38.097656 105.214844 L 41.167969 106.621094 M 40.210938 100.589844 L 40.664062 101.746094 C 41 102.652344 41.199219 103.621094 41.265625 104.660156 L 39.003906 103.707031 L 40.210938 100.589844 M 34.628906 124.105469 C 34.191406 121.726562 33.957031 119.71875 33.925781 118.074219 C 34.894531 119.082031 36.171875 119.933594 37.746094 120.636719 L 36.386719 125.410156 L 34.628906 124.15625 L 34.628906 124.105469 M 35.835938 127.171875 L 35.535156 128.324219 L 35.132812 126.667969 L 35.835938 127.171875 M 33.925781 133.5 L 32.816406 137.019531 L 29.699219 136.617188 L 33.925781 133.5 M 32.214844 138.925781 L 30.402344 144.355469 C 27.988281 143.382812 25.59375 142.78125 23.210938 142.546875 L 27.285156 138.625 L 27.6875 138.675781 L 32.214844 138.925781 M 39.355469 150.886719 C 43.480469 153.765625 45.742188 156.730469 46.144531 159.78125 L 46.144531 159.828125 C 43.363281 160.566406 40.8125 161.019531 38.5 161.1875 C 39.742188 159.644531 40.445312 157.988281 40.613281 156.210938 C 40.78125 154.335938 40.363281 152.5625 39.355469 150.886719 M 38.300781 156.816406 C 37.863281 158.121094 37.09375 159.308594 35.984375 160.382812 L 38.351562 152.746094 C 38.785156 154.019531 38.769531 155.375 38.300781 156.816406 M 29.398438 147.519531 L 26.28125 157.617188 L 25.476562 159.730469 L 25.425781 159.730469 C 23.144531 158.65625 21.46875 157.601562 20.394531 156.5625 C 18.820312 155.054688 18.082031 153.332031 18.183594 151.386719 C 18.316406 149.34375 19.40625 147.066406 21.453125 144.554688 C 24.167969 144.554688 26.964844 145.074219 29.851562 146.113281 L 29.398438 147.519531 "/>
</g>
</svg>
