<?xml version="1.0" encoding="UTF-8"?>
<svg xmlns="http://www.w3.org/2000/svg" xmlns:xlink="http://www.w3.org/1999/xlink" width="128pt" height="200pt" viewBox="0 0 128 200" version="1.1">
<g id="surface1">
<path style=" stroke:none;fill-rule:nonzero;fill:rgb(100%,100%,100%);fill-opacity:1;" d="M 93.878906 1.582031 C 100.019531 3.972656 105.046875 10.660156 108.953125 21.640625 C 112.492188 31.773438 113.632812 42.289062 112.371094 53.191406 C 111.476562 60.484375 108.097656 67.496094 102.238281 74.226562 C 99.144531 77.792969 95.382812 80.992188 90.945312 83.828125 L 89.789062 84.558594 L 89.664062 84.621094 C 87.386719 84.296875 84.824219 83.585938 81.976562 82.492188 C 79.738281 81.558594 77.925781 80.285156 76.542969 78.664062 C 75.28125 77.164062 74.222656 75.175781 73.367188 72.707031 C 72.757812 71.003906 72.351562 69.039062 72.148438 66.808594 L 72.148438 66.019531 C 75.648438 64.882812 78.558594 62.695312 80.875 59.453125 C 82.179688 57.507812 82.953125 55.300781 83.195312 52.828125 C 83.359375 52.582031 83.378906 52.257812 83.257812 51.855469 C 83.5 47.964844 82.542969 42.855469 80.386719 36.535156 C 79.085938 32.5625 77.558594 30.515625 75.808594 30.394531 C 75.402344 30.394531 75.179688 30.535156 75.140625 30.820312 C 75.058594 31.105469 75.117188 31.429688 75.320312 31.792969 L 70.378906 30.578125 C 67.9375 30.011719 66.1875 29.464844 65.128906 28.9375 L 64.945312 28.875 L 64.578125 22.371094 C 68.769531 21.882812 72.269531 20.039062 75.078125 16.839844 C 77.804688 13.757812 79.351562 10.050781 79.714844 5.714844 L 79.65625 5.226562 L 79.839844 4.984375 C 81.140625 2.632812 83.214844 1.195312 86.0625 0.667969 C 88.585938 0.222656 91.191406 0.527344 93.878906 1.582031 M 62.871094 19.9375 C 62.261719 19.9375 61.996094 20.261719 62.078125 20.910156 L 62.445312 27.597656 L 61.710938 27.292969 L 59.027344 27.355469 C 58.375 27.640625 57.722656 28.226562 57.074219 29.117188 L 56.402344 30.273438 C 56.15625 30.71875 55.890625 31.042969 55.609375 31.246094 L 53.53125 33.3125 C 52.394531 34.609375 51.597656 36.128906 51.152344 37.871094 L 50.664062 28.085938 L 50.785156 24.316406 L 50.785156 20.546875 C 50.746094 20.101562 50.417969 19.59375 49.808594 19.027344 L 48.464844 17.8125 C 46.960938 16.230469 46.269531 14.265625 46.390625 11.914062 C 46.472656 10.820312 46.796875 9.789062 47.367188 8.816406 C 49.238281 12.503906 52.636719 14.710938 57.5625 15.441406 C 60.773438 15.886719 64.070312 15.601562 67.449219 14.589844 C 70.867188 13.535156 73.734375 11.914062 76.054688 9.726562 C 74.957031 12.5625 73.289062 14.894531 71.050781 16.71875 C 68.648438 18.621094 65.921875 19.695312 62.871094 19.9375 M 77.398438 34.832031 L 77.824219 35.925781 C 79.941406 41.359375 80.917969 46.179688 80.753906 50.394531 C 76.441406 50.03125 72.027344 48.734375 67.507812 46.503906 C 66.207031 45.898438 65.453125 44.296875 65.25 41.703125 L 64.945312 35.867188 C 64.621094 34.40625 63.988281 33.191406 63.054688 32.21875 C 62.078125 31.207031 60.9375 30.617188 59.636719 30.457031 C 60.285156 29.6875 61.242188 29.542969 62.503906 30.03125 L 65.433594 31.550781 C 66.941406 32.238281 68.914062 32.886719 71.355469 33.496094 L 77.398438 34.832031 M 63.910156 45.347656 C 64.519531 46.605469 65.453125 47.640625 66.714844 48.449219 C 67.53125 48.976562 68.8125 49.5625 70.5625 50.210938 C 74.101562 51.632812 77.417969 52.523438 80.511719 52.886719 C 80.347656 54.023438 79.980469 55.136719 79.410156 56.230469 L 69.585938 53.496094 C 69.257812 52.683594 68.691406 51.855469 67.875 51.003906 L 65.617188 49.363281 L 62.75 49.179688 C 61.8125 49.421875 60.957031 49.910156 60.183594 50.636719 C 56.15625 49.867188 53.898438 47.457031 53.410156 43.402344 C 52.882812 39.472656 54.164062 36.230469 57.253906 33.679688 L 57.742188 33.191406 L 57.867188 33.191406 C 60.550781 32.300781 62.179688 33.597656 62.75 37.082031 L 63.113281 41.640625 C 63.277344 43.425781 63.542969 44.660156 63.910156 45.347656 M 63.542969 51.792969 C 64.191406 51.507812 65.046875 51.652344 66.105469 52.21875 C 67.121094 52.785156 67.550781 53.394531 67.386719 54.042969 L 65.800781 59.574219 C 63.15625 69.300781 61.183594 76.980469 59.878906 82.613281 C 57.398438 93.070312 56.339844 101.703125 56.707031 108.511719 C 56.867188 111.914062 57.601562 115.625 58.902344 119.636719 L 60.550781 125.226562 C 60.957031 127.171875 60.980469 129.097656 60.613281 131.003906 C 60.492188 131.652344 60.835938 132.199219 61.648438 132.644531 C 62.421875 133.128906 62.890625 132.988281 63.054688 132.21875 C 63.542969 129.464844 63.421875 126.707031 62.6875 123.953125 C 64.679688 123.101562 66.65625 121.582031 68.609375 119.390625 C 70.277344 117.527344 71.699219 115.441406 72.878906 113.128906 C 74.832031 109.402344 76.421875 104.742188 77.640625 99.148438 L 82.21875 99.453125 L 82.523438 99.390625 C 81.792969 103.808594 80.9375 107.496094 79.960938 110.457031 C 78.660156 114.386719 76.929688 117.710938 74.773438 120.425781 L 68.058594 128.328125 C 65.578125 131.488281 63.886719 134.46875 62.992188 137.265625 C 61.367188 142.53125 58.597656 152.359375 54.691406 166.746094 L 45.660156 199.515625 L 43.707031 199.9375 L 41.324219 200 C 40.796875 199.917969 40.085938 199.554688 39.1875 198.90625 L 38.882812 198.601562 C 40.308594 192.480469 42.199219 185.492188 44.558594 177.628906 C 48.875 163.121094 52.292969 150.03125 54.8125 138.359375 L 56.097656 132.949219 C 56.503906 130.761719 56.5625 128.9375 56.277344 127.476562 C 55.996094 126.179688 55.382812 124.375 54.449219 122.066406 L 52.433594 116.597656 L 52.007812 113.859375 C 51.84375 112.441406 51.660156 111.652344 51.457031 111.488281 C 50.929688 106.871094 51.234375 101.398438 52.371094 95.074219 L 55.914062 78.90625 L 61.957031 52.949219 L 63.542969 51.792969 M 117.007812 52.402344 L 117.4375 53.800781 L 116.828125 54.46875 L 114.386719 56.351562 C 114.996094 53.476562 115.320312 50.738281 115.363281 48.144531 L 117.007812 52.402344 M 119.878906 73.191406 L 119.816406 75.925781 C 116.316406 79.859375 111.78125 83.261719 106.207031 86.140625 C 101.363281 88.613281 95.972656 90.535156 90.03125 91.914062 L 91.375 86.992188 L 94 85.472656 L 96.195312 83.707031 C 100.875 80.222656 104.945312 75.988281 108.402344 71.003906 C 110.601562 67.71875 112.269531 64.152344 113.410156 60.304688 L 113.773438 60.183594 L 118.292969 57.019531 C 119.347656 61.601562 119.878906 66.992188 119.878906 73.191406 M 122.625 105.53125 L 123.601562 107.84375 C 122.21875 110.636719 119.796875 112.765625 116.339844 114.226562 C 117.925781 108.390625 119.023438 103.871094 119.632812 100.667969 C 120.734375 101.964844 121.730469 103.585938 122.625 105.53125 M 116.828125 98.722656 C 115.078125 108.289062 113.714844 114.609375 112.738281 117.691406 C 111.636719 121.257812 110.640625 125.085938 109.746094 129.179688 C 109.582031 129.382812 109.542969 129.625 109.625 129.910156 L 108.402344 136.839844 L 108.34375 137.203125 C 107.609375 142.308594 107.242188 147.476562 107.242188 152.707031 C 106.957031 153.03125 106.957031 153.476562 107.242188 154.042969 L 107.425781 161.035156 C 107.671875 164.234375 108.078125 167.617188 108.648438 171.183594 L 109.625 175.746094 L 110.113281 177.265625 L 110.539062 178.90625 C 109.441406 179.796875 107.570312 180.40625 104.925781 180.730469 L 99.125 181.09375 L 90.945312 180.609375 C 87.9375 180 85.394531 178.988281 83.316406 177.570312 C 80.0625 169.542969 77.640625 161.15625 76.054688 152.402344 C 74.46875 143.605469 73.796875 134.914062 74.039062 126.320312 L 73.980469 125.898438 L 77.519531 121.640625 C 79.714844 118.722656 81.464844 115.054688 82.769531 110.636719 C 83.582031 107.800781 84.417969 103.769531 85.269531 98.542969 L 85.332031 98.296875 C 86.511719 97.570312 87.570312 96.472656 88.503906 95.015625 L 88.75 94.953125 C 94.609375 93.820312 100.082031 92.097656 105.167969 89.789062 C 110.945312 87.152344 115.789062 83.992188 119.695312 80.304688 C 119.53125 83.101562 118.574219 89.238281 116.828125 98.722656 M 69.644531 64.316406 L 69.707031 66.808594 C 68.566406 66.726562 67.488281 66.949219 66.472656 67.476562 L 69.644531 55.925781 L 78.128906 58.296875 C 76.09375 61.011719 73.429688 62.816406 70.132812 63.707031 C 69.808594 63.789062 69.644531 63.992188 69.644531 64.316406 M 70.074219 69.363281 C 71.007812 74.589844 72.921875 78.5 75.808594 81.09375 C 78.945312 83.929688 83.238281 85.855469 88.6875 86.871094 C 87.304688 93.03125 84.722656 96.394531 80.9375 96.960938 C 79.636719 97.164062 78.3125 97 76.96875 96.472656 C 77.90625 95.257812 78.699219 93.902344 79.351562 92.402344 C 79.636719 91.792969 79.410156 91.183594 78.679688 90.578125 L 77.09375 90.636719 C 74.9375 95.460938 72.371094 97.628906 69.402344 97.144531 C 68.914062 97.0625 68.242188 96.777344 67.386719 96.292969 C 69.339844 95.074219 70.886719 93.292969 72.027344 90.941406 C 72.3125 90.335938 72.085938 89.726562 71.355469 89.117188 L 69.769531 89.179688 C 68.058594 92.707031 65.800781 94.671875 62.992188 95.074219 C 62.300781 95.238281 61.425781 95.238281 60.367188 95.074219 L 59.941406 94.953125 L 60.671875 90.761719 L 60.796875 90.699219 C 63.074219 88.792969 64.679688 87.152344 65.617188 85.773438 C 67.164062 83.546875 67.632812 81.398438 67.019531 79.332031 C 66.613281 77.953125 65.699219 76.777344 64.273438 75.804688 L 64.886719 73.3125 L 65.375 72.886719 C 66.105469 70.738281 67.671875 69.5625 70.074219 69.363281 M 65.25 97.324219 C 66.757812 98.621094 68.34375 99.414062 70.011719 99.695312 C 71.84375 100.019531 73.53125 99.574219 75.078125 98.359375 C 74.019531 102.9375 72.675781 107.011719 71.050781 110.578125 C 70.074219 112.683594 68.8125 114.671875 67.265625 116.535156 C 65.476562 118.722656 63.664062 120.285156 61.832031 121.214844 C 60.125 116.191406 59.207031 111.507812 59.085938 107.171875 C 58.964844 104.011719 59.128906 100.730469 59.574219 97.324219 C 61.488281 97.894531 63.378906 97.894531 65.25 97.324219 M 61.773438 85.652344 L 63.726562 77.992188 C 65.761719 79.414062 65.109375 81.964844 61.773438 85.652344 M 65.25 139.089844 C 66.226562 135.886719 68.34375 132.402344 71.597656 128.632812 C 71.597656 133.171875 71.800781 137.488281 72.210938 141.582031 L 64.640625 141.09375 L 65.25 139.089844 M 127.324219 125.835938 L 122.378906 130.210938 C 124.292969 127.09375 125.796875 123.808594 126.898438 120.363281 L 127.507812 125.714844 L 127.324219 125.835938 M 115.421875 117.445312 L 115.726562 117.445312 L 118.472656 116.414062 C 117.660156 119.492188 115.871094 122.613281 113.101562 125.773438 L 115.421875 117.445312 M 111.761719 131.246094 L 111.820312 131.246094 C 117.882812 125.695312 121.078125 120.183594 121.402344 114.710938 C 122.707031 113.777344 123.867188 112.644531 124.882812 111.308594 L 125.675781 114.164062 C 124.292969 121.582031 121.121094 128.167969 116.15625 133.921875 C 114.488281 134.691406 112.738281 135.359375 110.90625 135.925781 L 111.761719 131.246094 M 117.984375 136.230469 C 121.648438 134.488281 124.902344 132.238281 127.75 129.484375 L 127.875 131.976562 L 127.933594 135.5 L 127.8125 135.625 C 122.238281 140.324219 116.257812 143.203125 109.867188 144.253906 L 110.480469 138.90625 L 116.765625 136.777344 L 117.679688 136.597656 L 117.984375 136.230469 M 116.765625 153.128906 C 113.835938 153.820312 111.375 153.820312 109.378906 153.128906 L 109.625 146.992188 C 115.929688 146.222656 121.972656 143.6875 127.75 139.390625 C 127.183594 144.132812 125.65625 147.679688 123.175781 150.03125 C 121.710938 151.410156 119.574219 152.441406 116.765625 153.128906 M 110.234375 182.066406 C 109.949219 184.417969 109.15625 185.957031 107.855469 186.6875 C 104.761719 188.347656 102.300781 189.078125 100.46875 188.875 L 99.980469 187.234375 L 99.25 186.261719 C 98.839844 185.976562 98.453125 185.898438 98.089844 186.019531 C 89.789062 189.21875 82.503906 191.042969 76.238281 191.488281 L 70.621094 191.246094 C 68.179688 190.71875 67.449219 189.605469 68.425781 187.902344 C 69.523438 185.957031 71.621094 184.214844 74.710938 182.675781 C 76.257812 181.945312 78.902344 180.933594 82.644531 179.636719 C 86.59375 182.1875 91.539062 183.566406 97.476562 183.769531 C 101.507812 183.890625 105.636719 183.363281 109.867188 182.1875 L 110.234375 182.066406 M 45.414062 6.503906 C 43.910156 8.734375 43.523438 11.207031 44.253906 13.921875 C 44.867188 16.230469 46.207031 18.417969 48.285156 20.484375 C 47.265625 39.128906 49.972656 53.960938 56.402344 64.984375 L 54.570312 72.886719 C 51.476562 67.253906 48.851562 60.546875 46.695312 52.765625 L 46.511719 52.15625 L 43.644531 40.730469 C 41.894531 33.515625 40.511719 26.300781 39.496094 19.089844 C 39.414062 18.398438 38.945312 17.914062 38.089844 17.628906 C 37.277344 17.34375 36.929688 17.628906 37.054688 18.480469 L 38.210938 25.53125 L 33.085938 24.253906 C 33.003906 19.839844 33.429688 15.90625 34.367188 12.460938 C 35.589844 7.84375 37.621094 4.679688 40.472656 2.980469 C 42.058594 4.355469 43.707031 5.53125 45.414062 6.503906 M 24.296875 34.953125 C 24.460938 36.738281 24.722656 37.972656 25.089844 38.664062 C 25.699219 39.917969 26.636719 40.953125 27.898438 41.761719 C 28.671875 42.207031 29.972656 42.796875 31.804688 43.527344 C 35.792969 45.105469 39.390625 46.019531 42.605469 46.261719 L 43.765625 50.578125 L 30.828125 46.746094 C 30.460938 45.9375 29.871094 45.125 29.058594 44.316406 C 28.285156 43.546875 27.53125 43 26.796875 42.675781 L 23.929688 42.492188 C 22.996094 42.734375 22.140625 43.203125 21.367188 43.890625 C 17.339844 43.160156 15.078125 40.769531 14.589844 36.71875 C 14.101562 32.785156 15.40625 29.523438 18.496094 26.929688 L 18.925781 26.503906 L 19.046875 26.503906 C 21.734375 25.613281 23.359375 26.910156 23.929688 30.394531 L 24.296875 34.953125 M 26.128906 29.117188 C 25.800781 27.660156 25.171875 26.445312 24.234375 25.472656 C 23.257812 24.5 22.121094 23.910156 20.816406 23.707031 C 21.46875 22.9375 22.425781 22.796875 23.6875 23.28125 C 24.417969 23.566406 25.414062 24.09375 26.675781 24.863281 C 28.183594 25.59375 30.136719 26.222656 32.535156 26.746094 L 38.640625 28.085938 L 41.140625 39.9375 L 41.996094 43.648438 C 37.886719 43.363281 33.472656 42.085938 28.75 39.816406 C 27.449219 39.167969 26.695312 37.546875 26.492188 34.953125 C 26.492188 32.035156 26.371094 30.089844 26.128906 29.117188 M 27.347656 45.472656 C 28.367188 46.078125 28.773438 46.6875 28.570312 47.292969 L 27.042969 52.828125 C 24.722656 61.09375 22.730469 68.773438 21.0625 75.867188 C 18.621094 86.242188 17.5625 94.894531 17.886719 101.824219 C 18.050781 105.269531 18.804688 108.957031 20.144531 112.886719 L 21.792969 118.542969 C 22.160156 120.445312 22.160156 122.351562 21.792969 124.253906 C 21.671875 124.945312 22.019531 125.511719 22.832031 125.957031 C 23.605469 126.445312 24.074219 126.28125 24.234375 125.472656 C 24.722656 122.753906 24.601562 120.019531 23.867188 117.265625 C 26.636719 116.089844 29.484375 113.496094 32.414062 109.484375 C 35.019531 105.996094 36.890625 102.027344 38.03125 97.570312 L 38.089844 97.386719 C 40.367188 97.628906 42.320312 96.617188 43.949219 94.347656 C 45.535156 92.078125 45.882812 89.828125 44.988281 87.597656 C 47.144531 86.222656 48.304688 84.375 48.464844 82.066406 C 48.589844 79.960938 47.898438 77.851562 46.390625 75.746094 L 49.078125 66.382812 L 51.457031 71.488281 C 49.789062 78.417969 48.34375 83.929688 47.125 88.023438 C 45.332031 94.0625 43.421875 99.414062 41.386719 104.074219 C 40.085938 107.03125 37.765625 110.558594 34.429688 114.652344 C 30.398438 119.59375 27.835938 122.957031 26.738281 124.742188 C 25.800781 126.28125 24.949219 128.207031 24.175781 130.515625 L 22.402344 136.597656 L 12.820312 171.125 L 6.839844 192.765625 L 6.289062 192.765625 C 5.273438 193.253906 4.257812 193.453125 3.238281 193.375 C 2.179688 193.253906 1.246094 192.847656 0.429688 192.15625 L 0.0664062 191.914062 L 2.324219 183.101562 L 5.863281 170.699219 L 9.402344 158.359375 C 11.316406 151.429688 13.226562 143.851562 15.140625 135.625 L 16.789062 128.753906 C 17.398438 125.996094 17.664062 123.648438 17.582031 121.703125 C 17.542969 120.285156 17.011719 118.398438 15.996094 116.046875 L 13.796875 110.578125 C 12.046875 104.335938 12.070312 96.535156 13.859375 87.171875 C 15.121094 80.808594 17.867188 68.671875 22.097656 50.761719 L 23.136719 46.199219 L 24.785156 45.105469 C 25.4375 44.78125 26.289062 44.902344 27.347656 45.472656 M 47.613281 63.28125 L 44.621094 73.980469 L 42.914062 72.582031 C 38.640625 69.707031 33.023438 68.347656 26.066406 68.511719 L 31.132812 49.847656 L 44.742188 53.859375 L 47.796875 62.980469 L 47.613281 63.28125 M 45.230469 77.992188 C 47.101562 81.234375 46.269531 83.789062 42.730469 85.652344 C 41.957031 86.058594 41.9375 86.707031 42.667969 87.597656 C 43.523438 88.734375 43.359375 90.234375 42.179688 92.097656 C 40.960938 93.921875 39.554688 94.851562 37.96875 94.894531 C 39.230469 93.070312 39.859375 90.78125 39.859375 88.023438 L 39.859375 87.964844 C 40.714844 87.03125 41.222656 85.957031 41.386719 84.742188 C 41.550781 83.445312 41.222656 82.351562 40.410156 81.457031 C 39.878906 80.890625 39.210938 80.445312 38.394531 80.121094 C 40.753906 78.175781 41.203125 76.007812 39.738281 73.617188 C 39.332031 72.886719 38.78125 72.625 38.089844 72.828125 C 37.398438 72.988281 37.296875 73.476562 37.785156 74.285156 C 38.4375 75.421875 38.171875 76.535156 36.992188 77.628906 C 36.136719 78.398438 35.019531 79.046875 33.632812 79.574219 C 32.984375 79.816406 32.882812 80.304688 33.328125 81.035156 C 33.738281 81.761719 34.226562 82.105469 34.792969 82.066406 L 38.03125 82.492188 C 39.371094 82.855469 39.472656 83.707031 38.335938 85.046875 C 37.277344 86.300781 36.238281 87.011719 35.222656 87.171875 C 33.511719 87.417969 31.945312 87.070312 30.523438 86.140625 C 29.058594 85.207031 28.082031 83.953125 27.59375 82.371094 C 26.902344 80.183594 27.082031 77.75 28.140625 75.074219 C 28.34375 74.46875 28.082031 73.859375 27.347656 73.253906 L 25.882812 73.3125 C 24.90625 75.824219 24.640625 78.441406 25.089844 81.15625 L 25.027344 81.15625 C 24.378906 81.722656 23.484375 81.925781 22.34375 81.761719 L 23.808594 75.199219 L 24.90625 72.28125 L 25.332031 71.246094 L 27.773438 71.488281 L 37.664062 72.21875 C 41.039062 73.152344 43.5625 75.074219 45.230469 77.992188 M 32.292969 89.300781 L 37.113281 89.542969 C 36.828125 91.085938 36.300781 92.320312 35.527344 93.253906 C 34.429688 94.671875 32.496094 94.976562 29.726562 94.164062 C 28.957031 94.003906 28.40625 93.65625 28.082031 93.128906 C 29.625 92.480469 31.03125 91.207031 32.292969 89.300781 M 26.308594 84.863281 C 26.960938 86.199219 28.039062 87.292969 29.546875 88.144531 C 28.609375 89.363281 27.632812 90.210938 26.617188 90.699219 C 25.273438 91.46875 23.890625 91.246094 22.464844 90.03125 L 21.609375 88.9375 C 21.570312 88.691406 21.40625 88.429688 21.121094 88.144531 L 21.855469 84.132812 L 25.945312 83.953125 L 26.308594 84.863281 M 50.359375 117.507812 L 51.089844 119.816406 L 53.042969 124.742188 C 53.734375 126.644531 53.980469 128.347656 53.777344 129.847656 L 53.347656 132.644531 C 51.761719 130.414062 50.703125 127.984375 50.175781 125.347656 C 49.644531 122.714844 49.707031 120.101562 50.359375 117.507812 M 52.433594 47.417969 C 54.019531 50.171875 56.300781 51.996094 59.269531 52.886719 L 57.132812 61.945312 C 54.976562 57.570312 53.410156 52.726562 52.433594 47.417969 "/>
</g>
</svg>
