<?xml version="1.0" encoding="UTF-8"?>
<svg xmlns="http://www.w3.org/2000/svg" xmlns:xlink="http://www.w3.org/1999/xlink" width="128pt" height="162pt" viewBox="0 0 128 162" version="1.1">
<g id="surface1">
<path style=" stroke:none;fill-rule:nonzero;fill:rgb(100%,100%,100%);fill-opacity:1;" d="M 75.535156 1.230469 C 80.53125 3.203125 84.589844 8.621094 87.710938 17.484375 C 90.570312 25.695312 91.492188 34.214844 90.472656 43.050781 C 89.75 49.023438 87.019531 54.707031 82.289062 60.089844 C 79.792969 62.980469 76.75 65.574219 73.167969 67.875 L 72.230469 68.464844 L 72.132812 68.515625 C 70.0625 68.21875 67.992188 67.644531 65.921875 66.789062 C 64.113281 66.066406 62.652344 65.050781 61.535156 63.734375 C 60.515625 62.554688 59.660156 60.945312 58.972656 58.910156 C 58.480469 57.464844 58.148438 55.855469 57.984375 54.082031 L 57.984375 53.441406 C 60.84375 52.488281 63.195312 50.714844 65.035156 48.121094 C 66.085938 46.546875 66.710938 44.757812 66.910156 42.753906 C 67.039062 42.589844 67.054688 42.328125 66.957031 41.964844 C 67.15625 38.878906 66.382812 34.742188 64.640625 29.554688 C 63.589844 26.335938 62.355469 24.691406 60.945312 24.628906 C 60.613281 24.59375 60.433594 24.710938 60.402344 24.972656 C 60.335938 25.167969 60.386719 25.433594 60.550781 25.761719 L 56.554688 24.773438 L 52.808594 23.640625 C 54.617188 21.804688 56.554688 19.539062 58.625 16.84375 C 60.433594 14.546875 61.75 12.609375 62.570312 11.03125 C 63.820312 8.570312 64.328125 6.335938 64.097656 4.335938 L 64.050781 4.234375 L 64.195312 4.039062 C 65.25 2.101562 66.925781 0.9375 69.226562 0.542969 C 71.230469 0.179688 73.332031 0.410156 75.535156 1.230469 M 57.789062 10.441406 C 59.269531 9.621094 60.550781 8.636719 61.632812 7.488281 C 61.207031 8.765625 60.484375 10.179688 59.464844 11.722656 L 56.804688 15.417969 C 54.863281 17.945312 52.84375 20.292969 50.738281 22.460938 L 50.640625 22.558594 L 49.507812 22.066406 C 48.785156 21.871094 48.144531 21.871094 47.585938 22.066406 L 57.640625 10.785156 L 57.789062 10.441406 M 62.226562 28.175781 L 62.570312 29.109375 C 64.28125 33.511719 65.066406 37.402344 64.9375 40.785156 C 61.617188 40.554688 58.050781 39.519531 54.238281 37.679688 C 53.1875 37.15625 52.578125 35.839844 52.414062 33.738281 L 52.167969 29.011719 C 51.90625 27.828125 51.398438 26.84375 50.640625 26.054688 C 49.851562 25.269531 48.933594 24.792969 47.878906 24.628906 C 48.40625 24.003906 49.179688 23.890625 50.195312 24.28125 L 52.5625 25.5625 C 53.78125 26.121094 55.375 26.628906 57.34375 27.089844 L 62.226562 28.175781 M 48.324219 40.980469 C 45.070312 40.355469 43.246094 38.402344 42.851562 35.117188 C 42.425781 31.933594 43.460938 29.308594 45.957031 27.238281 L 46.351562 26.894531 L 46.449219 26.84375 C 48.621094 26.15625 49.917969 27.222656 50.34375 30.046875 L 51.28125 36.746094 C 51.773438 37.761719 52.546875 38.597656 53.597656 39.257812 C 54.191406 39.617188 55.226562 40.09375 56.703125 40.683594 C 59.828125 41.867188 62.503906 42.574219 64.738281 42.800781 C 64.574219 43.789062 64.28125 44.691406 63.851562 45.511719 L 55.914062 43.296875 C 55.652344 42.636719 55.191406 41.964844 54.535156 41.277344 L 52.710938 39.945312 L 50.394531 39.796875 C 49.605469 39.996094 48.914062 40.390625 48.324219 40.980469 M 51.035156 41.964844 C 51.5625 41.703125 52.25 41.800781 53.105469 42.261719 C 53.925781 42.71875 54.273438 43.214844 54.140625 43.738281 L 52.859375 48.222656 C 50.625 56.496094 49.03125 62.71875 48.078125 66.886719 C 46.074219 75.425781 45.21875 82.421875 45.515625 87.871094 C 45.644531 90.628906 46.238281 93.632812 47.289062 96.886719 L 48.621094 101.417969 C 48.949219 102.992188 48.964844 104.550781 48.667969 106.09375 C 48.570312 106.652344 48.851562 107.113281 49.507812 107.476562 C 50.132812 107.867188 50.507812 107.738281 50.640625 107.082031 C 51.003906 105.078125 50.953125 103.074219 50.492188 101.070312 L 50.789062 100.972656 C 52.957031 99.167969 54.667969 97.574219 55.914062 96.195312 C 57.691406 94.257812 58.972656 92.335938 59.761719 90.433594 C 60.910156 87.675781 61.714844 84.257812 62.175781 80.1875 L 66.121094 80.53125 L 66.367188 80.484375 C 65.773438 84.09375 65.085938 87.097656 64.296875 89.496094 C 63.242188 92.683594 61.847656 95.375 60.105469 97.574219 L 54.683594 103.976562 C 52.679688 106.507812 51.316406 108.917969 50.589844 111.21875 C 49.277344 115.519531 47.042969 123.464844 43.886719 135.058594 L 36.589844 161.605469 L 35.015625 161.949219 L 33.089844 162 C 32.664062 161.933594 32.089844 161.640625 31.367188 161.113281 L 31.121094 160.867188 C 32.238281 156.039062 33.765625 150.390625 35.703125 143.921875 C 37.90625 136.601562 39.863281 129.476562 41.570312 122.546875 L 43.738281 113.828125 C 44.527344 110.414062 45.039062 107.457031 45.269531 104.960938 C 45.332031 103.847656 45.039062 102.5 44.378906 100.921875 C 43.066406 97.671875 42.226562 95.210938 41.867188 93.535156 C 40.980469 89.59375 40.898438 85.046875 41.621094 79.890625 C 41.914062 77.660156 42.820312 73.175781 44.332031 66.445312 L 44.28125 66 C 48.355469 63.636719 50.328125 60.4375 50.195312 56.398438 C 50.164062 54.03125 49.457031 51.75 48.078125 49.550781 L 48.273438 49.15625 L 49.753906 42.851562 L 51.035156 41.964844 M 94.613281 43.492188 L 94.070312 44.082031 L 92.097656 45.660156 C 92.527344 43.722656 92.789062 41.703125 92.886719 39.601562 L 94.613281 43.492188 M 127.691406 103.335938 L 127.9375 106.589844 C 124.648438 110.855469 120.753906 114.058594 116.253906 116.191406 C 111.125 118.621094 106.214844 119.097656 101.515625 117.621094 L 99.789062 115.109375 L 102.5 113.335938 L 102.648438 113.335938 C 107.347656 113.304688 111.914062 112.203125 116.351562 110.035156 C 120.753906 107.867188 124.4375 104.945312 127.394531 101.269531 L 127.691406 103.335938 M 91.605469 48.714844 C 93.378906 47.664062 94.660156 46.757812 95.449219 46.003906 C 96.796875 50.570312 97.472656 55.574219 97.472656 61.027344 C 97.207031 60.929688 96.980469 60.976562 96.78125 61.175781 C 93.957031 64.457031 90.257812 67.28125 85.691406 69.648438 C 81.679688 71.714844 77.261719 73.308594 72.429688 74.425781 L 73.515625 70.484375 L 75.632812 69.253906 L 77.410156 67.824219 C 81.15625 65.03125 84.441406 61.585938 87.265625 57.480469 C 89.042969 54.917969 90.390625 52.03125 91.308594 48.8125 L 91.605469 48.714844 M 97.175781 67.480469 C 96.355469 75.261719 95.007812 81.796875 93.132812 87.082031 C 92.277344 89.382812 91.574219 90.828125 91.015625 91.417969 C 90.621094 91.8125 90.683594 92.304688 91.210938 92.894531 C 91.738281 93.484375 92.179688 93.585938 92.542969 93.191406 C 93.230469 92.433594 93.855469 91.335938 94.414062 89.890625 C 96.191406 97.113281 95.074219 103.5 91.0625 109.050781 C 89.585938 111.085938 87.414062 112.546875 84.554688 113.433594 C 81.960938 114.222656 79.28125 114.4375 76.519531 114.074219 C 72.972656 113.582031 69.980469 111.613281 67.550781 108.164062 C 65.445312 105.175781 64.097656 101.726562 63.507812 97.820312 L 63.261719 97.277344 C 64.28125 95.769531 65.019531 94.289062 65.480469 92.847656 C 66.957031 88.019531 68.007812 83.617188 68.632812 79.644531 C 69.621094 78.988281 70.472656 78.085938 71.195312 76.9375 L 71.394531 76.9375 C 76.390625 75.953125 81.054688 74.441406 85.394531 72.40625 C 90.324219 70.074219 94.332031 67.265625 97.421875 63.980469 L 97.175781 67.480469 M 102.894531 77.773438 C 104.832031 78.59375 106.507812 80.039062 107.921875 82.109375 C 109.171875 83.914062 110.109375 86.03125 110.730469 88.460938 L 110.878906 88.953125 L 111.375 92.105469 C 111.703125 96.210938 110.683594 100.121094 108.316406 103.828125 C 106.277344 107.046875 103.386719 109.921875 99.640625 112.449219 C 105.554688 104.699219 107.625 97.097656 105.851562 89.644531 C 104.832031 85.605469 102.878906 82.15625 99.984375 79.300781 C 100.90625 78.710938 101.875 78.199219 102.894531 77.773438 M 97.273438 81.222656 L 98.554688 80.238281 C 100.824219 82.304688 102.53125 85.128906 103.683594 88.707031 C 105.097656 93.140625 104.785156 97.820312 102.746094 102.746094 C 101.101562 106.6875 98.425781 110.660156 94.710938 114.664062 C 91.949219 115.355469 89.585938 115.371094 87.613281 114.714844 C 89.683594 113.796875 91.359375 112.5 92.640625 110.824219 C 95.203125 107.539062 96.683594 103.714844 97.078125 99.347656 C 97.472656 95.339844 96.929688 91.238281 95.449219 87.035156 L 97.078125 81.320312 L 97.273438 81.222656 M 112.902344 89.445312 C 115.859375 87.179688 117.914062 84.375 119.0625 81.023438 L 121.578125 84.769531 L 121.527344 85.0625 C 121.890625 89.695312 120.773438 94.40625 118.175781 99.199219 C 115.875 103.4375 112.753906 107.164062 108.808594 110.378906 L 105.261719 111.019531 C 108.121094 108.394531 110.238281 105.503906 111.621094 102.351562 C 113.097656 98.902344 113.640625 95.292969 113.246094 91.515625 L 112.902344 89.445312 M 112.210938 86.933594 C 110.699219 82.503906 108.300781 79.1875 105.015625 76.984375 L 107.132812 76.394531 C 111.078125 75.476562 114.480469 76.363281 117.335938 79.054688 C 116.484375 82.175781 114.773438 84.800781 112.210938 86.933594 M 53.402344 54.625 L 55.964844 45.265625 L 62.816406 47.1875 C 61.140625 49.453125 58.988281 50.914062 56.359375 51.570312 C 56.097656 51.636719 55.964844 51.800781 55.964844 52.0625 L 56.015625 54.082031 C 55.09375 54.015625 54.222656 54.195312 53.402344 54.625 M 51.625 61.421875 L 52.121094 59.402344 L 52.515625 59.007812 C 52.808594 58.152344 53.304688 57.480469 53.992188 56.988281 C 54.648438 56.527344 55.421875 56.265625 56.308594 56.199219 C 57 60.402344 58.542969 63.554688 60.945312 65.65625 C 63.472656 67.988281 66.941406 69.566406 71.34375 70.386719 C 70.226562 75.34375 68.140625 78.054688 65.085938 78.511719 L 61.878906 78.117188 C 62.570312 77.265625 63.210938 76.179688 63.804688 74.867188 C 64.03125 74.375 63.851562 73.882812 63.261719 73.390625 L 61.980469 73.4375 C 60.238281 77.378906 58.167969 79.121094 55.769531 78.660156 C 55.242188 78.5625 54.699219 78.332031 54.140625 77.972656 C 55.683594 76.984375 56.933594 75.558594 57.886719 73.6875 C 58.117188 73.191406 57.9375 72.699219 57.34375 72.207031 L 56.0625 72.257812 C 54.648438 75.082031 52.828125 76.671875 50.589844 77.035156 L 48.472656 76.984375 L 48.125 76.886719 L 48.71875 73.539062 L 48.816406 73.4375 C 50.625 71.960938 51.921875 70.632812 52.710938 69.449219 C 53.960938 67.644531 54.339844 65.902344 53.84375 64.230469 C 53.515625 63.078125 52.777344 62.144531 51.625 61.421875 M 56.261719 80.730469 C 57.640625 80.992188 58.921875 80.695312 60.105469 79.84375 C 59.746094 82.765625 59.101562 85.605469 58.183594 88.363281 C 57.03125 91.582031 54.238281 95.03125 49.804688 98.707031 L 49.753906 98.511719 C 48.308594 94.308594 47.535156 90.414062 47.4375 86.835938 C 47.339844 84.242188 47.46875 81.566406 47.832031 78.808594 C 49.375 79.332031 50.902344 79.332031 52.414062 78.808594 C 53.566406 79.859375 54.847656 80.5 56.261719 80.730469 M 49.605469 69.402344 L 51.183594 63.144531 C 52.859375 64.292969 52.332031 66.378906 49.605469 69.402344 M 61.832031 99.152344 C 62.421875 101.84375 63.375 104.371094 64.691406 106.734375 C 66.101562 109.265625 67.796875 111.316406 69.769531 112.894531 C 69.996094 122.578125 70.523438 130.820312 71.34375 137.617188 C 71.707031 140.210938 72.085938 142.414062 72.480469 144.21875 L 72.578125 144.910156 L 72.824219 144.859375 L 72.035156 145.597656 C 65.957031 148.0625 60.582031 148.75 55.914062 147.667969 C 54.601562 147.339844 53.335938 146.8125 52.121094 146.089844 L 50.984375 145.300781 C 49.179688 141.066406 48.011719 137.058594 47.484375 133.285156 C 47.453125 132.957031 47.238281 132.660156 46.84375 132.398438 L 52.269531 113.1875 C 53.15625 110.167969 54.996094 107.046875 57.789062 103.828125 L 61.832031 99.152344 M 120.738281 99.25 C 122.449219 95.636719 123.386719 92.058594 123.550781 88.511719 C 124.960938 91.566406 126.046875 94.800781 126.800781 98.214844 C 123.679688 102.648438 119.523438 106.0625 114.332031 108.460938 C 116.992188 105.601562 119.128906 102.53125 120.738281 99.25 M 110.140625 123.925781 C 107.90625 123.234375 105.820312 121.988281 103.878906 120.183594 C 108.085938 121.003906 112.425781 120.429688 116.894531 118.457031 C 120.835938 116.683594 124.4375 114.027344 127.691406 110.480469 C 126.738281 117.34375 123.320312 121.792969 117.4375 123.828125 C 115.039062 124.648438 112.605469 124.679688 110.140625 123.925781 M 71.640625 151.113281 C 71.246094 152.035156 70.492188 152.65625 69.375 152.984375 L 64.246094 153.675781 L 64.246094 152.542969 C 64.246094 152.214844 64.066406 151.886719 63.703125 151.558594 C 63.308594 151.195312 62.964844 151.113281 62.667969 151.3125 C 52.972656 156.597656 45.480469 158.371094 40.191406 156.632812 L 41.769531 150.867188 C 41.964844 150.867188 42.128906 150.800781 42.261719 150.671875 C 44.792969 148.371094 47.453125 147.109375 50.246094 146.878906 C 52.910156 149.144531 56.410156 150.277344 60.746094 150.277344 C 64.261719 150.277344 67.992188 149.554688 71.9375 148.109375 C 72.035156 149.390625 71.9375 150.390625 71.640625 151.113281 M 37.972656 7.289062 C 33.207031 15.957031 29.015625 24.183594 25.402344 31.964844 C 22.246094 38.699219 20.175781 44 19.191406 47.875 C 18.238281 51.683594 17.761719 54.953125 17.761719 57.675781 C 17.726562 61.488281 18.53125 64.605469 20.175781 67.035156 C 17.285156 66.640625 14.425781 65.917969 11.597656 64.867188 C 10.613281 58.992188 11.304688 52.359375 13.667969 44.96875 C 15.3125 39.847656 18.074219 33.707031 21.949219 26.546875 C 26.222656 18.570312 30.808594 11.445312 35.703125 5.171875 L 37.480469 6.15625 L 37.972656 7.289062 M 33.734375 3.890625 C 29.589844 9.242188 25.550781 15.417969 21.605469 22.410156 L 19.980469 21.375 C 20.601562 17.273438 21.867188 13.609375 23.773438 10.394531 C 26.007812 6.617188 28.820312 4.039062 32.203125 2.660156 L 33.734375 3.890625 M 46.351562 12.707031 C 48.554688 13.003906 50.839844 12.839844 53.203125 12.214844 L 40.832031 26.15625 L 40.683594 17.976562 C 40.714844 16.960938 40.386719 16.058594 39.695312 15.269531 L 37.726562 12.757812 L 37.675781 12.660156 L 39.449219 9.40625 C 41.125 11.179688 43.425781 12.28125 46.351562 12.707031 M 38.710938 16.550781 C 38.613281 19.996094 38.679688 23.871094 38.910156 28.175781 L 38.957031 28.222656 L 34.226562 33.492188 C 32.878906 30.996094 31.398438 29.191406 29.789062 28.074219 L 36.738281 14.332031 L 38.710938 16.550781 M 20.519531 23.691406 L 20.816406 23.890625 L 17.710938 29.652344 C 15.9375 28.535156 13.144531 28.074219 9.332031 28.273438 L 12.734375 24.183594 C 14.015625 22.738281 16.066406 22.3125 18.894531 22.902344 L 20.519531 23.691406 M 8.296875 30.539062 C 12.4375 30.109375 15.328125 30.339844 16.972656 31.226562 L 14.507812 36.449219 L 14.015625 36.449219 C 11.386719 37.300781 8.902344 38.597656 6.570312 40.339844 C 4.269531 42.082031 2.296875 44.101562 0.65625 46.398438 C 1.707031 41.308594 4.105469 35.988281 7.851562 30.441406 L 8.296875 30.539062 M 23.085938 43.933594 C 25.386719 42.0625 28.375 40.324219 32.054688 38.714844 C 36.460938 40.816406 40.007812 43.132812 42.703125 45.660156 C 40.273438 45.167969 37.757812 45.578125 35.160156 46.890625 C 32.699219 48.136719 30.527344 49.960938 28.65625 52.359375 C 26.78125 54.753906 25.566406 57.265625 25.007812 59.894531 C 24.382812 62.75 24.644531 65.296875 25.796875 67.527344 L 23.332031 67.382812 L 22.445312 67.332031 C 20.339844 64.96875 19.402344 61.617188 19.632812 57.285156 C 19.796875 54.359375 20.519531 50.796875 21.804688 46.59375 L 22.640625 44.082031 C 22.871094 44.082031 23.019531 44.035156 23.085938 43.933594 M 25.746094 36.792969 C 26.863281 36.828125 28.015625 37.054688 29.199219 37.484375 C 27.390625 38.304688 25.714844 39.222656 24.167969 40.242188 L 25.648438 36.746094 L 25.746094 36.792969 M 31.464844 36.496094 C 29.953125 35.675781 28.308594 35.136719 26.535156 34.871094 L 29.050781 29.601562 C 30.429688 30.554688 31.761719 32.3125 33.042969 34.871094 L 31.660156 36.398438 L 31.464844 36.496094 M 38.464844 40.289062 L 33.78125 37.582031 L 42.015625 28.320312 C 40.535156 30.851562 40.257812 33.542969 41.175781 36.398438 L 41.125 36.398438 L 38.464844 40.289062 M 42.308594 38.8125 C 43.589844 40.847656 45.351562 42.179688 47.585938 42.800781 L 46.5 47.285156 C 45.054688 45.414062 43.015625 43.507812 40.386719 41.570312 L 42.308594 38.8125 M 13.421875 39.109375 C 12.109375 42.492188 11.121094 45.609375 10.464844 48.46875 L 9.972656 48.566406 C 8 49.78125 6.355469 51.207031 5.042969 52.851562 C 3.53125 54.691406 2.609375 56.625 2.28125 58.664062 C 0.902344 56.757812 0.164062 54.542969 0.0625 52.011719 C 1.34375 49.15625 3.167969 46.59375 5.535156 44.328125 C 7.867188 42.0625 10.496094 40.324219 13.421875 39.109375 M 45.515625 48.714844 C 47.15625 50.945312 48.0625 53.164062 48.226562 55.363281 C 48.488281 58.316406 47.484375 60.78125 45.21875 62.75 C 43.34375 64.394531 40.667969 65.609375 37.183594 66.394531 C 34.652344 64.785156 32.910156 62.703125 31.957031 60.140625 C 30.9375 57.480469 31.003906 54.804688 32.15625 52.113281 L 32.699219 51.519531 C 34.472656 49.847656 36.492188 48.679688 38.761719 48.023438 C 41.390625 47.234375 43.640625 47.464844 45.515625 48.714844 M 27.71875 67.480469 C 26.699219 65.96875 26.402344 64.097656 26.832031 61.863281 C 27.191406 59.960938 27.996094 57.972656 29.246094 55.90625 C 29.28125 57.972656 29.804688 59.976562 30.824219 61.914062 C 31.808594 63.753906 33.171875 65.394531 34.914062 66.839844 L 27.71875 67.480469 M 9.578125 64.03125 L 6.621094 62.554688 L 4.105469 60.730469 C 4.136719 57.382812 6.042969 54.296875 9.824219 51.472656 C 9.035156 55.871094 8.953125 60.058594 9.578125 64.03125 "/>
</g>
</svg>
