<?xml version="1.0" encoding="UTF-8"?>
<svg xmlns="http://www.w3.org/2000/svg" xmlns:xlink="http://www.w3.org/1999/xlink" width="128pt" height="166pt" viewBox="0 0 128 166" version="1.1">
<g id="surface1">
<path style=" stroke:none;fill-rule:nonzero;fill:rgb(100%,100%,100%);fill-opacity:1;" d="M 103.910156 94.964844 C 103.839844 93.96875 103.335938 92.898438 102.40625 91.757812 L 99.832031 89.621094 C 99.117188 89.265625 98.546875 89.445312 98.117188 90.15625 C 97.6875 90.871094 97.832031 91.4375 98.546875 91.867188 L 99.941406 93.148438 C 100.871094 94.074219 101.335938 94.855469 101.335938 95.5 C 101.40625 96.351562 101.871094 96.746094 102.730469 96.671875 C 103.589844 96.671875 103.980469 96.101562 103.910156 94.964844 M 99.511719 81.398438 C 98.867188 81.113281 98.367188 81.328125 98.007812 82.039062 C 97.578125 82.75 97.867188 83.425781 98.867188 84.066406 L 102.945312 86.953125 L 106.269531 90.691406 C 107.484375 92.117188 108.164062 92.472656 108.308594 91.757812 L 107.34375 88.769531 L 104.769531 85.136719 C 103.125 83.355469 101.371094 82.109375 99.511719 81.398438 M 32.566406 129.46875 C 32.921875 129.964844 33.53125 130.109375 34.390625 129.894531 L 36.214844 129.253906 L 38.144531 129.789062 L 40.289062 129.574219 C 41.078125 128.933594 41.042969 128.113281 40.183594 127.117188 C 39.253906 126.121094 37.929688 125.621094 36.214844 125.621094 C 34.996094 125.621094 33.960938 126.121094 33.101562 127.117188 C 32.316406 128.042969 32.136719 128.828125 32.566406 129.46875 M 25.808594 124.125 C 25.949219 124.839844 26.378906 125.085938 27.09375 124.875 L 30.632812 121.988281 C 33.496094 120.28125 36.140625 119.816406 38.574219 120.601562 L 47.050781 124.554688 C 49.980469 126.191406 51.804688 126.902344 52.519531 126.691406 C 54.164062 126.191406 52.949219 123.949219 48.871094 119.960938 C 44.796875 115.972656 40.503906 114.511719 36 115.582031 C 31.421875 116.648438 28.273438 118.644531 26.558594 121.5625 C 25.914062 122.558594 25.664062 123.414062 25.808594 124.125 M 45.761719 73.921875 C 46.121094 72.566406 45.976562 71.785156 45.332031 71.570312 C 44.617188 71.425781 43.9375 71.996094 43.292969 73.277344 L 38.574219 81.609375 L 33.210938 88.339844 L 29.5625 92.398438 L 28.917969 94.109375 C 28.847656 94.75 28.953125 95.320312 29.238281 95.820312 L 33.746094 103.082031 C 34.53125 104.078125 35.605469 104.542969 36.964844 104.472656 L 38.789062 104.042969 C 39.359375 103.972656 39.753906 103.722656 39.96875 103.296875 C 40.183594 102.867188 40.113281 102.371094 39.753906 101.800781 L 36 96.351562 C 35.210938 95.214844 35.210938 94.003906 36 92.722656 L 40.933594 84.496094 C 42.792969 81.148438 44.402344 77.625 45.761719 73.921875 M 26.558594 69.859375 L 26.449219 68.257812 C 26.019531 67.6875 25.199219 68.046875 23.984375 69.328125 C 21.550781 71.820312 19.121094 73.457031 16.6875 74.242188 L 14.757812 74.667969 C 14.328125 74.738281 14.148438 75.09375 14.21875 75.734375 L 15.078125 76.910156 C 15.863281 77.695312 16.6875 78.15625 17.546875 78.300781 C 17.546875 80.082031 17.867188 81.574219 18.511719 82.785156 C 19.15625 83.996094 19.941406 84.636719 20.871094 84.710938 C 22.875 84.78125 24.054688 82.644531 24.410156 78.300781 C 24.554688 76.660156 24.339844 75.167969 23.769531 73.8125 L 25.808594 71.675781 L 26.558594 69.859375 M 68.933594 82.679688 L 68.933594 80.863281 C 70.652344 81.148438 72.296875 80.792969 73.871094 79.796875 L 75.695312 78.191406 C 75.621094 77.480469 75.085938 77.019531 74.085938 76.804688 L 71.082031 76.484375 C 70.007812 76.414062 68.613281 75.949219 66.898438 75.09375 C 65.035156 74.097656 63.320312 72.886719 61.746094 71.464844 C 60.316406 70.253906 59.421875 70.074219 59.066406 70.929688 L 58.957031 72.53125 L 59.816406 74.027344 L 62.496094 77.230469 C 61.710938 78.65625 61.246094 80.257812 61.101562 82.039062 C 60.960938 84.105469 61.210938 85.847656 61.855469 87.273438 C 62.496094 88.769531 63.355469 89.550781 64.429688 89.621094 C 65.503906 89.765625 66.46875 89.160156 67.324219 87.808594 C 68.253906 86.382812 68.792969 84.671875 68.933594 82.679688 M 64.859375 50.632812 C 64.359375 50.277344 63.140625 50.632812 61.210938 51.703125 C 59.28125 52.769531 58.457031 53.554688 58.742188 54.050781 L 61.425781 54.585938 C 63.429688 54.941406 65 55.476562 66.144531 56.1875 C 67.21875 56.757812 68.433594 57.863281 69.792969 59.5 C 71.007812 60.851562 71.796875 61.527344 72.152344 61.527344 C 72.726562 59.75 71.6875 57.398438 69.042969 54.480469 L 64.859375 50.632812 M 24.949219 53.195312 L 21.730469 56.292969 C 19.65625 58.644531 18.867188 60.710938 19.371094 62.492188 L 21.195312 60.886719 L 23.984375 58.324219 L 27.738281 57.578125 L 29.882812 57.363281 C 30.097656 56.9375 29.417969 56.082031 27.84375 54.800781 C 26.273438 53.445312 25.304688 52.910156 24.949219 53.195312 M 4.242188 54.691406 C 3.886719 51.773438 4.207031 49.492188 5.207031 47.855469 C 6.210938 46.148438 7.425781 46.003906 8.855469 47.429688 C 10.359375 48.925781 12.003906 49.957031 13.789062 50.527344 L 7.140625 62.0625 C 5.421875 58.859375 4.457031 56.402344 4.242188 54.691406 M 90.5 42.621094 L 100.046875 41.125 C 103.980469 40.769531 106.699219 42.835938 108.203125 47.320312 C 109.703125 52.023438 107.414062 55.902344 101.335938 58.964844 C 101.050781 58.964844 100.726562 59.25 100.371094 59.820312 C 99.867188 60.53125 100.082031 61.171875 101.011719 61.742188 C 105.375 64.589844 108.628906 67.15625 110.777344 69.433594 C 116.210938 74.988281 118.714844 81.113281 118.285156 87.808594 C 116.355469 82.535156 113.746094 77.765625 110.453125 73.492188 C 106.449219 68.792969 103.660156 66.15625 102.085938 65.589844 C 101.15625 65.160156 100.476562 65.269531 100.046875 65.910156 C 99.617188 66.476562 99.796875 67.011719 100.585938 67.511719 L 103.160156 69.859375 L 108.414062 75.203125 C 111.632812 78.476562 114.710938 83.464844 117.640625 90.15625 L 116.785156 92.1875 C 114.566406 86.84375 111.921875 82.574219 108.84375 79.367188 C 106.269531 76.589844 103.980469 74.773438 101.980469 73.921875 C 101.191406 73.5625 100.691406 73.847656 100.476562 74.773438 C 100.261719 75.628906 100.691406 76.414062 101.765625 77.125 L 106.914062 81.289062 L 112.171875 88.339844 L 115.925781 94.324219 L 115.605469 95.175781 L 113.78125 95.605469 C 112.707031 96.101562 112.5625 96.957031 113.351562 98.167969 C 118.5 102.441406 119.464844 107.496094 116.246094 113.335938 C 113.101562 119.175781 108.273438 121.5625 101.765625 120.496094 C 94.898438 131.605469 86.636719 140.007812 76.980469 145.703125 C 74.40625 147.128906 74.621094 147.804688 77.625 147.734375 C 80.628906 147.589844 83.953125 146.378906 87.601562 144.101562 C 86.53125 150.652344 81.164062 155.957031 71.511719 160.019531 C 62.210938 164.007812 55.347656 164.363281 50.910156 161.085938 L 57.992188 160.125 C 61.640625 159.269531 63.355469 158.523438 63.140625 157.882812 L 56.382812 158.09375 C 50.304688 157.953125 43.507812 156.03125 36 152.328125 C 23.125 145.988281 13.863281 135.449219 8.210938 120.707031 C 2.777344 106.679688 1.882812 92.398438 5.53125 77.871094 C 7.746094 68.828125 11.859375 59.820312 17.867188 50.847656 C 20.515625 50.5625 23.375 49.28125 26.449219 47 L 32.136719 40.59375 C 35.570312 36.605469 37.859375 34.324219 39.003906 33.753906 C 40.363281 33.113281 42.257812 33.328125 44.6875 34.394531 L 48.335938 36.320312 C 50.410156 37.316406 52.628906 37.601562 54.988281 37.171875 C 56.703125 36.890625 58.921875 36.070312 61.640625 34.71875 L 70.652344 34.394531 C 74.15625 35.605469 77.265625 37.921875 79.984375 41.339844 C 82.132812 43.902344 85.636719 44.332031 90.5 42.621094 M 104.660156 19.121094 C 108.308594 24.320312 110.3125 26.988281 110.667969 27.132812 C 113.386719 28.414062 116.175781 31.296875 119.035156 35.785156 C 121.109375 39.0625 122.828125 42.480469 124.1875 46.039062 C 126.691406 52.378906 126.867188 60.601562 124.722656 70.714844 C 123.578125 75.699219 122.21875 80.082031 120.644531 83.855469 C 119.574219 77.730469 117 72.496094 112.921875 68.152344 L 104.875 60.996094 C 107.234375 59.429688 109.273438 57.683594 110.992188 55.761719 C 113.28125 53.125 114.316406 50.8125 114.101562 48.816406 C 113.816406 45.613281 112.777344 42.976562 110.992188 40.914062 C 108.558594 37.921875 105.019531 36.640625 100.371094 37.066406 L 92.324219 39.628906 C 88.890625 40.914062 86.636719 41.410156 85.5625 41.125 L 77.839844 32.582031 C 73.40625 27.667969 69.863281 25.742188 67.21875 26.8125 L 59.816406 30.871094 L 54.453125 33.753906 L 50.589844 34.074219 L 47.691406 32.472656 L 43.078125 30.335938 C 41.433594 29.980469 39.433594 30.410156 37.070312 31.617188 C 35.640625 32.332031 33.171875 34.679688 29.667969 38.667969 L 24.199219 44.757812 C 21.835938 46.609375 19.476562 47.714844 17.117188 48.070312 C 14.46875 48.425781 12.289062 47.714844 10.574219 45.933594 C 8.070312 43.296875 6.425781 39.914062 5.636719 35.785156 C 4.851562 31.796875 5.101562 28.308594 6.386719 25.316406 C 7.460938 22.894531 8.925781 20.867188 10.785156 19.226562 C 10.359375 21.863281 11 23.929688 12.71875 25.421875 C 15.007812 27.417969 17.726562 28.308594 20.871094 28.09375 C 23.945312 27.808594 26.628906 26.492188 28.917969 24.140625 C 35.5 17.089844 40.113281 13.316406 42.757812 12.820312 C 44.832031 12.390625 47.65625 12.855469 51.234375 14.207031 L 57.457031 13.992188 L 61.425781 8.972656 C 65.429688 3.347656 68.292969 0.464844 70.007812 0.320312 C 72.152344 0.105469 74.871094 1.246094 78.160156 3.738281 L 80.949219 6.089844 C 82.09375 7.015625 83.167969 7.691406 84.167969 8.117188 C 88.101562 9.613281 91.214844 10.574219 93.503906 11.003906 C 97.652344 11.714844 101.371094 14.421875 104.660156 19.121094 "/>
</g>
</svg>
