<?xml version="1.0" encoding="UTF-8"?>
<svg xmlns="http://www.w3.org/2000/svg" xmlns:xlink="http://www.w3.org/1999/xlink" width="128pt" height="201pt" viewBox="0 0 128 201" version="1.1">
<g id="surface1">
<path style=" stroke:none;fill-rule:nonzero;fill:rgb(100%,100%,100%);fill-opacity:1;" d="M 93.6875 1.714844 C 97.324219 3.101562 100.535156 5.894531 103.316406 10.097656 C 105.277344 13.117188 107.117188 17.035156 108.835938 21.851562 C 112.394531 32.09375 113.539062 42.679688 112.269531 53.617188 C 111.78125 57.453125 110.65625 61.164062 108.898438 64.753906 C 107.179688 68.140625 104.992188 71.34375 102.335938 74.363281 C 99.226562 77.957031 95.445312 81.179688 90.988281 84.035156 L 89.820312 84.769531 L 89.699219 84.832031 C 87.125 84.464844 84.546875 83.75 81.972656 82.6875 C 79.722656 81.792969 77.902344 80.527344 76.511719 78.894531 C 75.246094 77.425781 74.179688 75.425781 73.324219 72.894531 C 72.710938 71.101562 72.300781 69.101562 72.097656 66.898438 L 72.097656 66.46875 C 75.570312 65.285156 78.414062 63.101562 80.621094 59.921875 L 81.542969 58.328125 C 83.136719 55.433594 83.648438 51.78125 83.074219 47.375 C 82.746094 44.558594 81.847656 40.90625 80.375 36.417969 L 78.78125 32.683594 C 77.882812 31.132812 76.878906 30.335938 75.777344 30.296875 C 75.367188 30.257812 75.121094 30.441406 75.039062 30.847656 L 74.855469 31.582031 L 67.925781 29.808594 C 71.15625 26.910156 74.179688 23.726562 77.003906 20.257812 C 79.824219 16.914062 81.890625 13.953125 83.199219 11.382812 C 85.078125 7.671875 85.792969 4.222656 85.34375 1.039062 L 85.28125 0.917969 C 88.023438 0.304688 90.824219 0.570312 93.6875 1.714844 M 73.996094 19.339844 C 70.972656 22.890625 67.90625 26.011719 64.796875 28.707031 L 64.367188 28.460938 C 64.039062 28.050781 63.671875 27.847656 63.265625 27.847656 L 63.203125 27.847656 L 61.546875 27.113281 L 60.320312 26.929688 L 77.0625 9.121094 C 77.308594 8.875 77.390625 8.570312 77.308594 8.203125 L 79.089844 5.570312 L 79.640625 5.140625 C 80.375 3.714844 81.5 2.589844 83.015625 1.773438 C 83.054688 4.671875 82.074219 7.835938 80.070312 11.261719 C 78.761719 13.464844 76.738281 16.160156 73.996094 19.339844 M 77.617188 36.296875 C 79.703125 41.84375 80.664062 46.679688 80.5 50.800781 C 76.328125 50.515625 71.914062 49.230469 67.25 46.945312 C 65.941406 46.292969 65.1875 44.660156 64.980469 42.046875 C 64.980469 39.109375 64.859375 37.152344 64.613281 36.171875 C 64.285156 34.703125 63.632812 33.480469 62.652344 32.5 C 61.667969 31.519531 60.523438 30.929688 59.214844 30.726562 C 59.828125 29.625 60.8125 29.316406 62.160156 29.808594 L 65.347656 31.398438 C 66.820312 32.09375 68.703125 32.726562 70.992188 33.296875 L 76.878906 34.582031 L 77.617188 36.296875 M 63.570312 45.78125 C 64.183594 47.046875 65.125 48.085938 66.390625 48.902344 L 70.316406 50.679688 C 74.078125 52.105469 77.390625 52.984375 80.253906 53.308594 L 79.273438 56.554688 L 79.148438 56.738281 L 69.703125 54.042969 C 69.5 53.148438 68.925781 52.207031 67.988281 51.230469 L 65.535156 49.332031 L 62.652344 49.148438 C 61.667969 49.394531 60.789062 49.882812 60.011719 50.617188 C 56.007812 49.84375 53.757812 47.433594 53.265625 43.394531 C 52.777344 39.4375 54.0625 36.152344 57.128906 33.539062 L 57.5 33.539062 C 60.195312 32.644531 61.832031 33.949219 62.40625 37.457031 L 62.773438 42.046875 C 62.9375 43.84375 63.203125 45.089844 63.570312 45.78125 M 63.449219 51.839844 C 64.0625 51.554688 64.878906 51.65625 65.902344 52.148438 C 66.882812 52.636719 67.375 53.1875 67.375 53.800781 L 67.25 54.351562 L 65.71875 59.613281 C 62.9375 69.898438 60.953125 77.628906 59.769531 82.8125 C 57.273438 93.421875 56.210938 102.113281 56.578125 108.886719 C 56.742188 112.3125 57.476562 116.046875 58.785156 120.085938 L 60.441406 125.71875 C 60.851562 127.675781 60.871094 129.613281 60.503906 131.53125 C 60.382812 132.183594 60.730469 132.753906 61.546875 133.246094 C 62.324219 133.695312 62.792969 133.53125 62.957031 132.753906 C 63.40625 130.265625 63.347656 127.777344 62.773438 125.289062 L 63.140625 125.105469 C 65.800781 122.941406 67.925781 120.984375 69.519531 119.230469 C 71.726562 116.820312 73.324219 114.433594 74.304688 112.066406 C 75.695312 108.679688 76.675781 104.621094 77.25 99.886719 L 81.972656 100.253906 L 82.460938 100.132812 C 81.726562 104.5 80.867188 108.152344 79.886719 111.089844 C 78.578125 114.925781 76.859375 118.1875 74.734375 120.882812 L 67.988281 128.839844 C 65.492188 132.019531 63.796875 135.039062 62.894531 137.898438 C 61.261719 143.242188 58.480469 153.117188 54.554688 167.519531 L 45.476562 200.511719 C 45.4375 200.714844 44.78125 200.855469 43.515625 200.9375 L 41.121094 201 C 40.589844 200.917969 39.875 200.550781 38.976562 199.898438 L 38.667969 199.59375 C 40.101562 193.429688 42 186.390625 44.371094 178.476562 C 46.664062 170.847656 49.09375 162.011719 51.671875 151.972656 L 54.371094 141.078125 C 55.351562 136.835938 55.984375 133.183594 56.273438 130.125 C 56.355469 128.734375 55.984375 127.0625 55.167969 125.105469 C 53.53125 121.066406 52.46875 118.003906 51.976562 115.925781 L 51.609375 113.964844 C 51.773438 113.679688 51.734375 113.292969 51.488281 112.800781 C 50.875 108.355469 51.015625 103.234375 51.917969 97.441406 L 55.105469 82.261719 L 55.046875 81.710938 C 60.117188 78.773438 62.570312 74.792969 62.40625 69.773438 C 62.363281 66.878906 61.484375 64.019531 59.769531 61.207031 L 60.011719 60.777344 L 61.851562 52.941406 L 63.449219 51.839844 M 116.933594 52.882812 L 117.359375 54.289062 L 116.746094 54.902344 L 114.476562 56.738281 C 114.96875 54.535156 115.316406 51.945312 115.519531 48.964844 L 116.933594 52.882812 M 113.679688 60.65625 L 118.21875 57.535156 C 119.28125 62.144531 119.816406 67.570312 119.816406 73.8125 L 119.753906 76.570312 C 116.238281 80.527344 111.675781 83.953125 106.074219 86.851562 C 101.210938 89.339844 95.792969 91.277344 89.820312 92.664062 L 91.171875 87.707031 L 93.808594 86.179688 L 96.015625 84.402344 C 100.71875 80.894531 104.808594 76.628906 108.285156 71.609375 L 110.859375 67.082031 C 111.921875 65.042969 112.78125 62.941406 113.4375 60.777344 L 113.679688 60.65625 M 125.640625 115.066406 C 124.25 122.535156 121.0625 129.164062 116.074219 134.957031 L 110.796875 136.980469 L 111.71875 132.265625 L 111.71875 132.203125 C 117.894531 126.574219 121.101562 121.042969 121.347656 115.617188 L 124.84375 112.128906 L 125.640625 115.066406 M 117.484375 99.09375 C 116.214844 105.949219 114.601562 112.457031 112.636719 118.617188 C 111.535156 122.207031 110.53125 126.0625 109.632812 130.183594 L 109.511719 130.917969 L 108.285156 137.835938 L 108.222656 138.265625 C 107.488281 143.855469 107.117188 149.054688 107.117188 153.871094 C 106.914062 154.199219 106.914062 154.625 107.117188 155.15625 L 107.300781 162.257812 C 107.546875 165.601562 107.976562 169.007812 108.589844 172.476562 C 108.835938 174.070312 109.140625 175.578125 109.511719 177.007812 L 110 178.597656 L 110.429688 180.25 C 109.367188 181.148438 107.507812 181.761719 104.847656 182.085938 L 98.960938 182.453125 L 90.742188 181.964844 C 87.757812 181.3125 85.203125 180.273438 83.074219 178.84375 C 79.84375 170.722656 77.433594 162.277344 75.835938 153.503906 C 74.203125 144.609375 73.527344 135.878906 73.8125 127.308594 L 73.628906 126.695312 L 78.167969 121.25 C 79.722656 119.128906 80.804688 117.066406 81.417969 115.066406 C 83.175781 109.4375 84.464844 104.070312 85.28125 98.96875 C 86.386719 98.234375 87.390625 97.152344 88.289062 95.726562 L 88.59375 95.726562 C 94.484375 94.542969 99.984375 92.808594 105.09375 90.523438 C 110.902344 87.871094 115.746094 84.667969 119.628906 80.914062 C 119.34375 86.136719 118.710938 91.6875 117.730469 97.5625 C 117.28125 97.765625 117.199219 98.277344 117.484375 99.09375 M 122.574219 106.375 L 123.617188 108.703125 C 122.1875 111.433594 119.734375 113.578125 116.257812 115.128906 C 117.769531 109.824219 118.875 105.273438 119.570312 101.480469 C 120.589844 102.664062 121.59375 104.292969 122.574219 106.375 M 69.457031 56.433594 L 77.738281 58.757812 C 75.734375 61.246094 73.179688 62.917969 70.070312 63.777344 C 69.746094 63.859375 69.582031 64.0625 69.582031 64.386719 L 69.335938 64.878906 L 69.457031 67.328125 C 68.230469 67.328125 67.167969 67.550781 66.269531 68 L 69.457031 56.433594 M 64.675781 73.9375 L 65.105469 73.507812 C 65.429688 72.449219 66.023438 71.589844 66.882812 70.9375 C 67.699219 70.367188 68.660156 70.039062 69.765625 69.957031 C 70.707031 75.140625 72.628906 79.078125 75.53125 81.769531 C 78.761719 84.667969 83.074219 86.605469 88.472656 87.585938 C 87.492188 92.113281 85.816406 95.132812 83.441406 96.644531 L 83.074219 96.890625 L 80.746094 97.683594 L 76.757812 97.257812 L 79.148438 93.15625 C 79.394531 92.542969 79.148438 91.929688 78.414062 91.320312 L 76.820312 91.378906 C 74.691406 96.234375 72.117188 98.398438 69.089844 97.867188 L 67.066406 97.074219 C 68.988281 95.890625 70.542969 94.09375 71.726562 91.6875 C 72.015625 91.074219 71.789062 90.460938 71.054688 89.851562 L 69.457031 89.910156 C 67.742188 93.378906 65.472656 95.359375 62.652344 95.847656 C 61.957031 96.011719 61.078125 96.011719 60.011719 95.847656 L 59.769531 95.726562 L 60.503906 91.378906 C 62.753906 89.421875 64.347656 87.769531 65.289062 86.421875 C 66.84375 84.179688 67.3125 82.015625 66.699219 79.933594 C 66.332031 78.589844 65.429688 77.445312 64 76.507812 L 64.183594 76.019531 L 64.675781 73.9375 M 64.921875 98.113281 C 66.351562 99.335938 67.964844 100.132812 69.765625 100.5 C 71.523438 100.785156 73.179688 100.355469 74.734375 99.214844 C 74.203125 103.132812 73.40625 106.539062 72.339844 109.4375 C 71.523438 111.800781 70.09375 114.167969 68.046875 116.535156 L 61.914062 122.289062 L 61.851562 122.105469 C 60.054688 116.800781 59.09375 111.945312 58.96875 107.539062 C 58.847656 104.683594 58.992188 101.539062 59.398438 98.113281 C 61.28125 98.683594 63.121094 98.683594 64.921875 98.113281 M 61.609375 86.179688 L 63.449219 78.710938 C 65.371094 80.097656 64.757812 82.585938 61.609375 86.179688 M 64.980469 140.34375 C 66.003906 136.875 68.109375 133.226562 71.300781 129.390625 C 71.300781 134 71.503906 138.40625 71.914062 142.609375 L 64.429688 142.179688 L 64.980469 140.34375 M 127.480469 126.636719 L 127.296875 126.820312 L 122.328125 131.164062 C 124.210938 128.144531 125.722656 124.859375 126.867188 121.308594 L 127.480469 126.636719 M 115.335938 118.371094 L 115.644531 118.371094 L 118.402344 117.269531 C 117.585938 120.453125 115.785156 123.59375 113.007812 126.695312 L 115.335938 118.371094 M 117.914062 137.285156 C 121.59375 135.53125 124.863281 133.265625 127.726562 130.492188 L 127.972656 136.550781 L 127.789062 136.671875 C 122.226562 141.40625 116.214844 144.28125 109.753906 145.300781 L 110.367188 139.976562 C 112.496094 139.488281 114.601562 138.773438 116.6875 137.835938 L 117.605469 137.652344 L 117.914062 137.285156 M 109.511719 148.117188 C 116.054688 147.261719 122.125 144.710938 127.726562 140.46875 C 127.15625 145.242188 125.621094 148.792969 123.125 151.117188 C 121.65625 152.546875 119.507812 153.605469 116.6875 154.300781 C 113.785156 154.992188 111.308594 154.992188 109.265625 154.300781 L 109.511719 148.117188 M 110.125 183.433594 C 109.796875 185.800781 109 187.332031 107.730469 188.023438 C 104.746094 189.738281 102.273438 190.492188 100.308594 190.289062 L 99.820312 188.636719 C 99.738281 188.269531 99.492188 187.941406 99.082031 187.65625 L 97.980469 187.414062 C 89.84375 190.554688 82.503906 192.390625 75.960938 192.921875 L 70.316406 192.675781 C 67.863281 192.144531 67.128906 191.003906 68.109375 189.25 C 69.214844 187.289062 71.339844 185.554688 74.488281 184.046875 C 76.042969 183.269531 78.679688 182.25 82.402344 180.984375 C 86.40625 183.597656 91.375 184.964844 97.304688 185.085938 C 101.394531 185.289062 105.542969 184.761719 109.753906 183.496094 L 110.125 183.433594 M 47.195312 8.753906 C 41.265625 19.523438 36.050781 29.746094 31.554688 39.417969 C 27.628906 47.78125 25.050781 54.371094 23.824219 59.1875 C 22.640625 63.960938 22.027344 68.019531 21.984375 71.367188 C 21.945312 76.097656 22.96875 79.976562 25.050781 82.996094 C 21.453125 82.503906 17.898438 81.609375 14.378906 80.300781 C 13.152344 73 14.011719 64.753906 16.957031 55.574219 C 19 49.210938 22.433594 41.578125 27.261719 32.683594 C 32.535156 22.851562 38.238281 13.976562 44.371094 6.058594 L 46.582031 7.285156 L 47.195312 8.753906 M 41.917969 4.46875 C 36.808594 11.160156 31.777344 18.832031 26.832031 27.480469 L 24.808594 26.257812 C 25.585938 21.15625 27.160156 16.605469 29.53125 12.609375 C 32.308594 7.914062 35.804688 4.710938 40.019531 3 L 41.917969 4.46875 M 49.035156 11.382812 C 51.121094 13.585938 53.980469 14.953125 57.621094 15.484375 C 61.179688 15.933594 64.714844 15.527344 68.230469 14.261719 L 50.75 32.804688 L 50.566406 22.035156 C 50.609375 20.769531 50.199219 19.648438 49.339844 18.667969 L 46.886719 15.546875 L 46.828125 15.425781 L 49.035156 11.382812 M 48.113281 20.257812 C 47.992188 24.542969 48.074219 29.359375 48.359375 34.703125 L 48.542969 35.195312 L 42.59375 41.496094 C 41 38.355469 39.140625 36.03125 37.011719 34.519531 L 45.660156 17.503906 L 48.113281 20.257812 M 25.480469 29.132812 L 25.851562 29.378906 L 21.984375 36.539062 C 19.777344 35.152344 16.300781 34.582031 11.558594 34.824219 L 15.789062 29.683594 C 17.34375 27.972656 19.898438 27.441406 23.457031 28.09375 L 25.480469 29.132812 M 21.003906 38.5 L 18 44.984375 L 17.386719 44.984375 C 14.113281 46.046875 11.007812 47.660156 8.0625 49.820312 C 5.199219 51.984375 2.746094 54.492188 0.703125 57.351562 C 2.09375 50.984375 5.097656 44.375 9.71875 37.519531 L 10.269531 37.582031 L 15.667969 37.335938 C 17.957031 37.375 19.738281 37.765625 21.003906 38.5 M 28.671875 54.289062 C 31.574219 51.882812 35.296875 49.71875 39.835938 47.800781 C 45.3125 50.414062 49.730469 53.269531 53.082031 56.371094 C 50.054688 55.757812 46.929688 56.289062 43.699219 57.960938 C 40.632812 59.511719 37.933594 61.777344 35.601562 64.753906 C 33.269531 67.734375 31.757812 70.855469 31.0625 74.121094 C 30.285156 77.671875 30.613281 80.8125 32.042969 83.546875 L 27.875 83.363281 C 25.257812 80.425781 24.089844 76.261719 24.378906 70.875 C 24.582031 67.246094 25.480469 62.816406 27.078125 57.59375 L 28.121094 54.472656 C 28.363281 54.472656 28.546875 54.410156 28.671875 54.289062 M 31.859375 45.355469 L 31.984375 45.355469 L 36.277344 46.273438 C 34.109375 47.25 32.003906 48.394531 29.960938 49.699219 L 31.859375 45.355469 M 39.097656 45.046875 C 37.257812 44.066406 35.214844 43.375 32.964844 42.964844 L 36.03125 36.480469 C 37.75 37.621094 39.425781 39.824219 41.0625 43.089844 L 39.34375 44.925781 L 39.097656 45.046875 M 52.589844 47.925781 C 54.1875 50.453125 56.375 52.105469 59.15625 52.882812 L 57.804688 58.453125 C 56.007812 56.125 53.472656 53.757812 50.199219 51.351562 L 52.589844 47.925781 M 47.808594 49.761719 L 41.980469 46.394531 L 51.488281 36.296875 C 50.34375 39.027344 50.242188 41.886719 51.179688 44.863281 L 51.121094 44.925781 L 47.808594 49.761719 M 16.648438 48.292969 C 15.015625 52.496094 13.789062 56.371094 12.96875 59.921875 L 12.292969 60.042969 C 9.839844 61.550781 7.796875 63.328125 6.160156 65.367188 C 4.28125 67.652344 3.15625 70.058594 2.789062 72.589844 C 1.070312 70.183594 0.152344 67.40625 0.0273438 64.265625 C 1.621094 60.757812 3.890625 57.59375 6.835938 54.777344 C 9.738281 51.964844 13.011719 49.800781 16.648438 48.292969 M 56.578125 60.226562 C 58.582031 62.917969 59.707031 65.675781 59.953125 68.488281 C 60.277344 72.160156 59.03125 75.222656 56.210938 77.671875 C 53.878906 79.710938 50.546875 81.21875 46.214844 82.199219 C 43.0625 80.199219 40.898438 77.609375 39.710938 74.425781 C 38.445312 71.121094 38.527344 67.796875 39.957031 64.449219 L 40.632812 63.714844 C 42.839844 61.632812 45.355469 60.1875 48.175781 59.371094 C 51.445312 58.390625 54.246094 58.675781 56.578125 60.226562 M 34.4375 83.546875 C 33.167969 81.628906 32.800781 79.28125 33.332031 76.507812 C 33.742188 74.140625 34.742188 71.691406 36.339844 69.164062 C 36.378906 71.734375 37.03125 74.222656 38.300781 76.628906 C 39.527344 78.914062 41.222656 80.953125 43.390625 82.75 L 34.4375 83.546875 M 11.867188 79.261719 L 8.183594 77.363281 L 5.058594 75.160156 C 5.097656 71 7.46875 67.164062 12.171875 63.652344 C 11.191406 69.121094 11.089844 74.324219 11.867188 79.261719 M 52.652344 124.738281 C 53.265625 126.246094 53.574219 127.757812 53.574219 129.265625 C 53.613281 130.449219 53.429688 131.960938 53.019531 133.796875 C 51.34375 131.429688 50.261719 128.839844 49.769531 126.023438 C 49.238281 123.207031 49.363281 120.414062 50.136719 117.636719 L 52.652344 124.738281 "/>
</g>
</svg>
