<?xml version="1.0" encoding="UTF-8"?>
<svg xmlns="http://www.w3.org/2000/svg" xmlns:xlink="http://www.w3.org/1999/xlink" width="128pt" height="201pt" viewBox="0 0 128 201" version="1.1">
<g id="surface1">
<path style=" stroke:none;fill-rule:nonzero;fill:rgb(100%,100%,100%);fill-opacity:1;" d="M 88.59375 6.441406 C 89.039062 4.664062 89.320312 2.945312 89.441406 1.285156 C 90.738281 1.8125 92.984375 2.984375 96.183594 4.804688 C 99.097656 6.5 102.214844 9.472656 105.535156 13.71875 C 108.527344 17.519531 111.242188 21.964844 113.667969 27.058594 L 100.433594 27.546875 C 95.535156 28.71875 91.933594 30.980469 89.625 34.335938 C 89.097656 31.265625 88.875 27.261719 88.957031 22.328125 L 89.078125 10.261719 C 89.078125 8.484375 88.914062 7.210938 88.59375 6.441406 M 86.710938 13.65625 L 86.648438 25.605469 C 86.730469 30.171875 87.15625 34.15625 87.925781 37.550781 C 88.652344 40.746094 89.726562 44.527344 91.140625 48.890625 L 94.847656 60.050781 C 96.261719 64.496094 97.152344 67.632812 97.519531 69.449219 C 98.246094 73.167969 98.246094 76.382812 97.519531 79.09375 C 91.445312 80.75 85.535156 81.863281 79.789062 82.429688 C 83.1875 77.859375 84.058594 70.722656 82.398438 61.019531 C 81.0625 53.21875 80.476562 46.445312 80.636719 40.703125 C 80.71875 38.078125 81.082031 34.378906 81.730469 29.605469 L 82.945312 18.449219 C 84.402344 16.265625 85.65625 14 86.710938 11.65625 L 86.710938 13.65625 M 82.460938 3.589844 C 82.582031 3.265625 82.519531 2.945312 82.277344 2.621094 L 83.003906 0.0742188 L 83.066406 0.132812 L 86.953125 0.4375 C 86.507812 5.570312 84.503906 10.886719 80.941406 16.386719 L 80.578125 16.871094 C 76.367188 23.179688 69.363281 30.273438 59.566406 38.15625 C 58.71875 36.054688 57.90625 33.792969 57.136719 31.367188 C 63.574219 25.90625 68.917969 21.015625 73.167969 16.691406 L 78.574219 10.625 C 80.476562 8.199219 81.769531 5.855469 82.460938 3.589844 M 29.265625 22.996094 L 27.203125 21.542969 C 28.214844 16.972656 29.8125 13.011719 32 9.65625 C 34.710938 5.492188 37.949219 2.84375 41.714844 1.710938 L 44.265625 3.710938 C 39.449219 8.96875 34.449219 15.394531 29.265625 22.996094 M 28.113281 24.753906 L 23.800781 31.546875 C 21.65625 30.011719 18.296875 29.203125 13.722656 29.121094 L 17.367188 25 C 19.351562 22.894531 22.144531 22.308594 25.746094 23.238281 L 27.808594 24.453125 L 28.113281 24.753906 M 47.363281 15.902344 L 50.335938 11.171875 C 51.226562 17.800781 52.585938 24.128906 54.40625 30.152344 L 54.710938 31.125 C 57.21875 39.085938 60.539062 46.324219 64.667969 52.832031 C 62.078125 54.207031 59.910156 55.523438 58.171875 56.777344 L 57.5625 55.683594 L 57.136719 55.320312 L 55.863281 53.683594 L 52.585938 46.527344 L 52.339844 45.800781 C 49.425781 37.753906 47.789062 27.828125 47.421875 16.023438 L 47.363281 15.902344 M 49.792969 6.804688 C 43.800781 16.023438 38.050781 25.605469 32.546875 35.550781 L 27.808594 44.648438 C 26.109375 48.082031 24.816406 51.238281 23.925781 54.105469 C 22.425781 58.917969 21.554688 62.878906 21.3125 65.992188 C 20.910156 70.601562 21.636719 74.484375 23.5 77.636719 L 22.222656 77.335938 C 19.027344 76.566406 16.03125 75.59375 13.238281 74.421875 C 12.46875 67.226562 13.761719 59.34375 17.125 50.773438 C 19.550781 44.585938 23.355469 37.449219 28.539062 29.363281 C 34.207031 20.347656 40.277344 12.324219 46.753906 5.289062 L 49.792969 6.804688 M 52.707031 10.746094 C 54.890625 12.890625 57.785156 14.082031 61.390625 14.324219 C 65.84375 14.648438 70.113281 13.65625 74.199219 11.351562 L 70.4375 15.296875 C 66.996094 18.8125 62.238281 23.160156 56.167969 28.332031 C 54.546875 22.511719 53.394531 16.648438 52.707031 10.746094 M 50.703125 48.40625 L 50.945312 48.226562 L 51.25 48.953125 L 50.703125 48.40625 M 48.394531 46.527344 L 42.867188 42.707031 L 47.910156 38.824219 C 48.433594 41.007812 49.101562 43.210938 49.914062 45.433594 L 48.394531 46.527344 M 56.46875 58.050781 L 55.621094 58.714844 C 51.492188 62.070312 49.324219 65.570312 49.125 69.207031 C 48.960938 71.511719 49.691406 73.816406 51.308594 76.121094 C 49.367188 77.050781 47.078125 77.777344 44.449219 78.304688 C 41.492188 76.082031 39.53125 73.371094 38.558594 70.179688 C 37.546875 66.824219 37.871094 63.507812 39.53125 60.230469 L 40.320312 59.566406 C 42.546875 57.746094 44.996094 56.511719 47.667969 55.867188 C 50.824219 55.136719 53.496094 55.480469 55.679688 56.898438 L 56.46875 58.050781 M 60.722656 40.949219 C 69.222656 34.15625 75.679688 27.988281 80.089844 22.449219 L 79.121094 29.726562 L 78.332031 37.066406 C 78.128906 40.703125 78.109375 43.980469 78.269531 46.890625 C 73.816406 48.507812 69.890625 50.164062 66.488281 51.863281 C 64.425781 48.628906 62.503906 44.992188 60.722656 40.949219 M 38.617188 30.578125 L 45.175781 19.539062 C 45.5 25.441406 46.167969 30.820312 47.179688 35.671875 L 43.960938 38.277344 C 42.464844 34.722656 40.683594 32.152344 38.617188 30.578125 M 42.140625 39.554688 L 42.199219 39.613281 L 40.441406 40.949219 L 39.953125 41.070312 C 38.292969 39.976562 36.332031 39.167969 34.066406 38.644531 L 37.585938 32.398438 L 38.316406 33.125 C 39.894531 34.742188 41.167969 36.882812 42.140625 39.554688 M 29.144531 49.4375 C 32.222656 47.214844 36.027344 45.355469 40.5625 43.859375 C 45.296875 46.488281 49.367188 49.621094 52.765625 53.257812 C 50.460938 52.734375 47.949219 52.914062 45.238281 53.804688 C 42.847656 54.574219 40.5625 55.765625 38.375 57.382812 C 35.257812 59.726562 32.808594 62.921875 31.027344 66.964844 C 29.085938 71.453125 28.863281 75.375 30.359375 78.730469 L 26.292969 78.183594 C 22.246094 73.089844 22.648438 64.417969 27.507812 52.167969 L 28.601562 49.621094 L 29.144531 49.4375 M 30.726562 45.070312 L 32.851562 40.886719 C 34.226562 41.046875 35.683594 41.433594 37.222656 42.039062 C 35.035156 42.886719 32.871094 43.898438 30.726562 45.070312 M 37.039062 72.359375 C 38.132812 74.746094 39.710938 76.890625 41.777344 78.789062 C 39.144531 79.113281 36.167969 79.171875 32.851562 78.972656 C 31.714844 76.992188 31.492188 74.625 32.183594 71.875 C 32.75 69.570312 33.882812 67.207031 35.582031 64.78125 C 35.421875 67.328125 35.90625 69.855469 37.039062 72.359375 M 40.683594 81.640625 C 43.921875 83.621094 47.542969 85.097656 51.550781 86.066406 C 54.910156 86.914062 58.777344 87.480469 63.148438 87.765625 C 74.847656 88.453125 84.199219 87.015625 91.203125 83.460938 L 91.324219 83.398438 L 97.214844 82.0625 L 98.1875 81.761719 C 100.535156 87.503906 101.667969 96.394531 101.585938 108.445312 L 101.28125 116.753906 L 100.917969 119.421875 C 100.757812 120.632812 100.714844 121.5625 100.796875 122.210938 C 99.90625 123.746094 98.164062 125.0625 95.574219 126.152344 L 89.320312 128.152344 C 78.875 131.023438 71.226562 130.84375 66.367188 127.609375 C 64.75 118.792969 61.550781 112.144531 56.773438 107.65625 L 55.316406 107.714844 C 55.035156 108.363281 55.195312 108.96875 55.800781 109.535156 C 57.261719 110.949219 58.574219 112.6875 59.75 114.75 L 59.507812 115.480469 C 59.464844 118.390625 59.164062 121.765625 58.597656 125.605469 L 56.894531 135.613281 C 55.925781 141.109375 54.367188 148.976562 52.21875 159.203125 L 50.582031 166.480469 L 50.035156 168.722656 C 46.511719 171.394531 42.769531 172.949219 38.800781 173.394531 C 34.429688 173.839844 30.625 172.789062 27.386719 170.242188 C 26.414062 162.234375 25.847656 152.351562 25.683594 140.585938 C 25.5625 129.425781 26.050781 119.601562 27.140625 111.113281 C 28.476562 100.4375 30.804688 90.917969 34.125 82.550781 C 34.207031 82.183594 34.1875 81.902344 34.066406 81.699219 L 40.621094 81.640625 L 40.683594 81.640625 M 63.453125 64.355469 C 67.136719 65.609375 70.011719 68.035156 72.074219 71.632812 C 73.976562 74.949219 74.910156 78.6875 74.867188 82.851562 C 70.011719 83.054688 66.042969 82.691406 62.96875 81.761719 L 61.933594 81.398438 C 63.230469 78.730469 64 75.917969 64.242188 72.96875 C 64.527344 70.015625 64.261719 67.144531 63.453125 64.355469 M 59.019531 59.746094 L 60.234375 61.992188 C 60.234375 62.476562 60.4375 62.960938 60.84375 63.445312 C 61.773438 65.992188 62.117188 68.761719 61.875 71.753906 C 61.632812 74.542969 60.882812 77.234375 59.628906 79.820312 L 59.507812 80.367188 C 57.605469 79.355469 56.023438 78.242188 54.769531 77.03125 C 54.8125 76.625 54.648438 76.203125 54.285156 75.757812 C 53.960938 75.351562 53.617188 75.171875 53.253906 75.210938 C 51.835938 73.269531 51.308594 71.269531 51.671875 69.207031 C 52.117188 66.296875 54.464844 63.203125 58.71875 59.929688 L 59.019531 59.746094 M 68.734375 85.277344 L 64.789062 85.277344 C 56.570312 85.078125 49.769531 83.703125 44.386719 81.15625 C 47.667969 80.589844 50.601562 79.636719 53.191406 78.304688 C 55.742188 80.769531 58.796875 82.652344 62.359375 83.945312 C 64.261719 84.632812 66.386719 85.078125 68.734375 85.277344 M 60.660156 58.535156 C 64.628906 55.785156 70.578125 52.875 78.511719 49.800781 C 78.675781 51.863281 78.957031 54.1875 79.363281 56.777344 C 80.332031 63.082031 80.820312 67.289062 80.820312 69.390625 C 80.820312 74.402344 79.605469 78.324219 77.175781 81.15625 C 76.730469 76.503906 75.273438 72.460938 72.804688 69.027344 C 70.171875 65.265625 66.710938 62.800781 62.421875 61.628906 L 60.660156 58.535156 M 18.460938 39.554688 C 15.140625 40.363281 11.960938 41.757812 8.925781 43.738281 C 5.972656 45.636719 3.359375 47.960938 1.09375 50.710938 C 2.511719 46.0625 5.625 40.28125 10.445312 33.367188 L 11.78125 31.609375 L 12.144531 31.667969 C 15.585938 31.589844 18.5 31.910156 20.886719 32.640625 L 22.648438 33.425781 L 19.1875 39.613281 L 18.460938 39.554688 M 7.46875 48.40625 C 10.585938 45.820312 13.984375 43.917969 17.667969 42.707031 C 15.765625 46.546875 14.25 50.265625 13.117188 53.863281 L 12.691406 53.925781 C 10.140625 55.257812 7.953125 56.875 6.132812 58.777344 C 4.066406 60.917969 2.753906 63.222656 2.1875 65.691406 C 0.851562 63.507812 0.121094 61.140625 0 58.59375 L 0 57.503906 L 0.121094 57.382812 C 1.941406 53.984375 4.390625 50.996094 7.46875 48.40625 M 6.921875 62.292969 C 8.257812 60.515625 9.976562 58.957031 12.082031 57.625 C 10.746094 62.960938 10.28125 68.136719 10.6875 73.148438 C 8.097656 71.734375 5.992188 70.179688 4.371094 68.480469 C 4.574219 66.335938 5.425781 64.273438 6.921875 62.292969 M 62.601562 137.371094 C 65.800781 140.847656 69.484375 143.980469 73.65625 146.769531 C 70.171875 147.660156 66.894531 149.683594 63.816406 152.835938 C 63.046875 148.023438 62.644531 143.738281 62.601562 139.980469 L 62.601562 137.371094 M 65.578125 129.609375 C 68.332031 131.429688 71.976562 132.398438 76.507812 132.519531 L 76.570312 132.519531 C 88.46875 141.738281 99.84375 148.386719 110.695312 152.472656 L 111.058594 156.898438 L 111.058594 160.417969 C 111.019531 161.953125 111.078125 163.1875 111.242188 164.117188 C 107.558594 161.324219 103.003906 158.617188 97.578125 155.988281 L 82.945312 149.5625 C 79.179688 147.945312 75.558594 145.839844 72.074219 143.253906 C 68.636719 140.625 65.578125 137.714844 62.90625 134.519531 C 63.269531 132.015625 64.160156 130.378906 65.578125 129.609375 M 121.5625 37.792969 C 123.832031 41.472656 125.46875 45.011719 126.480469 48.40625 C 121.300781 45.738281 115.957031 43.9375 110.453125 43.007812 C 104.378906 42 98.753906 42.140625 93.570312 43.433594 C 96.769531 40.199219 101.140625 38.15625 106.6875 37.308594 L 121.320312 37.792969 L 121.5625 37.792969 M 124.175781 65.449219 C 119.601562 61.121094 115.046875 57.765625 110.511719 55.378906 C 104.683594 52.269531 99.277344 50.953125 94.300781 51.4375 L 92.722656 46.464844 L 93.023438 46.464844 C 98.328125 44.769531 104.15625 44.445312 110.511719 45.496094 C 116.300781 46.425781 121.847656 48.347656 127.148438 51.257812 L 127.636719 54.957031 C 127.878906 58.757812 126.726562 62.253906 124.175781 65.449219 M 119.800781 35.066406 C 114.417969 34.09375 109.359375 34.035156 104.621094 34.882812 C 98.957031 35.933594 94.503906 38.179688 91.265625 41.613281 L 90.472656 38.460938 L 90.535156 38.402344 C 92.4375 34.234375 96.082031 31.46875 101.464844 30.09375 C 105.753906 29 110.472656 28.898438 115.613281 29.789062 L 119.742188 35.003906 L 119.800781 35.066406 M 97.761719 61.929688 L 95.148438 54.046875 C 99.5625 53.5625 104.421875 54.671875 109.722656 57.382812 C 110.410156 63.40625 108.527344 69.933594 104.074219 76.96875 L 103.953125 77.089844 L 100.371094 78.242188 C 100.734375 75.898438 100.59375 73.148438 99.945312 69.996094 C 99.621094 68.378906 98.894531 65.691406 97.761719 61.929688 M 112.273438 58.777344 C 115.875 60.917969 119.398438 63.648438 122.839844 66.964844 C 119.679688 70.15625 114.761719 73.046875 108.082031 75.636719 C 111.28125 69.734375 112.679688 64.113281 112.273438 58.777344 M 76.933594 148.894531 L 78.453125 149.804688 C 81 151.257812 85.03125 153.117188 90.535156 155.382812 C 85.554688 156.757812 81.183594 158.535156 77.417969 160.71875 C 72.84375 163.308594 69.425781 166.339844 67.15625 169.816406 L 66.792969 168.238281 C 65.902344 164.398438 65.113281 160.476562 64.425781 156.472656 C 68.390625 151.867188 72.441406 149.359375 76.570312 148.953125 L 76.933594 148.894531 M 89.746094 139.3125 L 79.847656 132.398438 L 87.5 131.367188 C 94.867188 129.992188 99.746094 127.953125 102.132812 125.242188 L 103.894531 128.03125 L 105.230469 130.820312 L 97.882812 135.492188 C 95.007812 137.148438 92.398438 138.382812 90.050781 139.191406 L 89.746094 139.3125 M 106.445312 133.492188 C 108.347656 138.300781 109.664062 143.78125 110.390625 149.925781 C 104.683594 147.824219 98.792969 144.910156 92.722656 141.191406 C 94.867188 140.382812 97.214844 139.230469 99.765625 137.734375 L 106.445312 133.492188 M 115.308594 171.089844 C 111.261719 170.441406 106.847656 170.847656 102.070312 172.300781 C 97.941406 173.597656 93.976562 175.515625 90.171875 178.0625 C 87.621094 179.761719 85.332031 181.804688 83.308594 184.1875 C 81.125 186.734375 79.523438 189.402344 78.511719 192.195312 L 75.292969 188.191406 C 76.832031 182.25 79.28125 176.589844 82.640625 171.210938 C 86.121094 165.710938 90.191406 161.0625 94.847656 157.261719 L 97.699219 158.597656 C 103.773438 161.546875 108.609375 164.5 112.210938 167.449219 C 112.496094 167.695312 112.800781 167.816406 113.125 167.816406 L 115.308594 171.089844 M 118.164062 176.488281 C 120.066406 180.851562 120.753906 184.714844 120.226562 188.070312 L 119.5 187.222656 C 118.488281 186.25 117.007812 185.785156 115.066406 185.824219 L 110.269531 186.371094 C 100.148438 187.300781 93.613281 191.871094 90.65625 200.078125 C 87.011719 198.984375 83.671875 197.046875 80.636719 194.253906 C 82.257812 189.6875 85.515625 185.421875 90.414062 181.460938 C 94.015625 178.589844 98.164062 176.40625 102.863281 174.910156 C 108.042969 173.253906 112.71875 172.890625 116.886719 173.820312 L 118.164062 176.488281 M 79.421875 171.089844 C 76.832031 175.578125 74.808594 180.265625 73.351562 185.160156 C 71.285156 181.601562 69.585938 177.742188 68.25 173.574219 L 68.371094 173.453125 C 71.609375 167.105469 78.410156 162.234375 88.773438 158.839844 C 85.253906 162.398438 82.136719 166.480469 79.421875 171.089844 M 114.945312 188.617188 C 117.820312 188.292969 119.175781 189.363281 119.011719 191.828125 C 116.464844 196.800781 110.53125 199.835938 101.222656 200.925781 L 93.328125 200.683594 C 95.878906 194.578125 100.636719 190.820312 107.597656 189.402344 L 111.300781 188.917969 L 114.945312 188.617188 M 51.128906 177.335938 C 50.925781 179.398438 49.628906 180.792969 47.242188 181.519531 L 45.054688 181.882812 C 43.882812 181.925781 43.273438 181.621094 43.234375 180.972656 C 43.191406 180.488281 42.929688 180.066406 42.445312 179.699219 L 41.046875 179.578125 L 34.246094 184.007812 C 31.738281 185.339844 29.1875 186.191406 26.597656 186.554688 C 23.84375 187 20.542969 187.078125 16.699219 186.796875 C 11.273438 186.433594 8.621094 185.21875 8.742188 183.15625 C 8.824219 181.621094 10.140625 180.066406 12.691406 178.488281 C 13.417969 178.003906 15.320312 177.011719 18.398438 175.515625 C 21.152344 174.183594 23.824219 173.050781 26.414062 172.121094 C 29.894531 174.910156 33.941406 176.203125 38.558594 176 C 42.808594 175.800781 46.855469 174.382812 50.703125 171.757812 C 51.148438 173.777344 51.289062 175.636719 51.128906 177.335938 "/>
</g>
</svg>
