<?xml version="1.0" encoding="UTF-8"?>
<svg xmlns="http://www.w3.org/2000/svg" xmlns:xlink="http://www.w3.org/1999/xlink" width="128pt" height="130pt" viewBox="0 0 128 130" version="1.1">
<g id="surface1">
<path style=" stroke:none;fill-rule:nonzero;fill:rgb(100%,100%,100%);fill-opacity:1;" d="M 12.589844 119.460938 C 12.800781 118.410156 13.929688 117.671875 15.972656 117.25 C 18.300781 116.898438 19.464844 117.460938 19.464844 118.9375 C 19.464844 121.183594 18.371094 122.65625 16.183594 123.359375 C 13.644531 124.484375 11.496094 124.203125 9.730469 122.519531 C 8.746094 121.535156 9.34375 120.621094 11.53125 119.777344 L 12.589844 119.460938 "/>
<path style=" stroke:none;fill-rule:nonzero;fill:rgb(100%,100%,100%);fill-opacity:1;" d="M 54.269531 128.417969 C 52.011719 128.417969 51.550781 127.75 52.890625 126.414062 C 54.089844 125.082031 55.464844 124.414062 57.019531 124.414062 C 59.132812 124.414062 59.59375 125.082031 58.394531 126.414062 C 57.125 127.75 55.75 128.417969 54.269531 128.417969 "/>
<path style=" stroke:none;fill-rule:nonzero;fill:rgb(100%,100%,100%);fill-opacity:1;" d="M 105.363281 123.886719 C 105.363281 122.832031 106.5625 122.027344 108.957031 121.464844 C 111.214844 120.972656 112.34375 121.148438 112.34375 121.992188 C 112.34375 123.605469 112.554688 125.222656 112.976562 126.835938 C 113.332031 127.75 112.34375 128.523438 110.015625 129.15625 C 107.617188 129.714844 106.3125 129.539062 106.101562 128.628906 C 105.609375 127.152344 105.363281 125.574219 105.363281 123.886719 "/>
<path style=" stroke:none;fill-rule:nonzero;fill:rgb(100%,100%,100%);fill-opacity:1;" d="M 121.230469 38.136719 C 118.902344 38.136719 117.949219 37.363281 118.375 35.820312 C 118.726562 34.132812 119.925781 33.292969 121.96875 33.292969 C 124.226562 33.292969 125.179688 34.132812 124.828125 35.820312 C 124.472656 37.363281 123.273438 38.136719 121.230469 38.136719 "/>
<path style=" stroke:none;fill-rule:nonzero;fill:rgb(100%,100%,100%);fill-opacity:1;" d="M 120.171875 68.371094 C 119.539062 67.808594 119.539062 67.105469 120.171875 66.265625 L 121.757812 64.683594 C 123.664062 63.839844 125.214844 64.015625 126.414062 65.210938 L 127.152344 65.949219 C 127.71875 66.511719 127.71875 67.210938 127.152344 68.054688 L 125.566406 69.53125 C 123.875 70.441406 122.253906 70.230469 120.699219 68.898438 L 120.171875 68.371094 "/>
<path style=" stroke:none;fill-rule:nonzero;fill:rgb(100%,100%,100%);fill-opacity:1;" d="M 45.277344 74.269531 C 43.160156 74.269531 42.703125 73.566406 43.902344 72.164062 C 44.957031 70.757812 46.261719 70.054688 47.816406 70.054688 C 50 70.054688 50.496094 70.757812 49.296875 72.164062 C 48.167969 73.566406 46.828125 74.269531 45.277344 74.269531 "/>
<path style=" stroke:none;fill-rule:nonzero;fill:rgb(100%,100%,100%);fill-opacity:1;" d="M 92.246094 97.234375 C 93.65625 95.832031 95.347656 95.339844 97.324219 95.761719 L 99.226562 96.917969 L 97.957031 96.390625 L 98.378906 96.496094 C 99.085938 96.777344 99.542969 97.128906 99.753906 97.550781 C 99.894531 98.042969 99.683594 98.535156 99.121094 99.027344 C 97.921875 100.429688 96.300781 100.921875 94.253906 100.5 L 92.773438 99.761719 L 91.714844 98.710938 C 91.574219 98.21875 91.75 97.726562 92.246094 97.234375 "/>
<path style=" stroke:none;fill-rule:nonzero;fill:rgb(100%,100%,100%);fill-opacity:1;" d="M 101.023438 1.476562 C 101.023438 2.390625 99.894531 3.023438 97.640625 3.375 L 94.042969 3.269531 L 94.042969 2.109375 C 94.042969 1.195312 95.242188 0.496094 97.640625 0.00390625 L 101.023438 0.214844 L 101.023438 1.476562 "/>
<path style=" stroke:none;fill-rule:nonzero;fill:rgb(100%,100%,100%);fill-opacity:1;" d="M 3.28125 35.082031 C 1.09375 35.082031 0.671875 34.554688 2.011719 33.503906 C 3.421875 32.308594 4.796875 31.710938 6.136719 31.710938 C 8.25 31.710938 8.675781 32.308594 7.40625 33.503906 C 5.925781 34.554688 4.546875 35.082031 3.28125 35.082031 "/>
</g>
</svg>
