<?xml version="1.0" encoding="UTF-8"?>
<svg xmlns="http://www.w3.org/2000/svg" xmlns:xlink="http://www.w3.org/1999/xlink" width="128pt" height="217pt" viewBox="0 0 128 217" version="1.1">
<g id="surface1">
<path style=" stroke:none;fill-rule:nonzero;fill:rgb(0%,0%,0%);fill-opacity:1;" d="M 91.441406 16.601562 C 90.742188 14.515625 89.695312 13.070312 88.300781 12.257812 L 83.066406 9.914062 C 79.921875 8.753906 78.148438 8.089844 77.742188 7.914062 L 72.246094 5.398438 L 66.488281 3.660156 L 61.6875 3.746094 L 59.507812 5.917969 L 57.585938 8.351562 L 52.351562 13.910156 C 50.898438 15.414062 49.761719 17.296875 48.949219 19.554688 L 47.554688 24.417969 L 56.976562 24.851562 L 66.921875 24.679688 L 78.003906 24.679688 L 88.996094 26.15625 L 93.882812 27.546875 L 92.664062 21.898438 L 91.441406 16.601562 M 76.085938 5.308594 L 82.976562 8.175781 L 87.339844 10.085938 C 88.910156 10.957031 90.046875 11.941406 90.742188 13.039062 L 92.3125 17.121094 L 93.273438 21.378906 L 94.757812 27.804688 C 98.246094 29.082031 101.535156 30.730469 104.617188 32.757812 C 110.027344 36.230469 113.863281 40.285156 116.132812 44.917969 C 118.113281 48.972656 118.429688 51.839844 117.09375 53.515625 C 116.222656 54.675781 114.910156 55.574219 113.167969 56.210938 C 112.003906 56.671875 110.433594 57.078125 108.457031 57.425781 L 91.789062 58.207031 L 91.179688 59.511719 C 89.785156 62 87.980469 63.214844 85.769531 63.160156 L 85.332031 63.160156 L 83.5 65.679688 L 83.9375 65.765625 L 84.199219 65.589844 C 91.296875 65.878906 97.578125 67.589844 103.046875 70.714844 C 108.164062 73.667969 112.964844 78.15625 117.441406 84.179688 C 121.28125 89.21875 123.78125 94.140625 124.945312 98.945312 C 126.457031 105.082031 125.5 110.265625 122.066406 114.492188 L 120.757812 116.144531 L 120.234375 116.75 L 117.179688 120.050781 L 114.476562 122.484375 L 108.367188 126.566406 L 105.050781 128.390625 L 105.050781 129.347656 L 104.964844 129.78125 C 103.917969 132.039062 102.230469 133.890625 99.90625 135.339844 L 101.386719 141.855469 C 102.085938 145.328125 102.40625 148.398438 102.347656 151.0625 C 102.171875 156.15625 100.953125 161.109375 98.683594 165.914062 C 97.460938 168.460938 95.976562 170.835938 94.234375 173.039062 C 92.722656 174.949219 91.09375 176.570312 89.347656 177.902344 C 91.382812 180.679688 92.835938 183.894531 93.710938 187.542969 C 94.582031 191.25 94.785156 195.101562 94.320312 199.09375 C 95.773438 200.425781 96.355469 202.28125 96.066406 204.65625 C 95.773438 206.390625 94.816406 207.898438 93.1875 209.171875 L 88.472656 211.777344 L 86.730469 212.386719 C 86.378906 212.328125 86.003906 211.949219 85.59375 211.257812 L 84.808594 210.214844 L 83.761719 209.953125 L 82.453125 210.910156 L 81.320312 212.039062 L 80.359375 213.339844 L 79.226562 214.382812 L 70.761719 216.378906 C 67.855469 216.785156 65.46875 216.757812 63.605469 216.292969 C 60.875 215.542969 60.144531 213.832031 61.425781 211.167969 C 62.066406 209.835938 63.34375 208.535156 65.265625 207.261719 L 70.152344 204.566406 L 73.902344 202.65625 C 71.75 201.554688 69.976562 199.269531 68.582031 195.792969 C 67.535156 193.074219 66.660156 189.394531 65.964844 184.761719 L 65.527344 179.203125 L 63.34375 184.15625 L 60.640625 190.757812 L 58.460938 194.664062 C 57.644531 195.648438 56.800781 196.285156 55.929688 196.578125 C 56.570312 197.734375 57.003906 199.09375 57.238281 200.660156 L 57.238281 201.703125 L 56.714844 202.484375 C 54.621094 203.46875 52.46875 204.25 50.257812 204.828125 L 47.378906 205.003906 L 46.765625 203.871094 C 46.652344 203.292969 46.300781 202.976562 45.71875 202.917969 L 44.148438 203.527344 L 42.753906 204.566406 C 41.125 205.550781 39.410156 206.160156 37.605469 206.390625 C 34.753906 206.796875 31.613281 206.421875 28.183594 205.261719 L 24.519531 204.132812 C 22.949219 203.378906 22.164062 202.511719 22.164062 201.527344 C 22.21875 200.136719 23.035156 198.949219 24.605469 197.964844 C 26.117188 197.097656 28.007812 196.433594 30.277344 195.96875 L 35.511719 195.101562 C 35.394531 189.65625 35.976562 183.402344 37.257812 176.339844 C 37.839844 173.152344 39.234375 168.347656 41.445312 161.917969 C 43.539062 155.78125 44.878906 151.003906 45.457031 147.585938 L 46.417969 140.289062 C 45.082031 138.726562 44.324219 136.613281 44.148438 133.949219 L 44.410156 127.957031 L 45.109375 122.222656 L 45.285156 120.574219 L 44.761719 121.007812 C 43.597656 122.28125 42.085938 123.238281 40.222656 123.875 C 36.734375 125.03125 33.039062 124.859375 29.140625 123.351562 C 25.535156 121.90625 22.335938 119.328125 19.542969 115.621094 C 17.101562 112.378906 15.238281 108.730469 13.960938 104.679688 C 12.390625 104.734375 10.90625 104.417969 9.511719 103.722656 C 8 102.96875 6.894531 101.898438 6.195312 100.507812 L 5.585938 100.25 C 2.152344 98.625 0.496094 96.542969 0.609375 93.996094 C 0.667969 92.664062 0.960938 91.445312 1.484375 90.347656 C 0.785156 89.128906 0.550781 87.972656 0.785156 86.871094 C 1.019531 85.597656 1.570312 84.554688 2.441406 83.746094 C 3.140625 83.050781 3.867188 82.730469 4.625 82.789062 L 4.972656 81.140625 C 5.4375 79.691406 6.371094 78.878906 7.765625 78.707031 C 10.265625 78.417969 13.320312 79.605469 16.925781 82.269531 L 17.015625 82.441406 L 19.371094 82.527344 C 21.230469 83.050781 22.628906 84.207031 23.558594 86.003906 C 24.429688 87.625 24.808594 89.476562 24.691406 91.5625 L 24.605469 92.519531 L 29.839844 95.644531 L 30.363281 93.996094 L 32.371094 88.957031 C 36.328125 78.476562 41.039062 72.769531 46.503906 71.84375 L 47.117188 71.84375 L 47.988281 71.238281 C 46.011719 69.210938 44.410156 66.75 43.191406 63.855469 C 40.6875 58.121094 40.164062 52.183594 41.621094 46.046875 C 39.757812 44.65625 38.246094 42.949219 37.082031 40.921875 L 34.726562 37.101562 L 31.410156 34.148438 L 25.828125 31.28125 C 23.734375 30.007812 22.394531 28.558594 21.8125 26.9375 C 20.535156 23.175781 23.964844 21.582031 32.109375 22.160156 L 41.882812 23.550781 L 44.585938 20.421875 C 45.808594 19.496094 46.652344 19.035156 47.117188 19.035156 L 47.203125 19.121094 L 46.679688 20.683594 C 46.273438 21.667969 46.1875 22.390625 46.417969 22.855469 L 46.59375 23.027344 L 47.292969 19.988281 L 48.773438 15.734375 L 50.34375 13.300781 L 52.4375 11.214844 L 59.941406 2.53125 C 61.457031 0.851562 64.507812 0.851562 69.105469 2.53125 L 76.085938 5.308594 M 77.917969 10.175781 L 78.179688 10.609375 L 78.179688 11.042969 C 74.6875 9.941406 71.808594 9.304688 69.539062 9.132812 C 66.804688 8.726562 65.441406 9.074219 65.441406 10.175781 C 65.441406 10.695312 66.339844 11.535156 68.144531 12.691406 C 71.632812 14.953125 76.433594 17.296875 82.542969 19.730469 L 82.804688 20.683594 C 80.300781 19.699219 77.714844 18.570312 75.039062 17.296875 L 70.152344 14.863281 C 68.230469 13.765625 66.804688 12.605469 65.875 11.390625 C 65.121094 10.464844 64.917969 9.652344 65.265625 8.957031 C 65.613281 8.320312 66.457031 8.003906 67.796875 8.003906 C 70.53125 8.058594 73.902344 8.785156 77.917969 10.175781 M 72.945312 35.972656 C 73.757812 37.59375 73.992188 38.722656 73.640625 39.359375 C 73.292969 39.300781 72.417969 38.492188 71.023438 36.925781 L 69.628906 35.796875 L 68.929688 35.277344 C 68.8125 34.929688 69.308594 34.378906 70.414062 33.625 L 71.023438 33.367188 L 71.632812 33.714844 L 72.945312 35.972656 M 84.808594 37.273438 L 84.285156 37.015625 L 83.675781 37.449219 L 87.078125 40.226562 C 88.824219 41.964844 89.957031 44.050781 90.480469 46.480469 L 91.617188 42.660156 L 84.808594 37.273438 M 74.253906 26.589844 L 62.472656 26.675781 L 47.117188 26.070312 L 47.03125 26.070312 L 44.671875 25.722656 L 35.25 23.984375 L 25.652344 24.417969 C 24.199219 24.707031 23.296875 25.171875 22.949219 25.808594 C 22.597656 26.386719 22.628906 26.9375 23.035156 27.460938 L 24.429688 28.761719 L 27.832031 30.671875 L 31.324219 32.496094 C 32.953125 33.480469 34.726562 35.507812 36.644531 38.578125 C 38.566406 41.589844 40.3125 43.644531 41.882812 44.746094 L 42.492188 42.226562 L 40.835938 39.183594 C 40.136719 37.390625 39.992188 35.972656 40.398438 34.929688 C 40.921875 33.714844 42.085938 32.757812 43.886719 32.0625 L 48.339844 30.847656 L 65.089844 29.890625 C 71.257812 30.296875 76.636719 31.570312 81.234375 33.714844 C 84.316406 35.160156 86.992188 36.867188 89.257812 38.835938 C 91.992188 41.152344 93.941406 43.613281 95.105469 46.222656 C 96.09375 48.304688 96.445312 49.898438 96.152344 51 C 95.863281 52.15625 94.960938 52.910156 93.449219 53.257812 L 90.308594 53.605469 L 91.003906 55.167969 L 91.265625 56.296875 C 94.757812 56.527344 97.867188 56.558594 100.601562 56.382812 L 110.898438 54.734375 C 112.875 54.152344 114.359375 53.429688 115.347656 52.5625 C 116.6875 51.402344 117.152344 49.984375 116.746094 48.304688 C 115.699219 43.847656 111.828125 39.386719 105.140625 34.929688 C 99.089844 30.875 92.75 28.386719 86.117188 27.460938 L 74.253906 26.589844 M 82.191406 36.667969 L 82.976562 36.230469 C 80.59375 35.015625 78.0625 34.058594 75.386719 33.367188 C 70.847656 32.265625 65.46875 31.773438 59.246094 31.890625 L 52.4375 32.238281 L 52.089844 32.324219 L 51.480469 33.019531 C 50.257812 34.003906 49.125 34.582031 48.078125 34.753906 C 45.808594 38.460938 44.265625 42.167969 43.453125 45.875 C 42.171875 51.894531 42.753906 57.714844 45.195312 63.332031 C 46.941406 67.386719 49.355469 70.601562 52.4375 72.972656 L 55.230469 74.277344 L 58.199219 76.273438 C 60.757812 77.257812 63.082031 77.75 65.179688 77.75 L 67.097656 77.664062 L 68.058594 77.492188 L 68.230469 77.578125 C 68.347656 77.808594 67.738281 78.128906 66.398438 78.53125 L 63.519531 79.140625 L 63.257812 79.054688 C 63.957031 79.515625 64.859375 79.75 65.964844 79.75 C 68.40625 79.75 70.90625 78.96875 73.46875 77.402344 C 76.199219 75.667969 77.714844 73.726562 78.003906 71.585938 C 76.375 72.683594 74.949219 73.234375 73.730469 73.234375 C 73.378906 73.234375 73.175781 73.148438 73.117188 72.972656 L 73.730469 72.367188 C 77.507812 69.933594 80.738281 66.402344 83.414062 61.769531 L 84.023438 61.769531 C 86.527344 61.769531 88.269531 60.609375 89.257812 58.292969 C 90.308594 55.976562 89.785156 54.007812 87.6875 52.386719 L 87.515625 51.78125 L 88.996094 52.300781 L 88.910156 52.128906 C 88.792969 51.78125 88.824219 51.578125 88.996094 51.519531 L 88.996094 51.347656 L 87.515625 49 L 84.808594 45.699219 L 82.714844 44.050781 C 82.308594 43.816406 82.105469 43.527344 82.105469 43.179688 L 82.542969 42.746094 L 82.714844 42.746094 L 85.59375 44.832031 L 87.863281 47.871094 L 89.257812 50.476562 L 89.433594 49.433594 L 87.949219 46.65625 L 85.332031 43.179688 L 82.019531 40.140625 C 81.785156 40.023438 81.699219 39.851562 81.757812 39.621094 C 81.8125 39.386719 81.988281 39.273438 82.28125 39.273438 L 82.628906 39.359375 L 86.117188 42.484375 C 87.457031 44.050781 88.621094 45.929688 89.609375 48.132812 C 89.609375 45.410156 88.472656 42.949219 86.207031 40.75 L 82.105469 37.796875 C 81.523438 37.449219 81.550781 37.070312 82.191406 36.667969 M 92.402344 47.871094 L 90.832031 51.691406 L 93.011719 51.257812 C 94.582031 50.796875 95.339844 49.984375 95.28125 48.828125 C 95.164062 47.667969 94.523438 46.308594 93.359375 44.746094 L 92.402344 47.871094 M 99.121094 70.976562 L 95.542969 69.414062 L 94.320312 69.066406 L 92.140625 68.542969 L 91.878906 68.457031 L 91.09375 68.285156 L 89.609375 68.109375 L 90.046875 68.632812 L 94.058594 76.449219 C 95.453125 79.515625 97.402344 81.660156 99.90625 82.875 L 100.339844 83.398438 L 99.992188 83.917969 C 97.375 85.714844 94.699219 86.8125 91.964844 87.21875 C 88.824219 87.742188 86.003906 87.277344 83.5 85.828125 L 80.273438 83.484375 C 81.320312 86.265625 81.667969 88.839844 81.320312 91.214844 C 80.679688 95.152344 80.214844 99.265625 79.921875 103.550781 C 79.226562 112.523438 78.789062 120.285156 78.613281 126.828125 L 79.226562 135.773438 L 79.75 143.589844 C 81.378906 144.867188 83.238281 145.214844 85.332031 144.632812 C 89.753906 143.824219 93.59375 142.375 96.851562 140.289062 C 97.722656 139.710938 98.101562 139.015625 97.984375 138.207031 L 97.546875 136.554688 C 95.105469 137.425781 93.097656 137.019531 91.527344 135.339844 L 90.917969 135.078125 L 89.695312 135.773438 L 87.078125 136.035156 C 86.378906 135.976562 85.855469 135.570312 85.507812 134.820312 C 85.332031 134.296875 85.246094 133.574219 85.246094 132.648438 L 84.984375 132.214844 L 83.761719 132.734375 L 82.453125 132.90625 C 81.699219 132.792969 81.117188 132.589844 80.707031 132.300781 C 80.128906 131.777344 79.777344 130.9375 79.660156 129.78125 C 79.605469 128.621094 79.75 127.695312 80.097656 127 L 81.929688 124.742188 L 82.105469 124.570312 C 81.929688 118.375 83.296875 114.636719 86.207031 113.363281 C 89.113281 112.089844 91.265625 112.121094 92.664062 113.449219 L 93.449219 115.363281 L 93.621094 116.058594 L 93.796875 115.710938 C 94.378906 114.839844 94.464844 113.507812 94.058594 111.714844 L 93.011719 107.457031 C 92.140625 103.460938 91.558594 100.21875 91.265625 97.730469 L 91.179688 97.640625 C 91.179688 97.296875 91.5 97.121094 92.140625 97.121094 L 93.359375 97.46875 L 97.984375 102.507812 C 100.484375 105.113281 102.027344 106.386719 102.609375 106.328125 L 104.265625 104.503906 L 108.367188 100.507812 L 108.457031 100.335938 L 109.765625 100.25 C 110.402344 100.25 110.664062 100.363281 110.550781 100.59375 L 107.84375 103.722656 L 104.703125 106.328125 L 104.703125 106.414062 L 104.441406 106.589844 L 103.480469 107.804688 L 99.121094 112.496094 C 97.546875 114.347656 96.414062 116.058594 95.714844 117.621094 L 98.945312 119.792969 L 103.21875 124.136719 L 104.703125 126.742188 L 104.703125 126.652344 C 106.566406 125.726562 108.046875 124.886719 109.152344 124.136719 L 117.09375 117.882812 C 119.945312 115.101562 121.863281 112.351562 122.851562 109.628906 C 123.667969 107.371094 123.8125 104.5625 123.289062 101.203125 C 122.824219 98.425781 121.949219 95.671875 120.671875 92.953125 C 118.984375 89.535156 116.917969 86.320312 114.476562 83.308594 C 110.054688 78.097656 104.9375 73.988281 99.121094 70.976562 M 82.628906 46.132812 L 82.804688 46.132812 L 84.898438 47.699219 L 85.945312 49.175781 L 86.378906 50.390625 L 86.292969 50.5625 L 85.332031 49.695312 L 84.199219 48.390625 L 82.453125 47.261719 C 82.105469 47.03125 81.988281 46.800781 82.105469 46.570312 L 82.628906 46.132812 M 82.367188 50.476562 L 82.191406 49.867188 L 82.714844 49.433594 L 82.890625 49.523438 C 83.238281 49.695312 83.589844 49.984375 83.9375 50.390625 L 84.636719 51.691406 C 84.695312 52.214844 84.519531 52.445312 84.113281 52.386719 L 83.589844 51.953125 L 82.976562 50.910156 L 82.367188 50.476562 M 70.585938 44.570312 L 70.0625 46.570312 L 68.929688 47.4375 C 68.464844 47.4375 68.085938 47.148438 67.796875 46.570312 C 67.503906 45.988281 67.359375 45.292969 67.359375 44.484375 L 67.882812 42.398438 C 68.230469 41.820312 68.640625 41.53125 69.105469 41.53125 L 70.152344 42.398438 C 70.5 43.035156 70.644531 43.761719 70.585938 44.570312 M 59.855469 44.136719 L 58.546875 47.089844 L 56.714844 50.5625 C 56.480469 51.027344 56.511719 51.492188 56.800781 51.953125 L 58.460938 54.125 L 58.546875 54.734375 L 58.109375 55.082031 L 57.414062 55.253906 C 56.832031 55.3125 56.367188 55.140625 56.015625 54.734375 L 54.097656 51.867188 C 53.746094 51.402344 53.777344 50.941406 54.183594 50.476562 L 57.585938 45.960938 L 59.332031 42.484375 C 59.507812 41.964844 59.769531 41.734375 60.117188 41.792969 C 60.40625 41.847656 60.464844 42.136719 60.292969 42.660156 L 59.855469 44.136719 M 58.722656 59.421875 C 59.070312 60.117188 59.214844 60.957031 59.15625 61.941406 L 58.632812 64.460938 L 57.324219 65.417969 C 56.859375 65.417969 56.453125 65.070312 56.105469 64.375 C 55.753906 63.679688 55.609375 62.839844 55.667969 61.855469 C 55.667969 60.871094 55.871094 60.03125 56.277344 59.335938 L 57.5 58.382812 C 57.964844 58.382812 58.371094 58.730469 58.722656 59.421875 M 60.203125 66.894531 L 60.640625 67.414062 L 60.464844 68.023438 L 59.855469 68.457031 L 58.984375 68.632812 L 57.238281 68.457031 L 55.753906 67.675781 L 55.40625 67.328125 L 55.84375 67.15625 L 59.507812 66.71875 L 60.203125 66.894531 M 78.527344 76.101562 L 76.871094 77.578125 L 77.394531 77.839844 L 78.003906 78.621094 L 78.527344 76.101562 M 75.996094 79.835938 C 75.707031 79.429688 75.503906 79.054688 75.386719 78.707031 L 73.730469 80.097656 C 71.519531 81.660156 69.976562 83.109375 69.105469 84.441406 C 67.125 87.160156 65.585938 91.734375 64.480469 98.164062 L 63.257812 108.847656 L 62.125 119.617188 L 61.511719 122.832031 L 61.339844 126.132812 L 62.296875 125.957031 L 66.050781 126.394531 C 66.691406 126.683594 67.039062 127.347656 67.097656 128.390625 L 67.011719 130.824219 L 67.011719 130.910156 L 69.453125 130.910156 L 76.085938 130.734375 L 76.433594 130.476562 L 76.347656 129.433594 L 76.433594 128.21875 L 76.085938 123.527344 C 75.5625 115.128906 75.386719 108.035156 75.5625 102.246094 L 75.910156 94.082031 L 76.78125 85.742188 L 77.480469 81.921875 L 77.132812 81.398438 L 75.996094 79.835938 M 86.992188 67.847656 L 83.761719 67.589844 L 83.414062 67.847656 C 82.484375 70.222656 81.496094 72.191406 80.445312 73.753906 L 80.273438 75.230469 L 79.75 80.703125 L 82.28125 83.136719 C 86.875 86.609375 92.023438 86.667969 97.722656 83.308594 C 95.222656 81.980469 93.300781 80.039062 91.964844 77.492188 L 88.824219 70.367188 L 86.992188 67.847656 M 58.808594 80.007812 L 57.238281 78.1875 L 56.714844 78.707031 L 53.746094 80.792969 L 53.746094 80.878906 L 53.660156 84.960938 L 52.875 90.695312 L 51.21875 108.933594 L 50.433594 121.789062 L 50.695312 125.523438 L 51.21875 125.699219 L 52.789062 126.304688 L 55.753906 127.4375 L 56.105469 126.914062 L 58.460938 126.304688 L 58.808594 126.304688 L 58.894531 126.046875 L 62.210938 89.042969 C 62.328125 87.480469 61.980469 85.886719 61.164062 84.265625 L 58.808594 80.007812 M 91.617188 116.578125 L 91.527344 115.882812 L 91.441406 115.1875 C 91.265625 114.203125 90.539062 113.855469 89.257812 114.144531 C 88.210938 114.378906 87.457031 114.753906 86.992188 115.273438 C 85.828125 116.492188 85.042969 118.027344 84.636719 119.878906 L 84.199219 122.222656 L 87.949219 118.402344 L 89.347656 118.488281 C 89.929688 118.894531 90.074219 119.269531 89.785156 119.617188 L 83.238281 126.742188 L 82.019531 128.566406 C 81.84375 129.085938 81.8125 129.808594 81.929688 130.734375 L 83.761719 130.910156 L 86.117188 130.734375 C 86.699219 130.910156 87.050781 131.199219 87.164062 131.605469 L 87.253906 132.996094 C 87.195312 133.632812 87.222656 134.09375 87.339844 134.382812 C 87.457031 134.789062 88.300781 134.644531 89.871094 133.949219 L 91.003906 133.601562 L 92.226562 133.863281 L 94.144531 134.90625 L 96.675781 134.644531 L 96.851562 134.558594 L 95.019531 128.738281 L 93.273438 122.3125 C 92.984375 120.515625 92.925781 119.011719 93.097656 117.792969 C 92.402344 117.390625 91.90625 116.984375 91.617188 116.578125 M 66.398438 112.84375 L 66.398438 113.191406 L 66.835938 113.886719 L 66.835938 114.667969 L 65.964844 115.710938 L 65.089844 115.796875 L 64.480469 115.101562 L 64.394531 112.929688 C 64.394531 112.351562 64.742188 112.0625 65.441406 112.0625 C 66.136719 112.003906 66.457031 112.265625 66.398438 112.84375 M 65.265625 98.859375 L 65.089844 98.164062 C 64.917969 97.757812 65.0625 97.496094 65.527344 97.382812 C 65.527344 96.917969 65.816406 96.65625 66.398438 96.601562 L 67.183594 96.773438 L 67.707031 97.296875 L 67.359375 99.03125 L 66.3125 99.378906 C 65.90625 99.378906 65.554688 99.207031 65.265625 98.859375 M 64.304688 90.171875 L 65.003906 87.742188 C 65.703125 85.425781 67.097656 83.28125 69.191406 81.3125 L 65.527344 81.660156 L 61.773438 81.140625 L 63.171875 83.308594 C 64.101562 84.875 64.539062 86.410156 64.480469 87.914062 L 64.304688 90.171875 M 78.875 86.089844 L 78.351562 91.300781 L 78.003906 97.730469 L 77.917969 101.378906 L 77.917969 100.769531 C 78.148438 97.699219 78.46875 95.09375 78.875 92.953125 C 79.285156 90.519531 79.285156 88.234375 78.875 86.089844 M 97.113281 104.332031 L 96.851562 103.984375 C 95.921875 103.519531 95.132812 103.058594 94.496094 102.59375 L 94.582031 104.070312 L 95.804688 109.804688 L 96.328125 112.929688 L 100.167969 108.847656 L 101.738281 107.023438 C 100.339844 106.851562 98.800781 105.953125 97.113281 104.332031 M 102.957031 129 L 103.046875 128.21875 C 101.707031 128.332031 100.601562 128.042969 99.730469 127.347656 C 98.625 126.539062 97.285156 125.0625 95.714844 122.917969 L 96.328125 125.785156 C 96.5 126.652344 97.34375 129.257812 98.859375 133.601562 C 100.484375 132.558594 101.851562 131.027344 102.957031 129 M 95.628906 119.011719 L 95.367188 118.921875 C 95.425781 119.558594 95.773438 120.3125 96.414062 121.179688 L 98.859375 123.875 L 101.300781 126.566406 L 102.871094 127.089844 C 102.523438 125.871094 101.765625 124.570312 100.601562 123.179688 C 99.03125 121.382812 97.375 119.996094 95.628906 119.011719 M 99.90625 140.117188 C 99.089844 140.753906 97.375 141.621094 94.757812 142.722656 C 91.789062 143.9375 89.113281 144.75 86.730469 145.15625 L 84.984375 145.675781 C 81.609375 146.660156 78.296875 147.09375 75.039062 146.980469 C 69.394531 146.863281 63.316406 145.445312 56.800781 142.722656 L 56.277344 142.550781 L 56.191406 142.460938 C 54.15625 141.652344 52.117188 140.695312 50.082031 139.597656 L 50.605469 142.027344 L 50.605469 142.722656 L 50.082031 142.808594 L 47.03125 140.984375 L 46.679688 143.765625 C 46.15625 147.992188 45.371094 151.960938 44.324219 155.664062 C 43.859375 157.402344 42.988281 159.980469 41.707031 163.394531 L 39.089844 171.125 C 36.9375 179.464844 36.007812 187.457031 36.296875 195.101562 C 39.089844 196.664062 42.144531 197.445312 45.457031 197.445312 C 48.773438 197.445312 51.886719 196.664062 54.792969 195.101562 L 54.882812 195.1875 L 55.40625 194.664062 C 56.917969 194.78125 58.3125 193.738281 59.59375 191.539062 L 61.863281 186.328125 L 63.867188 181.117188 L 65.527344 177.554688 L 66.050781 172.34375 L 67.796875 163.484375 C 68.378906 159.890625 68.289062 156.9375 67.535156 154.621094 L 67.796875 153.40625 L 68.320312 152.972656 C 68.902344 154.769531 69.105469 156.824219 68.929688 159.140625 L 67.96875 165.308594 C 67.332031 168.492188 66.894531 171.097656 66.660156 173.125 L 66.488281 175.902344 L 66.574219 176.425781 L 66.398438 177.554688 L 66.574219 180.941406 C 66.921875 185.515625 67.882812 189.800781 69.453125 193.796875 C 71.257812 198.3125 73.613281 200.832031 76.519531 201.355469 L 76.609375 201.355469 L 76.609375 201.441406 L 85.59375 202.046875 C 88.503906 201.703125 91.09375 200.890625 93.359375 199.617188 L 93.359375 199.53125 L 93.621094 199.007812 C 93.972656 195.765625 93.710938 192.464844 92.835938 189.105469 C 91.847656 185.054688 90.191406 181.609375 87.863281 178.769531 L 87.863281 177.726562 L 88.386719 176.773438 C 91.878906 174.457031 94.960938 170.980469 97.636719 166.347656 C 100.195312 161.773438 101.476562 156.648438 101.476562 150.976562 C 101.535156 148.601562 101.214844 145.820312 100.515625 142.636719 L 99.90625 140.117188 M 68.667969 138.292969 C 68.726562 139.335938 68.871094 139.914062 69.105469 140.03125 L 69.453125 139.683594 L 69.539062 136.816406 L 69.191406 134.820312 L 68.667969 138.292969 M 72.945312 139.945312 L 72.945312 137.164062 L 72.59375 135.253906 C 72.304688 136.003906 72.15625 137.136719 72.15625 138.640625 C 72.15625 139.683594 72.246094 140.289062 72.417969 140.464844 C 72.710938 140.695312 72.886719 140.523438 72.945312 139.945312 M 64.742188 137.683594 L 64.65625 139.335938 C 64.480469 139.796875 64.042969 140.03125 63.34375 140.03125 L 59.507812 140.203125 L 58.632812 140.203125 C 58.226562 140.203125 57.964844 140.117188 57.847656 139.945312 C 57.558594 139.480469 57.414062 138.785156 57.414062 137.859375 L 57.414062 135.511719 L 56.890625 134.992188 L 56.539062 134.472656 L 56.628906 138.988281 L 56.714844 141.246094 C 56.890625 141.882812 57.617188 142.230469 58.894531 142.289062 L 61.511719 142.203125 L 64.742188 142.113281 C 65.441406 142.058594 65.847656 141.652344 65.964844 140.898438 L 65.964844 132.472656 L 64.742188 132.386719 L 64.742188 137.683594 M 57.414062 130.996094 L 57.5 130.390625 L 56.453125 130.128906 L 56.539062 134.035156 L 56.628906 133.777344 L 57.414062 133.082031 L 57.414062 130.996094 M 58.546875 130.734375 L 58.546875 132.734375 L 61.25 132.472656 L 61.078125 132.820312 L 60.640625 133.082031 L 58.546875 133.253906 L 58.546875 134.992188 L 60.203125 135.253906 L 61.164062 134.558594 L 60.902344 133.253906 L 61.25 132.734375 L 61.773438 132.558594 L 61.863281 134.382812 L 60.640625 135.6875 L 58.632812 135.949219 L 58.546875 135.949219 L 58.460938 137.164062 L 58.632812 138.988281 C 58.632812 139.394531 59.011719 139.566406 59.769531 139.507812 L 63.34375 139.507812 L 63.78125 138.8125 L 63.695312 137.859375 L 63.695312 132.300781 L 60.554688 131.777344 C 59.507812 131.488281 58.835938 131.140625 58.546875 130.734375 M 60.726562 129.433594 C 60.84375 130.070312 61.136719 130.417969 61.601562 130.476562 L 63.695312 130.734375 L 63.082031 129.605469 L 61.339844 129.433594 L 60.726562 129.433594 M 58.722656 126.828125 L 58.285156 126.828125 C 57.585938 127 57.09375 127.347656 56.800781 127.871094 L 57.847656 128.21875 L 58.460938 128.390625 L 58.546875 127.78125 L 58.722656 126.828125 M 65.964844 130.824219 L 65.964844 129.085938 C 65.90625 127.929688 65.441406 127.234375 64.566406 127 L 61.601562 126.828125 L 61.25 126.828125 L 60.902344 128.824219 L 61.601562 128.738281 L 64.132812 128.914062 L 64.828125 130.300781 L 64.917969 130.824219 L 65.964844 130.824219 M 72.59375 134.210938 L 73.03125 134.730469 L 73.816406 138.378906 C 74.105469 140.289062 73.902344 141.304688 73.207031 141.421875 C 72.683594 141.476562 72.214844 141.1875 71.808594 140.550781 L 71.285156 138.902344 C 71.109375 136.816406 71.34375 135.195312 71.984375 134.035156 L 72.507812 134.210938 L 72.59375 134.210938 M 68.582031 133.691406 L 69.105469 133.777344 L 69.105469 133.863281 L 69.714844 134.382812 L 70.414062 137.945312 C 70.644531 139.855469 70.441406 140.898438 69.800781 141.074219 C 69.277344 141.074219 68.84375 140.78125 68.492188 140.203125 C 68.144531 139.683594 67.96875 139.105469 67.96875 138.46875 C 67.855469 136.265625 68.058594 134.675781 68.582031 133.691406 M 75.824219 139.769531 C 76.113281 140 76.257812 139.855469 76.257812 139.335938 L 76.257812 136.46875 L 75.996094 134.558594 C 75.648438 135.3125 75.472656 136.441406 75.472656 137.945312 C 75.53125 138.988281 75.648438 139.597656 75.824219 139.769531 M 75.910156 133.515625 L 76.433594 134.035156 L 77.042969 136.207031 L 76.695312 132.125 L 69.191406 132.558594 L 67.011719 132.558594 L 67.011719 139.335938 L 66.835938 141.769531 C 66.542969 142.347656 65.847656 142.636719 64.742188 142.636719 L 63.433594 142.808594 C 66.632812 143.738281 69.800781 144.402344 72.945312 144.808594 L 77.917969 144.980469 L 77.65625 144.722656 L 77.304688 139.683594 C 77.191406 140.320312 76.957031 140.667969 76.609375 140.726562 C 76.085938 140.78125 75.621094 140.492188 75.210938 139.855469 C 74.863281 139.277344 74.6875 138.726562 74.6875 138.207031 C 74.570312 136.003906 74.777344 134.382812 75.300781 133.34375 L 75.824219 133.515625 L 75.910156 133.515625 M 65.875 208.824219 C 62.617188 210.851562 61.308594 212.296875 61.949219 213.167969 C 62.242188 213.574219 62.878906 213.917969 63.867188 214.210938 C 65.613281 214.789062 68.261719 214.816406 71.808594 214.296875 L 77.65625 212.992188 L 79.398438 212.296875 L 80.707031 211.082031 L 82.714844 208.910156 C 83.878906 207.867188 84.695312 207.550781 85.160156 207.957031 L 86.117188 209.257812 L 87.164062 210.472656 L 89.785156 209.519531 L 92.488281 207.957031 C 94 207.085938 94.871094 205.929688 95.105469 204.480469 C 95.28125 203.207031 94.785156 202.046875 93.621094 201.007812 L 93.273438 201.355469 L 91.179688 202.394531 C 88.792969 203.378906 86.292969 203.960938 83.675781 204.132812 L 76.085938 203.4375 L 70.9375 205.957031 L 65.875 208.824219 M 43.277344 23.722656 L 45.195312 24.070312 C 44.730469 23.550781 44.558594 22.855469 44.671875 21.988281 L 43.277344 23.722656 M 47.03125 33.625 C 48.019531 33.625 49.007812 33.308594 49.996094 32.671875 L 46.242188 33.539062 L 47.03125 33.625 M 42.578125 36.492188 L 43.886719 39.445312 L 46.417969 34.667969 L 45.023438 34.058594 C 43.976562 34.40625 43.160156 34.84375 42.578125 35.363281 L 42.578125 36.492188 M 41.269531 37.1875 L 41.359375 38.054688 L 42.578125 40.574219 L 43.101562 41.53125 L 43.277344 41.007812 L 41.359375 37.449219 L 41.269531 37.1875 M 52.4375 34.234375 L 53.136719 34.496094 L 55.84375 37.359375 L 56.015625 37.796875 L 55.492188 37.796875 L 52.175781 36.839844 L 51.566406 36.320312 L 51.566406 35.539062 L 51.914062 34.753906 L 52.4375 34.234375 M 49.472656 42.484375 C 49.820312 41.90625 50.199219 41.617188 50.605469 41.617188 C 51.070312 41.675781 51.449219 41.992188 51.742188 42.574219 C 52.03125 43.09375 52.175781 43.789062 52.175781 44.65625 L 51.652344 46.742188 C 51.304688 47.261719 50.898438 47.523438 50.433594 47.523438 C 50.023438 47.523438 49.675781 47.234375 49.386719 46.65625 L 48.949219 44.570312 L 49.472656 42.484375 M 54.359375 76.621094 L 54.269531 76.96875 L 54.359375 77.054688 L 55.230469 76.621094 L 54.707031 76.1875 L 54.097656 75.839844 L 54.359375 76.621094 M 41.445312 81.050781 L 42.492188 78.273438 L 43.714844 75.492188 L 40.136719 78.878906 C 38.214844 81.195312 36.472656 84.09375 34.902344 87.566406 L 31.238281 97.207031 L 31.238281 97.296875 L 33.503906 99.03125 L 37.082031 102.679688 L 38.480469 104.332031 L 39.527344 106.242188 L 39.613281 106.414062 L 39.351562 107.542969 C 39.058594 108.125 38.886719 108.328125 38.828125 108.152344 L 36.644531 104.589844 L 36.121094 103.894531 L 35.425781 103.289062 L 34.902344 102.59375 L 34.8125 102.332031 L 32.546875 100.074219 C 30.160156 97.988281 27.425781 96.195312 24.34375 94.6875 C 23.878906 96.832031 22.832031 98.742188 21.203125 100.421875 C 19.574219 102.21875 17.566406 103.519531 15.183594 104.332031 C 16.230469 107.34375 17.683594 110.148438 19.542969 112.757812 C 21.8125 115.941406 24.429688 118.429688 27.398438 120.226562 C 29.375 121.382812 31.5 122.136719 33.765625 122.484375 L 38.214844 121.789062 C 41.996094 120.863281 44.238281 119.414062 44.933594 117.445312 L 45.285156 115.710938 L 44.847656 110.148438 L 43.800781 105.113281 L 42.667969 98.511719 C 42.203125 95.90625 41.589844 93.703125 40.835938 91.910156 C 40.601562 91.386719 40.71875 91.15625 41.183594 91.214844 C 41.589844 91.273438 41.910156 91.503906 42.144531 91.910156 C 42.957031 93.125 43.597656 94.777344 44.0625 96.859375 L 45.109375 102.074219 C 45.867188 106.472656 46.417969 110.324219 46.765625 113.625 L 46.941406 114.925781 L 47.03125 116.578125 L 46.765625 122.917969 L 45.980469 129.605469 L 45.894531 136.207031 C 46.242188 138.292969 47.234375 139.796875 48.863281 140.726562 C 48.453125 139.335938 48.28125 137.714844 48.339844 135.859375 L 48.511719 129.605469 L 48.601562 126.304688 L 48.601562 125.699219 C 48.601562 122.628906 48.339844 117.9375 47.816406 111.628906 C 47.347656 105.257812 47.175781 100.363281 47.292969 96.949219 L 47.816406 89.304688 L 48.949219 84.09375 C 45.691406 86.410156 42.667969 87.074219 39.875 86.089844 L 39.003906 85.222656 L 40.050781 83.050781 L 41.445312 81.050781 M 46.765625 74.363281 L 45.371094 76.710938 L 42.929688 82.617188 L 41.707031 84.527344 L 44.671875 84.441406 C 45.488281 84.148438 46.390625 83.65625 47.378906 82.964844 L 49.910156 80.964844 L 50.695312 80.445312 L 52.351562 78.707031 L 52.613281 76.273438 L 51.742188 75.40625 L 49.910156 74.191406 L 49.386719 74.101562 L 46.765625 74.363281 M 6.980469 80.792969 C 5.933594 80.964844 5.4375 81.371094 5.496094 82.007812 L 5.757812 82.964844 L 5.933594 83.398438 L 7.242188 85.132812 L 10.035156 87.394531 C 10.90625 87.914062 11.691406 88.085938 12.390625 87.914062 C 12.738281 87.796875 13 87.652344 13.175781 87.480469 L 13.4375 86.351562 C 13.261719 85.597656 12.882812 85.078125 12.300781 84.785156 C 12.011719 84.671875 11.984375 84.292969 12.214844 83.65625 L 12.828125 82.789062 C 13.582031 83.078125 14.019531 83.6875 14.136719 84.613281 L 14.398438 84.265625 L 15.09375 83.484375 L 12.5625 82.007812 L 9.25 80.792969 L 6.980469 80.792969 M 14.136719 90.171875 C 14.191406 91.851562 14.863281 92.894531 16.140625 93.300781 C 17.421875 93.761719 18.410156 93.097656 19.109375 91.300781 L 19.632812 90.867188 C 19.75 91.214844 19.71875 91.589844 19.542969 91.996094 L 18.496094 94.167969 C 18.03125 94.863281 17.449219 95.324219 16.753906 95.558594 C 16.113281 95.730469 15.5 95.558594 14.921875 95.035156 L 13.699219 93.386719 L 13.699219 93.300781 L 12.914062 94.515625 L 12.5625 94.863281 C 12.914062 95.269531 13.089844 95.789062 13.089844 96.425781 C 13.144531 97.179688 12.941406 97.988281 12.476562 98.859375 C 11.777344 100.132812 10.730469 100.855469 9.335938 101.03125 L 8.898438 101.03125 L 10.121094 101.726562 C 11.460938 102.417969 12.914062 102.738281 14.484375 102.679688 C 16.8125 102.042969 18.816406 101 20.503906 99.554688 C 21.609375 98.625 22.425781 97.671875 22.949219 96.6875 L 23.121094 95.90625 L 23.820312 93.996094 L 23.820312 93.90625 L 23.90625 93.472656 C 24.140625 91.734375 23.847656 89.96875 23.035156 88.175781 C 21.695312 85.335938 19.601562 84.148438 16.753906 84.613281 C 15.414062 84.785156 14.570312 85.480469 14.222656 86.699219 L 14.136719 90.171875 M 5.148438 84.960938 L 2.617188 85.308594 C 1.6875 85.886719 1.425781 86.667969 1.832031 87.652344 C 2.414062 89.101562 3.75 90.636719 5.847656 92.257812 C 7.765625 93.648438 9.539062 94.226562 11.167969 93.996094 C 12.332031 93.820312 12.855469 93.242188 12.738281 92.257812 C 12.679688 91.445312 12.273438 90.722656 11.515625 90.085938 C 10.644531 90.257812 9.570312 89.796875 8.289062 88.695312 C 6.949219 87.539062 5.933594 86.320312 5.234375 85.046875 L 5.148438 84.960938 M 11.253906 95.730469 L 8.898438 95.90625 C 7.5625 95.671875 6.195312 95.007812 4.800781 93.90625 L 2.007812 91.042969 C 0.667969 93.53125 1.863281 95.847656 5.585938 97.988281 L 6.804688 98.597656 L 6.894531 98.597656 L 10.382812 98.945312 C 10.730469 98.828125 11.140625 98.625 11.605469 98.335938 C 12.070312 97.988281 12.300781 97.671875 12.300781 97.382812 L 11.429688 96.164062 L 11.253906 95.730469 M 51.742188 130.648438 C 51.855469 130.417969 52.0625 130.417969 52.351562 130.648438 L 52.4375 130.648438 L 52.699219 130.476562 L 53.398438 130.734375 C 54.214844 131.488281 54.589844 132.734375 54.53125 134.472656 C 54.589844 136.324219 53.863281 137.078125 52.351562 136.730469 C 51.304688 136.5 50.808594 135.570312 50.867188 133.949219 L 51.742188 130.648438 M 52.089844 133.601562 L 52.003906 134.90625 L 52.265625 136.207031 L 52.789062 135.949219 L 53.3125 135.425781 C 53.601562 134.90625 53.71875 134.355469 53.660156 133.777344 C 53.601562 132.445312 53.3125 131.488281 52.789062 130.910156 L 52.789062 131.082031 L 52.089844 133.601562 M 50.171875 127.523438 L 50.082031 129.085938 L 49.820312 135.6875 L 49.820312 137.164062 C 51.683594 138.148438 53.542969 139.046875 55.40625 139.855469 L 55.582031 136.730469 L 55.40625 129.78125 L 55.316406 129.695312 L 50.171875 127.523438 M 52.175781 81.832031 L 52.003906 81.921875 C 50.722656 83.773438 49.9375 86.410156 49.648438 89.824219 L 49.386719 99.726562 L 49.648438 108.761719 L 49.648438 107.890625 L 51.480469 88.433594 L 52.003906 83.398438 L 52.175781 81.832031 M 23.820312 200.226562 L 23.210938 200.660156 L 23.210938 200.746094 C 23.441406 201.210938 24.023438 201.613281 24.953125 201.960938 L 27.046875 202.65625 C 32.632812 204.972656 37.488281 205.203125 41.621094 203.351562 L 44.410156 201.613281 C 45.808594 200.804688 46.738281 200.660156 47.203125 201.179688 L 47.640625 202.222656 L 48.25 203.179688 L 49.996094 203.089844 L 51.828125 202.570312 C 52.992188 202.222656 54.417969 201.671875 56.105469 200.917969 L 55.582031 199.355469 C 55.054688 197.734375 54.679688 196.980469 54.445312 197.097656 L 51.042969 198.488281 C 45.515625 200.226562 40.398438 199.734375 35.6875 197.011719 C 31.441406 197.53125 27.980469 198.371094 25.304688 199.53125 L 23.820312 200.226562 "/>
<path style=" stroke:none;fill-rule:nonzero;fill:rgb(100%,100%,100%);fill-opacity:1;" d="M 91.441406 16.601562 L 92.664062 21.898438 L 93.882812 27.546875 L 88.996094 26.15625 L 78.003906 24.679688 L 66.921875 24.679688 L 56.976562 24.851562 L 47.554688 24.417969 L 48.949219 19.554688 C 49.761719 17.296875 50.898438 15.414062 52.351562 13.910156 L 57.585938 8.351562 L 59.507812 5.917969 L 61.6875 3.746094 L 66.488281 3.660156 L 72.246094 5.398438 L 77.742188 7.914062 C 78.148438 8.089844 79.921875 8.753906 83.066406 9.914062 L 88.300781 12.257812 C 89.695312 13.070312 90.742188 14.515625 91.441406 16.601562 M 77.917969 10.175781 C 73.902344 8.785156 70.53125 8.058594 67.796875 8.003906 C 66.457031 8.003906 65.613281 8.320312 65.265625 8.957031 C 64.917969 9.652344 65.121094 10.464844 65.875 11.390625 C 66.804688 12.605469 68.230469 13.765625 70.152344 14.863281 L 75.039062 17.296875 C 77.714844 18.570312 80.300781 19.699219 82.804688 20.683594 L 82.542969 19.730469 C 76.433594 17.296875 71.632812 14.953125 68.144531 12.691406 C 66.339844 11.535156 65.441406 10.695312 65.441406 10.175781 C 65.441406 9.074219 66.804688 8.726562 69.539062 9.132812 C 71.808594 9.304688 74.6875 9.941406 78.179688 11.042969 L 78.179688 10.609375 L 77.917969 10.175781 M 72.945312 35.972656 L 71.632812 33.714844 L 71.023438 33.367188 L 70.414062 33.625 C 69.308594 34.378906 68.8125 34.929688 68.929688 35.277344 L 69.628906 35.796875 L 71.023438 36.925781 C 72.417969 38.492188 73.292969 39.300781 73.640625 39.359375 C 73.992188 38.722656 73.757812 37.59375 72.945312 35.972656 M 74.253906 26.589844 L 86.117188 27.460938 C 92.75 28.386719 99.089844 30.875 105.140625 34.929688 C 111.828125 39.386719 115.699219 43.847656 116.746094 48.304688 C 117.152344 49.984375 116.6875 51.402344 115.347656 52.5625 C 114.359375 53.429688 112.875 54.152344 110.898438 54.734375 L 100.601562 56.382812 C 97.867188 56.558594 94.757812 56.527344 91.265625 56.296875 L 91.003906 55.167969 L 90.308594 53.605469 L 93.449219 53.257812 C 94.960938 52.910156 95.863281 52.15625 96.152344 51 C 96.445312 49.898438 96.09375 48.304688 95.105469 46.222656 C 93.941406 43.613281 91.992188 41.152344 89.257812 38.835938 C 86.992188 36.867188 84.316406 35.160156 81.234375 33.714844 C 76.636719 31.570312 71.257812 30.296875 65.089844 29.890625 L 48.339844 30.847656 L 43.886719 32.0625 C 42.085938 32.757812 40.921875 33.714844 40.398438 34.929688 C 39.992188 35.972656 40.136719 37.390625 40.835938 39.183594 L 42.492188 42.226562 L 41.882812 44.746094 C 40.3125 43.644531 38.566406 41.589844 36.644531 38.578125 C 34.726562 35.507812 32.953125 33.480469 31.324219 32.496094 L 27.832031 30.671875 L 24.429688 28.761719 L 23.035156 27.460938 C 22.628906 26.9375 22.597656 26.386719 22.949219 25.808594 C 23.296875 25.171875 24.199219 24.707031 25.652344 24.417969 L 35.25 23.984375 L 44.671875 25.722656 L 47.03125 26.070312 L 47.117188 26.070312 L 62.472656 26.675781 L 74.253906 26.589844 M 84.808594 37.273438 L 91.617188 42.660156 L 90.480469 46.480469 C 89.957031 44.050781 88.824219 41.964844 87.078125 40.226562 L 83.675781 37.449219 L 84.285156 37.015625 L 84.808594 37.273438 M 82.191406 36.667969 C 81.550781 37.070312 81.523438 37.449219 82.105469 37.796875 L 86.207031 40.75 C 88.472656 42.949219 89.609375 45.410156 89.609375 48.132812 C 88.621094 45.929688 87.457031 44.050781 86.117188 42.484375 L 82.628906 39.359375 L 82.28125 39.273438 C 81.988281 39.273438 81.8125 39.386719 81.757812 39.621094 C 81.699219 39.851562 81.785156 40.023438 82.019531 40.140625 L 85.332031 43.179688 L 87.949219 46.65625 L 89.433594 49.433594 L 89.257812 50.476562 L 87.863281 47.871094 L 85.59375 44.832031 L 82.714844 42.746094 L 82.542969 42.746094 L 82.105469 43.179688 C 82.105469 43.527344 82.308594 43.816406 82.714844 44.050781 L 84.808594 45.699219 L 87.515625 49 L 88.996094 51.347656 L 88.996094 51.519531 C 88.824219 51.578125 88.792969 51.78125 88.910156 52.128906 L 88.996094 52.300781 L 87.515625 51.78125 L 87.6875 52.386719 C 89.785156 54.007812 90.308594 55.976562 89.257812 58.292969 C 88.269531 60.609375 86.527344 61.769531 84.023438 61.769531 L 83.414062 61.769531 C 80.738281 66.402344 77.507812 69.933594 73.730469 72.367188 L 73.117188 72.972656 C 73.175781 73.148438 73.378906 73.234375 73.730469 73.234375 C 74.949219 73.234375 76.375 72.683594 78.003906 71.585938 C 77.714844 73.726562 76.199219 75.667969 73.46875 77.402344 C 70.90625 78.96875 68.40625 79.75 65.964844 79.75 C 64.859375 79.75 63.957031 79.515625 63.257812 79.054688 L 63.519531 79.140625 L 66.398438 78.53125 C 67.738281 78.128906 68.347656 77.808594 68.230469 77.578125 L 68.058594 77.492188 L 67.097656 77.664062 L 65.179688 77.75 C 63.082031 77.75 60.757812 77.257812 58.199219 76.273438 L 55.230469 74.277344 L 52.4375 72.972656 C 49.355469 70.601562 46.941406 67.386719 45.195312 63.332031 C 42.753906 57.714844 42.171875 51.894531 43.453125 45.875 C 44.265625 42.167969 45.808594 38.460938 48.078125 34.753906 C 49.125 34.582031 50.257812 34.003906 51.480469 33.019531 L 52.089844 32.324219 L 52.4375 32.238281 L 59.246094 31.890625 C 65.46875 31.773438 70.847656 32.265625 75.386719 33.367188 C 78.0625 34.058594 80.59375 35.015625 82.976562 36.230469 L 82.191406 36.667969 M 99.121094 70.976562 C 104.9375 73.988281 110.054688 78.097656 114.476562 83.308594 C 116.917969 86.320312 118.984375 89.535156 120.671875 92.953125 C 121.949219 95.671875 122.824219 98.425781 123.289062 101.203125 C 123.8125 104.5625 123.667969 107.371094 122.851562 109.628906 C 121.863281 112.351562 119.945312 115.101562 117.09375 117.882812 L 109.152344 124.136719 C 108.046875 124.886719 106.566406 125.726562 104.703125 126.652344 L 104.703125 126.742188 L 103.21875 124.136719 L 98.945312 119.792969 L 95.714844 117.621094 C 96.414062 116.058594 97.546875 114.347656 99.121094 112.496094 L 103.480469 107.804688 L 104.441406 106.589844 L 104.703125 106.414062 L 104.703125 106.328125 L 107.84375 103.722656 L 110.550781 100.59375 C 110.664062 100.363281 110.402344 100.25 109.765625 100.25 L 108.457031 100.335938 L 108.367188 100.507812 L 104.265625 104.503906 L 102.609375 106.328125 C 102.027344 106.386719 100.484375 105.113281 97.984375 102.507812 L 93.359375 97.46875 L 92.140625 97.121094 C 91.5 97.121094 91.179688 97.296875 91.179688 97.640625 L 91.265625 97.730469 C 91.558594 100.21875 92.140625 103.460938 93.011719 107.457031 L 94.058594 111.714844 C 94.464844 113.507812 94.378906 114.839844 93.796875 115.710938 L 93.621094 116.058594 L 93.449219 115.363281 L 92.664062 113.449219 C 91.265625 112.121094 89.113281 112.089844 86.207031 113.363281 C 83.296875 114.636719 81.929688 118.375 82.105469 124.570312 L 81.929688 124.742188 L 80.097656 127 C 79.75 127.695312 79.605469 128.621094 79.660156 129.78125 C 79.777344 130.9375 80.128906 131.777344 80.707031 132.300781 C 81.117188 132.589844 81.699219 132.792969 82.453125 132.90625 L 83.761719 132.734375 L 84.984375 132.214844 L 85.246094 132.648438 C 85.246094 133.574219 85.332031 134.296875 85.507812 134.820312 C 85.855469 135.570312 86.378906 135.976562 87.078125 136.035156 L 89.695312 135.773438 L 90.917969 135.078125 L 91.527344 135.339844 C 93.097656 137.019531 95.105469 137.425781 97.546875 136.554688 L 97.984375 138.207031 C 98.101562 139.015625 97.722656 139.710938 96.851562 140.289062 C 93.59375 142.375 89.753906 143.824219 85.332031 144.632812 C 83.238281 145.214844 81.378906 144.867188 79.75 143.589844 L 79.226562 135.773438 L 78.613281 126.828125 C 78.789062 120.285156 79.226562 112.523438 79.921875 103.550781 C 80.214844 99.265625 80.679688 95.152344 81.320312 91.214844 C 81.667969 88.839844 81.320312 86.265625 80.273438 83.484375 L 83.5 85.828125 C 86.003906 87.277344 88.824219 87.742188 91.964844 87.21875 C 94.699219 86.8125 97.375 85.714844 99.992188 83.917969 L 100.339844 83.398438 L 99.90625 82.875 C 97.402344 81.660156 95.453125 79.515625 94.058594 76.449219 L 90.046875 68.632812 L 89.609375 68.109375 L 91.09375 68.285156 L 91.878906 68.457031 L 92.140625 68.542969 L 94.320312 69.066406 L 95.542969 69.414062 L 99.121094 70.976562 M 60.203125 66.894531 L 59.507812 66.71875 L 55.84375 67.15625 L 55.40625 67.328125 L 55.753906 67.675781 L 57.238281 68.457031 L 58.984375 68.632812 L 59.855469 68.457031 L 60.464844 68.023438 L 60.640625 67.414062 L 60.203125 66.894531 M 58.722656 59.421875 C 58.371094 58.730469 57.964844 58.382812 57.5 58.382812 L 56.277344 59.335938 C 55.871094 60.03125 55.667969 60.871094 55.667969 61.855469 C 55.609375 62.839844 55.753906 63.679688 56.105469 64.375 C 56.453125 65.070312 56.859375 65.417969 57.324219 65.417969 L 58.632812 64.460938 L 59.15625 61.941406 C 59.214844 60.957031 59.070312 60.117188 58.722656 59.421875 M 59.855469 44.136719 L 60.292969 42.660156 C 60.464844 42.136719 60.40625 41.847656 60.117188 41.792969 C 59.769531 41.734375 59.507812 41.964844 59.332031 42.484375 L 57.585938 45.960938 L 54.183594 50.476562 C 53.777344 50.941406 53.746094 51.402344 54.097656 51.867188 L 56.015625 54.734375 C 56.367188 55.140625 56.832031 55.3125 57.414062 55.253906 L 58.109375 55.082031 L 58.546875 54.734375 L 58.460938 54.125 L 56.800781 51.953125 C 56.511719 51.492188 56.480469 51.027344 56.714844 50.5625 L 58.546875 47.089844 L 59.855469 44.136719 M 70.585938 44.570312 C 70.644531 43.761719 70.5 43.035156 70.152344 42.398438 L 69.105469 41.53125 C 68.640625 41.53125 68.230469 41.820312 67.882812 42.398438 L 67.359375 44.484375 C 67.359375 45.292969 67.503906 45.988281 67.796875 46.570312 C 68.085938 47.148438 68.464844 47.4375 68.929688 47.4375 L 70.0625 46.570312 L 70.585938 44.570312 M 82.367188 50.476562 L 82.976562 50.910156 L 83.589844 51.953125 L 84.113281 52.386719 C 84.519531 52.445312 84.695312 52.214844 84.636719 51.691406 L 83.9375 50.390625 C 83.589844 49.984375 83.238281 49.695312 82.890625 49.523438 L 82.714844 49.433594 L 82.191406 49.867188 L 82.367188 50.476562 M 82.628906 46.132812 L 82.105469 46.570312 C 81.988281 46.800781 82.105469 47.03125 82.453125 47.261719 L 84.199219 48.390625 L 85.332031 49.695312 L 86.292969 50.5625 L 86.378906 50.390625 L 85.945312 49.175781 L 84.898438 47.699219 L 82.804688 46.132812 L 82.628906 46.132812 M 58.808594 80.007812 L 61.164062 84.265625 C 61.980469 85.886719 62.328125 87.480469 62.210938 89.042969 L 58.894531 126.046875 L 58.808594 126.304688 L 58.460938 126.304688 L 56.105469 126.914062 L 55.753906 127.4375 L 52.789062 126.304688 L 51.21875 125.699219 L 50.695312 125.523438 L 50.433594 121.789062 L 51.21875 108.933594 L 52.875 90.695312 L 53.660156 84.960938 L 53.746094 80.878906 L 53.746094 80.792969 L 56.714844 78.707031 L 57.238281 78.1875 L 58.808594 80.007812 M 86.992188 67.847656 L 88.824219 70.367188 L 91.964844 77.492188 C 93.300781 80.039062 95.222656 81.980469 97.722656 83.308594 C 92.023438 86.667969 86.875 86.609375 82.28125 83.136719 L 79.75 80.703125 L 80.273438 75.230469 L 80.445312 73.753906 C 81.496094 72.191406 82.484375 70.222656 83.414062 67.847656 L 83.761719 67.589844 L 86.992188 67.847656 M 75.996094 79.835938 L 77.132812 81.398438 L 77.480469 81.921875 L 76.78125 85.742188 L 75.910156 94.082031 L 75.5625 102.246094 C 75.386719 108.035156 75.5625 115.128906 76.085938 123.527344 L 76.433594 128.21875 L 76.347656 129.433594 L 76.433594 130.476562 L 76.085938 130.734375 L 69.453125 130.910156 L 67.011719 130.910156 L 67.011719 130.824219 L 67.097656 128.390625 C 67.039062 127.347656 66.691406 126.683594 66.050781 126.394531 L 62.296875 125.957031 L 61.339844 126.132812 L 61.511719 122.832031 L 62.125 119.617188 L 63.257812 108.847656 L 64.480469 98.164062 C 65.585938 91.734375 67.125 87.160156 69.105469 84.441406 C 69.976562 83.109375 71.519531 81.660156 73.730469 80.097656 L 75.386719 78.707031 C 75.503906 79.054688 75.707031 79.429688 75.996094 79.835938 M 78.527344 76.101562 L 78.003906 78.621094 L 77.394531 77.839844 L 76.871094 77.578125 L 78.527344 76.101562 M 89.085938 77.925781 C 89.785156 77.867188 90.015625 77.605469 89.785156 77.144531 C 89.609375 76.679688 89.203125 76.507812 88.5625 76.621094 C 87.863281 76.679688 87.632812 76.941406 87.863281 77.402344 C 88.097656 77.808594 88.503906 77.984375 89.085938 77.925781 M 78.875 86.089844 C 79.285156 88.234375 79.285156 90.519531 78.875 92.953125 C 78.46875 95.09375 78.148438 97.699219 77.917969 100.769531 L 77.917969 101.378906 L 78.003906 97.730469 L 78.351562 91.300781 L 78.875 86.089844 M 64.304688 90.171875 L 64.480469 87.914062 C 64.539062 86.410156 64.101562 84.875 63.171875 83.308594 L 61.773438 81.140625 L 65.527344 81.660156 L 69.191406 81.3125 C 67.097656 83.28125 65.703125 85.425781 65.003906 87.742188 L 64.304688 90.171875 M 65.265625 98.859375 C 65.554688 99.207031 65.90625 99.378906 66.3125 99.378906 L 67.359375 99.03125 L 67.707031 97.296875 L 67.183594 96.773438 L 66.398438 96.601562 C 65.816406 96.65625 65.527344 96.917969 65.527344 97.382812 C 65.0625 97.496094 64.917969 97.757812 65.089844 98.164062 L 65.265625 98.859375 M 66.398438 112.84375 C 66.457031 112.265625 66.136719 112.003906 65.441406 112.0625 C 64.742188 112.0625 64.394531 112.351562 64.394531 112.929688 L 64.480469 115.101562 L 65.089844 115.796875 L 65.964844 115.710938 L 66.835938 114.667969 L 66.835938 113.886719 L 66.398438 113.191406 L 66.398438 112.84375 M 91.617188 116.578125 C 91.90625 116.984375 92.402344 117.390625 93.097656 117.792969 C 92.925781 119.011719 92.984375 120.515625 93.273438 122.3125 L 95.019531 128.738281 L 96.851562 134.558594 L 96.675781 134.644531 L 94.144531 134.90625 L 92.226562 133.863281 L 91.003906 133.601562 L 89.871094 133.949219 C 88.300781 134.644531 87.457031 134.789062 87.339844 134.382812 C 87.222656 134.09375 87.195312 133.632812 87.253906 132.996094 L 87.164062 131.605469 C 87.050781 131.199219 86.699219 130.910156 86.117188 130.734375 L 83.761719 130.910156 L 81.929688 130.734375 C 81.8125 129.808594 81.84375 129.085938 82.019531 128.566406 L 83.238281 126.742188 L 89.785156 119.617188 C 90.074219 119.269531 89.929688 118.894531 89.347656 118.488281 L 87.949219 118.402344 L 84.199219 122.222656 L 84.636719 119.878906 C 85.042969 118.027344 85.828125 116.492188 86.992188 115.273438 C 87.457031 114.753906 88.210938 114.378906 89.257812 114.144531 C 90.539062 113.855469 91.265625 114.203125 91.441406 115.1875 L 91.527344 115.882812 L 91.617188 116.578125 M 95.628906 119.011719 C 97.375 119.996094 99.03125 121.382812 100.601562 123.179688 C 101.765625 124.570312 102.523438 125.871094 102.871094 127.089844 L 101.300781 126.566406 L 98.859375 123.875 L 96.414062 121.179688 C 95.773438 120.3125 95.425781 119.558594 95.367188 118.921875 L 95.628906 119.011719 M 102.957031 129 C 101.851562 131.027344 100.484375 132.558594 98.859375 133.601562 C 97.34375 129.257812 96.5 126.652344 96.328125 125.785156 L 95.714844 122.917969 C 97.285156 125.0625 98.625 126.539062 99.730469 127.347656 C 100.601562 128.042969 101.707031 128.332031 103.046875 128.21875 L 102.957031 129 M 99.90625 140.117188 L 100.515625 142.636719 C 101.214844 145.820312 101.535156 148.601562 101.476562 150.976562 C 101.476562 156.648438 100.195312 161.773438 97.636719 166.347656 C 94.960938 170.980469 91.878906 174.457031 88.386719 176.773438 L 87.863281 177.726562 L 87.863281 178.769531 C 90.191406 181.609375 91.847656 185.054688 92.835938 189.105469 C 93.710938 192.464844 93.972656 195.765625 93.621094 199.007812 L 93.359375 199.53125 L 93.359375 199.617188 C 91.09375 200.890625 88.503906 201.703125 85.59375 202.046875 L 76.609375 201.441406 L 76.609375 201.355469 L 76.519531 201.355469 C 73.613281 200.832031 71.257812 198.3125 69.453125 193.796875 C 67.882812 189.800781 66.921875 185.515625 66.574219 180.941406 L 66.398438 177.554688 L 66.574219 176.425781 L 66.488281 175.902344 L 66.660156 173.125 C 66.894531 171.097656 67.332031 168.492188 67.96875 165.308594 L 68.929688 159.140625 C 69.105469 156.824219 68.902344 154.769531 68.320312 152.972656 L 67.796875 153.40625 L 67.535156 154.621094 C 68.289062 156.9375 68.378906 159.890625 67.796875 163.484375 L 66.050781 172.34375 L 65.527344 177.554688 L 63.867188 181.117188 L 61.863281 186.328125 L 59.59375 191.539062 C 58.3125 193.738281 56.917969 194.78125 55.40625 194.664062 L 54.882812 195.1875 L 54.792969 195.101562 C 51.886719 196.664062 48.773438 197.445312 45.457031 197.445312 C 42.144531 197.445312 39.089844 196.664062 36.296875 195.101562 C 36.007812 187.457031 36.9375 179.464844 39.089844 171.125 L 41.707031 163.394531 C 42.988281 159.980469 43.859375 157.402344 44.324219 155.664062 C 45.371094 151.960938 46.15625 147.992188 46.679688 143.765625 L 47.03125 140.984375 L 50.082031 142.808594 L 50.605469 142.722656 L 50.605469 142.027344 L 50.082031 139.597656 C 52.117188 140.695312 54.15625 141.652344 56.191406 142.460938 L 56.277344 142.550781 L 56.800781 142.722656 C 63.316406 145.445312 69.394531 146.863281 75.039062 146.980469 C 78.296875 147.09375 81.609375 146.660156 84.984375 145.675781 L 86.730469 145.15625 C 89.113281 144.75 91.789062 143.9375 94.757812 142.722656 C 97.375 141.621094 99.089844 140.753906 99.90625 140.117188 M 75.910156 133.515625 L 75.824219 133.515625 L 75.300781 133.34375 C 74.777344 134.382812 74.570312 136.003906 74.6875 138.207031 C 74.6875 138.726562 74.863281 139.277344 75.210938 139.855469 C 75.621094 140.492188 76.085938 140.78125 76.609375 140.726562 C 76.957031 140.667969 77.191406 140.320312 77.304688 139.683594 L 77.65625 144.722656 L 77.917969 144.980469 L 72.945312 144.808594 C 69.800781 144.402344 66.632812 143.738281 63.433594 142.808594 L 64.742188 142.636719 C 65.847656 142.636719 66.542969 142.347656 66.835938 141.769531 L 67.011719 139.335938 L 67.011719 132.558594 L 69.191406 132.558594 L 76.695312 132.125 L 77.042969 136.207031 L 76.433594 134.035156 L 75.910156 133.515625 M 75.824219 139.769531 C 75.648438 139.597656 75.53125 138.988281 75.472656 137.945312 C 75.472656 136.441406 75.648438 135.3125 75.996094 134.558594 L 76.257812 136.46875 L 76.257812 139.335938 C 76.257812 139.855469 76.113281 140 75.824219 139.769531 M 68.582031 133.691406 C 68.058594 134.675781 67.855469 136.265625 67.96875 138.46875 C 67.96875 139.105469 68.144531 139.683594 68.492188 140.203125 C 68.84375 140.78125 69.277344 141.074219 69.800781 141.074219 C 70.441406 140.898438 70.644531 139.855469 70.414062 137.945312 L 69.714844 134.382812 L 69.105469 133.863281 L 69.105469 133.777344 L 68.582031 133.691406 M 72.59375 134.210938 L 72.507812 134.210938 L 71.984375 134.035156 C 71.34375 135.195312 71.109375 136.816406 71.285156 138.902344 L 71.808594 140.550781 C 72.214844 141.1875 72.683594 141.476562 73.207031 141.421875 C 73.902344 141.304688 74.105469 140.289062 73.816406 138.378906 L 73.03125 134.730469 L 72.59375 134.210938 M 65.964844 130.824219 L 64.917969 130.824219 L 64.828125 130.300781 L 64.132812 128.914062 L 61.601562 128.738281 L 60.902344 128.824219 L 61.25 126.828125 L 61.601562 126.828125 L 64.566406 127 C 65.441406 127.234375 65.90625 127.929688 65.964844 129.085938 L 65.964844 130.824219 M 58.722656 126.828125 L 58.546875 127.78125 L 58.460938 128.390625 L 57.847656 128.21875 L 56.800781 127.871094 C 57.09375 127.347656 57.585938 127 58.285156 126.828125 L 58.722656 126.828125 M 60.726562 129.433594 L 61.339844 129.433594 L 63.082031 129.605469 L 63.695312 130.734375 L 61.601562 130.476562 C 61.136719 130.417969 60.84375 130.070312 60.726562 129.433594 M 58.546875 130.734375 C 58.835938 131.140625 59.507812 131.488281 60.554688 131.777344 L 63.695312 132.300781 L 63.695312 137.859375 L 63.78125 138.8125 L 63.34375 139.507812 L 59.769531 139.507812 C 59.011719 139.566406 58.632812 139.394531 58.632812 138.988281 L 58.460938 137.164062 L 58.546875 135.949219 L 58.632812 135.949219 L 60.640625 135.6875 L 61.863281 134.382812 L 61.773438 132.558594 L 61.25 132.734375 L 60.902344 133.253906 L 61.164062 134.558594 L 60.203125 135.253906 L 58.546875 134.992188 L 58.546875 133.253906 L 60.640625 133.082031 L 61.078125 132.820312 L 61.25 132.472656 L 58.546875 132.734375 L 58.546875 130.734375 M 57.414062 130.996094 L 57.414062 133.082031 L 56.628906 133.777344 L 56.539062 134.035156 L 56.453125 130.128906 L 57.5 130.390625 L 57.414062 130.996094 M 64.742188 137.683594 L 64.742188 132.386719 L 65.964844 132.472656 L 65.964844 140.898438 C 65.847656 141.652344 65.441406 142.058594 64.742188 142.113281 L 61.511719 142.203125 L 58.894531 142.289062 C 57.617188 142.230469 56.890625 141.882812 56.714844 141.246094 L 56.628906 138.988281 L 56.539062 134.472656 L 56.890625 134.992188 L 57.414062 135.511719 L 57.414062 137.859375 C 57.414062 138.785156 57.558594 139.480469 57.847656 139.945312 C 57.964844 140.117188 58.226562 140.203125 58.632812 140.203125 L 59.507812 140.203125 L 63.34375 140.03125 C 64.042969 140.03125 64.480469 139.796875 64.65625 139.335938 L 64.742188 137.683594 M 72.945312 139.945312 C 72.886719 140.523438 72.710938 140.695312 72.417969 140.464844 C 72.246094 140.289062 72.15625 139.683594 72.15625 138.640625 C 72.15625 137.136719 72.304688 136.003906 72.59375 135.253906 L 72.945312 137.164062 L 72.945312 139.945312 M 68.667969 138.292969 L 69.191406 134.820312 L 69.539062 136.816406 L 69.453125 139.683594 L 69.105469 140.03125 C 68.871094 139.914062 68.726562 139.335938 68.667969 138.292969 M 65.875 208.824219 L 70.9375 205.957031 L 76.085938 203.4375 L 83.675781 204.132812 C 86.292969 203.960938 88.792969 203.378906 91.179688 202.394531 L 93.273438 201.355469 L 93.621094 201.007812 C 94.785156 202.046875 95.28125 203.207031 95.105469 204.480469 C 94.871094 205.929688 94 207.085938 92.488281 207.957031 L 89.785156 209.519531 L 87.164062 210.472656 L 86.117188 209.257812 L 85.160156 207.957031 C 84.695312 207.550781 83.878906 207.867188 82.714844 208.910156 L 80.707031 211.082031 L 79.398438 212.296875 L 77.65625 212.992188 L 71.808594 214.296875 C 68.261719 214.816406 65.613281 214.789062 63.867188 214.210938 C 62.878906 213.917969 62.242188 213.574219 61.949219 213.167969 C 61.308594 212.296875 62.617188 210.851562 65.875 208.824219 M 109.066406 202.65625 L 109.242188 201.789062 C 117.792969 199.355469 123.519531 195.070312 126.429688 188.933594 L 127.738281 188.933594 L 127.914062 189.539062 L 128 191.105469 L 126.777344 193.101562 L 123.375 197.269531 C 119.421875 201.152344 115.058594 203.089844 110.289062 203.089844 C 109.414062 203.089844 109.007812 202.945312 109.066406 202.65625 M 104.878906 197.011719 L 105.050781 196.316406 C 106.914062 195.332031 109.910156 192.929688 114.039062 189.105469 C 116.714844 186.617188 118.75 185.921875 120.148438 187.023438 C 119.449219 188.355469 117.878906 190.234375 115.4375 192.667969 C 112.003906 195.96875 109.035156 197.617188 106.535156 197.617188 L 104.878906 197.359375 L 104.878906 197.011719 M 43.277344 23.722656 L 44.671875 21.988281 C 44.558594 22.855469 44.730469 23.550781 45.195312 24.070312 L 43.277344 23.722656 M 42.578125 36.492188 L 42.578125 35.363281 C 43.160156 34.84375 43.976562 34.40625 45.023438 34.058594 L 46.417969 34.667969 L 43.886719 39.445312 L 42.578125 36.492188 M 47.03125 33.625 L 46.242188 33.539062 L 49.996094 32.671875 C 49.007812 33.308594 48.019531 33.625 47.03125 33.625 M 49.472656 42.484375 L 48.949219 44.570312 L 49.386719 46.65625 C 49.675781 47.234375 50.023438 47.523438 50.433594 47.523438 C 50.898438 47.523438 51.304688 47.261719 51.652344 46.742188 L 52.175781 44.65625 C 52.175781 43.789062 52.03125 43.09375 51.742188 42.574219 C 51.449219 41.992188 51.070312 41.675781 50.605469 41.617188 C 50.199219 41.617188 49.820312 41.90625 49.472656 42.484375 M 52.4375 34.234375 L 51.914062 34.753906 L 51.566406 35.539062 L 51.566406 36.320312 L 52.175781 36.839844 L 55.492188 37.796875 L 56.015625 37.796875 L 55.84375 37.359375 L 53.136719 34.496094 L 52.4375 34.234375 M 46.765625 74.363281 L 49.386719 74.101562 L 49.910156 74.191406 L 51.742188 75.40625 L 52.613281 76.273438 L 52.351562 78.707031 L 50.695312 80.445312 L 49.910156 80.964844 L 47.378906 82.964844 C 46.390625 83.65625 45.488281 84.148438 44.671875 84.441406 L 41.707031 84.527344 L 42.929688 82.617188 L 45.371094 76.710938 L 46.765625 74.363281 M 41.445312 81.050781 L 40.050781 83.050781 L 39.003906 85.222656 L 39.875 86.089844 C 42.667969 87.074219 45.691406 86.410156 48.949219 84.09375 L 47.816406 89.304688 L 47.292969 96.949219 C 47.175781 100.363281 47.347656 105.257812 47.816406 111.628906 C 48.339844 117.9375 48.601562 122.628906 48.601562 125.699219 L 48.601562 126.304688 L 48.511719 129.605469 L 48.339844 135.859375 C 48.28125 137.714844 48.453125 139.335938 48.863281 140.726562 C 47.234375 139.796875 46.242188 138.292969 45.894531 136.207031 L 45.980469 129.605469 L 46.765625 122.917969 L 47.03125 116.578125 L 46.941406 114.925781 L 46.765625 113.625 C 46.417969 110.324219 45.867188 106.472656 45.109375 102.074219 L 44.0625 96.859375 C 43.597656 94.777344 42.957031 93.125 42.144531 91.910156 C 41.910156 91.503906 41.589844 91.273438 41.183594 91.214844 C 40.71875 91.15625 40.601562 91.386719 40.835938 91.910156 C 41.589844 93.703125 42.203125 95.90625 42.667969 98.511719 L 43.800781 105.113281 L 44.847656 110.148438 L 45.285156 115.710938 L 44.933594 117.445312 C 44.238281 119.414062 41.996094 120.863281 38.214844 121.789062 L 33.765625 122.484375 C 31.5 122.136719 29.375 121.382812 27.398438 120.226562 C 24.429688 118.429688 21.8125 115.941406 19.542969 112.757812 C 17.683594 110.148438 16.230469 107.34375 15.183594 104.332031 C 17.566406 103.519531 19.574219 102.21875 21.203125 100.421875 C 22.832031 98.742188 23.878906 96.832031 24.34375 94.6875 C 27.425781 96.195312 30.160156 97.988281 32.546875 100.074219 L 34.8125 102.332031 L 34.902344 102.59375 L 35.425781 103.289062 L 36.121094 103.894531 L 36.644531 104.589844 L 38.828125 108.152344 C 38.886719 108.328125 39.058594 108.125 39.351562 107.542969 L 39.613281 106.414062 L 39.527344 106.242188 L 38.480469 104.332031 L 37.082031 102.679688 L 33.503906 99.03125 L 31.238281 97.296875 L 31.238281 97.207031 L 34.902344 87.566406 C 36.472656 84.09375 38.214844 81.195312 40.136719 78.878906 L 43.714844 75.492188 L 42.492188 78.273438 L 41.445312 81.050781 M 54.359375 76.621094 L 54.097656 75.839844 L 54.707031 76.1875 L 55.230469 76.621094 L 54.359375 77.054688 L 54.269531 76.96875 L 54.359375 76.621094 M 11.253906 95.730469 L 11.429688 96.164062 L 12.300781 97.382812 C 12.300781 97.671875 12.070312 97.988281 11.605469 98.335938 C 11.140625 98.625 10.730469 98.828125 10.382812 98.945312 L 6.894531 98.597656 L 6.804688 98.597656 L 5.585938 97.988281 C 1.863281 95.847656 0.667969 93.53125 2.007812 91.042969 L 4.800781 93.90625 C 6.195312 95.007812 7.5625 95.671875 8.898438 95.90625 L 11.253906 95.730469 M 5.148438 84.960938 L 5.234375 85.046875 C 5.933594 86.320312 6.949219 87.539062 8.289062 88.695312 C 9.570312 89.796875 10.644531 90.257812 11.515625 90.085938 C 12.273438 90.722656 12.679688 91.445312 12.738281 92.257812 C 12.855469 93.242188 12.332031 93.820312 11.167969 93.996094 C 9.539062 94.226562 7.765625 93.648438 5.847656 92.257812 C 3.75 90.636719 2.414062 89.101562 1.832031 87.652344 C 1.425781 86.667969 1.6875 85.886719 2.617188 85.308594 L 5.148438 84.960938 M 14.136719 90.171875 L 14.222656 86.699219 C 14.570312 85.480469 15.414062 84.785156 16.753906 84.613281 C 19.601562 84.148438 21.695312 85.335938 23.035156 88.175781 C 23.847656 89.96875 24.140625 91.734375 23.90625 93.472656 L 23.820312 93.90625 L 23.820312 93.996094 L 23.121094 95.90625 L 22.949219 96.6875 C 22.425781 97.671875 21.609375 98.625 20.503906 99.554688 C 18.816406 101 16.8125 102.042969 14.484375 102.679688 C 12.914062 102.738281 11.460938 102.417969 10.121094 101.726562 L 8.898438 101.03125 L 9.335938 101.03125 C 10.730469 100.855469 11.777344 100.132812 12.476562 98.859375 C 12.941406 97.988281 13.144531 97.179688 13.089844 96.425781 C 13.089844 95.789062 12.914062 95.269531 12.5625 94.863281 L 12.914062 94.515625 L 13.699219 93.300781 L 13.699219 93.386719 L 14.921875 95.035156 C 15.5 95.558594 16.113281 95.730469 16.753906 95.558594 C 17.449219 95.324219 18.03125 94.863281 18.496094 94.167969 L 19.542969 91.996094 C 19.71875 91.589844 19.75 91.214844 19.632812 90.867188 L 19.109375 91.300781 C 18.410156 93.097656 17.421875 93.761719 16.140625 93.300781 C 14.863281 92.894531 14.191406 91.851562 14.136719 90.171875 M 6.980469 80.792969 L 9.25 80.792969 L 12.5625 82.007812 L 15.09375 83.484375 L 14.398438 84.265625 L 14.136719 84.613281 C 14.019531 83.6875 13.582031 83.078125 12.828125 82.789062 L 12.214844 83.65625 C 11.984375 84.292969 12.011719 84.671875 12.300781 84.785156 C 12.882812 85.078125 13.261719 85.597656 13.4375 86.351562 L 13.175781 87.480469 C 13 87.652344 12.738281 87.796875 12.390625 87.914062 C 11.691406 88.085938 10.90625 87.914062 10.035156 87.394531 L 7.242188 85.132812 L 5.933594 83.398438 L 5.757812 82.964844 L 5.496094 82.007812 C 5.4375 81.371094 5.933594 80.964844 6.980469 80.792969 M 52.175781 81.832031 L 52.003906 83.398438 L 51.480469 88.433594 L 49.648438 107.890625 L 49.648438 108.761719 L 49.386719 99.726562 L 49.648438 89.824219 C 49.9375 86.410156 50.722656 83.773438 52.003906 81.921875 L 52.175781 81.832031 M 50.171875 127.523438 L 55.316406 129.695312 L 55.40625 129.78125 L 55.582031 136.730469 L 55.40625 139.855469 C 53.542969 139.046875 51.683594 138.148438 49.820312 137.164062 L 49.820312 135.6875 L 50.082031 129.085938 L 50.171875 127.523438 M 52.089844 133.601562 L 52.789062 131.082031 L 52.789062 130.910156 C 53.3125 131.488281 53.601562 132.445312 53.660156 133.777344 C 53.71875 134.355469 53.601562 134.90625 53.3125 135.425781 L 52.789062 135.949219 L 52.265625 136.207031 L 52.003906 134.90625 L 52.089844 133.601562 M 51.742188 130.648438 L 50.867188 133.949219 C 50.808594 135.570312 51.304688 136.5 52.351562 136.730469 C 53.863281 137.078125 54.589844 136.324219 54.53125 134.472656 C 54.589844 132.734375 54.214844 131.488281 53.398438 130.734375 L 52.699219 130.476562 L 52.4375 130.648438 L 52.351562 130.648438 C 52.0625 130.417969 51.855469 130.417969 51.742188 130.648438 M 23.820312 200.226562 L 25.304688 199.53125 C 27.980469 198.371094 31.441406 197.53125 35.6875 197.011719 C 40.398438 199.734375 45.515625 200.226562 51.042969 198.488281 L 54.445312 197.097656 C 54.679688 196.980469 55.054688 197.734375 55.582031 199.355469 L 56.105469 200.917969 C 54.417969 201.671875 52.992188 202.222656 51.828125 202.570312 L 49.996094 203.089844 L 48.25 203.179688 L 47.640625 202.222656 L 47.203125 201.179688 C 46.738281 200.660156 45.808594 200.804688 44.410156 201.613281 L 41.621094 203.351562 C 37.488281 205.203125 32.632812 204.972656 27.046875 202.65625 L 24.953125 201.960938 C 24.023438 201.613281 23.441406 201.210938 23.210938 200.746094 L 23.210938 200.660156 L 23.820312 200.226562 "/>
<path style=" stroke:none;fill-rule:nonzero;fill:rgb(21.568627%,20.784314%,20.784314%);fill-opacity:1;" d="M 89.085938 77.925781 C 88.503906 77.984375 88.097656 77.808594 87.863281 77.402344 C 87.632812 76.941406 87.863281 76.679688 88.5625 76.621094 C 89.203125 76.507812 89.609375 76.679688 89.785156 77.144531 C 90.015625 77.605469 89.785156 77.867188 89.085938 77.925781 "/>
</g>
</svg>
