<?xml version="1.0" encoding="UTF-8"?>
<svg xmlns="http://www.w3.org/2000/svg" xmlns:xlink="http://www.w3.org/1999/xlink" width="128pt" height="104pt" viewBox="0 0 128 104" version="1.1">
<g id="surface1">
<path style=" stroke:none;fill-rule:nonzero;fill:rgb(11.764706%,11.764706%,11.764706%);fill-opacity:1;" d="M 104.695312 87.542969 L 104.695312 103.972656 L 0 103.972656 L 0 87.542969 L 45.601562 87.542969 L 44.824219 86.871094 C 42.890625 84.933594 41.921875 82.550781 41.921875 79.71875 C 41.921875 76.886719 42.890625 74.464844 44.824219 72.453125 C 46.828125 70.515625 49.246094 69.546875 52.070312 69.546875 C 54.894531 69.546875 57.273438 70.515625 59.207031 72.453125 C 60.839844 74.09375 61.808594 75.992188 62.105469 78.152344 L 62.105469 81.28125 C 61.808594 83.445312 60.839844 85.304688 59.207031 86.871094 L 58.535156 87.542969 L 104.695312 87.542969 M 127.886719 3.15625 L 127.886719 0.0273438 L 128 1.59375 L 127.886719 3.15625 "/>
</g>
</svg>
