<?xml version="1.0" encoding="UTF-8"?>
<svg xmlns="http://www.w3.org/2000/svg" xmlns:xlink="http://www.w3.org/1999/xlink" width="127pt" height="36pt" viewBox="0 0 127 36" version="1.1">
<g id="surface1">
<path style=" stroke:none;fill-rule:nonzero;fill:rgb(100%,100%,100%);fill-opacity:1;" d="M 80.671875 0.0625 L 82.132812 0.148438 C 82.601562 0.386719 82.921875 0.761719 83.089844 1.277344 C 83.269531 1.753906 83.25 2.226562 83.027344 2.703125 C 83.261719 2.257812 83.617188 1.941406 84.089844 1.761719 L 85.570312 1.84375 C 86.042969 2.082031 86.363281 2.453125 86.527344 2.953125 C 86.679688 3.457031 86.640625 3.953125 86.402344 4.441406 C 86.167969 4.929688 85.480469 5.570312 84.339844 6.367188 C 83.144531 7.203125 82.277344 7.589844 81.734375 7.519531 L 80.128906 10.785156 C 82.1875 10.8125 84 10.863281 85.570312 10.933594 L 100.386719 12.085938 L 107.285156 13.003906 C 110.871094 13.5625 114.289062 14.261719 117.539062 15.101562 C 119.871094 15.726562 121.824219 16.40625 123.394531 17.132812 L 124.851562 17.96875 C 125.394531 18.332031 125.847656 18.742188 126.207031 19.203125 C 126.734375 19.71875 126.882812 20.433594 126.644531 21.339844 C 126.410156 22.175781 126.019531 22.734375 125.480469 23.015625 C 124.617188 23.671875 123.601562 24.25 122.4375 24.753906 L 119.226562 25.90625 L 118.789062 26.03125 C 118.96875 26.269531 119.054688 26.535156 119.039062 26.828125 C 119.023438 27.105469 118.941406 27.351562 118.789062 27.558594 L 118.371094 27.914062 C 117.898438 28.238281 117.351562 28.496094 116.726562 28.691406 L 115.101562 29.152344 C 108 30.40625 100.261719 31.257812 91.882812 31.707031 L 81.714844 32.144531 L 80.046875 32.1875 L 80.089844 32.144531 L 79.859375 32.1875 L 80.046875 32.1875 L 79.402344 32.792969 C 77.816406 34.105469 75.433594 34.992188 72.253906 35.453125 L 61.519531 35.9375 C 56.921875 35.894531 52.71875 35.371094 48.910156 34.367188 L 47.328125 33.714844 C 46.730469 33.410156 46.214844 33.019531 45.785156 32.542969 C 45.703125 32.710938 45.3125 32.863281 44.617188 33.003906 L 42.929688 33.316406 L 36.34375 34.09375 C 32.414062 34.398438 28.238281 34.359375 23.820312 33.96875 C 19.234375 33.519531 15.789062 32.960938 13.484375 32.292969 C 11.746094 31.707031 10.574219 30.832031 9.960938 29.675781 C 9.40625 28.726562 9.261719 27.539062 9.523438 26.113281 C 8.550781 25.988281 7.34375 25.632812 5.898438 25.046875 C 4.6875 24.542969 3.488281 23.972656 2.292969 23.328125 C 1.652344 23.007812 1.140625 22.539062 0.75 21.925781 C 0.25 21.144531 0.214844 20.390625 0.644531 19.664062 C 0.964844 19.09375 1.390625 18.597656 1.917969 18.179688 L 3.375 17.171875 C 5.210938 16.222656 7.289062 15.457031 9.605469 14.871094 C 11.136719 14.507812 13.40625 14.09375 16.421875 13.632812 C 13.476562 14.261719 11.234375 14.8125 9.691406 15.289062 C 7.414062 15.972656 5.398438 16.804688 3.648438 17.78125 C 2.425781 18.5625 1.617188 19.324219 1.230469 20.0625 C 0.742188 20.84375 1.214844 21.675781 2.648438 22.554688 C 3.3125 22.972656 4.464844 23.484375 6.105469 24.082031 C 7.773438 24.683594 9.183594 25.355469 10.335938 26.09375 C 10.015625 27.15625 10.136719 28.1875 10.691406 29.191406 C 11.300781 30.28125 12.308594 31.015625 13.710938 31.390625 C 16.101562 32.0625 19.492188 32.605469 23.882812 33.023438 C 28.300781 33.375 32.433594 33.414062 36.28125 33.152344 L 42.804688 32.355469 L 44.390625 32.039062 L 46.410156 31.9375 C 46.871094 32.496094 47.78125 33.003906 49.140625 33.464844 C 52.824219 34.429688 56.957031 34.9375 61.542969 34.992188 L 72.148438 34.511719 C 73.636719 34.289062 74.976562 33.960938 76.171875 33.527344 C 77.335938 33.109375 78.261719 32.605469 78.941406 32.019531 L 79.378906 31.621094 L 79.441406 31.515625 L 79.859375 31.246094 L 81.695312 31.203125 L 91.84375 30.761719 C 100.21875 30.304688 107.917969 29.457031 114.933594 28.230469 C 116.351562 27.878906 117.34375 27.511719 117.914062 27.121094 L 118.226562 26.785156 L 117.933594 26.429688 L 117.707031 26.21875 L 117.808594 25.339844 L 117.832031 25.320312 L 119.019531 24.984375 L 122.164062 23.851562 C 123.289062 23.378906 124.234375 22.847656 125 22.261719 C 126.011719 21.578125 126.199219 20.773438 125.5625 19.851562 C 125.046875 19.097656 124.222656 18.484375 123.082031 18.011719 C 121.554688 17.3125 119.644531 16.648438 117.351562 16.019531 C 114.140625 15.210938 110.75 14.519531 107.179688 13.949219 L 100.304688 13.027344 L 79.902344 11.246094 L 77.859375 15.351562 L 75.421875 15.351562 L 77.503906 11.078125 L 72.191406 10.742188 L 77.671875 10.765625 L 79.777344 6.410156 C 79.484375 5.863281 79.316406 4.9375 79.277344 3.625 C 79.25 2.367188 79.339844 1.515625 79.546875 1.070312 C 79.796875 0.582031 80.171875 0.246094 80.671875 0.0625 M 62.167969 32.753906 C 60.832031 33.253906 59.277344 33.472656 57.496094 33.402344 C 59.191406 33.414062 60.671875 33.179688 61.9375 32.691406 C 62.242188 32.664062 62.320312 32.683594 62.167969 32.753906 M 25.320312 31.414062 C 25.445312 31.414062 25.460938 31.441406 25.363281 31.496094 L 25.132812 31.582031 C 21.171875 31.734375 18.492188 31.699219 17.089844 31.476562 C 13.40625 30.902344 11.484375 29.347656 11.316406 26.804688 C 11.300781 26.75 11.363281 26.707031 11.503906 26.679688 L 11.710938 26.699219 C 11.878906 29.214844 13.769531 30.757812 17.378906 31.328125 C 18.839844 31.550781 21.484375 31.582031 25.320312 31.414062 M 56.707031 3.246094 C 56.886719 3.777344 56.851562 4.726562 56.601562 6.09375 C 56.351562 7.53125 56.003906 8.425781 55.558594 8.777344 L 57.207031 13.675781 L 54.894531 13.675781 L 53.433594 9.363281 C 52.824219 9.179688 52.039062 8.644531 51.078125 7.75 C 50.191406 6.882812 49.65625 6.214844 49.472656 5.738281 C 49.308594 5.222656 49.347656 4.726562 49.597656 4.253906 C 49.808594 3.792969 50.15625 3.464844 50.640625 3.269531 C 51.167969 3.101562 51.664062 3.136719 52.121094 3.371094 C 52.59375 3.609375 52.921875 3.964844 53.101562 4.441406 C 52.933594 3.9375 52.960938 3.457031 53.183594 2.996094 C 53.421875 2.535156 53.78125 2.207031 54.269531 2.011719 C 54.796875 1.84375 55.289062 1.886719 55.746094 2.136719 C 56.21875 2.375 56.539062 2.746094 56.707031 3.246094 M 89.46875 29.714844 C 89.410156 29.773438 89.34375 29.808594 89.257812 29.820312 C 85.214844 30.464844 81.289062 30.421875 77.484375 29.695312 C 77.652344 29.597656 77.769531 29.554688 77.839844 29.570312 C 81.644531 30.269531 85.480469 30.304688 89.34375 29.675781 C 89.480469 29.660156 89.523438 29.675781 89.46875 29.714844 M 44.640625 30.304688 C 45.417969 30.050781 46.007812 29.941406 46.410156 29.96875 C 46.730469 29.980469 47.125 30.148438 47.597656 30.46875 L 48.703125 31.246094 C 49.96875 31.941406 51.414062 32.480469 53.039062 32.859375 L 52.496094 32.753906 C 50.789062 32.472656 49.210938 31.902344 47.765625 31.035156 C 47.140625 30.644531 46.683594 30.421875 46.390625 30.367188 L 44.804688 30.511719 C 44.054688 30.722656 43.382812 30.855469 42.785156 30.910156 C 42.660156 30.925781 42.625 30.910156 42.679688 30.867188 C 42.722656 30.8125 42.792969 30.777344 42.890625 30.761719 L 44.640625 30.304688 M 53.078125 32.859375 L 57.164062 33.382812 L 55.246094 33.214844 L 53.078125 32.859375 M 105.785156 28.460938 C 105.785156 28.417969 105.839844 28.382812 105.953125 28.355469 C 107.242188 28.0625 109.195312 27.742188 111.808594 27.390625 C 112.847656 27.183594 113.578125 26.980469 113.996094 26.785156 C 114.925781 26.367188 115.113281 25.820312 114.558594 25.152344 C 114.53125 25.125 114.585938 25.089844 114.726562 25.046875 C 114.851562 25.003906 114.925781 25.003906 114.953125 25.046875 C 115.398438 25.589844 115.363281 26.074219 114.851562 26.492188 C 114.515625 26.742188 114.015625 26.960938 113.351562 27.140625 L 109.660156 27.875 L 105.972656 28.480469 L 105.785156 28.460938 M 111.535156 15.8125 L 111.765625 15.769531 C 116.015625 16.160156 119.234375 17.082031 121.414062 18.535156 C 122.832031 19.46875 122.910156 20.417969 121.644531 21.382812 C 120.683594 22.121094 119.53125 22.609375 118.183594 22.847656 L 117.996094 22.828125 C 117.984375 22.785156 118.039062 22.75 118.164062 22.722656 C 119.332031 22.511719 120.378906 22.03125 121.3125 21.277344 C 122.519531 20.328125 122.429688 19.449219 121.039062 18.640625 C 120.09375 18.109375 119.046875 17.660156 117.894531 17.296875 C 115.574219 16.558594 113.441406 16.097656 111.496094 15.917969 C 111.410156 15.902344 111.425781 15.867188 111.535156 15.8125 M 3.4375 18.597656 C 3.714844 18.429688 4.398438 18.128906 5.480469 17.695312 C 5.785156 17.683594 5.855469 17.703125 5.6875 17.757812 C 4.757812 18.121094 4.085938 18.441406 3.667969 18.722656 C 2.695312 19.335938 2.398438 19.949219 2.773438 20.566406 C 3.117188 21.136719 3.757812 21.613281 4.6875 21.988281 L 6.941406 22.703125 L 6.585938 22.847656 L 5 22.304688 C 4.402344 22.09375 3.890625 21.863281 3.460938 21.613281 C 2.738281 21.207031 2.339844 20.808594 2.273438 20.417969 C 2.132812 19.75 2.523438 19.140625 3.4375 18.597656 "/>
</g>
</svg>
