<?xml version="1.0" encoding="UTF-8"?>
<svg xmlns="http://www.w3.org/2000/svg" xmlns:xlink="http://www.w3.org/1999/xlink" width="127pt" height="127pt" viewBox="0 0 127 127" version="1.1">
<g id="surface1">
<path style=" stroke:none;fill-rule:nonzero;fill:rgb(100%,100%,100%);fill-opacity:1;" d="M 34.566406 10.417969 C 34.460938 10.738281 33.75 11.3125 32.4375 12.136719 L 25.777344 15.574219 L 22.953125 17.128906 L 24.230469 18.847656 L 25.03125 20.136719 L 24.925781 20.296875 L 24.390625 20.78125 L 23.164062 20.996094 L 22.3125 20.511719 L 20.875 18.257812 L 16.824219 20.675781 L 16.824219 20.726562 L 16.71875 20.941406 L 16.238281 21.371094 C 15.847656 21.550781 15.457031 21.675781 15.066406 21.75 L 14.800781 21.964844 C 12.277344 23.539062 10.199219 25.148438 8.566406 26.796875 L 9.472656 28.566406 L 9.472656 28.621094 L 8.886719 29.105469 L 8.085938 29.535156 L 7.128906 28.40625 L 7.019531 28.300781 C 5.777344 29.769531 4.820312 31.199219 4.144531 32.597656 C 2.792969 35.496094 2.4375 38.808594 3.078125 42.53125 L 4.039062 42.796875 C 5.210938 43.226562 5.777344 43.800781 5.742188 44.515625 L 5.636719 44.570312 L 5.15625 45.109375 L 3.824219 45.214844 L 4.410156 47.308594 L 4.570312 47.308594 L 4.570312 47.632812 L 4.941406 48.492188 L 11.710938 59.175781 L 17.25 64.707031 L 17.410156 65.351562 L 16.824219 65.890625 C 16.148438 66.285156 15.011719 65.65625 13.414062 64.011719 L 10.964844 61.433594 L 10.058594 62.882812 L 8.40625 63.957031 L 8.035156 63.957031 C 7.855469 63.957031 7.679688 63.832031 7.5 63.582031 L 8.832031 61.433594 L 9.632812 60.144531 L 9.472656 59.984375 L 6.117188 54.667969 L 5.796875 55.902344 L 4.730469 56.007812 L 4.144531 55.902344 C 4.039062 55.6875 4.125 55.132812 4.410156 54.238281 L 4.941406 52.949219 L 3.078125 49.941406 L 2.757812 49.296875 L 1.691406 50.046875 L 0.839844 49.726562 C 1.160156 48.9375 1.640625 48.328125 2.277344 47.898438 L 1.160156 44.085938 L 0.894531 43.925781 L 1.054688 43.496094 C 0.378906 39.738281 0.574219 36.390625 1.640625 33.453125 L 1.320312 33.722656 L 0.519531 33.347656 L 1.320312 32.167969 L 2.011719 31.574219 L 2.757812 31.199219 C 4.605469 27.941406 8.085938 24.628906 13.203125 21.265625 L 12.191406 20.675781 L 12.882812 19.4375 L 15.066406 19.492188 L 15.652344 19.707031 L 18.742188 17.828125 L 25.5625 13.800781 L 28.441406 12.511719 L 31.425781 11.117188 C 33.664062 10.222656 34.710938 9.988281 34.566406 10.417969 M 80.816406 24.808594 L 80.871094 25.347656 L 80.65625 27.332031 C 83.070312 28.15625 85.113281 30.304688 86.785156 33.777344 C 88.703125 37.785156 89.5 42.421875 89.183594 47.683594 C 88.96875 53.054688 87.707031 57.476562 85.398438 60.949219 C 83.339844 64.0625 80.996094 65.621094 78.367188 65.621094 L 79.589844 64.0625 C 80.621094 62.488281 81.4375 60.664062 82.042969 58.585938 C 81.6875 58.585938 81.367188 58.390625 81.082031 57.996094 L 80.496094 57.027344 C 80.425781 56.597656 80.496094 56.257812 80.710938 56.007812 C 81.03125 55.578125 81.6875 55.472656 82.679688 55.6875 L 82.894531 52.785156 C 83 50.675781 82.914062 48.6875 82.628906 46.828125 L 82.414062 47.148438 C 82.023438 47.683594 81.582031 47.988281 81.082031 48.0625 L 80.125 48.007812 L 79.75 47.738281 C 79.714844 47.988281 79.644531 47.773438 79.539062 47.09375 C 79.503906 46.664062 79.769531 46.109375 80.335938 45.429688 C 80.835938 44.820312 81.421875 44.410156 82.09375 44.195312 L 80.761719 40.652344 L 79.699219 38.71875 C 79.484375 40.007812 79.09375 40.867188 78.527344 41.296875 L 77.246094 40.058594 C 77.105469 39.023438 77.15625 37.894531 77.40625 36.675781 L 77.511719 36.355469 C 76.589844 35.601562 75.558594 35.171875 74.421875 35.066406 C 72.398438 34.78125 70.585938 35.53125 68.988281 37.320312 C 69.59375 35.171875 70.425781 33.328125 71.492188 31.789062 C 73.695312 28.351562 76.234375 26.761719 79.113281 27.011719 L 79.164062 26.636719 L 80.070312 24.324219 C 80.425781 24.398438 80.675781 24.558594 80.816406 24.808594 M 106.070312 14.765625 C 108.238281 14.195312 110.582031 14.964844 113.105469 17.078125 C 115.484375 19.117188 117.277344 21.890625 118.488281 25.398438 C 119.730469 28.910156 119.996094 32.09375 119.285156 34.957031 C 118.71875 37.570312 117.492188 39.238281 115.609375 39.953125 L 116.089844 38.554688 C 116.375 37.410156 116.480469 36.195312 116.410156 34.90625 L 115.875 34.957031 L 115.34375 34.582031 L 115.238281 33.9375 L 115.449219 33.023438 L 116.035156 32.863281 L 115.34375 30.285156 L 114.332031 28.03125 L 113.691406 28.515625 L 113.371094 28.566406 L 112.519531 27.871094 C 111.949219 27.296875 111.863281 26.796875 112.253906 26.367188 C 112.464844 26.152344 112.75 25.992188 113.105469 25.882812 L 110.601562 23.253906 C 109.675781 22.429688 108.789062 21.855469 107.9375 21.535156 L 107.992188 22.769531 L 107.671875 23.359375 L 106.339844 23.46875 L 105.59375 22.769531 C 105.273438 22.480469 105.023438 21.964844 104.847656 21.210938 L 104.632812 21.265625 C 103.175781 21.695312 102.074219 22.714844 101.332031 24.324219 C 101.257812 22.75 101.382812 21.335938 101.703125 20.082031 C 102.34375 17.648438 103.445312 16.019531 105.007812 15.195312 L 105.699219 14.929688 L 106.070312 14.765625 M 94.9375 24.648438 L 95.414062 22.660156 C 96.089844 20.441406 96.429688 20.550781 96.429688 22.984375 L 96.429688 24.753906 L 96.640625 24.808594 C 98.84375 25.523438 100.496094 27.65625 101.597656 31.199219 C 102.699219 34.671875 102.894531 38.539062 102.183594 42.796875 C 101.542969 47.023438 100.195312 50.371094 98.132812 52.839844 C 96.355469 55.132812 94.472656 56.097656 92.484375 55.742188 L 93.605469 54.613281 C 94.457031 53.574219 95.167969 52.339844 95.734375 50.90625 L 94.667969 50.960938 C 93.886719 50.960938 93.335938 50.765625 93.019531 50.371094 L 92.910156 49.726562 L 93.496094 48.8125 L 96.214844 48.972656 L 96.320312 49.082031 L 96.375 49.136719 L 97.015625 45.96875 C 97.261719 44.285156 97.371094 42.671875 97.335938 41.132812 L 96.214844 41.1875 C 95.328125 41.1875 94.707031 41.007812 94.351562 40.652344 C 94.277344 40.902344 94.242188 40.667969 94.242188 39.953125 C 94.242188 39.558594 94.511719 39.273438 95.042969 39.09375 L 97.175781 39.039062 L 96.480469 35.925781 C 96.054688 34.601562 95.539062 33.507812 94.9375 32.648438 L 94.617188 33.453125 C 94.226562 34.3125 93.730469 34.832031 93.125 35.011719 L 92.113281 34.152344 L 92.058594 33.078125 C 92.058594 32.613281 92.148438 32.253906 92.324219 32.003906 C 92.503906 31.71875 92.839844 31.414062 93.335938 31.09375 L 92.21875 30.554688 C 90.726562 30.089844 89.289062 30.464844 87.902344 31.683594 C 88.578125 30.070312 89.378906 28.710938 90.300781 27.601562 C 91.792969 25.738281 93.335938 24.753906 94.9375 24.648438 M 115.503906 1.449219 C 117.5625 2.378906 119.339844 3.957031 120.832031 6.175781 C 122.324219 8.359375 123.070312 10.507812 123.070312 12.621094 C 123.175781 14.515625 122.660156 15.878906 121.523438 16.699219 L 121.523438 15.679688 C 121.523438 14.570312 121.273438 13.425781 120.777344 12.242188 L 120.351562 12.886719 L 119.710938 12.996094 C 119.570312 12.996094 119.375 12.871094 119.125 12.621094 L 118.699219 11.921875 C 118.878906 11.421875 119.179688 11.042969 119.605469 10.792969 L 120.085938 11.007812 L 119.550781 10.148438 L 117.261719 7.519531 L 116.941406 7.679688 C 116.65625 7.679688 116.375 7.554688 116.089844 7.304688 L 115.609375 6.605469 L 115.714844 6.445312 L 114.96875 6.066406 L 112.574219 5.421875 L 112.574219 6.390625 C 112.574219 7.394531 112.378906 8.089844 111.988281 8.484375 L 111.347656 8.59375 L 110.441406 8.054688 C 110.300781 7.769531 110.28125 7.089844 110.386719 6.015625 C 109.5 6.585938 108.96875 7.464844 108.789062 8.644531 C 108.433594 7.570312 108.257812 6.570312 108.257812 5.636719 C 108.222656 4.351562 108.453125 3.292969 108.949219 2.46875 L 109.589844 1.609375 L 110.226562 1.179688 C 111.648438 0.394531 113.40625 0.484375 115.503906 1.449219 M 121.042969 59.875 L 123.761719 55.902344 L 123.335938 52.839844 L 126.957031 57.191406 L 124.507812 62.882812 L 114.4375 65.460938 L 112.304688 64.65625 L 114.066406 60.359375 L 116.460938 61.269531 L 121.042969 59.875 M 108.949219 66.105469 L 111.347656 67.285156 L 101.4375 73.835938 L 103.515625 75.714844 L 103.675781 76.574219 L 102.929688 77.21875 C 102.359375 77.433594 101.632812 77.042969 100.742188 76.039062 L 99.890625 74.859375 L 93.445312 79.101562 L 92.164062 76.039062 L 94.667969 73.570312 L 96.535156 65.675781 L 100.265625 68.734375 L 102.183594 61.648438 L 104.582031 64.976562 L 105.328125 60.84375 L 109.960938 64.0625 L 108.949219 66.105469 M 114.652344 94.242188 L 116.410156 90.804688 L 116.886719 87.636719 L 118.699219 92.148438 L 115.769531 97.679688 L 106.230469 98.808594 L 100.265625 100.257812 L 100.957031 101.171875 L 102.289062 103.695312 L 101.597656 104.445312 L 99.890625 103.210938 L 99.039062 102.191406 L 98.507812 101.0625 L 98.453125 100.6875 L 89.980469 102.675781 L 88.648438 101.0625 L 84.867188 99.398438 L 72.183594 96.980469 L 71.652344 97.734375 L 68.136719 95.425781 L 68.027344 97.035156 L 67.070312 97.359375 L 66.164062 96.980469 L 65.949219 96.5 L 65.949219 93.976562 L 64.617188 93.0625 L 64.511719 95.585938 L 63.554688 96.070312 C 63.164062 95.675781 62.859375 95.046875 62.648438 94.1875 L 62.433594 92.632812 L 62.488281 91.664062 L 56.039062 87.371094 L 58.597656 80.28125 L 66.378906 85.867188 L 72.558594 94.617188 L 72.929688 93.921875 L 75.863281 93.921875 L 79.859375 90.914062 L 79.859375 94.136719 L 85.132812 90.859375 L 84.867188 93.8125 L 89.234375 92.308594 L 90.300781 96.980469 L 89.714844 99.128906 L 93.765625 96.765625 L 106.925781 96.015625 L 108.789062 92.578125 L 114.652344 94.242188 M 69.042969 44.035156 L 63.554688 58.15625 L 64.992188 64.976562 L 61.582031 69.058594 L 58.703125 63.367188 L 58.542969 59.554688 L 64.566406 45.96875 L 69.042969 44.035156 M 66.378906 75.5 L 72.398438 71.957031 L 89.449219 75.984375 L 88.96875 78.992188 L 83.535156 78.722656 L 83.425781 80.226562 L 82.414062 80.550781 C 81.917969 80.371094 81.597656 80.085938 81.457031 79.691406 L 81.347656 78.617188 L 76.5 78.402344 L 76.5 78.671875 L 76.394531 80.980469 L 75.433594 81.410156 C 74.902344 81.160156 74.566406 80.710938 74.421875 80.066406 L 74.316406 78.722656 L 74.316406 78.292969 L 68.136719 77.972656 L 66.378906 75.5 M 40.164062 61.699219 C 41.371094 61.128906 42.4375 61.613281 43.359375 63.152344 L 43.574219 63.582031 L 44.210938 58.910156 C 44.390625 56.152344 45.171875 57.207031 46.554688 62.078125 C 48.367188 68.304688 49.46875 71.636719 49.859375 72.066406 C 50.960938 73.355469 52.46875 74.695312 54.390625 76.09375 C 53.359375 79.886719 52.433594 82.089844 51.617188 82.699219 L 49.964844 83.773438 L 47.089844 83.449219 C 44.320312 82.484375 40.75 80.925781 36.378906 78.777344 C 31.015625 76.128906 29.203125 74.644531 30.945312 74.320312 L 34.140625 73.835938 L 33.449219 72.117188 C 32.84375 70.507812 32.542969 69.34375 32.542969 68.628906 L 32.648438 67.5 C 34.320312 67.179688 35.367188 67.484375 35.792969 68.414062 C 36.789062 70.742188 37.464844 72.117188 37.816406 72.546875 L 37.390625 73.246094 C 38.457031 72.925781 39.238281 72.441406 39.734375 71.796875 C 40.871094 70.328125 41.761719 68.824219 42.398438 67.285156 L 42.667969 66.695312 L 41.496094 65.246094 L 40.003906 62.722656 L 40.164062 61.699219 M 24.179688 68.039062 L 28.121094 77.21875 L 31.050781 81.355469 C 31.121094 82.214844 30.324219 83.214844 28.652344 84.363281 C 26.949219 85.507812 24.089844 86.347656 20.074219 86.886719 L 14.746094 87.421875 L 12.988281 88.980469 C 11.746094 90.414062 10.910156 92.257812 10.484375 94.511719 C 10.09375 96.765625 8.441406 97.824219 5.53125 97.679688 C 4.109375 97.574219 2.707031 97.25 1.320312 96.714844 L 5.050781 94.351562 L 8.511719 87.691406 L 7.875 85.542969 C 6.097656 87.761719 4.089844 88.15625 1.851562 86.726562 L 0.945312 85.917969 L 1 85.8125 L 0.734375 85.222656 L 1.214844 84.308594 L 2.707031 82.75 C 4.019531 81.964844 5.777344 81.5 7.980469 81.355469 L 8.246094 80.550781 L 8.511719 79.851562 L 6.808594 79.421875 L 6.273438 78.457031 C 6.132812 78.097656 6.273438 77.597656 6.703125 76.953125 C 7.09375 76.34375 7.554688 76.074219 8.085938 76.144531 C 8.546875 76.144531 9.0625 76.398438 9.632812 76.898438 C 10.199219 75.644531 10.859375 74.554688 11.601562 73.621094 C 12.953125 71.832031 15.421875 70.402344 19.007812 69.328125 L 24.179688 68.039062 M 24.765625 75.234375 C 24.054688 73.835938 23.273438 72.925781 22.417969 72.496094 L 18.15625 72.601562 C 16.132812 73.246094 14.640625 74.535156 13.679688 76.46875 C 12.757812 78.257812 12.226562 79.960938 12.082031 81.570312 L 12.03125 83.558594 C 15.476562 83.628906 18.316406 83.269531 20.554688 82.484375 L 24.070312 81.03125 C 24.851562 80.566406 25.351562 79.851562 25.5625 78.886719 C 25.8125 77.882812 25.546875 76.664062 24.765625 75.234375 M 51.777344 89.195312 L 51.457031 94.082031 L 47.570312 98.324219 L 47.835938 98.484375 C 48.902344 99.488281 49.328125 100.402344 49.113281 101.222656 L 48.742188 102.136719 L 48.527344 102.246094 L 47.730469 102.246094 L 46.078125 100.792969 L 45.757812 100.363281 L 42.398438 103.910156 L 40.535156 103.15625 L 41.707031 96.605469 L 47.460938 88.710938 L 51.777344 89.195312 M 32.382812 108.582031 C 32.597656 108.617188 33.058594 108.832031 33.769531 109.226562 L 34.78125 110.03125 L 36.699219 108.582031 L 44.585938 108.472656 L 44.265625 110.03125 L 37.871094 115.078125 L 38.9375 112.234375 L 33.34375 117.386719 L 35.472656 113.359375 L 25.5625 122.488281 L 26.894531 119.160156 L 23.644531 118.191406 L 32.96875 111.375 L 32.597656 111.160156 L 30.785156 109.976562 L 30.945312 108.957031 C 31.371094 108.527344 31.851562 108.402344 32.382812 108.582031 M 22.6875 121.414062 L 22.101562 123.457031 L 19.382812 124.691406 L 13.574219 121.628906 L 9.472656 124.261719 L 8.195312 127 L 6.96875 123.078125 L 10.058594 119.589844 L 14.585938 117.28125 L 22.6875 121.414062 "/>
</g>
</svg>
