<?xml version="1.0" encoding="UTF-8"?>
<svg xmlns="http://www.w3.org/2000/svg" xmlns:xlink="http://www.w3.org/1999/xlink" width="128pt" height="109pt" viewBox="0 0 128 109" version="1.1">
<g id="surface1">
<path style=" stroke:none;fill-rule:nonzero;fill:rgb(42.745098%,42.745098%,42.745098%);fill-opacity:1;" d="M 88.578125 44.203125 L 88.214844 44.800781 L 88.214844 45.386719 L 89.359375 45.324219 L 89.359375 45.050781 L 89.5625 44.902344 L 88.980469 43.867188 L 88.578125 44.203125 M 90.445312 45.121094 L 90.460938 45.386719 L 91.621094 45.339844 L 91.492188 44.769531 L 91.203125 44.203125 L 90.792969 43.882812 L 90.210938 44.871094 L 90.445312 45.121094 M 90.171875 45.90625 L 89.839844 46.023438 L 89.625 45.9375 L 89.058594 46.925781 L 89.691406 47.191406 L 90.753906 47.003906 L 90.171875 45.90625 M 89.894531 45.042969 C 89.796875 45.042969 89.710938 45.078125 89.640625 45.152344 C 89.566406 45.222656 89.53125 45.308594 89.53125 45.410156 C 89.53125 45.507812 89.566406 45.59375 89.640625 45.664062 C 89.710938 45.738281 89.796875 45.773438 89.894531 45.773438 C 89.992188 45.773438 90.078125 45.738281 90.148438 45.664062 C 90.222656 45.59375 90.257812 45.507812 90.257812 45.410156 C 90.257812 45.308594 90.222656 45.222656 90.148438 45.152344 C 90.078125 45.078125 89.992188 45.042969 89.894531 45.042969 M 89.855469 40.957031 L 93.730469 47.425781 L 86.167969 47.425781 L 89.855469 40.957031 M 91.460938 54.695312 L 91.460938 55.332031 L 90.4375 55.332031 L 90.4375 54.226562 L 91.460938 54.695312 M 90.132812 47.789062 L 90.289062 47.789062 L 90.289062 55.332031 L 90.132812 55.332031 L 90.132812 47.789062 M 89.082031 47.789062 L 89.730469 47.789062 L 89.730469 55.332031 L 88.230469 55.332031 L 88.230469 54.78125 L 89.082031 54.398438 L 89.082031 47.789062 M 90.382812 47.789062 L 90.539062 47.789062 L 90.539062 54.226562 L 90.421875 54.226562 L 90.421875 55.332031 L 90.382812 55.332031 L 90.382812 47.789062 M 39.390625 44.203125 L 39.027344 44.800781 L 39.027344 45.386719 L 40.175781 45.324219 L 40.175781 45.050781 L 40.375 44.902344 L 39.792969 43.867188 L 39.390625 44.203125 M 42.019531 44.203125 L 41.609375 43.882812 L 41.027344 44.871094 L 41.257812 45.121094 L 41.273438 45.386719 L 42.4375 45.339844 L 42.304688 44.769531 L 42.019531 44.203125 M 40.65625 46.023438 L 40.4375 45.9375 L 39.871094 46.925781 L 40.507812 47.191406 L 41.570312 47.003906 L 40.988281 45.90625 L 40.65625 46.023438 M 40.707031 45.042969 C 40.609375 45.042969 40.527344 45.078125 40.453125 45.152344 C 40.382812 45.222656 40.34375 45.308594 40.34375 45.410156 C 40.34375 45.507812 40.382812 45.59375 40.453125 45.664062 C 40.527344 45.738281 40.609375 45.773438 40.707031 45.773438 C 40.808594 45.773438 40.890625 45.738281 40.964844 45.664062 C 41.035156 45.59375 41.074219 45.507812 41.074219 45.410156 C 41.074219 45.308594 41.035156 45.222656 40.964844 45.152344 C 40.890625 45.078125 40.808594 45.042969 40.707031 45.042969 M 36.980469 47.425781 L 40.671875 40.957031 L 44.542969 47.425781 L 36.980469 47.425781 M 41.25 55.332031 L 41.25 54.226562 L 42.273438 54.695312 L 42.273438 55.332031 L 41.25 55.332031 M 39.894531 47.789062 L 40.546875 47.789062 L 40.546875 55.332031 L 39.042969 55.332031 L 39.042969 54.78125 L 39.894531 54.398438 L 39.894531 47.789062 M 41.195312 47.789062 L 41.351562 47.789062 L 41.351562 54.226562 L 41.234375 54.226562 L 41.234375 55.332031 L 41.195312 55.332031 L 41.195312 47.789062 M 40.949219 47.789062 L 41.105469 47.789062 L 41.105469 55.332031 L 40.949219 55.332031 L 40.949219 47.789062 "/>
<path style=" stroke:none;fill-rule:nonzero;fill:rgb(0%,0%,0%);fill-opacity:1;" d="M 88.578125 44.203125 L 88.980469 43.867188 L 89.5625 44.902344 L 89.359375 45.050781 L 89.359375 45.324219 L 88.214844 45.386719 L 88.214844 44.800781 L 88.578125 44.203125 M 89.894531 45.042969 C 89.992188 45.042969 90.078125 45.078125 90.148438 45.152344 C 90.222656 45.222656 90.257812 45.308594 90.257812 45.410156 C 90.257812 45.507812 90.222656 45.59375 90.148438 45.664062 C 90.078125 45.738281 89.992188 45.773438 89.894531 45.773438 C 89.796875 45.773438 89.710938 45.738281 89.640625 45.664062 C 89.566406 45.59375 89.53125 45.507812 89.53125 45.410156 C 89.53125 45.308594 89.566406 45.222656 89.640625 45.152344 C 89.710938 45.078125 89.796875 45.042969 89.894531 45.042969 M 90.171875 45.90625 L 90.753906 47.003906 L 89.691406 47.191406 L 89.058594 46.925781 L 89.625 45.9375 L 89.839844 46.023438 L 90.171875 45.90625 M 90.445312 45.121094 L 90.210938 44.871094 L 90.792969 43.882812 L 91.203125 44.203125 L 91.492188 44.769531 L 91.621094 45.339844 L 90.460938 45.386719 L 90.445312 45.121094 M 39.390625 44.203125 L 39.792969 43.867188 L 40.375 44.902344 L 40.175781 45.050781 L 40.175781 45.324219 L 39.027344 45.386719 L 39.027344 44.800781 L 39.390625 44.203125 M 40.707031 45.042969 C 40.808594 45.042969 40.890625 45.078125 40.964844 45.152344 C 41.035156 45.222656 41.074219 45.308594 41.074219 45.410156 C 41.074219 45.507812 41.035156 45.59375 40.964844 45.664062 C 40.890625 45.738281 40.808594 45.773438 40.707031 45.773438 C 40.609375 45.773438 40.527344 45.738281 40.453125 45.664062 C 40.382812 45.59375 40.34375 45.507812 40.34375 45.410156 C 40.34375 45.308594 40.382812 45.222656 40.453125 45.152344 C 40.527344 45.078125 40.609375 45.042969 40.707031 45.042969 M 40.65625 46.023438 L 40.988281 45.90625 L 41.570312 47.003906 L 40.507812 47.191406 L 39.871094 46.925781 L 40.4375 45.9375 L 40.65625 46.023438 M 42.019531 44.203125 L 42.304688 44.769531 L 42.4375 45.339844 L 41.273438 45.386719 L 41.257812 45.121094 L 41.027344 44.871094 L 41.609375 43.882812 L 42.019531 44.203125 "/>
<path style=" stroke:none;fill-rule:nonzero;fill:rgb(42.745098%,42.745098%,42.745098%);fill-opacity:1;" d="M 55.957031 54.820312 C 55.957031 54.882812 55.914062 54.929688 55.824219 54.96875 C 55.75 54.992188 55.71875 55.023438 55.742188 55.058594 C 55.757812 55.085938 55.824219 55.101562 55.941406 55.105469 C 56.046875 55.121094 56.097656 55.191406 56.105469 55.316406 C 56.113281 55.46875 56.078125 55.578125 55.988281 55.644531 L 55.703125 55.628906 L 55.40625 55.425781 L 55.121094 55.417969 L 54.53125 55.808594 L 53.828125 56.257812 C 53.707031 56.332031 53.636719 56.394531 53.617188 56.445312 L 53.53125 56.773438 C 53.476562 56.9375 53.394531 57.046875 53.285156 57.09375 C 53.195312 57.128906 53.105469 57.113281 53.011719 57.046875 C 52.910156 56.976562 52.867188 56.882812 52.882812 56.765625 C 52.890625 56.675781 52.921875 56.617188 52.972656 56.585938 C 53.003906 56.554688 53.070312 56.515625 53.167969 56.46875 C 53.210938 56.453125 53.203125 56.449219 53.144531 56.453125 L 52.820312 56.382812 C 52.683594 56.328125 52.625 56.25 52.640625 56.148438 C 52.667969 55.886719 52.816406 55.757812 53.089844 55.769531 C 53.167969 55.769531 53.242188 55.792969 53.308594 55.839844 L 53.4375 55.941406 L 53.703125 55.917969 L 54.058594 55.660156 C 54.25 55.535156 54.566406 55.351562 55.011719 55.105469 C 55.171875 55.023438 55.246094 54.945312 55.238281 54.875 C 55.222656 54.800781 55.238281 54.71875 55.292969 54.632812 C 55.347656 54.527344 55.4375 54.472656 55.5625 54.46875 L 55.855469 54.515625 C 55.921875 54.566406 55.957031 54.667969 55.957031 54.820312 M 56.242188 56.28125 L 56.6875 56.234375 L 57.777344 56.242188 C 57.960938 56.25 58.0625 56.21875 58.089844 56.148438 L 58.132812 56.082031 L 57.808594 55.980469 L 57.484375 55.996094 L 57.273438 56.117188 C 57.15625 56.148438 57.050781 56.125 56.964844 56.050781 C 56.863281 55.941406 56.804688 55.859375 56.792969 55.808594 C 56.777344 55.71875 56.824219 55.625 56.933594 55.519531 L 57.128906 55.503906 L 57.25 55.496094 C 57.261719 55.46875 57.226562 55.410156 57.144531 55.316406 C 57.082031 55.234375 57.09375 55.148438 57.179688 55.058594 C 57.28125 54.941406 57.378906 54.890625 57.484375 54.914062 C 57.59375 54.929688 57.65625 55 57.675781 55.121094 L 57.746094 55.472656 C 57.785156 55.585938 57.847656 55.65625 57.941406 55.683594 L 58.636719 55.832031 L 59.453125 56.011719 L 59.738281 56.035156 C 59.828125 55.960938 59.921875 55.902344 60.023438 55.855469 C 60.183594 55.777344 60.316406 55.761719 60.421875 55.808594 C 60.507812 55.847656 60.5625 55.925781 60.582031 56.035156 C 60.605469 56.152344 60.566406 56.25 60.472656 56.320312 C 60.402344 56.375 60.339844 56.398438 60.289062 56.390625 L 60.070312 56.328125 C 60.023438 56.3125 60.023438 56.324219 60.070312 56.359375 C 60.144531 56.4375 60.207031 56.53125 60.257812 56.640625 C 60.304688 56.777344 60.292969 56.875 60.21875 56.9375 C 60.011719 57.097656 59.8125 57.078125 59.621094 56.875 C 59.570312 56.816406 59.535156 56.753906 59.523438 56.679688 L 59.5 56.515625 C 59.460938 56.417969 59.394531 56.359375 59.296875 56.335938 L 58.855469 56.265625 L 58.816406 56.257812 L 58.738281 56.460938 C 58.707031 56.519531 58.644531 56.539062 58.554688 56.523438 C 58.476562 56.507812 58.4375 56.519531 58.4375 56.5625 C 58.4375 56.59375 58.484375 56.644531 58.585938 56.710938 C 58.652344 56.761719 58.671875 56.828125 58.644531 56.914062 L 58.621094 56.96875 C 58.554688 57.109375 58.46875 57.183594 58.359375 57.191406 C 58.257812 57.203125 58.175781 57.152344 58.117188 57.039062 L 57.964844 56.71875 C 57.898438 56.613281 57.816406 56.5625 57.722656 56.5625 L 57.011719 56.601562 L 56.183594 56.640625 C 56.042969 56.640625 55.949219 56.660156 55.902344 56.695312 L 55.671875 56.9375 C 55.535156 57.054688 55.414062 57.109375 55.296875 57.09375 C 55.199219 57.078125 55.128906 57.015625 55.082031 56.914062 C 55.03125 56.804688 55.039062 56.703125 55.113281 56.609375 C 55.164062 56.535156 55.21875 56.496094 55.277344 56.492188 L 55.5 56.492188 C 55.546875 56.496094 55.542969 56.488281 55.492188 56.460938 C 55.398438 56.410156 55.316406 56.335938 55.246094 56.242188 C 55.160156 56.125 55.148438 56.027344 55.207031 55.949219 C 55.359375 55.734375 55.554688 55.703125 55.785156 55.847656 L 55.941406 56.011719 L 56.003906 56.164062 C 56.0625 56.25 56.140625 56.289062 56.242188 56.28125 M 75.234375 55.558594 L 75.492188 55.410156 L 75.652344 55.449219 L 75.484375 55.542969 L 75.613281 55.613281 L 75.289062 55.761719 L 75.179688 55.808594 L 74.996094 55.917969 L 74.589844 56.242188 L 74.257812 56.398438 L 73.34375 56.476562 C 73.457031 56.460938 73.597656 56.398438 73.761719 56.28125 L 74.105469 56.035156 C 74.292969 56.085938 74.417969 56.085938 74.46875 56.035156 L 74.730469 55.824219 C 74.792969 55.777344 74.898438 55.71875 75.042969 55.644531 C 75.109375 55.609375 75.171875 55.578125 75.234375 55.558594 M 74.5 55.808594 L 74.296875 55.808594 L 73.941406 56.027344 L 73.601562 56.171875 L 73.160156 56.171875 L 72.980469 56.035156 L 72.625 56.035156 L 72.578125 56.082031 C 72.515625 56.105469 72.480469 56.097656 72.46875 56.058594 C 72.464844 56.03125 72.417969 56.042969 72.328125 56.09375 C 72.242188 56.152344 72.191406 56.167969 72.175781 56.140625 L 72.097656 56.050781 C 72.082031 56.007812 72.089844 55.960938 72.128906 55.910156 L 72.144531 55.839844 L 72.257812 55.769531 L 72.40625 55.644531 L 72.460938 55.488281 C 72.488281 55.4375 72.519531 55.390625 72.5625 55.347656 L 72.671875 55.222656 L 72.878906 54.945312 C 72.976562 54.828125 73.035156 54.808594 73.050781 54.882812 L 73.179688 54.90625 L 73.738281 54.851562 L 73.660156 55.023438 L 73.21875 55.378906 L 72.753906 55.894531 L 72.964844 55.878906 L 73.175781 55.746094 L 73.304688 55.894531 L 74.117188 55.558594 L 74.5 55.574219 L 74.613281 55.675781 L 74.5 55.808594 M 75.226562 57.0625 L 74.824219 57.503906 L 74.453125 57.722656 L 75.003906 57.015625 L 75.257812 56.78125 L 75.535156 56.554688 L 75.863281 56.140625 L 76.054688 56.101562 L 75.910156 56.351562 L 75.226562 57.0625 M 74.800781 56.632812 L 75.078125 56.28125 L 75.421875 56.210938 L 75.351562 56.328125 L 75.15625 56.453125 L 74.800781 56.789062 L 74.5 57.222656 L 74.234375 57.488281 L 74.003906 57.472656 L 74.304688 57.140625 L 74.800781 56.632812 M 74.660156 57.988281 C 74.78125 57.804688 74.890625 57.671875 74.988281 57.582031 L 75.714844 56.898438 L 76.164062 56.507812 L 76.359375 56.210938 L 76.535156 56.066406 L 76.707031 56.035156 L 76.574219 56.265625 L 76.039062 56.789062 L 74.753906 58.003906 L 74.660156 57.988281 M 79.332031 54.703125 L 79.441406 54.648438 C 79.539062 54.597656 79.636719 54.550781 79.730469 54.507812 L 79.953125 54.453125 L 79.890625 54.585938 L 79.371094 54.914062 L 78.425781 55.519531 L 78.257812 55.636719 C 78.328125 55.570312 78.34375 55.539062 78.304688 55.542969 L 78.148438 55.574219 C 78.089844 55.585938 78.023438 55.613281 77.9375 55.660156 L 77.777344 55.785156 L 77.457031 55.878906 L 77.667969 55.613281 L 77.890625 55.527344 L 78.234375 55.363281 L 78.761719 55.015625 C 78.859375 54.945312 79.050781 54.84375 79.332031 54.703125 M 80.511719 55.878906 C 80.453125 55.832031 80.414062 55.8125 80.386719 55.824219 L 80.171875 55.910156 L 79.945312 55.941406 L 79.851562 55.871094 C 79.796875 55.828125 79.738281 55.816406 79.675781 55.832031 L 79.355469 55.949219 L 79.078125 55.996094 C 79.015625 55.949219 78.949219 55.914062 78.875 55.894531 C 78.789062 55.867188 78.71875 55.878906 78.667969 55.933594 L 78.410156 56.203125 L 78.164062 56.445312 L 77.945312 56.710938 L 77.675781 57.054688 L 77.449219 57.394531 C 77.3125 57.59375 77.21875 57.773438 77.171875 57.933594 L 77.0625 58.152344 L 76.917969 58.351562 C 76.878906 58.421875 76.839844 58.445312 76.792969 58.421875 L 76.628906 58.335938 C 76.574219 58.320312 76.582031 58.273438 76.652344 58.191406 L 76.894531 57.894531 C 77.085938 57.570312 77.292969 57.273438 77.519531 57 L 77.890625 56.570312 L 78.210938 56.203125 L 78.425781 55.980469 L 78.535156 55.855469 L 78.746094 55.722656 L 80.203125 55.652344 L 80.984375 55.472656 L 81.324219 55.472656 L 81.757812 55.152344 L 82.046875 55.121094 C 82.003906 55.214844 81.949219 55.292969 81.875 55.347656 L 81.8125 55.425781 L 82.109375 55.496094 L 82.394531 55.558594 L 82.609375 55.558594 L 83.59375 55.597656 L 83.703125 55.636719 C 83.78125 55.664062 83.828125 55.6875 83.84375 55.714844 L 83.8125 55.839844 L 83.65625 55.957031 L 83.402344 56.066406 L 83.433594 55.957031 L 83.378906 56.003906 L 83.175781 56.179688 L 83.007812 56.179688 L 83.394531 55.785156 L 83.074219 55.785156 L 82.867188 56.082031 L 82.695312 55.972656 L 82.464844 55.980469 L 82.347656 55.988281 L 82.371094 55.808594 C 82.367188 55.753906 82.351562 55.742188 82.332031 55.769531 L 82.183594 55.871094 L 82.03125 55.878906 L 81.945312 55.769531 C 81.867188 55.65625 81.773438 55.726562 81.664062 55.980469 L 81.582031 56.148438 L 81.410156 56.429688 L 81.140625 56.859375 L 80.914062 57.125 L 80.726562 57.246094 L 80.246094 57.683594 C 80.1875 57.71875 80.148438 57.714844 80.140625 57.667969 L 80.15625 57.582031 C 80.347656 57.46875 80.511719 57.332031 80.652344 57.175781 L 80.851562 56.9375 L 80.992188 56.703125 C 81.152344 56.421875 81.238281 56.226562 81.253906 56.117188 C 81.28125 56.035156 81.277344 55.980469 81.246094 55.949219 C 81.222656 55.910156 81.199219 55.933594 81.175781 56.019531 L 81.039062 56.273438 L 80.851562 56.515625 L 80.589844 56.9375 L 80.363281 57.167969 C 80.277344 57.230469 80.152344 57.285156 79.992188 57.332031 C 79.738281 57.40625 79.464844 57.558594 79.171875 57.792969 L 78.960938 57.957031 C 78.851562 58.027344 78.765625 58.066406 78.699219 58.074219 C 78.621094 58.078125 78.613281 58.050781 78.675781 57.988281 L 79.039062 57.722656 L 79.410156 57.503906 L 80.046875 57.191406 C 80.300781 57.070312 80.425781 56.96875 80.425781 56.898438 C 80.4375 56.757812 80.5 56.613281 80.621094 56.46875 L 80.875 56.132812 L 80.84375 56.019531 C 80.878906 55.941406 80.859375 55.902344 80.773438 55.910156 L 80.511719 55.878906 M 80.527344 54.453125 L 80.566406 54.515625 L 80.566406 54.625 L 80.542969 54.648438 L 79.96875 54.914062 L 79.566406 55.207031 L 79.101562 55.519531 L 78.488281 55.722656 L 78.34375 55.714844 L 78.265625 55.699219 L 79.179688 55.183594 L 79.425781 54.992188 L 80.527344 54.453125 M 81.171875 54.59375 L 81.078125 54.648438 L 80.605469 54.953125 L 80.007812 55.363281 L 79.90625 55.417969 L 79.84375 55.433594 L 79.746094 55.457031 L 79.480469 55.488281 L 79.039062 55.644531 L 79.574219 55.324219 L 79.667969 55.246094 C 79.75 55.191406 79.835938 55.144531 79.929688 55.113281 L 80.410156 54.882812 L 80.796875 54.65625 L 80.8125 54.648438 C 80.957031 54.550781 81.078125 54.5 81.175781 54.5 C 81.25 54.5 81.246094 54.53125 81.171875 54.59375 M 81.109375 54.804688 L 81.480469 54.585938 L 81.6875 54.585938 L 81.65625 54.648438 L 81.519531 54.804688 C 81.492188 54.835938 81.40625 54.875 81.261719 54.929688 L 80.960938 55.082031 C 80.828125 55.167969 80.707031 55.269531 80.605469 55.386719 C 80.511719 55.496094 80.210938 55.566406 79.707031 55.597656 L 79.90625 55.417969 L 80.195312 55.339844 L 80.332031 55.261719 L 80.550781 55.160156 L 81.109375 54.804688 M 79.164062 54.648438 L 79.007812 54.742188 L 77.984375 55.386719 L 77.628906 55.535156 C 77.503906 55.570312 77.40625 55.621094 77.328125 55.683594 L 77.15625 55.839844 L 77.046875 55.878906 L 76.863281 55.902344 L 76.753906 55.894531 L 76.960938 55.769531 L 77.179688 55.660156 L 77.359375 55.535156 C 77.441406 55.4375 77.53125 55.363281 77.628906 55.308594 L 78.242188 55.007812 L 78.835938 54.664062 L 78.859375 54.648438 C 78.960938 54.582031 79.039062 54.542969 79.101562 54.539062 L 79.25 54.546875 C 79.289062 54.546875 79.28125 54.570312 79.21875 54.617188 L 79.164062 54.648438 M 78.0625 54.75 L 78.257812 54.679688 C 78.34375 54.636719 78.355469 54.652344 78.289062 54.726562 C 77.960938 55.011719 77.714844 55.191406 77.542969 55.261719 L 77.25 55.378906 L 77.101562 55.488281 C 77.09375 55.5 77.089844 55.535156 77.09375 55.597656 L 77 55.660156 C 76.929688 55.664062 76.8125 55.710938 76.652344 55.792969 C 76.519531 55.847656 76.410156 55.902344 76.328125 55.957031 C 76.261719 56.003906 76.175781 56.035156 76.070312 56.050781 L 75.996094 56.035156 L 75.972656 56.019531 L 76.746094 55.496094 L 76.96875 55.386719 C 77.089844 55.355469 77.421875 55.148438 77.96875 54.765625 L 78.0625 54.75 M 78.34375 55.714844 C 78.371094 55.71875 78.355469 55.75 78.296875 55.808594 L 78.085938 56.035156 L 77.785156 56.429688 L 77.140625 57.117188 L 76.429688 57.878906 L 76.28125 58.019531 L 76.101562 58.113281 C 76.039062 58.136719 76.039062 58.101562 76.101562 58.003906 L 76.234375 57.761719 C 76.292969 57.625 76.480469 57.425781 76.800781 57.160156 L 77.480469 56.523438 L 77.863281 56.082031 L 77.914062 55.941406 L 77.921875 55.878906 L 78.109375 55.792969 L 78.34375 55.714844 M 76.582031 54.695312 L 76.367188 55.261719 C 76.371094 55.367188 76.339844 55.457031 76.273438 55.535156 L 76.078125 55.746094 L 75.957031 55.847656 L 75.933594 56.019531 L 75.785156 56.132812 L 75.792969 56.011719 C 75.796875 55.964844 75.820312 55.914062 75.863281 55.863281 L 75.894531 55.761719 L 75.910156 55.644531 L 76.164062 55.144531 L 76.429688 54.640625 C 76.484375 54.527344 76.558594 54.449219 76.652344 54.414062 L 76.582031 54.695312 M 86.886719 55.339844 L 87.4375 55.105469 L 87.539062 55.058594 L 87.625 55 L 87.71875 54.796875 C 87.777344 54.691406 87.847656 54.628906 87.925781 54.601562 C 88 54.589844 88.0625 54.605469 88.121094 54.648438 C 88.175781 54.695312 88.191406 54.757812 88.160156 54.835938 L 88.082031 54.953125 L 87.933594 55.007812 C 87.902344 55.015625 87.90625 55.023438 87.941406 55.023438 C 88.015625 55.027344 88.085938 55.046875 88.160156 55.082031 C 88.242188 55.128906 88.273438 55.179688 88.257812 55.230469 C 88.203125 55.398438 88.078125 55.46875 87.878906 55.449219 C 87.828125 55.449219 87.785156 55.429688 87.75 55.394531 L 87.664062 55.332031 L 87.539062 55.300781 L 87.484375 55.316406 L 87.191406 55.472656 L 86.453125 55.769531 C 86.332031 55.804688 86.269531 55.847656 86.269531 55.902344 L 86.191406 56.050781 C 86.128906 56.117188 86.058594 56.148438 85.980469 56.140625 L 85.78125 56.089844 C 85.734375 56.058594 85.722656 55.992188 85.75 55.894531 C 85.757812 55.855469 85.796875 55.828125 85.859375 55.808594 C 85.917969 55.796875 85.941406 55.777344 85.925781 55.753906 C 85.921875 55.738281 85.878906 55.722656 85.796875 55.707031 C 85.722656 55.695312 85.695312 55.648438 85.710938 55.566406 C 85.726562 55.476562 85.765625 55.414062 85.835938 55.378906 L 86.042969 55.402344 L 86.214844 55.535156 L 86.414062 55.558594 L 86.886719 55.339844 M 87.632812 55.613281 C 87.734375 55.472656 87.863281 55.449219 88.011719 55.542969 L 88.113281 55.652344 L 88.152344 55.753906 C 88.1875 55.804688 88.238281 55.832031 88.304688 55.832031 L 88.59375 55.800781 L 89.296875 55.800781 C 89.417969 55.804688 89.484375 55.785156 89.5 55.746094 C 89.515625 55.699219 89.550781 55.660156 89.609375 55.628906 L 89.808594 55.621094 L 89.964844 55.746094 C 89.984375 55.792969 89.96875 55.855469 89.917969 55.941406 C 89.898438 55.980469 89.859375 55.996094 89.800781 55.988281 C 89.75 55.976562 89.722656 55.984375 89.722656 56.011719 L 89.816406 56.101562 C 89.875 56.144531 89.882812 56.199219 89.847656 56.265625 C 89.800781 56.359375 89.746094 56.410156 89.675781 56.414062 C 89.609375 56.425781 89.558594 56.390625 89.523438 56.3125 L 89.421875 56.109375 L 89.265625 56.011719 L 88.800781 56.035156 L 88.265625 56.058594 C 88.175781 56.058594 88.113281 56.070312 88.089844 56.09375 L 87.933594 56.25 C 87.847656 56.328125 87.765625 56.363281 87.695312 56.351562 C 87.632812 56.34375 87.585938 56.304688 87.554688 56.234375 L 87.539062 56.1875 L 87.539062 56.117188 L 87.578125 56.042969 L 87.679688 55.964844 L 87.824219 55.964844 C 87.855469 55.96875 87.855469 55.960938 87.816406 55.941406 L 87.664062 55.800781 C 87.605469 55.722656 87.597656 55.660156 87.632812 55.613281 M 82.496094 56.398438 L 82.59375 56.476562 L 82.695312 56.539062 L 82.757812 56.570312 L 82.78125 56.648438 L 82.867188 56.75 C 82.917969 56.804688 83.082031 56.835938 83.363281 56.835938 L 83.859375 56.828125 L 84.308594 56.921875 L 84.441406 56.9375 L 84.441406 57.085938 L 84.097656 57.085938 L 84.097656 57.300781 L 84.074219 57.292969 L 83.773438 57.230469 L 83.433594 57.199219 C 83.410156 57.199219 83.316406 57.246094 83.144531 57.339844 C 83 57.410156 82.914062 57.480469 82.890625 57.558594 C 82.875 57.589844 82.855469 57.6875 82.835938 57.847656 C 82.835938 57.933594 82.824219 57.976562 82.796875 57.972656 L 82.695312 57.980469 L 82.6875 57.988281 L 82.527344 58.027344 C 82.480469 58.015625 82.421875 57.984375 82.347656 57.933594 L 82.269531 57.832031 L 82.277344 57.652344 L 82.246094 57.472656 L 82.207031 57.300781 L 82.160156 57.167969 L 82.117188 57.085938 C 82.105469 57.046875 82.109375 57.023438 82.121094 57.015625 L 82.167969 56.976562 L 82.371094 56.898438 C 82.429688 56.84375 82.433594 56.820312 82.386719 56.820312 L 82.222656 56.820312 L 82.230469 56.773438 L 82.207031 56.6875 L 82.222656 56.632812 L 82.277344 56.523438 C 82.339844 56.40625 82.382812 56.351562 82.410156 56.367188 C 82.441406 56.390625 82.46875 56.398438 82.496094 56.398438 M 43.140625 55.199219 C 43.199219 55.066406 43.285156 54.992188 43.398438 54.976562 C 43.5 54.964844 43.578125 55.015625 43.628906 55.128906 L 43.699219 55.261719 L 43.792969 55.457031 C 43.859375 55.554688 43.941406 55.605469 44.03125 55.605469 L 44.738281 55.558594 L 45.574219 55.535156 C 45.714844 55.535156 45.808594 55.515625 45.855469 55.472656 L 46.054688 55.261719 L 46.085938 55.238281 C 46.214844 55.121094 46.339844 55.066406 46.457031 55.074219 C 46.554688 55.089844 46.625 55.152344 46.667969 55.261719 C 46.730469 55.367188 46.71875 55.46875 46.636719 55.566406 C 46.585938 55.640625 46.53125 55.675781 46.480469 55.675781 L 46.257812 55.675781 C 46.210938 55.671875 46.210938 55.683594 46.265625 55.714844 C 46.355469 55.765625 46.4375 55.839844 46.503906 55.933594 C 46.59375 56.046875 46.609375 56.140625 46.550781 56.21875 C 46.394531 56.4375 46.203125 56.472656 45.96875 56.328125 L 45.816406 56.164062 L 45.753906 56.011719 C 45.695312 55.925781 45.617188 55.886719 45.511719 55.894531 L 45.070312 55.941406 L 43.972656 55.933594 C 43.789062 55.921875 43.6875 55.949219 43.660156 56.019531 C 43.636719 56.089844 43.582031 56.152344 43.5 56.203125 L 43.1875 56.210938 L 42.949219 56.019531 C 42.921875 55.945312 42.941406 55.84375 43.011719 55.714844 C 43.042969 55.65625 43.105469 55.632812 43.203125 55.644531 C 43.28125 55.660156 43.320312 55.648438 43.320312 55.605469 L 43.171875 55.464844 C 43.109375 55.414062 43.09375 55.347656 43.117188 55.261719 L 43.140625 55.199219 "/>
</g>
</svg>
