<?xml version="1.0" encoding="UTF-8"?>
<svg xmlns="http://www.w3.org/2000/svg" xmlns:xlink="http://www.w3.org/1999/xlink" width="128pt" height="126pt" viewBox="0 0 128 126" version="1.1">
<g id="surface1">
<path style=" stroke:none;fill-rule:nonzero;fill:rgb(0%,0%,0%);fill-opacity:1;" d="M 29.355469 98.398438 L 29.355469 97.699219 L 29.53125 97.960938 L 29.355469 98.398438 M 12.121094 45.652344 L 12.734375 44.6875 L 14.394531 44.074219 L 12.121094 45.652344 M 22.792969 40.742188 L 25.507812 39.691406 L 26.46875 37.851562 L 26.46875 38.730469 L 25.242188 40.394531 L 22.792969 40.742188 M 83.246094 11.742188 L 86.398438 10.25 L 86.484375 10.25 L 83.597656 12.003906 L 83.246094 11.742188 M 25.679688 93.316406 C 21.25 91.855469 17.398438 89.375 14.132812 85.871094 C 10.050781 81.429688 7.660156 76.171875 6.957031 70.097656 C 6.199219 63.027344 7.890625 56.632812 12.03125 50.910156 C 15.414062 46.292969 19.671875 43.050781 24.804688 41.183594 L 24.195312 42.847656 C 23.320312 46 23.816406 49.097656 25.679688 52.136719 C 27.605469 55.113281 30.347656 57.21875 33.90625 58.445312 C 31.222656 56.867188 29.238281 54.820312 27.957031 52.308594 C 26.671875 49.738281 26.378906 47.226562 27.082031 44.773438 C 27.957031 41.621094 30.113281 39.34375 33.554688 37.941406 L 44.753906 37.503906 L 48.078125 38.816406 C 46.210938 37.0625 43.996094 35.808594 41.429688 35.046875 C 37.578125 33.9375 33.992188 34.171875 30.667969 35.75 C 29.09375 36.449219 27.808594 37.328125 26.816406 38.378906 C 26.992188 32.710938 28.566406 27.367188 31.542969 22.34375 C 35.160156 16.210938 40.234375 11.683594 46.765625 8.761719 C 52.597656 6.132812 58.664062 5.257812 64.960938 6.132812 C 71.144531 6.953125 76.65625 9.289062 81.496094 13.144531 L 82.632812 14.105469 C 86.367188 17.320312 89.253906 21.203125 91.296875 25.761719 C 92.519531 28.566406 93.367188 31.425781 93.832031 34.347656 C 93.601562 30.316406 92.636719 26.460938 90.945312 22.78125 C 89.195312 18.867188 86.949219 15.507812 84.210938 12.707031 C 87.066406 11.363281 90.070312 10.75 93.21875 10.863281 C 99.636719 11.097656 105.03125 13.992188 109.40625 19.539062 C 113.722656 25.089844 115.734375 31.660156 115.441406 39.253906 C 115.265625 44.628906 113.925781 49.476562 111.417969 53.800781 L 105.03125 50.121094 L 105.554688 52.484375 C 111.503906 56.398438 115.820312 61.304688 118.503906 67.207031 C 121.1875 73.222656 121.652344 79.179688 119.902344 85.082031 C 118.039062 91.390625 113.984375 96.324219 107.742188 99.890625 L 103.632812 101.902344 L 95.320312 104.007812 C 92.636719 104.359375 89.808594 104.414062 86.835938 104.183594 L 94.269531 105.058594 L 92.082031 111.71875 L 89.109375 115.484375 C 86.074219 118.464844 82.519531 120.160156 78.433594 120.566406 C 73.304688 121.152344 68.722656 119.632812 64.699219 116.011719 C 60.617188 112.449219 58.3125 107.890625 57.789062 102.34375 L 57.789062 97.433594 C 56.214844 100.707031 55.628906 104.183594 56.039062 107.863281 L 56.214844 109 L 50.878906 113.910156 L 49.828125 114.433594 L 47.378906 115.398438 C 43.585938 116.625 40.117188 116.390625 36.964844 114.695312 C 34.109375 113.121094 32.125 110.667969 31.015625 107.335938 C 30.144531 104.765625 29.910156 102.078125 30.316406 99.273438 C 32.125 101.960938 34.75 103.890625 38.191406 105.058594 C 35.449219 103.480469 33.4375 101.4375 32.15625 98.925781 C 30.871094 96.355469 30.582031 93.84375 31.28125 91.390625 C 32.214844 88.234375 34.398438 85.957031 37.839844 84.554688 L 49.039062 84.117188 L 52.277344 85.429688 C 50.46875 83.679688 48.253906 82.421875 45.628906 81.664062 C 41.835938 80.554688 38.277344 80.789062 34.953125 82.363281 C 31.570312 83.882812 29.414062 86.277344 28.480469 89.550781 C 28.128906 90.894531 28.015625 92.207031 28.128906 93.492188 L 25.679688 93.316406 "/>
<path style=" stroke:none;fill-rule:nonzero;fill:rgb(100%,100%,100%);fill-opacity:1;" d="M 86.484375 10.25 C 88.757812 9.082031 91.207031 8.265625 93.832031 7.796875 C 98.441406 7.039062 102.929688 7.507812 107.304688 9.199219 C 113.898438 11.710938 118.621094 16.210938 121.480469 22.695312 C 124.394531 29.121094 124.570312 35.632812 122.003906 42.234375 C 120.894531 45.210938 119.292969 47.839844 117.191406 50.121094 C 115.734375 51.8125 114.101562 53.246094 112.292969 54.414062 C 116.433594 57.449219 119.730469 61.128906 122.179688 65.453125 C 126.027344 72.230469 126.933594 79.003906 124.890625 85.78125 C 122.734375 92.792969 118.007812 98.046875 110.71875 101.554688 C 105.703125 103.949219 100.367188 105.117188 94.707031 105.058594 C 94.941406 110.082031 93.394531 114.523438 90.070312 118.375 C 86.746094 122.347656 82.488281 124.597656 77.296875 125.125 C 71.992188 125.707031 67.265625 124.304688 63.125 120.917969 C 59.507812 117.996094 57.261719 114.375 56.386719 110.054688 C 53.9375 113.910156 50.789062 116.652344 46.941406 118.289062 C 42.625 120.160156 38.65625 120.101562 35.042969 118.113281 C 31.601562 116.246094 29.472656 113.089844 28.65625 108.652344 C 27.957031 105.261719 28.1875 101.84375 29.355469 98.398438 L 29.53125 97.960938 L 29.355469 97.699219 L 28.480469 95.332031 C 21.949219 95.332031 16.117188 93.171875 10.984375 88.847656 C 5.324219 84.117188 2.089844 78.070312 1.273438 70.710938 C 0.457031 63.117188 2.4375 56.371094 7.222656 50.46875 L 12.121094 45.652344 L 14.394531 44.074219 L 22.792969 40.742188 L 25.242188 40.394531 L 26.46875 38.730469 L 26.46875 37.851562 C 26.175781 31.835938 27.488281 26.082031 30.40625 20.589844 C 34.019531 13.816406 39.359375 8.851562 46.414062 5.695312 C 54.929688 1.898438 63.535156 1.664062 72.222656 4.996094 C 76.480469 6.628906 80.15625 8.878906 83.246094 11.742188 L 83.597656 12.003906 L 86.484375 10.25 M 94.269531 105.058594 L 86.835938 104.183594 C 89.808594 104.414062 92.636719 104.359375 95.320312 104.007812 L 103.632812 101.902344 L 107.742188 99.890625 C 113.984375 96.324219 118.039062 91.390625 119.902344 85.082031 C 121.652344 79.179688 121.1875 73.222656 118.503906 67.207031 C 115.820312 61.304688 111.503906 56.398438 105.554688 52.484375 L 105.03125 50.121094 L 111.417969 53.800781 C 113.925781 49.476562 115.265625 44.628906 115.441406 39.253906 C 115.734375 31.660156 113.722656 25.089844 109.40625 19.539062 C 105.03125 13.992188 99.636719 11.097656 93.21875 10.863281 C 90.070312 10.75 87.066406 11.363281 84.210938 12.707031 C 86.949219 15.507812 89.195312 18.867188 90.945312 22.78125 C 92.636719 26.460938 93.601562 30.316406 93.832031 34.347656 C 93.367188 31.425781 92.519531 28.566406 91.296875 25.761719 C 89.253906 21.203125 86.367188 17.320312 82.632812 14.105469 L 81.496094 13.144531 C 76.65625 9.289062 71.144531 6.953125 64.960938 6.132812 C 58.664062 5.257812 52.597656 6.132812 46.765625 8.761719 C 40.234375 11.683594 35.160156 16.210938 31.542969 22.34375 C 28.566406 27.367188 26.992188 32.710938 26.816406 38.378906 C 27.808594 37.328125 29.09375 36.449219 30.667969 35.75 C 33.992188 34.171875 37.578125 33.9375 41.429688 35.046875 C 43.996094 35.808594 46.210938 37.0625 48.078125 38.816406 L 44.753906 37.503906 L 33.554688 37.941406 C 30.113281 39.34375 27.957031 41.621094 27.082031 44.773438 C 26.378906 47.226562 26.671875 49.738281 27.957031 52.308594 C 29.238281 54.820312 31.222656 56.867188 33.90625 58.445312 C 30.347656 57.21875 27.605469 55.113281 25.679688 52.136719 C 23.816406 49.097656 23.320312 46 24.195312 42.847656 L 24.804688 41.183594 C 19.671875 43.050781 15.414062 46.292969 12.03125 50.910156 C 7.890625 56.632812 6.199219 63.027344 6.957031 70.097656 C 7.660156 76.171875 10.050781 81.429688 14.132812 85.871094 C 17.398438 89.375 21.25 91.855469 25.679688 93.316406 L 28.21875 93.929688 L 28.128906 93.492188 C 28.015625 92.207031 28.128906 90.894531 28.480469 89.550781 C 29.414062 86.277344 31.570312 83.882812 34.953125 82.363281 C 38.277344 80.789062 41.835938 80.554688 45.628906 81.664062 C 48.253906 82.421875 50.46875 83.679688 52.277344 85.429688 L 49.039062 84.117188 L 37.839844 84.554688 C 34.398438 85.957031 32.214844 88.234375 31.28125 91.390625 C 30.582031 93.84375 30.871094 96.355469 32.15625 98.925781 C 33.4375 101.4375 35.449219 103.480469 38.191406 105.058594 C 34.75 103.890625 32.125 101.960938 30.316406 99.273438 C 29.910156 102.078125 30.144531 104.765625 31.015625 107.335938 C 32.125 110.667969 34.109375 113.121094 36.964844 114.695312 C 40.117188 116.390625 43.585938 116.625 47.378906 115.398438 L 48.078125 115.136719 L 49.828125 114.433594 L 50.878906 113.910156 C 52.859375 112.738281 54.640625 111.222656 56.214844 109.351562 L 56.214844 109 L 56.039062 107.863281 C 55.628906 104.183594 56.214844 100.707031 57.789062 97.433594 L 57.789062 102.34375 C 58.3125 107.890625 60.617188 112.449219 64.699219 116.011719 C 68.722656 119.632812 73.304688 121.152344 78.433594 120.566406 C 82.519531 120.160156 86.074219 118.464844 89.109375 115.484375 L 92.082031 111.71875 C 93.308594 109.730469 94.183594 107.511719 94.707031 105.058594 L 94.269531 105.058594 "/>
</g>
</svg>
