<?xml version="1.0" encoding="UTF-8"?>
<svg xmlns="http://www.w3.org/2000/svg" xmlns:xlink="http://www.w3.org/1999/xlink" width="125pt" height="25pt" viewBox="0 0 125 25" version="1.1">
<g id="surface1">
<path style=" stroke:none;fill-rule:nonzero;fill:rgb(100%,100%,100%);fill-opacity:1;" d="M 88.058594 18.804688 L 87.851562 18.910156 C 83.875 19.542969 80.011719 19.5 76.261719 18.785156 L 76.613281 18.660156 C 80.359375 19.347656 84.132812 19.382812 87.933594 18.765625 C 88.070312 18.75 88.113281 18.765625 88.058594 18.804688 M 104.304688 17.585938 L 104.117188 17.566406 L 104.28125 17.460938 L 110.046875 16.511719 C 111.074219 16.304688 111.789062 16.105469 112.199219 15.910156 C 113.117188 15.496094 113.300781 14.960938 112.753906 14.296875 L 112.917969 14.195312 C 113.042969 14.152344 113.117188 14.152344 113.144531 14.195312 C 113.582031 14.734375 113.546875 15.207031 113.042969 15.621094 C 112.714844 15.871094 112.222656 16.082031 111.566406 16.261719 C 110.675781 16.523438 109.464844 16.765625 107.933594 16.984375 L 104.304688 17.585938 M 119.503906 7.765625 C 120.898438 8.6875 120.972656 9.625 119.726562 10.578125 C 118.785156 11.308594 117.648438 11.789062 116.324219 12.023438 L 116.140625 12.003906 L 116.304688 11.902344 C 117.453125 11.695312 118.484375 11.21875 119.398438 10.472656 C 120.589844 9.535156 120.5 8.667969 119.132812 7.871094 C 118.203125 7.34375 117.171875 6.90625 116.035156 6.546875 C 113.753906 5.816406 111.652344 5.359375 109.738281 5.183594 C 109.65625 5.167969 109.671875 5.132812 109.78125 5.078125 L 110.003906 5.035156 C 114.191406 5.421875 117.355469 6.332031 119.503906 7.765625 M 84.222656 0.261719 L 98.804688 1.398438 L 105.59375 2.308594 C 109.125 2.859375 112.488281 3.546875 115.6875 4.375 C 117.984375 4.996094 119.90625 5.664062 121.453125 6.378906 L 122.886719 7.207031 C 123.421875 7.566406 123.863281 7.972656 124.21875 8.425781 C 124.738281 8.9375 124.882812 9.640625 124.652344 10.535156 C 124.417969 11.363281 124.035156 11.914062 123.503906 12.191406 C 122.65625 12.835938 121.65625 13.410156 120.507812 13.90625 L 117.347656 15.042969 L 116.917969 15.167969 C 117.097656 15.402344 117.179688 15.664062 117.164062 15.953125 C 117.152344 16.226562 117.070312 16.46875 116.917969 16.675781 L 116.507812 17.027344 C 116.042969 17.34375 115.503906 17.597656 114.886719 17.792969 L 113.289062 18.246094 C 106.300781 19.488281 98.683594 20.328125 90.4375 20.769531 L 80.425781 21.203125 L 78.785156 21.246094 L 78.828125 21.203125 C 78.894531 21.121094 78.820312 21.132812 78.601562 21.246094 L 78.785156 21.246094 L 78.152344 21.84375 C 76.589844 23.140625 74.246094 24.015625 71.113281 24.46875 L 60.550781 24.945312 C 56.023438 24.902344 51.886719 24.386719 48.140625 23.394531 L 46.582031 22.753906 C 45.996094 22.449219 45.488281 22.066406 45.066406 21.597656 C 44.984375 21.761719 44.601562 21.914062 43.917969 22.050781 L 42.253906 22.359375 L 35.773438 23.125 C 31.902344 23.429688 27.792969 23.386719 23.445312 23 C 18.933594 22.5625 15.542969 22.007812 13.269531 21.347656 C 11.5625 20.769531 10.40625 19.90625 9.804688 18.765625 C 9.257812 17.828125 9.113281 16.65625 9.375 15.25 C 8.417969 15.125 7.226562 14.773438 5.804688 14.195312 C 4.613281 13.699219 3.433594 13.132812 2.257812 12.5 C 1.628906 12.183594 1.121094 11.722656 0.738281 11.113281 C 0.246094 10.34375 0.210938 9.597656 0.636719 8.882812 C 0.949219 8.316406 1.367188 7.828125 1.886719 7.414062 L 3.324219 6.421875 C 5.128906 5.484375 7.171875 4.726562 9.457031 4.148438 C 10.960938 3.789062 13.195312 3.382812 16.164062 2.929688 C 13.265625 3.546875 11.054688 4.09375 9.539062 4.5625 C 7.296875 5.238281 5.3125 6.058594 3.589844 7.023438 C 2.386719 7.792969 1.59375 8.542969 1.210938 9.273438 C 0.730469 10.046875 1.195312 10.867188 2.605469 11.734375 C 3.261719 12.148438 4.394531 12.652344 6.011719 13.246094 C 7.652344 13.835938 9.039062 14.5 10.175781 15.230469 C 9.859375 16.277344 9.976562 17.296875 10.523438 18.289062 C 11.125 19.363281 12.117188 20.085938 13.496094 20.460938 C 15.847656 21.121094 19.183594 21.65625 23.507812 22.070312 C 27.855469 22.417969 31.921875 22.457031 35.710938 22.195312 L 42.132812 21.410156 L 43.691406 21.101562 L 45.679688 20.996094 C 46.132812 21.546875 47.027344 22.050781 48.367188 22.503906 C 51.992188 23.457031 56.058594 23.960938 60.570312 24.015625 L 71.011719 23.539062 C 72.476562 23.320312 73.796875 22.996094 74.972656 22.566406 C 76.121094 22.152344 77.03125 21.65625 77.699219 21.078125 L 78.128906 20.6875 L 78.191406 20.582031 C 78.207031 20.554688 78.34375 20.464844 78.601562 20.3125 L 80.40625 20.273438 L 90.394531 19.839844 C 98.640625 19.382812 106.21875 18.550781 113.125 17.335938 C 114.519531 16.992188 115.496094 16.628906 116.058594 16.242188 L 116.363281 15.910156 L 116.078125 15.558594 L 115.851562 15.351562 L 115.953125 14.484375 L 115.976562 14.464844 L 117.144531 14.132812 L 120.242188 13.015625 C 121.347656 12.546875 122.277344 12.023438 123.03125 11.445312 C 124.027344 10.769531 124.214844 9.976562 123.585938 9.066406 C 123.078125 8.324219 122.265625 7.71875 121.144531 7.25 C 119.640625 6.558594 117.757812 5.90625 115.503906 5.285156 C 112.34375 4.484375 109.007812 3.804688 105.492188 3.238281 L 98.722656 2.328125 C 90.503906 1.433594 81.28125 0.683594 71.054688 0.0742188 C 76.535156 0.0625 80.925781 0.125 84.222656 0.261719 M 51.667969 21.804688 C 49.988281 21.527344 48.4375 20.960938 47.011719 20.109375 C 46.398438 19.722656 45.945312 19.5 45.660156 19.445312 L 44.101562 19.589844 L 42.109375 19.984375 C 41.988281 19.996094 41.953125 19.984375 42.007812 19.941406 C 42.050781 19.886719 42.117188 19.851562 42.214844 19.839844 L 43.9375 19.382812 C 44.703125 19.136719 45.285156 19.027344 45.679688 19.054688 C 45.996094 19.066406 46.382812 19.234375 46.847656 19.550781 L 47.9375 20.3125 C 49.195312 21.003906 50.625 21.535156 52.222656 21.90625 L 51.667969 21.804688 M 54.378906 22.257812 L 52.242188 21.90625 L 56.265625 22.421875 L 54.378906 22.257812 M 60.960938 21.742188 C 61.261719 21.714844 61.335938 21.734375 61.1875 21.804688 C 59.875 22.300781 58.34375 22.511719 56.59375 22.445312 C 58.261719 22.457031 59.71875 22.222656 60.960938 21.742188 M 5.394531 6.9375 C 5.695312 6.925781 5.765625 6.945312 5.601562 7 C 4.683594 7.359375 4.019531 7.675781 3.609375 7.953125 C 2.652344 8.558594 2.359375 9.164062 2.726562 9.769531 C 3.070312 10.335938 3.699219 10.804688 4.613281 11.175781 L 6.832031 11.878906 L 6.480469 12.023438 L 4.921875 11.488281 L 3.40625 10.804688 C 2.695312 10.40625 2.304688 10.011719 2.234375 9.625 C 2.097656 8.964844 2.480469 8.367188 3.382812 7.828125 C 3.65625 7.664062 4.328125 7.367188 5.394531 6.9375 M 24.964844 20.5625 L 24.738281 20.644531 C 20.839844 20.796875 18.199219 20.761719 16.820312 20.542969 C 13.195312 19.976562 11.300781 18.441406 11.136719 15.933594 C 11.125 15.875 11.1875 15.835938 11.324219 15.808594 L 11.527344 15.828125 C 11.691406 18.308594 13.550781 19.832031 17.105469 20.398438 C 18.542969 20.617188 21.148438 20.644531 24.921875 20.480469 C 25.046875 20.480469 25.058594 20.507812 24.964844 20.5625 "/>
</g>
</svg>
