<?xml version="1.0" encoding="UTF-8"?>
<svg xmlns="http://www.w3.org/2000/svg" xmlns:xlink="http://www.w3.org/1999/xlink" width="128pt" height="194pt" viewBox="0 0 128 194" version="1.1">
<g id="surface1">
<path style=" stroke:none;fill-rule:nonzero;fill:rgb(0%,0%,0%);fill-opacity:1;" d="M 68.082031 9.496094 L 69.765625 13.359375 L 70.859375 17.390625 L 72.457031 23.609375 C 75.820312 24.671875 79.046875 26.15625 82.132812 28.0625 C 87.40625 31.253906 91.21875 35.0625 93.578125 39.488281 L 94.082031 40.496094 C 95.652344 43.800781 95.902344 46.210938 94.839844 47.722656 C 94.054688 48.84375 92.820312 49.738281 91.136719 50.410156 C 90.015625 50.914062 88.5 51.363281 86.59375 51.753906 L 82.804688 52.429688 C 87.238281 53.042969 91.613281 54.695312 95.933594 57.386719 C 103.222656 61.921875 109.621094 68.726562 115.117188 77.800781 C 119.886719 85.753906 123.503906 94.351562 125.972656 103.59375 C 126.53125 105.667969 126.53125 107.515625 125.972656 109.140625 L 127.234375 113.507812 C 127.738281 117.710938 127.542969 121.464844 126.644531 124.769531 C 126.308594 125.832031 125.773438 126.699219 125.046875 127.371094 C 124.429688 127.878906 123.785156 128.183594 123.109375 128.296875 C 122.15625 129.976562 121.203125 131.183594 120.25 131.910156 C 119.464844 134.765625 118.230469 138.183594 116.546875 142.160156 C 114.191406 147.761719 112.367188 150.8125 111.078125 151.316406 L 116.125 158.878906 L 121.679688 167.617188 L 121.847656 168.710938 L 121.175781 169.71875 L 120.332031 170.304688 C 121.117188 171.371094 121.511719 172.238281 121.511719 172.910156 C 121.511719 175.769531 119.855469 178.148438 116.546875 180.054688 L 116.464844 180.136719 L 114.78125 178.960938 L 111.667969 182.992188 L 110.910156 183.917969 L 107.710938 187.027344 L 101.90625 191.144531 C 99.101562 192.878906 96.660156 193.804688 94.585938 193.914062 C 93.128906 193.972656 92.144531 193.691406 91.640625 193.074219 C 91.191406 192.570312 91.585938 191.144531 92.820312 188.789062 C 94.164062 186.328125 96.15625 183.527344 98.792969 180.390625 C 94.921875 177.644531 91.21875 173.835938 87.6875 168.960938 C 84.542969 164.59375 82.355469 160.644531 81.125 157.117188 C 80.167969 154.371094 79.609375 151.121094 79.441406 147.371094 C 75.511719 147.984375 72.960938 148.574219 71.785156 149.132812 C 71.558594 149.917969 72.738281 153.753906 75.316406 160.644531 C 77.953125 167.757812 79.273438 171.902344 79.273438 173.078125 L 78.851562 174.085938 C 78.570312 174.367188 78.207031 174.507812 77.757812 174.507812 L 76.746094 174.675781 C 76.859375 176.019531 76.71875 176.972656 76.328125 177.53125 C 74.980469 179.941406 72.34375 181.089844 68.417969 180.976562 L 68.25 180.894531 L 68.164062 180.808594 L 67.40625 179.042969 C 66.171875 179.773438 64.601562 180.390625 62.695312 180.894531 L 61.519531 181.230469 L 57.140625 182.238281 L 50.074219 182.742188 C 46.765625 182.742188 44.210938 182.238281 42.417969 181.230469 C 41.128906 180.5 40.425781 179.746094 40.3125 178.960938 C 40.203125 178.289062 41.296875 177.28125 43.59375 175.9375 C 46.0625 174.535156 49.234375 173.191406 53.101562 171.902344 C 50.46875 165.574219 48.363281 159.945312 46.792969 155.015625 C 45.054688 149.414062 44.15625 145.101562 44.101562 142.078125 L 42.585938 142.078125 C 42.136719 141.964844 41.6875 141.769531 41.238281 141.488281 C 40.789062 143.167969 39.695312 143.757812 37.957031 143.253906 C 36.105469 142.636719 34.730469 141.433594 33.835938 139.640625 C 31.085938 134.320312 32.066406 128.269531 36.78125 121.492188 C 38.351562 117.683594 39.386719 113.789062 39.894531 109.8125 C 40.171875 107.628906 40.285156 105.554688 40.230469 103.59375 L 39.808594 101.914062 L 37.789062 93.34375 L 36.863281 85.953125 L 35.433594 86.035156 C 34.703125 86.035156 34.285156 85.785156 34.171875 85.28125 C 34.058594 84.832031 34.171875 84.160156 34.507812 83.261719 L 35.265625 81.246094 L 35.855469 78.390625 L 36.527344 75.699219 C 36.921875 74.46875 37.425781 73.574219 38.042969 73.011719 L 39.808594 72.089844 L 39.976562 71.585938 L 34.929688 68.222656 C 29.878906 64.078125 26.683594 58.730469 25.335938 52.175781 L 24.832031 48.5625 L 21.632812 46.378906 C 20.625 45.425781 19.953125 44.222656 19.613281 42.765625 L 19.445312 41 L 17.175781 38.144531 L 14.820312 34.53125 C 13.863281 33.300781 12.769531 32.375 11.535156 31.757812 L 6.066406 29.15625 C 3.992188 27.976562 2.644531 26.578125 2.027344 24.953125 C 0.683594 21.480469 3.964844 19.855469 11.875 20.082031 L 25.589844 21.59375 L 26.429688 17.476562 L 27.691406 13.359375 L 29.121094 11.007812 L 31.058594 8.820312 L 38.042969 0.253906 L 46.960938 0 L 53.691406 2.4375 L 60.425781 4.957031 L 64.714844 6.722656 C 66.230469 7.449219 67.351562 8.375 68.082031 9.496094 M 43.425781 122.75 L 40.648438 122.667969 L 38.800781 123.003906 C 36.164062 126.8125 34.730469 130.035156 34.507812 132.667969 C 34.171875 135.804688 34.5625 138.296875 35.6875 140.144531 C 36.472656 141.375 37.230469 141.878906 37.957031 141.65625 C 38.6875 141.433594 39.136719 140.675781 39.304688 139.386719 L 39.386719 139.21875 L 37.957031 136.53125 C 37.566406 135.128906 37.566406 133.785156 37.957031 132.5 L 38.546875 132.582031 L 39.050781 133.085938 L 38.800781 134.09375 L 38.96875 136.78125 C 39.191406 137.679688 39.613281 138.519531 40.230469 139.304688 L 41.15625 139.976562 C 41.714844 140.761719 42.613281 140.621094 43.847656 139.554688 L 44.015625 139.472656 L 42.667969 138.296875 L 41.40625 136.277344 L 41.492188 135.019531 L 41.746094 133.675781 L 42.332031 133.675781 L 42.839844 134.261719 L 42.667969 134.933594 L 42.585938 135.4375 L 42.417969 136.53125 C 42.53125 137.089844 42.867188 137.679688 43.425781 138.296875 L 44.4375 139.21875 L 44.4375 139.136719 C 44.828125 137.398438 45.671875 135.578125 46.960938 133.675781 L 44.4375 131.824219 C 43.257812 130.816406 42.191406 130.339844 41.238281 130.398438 C 40.847656 130.453125 40.398438 130.203125 39.894531 129.640625 C 39.332031 129.023438 39.277344 128.71875 39.726562 128.71875 L 40.480469 128.71875 C 42.277344 128.773438 43.761719 129.472656 44.941406 130.816406 C 45.726562 131.769531 46.597656 132.359375 47.550781 132.582031 C 48.558594 132.863281 49.511719 132.695312 50.410156 132.078125 C 51.589844 131.351562 52.09375 130.648438 51.925781 129.976562 L 51 128.71875 C 50.496094 128.550781 49.960938 128.296875 49.402344 127.960938 L 48.222656 127.203125 L 47.128906 125.523438 C 46.398438 124.011719 45.167969 123.089844 43.425781 122.75 M 38.632812 85.449219 L 38.632812 85.53125 C 38.800781 88.386719 39.695312 93.234375 41.324219 100.066406 L 42.667969 106.117188 C 43.007812 108.523438 42.894531 110.597656 42.332031 112.332031 L 40.734375 116.535156 L 39.976562 120.484375 L 43.089844 120.820312 C 44.828125 121.097656 46.148438 121.574219 47.046875 122.246094 L 49.820312 125.777344 C 51.054688 127.457031 51.871094 128.074219 52.261719 127.625 L 58.066406 123.425781 C 60.871094 121.519531 62.21875 119.839844 62.105469 118.382812 L 60.84375 115.695312 L 59.078125 113.171875 L 54.449219 106.117188 L 53.441406 104.519531 L 46.035156 94.605469 C 45.753906 94.15625 45.921875 93.90625 46.539062 93.847656 L 47.886719 94.183594 L 54.113281 101.914062 L 50.410156 96.203125 C 48.335938 92.730469 46.765625 89.535156 45.699219 86.625 C 44.914062 84.496094 44.492188 82.5625 44.4375 80.828125 L 43.511719 81.835938 C 41.941406 83.570312 40.3125 84.773438 38.632812 85.449219 M 36.359375 84.269531 L 36.78125 84.1875 L 36.78125 83.261719 L 36.613281 83.515625 L 36.359375 84.269531 M 44.351562 77.632812 L 44.183594 76.289062 L 42.417969 73.769531 C 40.0625 75.898438 38.800781 79.117188 38.632812 83.429688 L 42.164062 80.40625 L 44.351562 77.632812 M 45.613281 75.363281 L 46.792969 73.347656 L 44.351562 73.347656 L 45.613281 75.363281 M 52.429688 61.082031 L 52.683594 60.996094 C 52.683594 61.277344 52.488281 61.613281 52.09375 62.007812 C 51.027344 63.070312 49.792969 63.910156 48.390625 64.527344 L 44.4375 64.695312 L 44.859375 63.769531 L 45.613281 63.265625 C 46.34375 63.9375 47.492188 63.9375 49.066406 63.265625 L 52.09375 61.332031 L 52.429688 61.082031 M 24.746094 41.757812 L 23.316406 41.839844 L 22.894531 43.269531 L 22.894531 43.523438 L 22.8125 43.523438 L 21.296875 42.511719 L 21.296875 42.933594 C 21.410156 43.605469 21.746094 44.304688 22.308594 45.035156 C 22.699219 45.539062 23.511719 46.183594 24.746094 46.964844 L 24.746094 41.757812 M 52.683594 53.4375 C 52.457031 53.269531 52.457031 53.15625 52.683594 53.101562 L 54.617188 51.921875 C 55.234375 51.417969 55.9375 51.027344 56.722656 50.746094 L 57.816406 50.914062 C 58.320312 51.25 58.460938 51.449219 58.234375 51.503906 L 56.132812 52.765625 L 56.132812 53.101562 C 54.394531 56.238281 51.394531 58.898438 47.128906 61.082031 C 42.808594 63.324219 39.277344 63.828125 36.527344 62.59375 L 36.023438 63.097656 C 35.855469 63.265625 35.65625 63.351562 35.433594 63.351562 C 35.210938 63.351562 35.011719 63.265625 34.84375 63.097656 C 34.5625 62.707031 34.621094 62.285156 35.011719 61.839844 L 36.863281 60.578125 C 37.367188 60.355469 37.734375 60.4375 37.957031 60.828125 C 38.070312 61.222656 37.984375 61.585938 37.707031 61.921875 L 41.574219 61.753906 C 43.257812 61.304688 44.941406 60.578125 46.625 59.570312 C 49.652344 57.890625 51.953125 55.984375 53.523438 53.855469 C 53.1875 53.800781 52.90625 53.660156 52.683594 53.4375 M 49.570312 39.824219 C 49.90625 40.554688 50.074219 41.226562 50.074219 41.839844 C 50.019531 42.457031 49.820312 42.851562 49.484375 43.019531 L 49.402344 43.019531 C 49.066406 43.242188 48.644531 43.15625 48.140625 42.765625 L 46.875 41.167969 L 46.371094 39.152344 L 46.960938 37.976562 L 47.046875 37.976562 L 48.390625 38.230469 L 49.570312 39.824219 M 30.804688 47.132812 C 30.804688 46.519531 31.003906 46.125 31.394531 45.957031 L 32.742188 46.210938 C 33.246094 46.601562 33.667969 47.164062 34.003906 47.890625 C 34.339844 48.5625 34.480469 49.207031 34.421875 49.824219 C 34.421875 50.4375 34.226562 50.859375 33.835938 51.082031 C 33.441406 51.25 32.992188 51.140625 32.488281 50.746094 L 31.226562 49.152344 L 30.804688 47.132812 M 32.910156 39.238281 C 33.246094 39.238281 33.414062 39.460938 33.414062 39.910156 L 33.5 40.75 L 33.328125 41.421875 C 33.160156 41.644531 32.9375 41.730469 32.65625 41.671875 L 29.207031 41.671875 L 28.785156 41.503906 L 29.121094 41.167969 L 32.488281 39.320312 L 32.910156 39.238281 M 39.136719 42.933594 L 39.472656 42.007812 C 39.753906 41.898438 39.949219 42.121094 40.0625 42.683594 L 40.3125 44.109375 L 40.480469 47.132812 L 40.398438 50.914062 C 40.398438 51.476562 40.648438 51.867188 41.15625 52.09375 L 43.425781 53.269531 L 43.761719 53.6875 L 43.59375 54.191406 L 42.839844 54.78125 C 42.445312 54.949219 42.054688 54.949219 41.660156 54.78125 L 38.800781 53.183594 L 38.292969 52.679688 L 38.210938 52.007812 L 39.136719 46.628906 L 39.136719 42.933594 M 29.039062 30.75 L 30.132812 29.492188 L 25.335938 30.835938 L 24.074219 31.421875 C 23.625 32.09375 23.035156 32.597656 22.308594 32.933594 L 21.632812 33.273438 C 21.183594 33.886719 21.074219 34.53125 21.296875 35.203125 L 22.558594 37.640625 L 23.570312 40.078125 L 23.484375 40.917969 L 24.832031 40.582031 C 25.785156 40.132812 26.570312 39.179688 27.1875 37.722656 L 27.859375 34.53125 C 28.253906 32.515625 28.644531 31.253906 29.039062 30.75 M 34.085938 28.988281 L 34.421875 28.988281 L 33.917969 28.988281 L 34.085938 28.988281 M 46.457031 31.925781 C 46.457031 32.207031 45.953125 33.214844 44.941406 34.953125 L 44.269531 36.546875 L 44.015625 37.304688 C 43.734375 37.472656 43.089844 37.164062 42.082031 36.378906 L 41.660156 35.707031 L 41.746094 35.289062 L 43.425781 33.441406 C 44.71875 32.207031 45.699219 31.675781 46.371094 31.84375 L 46.457031 31.925781 M 44.015625 8.652344 C 43.285156 7.703125 43.0625 6.890625 43.34375 6.21875 C 43.734375 5.601562 44.550781 5.292969 45.78125 5.292969 C 48.476562 5.238281 51.757812 5.796875 55.628906 6.972656 L 55.964844 7.476562 L 55.964844 7.898438 L 47.550781 6.300781 C 44.859375 6.019531 43.539062 6.386719 43.59375 7.394531 C 43.59375 7.898438 44.492188 8.652344 46.289062 9.664062 C 49.765625 11.847656 54.449219 14.003906 60.339844 16.132812 C 60.507812 16.1875 60.621094 16.523438 60.675781 17.140625 C 58.265625 16.242188 55.738281 15.179688 53.101562 13.945312 L 48.222656 11.847656 C 46.371094 10.839844 44.96875 9.773438 44.015625 8.652344 M 110.910156 177.617188 C 109.058594 178.738281 106.785156 179.746094 104.09375 180.640625 C 102.410156 181.257812 101.035156 181.675781 99.972656 181.902344 L 97.445312 185.011719 L 94.671875 188.621094 C 93.941406 190.023438 93.714844 190.835938 93.996094 191.058594 L 95.089844 190.976562 L 95.59375 190.808594 L 100.054688 188.875 L 106.703125 184.503906 L 111.582031 179.800781 L 113.9375 177.195312 L 114.023438 177.027344 L 114.191406 177.113281 L 116.125 177.53125 C 117.976562 176.300781 119.042969 175.265625 119.324219 174.421875 C 119.660156 173.582031 119.519531 172.660156 118.902344 171.652344 C 115.648438 174.394531 112.984375 176.382812 110.910156 177.617188 M 67.660156 177.113281 L 67.828125 177.027344 L 67.914062 177.195312 L 69.34375 178.539062 C 71.585938 178.429688 73.046875 178.121094 73.71875 177.617188 L 74.558594 176.609375 L 74.8125 175.011719 L 64.800781 175.9375 L 57.394531 174.925781 L 53.273438 173.75 L 45.277344 176.777344 C 43.933594 177.503906 43.285156 178.0625 43.34375 178.457031 C 43.398438 178.679688 43.734375 178.847656 44.351562 178.960938 L 44.859375 179.042969 L 57.730469 179.546875 C 60.59375 179.15625 63.902344 178.34375 67.660156 177.113281 M 68.25 123.257812 L 67.828125 123.339844 L 64.800781 122.5 L 64.210938 122.164062 L 64.042969 121.996094 L 64.210938 121.828125 L 67.828125 122.835938 L 68.25 123.257812 M 70.941406 118.300781 L 70.605469 118.382812 L 70.6875 119.644531 L 71.027344 119.726562 L 72.371094 119.644531 C 73.382812 119.25 73.632812 118.691406 73.128906 117.960938 L 70.941406 118.300781 M 73.296875 117.039062 L 73.800781 117.207031 L 74.222656 118.972656 C 74.167969 119.585938 73.832031 120.0625 73.214844 120.398438 L 71.277344 120.734375 L 70.773438 120.652344 L 70.941406 122.164062 L 71.277344 123.84375 L 75.570312 123.425781 C 76.074219 123.367188 76.355469 123.144531 76.410156 122.75 L 76.328125 121.574219 L 75.820312 115.609375 L 70.519531 116.199219 L 70.351562 116.199219 L 70.519531 117.375 L 72.878906 116.871094 L 73.296875 117.039062 M 74.222656 114.265625 L 73.464844 114.351562 L 71.699219 114.433594 L 74.222656 114.265625 M 77.503906 113.171875 C 77.335938 112.390625 76.972656 111.914062 76.410156 111.746094 L 74.054688 111.660156 L 73.886719 111.660156 L 74.726562 112.5 C 75.511719 112.949219 76.4375 113.171875 77.503906 113.171875 M 70.015625 118.636719 C 69.792969 118.746094 69.734375 118.859375 69.847656 118.972656 L 70.101562 119.222656 L 70.015625 118.636719 M 69.089844 119.8125 L 69.089844 119.980469 L 69.511719 123.84375 L 69.847656 126.027344 C 69.960938 126.476562 70.492188 126.671875 71.445312 126.617188 L 73.382812 126.363281 L 76.664062 125.945312 C 77.5625 125.832031 78.121094 125.523438 78.347656 125.019531 L 78.429688 124.9375 L 78.429688 123.171875 L 77.671875 115.105469 L 76.664062 114.9375 L 76.328125 115.273438 L 76.328125 115.441406 L 76.410156 117.039062 L 76.914062 122.164062 L 76.832031 123.929688 L 74.980469 124.433594 L 72.707031 124.851562 C 71.699219 124.964844 71.054688 124.742188 70.773438 124.179688 C 70.550781 123.675781 70.410156 122.976562 70.351562 122.078125 L 70.269531 120.484375 L 69.425781 119.894531 L 69.089844 119.390625 L 69.089844 119.8125 M 67.660156 115.945312 L 66.230469 115.777344 L 66.820312 116.785156 L 67.15625 117.542969 L 67.914062 118.46875 L 67.660156 115.945312 M 69.765625 116.199219 L 68.671875 116.113281 L 69.007812 118.550781 C 69.0625 118.160156 69.316406 117.851562 69.765625 117.625 L 69.933594 117.625 L 69.765625 116.199219 M 64.800781 117.710938 L 65.050781 118.382812 C 65.21875 118.886719 65.527344 119.222656 65.976562 119.390625 L 66.230469 119.476562 L 66.3125 119.222656 L 64.800781 117.375 L 64.800781 117.710938 M 68.5 114.183594 L 69.847656 114.265625 L 70.183594 113.929688 L 72.121094 113.507812 L 73.046875 113.425781 L 72.539062 112.921875 L 71.699219 111.914062 L 70.4375 111.996094 C 69.203125 112.332031 68.558594 113.0625 68.5 114.183594 M 70.269531 101.328125 L 71.109375 101.160156 L 71.53125 101.496094 L 71.785156 102.082031 L 72.371094 102.585938 L 72.625 103.175781 L 72.457031 103.761719 L 72.203125 104.015625 C 72.035156 104.296875 71.753906 104.464844 71.363281 104.519531 C 70.96875 104.574219 70.6875 104.464844 70.519531 104.183594 L 69.59375 102.417969 C 69.484375 101.972656 69.707031 101.605469 70.269531 101.328125 M 88.191406 119.558594 L 88.105469 117.710938 L 87.6875 116.113281 L 87.433594 115.023438 C 87.210938 115.695312 87.152344 116.730469 87.265625 118.128906 C 87.265625 119.140625 87.40625 119.753906 87.6875 119.980469 C 88.023438 120.148438 88.191406 120.007812 88.191406 119.558594 M 84.238281 118.804688 L 84.320312 119.726562 C 84.375 120.175781 84.488281 120.457031 84.65625 120.566406 C 84.992188 120.734375 85.160156 120.59375 85.160156 120.148438 L 84.992188 117.457031 L 84.40625 115.527344 C 84.179688 116.253906 84.125 117.347656 84.238281 118.804688 M 80.953125 118.886719 L 81.039062 119.8125 C 81.09375 120.257812 81.234375 120.539062 81.460938 120.652344 C 81.683594 120.820312 81.824219 120.679688 81.878906 120.230469 L 81.710938 117.542969 L 81.125 115.609375 C 80.898438 116.339844 80.84375 117.429688 80.953125 118.886719 M 80.28125 115.105469 L 78.683594 115.105469 L 79.273438 121.492188 L 81.710938 121.492188 L 80.871094 120.820312 C 80.589844 120.371094 80.394531 119.894531 80.28125 119.390625 C 80.058594 117.542969 80.058594 116.113281 80.28125 115.105469 M 81.710938 114.9375 L 81.375 115.023438 L 81.460938 115.191406 L 82.46875 118.636719 C 82.804688 120.203125 82.832031 121.15625 82.554688 121.492188 L 84.65625 121.324219 L 84.152344 120.734375 C 83.871094 120.289062 83.675781 119.78125 83.5625 119.222656 C 83.226562 117.261719 83.28125 115.75 83.730469 114.6875 L 81.710938 114.9375 M 87.011719 113.761719 L 84.066406 114.601562 L 84.238281 114.601562 L 84.742188 115.023438 L 85.75 118.550781 C 86.03125 119.839844 86.085938 120.707031 85.917969 121.15625 L 88.023438 120.820312 L 87.179688 120.148438 C 86.902344 119.699219 86.703125 119.195312 86.59375 118.636719 C 86.253906 116.507812 86.3125 114.9375 86.761719 113.929688 L 87.011719 113.847656 L 87.011719 113.761719 M 111.835938 123.257812 L 110.066406 123.929688 C 107.433594 124.824219 105.523438 124.824219 104.347656 123.929688 C 103.839844 123.59375 103.5625 123.144531 103.503906 122.582031 C 99.128906 125.496094 95.007812 127.175781 91.136719 127.625 C 90.351562 127.738281 89.902344 127.484375 89.789062 126.867188 L 89.117188 122.667969 L 79.441406 123.089844 L 79.441406 123.257812 L 79.523438 124.347656 L 80.703125 124.265625 L 82.722656 124.097656 L 83.3125 124.515625 C 83.421875 124.851562 83.339844 125.019531 83.058594 125.019531 L 79.523438 125.355469 L 79.355469 125.777344 C 79.074219 126.167969 78.316406 126.449219 77.085938 126.617188 L 73.214844 127.371094 L 69.511719 127.121094 C 68.949219 126.730469 68.585938 125.859375 68.417969 124.515625 L 68.25 121.574219 L 68.164062 120.652344 C 67.4375 120.988281 66.761719 121.128906 66.144531 121.070312 L 65.304688 121.070312 L 64.460938 120.484375 L 55.375 127.878906 L 53.523438 129.558594 L 54.027344 130.648438 C 54.476562 131.9375 53.890625 132.972656 52.261719 133.757812 C 51.421875 134.152344 50.636719 134.347656 49.90625 134.347656 L 49.316406 134.347656 C 48.140625 135.972656 47.4375 137.425781 47.214844 138.714844 C 46.652344 142.1875 47.523438 147.566406 49.820312 154.847656 L 55.121094 171.230469 C 56.414062 172.351562 58.011719 173.136719 59.917969 173.582031 L 65.640625 174.085938 L 72.035156 173.667969 L 76.578125 173.078125 L 75.402344 167.871094 L 72.035156 158.039062 C 71.136719 155.632812 69.847656 153.167969 68.164062 150.644531 L 66.0625 147.539062 L 70.605469 147.203125 C 74.082031 146.867188 77.027344 145.996094 79.441406 144.597656 C 79.441406 139.890625 79.972656 134.824219 81.039062 129.390625 L 82.21875 127.960938 C 82.832031 127.34375 83.339844 127.007812 83.730469 126.953125 C 82.554688 130.875 81.910156 135.664062 81.796875 141.320312 C 81.628906 147.035156 82.078125 151.429688 83.140625 154.511719 C 84.375 158.320312 86.734375 162.578125 90.210938 167.28125 C 93.015625 171.089844 96.351562 174.925781 100.222656 178.792969 L 105.441406 178.203125 C 106.730469 177.757812 108.441406 176.917969 110.574219 175.683594 L 118.0625 170.054688 L 118.566406 169.128906 L 118.902344 168.207031 L 115.789062 162.660156 C 113.546875 159.132812 111.105469 155.855469 108.46875 152.832031 C 108.300781 152.605469 107.433594 152.96875 105.859375 153.921875 C 104.402344 154.820312 103.617188 155.183594 103.503906 155.015625 L 106.703125 151.65625 L 110.066406 147.789062 C 111.808594 145.269531 113.546875 142.046875 115.285156 138.128906 L 116.714844 134.765625 C 115.480469 136.726562 114.164062 137.484375 112.761719 137.035156 C 111.808594 136.699219 111.246094 135.804688 111.078125 134.347656 L 111.332031 130.0625 L 111.414062 129.304688 L 111.835938 123.257812 M 121.089844 114.519531 L 120.417969 114.9375 C 119.519531 115.609375 118.566406 116.085938 117.558594 116.367188 L 117.136719 116.449219 L 116.125 116.785156 L 113.769531 117.039062 L 111.835938 116.871094 L 111.078125 116.535156 C 110.574219 117.597656 109.984375 118.46875 109.3125 119.140625 C 108.46875 119.980469 107.433594 120.734375 106.199219 121.40625 L 105.523438 121.910156 L 105.1875 122.332031 C 104.90625 122.890625 105.1875 123.257812 106.03125 123.425781 L 108.890625 123.089844 L 111.835938 121.742188 L 113.519531 121.15625 L 113.601562 121.574219 L 113.433594 124.601562 L 113.011719 129.472656 L 113.011719 130.230469 C 112.621094 133.476562 112.703125 135.214844 113.265625 135.4375 C 114.105469 135.71875 115.089844 134.375 116.210938 131.40625 L 117.472656 125.523438 L 118.3125 121.324219 C 118.988281 121.546875 119.097656 123.199219 118.652344 126.28125 L 117.894531 130.902344 L 118.0625 130.984375 L 118.484375 130.902344 C 120.054688 130.398438 121.230469 128.296875 122.015625 124.601562 C 122.578125 121.128906 122.941406 119.476562 123.109375 119.644531 C 123.558594 120.089844 123.613281 121.378906 123.277344 123.507812 L 122.859375 126.617188 C 123.867188 126.617188 124.597656 125.832031 125.046875 124.265625 C 125.886719 121.128906 126.054688 117.625 125.550781 113.761719 L 124.960938 111.074219 C 124.0625 112.25 122.773438 113.398438 121.089844 114.519531 M 64.460938 96.789062 L 63.285156 92.421875 L 61.9375 86.539062 L 61.347656 83.933594 C 60.902344 81.863281 59.609375 80.015625 57.480469 78.390625 L 51.925781 74.1875 L 48.8125 73.347656 C 48.980469 73.574219 48.980469 73.824219 48.8125 74.105469 L 47.296875 76.792969 L 46.625 79.648438 C 47.015625 82.226562 47.746094 84.886719 48.8125 87.632812 C 50.214844 91.160156 52.007812 94.605469 54.199219 97.964844 L 61.097656 109.058594 L 64.210938 113.761719 L 67.492188 114.183594 C 67.4375 113.117188 67.632812 112.390625 68.082031 111.996094 L 70.605469 111.324219 L 71.109375 111.242188 L 70.773438 110.820312 C 68.304688 107.179688 66.203125 102.503906 64.460938 96.789062 M 65.558594 88.976562 L 65.386719 88.808594 C 65.050781 88.417969 64.96875 88.078125 65.136719 87.800781 L 65.386719 87.632812 C 65.21875 87.183594 65.277344 86.933594 65.558594 86.875 L 65.726562 86.875 L 66.480469 87.042969 L 66.988281 87.546875 C 67.378906 88.277344 67.492188 88.921875 67.324219 89.480469 C 67.210938 89.871094 66.929688 89.957031 66.480469 89.730469 L 66.230469 89.648438 L 65.558594 88.976562 M 71.027344 72.089844 L 70.859375 72.761719 C 70.015625 76.402344 70.605469 80.40625 72.625 84.773438 C 73.914062 87.574219 75.933594 91.019531 78.683594 95.109375 L 82.890625 101.410156 L 78.851562 90.320312 C 77.054688 85.390625 75.878906 81.890625 75.316406 79.816406 L 73.382812 74.859375 L 71.027344 72.089844 M 67.15625 69.316406 L 66.988281 69.652344 L 64.546875 74.019531 C 63.539062 75.980469 62.976562 77.914062 62.863281 79.816406 L 62.949219 82.085938 L 64.800781 90.40625 C 66.203125 96.117188 67.632812 100.625 69.089844 103.929688 C 70.492188 107.066406 71.8125 109.394531 73.046875 110.90625 L 74.054688 110.652344 L 77.335938 110.90625 C 77.953125 111.296875 78.316406 111.941406 78.429688 112.835938 L 78.515625 113.171875 L 85.5 112.25 L 86.339844 111.914062 L 83.5625 105.949219 L 78.347656 98.21875 L 73.214844 90.320312 C 71.476562 87.238281 70.242188 84.691406 69.511719 82.675781 C 68.445312 79.59375 68.082031 76.820312 68.417969 74.355469 L 69.175781 70.742188 L 67.15625 69.316406 M 62.441406 73.601562 L 62.023438 73.769531 C 60.394531 74.609375 58.796875 75 57.226562 74.945312 L 55.460938 74.777344 L 58.65625 76.878906 L 60.929688 78.640625 C 61.097656 77.015625 61.601562 75.335938 62.441406 73.601562 M 67.746094 68.308594 L 68.25 68.558594 L 69.425781 69.0625 L 69.679688 64.695312 L 69.511719 62.761719 L 69.007812 65.199219 L 67.746094 68.308594 M 71.445312 54.695312 C 73.015625 54.527344 74.417969 54.808594 75.652344 55.535156 L 81.796875 60.324219 C 84.097656 62.117188 86.535156 63.042969 89.117188 63.097656 L 90.125 63.601562 C 90.519531 63.9375 90.601562 64.246094 90.378906 64.527344 C 88.753906 66.992188 86.871094 68.921875 84.742188 70.324219 C 82.273438 71.949219 79.71875 72.648438 77.085938 72.425781 C 75.066406 72.257812 73.1875 71.835938 71.445312 71.164062 L 71.195312 71.082031 L 71.195312 71.164062 L 72.035156 71.753906 C 73.71875 73.039062 74.898438 74.441406 75.570312 75.953125 L 77.671875 82.003906 L 79.523438 88.050781 C 82.496094 96.453125 85.160156 103.566406 87.519531 109.394531 L 88.445312 111.660156 L 88.78125 112.585938 L 88.863281 113.003906 L 89.707031 115.695312 L 91.808594 125.859375 C 94.390625 125.355469 97.136719 124.320312 100.054688 122.75 C 102.972656 121.070312 105.636719 119.054688 108.046875 116.703125 L 109.898438 114.433594 C 110.011719 113.875 109.675781 113.003906 108.890625 111.828125 L 105.1875 106.535156 L 96.691406 95.277344 C 94.390625 92.589844 92.0625 90.40625 89.707031 88.722656 L 85.835938 86.457031 C 85.21875 86.175781 85.105469 85.8125 85.5 85.363281 C 85.890625 84.914062 86.339844 84.804688 86.84375 85.027344 L 91.808594 88.050781 C 95.285156 90.574219 98.679688 93.878906 101.992188 97.964844 C 104.457031 101.046875 107.488281 105.527344 111.078125 111.410156 L 111.160156 111.578125 L 111.246094 111.828125 L 111.414062 112.082031 L 113.011719 114.769531 C 113.742188 115.667969 115.117188 115.667969 117.136719 114.769531 L 121.089844 112.417969 C 123.839844 110.402344 124.878906 107.910156 124.203125 104.941406 L 121.597656 97.292969 L 118.0625 88.136719 C 116.601562 84.664062 115.144531 81.722656 113.6875 79.3125 C 106.449219 67.214844 98.398438 59.375 89.539062 55.789062 C 85.386719 54.109375 81.488281 53.378906 77.839844 53.605469 L 71.109375 54.78125 L 71.445312 54.695312 M 75.234375 56.964844 L 70.6875 56.710938 L 70.859375 57.890625 L 71.445312 61.25 C 71.839844 64.164062 71.839844 67.046875 71.445312 69.902344 L 74.054688 70.574219 C 79.441406 71.417969 84.039062 69.371094 87.855469 64.441406 L 85.246094 63.769531 C 83.898438 63.265625 82.46875 62.480469 80.953125 61.417969 C 78.597656 59.289062 76.691406 57.804688 75.234375 56.964844 M 63.957031 38.648438 L 65.050781 39.488281 C 65.332031 39.882812 65.304688 40.160156 64.96875 40.328125 L 64.292969 40.160156 L 63.367188 39.65625 L 62.613281 39.40625 C 62.332031 39.40625 62.191406 39.265625 62.191406 38.984375 L 62.441406 38.480469 L 62.613281 38.398438 L 63.957031 38.648438 M 73.382812 41.421875 C 74.390625 43.382812 74.757812 44.867188 74.476562 45.875 C 74.25 46.996094 73.4375 47.777344 72.035156 48.226562 L 69.089844 48.648438 L 69.679688 50.074219 L 70.015625 51.25 L 78.933594 51 C 82.695312 50.664062 86.003906 50.046875 88.863281 49.152344 C 90.769531 48.480469 92.171875 47.695312 93.070312 46.796875 C 94.363281 45.679688 94.753906 44.277344 94.25 42.597656 C 93.128906 38.339844 89.285156 34.167969 82.722656 30.078125 C 76.71875 26.382812 70.519531 24.199219 64.125 23.523438 L 52.683594 23.019531 L 41.238281 23.523438 C 35.574219 23.917969 30.636719 23.890625 26.429688 23.441406 L 26.347656 23.441406 L 24.074219 23.105469 L 14.902344 21.84375 L 5.730469 22.433594 C 4.273438 22.824219 3.402344 23.355469 3.121094 24.03125 C 2.785156 24.535156 2.8125 25.066406 3.207031 25.625 L 4.636719 26.71875 L 7.917969 28.484375 L 11.367188 30.164062 C 13.050781 31.058594 14.875 32.964844 16.839844 35.875 C 18.6875 38.734375 20.429688 40.664062 22.054688 41.671875 L 22.476562 39.070312 L 20.875 36.296875 C 20.089844 34.617188 19.894531 33.242188 20.289062 32.179688 C 20.738281 31.003906 21.800781 30.050781 23.484375 29.324219 L 27.777344 28.0625 C 33.273438 26.832031 38.632812 26.296875 43.847656 26.464844 C 49.851562 26.691406 55.09375 27.753906 59.582031 29.660156 C 62.613281 31.003906 65.25 32.570312 67.492188 34.363281 C 70.183594 36.492188 72.148438 38.84375 73.382812 41.421875 M 62.863281 33.273438 L 65.558594 34.449219 L 63.117188 32.933594 L 59.078125 31.085938 L 57.730469 30.75 L 57.226562 30.414062 L 53.945312 29.492188 L 38.378906 28.652344 L 36.613281 28.820312 C 36.164062 29.210938 35.742188 29.519531 35.347656 29.742188 L 33.75 30.164062 L 32.574219 30.164062 L 30.722656 30.582031 L 30.046875 31.171875 L 29.039062 34.785156 L 28.367188 38.0625 C 27.691406 39.515625 26.964844 40.523438 26.179688 41.085938 C 25.898438 45.34375 26.234375 49.207031 27.1875 52.679688 C 28.8125 58.394531 31.898438 63.125 36.441406 66.878906 C 38.96875 68.953125 41.605469 70.4375 44.351562 71.332031 L 47.128906 71.5 L 51.589844 72.425781 L 52.179688 72.339844 C 55.261719 72.171875 57.871094 71.554688 60.003906 70.492188 L 61.519531 69.566406 L 62.273438 69.0625 L 62.527344 68.980469 C 62.695312 69.148438 62.304688 69.707031 61.347656 70.660156 L 59.160156 72.425781 L 58.992188 72.507812 C 59.722656 72.566406 60.5625 72.367188 61.519531 71.921875 C 62.808594 71.25 63.984375 70.324219 65.050781 69.148438 C 66.003906 67.46875 66.707031 65.757812 67.15625 64.023438 L 67.828125 60.15625 C 67.042969 61.445312 66.203125 62.34375 65.304688 62.847656 C 64.96875 63.015625 64.769531 63.015625 64.714844 62.847656 C 64.601562 62.734375 64.660156 62.511719 64.882812 62.175781 C 67.015625 58.476562 68.191406 54.082031 68.417969 48.984375 L 67.828125 48.058594 L 67.574219 47.300781 L 67.746094 46.714844 L 71.363281 46.460938 C 71.867188 45.511719 72.0625 44.417969 71.953125 43.1875 C 71.785156 40.722656 70.464844 39.265625 67.996094 38.816406 L 67.574219 38.398438 L 69.089844 38.0625 C 68.867188 37.894531 68.726562 37.640625 68.671875 37.304688 L 68.671875 37.21875 C 66.257812 35.820312 64.238281 34.839844 62.613281 34.28125 L 60.003906 33.859375 C 59.554688 33.804688 59.273438 33.636719 59.160156 33.355469 C 58.992188 33.074219 59.023438 32.878906 59.246094 32.765625 L 59.414062 32.683594 L 62.863281 33.273438 M 63.199219 36.882812 L 61.9375 36.714844 L 61.265625 36.632812 C 60.871094 36.632812 60.648438 36.492188 60.59375 36.210938 L 60.84375 35.625 L 61.011719 35.625 L 63.539062 35.960938 L 65.136719 36.714844 L 65.976562 37.554688 L 65.976562 37.808594 L 64.800781 37.472656 L 63.199219 36.882812 M 68.921875 12.769531 C 68.191406 10.808594 67.097656 9.464844 65.640625 8.738281 L 60.59375 6.636719 L 55.292969 4.789062 L 50.074219 2.605469 L 44.4375 1.007812 L 39.726562 1.429688 L 37.707031 3.527344 L 36.023438 5.882812 L 31.058594 11.511719 C 29.710938 13.023438 28.675781 14.84375 27.945312 16.972656 L 26.851562 21.761719 C 29.375 22.097656 32.40625 22.152344 35.9375 21.929688 L 45.445312 21.339844 L 56.132812 21.089844 L 66.820312 22.179688 L 71.613281 23.355469 L 70.183594 17.980469 L 68.921875 12.769531 "/>
<path style=" stroke:none;fill-rule:nonzero;fill:rgb(100%,100%,100%);fill-opacity:1;" d="M 68.921875 12.769531 L 70.183594 17.980469 L 71.613281 23.355469 L 66.820312 22.179688 L 56.132812 21.089844 L 45.445312 21.339844 L 35.9375 21.929688 C 32.40625 22.152344 29.375 22.097656 26.851562 21.761719 L 27.945312 16.972656 C 28.675781 14.84375 29.710938 13.023438 31.058594 11.511719 L 36.023438 5.882812 L 37.707031 3.527344 L 39.726562 1.429688 L 44.4375 1.007812 L 50.074219 2.605469 L 55.292969 4.789062 L 60.59375 6.636719 L 65.640625 8.738281 C 67.097656 9.464844 68.191406 10.808594 68.921875 12.769531 M 63.199219 36.882812 L 64.800781 37.472656 L 65.976562 37.808594 L 65.976562 37.554688 L 65.136719 36.714844 L 63.539062 35.960938 L 61.011719 35.625 L 60.84375 35.625 L 60.59375 36.210938 C 60.648438 36.492188 60.871094 36.632812 61.265625 36.632812 L 61.9375 36.714844 L 63.199219 36.882812 M 62.863281 33.273438 L 59.414062 32.683594 L 59.246094 32.765625 C 59.023438 32.878906 58.992188 33.074219 59.160156 33.355469 C 59.273438 33.636719 59.554688 33.804688 60.003906 33.859375 L 62.613281 34.28125 C 64.238281 34.839844 66.257812 35.820312 68.671875 37.21875 L 68.671875 37.304688 C 68.726562 37.640625 68.867188 37.894531 69.089844 38.0625 L 67.574219 38.398438 L 67.996094 38.816406 C 70.464844 39.265625 71.785156 40.722656 71.953125 43.1875 C 72.0625 44.417969 71.867188 45.511719 71.363281 46.460938 L 67.746094 46.714844 L 67.574219 47.300781 L 67.828125 48.058594 L 68.417969 48.984375 C 68.191406 54.082031 67.015625 58.476562 64.882812 62.175781 C 64.660156 62.511719 64.601562 62.734375 64.714844 62.847656 C 64.769531 63.015625 64.96875 63.015625 65.304688 62.847656 C 66.203125 62.34375 67.042969 61.445312 67.828125 60.15625 L 67.15625 64.023438 C 66.707031 65.757812 66.003906 67.46875 65.050781 69.148438 C 63.984375 70.324219 62.808594 71.25 61.519531 71.921875 C 60.5625 72.367188 59.722656 72.566406 58.992188 72.507812 L 59.160156 72.425781 L 61.347656 70.660156 C 62.304688 69.707031 62.695312 69.148438 62.527344 68.980469 L 62.273438 69.0625 L 61.519531 69.566406 L 60.003906 70.492188 C 57.871094 71.554688 55.261719 72.171875 52.179688 72.339844 L 51.589844 72.425781 L 47.128906 71.5 L 44.351562 71.332031 C 41.605469 70.4375 38.96875 68.953125 36.441406 66.878906 C 31.898438 63.125 28.8125 58.394531 27.1875 52.679688 C 26.234375 49.207031 25.898438 45.34375 26.179688 41.085938 C 26.964844 40.523438 27.691406 39.515625 28.367188 38.0625 L 29.039062 34.785156 L 30.046875 31.171875 L 30.722656 30.582031 L 32.574219 30.164062 L 33.75 30.164062 L 35.347656 29.742188 C 35.742188 29.519531 36.164062 29.210938 36.613281 28.820312 L 38.378906 28.652344 L 53.945312 29.492188 L 57.226562 30.414062 L 57.730469 30.75 L 59.078125 31.085938 L 63.117188 32.933594 L 65.558594 34.449219 L 62.863281 33.273438 M 73.382812 41.421875 C 72.148438 38.84375 70.183594 36.492188 67.492188 34.363281 C 65.25 32.570312 62.613281 31.003906 59.582031 29.660156 C 55.09375 27.753906 49.851562 26.691406 43.847656 26.464844 C 38.632812 26.296875 33.273438 26.832031 27.777344 28.0625 L 23.484375 29.324219 C 21.800781 30.050781 20.738281 31.003906 20.289062 32.179688 C 19.894531 33.242188 20.089844 34.617188 20.875 36.296875 L 22.476562 39.070312 L 22.054688 41.671875 C 20.429688 40.664062 18.6875 38.734375 16.839844 35.875 C 14.875 32.964844 13.050781 31.058594 11.367188 30.164062 L 7.917969 28.484375 L 4.636719 26.71875 L 3.207031 25.625 C 2.8125 25.066406 2.785156 24.535156 3.121094 24.03125 C 3.402344 23.355469 4.273438 22.824219 5.730469 22.433594 L 14.902344 21.84375 L 24.074219 23.105469 L 26.347656 23.441406 L 26.429688 23.441406 C 30.636719 23.890625 35.574219 23.917969 41.238281 23.523438 L 52.683594 23.019531 L 64.125 23.523438 C 70.519531 24.199219 76.71875 26.382812 82.722656 30.078125 C 89.285156 34.167969 93.128906 38.339844 94.25 42.597656 C 94.753906 44.277344 94.363281 45.679688 93.070312 46.796875 C 92.171875 47.695312 90.769531 48.480469 88.863281 49.152344 C 86.003906 50.046875 82.695312 50.664062 78.933594 51 L 70.015625 51.25 L 69.679688 50.074219 L 69.089844 48.648438 L 72.035156 48.226562 C 73.4375 47.777344 74.25 46.996094 74.476562 45.875 C 74.757812 44.867188 74.390625 43.382812 73.382812 41.421875 M 63.957031 38.648438 L 62.613281 38.398438 L 62.441406 38.480469 L 62.191406 38.984375 C 62.191406 39.265625 62.332031 39.40625 62.613281 39.40625 L 63.367188 39.65625 L 64.292969 40.160156 L 64.96875 40.328125 C 65.304688 40.160156 65.332031 39.882812 65.050781 39.488281 L 63.957031 38.648438 M 75.234375 56.964844 C 76.691406 57.804688 78.597656 59.289062 80.953125 61.417969 C 82.46875 62.480469 83.898438 63.265625 85.246094 63.769531 L 87.855469 64.441406 C 84.039062 69.371094 79.441406 71.417969 74.054688 70.574219 L 71.445312 69.902344 C 71.839844 67.046875 71.839844 64.164062 71.445312 61.25 L 70.859375 57.890625 L 70.6875 56.710938 L 75.234375 56.964844 M 71.445312 54.695312 L 71.109375 54.78125 L 77.839844 53.605469 C 81.488281 53.378906 85.386719 54.109375 89.539062 55.789062 C 98.398438 59.375 106.449219 67.214844 113.6875 79.3125 C 115.144531 81.722656 116.601562 84.664062 118.0625 88.136719 L 121.597656 97.292969 L 124.203125 104.941406 C 124.878906 107.910156 123.839844 110.402344 121.089844 112.417969 L 117.136719 114.769531 C 115.117188 115.667969 113.742188 115.667969 113.011719 114.769531 L 111.414062 112.082031 L 111.246094 111.828125 L 111.160156 111.578125 L 111.078125 111.410156 C 107.488281 105.527344 104.457031 101.046875 101.992188 97.964844 C 98.679688 93.878906 95.285156 90.574219 91.808594 88.050781 L 86.84375 85.027344 C 86.339844 84.804688 85.890625 84.914062 85.5 85.363281 C 85.105469 85.8125 85.21875 86.175781 85.835938 86.457031 L 89.707031 88.722656 C 92.0625 90.40625 94.390625 92.589844 96.691406 95.277344 L 105.1875 106.535156 L 108.890625 111.828125 C 109.675781 113.003906 110.011719 113.875 109.898438 114.433594 L 108.046875 116.703125 C 105.636719 119.054688 102.972656 121.070312 100.054688 122.75 C 97.136719 124.320312 94.390625 125.355469 91.808594 125.859375 L 89.707031 115.695312 L 88.863281 113.003906 L 88.78125 112.585938 L 88.445312 111.660156 L 87.519531 109.394531 C 85.160156 103.566406 82.496094 96.453125 79.523438 88.050781 L 77.671875 82.003906 L 75.570312 75.953125 C 74.898438 74.441406 73.71875 73.039062 72.035156 71.753906 L 71.195312 71.164062 L 71.195312 71.082031 L 71.445312 71.164062 C 73.1875 71.835938 75.066406 72.257812 77.085938 72.425781 C 79.71875 72.648438 82.273438 71.949219 84.742188 70.324219 C 86.871094 68.921875 88.753906 66.992188 90.378906 64.527344 C 90.601562 64.246094 90.519531 63.9375 90.125 63.601562 L 89.117188 63.097656 C 86.535156 63.042969 84.097656 62.117188 81.796875 60.324219 L 75.652344 55.535156 C 74.417969 54.808594 73.015625 54.527344 71.445312 54.695312 M 67.746094 68.308594 L 69.007812 65.199219 L 69.511719 62.761719 L 69.679688 64.695312 L 69.425781 69.0625 L 68.25 68.558594 L 67.746094 68.308594 M 62.441406 73.601562 C 61.601562 75.335938 61.097656 77.015625 60.929688 78.640625 L 58.65625 76.878906 L 55.460938 74.777344 L 57.226562 74.945312 C 58.796875 75 60.394531 74.609375 62.023438 73.769531 L 62.441406 73.601562 M 67.15625 69.316406 L 69.175781 70.742188 L 68.417969 74.355469 C 68.082031 76.820312 68.445312 79.59375 69.511719 82.675781 C 70.242188 84.691406 71.476562 87.238281 73.214844 90.320312 L 78.347656 98.21875 L 83.5625 105.949219 L 86.339844 111.914062 L 85.5 112.25 L 78.515625 113.171875 L 78.429688 112.835938 C 78.316406 111.941406 77.953125 111.296875 77.335938 110.90625 L 74.054688 110.652344 L 73.046875 110.90625 C 71.8125 109.394531 70.492188 107.066406 69.089844 103.929688 C 67.632812 100.625 66.203125 96.117188 64.800781 90.40625 L 62.949219 82.085938 L 62.863281 79.816406 C 62.976562 77.914062 63.539062 75.980469 64.546875 74.019531 L 66.988281 69.652344 L 67.15625 69.316406 M 71.027344 72.089844 L 73.382812 74.859375 L 75.316406 79.816406 C 75.878906 81.890625 77.054688 85.390625 78.851562 90.320312 L 82.890625 101.410156 L 78.683594 95.109375 C 75.933594 91.019531 73.914062 87.574219 72.625 84.773438 C 70.605469 80.40625 70.015625 76.402344 70.859375 72.761719 L 71.027344 72.089844 M 65.558594 88.976562 L 66.230469 89.648438 L 66.480469 89.730469 C 66.929688 89.957031 67.210938 89.871094 67.324219 89.480469 C 67.492188 88.921875 67.378906 88.277344 66.988281 87.546875 L 66.480469 87.042969 L 65.726562 86.875 L 65.558594 86.875 C 65.277344 86.933594 65.21875 87.183594 65.386719 87.632812 L 65.136719 87.800781 C 64.96875 88.078125 65.050781 88.417969 65.386719 88.808594 L 65.558594 88.976562 M 64.460938 96.789062 C 66.203125 102.503906 68.304688 107.179688 70.773438 110.820312 L 71.109375 111.242188 L 70.605469 111.324219 L 68.082031 111.996094 C 67.632812 112.390625 67.4375 113.117188 67.492188 114.183594 L 64.210938 113.761719 L 61.097656 109.058594 L 54.199219 97.964844 C 52.007812 94.605469 50.214844 91.160156 48.8125 87.632812 C 47.746094 84.886719 47.015625 82.226562 46.625 79.648438 L 47.296875 76.792969 L 48.8125 74.105469 C 48.980469 73.824219 48.980469 73.574219 48.8125 73.347656 L 51.925781 74.1875 L 57.480469 78.390625 C 59.609375 80.015625 60.902344 81.863281 61.347656 83.933594 L 61.9375 86.539062 L 63.285156 92.421875 L 64.460938 96.789062 M 121.089844 114.519531 C 122.773438 113.398438 124.0625 112.25 124.960938 111.074219 L 125.550781 113.761719 C 126.054688 117.625 125.886719 121.128906 125.046875 124.265625 C 124.597656 125.832031 123.867188 126.617188 122.859375 126.617188 L 123.277344 123.507812 C 123.613281 121.378906 123.558594 120.089844 123.109375 119.644531 C 122.941406 119.476562 122.578125 121.128906 122.015625 124.601562 C 121.230469 128.296875 120.054688 130.398438 118.484375 130.902344 L 118.0625 130.984375 L 117.894531 130.902344 L 118.652344 126.28125 C 119.097656 123.199219 118.988281 121.546875 118.3125 121.324219 L 117.472656 125.523438 L 116.210938 131.40625 C 115.089844 134.375 114.105469 135.71875 113.265625 135.4375 C 112.703125 135.214844 112.621094 133.476562 113.011719 130.230469 L 113.011719 129.472656 L 113.433594 124.601562 L 113.601562 121.574219 L 113.519531 121.15625 L 111.835938 121.742188 L 108.890625 123.089844 L 106.03125 123.425781 C 105.1875 123.257812 104.90625 122.890625 105.1875 122.332031 L 105.523438 121.910156 L 106.199219 121.40625 C 107.433594 120.734375 108.46875 119.980469 109.3125 119.140625 C 109.984375 118.46875 110.574219 117.597656 111.078125 116.535156 L 111.835938 116.871094 L 113.769531 117.039062 L 116.125 116.785156 L 117.136719 116.449219 L 117.558594 116.367188 C 118.566406 116.085938 119.519531 115.609375 120.417969 114.9375 L 121.089844 114.519531 M 111.835938 123.257812 L 111.414062 129.304688 L 111.332031 130.0625 L 111.078125 134.347656 C 111.246094 135.804688 111.808594 136.699219 112.761719 137.035156 C 114.164062 137.484375 115.480469 136.726562 116.714844 134.765625 L 115.285156 138.128906 C 113.546875 142.046875 111.808594 145.269531 110.066406 147.789062 L 106.703125 151.65625 L 103.503906 155.015625 C 103.617188 155.183594 104.402344 154.820312 105.859375 153.921875 C 107.433594 152.96875 108.300781 152.605469 108.46875 152.832031 C 111.105469 155.855469 113.546875 159.132812 115.789062 162.660156 L 118.902344 168.207031 L 118.566406 169.128906 L 118.0625 170.054688 L 110.574219 175.683594 C 108.441406 176.917969 106.730469 177.757812 105.441406 178.203125 L 100.222656 178.792969 C 96.351562 174.925781 93.015625 171.089844 90.210938 167.28125 C 86.734375 162.578125 84.375 158.320312 83.140625 154.511719 C 82.078125 151.429688 81.628906 147.035156 81.796875 141.320312 C 81.910156 135.664062 82.554688 130.875 83.730469 126.953125 C 83.339844 127.007812 82.832031 127.34375 82.21875 127.960938 L 81.039062 129.390625 C 79.972656 134.824219 79.441406 139.890625 79.441406 144.597656 C 77.027344 145.996094 74.082031 146.867188 70.605469 147.203125 L 66.0625 147.539062 L 68.164062 150.644531 C 69.847656 153.167969 71.136719 155.632812 72.035156 158.039062 L 75.402344 167.871094 L 76.578125 173.078125 L 72.035156 173.667969 L 65.640625 174.085938 L 59.917969 173.582031 C 58.011719 173.136719 56.414062 172.351562 55.121094 171.230469 L 49.820312 154.847656 C 47.523438 147.566406 46.652344 142.1875 47.214844 138.714844 C 47.4375 137.425781 48.140625 135.972656 49.316406 134.347656 L 49.90625 134.347656 C 50.636719 134.347656 51.421875 134.152344 52.261719 133.757812 C 53.890625 132.972656 54.476562 131.9375 54.027344 130.648438 L 53.523438 129.558594 L 55.375 127.878906 L 64.460938 120.484375 L 65.304688 121.070312 L 66.144531 121.070312 C 66.761719 121.128906 67.4375 120.988281 68.164062 120.652344 L 68.25 121.574219 L 68.417969 124.515625 C 68.585938 125.859375 68.949219 126.730469 69.511719 127.121094 L 73.214844 127.371094 L 77.085938 126.617188 C 78.316406 126.449219 79.074219 126.167969 79.355469 125.777344 L 79.523438 125.355469 L 83.058594 125.019531 C 83.339844 125.019531 83.421875 124.851562 83.3125 124.515625 L 82.722656 124.097656 L 80.703125 124.265625 L 79.523438 124.347656 L 79.441406 123.257812 L 79.441406 123.089844 L 89.117188 122.667969 L 89.789062 126.867188 C 89.902344 127.484375 90.351562 127.738281 91.136719 127.625 C 95.007812 127.175781 99.128906 125.496094 103.503906 122.582031 C 103.5625 123.144531 103.839844 123.59375 104.347656 123.929688 C 105.523438 124.824219 107.433594 124.824219 110.066406 123.929688 L 111.835938 123.257812 M 87.011719 113.761719 L 87.011719 113.847656 L 86.761719 113.929688 C 86.3125 114.9375 86.253906 116.507812 86.59375 118.636719 C 86.703125 119.195312 86.902344 119.699219 87.179688 120.148438 L 88.023438 120.820312 L 85.917969 121.15625 C 86.085938 120.707031 86.03125 119.839844 85.75 118.550781 L 84.742188 115.023438 L 84.238281 114.601562 L 84.066406 114.601562 L 87.011719 113.761719 M 81.710938 114.9375 L 83.730469 114.6875 C 83.28125 115.75 83.226562 117.261719 83.5625 119.222656 C 83.675781 119.78125 83.871094 120.289062 84.152344 120.734375 L 84.65625 121.324219 L 82.554688 121.492188 C 82.832031 121.15625 82.804688 120.203125 82.46875 118.636719 L 81.460938 115.191406 L 81.375 115.023438 L 81.710938 114.9375 M 80.28125 115.105469 C 80.058594 116.113281 80.058594 117.542969 80.28125 119.390625 C 80.394531 119.894531 80.589844 120.371094 80.871094 120.820312 L 81.710938 121.492188 L 79.273438 121.492188 L 78.683594 115.105469 L 80.28125 115.105469 M 80.953125 118.886719 C 80.84375 117.429688 80.898438 116.339844 81.125 115.609375 L 81.710938 117.542969 L 81.878906 120.230469 C 81.824219 120.679688 81.683594 120.820312 81.460938 120.652344 C 81.234375 120.539062 81.09375 120.257812 81.039062 119.8125 L 80.953125 118.886719 M 84.238281 118.804688 C 84.125 117.347656 84.179688 116.253906 84.40625 115.527344 L 84.992188 117.457031 L 85.160156 120.148438 C 85.160156 120.59375 84.992188 120.734375 84.65625 120.566406 C 84.488281 120.457031 84.375 120.175781 84.320312 119.726562 L 84.238281 118.804688 M 88.191406 119.558594 C 88.191406 120.007812 88.023438 120.148438 87.6875 119.980469 C 87.40625 119.753906 87.265625 119.140625 87.265625 118.128906 C 87.152344 116.730469 87.210938 115.695312 87.433594 115.023438 L 87.6875 116.113281 L 88.105469 117.710938 L 88.191406 119.558594 M 70.269531 101.328125 C 69.707031 101.605469 69.484375 101.972656 69.59375 102.417969 L 70.519531 104.183594 C 70.6875 104.464844 70.96875 104.574219 71.363281 104.519531 C 71.753906 104.464844 72.035156 104.296875 72.203125 104.015625 L 72.457031 103.761719 L 72.625 103.175781 L 72.371094 102.585938 L 71.785156 102.082031 L 71.53125 101.496094 L 71.109375 101.160156 L 70.269531 101.328125 M 68.5 114.183594 C 68.558594 113.0625 69.203125 112.332031 70.4375 111.996094 L 71.699219 111.914062 L 72.539062 112.921875 L 73.046875 113.425781 L 72.121094 113.507812 L 70.183594 113.929688 L 69.847656 114.265625 L 68.5 114.183594 M 64.800781 117.710938 L 64.800781 117.375 L 66.3125 119.222656 L 66.230469 119.476562 L 65.976562 119.390625 C 65.527344 119.222656 65.21875 118.886719 65.050781 118.382812 L 64.800781 117.710938 M 69.765625 116.199219 L 69.933594 117.625 L 69.765625 117.625 C 69.316406 117.851562 69.0625 118.160156 69.007812 118.550781 L 68.671875 116.113281 L 69.765625 116.199219 M 67.660156 115.945312 L 67.914062 118.46875 L 67.15625 117.542969 L 66.820312 116.785156 L 66.230469 115.777344 L 67.660156 115.945312 M 69.089844 119.8125 L 69.089844 119.390625 L 69.425781 119.894531 L 70.269531 120.484375 L 70.351562 122.078125 C 70.410156 122.976562 70.550781 123.675781 70.773438 124.179688 C 71.054688 124.742188 71.699219 124.964844 72.707031 124.851562 L 74.980469 124.433594 L 76.832031 123.929688 L 76.914062 122.164062 L 76.410156 117.039062 L 76.328125 115.441406 L 76.328125 115.273438 L 76.664062 114.9375 L 77.671875 115.105469 L 78.429688 123.171875 L 78.429688 124.9375 L 78.347656 125.019531 C 78.121094 125.523438 77.5625 125.832031 76.664062 125.945312 L 73.382812 126.363281 L 71.445312 126.617188 C 70.492188 126.671875 69.960938 126.476562 69.847656 126.027344 L 69.511719 123.84375 L 69.089844 119.980469 L 69.089844 119.8125 M 70.015625 118.636719 L 70.101562 119.222656 L 69.847656 118.972656 C 69.734375 118.859375 69.792969 118.746094 70.015625 118.636719 M 77.503906 113.171875 C 76.4375 113.171875 75.511719 112.949219 74.726562 112.5 L 73.886719 111.660156 L 74.054688 111.660156 L 76.410156 111.746094 C 76.972656 111.914062 77.335938 112.390625 77.503906 113.171875 M 74.222656 114.265625 L 71.699219 114.433594 L 73.464844 114.351562 L 74.222656 114.265625 M 73.296875 117.039062 L 72.878906 116.871094 L 70.519531 117.375 L 70.351562 116.199219 L 70.519531 116.199219 L 75.820312 115.609375 L 76.328125 121.574219 L 76.410156 122.75 C 76.355469 123.144531 76.074219 123.367188 75.570312 123.425781 L 71.277344 123.84375 L 70.941406 122.164062 L 70.773438 120.652344 L 71.277344 120.734375 L 73.214844 120.398438 C 73.832031 120.0625 74.167969 119.585938 74.222656 118.972656 L 73.800781 117.207031 L 73.296875 117.039062 M 70.941406 118.300781 L 73.128906 117.960938 C 73.632812 118.691406 73.382812 119.25 72.371094 119.644531 L 71.027344 119.726562 L 70.6875 119.644531 L 70.605469 118.382812 L 70.941406 118.300781 M 68.25 123.257812 L 67.828125 122.835938 L 64.210938 121.828125 L 64.042969 121.996094 L 64.210938 122.164062 L 64.800781 122.5 L 67.828125 123.339844 L 68.25 123.257812 M 67.660156 177.113281 C 63.902344 178.34375 60.59375 179.15625 57.730469 179.546875 L 44.859375 179.042969 L 44.351562 178.960938 C 43.734375 178.847656 43.398438 178.679688 43.34375 178.457031 C 43.285156 178.0625 43.933594 177.503906 45.277344 176.777344 L 53.273438 173.75 L 57.394531 174.925781 L 64.800781 175.9375 L 74.8125 175.011719 L 74.558594 176.609375 L 73.71875 177.617188 C 73.046875 178.121094 71.585938 178.429688 69.34375 178.539062 L 67.914062 177.195312 L 67.828125 177.027344 L 67.660156 177.113281 M 110.910156 177.617188 C 112.984375 176.382812 115.648438 174.394531 118.902344 171.652344 C 119.519531 172.660156 119.660156 173.582031 119.324219 174.421875 C 119.042969 175.265625 117.976562 176.300781 116.125 177.53125 L 114.191406 177.113281 L 114.023438 177.027344 L 113.9375 177.195312 L 111.582031 179.800781 L 106.703125 184.503906 L 100.054688 188.875 L 95.59375 190.808594 L 95.089844 190.976562 L 93.996094 191.058594 C 93.714844 190.835938 93.941406 190.023438 94.671875 188.621094 L 97.445312 185.011719 L 99.972656 181.902344 C 101.035156 181.675781 102.410156 181.257812 104.09375 180.640625 C 106.785156 179.746094 109.058594 178.738281 110.910156 177.617188 M 44.015625 8.652344 C 44.96875 9.773438 46.371094 10.839844 48.222656 11.847656 L 53.101562 13.945312 C 55.738281 15.179688 58.265625 16.242188 60.675781 17.140625 C 60.621094 16.523438 60.507812 16.1875 60.339844 16.132812 C 54.449219 14.003906 49.765625 11.847656 46.289062 9.664062 C 44.492188 8.652344 43.59375 7.898438 43.59375 7.394531 C 43.539062 6.386719 44.859375 6.019531 47.550781 6.300781 L 55.964844 7.898438 L 55.964844 7.476562 L 55.628906 6.972656 C 51.757812 5.796875 48.476562 5.238281 45.78125 5.292969 C 44.550781 5.292969 43.734375 5.601562 43.34375 6.21875 C 43.0625 6.890625 43.285156 7.703125 44.015625 8.652344 M 46.457031 31.925781 L 46.371094 31.84375 C 45.699219 31.675781 44.71875 32.207031 43.425781 33.441406 L 41.746094 35.289062 L 41.660156 35.707031 L 42.082031 36.378906 C 43.089844 37.164062 43.734375 37.472656 44.015625 37.304688 L 44.269531 36.546875 L 44.941406 34.953125 C 45.953125 33.214844 46.457031 32.207031 46.457031 31.925781 M 34.085938 28.988281 L 33.917969 28.988281 L 34.421875 28.988281 L 34.085938 28.988281 M 29.039062 30.75 C 28.644531 31.253906 28.253906 32.515625 27.859375 34.53125 L 27.1875 37.722656 C 26.570312 39.179688 25.785156 40.132812 24.832031 40.582031 L 23.484375 40.917969 L 23.570312 40.078125 L 22.558594 37.640625 L 21.296875 35.203125 C 21.074219 34.53125 21.183594 33.886719 21.632812 33.273438 L 22.308594 32.933594 C 23.035156 32.597656 23.625 32.09375 24.074219 31.421875 L 25.335938 30.835938 L 30.132812 29.492188 L 29.039062 30.75 M 39.136719 42.933594 L 39.136719 46.628906 L 38.210938 52.007812 L 38.292969 52.679688 L 38.800781 53.183594 L 41.660156 54.78125 C 42.054688 54.949219 42.445312 54.949219 42.839844 54.78125 L 43.59375 54.191406 L 43.761719 53.6875 L 43.425781 53.269531 L 41.15625 52.09375 C 40.648438 51.867188 40.398438 51.476562 40.398438 50.914062 L 40.480469 47.132812 L 40.3125 44.109375 L 40.0625 42.683594 C 39.949219 42.121094 39.753906 41.898438 39.472656 42.007812 L 39.136719 42.933594 M 32.910156 39.238281 L 32.488281 39.320312 L 29.121094 41.167969 L 28.785156 41.503906 L 29.207031 41.671875 L 32.65625 41.671875 C 32.9375 41.730469 33.160156 41.644531 33.328125 41.421875 L 33.5 40.75 L 33.414062 39.910156 C 33.414062 39.460938 33.246094 39.238281 32.910156 39.238281 M 30.804688 47.132812 L 31.226562 49.152344 L 32.488281 50.746094 C 32.992188 51.140625 33.441406 51.25 33.835938 51.082031 C 34.226562 50.859375 34.421875 50.4375 34.421875 49.824219 C 34.480469 49.207031 34.339844 48.5625 34.003906 47.890625 C 33.667969 47.164062 33.246094 46.601562 32.742188 46.210938 L 31.394531 45.957031 C 31.003906 46.125 30.804688 46.519531 30.804688 47.132812 M 49.570312 39.824219 L 48.390625 38.230469 L 47.046875 37.976562 L 46.960938 37.976562 L 46.371094 39.152344 L 46.875 41.167969 L 48.140625 42.765625 C 48.644531 43.15625 49.066406 43.242188 49.402344 43.019531 L 49.484375 43.019531 C 49.820312 42.851562 50.019531 42.457031 50.074219 41.839844 C 50.074219 41.226562 49.90625 40.554688 49.570312 39.824219 M 52.683594 53.4375 C 52.90625 53.660156 53.1875 53.800781 53.523438 53.855469 C 51.953125 55.984375 49.652344 57.890625 46.625 59.570312 C 44.941406 60.578125 43.257812 61.304688 41.574219 61.753906 L 37.707031 61.921875 C 37.984375 61.585938 38.070312 61.222656 37.957031 60.828125 C 37.734375 60.4375 37.367188 60.355469 36.863281 60.578125 L 35.011719 61.839844 C 34.621094 62.285156 34.5625 62.707031 34.84375 63.097656 C 35.011719 63.265625 35.210938 63.351562 35.433594 63.351562 C 35.65625 63.351562 35.855469 63.265625 36.023438 63.097656 L 36.527344 62.59375 C 39.277344 63.828125 42.808594 63.324219 47.128906 61.082031 C 51.394531 58.898438 54.394531 56.238281 56.132812 53.101562 L 56.132812 52.765625 L 58.234375 51.503906 C 58.460938 51.449219 58.320312 51.25 57.816406 50.914062 L 56.722656 50.746094 C 55.9375 51.027344 55.234375 51.417969 54.617188 51.921875 L 52.683594 53.101562 C 52.457031 53.15625 52.457031 53.269531 52.683594 53.4375 M 24.746094 41.757812 L 24.746094 46.964844 C 23.511719 46.183594 22.699219 45.539062 22.308594 45.035156 C 21.746094 44.304688 21.410156 43.605469 21.296875 42.933594 L 21.296875 42.511719 L 22.8125 43.523438 L 22.894531 43.523438 L 22.894531 43.269531 L 23.316406 41.839844 L 24.746094 41.757812 M 52.429688 61.082031 L 52.09375 61.332031 L 49.066406 63.265625 C 47.492188 63.9375 46.34375 63.9375 45.613281 63.265625 L 44.859375 63.769531 L 44.4375 64.695312 L 48.390625 64.527344 C 49.792969 63.910156 51.027344 63.070312 52.09375 62.007812 C 52.488281 61.613281 52.683594 61.277344 52.683594 60.996094 L 52.429688 61.082031 M 45.613281 75.363281 L 44.351562 73.347656 L 46.792969 73.347656 L 45.613281 75.363281 M 44.351562 77.632812 L 42.164062 80.40625 L 38.632812 83.429688 C 38.800781 79.117188 40.0625 75.898438 42.417969 73.769531 L 44.183594 76.289062 L 44.351562 77.632812 M 36.359375 84.269531 L 36.613281 83.515625 L 36.78125 83.261719 L 36.78125 84.1875 L 36.359375 84.269531 M 38.632812 85.449219 C 40.3125 84.773438 41.941406 83.570312 43.511719 81.835938 L 44.4375 80.828125 C 44.492188 82.5625 44.914062 84.496094 45.699219 86.625 C 46.765625 89.535156 48.335938 92.730469 50.410156 96.203125 L 54.113281 101.914062 L 47.886719 94.183594 L 46.539062 93.847656 C 45.921875 93.90625 45.753906 94.15625 46.035156 94.605469 L 53.441406 104.519531 L 54.449219 106.117188 L 59.078125 113.171875 L 60.84375 115.695312 L 62.105469 118.382812 C 62.21875 119.839844 60.871094 121.519531 58.066406 123.425781 L 52.261719 127.625 C 51.871094 128.074219 51.054688 127.457031 49.820312 125.777344 L 47.046875 122.246094 C 46.148438 121.574219 44.828125 121.097656 43.089844 120.820312 L 39.976562 120.484375 L 40.734375 116.535156 L 42.332031 112.332031 C 42.894531 110.597656 43.007812 108.523438 42.667969 106.117188 L 41.324219 100.066406 C 39.695312 93.234375 38.800781 88.386719 38.632812 85.53125 L 38.632812 85.449219 M 43.425781 122.75 C 45.167969 123.089844 46.398438 124.011719 47.128906 125.523438 L 48.222656 127.203125 L 49.402344 127.960938 C 49.960938 128.296875 50.496094 128.550781 51 128.71875 L 51.925781 129.976562 C 52.09375 130.648438 51.589844 131.351562 50.410156 132.078125 C 49.511719 132.695312 48.558594 132.863281 47.550781 132.582031 C 46.597656 132.359375 45.726562 131.769531 44.941406 130.816406 C 43.761719 129.472656 42.277344 128.773438 40.480469 128.71875 L 39.726562 128.71875 C 39.277344 128.71875 39.332031 129.023438 39.894531 129.640625 C 40.398438 130.203125 40.847656 130.453125 41.238281 130.398438 C 42.191406 130.339844 43.257812 130.816406 44.4375 131.824219 L 46.960938 133.675781 C 45.671875 135.578125 44.828125 137.398438 44.4375 139.136719 L 44.4375 139.21875 L 43.425781 138.296875 C 42.867188 137.679688 42.53125 137.089844 42.417969 136.53125 L 42.585938 135.4375 L 42.667969 134.933594 L 42.839844 134.261719 L 42.332031 133.675781 L 41.746094 133.675781 L 41.492188 135.019531 L 41.40625 136.277344 L 42.667969 138.296875 L 44.015625 139.472656 L 43.847656 139.554688 C 42.613281 140.621094 41.714844 140.761719 41.15625 139.976562 L 40.230469 139.304688 C 39.613281 138.519531 39.191406 137.679688 38.96875 136.78125 L 38.800781 134.09375 L 39.050781 133.085938 L 38.546875 132.582031 L 37.957031 132.5 C 37.566406 133.785156 37.566406 135.128906 37.957031 136.53125 L 39.386719 139.21875 L 39.304688 139.386719 C 39.136719 140.675781 38.6875 141.433594 37.957031 141.65625 C 37.230469 141.878906 36.472656 141.375 35.6875 140.144531 C 34.5625 138.296875 34.171875 135.804688 34.507812 132.667969 C 34.730469 130.035156 36.164062 126.8125 38.800781 123.003906 L 40.648438 122.667969 L 43.425781 122.75 "/>
</g>
</svg>
