<?xml version="1.0" encoding="UTF-8"?>
<svg xmlns="http://www.w3.org/2000/svg" xmlns:xlink="http://www.w3.org/1999/xlink" width="128pt" height="121pt" viewBox="0 0 128 121" version="1.1">
<g id="surface1">
<path style=" stroke:none;fill-rule:nonzero;fill:rgb(100%,100%,100%);fill-opacity:1;" d="M 19.597656 41.566406 L 20.035156 37.613281 C 20.386719 35.972656 20.765625 35.152344 21.171875 35.152344 C 21.582031 35.152344 21.960938 35.972656 22.308594 37.613281 C 22.660156 39.078125 22.835938 40.394531 22.835938 41.566406 C 22.835938 42.5625 22.660156 43.355469 22.308594 43.9375 C 22.019531 44.523438 21.640625 44.816406 21.171875 44.816406 C 20.121094 44.816406 19.597656 43.734375 19.597656 41.566406 "/>
<path style=" stroke:none;fill-rule:nonzero;fill:rgb(100%,100%,100%);fill-opacity:1;" d="M 22.835938 3.261719 C 22.835938 4.433594 22.660156 5.753906 22.308594 7.214844 C 21.960938 8.855469 21.582031 9.675781 21.171875 9.675781 C 20.765625 9.675781 20.386719 8.855469 20.035156 7.214844 L 19.597656 3.261719 C 19.597656 1.097656 20.121094 0.0117188 21.171875 0.0117188 C 21.640625 0.0117188 22.019531 0.304688 22.308594 0.890625 C 22.660156 1.476562 22.835938 2.265625 22.835938 3.261719 "/>
<path style=" stroke:none;fill-rule:nonzero;fill:rgb(100%,100%,100%);fill-opacity:1;" d="M 39.109375 25.226562 L 35.171875 24.699219 C 33.539062 24.347656 32.722656 23.96875 32.722656 23.558594 C 32.722656 23.148438 33.539062 22.765625 35.171875 22.414062 L 39.109375 21.976562 C 41.265625 21.976562 42.347656 22.503906 42.347656 23.558594 C 42.347656 24.027344 42.054688 24.40625 41.472656 24.699219 L 39.109375 25.226562 "/>
<path style=" stroke:none;fill-rule:nonzero;fill:rgb(100%,100%,100%);fill-opacity:1;" d="M 3.238281 21.976562 L 7.261719 22.414062 C 8.894531 22.765625 9.710938 23.148438 9.710938 23.558594 C 9.710938 23.96875 8.894531 24.347656 7.261719 24.699219 L 3.238281 25.226562 L 0.875 24.699219 L 0 23.558594 C 0 23.089844 0.292969 22.707031 0.875 22.414062 L 3.238281 21.976562 "/>
<path style=" stroke:none;fill-rule:nonzero;fill:rgb(100%,100%,100%);fill-opacity:1;" d="M 34.996094 12.046875 L 31.847656 14.507812 C 30.445312 15.386719 29.601562 15.679688 29.308594 15.386719 C 29.019531 15.09375 29.339844 14.246094 30.273438 12.839844 L 32.722656 9.675781 C 33.421875 8.972656 34.09375 8.535156 34.734375 8.359375 L 36.132812 8.535156 C 36.890625 9.296875 36.511719 10.46875 34.996094 12.046875 "/>
<path style=" stroke:none;fill-rule:nonzero;fill:rgb(100%,100%,100%);fill-opacity:1;" d="M 7.347656 35.152344 C 8.28125 34.277344 9.332031 33.457031 10.5 32.695312 C 11.898438 31.757812 12.746094 31.433594 13.035156 31.726562 C 13.328125 32.019531 13.035156 32.871094 12.160156 34.277344 L 9.710938 37.4375 C 8.136719 38.960938 6.96875 39.339844 6.210938 38.582031 C 5.921875 38.289062 5.863281 37.820312 6.035156 37.175781 L 7.347656 35.152344 "/>
<path style=" stroke:none;fill-rule:nonzero;fill:rgb(100%,100%,100%);fill-opacity:1;" d="M 32.722656 37.4375 L 30.273438 34.277344 C 29.339844 32.871094 29.019531 32.019531 29.308594 31.726562 C 29.601562 31.433594 30.445312 31.757812 31.847656 32.695312 L 34.996094 35.152344 C 35.695312 35.855469 36.132812 36.53125 36.308594 37.175781 C 36.484375 37.820312 36.425781 38.289062 36.132812 38.582031 L 34.734375 38.757812 L 32.722656 37.4375 "/>
<path style=" stroke:none;fill-rule:nonzero;fill:rgb(100%,100%,100%);fill-opacity:1;" d="M 9.710938 9.675781 L 12.160156 12.839844 C 13.035156 14.246094 13.328125 15.09375 13.035156 15.386719 C 12.746094 15.679688 11.898438 15.386719 10.5 14.507812 L 7.347656 12.046875 C 5.832031 10.46875 5.453125 9.296875 6.210938 8.535156 L 7.613281 8.359375 L 9.710938 9.675781 "/>
<path style=" stroke:none;fill-rule:nonzero;fill:rgb(100%,100%,100%);fill-opacity:1;" d="M 128 120.636719 L 127.738281 120.195312 L 127.386719 120.195312 L 127.125 120.722656 L 127.125 120.636719 L 127.300781 120.195312 L 127.5625 120.109375 C 127.679688 120.109375 127.765625 120.167969 127.824219 120.285156 L 128 120.722656 L 128 120.636719 "/>
<path style=" stroke:none;fill-rule:nonzero;fill:rgb(100%,100%,100%);fill-opacity:1;" d="M 127.824219 120.722656 L 127.824219 120.8125 L 127.5625 120.988281 L 127.210938 120.8125 L 127.210938 120.722656 L 127.5625 120.898438 L 127.824219 120.722656 "/>
<path style=" stroke:none;fill-rule:nonzero;fill:rgb(100%,100%,100%);fill-opacity:1;" d="M 127.914062 120.546875 L 127.824219 120.722656 L 127.738281 120.8125 L 127.648438 120.722656 L 127.738281 120.546875 L 127.648438 120.371094 L 127.824219 120.371094 L 127.914062 120.546875 "/>
</g>
</svg>
