<?xml version="1.0" encoding="UTF-8"?>
<svg xmlns="http://www.w3.org/2000/svg" xmlns:xlink="http://www.w3.org/1999/xlink" width="128pt" height="128pt" viewBox="0 0 128 128" version="1.1">
<g id="surface1">
<path style=" stroke:none;fill-rule:nonzero;fill:rgb(100%,100%,100%);fill-opacity:1;" d="M 24.71875 115.675781 C 24.71875 119.039062 23.535156 121.957031 21.164062 124.425781 C 18.792969 126.785156 15.859375 127.960938 12.359375 127.960938 C 8.972656 127.960938 6.09375 126.785156 3.726562 124.425781 C 1.242188 121.957031 0 119.039062 0 115.675781 C 0 112.195312 1.242188 109.277344 3.726562 106.921875 C 6.09375 104.453125 8.972656 103.21875 12.359375 103.21875 C 15.859375 103.21875 18.792969 104.453125 21.164062 106.921875 C 23.535156 109.277344 24.71875 112.195312 24.71875 115.675781 "/>
<path style=" stroke:none;fill-rule:nonzero;fill:rgb(100%,100%,100%);fill-opacity:1;" d="M 128 70.902344 C 128 73.480469 127.097656 75.726562 125.289062 77.632812 C 123.484375 79.429688 121.285156 80.328125 118.6875 80.328125 C 116.089844 80.328125 113.835938 79.429688 111.914062 77.632812 C 110.109375 75.726562 109.207031 73.480469 109.207031 70.902344 C 109.207031 68.320312 110.109375 66.074219 111.914062 64.167969 C 113.835938 62.371094 116.089844 61.476562 118.6875 61.476562 C 121.285156 61.476562 123.484375 62.371094 125.289062 64.167969 C 127.097656 66.074219 128 68.320312 128 70.902344 "/>
<path style=" stroke:none;fill-rule:nonzero;fill:rgb(100%,100%,100%);fill-opacity:1;" d="M 33.015625 8.789062 C 33.015625 11.148438 32.167969 13.167969 30.476562 14.851562 C 28.78125 16.535156 26.695312 17.375 24.210938 17.375 C 21.839844 17.375 19.808594 16.535156 18.117188 14.851562 C 16.421875 13.167969 15.578125 11.148438 15.578125 8.789062 C 15.578125 6.324219 16.421875 4.246094 18.117188 2.5625 C 19.808594 0.878906 21.839844 0.0390625 24.210938 0.0390625 C 26.695312 0.0390625 28.78125 0.878906 30.476562 2.5625 C 32.167969 4.246094 33.015625 6.324219 33.015625 8.789062 "/>
<path style=" stroke:none;fill-rule:nonzero;fill:rgb(100%,100%,100%);fill-opacity:1;" d="M 30.476562 103.050781 C 30.476562 105.40625 29.628906 107.425781 27.9375 109.109375 C 26.242188 110.792969 24.15625 111.632812 21.671875 111.632812 C 19.300781 111.632812 17.269531 110.792969 15.578125 109.109375 C 13.882812 107.425781 13.035156 105.40625 13.035156 103.050781 C 13.035156 100.582031 13.882812 98.503906 15.578125 96.824219 C 17.269531 95.140625 19.300781 94.296875 21.671875 94.296875 C 24.15625 94.296875 26.242188 95.140625 27.9375 96.824219 C 29.628906 98.503906 30.476562 100.582031 30.476562 103.050781 "/>
<path style=" stroke:none;fill-rule:nonzero;fill:rgb(37.647059%,38.039216%,38.823529%);fill-opacity:1;" d="M 71.28125 67.871094 C 71.28125 73.03125 69.417969 77.410156 65.691406 81 C 61.96875 84.703125 57.507812 86.554688 52.316406 86.554688 C 47.125 86.554688 42.667969 84.703125 38.941406 81 C 35.21875 77.410156 33.355469 73.03125 33.355469 67.871094 C 33.355469 62.710938 35.21875 58.277344 38.941406 54.574219 C 42.667969 50.871094 47.125 49.019531 52.316406 49.019531 C 57.621094 49.019531 62.082031 50.871094 65.691406 54.574219 C 69.417969 58.277344 71.28125 62.710938 71.28125 67.871094 "/>
<path style=" stroke:none;fill-rule:nonzero;fill:rgb(100%,100%,100%);fill-opacity:1;" d="M 63.324219 68.375 C 63.324219 71.40625 62.25 74.042969 60.105469 76.289062 C 57.847656 78.417969 55.195312 79.484375 52.148438 79.484375 C 49.101562 79.484375 46.503906 78.417969 44.359375 76.289062 C 42.214844 74.042969 41.144531 71.40625 41.144531 68.375 C 41.144531 65.347656 42.214844 62.765625 44.359375 60.632812 C 46.503906 58.5 49.101562 57.433594 52.148438 57.433594 C 55.195312 57.433594 57.847656 58.5 60.105469 60.632812 C 62.25 62.765625 63.324219 65.347656 63.324219 68.375 "/>
</g>
</svg>
