<?xml version="1.0" encoding="UTF-8"?>
<svg xmlns="http://www.w3.org/2000/svg" xmlns:xlink="http://www.w3.org/1999/xlink" width="127pt" height="124pt" viewBox="0 0 127 124" version="1.1">
<g id="surface1">
<path style=" stroke:none;fill-rule:nonzero;fill:rgb(0%,0%,0%);fill-opacity:1;" d="M 16.25 61.882812 L 16.710938 62.347656 L 14.519531 63.390625 L 16.25 61.882812 M 46.90625 16.699219 L 46.445312 17.394531 L 43.332031 16.582031 L 46.90625 16.699219 M 23.625 106.375 C 19.398438 104.441406 16.019531 101.121094 13.484375 96.410156 C 10.257812 90.308594 9.449219 83.625 11.0625 76.367188 C 12.140625 71.269531 14.253906 66.828125 17.402344 63.042969 L 22.933594 67.675781 L 22.820312 65.242188 C 17.824219 60.378906 14.519531 54.894531 12.90625 48.792969 C 11.371094 42.535156 11.945312 36.703125 14.636719 31.296875 C 17.554688 25.582031 22.320312 21.527344 28.925781 19.132812 C 34.382812 17.203125 40.144531 16.777344 46.214844 17.859375 C 43.449219 22.570312 41.71875 27.9375 41.027344 33.960938 C 43.640625 26.160156 47.789062 19.980469 53.472656 15.425781 C 59.234375 10.789062 65.496094 8.707031 72.257812 9.167969 C 80.863281 9.785156 87.894531 14.113281 93.347656 22.144531 C 98.804688 30.175781 101.148438 39.5625 100.378906 50.296875 C 100.148438 53.386719 99.609375 56.398438 98.765625 59.335938 C 102.375 53.695312 104.410156 47.402344 104.871094 40.449219 L 104.988281 38.828125 C 109.75 40.992188 113.59375 44.3125 116.511719 48.792969 C 119.738281 53.8125 121.121094 59.296875 120.660156 65.242188 C 120.199219 72.195312 117.472656 78.105469 112.480469 82.96875 C 110.25 85.132812 107.871094 86.832031 105.332031 88.066406 L 98.765625 89.804688 L 99.457031 88.53125 C 100.839844 85.671875 100.917969 82.621094 99.6875 79.378906 C 98.378906 76.210938 96.074219 73.703125 92.773438 71.847656 C 95.152344 73.855469 96.730469 76.210938 97.496094 78.914062 C 98.34375 81.542969 98.1875 84.011719 97.035156 86.332031 C 95.652344 89.1875 93.195312 91.003906 89.660156 91.777344 C 86.050781 92.546875 82.4375 92.007812 78.828125 90.152344 L 75.832031 88.414062 C 77.367188 90.425781 79.289062 92.007812 81.59375 93.164062 C 85.128906 94.863281 88.625 95.289062 92.082031 94.441406 L 96.113281 92.585938 L 92.082031 102.898438 L 91.160156 104.289062 L 86.203125 110.195312 L 81.246094 113.789062 L 76.40625 116.222656 L 71.914062 117.613281 L 53.933594 117.03125 C 48.171875 115.179688 43.292969 111.972656 39.296875 107.417969 L 38.953125 107.183594 L 38.722656 106.953125 L 38.375 106.257812 C 35.378906 102.628906 33.265625 98.378906 32.039062 93.511719 C 31.269531 90.65625 30.925781 87.757812 31 84.824219 C 30.617188 88.839844 30.886719 92.742188 31.808594 96.527344 C 32.804688 100.464844 34.34375 103.980469 36.417969 107.070312 L 32.152344 108.113281 L 28.464844 107.878906 L 23.625 106.375 "/>
<path style=" stroke:none;fill-rule:nonzero;fill:rgb(100%,100%,100%);fill-opacity:1;" d="M 16.25 61.882812 C 13.023438 58.332031 10.640625 54.316406 9.105469 49.835938 C 6.570312 42.652344 6.875 35.96875 10.027344 29.792969 C 13.253906 23.378906 18.667969 19.132812 26.277344 17.046875 L 43.332031 16.582031 L 46.445312 17.394531 L 46.90625 16.699219 L 52.667969 9.632812 C 59.351562 3.222656 66.996094 0.324219 75.601562 0.941406 C 84.4375 1.636719 91.695312 5.808594 97.382812 13.457031 C 102.53125 20.40625 105.066406 28.402344 104.988281 37.4375 C 110.980469 38.597656 116.011719 41.609375 120.085938 46.476562 C 124.695312 52.035156 126.769531 58.410156 126.308594 65.589844 C 125.847656 73.082031 122.8125 79.300781 117.203125 84.246094 C 111.671875 89.109375 105.257812 91.3125 97.957031 90.847656 L 96.574219 92.355469 C 95.882812 98.457031 93.578125 104.019531 89.660156 109.039062 C 85.050781 114.984375 79.097656 118.847656 71.796875 120.625 C 62.960938 122.863281 54.625 121.628906 46.789062 116.917969 C 42.871094 114.523438 39.644531 111.585938 37.109375 108.113281 C 33.804688 109.65625 30.269531 110.429688 26.507812 110.429688 C 21.972656 110.429688 17.710938 109.230469 13.714844 106.835938 C 7.796875 103.207031 4.035156 98.03125 2.421875 91.3125 C 0.808594 84.59375 1.765625 78.257812 5.300781 72.3125 C 6.914062 69.683594 8.914062 67.40625 11.292969 65.476562 L 14.519531 63.390625 L 16.710938 62.347656 L 16.25 61.882812 M 105.332031 88.066406 C 107.871094 86.832031 110.25 85.132812 112.480469 82.96875 C 117.472656 78.105469 120.199219 72.195312 120.660156 65.242188 C 121.121094 59.296875 119.738281 53.8125 116.511719 48.792969 C 113.59375 44.3125 109.75 40.992188 104.988281 38.828125 L 104.871094 40.449219 C 104.410156 47.402344 102.375 53.695312 98.765625 59.335938 C 99.609375 56.398438 100.148438 53.386719 100.378906 50.296875 C 101.148438 39.5625 98.804688 30.175781 93.347656 22.144531 C 87.894531 14.113281 80.863281 9.785156 72.257812 9.167969 C 65.496094 8.707031 59.234375 10.789062 53.472656 15.425781 C 47.789062 19.980469 43.640625 26.160156 41.027344 33.960938 C 41.71875 27.9375 43.449219 22.570312 46.214844 17.859375 C 40.144531 16.777344 34.382812 17.203125 28.925781 19.132812 C 22.320312 21.527344 17.554688 25.582031 14.636719 31.296875 C 11.945312 36.703125 11.371094 42.535156 12.90625 48.792969 C 14.519531 54.894531 17.824219 60.378906 22.820312 65.242188 L 22.933594 67.675781 L 17.402344 63.042969 C 14.253906 66.828125 12.140625 71.269531 11.0625 76.367188 C 9.449219 83.625 10.257812 90.308594 13.484375 96.410156 C 16.019531 101.121094 19.398438 104.441406 23.625 106.375 L 27.542969 107.648438 L 28.464844 107.878906 L 32.152344 108.113281 L 36.648438 107.417969 L 36.417969 107.070312 C 34.34375 103.980469 32.804688 100.464844 31.808594 96.527344 C 30.886719 92.742188 30.617188 88.839844 31 84.824219 C 30.925781 87.757812 31.269531 90.65625 32.039062 93.511719 C 33.265625 98.378906 35.378906 102.628906 38.375 106.257812 L 38.722656 106.953125 L 38.953125 107.183594 L 39.296875 107.417969 C 43.292969 111.972656 48.171875 115.179688 53.933594 117.03125 L 71.914062 117.613281 L 76.40625 116.222656 L 81.246094 113.789062 L 86.203125 110.195312 L 88.96875 107.183594 L 91.160156 104.289062 L 92.082031 102.898438 C 94 99.730469 95.382812 96.292969 96.230469 92.585938 L 96.113281 92.585938 L 92.082031 94.441406 C 88.625 95.289062 85.128906 94.863281 81.59375 93.164062 C 79.289062 92.007812 77.367188 90.425781 75.832031 88.414062 L 78.828125 90.152344 C 82.4375 92.007812 86.050781 92.546875 89.660156 91.777344 C 93.195312 91.003906 95.652344 89.1875 97.035156 86.332031 C 98.1875 84.011719 98.34375 81.542969 97.496094 78.914062 C 96.730469 76.210938 95.152344 73.855469 92.773438 71.847656 C 96.074219 73.703125 98.378906 76.210938 99.6875 79.378906 C 100.917969 82.621094 100.839844 85.671875 99.457031 88.53125 L 98.765625 89.804688 L 98.535156 90.152344 L 105.332031 88.066406 "/>
</g>
</svg>
