<?xml version="1.0" encoding="UTF-8"?>
<svg xmlns="http://www.w3.org/2000/svg" xmlns:xlink="http://www.w3.org/1999/xlink" width="129pt" height="32pt" viewBox="0 0 129 32" version="1.1">
<g id="surface1">
<path style=" stroke:none;fill-rule:nonzero;fill:rgb(100%,100%,100%);fill-opacity:1;" d="M 84.589844 24.363281 L 86.589844 25.089844 L 87.679688 26.910156 L 86.589844 29.089844 C 85.984375 29.695312 85.316406 30 84.589844 30 C 84.105469 30 83.558594 29.695312 82.953125 29.089844 C 82.347656 28.484375 82.042969 27.757812 82.042969 26.910156 L 82.953125 25.089844 L 84.589844 24.363281 M 78.953125 27.273438 C 75.800781 30.425781 72.046875 32 67.679688 32 C 63.316406 32 59.621094 30.425781 56.589844 27.273438 C 53.320312 24.121094 51.683594 20.363281 51.683594 16 L 52.957031 9.816406 L 52.773438 9.816406 C 52.046875 9.816406 51.5 9.636719 51.136719 9.273438 L 50.226562 7.089844 L 51.136719 5.273438 L 52.773438 4.363281 L 54.589844 5.273438 L 55.5 6 L 56.589844 4.726562 C 59.621094 1.574219 63.316406 0 67.679688 0 C 72.046875 0 75.800781 1.574219 78.953125 4.726562 C 82.226562 7.878906 83.863281 11.636719 83.863281 16 C 83.863281 20.363281 82.226562 24.121094 78.953125 27.273438 "/>
<path style=" stroke:none;fill-rule:nonzero;fill:rgb(100%,100%,100%);fill-opacity:1;" d="M 55.863281 20.910156 L 54.773438 20.726562 L 56.589844 20.726562 L 55.863281 20.910156 M 50.957031 20.363281 L 50.046875 20.363281 L 59.320312 20.363281 L 50.957031 20.363281 M 24.230469 19.273438 L 22.957031 19.453125 L 5.320312 19.453125 L 5.140625 19.273438 L 24.230469 19.273438 M 57.136719 19.453125 L 48.046875 19.453125 L 47.683594 19.273438 L 57.5 19.273438 L 57.136719 19.453125 M 3.503906 17.816406 L 4.230469 17.816406 L 9.320312 18 L 10.59375 17.816406 L 66.410156 17.816406 L 63.5 18.183594 L 1.6875 18.183594 L 0.0507812 17.816406 L 3.503906 17.816406 M 115.859375 17.816406 L 123.679688 17.816406 L 122.949219 17.816406 L 124.222656 18.183594 L 115.316406 18.183594 L 115.859375 17.816406 M 83.863281 16.726562 L 83.316406 16.726562 L 79.5 16.910156 L 15.503906 16.910156 L 17.320312 16.546875 L 21.503906 15.816406 L 118.769531 15.816406 L 128.949219 16.363281 L 127.132812 16.910156 L 117.679688 16.910156 L 101.496094 16.726562 L 97.496094 16.910156 L 97.679688 16.910156 L 83.316406 16.910156 L 83.863281 16.726562 M 115.496094 15.273438 C 115.496094 15.394531 115.617188 15.453125 115.859375 15.453125 L 23.683594 15.453125 L 25.320312 15.273438 L 115.496094 15.273438 M 115.859375 14.363281 L 115.496094 14.726562 L 36.230469 14.726562 L 45.863281 14.363281 L 115.859375 14.363281 M 98.769531 12.726562 L 98.226562 12.546875 L 104.226562 12.546875 L 105.679688 12.726562 L 108.589844 13.089844 L 87.863281 13.089844 L 98.769531 12.726562 M 109.316406 11.816406 L 114.042969 11.453125 L 117.679688 11.453125 L 116.585938 11.636719 L 111.132812 11.816406 L 106.589844 12 L 100.042969 12 L 103.859375 11.816406 L 109.316406 11.816406 M 115.316406 11.089844 L 118.40625 11.089844 L 115.316406 11.089844 "/>
</g>
</svg>
