<?xml version="1.0" encoding="UTF-8"?>
<svg xmlns="http://www.w3.org/2000/svg" xmlns:xlink="http://www.w3.org/1999/xlink" width="128pt" height="147pt" viewBox="0 0 128 147" version="1.1">
<g id="surface1">
<path style=" stroke:none;fill-rule:nonzero;fill:rgb(100%,100%,100%);fill-opacity:1;" d="M 104.785156 90.878906 L 82.191406 93.050781 C 88.683594 101.328125 96.214844 100.605469 104.785156 90.878906 M 85.507812 109.8125 C 91.726562 111.742188 99.878906 109.675781 109.964844 103.605469 L 74.625 98.640625 C 77.386719 104.640625 81.015625 108.363281 85.507812 109.8125 M 13.265625 63.15625 L 7.253906 77.949219 L 21.351562 68.949219 L 13.265625 63.15625 M 49.957031 42.359375 L 45.394531 42.773438 L 40.730469 43.292969 C 39.28125 42.121094 37.378906 41.738281 35.03125 42.152344 C 32.75 42.636719 30.78125 43.671875 29.125 45.257812 C 27.328125 46.980469 26.324219 49.566406 26.117188 53.015625 C 25.910156 56.671875 26.738281 59.464844 28.605469 61.394531 L 49.957031 42.359375 M 127.378906 57.15625 C 127.171875 75.363281 125.753906 88.363281 123.128906 96.15625 C 119.8125 106.226562 113.214844 113.707031 103.332031 118.605469 C 98.359375 122.121094 91.691406 123.742188 83.328125 123.46875 L 72.34375 122.121094 L 62.394531 135.777344 L 62.808594 146.226562 L 57.730469 135.882812 L 62.910156 122.535156 L 53.375 134.226562 L 50.992188 146.539062 L 47.988281 133.710938 L 57.003906 118.605469 L 44.980469 131.847656 L 43.011719 143.125 L 39.488281 129.15625 L 47.46875 116.433594 L 61.046875 113.640625 L 52.445312 104.328125 L 54.929688 94.707031 C 47.191406 78.984375 42.5625 68.707031 41.042969 63.878906 C 37.863281 70.085938 33.476562 75.984375 27.878906 81.570312 L 28.605469 68.121094 C 18.519531 78.671875 11.226562 85.914062 6.738281 89.84375 C 5.425781 85.019531 5.25 80.398438 6.21875 75.984375 C 7.253906 71.015625 9.914062 65.1875 14.199219 58.5 C 14.40625 58.222656 12.160156 54.535156 7.460938 47.429688 C 2.695312 40.328125 0.414062 36.601562 0.621094 36.257812 C 0.898438 35.914062 4.527344 37.808594 11.503906 41.945312 C 18.550781 46.015625 22.179688 47.914062 22.386719 47.636719 C 28.742188 38.601562 36.171875 29.566406 44.671875 20.53125 C 52.617188 12.117188 59.90625 5.394531 66.539062 0.359375 L 41.664062 30.464844 L 42.910156 33.464844 L 79.804688 9.464844 L 50.371094 40.914062 L 65.296875 76.292969 L 71.722656 71.015625 L 79.910156 87.671875 C 85.160156 67.808594 88.648438 53.085938 90.378906 43.5 C 93.210938 49.914062 94.800781 57.363281 95.144531 65.84375 C 95.421875 72.742188 95.664062 76.222656 95.871094 76.292969 C 96.699219 76.429688 98.390625 70.292969 100.949219 57.878906 C 103.367188 46.015625 105.265625 34.980469 106.648438 24.773438 C 112.316406 37.257812 115.21875 48.257812 115.355469 57.773438 C 115.492188 65.5 113.730469 73.777344 110.070312 82.605469 C 112.972656 83.429688 118.742188 74.949219 127.378906 57.15625 "/>
<path style=" stroke:none;fill-rule:nonzero;fill:rgb(100%,100%,100%);fill-opacity:1;" d="M 110.171875 34.707031 L 107.894531 28.601562 C 107.339844 27.773438 106.789062 29.117188 106.234375 32.636719 C 104.300781 44.773438 102.503906 54.535156 100.84375 61.914062 L 99.496094 69.777344 C 98.667969 73.777344 97.667969 76.085938 96.492188 76.707031 L 95.25 75.984375 C 94.417969 75.085938 94.039062 73.15625 94.109375 70.191406 L 94.417969 63.980469 C 94.144531 59.5 93.726562 56.222656 93.175781 54.15625 C 92.691406 51.394531 91.863281 48.636719 90.6875 45.878906 L 88.71875 54.980469 L 80.53125 88.085938 L 79.183594 87.363281 L 72.757812 73.914062 L 71.824219 71.429688 L 71.097656 72.464844 L 66.019531 76.707031 L 65.296875 76.398438 L 64.671875 75.878906 L 49.75 40.601562 L 49.75 40.5 L 75.140625 13.394531 L 43.632812 33.878906 L 42.910156 33.671875 L 42.285156 33.152344 L 41.042969 30.152344 L 41.042969 30.050781 L 60.941406 5.945312 L 52.339844 13.910156 L 36.066406 31.292969 L 29.746094 40.5 C 26.222656 45.394531 23.976562 47.914062 23.007812 48.050781 C 22.386719 48.121094 21.316406 47.671875 19.796875 46.707031 L 9.949219 41.121094 L 4.042969 37.914062 C 1.898438 37.085938 1.691406 38.015625 3.421875 40.707031 L 10.054688 49.394531 C 13.09375 53.328125 14.683594 56.394531 14.820312 58.601562 C 14.890625 59.429688 14.164062 61.050781 12.644531 63.464844 L 9.640625 68.429688 L 6.839844 76.398438 L 6.113281 84.050781 C 6.183594 87.707031 7.152344 88.636719 9.015625 86.84375 L 27.878906 67.707031 L 29.226562 68.535156 L 28.710938 79.605469 C 33.339844 74.707031 37.242188 69.328125 40.421875 63.464844 L 41.769531 64.292969 C 43.289062 68.84375 45.394531 74.015625 48.089844 79.8125 L 55.449219 94.914062 C 55.792969 95.671875 55.378906 97.398438 54.207031 100.085938 C 53.101562 102.707031 52.824219 104.328125 53.375 104.949219 L 57.523438 109.398438 L 52.753906 104.949219 C 51.925781 103.984375 51.820312 102.328125 52.445312 99.984375 L 54.101562 94.707031 C 54.378906 93.535156 53.617188 91.328125 51.820312 88.085938 L 48.195312 81.671875 L 41.355469 66.15625 C 40.800781 63.878906 40.421875 64.1875 40.214844 67.085938 C 36.34375 73.085938 32.476562 78.050781 28.605469 81.984375 L 27.257812 81.15625 L 27.777344 70.601562 L 27.878906 69.878906 L 26.738281 71.121094 L 7.359375 90.257812 L 6.113281 89.433594 C 4.386719 82.328125 4.699219 75.984375 7.046875 70.394531 L 11.609375 62.222656 C 13.058594 59.1875 12.988281 56.464844 11.402344 54.050781 L 4.769531 45.359375 C 1.726562 41.292969 0.136719 38.121094 0 35.84375 C 0.828125 35.773438 1.933594 36.121094 3.316406 36.878906 L 6.324219 38.84375 L 16.273438 44.636719 C 20.003906 46.015625 23.183594 44.980469 25.808594 41.535156 C 39.074219 24.359375 52.410156 10.53125 65.8125 0.046875 L 67.160156 0.773438 L 44.257812 28.5 C 43.425781 29.601562 42.804688 31.117188 42.390625 33.050781 L 79.082031 9.050781 L 80.425781 9.875 L 64.363281 27.050781 L 56.691406 34.394531 C 52.753906 38.464844 51.027344 41.085938 51.511719 42.257812 L 60.320312 62.949219 L 65.605469 75.671875 L 65.605469 75.464844 L 67.160156 73.808594 L 71.097656 70.601562 L 71.824219 70.914062 L 72.445312 71.429688 L 79.597656 86.121094 L 80.21875 83.535156 C 85.058594 64.5 88.234375 51.015625 89.753906 43.085938 L 91.101562 43.808594 C 94.144531 51.742188 95.730469 61.257812 95.871094 72.363281 C 95.941406 75.191406 96.148438 75.949219 96.492188 74.636719 L 97.632812 69.363281 C 100.8125 56.328125 103.574219 41.328125 105.925781 24.359375 L 107.269531 25.1875 C 111.070312 33.878906 113.628906 41.535156 114.941406 48.152344 C 116.597656 56.84375 116.425781 64.84375 114.421875 72.15625 L 113.179688 77.429688 C 112.488281 79.914062 111.660156 81.429688 110.691406 81.984375 C 112.074219 81.222656 113.246094 80.121094 114.214844 78.671875 C 117.808594 73.777344 121.953125 66.464844 126.652344 56.742188 L 126.757812 56.84375 L 126.964844 56.949219 L 127.378906 57.050781 L 127.894531 57.464844 L 128 57.566406 C 127.792969 75.222656 126.066406 88.605469 122.816406 97.707031 C 117.636719 112.328125 108.066406 120.8125 94.109375 123.15625 C 87.75 124.121094 81.773438 124.121094 76.179688 123.15625 C 74.382812 122.8125 73.101562 122.949219 72.34375 123.570312 L 69.753906 126.984375 L 65.917969 131.433594 C 63.984375 133.777344 63.015625 135.363281 63.015625 136.191406 L 63.535156 146.640625 L 62.1875 145.917969 L 58.972656 140.539062 C 57.453125 137.777344 56.867188 135.984375 57.210938 135.15625 L 60.734375 126.15625 L 58.039062 128.742188 C 55.621094 131.296875 54.273438 133.261719 54 134.640625 L 51.613281 146.953125 L 50.265625 146.125 L 48.195312 139.398438 C 47.226562 135.949219 46.984375 133.8125 47.46875 132.984375 L 52.339844 125.019531 L 46.328125 131.433594 C 45.363281 132.46875 44.703125 134.398438 44.359375 137.226562 L 43.632812 143.539062 L 42.285156 142.710938 L 38.96875 129.054688 C 38.695312 128.089844 39.625 126.054688 41.769531 122.949219 L 46.121094 117.054688 C 46.882812 115.882812 48.679688 115.054688 51.511719 114.570312 L 57.9375 113.742188 C 59.664062 113.398438 59.90625 112.398438 58.664062 110.742188 L 61.773438 114.054688 L 53.480469 115.292969 C 50.164062 115.984375 47.917969 117.261719 46.742188 119.121094 L 41.871094 127.089844 C 40.90625 129.363281 40.835938 132.191406 41.664062 135.570312 L 42.703125 139.8125 L 43.011719 136.191406 C 43.21875 133.640625 43.632812 132.054688 44.257812 131.433594 L 56.382812 118.191406 C 57.28125 118.675781 57.695312 118.949219 57.625 119.019531 L 49.230469 133.089844 C 48.539062 134.328125 48.609375 136.535156 49.4375 139.710938 L 51.511719 146.640625 L 51.097656 140.332031 C 51.234375 137.089844 51.855469 134.847656 52.960938 133.605469 L 62.1875 122.121094 L 63.535156 122.949219 L 58.558594 135.984375 C 58.351562 136.535156 58.695312 137.640625 59.59375 139.296875 L 61.355469 142.296875 L 62.082031 143.746094 L 61.875 137.847656 C 62.011719 135.847656 62.703125 133.984375 63.949219 132.261719 L 71.722656 121.707031 C 79.597656 123.640625 87.40625 123.570312 95.144531 121.5 C 103.296875 119.226562 109.898438 115.085938 114.941406 109.085938 C 120.191406 102.8125 123.613281 94.5 125.203125 84.15625 C 125.960938 79.535156 126.445312 71.777344 126.652344 60.878906 L 121.160156 72.15625 C 117.152344 79.671875 113.664062 83.292969 110.691406 83.019531 L 109.449219 82.191406 C 113.59375 71.914062 115.320312 62.808594 114.628906 54.878906 C 114.007812 47.84375 112.523438 41.121094 110.171875 34.707031 "/>
<path style=" stroke:none;fill-rule:nonzero;fill:rgb(100%,100%,100%);fill-opacity:1;" d="M 19.070312 69.570312 C 20.039062 68.808594 20.660156 68.535156 20.9375 68.742188 L 13.886719 63.671875 L 8.808594 76.085938 L 19.070312 69.570312 M 21.660156 69.050781 L 21.972656 69.363281 L 7.875 78.363281 L 6.53125 77.535156 L 12.644531 62.742188 L 13.679688 63.257812 L 21.660156 69.050781 "/>
<path style=" stroke:none;fill-rule:nonzero;fill:rgb(100%,100%,100%);fill-opacity:1;" d="M 45.394531 42.050781 L 49.230469 41.945312 L 50.578125 42.773438 L 29.332031 61.808594 L 28.605469 61.5 L 27.984375 60.980469 C 25.152344 57.601562 24.597656 53.5 26.324219 48.671875 C 28.121094 43.707031 31.371094 41.359375 36.066406 41.636719 L 38.867188 42.359375 L 41.5625 42.773438 L 45.394531 42.050781 M 48.402344 42.671875 L 46.742188 42.878906 L 42.910156 43.601562 L 40.730469 43.1875 L 38.453125 42.464844 C 33.546875 42.1875 29.988281 44.429688 27.777344 49.1875 C 25.84375 53.394531 26.050781 57.222656 28.398438 60.671875 L 48.402344 42.671875 "/>
<path style=" stroke:none;fill-rule:nonzero;fill:rgb(100%,100%,100%);fill-opacity:1;" d="M 105.40625 91.292969 C 99.324219 97.914062 93.695312 100.226562 88.511719 98.226562 C 85.957031 97.191406 83.640625 95.328125 81.566406 92.640625 L 104.058594 90.464844 L 104.160156 90.464844 L 105.40625 91.292969 M 89.546875 98.019531 C 93.832031 98.570312 98.359375 96.398438 103.125 91.5 L 83.226562 93.363281 C 82.878906 93.433594 82.847656 93.605469 83.121094 93.878906 L 83.742188 94.5 C 85.746094 96.570312 87.683594 97.742188 89.546875 98.019531 "/>
<path style=" stroke:none;fill-rule:nonzero;fill:rgb(100%,100%,100%);fill-opacity:1;" d="M 74 98.226562 L 74.105469 98.226562 L 109.34375 103.191406 L 110.691406 104.019531 C 102.746094 108.570312 95.835938 110.675781 89.960938 110.328125 L 87.992188 110.121094 L 88.71875 110.121094 C 92.105469 110.191406 95.699219 109.5 99.496094 108.054688 L 108.410156 103.707031 L 75.347656 99.050781 C 77.144531 102.914062 79.21875 105.777344 81.566406 107.640625 C 78.527344 105.570312 76.039062 102.464844 74.105469 98.328125 L 74 98.226562 "/>
<path style=" stroke:none;fill-rule:nonzero;fill:rgb(100%,100%,100%);fill-opacity:1;" d="M 35.964844 51.980469 C 35.964844 52.878906 35.652344 53.636719 35.03125 54.257812 C 34.410156 54.878906 33.648438 55.1875 32.75 55.1875 C 31.851562 55.1875 31.09375 54.878906 30.472656 54.257812 L 29.539062 51.980469 L 30.472656 49.707031 C 31.09375 49.085938 31.851562 48.773438 32.75 48.773438 L 35.03125 49.707031 C 35.652344 50.328125 35.964844 51.085938 35.964844 51.980469 "/>
</g>
</svg>
