<?xml version="1.0" encoding="UTF-8"?>
<svg xmlns="http://www.w3.org/2000/svg" xmlns:xlink="http://www.w3.org/1999/xlink" width="128pt" height="72pt" viewBox="0 0 128 72" version="1.1">
<g id="surface1">
<path style=" stroke:none;fill-rule:nonzero;fill:rgb(100%,100%,100%);fill-opacity:1;" d="M 109.578125 0 L 114.066406 0.390625 C 117.320312 1.433594 119.597656 3.914062 120.898438 7.824219 C 121.679688 10.042969 121.808594 13.433594 121.289062 18 L 121.09375 25.628906 L 123.042969 27.195312 L 126.167969 29.738281 C 127.339844 32.21875 127.46875 35.085938 126.558594 38.347656 L 121.679688 34.238281 C 120.117188 32.023438 119.140625 29.28125 118.75 26.023438 L 118.945312 17.804688 C 119.464844 13.5 119.402344 10.433594 118.75 8.609375 C 117.449219 5.476562 114.910156 3.457031 111.136719 2.542969 C 113.480469 6.71875 114.585938 10.695312 114.457031 14.476562 L 111.917969 25.628906 C 110.355469 29.933594 109.835938 32.675781 110.355469 33.847656 C 111.398438 36.195312 113.9375 40.175781 117.96875 45.78125 L 117.96875 67.5 L 116.796875 72 L 108.210938 72 L 110.355469 67.5 L 110.355469 52.042969 L 100.011719 43.628906 L 97.476562 46.175781 L 97.863281 47.933594 C 97.863281 50.152344 97.28125 51.261719 96.109375 51.261719 C 95.066406 51.261719 94.546875 50.152344 94.546875 47.933594 L 94.15625 47.933594 C 94.15625 50.152344 93.636719 51.261719 92.59375 51.261719 C 91.425781 51.261719 90.839844 50.152344 90.839844 47.933594 L 90.253906 47.933594 C 90.253906 50.152344 89.730469 51.261719 88.691406 51.261719 C 87.519531 51.261719 86.933594 50.152344 86.933594 47.933594 L 87.324219 46.175781 C 84.851562 44.738281 83.421875 42.585938 83.03125 39.71875 L 62.925781 39.71875 L 56.484375 47.542969 L 54.144531 67.5 L 52.582031 72 L 44.773438 72 L 48.09375 67.5 L 47.703125 50.476562 L 43.015625 42.847656 L 29.550781 42.652344 L 28.378906 45.390625 L 24.085938 50.871094 L 14.128906 57.71875 L 10.226562 54.976562 L 12.761719 42.847656 L 11.398438 38.542969 L 13.152344 35.609375 L 11.789062 33.652344 L 5.738281 35.804688 L 0.0742188 38.152344 L 5.542969 32.476562 C 9.574219 29.085938 12.046875 27.914062 12.957031 28.957031 L 15.496094 31.5 L 16.082031 24.457031 L 18.8125 26.609375 L 21.351562 30.324219 L 34.429688 15.261719 L 48.484375 0 L 109.578125 0 "/>
</g>
</svg>
