<?xml version="1.0" encoding="UTF-8"?>
<svg xmlns="http://www.w3.org/2000/svg" xmlns:xlink="http://www.w3.org/1999/xlink" width="128pt" height="110pt" viewBox="0 0 128 110" version="1.1">
<g id="surface1">
<path style=" stroke:none;fill-rule:nonzero;fill:rgb(100%,100%,100%);fill-opacity:1;" d="M 91.4375 2.8125 C 99.09375 1.960938 105.644531 3.496094 111.089844 7.417969 C 117.386719 12.023438 121.382812 19.1875 123.085938 28.90625 C 126.316406 47.15625 118.574219 63.867188 99.859375 79.046875 L 77.910156 94.90625 C 70.421875 100.707031 65.828125 105.738281 64.128906 110 C 61.914062 105.738281 56.894531 100.789062 49.070312 95.164062 L 27.375 79.046875 C 9.167969 64.039062 1.683594 47.324219 4.914062 28.90625 C 8.316406 9.636719 18.613281 0.9375 35.796875 2.8125 C 42.601562 3.496094 48.730469 6.054688 54.171875 10.488281 C 59.789062 15.261719 63.105469 20.804688 64.128906 27.117188 C 64.46875 20.976562 67.359375 15.519531 72.804688 10.746094 C 78.25 6.308594 84.460938 3.667969 91.4375 2.8125 "/>
</g>
</svg>
