<?xml version="1.0" encoding="UTF-8"?>
<svg xmlns="http://www.w3.org/2000/svg" xmlns:xlink="http://www.w3.org/1999/xlink" width="128pt" height="171pt" viewBox="0 0 128 171" version="1.1">
<g id="surface1">
<path style=" stroke:none;fill-rule:nonzero;fill:rgb(9.803922%,9.803922%,9.803922%);fill-opacity:1;" d="M 104.808594 126.046875 C 116.554688 131.300781 122.429688 137.324219 122.429688 144.121094 C 122.429688 151.84375 116.554688 158.179688 104.808594 163.121094 C 92.75 168.375 78.375 171 61.679688 171 C 44.679688 171 30.921875 168.375 20.410156 163.121094 C 8.972656 158.179688 3.253906 151.84375 3.253906 144.121094 C 3.253906 137.324219 8.972656 131.300781 20.410156 126.046875 C 30.921875 121.105469 44.679688 118.632812 61.679688 118.632812 C 78.375 118.632812 92.75 121.105469 104.808594 126.046875 "/>
<path style=" stroke:none;fill-rule:nonzero;fill:rgb(100%,100%,100%);fill-opacity:1;" d="M 39.421875 28.730469 C 36.332031 25.332031 32.3125 23.632812 27.367188 23.632812 C 22.417969 23.632812 18.246094 25.332031 14.847656 28.730469 C 11.445312 32.128906 9.746094 36.144531 9.746094 40.78125 C 9.746094 45.722656 11.445312 49.894531 14.847656 53.292969 C 18.246094 56.691406 22.417969 58.390625 27.367188 58.390625 C 32.3125 58.390625 36.332031 56.691406 39.421875 53.292969 C 42.824219 49.894531 44.523438 45.722656 44.523438 40.78125 C 44.523438 36.144531 42.824219 32.128906 39.421875 28.730469 M 8.355469 0 L 54.261719 26.878906 C 53.953125 37.382812 51.324219 46.339844 46.378906 53.757812 C 41.125 62.097656 34.785156 66.269531 27.367188 66.269531 C 19.636719 66.269531 13.144531 62.097656 7.890625 53.757812 C 2.632812 45.722656 0.0078125 35.835938 0.0078125 24.097656 C 0.0078125 16.066406 1.242188 8.804688 3.714844 2.316406 L 8.355469 0 "/>
<path style=" stroke:none;fill-rule:nonzero;fill:rgb(9.803922%,9.803922%,9.803922%);fill-opacity:1;" d="M 39.421875 28.730469 C 42.824219 32.128906 44.523438 36.144531 44.523438 40.78125 C 44.523438 45.722656 42.824219 49.894531 39.421875 53.292969 C 36.332031 56.691406 32.3125 58.390625 27.367188 58.390625 C 22.417969 58.390625 18.246094 56.691406 14.847656 53.292969 C 11.445312 49.894531 9.746094 45.722656 9.746094 40.78125 C 9.746094 36.144531 11.445312 32.128906 14.847656 28.730469 C 18.246094 25.332031 22.417969 23.632812 27.367188 23.632812 C 32.3125 23.632812 36.332031 25.332031 39.421875 28.730469 "/>
<path style=" stroke:none;fill-rule:nonzero;fill:rgb(100%,100%,100%);fill-opacity:1;" d="M 124.285156 4.171875 C 126.757812 10.660156 127.992188 17.917969 127.992188 25.953125 C 127.992188 37.691406 125.367188 47.578125 120.109375 55.609375 C 114.855469 63.953125 108.363281 68.121094 100.632812 68.121094 C 93.214844 68.121094 86.875 63.953125 81.621094 55.609375 C 76.675781 48.195312 74.046875 39.234375 73.738281 28.730469 L 119.644531 1.855469 L 124.285156 4.171875 M 83.476562 42.632812 C 83.476562 47.578125 85.175781 51.746094 88.578125 55.144531 C 91.667969 58.542969 95.6875 60.242188 100.632812 60.242188 C 105.582031 60.242188 109.753906 58.542969 113.152344 55.144531 C 116.554688 51.746094 118.253906 47.578125 118.253906 42.632812 C 118.253906 38 116.554688 33.984375 113.152344 30.585938 C 109.753906 27.1875 105.582031 25.488281 100.632812 25.488281 C 95.6875 25.488281 91.667969 27.1875 88.578125 30.585938 C 85.175781 33.984375 83.476562 38 83.476562 42.632812 "/>
<path style=" stroke:none;fill-rule:nonzero;fill:rgb(9.803922%,9.803922%,9.803922%);fill-opacity:1;" d="M 83.476562 42.632812 C 83.476562 38 85.175781 33.984375 88.578125 30.585938 C 91.667969 27.1875 95.6875 25.488281 100.632812 25.488281 C 105.582031 25.488281 109.753906 27.1875 113.152344 30.585938 C 116.554688 33.984375 118.253906 38 118.253906 42.632812 C 118.253906 47.578125 116.554688 51.746094 113.152344 55.144531 C 109.753906 58.542969 105.582031 60.242188 100.632812 60.242188 C 95.6875 60.242188 91.667969 58.542969 88.578125 55.144531 C 85.175781 51.746094 83.476562 47.578125 83.476562 42.632812 "/>
</g>
</svg>
