<?xml version="1.0" encoding="UTF-8"?>
<svg xmlns="http://www.w3.org/2000/svg" xmlns:xlink="http://www.w3.org/1999/xlink" width="128pt" height="200pt" viewBox="0 0 128 200" version="1.1">
<g id="surface1">
<path style=" stroke:none;fill-rule:nonzero;fill:rgb(40%,40%,40%);fill-opacity:1;" d="M 91.847656 0.0546875 L 99.34375 0.0546875 L 99.34375 17.214844 L 128 17.214844 L 128 28.359375 L 99.34375 28.359375 L 99.34375 152.136719 L 128 152.136719 L 128 163.28125 L 99.34375 163.28125 L 99.34375 192.464844 L 94.199219 192.464844 L 94.199219 141.28125 L 91.996094 139.960938 C 90.625 144.363281 89.792969 149.835938 89.496094 156.386719 L 89.351562 173.984375 L 87.441406 192.464844 L 19.25 192.464844 C 19.25 189.140625 19.496094 187.039062 19.984375 186.160156 L 19.984375 181.027344 L 17.636719 179.558594 C 15.96875 181.613281 14.941406 184.152344 14.546875 187.183594 L 14.253906 192.464844 L 8.671875 192.464844 L 8.671875 0.0546875 L 88.175781 0.0546875 L 88.027344 1.230469 C 88.027344 2.011719 88.417969 2.890625 89.203125 3.871094 L 89.496094 3.871094 C 89.59375 5.921875 89.988281 7.242188 90.671875 7.828125 L 91.847656 7.390625 L 91.847656 0.0546875 M 3.675781 1.230469 L 3.675781 159.027344 C 3.378906 147.492188 2.398438 146.171875 0.734375 155.066406 L 0 159.320312 L 0 1.230469 L 3.675781 1.230469 M 84.5 196.71875 L 84.207031 196.277344 L 83.472656 195.691406 L 99.34375 195.691406 L 99.34375 199.945312 L 87.292969 199.945312 L 87 197.15625 L 84.5 196.71875 M 76.417969 199.796875 L 76.417969 199.945312 L 8.671875 199.945312 L 8.671875 195.691406 L 80.386719 195.691406 C 79.015625 196.570312 77.691406 197.941406 76.417969 199.796875 M 3.675781 169.734375 L 3.675781 199.945312 L 0 199.945312 L 0 172.667969 L 1.175781 172.960938 C 2.839844 172.960938 3.625 172.617188 3.527344 171.933594 L 3.675781 169.734375 "/>
</g>
</svg>
