<?xml version="1.0" encoding="UTF-8"?>
<svg xmlns="http://www.w3.org/2000/svg" xmlns:xlink="http://www.w3.org/1999/xlink" width="128pt" height="144pt" viewBox="0 0 128 144" version="1.1">
<g id="surface1">
<path style=" stroke:none;fill-rule:nonzero;fill:rgb(0%,0%,0%);fill-opacity:1;" d="M 84.621094 44.796875 L 82.859375 45.707031 L 78.726562 46.925781 L 64.648438 48.144531 L 63.886719 48.371094 C 65.007812 49.4375 65.925781 50.78125 66.640625 52.40625 C 67.25 53.722656 67.582031 55.070312 67.632812 56.4375 C 67.734375 58.164062 67.300781 59.40625 66.332031 60.167969 C 65.464844 60.929688 64.445312 61.332031 63.273438 61.382812 L 59.90625 61.234375 C 56.082031 61.132812 52.917969 61.917969 50.417969 63.589844 C 49.449219 64.25 48.710938 65.238281 48.199219 66.558594 C 47.792969 67.675781 47.589844 68.917969 47.589844 70.289062 C 47.589844 72.367188 47.972656 74.550781 48.738281 76.832031 L 50.191406 80.636719 L 50.957031 82.464844 L 51.71875 83.984375 L 55.46875 85.734375 L 55.699219 85.886719 C 57.074219 86.648438 58.171875 87.484375 58.988281 88.398438 L 59.292969 89.386719 C 59.398438 89.945312 59.34375 90.148438 59.140625 89.996094 L 57.230469 88.398438 L 54.628906 86.953125 C 53.25 86.496094 52.382812 86.089844 52.027344 85.734375 L 51.949219 85.660156 L 51.414062 85.429688 C 48.761719 84.519531 45.929688 83.933594 42.921875 83.679688 C 43.328125 85.660156 43.101562 87.636719 42.234375 89.617188 C 41.46875 91.492188 40.269531 93.140625 38.636719 94.5625 C 41.953125 97.65625 46.007812 99.839844 50.800781 101.105469 C 56.871094 102.679688 61.511719 101.664062 64.726562 98.0625 C 66.972656 95.476562 68.476562 92.050781 69.242188 87.789062 C 69.597656 86.015625 69.851562 83.351562 70.007812 79.800781 L 69.929688 79.648438 L 70.007812 79.34375 L 70.082031 76.984375 L 70.160156 77.289062 L 70.3125 75.539062 L 70.617188 74.777344 L 70.769531 75.539062 L 70.769531 75.613281 C 71.28125 78.660156 72.8125 81.90625 75.363281 85.355469 L 82.476562 93.648438 C 84.3125 95.78125 85.589844 98.46875 86.300781 101.714844 L 86.683594 103.847656 C 86.941406 104.707031 87.273438 105.292969 87.679688 105.597656 C 88.597656 106.253906 90.128906 106.433594 92.269531 106.128906 L 96.9375 105.0625 C 101.476562 103.59375 105.480469 101.359375 108.949219 98.367188 C 112.773438 94.96875 115.273438 91.1875 116.445312 87.027344 C 117.722656 82.464844 117.695312 78.988281 116.371094 76.605469 C 115.503906 75.132812 114 73.558594 111.855469 71.886719 L 106.347656 68.308594 C 103.339844 66.535156 99.792969 64.886719 95.714844 63.363281 L 84.621094 59.632812 C 80.691406 58.316406 77.859375 57.199219 76.125 56.285156 L 73.984375 54.992188 L 73.371094 53.546875 L 73.066406 53.242188 C 72.554688 52.582031 72.277344 51.871094 72.226562 51.113281 C 72.226562 50.707031 72.351562 50.730469 72.605469 51.1875 L 72.988281 52.101562 L 72.914062 51.566406 L 73.144531 51.949219 L 73.90625 52.558594 L 75.898438 53.773438 L 81.253906 56.285156 L 87.984375 59.027344 L 88.140625 58.492188 C 90.484375 58.1875 92.371094 57.476562 93.800781 56.363281 L 94.257812 57.125 C 94.464844 57.679688 94.464844 58.035156 94.257812 58.1875 C 93.1875 59 91.9375 59.582031 90.511719 59.9375 L 94.183594 61.234375 L 96.707031 62.144531 L 97.550781 62.070312 L 97.550781 62.449219 L 98.851562 62.832031 L 100.992188 63.667969 C 101.605469 60.472656 101.78125 57.832031 101.527344 55.753906 C 101.222656 52.761719 100.046875 50.453125 98.007812 48.828125 C 95.304688 46.648438 91.632812 45.355469 86.992188 44.949219 L 84.621094 44.796875 M 17.597656 37.109375 C 16.832031 36.347656 16.167969 35.511719 15.609375 34.597656 L 13.464844 31.328125 L 13.007812 30.792969 C 12.242188 29.933594 11.398438 29.273438 10.480469 28.816406 L 5.507812 26.457031 C 3.621094 25.390625 2.398438 24.121094 1.835938 22.652344 C 0.613281 19.507812 3.597656 18.035156 10.789062 18.238281 L 22.339844 19.53125 L 23.410156 18.769531 L 24.023438 15.878906 L 25.171875 12.152344 L 26.472656 10.019531 L 28.230469 8.042969 L 34.582031 0.28125 L 42.691406 0.0507812 L 48.8125 2.257812 L 54.933594 4.539062 L 58.835938 6.140625 C 60.210938 6.796875 61.234375 7.636719 61.894531 8.648438 C 62.457031 9.511719 62.96875 10.679688 63.425781 12.152344 L 64.421875 15.804688 L 65.875 21.433594 C 68.933594 22.398438 71.867188 23.742188 74.671875 25.46875 C 79.46875 28.359375 82.9375 31.808594 85.078125 35.816406 L 85.539062 36.730469 C 86.914062 39.570312 87.195312 41.699219 86.378906 43.121094 L 91.65625 44.109375 C 96.148438 45.429688 99.179688 47.660156 100.761719 50.808594 C 102.445312 54.15625 102.804688 58.570312 101.832031 64.046875 L 103.363281 64.808594 L 104.894531 65.644531 C 105.300781 65.390625 105.53125 65.390625 105.582031 65.644531 L 105.582031 66.101562 L 106.425781 66.636719 L 109.789062 68.765625 L 114.765625 72.191406 C 116.703125 73.710938 117.925781 75.234375 118.4375 76.757812 L 119.125 79.113281 C 121.316406 82.816406 122.542969 86.574219 122.796875 90.378906 C 123.101562 94.636719 122.109375 98.542969 119.8125 102.097656 L 118.359375 104.300781 C 121.625 107.296875 124.125 110.3125 125.859375 113.359375 C 127.285156 115.894531 127.871094 117.925781 127.617188 119.445312 C 127.464844 120.460938 126.75 121.171875 125.476562 121.578125 L 122.183594 121.804688 C 119.277344 121.347656 116.523438 119.320312 113.921875 115.71875 C 113.921875 117.1875 113.640625 118.632812 113.082031 120.054688 C 116.242188 122.183594 118.613281 124.519531 120.195312 127.054688 C 121.574219 129.238281 122.183594 131.140625 122.03125 132.761719 L 121.878906 133.066406 L 121.726562 133.144531 C 122.59375 134.714844 122.925781 136.441406 122.722656 138.316406 C 122.566406 139.941406 121.625 141.183594 119.890625 142.046875 C 119.023438 142.453125 117.441406 142.882812 115.144531 143.339844 L 113.617188 143.566406 C 113.257812 143.464844 112.953125 143.113281 112.699219 142.503906 L 112.164062 141.363281 C 111.90625 140.957031 111.550781 140.855469 111.089844 141.058594 L 109.332031 142.046875 L 108.109375 143.035156 L 106.730469 143.871094 L 99.921875 143.949219 C 97.421875 143.746094 95.40625 143.367188 93.875 142.808594 C 91.171875 141.84375 90.101562 140.371094 90.664062 138.394531 C 91.019531 137.125 92.246094 136.035156 94.335938 135.121094 L 99.386719 133.601562 L 101.757812 132.992188 C 97.828125 131.925781 94.03125 130.351562 90.359375 128.273438 C 87.910156 126.953125 86.023438 125.738281 84.695312 124.621094 C 83.269531 123.402344 82.195312 122.160156 81.480469 120.890625 C 79.085938 120.839844 76.96875 120.382812 75.132812 119.523438 C 72.070312 118.101562 70.285156 115.566406 69.777344 111.914062 C 69.417969 109.273438 70.03125 106.535156 71.613281 103.695312 C 72.785156 101.613281 74.316406 99.761719 76.203125 98.140625 L 73.832031 96.390625 L 73.144531 96.007812 L 72.835938 95.703125 L 72.453125 95.171875 L 69.394531 92.050781 C 68.476562 95.550781 66.945312 98.292969 64.804688 100.269531 C 61.285156 103.515625 56.589844 104.328125 50.726562 102.703125 C 45.625 101.335938 41.316406 98.824219 37.796875 95.171875 L 32.515625 95.324219 C 30.476562 94.917969 28.921875 94.082031 27.847656 92.8125 C 27.1875 92.050781 26.703125 90.960938 26.394531 89.539062 L 26.394531 87.789062 L 25.476562 86.953125 C 24.917969 86.191406 24.558594 85.277344 24.40625 84.214844 C 24.253906 83.402344 24.433594 82.792969 24.941406 82.386719 L 25.9375 81.929688 L 26.394531 81.777344 L 25.628906 80.179688 C 25.121094 78.910156 25.300781 77.949219 26.167969 77.289062 C 27.289062 76.375 29.328125 76.351562 32.285156 77.210938 L 33.050781 77.441406 C 32.847656 76.679688 32.898438 76.070312 33.203125 75.613281 L 33.203125 75.539062 L 37.949219 75.003906 C 39.785156 74.703125 41.160156 75.183594 42.082031 76.453125 C 42.894531 77.464844 43.378906 78.632812 43.535156 79.953125 L 43.378906 82.007812 L 50.726562 83.605469 L 50.417969 82.996094 L 49.347656 80.027344 L 47.511719 74.398438 C 46.796875 71.402344 46.621094 68.867188 46.976562 66.789062 C 41.214844 67.648438 35.882812 66.230469 30.984375 62.527344 C 26.191406 58.925781 23.027344 54.15625 21.5 48.21875 L 20.808594 44.871094 L 17.671875 42.589844 C 16.09375 40.964844 15.53125 39.417969 15.992188 37.945312 L 15.992188 37.792969 L 16.832031 37.414062 L 16.832031 37.109375 L 17.367188 37.109375 L 18.132812 37.566406 L 17.597656 37.109375 M 84.621094 42.4375 C 85.792969 41.421875 86.148438 40.152344 85.691406 38.632812 C 84.671875 34.777344 81.175781 30.996094 75.207031 27.292969 C 69.75 23.945312 64.113281 21.96875 58.300781 21.359375 L 47.894531 20.902344 L 37.488281 21.359375 C 32.339844 21.714844 27.847656 21.6875 24.023438 21.28125 L 23.949219 21.28125 L 21.882812 20.976562 L 13.542969 19.835938 L 5.203125 20.367188 L 2.832031 21.816406 C 2.523438 22.269531 2.550781 22.753906 2.90625 23.261719 L 4.207031 24.25 L 7.191406 25.847656 L 10.328125 27.371094 C 11.859375 28.179688 13.515625 29.90625 15.300781 32.542969 C 16.984375 35.132812 18.566406 36.882812 20.046875 37.792969 L 20.429688 35.4375 L 18.972656 32.925781 C 18.261719 31.402344 18.082031 30.160156 18.4375 29.195312 C 18.847656 28.128906 19.816406 27.269531 21.347656 26.609375 L 25.25 25.46875 L 39.859375 24.023438 C 45.320312 24.222656 50.089844 25.1875 54.167969 26.914062 C 56.921875 28.128906 59.320312 29.550781 61.359375 31.175781 C 63.808594 33.101562 65.59375 35.234375 66.714844 37.566406 C 67.632812 39.34375 67.964844 40.6875 67.710938 41.601562 C 67.507812 42.613281 66.765625 43.324219 65.492188 43.730469 L 62.8125 44.109375 L 63.351562 45.40625 L 63.65625 46.46875 L 71.765625 46.242188 C 75.183594 45.9375 78.191406 45.378906 80.792969 44.566406 C 82.527344 43.957031 83.804688 43.25 84.621094 42.4375 M 82.09375 60.625 L 82.554688 60.546875 C 85.867188 62.222656 88.367188 63.921875 90.050781 65.644531 C 90.816406 66.40625 91.097656 67.140625 90.894531 67.851562 C 90.6875 68.511719 90.027344 68.917969 88.902344 69.070312 L 83.929688 68.539062 L 79.417969 66.941406 L 72.378906 64.277344 L 73.21875 63.742188 C 78.523438 66.078125 83.011719 67.625 86.683594 68.386719 L 90.050781 68.460938 C 90.714844 67.75 90.128906 66.660156 88.292969 65.1875 C 86.863281 63.871094 84.671875 62.449219 81.710938 60.929688 L 82.09375 60.625 M 120.425781 83.222656 L 119.429688 81.246094 C 119.839844 86.875 117.3125 92.382812 111.855469 97.757812 C 108.949219 100.597656 105.582031 102.882812 101.757812 104.605469 C 97.933594 106.332031 94.285156 107.21875 90.816406 107.269531 L 87.375 106.964844 C 86.351562 106.710938 85.640625 106.078125 85.230469 105.0625 L 84.160156 106.738281 C 82.578125 109.425781 81.558594 111.761719 81.101562 113.738281 C 80.640625 115.820312 80.742188 117.621094 81.40625 119.140625 L 81.863281 119.976562 L 81.863281 120.054688 L 82.476562 120.738281 C 85.027344 123.632812 88.496094 126.117188 92.882812 128.195312 C 96.65625 129.972656 100.738281 131.265625 105.125 132.078125 L 105.507812 132.535156 C 109.789062 133.699219 114.484375 133.5 119.582031 131.925781 L 121.191406 131.394531 L 121.265625 131.394531 L 121.191406 130.707031 C 120.679688 128.832031 119.304688 126.851562 117.058594 124.773438 C 113.949219 121.929688 109.5625 119.242188 103.898438 116.707031 L 98.542969 118.988281 C 98.339844 119.089844 98.160156 118.835938 98.007812 118.226562 C 97.855469 117.671875 97.855469 117.339844 98.007812 117.238281 C 99.640625 116.679688 101.324219 115.945312 103.058594 115.03125 L 103.210938 114.804688 L 103.363281 114.878906 C 105.710938 113.5625 108.082031 111.914062 110.480469 109.933594 C 115.632812 105.671875 119.097656 101.488281 120.882812 97.378906 C 122.824219 92.863281 122.667969 88.144531 120.425781 83.222656 M 79.722656 94.410156 L 78.5 92.660156 L 77.582031 91.519531 L 76.664062 90.832031 C 76.457031 91.441406 76.636719 92.203125 77.199219 93.117188 L 78.726562 95.171875 L 78.957031 95.09375 L 79.722656 94.410156 M 62.8125 48.980469 L 62.585938 50.046875 C 63.503906 51.515625 63.9375 53.167969 63.886719 54.992188 C 63.835938 56.515625 63.453125 58.085938 62.738281 59.710938 L 62.96875 59.710938 C 64.34375 59.609375 65.363281 59.128906 66.027344 58.265625 C 67.148438 56.792969 67.226562 55.042969 66.257812 53.015625 C 65.492188 51.390625 64.34375 50.046875 62.8125 48.980469 M 54.09375 42.285156 C 54.296875 41.726562 54.347656 40.8125 54.246094 39.546875 L 53.9375 37.644531 L 55.316406 39.164062 C 56.183594 40.433594 56.539062 41.523438 56.386719 42.4375 C 56.285156 43.351562 56.003906 44.109375 55.546875 44.71875 C 55.085938 45.226562 54.703125 45.378906 54.398438 45.175781 L 54.015625 44.109375 L 54.09375 42.285156 M 51.71875 35.359375 C 52.332031 36.222656 52.5625 36.957031 52.410156 37.566406 C 52.410156 38.175781 52.230469 38.683594 51.875 39.089844 C 51.566406 39.445312 51.3125 39.546875 51.109375 39.394531 L 50.957031 37.492188 C 51.058594 37.085938 51.082031 36.476562 51.03125 35.664062 L 50.800781 34.371094 L 51.71875 35.359375 M 57.457031 35.359375 C 57.664062 35.664062 57.636719 35.890625 57.382812 36.042969 L 56.769531 35.890625 L 55.851562 35.4375 L 55.164062 35.285156 L 54.78125 34.828125 L 55.238281 34.371094 L 56.386719 34.597656 L 57.457031 35.359375 M 66.488281 38.328125 L 66.332031 39.242188 L 65.644531 40.761719 L 64.957031 42.054688 C 66.382812 41.550781 67.046875 40.761719 66.945312 39.699219 L 66.488281 38.328125 M 43.152344 59.710938 L 41.699219 59.710938 L 41.316406 59.632812 L 41.542969 59.253906 L 42.234375 58.796875 L 43.6875 57.882812 L 44.222656 57.425781 L 44.835938 57.277344 L 45.371094 57.503906 L 45.445312 58.035156 L 45.140625 58.644531 C 44.527344 59.304688 43.867188 59.660156 43.152344 59.710938 M 20.351562 39.242188 L 19.433594 38.707031 L 18.210938 38.480469 L 17.519531 38.554688 C 17.214844 38.757812 17.136719 39.164062 17.292969 39.773438 C 17.394531 40.382812 17.726562 41.015625 18.285156 41.675781 L 20.582031 43.425781 L 20.351562 39.242188 M 26.929688 41.675781 L 28.15625 41.902344 C 28.613281 42.257812 28.996094 42.765625 29.304688 43.425781 C 29.660156 44.035156 29.8125 44.644531 29.761719 45.253906 C 29.761719 45.808594 29.582031 46.164062 29.226562 46.316406 C 28.921875 46.519531 28.511719 46.445312 28.003906 46.089844 L 26.855469 44.644531 C 26.496094 43.984375 26.34375 43.375 26.394531 42.816406 C 26.394531 42.257812 26.574219 41.878906 26.929688 41.675781 M 29.148438 36.273438 L 29.53125 36.5 L 29.148438 36.730469 L 26.089844 37.339844 L 25.476562 37.1875 L 25.09375 36.578125 L 25.019531 35.816406 L 25.25 35.285156 L 25.859375 35.207031 L 29.148438 36.273438 M 39.171875 51.796875 C 39.582031 51.59375 40.039062 51.695312 40.550781 52.101562 L 41.925781 53.851562 L 42.539062 56.058594 C 42.539062 56.71875 42.359375 57.148438 42.003906 57.351562 C 41.59375 57.554688 41.136719 57.453125 40.625 57.046875 L 39.171875 55.222656 L 38.636719 53.089844 C 38.636719 52.429688 38.816406 52 39.171875 51.796875 M 34.046875 39.925781 L 33.96875 38.785156 L 34.277344 37.871094 C 34.53125 37.820312 34.710938 38.023438 34.8125 38.480469 L 35.042969 39.773438 L 35.347656 42.664062 L 35.347656 46.089844 L 35.5 46.699219 L 36.035156 47.15625 L 38.179688 48.144531 L 38.484375 48.523438 L 38.253906 48.980469 C 37.796875 49.691406 37.234375 49.894531 36.570312 49.589844 L 33.816406 48.21875 L 33.433594 47.761719 L 33.28125 47.078125 C 33.792969 44.796875 34.046875 43.171875 34.046875 42.207031 L 34.046875 39.925781 M 41.160156 34.066406 L 42.386719 34.292969 C 42.84375 34.597656 43.226562 35.082031 43.535156 35.742188 C 43.890625 36.398438 44.042969 37.007812 43.992188 37.566406 C 43.992188 38.125 43.8125 38.480469 43.457031 38.632812 L 42.234375 38.480469 L 41.007812 36.957031 L 40.625 35.132812 C 40.625 34.574219 40.804688 34.21875 41.160156 34.066406 M 38.40625 29.273438 L 38.5625 28.207031 L 38.941406 27.371094 L 39.25 26.914062 L 39.859375 26.914062 L 41.851562 28.128906 C 43.125 29.042969 43.761719 29.832031 43.761719 30.488281 L 42.539062 30.261719 L 40.703125 29.652344 L 39.171875 29.425781 L 38.40625 29.273438 M 24.175781 27.597656 L 23.027344 27.980469 C 20.070312 29.144531 18.847656 30.464844 19.355469 31.933594 L 20.503906 34.140625 L 21.421875 36.347656 L 21.421875 36.652344 C 21.882812 36.144531 22.238281 35.488281 22.492188 34.675781 L 22.953125 31.707031 C 23.257812 29.78125 23.566406 28.5625 23.871094 28.054688 L 24.175781 27.597656 M 53.328125 32.316406 L 53.710938 31.859375 L 55.929688 32.164062 L 57.382812 32.773438 L 58.222656 33.535156 L 57.382812 33.609375 L 55.699219 33 L 54.015625 32.847656 L 53.9375 32.847656 C 53.53125 32.796875 53.328125 32.621094 53.328125 32.316406 M 52.179688 28.511719 L 52.332031 28.433594 L 54.703125 28.585938 L 49.042969 26.761719 L 34.886719 26 L 30.449219 26.378906 L 29.6875 26.914062 L 28.230469 27.371094 L 25.476562 27.828125 L 24.867188 28.433594 L 24.101562 31.859375 L 23.640625 34.902344 C 23.132812 36.222656 22.492188 37.1875 21.730469 37.792969 C 21.625 41.699219 22.109375 45.304688 23.183594 48.601562 C 24.96875 53.773438 28.078125 58.011719 32.515625 61.308594 C 37.15625 64.757812 42.082031 66.203125 47.28125 65.644531 C 47.589844 64.582031 48.074219 63.667969 48.738281 62.90625 C 49.808594 61.585938 51.441406 60.625 53.632812 60.015625 L 59.371094 59.480469 L 60.902344 59.558594 C 62.226562 56.972656 62.507812 54.765625 61.742188 52.9375 C 60.976562 54.5625 60.136719 55.625 59.21875 56.132812 L 58.683594 56.210938 L 58.757812 55.523438 C 60.59375 52.023438 61.511719 47.890625 61.511719 43.121094 L 61.4375 42.894531 L 61.589844 42.359375 L 62.277344 42.4375 C 64.0625 41.371094 64.804688 39.746094 64.496094 37.566406 C 64.242188 35.285156 62.941406 33.988281 60.59375 33.6875 L 60.136719 33.304688 L 61.589844 33 L 61.207031 32.390625 L 60.75 32.085938 L 58.835938 31.175781 L 55.316406 29.804688 L 52.867188 29.5 L 52.027344 29.042969 L 52.179688 28.511719 M 50.574219 6.367188 L 50.878906 6.824219 L 50.878906 7.203125 L 43.226562 5.757812 C 40.78125 5.503906 39.582031 5.835938 39.632812 6.746094 C 39.632812 7.203125 40.449219 7.890625 42.082031 8.800781 C 45.242188 10.78125 49.5 12.734375 54.855469 14.660156 L 55.164062 15.574219 C 52.96875 14.761719 50.675781 13.800781 48.277344 12.683594 L 43.839844 10.78125 C 42.15625 9.867188 40.882812 8.902344 40.015625 7.890625 C 39.351562 7.027344 39.148438 6.292969 39.402344 5.683594 C 39.757812 5.125 40.5 4.84375 41.621094 4.84375 C 44.070312 4.792969 47.054688 5.300781 50.574219 6.367188 M 62.660156 11.617188 C 61.996094 9.84375 61.003906 8.625 59.675781 7.964844 L 55.085938 6.0625 L 50.265625 4.390625 L 45.523438 2.410156 L 40.398438 0.964844 L 36.113281 1.34375 L 34.277344 3.246094 L 32.746094 5.378906 L 28.230469 10.476562 C 27.007812 11.847656 26.0625 13.496094 25.402344 15.421875 L 24.40625 19.761719 C 26.703125 20.066406 29.457031 20.117188 32.667969 19.914062 L 41.316406 19.378906 L 51.03125 19.152344 L 60.75 20.140625 L 65.109375 21.207031 L 63.808594 16.335938 L 62.660156 11.617188 M 126.699219 118.761719 C 127.160156 118 127.003906 116.859375 126.242188 115.335938 L 124.175781 112.140625 C 122.390625 109.757812 120.222656 107.449219 117.671875 105.214844 C 115.632812 107.753906 113.257812 110.113281 110.554688 112.292969 L 105.507812 115.792969 L 112.085938 119.371094 L 112.164062 119.21875 C 113.234375 116.882812 113.515625 114.753906 113.003906 112.824219 C 112.851562 112.316406 112.851562 112.039062 113.003906 111.988281 L 113.539062 112.671875 L 113.847656 114.195312 C 116.191406 117.441406 118.539062 119.34375 120.882812 119.902344 L 123.945312 120.054688 C 125.320312 119.902344 126.242188 119.472656 126.699219 118.761719 M 91.65625 139.992188 C 92.21875 140.5 92.882812 140.855469 93.648438 141.058594 C 95.585938 141.765625 97.957031 142.148438 100.761719 142.199219 L 103.746094 142.199219 L 105.046875 142.273438 L 106.269531 142.121094 L 107.953125 140.828125 L 110.019531 139.535156 C 111.039062 138.976562 111.730469 138.976562 112.085938 139.535156 L 112.773438 140.980469 C 113.082031 141.589844 113.464844 141.84375 113.921875 141.742188 L 118.820312 140.523438 C 120.296875 139.964844 121.265625 139.027344 121.726562 137.707031 C 122.234375 136.390625 122.058594 135.046875 121.191406 133.675781 L 121.113281 133.371094 C 118.5625 134.335938 115.910156 134.867188 113.15625 134.96875 C 110.199219 135.171875 107.417969 134.867188 104.816406 134.054688 L 99.460938 135.425781 C 97.117188 136.085938 95.203125 136.820312 93.722656 137.632812 C 91.785156 138.699219 91.097656 139.484375 91.65625 139.992188 M 84.695312 103.085938 L 84.390625 102.171875 C 82.042969 101.410156 79.824219 100.394531 77.734375 99.128906 C 75.796875 100.597656 74.136719 102.324219 72.761719 104.300781 C 71.230469 106.585938 70.441406 108.792969 70.386719 110.921875 C 70.335938 113.664062 71.511719 115.769531 73.90625 117.238281 C 75.746094 118.40625 78.015625 119.039062 80.71875 119.140625 C 79.492188 115.082031 80.234375 110.644531 82.9375 105.824219 L 84.695312 103.085938 M 79.953125 93.574219 L 79.417969 93.117188 L 79.953125 93.800781 L 80.410156 94.488281 L 80.488281 94.636719 L 80.871094 94.488281 L 79.953125 93.574219 M 83.320312 98.746094 L 81.710938 95.550781 L 76.890625 97.074219 L 77.273438 97.300781 L 77.503906 97.453125 C 79.492188 98.671875 81.609375 99.660156 83.855469 100.421875 L 83.320312 98.746094 M 15.609375 38.023438 L 15.835938 38.023438 L 15.453125 38.25 L 15.609375 38.023438 M 70.695312 81.472656 C 70.542969 85.125 70.285156 87.839844 69.929688 89.617188 L 69.851562 89.996094 C 71.585938 89.589844 73.320312 89.007812 75.054688 88.246094 L 73.066406 85.507812 L 70.695312 81.472656 M 76.890625 90.453125 L 75.820312 89.160156 L 71.382812 90.984375 L 72.070312 91.59375 L 74.824219 94.867188 L 75.207031 95.398438 L 75.363281 96.085938 L 75.746094 96.3125 L 76.050781 96.007812 L 75.746094 95.855469 L 75.589844 95.703125 L 75.4375 95.628906 L 74.367188 94.105469 L 73.449219 92.582031 L 73.066406 91.519531 C 72.914062 90.910156 72.964844 90.605469 73.21875 90.605469 L 74.75 91.367188 L 77.425781 94.636719 L 77.886719 95.246094 L 77.964844 95.398438 L 78.191406 95.324219 L 76.203125 92.28125 L 75.746094 91.214844 C 75.589844 90.707031 75.617188 90.351562 75.820312 90.148438 L 76.585938 90.226562 L 76.890625 90.453125 M 73.984375 91.289062 C 73.78125 91.796875 73.984375 92.535156 74.597656 93.496094 L 76.050781 95.628906 L 76.738281 95.398438 L 77.042969 95.019531 L 75.820312 93.191406 L 74.824219 92.050781 L 73.984375 91.289062 M 72.226562 92.28125 L 71.304688 91.519531 C 71.152344 91.824219 71.203125 92.230469 71.460938 92.734375 L 74.445312 95.398438 L 74.445312 95.246094 L 73.144531 93.34375 L 72.226562 92.28125 M 70.386719 91.289062 L 70.160156 91.367188 L 70.464844 91.746094 L 70.464844 91.671875 L 70.386719 91.289062 M 33.816406 77.667969 L 35.269531 78.050781 L 36.34375 78.355469 L 37.03125 78.277344 L 38.101562 78.582031 L 38.5625 79.417969 C 38.664062 79.875 38.636719 80.179688 38.484375 80.332031 L 37.261719 80.484375 L 35.960938 80.027344 L 33.050781 79.039062 L 30.144531 78.507812 L 27.160156 78.8125 C 26.089844 79.214844 25.9375 79.953125 26.703125 81.015625 C 27.210938 81.574219 27.492188 82.132812 27.542969 82.691406 L 27.160156 83.300781 L 26.394531 83.605469 L 25.09375 84.59375 C 24.839844 85.101562 25.222656 85.632812 26.242188 86.191406 L 27.542969 86.722656 C 27.746094 86.722656 27.925781 87.003906 28.078125 87.5625 C 28.230469 88.121094 28.207031 88.425781 28.003906 88.476562 C 27.339844 88.578125 27.058594 89.03125 27.160156 89.84375 C 27.261719 90.554688 27.542969 91.136719 28.003906 91.59375 C 28.921875 92.457031 30.042969 93.039062 31.367188 93.34375 C 33.816406 93.953125 35.832031 93.953125 37.414062 93.34375 C 39.148438 92.027344 40.472656 90.503906 41.390625 88.777344 C 42.460938 86.699219 42.71875 84.71875 42.15625 82.84375 L 42.082031 82.539062 L 42.082031 82.007812 L 42.15625 81.929688 C 42.972656 80.5625 42.972656 79.265625 42.15625 78.050781 C 41.289062 76.832031 40.066406 76.375 38.484375 76.679688 L 35.578125 77.289062 L 34.503906 77.363281 L 33.894531 77.289062 L 33.816406 77.667969 "/>
<path style=" stroke:none;fill-rule:nonzero;fill:rgb(100%,100%,100%);fill-opacity:1;" d="M 84.621094 44.796875 L 86.992188 44.949219 C 91.632812 45.355469 95.304688 46.648438 98.007812 48.828125 C 100.046875 50.453125 101.222656 52.761719 101.527344 55.753906 C 101.78125 57.832031 101.605469 60.472656 100.992188 63.667969 L 98.851562 62.832031 L 97.550781 62.449219 L 97.550781 62.070312 L 96.707031 62.144531 L 94.183594 61.234375 L 90.511719 59.9375 C 91.9375 59.582031 93.1875 59 94.257812 58.1875 C 94.464844 58.035156 94.464844 57.679688 94.257812 57.125 L 93.800781 56.363281 C 92.371094 57.476562 90.484375 58.1875 88.140625 58.492188 L 87.984375 59.027344 L 81.253906 56.285156 L 75.898438 53.773438 L 73.90625 52.558594 L 73.144531 51.949219 L 72.914062 51.566406 L 72.988281 52.101562 L 72.605469 51.1875 C 72.351562 50.730469 72.226562 50.707031 72.226562 51.113281 C 72.277344 51.871094 72.554688 52.582031 73.066406 53.242188 L 73.371094 53.546875 L 73.984375 54.992188 L 76.125 56.285156 C 77.859375 57.199219 80.691406 58.316406 84.621094 59.632812 L 95.714844 63.363281 C 99.792969 64.886719 103.339844 66.535156 106.347656 68.308594 L 111.855469 71.886719 C 114 73.558594 115.503906 75.132812 116.371094 76.605469 C 117.695312 78.988281 117.722656 82.464844 116.445312 87.027344 C 115.273438 91.1875 112.773438 94.96875 108.949219 98.367188 C 105.480469 101.359375 101.476562 103.59375 96.9375 105.0625 L 92.269531 106.128906 C 90.128906 106.433594 88.597656 106.253906 87.679688 105.597656 C 87.273438 105.292969 86.941406 104.707031 86.683594 103.847656 L 86.300781 101.714844 C 85.589844 98.46875 84.3125 95.78125 82.476562 93.648438 L 75.363281 85.355469 C 72.8125 81.90625 71.28125 78.660156 70.769531 75.613281 L 70.769531 75.539062 L 70.617188 74.777344 L 70.3125 75.539062 L 70.160156 77.289062 L 70.082031 76.984375 L 70.007812 79.34375 L 69.929688 79.648438 L 70.007812 79.800781 C 69.851562 83.351562 69.597656 86.015625 69.242188 87.789062 C 68.476562 92.050781 66.972656 95.476562 64.726562 98.0625 C 61.511719 101.664062 56.871094 102.679688 50.800781 101.105469 C 46.007812 99.839844 41.953125 97.65625 38.636719 94.5625 C 40.269531 93.140625 41.46875 91.492188 42.234375 89.617188 C 43.101562 87.636719 43.328125 85.660156 42.921875 83.679688 C 45.929688 83.933594 48.761719 84.519531 51.414062 85.429688 L 51.949219 85.660156 L 52.027344 85.734375 C 52.382812 86.089844 53.25 86.496094 54.628906 86.953125 L 57.230469 88.398438 L 59.140625 89.996094 C 59.34375 90.148438 59.398438 89.945312 59.292969 89.386719 L 58.988281 88.398438 C 58.171875 87.484375 57.074219 86.648438 55.699219 85.886719 L 55.46875 85.734375 L 51.71875 83.984375 L 50.957031 82.464844 L 50.191406 80.636719 L 48.738281 76.832031 C 47.972656 74.550781 47.589844 72.367188 47.589844 70.289062 C 47.589844 68.917969 47.792969 67.675781 48.199219 66.558594 C 48.710938 65.238281 49.449219 64.25 50.417969 63.589844 C 52.917969 61.917969 56.082031 61.132812 59.90625 61.234375 L 63.273438 61.382812 C 64.445312 61.332031 65.464844 60.929688 66.332031 60.167969 C 67.300781 59.40625 67.734375 58.164062 67.632812 56.4375 C 67.582031 55.070312 67.25 53.722656 66.640625 52.40625 C 65.925781 50.78125 65.007812 49.4375 63.886719 48.371094 L 64.648438 48.144531 L 78.726562 46.925781 L 82.859375 45.707031 L 84.621094 44.796875 M 17.367188 37.109375 L 17.597656 37.109375 L 18.132812 37.566406 L 17.367188 37.109375 M 84.621094 42.4375 C 83.804688 43.25 82.527344 43.957031 80.792969 44.566406 C 78.191406 45.378906 75.183594 45.9375 71.765625 46.242188 L 63.65625 46.46875 L 63.351562 45.40625 L 62.8125 44.109375 L 65.492188 43.730469 C 66.765625 43.324219 67.507812 42.613281 67.710938 41.601562 C 67.964844 40.6875 67.632812 39.34375 66.714844 37.566406 C 65.59375 35.234375 63.808594 33.101562 61.359375 31.175781 C 59.320312 29.550781 56.921875 28.128906 54.167969 26.914062 C 50.089844 25.1875 45.320312 24.222656 39.859375 24.023438 L 25.25 25.46875 L 21.347656 26.609375 C 19.816406 27.269531 18.847656 28.128906 18.4375 29.195312 C 18.082031 30.160156 18.261719 31.402344 18.972656 32.925781 L 20.429688 35.4375 L 20.046875 37.792969 C 18.566406 36.882812 16.984375 35.132812 15.300781 32.542969 C 13.515625 29.90625 11.859375 28.179688 10.328125 27.371094 L 7.191406 25.847656 L 4.207031 24.25 L 2.90625 23.261719 C 2.550781 22.753906 2.523438 22.269531 2.832031 21.816406 L 5.203125 20.367188 L 13.542969 19.835938 L 21.882812 20.976562 L 23.949219 21.28125 L 24.023438 21.28125 C 27.847656 21.6875 32.339844 21.714844 37.488281 21.359375 L 47.894531 20.902344 L 58.300781 21.359375 C 64.113281 21.96875 69.75 23.945312 75.207031 27.292969 C 81.175781 30.996094 84.671875 34.777344 85.691406 38.632812 C 86.148438 40.152344 85.792969 41.421875 84.621094 42.4375 M 82.09375 60.625 L 81.710938 60.929688 C 84.671875 62.449219 86.863281 63.871094 88.292969 65.1875 C 90.128906 66.660156 90.714844 67.75 90.050781 68.460938 L 86.683594 68.386719 C 83.011719 67.625 78.523438 66.078125 73.21875 63.742188 L 72.378906 64.277344 L 79.417969 66.941406 L 83.929688 68.539062 L 88.902344 69.070312 C 90.027344 68.917969 90.6875 68.511719 90.894531 67.851562 C 91.097656 67.140625 90.816406 66.40625 90.050781 65.644531 C 88.367188 63.921875 85.867188 62.222656 82.554688 60.546875 L 82.09375 60.625 M 120.425781 83.222656 C 122.667969 88.144531 122.824219 92.863281 120.882812 97.378906 C 119.097656 101.488281 115.632812 105.671875 110.480469 109.933594 C 108.082031 111.914062 105.710938 113.5625 103.363281 114.878906 L 103.210938 114.804688 L 103.058594 115.03125 C 101.324219 115.945312 99.640625 116.679688 98.007812 117.238281 C 97.855469 117.339844 97.855469 117.671875 98.007812 118.226562 C 98.160156 118.835938 98.339844 119.089844 98.542969 118.988281 L 103.898438 116.707031 C 109.5625 119.242188 113.949219 121.929688 117.058594 124.773438 C 119.304688 126.851562 120.679688 128.832031 121.191406 130.707031 L 121.265625 131.394531 L 121.191406 131.394531 L 119.582031 131.925781 C 114.484375 133.5 109.789062 133.699219 105.507812 132.535156 L 105.125 132.078125 C 100.738281 131.265625 96.65625 129.972656 92.882812 128.195312 C 88.496094 126.117188 85.027344 123.632812 82.476562 120.738281 L 81.863281 120.054688 L 81.863281 119.976562 L 81.40625 119.140625 C 80.742188 117.621094 80.640625 115.820312 81.101562 113.738281 C 81.558594 111.761719 82.578125 109.425781 84.160156 106.738281 L 85.230469 105.0625 C 85.640625 106.078125 86.351562 106.710938 87.375 106.964844 L 90.816406 107.269531 C 94.285156 107.21875 97.933594 106.332031 101.757812 104.605469 C 105.582031 102.882812 108.949219 100.597656 111.855469 97.757812 C 117.3125 92.382812 119.839844 86.875 119.429688 81.246094 L 120.425781 83.222656 M 79.722656 94.410156 L 78.957031 95.09375 L 78.726562 95.171875 L 77.199219 93.117188 C 76.636719 92.203125 76.457031 91.441406 76.664062 90.832031 L 77.582031 91.519531 L 78.5 92.660156 L 79.722656 94.410156 M 83.320312 98.746094 L 83.855469 100.421875 C 81.609375 99.660156 79.492188 98.671875 77.503906 97.453125 L 77.273438 97.300781 L 76.890625 97.074219 L 81.710938 95.550781 L 83.320312 98.746094 M 79.953125 93.574219 L 80.871094 94.488281 L 80.488281 94.636719 L 80.410156 94.488281 L 79.953125 93.800781 L 79.417969 93.117188 L 79.953125 93.574219 M 84.695312 103.085938 L 82.9375 105.824219 C 80.234375 110.644531 79.492188 115.082031 80.71875 119.140625 C 78.015625 119.039062 75.746094 118.40625 73.90625 117.238281 C 71.511719 115.769531 70.335938 113.664062 70.386719 110.921875 C 70.441406 108.792969 71.230469 106.585938 72.761719 104.300781 C 74.136719 102.324219 75.796875 100.597656 77.734375 99.128906 C 79.824219 100.394531 82.042969 101.410156 84.390625 102.171875 L 84.695312 103.085938 M 91.65625 139.992188 C 91.097656 139.484375 91.785156 138.699219 93.722656 137.632812 C 95.203125 136.820312 97.117188 136.085938 99.460938 135.425781 L 104.816406 134.054688 C 107.417969 134.867188 110.199219 135.171875 113.15625 134.96875 C 115.910156 134.867188 118.5625 134.335938 121.113281 133.371094 L 121.191406 133.675781 C 122.058594 135.046875 122.234375 136.390625 121.726562 137.707031 C 121.265625 139.027344 120.296875 139.964844 118.820312 140.523438 L 113.921875 141.742188 C 113.464844 141.84375 113.082031 141.589844 112.773438 140.980469 L 112.085938 139.535156 C 111.730469 138.976562 111.039062 138.976562 110.019531 139.535156 L 107.953125 140.828125 L 106.269531 142.121094 L 105.046875 142.273438 L 103.746094 142.199219 L 100.761719 142.199219 C 97.957031 142.148438 95.585938 141.765625 93.648438 141.058594 C 92.882812 140.855469 92.21875 140.5 91.65625 139.992188 M 126.699219 118.761719 C 126.242188 119.472656 125.320312 119.902344 123.945312 120.054688 L 120.882812 119.902344 C 118.539062 119.34375 116.191406 117.441406 113.847656 114.195312 L 113.539062 112.671875 L 113.003906 111.988281 C 112.851562 112.039062 112.851562 112.316406 113.003906 112.824219 C 113.515625 114.753906 113.234375 116.882812 112.164062 119.21875 L 112.085938 119.371094 L 105.507812 115.792969 L 110.554688 112.292969 C 113.257812 110.113281 115.632812 107.753906 117.671875 105.214844 C 120.222656 107.449219 122.390625 109.757812 124.175781 112.140625 L 126.242188 115.335938 C 127.003906 116.859375 127.160156 118 126.699219 118.761719 M 62.660156 11.617188 L 63.808594 16.335938 L 65.109375 21.207031 L 60.75 20.140625 L 51.03125 19.152344 L 41.316406 19.378906 L 32.667969 19.914062 C 29.457031 20.117188 26.703125 20.066406 24.40625 19.761719 L 25.402344 15.421875 C 26.0625 13.496094 27.007812 11.847656 28.230469 10.476562 L 32.746094 5.378906 L 34.277344 3.246094 L 36.113281 1.34375 L 40.398438 0.964844 L 45.523438 2.410156 L 50.265625 4.390625 L 55.085938 6.0625 L 59.675781 7.964844 C 61.003906 8.625 61.996094 9.84375 62.660156 11.617188 M 50.574219 6.367188 C 47.054688 5.300781 44.070312 4.792969 41.621094 4.84375 C 40.5 4.84375 39.757812 5.125 39.402344 5.683594 C 39.148438 6.292969 39.351562 7.027344 40.015625 7.890625 C 40.882812 8.902344 42.15625 9.867188 43.839844 10.78125 L 48.277344 12.683594 C 50.675781 13.800781 52.96875 14.761719 55.164062 15.574219 L 54.855469 14.660156 C 49.5 12.734375 45.242188 10.78125 42.082031 8.800781 C 40.449219 7.890625 39.632812 7.203125 39.632812 6.746094 C 39.582031 5.835938 40.78125 5.503906 43.226562 5.757812 L 50.878906 7.203125 L 50.878906 6.824219 L 50.574219 6.367188 M 52.179688 28.511719 L 52.027344 29.042969 L 52.867188 29.5 L 55.316406 29.804688 L 58.835938 31.175781 L 60.75 32.085938 L 61.207031 32.390625 L 61.589844 33 L 60.136719 33.304688 L 60.59375 33.6875 C 62.941406 33.988281 64.242188 35.285156 64.496094 37.566406 C 64.804688 39.746094 64.0625 41.371094 62.277344 42.4375 L 61.589844 42.359375 L 61.4375 42.894531 L 61.511719 43.121094 C 61.511719 47.890625 60.59375 52.023438 58.757812 55.523438 L 58.683594 56.210938 L 59.21875 56.132812 C 60.136719 55.625 60.976562 54.5625 61.742188 52.9375 C 62.507812 54.765625 62.226562 56.972656 60.902344 59.558594 L 59.371094 59.480469 L 53.632812 60.015625 C 51.441406 60.625 49.808594 61.585938 48.738281 62.90625 C 48.074219 63.667969 47.589844 64.582031 47.28125 65.644531 C 42.082031 66.203125 37.15625 64.757812 32.515625 61.308594 C 28.078125 58.011719 24.96875 53.773438 23.183594 48.601562 C 22.109375 45.304688 21.625 41.699219 21.730469 37.792969 C 22.492188 37.1875 23.132812 36.222656 23.640625 34.902344 L 24.101562 31.859375 L 24.867188 28.433594 L 25.476562 27.828125 L 28.230469 27.371094 L 29.6875 26.914062 L 30.449219 26.378906 L 34.886719 26 L 49.042969 26.761719 L 54.703125 28.585938 L 52.332031 28.433594 L 52.179688 28.511719 M 53.328125 32.316406 C 53.328125 32.621094 53.53125 32.796875 53.9375 32.847656 L 54.015625 32.847656 L 55.699219 33 L 57.382812 33.609375 L 58.222656 33.535156 L 57.382812 32.773438 L 55.929688 32.164062 L 53.710938 31.859375 L 53.328125 32.316406 M 24.175781 27.597656 L 23.871094 28.054688 C 23.566406 28.5625 23.257812 29.78125 22.953125 31.707031 L 22.492188 34.675781 C 22.238281 35.488281 21.882812 36.144531 21.421875 36.652344 L 21.421875 36.347656 L 20.503906 34.140625 L 19.355469 31.933594 C 18.847656 30.464844 20.070312 29.144531 23.027344 27.980469 L 24.175781 27.597656 M 38.40625 29.273438 L 39.171875 29.425781 L 40.703125 29.652344 L 42.539062 30.261719 L 43.761719 30.488281 C 43.761719 29.832031 43.125 29.042969 41.851562 28.128906 L 39.859375 26.914062 L 39.25 26.914062 L 38.941406 27.371094 L 38.5625 28.207031 L 38.40625 29.273438 M 41.160156 34.066406 C 40.804688 34.21875 40.625 34.574219 40.625 35.132812 L 41.007812 36.957031 L 42.234375 38.480469 L 43.457031 38.632812 C 43.8125 38.480469 43.992188 38.125 43.992188 37.566406 C 44.042969 37.007812 43.890625 36.398438 43.535156 35.742188 C 43.226562 35.082031 42.84375 34.597656 42.386719 34.292969 L 41.160156 34.066406 M 34.046875 39.925781 L 34.046875 42.207031 C 34.046875 43.171875 33.792969 44.796875 33.28125 47.078125 L 33.433594 47.761719 L 33.816406 48.21875 L 36.570312 49.589844 C 37.234375 49.894531 37.796875 49.691406 38.253906 48.980469 L 38.484375 48.523438 L 38.179688 48.144531 L 36.035156 47.15625 L 35.5 46.699219 L 35.347656 46.089844 L 35.347656 42.664062 L 35.042969 39.773438 L 34.8125 38.480469 C 34.710938 38.023438 34.53125 37.820312 34.277344 37.871094 L 33.96875 38.785156 L 34.046875 39.925781 M 39.171875 51.796875 C 38.816406 52 38.636719 52.429688 38.636719 53.089844 L 39.171875 55.222656 L 40.625 57.046875 C 41.136719 57.453125 41.59375 57.554688 42.003906 57.351562 C 42.359375 57.148438 42.539062 56.71875 42.539062 56.058594 L 41.925781 53.851562 L 40.550781 52.101562 C 40.039062 51.695312 39.582031 51.59375 39.171875 51.796875 M 29.148438 36.273438 L 25.859375 35.207031 L 25.25 35.285156 L 25.019531 35.816406 L 25.09375 36.578125 L 25.476562 37.1875 L 26.089844 37.339844 L 29.148438 36.730469 L 29.53125 36.5 L 29.148438 36.273438 M 26.929688 41.675781 C 26.574219 41.878906 26.394531 42.257812 26.394531 42.816406 C 26.34375 43.375 26.496094 43.984375 26.855469 44.644531 L 28.003906 46.089844 C 28.511719 46.445312 28.921875 46.519531 29.226562 46.316406 C 29.582031 46.164062 29.761719 45.808594 29.761719 45.253906 C 29.8125 44.644531 29.660156 44.035156 29.304688 43.425781 C 28.996094 42.765625 28.613281 42.257812 28.15625 41.902344 L 26.929688 41.675781 M 20.351562 39.242188 L 20.582031 43.425781 L 18.285156 41.675781 C 17.726562 41.015625 17.394531 40.382812 17.292969 39.773438 C 17.136719 39.164062 17.214844 38.757812 17.519531 38.554688 L 18.210938 38.480469 L 19.433594 38.707031 L 20.351562 39.242188 M 43.152344 59.710938 C 43.867188 59.660156 44.527344 59.304688 45.140625 58.644531 L 45.445312 58.035156 L 45.371094 57.503906 L 44.835938 57.277344 L 44.222656 57.425781 L 43.6875 57.882812 L 42.234375 58.796875 L 41.542969 59.253906 L 41.316406 59.632812 L 41.699219 59.710938 L 43.152344 59.710938 M 66.488281 38.328125 L 66.945312 39.699219 C 67.046875 40.761719 66.382812 41.550781 64.957031 42.054688 L 65.644531 40.761719 L 66.332031 39.242188 L 66.488281 38.328125 M 57.457031 35.359375 L 56.386719 34.597656 L 55.238281 34.371094 L 54.78125 34.828125 L 55.164062 35.285156 L 55.851562 35.4375 L 56.769531 35.890625 L 57.382812 36.042969 C 57.636719 35.890625 57.664062 35.664062 57.457031 35.359375 M 51.71875 35.359375 L 50.800781 34.371094 L 51.03125 35.664062 C 51.082031 36.476562 51.058594 37.085938 50.957031 37.492188 L 51.109375 39.394531 C 51.3125 39.546875 51.566406 39.445312 51.875 39.089844 C 52.230469 38.683594 52.410156 38.175781 52.410156 37.566406 C 52.5625 36.957031 52.332031 36.222656 51.71875 35.359375 M 54.09375 42.285156 L 54.015625 44.109375 L 54.398438 45.175781 C 54.703125 45.378906 55.085938 45.226562 55.546875 44.71875 C 56.003906 44.109375 56.285156 43.351562 56.386719 42.4375 C 56.539062 41.523438 56.183594 40.433594 55.316406 39.164062 L 53.9375 37.644531 L 54.246094 39.546875 C 54.347656 40.8125 54.296875 41.726562 54.09375 42.285156 M 62.8125 48.980469 C 64.34375 50.046875 65.492188 51.390625 66.257812 53.015625 C 67.226562 55.042969 67.148438 56.792969 66.027344 58.265625 C 65.363281 59.128906 64.34375 59.609375 62.96875 59.710938 L 62.738281 59.710938 C 63.453125 58.085938 63.835938 56.515625 63.886719 54.992188 C 63.9375 53.167969 63.503906 51.515625 62.585938 50.046875 L 62.8125 48.980469 M 70.695312 81.472656 L 73.066406 85.507812 L 75.054688 88.246094 C 73.320312 89.007812 71.585938 89.589844 69.851562 89.996094 L 69.929688 89.617188 C 70.285156 87.839844 70.542969 85.125 70.695312 81.472656 M 70.386719 91.289062 L 70.464844 91.671875 L 70.464844 91.746094 L 70.160156 91.367188 L 70.386719 91.289062 M 72.226562 92.28125 L 73.144531 93.34375 L 74.445312 95.246094 L 74.445312 95.398438 L 71.460938 92.734375 C 71.203125 92.230469 71.152344 91.824219 71.304688 91.519531 L 72.226562 92.28125 M 73.984375 91.289062 L 74.824219 92.050781 L 75.820312 93.191406 L 77.042969 95.019531 L 76.738281 95.398438 L 76.050781 95.628906 L 74.597656 93.496094 C 73.984375 92.535156 73.78125 91.796875 73.984375 91.289062 M 76.890625 90.453125 L 76.585938 90.226562 L 75.820312 90.148438 C 75.617188 90.351562 75.589844 90.707031 75.746094 91.214844 L 76.203125 92.28125 L 78.191406 95.324219 L 77.964844 95.398438 L 77.886719 95.246094 L 77.425781 94.636719 L 74.75 91.367188 L 73.21875 90.605469 C 72.964844 90.605469 72.914062 90.910156 73.066406 91.519531 L 73.449219 92.582031 L 74.367188 94.105469 L 75.4375 95.628906 L 75.589844 95.703125 L 75.746094 95.855469 L 76.050781 96.007812 L 75.746094 96.3125 L 75.363281 96.085938 L 75.207031 95.398438 L 74.824219 94.867188 L 72.070312 91.59375 L 71.382812 90.984375 L 75.820312 89.160156 L 76.890625 90.453125 M 33.816406 77.667969 L 33.894531 77.289062 L 34.503906 77.363281 L 35.578125 77.289062 L 38.484375 76.679688 C 40.066406 76.375 41.289062 76.832031 42.15625 78.050781 C 42.972656 79.265625 42.972656 80.5625 42.15625 81.929688 L 42.082031 82.007812 L 42.082031 82.539062 L 42.15625 82.84375 C 42.71875 84.71875 42.460938 86.699219 41.390625 88.777344 C 40.472656 90.503906 39.148438 92.027344 37.414062 93.34375 C 35.832031 93.953125 33.816406 93.953125 31.367188 93.34375 C 30.042969 93.039062 28.921875 92.457031 28.003906 91.59375 C 27.542969 91.136719 27.261719 90.554688 27.160156 89.84375 C 27.058594 89.03125 27.339844 88.578125 28.003906 88.476562 C 28.207031 88.425781 28.230469 88.121094 28.078125 87.5625 C 27.925781 87.003906 27.746094 86.722656 27.542969 86.722656 L 26.242188 86.191406 C 25.222656 85.632812 24.839844 85.101562 25.09375 84.59375 L 26.394531 83.605469 L 27.160156 83.300781 L 27.542969 82.691406 C 27.492188 82.132812 27.210938 81.574219 26.703125 81.015625 C 25.9375 79.953125 26.089844 79.214844 27.160156 78.8125 L 30.144531 78.507812 L 33.050781 79.039062 L 35.960938 80.027344 L 37.261719 80.484375 L 38.484375 80.332031 C 38.636719 80.179688 38.664062 79.875 38.5625 79.417969 L 38.101562 78.582031 L 37.03125 78.277344 L 36.34375 78.355469 L 35.269531 78.050781 L 33.816406 77.667969 "/>
</g>
</svg>
