<?xml version="1.0" encoding="UTF-8"?>
<svg xmlns="http://www.w3.org/2000/svg" xmlns:xlink="http://www.w3.org/1999/xlink" width="128pt" height="142pt" viewBox="0 0 128 142" version="1.1">
<g id="surface1">
<path style=" stroke:none;fill-rule:nonzero;fill:rgb(0%,0%,0%);fill-opacity:1;" d="M 18.699219 100.484375 L 18.820312 100.546875 L 18.207031 102.503906 L 18.699219 100.484375 M 17.777344 104.402344 L 17.71875 104.769531 L 17.71875 104.707031 L 17.777344 104.402344 M 75.871094 123.445312 C 76.238281 121.488281 76.460938 119.425781 76.542969 117.261719 C 75.441406 122.773438 73.394531 127.261719 70.410156 130.734375 C 67.34375 134.285156 63.90625 136.058594 60.105469 136.058594 C 55.359375 136.101562 51.269531 133.46875 47.835938 128.160156 C 44.484375 122.855469 42.785156 116.464844 42.746094 108.996094 C 42.746094 106.789062 42.910156 104.648438 43.234375 102.566406 C 41.519531 106.6875 40.660156 111.199219 40.660156 116.097656 L 40.71875 117.199219 C 38.878906 120.179688 36.671875 122.28125 34.09375 123.507812 C 30.78125 125.101562 27.695312 124.792969 24.832031 122.589844 C 22.421875 120.671875 20.683594 117.773438 19.617188 113.894531 C 18.597656 110.054688 18.414062 105.996094 19.066406 101.707031 L 18.945312 100.605469 C 21.316406 101.421875 23.832031 101.832031 26.488281 101.832031 L 25.140625 100.546875 C 19.863281 98.914062 15.449219 95.644531 11.890625 90.746094 C 8.289062 85.765625 6.328125 80.050781 6 73.601562 C 5.589844 66.089844 7.433594 59.4375 11.523438 53.640625 C 15.609375 47.882812 20.867188 44.457031 27.285156 43.351562 L 24.585938 43.351562 C 22.214844 43.476562 19.945312 43.964844 17.777344 44.824219 L 17.902344 43.84375 C 19.660156 34.332031 23.707031 26.066406 30.046875 19.042969 C 37.121094 11.328125 45.730469 6.53125 55.871094 4.652344 C 64.992188 2.980469 73.90625 4 82.617188 7.714844 C 91.082031 11.308594 98.179688 16.898438 103.902344 24.492188 C 104.476562 24.902344 104.886719 25.492188 105.128906 26.269531 C 109.507812 32.636719 112.429688 39.578125 113.902344 47.089844 L 114.824219 54.742188 L 108.011719 49.90625 L 109.792969 54.679688 C 113.882812 58.191406 117.09375 62.253906 119.421875 66.867188 C 121.835938 71.644531 123.0625 76.519531 123.101562 81.5 C 123.183594 88.769531 120.894531 94.953125 116.234375 100.054688 C 113.371094 103.199219 109.976562 105.523438 106.050781 107.035156 L 98.8125 108.628906 L 96.972656 105.199219 L 96.972656 105.261719 L 97.15625 106.730469 L 97.890625 108.8125 L 97.769531 108.8125 L 98.199219 109.667969 C 99.058594 112.730469 99.40625 115.75 99.242188 118.730469 C 99.035156 122.773438 97.933594 125.976562 95.929688 128.34375 C 93.558594 131.121094 90.550781 132.101562 86.910156 131.285156 C 85.601562 131 84.335938 130.507812 83.109375 129.816406 L 81.207031 128.527344 L 77.527344 125.039062 L 76.851562 124.179688 L 77.15625 124.671875 L 75.871094 123.445312 M 74.519531 69.195312 C 75.421875 65.640625 77.28125 62.660156 80.101562 60.253906 C 82.964844 57.84375 86.277344 56.519531 90.039062 56.273438 C 94.785156 55.988281 98.933594 57.394531 102.492188 60.5 C 106.050781 63.640625 107.972656 67.5625 108.257812 72.253906 L 108.074219 76.359375 C 109.628906 73.621094 110.304688 70.722656 110.097656 67.664062 C 109.8125 63.171875 107.828125 59.4375 104.148438 56.457031 C 100.46875 53.476562 96.175781 52.148438 91.265625 52.476562 C 86.523438 52.761719 82.535156 54.539062 79.304688 57.804688 C 76.074219 61.027344 74.480469 64.824219 74.519531 69.195312 M 64.519531 90.074219 C 64.359375 88.238281 63.683594 86.542969 62.496094 84.992188 C 61.433594 83.605469 60.085938 82.582031 58.449219 81.929688 C 56.855469 81.277344 55.21875 81.074219 53.542969 81.316406 L 53.601562 81.5 C 55.117188 81.582031 56.464844 82.011719 57.652344 82.789062 C 59.695312 84.132812 60.859375 86.113281 61.148438 88.726562 C 61.433594 91.378906 60.78125 93.890625 59.183594 96.257812 C 57.917969 98.175781 56.28125 99.585938 54.277344 100.484375 C 56.648438 100.605469 58.796875 99.953125 60.71875 98.523438 C 62.4375 97.21875 63.558594 95.605469 64.09375 93.6875 C 64.253906 96.257812 65.320312 98.402344 67.28125 100.117188 C 68.589844 101.300781 70.125 102.054688 71.882812 102.382812 L 76.789062 102.074219 L 76.730469 101.890625 C 75.214844 102.136719 73.785156 101.972656 72.433594 101.402344 C 70.226562 100.464844 68.714844 98.726562 67.894531 96.199219 C 67.117188 93.667969 67.28125 91.09375 68.386719 88.480469 C 69.246094 86.359375 70.59375 84.664062 72.433594 83.398438 C 70.0625 83.683594 68.078125 84.726562 66.484375 86.523438 C 65.542969 87.585938 64.890625 88.769531 64.519531 90.074219 M 24.585938 55.539062 C 26.960938 52.761719 29.945312 50.945312 33.542969 50.089844 C 37.183594 49.191406 40.742188 49.476562 44.21875 50.945312 C 48.59375 52.78125 51.679688 55.886719 53.480469 60.253906 C 55.238281 64.621094 55.21875 68.988281 53.417969 73.359375 C 52.847656 74.664062 52.171875 75.847656 51.394531 76.910156 C 54.011719 75.152344 55.890625 72.867188 57.039062 70.050781 C 58.796875 65.886719 58.695312 61.660156 56.730469 57.375 C 54.808594 53.046875 51.578125 49.945312 47.039062 48.066406 C 42.664062 46.230469 38.289062 46.046875 33.910156 47.515625 C 29.578125 48.945312 26.46875 51.621094 24.585938 55.539062 "/>
<path style=" stroke:none;fill-rule:nonzero;fill:rgb(100%,100%,100%);fill-opacity:1;" d="M 18.699219 100.484375 C 15.058594 99.175781 11.765625 96.933594 8.824219 93.75 C 3.792969 88.320312 1.074219 81.707031 0.664062 73.910156 C 0.253906 65.824219 2.382812 58.804688 7.042969 52.84375 C 9.25 50.027344 11.847656 47.804688 14.832031 46.167969 L 17.59375 44.882812 C 18.453125 33.902344 22.277344 24.289062 29.066406 16.042969 C 36.304688 7.308594 45.402344 1.960938 56.363281 0 L 75.808594 0.550781 C 82.066406 2.101562 87.871094 4.835938 93.230469 8.757812 C 98.585938 12.675781 103.066406 17.472656 106.664062 23.144531 C 110.425781 29.023438 112.980469 35.433594 114.332031 42.375 C 115.148438 46.617188 115.496094 50.90625 115.375 55.234375 C 117.949219 57.601562 120.21875 60.292969 122.183594 63.316406 C 125.824219 69.03125 127.683594 75.011719 127.765625 81.257812 C 127.886719 89.339844 125.128906 96.015625 119.484375 101.28125 C 114.003906 106.421875 107.15625 108.953125 98.933594 108.871094 C 100.53125 112.34375 101.410156 115.957031 101.574219 119.710938 C 101.816406 124.894531 100.714844 128.917969 98.261719 131.773438 C 95.722656 134.792969 92.472656 135.734375 88.507812 134.589844 C 84.539062 133.449219 81.023438 130.570312 77.957031 125.957031 L 77.15625 124.671875 L 76.851562 124.179688 L 77.527344 125.039062 C 79.242188 127.121094 81.105469 128.710938 83.109375 129.816406 C 84.335938 130.507812 85.601562 131 86.910156 131.285156 C 90.550781 132.101562 93.558594 131.121094 95.929688 128.34375 C 97.933594 125.976562 99.035156 122.773438 99.242188 118.730469 C 99.40625 115.75 99.058594 112.730469 98.199219 109.667969 L 97.890625 108.8125 L 97.15625 106.730469 L 96.972656 105.261719 L 96.972656 105.199219 L 98.8125 108.628906 L 98.933594 108.871094 C 101.46875 108.503906 103.84375 107.894531 106.050781 107.035156 C 109.976562 105.523438 113.371094 103.199219 116.234375 100.054688 C 120.894531 94.953125 123.183594 88.769531 123.101562 81.5 C 123.0625 76.519531 121.835938 71.644531 119.421875 66.867188 C 117.09375 62.253906 113.882812 58.191406 109.792969 54.679688 L 108.011719 49.90625 L 114.824219 54.742188 L 113.902344 47.089844 C 112.429688 39.578125 109.507812 32.636719 105.128906 26.269531 C 104.886719 25.492188 104.476562 24.902344 103.902344 24.492188 C 98.179688 16.898438 91.082031 11.308594 82.617188 7.714844 C 73.90625 4 64.992188 2.980469 55.871094 4.652344 C 45.730469 6.53125 37.121094 11.328125 30.046875 19.042969 C 23.707031 26.066406 19.660156 34.332031 17.902344 43.84375 L 17.71875 44.824219 L 17.777344 44.824219 C 19.945312 43.964844 22.214844 43.476562 24.585938 43.351562 L 27.285156 43.351562 C 20.867188 44.457031 15.609375 47.882812 11.523438 53.640625 C 7.433594 59.4375 5.589844 66.089844 6 73.601562 C 6.328125 80.050781 8.289062 85.765625 11.890625 90.746094 C 15.449219 95.644531 19.863281 98.914062 25.140625 100.546875 L 26.488281 101.832031 C 23.832031 101.832031 21.316406 101.421875 18.945312 100.605469 L 19.066406 101.707031 C 18.414062 105.996094 18.597656 110.054688 19.617188 113.894531 C 20.683594 117.773438 22.421875 120.671875 24.832031 122.589844 C 27.695312 124.792969 30.78125 125.101562 34.09375 123.507812 C 36.671875 122.28125 38.878906 120.179688 40.71875 117.199219 L 40.660156 116.097656 C 40.660156 111.199219 41.519531 106.6875 43.234375 102.566406 C 42.910156 104.648438 42.746094 106.789062 42.746094 108.996094 C 42.785156 116.464844 44.484375 122.855469 47.835938 128.160156 C 51.269531 133.46875 55.359375 136.101562 60.105469 136.058594 C 63.90625 136.058594 67.34375 134.285156 70.410156 130.734375 C 73.394531 127.261719 75.441406 122.773438 76.542969 117.261719 C 76.460938 119.425781 76.238281 121.488281 75.871094 123.445312 C 75.050781 127.691406 73.457031 131.46875 71.085938 134.773438 C 67.609375 139.550781 63.480469 141.960938 58.695312 142 C 53.703125 142 49.453125 139.46875 45.933594 134.40625 C 42.785156 129.835938 41.046875 124.445312 40.71875 118.242188 C 38.839844 122.40625 36.363281 125.34375 33.296875 127.058594 C 29.738281 129.058594 26.425781 128.855469 23.359375 126.445312 C 20.417969 124.160156 18.515625 120.464844 17.65625 115.363281 C 17.042969 111.8125 17.0625 108.28125 17.71875 104.769531 L 17.777344 104.402344 L 18.207031 102.503906 L 18.820312 100.546875 L 18.699219 100.484375 M 64.519531 90.074219 C 64.890625 88.769531 65.542969 87.585938 66.484375 86.523438 C 68.078125 84.726562 70.0625 83.683594 72.433594 83.398438 C 70.59375 84.664062 69.246094 86.359375 68.386719 88.480469 C 67.28125 91.09375 67.117188 93.667969 67.894531 96.199219 C 68.714844 98.726562 70.226562 100.464844 72.433594 101.402344 C 73.785156 101.972656 75.214844 102.136719 76.730469 101.890625 L 76.789062 102.074219 L 71.882812 102.382812 C 70.125 102.054688 68.589844 101.300781 67.28125 100.117188 C 65.320312 98.402344 64.253906 96.257812 64.09375 93.6875 C 63.558594 95.605469 62.4375 97.21875 60.71875 98.523438 C 58.796875 99.953125 56.648438 100.605469 54.277344 100.484375 C 56.28125 99.585938 57.917969 98.175781 59.183594 96.257812 C 60.78125 93.890625 61.433594 91.378906 61.148438 88.726562 C 60.859375 86.113281 59.695312 84.132812 57.652344 82.789062 C 56.464844 82.011719 55.117188 81.582031 53.601562 81.5 L 53.542969 81.316406 C 55.21875 81.074219 56.855469 81.277344 58.449219 81.929688 C 60.085938 82.582031 61.433594 83.605469 62.496094 84.992188 C 63.683594 86.542969 64.359375 88.238281 64.519531 90.074219 M 74.519531 69.195312 C 74.480469 64.824219 76.074219 61.027344 79.304688 57.804688 C 82.535156 54.539062 86.523438 52.761719 91.265625 52.476562 C 96.175781 52.148438 100.46875 53.476562 104.148438 56.457031 C 107.828125 59.4375 109.8125 63.171875 110.097656 67.664062 C 110.304688 70.722656 109.628906 73.621094 108.074219 76.359375 L 108.257812 72.253906 C 107.972656 67.5625 106.050781 63.640625 102.492188 60.5 C 98.933594 57.394531 94.785156 55.988281 90.039062 56.273438 C 86.277344 56.519531 82.964844 57.84375 80.101562 60.253906 C 77.28125 62.660156 75.421875 65.640625 74.519531 69.195312 M 24.585938 55.539062 C 26.46875 51.621094 29.578125 48.945312 33.910156 47.515625 C 38.289062 46.046875 42.664062 46.230469 47.039062 48.066406 C 51.578125 49.945312 54.808594 53.046875 56.730469 57.375 C 58.695312 61.660156 58.796875 65.886719 57.039062 70.050781 C 55.890625 72.867188 54.011719 75.152344 51.394531 76.910156 C 52.171875 75.847656 52.847656 74.664062 53.417969 73.359375 C 55.21875 68.988281 55.238281 64.621094 53.480469 60.253906 C 51.679688 55.886719 48.59375 52.78125 44.21875 50.945312 C 40.742188 49.476562 37.183594 49.191406 33.542969 50.089844 C 29.945312 50.945312 26.960938 52.761719 24.585938 55.539062 "/>
</g>
</svg>
