<?xml version="1.0" encoding="UTF-8"?>
<svg xmlns="http://www.w3.org/2000/svg" xmlns:xlink="http://www.w3.org/1999/xlink" width="128pt" height="234pt" viewBox="0 0 128 234" version="1.1">
<g id="surface1">
<path style=" stroke:none;fill-rule:nonzero;fill:rgb(0%,0%,0%);fill-opacity:1;" d="M 97.132812 23.589844 C 96.625 21.054688 95.769531 18.835938 94.5625 16.933594 L 89.992188 9.894531 L 88.46875 6.847656 L 86.5625 4.28125 C 85.613281 3.457031 83.898438 3.042969 81.421875 3.042969 L 74.855469 3.804688 L 68.476562 5.421875 L 62.285156 6.660156 L 56.289062 8.179688 C 54.574219 8.75 53.144531 10.082031 52.003906 12.175781 L 49.625 17.691406 L 47.242188 23.496094 L 52.859375 22.925781 L 64.855469 23.496094 L 76.757812 25.683594 L 87.421875 27.777344 L 97.703125 29.203125 L 97.132812 23.589844 M 97.800781 31.105469 C 93.039062 30.914062 87.515625 30.121094 81.234375 28.726562 L 68.476562 26.347656 L 55.527344 24.921875 C 48.355469 24.667969 41.085938 26.09375 33.722656 29.203125 C 25.726562 32.691406 20.710938 36.71875 18.679688 41.28125 C 17.855469 43.058594 18.046875 44.707031 19.253906 46.230469 C 20.078125 47.308594 21.570312 48.386719 23.726562 49.464844 C 26.710938 50.984375 30.296875 52.253906 34.484375 53.269531 L 44.386719 54.980469 L 44.863281 53.742188 L 45.910156 52.222656 C 44.832031 52.222656 43.753906 51.9375 42.671875 51.367188 C 41.085938 50.605469 40.292969 49.589844 40.292969 48.320312 C 40.167969 47.117188 40.800781 45.46875 42.199219 43.375 C 44.039062 40.777344 46.640625 38.523438 50.003906 36.621094 C 52.796875 34.972656 56.003906 33.640625 59.621094 32.625 C 65.015625 31.167969 71.078125 30.851562 77.804688 31.675781 C 83.707031 32.308594 89.609375 33.769531 95.515625 36.050781 L 100.085938 38.144531 C 101.859375 39.285156 102.910156 40.523438 103.226562 41.855469 C 103.480469 43.121094 103.035156 44.644531 101.894531 46.417969 L 99.609375 49.273438 L 99.703125 52.222656 C 101.605469 51.398438 103.890625 49.527344 106.558594 46.609375 C 109.160156 43.691406 111.476562 41.886719 113.507812 41.1875 L 117.601562 39.761719 L 121.695312 38.429688 L 123.410156 37.382812 C 123.917969 36.8125 124.042969 36.179688 123.789062 35.480469 C 123.472656 34.78125 122.554688 34.085938 121.03125 33.386719 C 118.425781 32.183594 115.0625 31.453125 110.9375 31.199219 L 100.464844 31.105469 L 97.800781 31.105469 M 98.085938 19.59375 L 98.847656 24.445312 L 99.035156 29.203125 L 114.554688 29.679688 C 123.441406 30.757812 126.871094 33.164062 124.839844 36.90625 C 123.886719 38.621094 122.140625 39.953125 119.601562 40.902344 L 113.128906 42.898438 C 111.605469 43.34375 110.207031 44.167969 108.9375 45.375 L 105.703125 49.082031 L 103.226562 51.554688 L 102.367188 52.984375 L 99.226562 55.933594 L 99.324219 60.117188 C 99.195312 63.222656 98.71875 66.171875 97.894531 68.964844 C 96.625 72.894531 94.5625 76.507812 91.707031 79.808594 C 90.117188 81.644531 88.4375 83.199219 86.660156 84.46875 L 87.421875 85.132812 L 89.421875 85.703125 L 91.707031 88.273438 L 93.324219 91.507812 L 96.65625 97.214844 C 98.5625 101.082031 100.6875 106.949219 103.035156 114.8125 C 105.636719 123.625 108.050781 130.347656 110.269531 134.976562 L 112.269531 138.59375 L 112.746094 139.257812 L 113.128906 139.640625 L 113.222656 139.449219 L 116.363281 146.011719 C 117.316406 148.929688 117.410156 152.035156 116.648438 155.335938 C 115.953125 158.757812 114.078125 162.023438 111.03125 165.132812 L 109.320312 166.84375 L 106.464844 169.03125 C 105.449219 169.601562 104.335938 170.078125 103.128906 170.457031 C 101.035156 171.027344 99.449219 170.808594 98.371094 169.792969 C 97.734375 169.222656 97.355469 168.335938 97.226562 167.128906 L 95.894531 166.84375 L 95.324219 166.464844 C 94.753906 165.894531 94.5625 165.066406 94.753906 163.992188 L 94.941406 163.324219 L 93.894531 163.039062 C 93.261719 162.722656 92.816406 162.183594 92.5625 161.421875 C 92.246094 160.21875 93.007812 158.664062 94.847656 156.761719 C 95.925781 155.621094 97.226562 154.476562 98.75 153.335938 C 97.988281 151.816406 97.671875 150.324219 97.800781 148.867188 L 97.800781 148.105469 L 97.417969 147.820312 C 93.417969 145.472656 89.960938 142.554688 87.039062 139.066406 C 84.753906 136.277344 82.976562 133.265625 81.707031 130.03125 C 79.996094 133.898438 77.933594 137.863281 75.519531 141.921875 L 73.140625 146.203125 L 71.808594 148.296875 L 80.089844 155.144531 C 83.644531 158.316406 86.214844 161.359375 87.800781 164.277344 L 88.945312 166.84375 C 90.914062 172.105469 90.878906 178.417969 88.847656 185.773438 C 87.261719 191.671875 84.976562 198.203125 81.996094 205.367188 C 88.085938 207.839844 92.023438 210.503906 93.800781 213.359375 C 94.5 214.5 94.277344 215.453125 93.132812 216.210938 C 92.371094 216.78125 91.261719 217.195312 89.800781 217.449219 C 86.753906 218.019531 83.550781 218.019531 80.183594 217.449219 C 77.011719 216.878906 73.933594 215.863281 70.949219 214.40625 L 68.570312 213.167969 L 68.09375 212.882812 L 68 213.261719 L 67.238281 214.308594 L 65.902344 214.5 L 62.382812 213.359375 L 62.097656 213.167969 L 59.621094 219.730469 L 59.621094 219.828125 L 65.523438 222.015625 L 71.332031 224.679688 C 73.042969 225.628906 74.09375 226.484375 74.472656 227.246094 C 74.664062 227.816406 74.664062 228.417969 74.472656 229.054688 L 73.425781 230.574219 L 71.425781 231.621094 L 69.238281 232.191406 C 63.652344 233.398438 57.429688 233.113281 50.574219 231.335938 L 43.816406 228.863281 L 42.957031 230.289062 L 42.007812 231.144531 C 40.421875 231.210938 38.960938 230.828125 37.628906 230.003906 L 35.246094 227.53125 C 34.675781 226.453125 34.390625 225.34375 34.390625 224.203125 L 34.484375 223.0625 L 33.628906 222.871094 L 31.628906 221.824219 L 31.34375 220.492188 L 31.25 219.160156 C 30.421875 211.679688 30.167969 205.683594 30.488281 201.183594 L 31.820312 187.199219 L 28.203125 182.917969 L 22.394531 175.59375 L 21.15625 173.882812 C 19.316406 174.644531 17.1875 173.34375 14.777344 169.984375 L 13.730469 170.078125 C 12.144531 170.078125 10.429688 169 8.589844 166.84375 L 8.113281 166.273438 C 7.289062 166.273438 6.492188 166.082031 5.734375 165.703125 C 4.71875 165.132812 3.921875 164.277344 3.351562 163.132812 C 1.574219 159.519531 0.558594 155.398438 0.304688 150.769531 C 0.179688 148.738281 0.433594 146.582031 1.066406 144.300781 L 1.351562 143.253906 L 1.257812 143.253906 L 0.972656 140.683594 C 1.164062 136.816406 1.671875 132.566406 2.496094 127.9375 C 3.765625 120.457031 5.574219 113.449219 7.921875 106.917969 C 10.082031 101.019531 13 95.628906 16.679688 90.746094 C 19.21875 87.386719 21.949219 84.4375 24.871094 81.898438 L 25.632812 81.996094 L 29.914062 78.191406 C 32.773438 75.972656 36.039062 74.257812 39.722656 73.054688 C 42.578125 72.164062 45.496094 71.660156 48.480469 71.53125 L 48.480469 70.582031 L 49.910156 70.675781 L 50.003906 70.675781 L 49.339844 68.964844 L 48.003906 65.160156 L 47.625 65.0625 C 45.277344 64.367188 43.816406 62.496094 43.246094 59.453125 L 43.148438 56.976562 C 36.675781 56.152344 30.867188 54.757812 25.726562 52.792969 C 23.632812 52.03125 22.042969 51.335938 20.964844 50.699219 C 19.125 49.621094 17.855469 48.355469 17.15625 46.894531 C 16.140625 44.867188 17.0625 41.855469 19.917969 37.859375 C 23.28125 33.355469 28.234375 29.742188 34.769531 27.015625 C 38.515625 25.429688 42.355469 24.320312 46.292969 23.683594 L 49.148438 17.027344 L 51.050781 12.554688 L 53.433594 8.5625 C 54.511719 7.417969 55.972656 6.53125 57.8125 5.898438 L 62.761719 4.757812 L 70.761719 3.042969 L 78.757812 1.425781 C 84.027344 0.476562 87.292969 1.078125 88.5625 3.234375 L 95.039062 13.984375 L 96.847656 16.644531 L 98.085938 19.59375 M 97.703125 47.085938 L 100.085938 46.894531 L 100.65625 46.609375 L 101.511719 45.183594 C 102.464844 43.40625 101.195312 41.503906 97.703125 39.476562 L 91.132812 36.8125 C 91.640625 37.320312 92.339844 38.683594 93.230469 40.902344 L 94.5625 44.328125 C 95.515625 45.785156 96.5625 46.703125 97.703125 47.085938 M 98.085938 48.320312 L 98.371094 49.75 L 99.417969 48.226562 L 98.085938 48.320312 M 104.273438 148.199219 C 104.144531 149.339844 104.335938 150.292969 104.84375 151.054688 L 105.605469 151.910156 L 106.367188 152.386719 L 104.082031 157.617188 C 102.6875 160.535156 102.148438 162.183594 102.464844 162.5625 L 102.84375 162.660156 L 104.367188 162.375 C 106.652344 161.675781 108.460938 159.613281 109.796875 156.191406 L 111.222656 150.484375 C 111.351562 150.039062 111.667969 149.878906 112.175781 150.007812 C 112.746094 150.070312 113.0625 150.324219 113.128906 150.769531 C 113.316406 151.910156 112.808594 154.003906 111.605469 157.046875 C 109.953125 160.914062 107.730469 163.292969 104.941406 164.179688 C 103.417969 164.625 102.273438 164.625 101.511719 164.179688 L 101.320312 164.5625 L 99.703125 166.367188 L 99.417969 166.84375 L 99.324219 167.320312 L 99.703125 168.367188 C 100.464844 169.125 102.019531 169 104.367188 167.984375 L 105.414062 167.414062 L 106.464844 166.652344 C 111.285156 162.785156 114.078125 158.886719 114.839844 154.953125 C 115.414062 151.910156 115.347656 149.308594 114.652344 147.152344 L 112.367188 142.585938 C 111.285156 144.109375 109.796875 145.378906 107.890625 146.394531 C 106.113281 147.34375 104.398438 147.976562 102.75 148.296875 L 99.796875 148.582031 L 99.703125 149.054688 L 99.988281 151.527344 L 100.75 153.621094 L 97.132812 157.046875 C 94.972656 159.140625 94.085938 160.40625 94.464844 160.851562 C 94.972656 161.613281 95.957031 161.515625 97.417969 160.566406 L 99.894531 158.757812 L 100.085938 158.855469 L 100.179688 158.855469 L 97.894531 161.613281 C 96.496094 163.070312 96.054688 164.117188 96.5625 164.75 C 97.324219 165.765625 98.847656 165.480469 101.132812 163.894531 L 101.035156 163.800781 C 100.464844 163.101562 100.371094 162.054688 100.75 160.660156 L 102.367188 156.761719 L 103.988281 153.144531 C 102.78125 152.257812 102.304688 150.671875 102.558594 148.390625 L 104.273438 148.199219 M 98.085938 102.066406 L 96.65625 98.640625 C 96.53125 99.023438 96.085938 99.277344 95.324219 99.402344 C 92.277344 100.101562 89.007812 99.242188 85.515625 96.835938 L 84.183594 95.882812 C 84.566406 97.847656 84.597656 100.066406 84.28125 102.542969 C 83.707031 106.027344 82.691406 109.960938 81.234375 114.335938 L 76.851562 125.847656 L 73.804688 133.933594 L 77.804688 131.078125 L 78.1875 130.984375 C 81.929688 122.929688 84.246094 115.476562 85.136719 108.628906 L 86.375 108.722656 C 87.199219 109.167969 87.578125 109.613281 87.515625 110.054688 C 86.753906 116.015625 85.007812 122.261719 82.28125 128.796875 C 83.421875 132.410156 85.296875 135.769531 87.898438 138.878906 C 90.5625 142.046875 93.703125 144.585938 97.324219 146.488281 C 98.464844 147.121094 100.558594 146.898438 103.605469 145.820312 C 105.574219 145.125 107.160156 144.300781 108.367188 143.347656 C 110.015625 141.953125 111.191406 140.589844 111.890625 139.257812 L 110.269531 136.785156 C 108.492188 133.488281 106.589844 128.921875 104.558594 123.085938 C 102.019531 113.703125 99.863281 106.695312 98.085938 102.066406 M 97.324219 61.066406 C 97.765625 56.945312 97.417969 52.539062 96.277344 47.847656 C 95.195312 47.277344 94.210938 46.292969 93.324219 44.898438 L 91.894531 41.378906 L 90.085938 37.476562 L 89.230469 37.003906 L 87.039062 36.90625 L 85.800781 37.097656 L 83.898438 37.003906 C 83.011719 36.683594 81.867188 35.828125 80.472656 34.433594 L 80.375 34.339844 L 73.617188 33.484375 L 71.710938 34.433594 L 69.425781 34.71875 L 67.140625 33.386719 L 66 33.386719 L 58.289062 34.71875 C 58.222656 35.988281 58.859375 37.289062 60.191406 38.621094 L 60.476562 39.09375 C 60.539062 39.476562 60.320312 39.730469 59.8125 39.855469 L 54.574219 41.566406 C 51.527344 43.089844 49.558594 45.277344 48.671875 48.132812 L 54.097656 43.28125 C 56.574219 41.949219 58.160156 41.25 58.859375 41.1875 L 59.144531 41.28125 L 59.621094 41.757812 C 59.621094 42.074219 59.460938 42.265625 59.144531 42.328125 L 54.667969 44.328125 L 50.765625 47.085938 L 48.289062 49.464844 L 48.195312 50.605469 L 50.480469 48.417969 L 53.90625 46.039062 C 55.367188 45.277344 56.605469 44.867188 57.621094 44.800781 L 57.8125 44.800781 C 58.066406 44.867188 58.160156 45.085938 58.097656 45.46875 C 57.96875 45.785156 57.652344 46.007812 57.144531 46.132812 L 54.382812 47.085938 L 50.574219 49.75 L 48.195312 51.554688 L 48.195312 51.652344 L 47.816406 52.601562 L 49.625 52.601562 L 49.148438 53.171875 C 46.480469 54.1875 45.308594 56.089844 45.625 58.878906 C 45.878906 61.605469 47.273438 63.382812 49.8125 64.207031 L 50.574219 64.300781 L 51.8125 68.964844 C 53.082031 72.703125 54.859375 75.9375 57.144531 78.664062 C 57.460938 79.046875 57.558594 79.300781 57.429688 79.425781 L 56.765625 79.523438 C 55.496094 79.078125 54.226562 78.03125 52.957031 76.382812 L 52.957031 76.761719 L 54.765625 81.519531 C 55.589844 83.167969 56.667969 84.753906 58 86.277344 C 59.523438 87.542969 61.113281 88.433594 62.761719 88.9375 L 65.714844 89.128906 L 65.429688 89.035156 C 64.792969 88.84375 63.875 88.335938 62.667969 87.511719 L 61.046875 85.894531 L 61.238281 85.894531 L 62.285156 86.371094 L 64.191406 87.035156 L 73.234375 87.703125 L 76.757812 87.035156 L 79.042969 86.179688 L 80.472656 85.800781 L 81.996094 85.039062 L 81.898438 84.46875 C 81.898438 84.085938 82.25 84.085938 82.945312 84.46875 L 84.46875 83.421875 C 84.28125 82.976562 84.375 82.882812 84.753906 83.136719 L 84.851562 83.230469 C 86.5625 81.964844 88.183594 80.441406 89.707031 78.664062 C 92.246094 75.683594 94.179688 72.453125 95.515625 68.964844 C 96.402344 66.492188 97.003906 63.859375 97.324219 61.066406 M 99.035156 54.21875 L 99.417969 53.839844 L 99.035156 54.027344 L 99.035156 54.21875 M 48.765625 38.808594 L 48.578125 39.953125 L 48.289062 46.132812 C 49.625 43.789062 51.496094 41.980469 53.90625 40.710938 L 58.382812 38.90625 L 56.574219 35.765625 L 56.480469 35.289062 L 55.050781 35.765625 C 52.765625 36.589844 50.671875 37.605469 48.765625 38.808594 M 77.042969 8.371094 L 67.332031 8.847656 L 67.425781 8.371094 L 67.902344 7.800781 L 79.136719 7.515625 C 80.535156 7.769531 81.390625 8.308594 81.707031 9.132812 C 81.960938 9.894531 81.582031 10.71875 80.566406 11.605469 C 79.296875 12.683594 77.519531 13.632812 75.234375 14.457031 L 69.425781 16.074219 L 60.574219 18.261719 L 61.046875 17.3125 C 68.03125 15.855469 73.617188 14.238281 77.804688 12.460938 C 79.964844 11.636719 81.105469 10.90625 81.234375 10.273438 C 81.421875 9.132812 80.027344 8.496094 77.042969 8.371094 M 69.140625 33.386719 L 69.425781 33.484375 L 70 33.292969 L 68.949219 33.292969 L 69.140625 33.386719 M 83.421875 34.910156 L 84.566406 35.765625 L 85.136719 35.859375 L 86.46875 35.671875 L 83.519531 34.910156 L 83.421875 34.910156 M 51.242188 51.460938 L 52.003906 50.320312 L 53.71875 49.179688 L 56.382812 48.320312 L 56.574219 48.320312 L 56.953125 48.894531 C 56.953125 49.210938 56.734375 49.433594 56.289062 49.558594 L 54.195312 50.222656 L 52.574219 51.082031 C 51.875 51.523438 51.464844 51.746094 51.335938 51.746094 L 51.242188 51.460938 M 75.996094 75.335938 L 76.1875 72.578125 L 77.519531 70.105469 C 78.089844 69.472656 78.628906 69.21875 79.136719 69.34375 C 79.644531 69.472656 79.964844 69.945312 80.089844 70.769531 C 80.28125 71.59375 80.21875 72.546875 79.898438 73.625 C 79.644531 74.640625 79.234375 75.464844 78.660156 76.097656 C 78.089844 76.730469 77.550781 76.984375 77.042969 76.859375 C 76.535156 76.730469 76.1875 76.222656 75.996094 75.335938 M 72.949219 77.808594 L 73.519531 77.335938 L 74.28125 77.429688 L 77.996094 79.140625 L 78.375 79.425781 L 77.996094 79.710938 L 76.1875 79.996094 L 74.28125 79.617188 L 73.425781 79.140625 L 72.949219 78.476562 L 72.949219 77.808594 M 69.902344 50.890625 L 71.046875 48.894531 L 72.472656 48.320312 C 72.917969 48.449219 73.234375 48.859375 73.425781 49.558594 C 73.550781 50.257812 73.488281 51.015625 73.234375 51.839844 C 73.042969 52.664062 72.695312 53.332031 72.1875 53.839844 C 71.679688 54.347656 71.203125 54.535156 70.761719 54.410156 L 70.664062 54.410156 L 69.808594 53.171875 L 69.902344 50.890625 M 73.710938 39.953125 L 74.1875 39.953125 L 74.757812 40.523438 C 75.328125 41.917969 75.488281 42.710938 75.234375 42.898438 L 72.28125 43.183594 L 70.09375 43.757812 L 68.570312 43.945312 C 68.570312 43.121094 69.425781 42.203125 71.140625 41.1875 L 73.710938 39.953125 M 89.992188 54.886719 C 90.5 54.378906 90.976562 54.1875 91.421875 54.316406 L 92.371094 55.550781 C 92.5 56.25 92.4375 57.007812 92.183594 57.835938 C 91.992188 58.660156 91.640625 59.324219 91.132812 59.832031 C 90.625 60.339844 90.152344 60.527344 89.707031 60.402344 L 89.609375 60.402344 C 89.167969 60.277344 88.882812 59.863281 88.753906 59.164062 L 88.847656 56.882812 L 89.992188 54.886719 M 82.28125 61.542969 L 81.519531 57.359375 L 81.136719 53.839844 L 81.136719 52.222656 L 81.613281 51.367188 L 82.183594 52.414062 L 82.851562 56.503906 L 84.945312 62.304688 L 84.945312 63.160156 L 84.566406 63.730469 L 81.613281 66.109375 L 80.28125 66.300781 L 79.613281 65.917969 L 79.421875 65.730469 L 79.042969 65.253906 L 79.328125 64.683594 L 81.707031 62.972656 C 82.214844 62.589844 82.40625 62.113281 82.28125 61.542969 M 90.847656 48.988281 L 90.277344 48.417969 L 90.277344 47.5625 L 90.753906 46.800781 C 90.945312 46.355469 91.230469 46.199219 91.609375 46.324219 L 91.992188 46.609375 L 94.753906 49.84375 C 95.195312 50.351562 95.101562 50.507812 94.464844 50.320312 L 90.847656 48.988281 M 45.53125 41.1875 C 43.308594 43.027344 41.976562 44.675781 41.53125 46.132812 C 41.277344 47.339844 41.976562 48.386719 43.625 49.273438 L 46.292969 50.222656 L 47.148438 47.371094 L 47.625 43.089844 L 46.863281 40.902344 L 46.578125 40.332031 L 45.53125 41.1875 M 55.429688 51.839844 L 55.8125 52.414062 C 55.8125 52.664062 55.652344 52.824219 55.335938 52.886719 L 54.574219 53.269531 L 53.621094 54.027344 C 53.496094 54.347656 53.273438 54.441406 52.957031 54.316406 C 52.574219 54.1875 52.449219 53.902344 52.574219 53.457031 L 53.71875 52.316406 L 55.144531 51.746094 L 55.429688 51.839844 M 37.722656 81.042969 L 43.054688 74.671875 L 39.625 75.71875 C 36.261719 76.984375 33.183594 78.792969 30.390625 81.140625 L 29.535156 80.664062 L 22.773438 86.277344 L 22.203125 86.941406 L 19.253906 90.746094 C 15.953125 95.058594 13.03125 100.734375 10.492188 107.773438 C 6.746094 117.984375 4.464844 128.953125 3.636719 140.683594 L 3.636719 142.777344 L 3.734375 143.160156 C 4.304688 144.425781 5.097656 145.601562 6.113281 146.679688 C 7.761719 148.582031 9.574219 149.59375 11.539062 149.722656 C 14.523438 150.039062 16.523438 149.816406 17.539062 149.054688 L 17.253906 148.867188 L 15.632812 148.867188 L 15.730469 148.675781 L 16.96875 145.347656 L 17.0625 145.0625 L 17.0625 144.679688 L 17.15625 144.492188 C 19.761719 137.199219 22.042969 131.523438 24.011719 127.464844 C 26.679688 122.136719 29.628906 117.664062 32.867188 114.050781 L 37.628906 109.582031 C 38.136719 109.199219 38.675781 109.199219 39.246094 109.582031 C 39.753906 110.023438 39.691406 110.46875 39.054688 110.914062 L 35.34375 114.335938 C 33.183594 116.683594 31.121094 119.632812 29.152344 123.183594 L 29.058594 123.5625 L 30.960938 120.425781 L 24.394531 133.835938 L 21.0625 140.972656 L 19.632812 144.492188 C 19.125 146.011719 19 147.027344 19.253906 147.535156 C 19.378906 148.042969 20.203125 148.738281 21.726562 149.625 C 25.027344 151.71875 28.457031 153.335938 32.011719 154.476562 C 35.628906 155.554688 38.929688 156.03125 41.910156 155.90625 C 41.65625 151.402344 41.65625 147.503906 41.910156 144.203125 C 42.164062 139.765625 42.832031 135.769531 43.910156 132.21875 C 44.863281 126.132812 45.847656 119.125 46.863281 111.199219 L 47.433594 103.96875 L 48.386719 96.835938 C 48.765625 94.996094 49.71875 93.15625 51.242188 91.316406 L 51.8125 90.746094 L 51.8125 90.652344 C 49.972656 91.664062 47.972656 92.523438 45.816406 93.21875 L 36.867188 92.742188 C 34.199219 91.664062 31.628906 89.953125 29.152344 87.605469 C 28.898438 87.355469 28.964844 87.035156 29.34375 86.65625 L 30.296875 85.800781 C 33.152344 85.164062 35.628906 83.582031 37.722656 81.042969 M 46.386719 74.195312 L 44.101562 75.621094 L 38.960938 81.996094 L 34.769531 85.703125 L 32.011719 87.035156 C 37.46875 91.601562 43.023438 92.742188 48.671875 90.460938 L 51.242188 89.320312 C 50.097656 86.148438 49.371094 82.882812 49.050781 79.523438 L 48.957031 75.621094 L 48.863281 74.386719 L 45.816406 74.957031 L 46.386719 74.195312 M 53.050781 83.328125 C 52.417969 82.25 51.875 80.789062 51.433594 78.953125 L 51.8125 82.851562 L 53.242188 87.988281 L 54.765625 86.941406 L 55.242188 86.5625 L 53.050781 83.328125 M 56.003906 87.511719 L 53.90625 89.796875 L 55.429688 93.316406 C 56.445312 95.976562 56.734375 99.148438 56.289062 102.828125 C 55.972656 105.238281 55.210938 108.3125 54.003906 112.054688 C 53.242188 114.527344 52.003906 117.855469 50.289062 122.042969 L 46.292969 131.933594 C 45.53125 134.152344 44.988281 136.5625 44.671875 139.164062 L 46.003906 139.355469 L 54.195312 138.78125 L 55.050781 136.976562 C 55.558594 136.40625 56.734375 136.054688 58.574219 135.929688 L 59.050781 135.929688 L 59.335938 135.453125 C 59.96875 134.503906 60.699219 132.566406 61.523438 129.652344 L 63.144531 122.898438 C 63.585938 119.601562 63.875 115.730469 64 111.292969 L 64.09375 102.351562 L 63.332031 98.070312 C 62.699219 95.976562 61.621094 93.980469 60.097656 92.078125 L 56.382812 87.796875 L 56.003906 87.511719 M 52.289062 91.792969 L 50.480469 95.121094 C 49.910156 96.769531 49.589844 98.769531 49.527344 101.113281 C 49.464844 103.523438 49.019531 107.644531 48.195312 113.480469 L 46.578125 125.085938 L 49.050781 118.808594 C 51.210938 113.605469 52.636719 109.296875 53.335938 105.871094 C 54.542969 100.542969 54.226562 95.945312 52.382812 92.078125 L 52.289062 91.792969 M 93.515625 97.023438 L 92.371094 95.3125 L 90.753906 91.601562 L 88.660156 87.988281 C 87.644531 86.71875 86.5 86.371094 85.230469 86.941406 L 79.710938 88.179688 L 79.804688 88.179688 C 80.820312 89.003906 81.644531 89.953125 82.28125 91.03125 L 86.5625 94.835938 C 89.230469 96.800781 91.707031 97.785156 93.992188 97.785156 L 93.515625 97.023438 M 77.710938 89.507812 L 77.519531 88.652344 C 76.1875 89.097656 75.109375 89.667969 74.28125 90.367188 C 73.332031 91.886719 71.617188 93.886719 69.140625 96.359375 C 67.238281 98.640625 66.285156 100.957031 66.285156 103.300781 C 66.285156 109.515625 66.125 114.527344 65.808594 118.332031 C 65.300781 125.054688 64.09375 130.730469 62.191406 135.359375 L 62 136.023438 L 62.476562 135.929688 L 65.429688 135.929688 C 66 136.308594 66.410156 137.070312 66.664062 138.210938 L 68.949219 137.546875 L 69.238281 137.453125 L 70.664062 136.5 L 72.1875 132.410156 L 77.710938 117.953125 C 80.25 110.914062 81.707031 106.0625 82.089844 103.398438 C 82.722656 98.769531 82.058594 94.996094 80.089844 92.078125 L 77.710938 89.507812 M 72.949219 89.222656 L 73.332031 88.9375 L 73.042969 88.9375 C 71.710938 90.335938 70.0625 91.191406 68.09375 91.507812 L 62.476562 91.125 L 62.382812 91.125 C 63.714844 92.902344 64.667969 94.679688 65.238281 96.453125 L 65.523438 97.308594 L 67.523438 94.835938 L 72.570312 89.605469 L 72.949219 89.222656 M 70.378906 109.769531 L 70.378906 109.960938 L 69.710938 110.914062 L 68.476562 110.816406 C 68.15625 110.308594 68.125 109.582031 68.378906 108.628906 L 68.855469 107.964844 L 69.523438 107.582031 C 70.03125 107.582031 70.253906 107.835938 70.1875 108.34375 L 70.378906 108.535156 C 70.761719 108.789062 70.761719 109.199219 70.378906 109.769531 M 65.902344 127.367188 L 66.09375 126.605469 L 66.570312 125.847656 L 66.761719 125.277344 C 66.699219 124.769531 67.140625 124.609375 68.09375 124.800781 C 68.730469 124.992188 69.046875 125.339844 69.046875 125.847656 L 68.476562 127.9375 C 68.347656 128.320312 68.03125 128.476562 67.523438 128.414062 L 66.476562 128.222656 L 65.902344 127.367188 M 4.875 148.484375 L 2.6875 145.726562 L 2.210938 150.671875 C 2.464844 155.113281 3.414062 158.980469 5.066406 162.277344 C 5.574219 163.292969 6.175781 163.925781 6.875 164.179688 L 7.921875 164.371094 L 6.78125 161.042969 C 5.953125 158.695312 5.734375 157.238281 6.113281 156.664062 C 6.304688 156.414062 7.066406 158.15625 8.398438 161.898438 C 9.351562 164.179688 10.367188 165.828125 11.445312 166.84375 C 12.207031 167.605469 12.96875 168.046875 13.730469 168.175781 L 14.492188 168.082031 L 14.015625 166.84375 L 12.585938 163.039062 C 11.445312 159.679688 11.191406 157.839844 11.824219 157.523438 L 13.730469 161.992188 L 15.730469 166.84375 L 16.394531 168.175781 C 18.238281 171.28125 19.601562 172.582031 20.488281 172.074219 C 21.0625 171.757812 20.871094 170.015625 19.917969 166.84375 L 19.726562 166.273438 L 19.441406 165.417969 L 17.15625 156.761719 L 17.15625 156.285156 L 19.15625 156.570312 L 22.679688 157.425781 L 25.917969 157.140625 C 26.804688 156.824219 27.058594 156.378906 26.679688 155.808594 L 26.203125 155.429688 L 25.34375 155.046875 C 23.632812 154.351562 22.332031 153.71875 21.441406 153.144531 L 18.964844 150.671875 C 18.777344 150.800781 18.492188 150.957031 18.109375 151.148438 L 11.636719 151.816406 C 9.222656 151.5625 6.96875 150.453125 4.875 148.484375 M 17.824219 149.339844 L 17.824219 149.4375 L 17.917969 149.339844 L 17.824219 149.339844 M 74.757812 137.453125 L 75.617188 136.023438 C 74.410156 136.722656 73.171875 137.324219 71.902344 137.832031 L 70.949219 138.402344 L 70.761719 138.59375 L 71.519531 140.972656 L 71.617188 142.398438 L 71.808594 142.015625 L 74.757812 137.453125 M 68.570312 139.542969 L 68.570312 141.542969 L 69.238281 143.0625 C 70 143.507812 70.410156 143.632812 70.472656 143.445312 C 70.726562 142.808594 70.726562 141.921875 70.472656 140.78125 L 69.808594 139.066406 L 68.570312 139.542969 M 67.714844 139.925781 L 66.855469 140.210938 L 67.523438 146.679688 L 67.808594 148.296875 C 68.570312 147.789062 69.046875 147.25 69.238281 146.679688 L 70.378906 144.394531 C 69.746094 144.648438 69.171875 144.523438 68.664062 144.015625 C 68.15625 143.570312 67.871094 143 67.808594 142.300781 L 67.714844 139.925781 M 64.09375 138.972656 L 65.523438 138.496094 C 65.269531 137.355469 64.378906 136.722656 62.859375 136.59375 L 61.621094 136.691406 L 60.761719 138.023438 L 60.382812 138.78125 L 61.429688 138.59375 L 63.621094 138.59375 L 64.09375 138.972656 M 59.335938 140.019531 L 62.097656 139.640625 L 60.097656 139.925781 L 59.335938 140.019531 M 60.953125 142.777344 L 61.335938 142.585938 L 64.191406 142.585938 L 64 141.257812 L 64 141.160156 L 63.808594 141.160156 L 57.90625 142.015625 L 58.667969 148.582031 L 58.859375 149.914062 C 58.984375 150.292969 59.335938 150.453125 59.90625 150.386719 L 64.761719 149.914062 L 64.761719 147.914062 L 64.570312 146.296875 L 64 146.488281 L 61.808594 146.582031 C 61.046875 146.328125 60.574219 145.886719 60.382812 145.25 C 60.066406 144.554688 60.066406 143.824219 60.382812 143.0625 L 60.953125 142.777344 M 61.238281 143.824219 C 60.921875 144.777344 61.367188 145.316406 62.570312 145.441406 L 64.09375 145.25 L 64.476562 145.0625 L 64.285156 143.730469 L 63.808594 143.632812 L 61.335938 143.824219 L 61.238281 143.824219 M 64.761719 142.585938 L 64.953125 142.585938 C 65.523438 142.714844 65.902344 142.96875 66.09375 143.347656 L 65.808594 140.589844 L 64.667969 140.972656 L 64.761719 142.585938 M 65.808594 145.15625 L 65.140625 145.917969 L 65.429688 147.722656 L 65.429688 150.101562 C 65.238281 150.800781 64.570312 151.210938 63.429688 151.339844 L 60.761719 151.527344 L 58.667969 151.339844 L 58.097656 149.339844 L 57.429688 143.632812 L 57.238281 141.828125 L 57.238281 141.730469 L 56.574219 141.257812 L 56.667969 140.496094 L 57.050781 139.925781 L 55.527344 140.589844 L 56.667969 150.769531 L 57.238281 152.859375 C 57.621094 153.367188 58.289062 153.589844 59.238281 153.527344 L 63.046875 153.144531 L 65.238281 153.050781 C 66.316406 152.859375 66.855469 152.511719 66.855469 152.003906 L 66.761719 149.4375 L 66.191406 144.492188 L 65.808594 145.15625 M 65.238281 144.203125 C 65.363281 144.015625 65.269531 143.886719 64.953125 143.824219 L 64.953125 144.585938 L 65.238281 144.203125 M 59.050781 154.382812 C 57.652344 154.445312 56.765625 154.289062 56.382812 153.90625 L 44.292969 154.574219 L 44.386719 156.570312 C 44.386719 157.203125 43.972656 157.554688 43.148438 157.617188 C 38.832031 158.0625 33.976562 157.238281 28.582031 155.144531 L 28.582031 155.429688 C 28.710938 156.191406 28.519531 156.855469 28.011719 157.425781 C 26.867188 158.632812 24.742188 159.042969 21.632812 158.664062 L 19.539062 158.28125 L 21.347656 164.847656 L 21.535156 165.703125 L 21.917969 166.84375 L 22.679688 170.457031 C 22.804688 171.535156 22.648438 172.394531 22.203125 173.027344 L 27.628906 178.925781 L 36.007812 187.867188 C 36.261719 188.183594 36.199219 188.816406 35.816406 189.769531 C 35.4375 190.78125 35.121094 191.164062 34.867188 190.910156 L 32.867188 188.625 C 32.105469 195.414062 31.722656 200.261719 31.722656 203.179688 C 31.660156 207.367188 32.011719 212.535156 32.773438 218.683594 L 32.773438 218.78125 L 33.4375 219.160156 C 34.515625 219.730469 36.359375 220.175781 38.960938 220.492188 C 46.832031 221.445312 53.082031 220.777344 57.714844 218.496094 C 58.160156 218.304688 58.667969 218.019531 59.238281 217.640625 L 59.335938 217.542969 L 59.429688 217.355469 L 60.191406 215.261719 L 61.335938 211.933594 L 61.429688 211.644531 L 62.761719 206.890625 L 62.570312 206.128906 L 62.953125 206.222656 L 64.570312 197.949219 C 65.394531 193.066406 65.683594 188.976562 65.429688 185.679688 C 65.238281 182.507812 64.570312 179.144531 63.429688 175.59375 C 62.414062 172.488281 61.144531 169.570312 59.621094 166.84375 L 57.90625 164.179688 L 57.527344 163.703125 C 57.273438 163.386719 57.335938 162.722656 57.714844 161.707031 L 58.667969 160.660156 C 59.875 162.246094 61.082031 164.308594 62.285156 166.84375 L 63.046875 168.554688 C 65.207031 173.503906 66.476562 179.875 66.855469 187.675781 C 67.046875 191.355469 66.0625 197.566406 63.90625 206.320312 L 70 207.082031 L 77.425781 206.128906 C 79.074219 205.496094 80.027344 204.828125 80.28125 204.132812 C 82.820312 198.171875 84.851562 192.652344 86.375 187.582031 C 87.707031 183.203125 88.53125 179.558594 88.847656 176.640625 C 89.167969 172.964844 88.882812 169.699219 87.992188 166.84375 L 87.515625 165.703125 C 86.246094 162.660156 83.835938 159.550781 80.28125 156.378906 L 71.234375 148.960938 L 70.1875 149.914062 C 69.617188 150.355469 68.949219 150.769531 68.1875 151.148438 C 68.125 152.035156 67.902344 152.671875 67.523438 153.050781 C 66.886719 153.683594 65.554688 154.066406 63.523438 154.191406 L 59.050781 154.382812 M 55.71875 138.402344 L 57.8125 137.261719 L 56.191406 137.738281 L 55.71875 138.402344 M 51.148438 141.921875 L 48.863281 141.921875 C 49.433594 143 49.75 144.554688 49.8125 146.582031 C 49.878906 147.28125 49.78125 147.914062 49.527344 148.484375 L 48.289062 149.625 C 47.65625 149.691406 47.339844 148.613281 47.339844 146.394531 L 47.527344 142.207031 L 47.816406 141.921875 L 45.148438 141.828125 C 45.785156 142.90625 46.195312 144.523438 46.386719 146.679688 C 46.386719 147.3125 46.292969 147.882812 46.101562 148.390625 C 45.785156 149.152344 45.371094 149.5625 44.863281 149.625 C 44.480469 149.691406 44.226562 149.40625 44.101562 148.769531 L 44.195312 152.671875 L 51.335938 152.289062 L 55.71875 151.816406 L 55.621094 151.148438 L 54.480469 142.015625 L 54.480469 141.828125 L 52.765625 141.921875 L 53.527344 146.011719 C 53.527344 146.582031 53.433594 147.183594 53.242188 147.820312 C 52.925781 148.453125 52.511719 148.835938 52.003906 148.960938 C 51.242188 149.023438 50.859375 147.945312 50.859375 145.726562 L 51.148438 141.921875 M 51.433594 144.394531 L 51.910156 147.34375 L 52.480469 147.722656 C 52.734375 147.535156 52.828125 147.183594 52.765625 146.679688 L 52.671875 145.632812 C 52.417969 143.917969 52.097656 142.714844 51.71875 142.015625 L 51.433594 144.394531 M 44.578125 141.828125 L 44.671875 141.730469 L 44.386719 141.730469 L 44.386719 142.015625 L 44.578125 141.828125 M 44.480469 144.964844 L 44.769531 148.105469 C 44.894531 148.613281 45.117188 148.707031 45.433594 148.390625 C 45.75 148.136719 45.785156 147.4375 45.53125 146.296875 C 45.277344 144.585938 44.957031 143.378906 44.578125 142.683594 L 44.480469 144.964844 M 47.816406 145.0625 L 48.289062 148.007812 C 48.417969 148.515625 48.640625 148.644531 48.957031 148.390625 L 49.148438 147.34375 L 48.957031 146.296875 C 48.765625 144.585938 48.449219 143.378906 48.003906 142.683594 L 47.816406 145.0625 M 63.523438 207.9375 L 63.046875 209.742188 L 62.382812 212.027344 L 66 212.3125 L 66.953125 211.074219 L 67.140625 211.074219 L 67.332031 211.171875 C 70.1875 213.007812 73.394531 214.339844 76.949219 215.164062 L 87.230469 215.832031 C 91.738281 214.753906 93.515625 213.800781 92.5625 212.976562 C 89.832031 210.503906 86.121094 208.378906 81.421875 206.605469 L 81.328125 206.605469 C 80.691406 207.175781 79.644531 207.683594 78.1875 208.125 L 71.046875 208.886719 L 63.808594 208.03125 L 63.523438 207.9375 M 35.246094 223.25 L 35.4375 224.203125 C 35.882812 225.722656 36.800781 226.960938 38.199219 227.914062 C 39.46875 228.671875 40.894531 229.023438 42.484375 228.957031 L 43.910156 226.867188 L 44.292969 226.675781 C 51.148438 229.71875 58 231.050781 64.855469 230.671875 L 71.617188 229.433594 L 73.332031 228.769531 C 72.886719 228.199219 71.839844 227.4375 70.1875 226.484375 C 68.601562 225.660156 66.699219 224.835938 64.476562 224.011719 L 57.527344 221.539062 C 56.128906 222.238281 54.382812 222.839844 52.289062 223.347656 L 41.4375 224.011719 L 35.246094 223.25 "/>
<path style=" stroke:none;fill-rule:nonzero;fill:rgb(100%,100%,100%);fill-opacity:1;" d="M 97.800781 31.105469 L 100.464844 31.105469 L 110.9375 31.199219 C 115.0625 31.453125 118.425781 32.183594 121.03125 33.386719 C 122.554688 34.085938 123.472656 34.78125 123.789062 35.480469 C 124.042969 36.179688 123.917969 36.8125 123.410156 37.382812 L 121.695312 38.429688 L 117.601562 39.761719 L 113.507812 41.1875 C 111.476562 41.886719 109.160156 43.691406 106.558594 46.609375 C 103.890625 49.527344 101.605469 51.398438 99.703125 52.222656 L 99.609375 49.273438 L 101.894531 46.417969 C 103.035156 44.644531 103.480469 43.121094 103.226562 41.855469 C 102.910156 40.523438 101.859375 39.285156 100.085938 38.144531 L 95.515625 36.050781 C 89.609375 33.769531 83.707031 32.308594 77.804688 31.675781 C 71.078125 30.851562 65.015625 31.167969 59.621094 32.625 C 56.003906 33.640625 52.796875 34.972656 50.003906 36.621094 C 46.640625 38.523438 44.039062 40.777344 42.199219 43.375 C 40.800781 45.46875 40.167969 47.117188 40.292969 48.320312 C 40.292969 49.589844 41.085938 50.605469 42.671875 51.367188 C 43.753906 51.9375 44.832031 52.222656 45.910156 52.222656 L 44.863281 53.742188 L 44.386719 54.980469 L 34.484375 53.269531 C 30.296875 52.253906 26.710938 50.984375 23.726562 49.464844 C 21.570312 48.386719 20.078125 47.308594 19.253906 46.230469 C 18.046875 44.707031 17.855469 43.058594 18.679688 41.28125 C 20.710938 36.71875 25.726562 32.691406 33.722656 29.203125 C 41.085938 26.09375 48.355469 24.667969 55.527344 24.921875 L 68.476562 26.347656 L 81.234375 28.726562 C 87.515625 30.121094 93.039062 30.914062 97.800781 31.105469 M 97.132812 23.589844 L 97.703125 29.203125 L 87.421875 27.777344 L 76.757812 25.683594 L 64.855469 23.496094 L 52.859375 22.925781 L 47.242188 23.496094 L 49.625 17.691406 L 52.003906 12.175781 C 53.144531 10.082031 54.574219 8.75 56.289062 8.179688 L 62.285156 6.660156 L 68.476562 5.421875 L 74.855469 3.804688 L 81.421875 3.042969 C 83.898438 3.042969 85.613281 3.457031 86.5625 4.28125 L 88.46875 6.847656 L 89.992188 9.894531 L 94.5625 16.933594 C 95.769531 18.835938 96.625 21.054688 97.132812 23.589844 M 97.703125 47.085938 C 96.5625 46.703125 95.515625 45.785156 94.5625 44.328125 L 93.230469 40.902344 C 92.339844 38.683594 91.640625 37.320312 91.132812 36.8125 L 97.703125 39.476562 C 101.195312 41.503906 102.464844 43.40625 101.511719 45.183594 L 100.65625 46.609375 L 100.085938 46.894531 L 97.703125 47.085938 M 98.085938 48.320312 L 99.417969 48.226562 L 98.371094 49.75 L 98.085938 48.320312 M 99.035156 54.21875 L 99.035156 54.027344 L 99.417969 53.839844 L 99.035156 54.21875 M 97.324219 61.066406 C 97.003906 63.859375 96.402344 66.492188 95.515625 68.964844 C 94.179688 72.453125 92.246094 75.683594 89.707031 78.664062 C 88.183594 80.441406 86.5625 81.964844 84.851562 83.230469 L 84.753906 83.136719 C 84.375 82.882812 84.28125 82.976562 84.46875 83.421875 L 82.945312 84.46875 C 82.25 84.085938 81.898438 84.085938 81.898438 84.46875 L 81.996094 85.039062 L 80.472656 85.800781 L 79.042969 86.179688 L 76.757812 87.035156 L 73.234375 87.703125 L 64.191406 87.035156 L 62.285156 86.371094 L 61.238281 85.894531 L 61.046875 85.894531 L 62.667969 87.511719 C 63.875 88.335938 64.792969 88.84375 65.429688 89.035156 L 65.714844 89.128906 L 62.761719 88.9375 C 61.113281 88.433594 59.523438 87.542969 58 86.277344 C 56.667969 84.753906 55.589844 83.167969 54.765625 81.519531 L 52.957031 76.761719 L 52.957031 76.382812 C 54.226562 78.03125 55.496094 79.078125 56.765625 79.523438 L 57.429688 79.425781 C 57.558594 79.300781 57.460938 79.046875 57.144531 78.664062 C 54.859375 75.9375 53.082031 72.703125 51.8125 68.964844 L 50.574219 64.300781 L 49.8125 64.207031 C 47.273438 63.382812 45.878906 61.605469 45.625 58.878906 C 45.308594 56.089844 46.480469 54.1875 49.148438 53.171875 L 49.625 52.601562 L 47.816406 52.601562 L 48.195312 51.652344 L 48.195312 51.554688 L 50.574219 49.75 L 54.382812 47.085938 L 57.144531 46.132812 C 57.652344 46.007812 57.96875 45.785156 58.097656 45.46875 C 58.160156 45.085938 58.066406 44.867188 57.8125 44.800781 L 57.621094 44.800781 C 56.605469 44.867188 55.367188 45.277344 53.90625 46.039062 L 50.480469 48.417969 L 48.195312 50.605469 L 48.289062 49.464844 L 50.765625 47.085938 L 54.667969 44.328125 L 59.144531 42.328125 C 59.460938 42.265625 59.621094 42.074219 59.621094 41.757812 L 59.144531 41.28125 L 58.859375 41.1875 C 58.160156 41.25 56.574219 41.949219 54.097656 43.28125 L 48.671875 48.132812 C 49.558594 45.277344 51.527344 43.089844 54.574219 41.566406 L 59.8125 39.855469 C 60.320312 39.730469 60.539062 39.476562 60.476562 39.09375 L 60.191406 38.621094 C 58.859375 37.289062 58.222656 35.988281 58.289062 34.71875 L 66 33.386719 L 67.140625 33.386719 L 69.425781 34.71875 L 71.710938 34.433594 L 73.617188 33.484375 L 80.375 34.339844 L 80.472656 34.433594 C 81.867188 35.828125 83.011719 36.683594 83.898438 37.003906 L 85.800781 37.097656 L 87.039062 36.90625 L 89.230469 37.003906 L 90.085938 37.476562 L 91.894531 41.378906 L 93.324219 44.898438 C 94.210938 46.292969 95.195312 47.277344 96.277344 47.847656 C 97.417969 52.539062 97.765625 56.945312 97.324219 61.066406 M 98.085938 102.066406 C 99.863281 106.695312 102.019531 113.703125 104.558594 123.085938 C 106.589844 128.921875 108.492188 133.488281 110.269531 136.785156 L 111.890625 139.257812 C 111.191406 140.589844 110.015625 141.953125 108.367188 143.347656 C 107.160156 144.300781 105.574219 145.125 103.605469 145.820312 C 100.558594 146.898438 98.464844 147.121094 97.324219 146.488281 C 93.703125 144.585938 90.5625 142.046875 87.898438 138.878906 C 85.296875 135.769531 83.421875 132.410156 82.28125 128.796875 C 85.007812 122.261719 86.753906 116.015625 87.515625 110.054688 C 87.578125 109.613281 87.199219 109.167969 86.375 108.722656 L 85.136719 108.628906 C 84.246094 115.476562 81.929688 122.929688 78.1875 130.984375 L 77.804688 131.078125 L 73.804688 133.933594 L 76.851562 125.847656 L 81.234375 114.335938 C 82.691406 109.960938 83.707031 106.027344 84.28125 102.542969 C 84.597656 100.066406 84.566406 97.847656 84.183594 95.882812 L 85.515625 96.835938 C 89.007812 99.242188 92.277344 100.101562 95.324219 99.402344 C 96.085938 99.277344 96.53125 99.023438 96.65625 98.640625 L 98.085938 102.066406 M 104.273438 148.199219 L 102.558594 148.390625 C 102.304688 150.671875 102.78125 152.257812 103.988281 153.144531 L 102.367188 156.761719 L 100.75 160.660156 C 100.371094 162.054688 100.464844 163.101562 101.035156 163.800781 L 101.132812 163.894531 C 98.847656 165.480469 97.324219 165.765625 96.5625 164.75 C 96.054688 164.117188 96.496094 163.070312 97.894531 161.613281 L 100.179688 158.855469 L 100.085938 158.855469 L 99.894531 158.757812 L 97.417969 160.566406 C 95.957031 161.515625 94.972656 161.613281 94.464844 160.851562 C 94.085938 160.40625 94.972656 159.140625 97.132812 157.046875 L 100.75 153.621094 L 99.988281 151.527344 L 99.703125 149.054688 L 99.796875 148.582031 L 102.75 148.296875 C 104.398438 147.976562 106.113281 147.34375 107.890625 146.394531 C 109.796875 145.378906 111.285156 144.109375 112.367188 142.585938 L 114.652344 147.152344 C 115.347656 149.308594 115.414062 151.910156 114.839844 154.953125 C 114.078125 158.886719 111.285156 162.785156 106.464844 166.652344 L 105.414062 167.414062 L 104.367188 167.984375 C 102.019531 169 100.464844 169.125 99.703125 168.367188 L 99.324219 167.320312 L 99.417969 166.84375 L 99.703125 166.367188 L 101.320312 164.5625 L 101.511719 164.179688 C 102.273438 164.625 103.417969 164.625 104.941406 164.179688 C 107.730469 163.292969 109.953125 160.914062 111.605469 157.046875 C 112.808594 154.003906 113.316406 151.910156 113.128906 150.769531 C 113.0625 150.324219 112.746094 150.070312 112.175781 150.007812 C 111.667969 149.878906 111.351562 150.039062 111.222656 150.484375 L 109.796875 156.191406 C 108.460938 159.613281 106.652344 161.675781 104.367188 162.375 L 102.84375 162.660156 L 102.464844 162.5625 C 102.148438 162.183594 102.6875 160.535156 104.082031 157.617188 L 106.367188 152.386719 L 105.605469 151.910156 L 104.84375 151.054688 C 104.335938 150.292969 104.144531 149.339844 104.273438 148.199219 M 77.042969 8.371094 C 80.027344 8.496094 81.421875 9.132812 81.234375 10.273438 C 81.105469 10.90625 79.964844 11.636719 77.804688 12.460938 C 73.617188 14.238281 68.03125 15.855469 61.046875 17.3125 L 60.574219 18.261719 L 69.425781 16.074219 L 75.234375 14.457031 C 77.519531 13.632812 79.296875 12.683594 80.566406 11.605469 C 81.582031 10.71875 81.960938 9.894531 81.707031 9.132812 C 81.390625 8.308594 80.535156 7.769531 79.136719 7.515625 L 67.902344 7.800781 L 67.425781 8.371094 L 67.332031 8.847656 L 77.042969 8.371094 M 48.765625 38.808594 C 50.671875 37.605469 52.765625 36.589844 55.050781 35.765625 L 56.480469 35.289062 L 56.574219 35.765625 L 58.382812 38.90625 L 53.90625 40.710938 C 51.496094 41.980469 49.625 43.789062 48.289062 46.132812 L 48.578125 39.953125 L 48.765625 38.808594 M 69.140625 33.386719 L 68.949219 33.292969 L 70 33.292969 L 69.425781 33.484375 L 69.140625 33.386719 M 83.421875 34.910156 L 83.519531 34.910156 L 86.46875 35.671875 L 85.136719 35.859375 L 84.566406 35.765625 L 83.421875 34.910156 M 90.847656 48.988281 L 94.464844 50.320312 C 95.101562 50.507812 95.195312 50.351562 94.753906 49.84375 L 91.992188 46.609375 L 91.609375 46.324219 C 91.230469 46.199219 90.945312 46.355469 90.753906 46.800781 L 90.277344 47.5625 L 90.277344 48.417969 L 90.847656 48.988281 M 82.28125 61.542969 C 82.40625 62.113281 82.214844 62.589844 81.707031 62.972656 L 79.328125 64.683594 L 79.042969 65.253906 L 79.421875 65.730469 L 79.613281 65.917969 L 80.28125 66.300781 L 81.613281 66.109375 L 84.566406 63.730469 L 84.945312 63.160156 L 84.945312 62.304688 L 82.851562 56.503906 L 82.183594 52.414062 L 81.613281 51.367188 L 81.136719 52.222656 L 81.136719 53.839844 L 81.519531 57.359375 L 82.28125 61.542969 M 89.992188 54.886719 L 88.847656 56.882812 L 88.753906 59.164062 C 88.882812 59.863281 89.167969 60.277344 89.609375 60.402344 L 89.707031 60.402344 C 90.152344 60.527344 90.625 60.339844 91.132812 59.832031 C 91.640625 59.324219 91.992188 58.660156 92.183594 57.835938 C 92.4375 57.007812 92.5 56.25 92.371094 55.550781 L 91.421875 54.316406 C 90.976562 54.1875 90.5 54.378906 89.992188 54.886719 M 73.710938 39.953125 L 71.140625 41.1875 C 69.425781 42.203125 68.570312 43.121094 68.570312 43.945312 L 70.09375 43.757812 L 72.28125 43.183594 L 75.234375 42.898438 C 75.488281 42.710938 75.328125 41.917969 74.757812 40.523438 L 74.1875 39.953125 L 73.710938 39.953125 M 69.902344 50.890625 L 69.808594 53.171875 L 70.664062 54.410156 L 70.761719 54.410156 C 71.203125 54.535156 71.679688 54.347656 72.1875 53.839844 C 72.695312 53.332031 73.042969 52.664062 73.234375 51.839844 C 73.488281 51.015625 73.550781 50.257812 73.425781 49.558594 C 73.234375 48.859375 72.917969 48.449219 72.472656 48.320312 L 71.046875 48.894531 L 69.902344 50.890625 M 72.949219 77.808594 L 72.949219 78.476562 L 73.425781 79.140625 L 74.28125 79.617188 L 76.1875 79.996094 L 77.996094 79.710938 L 78.375 79.425781 L 77.996094 79.140625 L 74.28125 77.429688 L 73.519531 77.335938 L 72.949219 77.808594 M 75.996094 75.335938 C 76.1875 76.222656 76.535156 76.730469 77.042969 76.859375 C 77.550781 76.984375 78.089844 76.730469 78.660156 76.097656 C 79.234375 75.464844 79.644531 74.640625 79.898438 73.625 C 80.21875 72.546875 80.28125 71.59375 80.089844 70.769531 C 79.964844 69.945312 79.644531 69.472656 79.136719 69.34375 C 78.628906 69.21875 78.089844 69.472656 77.519531 70.105469 L 76.1875 72.578125 L 75.996094 75.335938 M 51.242188 51.460938 L 51.335938 51.746094 C 51.464844 51.746094 51.875 51.523438 52.574219 51.082031 L 54.195312 50.222656 L 56.289062 49.558594 C 56.734375 49.433594 56.953125 49.210938 56.953125 48.894531 L 56.574219 48.320312 L 56.382812 48.320312 L 53.71875 49.179688 L 52.003906 50.320312 L 51.242188 51.460938 M 45.53125 41.1875 L 46.578125 40.332031 L 46.863281 40.902344 L 47.625 43.089844 L 47.148438 47.371094 L 46.292969 50.222656 L 43.625 49.273438 C 41.976562 48.386719 41.277344 47.339844 41.53125 46.132812 C 41.976562 44.675781 43.308594 43.027344 45.53125 41.1875 M 55.429688 51.839844 L 55.144531 51.746094 L 53.71875 52.316406 L 52.574219 53.457031 C 52.449219 53.902344 52.574219 54.1875 52.957031 54.316406 C 53.273438 54.441406 53.496094 54.347656 53.621094 54.027344 L 54.574219 53.269531 L 55.335938 52.886719 C 55.652344 52.824219 55.8125 52.664062 55.8125 52.414062 L 55.429688 51.839844 M 65.902344 127.367188 L 66.476562 128.222656 L 67.523438 128.414062 C 68.03125 128.476562 68.347656 128.320312 68.476562 127.9375 L 69.046875 125.847656 C 69.046875 125.339844 68.730469 124.992188 68.09375 124.800781 C 67.140625 124.609375 66.699219 124.769531 66.761719 125.277344 L 66.570312 125.847656 L 66.09375 126.605469 L 65.902344 127.367188 M 70.378906 109.769531 C 70.761719 109.199219 70.761719 108.789062 70.378906 108.535156 L 70.1875 108.34375 C 70.253906 107.835938 70.03125 107.582031 69.523438 107.582031 L 68.855469 107.964844 L 68.378906 108.628906 C 68.125 109.582031 68.15625 110.308594 68.476562 110.816406 L 69.710938 110.914062 L 70.378906 109.960938 L 70.378906 109.769531 M 72.949219 89.222656 L 72.570312 89.605469 L 67.523438 94.835938 L 65.523438 97.308594 L 65.238281 96.453125 C 64.667969 94.679688 63.714844 92.902344 62.382812 91.125 L 62.476562 91.125 L 68.09375 91.507812 C 70.0625 91.191406 71.710938 90.335938 73.042969 88.9375 L 73.332031 88.9375 L 72.949219 89.222656 M 77.710938 89.507812 L 80.089844 92.078125 C 82.058594 94.996094 82.722656 98.769531 82.089844 103.398438 C 81.707031 106.0625 80.25 110.914062 77.710938 117.953125 L 72.1875 132.410156 L 70.664062 136.5 L 69.238281 137.453125 L 68.949219 137.546875 L 66.664062 138.210938 C 66.410156 137.070312 66 136.308594 65.429688 135.929688 L 62.476562 135.929688 L 62 136.023438 L 62.191406 135.359375 C 64.09375 130.730469 65.300781 125.054688 65.808594 118.332031 C 66.125 114.527344 66.285156 109.515625 66.285156 103.300781 C 66.285156 100.957031 67.238281 98.640625 69.140625 96.359375 C 71.617188 93.886719 73.332031 91.886719 74.28125 90.367188 C 75.109375 89.667969 76.1875 89.097656 77.519531 88.652344 L 77.710938 89.507812 M 93.515625 97.023438 L 93.992188 97.785156 C 91.707031 97.785156 89.230469 96.800781 86.5625 94.835938 L 82.28125 91.03125 C 81.644531 89.953125 80.820312 89.003906 79.804688 88.179688 L 79.710938 88.179688 L 85.230469 86.941406 C 86.5 86.371094 87.644531 86.71875 88.660156 87.988281 L 90.753906 91.601562 L 92.371094 95.3125 L 93.515625 97.023438 M 52.289062 91.792969 L 52.382812 92.078125 C 54.226562 95.945312 54.542969 100.542969 53.335938 105.871094 C 52.636719 109.296875 51.210938 113.605469 49.050781 118.808594 L 46.578125 125.085938 L 48.195312 113.480469 C 49.019531 107.644531 49.464844 103.523438 49.527344 101.113281 C 49.589844 98.769531 49.910156 96.769531 50.480469 95.121094 L 52.289062 91.792969 M 56.003906 87.511719 L 56.382812 87.796875 L 60.097656 92.078125 C 61.621094 93.980469 62.699219 95.976562 63.332031 98.070312 L 64.09375 102.351562 L 64 111.292969 C 63.875 115.730469 63.585938 119.601562 63.144531 122.898438 L 61.523438 129.652344 C 60.699219 132.566406 59.96875 134.503906 59.335938 135.453125 L 59.050781 135.929688 L 58.574219 135.929688 C 56.734375 136.054688 55.558594 136.40625 55.050781 136.976562 L 54.195312 138.78125 L 46.003906 139.355469 L 44.671875 139.164062 C 44.988281 136.5625 45.53125 134.152344 46.292969 131.933594 L 50.289062 122.042969 C 52.003906 117.855469 53.242188 114.527344 54.003906 112.054688 C 55.210938 108.3125 55.972656 105.238281 56.289062 102.828125 C 56.734375 99.148438 56.445312 95.976562 55.429688 93.316406 L 53.90625 89.796875 L 56.003906 87.511719 M 53.050781 83.328125 L 55.242188 86.5625 L 54.765625 86.941406 L 53.242188 87.988281 L 51.8125 82.851562 L 51.433594 78.953125 C 51.875 80.789062 52.417969 82.25 53.050781 83.328125 M 46.386719 74.195312 L 45.816406 74.957031 L 48.863281 74.386719 L 48.957031 75.621094 L 49.050781 79.523438 C 49.371094 82.882812 50.097656 86.148438 51.242188 89.320312 L 48.671875 90.460938 C 43.023438 92.742188 37.46875 91.601562 32.011719 87.035156 L 34.769531 85.703125 L 38.960938 81.996094 L 44.101562 75.621094 L 46.386719 74.195312 M 37.722656 81.042969 C 35.628906 83.582031 33.152344 85.164062 30.296875 85.800781 L 29.34375 86.65625 C 28.964844 87.035156 28.898438 87.355469 29.152344 87.605469 C 31.628906 89.953125 34.199219 91.664062 36.867188 92.742188 L 45.816406 93.21875 C 47.972656 92.523438 49.972656 91.664062 51.8125 90.652344 L 51.8125 90.746094 L 51.242188 91.316406 C 49.71875 93.15625 48.765625 94.996094 48.386719 96.835938 L 47.433594 103.96875 L 46.863281 111.199219 C 45.847656 119.125 44.863281 126.132812 43.910156 132.21875 C 42.832031 135.769531 42.164062 139.765625 41.910156 144.203125 C 41.65625 147.503906 41.65625 151.402344 41.910156 155.90625 C 38.929688 156.03125 35.628906 155.554688 32.011719 154.476562 C 28.457031 153.335938 25.027344 151.71875 21.726562 149.625 C 20.203125 148.738281 19.378906 148.042969 19.253906 147.535156 C 19 147.027344 19.125 146.011719 19.632812 144.492188 L 21.0625 140.972656 L 24.394531 133.835938 L 30.960938 120.425781 L 29.058594 123.5625 L 29.152344 123.183594 C 31.121094 119.632812 33.183594 116.683594 35.34375 114.335938 L 39.054688 110.914062 C 39.691406 110.46875 39.753906 110.023438 39.246094 109.582031 C 38.675781 109.199219 38.136719 109.199219 37.628906 109.582031 L 32.867188 114.050781 C 29.628906 117.664062 26.679688 122.136719 24.011719 127.464844 C 22.042969 131.523438 19.761719 137.199219 17.15625 144.492188 L 17.0625 144.679688 L 17.0625 145.0625 L 16.96875 145.347656 L 15.730469 148.675781 L 15.632812 148.867188 L 17.253906 148.867188 L 17.539062 149.054688 C 16.523438 149.816406 14.523438 150.039062 11.539062 149.722656 C 9.574219 149.59375 7.761719 148.582031 6.113281 146.679688 C 5.097656 145.601562 4.304688 144.425781 3.734375 143.160156 L 3.636719 142.777344 L 3.636719 140.683594 C 4.464844 128.953125 6.746094 117.984375 10.492188 107.773438 C 13.03125 100.734375 15.953125 95.058594 19.253906 90.746094 L 22.203125 86.941406 L 22.773438 86.277344 L 29.535156 80.664062 L 30.390625 81.140625 C 33.183594 78.792969 36.261719 76.984375 39.625 75.71875 L 43.054688 74.671875 L 37.722656 81.042969 M 4.875 148.484375 C 6.96875 150.453125 9.222656 151.5625 11.636719 151.816406 L 18.109375 151.148438 C 18.492188 150.957031 18.777344 150.800781 18.964844 150.671875 L 21.441406 153.144531 C 22.332031 153.71875 23.632812 154.351562 25.34375 155.046875 L 26.203125 155.429688 L 26.679688 155.808594 C 27.058594 156.378906 26.804688 156.824219 25.917969 157.140625 L 22.679688 157.425781 L 19.15625 156.570312 L 17.15625 156.285156 L 17.15625 156.761719 L 19.441406 165.417969 L 19.726562 166.273438 L 19.917969 166.84375 C 20.871094 170.015625 21.0625 171.757812 20.488281 172.074219 C 19.601562 172.582031 18.238281 171.28125 16.394531 168.175781 L 15.730469 166.84375 L 13.730469 161.992188 L 11.824219 157.523438 C 11.191406 157.839844 11.445312 159.679688 12.585938 163.039062 L 14.015625 166.84375 L 14.492188 168.082031 L 13.730469 168.175781 C 12.96875 168.046875 12.207031 167.605469 11.445312 166.84375 C 10.367188 165.828125 9.351562 164.179688 8.398438 161.898438 C 7.066406 158.15625 6.304688 156.414062 6.113281 156.664062 C 5.734375 157.238281 5.953125 158.695312 6.78125 161.042969 L 7.921875 164.371094 L 6.875 164.179688 C 6.175781 163.925781 5.574219 163.292969 5.066406 162.277344 C 3.414062 158.980469 2.464844 155.113281 2.210938 150.671875 L 2.6875 145.726562 L 4.875 148.484375 M 17.824219 149.339844 L 17.917969 149.339844 L 17.824219 149.4375 L 17.824219 149.339844 M 74.757812 137.453125 L 71.808594 142.015625 L 71.617188 142.398438 L 71.519531 140.972656 L 70.761719 138.59375 L 70.949219 138.402344 L 71.902344 137.832031 C 73.171875 137.324219 74.410156 136.722656 75.617188 136.023438 L 74.757812 137.453125 M 55.71875 138.402344 L 56.191406 137.738281 L 57.8125 137.261719 L 55.71875 138.402344 M 59.050781 154.382812 L 63.523438 154.191406 C 65.554688 154.066406 66.886719 153.683594 67.523438 153.050781 C 67.902344 152.671875 68.125 152.035156 68.1875 151.148438 C 68.949219 150.769531 69.617188 150.355469 70.1875 149.914062 L 71.234375 148.960938 L 80.28125 156.378906 C 83.835938 159.550781 86.246094 162.660156 87.515625 165.703125 L 87.992188 166.84375 C 88.882812 169.699219 89.167969 172.964844 88.847656 176.640625 C 88.53125 179.558594 87.707031 183.203125 86.375 187.582031 C 84.851562 192.652344 82.820312 198.171875 80.28125 204.132812 C 80.027344 204.828125 79.074219 205.496094 77.425781 206.128906 L 70 207.082031 L 63.90625 206.320312 C 66.0625 197.566406 67.046875 191.355469 66.855469 187.675781 C 66.476562 179.875 65.207031 173.503906 63.046875 168.554688 L 62.285156 166.84375 C 61.082031 164.308594 59.875 162.246094 58.667969 160.660156 L 57.714844 161.707031 C 57.335938 162.722656 57.273438 163.386719 57.527344 163.703125 L 57.90625 164.179688 L 59.621094 166.84375 C 61.144531 169.570312 62.414062 172.488281 63.429688 175.59375 C 64.570312 179.144531 65.238281 182.507812 65.429688 185.679688 C 65.683594 188.976562 65.394531 193.066406 64.570312 197.949219 L 62.953125 206.222656 L 62.570312 206.128906 L 62.761719 206.890625 L 61.429688 211.644531 L 61.335938 211.933594 L 60.191406 215.261719 L 59.429688 217.355469 L 59.335938 217.542969 L 59.238281 217.640625 C 58.667969 218.019531 58.160156 218.304688 57.714844 218.496094 C 53.082031 220.777344 46.832031 221.445312 38.960938 220.492188 C 36.359375 220.175781 34.515625 219.730469 33.4375 219.160156 L 32.773438 218.78125 L 32.773438 218.683594 C 32.011719 212.535156 31.660156 207.367188 31.722656 203.179688 C 31.722656 200.261719 32.105469 195.414062 32.867188 188.625 L 34.867188 190.910156 C 35.121094 191.164062 35.4375 190.78125 35.816406 189.769531 C 36.199219 188.816406 36.261719 188.183594 36.007812 187.867188 L 27.628906 178.925781 L 22.203125 173.027344 C 22.648438 172.394531 22.804688 171.535156 22.679688 170.457031 L 21.917969 166.84375 L 21.535156 165.703125 L 21.347656 164.847656 L 19.539062 158.28125 L 21.632812 158.664062 C 24.742188 159.042969 26.867188 158.632812 28.011719 157.425781 C 28.519531 156.855469 28.710938 156.191406 28.582031 155.429688 L 28.582031 155.144531 C 33.976562 157.238281 38.832031 158.0625 43.148438 157.617188 C 43.972656 157.554688 44.386719 157.203125 44.386719 156.570312 L 44.292969 154.574219 L 56.382812 153.90625 C 56.765625 154.289062 57.652344 154.445312 59.050781 154.382812 M 65.238281 144.203125 L 64.953125 144.585938 L 64.953125 143.824219 C 65.269531 143.886719 65.363281 144.015625 65.238281 144.203125 M 65.808594 145.15625 L 66.191406 144.492188 L 66.761719 149.4375 L 66.855469 152.003906 C 66.855469 152.511719 66.316406 152.859375 65.238281 153.050781 L 63.046875 153.144531 L 59.238281 153.527344 C 58.289062 153.589844 57.621094 153.367188 57.238281 152.859375 L 56.667969 150.769531 L 55.527344 140.589844 L 57.050781 139.925781 L 56.667969 140.496094 L 56.574219 141.257812 L 57.238281 141.730469 L 57.238281 141.828125 L 57.429688 143.632812 L 58.097656 149.339844 L 58.667969 151.339844 L 60.761719 151.527344 L 63.429688 151.339844 C 64.570312 151.210938 65.238281 150.800781 65.429688 150.101562 L 65.429688 147.722656 L 65.140625 145.917969 L 65.808594 145.15625 M 64.761719 142.585938 L 64.667969 140.972656 L 65.808594 140.589844 L 66.09375 143.347656 C 65.902344 142.96875 65.523438 142.714844 64.953125 142.585938 L 64.761719 142.585938 M 61.238281 143.824219 L 61.335938 143.824219 L 63.808594 143.632812 L 64.285156 143.730469 L 64.476562 145.0625 L 64.09375 145.25 L 62.570312 145.441406 C 61.367188 145.316406 60.921875 144.777344 61.238281 143.824219 M 60.953125 142.777344 L 60.382812 143.0625 C 60.066406 143.824219 60.066406 144.554688 60.382812 145.25 C 60.574219 145.886719 61.046875 146.328125 61.808594 146.582031 L 64 146.488281 L 64.570312 146.296875 L 64.761719 147.914062 L 64.761719 149.914062 L 59.90625 150.386719 C 59.335938 150.453125 58.984375 150.292969 58.859375 149.914062 L 58.667969 148.582031 L 57.90625 142.015625 L 63.808594 141.160156 L 64 141.160156 L 64 141.257812 L 64.191406 142.585938 L 61.335938 142.585938 L 60.953125 142.777344 M 59.335938 140.019531 L 60.097656 139.925781 L 62.097656 139.640625 L 59.335938 140.019531 M 64.09375 138.972656 L 63.621094 138.59375 L 61.429688 138.59375 L 60.382812 138.78125 L 60.761719 138.023438 L 61.621094 136.691406 L 62.859375 136.59375 C 64.378906 136.722656 65.269531 137.355469 65.523438 138.496094 L 64.09375 138.972656 M 67.714844 139.925781 L 67.808594 142.300781 C 67.871094 143 68.15625 143.570312 68.664062 144.015625 C 69.171875 144.523438 69.746094 144.648438 70.378906 144.394531 L 69.238281 146.679688 C 69.046875 147.25 68.570312 147.789062 67.808594 148.296875 L 67.523438 146.679688 L 66.855469 140.210938 L 67.714844 139.925781 M 68.570312 139.542969 L 69.808594 139.066406 L 70.472656 140.78125 C 70.726562 141.921875 70.726562 142.808594 70.472656 143.445312 C 70.410156 143.632812 70 143.507812 69.238281 143.0625 L 68.570312 141.542969 L 68.570312 139.542969 M 51.148438 141.921875 L 50.859375 145.726562 C 50.859375 147.945312 51.242188 149.023438 52.003906 148.960938 C 52.511719 148.835938 52.925781 148.453125 53.242188 147.820312 C 53.433594 147.183594 53.527344 146.582031 53.527344 146.011719 L 52.765625 141.921875 L 54.480469 141.828125 L 54.480469 142.015625 L 55.621094 151.148438 L 55.71875 151.816406 L 51.335938 152.289062 L 44.195312 152.671875 L 44.101562 148.769531 C 44.226562 149.40625 44.480469 149.691406 44.863281 149.625 C 45.371094 149.5625 45.785156 149.152344 46.101562 148.390625 C 46.292969 147.882812 46.386719 147.3125 46.386719 146.679688 C 46.195312 144.523438 45.785156 142.90625 45.148438 141.828125 L 47.816406 141.921875 L 47.527344 142.207031 L 47.339844 146.394531 C 47.339844 148.613281 47.65625 149.691406 48.289062 149.625 L 49.527344 148.484375 C 49.78125 147.914062 49.878906 147.28125 49.8125 146.582031 C 49.75 144.554688 49.433594 143 48.863281 141.921875 L 51.148438 141.921875 M 47.816406 145.0625 L 48.003906 142.683594 C 48.449219 143.378906 48.765625 144.585938 48.957031 146.296875 L 49.148438 147.34375 L 48.957031 148.390625 C 48.640625 148.644531 48.417969 148.515625 48.289062 148.007812 L 47.816406 145.0625 M 44.480469 144.964844 L 44.578125 142.683594 C 44.957031 143.378906 45.277344 144.585938 45.53125 146.296875 C 45.785156 147.4375 45.75 148.136719 45.433594 148.390625 C 45.117188 148.707031 44.894531 148.613281 44.769531 148.105469 L 44.480469 144.964844 M 44.578125 141.828125 L 44.386719 142.015625 L 44.386719 141.730469 L 44.671875 141.730469 L 44.578125 141.828125 M 51.433594 144.394531 L 51.71875 142.015625 C 52.097656 142.714844 52.417969 143.917969 52.671875 145.632812 L 52.765625 146.679688 C 52.828125 147.183594 52.734375 147.535156 52.480469 147.722656 L 51.910156 147.34375 L 51.433594 144.394531 M 35.246094 223.25 L 41.4375 224.011719 L 52.289062 223.347656 C 54.382812 222.839844 56.128906 222.238281 57.527344 221.539062 L 64.476562 224.011719 C 66.699219 224.835938 68.601562 225.660156 70.1875 226.484375 C 71.839844 227.4375 72.886719 228.199219 73.332031 228.769531 L 71.617188 229.433594 L 64.855469 230.671875 C 58 231.050781 51.148438 229.71875 44.292969 226.675781 L 43.910156 226.867188 L 42.484375 228.957031 C 40.894531 229.023438 39.46875 228.671875 38.199219 227.914062 C 36.800781 226.960938 35.882812 225.722656 35.4375 224.203125 L 35.246094 223.25 M 63.523438 207.9375 L 63.808594 208.03125 L 71.046875 208.886719 L 78.1875 208.125 C 79.644531 207.683594 80.691406 207.175781 81.328125 206.605469 L 81.421875 206.605469 C 86.121094 208.378906 89.832031 210.503906 92.5625 212.976562 C 93.515625 213.800781 91.738281 214.753906 87.230469 215.832031 L 76.949219 215.164062 C 73.394531 214.339844 70.1875 213.007812 67.332031 211.171875 L 67.140625 211.074219 L 66.953125 211.074219 L 66 212.3125 L 62.382812 212.027344 L 63.046875 209.742188 L 63.523438 207.9375 "/>
</g>
</svg>
