<?xml version="1.0" encoding="UTF-8"?>
<svg xmlns="http://www.w3.org/2000/svg" xmlns:xlink="http://www.w3.org/1999/xlink" width="128pt" height="127pt" viewBox="0 0 128 127" version="1.1">
<g id="surface1">
<path style=" stroke:none;fill-rule:nonzero;fill:rgb(42.745098%,42.745098%,42.745098%);fill-opacity:1;" d="M 22.675781 71.773438 L 18.902344 72.769531 L 15.324219 70.179688 L 13.933594 72.769531 L 12.542969 71.574219 L 10.359375 71.375 L 9.960938 68.785156 L 11.550781 65.59375 L 12.542969 63.601562 L 14.332031 62.203125 L 16.316406 59.613281 L 16.316406 59.015625 L 17.113281 56.820312 C 17.90625 55.625 18.503906 54.230469 18.902344 52.632812 L 20.09375 51.039062 L 21.683594 50.042969 L 29.03125 40.671875 L 33.007812 38.480469 L 36.78125 37.28125 L 40.554688 37.28125 C 32.875 34.09375 27.3125 33.230469 23.867188 34.691406 L 21.285156 36.683594 C 20.359375 38.679688 19.960938 42.199219 20.09375 47.25 L 16.316406 51.4375 C 14.199219 47.714844 13.074219 43.265625 12.941406 38.078125 C 13.074219 32.363281 12.609375 28.511719 11.550781 26.515625 L 4.398438 14.753906 C 1.484375 9.570312 1.21875 6.179688 3.601562 4.585938 C 8.105469 1.527344 20.160156 8.109375 39.761719 24.324219 C 43.335938 27.378906 52.144531 32.5625 66.183594 39.875 C 80.359375 47.316406 91.085938 54.097656 98.371094 60.210938 C 108.171875 68.316406 115.589844 78.550781 120.621094 90.914062 C 125.523438 103.140625 126.316406 112.445312 123.007812 118.824219 C 120.09375 124.273438 111.683594 123.875 97.773438 117.628906 C 93.273438 115.902344 88.636719 113.640625 83.867188 110.851562 L 77.707031 107.0625 C 78.902344 106.664062 79.628906 105.46875 79.894531 103.472656 L 80.09375 99.488281 L 83.273438 101.480469 L 90.425781 101.679688 C 92.011719 100.75 92.875 98.554688 93.007812 95.101562 C 93.007812 91.113281 92.277344 86.660156 90.820312 81.742188 L 86.847656 72.570312 L 86.847656 73.167969 L 86.648438 74.566406 L 87.839844 83.335938 C 88.503906 87.191406 87.3125 90.515625 84.265625 93.304688 C 81.617188 95.964844 79.695312 98.289062 78.503906 100.285156 L 76.316406 102.675781 L 74.332031 104.273438 L 70.953125 108.855469 C 70.292969 110.320312 68.703125 111.316406 66.183594 111.847656 C 57.839844 114.238281 53.402344 114.238281 52.875 111.847656 C 52.078125 108.921875 52.875 105.933594 55.257812 102.875 L 58.238281 100.882812 L 59.03125 96.695312 L 59.628906 94.703125 C 60.160156 94.039062 60.953125 93.503906 62.011719 93.105469 C 62.808594 92.839844 61.550781 91.84375 58.238281 90.117188 L 49.097656 84.535156 L 45.722656 84.734375 L 44.925781 86.328125 L 43.734375 87.921875 L 41.550781 89.320312 C 40.09375 90.117188 39.03125 89.519531 38.371094 87.523438 L 35.589844 85.132812 L 35.988281 80.945312 L 35.988281 79.351562 L 33.402344 79.550781 L 31.617188 79.550781 L 30.421875 77.355469 L 28.835938 74.765625 L 26.648438 74.964844 L 25.058594 74.765625 L 24.265625 72.96875 L 23.46875 71.375 L 22.675781 71.773438 M 41.152344 61.804688 L 39.960938 59.8125 L 39.363281 61.40625 L 38.769531 63 L 38.570312 65.394531 L 38.371094 68.183594 L 41.945312 70.976562 L 48.703125 75.960938 C 49.894531 77.023438 50.753906 77.289062 51.285156 76.757812 C 52.078125 76.09375 52.941406 75.761719 53.867188 75.761719 L 56.847656 75.164062 L 57.839844 72.96875 C 58.238281 72.570312 58.4375 71.574219 58.4375 69.980469 L 58.039062 65.992188 C 58.039062 64.929688 57.574219 63.867188 56.648438 62.800781 L 55.457031 61.207031 C 52.144531 60.410156 50.027344 59.082031 49.097656 57.21875 L 48.503906 58.214844 L 47.3125 60.808594 L 46.515625 62.800781 L 43.734375 64.199219 L 41.945312 64.597656 L 41.152344 61.804688 M 22.875 51.238281 L 20.09375 54.230469 L 18.902344 59.414062 L 17.90625 62.402344 L 18.703125 62.203125 L 24.464844 62.402344 L 28.238281 61.804688 L 28.039062 60.609375 C 29.097656 60.210938 30.09375 58.949219 31.019531 56.820312 L 31.617188 54.03125 C 30.160156 51.902344 28.570312 50.640625 26.847656 50.242188 L 22.875 51.238281 M 23.667969 65.59375 L 21.285156 66.589844 C 19.828125 67.253906 19.363281 67.652344 19.894531 67.785156 L 24.066406 67.785156 L 23.667969 65.59375 M 27.246094 68.382812 L 28.636719 71.773438 C 31.550781 70.710938 33.273438 69.648438 33.800781 68.585938 L 35.191406 62.203125 L 27.246094 68.382812 M 28.238281 79.949219 L 27.246094 82.539062 C 24.859375 81.34375 23.140625 80.613281 22.078125 80.347656 C 21.417969 80.082031 21.617188 79.550781 22.675781 78.753906 L 24.664062 77.355469 L 27.839844 77.554688 L 28.238281 79.949219 M 29.230469 84.535156 L 31.019531 81.742188 L 33.601562 81.542969 L 34.398438 84.136719 L 33.007812 87.125 L 29.230469 84.535156 M 37.179688 92.90625 L 35.390625 88.519531 L 37.574219 88.921875 L 39.5625 91.113281 L 37.179688 92.90625 M 31.816406 108.65625 L 39.761719 106.265625 L 43.335938 104.871094 C 44.132812 104.472656 44.992188 103.339844 45.921875 101.480469 L 49.496094 93.902344 L 51.683594 92.507812 L 50.292969 96.296875 L 50.292969 98.886719 C 50.953125 99.15625 51.550781 98.953125 52.078125 98.289062 C 53.140625 97.359375 53.867188 96.894531 54.265625 96.894531 C 54.792969 96.628906 54.925781 97.027344 54.664062 98.089844 L 54.464844 99.488281 L 52.277344 102.476562 L 49.695312 111.050781 L 49.097656 114.039062 C 48.96875 114.707031 47.773438 115.304688 45.523438 115.835938 L 39.761719 115.636719 L 34 116.433594 L 27.640625 118.625 L 22.277344 118.425781 L 18.902344 117.828125 L 14.332031 116.234375 L 6.382812 113.441406 L 3.007812 111.449219 L 2.808594 110.851562 L 2.210938 109.257812 L 2.410156 106.464844 L 2.808594 105.867188 L 4.792969 100.285156 C 5.324219 98.953125 6.25 98.089844 7.574219 97.691406 L 9.164062 97.292969 L 11.75 102.078125 L 14.332031 100.484375 L 20.488281 105.46875 L 27.445312 104.070312 L 31.816406 108.65625 M 32.210938 100.683594 L 35.988281 101.878906 L 35.789062 105.070312 L 33.800781 105.070312 L 30.820312 102.675781 L 32.210938 100.683594 M 18.703125 74.765625 L 22.078125 74.964844 L 19.496094 78.753906 L 16.121094 76.359375 L 18.703125 74.765625 M 11.351562 74.566406 L 13.335938 77.953125 L 9.363281 78.152344 L 8.371094 73.769531 L 11.351562 74.566406 M 15.722656 91.910156 L 19.296875 94.503906 L 17.3125 97.691406 L 13.734375 97.09375 L 15.722656 91.910156 M 21.484375 96.695312 L 25.65625 99.886719 L 20.488281 102.277344 L 19.097656 98.886719 L 21.484375 96.695312 M 6.582031 90.914062 L 11.550781 90.914062 L 10.953125 94.105469 L 7.378906 93.902344 L 6.582031 90.914062 "/>
<path style=" stroke:none;fill-rule:nonzero;fill:rgb(0%,0%,0%);fill-opacity:1;" d="M 35.988281 80.945312 L 33.402344 79.550781 L 35.988281 79.351562 L 35.988281 80.945312 M 30.421875 77.355469 L 26.648438 74.964844 L 28.835938 74.765625 L 30.421875 77.355469 M 24.265625 72.96875 L 22.675781 71.773438 L 23.46875 71.375 L 24.265625 72.96875 M 22.875 51.238281 L 26.847656 50.242188 C 28.570312 50.640625 30.160156 51.902344 31.617188 54.03125 L 31.019531 56.820312 C 30.09375 58.949219 29.097656 60.210938 28.039062 60.609375 L 28.238281 61.804688 L 24.464844 62.402344 L 18.703125 62.203125 L 17.90625 62.402344 L 18.902344 59.414062 L 20.09375 54.230469 L 22.875 51.238281 M 41.152344 61.804688 L 41.945312 64.597656 L 43.734375 64.199219 L 46.515625 62.800781 L 47.3125 60.808594 L 48.503906 58.214844 L 49.097656 57.21875 C 50.027344 59.082031 52.144531 60.410156 55.457031 61.207031 L 56.648438 62.800781 C 57.574219 63.867188 58.039062 64.929688 58.039062 65.992188 L 58.4375 69.980469 C 58.4375 71.574219 58.238281 72.570312 57.839844 72.96875 L 56.847656 75.164062 L 53.867188 75.761719 C 52.941406 75.761719 52.078125 76.09375 51.285156 76.757812 C 50.753906 77.289062 49.894531 77.023438 48.703125 75.960938 L 41.945312 70.976562 L 38.371094 68.183594 L 38.570312 65.394531 L 38.769531 63 L 39.363281 61.40625 L 39.960938 59.8125 L 41.152344 61.804688 M 23.667969 65.59375 L 24.066406 67.785156 L 19.894531 67.785156 C 19.363281 67.652344 19.828125 67.253906 21.285156 66.589844 L 23.667969 65.59375 M 27.246094 68.382812 L 35.191406 62.203125 L 33.800781 68.585938 C 33.273438 69.648438 31.550781 70.710938 28.636719 71.773438 L 27.246094 68.382812 "/>
<path style=" stroke:none;fill-rule:nonzero;fill:rgb(42.745098%,42.745098%,42.745098%);fill-opacity:1;" d="M 57.445312 11.5625 C 64.597656 9.4375 70.886719 7.175781 76.316406 4.785156 C 79.230469 3.589844 82.808594 4.785156 87.046875 8.375 L 98.371094 22.128906 L 109.496094 35.6875 C 112.542969 39.941406 113.800781 43.796875 113.273438 47.25 L 107.3125 68.382812 L 39.5625 25.519531 L 48.703125 16.148438 C 50.425781 14.554688 53.335938 13.027344 57.445312 11.5625 "/>
<path style=" stroke:none;fill-rule:nonzero;fill:rgb(13.72549%,13.333333%,13.333333%);fill-opacity:1;" d="M 79.097656 19.539062 C 78.835938 17.410156 79.296875 16.015625 80.488281 15.351562 L 84.859375 15.949219 C 88.835938 18.078125 93.140625 21.863281 97.773438 27.3125 L 97.972656 28.3125 L 97.378906 28.910156 L 86.449219 18.941406 C 82.609375 16.148438 80.292969 15.617188 79.496094 17.34375 C 79.097656 18.011719 79.828125 19.871094 81.683594 22.929688 C 84.859375 29.175781 89.894531 36.550781 96.78125 45.058594 L 96.382812 47.050781 L 87.839844 35.488281 L 82.875 27.910156 C 80.886719 24.722656 79.628906 21.929688 79.097656 19.539062 "/>
</g>
</svg>
