<?xml version="1.0" encoding="UTF-8"?>
<svg xmlns="http://www.w3.org/2000/svg" xmlns:xlink="http://www.w3.org/1999/xlink" width="128pt" height="117pt" viewBox="0 0 128 117" version="1.1">
<g id="surface1">
<path style=" stroke:none;fill-rule:nonzero;fill:rgb(42.745098%,42.745098%,42.745098%);fill-opacity:1;" d="M 11.84375 39.5 L 15.410156 41 L 13.800781 43.1875 L 11.5 41.804688 L 11.84375 39.5 M 2.070312 47.90625 L 5.058594 44.796875 C 5.980469 44.105469 6.898438 43.800781 7.820312 43.875 L 9.085938 44.222656 L 9.085938 48.367188 L 11.730469 48.136719 L 14.144531 53.550781 L 19.550781 54.699219 C 19.78125 57.386719 20.164062 58.960938 20.699219 59.421875 L 27.027344 60.226562 L 28.175781 60.457031 L 29.902344 60.574219 C 30.589844 60.496094 31.511719 59.957031 32.660156 58.960938 L 37.835938 55.046875 L 39.675781 54.699219 L 37.492188 57.003906 C 36.800781 57.695312 36.496094 58.230469 36.570312 58.613281 L 37.953125 58.730469 L 40.023438 58.5 C 40.480469 58.5 40.441406 58.882812 39.90625 59.652344 L 39.214844 60.457031 L 36.917969 61.722656 L 32.316406 66.558594 L 30.9375 68.515625 L 27.714844 68.746094 C 26.644531 68.515625 25.414062 67.863281 24.035156 66.789062 L 22.769531 65.871094 L 19.894531 65.0625 L 14.71875 64.601562 C 13.722656 64.449219 12.574219 63.910156 11.269531 62.992188 L 9.085938 61.492188 L 6.554688 58.613281 L 1.953125 54.238281 C 0.652344 53.011719 0.0390625 52.207031 0.113281 51.820312 L 0.460938 51.359375 L 0.574219 50.09375 C 0.5 49.480469 0.804688 48.828125 1.496094 48.136719 C 1.570312 47.984375 1.761719 47.90625 2.070312 47.90625 M 62.5625 29.484375 L 60.835938 27.066406 L 61.640625 23.84375 L 59.574219 23.382812 L 60.03125 22.230469 L 59.800781 20.617188 L 61.414062 19.464844 L 64.058594 19.925781 L 65.550781 20.273438 C 66.011719 20.195312 66.585938 20.464844 67.277344 21.078125 L 69.460938 21.769531 L 69.921875 21.652344 L 71.648438 21.652344 L 75.097656 21.882812 L 76.59375 22.34375 L 77.628906 23.265625 L 86.136719 26.144531 L 88.785156 28.5625 L 90.507812 30.75 L 91.773438 34.203125 L 94.417969 40.882812 L 94.417969 47.792969 L 93.382812 54.125 C 93.078125 54.277344 92.234375 56.234375 90.855469 59.996094 C 89.703125 63.296875 88.746094 65.179688 87.976562 65.640625 L 83.035156 70.820312 L 77.742188 75.65625 L 76.59375 75.773438 C 76.363281 75.773438 74.40625 76.808594 70.726562 78.878906 C 68.199219 80.339844 65.550781 80.339844 62.792969 78.878906 L 56.46875 76.347656 L 54.167969 75.425781 L 52.558594 74.503906 C 51.558594 73.96875 50.140625 73.582031 48.300781 73.351562 C 47.152344 73.125 46.078125 72.203125 45.082031 70.589844 C 41.25 65.292969 40.058594 62.144531 41.515625 61.148438 C 43.433594 59.765625 45.847656 59.574219 48.761719 60.574219 L 50.832031 62.070312 L 54.050781 61.609375 C 54.664062 61.300781 55.164062 61.300781 55.546875 61.609375 L 57.386719 62.875 C 57.769531 63.414062 58.152344 62.261719 58.539062 59.421875 C 58.613281 57.65625 59.113281 55.046875 60.03125 51.589844 C 60.414062 50.285156 60.070312 49.480469 58.996094 49.171875 L 57.847656 48.941406 L 56.238281 48.597656 L 54.742188 47.332031 C 53.898438 46.5625 54.050781 45.679688 55.203125 44.683594 L 56.238281 42.035156 L 59.34375 41.34375 L 60.492188 40.882812 L 59.800781 39.039062 L 59.34375 37.890625 L 60.492188 36.390625 L 61.988281 34.550781 L 61.296875 33.054688 L 61.066406 31.902344 L 61.988281 30.75 L 63.023438 29.945312 L 62.5625 29.484375 M 78.777344 26.835938 L 77.167969 24.53125 C 76.554688 23.6875 75.597656 23.226562 74.292969 23.152344 L 70.269531 23.726562 L 67.96875 23.726562 L 68.3125 24.1875 L 69.691406 28.449219 C 70.152344 30.214844 70.574219 31.058594 70.957031 30.980469 L 71.761719 30.519531 C 72.300781 31.210938 73.449219 31.554688 75.214844 31.554688 L 77.511719 31.441406 C 78.585938 29.828125 79.007812 28.292969 78.777344 26.835938 M 65.78125 27.179688 C 64.9375 26.261719 64.59375 26.03125 64.746094 26.488281 C 64.824219 27.179688 65.167969 28.179688 65.78125 29.484375 L 67.046875 28.5625 L 65.78125 27.179688 M 66.011719 31.902344 L 64.058594 33.628906 C 65.515625 35.546875 66.664062 36.507812 67.507812 36.507812 L 72.566406 35.933594 L 66.011719 31.902344 M 69.003906 39.617188 L 67.851562 42.957031 L 66.011719 48.941406 C 65.550781 50.09375 65.628906 50.824219 66.242188 51.128906 L 67.507812 52.628906 C 67.8125 53.777344 68.234375 54.46875 68.773438 54.699219 L 70.613281 54.699219 L 72.796875 54.355469 L 75.558594 53.203125 L 77.511719 51.359375 L 78.316406 50.210938 C 77.933594 47.601562 78.316406 45.757812 79.46875 44.683594 L 78.664062 44.453125 L 76.59375 44.222656 L 74.867188 44.222656 L 73.144531 42.496094 L 72.566406 41.34375 L 74.292969 40.078125 L 75.328125 38.808594 L 74.179688 38.808594 C 73.335938 38.582031 72.875 38.582031 72.796875 38.808594 L 70.957031 39.269531 L 69.003906 39.617188 M 59.457031 27.296875 L 60.148438 29.945312 L 56.695312 28.792969 L 57.617188 25.800781 L 59.457031 27.296875 M 54.628906 21.421875 L 57.386719 19.8125 L 57.503906 22.113281 L 55.664062 24.300781 L 54.628906 21.421875 M 57.617188 37.890625 L 58.421875 39.617188 L 56.582031 40.882812 L 54.167969 40.769531 L 55.085938 37.429688 L 57.617188 37.890625 M 56.007812 35.472656 L 56.238281 31.210938 C 56.238281 30.671875 56.695312 30.671875 57.617188 31.210938 L 58.996094 32.246094 L 59.574219 34.550781 L 58.078125 35.472656 L 56.007812 35.472656 M 26.449219 54.355469 L 28.519531 56.542969 L 27.257812 58.613281 L 25.992188 58.039062 L 24.609375 55.277344 L 26.222656 54.585938 L 26.449219 54.355469 M 22.195312 51.707031 L 17.824219 51.589844 L 18.171875 48.828125 L 20.355469 48.253906 L 22.195312 51.707031 M 14.835938 45.835938 L 17.941406 42.957031 L 19.550781 46.179688 L 17.136719 47.445312 L 14.835938 45.835938 M 53.015625 46.410156 L 51.175781 45.027344 L 53.9375 42.839844 L 54.167969 44.335938 L 53.015625 46.410156 "/>
<path style=" stroke:none;fill-rule:nonzero;fill:rgb(0%,0%,0%);fill-opacity:1;" d="M 59.34375 41.34375 L 59.800781 39.039062 L 60.492188 40.882812 L 59.34375 41.34375 M 60.492188 36.390625 L 61.296875 33.054688 L 61.988281 34.550781 L 60.492188 36.390625 M 61.988281 30.75 L 62.5625 29.484375 L 63.023438 29.945312 L 61.988281 30.75 M 78.777344 26.835938 C 79.007812 28.292969 78.585938 29.828125 77.511719 31.441406 L 75.214844 31.554688 C 73.449219 31.554688 72.300781 31.210938 71.761719 30.519531 L 70.957031 30.980469 C 70.574219 31.058594 70.152344 30.214844 69.691406 28.449219 L 68.3125 24.1875 L 67.96875 23.726562 L 70.269531 23.726562 L 74.292969 23.152344 C 75.597656 23.226562 76.554688 23.6875 77.167969 24.53125 L 78.777344 26.835938 M 65.78125 27.179688 L 67.046875 28.5625 L 65.78125 29.484375 C 65.167969 28.179688 64.824219 27.179688 64.746094 26.488281 C 64.59375 26.03125 64.9375 26.261719 65.78125 27.179688 M 69.003906 39.617188 L 70.957031 39.269531 L 72.796875 38.808594 C 72.875 38.582031 73.335938 38.582031 74.179688 38.808594 L 75.328125 38.808594 L 74.292969 40.078125 L 72.566406 41.34375 L 73.144531 42.496094 L 74.867188 44.222656 L 76.59375 44.222656 L 78.664062 44.453125 L 79.46875 44.683594 C 78.316406 45.757812 77.933594 47.601562 78.316406 50.210938 L 77.511719 51.359375 L 75.558594 53.203125 L 72.796875 54.355469 L 70.613281 54.699219 L 68.773438 54.699219 C 68.234375 54.46875 67.8125 53.777344 67.507812 52.628906 L 66.242188 51.128906 C 65.628906 50.824219 65.550781 50.09375 66.011719 48.941406 L 67.851562 42.957031 L 69.003906 39.617188 M 66.011719 31.902344 L 72.566406 35.933594 L 67.507812 36.507812 C 66.664062 36.507812 65.515625 35.546875 64.058594 33.628906 L 66.011719 31.902344 "/>
<path style=" stroke:none;fill-rule:nonzero;fill:rgb(42.745098%,42.745098%,42.745098%);fill-opacity:1;" d="M 116.15625 36.164062 C 119.375 40.769531 122.519531 44.683594 125.585938 47.90625 C 127.195312 49.75 127.273438 52.589844 125.816406 56.425781 C 124.742188 58.882812 122.441406 62.761719 118.914062 68.058594 L 112.128906 79.457031 C 109.90625 82.679688 107.492188 84.523438 104.882812 84.984375 L 88.4375 86.019531 L 101.664062 27.066406 L 110.519531 31.097656 C 112.207031 31.941406 114.085938 33.628906 116.15625 36.164062 "/>
<path style=" stroke:none;fill-rule:nonzero;fill:rgb(13.72549%,13.333333%,13.333333%);fill-opacity:1;" d="M 116.039062 53.664062 C 117.34375 52.894531 118.417969 52.894531 119.257812 53.664062 C 119.949219 54.125 120.179688 55.199219 119.949219 56.886719 C 119.335938 60.265625 117.6875 64.332031 115.003906 69.09375 L 114.542969 69.324219 L 113.855469 69.207031 L 118.226562 58.84375 C 119.222656 55.46875 119.03125 53.664062 117.648438 53.433594 C 117.035156 53.433594 115.847656 54.429688 114.085938 56.425781 C 110.480469 60.265625 106.53125 65.714844 102.238281 72.777344 L 100.742188 73.007812 L 106.953125 63.910156 L 110.980469 58.5 C 112.667969 56.273438 114.351562 54.660156 116.039062 53.664062 "/>
<path style=" stroke:none;fill-rule:nonzero;fill:rgb(42.745098%,42.745098%,42.745098%);fill-opacity:1;" d="M 89.703125 36.621094 C 89.933594 30.328125 89.128906 26.144531 87.289062 24.070312 C 86.597656 23.152344 85.910156 22.691406 85.21875 22.691406 C 83.53125 22.535156 80.886719 23.113281 77.28125 24.417969 C 76.59375 23.804688 75.328125 23.265625 73.488281 22.804688 C 75.558594 20.347656 78.433594 18.429688 82.113281 17.046875 C 86.175781 15.667969 88.785156 14.363281 89.933594 13.132812 L 96.488281 5.074219 C 99.402344 1.695312 101.742188 0.660156 103.503906 1.964844 C 106.800781 4.421875 105.191406 14.667969 98.675781 32.707031 C 97.371094 36.007812 95.914062 43.609375 94.304688 55.507812 C 92.539062 67.480469 90.394531 76.847656 87.863281 83.601562 C 84.644531 92.582031 79.277344 100.414062 71.761719 107.089844 C 64.402344 113.691406 58.039062 116.609375 52.671875 115.839844 C 48.070312 115.152344 46.195312 109.046875 47.035156 97.535156 C 47.113281 93.925781 47.574219 90.085938 48.417969 86.019531 L 49.566406 80.609375 C 50.105469 81.375 51.136719 81.566406 52.671875 81.183594 L 55.433594 80.492188 L 54.855469 83.140625 C 54.78125 85.289062 55.355469 87.015625 56.582031 88.320312 L 61.871094 88.550781 C 64.710938 87.554688 67.699219 85.902344 70.84375 83.601562 C 78.894531 77.152344 84.261719 68.058594 86.945312 56.3125 C 88.554688 49.097656 89.472656 42.535156 89.703125 36.621094 "/>
</g>
</svg>
