<?xml version="1.0" encoding="UTF-8"?>
<svg xmlns="http://www.w3.org/2000/svg" xmlns:xlink="http://www.w3.org/1999/xlink" width="128pt" height="195pt" viewBox="0 0 128 195" version="1.1">
<g id="surface1">
<path style=" stroke:none;fill-rule:nonzero;fill:rgb(0%,0%,0%);fill-opacity:1;" d="M 19.710938 49.273438 C 19.925781 38.25 24.167969 28.621094 32.433594 20.382812 C 40.59375 12.359375 50.257812 7.863281 61.421875 6.902344 C 72.589844 6.046875 82.898438 9.414062 92.34375 17.011719 C 101.6875 24.609375 107.160156 33.863281 108.773438 44.777344 L 121.980469 113.949219 L 6.503906 123.097656 L 19.710938 49.273438 "/>
<path style=" stroke:none;fill-rule:nonzero;fill:rgb(100%,100%,100%);fill-opacity:1;" d="M 108.449219 64.519531 C 105.445312 48.789062 102.117188 37.503906 98.464844 30.65625 C 92.453125 19.207031 83.328125 12.25 71.085938 9.789062 C 52.726562 6.152344 39.519531 11.289062 31.46875 25.199219 C 27.601562 32.046875 23.683594 46.382812 19.710938 68.210938 L 14.558594 94.851562 L 10.207031 121.65625 C 9.992188 123.046875 7.523438 124.0625 2.800781 124.703125 C 3.875 116.035156 5.644531 105.390625 8.113281 92.765625 L 14.234375 60.667969 C 15.308594 52.75 16.273438 46.8125 17.132812 42.851562 C 18.636719 36.109375 21.105469 30.707031 24.542969 26.640625 C 31.949219 17.761719 41.613281 11.339844 53.53125 7.382812 C 68.242188 2.460938 81.5 4.65625 93.3125 13.964844 C 103.941406 22.414062 110.703125 34.238281 113.605469 49.433594 L 119.886719 80.890625 L 125.683594 112.34375 C 125.789062 113.09375 124.554688 113.898438 121.980469 114.753906 L 118.273438 115.394531 L 113.605469 89.875 L 108.449219 64.519531 "/>
<path style=" stroke:none;fill-rule:nonzero;fill:rgb(100%,100%,100%);fill-opacity:1;" d="M 64.160156 40.125 C 66.414062 41.195312 66.628906 42.15625 64.804688 43.011719 L 59.8125 43.332031 C 50.6875 39.265625 41.453125 40.550781 32.113281 47.183594 C 22.769531 53.710938 18.316406 61.898438 18.746094 71.742188 C 18.746094 73.132812 17.402344 73.773438 14.71875 73.667969 C 12.140625 73.453125 10.800781 72.597656 10.691406 71.097656 C 10.261719 58.6875 16.382812 49.109375 29.050781 42.371094 C 41.292969 35.949219 52.996094 35.203125 64.160156 40.125 "/>
<path style=" stroke:none;fill-rule:nonzero;fill:rgb(0%,0%,0%);fill-opacity:1;" d="M 22.289062 88.273438 C 33.882812 76.609375 47.949219 70.777344 64.484375 70.777344 C 81.019531 70.777344 95.136719 76.609375 106.839844 88.273438 C 118.542969 99.828125 124.394531 113.84375 124.394531 130.320312 C 124.394531 146.796875 118.542969 160.816406 106.839844 172.371094 C 95.136719 184.03125 81.019531 189.863281 64.484375 189.863281 C 47.949219 189.863281 33.882812 184.03125 22.289062 172.371094 C 10.585938 160.816406 4.734375 146.796875 4.734375 130.320312 C 4.734375 113.84375 10.585938 99.828125 22.289062 88.273438 "/>
<path style=" stroke:none;fill-rule:nonzero;fill:rgb(100%,100%,100%);fill-opacity:1;" d="M 28.570312 86.023438 C 14.394531 96.832031 7.632812 111.0625 8.277344 128.714844 C 8.8125 142.304688 13.109375 154.449219 21.160156 165.148438 C 29.75 176.488281 40.648438 183.390625 53.855469 185.851562 C 71.570312 189.167969 86.976562 185.476562 100.074219 174.777344 C 113.175781 164.183594 120.046875 149.902344 120.691406 131.925781 C 120.152344 118.335938 115.859375 106.195312 107.804688 95.492188 C 99.324219 84.257812 88.480469 77.410156 75.273438 74.949219 C 57.878906 71.742188 42.3125 75.433594 28.570312 86.023438 M 1.191406 131.925781 C 1.726562 116.199219 7.257812 102.234375 17.777344 90.035156 C 28.515625 77.519531 41.722656 70.402344 57.398438 68.691406 C 76.1875 66.660156 92.453125 71.472656 106.195312 83.136719 C 119.9375 94.796875 127.1875 109.9375 127.9375 128.554688 L 127.9375 128.875 C 127.402344 144.496094 121.871094 158.40625 111.347656 170.605469 C 100.613281 183.125 87.40625 190.238281 71.730469 191.949219 C 53.371094 193.984375 36.996094 189.222656 22.609375 177.667969 C 7.578125 165.683594 0.4375 150.4375 1.191406 131.925781 "/>
<path style=" stroke:none;fill-rule:nonzero;fill:rgb(100%,100%,100%);fill-opacity:1;" d="M 40.164062 147.492188 C 38.339844 147.386719 36.78125 148.082031 35.492188 149.582031 C 34.207031 151.078125 33.613281 152.738281 33.722656 154.554688 C 33.828125 156.480469 34.367188 158.140625 35.332031 159.53125 C 36.40625 161.136719 37.855469 161.992188 39.679688 162.097656 C 41.613281 162.207031 43.222656 161.457031 44.511719 159.851562 C 45.585938 158.460938 46.175781 156.855469 46.285156 155.035156 C 46.175781 153.109375 45.640625 151.453125 44.671875 150.0625 C 43.492188 148.457031 41.988281 147.601562 40.164062 147.492188 M 30.019531 164.507812 C 26.90625 161.722656 25.453125 158.566406 25.667969 155.035156 C 26.207031 146.476562 30.984375 142.089844 40.003906 141.875 C 48.808594 141.664062 53.585938 145.621094 54.335938 153.753906 L 54.335938 155.679688 C 53.90625 158.996094 52.457031 161.777344 49.988281 164.023438 C 47.410156 166.484375 44.136719 167.824219 40.164062 168.035156 C 36.515625 168.25 33.132812 167.074219 30.019531 164.507812 "/>
</g>
</svg>
