<?xml version="1.0" encoding="UTF-8"?>
<svg xmlns="http://www.w3.org/2000/svg" xmlns:xlink="http://www.w3.org/1999/xlink" width="127pt" height="127pt" viewBox="0 0 127 127" version="1.1">
<g id="surface1">
<path style=" stroke:none;fill-rule:nonzero;fill:rgb(0%,0%,0%);fill-opacity:1;" d="M 70.671875 27.300781 C 71.410156 26.265625 71.492188 25.191406 70.917969 24.074219 C 69.398438 21.179688 65.992188 18.78125 60.699219 16.878906 C 55.855469 15.101562 51.09375 14.457031 46.417969 14.957031 L 38.167969 16.382812 L 30.042969 18.429688 C 26.019531 19.546875 22.511719 20.289062 19.515625 20.664062 L 19.390625 20.664062 L 17.730469 20.785156 L 10.957031 21.222656 C 8.289062 21.59375 6.136719 22.214844 4.492188 23.082031 C 3.507812 23.578125 2.953125 24.074219 2.832031 24.570312 C 2.707031 25.066406 2.8125 25.460938 3.140625 25.75 C 3.34375 25.914062 3.753906 26.101562 4.371094 26.308594 C 5.027344 26.554688 5.910156 26.824219 7.019531 27.113281 L 9.726562 27.796875 C 11 28.210938 12.558594 29.308594 14.40625 31.085938 C 16.210938 32.863281 17.769531 33.980469 19.082031 34.433594 L 19.023438 32.574219 L 17.421875 30.835938 C 16.601562 29.679688 16.253906 28.707031 16.375 27.921875 C 16.539062 27.011719 17.15625 26.144531 18.222656 25.316406 L 21.117188 23.765625 C 24.851562 22.070312 28.605469 20.871094 32.382812 20.167969 C 36.648438 19.421875 40.570312 19.402344 44.140625 20.105469 C 46.476562 20.601562 48.59375 21.324219 50.480469 22.277344 C 52.738281 23.390625 54.5 24.777344 55.773438 26.433594 C 56.757812 27.714844 57.25 28.75 57.25 29.535156 C 57.25 30.320312 56.820312 30.980469 55.957031 31.519531 L 55.957031 31.707031 L 55.773438 31.828125 L 55.464844 32.015625 L 55.464844 33.9375 L 61.191406 32.511719 C 63.859375 31.726562 66.136719 30.753906 68.023438 29.597656 C 69.257812 28.851562 70.136719 28.085938 70.671875 27.300781 M 33.980469 56.582031 L 33.859375 56.644531 L 34.351562 56.398438 L 35.027344 56.273438 C 32.484375 55.777344 30.042969 54.640625 27.703125 52.859375 C 23.761719 49.925781 21.199219 45.996094 20.007812 41.074219 L 19.945312 40.699219 L 19.269531 38.21875 L 19.269531 35.488281 C 17.667969 34.828125 16.273438 33.875 15.082031 32.636719 L 12.867188 30.402344 C 11.964844 29.699219 11.019531 29.222656 10.035156 28.976562 L 5.785156 27.921875 C 4.0625 27.382812 2.894531 26.578125 2.277344 25.5 C 0.757812 23.144531 2.851562 21.46875 8.558594 20.476562 L 18.589844 19.484375 L 18.53125 16.382812 L 18.835938 13.21875 L 19.515625 11.234375 L 20.5 9.433594 C 21.445312 7.863281 22.695312 5.441406 24.253906 2.175781 C 25.035156 0.726562 27.128906 0.210938 30.535156 0.625 L 35.707031 1.308594 L 41 2.113281 L 44.261719 2.671875 C 45.492188 3.003906 46.4375 3.519531 47.09375 4.222656 L 48.878906 6.765625 L 50.296875 9.558594 L 52.386719 13.714844 C 54.933594 14.003906 57.4375 14.582031 59.898438 15.453125 C 64.207031 16.941406 67.554688 19.089844 69.933594 21.902344 C 71.945312 24.386719 72.640625 26.308594 72.027344 27.671875 C 71.65625 28.625 70.917969 29.472656 69.808594 30.214844 C 69.070312 30.753906 68.066406 31.3125 66.792969 31.890625 C 63.59375 33.339844 59.941406 34.476562 55.835938 35.304688 C 55.464844 36.046875 54.933594 36.628906 54.234375 37.039062 L 53.988281 37.164062 L 53.804688 39.148438 C 56.472656 38.820312 58.851562 38.839844 60.945312 39.210938 C 62.09375 39.460938 63.367188 39.957031 64.761719 40.699219 L 69.503906 43.492188 L 73.871094 47.523438 C 76.210938 49.800781 78.039062 52.238281 79.351562 54.84375 C 80.625 57.367188 81.363281 59.933594 81.566406 62.539062 C 83.742188 64.523438 85.691406 66.117188 87.417969 67.316406 L 92.21875 70.355469 C 94.148438 71.304688 95.953125 71.804688 97.636719 71.84375 L 98.066406 72.277344 C 97.859375 76.167969 97.308594 79.597656 96.402344 82.578125 L 96.097656 83.632812 C 97.492188 86.652344 98.578125 89.667969 99.359375 92.6875 L 99.421875 92.625 C 103.195312 92.253906 106.953125 94.011719 110.6875 97.898438 C 112.535156 99.84375 114.175781 101.953125 115.609375 104.226562 L 116.105469 105.035156 L 117.949219 104.722656 C 120.289062 104.808594 122.15625 106.398438 123.550781 109.5 L 124.105469 110.988281 C 124.230469 111.652344 124.105469 112.128906 123.738281 112.417969 L 123.058594 112.851562 C 122.730469 113.058594 122.609375 113.246094 122.691406 113.410156 L 123.921875 115.519531 C 125.972656 119.65625 125.5625 122.878906 122.691406 125.195312 C 121.253906 126.394531 119.367188 126.769531 117.027344 126.3125 L 114.75 125.691406 C 113.886719 125.320312 113.3125 124.824219 113.027344 124.203125 C 112.535156 123.253906 112.574219 122.382812 113.148438 121.597656 C 113.640625 120.894531 114.441406 120.398438 115.550781 120.109375 L 117.335938 120.296875 C 117.007812 119.054688 116.226562 117.691406 114.996094 116.203125 L 114.132812 115.765625 L 113.949219 115.890625 L 113.703125 115.703125 L 113.519531 115.703125 L 111.855469 115.582031 C 107.667969 114.878906 104.039062 113.800781 100.960938 112.355469 C 99.070312 111.445312 97.574219 110.535156 96.464844 109.625 L 95.542969 108.632812 L 94.496094 107.886719 L 88.832031 106.335938 C 85.097656 105.21875 81.648438 104.042969 78.488281 102.800781 L 78.429688 102.863281 C 76.910156 104.226562 75.617188 105.199219 74.550781 105.777344 L 73.503906 106.398438 L 72.457031 106.335938 L 71.839844 105.53125 L 70.980469 105.46875 L 70.054688 106.335938 L 69.257812 107.269531 C 68.394531 108.21875 67.429688 108.941406 66.363281 109.4375 C 64.476562 110.308594 62.359375 110.699219 60.023438 110.617188 L 57.066406 110.554688 C 55.753906 110.390625 54.851562 110.039062 54.359375 109.5 C 53.167969 108.179688 53.3125 106.832031 54.789062 105.46875 L 57.128906 103.855469 C 50.234375 102.40625 46.046875 99.761719 44.570312 95.914062 C 43.378906 92.855469 44.035156 90.25 46.539062 88.097656 C 47.605469 87.1875 48.878906 86.445312 50.355469 85.863281 L 49.371094 83.570312 C 47.277344 83.113281 45.351562 82.410156 43.585938 81.460938 C 42.722656 82.203125 41.777344 82.722656 40.753906 83.011719 L 37.429688 82.761719 C 34.597656 83.714844 32.628906 83.402344 31.519531 81.832031 C 30.984375 81.085938 30.617188 80.300781 30.410156 79.476562 C 29.46875 79.183594 28.789062 78.6875 28.378906 77.984375 C 27.929688 77.199219 27.765625 76.351562 27.886719 75.441406 L 28.5625 73.953125 L 27.886719 72.527344 C 27.683594 71.453125 27.988281 70.542969 28.808594 69.796875 C 30.082031 68.640625 32.15625 67.996094 35.027344 67.875 L 35.152344 67.875 L 36.257812 66.941406 L 37.859375 66.386719 L 36.320312 63.28125 L 35.210938 64.335938 L 33.921875 66.074219 L 33.921875 66.136719 L 33.671875 66.136719 L 33.304688 65.828125 L 33.304688 65.765625 L 33.058594 66.695312 C 33.179688 66.238281 33.160156 65.558594 32.996094 64.648438 L 32.441406 62.601562 L 31.703125 59.5 L 33.242188 57.265625 L 33.859375 56.769531 L 34.351562 56.644531 L 33.242188 57.761719 L 33.859375 57.636719 C 35.292969 57.679688 36.363281 58.03125 37.058594 58.691406 L 37.796875 58.691406 L 38.167969 58.753906 L 37.675781 57.949219 C 36.8125 56.953125 35.707031 56.519531 34.351562 56.644531 L 34.660156 56.457031 L 34.472656 56.519531 L 34.042969 56.582031 L 33.980469 56.582031 M 28.933594 1.742188 L 28.75 1.742188 C 27.230469 1.824219 26.203125 2.132812 25.671875 2.671875 L 24.5 4.59375 L 23.640625 6.582031 L 20.929688 11.355469 C 20.191406 12.640625 19.761719 14.128906 19.636719 15.824219 L 19.515625 19.421875 L 25.980469 18.121094 L 32.75 16.257812 L 40.324219 14.398438 L 48.140625 13.527344 L 51.710938 13.652344 L 51.773438 13.652344 L 49.925781 9.992188 L 48.203125 6.519531 C 47.382812 5.152344 46.417969 4.324219 45.308594 4.035156 L 41.308594 3.355469 L 37.304688 2.796875 L 33.121094 2.050781 L 28.933594 1.742188 M 118.8125 106.214844 L 116.472656 106.460938 L 117.027344 109.8125 C 117.066406 111.960938 116.390625 113.699219 114.996094 115.023438 L 115.425781 115.644531 C 117.273438 118.082031 118.175781 120.335938 118.136719 122.40625 L 117.949219 123.523438 C 117.910156 123.730469 117.808594 123.625 117.644531 123.210938 C 117.4375 122.796875 117.355469 122.507812 117.398438 122.34375 L 117.398438 122.28125 L 117.457031 122.21875 C 117.539062 121.515625 117.191406 121.226562 116.410156 121.351562 C 115.796875 121.472656 115.179688 121.742188 114.566406 122.15625 L 113.824219 122.714844 L 113.273438 123.398438 C 114.011719 124.101562 114.976562 124.554688 116.164062 124.761719 C 119.40625 125.382812 121.808594 124.722656 123.367188 122.777344 C 124.394531 121.496094 124.742188 120.046875 124.414062 118.433594 C 124.210938 117.277344 123.550781 115.871094 122.445312 114.214844 L 121.953125 112.914062 C 121.910156 112.417969 122.035156 112.003906 122.320312 111.671875 L 123.304688 110.988281 C 123.46875 110.785156 123.410156 110.390625 123.121094 109.8125 C 122.546875 108.570312 121.871094 107.679688 121.089844 107.144531 L 118.8125 106.214844 M 71.65625 104.105469 L 72.148438 104.785156 C 72.3125 105.074219 72.558594 105.160156 72.886719 105.035156 C 73.503906 104.785156 74.160156 104.414062 74.859375 103.917969 L 77.136719 102.179688 L 74.425781 101.003906 C 69.503906 103.8125 64.515625 104.890625 59.46875 104.226562 L 59.34375 104.414062 L 56.328125 105.839844 C 55.015625 106.625 54.316406 107.433594 54.234375 108.261719 C 54.195312 108.589844 55.078125 108.839844 56.882812 109.003906 L 60.144531 109.191406 C 63.878906 109.066406 66.648438 108.074219 68.457031 106.214844 L 69.871094 104.601562 C 70.527344 103.898438 71.125 103.730469 71.65625 104.105469 M 95.851562 79.101562 L 96.527344 72.773438 C 96.527344 72.941406 95.113281 72.566406 92.28125 71.65625 C 90.105469 70.707031 87.886719 69.382812 85.632812 67.6875 L 81.628906 64.460938 C 81.589844 66.238281 81.300781 68.058594 80.769531 69.921875 C 80.109375 72.15625 79.125 74.015625 77.8125 75.503906 C 76.335938 77.242188 74.570312 78.335938 72.519531 78.792969 L 65.191406 79.101562 L 57.929688 78.542969 L 60.082031 81.523438 L 60.636719 82.328125 L 62.054688 84.375 C 66.28125 90.496094 69.851562 94.984375 72.765625 97.839844 L 75.042969 99.886719 C 76.109375 100.671875 77.011719 100.960938 77.75 100.753906 C 79.394531 100.300781 81.179688 99.429688 83.105469 98.148438 L 87.722656 94.425781 C 92.035156 90.207031 94.742188 85.097656 95.851562 79.101562 M 99.789062 94.117188 L 99.667969 94.117188 L 100.34375 97.652344 C 100.425781 98.148438 100.363281 98.3125 100.160156 98.148438 L 99.789062 97.402344 C 99.175781 93.101562 97.859375 88.761719 95.851562 84.375 C 94.78125 87.1875 93.367188 89.667969 91.601562 91.820312 C 88.769531 95.292969 85.136719 98.148438 80.707031 100.382812 L 78.429688 101.4375 C 82.859375 103.257812 87.539062 104.785156 92.464844 106.027344 L 94.433594 106.523438 L 94.679688 106.585938 L 94.925781 106.894531 L 97.019531 108.820312 C 99.851562 110.804688 103.484375 112.335938 107.917969 113.410156 L 113.640625 114.402344 C 114.296875 113.90625 114.894531 113.265625 115.425781 112.480469 C 116.984375 109.957031 116.761719 107.183594 114.75 104.164062 L 114.566406 103.792969 C 113.003906 101.4375 111.300781 99.449219 109.457031 97.839844 C 106.253906 95.027344 103.03125 93.785156 99.789062 94.117188 M 72.273438 63.65625 C 72.476562 64.070312 72.394531 64.277344 72.027344 64.277344 L 65.070312 64.152344 C 64.125 64.109375 62.957031 64.585938 61.5625 65.578125 L 58.421875 67.9375 C 57.96875 68.265625 57.804688 68.886719 57.929688 69.796875 C 58.214844 70.582031 58.441406 71.453125 58.605469 72.402344 L 58.976562 74.078125 C 58.976562 75.316406 58.851562 76.394531 58.605469 77.304688 L 63.898438 77.675781 L 70.363281 77.488281 C 75.082031 76.785156 78.101562 74.179688 79.414062 69.671875 C 80.027344 67.523438 80.355469 65.414062 80.398438 63.34375 L 79.722656 62.722656 C 76.070312 59.375 72.046875 55.238281 67.65625 50.316406 L 64.394531 46.46875 L 61.253906 43.121094 L 59.777344 43.492188 L 58.851562 43.863281 C 58.6875 43.949219 58.6875 43.90625 58.851562 43.742188 L 56.820312 46.285156 C 57.066406 48.144531 57.066406 50.070312 56.820312 52.054688 L 56.699219 53.171875 L 56.757812 53.417969 L 56.636719 53.914062 L 56.636719 54.226562 L 56.265625 55.402344 L 56.082031 56.148438 L 56.019531 56.398438 L 55.957031 56.335938 C 55.261719 58.484375 54.234375 60.386719 52.878906 62.042969 L 54.050781 61.855469 C 55.324219 61.773438 56.308594 62.332031 57.003906 63.53125 C 57.457031 64.316406 57.742188 65.246094 57.867188 66.324219 L 59.777344 64.832031 C 61.089844 63.839844 62.21875 63.222656 63.160156 62.972656 C 60.535156 62.105469 58.542969 60.71875 57.191406 58.816406 C 57.476562 59.0625 57.867188 59.269531 58.359375 59.4375 L 59.34375 59.808594 C 60.492188 60.800781 61.992188 61.546875 63.839844 62.042969 L 70.300781 62.910156 L 71.535156 62.972656 C 71.863281 62.972656 72.109375 63.199219 72.273438 63.65625 M 80.214844 60.554688 C 79.761719 57.410156 78.632812 54.617188 76.828125 52.179688 C 74.203125 48.703125 70.855469 45.707031 66.792969 43.183594 C 65.152344 42.191406 63.714844 41.488281 62.484375 41.074219 L 57.804688 40.328125 L 54.972656 40.390625 C 55.753906 41.507812 56.265625 42.953125 56.511719 44.734375 L 57.375 43.617188 C 57.703125 43.160156 58.339844 42.808594 59.28125 42.5625 L 61.5 42.128906 L 62.175781 42.191406 L 62.300781 42.253906 L 69.441406 49.882812 L 76.457031 57.636719 L 80.335938 61.359375 L 80.214844 60.554688 M 37.859375 4.347656 L 38.105469 4.65625 L 38.167969 4.96875 C 35.582031 4.761719 33.488281 4.78125 31.886719 5.027344 C 30 5.277344 29.140625 5.753906 29.304688 6.457031 C 29.386719 6.871094 30.144531 7.304688 31.582031 7.757812 C 34.332031 8.75 38.023438 9.578125 42.660156 10.242188 L 42.96875 10.796875 L 37.121094 9.742188 L 33.304688 8.9375 C 31.828125 8.523438 30.65625 7.964844 29.796875 7.261719 C 29.097656 6.726562 28.808594 6.207031 28.933594 5.710938 C 29.140625 5.175781 29.652344 4.800781 30.472656 4.59375 L 37.859375 4.347656 M 52.203125 24.136719 L 51.835938 23.949219 L 52.449219 26.554688 L 53.066406 28.605469 L 53.003906 28.664062 L 53.066406 28.664062 L 53.433594 29.597656 L 53.621094 29.597656 L 53.867188 30.214844 L 54.542969 30.214844 L 55.40625 29.90625 L 55.464844 29.84375 L 55.527344 29.96875 L 55.957031 29.597656 C 56.371094 29.140625 56.472656 28.664062 56.265625 28.167969 C 55.980469 27.21875 55.078125 26.183594 53.558594 25.066406 L 52.203125 24.136719 M 46.109375 32.636719 C 46.191406 32.429688 46.582031 32.84375 47.277344 33.875 C 47.976562 34.910156 48.242188 35.800781 48.078125 36.542969 C 48.039062 37.289062 47.8125 37.910156 47.402344 38.40625 C 47.03125 38.820312 46.726562 38.941406 46.476562 38.777344 L 46.171875 37.910156 L 46.292969 36.421875 C 46.457031 35.964844 46.5 35.222656 46.417969 34.1875 L 46.109375 32.636719 M 49.003906 30.773438 C 49.167969 31.023438 49.144531 31.210938 48.941406 31.332031 L 48.449219 31.269531 L 47.710938 30.835938 L 47.21875 30.714844 L 46.847656 30.339844 L 47.21875 29.96875 L 48.140625 30.15625 C 48.550781 30.320312 48.839844 30.527344 49.003906 30.773438 M 51.15625 24.695312 L 50.910156 23.453125 L 47.15625 21.902344 L 43.707031 21.160156 L 43.585938 21.40625 L 46.726562 21.964844 C 48.449219 22.421875 49.925781 23.332031 51.15625 24.695312 M 51.589844 26.929688 L 49.617188 25.6875 C 48.59375 25.066406 47.628906 24.652344 46.726562 24.445312 L 44.570312 23.890625 L 43.523438 23.765625 L 43.152344 23.515625 L 43.398438 23.082031 L 43.648438 22.957031 L 46.972656 23.703125 C 48.53125 24.28125 49.925781 25.066406 51.15625 26.058594 C 50.214844 24.324219 48.632812 23.164062 46.417969 22.585938 L 42.722656 22.214844 L 42.292969 21.839844 L 42.355469 21.46875 L 42.601562 21.035156 L 40.015625 20.847656 C 36.730469 20.847656 32.976562 21.429688 28.75 22.585938 L 27.703125 22.894531 L 26.71875 23.703125 C 26.308594 23.949219 25.917969 24.074219 25.546875 24.074219 L 23.332031 24.507812 L 22.839844 24.941406 L 22.160156 27.734375 L 21.792969 30.214844 C 21.382812 31.292969 20.867188 32.078125 20.253906 32.574219 C 20.128906 35.800781 20.5 38.738281 21.363281 41.382812 C 22.757812 45.644531 25.238281 49.117188 28.808594 51.804688 C 32.546875 54.660156 36.527344 55.859375 40.753906 55.402344 C 43.132812 55.15625 45.0625 54.597656 46.539062 53.730469 L 47.710938 52.984375 L 48.265625 52.550781 L 48.324219 52.550781 C 49.144531 51.515625 49.824219 50.214844 50.355469 48.640625 L 50.726562 47.523438 L 50.296875 47.773438 L 49.863281 47.835938 L 49.988281 47.277344 C 51.507812 44.300781 52.246094 40.867188 52.203125 36.980469 L 52.632812 36.730469 C 54.195312 35.863281 54.871094 34.496094 54.667969 32.636719 L 54.605469 32.324219 L 54.542969 32.324219 L 54.480469 31.765625 C 54.070312 30.445312 53.085938 29.679688 51.527344 29.472656 L 51.21875 29.160156 L 52.328125 28.914062 L 51.957031 28.292969 L 50.171875 27.363281 C 49.0625 26.824219 48.121094 26.453125 47.339844 26.246094 L 45.371094 25.996094 C 45.042969 25.957031 44.816406 25.832031 44.691406 25.625 C 44.570312 25.417969 44.589844 25.273438 44.753906 25.191406 L 44.878906 25.128906 L 47.464844 25.441406 C 48.898438 25.8125 50.355469 26.535156 51.835938 27.609375 L 51.589844 26.929688 M 45.984375 27.921875 L 47.832031 28.167969 L 49.003906 28.726562 L 49.679688 29.347656 C 49.71875 29.554688 49.496094 29.554688 49.003906 29.347656 L 47.648438 28.851562 L 46.230469 28.726562 L 46.171875 28.726562 C 45.84375 28.6875 45.679688 28.542969 45.679688 28.292969 L 45.984375 27.921875 M 44.570312 58.566406 L 44.570312 57.203125 C 43.296875 57.246094 42.148438 56.914062 41.121094 56.210938 L 39.644531 56.398438 C 39.851562 57.429688 40.261719 58.359375 40.875 59.1875 C 41.695312 60.222656 42.683594 60.882812 43.832031 61.171875 L 44.507812 61.234375 L 44.570312 58.566406 M 32.75 58.691406 L 32.8125 58.507812 L 32.566406 59.1875 L 32.75 58.691406 M 32.933594 60.242188 L 32.933594 60.429688 C 33.753906 59.972656 34.390625 59.871094 34.84375 60.117188 L 35.460938 60.429688 L 35.398438 60.242188 L 35.335938 59.933594 L 35.335938 59.808594 L 35.398438 59.621094 L 35.582031 59.3125 L 36.445312 58.753906 L 36.074219 58.566406 L 33.613281 58.445312 L 32.933594 60.242188 M 24.316406 38.15625 L 23.945312 36.730469 L 24.378906 35.800781 L 25.425781 35.984375 L 26.347656 37.164062 C 26.59375 37.703125 26.71875 38.199219 26.71875 38.652344 C 26.675781 39.109375 26.511719 39.417969 26.226562 39.585938 L 25.238281 39.398438 L 24.316406 38.15625 M 35.890625 50.503906 L 36.074219 50.191406 L 36.628906 49.820312 C 36.75 49.777344 37.140625 49.53125 37.796875 49.074219 L 38.230469 48.703125 L 39.152344 48.765625 C 39.359375 49.097656 39.296875 49.40625 38.96875 49.695312 C 38.476562 50.234375 37.941406 50.523438 37.367188 50.566406 L 36.199219 50.566406 L 35.890625 50.503906 M 33.734375 45.105469 C 33.734375 44.566406 33.898438 44.214844 34.226562 44.050781 L 35.335938 44.359375 L 36.445312 45.789062 C 36.730469 46.449219 36.875 47.050781 36.875 47.585938 C 36.875 48.125 36.730469 48.476562 36.445312 48.640625 C 36.117188 48.808594 35.746094 48.703125 35.335938 48.332031 C 34.882812 48 34.515625 47.523438 34.226562 46.90625 C 33.898438 46.285156 33.734375 45.683594 33.734375 45.105469 M 43.707031 33.441406 L 43.707031 32.449219 L 43.832031 31.023438 L 43.648438 29.96875 L 44.386719 30.773438 C 44.878906 31.476562 45.0625 32.078125 44.9375 32.574219 C 44.898438 33.070312 44.753906 33.484375 44.507812 33.816406 C 44.261719 34.105469 44.058594 34.1875 43.894531 34.0625 L 43.707031 33.441406 M 35.890625 29.597656 L 36.875 29.84375 L 37.796875 31.023438 C 38.085938 31.519531 38.207031 32.015625 38.167969 32.511719 C 38.167969 32.96875 38.023438 33.257812 37.738281 33.378906 C 37.449219 33.546875 37.121094 33.484375 36.75 33.195312 L 35.765625 32.015625 C 35.519531 31.476562 35.417969 30.980469 35.460938 30.527344 C 35.460938 30.070312 35.601562 29.761719 35.890625 29.597656 M 34.167969 24.199219 L 34.414062 23.828125 L 34.90625 23.828125 L 36.445312 24.820312 C 37.511719 25.5625 38.023438 26.203125 37.984375 26.742188 L 37 26.554688 L 35.582031 26.058594 L 34.351562 25.8125 L 33.734375 25.6875 C 33.613281 25.605469 33.652344 25.335938 33.859375 24.882812 L 34.167969 24.199219 M 30.347656 32.699219 L 30.597656 32.820312 L 30.78125 33.257812 L 30.964844 34.3125 L 31.148438 36.605469 L 31.148438 39.398438 C 31.148438 39.8125 31.335938 40.101562 31.703125 40.265625 L 33.425781 41.136719 L 33.671875 41.445312 L 33.488281 41.816406 C 33.121094 42.355469 32.648438 42.519531 32.074219 42.3125 L 29.917969 41.136719 C 29.550781 40.929688 29.425781 40.617188 29.550781 40.203125 L 30.164062 36.234375 L 30.164062 34.433594 L 30.101562 33.441406 L 30.347656 32.699219 M 26.53125 31.582031 C 26.53125 31.664062 26.429688 31.726562 26.226562 31.765625 L 23.761719 32.203125 L 23.269531 32.140625 L 22.960938 31.644531 L 22.902344 30.960938 L 23.085938 30.527344 L 23.578125 30.464844 L 26.226562 31.394531 L 26.53125 31.582031 M 21.238281 27.609375 L 21.914062 24.941406 L 19.824219 26.121094 C 17.648438 27.570312 16.886719 28.851562 17.542969 29.96875 L 18.835938 31.457031 L 19.390625 32.140625 C 20.046875 31.726562 20.539062 31.023438 20.867188 30.03125 L 21.238281 27.609375 M 38.289062 56.519531 L 38.476562 56.644531 L 38.476562 56.519531 L 38.289062 56.519531 M 55.035156 87.105469 L 54.359375 84.933594 L 53.496094 83.632812 L 52.449219 81.398438 L 52.140625 81.523438 L 51.957031 81.585938 L 52.941406 83.257812 L 54.296875 85.554688 C 54.625 86.175781 54.808594 86.671875 54.851562 87.042969 L 54.726562 87.042969 L 54.851562 87.292969 L 53.988281 86.796875 L 53.742188 86.734375 L 53.621094 86.796875 L 54.851562 87.539062 L 54.605469 87.910156 C 54.359375 88.203125 53.90625 88.386719 53.25 88.46875 L 51.710938 88.410156 C 51.21875 88.203125 50.890625 87.871094 50.726562 87.414062 C 49.289062 87.996094 47.996094 88.738281 46.847656 89.648438 C 43.894531 91.921875 43.566406 94.363281 45.863281 96.96875 C 47.464844 98.832031 49.742188 100.300781 52.695312 101.375 C 55.242188 102.285156 57.929688 102.820312 60.761719 102.988281 C 64.824219 103.152344 68.84375 102.242188 72.828125 100.257812 C 70.488281 99.097656 68.332031 97.878906 66.363281 96.597656 L 65.5625 96.039062 L 65.4375 96.226562 C 63.019531 97.671875 60.207031 98.355469 57.003906 98.273438 C 56.800781 98.230469 56.65625 97.984375 56.574219 97.527344 L 56.636719 96.785156 C 59.507812 96.90625 62.074219 96.390625 64.332031 95.234375 L 60.144531 91.695312 C 59.941406 91.777344 59.695312 91.882812 59.40625 92.007812 L 57.066406 92.253906 C 56.65625 92.046875 56.347656 91.59375 56.144531 90.890625 L 55.652344 89.089844 L 55.21875 87.664062 L 55.035156 87.105469 M 51.28125 80.40625 L 51.527344 80.34375 L 51.773438 80.21875 L 51.15625 78.976562 L 50.355469 78.917969 L 51.28125 80.40625 M 45.863281 71.597656 L 45.738281 71.71875 L 46.171875 72.402344 L 47.464844 74.386719 L 48.015625 74.945312 L 48.015625 75.257812 L 49.554688 77.675781 L 50.355469 77.984375 C 51.671875 78.480469 53.105469 78.460938 54.667969 77.925781 L 55.652344 77.550781 L 53.988281 75.257812 C 51.28125 71.863281 48.613281 69.21875 45.984375 67.316406 L 44.9375 67.5625 C 44.324219 68.058594 44.035156 68.472656 44.078125 68.804688 L 44.261719 69.113281 C 44.46875 69.363281 44.878906 69.714844 45.492188 70.167969 C 46.355469 70.75 46.476562 71.222656 45.863281 71.597656 M 47.277344 66.386719 L 47.03125 66.445312 L 48.386719 67.5 L 51.589844 70.542969 L 56.636719 76.808594 C 57.003906 76.3125 57.191406 75.730469 57.191406 75.070312 C 57.148438 73.539062 57.046875 72.382812 56.882812 71.597656 C 56.59375 70.3125 56.082031 69.28125 55.34375 68.492188 L 55.527344 68.121094 L 56.390625 67.253906 L 56.019531 64.957031 C 55.488281 63.59375 54.789062 62.703125 53.925781 62.289062 L 52.820312 62.105469 L 51.835938 63.160156 C 51.628906 63.324219 51.402344 63.28125 51.15625 63.035156 L 50.171875 64.027344 C 49.71875 64.605469 50.050781 65.019531 51.15625 65.269531 L 53.003906 65.453125 L 53.496094 65.453125 C 53.90625 65.453125 54.007812 65.578125 53.804688 65.828125 C 53.558594 66.035156 53.292969 66.136719 53.003906 66.136719 L 52.820312 66.136719 L 49.125 66.261719 L 47.277344 66.386719 M 49.742188 57.949219 L 49.679688 57.265625 L 48.078125 60.613281 L 47.957031 61.296875 L 47.15625 65.765625 L 48.757812 65.515625 L 49.003906 65.515625 L 48.386719 65.144531 L 48.265625 64.894531 C 48.550781 63.945312 49.351562 63.179688 50.664062 62.601562 L 50.789062 62.539062 L 50.726562 62.351562 L 50.171875 60.179688 L 49.742188 57.949219 M 55.652344 47.773438 L 53.433594 50.875 L 50.417969 55.898438 C 50.707031 56.4375 50.953125 57.183594 51.15625 58.132812 L 51.710938 60.988281 C 53.597656 58.796875 54.851562 56.023438 55.464844 52.675781 L 55.464844 51.496094 L 55.652344 47.773438 M 53.988281 40.761719 C 53.539062 41.09375 53.25 41.570312 53.128906 42.191406 L 52.019531 47.339844 L 51.21875 50.128906 C 50.890625 51.207031 50.5 52.09375 50.050781 52.796875 C 49.679688 53.417969 49.144531 53.976562 48.449219 54.472656 L 46.664062 55.898438 C 46.046875 56.5625 45.738281 57.511719 45.738281 58.753906 L 45.738281 61.917969 L 45.433594 64.027344 L 46.785156 60.179688 L 47.277344 57.453125 C 47.648438 55.796875 48.160156 54.929688 48.816406 54.84375 L 49.371094 54.90625 L 53.679688 48.394531 L 55.589844 45.914062 C 55.34375 44.050781 54.808594 42.335938 53.988281 40.761719 M 39.523438 66.074219 L 39.644531 66.261719 L 43.769531 71.84375 L 43.832031 71.78125 L 43.894531 71.78125 L 42.722656 69.796875 L 42.539062 69.425781 L 42.167969 68.554688 L 41.675781 67.316406 L 40.628906 66.757812 L 39.523438 66.074219 M 44.386719 62.601562 L 44.445312 62.105469 L 44.261719 62.042969 C 43.648438 62.042969 42.886719 61.792969 41.984375 61.296875 L 40.691406 60.429688 L 41.675781 62.539062 L 43.09375 65.082031 L 43.953125 66.074219 L 44.386719 62.601562 M 33.859375 60.738281 L 33.859375 61.421875 L 34.042969 62.910156 L 34.105469 64.523438 L 35.089844 63.40625 L 35.953125 62.476562 L 33.859375 60.738281 M 37.738281 59.746094 L 37.859375 60.242188 C 37.941406 60.738281 37.859375 61.214844 37.613281 61.667969 L 37.429688 61.980469 L 37.550781 62.414062 L 39.398438 64.460938 L 41.183594 65.886719 L 40.261719 63.40625 L 38.90625 60.800781 C 38.453125 60.179688 38.066406 59.828125 37.738281 59.746094 M 37.304688 59.746094 L 36.875 60.058594 L 37.121094 61.113281 C 37.410156 60.613281 37.46875 60.160156 37.304688 59.746094 M 58.113281 86.300781 L 58.175781 86.175781 L 59.777344 85.429688 L 59.34375 84.128906 C 59.261719 83.839844 59.015625 83.734375 58.605469 83.816406 L 57.558594 84.066406 L 56.453125 84.5 C 56.121094 84.664062 56.019531 85.015625 56.144531 85.554688 L 56.203125 85.554688 L 56.574219 86.855469 L 56.882812 87.851562 L 57.3125 89.277344 C 57.476562 89.691406 57.765625 89.875 58.175781 89.835938 L 59.34375 89.402344 L 60.453125 88.964844 C 60.65625 88.71875 60.679688 88.324219 60.515625 87.789062 L 60.453125 87.539062 L 58.667969 87.414062 L 58.484375 87.292969 L 57.929688 86.855469 L 58.113281 86.300781 M 53.25 78.855469 L 52.328125 78.976562 L 52.386719 79.039062 L 53.558594 81.273438 L 54.417969 82.949219 L 55.898438 82.328125 L 57.804688 81.523438 L 58.359375 81.398438 L 56.019531 78.109375 L 53.25 78.855469 M 52.265625 80.777344 L 52.328125 80.714844 L 52.019531 80.777344 L 51.710938 80.964844 L 51.957031 80.902344 L 52.265625 80.777344 M 56.390625 86.917969 L 55.835938 85.121094 L 55.835938 85.058594 C 55.671875 84.480469 55.710938 84.105469 55.957031 83.941406 L 57.25 83.445312 L 58.359375 83.074219 C 58.769531 83.03125 59.097656 83.175781 59.34375 83.507812 C 59.632812 83.960938 59.878906 84.5625 60.082031 85.304688 L 60.144531 85.367188 L 60.269531 85.367188 L 60.761719 85.617188 L 61.128906 86.113281 L 60.820312 84.933594 L 60.699219 84.6875 L 58.914062 82.082031 L 57.191406 82.453125 C 55.464844 82.992188 54.726562 83.734375 54.972656 84.6875 L 55.710938 87.042969 L 55.957031 87.851562 L 56.636719 90.144531 C 56.882812 90.890625 57.210938 91.304688 57.621094 91.386719 L 59.222656 91.074219 L 61.253906 90.457031 C 61.910156 90.082031 62.136719 89.503906 61.929688 88.71875 L 61.253906 86.484375 L 61.253906 86.609375 C 61.210938 86.941406 61.027344 87.207031 60.699219 87.414062 L 60.574219 87.476562 L 60.761719 88.222656 L 61.066406 88.90625 L 61.066406 89.585938 C 60.984375 89.753906 60.515625 89.917969 59.652344 90.082031 L 58.484375 90.578125 C 58.03125 90.664062 57.703125 90.515625 57.496094 90.144531 L 56.636719 87.851562 L 56.574219 87.726562 L 56.390625 86.917969 M 53.1875 86.980469 L 53.128906 86.917969 L 51.648438 84.003906 L 50.480469 82.019531 C 51.175781 83.425781 51.691406 84.769531 52.019531 86.050781 L 52.140625 86.671875 C 52.265625 86.960938 52.429688 87.085938 52.632812 87.042969 L 53.1875 86.980469 M 61.5625 85.304688 L 61.683594 85.863281 L 61.992188 85.679688 L 61.5625 85.304688 M 60.390625 86.609375 L 60.390625 86.671875 L 60.453125 86.609375 L 60.574219 86.300781 L 60.515625 85.800781 L 60.269531 85.925781 L 60.390625 86.609375 M 60.207031 86.734375 L 59.960938 86.050781 L 59.34375 86.300781 C 58.6875 86.589844 58.441406 86.855469 58.605469 87.105469 L 58.914062 87.355469 L 59.34375 87.292969 C 59.671875 87.25 59.941406 87.148438 60.144531 86.980469 L 60.269531 86.917969 L 60.207031 86.734375 M 38.230469 78.046875 C 38.148438 78.046875 38.066406 78.007812 37.984375 77.925781 L 37.058594 78.917969 C 36.28125 79.453125 35.292969 79.742188 34.105469 79.785156 L 30.902344 79.660156 C 31.191406 80.53125 31.765625 81.148438 32.628906 81.523438 L 36.011719 81.644531 C 37.777344 81.234375 38.867188 80.613281 39.277344 79.785156 C 39.523438 79.246094 39.5625 78.8125 39.398438 78.480469 C 39.195312 78.152344 38.804688 78.007812 38.230469 78.046875 M 37.550781 76.496094 C 37.839844 75.835938 37.695312 75.339844 37.121094 75.007812 L 35.460938 74.636719 C 35.007812 75.171875 34.167969 75.441406 32.933594 75.441406 C 31.664062 75.441406 30.597656 75.234375 29.734375 74.820312 L 28.625 75.816406 C 28.421875 76.394531 28.441406 76.847656 28.6875 77.179688 L 29.796875 77.925781 L 34.042969 78.359375 C 36.011719 78.070312 37.183594 77.449219 37.550781 76.496094 M 33.058594 70.046875 C 33.589844 69.839844 34.085938 69.941406 34.535156 70.355469 L 34.535156 69.363281 L 31.703125 69.921875 L 29.179688 71.285156 C 28.195312 72.113281 28.214844 72.773438 29.242188 73.269531 L 29.425781 73.394531 L 29.550781 73.457031 L 31.703125 73.953125 L 34.226562 73.644531 C 34.71875 73.476562 35.046875 73.207031 35.210938 72.835938 L 35.273438 72.464844 L 35.027344 71.96875 L 34.660156 71.65625 L 33.425781 71.472656 C 33.304688 71.511719 33.160156 71.285156 32.996094 70.789062 C 32.875 70.335938 32.894531 70.085938 33.058594 70.046875 M 45.308594 74.015625 L 45.371094 74.078125 L 44.9375 73.394531 L 45 73.582031 L 45.308594 74.015625 M 40.261719 71.285156 C 40.382812 71.039062 40.527344 71.140625 40.691406 71.597656 C 41.101562 72.710938 41.203125 73.726562 41 74.636719 C 40.710938 75.753906 39.953125 76.082031 38.722656 75.628906 L 38.167969 75.378906 L 38.289062 76.25 L 38.351562 76.621094 C 39.214844 76.746094 39.789062 77.488281 40.074219 78.855469 C 40.28125 79.722656 40.136719 80.507812 39.644531 81.210938 L 39.277344 81.769531 L 40.324219 81.585938 C 41.347656 81.292969 42.292969 80.777344 43.152344 80.03125 C 44.015625 78.75 44.570312 77.449219 44.816406 76.125 L 44.691406 75.9375 L 39.152344 68.371094 L 38.660156 67.625 C 37.839844 67.585938 37.101562 67.894531 36.445312 68.554688 C 35.089844 69.878906 34.964844 71.121094 36.074219 72.277344 L 36.875 73.207031 L 37.859375 73.953125 L 39.953125 74.078125 C 40.570312 73.746094 40.691406 73.085938 40.324219 72.09375 L 40.261719 71.285156 M 48.570312 82.019531 L 47.832031 80.714844 L 45.371094 76.929688 C 45.164062 78.171875 44.773438 79.351562 44.199219 80.46875 C 45.554688 81.128906 47.011719 81.644531 48.570312 82.019531 M 67.285156 94.117188 L 67.101562 93.804688 L 64.578125 94.054688 C 66.382812 95.335938 68.292969 96.515625 70.300781 97.589844 L 67.285156 94.117188 M 61.808594 86.175781 L 62.484375 88.65625 C 62.8125 89.441406 62.914062 89.960938 62.792969 90.207031 C 62.710938 90.539062 62.320312 90.828125 61.621094 91.074219 L 61.191406 91.261719 L 62.855469 92.6875 L 62.914062 92.625 L 66.179688 92.441406 L 61.808594 86.175781 "/>
<path style=" stroke:none;fill-rule:nonzero;fill:rgb(100%,100%,100%);fill-opacity:1;" d="M 70.671875 27.300781 C 70.136719 28.085938 69.257812 28.851562 68.023438 29.597656 C 66.136719 30.753906 63.859375 31.726562 61.191406 32.511719 L 55.464844 33.9375 L 55.464844 32.015625 L 55.773438 31.828125 L 55.957031 31.707031 L 55.957031 31.519531 C 56.820312 30.980469 57.25 30.320312 57.25 29.535156 C 57.25 28.75 56.757812 27.714844 55.773438 26.433594 C 54.5 24.777344 52.738281 23.390625 50.480469 22.277344 C 48.59375 21.324219 46.476562 20.601562 44.140625 20.105469 C 40.570312 19.402344 36.648438 19.421875 32.382812 20.167969 C 28.605469 20.871094 24.851562 22.070312 21.117188 23.765625 L 18.222656 25.316406 C 17.15625 26.144531 16.539062 27.011719 16.375 27.921875 C 16.253906 28.707031 16.601562 29.679688 17.421875 30.835938 L 19.023438 32.574219 L 19.082031 34.433594 C 17.769531 33.980469 16.210938 32.863281 14.40625 31.085938 C 12.558594 29.308594 11 28.210938 9.726562 27.796875 L 7.019531 27.113281 C 5.910156 26.824219 5.027344 26.554688 4.371094 26.308594 C 3.753906 26.101562 3.34375 25.914062 3.140625 25.75 C 2.8125 25.460938 2.707031 25.066406 2.832031 24.570312 C 2.953125 24.074219 3.507812 23.578125 4.492188 23.082031 C 6.136719 22.214844 8.289062 21.59375 10.957031 21.222656 L 17.730469 20.785156 L 19.390625 20.664062 L 19.515625 20.664062 C 22.511719 20.289062 26.019531 19.546875 30.042969 18.429688 L 38.167969 16.382812 L 46.417969 14.957031 C 51.09375 14.457031 55.855469 15.101562 60.699219 16.878906 C 65.992188 18.78125 69.398438 21.179688 70.917969 24.074219 C 71.492188 25.191406 71.410156 26.265625 70.671875 27.300781 M 33.980469 56.582031 L 34.042969 56.582031 L 34.472656 56.519531 L 34.660156 56.457031 L 34.351562 56.644531 C 35.707031 56.519531 36.8125 56.953125 37.675781 57.949219 L 38.167969 58.753906 L 37.796875 58.691406 L 37.058594 58.691406 C 36.363281 58.03125 35.292969 57.679688 33.859375 57.636719 L 33.242188 57.761719 L 34.351562 56.644531 L 33.859375 56.769531 L 33.980469 56.582031 M 80.214844 60.554688 L 80.335938 61.359375 L 76.457031 57.636719 L 69.441406 49.882812 L 62.300781 42.253906 L 62.175781 42.191406 L 61.5 42.128906 L 59.28125 42.5625 C 58.339844 42.808594 57.703125 43.160156 57.375 43.617188 L 56.511719 44.734375 C 56.265625 42.953125 55.753906 41.507812 54.972656 40.390625 L 57.804688 40.328125 L 62.484375 41.074219 C 63.714844 41.488281 65.152344 42.191406 66.792969 43.183594 C 70.855469 45.707031 74.203125 48.703125 76.828125 52.179688 C 78.632812 54.617188 79.761719 57.410156 80.214844 60.554688 M 72.273438 63.65625 C 72.109375 63.199219 71.863281 62.972656 71.535156 62.972656 L 70.300781 62.910156 L 63.839844 62.042969 C 61.992188 61.546875 60.492188 60.800781 59.34375 59.808594 L 58.359375 59.4375 C 57.867188 59.269531 57.476562 59.0625 57.191406 58.816406 C 58.542969 60.71875 60.535156 62.105469 63.160156 62.972656 C 62.21875 63.222656 61.089844 63.839844 59.777344 64.832031 L 57.867188 66.324219 C 57.742188 65.246094 57.457031 64.316406 57.003906 63.53125 C 56.308594 62.332031 55.324219 61.773438 54.050781 61.855469 L 52.878906 62.042969 C 54.234375 60.386719 55.261719 58.484375 55.957031 56.335938 L 56.019531 56.398438 L 56.082031 56.148438 L 56.265625 55.402344 L 56.636719 54.226562 L 56.636719 53.914062 L 56.757812 53.417969 L 56.699219 53.171875 L 56.820312 52.054688 C 57.066406 50.070312 57.066406 48.144531 56.820312 46.285156 L 58.851562 43.742188 C 58.6875 43.90625 58.6875 43.949219 58.851562 43.863281 L 59.777344 43.492188 L 61.253906 43.121094 L 64.394531 46.46875 L 67.65625 50.316406 C 72.046875 55.238281 76.070312 59.375 79.722656 62.722656 L 80.398438 63.34375 C 80.355469 65.414062 80.027344 67.523438 79.414062 69.671875 C 78.101562 74.179688 75.082031 76.785156 70.363281 77.488281 L 63.898438 77.675781 L 58.605469 77.304688 C 58.851562 76.394531 58.976562 75.316406 58.976562 74.078125 L 58.605469 72.402344 C 58.441406 71.453125 58.214844 70.582031 57.929688 69.796875 C 57.804688 68.886719 57.96875 68.265625 58.421875 67.9375 L 61.5625 65.578125 C 62.957031 64.585938 64.125 64.109375 65.070312 64.152344 L 72.027344 64.277344 C 72.394531 64.277344 72.476562 64.070312 72.273438 63.65625 M 99.789062 94.117188 C 103.03125 93.785156 106.253906 95.027344 109.457031 97.839844 C 111.300781 99.449219 113.003906 101.4375 114.566406 103.792969 L 114.75 104.164062 C 116.761719 107.183594 116.984375 109.957031 115.425781 112.480469 C 114.894531 113.265625 114.296875 113.90625 113.640625 114.402344 L 107.917969 113.410156 C 103.484375 112.335938 99.851562 110.804688 97.019531 108.820312 L 94.925781 106.894531 L 94.679688 106.585938 L 94.433594 106.523438 L 92.464844 106.027344 C 87.539062 104.785156 82.859375 103.257812 78.429688 101.4375 L 80.707031 100.382812 C 85.136719 98.148438 88.769531 95.292969 91.601562 91.820312 C 93.367188 89.667969 94.78125 87.1875 95.851562 84.375 C 97.859375 88.761719 99.175781 93.101562 99.789062 97.402344 L 100.160156 98.148438 C 100.363281 98.3125 100.425781 98.148438 100.34375 97.652344 L 99.667969 94.117188 L 99.789062 94.117188 M 95.851562 79.101562 C 94.742188 85.097656 92.035156 90.207031 87.722656 94.425781 L 83.105469 98.148438 C 81.179688 99.429688 79.394531 100.300781 77.75 100.753906 C 77.011719 100.960938 76.109375 100.671875 75.042969 99.886719 L 72.765625 97.839844 C 69.851562 94.984375 66.28125 90.496094 62.054688 84.375 L 60.636719 82.328125 L 60.082031 81.523438 L 57.929688 78.542969 L 65.191406 79.101562 L 72.519531 78.792969 C 74.570312 78.335938 76.335938 77.242188 77.8125 75.503906 C 79.125 74.015625 80.109375 72.15625 80.769531 69.921875 C 81.300781 68.058594 81.589844 66.238281 81.628906 64.460938 L 85.632812 67.6875 C 87.886719 69.382812 90.105469 70.707031 92.28125 71.65625 C 95.113281 72.566406 96.527344 72.941406 96.527344 72.773438 L 95.851562 79.101562 M 71.65625 104.105469 C 71.125 103.730469 70.527344 103.898438 69.871094 104.601562 L 68.457031 106.214844 C 66.648438 108.074219 63.878906 109.066406 60.144531 109.191406 L 56.882812 109.003906 C 55.078125 108.839844 54.195312 108.589844 54.234375 108.261719 C 54.316406 107.433594 55.015625 106.625 56.328125 105.839844 L 59.34375 104.414062 L 59.46875 104.226562 C 64.515625 104.890625 69.503906 103.8125 74.425781 101.003906 L 77.136719 102.179688 L 74.859375 103.917969 C 74.160156 104.414062 73.503906 104.785156 72.886719 105.035156 C 72.558594 105.160156 72.3125 105.074219 72.148438 104.785156 L 71.65625 104.105469 M 118.8125 106.214844 L 121.089844 107.144531 C 121.871094 107.679688 122.546875 108.570312 123.121094 109.8125 C 123.410156 110.390625 123.46875 110.785156 123.304688 110.988281 L 122.320312 111.671875 C 122.035156 112.003906 121.910156 112.417969 121.953125 112.914062 L 122.445312 114.214844 C 123.550781 115.871094 124.210938 117.277344 124.414062 118.433594 C 124.742188 120.046875 124.394531 121.496094 123.367188 122.777344 C 121.808594 124.722656 119.40625 125.382812 116.164062 124.761719 C 114.976562 124.554688 114.011719 124.101562 113.273438 123.398438 L 113.824219 122.714844 L 114.566406 122.15625 C 115.179688 121.742188 115.796875 121.472656 116.410156 121.351562 C 117.191406 121.226562 117.539062 121.515625 117.457031 122.21875 L 117.398438 122.28125 L 117.398438 122.34375 C 117.355469 122.507812 117.4375 122.796875 117.644531 123.210938 C 117.808594 123.625 117.910156 123.730469 117.949219 123.523438 L 118.136719 122.40625 C 118.175781 120.335938 117.273438 118.082031 115.425781 115.644531 L 114.996094 115.023438 C 116.390625 113.699219 117.066406 111.960938 117.027344 109.8125 L 116.472656 106.460938 L 118.8125 106.214844 M 51.710938 13.652344 L 48.140625 13.527344 L 40.324219 14.398438 L 32.75 16.257812 L 25.980469 18.121094 L 19.515625 19.421875 L 19.636719 15.824219 C 19.761719 14.128906 20.191406 12.640625 20.929688 11.355469 L 23.640625 6.582031 L 24.5 4.59375 L 25.671875 2.671875 C 26.203125 2.132812 27.230469 1.824219 28.75 1.742188 L 28.933594 1.742188 L 36.199219 2.671875 L 43.398438 3.664062 C 45.65625 4.121094 47.113281 4.96875 47.769531 6.207031 L 51.710938 13.652344 M 37.859375 4.347656 L 30.472656 4.59375 C 29.652344 4.800781 29.140625 5.175781 28.933594 5.710938 C 28.808594 6.207031 29.097656 6.726562 29.796875 7.261719 C 30.65625 7.964844 31.828125 8.523438 33.304688 8.9375 L 37.121094 9.742188 L 42.96875 10.796875 L 42.660156 10.242188 C 38.023438 9.578125 34.332031 8.75 31.582031 7.757812 C 30.144531 7.304688 29.386719 6.871094 29.304688 6.457031 C 29.140625 5.753906 30 5.277344 31.886719 5.027344 C 33.488281 4.78125 35.582031 4.761719 38.167969 4.96875 L 38.105469 4.65625 L 37.859375 4.347656 M 53.621094 29.597656 L 53.558594 29.285156 L 53.496094 29.222656 L 52.941406 27.175781 L 52.203125 24.136719 L 53.558594 25.066406 C 55.078125 26.183594 55.980469 27.21875 56.265625 28.167969 C 56.472656 28.664062 56.371094 29.140625 55.957031 29.597656 L 55.464844 29.84375 L 55.40625 29.90625 L 54.542969 30.214844 L 53.867188 30.214844 L 53.621094 29.597656 M 45.984375 27.921875 L 45.679688 28.292969 C 45.679688 28.542969 45.84375 28.6875 46.171875 28.726562 L 46.230469 28.726562 L 47.648438 28.851562 L 49.003906 29.347656 C 49.496094 29.554688 49.71875 29.554688 49.679688 29.347656 L 49.003906 28.726562 L 47.832031 28.167969 L 45.984375 27.921875 M 51.589844 26.929688 L 51.835938 27.609375 C 50.355469 26.535156 48.898438 25.8125 47.464844 25.441406 L 44.878906 25.128906 L 44.753906 25.191406 C 44.589844 25.273438 44.570312 25.417969 44.691406 25.625 C 44.816406 25.832031 45.042969 25.957031 45.371094 25.996094 L 47.339844 26.246094 C 48.121094 26.453125 49.0625 26.824219 50.171875 27.363281 L 51.957031 28.292969 L 52.328125 28.914062 L 51.21875 29.160156 L 51.527344 29.472656 C 53.085938 29.679688 54.070312 30.445312 54.480469 31.765625 L 54.542969 32.324219 L 54.605469 32.324219 L 54.667969 32.636719 C 54.871094 34.496094 54.195312 35.863281 52.632812 36.730469 L 52.203125 36.980469 C 52.246094 40.867188 51.507812 44.300781 49.988281 47.277344 L 49.863281 47.835938 L 50.296875 47.773438 L 50.726562 47.523438 L 50.355469 48.640625 C 49.824219 50.214844 49.144531 51.515625 48.324219 52.550781 L 48.265625 52.550781 L 47.710938 52.984375 L 46.539062 53.730469 C 45.0625 54.597656 43.132812 55.15625 40.753906 55.402344 C 36.527344 55.859375 32.546875 54.660156 28.808594 51.804688 C 25.238281 49.117188 22.757812 45.644531 21.363281 41.382812 C 20.5 38.738281 20.128906 35.800781 20.253906 32.574219 C 20.867188 32.078125 21.382812 31.292969 21.792969 30.214844 L 22.160156 27.734375 L 22.839844 24.941406 L 23.332031 24.507812 L 25.546875 24.074219 C 25.917969 24.074219 26.308594 23.949219 26.71875 23.703125 L 27.703125 22.894531 L 28.75 22.585938 C 32.976562 21.429688 36.730469 20.847656 40.015625 20.847656 L 42.601562 21.035156 L 42.355469 21.46875 L 42.292969 21.839844 L 42.722656 22.214844 L 46.417969 22.585938 C 48.632812 23.164062 50.214844 24.324219 51.15625 26.058594 C 49.925781 25.066406 48.53125 24.28125 46.972656 23.703125 L 43.648438 22.957031 L 43.398438 23.082031 L 43.152344 23.515625 L 43.523438 23.765625 L 44.570312 23.890625 L 46.726562 24.445312 C 47.628906 24.652344 48.59375 25.066406 49.617188 25.6875 L 51.589844 26.929688 M 51.15625 24.695312 C 49.925781 23.332031 48.449219 22.421875 46.726562 21.964844 L 43.585938 21.40625 L 43.707031 21.160156 L 47.15625 21.902344 L 50.910156 23.453125 L 51.15625 24.695312 M 49.003906 30.773438 C 48.839844 30.527344 48.550781 30.320312 48.140625 30.15625 L 47.21875 29.96875 L 46.847656 30.339844 L 47.21875 30.714844 L 47.710938 30.835938 L 48.449219 31.269531 L 48.941406 31.332031 C 49.144531 31.210938 49.167969 31.023438 49.003906 30.773438 M 46.109375 32.636719 L 46.417969 34.1875 C 46.5 35.222656 46.457031 35.964844 46.292969 36.421875 L 46.171875 37.910156 L 46.476562 38.777344 C 46.726562 38.941406 47.03125 38.820312 47.402344 38.40625 C 47.8125 37.910156 48.039062 37.289062 48.078125 36.542969 C 48.242188 35.800781 47.976562 34.910156 47.277344 33.875 C 46.582031 32.84375 46.191406 32.429688 46.109375 32.636719 M 21.238281 27.609375 L 20.867188 30.03125 C 20.539062 31.023438 20.046875 31.726562 19.390625 32.140625 L 18.835938 31.457031 L 17.542969 29.96875 C 16.886719 28.851562 17.648438 27.570312 19.824219 26.121094 L 21.914062 24.941406 L 21.238281 27.609375 M 26.53125 31.582031 L 26.226562 31.394531 L 23.578125 30.464844 L 23.085938 30.527344 L 22.902344 30.960938 L 22.960938 31.644531 L 23.269531 32.140625 L 23.761719 32.203125 L 26.226562 31.765625 C 26.429688 31.726562 26.53125 31.664062 26.53125 31.582031 M 30.347656 32.699219 L 30.101562 33.441406 L 30.164062 34.433594 L 30.164062 36.234375 L 29.550781 40.203125 C 29.425781 40.617188 29.550781 40.929688 29.917969 41.136719 L 32.074219 42.3125 C 32.648438 42.519531 33.121094 42.355469 33.488281 41.816406 L 33.671875 41.445312 L 33.425781 41.136719 L 31.703125 40.265625 C 31.335938 40.101562 31.148438 39.8125 31.148438 39.398438 L 31.148438 36.605469 L 30.964844 34.3125 L 30.78125 33.257812 L 30.597656 32.820312 L 30.347656 32.699219 M 34.167969 24.199219 L 33.859375 24.882812 C 33.652344 25.335938 33.613281 25.605469 33.734375 25.6875 L 34.351562 25.8125 L 35.582031 26.058594 L 37 26.554688 L 37.984375 26.742188 C 38.023438 26.203125 37.511719 25.5625 36.445312 24.820312 L 34.90625 23.828125 L 34.414062 23.828125 L 34.167969 24.199219 M 35.890625 29.597656 C 35.601562 29.761719 35.460938 30.070312 35.460938 30.527344 C 35.417969 30.980469 35.519531 31.476562 35.765625 32.015625 L 36.75 33.195312 C 37.121094 33.484375 37.449219 33.546875 37.738281 33.378906 C 38.023438 33.257812 38.167969 32.96875 38.167969 32.511719 C 38.207031 32.015625 38.085938 31.519531 37.796875 31.023438 L 36.875 29.84375 L 35.890625 29.597656 M 43.707031 33.441406 L 43.894531 34.0625 C 44.058594 34.1875 44.261719 34.105469 44.507812 33.816406 C 44.753906 33.484375 44.898438 33.070312 44.9375 32.574219 C 45.0625 32.078125 44.878906 31.476562 44.386719 30.773438 L 43.648438 29.96875 L 43.832031 31.023438 L 43.707031 32.449219 L 43.707031 33.441406 M 33.734375 45.105469 C 33.734375 45.683594 33.898438 46.285156 34.226562 46.90625 C 34.515625 47.523438 34.882812 48 35.335938 48.332031 C 35.746094 48.703125 36.117188 48.808594 36.445312 48.640625 C 36.730469 48.476562 36.875 48.125 36.875 47.585938 C 36.875 47.050781 36.730469 46.449219 36.445312 45.789062 L 35.335938 44.359375 L 34.226562 44.050781 C 33.898438 44.214844 33.734375 44.566406 33.734375 45.105469 M 35.890625 50.503906 L 36.199219 50.566406 L 37.367188 50.566406 C 37.941406 50.523438 38.476562 50.234375 38.96875 49.695312 C 39.296875 49.40625 39.359375 49.097656 39.152344 48.765625 L 38.230469 48.703125 L 37.796875 49.074219 C 37.140625 49.53125 36.75 49.777344 36.628906 49.820312 L 36.074219 50.191406 L 35.890625 50.503906 M 24.316406 38.15625 L 25.238281 39.398438 L 26.226562 39.585938 C 26.511719 39.417969 26.675781 39.109375 26.71875 38.652344 C 26.71875 38.199219 26.59375 37.703125 26.347656 37.164062 L 25.425781 35.984375 L 24.378906 35.800781 L 23.945312 36.730469 L 24.316406 38.15625 M 32.933594 60.242188 L 33.613281 58.445312 L 36.074219 58.566406 L 36.445312 58.753906 L 35.582031 59.3125 L 35.398438 59.621094 L 35.335938 59.808594 L 35.335938 59.933594 L 35.398438 60.242188 L 35.460938 60.429688 L 34.84375 60.117188 C 34.390625 59.871094 33.753906 59.972656 32.933594 60.429688 L 32.933594 60.242188 M 32.75 58.691406 L 32.566406 59.1875 L 32.8125 58.507812 L 32.75 58.691406 M 44.570312 58.566406 L 44.507812 61.234375 L 43.832031 61.171875 C 42.683594 60.882812 41.695312 60.222656 40.875 59.1875 C 40.261719 58.359375 39.851562 57.429688 39.644531 56.398438 L 41.121094 56.210938 C 42.148438 56.914062 43.296875 57.246094 44.570312 57.203125 L 44.570312 58.566406 M 37.304688 59.746094 C 37.46875 60.160156 37.410156 60.613281 37.121094 61.113281 L 36.875 60.058594 L 37.304688 59.746094 M 37.738281 59.746094 C 38.066406 59.828125 38.453125 60.179688 38.90625 60.800781 L 40.261719 63.40625 L 41.183594 65.886719 L 39.398438 64.460938 L 37.550781 62.414062 L 37.429688 61.980469 L 37.613281 61.667969 C 37.859375 61.214844 37.941406 60.738281 37.859375 60.242188 L 37.738281 59.746094 M 33.859375 60.738281 L 35.953125 62.476562 L 35.089844 63.40625 L 34.105469 64.523438 L 34.042969 62.910156 L 33.859375 61.421875 L 33.859375 60.738281 M 44.386719 62.601562 L 43.953125 66.074219 L 43.09375 65.082031 L 41.675781 62.539062 L 40.691406 60.429688 L 41.984375 61.296875 C 42.886719 61.792969 43.648438 62.042969 44.261719 62.042969 L 44.445312 62.105469 L 44.386719 62.601562 M 39.523438 66.074219 L 40.628906 66.757812 L 41.675781 67.316406 L 42.167969 68.554688 L 42.539062 69.425781 L 42.722656 69.796875 L 43.894531 71.78125 L 43.832031 71.78125 L 43.769531 71.84375 L 39.644531 66.261719 L 39.523438 66.074219 M 53.988281 40.761719 C 54.808594 42.335938 55.34375 44.050781 55.589844 45.914062 L 53.679688 48.394531 L 49.371094 54.90625 L 48.816406 54.84375 C 48.160156 54.929688 47.648438 55.796875 47.277344 57.453125 L 46.785156 60.179688 L 45.433594 64.027344 L 45.738281 61.917969 L 45.738281 58.753906 C 45.738281 57.511719 46.046875 56.5625 46.664062 55.898438 L 48.449219 54.472656 C 49.144531 53.976562 49.679688 53.417969 50.050781 52.796875 C 50.5 52.09375 50.890625 51.207031 51.21875 50.128906 L 52.019531 47.339844 L 53.128906 42.191406 C 53.25 41.570312 53.539062 41.09375 53.988281 40.761719 M 55.652344 47.773438 L 55.464844 51.496094 L 55.464844 52.675781 C 54.851562 56.023438 53.597656 58.796875 51.710938 60.988281 L 51.15625 58.132812 C 50.953125 57.183594 50.707031 56.4375 50.417969 55.898438 L 53.433594 50.875 L 55.652344 47.773438 M 49.742188 57.949219 L 50.171875 60.179688 L 50.726562 62.351562 L 50.789062 62.539062 L 50.664062 62.601562 C 49.351562 63.179688 48.550781 63.945312 48.265625 64.894531 L 48.386719 65.144531 L 49.003906 65.515625 L 48.757812 65.515625 L 47.15625 65.765625 L 47.957031 61.296875 L 48.078125 60.613281 L 49.679688 57.265625 L 49.742188 57.949219 M 47.277344 66.386719 L 49.125 66.261719 L 52.820312 66.136719 L 53.003906 66.136719 C 53.292969 66.136719 53.558594 66.035156 53.804688 65.828125 C 54.007812 65.578125 53.90625 65.453125 53.496094 65.453125 L 53.003906 65.453125 L 51.15625 65.269531 C 50.050781 65.019531 49.71875 64.605469 50.171875 64.027344 L 51.15625 63.035156 C 51.402344 63.28125 51.628906 63.324219 51.835938 63.160156 L 52.820312 62.105469 L 53.925781 62.289062 C 54.789062 62.703125 55.488281 63.59375 56.019531 64.957031 L 56.390625 67.253906 L 55.527344 68.121094 L 55.34375 68.492188 C 56.082031 69.28125 56.59375 70.3125 56.882812 71.597656 C 57.046875 72.382812 57.148438 73.539062 57.191406 75.070312 C 57.191406 75.730469 57.003906 76.3125 56.636719 76.808594 L 51.589844 70.542969 L 48.386719 67.5 L 47.03125 66.445312 L 47.277344 66.386719 M 45.863281 71.597656 C 46.476562 71.222656 46.355469 70.75 45.492188 70.167969 C 44.878906 69.714844 44.46875 69.363281 44.261719 69.113281 L 44.078125 68.804688 C 44.035156 68.472656 44.324219 68.058594 44.9375 67.5625 L 45.984375 67.316406 C 48.613281 69.21875 51.28125 71.863281 53.988281 75.257812 L 55.652344 77.550781 L 54.667969 77.925781 C 53.105469 78.460938 51.671875 78.480469 50.355469 77.984375 L 49.554688 77.675781 L 48.015625 75.257812 L 48.015625 74.945312 L 47.464844 74.386719 L 46.171875 72.402344 L 45.738281 71.71875 L 45.863281 71.597656 M 51.28125 80.40625 L 50.355469 78.917969 L 51.15625 78.976562 L 51.773438 80.21875 L 51.527344 80.34375 L 51.28125 80.40625 M 54.851562 87.042969 C 54.808594 86.671875 54.625 86.175781 54.296875 85.554688 L 52.941406 83.257812 L 51.957031 81.585938 L 52.140625 81.523438 L 52.449219 81.398438 L 53.496094 83.632812 L 54.359375 84.933594 L 55.035156 87.105469 L 54.851562 87.042969 M 55.21875 87.664062 L 55.652344 89.089844 L 56.144531 90.890625 C 56.347656 91.59375 56.65625 92.046875 57.066406 92.253906 L 59.40625 92.007812 C 59.695312 91.882812 59.941406 91.777344 60.144531 91.695312 L 64.332031 95.234375 C 62.074219 96.390625 59.507812 96.90625 56.636719 96.785156 L 56.574219 97.527344 C 56.65625 97.984375 56.800781 98.230469 57.003906 98.273438 C 60.207031 98.355469 63.019531 97.671875 65.4375 96.226562 L 65.5625 96.039062 L 66.363281 96.597656 C 68.332031 97.878906 70.488281 99.097656 72.828125 100.257812 C 68.84375 102.242188 64.824219 103.152344 60.761719 102.988281 C 57.929688 102.820312 55.242188 102.285156 52.695312 101.375 C 49.742188 100.300781 47.464844 98.832031 45.863281 96.96875 C 43.566406 94.363281 43.894531 91.921875 46.847656 89.648438 C 47.996094 88.738281 49.289062 87.996094 50.726562 87.414062 C 50.890625 87.871094 51.21875 88.203125 51.710938 88.410156 L 53.25 88.46875 C 53.90625 88.386719 54.359375 88.203125 54.605469 87.910156 L 54.851562 87.539062 L 55.21875 87.664062 M 52.265625 80.777344 L 51.957031 80.902344 L 51.710938 80.964844 L 52.019531 80.777344 L 52.328125 80.714844 L 52.265625 80.777344 M 53.25 78.855469 L 56.019531 78.109375 L 58.359375 81.398438 L 57.804688 81.523438 L 55.898438 82.328125 L 54.417969 82.949219 L 53.558594 81.273438 L 52.386719 79.039062 L 52.328125 78.976562 L 53.25 78.855469 M 56.574219 86.855469 L 56.203125 85.554688 L 56.144531 85.554688 C 56.019531 85.015625 56.121094 84.664062 56.453125 84.5 L 57.558594 84.066406 L 58.605469 83.816406 C 59.015625 83.734375 59.261719 83.839844 59.34375 84.128906 L 59.777344 85.429688 L 58.175781 86.175781 L 58.113281 86.300781 L 57.375 86.546875 L 56.574219 86.855469 M 58.667969 87.414062 L 60.453125 87.539062 L 60.515625 87.789062 C 60.679688 88.324219 60.65625 88.71875 60.453125 88.964844 L 59.34375 89.402344 L 58.175781 89.835938 C 57.765625 89.875 57.476562 89.691406 57.3125 89.277344 L 56.882812 87.851562 L 57.867188 87.664062 L 58.667969 87.414062 M 60.082031 85.304688 C 59.878906 84.5625 59.632812 83.960938 59.34375 83.507812 C 59.097656 83.175781 58.769531 83.03125 58.359375 83.074219 L 57.25 83.445312 L 55.957031 83.941406 C 55.710938 84.105469 55.671875 84.480469 55.835938 85.058594 L 55.835938 85.121094 L 56.390625 86.917969 L 56.019531 86.980469 L 55.710938 87.042969 L 54.972656 84.6875 C 54.726562 83.734375 55.464844 82.992188 57.191406 82.453125 L 58.914062 82.082031 L 60.699219 84.6875 L 60.820312 84.933594 L 60.699219 84.933594 L 60.082031 85.304688 M 56.636719 87.851562 L 57.496094 90.144531 C 57.703125 90.515625 58.03125 90.664062 58.484375 90.578125 L 59.652344 90.082031 C 60.515625 89.917969 60.984375 89.753906 61.066406 89.585938 L 61.066406 88.90625 L 60.761719 88.222656 L 60.574219 87.476562 L 60.699219 87.414062 C 61.027344 87.207031 61.210938 86.941406 61.253906 86.609375 L 61.253906 86.484375 L 61.929688 88.71875 C 62.136719 89.503906 61.910156 90.082031 61.253906 90.457031 L 59.222656 91.074219 L 57.621094 91.386719 C 57.210938 91.304688 56.882812 90.890625 56.636719 90.144531 L 55.957031 87.851562 L 56.636719 87.851562 M 53.1875 86.980469 L 52.632812 87.042969 C 52.429688 87.085938 52.265625 86.960938 52.140625 86.671875 L 52.019531 86.050781 C 51.691406 84.769531 51.175781 83.425781 50.480469 82.019531 L 51.648438 84.003906 L 53.128906 86.917969 L 53.1875 86.980469 M 60.453125 86.609375 L 60.390625 86.671875 L 60.390625 86.609375 L 60.453125 86.609375 M 60.207031 86.734375 L 60.269531 86.917969 L 60.144531 86.980469 C 59.941406 87.148438 59.671875 87.25 59.34375 87.292969 L 58.914062 87.355469 L 60.207031 86.734375 M 61.808594 86.175781 L 66.179688 92.441406 L 62.914062 92.625 L 62.855469 92.6875 L 61.191406 91.261719 L 61.621094 91.074219 C 62.320312 90.828125 62.710938 90.539062 62.792969 90.207031 C 62.914062 89.960938 62.8125 89.441406 62.484375 88.65625 L 61.808594 86.175781 M 67.285156 94.117188 L 70.300781 97.589844 C 68.292969 96.515625 66.382812 95.335938 64.578125 94.054688 L 67.101562 93.804688 L 67.285156 94.117188 M 48.570312 82.019531 C 47.011719 81.644531 45.554688 81.128906 44.199219 80.46875 C 44.773438 79.351562 45.164062 78.171875 45.371094 76.929688 L 47.832031 80.714844 L 48.570312 82.019531 M 40.261719 71.285156 L 40.324219 72.09375 C 40.691406 73.085938 40.570312 73.746094 39.953125 74.078125 L 37.859375 73.953125 L 36.875 73.207031 L 36.074219 72.277344 C 34.964844 71.121094 35.089844 69.878906 36.445312 68.554688 C 37.101562 67.894531 37.839844 67.585938 38.660156 67.625 L 39.152344 68.371094 L 44.691406 75.9375 L 44.816406 76.125 C 44.570312 77.449219 44.015625 78.75 43.152344 80.03125 C 42.292969 80.777344 41.347656 81.292969 40.324219 81.585938 L 39.277344 81.769531 L 39.644531 81.210938 C 40.136719 80.507812 40.28125 79.722656 40.074219 78.855469 C 39.789062 77.488281 39.214844 76.746094 38.351562 76.621094 L 38.289062 76.25 L 38.167969 75.378906 L 38.722656 75.628906 C 39.953125 76.082031 40.710938 75.753906 41 74.636719 C 41.203125 73.726562 41.101562 72.710938 40.691406 71.597656 C 40.527344 71.140625 40.382812 71.039062 40.261719 71.285156 M 45.308594 74.015625 L 45 73.582031 L 44.9375 73.394531 L 45.371094 74.078125 L 45.308594 74.015625 M 33.058594 70.046875 C 32.894531 70.085938 32.875 70.335938 32.996094 70.789062 C 33.160156 71.285156 33.304688 71.511719 33.425781 71.472656 L 34.660156 71.65625 L 35.027344 71.96875 L 35.273438 72.464844 L 35.210938 72.835938 C 35.046875 73.207031 34.71875 73.476562 34.226562 73.644531 L 31.703125 73.953125 L 29.550781 73.457031 L 29.425781 73.394531 L 29.242188 73.269531 C 28.214844 72.773438 28.195312 72.113281 29.179688 71.285156 L 31.703125 69.921875 L 34.535156 69.363281 L 34.535156 70.355469 C 34.085938 69.941406 33.589844 69.839844 33.058594 70.046875 M 37.550781 76.496094 C 37.183594 77.449219 36.011719 78.070312 34.042969 78.359375 L 29.796875 77.925781 L 28.6875 77.179688 C 28.441406 76.847656 28.421875 76.394531 28.625 75.816406 L 29.734375 74.820312 C 30.597656 75.234375 31.664062 75.441406 32.933594 75.441406 C 34.167969 75.441406 35.007812 75.171875 35.460938 74.636719 L 37.121094 75.007812 C 37.695312 75.339844 37.839844 75.835938 37.550781 76.496094 M 38.230469 78.046875 C 38.804688 78.007812 39.195312 78.152344 39.398438 78.480469 C 39.5625 78.8125 39.523438 79.246094 39.277344 79.785156 C 38.867188 80.613281 37.777344 81.234375 36.011719 81.644531 L 32.628906 81.523438 C 31.765625 81.148438 31.191406 80.53125 30.902344 79.660156 L 34.105469 79.785156 C 35.292969 79.742188 36.28125 79.453125 37.058594 78.917969 L 37.984375 77.925781 C 38.066406 78.007812 38.148438 78.046875 38.230469 78.046875 "/>
<path style=" stroke:none;fill-rule:nonzero;fill:rgb(21.568627%,20.784314%,20.784314%);fill-opacity:1;" d="M 55.035156 87.105469 L 55.21875 87.664062 L 54.851562 87.539062 L 53.621094 86.796875 L 53.742188 86.734375 L 53.988281 86.796875 L 54.851562 87.292969 L 54.726562 87.042969 L 54.851562 87.042969 L 55.035156 87.105469 M 58.113281 86.300781 L 57.929688 86.855469 L 58.484375 87.292969 L 58.667969 87.414062 L 57.867188 87.664062 L 56.882812 87.851562 L 56.574219 86.855469 L 57.375 86.546875 L 58.113281 86.300781 M 56.390625 86.917969 L 56.574219 87.726562 L 56.636719 87.851562 L 55.957031 87.851562 L 55.710938 87.042969 L 56.019531 86.980469 L 56.390625 86.917969 M 60.820312 84.933594 L 61.128906 86.113281 L 60.761719 85.617188 L 60.269531 85.367188 L 60.144531 85.367188 L 60.082031 85.304688 L 60.699219 84.933594 L 60.820312 84.933594 M 61.5625 85.304688 L 61.992188 85.679688 L 61.683594 85.863281 L 61.5625 85.304688 M 60.390625 86.609375 L 60.269531 85.925781 L 60.515625 85.800781 L 60.574219 86.300781 L 60.453125 86.609375 L 60.390625 86.609375 M 58.914062 87.355469 L 58.605469 87.105469 C 58.441406 86.855469 58.6875 86.589844 59.34375 86.300781 L 59.960938 86.050781 L 60.207031 86.734375 L 58.914062 87.355469 "/>
</g>
</svg>
