<?xml version="1.0" encoding="UTF-8"?>
<svg xmlns="http://www.w3.org/2000/svg" xmlns:xlink="http://www.w3.org/1999/xlink" width="128pt" height="256pt" viewBox="0 0 128 256" version="1.1">
<g id="surface1">
<path style=" stroke:none;fill-rule:nonzero;fill:rgb(0%,0%,0%);fill-opacity:1;" d="M 73.390625 2.273438 C 75.742188 0.757812 79.304688 1.621094 84.078125 4.859375 L 91.339844 10.023438 L 98.496094 15.296875 L 102.855469 18.601562 C 104.445312 20.117188 105.484375 21.636719 105.96875 23.152344 C 106.453125 24.527344 106.695312 26.25 106.695312 28.316406 L 106.589844 33.382812 L 106.488281 41.339844 C 110.082031 43.75 113.402344 46.578125 116.445312 49.816406 C 121.636719 55.328125 124.921875 61.082031 126.304688 67.074219 C 127.410156 72.3125 126.996094 75.757812 125.058594 77.410156 C 123.746094 78.375 121.945312 79.027344 119.664062 79.375 L 113.851562 79.476562 C 107.90625 78.996094 101.4375 77.71875 94.453125 75.652344 L 93.621094 76.996094 C 91.617188 79.753906 89.332031 80.992188 86.773438 80.71875 L 86.253906 80.613281 L 80.339844 86.503906 L 86.046875 88.054688 L 85.945312 87.332031 C 85.945312 86.988281 86.21875 87.089844 86.773438 87.640625 L 87.605469 88.570312 C 94.453125 91.328125 100.398438 95.945312 105.449219 102.421875 C 111.605469 110.207031 115.996094 119.921875 118.625 131.566406 L 120.183594 141.382812 L 120.492188 151.71875 C 120.355469 155.921875 119.734375 159.296875 118.625 161.847656 L 118.417969 162.46875 L 118.105469 163.605469 L 118.003906 164.019531 L 117.796875 169.597656 C 116.828125 174.765625 115.167969 179.210938 112.816406 182.929688 C 111.984375 184.101562 110.984375 184.929688 109.808594 185.410156 L 107.109375 185.824219 C 104.480469 188.304688 102.199219 189.476562 100.261719 189.339844 L 99.121094 189.027344 L 96.835938 191.40625 L 96.941406 192.234375 L 98.289062 198.226562 L 100.261719 208.976562 L 101.816406 220.652344 L 101.921875 221.066406 L 102.027344 232.539062 C 101.886719 234.8125 101.542969 236.5 100.988281 237.605469 L 99.949219 238.945312 L 101.816406 242.667969 C 102.371094 244.664062 102.335938 246.59375 101.714844 248.457031 C 99.914062 253.484375 97.5625 255.828125 94.660156 255.484375 C 90.992188 254.933594 87.671875 253.242188 84.699219 250.417969 C 81.585938 247.523438 79.960938 244.390625 79.824219 241.015625 L 79.511719 240.808594 C 79.027344 240.601562 78.613281 240.152344 78.265625 239.464844 L 77.539062 237.605469 L 71.210938 220.550781 L 64.777344 203.496094 L 62.597656 198.226562 L 58.863281 190.476562 C 58.035156 192.886719 57.515625 195.472656 57.308594 198.226562 C 56.960938 201.464844 57.066406 204.980469 57.621094 208.769531 L 60.835938 229.851562 L 60.730469 230.058594 L 60.523438 230.164062 L 59.382812 230.367188 L 58.863281 235.125 L 57.621094 236.570312 L 55.855469 237.292969 L 53.574219 238.015625 L 51.496094 237.808594 L 50.355469 236.464844 C 47.242188 238.394531 43.613281 239.808594 39.460938 240.703125 C 32.476562 242.21875 27.253906 242.011719 23.796875 240.082031 C 21.167969 238.5 20.234375 237.15625 20.996094 236.054688 C 22.101562 234.191406 24.140625 232.4375 27.117188 230.78125 L 34.691406 227.476562 L 34.585938 227.164062 L 28.570312 211.765625 C 26.910156 206.804688 25.871094 202.292969 25.457031 198.226562 L 25.144531 195.644531 C 24.730469 188.410156 25.144531 180.3125 26.390625 171.355469 L 25.972656 171.5625 L 24.9375 171.871094 L 25.144531 172.597656 C 25.351562 173.699219 25.144531 174.59375 24.523438 175.28125 C 24.039062 175.695312 23.3125 175.9375 22.34375 176.007812 C 22.203125 177.246094 21.789062 178.175781 21.097656 178.796875 C 19.992188 179.898438 18.296875 180.175781 16.015625 179.625 L 12.382812 178.074219 L 7.402344 173.835938 C 4.082031 170.460938 2.007812 166.910156 1.175781 163.191406 C 0.417969 159.609375 0.554688 156.230469 1.59375 153.0625 L 4.601562 146.757812 L 4.496094 144.792969 C 6.15625 134.390625 9.683594 123.433594 15.082031 111.929688 C 17.777344 106.210938 20.855469 101.316406 24.316406 97.253906 C 28.601562 92.292969 33.203125 88.8125 38.113281 86.816406 L 39.253906 86.402344 L 39.359375 86.402344 L 39.671875 86.296875 L 40.292969 86.296875 L 40.5 86.195312 L 42.054688 86.195312 C 39.496094 83.230469 37.59375 79.613281 36.351562 75.34375 C 34.066406 67.695312 34.515625 60.082031 37.699219 52.503906 L 39.671875 48.367188 L 38.113281 44.855469 L 36.039062 40.101562 L 34.480469 35.035156 C 33.722656 33.3125 32.71875 31.902344 31.472656 30.796875 L 25.871094 25.835938 C 23.726562 23.703125 22.585938 21.601562 22.445312 19.535156 C 22.03125 14.917969 26.492188 14.089844 35.832031 17.054688 L 51.496094 23.355469 L 53.882812 18.707031 L 56.789062 14.261719 L 59.277344 11.886719 L 62.289062 10.128906 L 73.390625 2.273438 M 105.242188 24.082031 L 103.476562 21.496094 L 98.082031 17.363281 L 92.480469 13.4375 L 86.878906 8.992188 C 84.664062 7.339844 82.625 6.097656 80.757812 5.269531 C 78.265625 4.097656 76.363281 3.71875 75.050781 4.132812 L 71.9375 5.996094 L 69.136719 8.269531 L 61.355469 13.230469 C 59.277344 14.539062 57.445312 16.363281 55.855469 18.707031 L 52.949219 23.976562 C 55.855469 25.21875 59.453125 26.285156 63.742188 27.179688 L 75.152344 29.765625 L 87.914062 32.96875 C 92.6875 34.347656 96.804688 35.929688 100.261719 37.722656 L 105.242188 40.617188 L 105.65625 40.824219 L 105.761719 33.898438 L 105.863281 27.285156 L 105.242188 24.082031 M 96.007812 64.90625 L 94.242188 67.179688 L 94.347656 67.589844 L 97.667969 67.902344 C 99.742188 67.832031 100.882812 67.074219 101.089844 65.628906 C 101.367188 63.972656 100.816406 61.804688 99.429688 59.117188 L 98.914062 58.1875 L 98.1875 59.21875 L 98.082031 60.460938 L 96.628906 63.5625 L 96.007812 64.90625 M 88.953125 64.179688 L 89.265625 65.628906 L 89.054688 65.835938 L 88.121094 64.699219 L 86.980469 62.941406 L 85.113281 61.390625 C 84.769531 61.046875 84.664062 60.734375 84.800781 60.460938 C 84.941406 60.183594 85.148438 60.046875 85.425781 60.046875 L 85.632812 60.148438 L 87.914062 62.21875 L 88.953125 64.179688 M 90.714844 47.953125 C 89.886719 48.710938 88.953125 49.367188 87.914062 49.917969 L 89.472656 51.46875 L 91.546875 53.742188 C 93.34375 56.015625 94.382812 58.632812 94.660156 61.597656 L 97.046875 55.394531 L 97.148438 55.1875 L 92.273438 49.402344 L 90.714844 47.953125 M 71.730469 43.820312 L 72.25 44.027344 L 74.21875 46.40625 C 75.464844 48.195312 75.914062 49.503906 75.570312 50.332031 L 74.117188 49.402344 L 72.144531 47.953125 L 70.277344 46.921875 L 69.445312 46.300781 C 69.308594 46.09375 69.515625 45.679688 70.070312 45.0625 L 70.898438 44.234375 C 71.105469 43.957031 71.382812 43.820312 71.730469 43.820312 M 46.519531 31.832031 L 52.015625 31.730469 C 58.933594 32.140625 65.46875 33.3125 71.625 35.242188 C 78.613281 37.449219 84.457031 40.480469 89.160156 44.335938 C 92.34375 46.886719 94.96875 49.574219 97.046875 52.398438 C 99.464844 55.84375 101.023438 59.289062 101.714844 62.734375 C 102.199219 65.421875 102.09375 67.351562 101.402344 68.523438 C 100.78125 69.691406 99.535156 70.3125 97.667969 70.382812 L 94.035156 69.863281 L 94.453125 71.726562 L 94.347656 73.378906 L 105.035156 75.960938 L 117.484375 76.996094 C 119.976562 76.925781 121.910156 76.515625 123.292969 75.757812 C 125.164062 74.722656 126.097656 73.171875 126.097656 71.105469 C 126.164062 65.59375 122.949219 59.359375 116.445312 52.398438 C 110.566406 45.992188 103.960938 41.375 96.628906 38.550781 C 92.6875 36.964844 88.191406 35.484375 83.140625 34.105469 L 69.445312 30.796875 C 61.214844 29.074219 54.472656 27.042969 49.214844 24.699219 L 38.839844 20.050781 C 34.480469 18.535156 30.78125 17.777344 27.738281 17.777344 C 25.871094 17.777344 24.660156 18.050781 24.105469 18.601562 C 23.554688 19.222656 23.378906 19.914062 23.589844 20.671875 L 24.9375 22.425781 L 28.359375 25.632812 L 31.785156 28.835938 C 33.445312 30.488281 34.933594 33.3125 36.246094 37.308594 C 37.628906 41.375 39.082031 44.234375 40.605469 45.886719 L 42.054688 43.097656 L 40.914062 39.171875 C 40.636719 36.894531 40.878906 35.207031 41.640625 34.105469 C 42.609375 32.933594 44.234375 32.175781 46.519531 31.832031 M 50.5625 40.101562 C 49.113281 41.132812 47.660156 41.648438 46.207031 41.648438 C 42.957031 45.785156 40.636719 49.988281 39.253906 54.257812 C 36.902344 61.148438 36.765625 68.109375 38.839844 75.136719 C 40.429688 80.578125 43.09375 84.988281 46.828125 88.363281 L 48.902344 89.605469 L 52.328125 92.1875 C 55.164062 93.773438 57.828125 94.703125 60.316406 94.980469 L 62.496094 95.082031 L 63.742188 95.082031 L 63.949219 95.1875 C 64.015625 95.460938 63.257812 95.738281 61.664062 96.011719 L 58.136719 96.324219 L 57.929688 96.21875 C 58.621094 96.839844 59.625 97.253906 60.9375 97.460938 C 63.773438 97.804688 66.820312 97.21875 70.070312 95.703125 L 73.285156 93.84375 L 76.085938 89.5 L 75.257812 89.914062 C 73.667969 90.605469 72.28125 90.914062 71.105469 90.84375 L 70.378906 90.433594 L 70.898438 89.914062 L 71.105469 89.8125 C 75.949219 87.46875 80.273438 83.75 84.078125 78.648438 L 84.90625 78.753906 C 87.8125 79.167969 90.023438 78.0625 91.546875 75.445312 C 93.066406 72.757812 92.722656 70.347656 90.507812 68.210938 C 90.371094 67.9375 90.335938 67.695312 90.40625 67.488281 L 92.167969 68.210938 C 92.03125 67.867188 92.066406 67.523438 92.273438 67.179688 L 92.273438 67.074219 L 88.121094 59.839844 L 85.839844 57.667969 C 85.355469 57.324219 85.148438 56.945312 85.21875 56.53125 L 85.839844 56.015625 L 85.945312 56.121094 C 86.914062 56.53125 87.984375 57.496094 89.160156 59.011719 C 90.683594 60.941406 91.859375 63.320312 92.6875 66.144531 L 93 64.90625 C 91.753906 61.320312 90.441406 58.667969 89.054688 56.945312 L 86.773438 54.15625 L 85.527344 52.914062 C 85.253906 52.707031 85.183594 52.503906 85.320312 52.296875 L 86.046875 51.984375 L 86.359375 52.089844 L 90.09375 56.222656 C 91.476562 58.359375 92.550781 60.769531 93.308594 63.457031 C 93.726562 60.21875 92.757812 57.152344 90.40625 54.257812 L 86.046875 50.226562 C 85.632812 49.882812 85.527344 49.539062 85.734375 49.195312 L 86.253906 48.886719 L 89.367188 46.816406 C 87.292969 45.09375 85.011719 43.578125 82.519531 42.269531 L 79.613281 40.824219 L 78.886719 40.824219 C 78.058594 40.753906 77.402344 40.375 76.917969 39.6875 L 65.710938 36.277344 L 63.429688 36.484375 C 62.945312 36.484375 62.324219 36.277344 61.5625 35.863281 L 60.730469 35.242188 L 56.683594 34.519531 L 53.574219 37.308594 L 50.5625 40.101562 M 51.601562 42.269531 L 52.222656 43.097656 L 52.328125 44.128906 L 52.015625 44.957031 L 51.082031 45.269531 L 46.933594 44.957031 L 46.414062 44.75 L 46.933594 44.335938 L 51.082031 42.375 L 51.601562 42.269531 M 52.429688 36.171875 L 54.609375 34.210938 L 48.175781 34.210938 C 44.234375 34.621094 42.160156 35.691406 41.953125 37.414062 L 42.886719 38.964844 C 43.507812 39.722656 44.269531 40.167969 45.167969 40.308594 C 46.550781 40.445312 48.003906 39.996094 49.527344 38.964844 L 52.429688 36.171875 M 77.746094 14.160156 C 77.125 12.851562 77.160156 11.851562 77.851562 11.160156 L 80.964844 10.75 C 84.144531 11.574219 87.847656 13.367188 92.066406 16.121094 L 92.273438 16.742188 L 92.066406 17.257812 C 88.398438 14.917969 85.285156 13.332031 82.726562 12.503906 L 77.644531 12.609375 C 77.574219 13.230469 78.40625 14.398438 80.132812 16.121094 C 83.453125 19.84375 88.261719 23.941406 94.554688 28.421875 L 94.660156 29.765625 L 86.671875 23.460938 L 81.792969 19.328125 C 79.855469 17.535156 78.507812 15.8125 77.746094 14.160156 M 83.351562 88.261719 L 82.519531 88.054688 L 80.03125 88.261719 L 79.097656 90.84375 L 76.503906 104.175781 L 76.292969 105.109375 C 78.578125 107.175781 80.617188 108.484375 82.417969 109.035156 L 89.886719 108.828125 C 94.726562 108.347656 95.972656 107.210938 93.621094 105.417969 C 90.648438 103.144531 88.570312 100.078125 87.394531 96.21875 L 84.699219 90.019531 L 83.351562 88.261719 M 50.460938 94.359375 L 49.941406 94.566406 L 48.28125 95.394531 L 48.074219 95.496094 L 47.554688 95.804688 L 46.207031 96.738281 L 45.792969 98.804688 L 45.066406 103.660156 L 43.507812 110.273438 L 39.046875 132.1875 L 35.726562 151.203125 L 38.839844 153.0625 L 42.988281 154.820312 L 43.199219 154.921875 L 45.167969 155.027344 L 45.375 153.890625 C 46.96875 147.964844 48.175781 142.210938 49.007812 136.628906 L 51.496094 123.089844 L 53.574219 115.648438 L 54.714844 110.273438 C 55.128906 108.207031 55.128906 106.003906 54.714844 103.660156 L 53.054688 97.253906 L 52.429688 96.21875 L 50.460938 94.359375 M 47.554688 92.292969 C 47.625 93.117188 47.382812 93.773438 46.828125 94.257812 L 46.519531 95.496094 C 47.484375 94.875 48.59375 94.359375 49.835938 93.945312 L 47.554688 92.292969 M 44.960938 92.5 C 45.308594 92.015625 45.238281 91.328125 44.753906 90.433594 L 42.054688 88.675781 L 41.640625 88.363281 L 38.839844 89.191406 L 36.972656 90.226562 L 33.757812 95.804688 C 31.195312 99.800781 29.746094 101.730469 29.398438 101.59375 L 35.105469 102.007812 C 36.695312 101.59375 38.492188 100.765625 40.5 99.527344 L 43.613281 97.5625 L 44.546875 93.324219 L 44.648438 92.914062 L 44.753906 92.707031 L 44.960938 92.5 M 51.394531 82.371094 L 51.082031 81.957031 L 51.601562 81.855469 L 56.167969 82.0625 C 56.789062 82.199219 57.101562 82.542969 57.101562 83.09375 L 56.789062 83.714844 L 55.960938 84.128906 L 54.195312 84.023438 C 53.710938 83.957031 53.261719 83.816406 52.847656 83.609375 L 51.394531 82.371094 M 65.503906 72.035156 L 64.984375 72.140625 C 60.558594 73.308594 56.996094 73.828125 54.300781 73.6875 L 52.847656 73.585938 L 47.242188 72.34375 L 44.339844 71.519531 C 43.648438 71.449219 43.335938 71.691406 43.40625 72.242188 C 43.40625 72.929688 43.683594 73.34375 44.234375 73.484375 L 50.148438 76.375 C 50.910156 76.722656 51.980469 76.996094 53.367188 77.203125 C 55.371094 77.480469 57.101562 77.480469 58.554688 77.203125 L 66.644531 74.515625 L 67.578125 73.894531 C 67.925781 73.484375 67.890625 73.070312 67.476562 72.65625 L 66.230469 72.035156 L 65.503906 72.035156 M 46 55.914062 C 45.722656 55.15625 45.652344 54.328125 45.792969 53.433594 C 45.929688 52.46875 46.242188 51.675781 46.726562 51.054688 C 47.210938 50.433594 47.695312 50.160156 48.175781 50.226562 L 49.320312 51.46875 L 49.527344 53.949219 L 48.59375 56.328125 C 48.109375 56.945312 47.625 57.222656 47.140625 57.152344 L 47.140625 57.050781 C 46.585938 56.980469 46.207031 56.601562 46 55.914062 M 58.136719 52.503906 L 59.175781 51.777344 L 59.488281 52.191406 L 59.277344 52.914062 L 56.582031 57.773438 L 53.988281 61.492188 C 53.574219 62.113281 53.539062 62.699219 53.882812 63.25 L 55.441406 65.9375 L 55.441406 66.660156 C 55.371094 66.867188 55.199219 66.972656 54.921875 66.972656 L 53.78125 67.074219 L 52.535156 66.351562 L 50.667969 62.734375 L 50.5625 61.90625 L 50.980469 61.082031 L 52.847656 59.324219 L 55.648438 56.328125 L 58.136719 52.503906 M 85.734375 67.074219 L 85.21875 65.835938 L 84.59375 65.109375 C 84.316406 64.90625 84.25 64.664062 84.386719 64.386719 L 85.011719 64.078125 L 85.320312 64.179688 L 86.460938 65.316406 L 86.980469 66.972656 C 86.980469 67.523438 86.773438 67.765625 86.359375 67.695312 C 85.945312 67.695312 85.734375 67.488281 85.734375 67.074219 M 65.609375 67.589844 L 65.917969 67.796875 L 70.484375 72.035156 C 71.039062 72.449219 71.210938 72.964844 71.003906 73.585938 L 69.550781 78.132812 L 69.136719 78.546875 L 68.722656 78.132812 L 69.03125 75.859375 L 67.996094 75.136719 L 67.578125 75.136719 L 62.703125 77.511719 C 59.039062 79.097656 56.167969 79.753906 54.089844 79.476562 L 54.089844 79.375 C 51.949219 79.097656 49.699219 78.167969 47.347656 76.582031 L 44.339844 74.308594 L 44.132812 74.308594 L 43.300781 74.929688 L 43.199219 75.445312 L 42.988281 75.960938 L 42.679688 75.550781 L 40.914062 71.933594 L 41.226562 70.277344 L 43.40625 68.316406 L 43.820312 68.003906 L 44.027344 68.625 L 43.820312 69.347656 L 44.027344 70.070312 L 44.648438 70.589844 L 47.347656 71.414062 L 52.535156 72.550781 L 53.882812 72.65625 C 56.234375 72.722656 59.832031 72.171875 64.675781 71.003906 L 65.503906 70.589844 L 65.816406 69.761719 L 65.402344 68.109375 C 65.261719 67.695312 65.332031 67.523438 65.609375 67.589844 M 69.65625 52.914062 L 70.796875 54.050781 L 71.003906 56.636719 L 70.070312 58.910156 L 68.617188 59.738281 C 68.0625 59.667969 67.683594 59.253906 67.476562 58.496094 C 67.199219 57.808594 67.128906 56.980469 67.269531 56.015625 C 67.476562 55.050781 67.785156 54.257812 68.203125 53.640625 C 68.6875 53.085938 69.171875 52.847656 69.65625 52.914062 M 87.292969 90.019531 L 89.054688 93.429688 L 90.300781 97.148438 C 91.339844 99.492188 92.410156 101.351562 93.519531 102.730469 C 94.902344 104.453125 96.5625 105.796875 98.496094 106.761719 L 98.496094 106.863281 C 95.730469 108.3125 92.964844 109.3125 90.199219 109.863281 L 81.480469 109.550781 C 79.546875 109 77.710938 108.070312 75.984375 106.761719 L 75.464844 109.449219 C 75.671875 111.101562 75.601562 112.6875 75.257812 114.203125 C 74.21875 118.820312 73.390625 123.402344 72.765625 127.949219 C 70.96875 139.867188 69.722656 150.132812 69.03125 158.746094 L 69.03125 158.851562 L 68.511719 177.453125 C 68.375 179.933594 71.175781 180.726562 76.917969 179.832031 C 81.34375 179.210938 85.011719 178.246094 87.914062 176.9375 L 90.09375 175.695312 L 90.300781 175.386719 L 89.679688 175.386719 L 87.292969 174.558594 L 86.046875 173.421875 L 85.839844 173.113281 L 85.734375 173.214844 L 85.632812 172.90625 L 85.425781 172.597656 L 85.632812 170.839844 L 85.734375 170.632812 L 86.046875 170.425781 L 86.566406 169.910156 L 86.878906 169.804688 L 89.265625 169.183594 L 89.367188 169.082031 L 90.507812 168.667969 L 90.40625 167.636719 L 89.367188 153.785156 C 89.023438 148 88.917969 144.035156 89.054688 141.902344 C 89.125 140.730469 88.503906 139.214844 87.1875 137.351562 L 86.671875 136.628906 L 84.699219 134.355469 L 82.726562 131.875 C 82.382812 131.53125 82.625 131.394531 83.453125 131.460938 L 85.011719 131.980469 L 85.425781 132.496094 L 89.988281 137.972656 L 94.453125 144.382812 C 95.972656 147.273438 97.078125 150.546875 97.773438 154.199219 C 98.394531 157.09375 98.773438 160.503906 98.914062 164.429688 C 99.257812 166.015625 101.160156 166.773438 104.621094 166.703125 C 107.457031 166.636719 109.839844 166.222656 111.777344 165.464844 C 113.644531 164.777344 114.996094 163.535156 115.824219 161.742188 C 116.445312 160.503906 116.898438 158.710938 117.171875 156.371094 C 118.074219 149.480469 118.140625 143.519531 117.382812 138.488281 C 116.203125 130.015625 114.128906 122.332031 111.15625 115.441406 C 107.628906 107.3125 103.0625 100.835938 97.460938 96.011719 C 93.933594 92.914062 90.300781 90.671875 86.566406 89.296875 L 87.292969 90.019531 M 60.109375 99.628906 L 56.0625 98.492188 L 56.996094 102.214844 L 57.308594 107.175781 C 59.039062 104.695312 61.632812 102.488281 65.089844 100.558594 L 67.371094 99.214844 L 60.109375 99.628906 M 69.964844 99.214844 L 70.070312 99.214844 L 71.417969 99.527344 L 73.699219 102.316406 L 74.117188 102.730469 L 74.945312 98.183594 L 75.878906 94.152344 L 73.183594 96.941406 L 69.964844 99.214844 M 68.929688 99.941406 L 67.371094 100.871094 L 61.769531 105.003906 C 59.070312 107.761719 56.789062 112.652344 54.921875 119.679688 L 52.640625 131.359375 L 50.667969 143.039062 L 48.695312 151.097656 L 47.867188 153.785156 L 47.761719 154.304688 L 47.660156 154.820312 L 47.660156 155.234375 L 50.253906 155.234375 C 51.773438 155.371094 52.8125 155.714844 53.367188 156.265625 L 54.300781 158.230469 L 55.648438 158.230469 L 66.125 158.539062 L 66.75 156.886719 L 66.75 156.371094 L 66.851562 154.097656 L 66.851562 153.785156 C 67.199219 144.003906 67.890625 135.734375 68.929688 128.980469 L 70.378906 119.371094 C 70.933594 115.71875 71.589844 112.550781 72.351562 109.863281 L 72.765625 108.621094 L 71.625 104.902344 L 69.964844 102.214844 L 68.929688 99.941406 M 115.929688 166.085938 L 115.824219 166.1875 C 114.855469 166.808594 113.820312 167.324219 112.710938 167.738281 L 105.242188 168.359375 L 103.167969 167.945312 C 100.816406 168.015625 99.085938 167.601562 97.980469 166.703125 C 96.941406 167.738281 95.59375 168.667969 93.933594 169.496094 L 89.265625 171.148438 L 87.707031 171.769531 C 87.152344 172.390625 87.363281 172.941406 88.328125 173.421875 C 89.296875 173.90625 90.507812 174.144531 91.960938 174.144531 L 96.007812 173.628906 L 98.289062 173.527344 L 98.1875 174.144531 L 94.554688 183.449219 L 94.140625 184.378906 C 92.480469 188.167969 91.960938 190.269531 92.582031 190.683594 C 93.484375 191.371094 95.144531 190.132812 97.5625 186.960938 L 101.300781 180.449219 L 103.996094 175.59375 C 104.6875 176.074219 104.167969 178.074219 102.441406 181.585938 L 99.847656 186.960938 L 99.949219 187.167969 L 100.574219 187.273438 C 102.648438 187.203125 104.894531 185.101562 107.316406 180.96875 L 110.535156 175.386719 C 110.878906 176.074219 110.429688 177.660156 109.183594 180.140625 L 107.523438 183.65625 L 108.769531 183.65625 C 109.53125 183.449219 110.257812 182.792969 110.949219 181.691406 C 113.230469 178.246094 114.785156 174.078125 115.617188 169.183594 L 115.929688 166.085938 M 95.386719 175.488281 L 93.414062 175.59375 L 94.140625 178.796875 L 95.386719 175.488281 M 95.59375 155.234375 L 93.414062 147.894531 L 93.308594 147.792969 L 93 146.863281 L 91.753906 143.96875 L 91.546875 146.65625 L 92.167969 157.816406 L 92.894531 167.636719 C 94.070312 167.015625 95.246094 165.878906 96.421875 164.222656 L 96.421875 164.019531 L 95.59375 155.234375 M 35.417969 153.476562 L 34.585938 158.644531 L 33.757812 164.742188 L 35.519531 166.1875 L 35.625 166.292969 L 35.933594 166.394531 C 36.972656 166.738281 38.042969 167.324219 39.152344 168.152344 L 39.460938 168.667969 L 39.671875 168.773438 L 39.980469 166.601562 L 40.707031 157.816406 L 41.019531 156.578125 L 40.085938 156.164062 L 35.417969 153.476562 M 37.285156 158.125 L 37.386719 158.230469 L 37.59375 158.023438 L 38.320312 158.4375 C 39.21875 159.402344 39.566406 160.917969 39.359375 162.984375 C 39.082031 165.121094 38.113281 165.878906 36.453125 165.257812 C 35.277344 164.84375 34.828125 163.742188 35.105469 161.949219 C 35.3125 160.503906 35.796875 159.195312 36.558594 158.023438 L 37.285156 158.125 M 37.699219 158.644531 L 37.59375 158.746094 L 36.453125 161.539062 L 36.246094 163.085938 L 36.453125 164.636719 L 37.074219 164.429688 L 37.699219 163.914062 C 38.113281 163.363281 38.320312 162.742188 38.320312 162.054688 C 38.390625 160.46875 38.183594 159.332031 37.699219 158.644531 M 43.40625 99.113281 L 43.09375 99.421875 C 41.917969 100.800781 40.984375 102.660156 40.292969 105.003906 C 39.117188 108.65625 38.253906 112.859375 37.699219 117.613281 L 36.246094 134.355469 L 36.453125 133.21875 L 41.328125 109.035156 L 42.78125 102.421875 L 43.40625 99.113281 M 34.378906 91.777344 L 30.539062 94.875 C 25.007812 100.042969 20.785156 105.726562 17.882812 111.929688 C 11.796875 125.019531 8.058594 136.492188 6.675781 146.34375 C 6.539062 147.515625 7.851562 148.757812 10.617188 150.066406 C 12.488281 150.960938 14.355469 151.648438 16.222656 152.132812 L 20.0625 152.855469 L 20.269531 152.855469 L 20.371094 152.648438 L 23.378906 146.863281 L 26.492188 141.175781 L 29.605469 135.285156 L 30.332031 133.425781 L 30.226562 129.601562 L 30.019531 122.058594 C 29.398438 117.714844 28.671875 114.066406 27.84375 111.101562 C 27.632812 110.414062 27.875 110.101562 28.570312 110.171875 L 29.917969 111 C 30.746094 112.652344 31.335938 114.789062 31.679688 117.40625 L 31.886719 119.371094 L 32.820312 125.882812 L 33.238281 130.738281 C 33.238281 131.980469 33.0625 133.183594 32.71875 134.355469 L 32.613281 141.589844 C 32.476562 143.933594 32.097656 146.6875 31.472656 149.859375 L 29.605469 158.023438 C 28.84375 161.8125 28.535156 164.570312 28.671875 166.292969 C 28.808594 168.703125 29.640625 170.527344 31.164062 171.769531 L 31.164062 165.878906 L 32.304688 157.921875 L 33.546875 149.960938 L 34.378906 134.148438 C 34.65625 126.292969 35.140625 120.128906 35.832031 115.648438 C 36.867188 109.585938 38.320312 104.96875 40.1875 101.800781 L 41.953125 99.214844 L 36.140625 102.523438 C 32.890625 104.039062 30.125 104.246094 27.84375 103.144531 C 27.21875 102.867188 27.632812 101.765625 29.085938 99.835938 L 32.097656 95.910156 L 34.378906 91.777344 M 42.574219 41.339844 L 42.988281 43.199219 L 44.339844 41.339844 C 43.507812 40.996094 42.816406 40.511719 42.265625 39.894531 L 42.574219 41.339844 M 81.273438 241.632812 L 81.378906 242.046875 C 81.378906 243.148438 81.585938 244.253906 82 245.355469 C 82.484375 246.527344 83.074219 247.523438 83.765625 248.351562 L 88.328125 251.761719 C 90.40625 252.933594 92.238281 253.484375 93.828125 253.417969 C 96.597656 253.347656 98.636719 251.382812 99.949219 247.523438 C 101.125 244.011719 100.953125 241.324219 99.429688 239.464844 L 97.148438 241.015625 C 92.238281 243.839844 86.945312 244.046875 81.273438 241.632812 M 57.203125 233.367188 L 57.722656 230.679688 L 50.148438 231.816406 L 39.773438 231.09375 C 38.320312 230.679688 37.144531 230.09375 36.246094 229.335938 L 36.140625 229.4375 C 31.09375 231.300781 27.082031 233.574219 24.105469 236.261719 L 22.65625 237.707031 L 22.550781 237.914062 L 22.863281 238.121094 L 27.21875 239.464844 L 38.632812 238.636719 C 42.503906 237.742188 46 236.292969 49.113281 234.296875 L 49.734375 234.503906 L 50.253906 235.019531 L 50.980469 236.054688 L 54.300781 235.433594 C 56.027344 234.949219 56.996094 234.261719 57.203125 233.367188 M 63.742188 169.597656 C 64.015625 169.875 64.191406 169.703125 64.257812 169.082031 L 64.675781 165.773438 L 64.570312 163.5 C 64.085938 164.328125 63.742188 165.636719 63.53125 167.429688 L 63.742188 169.597656 M 59.796875 167.429688 C 59.660156 168.667969 59.695312 169.390625 59.902344 169.597656 C 60.179688 169.875 60.386719 169.703125 60.523438 169.082031 L 60.9375 165.773438 L 60.730469 163.5 C 60.316406 164.328125 60.003906 165.636719 59.796875 167.429688 M 56.894531 165.15625 L 56.789062 162.882812 L 55.75 166.808594 L 55.960938 168.875 L 56.476562 168.460938 L 56.894531 165.15625 M 56.789062 161.640625 L 57.410156 162.261719 L 57.828125 166.601562 C 57.828125 168.875 57.445312 170.046875 56.683594 170.117188 C 56.0625 170.117188 55.578125 169.738281 55.234375 168.980469 C 54.886719 168.289062 54.75 167.601562 54.816406 166.910156 C 54.957031 164.363281 55.40625 162.5 56.167969 161.332031 L 56.789062 161.640625 M 63.949219 162.054688 L 64.46875 162.261719 L 65.191406 162.984375 L 65.609375 167.324219 C 65.609375 169.597656 65.226562 170.769531 64.46875 170.839844 C 63.84375 170.839844 63.359375 170.425781 63.015625 169.597656 C 62.667969 168.910156 62.53125 168.253906 62.597656 167.636719 C 62.738281 165.015625 63.1875 163.15625 63.949219 162.054688 M 60.835938 162.363281 L 61.355469 162.984375 L 61.769531 167.324219 C 61.839844 169.597656 61.457031 170.769531 60.628906 170.839844 C 60.003906 170.839844 59.519531 170.425781 59.175781 169.597656 L 58.761719 167.636719 C 58.828125 165.15625 59.3125 163.292969 60.214844 162.054688 L 60.730469 162.261719 L 60.835938 162.363281 M 46.519531 164.636719 L 46.621094 163.398438 L 44.132812 163.292969 L 43.820312 163.398438 L 43.613281 165.257812 L 45.273438 165.464844 L 46.519531 164.636719 M 54.300781 158.851562 L 53.882812 161.640625 L 52.847656 171.5625 L 52.742188 172.90625 L 56.683594 173.320312 L 57.308594 174.042969 L 57.308594 174.351562 L 57.515625 174.351562 L 66.023438 175.078125 L 66.542969 160.710938 L 64.050781 160.503906 L 61.042969 160.089844 C 60.214844 159.882812 59.519531 159.574219 58.96875 159.160156 L 54.300781 158.851562 M 48.59375 157.921875 L 45.6875 157.195312 L 42.265625 157.09375 L 41.847656 158.4375 L 41.433594 163.085938 L 42.367188 162.46875 L 42.574219 162.46875 L 42.679688 160.402344 L 42.679688 160.296875 L 43.300781 158.539062 C 43.714844 158.058594 44.304688 157.851562 45.066406 157.921875 L 49.113281 158.332031 L 50.046875 158.332031 L 50.875 158.644531 L 51.496094 160.503906 L 51.1875 162.46875 L 50.460938 169.082031 L 50.046875 171.148438 C 49.769531 171.632812 49.179688 171.839844 48.28125 171.769531 L 44.960938 171.769531 C 43.300781 171.699219 42.332031 171.425781 42.054688 170.941406 L 41.847656 168.359375 L 42.265625 165.671875 L 42.265625 165.566406 L 41.847656 165.050781 L 41.328125 164.222656 L 40.8125 169.910156 L 40.5 171.976562 C 40.5 172.871094 40.8125 173.355469 41.433594 173.421875 L 45.6875 173.835938 L 49.734375 174.042969 C 50.910156 173.765625 51.566406 172.734375 51.707031 170.941406 L 53.054688 158.953125 L 53.054688 158.644531 L 48.59375 157.921875 M 47.761719 159.058594 L 45.375 158.851562 C 44.546875 158.851562 44.097656 159.332031 44.027344 160.296875 L 43.921875 162.261719 L 46.414062 162.363281 L 46.933594 162.570312 C 47.277344 162.5 47.519531 162.640625 47.660156 162.984375 L 47.761719 165.050781 L 46.207031 166.394531 C 45.375 166.601562 44.582031 166.601562 43.820312 166.394531 L 43.507812 166.292969 L 43.199219 169.289062 C 43.128906 169.976562 43.441406 170.390625 44.132812 170.527344 L 45.792969 170.632812 L 48.488281 170.839844 C 48.835938 170.90625 49.078125 170.734375 49.214844 170.320312 L 49.214844 169.082031 L 50.046875 161.226562 C 50.183594 160.332031 50.046875 159.746094 49.628906 159.46875 L 47.761719 159.058594 M 47.453125 155.957031 L 47.347656 156.058594 L 47.347656 156.472656 C 47.484375 157.164062 48.730469 157.679688 51.082031 158.023438 L 53.054688 158.230469 C 52.914062 157.265625 52.363281 156.644531 51.394531 156.371094 L 47.554688 155.957031 L 47.453125 155.957031 M 92.167969 183.550781 L 93.207031 180.96875 L 92.375 176.9375 L 90.820312 177.867188 L 87.5 179.003906 C 79.339844 181.691406 72.386719 182 66.644531 179.933594 C 66.09375 179.726562 65.816406 179.453125 65.816406 179.105469 L 65.917969 177.144531 C 61.285156 177.003906 56.546875 176.214844 51.707031 174.765625 L 51.496094 174.871094 L 47.554688 174.765625 L 43.613281 174.664062 C 41.8125 174.523438 40.605469 174.144531 39.980469 173.527344 C 39.429688 172.90625 39.21875 171.804688 39.359375 170.21875 L 39.460938 170.011719 L 33.546875 166.085938 L 33.445312 166.292969 C 33.097656 169.390625 33.167969 171.941406 33.652344 173.9375 C 33.789062 174.351562 33.6875 174.628906 33.339844 174.765625 L 32.199219 174.765625 C 30.539062 173.9375 29.226562 172.835938 28.257812 171.460938 C 27.082031 179.519531 26.527344 186.308594 26.597656 191.820312 L 27.011719 198.226562 C 27.425781 202.085938 28.257812 206.082031 29.503906 210.214844 C 30.816406 214.902344 32.925781 220.757812 35.832031 227.785156 L 35.933594 227.886719 L 36.972656 228.507812 C 39.671875 229.75 43.300781 230.128906 47.867188 229.644531 L 58.65625 228.199219 L 59.277344 228.199219 L 59.175781 227.992188 L 58.863281 225.613281 C 57.273438 217.277344 56.234375 210.972656 55.75 206.703125 C 55.476562 203.671875 55.40625 200.84375 55.542969 198.226562 C 55.683594 194.4375 56.304688 191.0625 57.410156 188.097656 L 56.476562 186.652344 L 53.675781 183.449219 L 52.847656 182.207031 C 52.5 181.585938 52.570312 181.414062 53.054688 181.691406 C 53.882812 182.171875 54.714844 182.929688 55.542969 183.964844 L 57.410156 186.753906 L 58.65625 188.511719 L 59.175781 189.441406 L 63.742188 198.226562 L 67.476562 207.734375 L 73.390625 224.167969 L 79.304688 239.257812 C 81.863281 240.429688 84.386719 241.082031 86.878906 241.222656 C 89.851562 241.425781 92.617188 240.808594 95.179688 239.359375 L 98.601562 236.984375 C 99.5 235.949219 100.019531 234.746094 100.15625 233.367188 C 100.640625 229.644531 100.78125 225.546875 100.574219 221.066406 L 99.640625 212.800781 L 96.941406 198.226562 L 95.695312 192.542969 L 95.59375 192.234375 L 91.234375 192.4375 C 90.265625 191.679688 89.957031 190.40625 90.300781 188.617188 L 92.167969 183.550781 M 27.632812 155.027344 L 29.292969 147.894531 L 30.125 141.695312 C 27.632812 145.277344 25.039062 149.925781 22.34375 155.644531 L 22.136719 155.75 L 21.824219 155.75 L 21.71875 156.164062 C 21.859375 157.746094 21.546875 159.367188 20.785156 161.019531 L 25.039062 164.742188 L 26.390625 166.292969 L 26.285156 162.675781 L 27.632812 155.027344 M 16.53125 155.644531 C 16.808594 158.058594 16.324219 159.78125 15.082031 160.8125 L 16.84375 164.742188 L 18.609375 168.980469 C 19.023438 170.496094 18.882812 171.632812 18.191406 172.390625 L 18.089844 172.492188 C 20.648438 174.214844 22.308594 174.523438 23.070312 173.421875 C 23.621094 172.734375 23.136719 171.597656 21.617188 170.011719 L 19.125 167.015625 L 19.230469 167.015625 L 19.4375 166.910156 L 22.238281 168.875 C 23.832031 169.910156 24.902344 170.011719 25.457031 169.183594 C 25.800781 168.703125 24.832031 167.324219 22.550781 165.050781 L 18.609375 161.332031 C 18.953125 160.78125 19.230469 160.023438 19.4375 159.058594 L 19.644531 156.371094 L 19.644531 155.644531 C 16.949219 155.371094 14.421875 154.613281 12.070312 153.371094 L 9.789062 152.027344 C 8.128906 151.132812 6.882812 150.203125 6.054688 149.238281 L 3.355469 154.304688 C 2.664062 156.644531 2.628906 159.46875 3.253906 162.777344 C 4.011719 167.117188 7.058594 171.355469 12.382812 175.488281 L 13.421875 176.316406 L 14.664062 176.9375 C 17.226562 178.039062 18.882812 178.175781 19.644531 177.351562 C 19.992188 177.074219 20.128906 176.695312 20.0625 176.214844 L 19.644531 175.179688 L 17.675781 172.800781 C 16.84375 173.285156 15.597656 173.285156 13.9375 172.800781 C 10.894531 171.839844 8.507812 169.253906 6.78125 165.050781 C 5.398438 161.742188 4.808594 159.46875 5.015625 158.230469 C 5.085938 157.746094 5.429688 157.472656 6.054688 157.402344 C 6.675781 157.265625 7.023438 157.4375 7.089844 157.921875 L 8.75 164.121094 C 10.136719 167.839844 12.070312 170.082031 14.5625 170.839844 L 16.636719 171.046875 C 16.84375 170.769531 16.707031 169.941406 16.222656 168.566406 L 14.976562 165.671875 L 12.488281 159.988281 L 13.214844 159.46875 L 14.148438 158.539062 C 14.699219 157.714844 14.90625 156.679688 14.769531 155.441406 L 16.53125 155.644531 "/>
<path style=" stroke:none;fill-rule:nonzero;fill:rgb(100%,100%,100%);fill-opacity:1;" d="M 105.242188 40.617188 L 100.261719 37.722656 C 96.804688 35.929688 92.6875 34.347656 87.914062 32.96875 L 75.152344 29.765625 L 63.742188 27.179688 C 59.453125 26.285156 55.855469 25.21875 52.949219 23.976562 L 55.855469 18.707031 C 57.445312 16.363281 59.277344 14.539062 61.355469 13.230469 L 69.136719 8.269531 L 71.9375 5.996094 L 75.050781 4.132812 C 76.363281 3.71875 78.265625 4.097656 80.757812 5.269531 C 82.625 6.097656 84.664062 7.339844 86.878906 8.992188 L 92.480469 13.4375 L 98.082031 17.363281 L 103.476562 21.496094 L 105.242188 24.082031 L 105.449219 25.527344 L 105.242188 40.617188 M 77.746094 14.160156 C 78.507812 15.8125 79.855469 17.535156 81.792969 19.328125 L 86.671875 23.460938 L 94.660156 29.765625 L 94.554688 28.421875 C 88.261719 23.941406 83.453125 19.84375 80.132812 16.121094 C 78.40625 14.398438 77.574219 13.230469 77.644531 12.609375 L 82.726562 12.503906 C 85.285156 13.332031 88.398438 14.917969 92.066406 17.257812 L 92.273438 16.742188 L 92.066406 16.121094 C 87.847656 13.367188 84.144531 11.574219 80.964844 10.75 L 77.851562 11.160156 C 77.160156 11.851562 77.125 12.851562 77.746094 14.160156 M 52.429688 36.171875 L 49.527344 38.964844 C 48.003906 39.996094 46.550781 40.445312 45.167969 40.308594 C 44.269531 40.167969 43.507812 39.722656 42.886719 38.964844 L 41.953125 37.414062 C 42.160156 35.691406 44.234375 34.621094 48.175781 34.210938 L 54.609375 34.210938 L 52.429688 36.171875 M 51.601562 42.269531 L 51.082031 42.375 L 46.933594 44.335938 L 46.414062 44.75 L 46.933594 44.957031 L 51.082031 45.269531 L 52.015625 44.957031 L 52.328125 44.128906 L 52.222656 43.097656 L 51.601562 42.269531 M 50.5625 40.101562 L 53.574219 37.308594 L 56.683594 34.519531 L 60.730469 35.242188 L 61.5625 35.863281 C 62.324219 36.277344 62.945312 36.484375 63.429688 36.484375 L 65.710938 36.277344 L 76.917969 39.6875 C 77.402344 40.375 78.058594 40.753906 78.886719 40.824219 L 79.613281 40.824219 L 82.519531 42.269531 C 85.011719 43.578125 87.292969 45.09375 89.367188 46.816406 L 86.253906 48.886719 L 85.734375 49.195312 C 85.527344 49.539062 85.632812 49.882812 86.046875 50.226562 L 90.40625 54.257812 C 92.757812 57.152344 93.726562 60.21875 93.308594 63.457031 C 92.550781 60.769531 91.476562 58.359375 90.09375 56.222656 L 86.359375 52.089844 L 86.046875 51.984375 L 85.320312 52.296875 C 85.183594 52.503906 85.253906 52.707031 85.527344 52.914062 L 86.773438 54.15625 L 89.054688 56.945312 C 90.441406 58.667969 91.753906 61.320312 93 64.90625 L 92.6875 66.144531 C 91.859375 63.320312 90.683594 60.941406 89.160156 59.011719 C 87.984375 57.496094 86.914062 56.53125 85.945312 56.121094 L 85.839844 56.015625 L 85.21875 56.53125 C 85.148438 56.945312 85.355469 57.324219 85.839844 57.667969 L 88.121094 59.839844 L 92.273438 67.074219 L 92.273438 67.179688 C 92.066406 67.523438 92.03125 67.867188 92.167969 68.210938 L 90.40625 67.488281 C 90.335938 67.695312 90.371094 67.9375 90.507812 68.210938 C 92.722656 70.347656 93.066406 72.757812 91.546875 75.445312 C 90.023438 78.0625 87.8125 79.167969 84.90625 78.753906 L 84.078125 78.648438 C 80.273438 83.75 75.949219 87.46875 71.105469 89.8125 L 70.898438 89.914062 L 70.378906 90.433594 L 71.105469 90.84375 C 72.28125 90.914062 73.667969 90.605469 75.257812 89.914062 L 76.085938 89.5 L 73.285156 93.84375 L 70.070312 95.703125 C 66.820312 97.21875 63.773438 97.804688 60.9375 97.460938 C 59.625 97.253906 58.621094 96.839844 57.929688 96.21875 L 58.136719 96.324219 L 61.664062 96.011719 C 63.257812 95.738281 64.015625 95.460938 63.949219 95.1875 L 63.742188 95.082031 L 62.496094 95.082031 L 60.316406 94.980469 C 57.828125 94.703125 55.164062 93.773438 52.328125 92.1875 L 48.902344 89.605469 L 46.828125 88.363281 C 43.09375 84.988281 40.429688 80.578125 38.839844 75.136719 C 36.765625 68.109375 36.902344 61.148438 39.253906 54.257812 C 40.636719 49.988281 42.957031 45.785156 46.207031 41.648438 C 47.660156 41.648438 49.113281 41.132812 50.5625 40.101562 M 46.519531 31.832031 C 44.234375 32.175781 42.609375 32.933594 41.640625 34.105469 C 40.878906 35.207031 40.636719 36.894531 40.914062 39.171875 L 42.054688 43.097656 L 40.605469 45.886719 C 39.082031 44.234375 37.628906 41.375 36.246094 37.308594 C 34.933594 33.3125 33.445312 30.488281 31.785156 28.835938 L 28.359375 25.632812 L 24.9375 22.425781 L 23.589844 20.671875 C 23.378906 19.914062 23.554688 19.222656 24.105469 18.601562 C 24.660156 18.050781 25.871094 17.777344 27.738281 17.777344 C 30.78125 17.777344 34.480469 18.535156 38.839844 20.050781 L 49.214844 24.699219 C 54.472656 27.042969 61.214844 29.074219 69.445312 30.796875 L 83.140625 34.105469 C 88.191406 35.484375 92.6875 36.964844 96.628906 38.550781 C 103.960938 41.375 110.566406 45.992188 116.445312 52.398438 C 122.949219 59.359375 126.164062 65.59375 126.097656 71.105469 C 126.097656 73.171875 125.164062 74.722656 123.292969 75.757812 C 121.910156 76.515625 119.976562 76.925781 117.484375 76.996094 L 105.035156 75.960938 L 94.347656 73.378906 L 94.453125 71.726562 L 94.035156 69.863281 L 97.667969 70.382812 C 99.535156 70.3125 100.78125 69.691406 101.402344 68.523438 C 102.09375 67.351562 102.199219 65.421875 101.714844 62.734375 C 101.023438 59.289062 99.464844 55.84375 97.046875 52.398438 C 94.96875 49.574219 92.34375 46.886719 89.160156 44.335938 C 84.457031 40.480469 78.613281 37.449219 71.625 35.242188 C 65.46875 33.3125 58.933594 32.140625 52.015625 31.730469 L 46.519531 31.832031 M 71.730469 43.820312 C 71.382812 43.820312 71.105469 43.957031 70.898438 44.234375 L 70.070312 45.0625 C 69.515625 45.679688 69.308594 46.09375 69.445312 46.300781 L 70.277344 46.921875 L 72.144531 47.953125 L 74.117188 49.402344 L 75.570312 50.332031 C 75.914062 49.503906 75.464844 48.195312 74.21875 46.40625 L 72.25 44.027344 L 71.730469 43.820312 M 90.714844 47.953125 L 92.273438 49.402344 L 97.148438 55.1875 L 97.046875 55.394531 L 94.660156 61.597656 C 94.382812 58.632812 93.34375 56.015625 91.546875 53.742188 L 89.472656 51.46875 L 87.914062 49.917969 C 88.953125 49.367188 89.886719 48.710938 90.714844 47.953125 M 88.953125 64.179688 L 87.914062 62.21875 L 85.632812 60.148438 L 85.425781 60.046875 C 85.148438 60.046875 84.941406 60.183594 84.800781 60.460938 C 84.664062 60.734375 84.769531 61.046875 85.113281 61.390625 L 86.980469 62.941406 L 88.121094 64.699219 L 89.054688 65.835938 L 89.265625 65.628906 L 88.953125 64.179688 M 98.082031 60.460938 L 98.1875 59.21875 L 98.914062 58.1875 L 99.429688 59.117188 C 100.816406 61.804688 101.367188 63.972656 101.089844 65.628906 C 100.882812 67.074219 99.742188 67.832031 97.667969 67.902344 L 94.347656 67.589844 L 94.242188 67.179688 L 96.007812 64.90625 L 96.214844 64.59375 C 97.183594 63.148438 97.804688 61.769531 98.082031 60.460938 M 87.292969 90.019531 L 86.566406 89.296875 C 90.300781 90.671875 93.933594 92.914062 97.460938 96.011719 C 103.0625 100.835938 107.628906 107.3125 111.15625 115.441406 C 114.128906 122.332031 116.203125 130.015625 117.382812 138.488281 C 118.140625 143.519531 118.074219 149.480469 117.171875 156.371094 C 116.898438 158.710938 116.445312 160.503906 115.824219 161.742188 C 114.996094 163.535156 113.644531 164.777344 111.777344 165.464844 C 109.839844 166.222656 107.457031 166.636719 104.621094 166.703125 C 101.160156 166.773438 99.257812 166.015625 98.914062 164.429688 C 98.773438 160.503906 98.394531 157.09375 97.773438 154.199219 C 97.078125 150.546875 95.972656 147.273438 94.453125 144.382812 L 89.988281 137.972656 L 85.425781 132.496094 L 85.011719 131.980469 L 83.453125 131.460938 C 82.625 131.394531 82.382812 131.53125 82.726562 131.875 L 84.699219 134.355469 L 86.671875 136.628906 L 87.1875 137.351562 C 88.503906 139.214844 89.125 140.730469 89.054688 141.902344 C 88.917969 144.035156 89.023438 148 89.367188 153.785156 L 90.40625 167.636719 L 90.507812 168.667969 L 89.367188 169.082031 L 89.265625 169.183594 L 86.878906 169.804688 L 86.566406 169.910156 L 86.046875 170.425781 L 85.734375 170.632812 L 85.632812 170.839844 L 85.425781 172.597656 L 85.632812 172.90625 L 85.734375 173.214844 L 85.839844 173.113281 L 86.046875 173.421875 L 87.292969 174.558594 L 89.679688 175.386719 L 90.300781 175.386719 L 90.09375 175.695312 L 87.914062 176.9375 C 85.011719 178.246094 81.34375 179.210938 76.917969 179.832031 C 71.175781 180.726562 68.375 179.933594 68.511719 177.453125 L 69.03125 158.851562 L 69.03125 158.746094 C 69.722656 150.132812 70.96875 139.867188 72.765625 127.949219 C 73.390625 123.402344 74.21875 118.820312 75.257812 114.203125 C 75.601562 112.6875 75.671875 111.101562 75.464844 109.449219 L 75.984375 106.761719 C 77.710938 108.070312 79.546875 109 81.480469 109.550781 L 90.199219 109.863281 C 92.964844 109.3125 95.730469 108.3125 98.496094 106.863281 L 98.496094 106.761719 C 96.5625 105.796875 94.902344 104.453125 93.519531 102.730469 C 92.410156 101.351562 91.339844 99.492188 90.300781 97.148438 L 89.054688 93.429688 L 87.292969 90.019531 M 69.65625 52.914062 C 69.171875 52.847656 68.6875 53.085938 68.203125 53.640625 C 67.785156 54.257812 67.476562 55.050781 67.269531 56.015625 C 67.128906 56.980469 67.199219 57.808594 67.476562 58.496094 C 67.683594 59.253906 68.0625 59.667969 68.617188 59.738281 L 70.070312 58.910156 L 71.003906 56.636719 L 70.796875 54.050781 L 69.65625 52.914062 M 65.609375 67.589844 C 65.332031 67.523438 65.261719 67.695312 65.402344 68.109375 L 65.816406 69.761719 L 65.503906 70.589844 L 64.675781 71.003906 C 59.832031 72.171875 56.234375 72.722656 53.882812 72.65625 L 52.535156 72.550781 L 47.347656 71.414062 L 44.648438 70.589844 L 44.027344 70.070312 L 43.820312 69.347656 L 44.027344 68.625 L 43.820312 68.003906 L 43.40625 68.316406 L 41.226562 70.277344 L 40.914062 71.933594 L 42.679688 75.550781 L 42.988281 75.960938 L 43.199219 75.445312 L 43.300781 74.929688 L 44.132812 74.308594 L 44.339844 74.308594 L 47.347656 76.582031 C 49.699219 78.167969 51.949219 79.097656 54.089844 79.375 L 54.089844 79.476562 C 56.167969 79.753906 59.039062 79.097656 62.703125 77.511719 L 67.578125 75.136719 L 67.996094 75.136719 L 69.03125 75.859375 L 68.722656 78.132812 L 69.136719 78.546875 L 69.550781 78.132812 L 71.003906 73.585938 C 71.210938 72.964844 71.039062 72.449219 70.484375 72.035156 L 65.917969 67.796875 L 65.609375 67.589844 M 85.734375 67.074219 C 85.734375 67.488281 85.945312 67.695312 86.359375 67.695312 C 86.773438 67.765625 86.980469 67.523438 86.980469 66.972656 L 86.460938 65.316406 L 85.320312 64.179688 L 85.011719 64.078125 L 84.386719 64.386719 C 84.25 64.664062 84.316406 64.90625 84.59375 65.109375 L 85.21875 65.835938 L 85.734375 67.074219 M 58.136719 52.503906 L 55.648438 56.328125 L 52.847656 59.324219 L 50.980469 61.082031 L 50.5625 61.90625 L 50.667969 62.734375 L 52.535156 66.351562 L 53.78125 67.074219 L 54.921875 66.972656 C 55.199219 66.972656 55.371094 66.867188 55.441406 66.660156 L 55.441406 65.9375 L 53.882812 63.25 C 53.539062 62.699219 53.574219 62.113281 53.988281 61.492188 L 56.582031 57.773438 L 59.277344 52.914062 L 59.488281 52.191406 L 59.175781 51.777344 L 58.136719 52.503906 M 46 55.914062 C 46.207031 56.601562 46.585938 56.980469 47.140625 57.050781 L 47.140625 57.152344 C 47.625 57.222656 48.109375 56.945312 48.59375 56.328125 L 49.527344 53.949219 L 49.320312 51.46875 L 48.175781 50.226562 C 47.695312 50.160156 47.210938 50.433594 46.726562 51.054688 C 46.242188 51.675781 45.929688 52.46875 45.792969 53.433594 C 45.652344 54.328125 45.722656 55.15625 46 55.914062 M 65.503906 72.035156 L 66.230469 72.035156 L 67.476562 72.65625 C 67.890625 73.070312 67.925781 73.484375 67.578125 73.894531 L 66.644531 74.515625 L 58.554688 77.203125 C 57.101562 77.480469 55.371094 77.480469 53.367188 77.203125 C 51.980469 76.996094 50.910156 76.722656 50.148438 76.375 L 44.234375 73.484375 C 43.683594 73.34375 43.40625 72.929688 43.40625 72.242188 C 43.335938 71.691406 43.648438 71.449219 44.339844 71.519531 L 47.242188 72.34375 L 52.847656 73.585938 L 54.300781 73.6875 C 56.996094 73.828125 60.558594 73.308594 64.984375 72.140625 L 65.503906 72.035156 M 51.394531 82.371094 L 52.847656 83.609375 C 53.261719 83.816406 53.710938 83.957031 54.195312 84.023438 L 55.960938 84.128906 L 56.789062 83.714844 L 57.101562 83.09375 C 57.101562 82.542969 56.789062 82.199219 56.167969 82.0625 L 51.601562 81.855469 L 51.082031 81.957031 L 51.394531 82.371094 M 44.960938 92.5 L 44.753906 92.707031 L 44.648438 92.914062 L 44.546875 93.324219 L 43.613281 97.5625 L 40.5 99.527344 C 38.492188 100.765625 36.695312 101.59375 35.105469 102.007812 L 29.398438 101.59375 C 29.746094 101.730469 31.195312 99.800781 33.757812 95.804688 L 36.972656 90.226562 L 38.839844 89.191406 L 41.640625 88.363281 L 42.054688 88.675781 L 44.753906 90.433594 C 45.238281 91.328125 45.308594 92.015625 44.960938 92.5 M 47.554688 92.292969 L 49.835938 93.945312 C 48.59375 94.359375 47.484375 94.875 46.519531 95.496094 L 46.828125 94.257812 C 47.382812 93.773438 47.625 93.117188 47.554688 92.292969 M 50.460938 94.359375 L 52.429688 96.21875 L 53.054688 97.253906 L 54.714844 103.660156 C 55.128906 106.003906 55.128906 108.207031 54.714844 110.273438 L 53.574219 115.648438 L 51.496094 123.089844 L 49.007812 136.628906 C 48.175781 142.210938 46.96875 147.964844 45.375 153.890625 L 45.167969 155.027344 L 43.199219 154.921875 L 42.988281 154.820312 L 38.839844 153.0625 L 35.726562 151.203125 L 39.046875 132.1875 L 43.507812 110.273438 L 45.066406 103.660156 L 45.792969 98.804688 L 46.207031 96.738281 L 47.554688 95.804688 L 48.074219 95.496094 L 48.28125 95.394531 L 49.941406 94.566406 L 50.460938 94.359375 M 83.351562 88.261719 L 84.699219 90.019531 L 87.394531 96.21875 C 88.570312 100.078125 90.648438 103.144531 93.621094 105.417969 C 95.972656 107.210938 94.726562 108.347656 89.886719 108.828125 L 82.417969 109.035156 C 80.617188 108.484375 78.578125 107.175781 76.292969 105.109375 L 76.503906 104.175781 L 79.097656 90.84375 L 80.03125 88.261719 L 82.519531 88.054688 L 83.351562 88.261719 M 85.425781 101.285156 C 85.703125 102.042969 86.152344 102.421875 86.773438 102.421875 C 87.464844 102.421875 87.671875 102.042969 87.394531 101.285156 C 87.121094 100.457031 86.671875 100.042969 86.046875 100.042969 C 85.355469 100.042969 85.148438 100.457031 85.425781 101.285156 M 68.929688 99.941406 L 69.964844 102.214844 L 71.625 104.902344 L 72.765625 108.621094 L 72.351562 109.863281 C 71.589844 112.550781 70.933594 115.71875 70.378906 119.371094 L 68.929688 128.980469 C 67.890625 135.734375 67.199219 144.003906 66.851562 153.785156 L 66.851562 154.097656 L 66.75 156.371094 L 66.75 156.886719 L 66.125 158.539062 L 55.648438 158.230469 L 54.300781 158.230469 L 53.367188 156.265625 C 52.8125 155.714844 51.773438 155.371094 50.253906 155.234375 L 47.660156 155.234375 L 47.660156 154.820312 L 47.761719 154.304688 L 47.867188 153.785156 L 48.695312 151.097656 L 50.667969 143.039062 L 52.640625 131.359375 L 54.921875 119.679688 C 56.789062 112.652344 59.070312 107.761719 61.769531 105.003906 L 67.371094 100.871094 L 68.929688 99.941406 M 69.964844 99.214844 L 73.183594 96.941406 L 75.878906 94.152344 L 74.945312 98.183594 L 74.117188 102.730469 L 73.699219 102.316406 L 71.417969 99.527344 L 70.070312 99.214844 L 69.964844 99.214844 M 60.109375 99.628906 L 67.371094 99.214844 L 65.089844 100.558594 C 61.632812 102.488281 59.039062 104.695312 57.308594 107.175781 L 56.996094 102.214844 L 56.0625 98.492188 L 60.109375 99.628906 M 55.648438 120.816406 L 55.648438 120.921875 L 55.023438 121.128906 L 55.023438 121.746094 L 55.128906 122.367188 L 55.335938 122.882812 L 56.167969 123.710938 L 57.308594 123.609375 L 57.929688 121.539062 L 56.789062 120.300781 C 56.027344 120.023438 55.648438 120.195312 55.648438 120.816406 M 53.46875 138.386719 C 52.640625 138.523438 52.191406 138.867188 52.121094 139.421875 L 52.015625 140.765625 L 52.121094 142.105469 C 52.121094 142.726562 52.640625 142.867188 53.675781 142.519531 L 54.816406 141.382812 L 54.816406 140.558594 L 54.609375 139.9375 L 54.507812 139.832031 L 54.507812 139.214844 C 54.644531 138.523438 54.300781 138.25 53.46875 138.386719 M 115.929688 166.085938 L 115.617188 169.183594 C 114.785156 174.078125 113.230469 178.246094 110.949219 181.691406 C 110.257812 182.792969 109.53125 183.449219 108.769531 183.65625 L 107.523438 183.65625 L 109.183594 180.140625 C 110.429688 177.660156 110.878906 176.074219 110.535156 175.386719 L 107.316406 180.96875 C 104.894531 185.101562 102.648438 187.203125 100.574219 187.273438 L 99.949219 187.167969 L 99.847656 186.960938 L 102.441406 181.585938 C 104.167969 178.074219 104.6875 176.074219 103.996094 175.59375 L 101.300781 180.449219 L 97.5625 186.960938 C 95.144531 190.132812 93.484375 191.371094 92.582031 190.683594 C 91.960938 190.269531 92.480469 188.167969 94.140625 184.378906 L 94.554688 183.449219 L 98.1875 174.144531 L 98.289062 173.527344 L 96.007812 173.628906 L 91.960938 174.144531 C 90.507812 174.144531 89.296875 173.90625 88.328125 173.421875 C 87.363281 172.941406 87.152344 172.390625 87.707031 171.769531 L 89.265625 171.148438 L 93.933594 169.496094 C 95.59375 168.667969 96.941406 167.738281 97.980469 166.703125 C 99.085938 167.601562 100.816406 168.015625 103.167969 167.945312 L 105.242188 168.359375 L 112.710938 167.738281 C 113.820312 167.324219 114.855469 166.808594 115.824219 166.1875 L 115.929688 166.085938 M 92.167969 183.550781 L 90.300781 188.617188 C 89.957031 190.40625 90.265625 191.679688 91.234375 192.4375 L 95.59375 192.234375 L 95.695312 192.542969 L 96.941406 198.226562 L 99.640625 212.800781 L 100.574219 221.066406 C 100.78125 225.546875 100.640625 229.644531 100.15625 233.367188 C 100.019531 234.746094 99.5 235.949219 98.601562 236.984375 L 95.179688 239.359375 C 92.617188 240.808594 89.851562 241.425781 86.878906 241.222656 C 84.386719 241.082031 81.863281 240.429688 79.304688 239.257812 L 73.390625 224.167969 L 67.476562 207.734375 L 63.742188 198.226562 L 59.175781 189.441406 L 58.65625 188.511719 L 57.410156 186.753906 L 55.542969 183.964844 C 54.714844 182.929688 53.882812 182.171875 53.054688 181.691406 C 52.570312 181.414062 52.5 181.585938 52.847656 182.207031 L 53.675781 183.449219 L 56.476562 186.652344 L 57.410156 188.097656 C 56.304688 191.0625 55.683594 194.4375 55.542969 198.226562 C 55.40625 200.84375 55.476562 203.671875 55.75 206.703125 C 56.234375 210.972656 57.273438 217.277344 58.863281 225.613281 L 59.175781 227.992188 L 59.277344 228.199219 L 58.65625 228.199219 L 47.867188 229.644531 C 43.300781 230.128906 39.671875 229.75 36.972656 228.507812 L 35.933594 227.886719 L 35.832031 227.785156 C 32.925781 220.757812 30.816406 214.902344 29.503906 210.214844 C 28.257812 206.082031 27.425781 202.085938 27.011719 198.226562 L 26.597656 191.820312 C 26.527344 186.308594 27.082031 179.519531 28.257812 171.460938 C 29.226562 172.835938 30.539062 173.9375 32.199219 174.765625 L 33.339844 174.765625 C 33.6875 174.628906 33.789062 174.351562 33.652344 173.9375 C 33.167969 171.941406 33.097656 169.390625 33.445312 166.292969 L 33.546875 166.085938 L 39.460938 170.011719 L 39.359375 170.21875 C 39.21875 171.804688 39.429688 172.90625 39.980469 173.527344 C 40.605469 174.144531 41.8125 174.523438 43.613281 174.664062 L 47.554688 174.765625 L 51.496094 174.871094 L 51.707031 174.765625 C 56.546875 176.214844 61.285156 177.003906 65.917969 177.144531 L 65.816406 179.105469 C 65.816406 179.453125 66.09375 179.726562 66.644531 179.933594 C 72.386719 182 79.339844 181.691406 87.5 179.003906 L 90.820312 177.867188 L 92.375 176.9375 L 93.207031 180.96875 L 92.167969 183.550781 M 47.453125 155.957031 L 47.554688 155.957031 L 51.394531 156.371094 C 52.363281 156.644531 52.914062 157.265625 53.054688 158.230469 L 51.082031 158.023438 C 48.730469 157.679688 47.484375 157.164062 47.347656 156.472656 L 47.347656 156.058594 L 47.453125 155.957031 M 47.761719 159.058594 L 49.628906 159.46875 C 50.046875 159.746094 50.183594 160.332031 50.046875 161.226562 L 49.214844 169.082031 L 49.214844 170.320312 C 49.078125 170.734375 48.835938 170.90625 48.488281 170.839844 L 45.792969 170.632812 L 44.132812 170.527344 C 43.441406 170.390625 43.128906 169.976562 43.199219 169.289062 L 43.507812 166.292969 L 43.820312 166.394531 C 44.582031 166.601562 45.375 166.601562 46.207031 166.394531 L 47.761719 165.050781 L 47.660156 162.984375 C 47.519531 162.640625 47.277344 162.5 46.933594 162.570312 L 46.414062 162.363281 L 43.921875 162.261719 L 44.027344 160.296875 C 44.097656 159.332031 44.546875 158.851562 45.375 158.851562 L 47.761719 159.058594 M 48.59375 157.921875 L 53.054688 158.644531 L 53.054688 158.953125 L 51.707031 170.941406 C 51.566406 172.734375 50.910156 173.765625 49.734375 174.042969 L 45.6875 173.835938 L 41.433594 173.421875 C 40.8125 173.355469 40.5 172.871094 40.5 171.976562 L 40.8125 169.910156 L 41.328125 164.222656 L 41.847656 165.050781 L 42.265625 165.566406 L 42.265625 165.671875 L 41.847656 168.359375 L 42.054688 170.941406 C 42.332031 171.425781 43.300781 171.699219 44.960938 171.769531 L 48.28125 171.769531 C 49.179688 171.839844 49.769531 171.632812 50.046875 171.148438 L 50.460938 169.082031 L 51.1875 162.46875 L 51.496094 160.503906 L 50.875 158.644531 L 50.046875 158.332031 L 49.113281 158.332031 L 45.066406 157.921875 C 44.304688 157.851562 43.714844 158.058594 43.300781 158.539062 L 42.679688 160.296875 L 42.679688 160.402344 L 42.574219 162.46875 L 42.367188 162.46875 L 41.433594 163.085938 L 41.847656 158.4375 L 42.265625 157.09375 L 45.6875 157.195312 L 48.59375 157.921875 M 54.300781 158.851562 L 58.96875 159.160156 C 59.519531 159.574219 60.214844 159.882812 61.042969 160.089844 L 64.050781 160.503906 L 66.542969 160.710938 L 66.023438 175.078125 L 57.515625 174.351562 L 57.308594 174.351562 L 57.308594 174.042969 L 56.683594 173.320312 L 52.742188 172.90625 L 52.847656 171.5625 L 53.882812 161.640625 L 54.300781 158.851562 M 46.519531 164.636719 L 45.273438 165.464844 L 43.613281 165.257812 L 43.820312 163.398438 L 44.132812 163.292969 L 46.621094 163.398438 L 46.519531 164.636719 M 60.835938 162.363281 L 60.730469 162.261719 L 60.214844 162.054688 C 59.3125 163.292969 58.828125 165.15625 58.761719 167.636719 L 59.175781 169.597656 C 59.519531 170.425781 60.003906 170.839844 60.628906 170.839844 C 61.457031 170.769531 61.839844 169.597656 61.769531 167.324219 L 61.355469 162.984375 L 60.835938 162.363281 M 63.949219 162.054688 C 63.1875 163.15625 62.738281 165.015625 62.597656 167.636719 C 62.53125 168.253906 62.667969 168.910156 63.015625 169.597656 C 63.359375 170.425781 63.84375 170.839844 64.46875 170.839844 C 65.226562 170.769531 65.609375 169.597656 65.609375 167.324219 L 65.191406 162.984375 L 64.46875 162.261719 L 63.949219 162.054688 M 56.789062 161.640625 L 56.167969 161.332031 C 55.40625 162.5 54.957031 164.363281 54.816406 166.910156 C 54.75 167.601562 54.886719 168.289062 55.234375 168.980469 C 55.578125 169.738281 56.0625 170.117188 56.683594 170.117188 C 57.445312 170.046875 57.828125 168.875 57.828125 166.601562 L 57.410156 162.261719 L 56.789062 161.640625 M 56.894531 165.15625 L 56.476562 168.460938 L 55.960938 168.875 L 55.75 166.808594 L 56.789062 162.882812 L 56.894531 165.15625 M 59.796875 167.429688 C 60.003906 165.636719 60.316406 164.328125 60.730469 163.5 L 60.9375 165.773438 L 60.523438 169.082031 C 60.386719 169.703125 60.179688 169.875 59.902344 169.597656 C 59.695312 169.390625 59.660156 168.667969 59.796875 167.429688 M 63.742188 169.597656 L 63.53125 167.429688 C 63.742188 165.636719 64.085938 164.328125 64.570312 163.5 L 64.675781 165.773438 L 64.257812 169.082031 C 64.191406 169.703125 64.015625 169.875 63.742188 169.597656 M 57.203125 233.367188 C 56.996094 234.261719 56.027344 234.949219 54.300781 235.433594 L 50.980469 236.054688 L 50.253906 235.019531 L 49.734375 234.503906 L 49.113281 234.296875 C 46 236.292969 42.503906 237.742188 38.632812 238.636719 L 27.21875 239.464844 L 22.863281 238.121094 L 22.550781 237.914062 L 22.65625 237.707031 L 24.105469 236.261719 C 27.082031 233.574219 31.09375 231.300781 36.140625 229.4375 L 36.246094 229.335938 C 37.144531 230.09375 38.320312 230.679688 39.773438 231.09375 L 50.148438 231.816406 L 57.722656 230.679688 L 57.203125 233.367188 M 81.273438 241.632812 C 86.945312 244.046875 92.238281 243.839844 97.148438 241.015625 L 99.429688 239.464844 C 100.953125 241.324219 101.125 244.011719 99.949219 247.523438 C 98.636719 251.382812 96.597656 253.347656 93.828125 253.417969 C 92.238281 253.484375 90.40625 252.933594 88.328125 251.761719 L 83.765625 248.351562 C 83.074219 247.523438 82.484375 246.527344 82 245.355469 C 81.585938 244.253906 81.378906 243.148438 81.378906 242.046875 L 81.273438 241.632812 M 42.574219 41.339844 L 42.265625 39.894531 C 42.816406 40.511719 43.507812 40.996094 44.339844 41.339844 L 42.988281 43.199219 L 42.574219 41.339844 M 34.378906 91.777344 L 32.097656 95.910156 L 29.085938 99.835938 C 27.632812 101.765625 27.21875 102.867188 27.84375 103.144531 C 30.125 104.246094 32.890625 104.039062 36.140625 102.523438 L 41.953125 99.214844 L 40.1875 101.800781 C 38.320312 104.96875 36.867188 109.585938 35.832031 115.648438 C 35.140625 120.128906 34.65625 126.292969 34.378906 134.148438 L 33.546875 149.960938 L 32.304688 157.921875 L 31.164062 165.878906 L 31.164062 171.769531 C 29.640625 170.527344 28.808594 168.703125 28.671875 166.292969 C 28.535156 164.570312 28.84375 161.8125 29.605469 158.023438 L 31.472656 149.859375 C 32.097656 146.6875 32.476562 143.933594 32.613281 141.589844 L 32.71875 134.355469 C 33.0625 133.183594 33.238281 131.980469 33.238281 130.738281 L 32.820312 125.882812 L 31.886719 119.371094 L 31.679688 117.40625 C 31.335938 114.789062 30.746094 112.652344 29.917969 111 L 28.570312 110.171875 C 27.875 110.101562 27.632812 110.414062 27.84375 111.101562 C 28.671875 114.066406 29.398438 117.714844 30.019531 122.058594 L 30.226562 129.601562 L 30.332031 133.425781 L 29.605469 135.285156 L 26.492188 141.175781 L 23.378906 146.863281 L 20.371094 152.648438 L 20.269531 152.855469 L 20.0625 152.855469 L 16.222656 152.132812 C 14.355469 151.648438 12.488281 150.960938 10.617188 150.066406 C 7.851562 148.757812 6.539062 147.515625 6.675781 146.34375 C 8.058594 136.492188 11.796875 125.019531 17.882812 111.929688 C 20.785156 105.726562 25.007812 100.042969 30.539062 94.875 L 34.378906 91.777344 M 43.40625 99.113281 L 42.78125 102.421875 L 41.328125 109.035156 L 36.453125 133.21875 L 36.246094 134.355469 L 37.699219 117.613281 C 38.253906 112.859375 39.117188 108.65625 40.292969 105.003906 C 40.984375 102.660156 41.917969 100.800781 43.09375 99.421875 L 43.40625 99.113281 M 37.699219 158.644531 C 38.183594 159.332031 38.390625 160.46875 38.320312 162.054688 C 38.320312 162.742188 38.113281 163.363281 37.699219 163.914062 L 37.074219 164.429688 L 36.453125 164.636719 L 36.246094 163.085938 L 36.453125 161.539062 L 37.59375 158.746094 L 37.699219 158.644531 M 37.285156 158.125 L 36.558594 158.023438 C 35.796875 159.195312 35.3125 160.503906 35.105469 161.949219 C 34.828125 163.742188 35.277344 164.84375 36.453125 165.257812 C 38.113281 165.878906 39.082031 165.121094 39.359375 162.984375 C 39.566406 160.917969 39.21875 159.402344 38.320312 158.4375 L 37.59375 158.023438 L 37.386719 158.230469 L 37.285156 158.125 M 35.417969 153.476562 L 40.085938 156.164062 L 41.019531 156.578125 L 40.707031 157.816406 L 39.980469 166.601562 L 39.671875 168.773438 L 39.460938 168.667969 L 39.152344 168.152344 C 38.042969 167.324219 36.972656 166.738281 35.933594 166.394531 L 35.625 166.292969 L 35.519531 166.1875 L 33.757812 164.742188 L 34.585938 158.644531 L 35.417969 153.476562 M 16.53125 155.644531 L 14.769531 155.441406 C 14.90625 156.679688 14.699219 157.714844 14.148438 158.539062 L 13.214844 159.46875 L 12.488281 159.988281 L 14.976562 165.671875 L 16.222656 168.566406 C 16.707031 169.941406 16.84375 170.769531 16.636719 171.046875 L 14.5625 170.839844 C 12.070312 170.082031 10.136719 167.839844 8.75 164.121094 L 7.089844 157.921875 C 7.023438 157.4375 6.675781 157.265625 6.054688 157.402344 C 5.429688 157.472656 5.085938 157.746094 5.015625 158.230469 C 4.808594 159.46875 5.398438 161.742188 6.78125 165.050781 C 8.507812 169.253906 10.894531 171.839844 13.9375 172.800781 C 15.597656 173.285156 16.84375 173.285156 17.675781 172.800781 L 19.644531 175.179688 L 20.0625 176.214844 C 20.128906 176.695312 19.992188 177.074219 19.644531 177.351562 C 18.882812 178.175781 17.226562 178.039062 14.664062 176.9375 L 13.421875 176.316406 L 12.382812 175.488281 C 7.058594 171.355469 4.011719 167.117188 3.253906 162.777344 C 2.628906 159.46875 2.664062 156.644531 3.355469 154.304688 L 6.054688 149.238281 C 6.882812 150.203125 8.128906 151.132812 9.789062 152.027344 L 12.070312 153.371094 C 14.421875 154.613281 16.949219 155.371094 19.644531 155.644531 L 19.644531 156.371094 L 19.4375 159.058594 C 19.230469 160.023438 18.953125 160.78125 18.609375 161.332031 L 22.550781 165.050781 C 24.832031 167.324219 25.800781 168.703125 25.457031 169.183594 C 24.902344 170.011719 23.832031 169.910156 22.238281 168.875 L 19.4375 166.910156 L 19.230469 167.015625 L 19.125 167.015625 L 21.617188 170.011719 C 23.136719 171.597656 23.621094 172.734375 23.070312 173.421875 C 22.308594 174.523438 20.648438 174.214844 18.089844 172.492188 L 18.191406 172.390625 C 18.882812 171.632812 19.023438 170.496094 18.609375 168.980469 L 16.84375 164.742188 L 15.082031 160.8125 C 16.324219 159.78125 16.808594 158.058594 16.53125 155.644531 "/>
<path style=" stroke:none;fill-rule:nonzero;fill:rgb(21.568627%,20.784314%,20.784314%);fill-opacity:1;" d="M 85.425781 101.285156 C 85.148438 100.457031 85.355469 100.042969 86.046875 100.042969 C 86.671875 100.042969 87.121094 100.457031 87.394531 101.285156 C 87.671875 102.042969 87.464844 102.421875 86.773438 102.421875 C 86.152344 102.421875 85.703125 102.042969 85.425781 101.285156 M 53.46875 138.386719 C 54.300781 138.25 54.644531 138.523438 54.507812 139.214844 L 54.507812 139.832031 L 54.609375 139.9375 L 54.816406 140.558594 L 54.816406 141.382812 L 53.675781 142.519531 C 52.640625 142.867188 52.121094 142.726562 52.121094 142.105469 L 52.015625 140.765625 L 52.121094 139.421875 C 52.191406 138.867188 52.640625 138.523438 53.46875 138.386719 M 55.648438 120.816406 C 55.648438 120.195312 56.027344 120.023438 56.789062 120.300781 L 57.929688 121.539062 L 57.308594 123.609375 L 56.167969 123.710938 L 55.335938 122.882812 L 55.128906 122.367188 L 55.023438 121.746094 L 55.023438 121.128906 L 55.648438 120.921875 L 55.648438 120.816406 "/>
</g>
</svg>
