<?xml version="1.0" encoding="UTF-8"?>
<svg xmlns="http://www.w3.org/2000/svg" xmlns:xlink="http://www.w3.org/1999/xlink" width="127pt" height="110pt" viewBox="0 0 127 110" version="1.1">
<g id="surface1">
<path style=" stroke:none;fill-rule:nonzero;fill:rgb(100%,100%,100%);fill-opacity:1;" d="M 90.863281 2.980469 C 98.355469 2.1875 104.863281 3.675781 110.386719 7.453125 C 116.695312 12.023438 120.640625 19.179688 122.21875 28.914062 C 125.375 47.199219 117.683594 63.894531 99.144531 78.996094 L 77.253906 94.796875 C 69.957031 100.757812 65.421875 105.828125 63.648438 110 C 61.480469 105.828125 56.546875 100.859375 48.855469 95.09375 L 27.261719 78.996094 C 9.121094 64.09375 1.722656 47.398438 5.078125 28.914062 C 8.230469 9.636719 18.386719 0.992188 35.546875 2.980469 C 42.449219 3.578125 48.5625 6.160156 53.886719 10.730469 C 59.210938 15.300781 62.464844 20.570312 63.648438 26.53125 L 63.945312 25.933594 C 64.535156 20.171875 67.394531 15.105469 72.523438 10.730469 C 77.847656 6.359375 83.960938 3.777344 90.863281 2.980469 "/>
</g>
</svg>
