<?xml version="1.0" encoding="UTF-8"?>
<svg xmlns="http://www.w3.org/2000/svg" xmlns:xlink="http://www.w3.org/1999/xlink" width="128pt" height="150pt" viewBox="0 0 128 150" version="1.1">
<g id="surface1">
<path style=" stroke:none;fill-rule:nonzero;fill:rgb(9.803922%,9.803922%,9.803922%);fill-opacity:1;" d="M 100.699219 143.734375 C 100.699219 147.886719 99.207031 149.816406 96.222656 149.519531 L 11.636719 138.839844 C 8.652344 138.542969 7.160156 136.320312 7.160156 132.167969 C 7.160156 128.015625 8.652344 126.085938 11.636719 126.382812 L 96.222656 137.0625 C 99.207031 137.65625 100.699219 139.878906 100.699219 143.734375 "/>
<path style=" stroke:none;fill-rule:nonzero;fill:rgb(100%,100%,100%);fill-opacity:1;" d="M 1.789062 49.417969 C 2.683594 42.003906 4.921875 35.332031 8.503906 29.398438 C 13.574219 21.390625 19.839844 17.386719 27.300781 17.386719 C 34.460938 17.386719 40.578125 21.390625 45.648438 29.398438 C 50.722656 37.40625 53.257812 47.046875 53.257812 58.316406 C 53.257812 69.585938 50.722656 79.078125 45.648438 86.789062 C 40.578125 94.796875 34.460938 98.800781 27.300781 98.800781 C 19.839844 98.800781 13.574219 94.796875 8.503906 86.789062 C 4.027344 79.96875 1.492188 71.8125 0.894531 62.320312 L 4.921875 68.105469 L 10.742188 72.109375 L 17.007812 72.996094 C 21.78125 72.996094 25.660156 71.367188 28.644531 68.105469 C 31.328125 65.433594 32.96875 62.46875 33.566406 59.207031 L 33.566406 56.09375 C 33.566406 51.644531 31.925781 47.789062 28.644531 44.523438 C 25.660156 41.261719 21.78125 39.632812 17.007812 39.632812 C 12.234375 39.632812 8.207031 41.261719 4.921875 44.523438 L 1.789062 49.417969 "/>
<path style=" stroke:none;fill-rule:nonzero;fill:rgb(9.803922%,9.803922%,9.803922%);fill-opacity:1;" d="M 1.789062 49.417969 L 4.921875 44.523438 C 8.207031 41.261719 12.234375 39.632812 17.007812 39.632812 C 21.78125 39.632812 25.660156 41.261719 28.644531 44.523438 C 31.925781 47.789062 33.566406 51.644531 33.566406 56.09375 L 33.566406 59.207031 C 32.96875 62.46875 31.328125 65.433594 28.644531 68.105469 C 25.660156 71.367188 21.78125 72.996094 17.007812 72.996094 L 10.742188 72.109375 L 4.921875 68.105469 L 0.894531 62.320312 L 0 56.09375 L 1.789062 49.417969 "/>
<path style=" stroke:none;fill-rule:nonzero;fill:rgb(100%,100%,100%);fill-opacity:1;" d="M 76.082031 48.085938 L 75.636719 40.964844 C 75.636719 29.695312 78.171875 20.054688 83.246094 12.046875 C 88.316406 4.039062 94.582031 0.0351562 102.042969 0.0351562 C 109.203125 0.0351562 115.320312 4.039062 120.390625 12.046875 C 125.464844 20.054688 128 29.695312 128 40.964844 C 128 52.238281 125.464844 61.726562 120.390625 69.4375 C 115.320312 77.445312 109.203125 81.449219 102.042969 81.449219 C 94.582031 81.449219 88.316406 77.445312 83.246094 69.4375 L 79.214844 61.875 L 80.558594 63.210938 C 82.945312 65.582031 85.78125 67.066406 89.0625 67.660156 L 92.644531 68.105469 C 97.417969 68.105469 101.296875 66.472656 104.28125 63.210938 C 107.5625 59.949219 109.203125 55.945312 109.203125 51.199219 C 109.203125 47.34375 108.007812 43.933594 105.621094 40.964844 L 104.28125 39.632812 C 101.296875 36.367188 97.417969 34.738281 92.644531 34.738281 C 87.871094 34.738281 83.839844 36.367188 80.558594 39.632812 C 78.171875 42.003906 76.679688 44.820312 76.082031 48.085938 "/>
<path style=" stroke:none;fill-rule:nonzero;fill:rgb(9.803922%,9.803922%,9.803922%);fill-opacity:1;" d="M 76.082031 48.085938 C 76.679688 44.820312 78.171875 42.003906 80.558594 39.632812 C 83.839844 36.367188 87.871094 34.738281 92.644531 34.738281 C 97.417969 34.738281 101.296875 36.367188 104.28125 39.632812 L 105.621094 40.964844 C 108.007812 43.933594 109.203125 47.34375 109.203125 51.199219 C 109.203125 55.945312 107.5625 59.949219 104.28125 63.210938 C 101.296875 66.472656 97.417969 68.105469 92.644531 68.105469 L 89.0625 67.660156 C 85.78125 67.066406 82.945312 65.582031 80.558594 63.210938 L 79.214844 61.875 C 76.828125 58.910156 75.636719 55.351562 75.636719 51.199219 L 76.082031 48.085938 "/>
</g>
</svg>
