<?xml version="1.0" encoding="UTF-8"?>
<svg xmlns="http://www.w3.org/2000/svg" xmlns:xlink="http://www.w3.org/1999/xlink" width="128pt" height="155pt" viewBox="0 0 128 155" version="1.1">
<g id="surface1">
<path style=" stroke:none;fill-rule:nonzero;fill:rgb(100%,100%,100%);fill-opacity:1;" d="M 103.984375 116.761719 C 104.210938 116.265625 104.386719 115.753906 104.503906 115.226562 L 104.8125 115.445312 L 104.910156 115.515625 C 104.925781 116.324219 104.691406 117.386719 104.203125 118.703125 L 103.613281 120.097656 C 103.160156 119.777344 102.808594 119.617188 102.554688 119.617188 C 102.324219 119.617188 102.125 119.71875 101.945312 119.921875 L 101.671875 120.320312 L 101.636719 120.355469 C 101.539062 120.15625 101.363281 119.976562 101.117188 119.820312 C 102.441406 119.085938 103.394531 118.070312 103.984375 116.761719 "/>
<path style=" stroke:none;fill-rule:nonzero;fill:rgb(100%,100%,100%);fill-opacity:1;" d="M 75.957031 104.035156 L 75.929688 104 L 76.015625 103.953125 C 76.210938 103.863281 76.363281 103.769531 76.476562 103.683594 L 76.5625 104.070312 L 82.769531 110.425781 L 85.449219 113.171875 C 86.4375 114.226562 87.285156 115.1875 87.988281 116.0625 L 87.558594 116.191406 C 87.210938 115.757812 86.804688 115.300781 86.332031 114.8125 C 84.515625 112.832031 81.863281 110.058594 78.371094 106.5 L 75.957031 104.035156 "/>
<path style=" stroke:none;fill-rule:nonzero;fill:rgb(100%,100%,100%);fill-opacity:1;" d="M 101.796875 108.34375 C 102.878906 109.046875 103.640625 109.949219 104.082031 111.046875 C 104.566406 112.300781 104.550781 113.808594 104.027344 115.570312 C 103.464844 117.449219 102.210938 118.792969 100.273438 119.609375 C 98.929688 120.167969 97.339844 120.449219 95.5 120.449219 L 94.074219 120.390625 C 93.109375 120.320312 92.230469 120.1875 91.4375 119.992188 C 91.527344 119.585938 91.539062 119.148438 91.480469 118.6875 L 91.3125 118.011719 C 91.179688 117.453125 90.957031 117.023438 90.644531 116.71875 C 92.285156 116.425781 93.96875 116.042969 95.695312 115.570312 L 96.152344 115.429688 L 97.414062 115.050781 C 97.796875 114.917969 98.238281 114.71875 98.738281 114.453125 C 99.261719 114.183594 99.636719 113.929688 99.867188 113.683594 C 100.175781 113.355469 100.285156 112.992188 100.191406 112.59375 L 100.042969 112.410156 C 99.960938 112.328125 99.890625 112.285156 99.839844 112.285156 L 99.804688 112.285156 L 99.785156 112.3125 L 99.769531 112.382812 C 99.867188 112.769531 99.753906 113.113281 99.425781 113.410156 C 99.230469 113.585938 98.871094 113.800781 98.351562 114.050781 C 98.3125 114.074219 98.277344 114.09375 98.234375 114.113281 C 97.636719 114.40625 96.953125 114.65625 96.191406 114.867188 L 95.988281 114.410156 L 95.808594 114.015625 C 95.617188 113.472656 95.488281 112.757812 95.421875 111.875 C 95.398438 111.480469 95.46875 111.199219 95.632812 111.03125 C 95.871094 110.761719 96.378906 110.761719 97.167969 111.03125 L 97.636719 111.222656 C 98.023438 111.386719 98.324219 111.46875 98.542969 111.46875 C 98.761719 111.46875 98.992188 111.421875 99.238281 111.328125 C 99.699219 111.164062 100.15625 110.847656 100.617188 110.371094 L 100.640625 110.25 C 100.628906 110.183594 100.589844 110.113281 100.519531 110.03125 L 100.367188 109.871094 L 99.511719 109.53125 C 99.042969 109.347656 98.695312 109.203125 98.472656 109.089844 C 98.101562 108.902344 97.796875 108.703125 97.554688 108.484375 C 97.875 108 98.117188 107.5 98.289062 106.992188 C 99.492188 107.167969 100.664062 107.617188 101.796875 108.34375 "/>
<path style=" stroke:none;fill-rule:nonzero;fill:rgb(100%,100%,100%);fill-opacity:1;" d="M 102.007812 121.996094 L 102.042969 121.953125 C 102.433594 121.226562 102.71875 120.878906 102.898438 120.90625 C 103.003906 120.925781 103.164062 121.023438 103.375 121.207031 L 104.027344 121.644531 L 104.019531 121.652344 C 103.890625 121.792969 103.824219 121.90625 103.824219 121.988281 C 103.824219 122.199219 103.878906 122.367188 103.984375 122.496094 C 104.128906 122.652344 104.300781 122.6875 104.496094 122.601562 C 104.660156 122.53125 104.796875 122.40625 104.910156 122.222656 L 105.359375 122.488281 C 105.699219 122.65625 105.980469 122.828125 106.195312 123.003906 L 105.527344 124.066406 L 105.410156 124.128906 C 105.253906 124.128906 104.996094 123.984375 104.644531 123.699219 L 102.007812 121.996094 "/>
<path style=" stroke:none;fill-rule:nonzero;fill:rgb(100%,100%,100%);fill-opacity:1;" d="M 98.296875 110.988281 C 98.027344 110.988281 97.613281 110.871094 97.0625 110.644531 C 96.503906 110.417969 96.085938 110.292969 95.808594 110.277344 C 96.425781 109.855469 96.960938 109.335938 97.40625 108.722656 C 97.683594 109.007812 98.039062 109.265625 98.472656 109.496094 L 99.691406 110.039062 L 99.988281 110.152344 C 99.613281 110.480469 99.191406 110.730469 98.730469 110.898438 L 98.296875 110.988281 "/>
<path style=" stroke:none;fill-rule:nonzero;fill:rgb(100%,100%,100%);fill-opacity:1;" d="M 104.609375 121.6875 L 104.671875 121.75 L 104.644531 121.8125 C 104.566406 121.957031 104.4375 122.058594 104.257812 122.117188 L 104.300781 122.058594 L 104.40625 121.882812 L 104.53125 121.707031 L 104.566406 121.679688 L 104.609375 121.6875 "/>
<path style=" stroke:none;fill-rule:nonzero;fill:rgb(100%,100%,100%);fill-opacity:1;" d="M 96.425781 106.125 L 96.488281 106.105469 L 96.613281 106.140625 L 96.613281 106.230469 C 96.59375 106.351562 96.539062 106.425781 96.445312 106.449219 L 95.882812 106.703125 L 95.015625 107.0625 L 94.292969 107.195312 L 93.113281 107.140625 C 92.902344 107.082031 92.535156 106.949219 92.011719 106.738281 L 91.261719 106.414062 C 91.136719 106.378906 91.070312 106.316406 91.058594 106.230469 C 91.046875 106.1875 91.0625 106.144531 91.109375 106.097656 C 91.210938 106.015625 91.300781 105.972656 91.375 105.972656 L 91.429688 105.972656 L 91.613281 106 L 91.640625 106.007812 L 92.558594 106.265625 C 93.214844 106.421875 93.742188 106.503906 94.136719 106.507812 L 94.453125 106.484375 C 95.050781 106.449219 95.710938 106.328125 96.425781 106.125 "/>
<path style=" stroke:none;fill-rule:nonzero;fill:rgb(100%,100%,100%);fill-opacity:1;" d="M 95.007812 108.316406 C 95.089844 108.269531 95.125 108.21875 95.113281 108.160156 C 95.101562 108.101562 95.039062 108.074219 94.929688 108.074219 L 93.871094 108.027344 C 93.792969 108.035156 93.726562 108.0625 93.667969 108.105469 C 93.613281 108.152344 93.585938 108.210938 93.578125 108.273438 C 93.566406 108.355469 93.589844 108.425781 93.648438 108.484375 C 93.703125 108.554688 93.769531 108.597656 93.851562 108.617188 L 94.179688 108.652344 L 94.277344 108.652344 L 94.621094 108.554688 L 95.007812 108.316406 M 93.148438 101.320312 C 93.105469 101.386719 93.105469 101.46875 93.148438 101.574219 L 93.316406 101.960938 C 93.445312 102.253906 93.578125 102.515625 93.722656 102.742188 L 94.292969 103.65625 C 94.363281 103.761719 94.363281 103.875 94.292969 103.988281 L 93.90625 104.605469 C 93.859375 104.679688 93.847656 104.75 93.871094 104.816406 C 93.910156 104.886719 93.96875 104.925781 94.039062 104.9375 L 94.292969 104.980469 L 94.328125 104.980469 C 94.46875 104.964844 94.585938 104.898438 94.683594 104.789062 L 95.148438 103.964844 C 95.183594 103.898438 95.199219 103.824219 95.191406 103.734375 L 95.085938 103.523438 C 94.582031 102.988281 94.242188 102.601562 94.074219 102.367188 L 93.527344 101.453125 C 93.457031 101.3125 93.371094 101.242188 93.269531 101.242188 L 93.234375 101.242188 C 93.183594 101.261719 93.152344 101.285156 93.148438 101.320312 M 96.207031 101.25 C 96.101562 101.09375 95.980469 101.015625 95.847656 101.015625 L 95.808594 101.015625 C 95.675781 101.03125 95.570312 101.132812 95.492188 101.3125 C 95.410156 101.488281 95.382812 101.691406 95.40625 101.925781 C 95.429688 102.15625 95.492188 102.347656 95.597656 102.507812 C 95.710938 102.664062 95.832031 102.742188 95.96875 102.742188 L 95.988281 102.742188 C 96.09375 102.726562 96.171875 102.679688 96.226562 102.601562 C 96.378906 102.414062 96.433594 102.160156 96.390625 101.832031 C 96.367188 101.601562 96.308594 101.410156 96.207031 101.25 M 87.277344 103.277344 C 87.375 103.207031 87.414062 103.117188 87.390625 103.007812 C 87.355469 102.914062 87.289062 102.867188 87.1875 102.867188 L 87.179688 102.867188 L 87.117188 102.882812 C 86.90625 102.988281 86.71875 103.144531 86.554688 103.347656 C 86.445312 103.484375 86.359375 103.621094 86.289062 103.761719 C 86.195312 103.953125 86.160156 104.085938 86.183594 104.15625 C 86.195312 104.214844 86.230469 104.246094 86.289062 104.246094 C 86.339844 104.238281 86.441406 104.136719 86.589844 103.9375 C 86.695312 103.78125 86.777344 103.675781 86.84375 103.621094 L 87.277344 103.277344 M 87.242188 103.769531 L 87.222656 103.769531 C 87.195312 103.769531 87.167969 103.785156 87.144531 103.816406 C 87.039062 103.863281 86.9375 103.945312 86.84375 104.070312 C 86.742188 104.203125 86.6875 104.339844 86.675781 104.472656 C 86.675781 104.5625 86.699219 104.621094 86.746094 104.648438 C 86.789062 104.691406 86.839844 104.710938 86.898438 104.710938 C 87.019531 104.691406 87.082031 104.625 87.082031 104.507812 C 87.082031 104.414062 87.171875 104.292969 87.355469 104.140625 C 87.445312 104.085938 87.46875 104.011719 87.425781 103.917969 C 87.402344 103.820312 87.339844 103.769531 87.242188 103.769531 M 91.375 102.171875 C 91.351562 101.945312 91.289062 101.75 91.191406 101.59375 C 91.085938 101.445312 90.964844 101.375 90.828125 101.375 L 90.792969 101.375 C 90.699219 101.386719 90.625 101.433594 90.566406 101.515625 C 90.417969 101.691406 90.363281 101.949219 90.40625 102.285156 C 90.429688 102.515625 90.492188 102.707031 90.589844 102.867188 C 90.695312 103.011719 90.816406 103.085938 90.953125 103.085938 L 90.988281 103.085938 C 91.121094 103.078125 91.230469 102.988281 91.304688 102.804688 C 91.386719 102.628906 91.410156 102.417969 91.375 102.171875 M 90.679688 99.371094 C 90.621094 99.289062 90.542969 99.25 90.449219 99.25 L 90.421875 99.25 C 90.375 99.25 90.328125 99.269531 90.273438 99.3125 C 90.144531 99.40625 89.972656 99.59375 89.761719 99.882812 C 89.457031 100.285156 89.34375 100.589844 89.417969 100.792969 L 89.453125 100.828125 L 89.488281 100.828125 C 89.578125 100.816406 89.734375 100.726562 89.964844 100.558594 L 90.328125 100.304688 C 90.480469 100.214844 90.632812 100.140625 90.785156 100.082031 L 90.996094 99.953125 C 91.066406 99.847656 90.960938 99.652344 90.679688 99.371094 M 95.113281 99.136719 C 94.984375 99.148438 94.910156 99.226562 94.894531 99.371094 L 94.882812 99.609375 C 94.867188 99.710938 94.890625 99.789062 94.957031 99.855469 C 95.027344 99.925781 95.109375 99.960938 95.203125 99.960938 L 96.191406 99.925781 C 96.289062 99.917969 96.34375 99.886719 96.347656 99.828125 C 96.355469 99.777344 96.3125 99.71875 96.226562 99.664062 L 95.28125 99.171875 L 95.132812 99.136719 L 95.113281 99.136719 M 97.75 102.15625 C 98.21875 103.804688 98.152344 105.425781 97.546875 107.011719 C 96.953125 108.585938 95.984375 109.730469 94.636719 110.441406 C 93.851562 110.851562 93.136719 111.082031 92.496094 111.128906 L 91.992188 111.128906 L 91.71875 111.117188 C 91.671875 111.117188 91.636719 111.136719 91.613281 111.171875 L 91.621094 111.257812 C 91.675781 111.324219 91.839844 111.390625 92.117188 111.460938 L 92.8125 111.574219 C 92.671875 111.640625 92.511719 111.675781 92.328125 111.679688 L 92.160156 111.699219 C 91.519531 111.699219 90.882812 111.519531 90.246094 111.164062 C 89.570312 110.792969 89.160156 110.359375 89.011719 109.863281 C 89.425781 110.085938 89.789062 110.1875 90.105469 110.171875 C 90.222656 110.160156 90.292969 110.117188 90.308594 110.046875 C 90.332031 109.988281 90.273438 109.917969 90.132812 109.835938 C 89.046875 109.246094 88.109375 108.347656 87.320312 107.140625 L 87.300781 107.097656 L 87.257812 107.117188 L 87.082031 107.140625 C 86.757812 107.164062 86.457031 107.089844 86.183594 106.914062 C 85.90625 106.730469 85.710938 106.484375 85.601562 106.175781 C 85.5 105.925781 85.484375 105.671875 85.546875 105.421875 C 85.613281 105.175781 85.757812 104.953125 85.980469 104.753906 C 86.027344 104.679688 86.042969 104.609375 86.023438 104.542969 L 86.015625 104.472656 L 85.945312 104.507812 L 85.636719 104.632812 L 85.609375 104.464844 L 85.742188 104.226562 C 86.125 103.582031 86.417969 103.136719 86.625 102.882812 C 86.722656 102.761719 86.90625 102.601562 87.171875 102.410156 C 87.316406 102.296875 87.367188 102.183594 87.320312 102.066406 C 87.296875 101.980469 87.238281 101.9375 87.144531 101.9375 L 87.082031 101.953125 C 86.859375 102.054688 86.601562 102.269531 86.316406 102.601562 C 85.996094 102.960938 85.714844 103.4375 85.46875 104.035156 L 85.449219 103.953125 L 85.476562 103.867188 C 85.800781 103.113281 86.121094 102.558594 86.4375 102.207031 C 86.597656 102.015625 86.785156 101.816406 87.003906 101.609375 L 87.277344 101.347656 C 87.363281 101.285156 87.394531 101.214844 87.371094 101.136719 C 87.332031 101.050781 87.253906 101.003906 87.144531 101.003906 L 87.039062 101.03125 C 86.878906 101.101562 86.574219 101.410156 86.121094 101.953125 C 85.804688 102.386719 85.5625 102.832031 85.398438 103.289062 C 85.421875 102.667969 85.675781 102.101562 86.15625 101.585938 C 86.386719 101.320312 86.734375 101.027344 87.207031 100.707031 C 87.300781 100.636719 87.335938 100.566406 87.320312 100.496094 L 87.242188 100.355469 L 87.152344 100.292969 C 87.039062 100.246094 86.921875 100.179688 86.800781 100.09375 C 87.582031 99.589844 88.488281 99.191406 89.523438 98.898438 C 90.300781 98.675781 91.246094 98.488281 92.363281 98.335938 L 94.683594 98.117188 L 95.351562 98.835938 C 95.699219 99.082031 96.023438 99.21875 96.320312 99.25 C 97.015625 100.234375 97.492188 101.203125 97.75 102.15625 M 96.753906 105.28125 C 96.695312 105.222656 96.648438 105.191406 96.613281 105.191406 L 96.535156 105.226562 C 96.511719 105.269531 96.503906 105.320312 96.515625 105.386719 L 96.535156 105.554688 C 96.550781 105.675781 96.5 105.75 96.375 105.773438 C 95.675781 105.976562 95.0625 106.101562 94.539062 106.140625 L 94.214844 106.160156 C 93.890625 106.140625 93.390625 106.050781 92.707031 105.886719 L 91.753906 105.648438 L 91.570312 105.5 L 91.550781 105.421875 L 91.675781 105.042969 C 91.699219 104.960938 91.695312 104.90625 91.667969 104.875 C 91.65625 104.847656 91.625 104.832031 91.578125 104.832031 C 91.554688 104.832031 91.515625 104.851562 91.464844 104.886719 L 90.34375 105.808594 C 90.28125 105.847656 90.234375 105.914062 90.203125 106 C 90.167969 106.082031 90.160156 106.160156 90.183594 106.238281 L 90.484375 107.289062 C 90.507812 107.382812 90.554688 107.429688 90.625 107.429688 C 90.683594 107.429688 90.730469 107.394531 90.765625 107.324219 L 90.785156 107.316406 L 90.75 106.773438 C 90.796875 106.707031 90.859375 106.675781 90.933594 106.675781 L 90.953125 106.613281 L 90.953125 106.675781 L 90.996094 106.675781 L 92.082031 107.28125 C 92.851562 107.652344 93.480469 107.835938 93.96875 107.835938 L 94.109375 107.828125 C 94.601562 107.785156 95.132812 107.597656 95.703125 107.265625 L 96.445312 106.773438 L 96.488281 106.753906 C 96.558594 106.753906 96.59375 106.796875 96.59375 106.878906 L 96.59375 106.984375 C 96.605469 107.09375 96.648438 107.152344 96.71875 107.152344 C 96.765625 107.152344 96.804688 107.117188 96.832031 107.046875 L 97.28125 106.230469 L 97.328125 105.992188 C 97.316406 105.902344 97.28125 105.832031 97.230469 105.773438 L 96.753906 105.28125 "/>
<path style=" stroke:none;fill-rule:nonzero;fill:rgb(100%,100%,100%);fill-opacity:1;" d="M 101.964844 123.207031 L 104.953125 125.183594 L 103.929688 126.402344 C 102.355469 128.128906 100.621094 129.484375 98.730469 130.46875 L 98.675781 130.503906 L 95.519531 128.210938 C 97.511719 127.273438 99.382812 125.917969 101.125 124.136719 L 101.964844 123.207031 M 100.296875 126 L 100.058594 125.964844 C 99.90625 125.964844 99.804688 126.019531 99.75 126.128906 C 99.652344 126.335938 99.765625 126.628906 100.09375 127.007812 L 99.425781 126.789062 L 99.203125 126.753906 C 99.046875 126.753906 98.9375 126.808594 98.878906 126.921875 C 98.800781 127.101562 98.90625 127.382812 99.1875 127.761719 C 98.886719 127.605469 98.609375 127.503906 98.351562 127.457031 L 98.121094 127.429688 C 97.960938 127.429688 97.851562 127.480469 97.792969 127.585938 C 97.71875 127.796875 97.847656 128.101562 98.183594 128.5 C 97.804688 128.308594 97.46875 128.175781 97.167969 128.105469 L 96.9375 128.078125 C 96.773438 128.078125 96.667969 128.136719 96.621094 128.246094 C 96.5625 128.367188 96.597656 128.542969 96.726562 128.773438 L 97.042969 129.21875 C 97.234375 129.402344 97.546875 129.609375 97.988281 129.84375 L 98.386719 130.046875 L 98.527344 130.070312 C 98.671875 130.070312 98.800781 130.023438 98.914062 129.929688 C 99.03125 129.84375 99.109375 129.722656 99.152344 129.570312 C 99.191406 129.414062 99.179688 129.277344 99.117188 129.160156 L 99.179688 129.183594 L 99.558594 129.394531 C 99.710938 129.4375 99.855469 129.417969 100 129.335938 C 100.140625 129.265625 100.242188 129.15625 100.308594 129.011719 C 100.371094 128.839844 100.375 128.6875 100.316406 128.554688 L 100.640625 128.738281 C 100.800781 128.773438 100.949219 128.753906 101.089844 128.675781 C 101.226562 128.59375 101.328125 128.472656 101.390625 128.316406 C 101.445312 128.171875 101.445312 128.027344 101.398438 127.886719 L 101.507812 127.9375 C 101.675781 127.980469 101.835938 127.953125 101.980469 127.859375 C 102.136719 127.765625 102.234375 127.632812 102.28125 127.464844 C 102.359375 127.183594 102.265625 126.964844 102.007812 126.804688 L 101.804688 126.683594 C 101.199219 126.316406 100.699219 126.085938 100.296875 126 M 100.722656 125.207031 C 100.667969 125.324219 100.699219 125.5 100.816406 125.726562 C 100.914062 125.902344 101.023438 126.050781 101.152344 126.175781 C 101.335938 126.355469 101.648438 126.566406 102.089844 126.804688 L 102.476562 127.015625 L 102.625 127.027344 C 102.765625 127.027344 102.898438 126.980469 103.023438 126.886719 C 103.140625 126.796875 103.21875 126.679688 103.261719 126.535156 C 103.296875 126.394531 103.28125 126.261719 103.214844 126.140625 L 103.382812 126.226562 C 103.558594 126.261719 103.726562 126.238281 103.878906 126.15625 C 104.023438 126.058594 104.121094 125.921875 104.167969 125.753906 C 104.25 125.464844 104.160156 125.242188 103.894531 125.085938 L 103.691406 124.972656 C 103.074219 124.597656 102.570312 124.367188 102.175781 124.285156 L 101.945312 124.261719 C 101.777344 124.261719 101.671875 124.316406 101.636719 124.425781 C 101.589844 124.527344 101.613281 124.675781 101.707031 124.875 C 101.78125 125.03125 101.875 125.183594 102 125.324219 C 101.757812 125.207031 101.515625 125.121094 101.269531 125.066406 L 101.03125 125.042969 C 100.867188 125.042969 100.761719 125.097656 100.722656 125.207031 "/>
<path style=" stroke:none;fill-rule:nonzero;fill:rgb(100%,100%,100%);fill-opacity:1;" d="M 97.574219 100.269531 C 97.34375 99.851562 97.117188 99.488281 96.894531 99.171875 C 97.078125 99.101562 97.238281 98.984375 97.378906 98.828125 C 97.425781 98.765625 97.480469 98.730469 97.539062 98.730469 C 97.578125 98.730469 97.617188 98.753906 97.652344 98.792969 C 97.789062 98.9375 97.839844 99.199219 97.8125 99.574219 C 97.800781 99.742188 97.722656 99.976562 97.574219 100.269531 "/>
<path style=" stroke:none;fill-rule:nonzero;fill:rgb(100%,100%,100%);fill-opacity:1;" d="M 78.222656 105.28125 C 78.296875 105.175781 78.363281 105.039062 78.414062 104.875 C 78.734375 105.28125 78.972656 105.726562 79.136719 106.210938 L 78.222656 105.28125 "/>
<path style=" stroke:none;fill-rule:nonzero;fill:rgb(100%,100%,100%);fill-opacity:1;" d="M 97.265625 98.371094 L 97.105469 98.574219 C 96.988281 98.71875 96.824219 98.804688 96.613281 98.828125 C 96.308594 98.839844 95.988281 98.730469 95.660156 98.496094 L 95.316406 98.117188 L 95.464844 98.097656 L 95.519531 98.097656 C 96.347656 98.121094 96.929688 98.214844 97.265625 98.371094 "/>
<path style=" stroke:none;fill-rule:nonzero;fill:rgb(100%,100%,100%);fill-opacity:1;" d="M 106.3125 124.234375 L 106.011719 124.664062 C 105.910156 124.835938 105.773438 124.917969 105.597656 124.917969 C 105.402344 124.917969 105.082031 124.765625 104.636719 124.460938 L 102.308594 122.945312 C 101.949219 122.738281 101.699219 122.570312 101.558594 122.433594 C 101.3125 122.1875 101.238281 121.945312 101.339844 121.707031 C 101.421875 121.535156 101.609375 121.234375 101.902344 120.800781 L 102.183594 120.390625 C 102.320312 120.21875 102.476562 120.132812 102.652344 120.132812 C 102.847656 120.132812 103.144531 120.277344 103.550781 120.566406 L 104.441406 121.152344 C 104.371094 121.164062 104.308594 121.214844 104.257812 121.300781 L 104.019531 121.117188 C 103.34375 120.597656 102.910156 120.335938 102.722656 120.335938 C 102.679688 120.335938 102.652344 120.34375 102.632812 120.363281 C 102.417969 120.496094 102.160156 120.835938 101.867188 121.382812 L 101.628906 121.792969 C 101.59375 121.859375 101.59375 121.941406 101.628906 122.046875 C 101.652344 122.128906 101.683594 122.199219 101.726562 122.25 C 101.855469 122.394531 102.074219 122.550781 102.378906 122.714844 L 104.628906 124.171875 L 104.734375 124.261719 C 105.101562 124.542969 105.367188 124.683594 105.527344 124.683594 C 105.613281 124.683594 105.683594 124.648438 105.730469 124.578125 L 106.574219 123.242188 C 106.617188 123.183594 106.621094 123.105469 106.585938 123.003906 L 106.488281 122.792969 C 106.316406 122.570312 105.941406 122.300781 105.359375 121.976562 L 104.972656 121.75 C 104.949219 121.632812 104.894531 121.511719 104.8125 121.390625 L 105.90625 122.09375 C 106.265625 122.296875 106.515625 122.46875 106.65625 122.609375 C 106.902344 122.855469 106.96875 123.101562 106.859375 123.347656 C 106.761719 123.558594 106.582031 123.855469 106.3125 124.234375 "/>
<path style=" stroke:none;fill-rule:nonzero;fill:rgb(100%,100%,100%);fill-opacity:1;" d="M 95.148438 127.9375 L 94.207031 127.246094 C 94.347656 125.453125 94.078125 123.328125 93.394531 120.871094 L 95.597656 121.011719 C 97.003906 121.011719 98.289062 120.84375 99.460938 120.503906 C 99.925781 120.367188 100.363281 120.203125 100.773438 120.011719 L 100.925781 120.152344 C 101.082031 120.222656 101.207031 120.289062 101.292969 120.355469 L 101.375 120.40625 L 101.375 120.496094 C 101.375 120.542969 101.390625 120.589844 101.425781 120.644531 C 101.101562 121.105469 100.953125 121.476562 100.976562 121.757812 C 101.011719 122.25 101.242188 122.664062 101.664062 122.996094 L 100.6875 124.058594 C 98.976562 125.761719 97.128906 127.054688 95.148438 127.9375 "/>
<path style=" stroke:none;fill-rule:nonzero;fill:rgb(100%,100%,100%);fill-opacity:1;" d="M 103.382812 125.71875 L 103.367188 125.71875 L 102.394531 125.148438 C 102.273438 125.070312 102.160156 124.980469 102.050781 124.875 L 101.964844 124.769531 L 102.253906 124.8125 L 102.324219 124.832031 C 102.613281 124.890625 102.953125 125.03125 103.347656 125.261719 L 103.789062 125.523438 C 103.648438 125.652344 103.511719 125.71875 103.382812 125.71875 "/>
<path style=" stroke:none;fill-rule:nonzero;fill:rgb(100%,100%,100%);fill-opacity:1;" d="M 106.609375 120.519531 L 106.550781 120.722656 L 106.441406 120.871094 L 104.902344 119.878906 L 104.847656 119.851562 L 104.777344 119.785156 L 104.804688 119.679688 C 104.820312 119.65625 104.855469 119.644531 104.910156 119.644531 L 105.339844 119.75 C 105.5 119.8125 105.613281 119.871094 105.683594 119.921875 L 106.609375 120.519531 "/>
<path style=" stroke:none;fill-rule:nonzero;fill:rgb(100%,100%,100%);fill-opacity:1;" d="M 95.335938 133.082031 L 93.835938 129.21875 C 93.964844 128.816406 94.066406 128.34375 94.144531 127.808594 C 95.765625 129.042969 97.351562 130.195312 98.90625 131.265625 C 98.152344 131.347656 97.34375 131.679688 96.480469 132.265625 L 95.335938 133.082031 "/>
<path style=" stroke:none;fill-rule:nonzero;fill:rgb(100%,100%,100%);fill-opacity:1;" d="M 106.3125 117.484375 L 107.226562 118.082031 L 107.167969 118.28125 L 107.058594 118.449219 L 106.277344 117.941406 C 105.976562 117.742188 105.71875 117.503906 105.5 117.230469 L 105.5625 117.230469 L 105.933594 117.308594 L 105.96875 117.316406 C 106.074219 117.351562 106.1875 117.40625 106.3125 117.484375 "/>
<path style=" stroke:none;fill-rule:nonzero;fill:rgb(100%,100%,100%);fill-opacity:1;" d="M 106.875 119.273438 L 106.8125 119.476562 L 106.714844 119.644531 L 105.933594 119.132812 C 105.597656 118.910156 105.339844 118.675781 105.15625 118.429688 L 105.21875 118.429688 L 105.578125 118.5 L 105.625 118.519531 C 105.710938 118.546875 105.824219 118.605469 105.957031 118.6875 L 106.875 119.273438 "/>
<path style=" stroke:none;fill-rule:nonzero;fill:rgb(100%,100%,100%);fill-opacity:1;" d="M 93.078125 120.828125 C 93.910156 123.84375 94.0625 126.375 93.527344 128.429688 L 90.589844 120.960938 C 90.742188 120.949219 90.898438 120.871094 91.058594 120.730469 L 91.261719 120.46875 L 93.078125 120.828125 "/>
<path style=" stroke:none;fill-rule:nonzero;fill:rgb(100%,100%,100%);fill-opacity:1;" d="M 101.152344 125.664062 L 101.054688 125.558594 L 101.339844 125.59375 L 101.410156 125.613281 C 101.695312 125.671875 102.039062 125.8125 102.433594 126.042969 L 102.871094 126.304688 C 102.75 126.433594 102.621094 126.5 102.484375 126.5 L 102.449219 126.5 L 101.488281 125.929688 L 101.152344 125.664062 "/>
<path style=" stroke:none;fill-rule:nonzero;fill:rgb(100%,100%,100%);fill-opacity:1;" d="M 98.570312 128.308594 C 98.453125 128.242188 98.335938 128.15625 98.226562 128.042969 L 98.128906 127.9375 L 98.429688 127.972656 L 98.492188 128 C 98.789062 128.054688 99.132812 128.199219 99.523438 128.4375 L 99.964844 128.703125 C 99.808594 128.820312 99.675781 128.878906 99.558594 128.878906 L 99.53125 128.886719 L 98.570312 128.308594 "/>
<path style=" stroke:none;fill-rule:nonzero;fill:rgb(100%,100%,100%);fill-opacity:1;" d="M 99.214844 127.28125 L 99.496094 127.316406 L 99.566406 127.324219 C 99.859375 127.390625 100.207031 127.539062 100.605469 127.773438 L 101.03125 128.027344 C 100.90625 128.148438 100.777344 128.210938 100.640625 128.210938 L 100.605469 128.210938 L 99.644531 127.648438 L 99.3125 127.386719 L 99.214844 127.28125 "/>
<path style=" stroke:none;fill-rule:nonzero;fill:rgb(100%,100%,100%);fill-opacity:1;" d="M 97.042969 128.703125 L 96.957031 128.589844 L 97.238281 128.640625 L 97.308594 128.648438 C 97.597656 128.714844 97.9375 128.859375 98.332031 129.089844 L 98.773438 129.351562 C 98.632812 129.476562 98.503906 129.535156 98.386719 129.535156 L 98.351562 129.535156 L 97.378906 128.976562 L 97.042969 128.703125 "/>
<path style=" stroke:none;fill-rule:nonzero;fill:rgb(100%,100%,100%);fill-opacity:1;" d="M 107.464844 117.578125 L 107.492188 117.589844 L 107.476562 117.605469 C 107.703125 118.046875 107.753906 118.65625 107.625 119.441406 C 107.542969 119.898438 107.371094 120.5 107.113281 121.25 L 106.742188 122.207031 C 106.621094 122.089844 106.441406 121.957031 106.207031 121.8125 L 103.859375 120.265625 C 104.140625 119.710938 104.378906 119.140625 104.574219 118.554688 C 104.957031 117.464844 105.148438 116.507812 105.148438 115.683594 C 105.734375 116.132812 106.507812 116.765625 107.464844 117.578125 M 105.445312 116.691406 C 105.3125 116.691406 105.214844 116.738281 105.15625 116.832031 C 105.078125 117.03125 105.171875 117.304688 105.429688 117.648438 C 105.558594 117.84375 105.738281 118.03125 105.96875 118.210938 L 105.695312 118.082031 C 105.433594 117.992188 105.257812 117.949219 105.15625 117.949219 C 104.996094 117.949219 104.902344 118 104.875 118.097656 C 104.78125 118.285156 104.867188 118.558594 105.136719 118.921875 L 105.492188 119.308594 L 105.359375 119.246094 C 105.101562 119.160156 104.925781 119.117188 104.828125 119.117188 C 104.695312 119.117188 104.597656 119.167969 104.539062 119.273438 C 104.484375 119.390625 104.464844 119.535156 104.476562 119.703125 C 104.496094 119.867188 104.539062 120.003906 104.609375 120.117188 C 104.714844 120.273438 104.914062 120.425781 105.207031 120.574219 L 106.265625 121.265625 C 106.382812 121.347656 106.476562 121.390625 106.539062 121.390625 C 106.628906 121.390625 106.710938 121.3125 106.789062 121.152344 C 106.851562 121.011719 106.882812 120.847656 106.875 120.660156 C 106.863281 120.484375 106.824219 120.328125 106.75 120.1875 L 106.875 120.222656 C 106.957031 120.222656 107.039062 120.144531 107.121094 119.984375 C 107.191406 119.820312 107.21875 119.636719 107.203125 119.433594 C 107.179688 119.214844 107.117188 119.046875 107.015625 118.921875 L 107.15625 118.957031 C 107.25 118.957031 107.332031 118.878906 107.40625 118.722656 C 107.488281 118.546875 107.515625 118.355469 107.492188 118.152344 C 107.476562 117.933594 107.410156 117.761719 107.296875 117.632812 L 107.273438 117.613281 L 107.261719 117.605469 L 106.917969 117.367188 C 106.527344 117.082031 106.210938 116.902344 105.976562 116.824219 C 105.78125 116.738281 105.605469 116.691406 105.445312 116.691406 "/>
<path style=" stroke:none;fill-rule:nonzero;fill:rgb(100%,100%,100%);fill-opacity:1;" d="M 74.324219 99.523438 L 74.246094 99.59375 C 74.046875 99.761719 73.910156 99.90625 73.839844 100.023438 C 73.746094 100.164062 73.710938 100.320312 73.734375 100.496094 C 73.28125 100.777344 72.945312 101.085938 72.726562 101.425781 C 72.628906 101.285156 72.457031 101.117188 72.207031 100.917969 L 71.945312 100.699219 C 71.828125 100.585938 71.777344 100.460938 71.800781 100.320312 C 71.863281 100.027344 72.167969 99.675781 72.71875 99.265625 C 73.136719 98.949219 73.5 98.730469 73.8125 98.601562 L 74.128906 98.53125 L 74.660156 98.484375 C 74.863281 98.484375 75 98.515625 75.066406 98.574219 L 75.074219 98.636719 C 75.027344 98.851562 74.777344 99.148438 74.324219 99.523438 "/>
<path style=" stroke:none;fill-rule:nonzero;fill:rgb(100%,100%,100%);fill-opacity:1;" d="M 74.738281 102.367188 C 74.992188 102.203125 75.242188 102.121094 75.488281 102.121094 C 75.851562 102.121094 76.195312 102.289062 76.511719 102.628906 L 76.539062 102.71875 C 76.503906 102.894531 76.167969 103.152344 75.539062 103.5 L 75.3125 103.613281 L 75.011719 103.796875 C 74.921875 103.890625 74.875 104.011719 74.863281 104.164062 C 74.839844 104.371094 74.90625 104.703125 75.066406 105.15625 C 75.117188 105.292969 75.171875 105.359375 75.230469 105.359375 C 75.261719 105.359375 75.285156 105.347656 75.304688 105.324219 C 75.363281 105.230469 75.363281 105.101562 75.304688 104.9375 C 75.203125 104.652344 75.308594 104.402344 75.621094 104.191406 L 76.976562 105.589844 C 76.703125 105.734375 76.429688 105.855469 76.15625 105.957031 C 75.800781 106.066406 75.441406 106.125 75.082031 106.125 C 74.332031 106.125 73.78125 105.878906 73.433594 105.394531 C 72.804688 104.511719 72.769531 103.816406 73.328125 103.3125 C 73.5 103.15625 73.828125 102.929688 74.316406 102.628906 L 74.738281 102.367188 "/>
<path style=" stroke:none;fill-rule:nonzero;fill:rgb(100%,100%,100%);fill-opacity:1;" d="M 94.769531 110.855469 L 95.097656 110.6875 C 94.867188 111.25 94.957031 112.210938 95.371094 113.566406 L 95.0625 113.402344 L 94.292969 113.050781 C 93.507812 112.6875 92.925781 112.441406 92.558594 112.3125 C 93.664062 112.21875 94.398438 111.734375 94.769531 110.855469 "/>
<path style=" stroke:none;fill-rule:nonzero;fill:rgb(100%,100%,100%);fill-opacity:1;" d="M 75.691406 100.699219 C 75.960938 100.761719 76.132812 100.886719 76.203125 101.074219 C 76.273438 101.257812 76.242188 101.449219 76.105469 101.65625 C 75.664062 101.375 75.140625 101.394531 74.535156 101.714844 C 73.832031 102.085938 73.332031 102.417969 73.035156 102.71875 C 72.855469 102.617188 72.8125 102.457031 72.914062 102.234375 L 72.929688 102.164062 C 73.109375 101.847656 73.480469 101.492188 74.050781 101.101562 L 74.113281 101.050781 L 74.246094 100.96875 C 74.746094 100.675781 75.226562 100.585938 75.691406 100.699219 "/>
<path style=" stroke:none;fill-rule:nonzero;fill:rgb(100%,100%,100%);fill-opacity:1;" d="M 101.433594 95.238281 C 102.070312 95.238281 102.433594 95.332031 102.527344 95.519531 C 102.574219 95.617188 102.550781 95.742188 102.457031 95.886719 C 102.3125 96.109375 102.101562 96.324219 101.832031 96.527344 L 101.03125 97.046875 L 100.570312 97.34375 C 99.964844 97.765625 99.523438 98.304688 99.238281 98.960938 C 99.023438 99.445312 98.839844 99.8125 98.695312 100.066406 C 98.46875 100.429688 98.21875 100.742188 97.945312 101.003906 L 97.847656 100.804688 C 98.054688 100.457031 98.199219 100.132812 98.289062 99.828125 L 98.394531 99.242188 C 98.417969 98.832031 98.347656 98.53125 98.183594 98.335938 C 97.804688 97.902344 97.054688 97.613281 95.933594 97.46875 L 95.007812 97.433594 C 94.285156 97.433594 93.269531 97.523438 91.957031 97.703125 C 90.554688 97.898438 89.34375 98.191406 88.324219 98.589844 C 87.300781 98.984375 86.386719 99.511719 85.574219 100.171875 C 85.074219 100.585938 84.644531 101.027344 84.277344 101.488281 C 83.773438 102.148438 83.457031 102.8125 83.335938 103.480469 C 83.253906 103.917969 83.34375 104.296875 83.609375 104.613281 C 83.917969 104.96875 84.335938 105.136719 84.859375 105.113281 C 84.785156 105.300781 84.746094 105.503906 84.746094 105.71875 C 83.09375 105.988281 81.558594 106.066406 80.144531 105.957031 L 79.339844 105.859375 C 79.140625 105.316406 78.871094 104.820312 78.53125 104.375 C 78.570312 104.101562 78.558594 103.816406 78.496094 103.515625 L 78.378906 103.007812 C 78.726562 102.414062 79.238281 101.785156 79.914062 101.109375 C 81.238281 99.769531 82.898438 98.777344 84.902344 98.125 C 86.390625 97.640625 88.285156 97.292969 90.582031 97.082031 L 91.816406 96.976562 L 93.828125 96.800781 L 95.835938 96.449219 L 97.363281 96.046875 C 98.890625 95.601562 100.082031 95.339844 100.941406 95.265625 L 101.433594 95.238281 "/>
<path style=" stroke:none;fill-rule:nonzero;fill:rgb(100%,100%,100%);fill-opacity:1;" d="M 75.066406 99.996094 L 75.066406 99.988281 L 75.011719 99.742188 C 75.210938 99.53125 75.339844 99.320312 75.390625 99.109375 L 75.699219 99.714844 L 75.859375 100.117188 C 75.671875 100.03125 75.46875 99.988281 75.25 99.988281 L 75.066406 99.996094 "/>
<path style=" stroke:none;fill-rule:nonzero;fill:rgb(100%,100%,100%);fill-opacity:1;" d="M 76.34375 100.53125 L 76.230469 100.09375 C 76.417969 99.683594 76.644531 99.351562 76.90625 99.101562 C 77.078125 98.929688 77.273438 98.863281 77.488281 98.898438 C 77.695312 98.925781 77.902344 99.042969 78.105469 99.25 C 78.242188 99.394531 78.277344 99.566406 78.210938 99.757812 C 78.171875 99.871094 78.058594 100.050781 77.878906 100.304688 C 77.707031 100.566406 77.605469 100.746094 77.570312 100.839844 C 77.5 101.113281 77.503906 101.417969 77.585938 101.75 C 77.632812 101.957031 77.734375 102.253906 77.894531 102.648438 C 78.089844 103.144531 78.203125 103.511719 78.238281 103.753906 L 78.222656 104.128906 C 78.191406 104.160156 78.179688 104.210938 78.1875 104.28125 C 78.128906 104.496094 78.011719 104.699219 77.84375 104.886719 L 76.890625 103.917969 L 76.785156 103.394531 C 76.914062 103.253906 76.96875 103.070312 76.953125 102.847656 C 76.921875 102.554688 76.78125 102.277344 76.527344 102.015625 C 76.738281 101.539062 76.691406 101.058594 76.378906 100.566406 L 76.34375 100.53125 "/>
<path style=" stroke:none;fill-rule:nonzero;fill:rgb(100%,100%,100%);fill-opacity:1;" d="M 116.53125 114.621094 C 117.039062 114.597656 117.585938 114.675781 118.160156 114.847656 C 118.488281 114.949219 119.003906 115.148438 119.703125 115.445312 L 119.925781 115.542969 C 121.121094 116.058594 122.40625 116.625 123.769531 117.246094 L 125.152344 117.886719 L 125.207031 118.125 C 125.277344 118.527344 125.257812 118.992188 125.152344 119.511719 C 125.085938 119.820312 124.953125 120.265625 124.746094 120.84375 L 124.605469 121.230469 L 124.136719 122.566406 L 124.101562 122.644531 L 124.007812 122.839844 C 122.808594 122.699219 121.597656 122.460938 120.382812 122.128906 L 119.359375 121.8125 L 118.320312 121.488281 L 117.242188 121.347656 L 116.644531 121.390625 C 115.703125 121.546875 114.558594 122.074219 113.207031 122.96875 C 111.8125 123.90625 110.511719 125.019531 109.300781 126.304688 L 109.300781 126.324219 C 108.730469 125.785156 108.21875 125.175781 107.765625 124.496094 C 107.730469 124.449219 107.695312 124.425781 107.660156 124.425781 L 107.597656 124.4375 L 107.582031 124.460938 C 107.550781 124.507812 107.546875 124.59375 107.570312 124.71875 C 107.589844 124.847656 107.613281 124.933594 107.640625 124.980469 C 108.28125 125.953125 108.9375 126.710938 109.609375 127.261719 C 110.484375 127.996094 111.339844 128.316406 112.175781 128.230469 C 112.402344 128.207031 112.667969 128.140625 112.96875 128.035156 L 113.753906 127.703125 L 114.394531 127.429688 C 115.03125 127.183594 115.828125 126.886719 116.785156 126.535156 L 117.824219 126.140625 C 117.878906 126.140625 118.132812 126.316406 118.582031 126.675781 L 118.714844 126.78125 C 119.285156 127.207031 119.804688 127.679688 120.277344 128.195312 C 120.945312 128.917969 121.265625 129.496094 121.238281 129.921875 C 121.214844 130.164062 121.074219 130.347656 120.824219 130.476562 L 118.511719 131.738281 L 112.984375 134.761719 C 111.710938 135.433594 110.46875 135.769531 109.265625 135.769531 L 108.082031 135.664062 C 107.347656 135.53125 106.554688 135.257812 105.703125 134.847656 C 105.191406 134.589844 104.449219 134.175781 103.480469 133.601562 L 103.296875 133.488281 C 102.097656 132.765625 101 132.070312 100.007812 131.398438 C 99.976562 131.328125 99.929688 131.292969 99.867188 131.292969 L 99.832031 131.285156 L 99.039062 130.746094 C 101.183594 129.601562 103.125 127.980469 104.863281 125.882812 L 105.28125 125.347656 C 105.667969 125.507812 105.992188 125.429688 106.25 125.121094 L 106.679688 124.480469 L 106.859375 124.164062 L 106.945312 124.050781 C 107.15625 123.738281 107.253906 123.480469 107.238281 123.277344 C 107.214844 122.984375 107.121094 122.714844 106.964844 122.46875 C 107.339844 121.632812 107.605469 120.769531 107.765625 119.878906 C 107.949219 118.910156 107.925781 118.140625 107.703125 117.570312 C 109.207031 116.734375 110.835938 116.023438 112.578125 115.4375 C 114.074219 114.921875 115.390625 114.652344 116.53125 114.621094 "/>
<path style=" stroke:none;fill-rule:nonzero;fill:rgb(100%,100%,100%);fill-opacity:1;" d="M 121.140625 126.839844 L 123.566406 128.097656 C 124.316406 128.523438 124.898438 128.988281 125.3125 129.492188 C 125.503906 129.722656 125.648438 129.96875 125.742188 130.238281 C 125.847656 130.539062 125.859375 130.785156 125.777344 130.984375 C 125.703125 131.191406 125.507812 131.316406 125.195312 131.363281 L 124.800781 131.371094 C 124.269531 131.371094 123.699219 131.277344 123.089844 131.089844 C 122.476562 130.902344 121.964844 130.65625 121.546875 130.351562 C 121.65625 129.699219 121.335938 128.878906 120.585938 127.894531 C 120.0625 127.222656 119.339844 126.570312 118.417969 125.9375 L 118.679688 125.902344 C 118.980469 125.902344 119.238281 125.945312 119.457031 126.035156 C 119.820312 126.152344 120.382812 126.421875 121.140625 126.839844 "/>
<path style=" stroke:none;fill-rule:nonzero;fill:rgb(100%,100%,100%);fill-opacity:1;" d="M 88.597656 92.171875 C 88.28125 92.273438 87.824219 92.457031 87.222656 92.726562 L 87.082031 92.796875 C 87.015625 92.820312 87.003906 92.878906 87.039062 92.972656 L 87.074219 93.085938 L 87.179688 93.175781 L 87.207031 93.175781 C 87.976562 92.828125 88.6875 92.578125 89.339844 92.417969 L 90.167969 92.3125 C 90.292969 92.3125 90.394531 92.335938 90.476562 92.375 L 90.476562 92.410156 C 90.441406 92.550781 90.269531 92.769531 89.964844 93.058594 L 89.875 93.128906 C 89.394531 93.558594 88.816406 93.984375 88.140625 94.414062 C 87.632812 94.714844 86.960938 95.09375 86.121094 95.542969 C 86.054688 95.574219 86.042969 95.640625 86.078125 95.746094 C 86.113281 95.875 86.160156 95.941406 86.21875 95.941406 L 86.234375 95.921875 C 86.839844 95.617188 87.472656 95.253906 88.132812 94.832031 L 88.378906 94.683594 L 89.566406 93.902344 C 90.003906 93.574219 90.335938 93.246094 90.566406 92.921875 C 90.722656 92.699219 90.753906 92.484375 90.660156 92.277344 C 90.550781 92.058594 90.335938 91.9375 90.019531 91.917969 C 89.617188 91.894531 89.144531 91.980469 88.597656 92.171875 M 84.867188 93.5625 C 85.09375 93.410156 85.453125 93.210938 85.953125 92.972656 L 86.402344 92.761719 L 87.753906 92.035156 C 88.640625 91.535156 89.253906 91.207031 89.59375 91.050781 C 90.136719 90.792969 90.589844 90.664062 90.953125 90.664062 C 91.347656 90.664062 91.699219 90.820312 92.011719 91.128906 C 92.558594 91.691406 93.222656 92.300781 94.003906 92.957031 L 94.144531 93.070312 C 94.585938 93.410156 94.886719 93.703125 95.050781 93.945312 C 95.300781 94.316406 95.550781 94.914062 95.808594 95.746094 C 95.246094 95.910156 94.585938 96.035156 93.835938 96.125 L 91.816406 96.300781 L 90.660156 96.386719 L 87.40625 96.773438 C 86.339844 96.957031 85.367188 97.191406 84.488281 97.476562 C 84.101562 97.605469 83.753906 97.738281 83.449219 97.878906 L 83.597656 96.414062 C 83.664062 95.429688 83.8125 94.742188 84.039062 94.351562 C 84.203125 94.0625 84.480469 93.800781 84.867188 93.5625 "/>
<path style=" stroke:none;fill-rule:nonzero;fill:rgb(100%,100%,100%);fill-opacity:1;" d="M 127.851562 115.28125 L 127.894531 115.304688 C 127.964844 115.441406 128 115.621094 128 115.851562 L 127.957031 116.429688 L 127.945312 116.492188 C 127.847656 117.257812 127.601562 118.039062 127.214844 118.835938 C 126.828125 119.625 126.347656 120.320312 125.777344 120.914062 C 125.726562 120.972656 125.714844 121.070312 125.75 121.207031 C 125.773438 121.304688 125.8125 121.394531 125.867188 121.46875 L 125.972656 121.617188 C 125.84375 121.980469 125.640625 122.316406 125.363281 122.628906 C 125.28125 122.722656 125.03125 122.722656 124.613281 122.628906 C 125.179688 121.316406 125.496094 120.230469 125.566406 119.371094 C 125.621094 118.652344 125.589844 118.109375 125.476562 117.746094 C 126.023438 116.910156 126.636719 116.203125 127.3125 115.632812 C 127.566406 115.398438 127.746094 115.28125 127.851562 115.28125 "/>
<path style=" stroke:none;fill-rule:nonzero;fill:rgb(100%,100%,100%);fill-opacity:1;" d="M 89.640625 121.082031 C 89.773438 121 89.929688 120.941406 90.105469 120.90625 L 90.257812 121.082031 C 94.707031 132.25 98.988281 143.496094 103.101562 154.820312 L 103.128906 154.988281 L 103.101562 154.996094 C 102.878906 154.648438 100.085938 147.65625 94.726562 134.015625 L 89.640625 121.082031 "/>
<path style=" stroke:none;fill-rule:nonzero;fill:rgb(100%,100%,100%);fill-opacity:1;" d="M 87.277344 116.9375 C 87.789062 116.640625 88.3125 116.492188 88.855469 116.492188 C 89.171875 116.492188 89.460938 116.550781 89.726562 116.667969 C 90.390625 116.960938 90.835938 117.441406 91.066406 118.117188 C 91.171875 118.570312 91.1875 119.082031 91.109375 119.644531 C 90.953125 120.285156 90.609375 120.519531 90.078125 120.335938 C 89.96875 120.300781 89.796875 120.363281 89.566406 120.519531 C 89.355469 120.667969 89.226562 120.796875 89.179688 120.90625 C 89.117188 121.046875 89.105469 121.15625 89.152344 121.230469 C 89.195312 121.289062 89.257812 121.308594 89.339844 121.285156 L 89.558594 121.828125 C 89.222656 122.09375 88.839844 122.164062 88.40625 122.046875 C 88.085938 121.949219 87.902344 121.773438 87.847656 121.519531 C 87.773438 121.253906 87.835938 120.917969 88.035156 120.519531 C 88.199219 120.179688 88.40625 119.886719 88.652344 119.644531 C 88.699219 119.597656 88.695312 119.488281 88.640625 119.316406 C 88.59375 119.199219 88.542969 119.140625 88.484375 119.140625 L 88.441406 119.160156 L 88.429688 119.175781 C 88.203125 119.398438 88.007812 119.683594 87.847656 120.027344 C 87.691406 120.378906 87.597656 120.714844 87.574219 121.039062 C 87.242188 120.949219 86.984375 120.757812 86.808594 120.460938 C 86.648438 120.171875 86.628906 119.886719 86.746094 119.609375 C 86.871094 119.273438 87.105469 118.925781 87.453125 118.5625 C 87.5 118.515625 87.496094 118.40625 87.445312 118.230469 C 87.394531 118.117188 87.34375 118.0625 87.285156 118.0625 L 87.25 118.082031 L 87.222656 118.089844 C 86.671875 118.679688 86.378906 119.253906 86.351562 119.808594 C 85.949219 119.246094 85.898438 118.664062 86.191406 118.0625 C 86.402344 117.617188 86.765625 117.242188 87.277344 116.9375 "/>
<path style=" stroke:none;fill-rule:nonzero;fill:rgb(100%,100%,100%);fill-opacity:1;" d="M 91.585938 132.511719 C 92.1875 132.0625 92.691406 131.519531 93.105469 130.878906 L 94.257812 133.863281 L 92.980469 134.65625 C 91.957031 135.199219 90.804688 135.472656 89.523438 135.472656 C 88.476562 135.472656 87.40625 135.292969 86.316406 134.9375 C 86.367188 134.671875 86.566406 134.460938 86.90625 134.304688 C 87.09375 134.214844 87.414062 134.117188 87.867188 134.015625 L 88.105469 133.96875 C 88.808594 133.800781 89.40625 133.621094 89.894531 133.433594 C 90.542969 133.183594 91.105469 132.875 91.585938 132.511719 "/>
<path style=" stroke:none;fill-rule:nonzero;fill:rgb(100%,100%,100%);fill-opacity:1;" d="M 75.691406 112.390625 C 74.507812 111.074219 74.1875 109.246094 74.730469 106.90625 L 74.722656 106.753906 L 76.035156 106.703125 C 76.511719 106.578125 76.964844 106.390625 77.390625 106.132812 L 77.464844 106.070312 L 79.4375 108.097656 C 79.457031 108.902344 79.324219 109.726562 79.042969 110.574219 C 79.03125 110.621094 79.039062 110.703125 79.066406 110.820312 C 79.101562 110.929688 79.144531 111.011719 79.191406 111.066406 L 79.277344 111.128906 C 79.332031 111.128906 79.363281 111.105469 79.375 111.058594 C 79.535156 110.535156 79.644531 110.054688 79.703125 109.609375 L 79.738281 109.601562 C 79.96875 109.4375 80.207031 109.28125 80.460938 109.132812 C 82.734375 111.480469 84.609375 113.453125 86.078125 115.050781 L 86.84375 115.902344 L 86.730469 116.316406 C 86.707031 116.390625 86.730469 116.484375 86.808594 116.597656 C 86.515625 116.8125 86.292969 117.03125 86.148438 117.246094 L 85.503906 115.5 C 85.457031 115.363281 85.390625 115.296875 85.308594 115.296875 C 83.386719 115.414062 81.464844 115.191406 79.542969 114.628906 C 77.886719 114.144531 76.601562 113.398438 75.691406 112.390625 "/>
<path style=" stroke:none;fill-rule:nonzero;fill:rgb(100%,100%,100%);fill-opacity:1;" d="M 88.042969 125.664062 C 87.988281 124.484375 87.773438 123.085938 87.390625 121.476562 L 87.585938 121.546875 C 87.695312 122.09375 88.035156 122.441406 88.597656 122.601562 C 88.746094 122.648438 88.933594 122.648438 89.164062 122.601562 C 89.378906 122.554688 89.578125 122.472656 89.761719 122.355469 L 92.839844 130.195312 C 92.296875 131.125 91.566406 131.875 90.644531 132.441406 C 90.261719 132.671875 89.804688 132.875 89.269531 133.058594 L 87.824219 133.441406 L 87.300781 133.574219 C 86.96875 133.667969 86.710938 133.757812 86.535156 133.847656 C 86.945312 132.511719 87.300781 131.167969 87.59375 129.808594 C 87.933594 128.082031 88.085938 126.699219 88.042969 125.664062 "/>
<path style=" stroke:none;fill-rule:nonzero;fill:rgb(100%,100%,100%);fill-opacity:1;" d="M 0.0273438 0.0117188 L 0.0898438 0.00390625 C 0.183594 0.00390625 0.304688 0.046875 0.457031 0.136719 C 0.617188 0.222656 0.722656 0.3125 0.777344 0.398438 L 1.207031 1.023438 L 24.835938 35.207031 C 39.261719 56.007812 47.414062 67.800781 49.300781 70.585938 L 52.769531 75.785156 C 53.378906 76.824219 53.871094 77.476562 54.25 77.742188 C 59.816406 81.398438 64.550781 85.367188 68.453125 89.644531 C 71.066406 92.507812 73.15625 95.261719 74.722656 97.90625 L 74.210938 97.828125 L 74.113281 97.828125 L 72.992188 96.046875 C 70.523438 92.375 67.476562 88.90625 63.851562 85.632812 C 61.304688 83.328125 58.601562 81.1875 55.738281 79.214844 L 55.105469 78.8125 L 54.097656 78.128906 C 53.746094 77.851562 53.46875 77.558594 53.261719 77.25 L 46.289062 66.945312 L 22.914062 33.171875 L 0.132812 0.25 C 0.0429688 0.128906 0.0078125 0.046875 0.0273438 0.0117188 "/>
<path style=" stroke:none;fill-rule:nonzero;fill:rgb(100%,100%,100%);fill-opacity:1;" d="M 83.996094 103.042969 C 84.027344 102.960938 84.085938 102.839844 84.179688 102.683594 C 84.40625 103.394531 84.652344 103.976562 84.921875 104.429688 L 84.613281 104.445312 L 84.578125 104.445312 L 84.03125 104.339844 C 83.882812 104.289062 83.761719 104.203125 83.660156 104.085938 C 83.648438 103.828125 83.761719 103.480469 83.996094 103.042969 "/>
<path style=" stroke:none;fill-rule:nonzero;fill:rgb(100%,100%,100%);fill-opacity:1;" d="M 83.042969 110.195312 L 81.527344 108.667969 C 82.390625 108.363281 83.3125 108.210938 84.285156 108.210938 C 85.46875 108.210938 86.613281 108.433594 87.726562 108.878906 C 87.367188 109.296875 87.136719 109.84375 87.039062 110.523438 C 86.96875 110.996094 86.957031 111.617188 87.003906 112.390625 L 87.003906 112.550781 L 87.0625 114.410156 C 86.269531 113.507812 84.929688 112.105469 83.042969 110.195312 "/>
<path style=" stroke:none;fill-rule:nonzero;fill:rgb(100%,100%,100%);fill-opacity:1;" d="M 84.691406 101.9375 C 85.144531 101.378906 85.699219 100.863281 86.359375 100.390625 L 86.640625 100.59375 L 86.5625 100.664062 C 86.25 100.933594 86.003906 101.167969 85.820312 101.375 C 85.425781 101.8125 85.164062 102.339844 85.035156 102.953125 C 84.917969 102.667969 84.804688 102.328125 84.691406 101.9375 "/>
<path style=" stroke:none;fill-rule:nonzero;fill:rgb(100%,100%,100%);fill-opacity:1;" d="M 90.835938 114.558594 C 90.71875 113.996094 90.59375 113.558594 90.457031 113.242188 L 90.40625 113.136719 C 90.546875 112.863281 90.742188 112.679688 90.996094 112.585938 L 91.515625 112.503906 C 92.140625 112.503906 93.035156 112.847656 94.207031 113.53125 C 94.3125 113.597656 94.492188 113.664062 94.742188 113.734375 L 95.359375 113.980469 C 95.550781 114.089844 95.664062 114.234375 95.703125 114.410156 C 95.75 114.59375 95.832031 114.769531 95.941406 114.9375 L 95.933594 114.9375 L 95.265625 115.121094 C 93.984375 115.484375 92.664062 115.792969 91.304688 116.042969 C 91.175781 115.773438 91.019531 115.28125 90.835938 114.558594 "/>
<path style=" stroke:none;fill-rule:nonzero;fill:rgb(100%,100%,100%);fill-opacity:1;" d="M 88.167969 109.257812 C 88.214844 109.929688 88.507812 110.535156 89.046875 111.066406 C 89.511719 111.535156 90.09375 111.882812 90.792969 112.109375 C 90.335938 112.238281 90.015625 112.667969 89.832031 113.402344 C 89.726562 113.847656 89.523438 114.265625 89.222656 114.664062 C 88.929688 115.0625 88.566406 115.398438 88.132812 115.675781 L 87.488281 114.902344 C 87.527344 114.511719 87.527344 114.089844 87.480469 113.636719 C 87.347656 112.726562 87.304688 111.992188 87.347656 111.445312 C 87.410156 110.484375 87.683594 109.753906 88.167969 109.257812 "/>
<path style=" stroke:none;fill-rule:nonzero;fill:rgb(100%,100%,100%);fill-opacity:1;" d="M 90.183594 113.839844 L 90.273438 113.507812 C 90.363281 113.78125 90.445312 114.167969 90.527344 114.664062 L 90.589844 114.9375 C 90.660156 115.300781 90.8125 115.683594 91.039062 116.085938 L 89.949219 116.28125 L 89.9375 116.28125 L 89.699219 116.148438 C 89.402344 116.019531 89.085938 115.957031 88.757812 115.957031 L 88.714844 115.957031 C 89.140625 115.640625 89.507812 115.257812 89.816406 114.8125 C 89.949219 114.640625 90.074219 114.3125 90.183594 113.839844 "/>
<path style=" stroke:none;fill-rule:nonzero;fill:rgb(100%,100%,100%);fill-opacity:1;" d="M 100.078125 126.480469 L 100.367188 126.515625 L 100.4375 126.542969 C 100.734375 126.601562 101.074219 126.746094 101.460938 126.980469 L 101.902344 127.246094 C 101.765625 127.363281 101.636719 127.421875 101.507812 127.421875 L 101.472656 127.421875 L 100.507812 126.851562 C 100.402344 126.796875 100.292969 126.710938 100.175781 126.59375 L 100.078125 126.480469 "/>
</g>
</svg>
