<?xml version="1.0" encoding="UTF-8"?>
<svg xmlns="http://www.w3.org/2000/svg" xmlns:xlink="http://www.w3.org/1999/xlink" width="128pt" height="211pt" viewBox="0 0 128 211" version="1.1">
<g id="surface1">
<path style=" stroke:none;fill-rule:nonzero;fill:rgb(100%,100%,100%);fill-opacity:1;" d="M 89.503906 30.773438 L 95.535156 33.96875 L 99.851562 36.347656 L 101.34375 37.089844 L 104.84375 38.949219 C 106.082031 39.742188 106.976562 40.605469 107.523438 41.546875 L 108.640625 44.746094 L 109.011719 48.238281 L 109.460938 53.066406 L 106.035156 51.730469 C 103.203125 50.789062 100.050781 50.019531 96.578125 49.425781 L 86.003906 48.238281 L 82.28125 47.941406 L 75.726562 47.34375 L 69.25 46.15625 C 70.09375 43.429688 70.9375 41.472656 71.78125 40.285156 C 72.179688 39.640625 73.144531 38.675781 74.683594 37.386719 L 75.132812 37.015625 L 81.683594 31.070312 C 82.628906 30.078125 83.746094 29.582031 85.035156 29.582031 C 86.226562 29.582031 87.714844 29.980469 89.503906 30.773438 M 86.300781 36.867188 C 87.046875 37.957031 88.136719 39.023438 89.578125 40.0625 L 93.449219 42.664062 L 94.269531 43.109375 L 100.375 46.675781 L 100.449219 46.75 L 100.523438 46.75 L 100.96875 46.15625 L 100.820312 45.488281 L 94.195312 41.699219 L 88.535156 37.535156 L 88.3125 37.386719 C 87.269531 36.445312 86.699219 35.703125 86.597656 35.15625 L 86.671875 35.082031 L 87.640625 34.933594 L 90.246094 35.230469 C 92.679688 35.828125 95.011719 36.644531 97.246094 37.683594 L 97.246094 37.757812 L 97.394531 37.757812 L 97.695312 37.460938 L 97.84375 37.089844 L 97.621094 36.496094 L 97.171875 36.273438 L 92.929688 34.488281 L 88.460938 33.597656 L 88.089844 33.597656 C 87.09375 33.644531 86.402344 34.042969 86.003906 34.785156 C 85.707031 35.480469 85.804688 36.171875 86.300781 36.867188 M 82.28125 50.167969 L 86.226562 50.46875 C 93.773438 51.160156 99.929688 52.277344 104.695312 53.8125 C 111.246094 55.992188 116.683594 59.238281 121 63.546875 C 125.417969 68.054688 127.703125 71.996094 127.851562 75.363281 C 127.949219 77.742188 125.417969 79.078125 120.257812 79.378906 L 116.160156 79.527344 L 105.289062 78.632812 L 104.917969 76.703125 L 105.066406 76.703125 C 106.703125 76.703125 107.996094 76.132812 108.9375 74.992188 C 109.78125 74 110.078125 72.761719 109.832031 71.277344 C 109.1875 67.660156 106.777344 64.09375 102.609375 60.574219 C 99.929688 58.394531 96.925781 56.660156 93.597656 55.371094 C 90.273438 54.082031 86.351562 53.117188 81.832031 52.472656 L 71.929688 51.582031 L 68.878906 51.730469 C 65.253906 52.175781 62.796875 53.117188 61.503906 54.554688 C 60.960938 55.199219 60.761719 56.191406 60.910156 57.527344 L 61.207031 59.460938 L 62.621094 62.582031 L 62.324219 63.324219 C 61.429688 62.480469 60.636719 61.464844 59.941406 60.277344 L 58.082031 56.5625 C 57.136719 54.382812 55.699219 52.648438 53.761719 51.359375 L 52.273438 50.394531 L 49.667969 48.683594 L 47.65625 46.601562 C 47.308594 46.105469 47.207031 45.710938 47.359375 45.414062 C 47.707031 44.769531 48.921875 44.445312 51.007812 44.445312 L 52.570312 44.519531 C 55.398438 44.820312 59.296875 45.660156 64.261719 47.046875 L 69.175781 48.386719 L 75.726562 49.574219 L 82.28125 50.167969 M 72.972656 53.8125 L 80.492188 54.554688 L 89.726562 56.339844 C 93.101562 57.328125 96.054688 58.640625 98.585938 60.277344 L 97.46875 60.945312 C 97.125 61.046875 96.925781 61.242188 96.875 61.539062 C 96.824219 61.835938 96.949219 62.085938 97.246094 62.285156 L 100.671875 65.109375 C 102.261719 66.890625 103.082031 68.75 103.128906 70.683594 L 100.820312 66.371094 L 97.84375 63.324219 L 97.46875 63.25 L 97.394531 63.25 L 96.726562 63.621094 C 96.675781 63.917969 96.777344 64.167969 97.023438 64.363281 L 97.917969 65.183594 L 99.777344 67.1875 C 100.820312 68.328125 101.863281 70.136719 102.90625 72.613281 L 102.980469 72.835938 L 102.90625 73.132812 C 102.113281 71.152344 101.195312 69.589844 100.152344 68.453125 C 99.207031 67.410156 98.390625 66.71875 97.695312 66.371094 L 97.46875 66.296875 L 97.394531 66.296875 L 96.875 66.667969 C 96.777344 67.113281 96.949219 67.511719 97.394531 67.859375 L 99.183594 69.34375 L 102.011719 73.730469 L 102.460938 74.472656 L 102.386719 75.066406 L 101.121094 74.546875 L 101.121094 74.84375 L 101.269531 75.511719 L 101.34375 75.511719 C 102.039062 76.105469 102.484375 76.824219 102.683594 77.667969 C 102.882812 78.511719 102.832031 79.328125 102.535156 80.121094 C 102.136719 81.0625 101.542969 81.828125 100.746094 82.425781 C 99.902344 82.96875 98.984375 83.242188 97.992188 83.242188 L 97.695312 83.242188 L 97.097656 83.167969 L 96.949219 83.167969 L 96.875 83.242188 C 94.34375 87.15625 91.316406 90.078125 87.789062 92.011719 L 87.195312 92.753906 C 87.246094 93.003906 87.46875 93.125 87.863281 93.125 L 88.015625 93.125 C 89.054688 93.125 90.199219 92.777344 91.4375 92.085938 C 90.941406 93.71875 89.601562 95.15625 87.417969 96.394531 C 85.332031 97.535156 83.25 98.105469 81.164062 98.105469 L 80.640625 98.105469 L 79.078125 97.734375 L 81.3125 97.363281 C 82.207031 97.113281 82.726562 96.890625 82.875 96.691406 L 82.949219 96.46875 L 82.652344 96.171875 L 80.046875 96.246094 C 78.011719 96.097656 75.703125 95.355469 73.121094 94.019531 C 68.703125 91.738281 65.527344 88.023438 63.589844 82.871094 C 61.65625 77.71875 61.457031 72.441406 62.996094 67.039062 C 63.839844 63.917969 65.378906 60.746094 67.613281 57.527344 C 68.605469 57.429688 69.648438 56.980469 70.738281 56.191406 L 72.003906 54.851562 L 72.972656 53.8125 M 69.769531 55.074219 C 68.726562 55.816406 67.761719 56.191406 66.867188 56.191406 L 66.644531 56.191406 C 66 56.140625 65.476562 55.867188 65.078125 55.371094 L 64.558594 54.703125 C 65.652344 54.15625 67.535156 53.859375 70.21875 53.8125 L 70.886719 53.8125 L 69.769531 55.074219 M 68.058594 59.757812 L 71.261719 59.832031 L 72.003906 59.535156 L 72.300781 58.714844 L 72.226562 57.972656 C 72.179688 57.476562 71.929688 57.207031 71.484375 57.15625 L 71.035156 57.304688 L 67.910156 58.9375 L 67.460938 59.460938 C 67.511719 59.609375 67.710938 59.707031 68.058594 59.757812 M 87.269531 57.75 L 86.824219 57.527344 L 86.75 57.527344 C 86.402344 57.527344 86.152344 57.675781 86.003906 57.972656 C 85.109375 58.863281 84.738281 59.460938 84.886719 59.757812 C 84.9375 59.90625 85.183594 60.054688 85.632812 60.203125 L 88.238281 61.761719 C 89.132812 62.359375 89.675781 62.65625 89.875 62.65625 L 90.023438 62.65625 L 90.097656 62.507812 C 90.347656 61.863281 89.949219 60.871094 88.90625 59.535156 L 87.269531 57.75 M 107.746094 69.863281 C 108.492188 71.300781 108.839844 72.441406 108.789062 73.28125 L 107.597656 74.101562 L 105.808594 74.472656 L 105.734375 74.472656 L 104.695312 74.398438 C 105.585938 72.910156 106.382812 71.003906 107.078125 68.675781 L 107.746094 69.863281 M 100.003906 61.242188 C 102.1875 62.777344 104 64.464844 105.4375 66.296875 L 104.320312 69.640625 C 103.972656 67.660156 103.128906 65.925781 101.789062 64.4375 L 99.332031 62.136719 L 99.109375 61.910156 L 100.003906 61.242188 M 100.300781 73.804688 L 100.597656 73.503906 L 100.300781 72.242188 L 99.40625 70.90625 L 97.546875 69.34375 L 97.246094 69.34375 L 96.652344 69.789062 C 96.601562 70.136719 96.726562 70.433594 97.023438 70.683594 L 97.394531 70.90625 L 98.4375 71.796875 L 99.332031 72.835938 C 99.777344 73.480469 100.101562 73.804688 100.300781 73.804688 M 98.4375 73.207031 L 97.46875 72.390625 L 97.171875 72.316406 L 97.097656 72.316406 L 96.578125 72.761719 C 96.429688 73.058594 96.503906 73.28125 96.800781 73.429688 L 97.695312 74.695312 C 97.695312 75.089844 97.890625 75.3125 98.289062 75.363281 L 98.363281 75.363281 L 98.738281 75.140625 L 98.960938 74.546875 L 98.4375 73.207031 M 100.152344 93.867188 C 105.5625 96.394531 110.253906 99.21875 114.222656 102.339844 C 119.386719 106.453125 123.109375 110.886719 125.394531 115.644531 L 126.585938 118.46875 L 126.957031 119.730469 L 126.882812 120.03125 L 125.46875 124.191406 C 123.285156 129.789062 120.28125 134.371094 116.457031 137.941406 C 114.421875 134.96875 112.089844 133.382812 109.460938 133.183594 L 108.492188 133.109375 L 106.851562 133.257812 L 106.554688 133.332031 L 106.554688 133.183594 L 106.035156 130.0625 L 106.035156 129.914062 C 106.382812 127.484375 107.050781 125.332031 108.042969 123.449219 C 109.136719 121.515625 110.226562 120.03125 111.320312 118.988281 L 111.691406 118.171875 L 111.691406 117.207031 L 111.394531 116.980469 L 111.171875 117.132812 C 109.234375 118.914062 107.648438 121.390625 106.40625 124.5625 L 105.660156 126.941406 L 103.425781 115.421875 C 102.535156 112.050781 101.390625 108.929688 100.003906 106.058594 L 98.660156 103.53125 C 99.902344 104.570312 101.121094 105.089844 102.3125 105.089844 L 104.320312 104.71875 L 104.84375 104.273438 L 105.214844 103.53125 L 105.140625 103.011719 C 104.246094 102.070312 103.453125 100.929688 102.757812 99.589844 C 102.3125 98.847656 101.738281 97.609375 101.042969 95.875 L 100.152344 93.867188 M 86.300781 64.886719 L 85.558594 64.4375 L 85.480469 64.4375 C 85.035156 64.4375 84.636719 64.6875 84.289062 65.183594 L 83.695312 67.113281 C 83.597656 67.90625 83.671875 68.574219 83.917969 69.121094 C 84.167969 69.714844 84.515625 70.039062 84.960938 70.085938 L 85.109375 70.085938 C 85.558594 70.085938 85.929688 69.839844 86.226562 69.34375 L 86.898438 67.410156 C 86.996094 66.273438 86.796875 65.429688 86.300781 64.886719 M 82.429688 78.335938 L 79.375 79.152344 C 77.191406 79.699219 75.554688 79.996094 74.460938 80.046875 L 73.417969 80.046875 L 67.460938 78.855469 C 67.066406 78.757812 66.890625 78.511719 66.941406 78.113281 L 67.015625 77.519531 C 67.066406 77.320312 67.039062 77.171875 66.941406 77.074219 L 66.644531 77 L 66.195312 77.222656 L 64.632812 78.855469 L 64.335938 79.527344 L 64.484375 80.269531 L 65.972656 82.945312 L 66.34375 83.316406 C 66.542969 83.316406 66.667969 83.140625 66.71875 82.796875 L 66.71875 82.425781 L 67.089844 82.050781 L 67.238281 82.050781 C 69.820312 84.183594 72.351562 85.347656 74.835938 85.546875 L 75.28125 85.546875 C 76.871094 85.546875 78.878906 84.949219 81.3125 83.761719 L 84.886719 81.753906 L 85.109375 81.753906 C 85.40625 81.753906 85.632812 81.855469 85.78125 82.050781 L 85.632812 83.761719 L 85.632812 83.835938 L 85.707031 83.910156 L 86.152344 84.207031 L 86.597656 83.761719 L 87.566406 80.34375 L 87.566406 79.601562 L 87.046875 78.929688 L 83.398438 75.882812 L 83.023438 75.734375 L 82.726562 75.882812 L 82.726562 76.402344 L 83.097656 77.667969 L 83.097656 77.964844 L 82.429688 78.335938 M 77.960938 64.289062 L 77.664062 64.066406 L 77.589844 64.066406 L 76.695312 64.734375 L 76.101562 65.777344 L 74.910156 67.707031 L 71.558594 71.5 L 71.261719 72.167969 L 71.410156 72.910156 L 72.972656 75.585938 C 73.269531 75.984375 73.644531 76.207031 74.089844 76.253906 L 74.238281 76.253906 L 75.058594 76.105469 C 75.257812 76.058594 75.429688 75.933594 75.578125 75.734375 L 75.429688 74.992188 L 74.164062 72.984375 C 73.964844 72.589844 73.992188 72.242188 74.238281 71.945312 L 76.027344 68.972656 L 77.367188 66.371094 L 77.960938 65.109375 L 77.960938 64.289062 M 69.175781 63.324219 C 68.726562 63.324219 68.332031 63.570312 67.984375 64.066406 C 67.636719 64.613281 67.4375 65.257812 67.386719 66 C 67.238281 67.089844 67.414062 67.90625 67.910156 68.453125 C 68.109375 68.75 68.355469 68.921875 68.652344 68.972656 L 68.804688 68.972656 C 69.199219 68.972656 69.570312 68.699219 69.917969 68.15625 L 70.589844 66.296875 C 70.6875 65.503906 70.589844 64.835938 70.292969 64.289062 C 70.042969 63.695312 69.695312 63.375 69.25 63.324219 L 69.175781 63.324219 M 75.578125 86.140625 L 72.152344 86.289062 L 71.558594 86.585938 C 71.507812 86.785156 71.632812 86.957031 71.929688 87.105469 L 73.195312 87.921875 L 74.238281 88.148438 L 74.535156 88.222656 L 75.652344 88.070312 C 75.949219 88.023438 76.175781 87.898438 76.324219 87.699219 L 76.546875 86.957031 L 76.25 86.4375 L 75.578125 86.140625 M 78.035156 83.242188 L 75.503906 83.539062 L 74.238281 83.464844 L 71.855469 83.019531 L 67.238281 81.085938 C 66.941406 80.988281 66.742188 80.714844 66.644531 80.269531 L 66.71875 80.046875 L 67.089844 79.898438 L 67.164062 79.898438 L 67.238281 79.972656 L 73.71875 81.160156 L 74.757812 81.234375 L 79.898438 80.417969 L 82.875 79.601562 L 82.949219 79.601562 L 83.621094 79.453125 L 83.695312 79.453125 L 84.589844 79.824219 L 84.738281 80.269531 L 84.066406 80.9375 L 81.683594 81.902344 L 78.035156 83.242188 M 73.867188 97.289062 L 72.675781 97.882812 L 70.589844 100.410156 L 69.398438 102.042969 L 67.835938 103.382812 C 65.152344 104.867188 62.621094 105.613281 60.238281 105.613281 L 59.644531 105.539062 C 60.585938 104.25 61.429688 102.863281 62.175781 101.375 C 62.722656 100.335938 63.167969 98.699219 63.515625 96.46875 L 64.1875 93.199219 C 64.535156 92.0625 65.03125 91.121094 65.675781 90.375 C 67.660156 92.554688 69.996094 94.242188 72.675781 95.429688 C 72.972656 96.125 73.371094 96.742188 73.867188 97.289062 M 95.609375 90.003906 C 97.199219 91.390625 98.464844 93.398438 99.40625 96.023438 C 100.398438 99.046875 101.589844 101.5 102.980469 103.382812 C 102.136719 103.382812 101.34375 103.109375 100.597656 102.5625 L 98.511719 100.707031 L 97.171875 99.441406 C 95.683594 98.15625 94.515625 97.460938 93.671875 97.363281 C 94.714844 95.28125 95.359375 92.828125 95.609375 90.003906 M 95.460938 100.410156 L 95.609375 100.558594 L 95.609375 100.929688 L 97.695312 105.460938 L 98.738281 107.320312 C 100.472656 110.886719 101.738281 114.382812 102.535156 117.800781 C 103.230469 120.625 103.925781 124.414062 104.617188 129.171875 C 102.582031 131.351562 99.554688 133.28125 95.535156 134.96875 C 95.433594 133.777344 95.0625 132.886719 94.417969 132.292969 L 92.78125 131.773438 L 91.8125 131.847656 L 91.960938 129.246094 L 91.140625 126.792969 C 90.746094 125.652344 90.472656 124.464844 90.324219 123.226562 L 90.246094 119.65625 L 90.324219 117.875 C 90.324219 114.851562 89.851562 112.375 88.90625 110.441406 L 88.757812 109.996094 C 88.757812 108.660156 89.082031 106.851562 89.726562 104.570312 C 90.71875 101.101562 91.910156 99.367188 93.300781 99.367188 C 93.945312 99.367188 94.664062 99.714844 95.460938 100.410156 M 91.589844 98.179688 C 90.496094 99.46875 89.601562 101.152344 88.90625 103.234375 C 88.3125 105.015625 87.890625 106.800781 87.640625 108.585938 L 86.300781 107.394531 L 84.140625 105.015625 L 80.269531 100.1875 L 81.015625 100.1875 C 83.597656 100.1875 86.078125 99.542969 88.460938 98.253906 C 90.941406 96.816406 92.628906 94.984375 93.523438 92.753906 C 93.375 95.082031 92.878906 96.71875 92.035156 97.660156 L 92.035156 97.734375 L 91.589844 98.179688 M 86.523438 110.367188 C 87.417969 111.308594 88.089844 112.546875 88.535156 114.082031 C 88.980469 115.570312 89.15625 117.207031 89.054688 118.988281 L 88.90625 120.550781 C 88.660156 122.777344 88.734375 124.511719 89.132812 125.75 L 89.800781 127.535156 L 90.546875 129.765625 L 90.769531 132.070312 L 88.609375 132.664062 L 87.34375 133.035156 C 85.605469 133.628906 84.710938 135.214844 84.664062 137.792969 L 81.460938 137.941406 C 77.835938 137.941406 74.414062 137.46875 71.1875 136.527344 C 67.910156 135.636719 65.054688 134.347656 62.621094 132.664062 L 62.847656 132.21875 L 65.675781 127.460938 L 68.953125 123.003906 C 70.441406 121.121094 71.632812 119.238281 72.527344 117.355469 C 73.417969 115.371094 73.890625 112.894531 73.941406 109.921875 L 73.417969 101.96875 L 73.195312 99.292969 L 74.089844 99.070312 L 75.503906 99.441406 C 78.433594 100.929688 80.566406 102.714844 81.90625 104.792969 C 82.851562 106.230469 84.367188 108.0625 86.449219 110.292969 L 86.523438 110.367188 M 72.078125 102.5625 C 72.527344 107.171875 72.625 110.566406 72.378906 112.746094 C 72.03125 116.460938 70.8125 119.507812 68.726562 121.886719 C 66.542969 124.363281 64.507812 127.386719 62.621094 130.953125 C 61.628906 132.9375 60.089844 134.695312 58.003906 136.230469 C 56.019531 137.71875 53.613281 138.929688 50.78125 139.871094 C 53.5625 135.363281 55.671875 131.027344 57.113281 126.867188 C 58.503906 122.703125 59.273438 118.542969 59.421875 114.382812 C 61.109375 113.984375 62.746094 113.390625 64.335938 112.597656 C 64.535156 112.546875 64.65625 112.324219 64.707031 111.929688 L 64.78125 111.183594 L 64.558594 110.886719 L 64.484375 110.886719 L 64.410156 110.960938 C 62.921875 111.707031 61.234375 112.300781 59.347656 112.746094 L 59.195312 112.746094 L 58.972656 112.820312 L 52.421875 113.5625 C 47.457031 113.5625 42.320312 112.398438 37.007812 110.070312 C 31.746094 107.742188 26.90625 104.496094 22.488281 100.335938 C 25.515625 99.589844 27.949219 97.957031 29.785156 95.429688 C 30.976562 93.84375 31.546875 92.183594 31.496094 90.449219 C 32.789062 88.519531 33.257812 86.757812 32.914062 85.171875 C 36.238281 88.542969 40.035156 91.167969 44.304688 93.050781 C 48.574219 94.984375 52.917969 95.949219 57.335938 95.949219 L 62.621094 95.503906 C 62.226562 97.785156 61.703125 99.742188 61.058594 101.375 C 60.363281 103.011719 59.46875 104.546875 58.378906 105.984375 L 58.082031 106.429688 L 58.003906 107.023438 L 58.15625 107.246094 L 59.496094 107.320312 C 61.382812 107.320312 63.242188 106.972656 65.078125 106.28125 C 67.113281 105.488281 68.726562 104.421875 69.917969 103.085938 L 70.960938 101.671875 L 71.929688 100.335938 L 72.078125 102.5625 M 88.757812 116.90625 L 88.089844 116.460938 L 87.863281 116.238281 L 87.269531 116.757812 L 86.898438 117.800781 C 87.09375 118.34375 87.46875 118.617188 88.015625 118.617188 C 88.210938 118.617188 88.4375 118.445312 88.683594 118.097656 L 88.980469 117.28125 L 88.757812 116.90625 M 87.941406 129.914062 C 88.089844 130.410156 88.460938 130.683594 89.054688 130.730469 L 89.726562 130.136719 L 90.023438 129.320312 L 89.800781 129.023438 C 89.453125 129.023438 89.230469 128.847656 89.132812 128.5 L 88.832031 128.351562 L 88.3125 128.875 C 87.964844 129.269531 87.839844 129.617188 87.941406 129.914062 M 92.929688 134.148438 L 91.664062 134.371094 L 88.90625 134.894531 C 87.863281 135.191406 87.246094 135.613281 87.046875 136.15625 C 86.648438 137.148438 86.5 138.808594 86.597656 141.136719 L 86.671875 142.027344 L 86.523438 142.027344 C 86.128906 142.324219 85.878906 142.796875 85.78125 143.441406 C 85.679688 143.886719 85.707031 144.308594 85.855469 144.703125 L 86.597656 145.371094 L 86.523438 147.082031 C 86.324219 149.3125 86.375 150.847656 86.671875 151.6875 C 86.773438 151.835938 86.871094 151.910156 86.972656 151.910156 L 87.046875 151.910156 L 88.609375 151.6875 L 90.769531 151.242188 C 91.5625 151.046875 92.207031 150.773438 92.703125 150.425781 C 93.003906 150.179688 93.203125 149.730469 93.300781 149.089844 L 93.375 147.378906 L 93.300781 146.933594 L 93.449219 137.570312 L 93.300781 134.371094 L 93.003906 134.148438 L 92.929688 134.148438 M 92.78125 133.480469 C 93.820312 133.730469 94.417969 134.519531 94.566406 135.859375 C 94.515625 136.105469 94.542969 136.28125 94.640625 136.378906 L 94.566406 147.082031 L 94.417969 149.757812 C 94.167969 150.648438 93.648438 151.195312 92.855469 151.390625 L 89.28125 152.210938 L 87.566406 152.582031 L 87.269531 152.582031 C 86.375 152.382812 85.804688 151.835938 85.558594 150.945312 L 85.40625 148.195312 L 85.480469 138.90625 L 85.632812 136.378906 C 85.878906 135.539062 86.402344 134.992188 87.195312 134.746094 L 90.695312 133.851562 L 92.480469 133.480469 L 92.78125 133.480469 M 104.917969 131.546875 C 104.667969 131.847656 104.46875 132.441406 104.320312 133.332031 L 104.320312 133.40625 L 104.097656 135.785156 C 103.699219 134.296875 103.277344 133.554688 102.832031 133.554688 L 102.683594 133.628906 C 102.234375 133.878906 101.914062 134.570312 101.714844 135.710938 L 101.714844 135.785156 L 101.566406 137.71875 C 101.121094 136.230469 100.699219 135.488281 100.300781 135.488281 L 100.003906 135.5625 C 99.605469 135.910156 99.308594 136.628906 99.109375 137.71875 C 98.960938 138.410156 98.886719 139.203125 98.886719 140.09375 L 98.738281 139.5 C 98.339844 138.015625 97.890625 137.246094 97.394531 137.195312 L 97.320312 137.195312 C 96.925781 137.195312 96.550781 137.765625 96.203125 138.90625 L 96.203125 138.980469 C 95.90625 140.167969 95.855469 141.804688 96.054688 143.886719 L 96.128906 144.554688 L 96.203125 145.59375 C 96.355469 145.992188 96.550781 146.214844 96.800781 146.265625 L 97.320312 146.339844 C 98.265625 146.339844 98.886719 145.84375 99.183594 144.851562 L 99.257812 144.480469 L 99.777344 144.851562 C 100.96875 144.800781 101.691406 144.183594 101.9375 142.992188 L 102.011719 142.769531 C 102.0625 142.871094 102.1875 142.917969 102.386719 142.917969 C 102.929688 142.917969 103.402344 142.722656 103.800781 142.324219 L 104.542969 141.0625 L 104.617188 140.691406 L 104.617188 140.242188 C 104.71875 140.394531 104.890625 140.492188 105.140625 140.542969 L 105.363281 140.617188 C 105.613281 140.617188 105.886719 140.46875 106.183594 140.167969 L 106.40625 141.507812 C 104.320312 144.726562 100.648438 147.28125 95.386719 149.164062 L 95.609375 136.230469 C 99.679688 134.496094 102.734375 132.515625 104.769531 130.285156 L 104.917969 131.101562 L 104.917969 131.546875 M 105.363281 134.222656 L 105.960938 138.757812 L 105.511719 138.832031 C 105.414062 138.832031 105.363281 138.808594 105.363281 138.757812 L 105.066406 135.785156 L 105.214844 133.554688 L 105.363281 134.222656 M 114.820312 143.515625 C 113.777344 144.902344 112.511719 145.621094 111.023438 145.667969 C 110.773438 145.667969 110.574219 145.867188 110.425781 146.265625 L 110.203125 147.15625 C 110.203125 147.601562 110.304688 147.824219 110.5 147.824219 C 112.039062 148.070312 112.957031 148.542969 113.257812 149.238281 L 113.257812 149.832031 C 113.007812 150.179688 112.4375 150.449219 111.542969 150.648438 L 109.011719 150.871094 L 108.417969 150.871094 C 108.167969 146.3125 107.671875 141.457031 106.925781 136.304688 L 106.851562 135.339844 L 108.042969 135.191406 C 109.582031 135.191406 111.074219 135.710938 112.511719 136.75 C 113.753906 137.644531 114.820312 138.757812 115.714844 140.09375 C 115.960938 141.285156 115.664062 142.425781 114.820312 143.515625 M 102.609375 135.414062 C 103.203125 135.957031 103.550781 137.59375 103.652344 140.316406 L 103.652344 140.914062 L 102.757812 141.210938 L 102.460938 138.460938 L 102.609375 135.414062 M 100.003906 137.34375 C 100.648438 137.890625 100.996094 139.527344 101.042969 142.25 L 101.042969 142.84375 L 100.152344 143.140625 L 100.078125 143.140625 L 99.851562 140.316406 L 99.851562 138.90625 L 100.003906 137.34375 M 97.46875 144.628906 L 97.171875 144.628906 L 96.949219 142.027344 L 96.949219 140.542969 L 97.097656 138.980469 C 97.84375 139.574219 98.238281 141.257812 98.289062 144.035156 L 98.289062 144.554688 L 97.46875 144.628906 M 107.375 151.613281 C 107.125 152.160156 107.101562 152.554688 107.300781 152.804688 L 107.375 152.953125 C 107.820312 161.425781 107.375 169.277344 106.035156 176.511719 L 101.34375 197.839844 L 100.746094 198.210938 L 98.4375 198.957031 L 95.011719 199.253906 L 88.757812 198.734375 L 83.695312 197.765625 L 83.621094 197.765625 L 83.992188 188.847656 L 84.214844 177.179688 C 84.167969 172.820312 83.746094 168.957031 82.949219 165.585938 L 86.671875 159.121094 L 86.972656 158.378906 L 86.898438 157.484375 L 86.671875 157.335938 L 86.300781 157.558594 L 85.929688 158.082031 C 83.84375 161.398438 81.90625 165.265625 80.121094 169.675781 C 78.832031 172.894531 77.515625 176.734375 76.175781 181.195312 L 73.492188 189.515625 C 72.402344 192.441406 71.210938 194.96875 69.917969 197.097656 L 69.917969 197.171875 C 68.726562 199.203125 67.785156 200.46875 67.089844 200.960938 C 65.699219 201.953125 63.515625 202.449219 60.539062 202.449219 L 59.496094 202.449219 C 57.113281 202.300781 55.003906 201.753906 53.164062 200.8125 L 52.941406 200.738281 C 51.304688 199.898438 50.261719 199.179688 49.816406 198.585938 C 49.21875 197.839844 49.34375 195.933594 50.1875 192.863281 L 50.410156 192.191406 L 53.089844 182.234375 L 55.546875 173.242188 C 57.335938 166.058594 58.699219 159.417969 59.644531 153.324219 C 61.132812 153.917969 62.347656 154.214844 63.292969 154.214844 C 64.730469 154.214844 65.601562 153.523438 65.898438 152.136719 L 66.121094 149.90625 C 70.492188 151.539062 75.753906 152.359375 81.90625 152.359375 L 84.738281 152.285156 C 84.886719 152.878906 85.183594 153.375 85.632812 153.769531 C 85.929688 154.117188 86.375 154.289062 86.972656 154.289062 L 90.246094 153.695312 L 92.703125 153.027344 C 93.945312 152.628906 94.742188 151.789062 95.085938 150.5 C 100.5 148.617188 104.320312 146.039062 106.554688 142.769531 L 107.375 151.613281 M 92.480469 136.082031 L 92.480469 136.824219 L 92.40625 149.089844 L 92.257812 149.089844 L 87.566406 150.128906 L 87.492188 149.386719 L 87.566406 145.371094 L 89.28125 144.332031 C 89.726562 143.835938 89.976562 143.292969 90.023438 142.695312 C 90.074219 141.855469 89.851562 141.382812 89.355469 141.285156 L 89.207031 141.285156 L 88.3125 141.507812 L 88.015625 141.65625 L 87.566406 141.730469 L 87.640625 137.046875 L 87.789062 136.972656 L 92.183594 136.007812 L 92.480469 136.082031 M 88.238281 143.441406 C 87.890625 143.636719 87.640625 143.738281 87.492188 143.738281 L 87.417969 143.738281 L 86.824219 143.589844 L 87.941406 143.367188 L 88.164062 143.214844 L 88.832031 143.066406 L 88.90625 143.066406 L 88.832031 143.140625 L 88.3125 143.367188 L 88.238281 143.441406 M 82.503906 143.960938 L 81.90625 141.433594 L 80.941406 140.617188 C 80.445312 140.617188 79.996094 141.183594 79.601562 142.324219 C 79.351562 142.917969 79.179688 143.515625 79.078125 144.109375 L 78.929688 147.527344 L 79.003906 148.9375 L 79.078125 149.238281 C 79.328125 149.878906 79.898438 150.203125 80.792969 150.203125 C 81.585938 150.203125 82.082031 149.929688 82.28125 149.386719 L 82.578125 147.75 L 82.578125 146.5625 L 82.503906 143.960938 M 84.515625 151.019531 L 82.132812 151.019531 C 75.777344 151.019531 70.441406 150.179688 66.121094 148.492188 L 66.046875 146.339844 L 65.972656 142.84375 L 66.421875 136.230469 C 70.839844 138.210938 75.800781 139.203125 81.3125 139.203125 L 84.589844 139.054688 L 84.515625 148.640625 L 84.515625 151.019531 M 77.21875 140.242188 C 76.71875 140.242188 76.273438 140.839844 75.875 142.027344 L 75.355469 143.8125 L 75.207031 147.230469 L 75.207031 148.640625 L 75.28125 148.9375 C 75.578125 149.582031 76.148438 149.90625 76.992188 149.90625 C 77.789062 149.90625 78.308594 149.632812 78.558594 149.089844 L 78.78125 147.378906 L 78.78125 146.191406 C 78.832031 143.960938 78.605469 142.300781 78.109375 141.210938 L 77.21875 140.242188 M 80.640625 142.25 C 80.839844 142.25 81.0625 142.746094 81.3125 143.738281 L 81.609375 146.933594 L 81.609375 148.566406 L 81.164062 148.417969 L 80.941406 148.417969 C 80.394531 148.320312 80.046875 148.148438 79.898438 147.898438 L 79.972656 144.257812 L 80.34375 142.546875 L 80.640625 142.25 M 76.917969 141.953125 L 77.589844 143.367188 L 77.886719 146.636719 L 77.886719 148.195312 L 77.367188 148.121094 L 77.140625 148.121094 C 76.597656 147.972656 76.273438 147.800781 76.175781 147.601562 L 76.175781 144.035156 C 76.175781 143.390625 76.324219 142.796875 76.621094 142.25 L 76.917969 141.953125 M 68.878906 140.914062 L 69.101562 140.617188 L 69.84375 142.027344 L 70.070312 145.222656 L 70.070312 146.859375 L 69.621094 146.785156 L 69.398438 146.785156 C 68.851562 146.683594 68.503906 146.511719 68.355469 146.265625 L 68.429688 142.621094 C 68.429688 142.027344 68.578125 141.457031 68.878906 140.914062 M 70.367188 139.796875 C 70.117188 139.203125 69.796875 138.90625 69.398438 138.90625 C 68.902344 138.90625 68.457031 139.5 68.058594 140.691406 L 67.535156 142.472656 L 67.386719 145.890625 L 67.460938 147.601562 C 67.761719 148.246094 68.355469 148.566406 69.25 148.566406 C 69.996094 148.566406 70.515625 148.296875 70.8125 147.75 L 71.035156 146.039062 L 71.035156 144.851562 L 70.960938 142.324219 L 70.367188 139.796875 M 73.269531 139.722656 C 72.773438 139.722656 72.328125 140.316406 71.929688 141.507812 C 71.683594 142.101562 71.507812 142.695312 71.410156 143.292969 L 71.261719 146.710938 L 71.261719 148.121094 L 71.335938 148.492188 C 71.683594 149.089844 72.277344 149.386719 73.121094 149.386719 C 73.816406 149.386719 74.335938 149.113281 74.683594 148.566406 L 74.910156 146.933594 L 74.910156 145.667969 C 74.957031 143.390625 74.734375 141.730469 74.238281 140.691406 L 73.269531 139.722656 M 72.972656 141.433594 L 73.644531 142.84375 L 73.941406 146.113281 L 73.941406 147.75 L 73.492188 147.601562 L 73.269531 147.601562 C 72.722656 147.503906 72.378906 147.328125 72.226562 147.082031 L 72.300781 143.441406 C 72.300781 142.894531 72.453125 142.324219 72.75 141.730469 L 72.972656 141.433594 M 85.558594 200.441406 L 94.269531 201.632812 C 96.550781 201.632812 98.4375 201.285156 99.929688 200.589844 L 101.195312 199.847656 L 101.417969 199.921875 C 105.984375 201.605469 109.085938 203.390625 110.726562 205.273438 L 110.5 205.347656 L 107.152344 206.238281 L 105.214844 206.3125 C 102.683594 206.3125 100.175781 205.964844 97.695312 205.273438 C 95.164062 204.53125 92.878906 203.515625 90.84375 202.226562 L 90.769531 202.226562 L 90.398438 202.375 L 90.097656 202.746094 L 89.054688 203.414062 L 88.832031 203.339844 C 87.691406 203.191406 86.699219 202.894531 85.855469 202.449219 C 85.109375 202.050781 84.710938 201.335938 84.664062 200.292969 L 85.558594 200.441406 M 5.0625 36.496094 L 7.371094 34.265625 L 10.050781 32.628906 L 10.125 32.628906 L 13.105469 31.441406 C 13.402344 32.136719 13.925781 32.703125 14.667969 33.152344 C 15.464844 33.597656 16.308594 33.820312 17.199219 33.820312 L 18.09375 33.746094 C 19.582031 33.496094 20.550781 32.851562 21 31.8125 C 21.542969 31.714844 22.039062 31.539062 22.488281 31.292969 C 23.777344 31.640625 25.019531 32.183594 26.210938 32.929688 C 27.5 33.769531 28.492188 34.710938 29.1875 35.75 C 29.734375 36.542969 30.132812 37.4375 30.378906 38.425781 C 30.679688 39.515625 30.703125 40.507812 30.453125 41.398438 C 29.808594 42.441406 27.949219 43.234375 24.871094 43.777344 L 22.859375 43.851562 C 20.277344 43.851562 18.042969 43.480469 16.160156 42.738281 L 16.828125 41.625 C 17.078125 40.78125 17.125 39.9375 16.976562 39.097656 L 21.816406 38.277344 L 22.039062 38.277344 L 24.648438 38.648438 L 25.914062 39.097656 L 26.210938 39.023438 L 26.433594 39.023438 L 26.507812 38.949219 L 27.179688 38.800781 L 27.402344 38.800781 L 28.296875 38.648438 C 28.691406 38.5 28.839844 38.179688 28.742188 37.683594 L 28.371094 37.015625 L 28.148438 36.496094 L 27.253906 35.378906 L 26.433594 34.636719 C 25.988281 34.191406 25.464844 33.894531 24.871094 33.746094 L 24.496094 33.746094 L 22.710938 34.191406 L 21.296875 35.453125 L 21.222656 35.453125 L 21.222656 35.527344 L 21.148438 35.601562 L 20.921875 37.015625 L 20.921875 37.3125 L 16.53125 38.054688 L 15.414062 36.496094 L 15.339844 36.496094 L 15.265625 36.421875 L 14.222656 35.75 L 11.839844 35.230469 L 10.722656 35.453125 L 9.457031 36.941406 L 9.457031 37.460938 C 8.910156 37.957031 8.636719 38.625 8.636719 39.46875 L 8.785156 39.839844 L 8.488281 40.507812 C 7.398438 40.757812 6.578125 41.175781 6.03125 41.773438 L 5.882812 42.21875 L 6.105469 42.589844 L 6.402344 42.664062 C 6.601562 42.664062 6.75 42.613281 6.851562 42.515625 C 7.199219 42.019531 7.867188 41.699219 8.859375 41.546875 L 9.160156 41.699219 L 9.53125 41.773438 L 10.425781 41.625 L 11.242188 41.472656 L 11.914062 41.699219 L 12.285156 42.070312 L 13.328125 42.960938 L 15.042969 43.480469 L 15.117188 43.480469 L 15.414062 43.554688 L 17.5 44.296875 C 16.703125 44.894531 15.859375 45.363281 14.96875 45.710938 C 13.230469 46.402344 11.195312 46.75 8.859375 46.75 L 5.957031 46.304688 C 4.964844 45.957031 4.246094 45.539062 3.796875 45.042969 C 3.25 43.753906 3.128906 42.242188 3.425781 40.507812 C 3.722656 38.921875 4.269531 37.585938 5.0625 36.496094 M 40.058594 14.273438 C 39.910156 14.820312 39.515625 15.363281 38.867188 15.910156 C 38.222656 16.453125 37.554688 16.777344 36.859375 16.875 L 35.890625 16.652344 L 35.742188 16.503906 L 34.996094 15.015625 L 34.996094 14.273438 C 34.996094 12.589844 34.921875 11.523438 34.773438 11.078125 L 34.253906 10.261719 L 34.105469 10.113281 L 33.0625 9.816406 L 32.835938 9.742188 L 32.464844 9.664062 L 32.167969 9.515625 L 31.945312 9.441406 L 31.496094 8.699219 L 31.199219 7.957031 L 30.976562 7.289062 L 30.605469 6.320312 L 30.378906 6.023438 L 30.304688 5.875 L 26.957031 5.800781 L 25.6875 6.023438 L 25.539062 5.875 L 24.871094 4.761719 L 23.902344 3.347656 L 23.53125 2.976562 C 22.933594 2.480469 22.265625 2.308594 21.519531 2.457031 C 20.921875 2.554688 20.378906 2.851562 19.882812 3.347656 C 19.285156 3.945312 19.1875 4.984375 19.582031 6.46875 L 19.433594 6.46875 L 17.574219 6.542969 C 16.480469 6.644531 15.488281 6.992188 14.59375 7.585938 C 15.734375 4.660156 17.152344 2.753906 18.839844 1.863281 L 21.074219 0.96875 L 23.457031 0.671875 L 24.871094 0.449219 L 26.582031 0.078125 L 28.296875 0.449219 L 30.230469 1.195312 L 31.347656 1.417969 L 31.871094 1.34375 L 33.359375 1.789062 L 33.507812 1.9375 C 33.757812 2.183594 33.78125 2.953125 33.582031 4.242188 L 33.507812 5.652344 L 33.804688 6.246094 L 33.953125 6.394531 C 34.105469 6.542969 34.351562 6.644531 34.699219 6.691406 L 34.773438 6.765625 L 35.816406 7.214844 L 36.113281 7.511719 C 36.410156 8.007812 36.609375 9.144531 36.710938 10.929688 L 36.710938 11.078125 C 36.757812 11.871094 37.03125 12.515625 37.527344 13.011719 L 37.753906 13.160156 C 38.148438 13.554688 38.671875 13.730469 39.316406 13.679688 C 39.613281 13.679688 39.9375 13.554688 40.285156 13.308594 L 40.058594 14.273438 M 37.304688 17.914062 C 37.253906 18.261719 36.984375 18.683594 36.488281 19.179688 C 36.335938 19.328125 35.988281 19.527344 35.445312 19.773438 L 35.816406 17.617188 L 36.933594 17.691406 L 37.15625 17.765625 L 37.304688 17.914062 M 23.007812 4.242188 L 23.230469 4.316406 L 24.421875 5.800781 L 25.019531 6.691406 L 25.242188 6.765625 C 25.589844 7.113281 26.011719 7.238281 26.507812 7.140625 C 27.75 6.890625 28.71875 7.066406 29.414062 7.660156 L 29.5625 7.882812 L 30.082031 8.476562 L 30.976562 9.964844 L 31.199219 10.1875 C 31.496094 10.382812 31.796875 10.53125 32.09375 10.632812 L 32.242188 10.632812 L 33.582031 11.078125 L 33.804688 11.300781 L 33.953125 14.125 L 34.027344 15.089844 C 34.179688 15.933594 34.425781 16.527344 34.773438 16.875 C 34.527344 19.105469 33.953125 21.0625 33.0625 22.746094 C 31.671875 25.621094 29.5625 27.773438 26.730469 29.210938 C 23.902344 30.648438 21.097656 31.019531 18.316406 30.328125 C 16.925781 30.03125 15.761719 29.410156 14.816406 28.46875 L 14.222656 27.726562 C 13.328125 26.4375 12.707031 24.777344 12.359375 22.746094 C 12.0625 20.765625 12.085938 18.707031 12.433594 16.578125 L 12.433594 16.429688 L 12.285156 16.429688 L 11.839844 15.984375 L 11.019531 14.644531 L 11.242188 13.011719 C 11.589844 12.070312 12.3125 11.597656 13.402344 11.597656 L 13.476562 11.671875 L 13.925781 11.375 L 14 11.152344 L 13.328125 10.929688 L 13.402344 10.707031 L 13.851562 10.558594 L 16.753906 9.890625 L 18.09375 9.890625 C 18.441406 9.9375 18.664062 9.839844 18.765625 9.589844 L 18.765625 9.070312 L 18.617188 8.921875 L 16.605469 8.847656 L 15.191406 9.21875 L 17.351562 8.699219 L 19.582031 8.550781 C 19.78125 8.550781 19.929688 8.476562 20.03125 8.328125 L 19.957031 7.734375 L 19.882812 7.660156 L 19.65625 7.585938 L 17.125 7.734375 L 14.96875 8.402344 C 15.761719 7.808594 16.679688 7.484375 17.722656 7.4375 L 20.328125 7.511719 C 20.578125 7.558594 20.75 7.484375 20.847656 7.289062 L 20.773438 6.765625 C 20.328125 5.628906 20.453125 4.808594 21.148438 4.316406 C 21.347656 4.117188 21.667969 3.992188 22.113281 3.945312 L 23.007812 4.242188 M 16.457031 11.671875 L 16.308594 11.671875 L 15.488281 11.597656 C 15.140625 11.648438 14.890625 11.796875 14.742188 12.042969 L 14.667969 12.714844 L 14.742188 12.789062 C 14.992188 12.9375 15.191406 12.886719 15.339844 12.640625 L 16.234375 12.488281 C 16.382812 12.539062 16.503906 12.464844 16.605469 12.265625 L 16.53125 11.746094 L 16.457031 11.671875 M 17.574219 10.410156 L 17.425781 10.261719 L 16.082031 10.261719 L 15.117188 10.484375 L 14.371094 10.929688 L 14.445312 11.300781 L 15.339844 11.300781 L 16.082031 11.152344 L 16.902344 11.226562 L 17.125 11.226562 L 17.648438 10.929688 C 17.796875 10.78125 17.773438 10.605469 17.574219 10.410156 M 20.550781 18.882812 L 16.234375 20.960938 L 16.160156 21.035156 C 16.007812 21.382812 16.035156 21.65625 16.234375 21.855469 L 17.050781 21.929688 L 17.945312 21.484375 C 18.589844 23.214844 19.359375 24.578125 20.253906 25.570312 L 20.625 25.941406 L 21.445312 26.609375 L 24.050781 27.578125 L 26.210938 27.800781 C 26.0625 28.046875 26.085938 28.269531 26.285156 28.46875 L 26.957031 28.839844 L 28.667969 26.238281 L 28.816406 26.089844 L 28.667969 25.792969 L 28.519531 25.644531 L 28.148438 25.421875 L 28.070312 25.496094 L 27.996094 25.496094 L 27.699219 25.71875 L 27.625 25.644531 L 27.625 25.792969 L 27.402344 26.164062 L 27.328125 26.164062 L 25.914062 25.570312 C 24.769531 25.175781 23.976562 24.777344 23.53125 24.382812 L 20.328125 20.738281 L 20.253906 20.664062 L 20.253906 20.515625 L 21.074219 19.847656 L 21.148438 19.773438 L 21.148438 19.625 L 21 19.179688 L 20.625 18.957031 L 20.550781 18.882812 M 26.359375 9.070312 L 24.722656 9.21875 C 23.777344 9.46875 23.207031 9.789062 23.007812 10.1875 L 23.007812 10.484375 L 22.933594 10.558594 L 23.15625 10.78125 L 24.347656 11.078125 L 25.09375 11.078125 L 25.988281 11.375 L 26.65625 11.449219 C 27.003906 11.300781 27.179688 10.832031 27.179688 10.039062 L 26.878906 9.292969 L 26.359375 9.070312 M 23.902344 12.488281 L 22.5625 13.457031 L 21.964844 14.644531 L 22.191406 15.613281 L 22.339844 15.761719 L 23.457031 15.835938 C 23.851562 15.734375 24.199219 15.4375 24.496094 14.941406 L 25.019531 13.679688 L 24.722656 12.640625 L 23.902344 12.488281 M 27.699219 15.460938 L 27.253906 16.058594 L 26.507812 18.4375 L 26.136719 20.441406 L 25.914062 20.664062 L 24.648438 21.035156 L 24.125 21.558594 L 24.199219 22.078125 L 24.421875 22.449219 L 24.648438 22.671875 L 25.613281 22.894531 L 27.402344 22.300781 C 27.847656 22.152344 28.070312 21.828125 28.070312 21.335938 L 28.148438 18.4375 L 28.519531 16.578125 C 28.617188 16.179688 28.519531 15.835938 28.222656 15.539062 L 28.148438 15.460938 L 27.699219 15.460938 M 33.507812 15.015625 L 32.539062 15.089844 L 32.167969 15.3125 L 31.945312 15.984375 L 32.167969 16.652344 L 33.582031 17.914062 L 34.402344 17.988281 C 34.601562 17.890625 34.648438 17.644531 34.550781 17.246094 L 33.804688 15.386719 L 33.507812 15.015625 M 29.933594 19.328125 L 29.414062 20.589844 L 29.710938 21.484375 L 29.859375 21.632812 L 30.605469 21.78125 C 31.101562 21.679688 31.546875 21.335938 31.945312 20.738281 C 32.242188 20.34375 32.390625 19.945312 32.390625 19.550781 C 32.441406 19.105469 32.339844 18.757812 32.09375 18.511719 L 30.976562 18.4375 L 29.933594 19.328125 M 22.113281 27.726562 L 20.550781 26.460938 L 19.882812 26.238281 L 19.210938 26.460938 L 18.988281 27.132812 L 19.210938 27.800781 L 19.359375 27.949219 C 19.808594 28.394531 20.277344 28.667969 20.773438 28.765625 L 21.742188 28.839844 C 22.039062 28.839844 22.265625 28.714844 22.414062 28.46875 L 22.113281 27.726562 M 26.136719 36.125 C 25.34375 36.125 24.769531 36.320312 24.421875 36.71875 L 24.199219 37.164062 L 24.273438 37.386719 L 22.414062 37.164062 L 21.964844 37.164062 L 22.191406 35.976562 L 23.230469 35.15625 L 24.496094 34.785156 L 24.648438 34.785156 L 24.796875 34.859375 L 23.15625 35.527344 L 23.082031 35.601562 L 23.007812 35.902344 L 23.15625 36.347656 L 23.605469 36.496094 L 23.976562 36.421875 L 25.464844 35.902344 L 26.210938 36.050781 L 26.507812 36.199219 L 26.136719 36.125 M 26.878906 37.386719 L 27.625 37.757812 L 26.730469 37.757812 L 25.988281 37.980469 L 25.09375 37.609375 L 25.167969 37.609375 L 25.464844 37.460938 L 26.210938 37.3125 L 26.878906 37.386719 M 10.945312 36.644531 L 11.242188 36.421875 L 11.839844 36.273438 L 13.777344 36.71875 L 14.59375 37.238281 L 15.785156 38.875 L 15.933594 40.0625 L 15.785156 41.324219 C 15.636719 41.722656 15.363281 42.070312 14.96875 42.367188 L 13.851562 41.996094 L 13.105469 41.398438 L 12.585938 40.878906 L 11.242188 40.433594 L 10.203125 40.582031 L 10.125 40.582031 L 9.605469 40.65625 L 10.203125 39.839844 L 11.316406 39.617188 L 12.0625 39.691406 L 12.0625 39.765625 L 12.359375 39.839844 L 12.882812 39.542969 L 12.957031 39.542969 L 12.957031 39.246094 L 12.882812 38.949219 L 12.660156 38.726562 L 12.660156 38.648438 L 11.316406 38.351562 L 9.828125 38.726562 L 10.277344 38.203125 C 10.625 37.90625 11.019531 37.757812 11.46875 37.757812 L 12.808594 38.054688 L 13.03125 38.128906 C 13.328125 38.128906 13.527344 38.007812 13.625 37.757812 L 13.625 37.535156 L 13.550781 37.3125 L 13.253906 36.941406 L 11.46875 36.570312 L 10.945312 36.644531 M 18.839844 44.597656 L 22.859375 44.96875 L 24.273438 44.894531 L 24.050781 48.3125 L 24.199219 50.46875 C 24.746094 53.390625 25.144531 56.238281 25.390625 59.011719 L 25.839844 66.371094 L 25.09375 66.59375 C 24.050781 66.992188 22.710938 67.214844 21.074219 67.261719 L 20.476562 67.1875 C 20.328125 65.109375 20.054688 63.300781 19.65625 61.761719 L 17.871094 56.785156 L 19.136719 54.40625 L 19.136719 53.960938 L 18.914062 53.664062 L 18.691406 53.589844 C 18.441406 53.589844 18.269531 53.6875 18.167969 53.886719 L 16.753906 56.5625 L 16.753906 56.636719 L 16.382812 57.15625 L 16.53125 57.082031 L 14.074219 63.398438 L 13.550781 65.332031 L 13.550781 65.40625 L 12.957031 67.484375 C 12.757812 68.128906 12.507812 68.5 12.210938 68.601562 L 11.914062 68.675781 L 11.839844 68.75 L 11.765625 68.75 L 11.691406 68.824219 L 11.691406 68.898438 L 11.617188 68.824219 L 11.46875 68.824219 L 11.394531 68.898438 L 11.019531 68.898438 L 10.796875 68.972656 L 10.125 68.972656 L 9.902344 68.824219 L 9.902344 68.898438 L 8.042969 68.378906 L 7.667969 68.082031 L 7.445312 64.660156 C 7.445312 62.085938 7.621094 59.730469 7.96875 57.601562 L 8.785156 53.738281 L 9.828125 47.792969 C 12.0625 47.691406 14.046875 47.269531 15.785156 46.527344 L 18.765625 44.671875 L 18.839844 44.597656 M 63.664062 55.816406 L 64.113281 56.191406 L 65.675781 57.304688 L 63.515625 60.871094 L 62.769531 58.566406 C 62.671875 57.378906 62.847656 56.535156 63.292969 56.039062 L 63.589844 55.816406 L 63.664062 55.816406 M 29.636719 67.785156 C 29.089844 67.4375 28.171875 66.964844 26.878906 66.371094 L 26.878906 65.332031 C 28.667969 65.828125 30.058594 66.445312 31.050781 67.1875 C 32.042969 67.882812 32.539062 68.601562 32.539062 69.34375 C 32.539062 70.730469 30.902344 71.96875 27.625 73.058594 C 24.398438 74.101562 20.601562 74.621094 16.234375 74.621094 L 9.902344 74.175781 L 9.902344 74.101562 L 9.753906 73.207031 L 11.617188 72.242188 L 12.660156 71.054688 L 12.957031 69.417969 C 13.550781 68.972656 14.097656 67.707031 14.59375 65.628906 L 14.59375 65.554688 L 14.96875 64.066406 L 16.234375 64.066406 L 19.0625 64.140625 L 19.359375 67.410156 L 19.808594 68.082031 L 20.179688 69.195312 C 20.527344 69.691406 21.171875 69.9375 22.113281 69.9375 L 22.710938 69.9375 L 23.15625 69.566406 L 23.902344 69.863281 L 26.65625 70.160156 L 27.105469 70.160156 L 29.339844 69.789062 C 29.882812 69.542969 30.183594 69.246094 30.230469 68.898438 C 30.28125 68.5 30.082031 68.128906 29.636719 67.785156 M 32.539062 73.355469 C 32.539062 74.792969 30.902344 76.03125 27.625 77.074219 C 24.398438 78.164062 20.601562 78.707031 16.234375 78.707031 L 12.734375 78.484375 C 12.386719 77.246094 11.863281 76.230469 11.167969 75.4375 L 16.234375 75.734375 C 19.957031 75.734375 23.28125 75.339844 26.210938 74.546875 C 29.1875 73.804688 31.296875 72.8125 32.539062 71.574219 L 32.539062 73.355469 M 34.921875 76.328125 L 34.921875 76.628906 L 32.6875 78.039062 L 31.050781 78.929688 L 29.785156 80.34375 L 29.414062 81.976562 L 30.007812 83.390625 L 30.082031 83.6875 C 31.175781 85.816406 31.546875 87.503906 31.199219 88.742188 C 30.703125 87.355469 29.710938 86.289062 28.222656 85.546875 L 28.148438 85.546875 L 28.070312 85.472656 C 27.773438 85.472656 27.550781 85.867188 27.402344 86.660156 C 27.253906 87.207031 27.300781 87.527344 27.550781 87.625 L 29.414062 89.113281 C 31 90.996094 30.53125 93.078125 27.996094 95.355469 C 25.515625 97.535156 22.761719 98.625 19.730469 98.625 C 17.5 98.625 15.414062 97.980469 13.476562 96.691406 C 11.34375 95.304688 10.277344 94.019531 10.277344 92.828125 C 10.277344 91.789062 10.574219 90.746094 11.167969 89.707031 C 11.816406 88.617188 12.558594 87.800781 13.402344 87.253906 L 15.785156 86.585938 L 16.308594 86.585938 C 17.796875 86.882812 18.664062 87.304688 18.914062 87.847656 C 19.011719 88.097656 18.964844 88.394531 18.765625 88.742188 L 18.316406 89.335938 L 16.53125 91.269531 L 16.160156 92.085938 L 16.160156 93.050781 L 16.382812 93.199219 L 16.679688 93.125 L 18.539062 91.195312 C 20.328125 89.609375 22.164062 88.816406 24.050781 88.816406 L 25.09375 88.964844 L 25.167969 88.964844 C 25.417969 88.964844 25.613281 88.765625 25.765625 88.371094 L 25.988281 87.550781 L 25.6875 86.808594 L 24.496094 86.660156 C 22.960938 86.660156 21.445312 87.132812 19.957031 88.070312 C 20.105469 87.132812 19.90625 86.3125 19.359375 85.621094 C 18.664062 84.777344 17.695312 84.355469 16.457031 84.355469 L 15.265625 84.429688 L 13.105469 85.621094 C 13.253906 83.6875 13.253906 81.953125 13.105469 80.417969 C 14.992188 81.359375 16.679688 81.828125 18.167969 81.828125 C 19.210938 81.828125 20.179688 81.605469 21.074219 81.160156 C 22.113281 80.617188 23.007812 79.945312 23.753906 79.152344 C 26.832031 78.660156 29.238281 77.890625 30.976562 76.851562 C 32.761719 75.808594 33.65625 74.644531 33.65625 73.355469 C 34.203125 73.605469 34.550781 74.074219 34.699219 74.769531 L 34.921875 76.328125 M 7 69.269531 L 6.179688 69.195312 L 4.691406 69.566406 C 3.648438 70.011719 2.753906 70.757812 2.011719 71.796875 C 0.671875 70.953125 0 70.136719 0 69.34375 C 0 68.550781 0.570312 67.785156 1.710938 67.039062 L 6.402344 65.183594 L 6.777344 68.601562 L 7.074219 69.046875 L 7 69.269531 M 9.308594 76.628906 C 11.394531 78.164062 12.113281 81.679688 11.46875 87.179688 C 10.671875 88.222656 10.050781 89.335938 9.605469 90.523438 C 8.464844 90.03125 7.496094 89.285156 6.703125 88.296875 C 5.957031 87.253906 5.460938 86.066406 5.210938 84.726562 C 4.765625 82.449219 4.765625 80.46875 5.210938 78.78125 L 6.179688 77 C 6.726562 76.453125 7.320312 76.179688 7.96875 76.179688 L 9.308594 76.628906 M 7.074219 74.695312 C 5.4375 75.636719 4.292969 77.148438 3.648438 79.226562 C 3.101562 81.0625 3.003906 82.992188 3.351562 85.023438 C 2.457031 84.429688 1.785156 83.464844 1.339844 82.125 C 0.992188 80.886719 0.867188 79.601562 0.96875 78.261719 C 1.167969 76.082031 1.589844 74.371094 2.234375 73.132812 L 2.308594 72.984375 L 2.382812 72.761719 C 3.027344 71.773438 3.824219 71.25 4.765625 71.203125 L 4.988281 71.203125 C 6.675781 71.203125 7.742188 72.21875 8.191406 74.25 L 7.074219 74.695312 M 0 71.574219 L 1.339844 72.6875 L 0.445312 74.621094 L 0 73.355469 L 0 71.574219 M 62.398438 143.367188 C 62.347656 143.859375 62.027344 144.109375 61.429688 144.109375 L 58.453125 143.214844 L 55.996094 141.878906 L 55.472656 141.507812 L 54.355469 140.765625 L 54.433594 140.167969 L 54.507812 139.945312 C 57.734375 138.3125 60.164062 136.328125 61.804688 134 L 65.304688 136.15625 C 63.566406 138.1875 62.597656 140.589844 62.398438 143.367188 M 65.601562 137.046875 L 65.230469 143.738281 L 65.304688 145.59375 L 65.453125 146.933594 L 65.453125 147.304688 C 65.601562 150.773438 65.351562 152.605469 64.707031 152.804688 L 63.589844 152.953125 L 61.953125 152.730469 C 59.074219 151.9375 57.359375 151.019531 56.8125 149.980469 C 55.96875 148.34375 55.597656 146.089844 55.699219 143.214844 L 57.261719 144.035156 L 57.558594 144.183594 C 59.296875 145.074219 60.5625 145.519531 61.355469 145.519531 C 61.851562 145.519531 62.226562 145.398438 62.472656 145.148438 C 62.871094 144.753906 63.09375 144.035156 63.144531 142.992188 C 63.292969 140.8125 64.113281 138.832031 65.601562 137.046875 M 53.539062 141.0625 L 53.613281 141.730469 L 55.027344 142.769531 C 54.828125 145.296875 54.929688 147.28125 55.324219 148.714844 C 55.871094 150.699219 56.988281 152.085938 58.675781 152.878906 L 58.75 152.878906 L 58.675781 153.027344 L 57.558594 159.714844 C 55.921875 157.882812 53.859375 156.050781 51.378906 154.214844 C 49.292969 152.730469 47.183594 151.441406 45.050781 150.351562 L 44.601562 150.054688 C 42.417969 149.011719 40.828125 148.097656 39.835938 147.304688 C 38.347656 146.164062 37.304688 144.800781 36.710938 143.214844 L 39.242188 143.292969 L 46.761719 142.546875 C 49.292969 142.003906 51.625 141.257812 53.761719 140.316406 L 53.539062 141.0625 M 50.484375 201.78125 C 53.164062 203.710938 56.195312 204.679688 59.570312 204.679688 L 63.515625 204.234375 C 63.117188 205.917969 61.902344 207.402344 59.867188 208.691406 C 58.128906 209.832031 56.316406 210.550781 54.433594 210.847656 L 53.761719 210.921875 C 52.769531 210.921875 51.851562 210.523438 51.007812 209.730469 C 50.261719 209.039062 49.714844 208.171875 49.367188 207.132812 C 49.019531 206.140625 48.921875 205.199219 49.070312 204.308594 C 49.21875 203.265625 49.691406 202.425781 50.484375 201.78125 "/>
</g>
</svg>
