<?xml version="1.0" encoding="UTF-8"?>
<svg xmlns="http://www.w3.org/2000/svg" xmlns:xlink="http://www.w3.org/1999/xlink" width="128pt" height="158pt" viewBox="0 0 128 158" version="1.1">
<g id="surface1">
<path style=" stroke:none;fill-rule:nonzero;fill:rgb(9.803922%,9.803922%,9.803922%);fill-opacity:1;" d="M 122.140625 157.535156 L 9.914062 146.734375 C 6.007812 146.433594 4.054688 144.183594 4.054688 139.984375 C 4.054688 135.78125 6.007812 133.832031 9.914062 134.132812 L 122.140625 144.933594 C 126.046875 145.535156 128 147.785156 128 151.683594 C 128 155.886719 126.046875 157.835938 122.140625 157.535156 "/>
<path style=" stroke:none;fill-rule:nonzero;fill:rgb(100%,100%,100%);fill-opacity:1;" d="M 7.660156 12.167969 C 12.769531 4.066406 19.078125 0.015625 26.589844 0.015625 C 33.804688 0.015625 39.960938 4.066406 45.070312 12.167969 C 50.179688 20.265625 52.730469 30.019531 52.730469 41.421875 C 52.730469 52.820312 50.179688 62.421875 45.070312 70.222656 C 39.960938 78.324219 33.804688 82.375 26.589844 82.375 C 19.078125 82.375 12.769531 78.324219 7.660156 70.222656 C 2.554688 62.421875 0 52.820312 0 41.421875 C 0 30.019531 2.554688 20.265625 7.660156 12.167969 M 43.269531 57.621094 C 43.269531 53.121094 41.613281 49.222656 38.308594 45.921875 C 35.304688 42.621094 31.398438 40.96875 26.589844 40.96875 C 21.785156 40.96875 17.726562 42.621094 14.421875 45.921875 C 11.117188 49.222656 9.464844 53.121094 9.464844 57.621094 C 9.464844 62.421875 11.117188 66.472656 14.421875 69.773438 C 17.726562 73.074219 21.785156 74.722656 26.589844 74.722656 C 31.398438 74.722656 35.304688 73.074219 38.308594 69.773438 C 41.613281 66.472656 43.269531 62.421875 43.269531 57.621094 "/>
<path style=" stroke:none;fill-rule:nonzero;fill:rgb(9.803922%,9.803922%,9.803922%);fill-opacity:1;" d="M 43.269531 57.621094 C 43.269531 62.421875 41.613281 66.472656 38.308594 69.773438 C 35.304688 73.074219 31.398438 74.722656 26.589844 74.722656 C 21.785156 74.722656 17.726562 73.074219 14.421875 69.773438 C 11.117188 66.472656 9.464844 62.421875 9.464844 57.621094 C 9.464844 53.121094 11.117188 49.222656 14.421875 45.921875 C 17.726562 42.621094 21.785156 40.96875 26.589844 40.96875 C 31.398438 40.96875 35.304688 42.621094 38.308594 45.921875 C 41.613281 49.222656 43.269531 53.121094 43.269531 57.621094 "/>
<path style=" stroke:none;fill-rule:nonzero;fill:rgb(100%,100%,100%);fill-opacity:1;" d="M 79.324219 12.167969 C 84.433594 4.066406 90.742188 0.015625 98.253906 0.015625 C 105.464844 0.015625 111.625 4.066406 116.730469 12.167969 C 121.839844 20.265625 124.394531 30.019531 124.394531 41.421875 C 124.394531 52.820312 121.839844 62.421875 116.730469 70.222656 C 111.625 78.324219 105.464844 82.375 98.253906 82.375 C 90.742188 82.375 84.433594 78.324219 79.324219 70.222656 C 74.214844 62.421875 71.660156 52.820312 71.660156 41.421875 C 71.660156 30.019531 74.214844 20.265625 79.324219 12.167969 M 98.253906 40.96875 C 93.445312 40.96875 89.390625 42.621094 86.085938 45.921875 C 82.78125 49.222656 81.125 53.121094 81.125 57.621094 C 81.125 62.421875 82.78125 66.472656 86.085938 69.773438 C 89.390625 73.074219 93.445312 74.722656 98.253906 74.722656 C 103.0625 74.722656 106.96875 73.074219 109.972656 69.773438 C 113.277344 66.472656 114.929688 62.421875 114.929688 57.621094 C 114.929688 53.121094 113.277344 49.222656 109.972656 45.921875 C 106.96875 42.621094 103.0625 40.96875 98.253906 40.96875 "/>
<path style=" stroke:none;fill-rule:nonzero;fill:rgb(9.803922%,9.803922%,9.803922%);fill-opacity:1;" d="M 98.253906 40.96875 C 103.0625 40.96875 106.96875 42.621094 109.972656 45.921875 C 113.277344 49.222656 114.929688 53.121094 114.929688 57.621094 C 114.929688 62.421875 113.277344 66.472656 109.972656 69.773438 C 106.96875 73.074219 103.0625 74.722656 98.253906 74.722656 C 93.445312 74.722656 89.390625 73.074219 86.085938 69.773438 C 82.78125 66.472656 81.125 62.421875 81.125 57.621094 C 81.125 53.121094 82.78125 49.222656 86.085938 45.921875 C 89.390625 42.621094 93.445312 40.96875 98.253906 40.96875 "/>
</g>
</svg>
