<?xml version="1.0" encoding="UTF-8"?>
<svg xmlns="http://www.w3.org/2000/svg" xmlns:xlink="http://www.w3.org/1999/xlink" width="129pt" height="59pt" viewBox="0 0 129 59" version="1.1">
<g id="surface1">
<path style=" stroke:none;fill-rule:nonzero;fill:rgb(100%,100%,100%);fill-opacity:1;" d="M 110.097656 0.507812 L 110.035156 1.25 L 110.71875 0.980469 L 110.847656 1.359375 L 110.136719 1.507812 L 110.644531 2.097656 L 110.300781 2.347656 L 109.878906 1.664062 L 109.445312 2.347656 L 109.101562 2.097656 L 109.621094 1.507812 L 108.917969 1.359375 L 109.054688 0.972656 L 109.730469 1.25 L 109.664062 0.507812 L 110.097656 0.507812 M 107.507812 0.507812 L 107.441406 1.25 L 108.125 0.980469 L 108.253906 1.359375 L 107.542969 1.507812 L 108.050781 2.097656 L 107.710938 2.347656 L 107.285156 1.664062 L 106.851562 2.347656 L 106.507812 2.097656 L 107.027344 1.507812 L 106.324219 1.359375 L 106.464844 0.972656 L 107.136719 1.25 L 107.074219 0.507812 L 107.507812 0.507812 M 112.691406 0.507812 L 112.628906 1.25 L 113.3125 0.980469 L 113.441406 1.359375 L 112.730469 1.507812 L 113.238281 2.097656 L 112.894531 2.347656 L 112.472656 1.664062 L 112.039062 2.347656 L 111.695312 2.097656 L 112.210938 1.507812 L 111.511719 1.359375 L 111.648438 0.972656 L 112.324219 1.25 L 112.257812 0.507812 L 112.691406 0.507812 M 115.285156 0.507812 L 115.222656 1.25 L 115.90625 0.980469 L 116.035156 1.359375 L 115.324219 1.507812 L 115.832031 2.097656 L 115.488281 2.347656 L 115.066406 1.664062 L 114.628906 2.347656 L 114.289062 2.097656 L 114.804688 1.507812 L 114.105469 1.359375 L 114.242188 0.972656 L 114.917969 1.25 L 114.851562 0.507812 L 115.285156 0.507812 M 116.882812 2.097656 L 117.398438 1.507812 L 116.699219 1.359375 L 116.835938 0.972656 L 117.511719 1.25 L 117.445312 0.507812 L 117.878906 0.507812 L 117.816406 1.25 L 118.496094 0.980469 L 118.625 1.359375 L 117.917969 1.507812 L 118.421875 2.097656 L 118.082031 2.347656 L 117.65625 1.664062 L 117.222656 2.347656 L 116.882812 2.097656 M 120.472656 0.507812 L 120.40625 1.25 L 121.089844 0.980469 L 121.21875 1.359375 L 120.507812 1.507812 L 121.015625 2.097656 L 120.675781 2.347656 L 120.25 1.664062 L 119.816406 2.347656 L 119.476562 2.097656 L 119.992188 1.507812 L 119.292969 1.359375 L 119.429688 0.972656 L 120.101562 1.25 L 120.039062 0.507812 L 120.472656 0.507812 M 94.539062 0.507812 L 94.476562 1.25 L 95.15625 0.980469 L 95.289062 1.359375 L 94.578125 1.507812 L 95.085938 2.097656 L 94.742188 2.347656 L 94.316406 1.664062 L 93.882812 2.347656 L 93.542969 2.097656 L 94.058594 1.507812 L 93.359375 1.359375 L 93.496094 0.972656 L 94.171875 1.25 L 94.105469 0.507812 L 94.539062 0.507812 M 92.695312 1.359375 L 91.984375 1.507812 L 92.492188 2.097656 L 92.148438 2.347656 L 91.726562 1.664062 L 91.292969 2.347656 L 90.949219 2.097656 L 91.464844 1.507812 L 90.765625 1.359375 L 90.902344 0.972656 L 91.578125 1.25 L 91.511719 0.507812 L 91.945312 0.507812 L 91.882812 1.25 L 92.566406 0.980469 L 92.695312 1.359375 M 97.132812 0.507812 L 97.070312 1.25 L 97.75 0.980469 L 97.878906 1.359375 L 97.167969 1.507812 L 97.675781 2.097656 L 97.335938 2.347656 L 96.910156 1.664062 L 96.476562 2.347656 L 96.136719 2.097656 L 96.652344 1.507812 L 95.953125 1.359375 L 96.089844 0.972656 L 96.765625 1.25 L 96.699219 0.507812 L 97.132812 0.507812 M 98.683594 0.972656 L 99.355469 1.25 L 99.292969 0.507812 L 99.726562 0.507812 L 99.660156 1.25 L 100.34375 0.980469 L 100.472656 1.359375 L 99.761719 1.507812 L 100.269531 2.097656 L 99.929688 2.347656 L 99.503906 1.664062 L 99.070312 2.347656 L 98.730469 2.097656 L 99.246094 1.507812 L 98.546875 1.359375 L 98.683594 0.972656 M 102.320312 0.507812 L 102.253906 1.25 L 102.9375 0.980469 L 103.066406 1.359375 L 102.355469 1.507812 L 102.863281 2.097656 L 102.523438 2.347656 L 102.097656 1.664062 L 101.664062 2.347656 L 101.324219 2.097656 L 101.839844 1.507812 L 101.136719 1.359375 L 101.277344 0.972656 L 101.949219 1.25 L 101.886719 0.507812 L 102.320312 0.507812 M 103.917969 2.097656 L 104.433594 1.507812 L 103.730469 1.359375 L 103.871094 0.972656 L 104.542969 1.25 L 104.480469 0.507812 L 104.914062 0.507812 L 104.847656 1.25 L 105.53125 0.980469 L 105.660156 1.359375 L 104.949219 1.507812 L 105.457031 2.097656 L 105.117188 2.347656 L 104.691406 1.664062 L 104.257812 2.347656 L 103.917969 2.097656 M 81.988281 0.816406 C 82.136719 0.949219 82.210938 1.15625 82.210938 1.433594 L 82.210938 3.167969 C 82.210938 3.441406 82.136719 3.644531 81.988281 3.777344 C 81.839844 3.914062 81.648438 3.980469 81.40625 3.980469 L 81.304688 3.980469 C 81.066406 3.980469 80.871094 3.914062 80.722656 3.777344 C 80.578125 3.644531 80.503906 3.441406 80.503906 3.167969 L 80.503906 1.433594 C 80.503906 1.15625 80.578125 0.949219 80.722656 0.816406 C 80.871094 0.683594 81.066406 0.621094 81.304688 0.621094 L 81.40625 0.621094 C 81.648438 0.621094 81.839844 0.683594 81.988281 0.816406 M 81.019531 1.089844 C 80.945312 1.164062 80.910156 1.25 80.910156 1.351562 L 80.910156 2.652344 L 81.804688 1.351562 C 81.804688 1.25 81.765625 1.164062 81.691406 1.089844 C 81.625 1.019531 81.53125 0.980469 81.40625 0.980469 L 81.304688 0.980469 C 81.183594 0.980469 81.085938 1.019531 81.019531 1.089844 M 86.585938 0.621094 C 86.832031 0.621094 87.019531 0.679688 87.15625 0.796875 C 87.296875 0.914062 87.367188 1.105469 87.367188 1.367188 L 87.367188 1.671875 C 87.367188 1.925781 87.28125 2.109375 87.109375 2.226562 C 87.214844 2.28125 87.296875 2.359375 87.351562 2.457031 C 87.398438 2.558594 87.425781 2.675781 87.425781 2.820312 L 87.425781 3.226562 C 87.425781 3.488281 87.363281 3.679688 87.238281 3.796875 C 87.109375 3.921875 86.902344 3.980469 86.613281 3.980469 L 86.472656 3.980469 C 86.183594 3.980469 85.976562 3.921875 85.847656 3.796875 C 85.722656 3.679688 85.660156 3.488281 85.660156 3.226562 L 85.660156 2.820312 C 85.660156 2.675781 85.6875 2.558594 85.734375 2.457031 C 85.789062 2.359375 85.867188 2.28125 85.964844 2.226562 C 85.800781 2.109375 85.71875 1.925781 85.71875 1.671875 L 85.71875 1.367188 C 85.71875 1.105469 85.789062 0.914062 85.929688 0.796875 C 86.066406 0.679688 86.253906 0.621094 86.492188 0.621094 L 86.585938 0.621094 M 86.953125 1.324219 C 86.953125 1.207031 86.925781 1.121094 86.871094 1.0625 C 86.816406 1.007812 86.730469 0.980469 86.613281 0.980469 L 86.4375 0.980469 C 86.324219 0.988281 86.25 1.019531 86.207031 1.074219 C 86.15625 1.128906 86.132812 1.210938 86.132812 1.324219 L 86.132812 1.71875 C 86.132812 1.824219 86.164062 1.90625 86.222656 1.96875 C 86.285156 2.03125 86.359375 2.0625 86.445312 2.070312 L 86.613281 2.070312 C 86.703125 2.070312 86.785156 2.039062 86.851562 1.976562 C 86.917969 1.917969 86.953125 1.832031 86.953125 1.71875 L 86.953125 1.324219 M 86.179688 2.523438 C 86.109375 2.585938 86.078125 2.667969 86.078125 2.773438 L 86.078125 3.269531 C 86.078125 3.386719 86.101562 3.476562 86.152344 3.539062 C 86.199219 3.59375 86.28125 3.621094 86.390625 3.621094 L 86.648438 3.621094 C 86.773438 3.621094 86.863281 3.59375 86.925781 3.539062 C 86.980469 3.484375 87.007812 3.394531 87.007812 3.269531 L 87.007812 2.773438 C 87.007812 2.667969 86.976562 2.585938 86.90625 2.523438 C 86.847656 2.460938 86.761719 2.429688 86.660156 2.429688 L 86.425781 2.429688 C 86.324219 2.429688 86.238281 2.460938 86.179688 2.523438 M 62.71875 0.046875 L 63.144531 0.046875 L 63.355469 0.296875 L 63.523438 0.609375 L 63.640625 1.027344 L 63.679688 1.554688 L 63.679688 3.050781 L 63.640625 3.585938 L 63.523438 3.992188 L 63.355469 4.316406 L 63.144531 4.554688 L 62.71875 4.554688 L 62.988281 4.214844 L 63.160156 3.898438 L 63.246094 3.539062 L 63.273438 3.058594 L 63.273438 1.542969 L 63.246094 1.0625 L 63.160156 0.703125 L 62.988281 0.390625 L 62.71875 0.046875 M 67.785156 0.621094 L 68.359375 3.558594 L 68.976562 0.621094 L 69.390625 0.621094 L 68.632812 3.980469 L 68.070312 3.980469 L 67.359375 0.621094 L 67.785156 0.621094 M 70.183594 0.621094 L 71.746094 0.621094 L 71.746094 1.082031 L 70.90625 3.980469 L 70.472656 3.980469 L 71.347656 0.980469 L 70.183594 0.980469 L 70.183594 0.621094 M 75.988281 0.621094 L 76.453125 0.621094 L 76.453125 3.621094 L 76.96875 3.621094 L 76.96875 3.980469 L 75.410156 3.980469 L 75.410156 3.621094 L 76.035156 3.621094 L 76.035156 1 L 75.363281 1.25 L 75.363281 0.859375 L 75.988281 0.621094 M 73.8125 3.503906 L 73.8125 3.980469 L 73.332031 3.980469 L 73.332031 3.503906 L 73.8125 3.503906 M 84.183594 3.980469 L 83.707031 3.980469 L 83.707031 3.503906 L 84.183594 3.503906 L 84.183594 3.980469 M 81.40625 3.621094 C 81.53125 3.621094 81.625 3.585938 81.691406 3.511719 C 81.765625 3.4375 81.804688 3.351562 81.804688 3.253906 L 81.804688 1.960938 L 80.910156 3.253906 C 80.910156 3.351562 80.945312 3.4375 81.019531 3.511719 C 81.085938 3.585938 81.183594 3.621094 81.304688 3.621094 L 81.40625 3.621094 M 79 3.980469 L 78.519531 3.980469 L 78.519531 3.503906 L 79 3.503906 L 79 3.980469 M 123.066406 0.507812 L 123 1.25 L 123.683594 0.980469 L 123.8125 1.359375 L 123.101562 1.507812 L 123.609375 2.097656 L 123.269531 2.347656 L 122.84375 1.664062 L 122.410156 2.347656 L 122.070312 2.097656 L 122.585938 1.507812 L 121.882812 1.359375 L 122.023438 0.972656 L 122.695312 1.25 L 122.632812 0.507812 L 123.066406 0.507812 M 124.617188 0.972656 L 125.289062 1.25 L 125.226562 0.507812 L 125.660156 0.507812 L 125.59375 1.25 L 126.277344 0.980469 L 126.40625 1.359375 L 125.695312 1.507812 L 126.203125 2.097656 L 125.863281 2.347656 L 125.4375 1.664062 L 125.003906 2.347656 L 124.664062 2.097656 L 125.179688 1.507812 L 124.476562 1.359375 L 124.617188 0.972656 M 128.253906 0.507812 L 128.1875 1.25 L 128.871094 0.980469 L 129 1.359375 L 128.289062 1.507812 L 128.796875 2.097656 L 128.457031 2.347656 L 128.03125 1.664062 L 127.597656 2.347656 L 127.253906 2.097656 L 127.773438 1.507812 L 127.070312 1.359375 L 127.210938 0.972656 L 127.882812 1.25 L 127.820312 0.507812 L 128.253906 0.507812 M 1.179688 0.507812 L 1.117188 1.25 L 1.800781 0.980469 L 1.929688 1.359375 L 1.21875 1.507812 L 1.726562 2.097656 L 1.382812 2.347656 L 0.960938 1.664062 L 0.527344 2.347656 L 0.183594 2.097656 L 0.703125 1.507812 L 0 1.359375 L 0.136719 0.972656 L 0.8125 1.25 L 0.746094 0.507812 L 1.179688 0.507812 M 1.734375 22.75 L 1.007812 22.75 C 0.882812 22.75 0.785156 22.78125 0.710938 22.851562 C 0.644531 22.925781 0.609375 23.011719 0.609375 23.109375 L 0.609375 25.011719 C 0.609375 25.109375 0.644531 25.195312 0.710938 25.269531 C 0.785156 25.335938 0.882812 25.371094 1.007812 25.371094 L 1.734375 25.371094 L 1.734375 25.742188 L 1.050781 25.742188 C 0.773438 25.742188 0.5625 25.671875 0.414062 25.539062 C 0.269531 25.402344 0.195312 25.199219 0.195312 24.929688 L 0.195312 23.191406 C 0.195312 22.921875 0.269531 22.71875 0.414062 22.582031 C 0.5625 22.445312 0.773438 22.378906 1.050781 22.378906 L 1.734375 22.378906 L 1.734375 22.75 M 0.636719 27.820312 L 0.636719 30.8125 L 1.707031 30.8125 L 1.707031 31.179688 L 0.222656 31.179688 L 0.222656 27.820312 L 0.636719 27.820312 M 1.644531 35.058594 L 0.582031 35.058594 L 0.582031 36.269531 L 1.761719 36.269531 L 1.761719 36.621094 L 0.167969 36.621094 L 0.167969 33.257812 L 1.761719 33.257812 L 1.761719 33.609375 L 0.582031 33.609375 L 0.582031 34.707031 L 1.644531 34.707031 L 1.644531 35.058594 M 0.542969 39.429688 L 0.542969 39.945312 L 1.015625 39.945312 C 1.285156 39.945312 1.488281 40.007812 1.625 40.128906 C 1.753906 40.246094 1.816406 40.445312 1.816406 40.722656 L 1.816406 41.246094 C 1.816406 41.382812 1.796875 41.5 1.753906 41.597656 C 1.714844 41.703125 1.664062 41.789062 1.597656 41.855469 C 1.523438 41.925781 1.441406 41.976562 1.347656 42.015625 L 1.0625 42.058594 L 0.894531 42.058594 L 0.601562 42.003906 L 0.359375 41.855469 L 0.195312 41.597656 L 0.136719 41.246094 L 0.136719 39.511719 C 0.136719 39.242188 0.210938 39.039062 0.351562 38.902344 C 0.5 38.765625 0.710938 38.699219 0.988281 38.699219 L 1.585938 38.699219 L 1.585938 39.066406 L 0.941406 39.066406 C 0.816406 39.066406 0.71875 39.101562 0.644531 39.167969 C 0.578125 39.242188 0.542969 39.328125 0.542969 39.429688 M 1.0625 40.304688 L 0.542969 40.304688 L 0.542969 41.339844 C 0.542969 41.433594 0.574219 41.515625 0.636719 41.589844 C 0.703125 41.664062 0.796875 41.699219 0.914062 41.699219 L 1.035156 41.699219 C 1.15625 41.699219 1.25 41.664062 1.308594 41.589844 C 1.378906 41.515625 1.410156 41.433594 1.410156 41.339844 L 1.410156 40.628906 C 1.410156 40.53125 1.382812 40.453125 1.328125 40.398438 C 1.273438 40.335938 1.183594 40.304688 1.0625 40.304688 M 0.804688 44.136719 C 1.074219 44.136719 1.28125 44.195312 1.421875 44.3125 C 1.5625 44.429688 1.632812 44.621094 1.632812 44.886719 L 1.632812 45.191406 C 1.632812 45.320312 1.609375 45.429688 1.558594 45.523438 C 1.515625 45.617188 1.453125 45.691406 1.367188 45.746094 C 1.46875 45.800781 1.546875 45.878906 1.597656 45.976562 C 1.652344 46.074219 1.679688 46.195312 1.679688 46.335938 L 1.679688 46.742188 C 1.679688 47.007812 1.613281 47.199219 1.484375 47.316406 C 1.363281 47.4375 1.152344 47.5 0.859375 47.5 L 0.25 47.5 L 0.25 47.140625 L 0.90625 47.140625 C 1.027344 47.140625 1.117188 47.113281 1.171875 47.058594 C 1.234375 47 1.265625 46.910156 1.265625 46.789062 L 1.265625 46.289062 C 1.265625 46.183594 1.230469 46.101562 1.164062 46.039062 C 1.101562 45.980469 1.019531 45.949219 0.914062 45.949219 L 0.398438 45.949219 L 0.398438 45.589844 L 0.867188 45.589844 C 0.960938 45.589844 1.039062 45.558594 1.109375 45.496094 C 1.179688 45.433594 1.21875 45.347656 1.21875 45.238281 L 1.21875 44.839844 C 1.21875 44.722656 1.1875 44.636719 1.125 44.582031 C 1.070312 44.527344 0.984375 44.5 0.867188 44.5 L 0.25 44.5 L 0.25 44.136719 L 0.804688 44.136719 M 0.730469 49.578125 L 1.484375 52.578125 L 1.484375 49.578125 L 1.875 49.578125 L 1.875 52.941406 L 1.191406 52.941406 L 0.433594 49.929688 L 0.433594 52.941406 L 0.046875 52.941406 L 0.046875 49.578125 L 0.730469 49.578125 M 0.636719 55.019531 L 0.636719 58.011719 L 1.707031 58.011719 L 1.707031 58.378906 L 0.222656 58.378906 L 0.222656 55.019531 L 0.636719 55.019531 M 48.304688 0.796875 C 48.445312 0.914062 48.515625 1.105469 48.515625 1.367188 L 48.515625 1.914062 C 48.515625 2.179688 48.445312 2.371094 48.304688 2.496094 C 48.160156 2.617188 47.957031 2.679688 47.695312 2.679688 L 47.195312 2.679688 L 47.195312 3.980469 L 46.78125 3.980469 L 46.78125 0.621094 L 47.683594 0.621094 C 47.949219 0.621094 48.15625 0.679688 48.304688 0.796875 M 48.007812 1.0625 C 47.953125 1.007812 47.863281 0.980469 47.742188 0.980469 L 47.195312 0.980469 L 47.195312 2.3125 L 47.742188 2.3125 C 47.863281 2.3125 47.953125 2.28125 48.007812 2.226562 C 48.0625 2.171875 48.089844 2.085938 48.089844 1.96875 L 48.089844 1.324219 C 48.089844 1.207031 48.0625 1.121094 48.007812 1.0625 M 49.457031 2.300781 L 51.015625 2.300781 L 51.015625 2.660156 L 49.457031 2.660156 L 49.457031 2.300781 M 52.925781 0.621094 C 53.203125 0.621094 53.417969 0.6875 53.5625 0.824219 C 53.71875 0.960938 53.792969 1.164062 53.792969 1.433594 L 53.792969 3.167969 C 53.792969 3.441406 53.71875 3.644531 53.5625 3.777344 C 53.417969 3.914062 53.203125 3.980469 52.925781 3.980469 L 52.734375 3.980469 C 52.457031 3.980469 52.242188 3.914062 52.085938 3.777344 C 51.941406 3.644531 51.867188 3.441406 51.867188 3.167969 L 51.867188 1.433594 C 51.867188 1.164062 51.941406 0.960938 52.085938 0.824219 C 52.242188 0.6875 52.457031 0.621094 52.734375 0.621094 L 52.925781 0.621094 M 52.6875 0.988281 C 52.5625 0.988281 52.464844 1.023438 52.390625 1.089844 C 52.324219 1.164062 52.289062 1.25 52.289062 1.351562 L 52.289062 3.253906 C 52.289062 3.351562 52.324219 3.4375 52.390625 3.511719 C 52.464844 3.578125 52.5625 3.613281 52.6875 3.613281 L 52.972656 3.613281 C 53.097656 3.613281 53.195312 3.578125 53.269531 3.511719 C 53.335938 3.4375 53.371094 3.351562 53.371094 3.253906 L 53.371094 1.351562 C 53.371094 1.25 53.335938 1.164062 53.269531 1.089844 C 53.195312 1.023438 53.097656 0.988281 52.972656 0.988281 L 52.6875 0.988281 M 57.863281 0.296875 L 58.078125 0.046875 L 58.492188 0.046875 L 58.234375 0.390625 L 58.058594 0.703125 L 57.964844 1.0625 L 57.949219 1.542969 L 57.949219 3.058594 L 57.964844 3.539062 L 58.058594 3.898438 L 58.234375 4.214844 L 58.492188 4.554688 L 58.078125 4.554688 L 57.863281 4.316406 L 57.699219 3.992188 L 57.578125 3.585938 L 57.53125 3.050781 L 57.53125 1.554688 L 57.578125 1.027344 L 57.699219 0.609375 L 57.863281 0.296875 M 55.132812 1.089844 C 55.058594 1.164062 55.023438 1.25 55.023438 1.351562 L 55.023438 1.710938 C 55.023438 1.808594 55.054688 1.890625 55.113281 1.960938 C 55.183594 2.027344 55.269531 2.0625 55.371094 2.0625 L 55.511719 2.0625 C 55.734375 2.0625 55.90625 2.121094 56.039062 2.246094 C 56.167969 2.375 56.230469 2.574219 56.230469 2.847656 L 56.230469 3.167969 C 56.230469 3.441406 56.15625 3.644531 56.007812 3.777344 C 55.863281 3.914062 55.648438 3.980469 55.371094 3.980469 L 54.691406 3.980469 L 54.691406 3.613281 L 55.417969 3.613281 C 55.542969 3.613281 55.636719 3.578125 55.703125 3.511719 C 55.777344 3.4375 55.816406 3.355469 55.816406 3.261719 L 55.816406 2.753906 C 55.816406 2.660156 55.792969 2.585938 55.742188 2.53125 C 55.699219 2.472656 55.625 2.441406 55.519531 2.441406 L 55.371094 2.441406 C 55.144531 2.441406 54.960938 2.371094 54.820312 2.238281 C 54.675781 2.101562 54.605469 1.894531 54.605469 1.617188 L 54.605469 1.441406 C 54.605469 1.164062 54.679688 0.960938 54.828125 0.824219 C 54.976562 0.6875 55.1875 0.621094 55.464844 0.621094 L 56.15625 0.621094 L 56.15625 0.988281 L 55.417969 0.988281 C 55.300781 0.988281 55.207031 1.023438 55.132812 1.089844 M 61.167969 0.796875 C 61.308594 0.914062 61.378906 1.105469 61.378906 1.367188 L 61.378906 1.832031 C 61.378906 2.019531 61.34375 2.171875 61.269531 2.28125 C 61.191406 2.386719 61.082031 2.460938 60.945312 2.503906 L 61.613281 3.980469 L 61.160156 3.980469 L 60.539062 2.585938 L 60.070312 2.585938 L 60.070312 3.980469 L 59.644531 3.980469 L 59.644531 0.621094 L 60.550781 0.621094 C 60.816406 0.621094 61.019531 0.679688 61.167969 0.796875 M 60.875 1.0625 C 60.816406 1.007812 60.726562 0.980469 60.605469 0.980469 L 60.070312 0.980469 L 60.070312 2.226562 L 60.605469 2.226562 C 60.726562 2.226562 60.816406 2.199219 60.875 2.144531 C 60.929688 2.089844 60.957031 2 60.957031 1.875 L 60.957031 1.324219 C 60.957031 1.207031 60.929688 1.121094 60.875 1.0625 M 34.894531 0.507812 L 34.828125 1.25 L 35.511719 0.980469 L 35.640625 1.359375 L 34.929688 1.507812 L 35.4375 2.097656 L 35.097656 2.347656 L 34.671875 1.664062 L 34.238281 2.347656 L 33.898438 2.097656 L 34.414062 1.507812 L 33.710938 1.359375 L 33.851562 0.972656 L 34.523438 1.25 L 34.460938 0.507812 L 34.894531 0.507812 M 32.300781 0.507812 L 32.234375 1.25 L 32.917969 0.980469 L 33.046875 1.359375 L 32.335938 1.507812 L 32.84375 2.097656 L 32.503906 2.347656 L 32.078125 1.664062 L 31.644531 2.347656 L 31.304688 2.097656 L 31.820312 1.507812 L 31.121094 1.359375 L 31.257812 0.972656 L 31.929688 1.25 L 31.867188 0.507812 L 32.300781 0.507812 M 36.492188 2.097656 L 37.007812 1.507812 L 36.304688 1.359375 L 36.445312 0.972656 L 37.117188 1.25 L 37.054688 0.507812 L 37.488281 0.507812 L 37.421875 1.25 L 38.105469 0.980469 L 38.234375 1.359375 L 37.523438 1.507812 L 38.03125 2.097656 L 37.691406 2.347656 L 37.265625 1.664062 L 36.832031 2.347656 L 36.492188 2.097656 M 42.5 0.621094 C 42.761719 0.621094 42.96875 0.679688 43.117188 0.796875 C 43.257812 0.914062 43.328125 1.105469 43.328125 1.367188 L 43.328125 1.914062 C 43.328125 2.179688 43.257812 2.371094 43.117188 2.496094 C 42.976562 2.617188 42.773438 2.679688 42.507812 2.679688 L 42.007812 2.679688 L 42.007812 3.980469 L 41.59375 3.980469 L 41.59375 0.621094 L 42.5 0.621094 M 42.820312 1.0625 C 42.765625 1.007812 42.675781 0.980469 42.554688 0.980469 L 42.007812 0.980469 L 42.007812 2.3125 L 42.554688 2.3125 C 42.675781 2.3125 42.765625 2.28125 42.820312 2.226562 C 42.875 2.171875 42.90625 2.085938 42.90625 1.96875 L 42.90625 1.324219 C 42.90625 1.207031 42.875 1.121094 42.820312 1.0625 M 44.410156 0.621094 L 45.683594 0.621094 L 45.683594 0.972656 L 45.257812 0.972656 L 45.257812 3.632812 L 45.683594 3.632812 L 45.683594 3.980469 L 44.410156 3.980469 L 44.410156 3.632812 L 44.84375 3.632812 L 44.84375 0.972656 L 44.410156 0.972656 L 44.410156 0.621094 M 19.335938 0.507812 L 19.269531 1.25 L 19.953125 0.980469 L 20.082031 1.359375 L 19.371094 1.507812 L 19.878906 2.097656 L 19.539062 2.347656 L 19.113281 1.664062 L 18.679688 2.347656 L 18.335938 2.097656 L 18.855469 1.507812 L 18.152344 1.359375 L 18.292969 0.972656 L 18.964844 1.25 L 18.902344 0.507812 L 19.335938 0.507812 M 16.945312 2.347656 L 16.519531 1.664062 L 16.085938 2.347656 L 15.746094 2.097656 L 16.261719 1.507812 L 15.558594 1.359375 L 15.699219 0.972656 L 16.371094 1.25 L 16.308594 0.507812 L 16.742188 0.507812 L 16.675781 1.25 L 17.359375 0.980469 L 17.488281 1.359375 L 16.777344 1.507812 L 17.285156 2.097656 L 16.945312 2.347656 M 21.925781 0.507812 L 21.863281 1.25 L 22.546875 0.980469 L 22.675781 1.359375 L 21.964844 1.507812 L 22.472656 2.097656 L 22.128906 2.347656 L 21.707031 1.664062 L 21.273438 2.347656 L 20.929688 2.097656 L 21.449219 1.507812 L 20.746094 1.359375 L 20.882812 0.972656 L 21.558594 1.25 L 21.492188 0.507812 L 21.925781 0.507812 M 23.523438 2.097656 L 24.039062 1.507812 L 23.339844 1.359375 L 23.476562 0.972656 L 24.152344 1.25 L 24.085938 0.507812 L 24.519531 0.507812 L 24.457031 1.25 L 25.140625 0.980469 L 25.269531 1.359375 L 24.558594 1.507812 L 25.066406 2.097656 L 24.722656 2.347656 L 24.300781 1.664062 L 23.867188 2.347656 L 23.523438 2.097656 M 27.113281 0.507812 L 27.050781 1.25 L 27.734375 0.980469 L 27.863281 1.359375 L 27.152344 1.507812 L 27.660156 2.097656 L 27.316406 2.347656 L 26.894531 1.664062 L 26.457031 2.347656 L 26.117188 2.097656 L 26.632812 1.507812 L 25.933594 1.359375 L 26.070312 0.972656 L 26.746094 1.25 L 26.679688 0.507812 L 27.113281 0.507812 M 29.707031 0.507812 L 29.644531 1.25 L 30.324219 0.980469 L 30.453125 1.359375 L 29.746094 1.507812 L 30.253906 2.097656 L 29.910156 2.347656 L 29.484375 1.664062 L 29.050781 2.347656 L 28.710938 2.097656 L 29.226562 1.507812 L 28.527344 1.359375 L 28.664062 0.972656 L 29.339844 1.25 L 29.273438 0.507812 L 29.707031 0.507812 M 2.777344 2.097656 L 3.292969 1.507812 L 2.59375 1.359375 L 2.730469 0.972656 L 3.40625 1.25 L 3.339844 0.507812 L 3.773438 0.507812 L 3.710938 1.25 L 4.394531 0.980469 L 4.523438 1.359375 L 3.8125 1.507812 L 4.320312 2.097656 C 4.207031 2.183594 4.09375 2.265625 3.976562 2.347656 L 3.554688 1.664062 L 3.121094 2.347656 L 2.777344 2.097656 M 5.324219 0.972656 L 6 1.25 L 5.933594 0.507812 L 6.367188 0.507812 L 6.304688 1.25 L 6.984375 0.980469 L 7.117188 1.359375 L 6.40625 1.507812 L 6.914062 2.097656 L 6.570312 2.347656 L 6.144531 1.664062 L 5.710938 2.347656 L 5.371094 2.097656 L 5.886719 1.507812 L 5.1875 1.359375 L 5.324219 0.972656 M 8.960938 0.507812 L 8.898438 1.25 L 9.578125 0.980469 L 9.707031 1.359375 L 9 1.507812 L 9.503906 2.097656 L 9.164062 2.347656 L 8.738281 1.664062 L 8.304688 2.347656 L 7.964844 2.097656 L 8.480469 1.507812 L 7.78125 1.359375 L 7.917969 0.972656 L 8.59375 1.25 L 8.527344 0.507812 L 8.960938 0.507812 M 11.074219 1.507812 L 10.375 1.359375 L 10.511719 0.972656 L 11.183594 1.25 L 11.121094 0.507812 L 11.554688 0.507812 L 11.488281 1.25 L 12.171875 0.980469 L 12.300781 1.359375 L 11.589844 1.507812 L 12.097656 2.097656 L 11.757812 2.347656 L 11.332031 1.664062 L 10.898438 2.347656 L 10.558594 2.097656 L 11.074219 1.507812 M 14.148438 0.507812 L 14.082031 1.25 L 14.765625 0.980469 L 14.894531 1.359375 L 14.183594 1.507812 L 14.691406 2.097656 L 14.351562 2.347656 L 13.925781 1.664062 L 13.492188 2.347656 L 13.152344 2.097656 L 13.667969 1.507812 L 12.964844 1.359375 L 13.105469 0.972656 L 13.777344 1.25 L 13.714844 0.507812 L 14.148438 0.507812 M 30.289062 23.238281 L 30.289062 24.9375 C 30.289062 25.207031 30.214844 25.410156 30.066406 25.539062 C 29.917969 25.671875 29.730469 25.742188 29.503906 25.742188 L 29.402344 25.742188 C 29.167969 25.742188 28.976562 25.671875 28.832031 25.539062 C 28.683594 25.410156 28.609375 25.207031 28.609375 24.9375 L 28.609375 23.238281 C 28.609375 22.972656 28.683594 22.777344 28.832031 22.648438 C 28.976562 22.519531 29.167969 22.453125 29.402344 22.453125 L 29.503906 22.453125 C 29.730469 22.453125 29.917969 22.519531 30.066406 22.648438 C 30.214844 22.777344 30.289062 22.972656 30.289062 23.238281 M 31.203125 22.453125 L 32.726562 22.453125 L 32.726562 22.90625 L 31.894531 25.742188 L 31.488281 25.742188 L 32.335938 22.804688 L 31.203125 22.804688 L 31.203125 22.453125 M 29.402344 22.804688 C 29.28125 22.804688 29.183594 22.839844 29.117188 22.90625 C 29.050781 22.980469 29.015625 23.066406 29.015625 23.164062 L 29.015625 24.4375 L 29.882812 23.164062 C 29.882812 23.066406 29.851562 22.980469 29.789062 22.90625 C 29.714844 22.839844 29.621094 22.804688 29.503906 22.804688 L 29.402344 22.804688 M 29.117188 25.28125 C 29.183594 25.351562 29.28125 25.390625 29.402344 25.390625 L 29.503906 25.390625 C 29.621094 25.390625 29.714844 25.351562 29.789062 25.28125 C 29.851562 25.207031 29.882812 25.121094 29.882812 25.019531 L 29.882812 23.765625 L 29.015625 25.019531 C 29.015625 25.121094 29.050781 25.207031 29.117188 25.28125 M 26.753906 22.453125 C 27.03125 22.453125 27.242188 22.519531 27.382812 22.648438 C 27.523438 22.777344 27.59375 22.972656 27.59375 23.238281 L 27.59375 23.449219 L 27.574219 23.753906 L 27.519531 23.976562 L 27.417969 24.171875 L 27.269531 24.402344 L 26.578125 25.371094 L 27.695312 25.371094 L 27.695312 25.742188 L 26.136719 25.742188 L 26.136719 25.324219 L 26.894531 24.253906 L 27.050781 24.023438 L 27.132812 23.855469 L 27.1875 23.691406 L 27.195312 23.488281 L 27.195312 23.164062 C 27.195312 23.066406 27.160156 22.980469 27.085938 22.90625 C 27.019531 22.839844 26.921875 22.804688 26.800781 22.804688 L 26.238281 22.804688 L 26.238281 22.453125 L 26.753906 22.453125 M 26.71875 27.820312 L 27.179688 27.820312 L 27.179688 30.820312 L 27.695312 30.820312 L 27.695312 31.179688 L 26.136719 31.179688 L 26.136719 30.820312 L 26.761719 30.820312 L 26.761719 28.199219 L 26.089844 28.445312 L 26.089844 28.058594 L 26.71875 27.820312 M 22.683594 22.75 L 21.917969 22.75 L 21.917969 25.742188 L 21.503906 25.742188 L 21.503906 22.75 L 20.738281 22.75 L 20.738281 22.378906 L 22.683594 22.378906 L 22.683594 22.75 M 20.027344 22.378906 L 20.027344 25.742188 L 19.609375 25.742188 L 19.609375 24.199219 L 18.625 24.199219 L 18.625 25.742188 L 18.207031 25.742188 L 18.207031 22.378906 L 18.625 22.378906 L 18.625 23.839844 L 19.609375 23.839844 L 19.609375 22.378906 L 20.027344 22.378906 M 17.222656 22.75 L 16.492188 22.75 C 16.375 22.75 16.28125 22.78125 16.207031 22.851562 C 16.132812 22.925781 16.09375 23.011719 16.09375 23.109375 L 16.09375 25.011719 C 16.09375 25.109375 16.132812 25.195312 16.207031 25.269531 C 16.28125 25.335938 16.375 25.371094 16.492188 25.371094 L 16.960938 25.371094 L 16.960938 24.335938 L 16.546875 24.335938 L 16.546875 23.976562 L 17.359375 23.976562 L 17.359375 25.742188 L 16.539062 25.742188 C 16.261719 25.742188 16.050781 25.671875 15.902344 25.539062 C 15.753906 25.402344 15.679688 25.199219 15.679688 24.929688 L 15.679688 23.191406 C 15.679688 22.921875 15.753906 22.71875 15.902344 22.582031 C 16.050781 22.445312 16.261719 22.378906 16.539062 22.378906 L 17.222656 22.378906 L 17.222656 22.75 M 20.117188 27.820312 L 19.363281 31.179688 L 18.800781 31.179688 L 18.089844 27.820312 L 18.511719 27.820312 L 19.085938 30.757812 L 19.703125 27.820312 L 20.117188 27.820312 M 21.53125 27.820312 L 21.992188 27.820312 L 21.992188 30.820312 L 22.507812 30.820312 L 22.507812 31.179688 L 20.949219 31.179688 L 20.949219 30.820312 L 21.578125 30.820312 L 21.578125 28.199219 L 20.902344 28.445312 L 20.902344 28.058594 L 21.53125 27.820312 M 24.058594 30.699219 L 24.539062 30.699219 L 24.539062 31.179688 L 24.058594 31.179688 L 24.058594 30.699219 M 20.894531 34.082031 C 20.894531 33.804688 20.96875 33.597656 21.117188 33.460938 C 21.261719 33.328125 21.476562 33.257812 21.753906 33.257812 L 22.445312 33.257812 L 22.445312 33.628906 L 21.707031 33.628906 C 21.589844 33.628906 21.492188 33.664062 21.421875 33.730469 C 21.347656 33.804688 21.308594 33.890625 21.308594 33.988281 L 21.308594 34.347656 C 21.308594 34.445312 21.339844 34.53125 21.402344 34.597656 C 21.46875 34.664062 21.554688 34.699219 21.660156 34.699219 L 21.796875 34.699219 C 22.019531 34.699219 22.195312 34.761719 22.324219 34.882812 C 22.453125 35.011719 22.519531 35.214844 22.519531 35.484375 L 22.519531 35.808594 C 22.519531 36.078125 22.445312 36.28125 22.296875 36.417969 C 22.148438 36.554688 21.9375 36.621094 21.660156 36.621094 L 20.976562 36.621094 L 20.976562 36.25 L 21.707031 36.25 C 21.828125 36.25 21.925781 36.21875 21.992188 36.148438 C 22.066406 36.074219 22.101562 35.992188 22.101562 35.898438 L 22.101562 35.390625 C 22.101562 35.300781 22.078125 35.226562 22.027344 35.171875 C 21.984375 35.109375 21.914062 35.078125 21.808594 35.078125 L 21.660156 35.078125 C 21.433594 35.078125 21.246094 35.011719 21.105469 34.875 C 20.964844 34.738281 20.894531 34.535156 20.894531 34.257812 L 20.894531 34.082031 M 23.664062 33.257812 L 24.9375 33.257812 L 24.9375 33.609375 L 24.511719 33.609375 L 24.511719 36.269531 L 24.9375 36.269531 L 24.9375 36.621094 L 23.664062 36.621094 L 23.664062 36.269531 L 24.097656 36.269531 L 24.097656 33.609375 L 23.664062 33.609375 L 23.664062 33.257812 M 17.203125 35.058594 L 16.140625 35.058594 L 16.140625 36.269531 L 17.324219 36.269531 L 17.324219 36.621094 L 15.726562 36.621094 L 15.726562 33.257812 L 17.324219 33.257812 L 17.324219 33.609375 L 16.140625 33.609375 L 16.140625 34.707031 L 17.203125 34.707031 L 17.203125 35.058594 M 18.578125 34.867188 L 19.113281 34.867188 C 19.234375 34.867188 19.324219 34.839844 19.378906 34.78125 C 19.4375 34.726562 19.464844 34.636719 19.464844 34.515625 L 19.464844 33.960938 C 19.464844 33.84375 19.4375 33.757812 19.378906 33.703125 C 19.324219 33.648438 19.234375 33.617188 19.113281 33.617188 L 18.578125 33.617188 L 18.578125 34.867188 M 19.886719 34.46875 C 19.886719 34.660156 19.851562 34.808594 19.777344 34.921875 C 19.699219 35.027344 19.589844 35.101562 19.453125 35.144531 L 20.117188 36.621094 L 19.667969 36.621094 L 19.046875 35.226562 L 18.578125 35.226562 L 18.578125 36.621094 L 18.152344 36.621094 L 18.152344 33.257812 L 19.058594 33.257812 C 19.320312 33.257812 19.527344 33.316406 19.675781 33.433594 C 19.816406 33.550781 19.886719 33.742188 19.886719 34.007812 L 19.886719 34.46875 M 17.570312 38.699219 L 17.570312 42.058594 L 17.191406 42.058594 L 17.191406 39.039062 L 16.714844 40.933594 L 16.316406 40.933594 L 15.847656 39.039062 L 15.847656 42.058594 L 15.484375 42.058594 L 15.484375 38.699219 L 16.148438 38.699219 L 16.527344 40.417969 L 16.925781 38.699219 L 17.570312 38.699219 M 21.753906 38.699219 L 22.445312 38.699219 L 22.445312 39.066406 L 21.707031 39.066406 C 21.589844 39.066406 21.492188 39.101562 21.421875 39.167969 C 21.347656 39.242188 21.308594 39.328125 21.308594 39.429688 L 21.308594 39.789062 C 21.308594 39.886719 21.339844 39.96875 21.402344 40.039062 C 21.46875 40.105469 21.554688 40.140625 21.660156 40.140625 L 21.796875 40.140625 C 22.019531 40.140625 22.195312 40.199219 22.324219 40.324219 C 22.453125 40.453125 22.519531 40.652344 22.519531 40.925781 L 22.519531 41.246094 C 22.519531 41.519531 22.445312 41.722656 22.296875 41.855469 C 22.148438 41.992188 21.9375 42.058594 21.660156 42.058594 L 20.976562 42.058594 L 20.976562 41.691406 L 21.707031 41.691406 C 21.828125 41.691406 21.925781 41.65625 21.992188 41.589844 C 22.066406 41.515625 22.101562 41.433594 22.101562 41.339844 L 22.101562 40.832031 C 22.101562 40.738281 22.078125 40.664062 22.027344 40.609375 C 21.984375 40.546875 21.914062 40.519531 21.808594 40.519531 L 21.660156 40.519531 C 21.433594 40.519531 21.246094 40.449219 21.105469 40.316406 C 20.964844 40.179688 20.894531 39.972656 20.894531 39.695312 L 20.894531 39.519531 C 20.894531 39.242188 20.96875 39.039062 21.117188 38.902344 C 21.261719 38.765625 21.476562 38.699219 21.753906 38.699219 M 23.679688 38.699219 L 24.308594 40.09375 L 24.945312 38.699219 L 25.378906 38.699219 L 24.511719 40.5 L 24.511719 42.058594 L 24.078125 42.058594 L 24.078125 40.5 L 23.21875 38.699219 L 23.679688 38.699219 M 30.398438 33.257812 L 30.398438 36.621094 L 29.714844 36.621094 L 28.960938 33.609375 L 28.960938 36.621094 L 28.574219 36.621094 L 28.574219 33.257812 L 29.253906 33.257812 L 30.011719 36.261719 L 30.011719 33.257812 L 30.398438 33.257812 M 26.15625 33.460938 C 26.308594 33.328125 26.523438 33.257812 26.800781 33.257812 L 26.996094 33.257812 C 27.269531 33.257812 27.484375 33.328125 27.632812 33.460938 C 27.785156 33.597656 27.863281 33.800781 27.863281 34.070312 L 27.863281 35.808594 C 27.863281 36.078125 27.785156 36.28125 27.632812 36.417969 C 27.484375 36.554688 27.269531 36.621094 26.996094 36.621094 L 26.800781 36.621094 C 26.523438 36.621094 26.308594 36.554688 26.15625 36.417969 C 26.007812 36.28125 25.933594 36.078125 25.933594 35.808594 L 25.933594 34.070312 C 25.933594 33.800781 26.007812 33.597656 26.15625 33.460938 M 26.355469 33.988281 L 26.355469 35.890625 C 26.355469 35.988281 26.390625 36.074219 26.457031 36.148438 C 26.53125 36.21875 26.632812 36.25 26.753906 36.25 L 27.039062 36.25 C 27.164062 36.25 27.261719 36.21875 27.335938 36.148438 C 27.402344 36.074219 27.4375 35.988281 27.4375 35.890625 L 27.4375 33.988281 C 27.4375 33.890625 27.402344 33.804688 27.335938 33.730469 C 27.261719 33.664062 27.164062 33.628906 27.039062 33.628906 L 26.753906 33.628906 C 26.632812 33.628906 26.53125 33.664062 26.457031 33.730469 C 26.390625 33.804688 26.355469 33.890625 26.355469 33.988281 M 27.632812 38.699219 L 27.632812 39.066406 L 26.894531 39.066406 C 26.777344 39.066406 26.679688 39.101562 26.605469 39.167969 C 26.53125 39.242188 26.496094 39.328125 26.496094 39.429688 L 26.496094 39.789062 C 26.496094 39.886719 26.527344 39.96875 26.589844 40.039062 C 26.65625 40.105469 26.742188 40.140625 26.847656 40.140625 L 26.984375 40.140625 C 27.207031 40.140625 27.382812 40.199219 27.511719 40.324219 C 27.640625 40.453125 27.703125 40.652344 27.703125 40.925781 L 27.703125 41.246094 C 27.703125 41.519531 27.632812 41.722656 27.484375 41.855469 C 27.335938 41.992188 27.125 42.058594 26.847656 42.058594 L 26.164062 42.058594 L 26.164062 41.691406 L 26.894531 41.691406 C 27.015625 41.691406 27.109375 41.65625 27.179688 41.589844 C 27.253906 41.515625 27.289062 41.433594 27.289062 41.339844 L 27.289062 40.832031 C 27.289062 40.738281 27.265625 40.664062 27.214844 40.609375 C 27.171875 40.546875 27.097656 40.519531 26.996094 40.519531 L 26.847656 40.519531 C 26.617188 40.519531 26.433594 40.449219 26.292969 40.316406 C 26.152344 40.179688 26.082031 39.972656 26.082031 39.695312 L 26.082031 39.519531 C 26.082031 39.242188 26.15625 39.039062 26.300781 38.902344 C 26.449219 38.765625 26.660156 38.699219 26.9375 38.699219 L 27.632812 38.699219 M 28.515625 39.066406 L 28.515625 38.699219 L 30.464844 38.699219 L 30.464844 39.066406 L 29.699219 39.066406 L 29.699219 42.058594 L 29.28125 42.058594 L 29.28125 39.066406 L 28.515625 39.066406 M 14.5625 22.378906 L 14.5625 22.730469 L 14.136719 22.730469 L 14.136719 25.390625 L 14.5625 25.390625 L 14.5625 25.742188 L 13.289062 25.742188 L 13.289062 25.390625 L 13.722656 25.390625 L 13.722656 22.730469 L 13.289062 22.730469 L 13.289062 22.378906 L 14.5625 22.378906 M 12.109375 23.128906 L 12.109375 23.589844 C 12.109375 23.78125 12.070312 23.929688 11.996094 24.042969 C 11.917969 24.144531 11.808594 24.21875 11.675781 24.261719 L 12.339844 25.742188 L 11.886719 25.742188 L 11.269531 24.347656 L 10.796875 24.347656 L 10.796875 25.742188 L 10.375 25.742188 L 10.375 22.378906 L 11.277344 22.378906 C 11.542969 22.378906 11.75 22.4375 11.894531 22.554688 C 12.039062 22.671875 12.109375 22.863281 12.109375 23.128906 M 11.601562 22.824219 C 11.546875 22.765625 11.457031 22.738281 11.332031 22.738281 L 10.796875 22.738281 L 10.796875 23.988281 L 11.332031 23.988281 C 11.457031 23.988281 11.546875 23.957031 11.601562 23.902344 C 11.65625 23.847656 11.683594 23.757812 11.683594 23.636719 L 11.683594 23.082031 C 11.683594 22.964844 11.65625 22.878906 11.601562 22.824219 M 9.820312 22.378906 L 8.953125 24.179688 L 8.953125 25.742188 L 8.519531 25.742188 L 8.519531 24.179688 L 7.660156 22.378906 L 8.121094 22.378906 L 8.75 23.773438 L 9.386719 22.378906 L 9.820312 22.378906 M 12.136719 28.171875 L 10.953125 28.171875 L 10.953125 29.269531 L 12.015625 29.269531 L 12.015625 29.621094 L 10.953125 29.621094 L 10.953125 30.828125 L 12.136719 30.828125 L 12.136719 31.179688 L 10.539062 31.179688 L 10.539062 27.820312 L 12.136719 27.820312 L 12.136719 28.171875 M 9.644531 30.421875 C 9.644531 30.699219 9.578125 30.894531 9.449219 31.003906 C 9.328125 31.121094 9.121094 31.179688 8.832031 31.179688 L 7.84375 31.179688 L 7.84375 27.820312 L 8.765625 27.820312 C 9.042969 27.820312 9.257812 27.875 9.414062 27.984375 C 9.566406 28.097656 9.644531 28.289062 9.644531 28.566406 L 9.644531 30.421875 M 14.488281 27.996094 C 14.628906 28.113281 14.703125 28.300781 14.703125 28.566406 L 14.703125 29.027344 C 14.703125 29.21875 14.664062 29.371094 14.589844 29.480469 C 14.511719 29.585938 14.402344 29.660156 14.269531 29.703125 L 14.933594 31.179688 L 14.480469 31.179688 L 13.863281 29.785156 L 13.390625 29.785156 L 13.390625 31.179688 L 12.964844 31.179688 L 12.964844 27.820312 L 13.871094 27.820312 C 14.136719 27.820312 14.339844 27.878906 14.488281 27.996094 M 13.390625 28.179688 L 13.390625 29.425781 L 13.925781 29.425781 C 14.050781 29.425781 14.136719 29.398438 14.195312 29.34375 C 14.25 29.289062 14.277344 29.199219 14.277344 29.074219 L 14.277344 28.519531 C 14.277344 28.402344 14.25 28.316406 14.195312 28.261719 C 14.136719 28.207031 14.050781 28.179688 13.925781 28.179688 L 13.390625 28.179688 M 6.515625 22.824219 C 6.460938 22.765625 6.371094 22.738281 6.246094 22.738281 L 5.703125 22.738281 L 5.703125 24.070312 L 6.246094 24.070312 C 6.371094 24.070312 6.460938 24.042969 6.515625 23.988281 C 6.570312 23.929688 6.597656 23.84375 6.597656 23.726562 L 6.597656 23.082031 C 6.597656 22.964844 6.570312 22.878906 6.515625 22.824219 M 7.023438 23.128906 L 7.023438 23.671875 C 7.023438 23.9375 6.953125 24.132812 6.8125 24.253906 C 6.667969 24.378906 6.464844 24.4375 6.203125 24.4375 L 5.703125 24.4375 L 5.703125 25.742188 L 5.289062 25.742188 L 5.289062 22.378906 L 6.191406 22.378906 C 6.457031 22.378906 6.664062 22.4375 6.8125 22.554688 C 6.953125 22.671875 7.023438 22.863281 7.023438 23.128906 M 4.523438 23.191406 L 4.523438 24.929688 C 4.523438 25.199219 4.445312 25.402344 4.292969 25.539062 C 4.144531 25.671875 3.929688 25.742188 3.65625 25.742188 L 3.460938 25.742188 C 3.183594 25.742188 2.96875 25.671875 2.816406 25.539062 C 2.667969 25.402344 2.59375 25.199219 2.59375 24.929688 L 2.59375 23.191406 C 2.59375 22.921875 2.667969 22.71875 2.816406 22.582031 C 2.96875 22.445312 3.183594 22.378906 3.460938 22.378906 L 3.65625 22.378906 C 3.929688 22.378906 4.144531 22.445312 4.292969 22.582031 C 4.445312 22.71875 4.523438 22.921875 4.523438 23.191406 M 3.996094 22.851562 C 3.921875 22.78125 3.824219 22.75 3.699219 22.75 L 3.414062 22.75 C 3.292969 22.75 3.191406 22.78125 3.121094 22.851562 C 3.050781 22.925781 3.019531 23.011719 3.019531 23.109375 L 3.019531 25.011719 C 3.019531 25.109375 3.050781 25.195312 3.121094 25.269531 C 3.191406 25.335938 3.292969 25.371094 3.414062 25.371094 L 3.699219 25.371094 C 3.824219 25.371094 3.921875 25.335938 3.996094 25.269531 C 4.0625 25.195312 4.097656 25.109375 4.097656 25.011719 L 4.097656 23.109375 C 4.097656 23.011719 4.0625 22.925781 3.996094 22.851562 M 3.460938 27.820312 L 3.65625 27.820312 C 3.929688 27.820312 4.144531 27.886719 4.292969 28.023438 C 4.445312 28.15625 4.523438 28.359375 4.523438 28.632812 L 4.523438 30.367188 C 4.523438 30.640625 4.445312 30.84375 4.292969 30.976562 C 4.144531 31.113281 3.929688 31.179688 3.65625 31.179688 L 3.460938 31.179688 C 3.183594 31.179688 2.96875 31.113281 2.816406 30.976562 C 2.667969 30.84375 2.59375 30.640625 2.59375 30.367188 L 2.59375 28.632812 C 2.59375 28.359375 2.667969 28.15625 2.816406 28.023438 C 2.96875 27.886719 3.183594 27.820312 3.460938 27.820312 M 3.414062 28.1875 C 3.292969 28.1875 3.191406 28.222656 3.121094 28.289062 C 3.050781 28.363281 3.019531 28.449219 3.019531 28.546875 L 3.019531 30.453125 C 3.019531 30.550781 3.050781 30.636719 3.121094 30.710938 C 3.191406 30.777344 3.292969 30.8125 3.414062 30.8125 L 3.699219 30.8125 C 3.824219 30.8125 3.921875 30.777344 3.996094 30.710938 C 4.0625 30.636719 4.097656 30.550781 4.097656 30.453125 L 4.097656 28.546875 C 4.097656 28.449219 4.0625 28.363281 3.996094 28.289062 C 3.921875 28.222656 3.824219 28.1875 3.699219 28.1875 L 3.414062 28.1875 M 8.257812 28.179688 L 8.257812 30.820312 L 8.867188 30.820312 C 8.992188 30.820312 9.085938 30.792969 9.144531 30.738281 C 9.199219 30.683594 9.230469 30.59375 9.230469 30.46875 L 9.230469 28.519531 C 9.230469 28.417969 9.195312 28.332031 9.128906 28.273438 C 9.066406 28.210938 8.984375 28.179688 8.878906 28.179688 L 8.257812 28.179688 M 6.433594 27.820312 L 7.226562 31.179688 L 6.800781 31.179688 L 6.617188 30.332031 L 5.683594 30.332031 L 5.5 31.179688 L 5.066406 31.179688 L 5.878906 27.820312 L 6.433594 27.820312 M 6.542969 29.972656 L 6.144531 28.132812 L 5.757812 29.972656 L 6.542969 29.972656 M 6.828125 35.058594 L 5.769531 35.058594 L 5.769531 36.269531 L 6.949219 36.269531 L 6.949219 36.621094 L 5.351562 36.621094 L 5.351562 33.257812 L 6.949219 33.257812 L 6.949219 33.609375 L 5.769531 33.609375 L 5.769531 34.707031 L 6.828125 34.707031 L 6.828125 35.058594 M 8.492188 33.730469 C 8.421875 33.804688 8.390625 33.890625 8.390625 33.988281 L 8.390625 35.890625 C 8.390625 35.988281 8.421875 36.074219 8.492188 36.148438 C 8.5625 36.21875 8.664062 36.25 8.785156 36.25 L 9.515625 36.25 L 9.515625 36.621094 L 8.832031 36.621094 C 8.554688 36.621094 8.34375 36.554688 8.195312 36.417969 C 8.046875 36.28125 7.972656 36.078125 7.972656 35.808594 L 7.972656 34.070312 C 7.972656 33.800781 8.046875 33.597656 8.195312 33.460938 C 8.34375 33.328125 8.554688 33.257812 8.832031 33.257812 L 9.515625 33.257812 L 9.515625 33.628906 L 8.785156 33.628906 C 8.664062 33.628906 8.5625 33.664062 8.492188 33.730469 M 3.035156 33.257812 L 3.5625 34.394531 L 4.117188 33.257812 L 4.558594 33.257812 L 3.785156 34.875 L 4.605469 36.621094 L 4.132812 36.621094 L 3.5625 35.355469 L 2.953125 36.621094 L 2.5 36.621094 L 3.339844 34.882812 L 2.585938 33.257812 L 3.035156 33.257812 M 3.582031 38.699219 L 3.089844 40.960938 L 3.664062 40.960938 L 3.664062 39.863281 L 4.078125 39.863281 L 4.078125 40.960938 L 4.4375 40.960938 L 4.4375 41.3125 L 4.078125 41.3125 L 4.078125 42.058594 L 3.664062 42.058594 L 3.664062 41.3125 L 2.675781 41.3125 L 2.675781 40.898438 L 3.191406 38.699219 L 3.582031 38.699219 M 6.996094 39.660156 L 6.15625 40.601562 L 7.058594 42.058594 L 6.550781 42.058594 L 5.851562 40.886719 L 5.722656 41.035156 L 5.722656 42.058594 L 5.316406 42.058594 L 5.316406 38.699219 L 5.722656 38.699219 L 5.722656 40.507812 L 6.480469 39.660156 L 6.996094 39.660156 M 14.933594 33.257812 L 14.175781 36.621094 L 13.613281 36.621094 L 12.902344 33.257812 L 13.328125 33.257812 L 13.898438 36.195312 L 14.515625 33.257812 L 14.933594 33.257812 M 11.894531 38.875 C 12.039062 38.992188 12.109375 39.183594 12.109375 39.445312 L 12.109375 39.910156 C 12.109375 40.097656 12.070312 40.25 11.996094 40.359375 C 11.917969 40.464844 11.808594 40.539062 11.675781 40.582031 L 12.339844 42.058594 L 11.886719 42.058594 L 11.269531 40.664062 L 10.796875 40.664062 L 10.796875 42.058594 L 10.375 42.058594 L 10.375 38.699219 L 11.277344 38.699219 C 11.542969 38.699219 11.75 38.757812 11.894531 38.875 M 11.332031 39.058594 L 10.796875 39.058594 L 10.796875 40.304688 L 11.332031 40.304688 C 11.457031 40.304688 11.546875 40.277344 11.601562 40.222656 C 11.65625 40.167969 11.683594 40.078125 11.683594 39.953125 L 11.683594 39.402344 C 11.683594 39.285156 11.65625 39.199219 11.601562 39.140625 C 11.546875 39.085938 11.457031 39.058594 11.332031 39.058594 M 14.210938 38.699219 L 15.007812 42.058594 L 14.582031 42.058594 L 14.398438 41.210938 L 13.464844 41.210938 L 13.28125 42.058594 L 12.847656 42.058594 L 13.660156 38.699219 L 14.210938 38.699219 M 14.324219 40.851562 L 13.925781 39.011719 L 13.539062 40.851562 L 14.324219 40.851562 M 16.539062 44.136719 C 16.816406 44.136719 17.019531 44.195312 17.15625 44.304688 C 17.292969 44.414062 17.359375 44.609375 17.359375 44.886719 L 17.359375 45.164062 C 17.359375 45.285156 17.335938 45.398438 17.292969 45.496094 C 17.246094 45.589844 17.179688 45.664062 17.101562 45.71875 C 17.199219 45.773438 17.277344 45.851562 17.332031 45.949219 C 17.382812 46.046875 17.40625 46.167969 17.40625 46.308594 L 17.40625 46.742188 C 17.40625 47.011719 17.34375 47.207031 17.222656 47.324219 C 17.089844 47.441406 16.882812 47.5 16.59375 47.5 L 15.632812 47.5 L 15.632812 44.136719 L 16.539062 44.136719 M 11.617188 44.136719 L 11.617188 47.140625 L 12.136719 47.140625 L 12.136719 47.5 L 10.578125 47.5 L 10.578125 47.140625 L 11.203125 47.140625 L 11.203125 44.515625 L 10.53125 44.765625 L 10.53125 44.378906 L 11.15625 44.136719 L 11.617188 44.136719 M 9.542969 47.5 L 7.984375 47.5 L 7.984375 47.140625 L 8.609375 47.140625 L 8.609375 44.515625 L 7.9375 44.765625 L 7.9375 44.378906 L 8.5625 44.136719 L 9.027344 44.136719 L 9.027344 47.140625 L 9.542969 47.140625 L 9.542969 47.5 M 16.050781 45.5625 L 16.59375 45.5625 C 16.691406 45.5625 16.773438 45.53125 16.84375 45.46875 C 16.910156 45.402344 16.945312 45.3125 16.945312 45.210938 L 16.945312 44.839844 C 16.945312 44.722656 16.917969 44.636719 16.859375 44.582031 C 16.804688 44.527344 16.714844 44.5 16.59375 44.5 L 16.050781 44.5 L 16.050781 45.5625 M 16.640625 47.140625 C 16.757812 47.140625 16.84375 47.113281 16.90625 47.058594 C 16.960938 47 16.988281 46.910156 16.988281 46.789062 L 16.988281 46.261719 C 16.988281 46.15625 16.960938 46.074219 16.898438 46.011719 C 16.832031 45.953125 16.742188 45.921875 16.640625 45.921875 L 16.050781 45.921875 L 16.050781 47.140625 L 16.640625 47.140625 M 6.535156 44.183594 L 6.773438 44.339844 C 6.847656 44.410156 6.902344 44.492188 6.941406 44.589844 C 6.984375 44.695312 7.003906 44.816406 7.003906 44.949219 L 7.003906 46.6875 C 7.003906 46.957031 6.929688 47.160156 6.78125 47.296875 C 6.636719 47.433594 6.421875 47.5 6.144531 47.5 L 5.59375 47.5 L 5.59375 47.128906 L 6.191406 47.128906 C 6.316406 47.128906 6.414062 47.097656 6.488281 47.027344 C 6.554688 46.957031 6.589844 46.871094 6.589844 46.78125 L 6.589844 46.253906 L 6.117188 46.253906 C 5.847656 46.253906 5.648438 46.195312 5.519531 46.078125 C 5.382812 45.953125 5.316406 45.757812 5.316406 45.488281 L 5.316406 44.960938 C 5.316406 44.820312 5.335938 44.695312 5.378906 44.589844 L 5.539062 44.339844 C 5.609375 44.273438 5.695312 44.222656 5.785156 44.183594 L 6.074219 44.136719 L 6.238281 44.136719 L 6.535156 44.183594 M 3.597656 44.136719 C 3.84375 44.136719 4.035156 44.195312 4.171875 44.3125 C 4.3125 44.429688 4.382812 44.621094 4.382812 44.886719 L 4.382812 45.191406 C 4.382812 45.445312 4.296875 45.628906 4.125 45.746094 C 4.230469 45.800781 4.308594 45.878906 4.363281 45.976562 C 4.414062 46.074219 4.4375 46.195312 4.4375 46.335938 L 4.4375 46.742188 C 4.4375 47.007812 4.378906 47.199219 4.253906 47.316406 C 4.125 47.4375 3.917969 47.5 3.625 47.5 L 3.488281 47.5 C 3.199219 47.5 2.988281 47.4375 2.859375 47.316406 C 2.738281 47.199219 2.675781 47.007812 2.675781 46.742188 L 2.675781 46.335938 C 2.675781 46.195312 2.699219 46.074219 2.75 45.976562 L 2.980469 45.746094 C 2.816406 45.628906 2.730469 45.445312 2.730469 45.191406 L 2.730469 44.886719 C 2.730469 44.621094 2.800781 44.429688 2.945312 44.3125 C 3.078125 44.195312 3.265625 44.136719 3.507812 44.136719 L 3.597656 44.136719 M 3.96875 44.839844 C 3.96875 44.722656 3.941406 44.636719 3.886719 44.582031 C 3.828125 44.527344 3.742188 44.5 3.625 44.5 L 3.453125 44.5 C 3.339844 44.503906 3.265625 44.535156 3.222656 44.589844 C 3.171875 44.644531 3.148438 44.730469 3.148438 44.839844 L 3.148438 45.238281 C 3.148438 45.34375 3.179688 45.425781 3.238281 45.488281 C 3.300781 45.546875 3.375 45.582031 3.460938 45.589844 L 3.625 45.589844 C 3.71875 45.589844 3.800781 45.558594 3.867188 45.496094 C 3.933594 45.433594 3.96875 45.347656 3.96875 45.238281 L 3.96875 44.839844 M 3.921875 46.039062 C 3.859375 45.980469 3.777344 45.949219 3.671875 45.949219 L 3.441406 45.949219 C 3.335938 45.949219 3.253906 45.980469 3.191406 46.039062 C 3.125 46.101562 3.089844 46.183594 3.089844 46.289062 L 3.089844 46.789062 C 3.089844 46.90625 3.117188 46.996094 3.164062 47.058594 C 3.214844 47.113281 3.292969 47.140625 3.40625 47.140625 L 3.664062 47.140625 C 3.785156 47.140625 3.878906 47.113281 3.941406 47.058594 C 3.996094 47 4.023438 46.910156 4.023438 46.789062 L 4.023438 46.289062 C 4.023438 46.183594 3.988281 46.101562 3.921875 46.039062 M 5.722656 44.867188 L 5.722656 45.578125 C 5.722656 45.671875 5.75 45.746094 5.804688 45.800781 C 5.859375 45.863281 5.949219 45.894531 6.074219 45.894531 L 6.589844 45.894531 L 6.589844 44.867188 C 6.589844 44.769531 6.558594 44.683594 6.496094 44.609375 C 6.433594 44.535156 6.34375 44.5 6.21875 44.5 L 6.101562 44.5 C 5.976562 44.5 5.886719 44.535156 5.824219 44.609375 C 5.753906 44.683594 5.722656 44.769531 5.722656 44.867188 M 9.238281 49.578125 L 9.652344 49.578125 L 9.652344 52.941406 L 9.238281 52.941406 L 9.238281 51.398438 L 8.25 51.398438 L 8.25 52.941406 L 7.835938 52.941406 L 7.835938 49.578125 L 8.25 49.578125 L 8.25 51.039062 L 9.238281 51.039062 L 9.238281 49.578125 M 3.996094 50.050781 C 3.921875 49.980469 3.824219 49.949219 3.699219 49.949219 L 3.414062 49.949219 C 3.292969 49.949219 3.191406 49.980469 3.121094 50.050781 C 3.050781 50.121094 3.019531 50.210938 3.019531 50.308594 L 3.019531 52.210938 C 3.019531 52.308594 3.050781 52.394531 3.121094 52.46875 C 3.191406 52.535156 3.292969 52.570312 3.414062 52.570312 L 3.699219 52.570312 C 3.824219 52.570312 3.921875 52.535156 3.996094 52.46875 C 4.0625 52.394531 4.097656 52.308594 4.097656 52.210938 L 4.097656 50.308594 C 4.097656 50.210938 4.0625 50.121094 3.996094 50.050781 M 4.523438 50.390625 L 4.523438 52.128906 C 4.523438 52.398438 4.445312 52.601562 4.292969 52.738281 C 4.144531 52.871094 3.929688 52.941406 3.65625 52.941406 L 3.460938 52.941406 C 3.183594 52.941406 2.96875 52.871094 2.816406 52.738281 C 2.667969 52.601562 2.59375 52.398438 2.59375 52.128906 L 2.59375 50.390625 C 2.59375 50.121094 2.667969 49.917969 2.816406 49.78125 C 2.96875 49.644531 3.183594 49.578125 3.460938 49.578125 L 3.65625 49.578125 C 3.929688 49.578125 4.144531 49.644531 4.292969 49.78125 C 4.445312 49.917969 4.523438 50.121094 4.523438 50.390625 M 3.414062 55.386719 C 3.292969 55.386719 3.191406 55.421875 3.121094 55.488281 C 3.050781 55.5625 3.019531 55.648438 3.019531 55.746094 L 3.019531 57.648438 C 3.019531 57.75 3.050781 57.835938 3.121094 57.910156 C 3.191406 57.976562 3.292969 58.011719 3.414062 58.011719 L 3.699219 58.011719 C 3.824219 58.011719 3.921875 57.976562 3.996094 57.910156 C 4.0625 57.835938 4.097656 57.75 4.097656 57.648438 L 4.097656 55.746094 C 4.097656 55.648438 4.0625 55.5625 3.996094 55.488281 C 3.921875 55.421875 3.824219 55.386719 3.699219 55.386719 L 3.414062 55.386719 M 3.460938 55.019531 L 3.65625 55.019531 C 3.929688 55.019531 4.144531 55.085938 4.292969 55.222656 C 4.445312 55.355469 4.523438 55.558594 4.523438 55.832031 L 4.523438 57.566406 C 4.523438 57.835938 4.445312 58.039062 4.292969 58.175781 C 4.144531 58.3125 3.929688 58.378906 3.65625 58.378906 L 3.460938 58.378906 C 3.183594 58.378906 2.96875 58.3125 2.816406 58.175781 C 2.667969 58.039062 2.59375 57.835938 2.59375 57.566406 L 2.59375 55.832031 C 2.59375 55.558594 2.667969 55.355469 2.816406 55.222656 C 2.96875 55.085938 3.183594 55.019531 3.460938 55.019531 M 8.765625 55.019531 C 9.042969 55.019531 9.257812 55.074219 9.414062 55.183594 C 9.566406 55.292969 9.644531 55.488281 9.644531 55.765625 L 9.644531 57.621094 C 9.644531 57.898438 9.578125 58.09375 9.449219 58.203125 C 9.328125 58.320312 9.121094 58.378906 8.832031 58.378906 L 7.84375 58.378906 L 7.84375 55.019531 L 8.765625 55.019531 M 8.878906 55.378906 L 8.257812 55.378906 L 8.257812 58.019531 L 8.867188 58.019531 C 8.992188 58.019531 9.085938 57.992188 9.144531 57.9375 C 9.199219 57.878906 9.230469 57.792969 9.230469 57.667969 L 9.230469 55.71875 C 9.230469 55.613281 9.195312 55.53125 9.128906 55.46875 C 9.066406 55.410156 8.984375 55.378906 8.878906 55.378906 M 6.433594 55.019531 L 7.226562 58.378906 L 6.800781 58.378906 L 6.617188 57.53125 L 5.683594 57.53125 L 5.5 58.378906 L 5.066406 58.378906 L 5.878906 55.019531 L 6.433594 55.019531 M 6.542969 57.167969 L 6.144531 55.332031 L 5.757812 57.167969 L 6.542969 57.167969 M 16.085938 50.050781 C 16.019531 50.121094 15.984375 50.210938 15.984375 50.308594 L 15.984375 52.210938 C 15.984375 52.308594 16.019531 52.394531 16.085938 52.46875 C 16.160156 52.535156 16.257812 52.570312 16.382812 52.570312 L 16.667969 52.570312 C 16.789062 52.570312 16.890625 52.535156 16.960938 52.46875 C 17.03125 52.394531 17.0625 52.308594 17.0625 52.210938 L 17.0625 50.308594 C 17.0625 50.210938 17.03125 50.121094 16.960938 50.050781 C 16.890625 49.980469 16.789062 49.949219 16.667969 49.949219 L 16.382812 49.949219 C 16.257812 49.949219 16.160156 49.980469 16.085938 50.050781 M 15.78125 49.78125 C 15.933594 49.644531 16.148438 49.578125 16.425781 49.578125 L 16.621094 49.578125 C 16.898438 49.578125 17.109375 49.644531 17.257812 49.78125 C 17.410156 49.917969 17.488281 50.121094 17.488281 50.390625 L 17.488281 52.128906 C 17.488281 52.398438 17.410156 52.601562 17.257812 52.738281 C 17.109375 52.871094 16.898438 52.941406 16.621094 52.941406 L 16.425781 52.941406 C 16.148438 52.941406 15.933594 52.871094 15.78125 52.738281 C 15.632812 52.601562 15.558594 52.398438 15.558594 52.128906 L 15.558594 50.390625 C 15.558594 50.121094 15.632812 49.917969 15.78125 49.78125 M 13.601562 49.578125 L 13.601562 52.570312 L 14.671875 52.570312 L 14.671875 52.941406 L 13.1875 52.941406 L 13.1875 49.578125 L 13.601562 49.578125 M 11.433594 49.578125 C 11.710938 49.578125 11.921875 49.644531 12.070312 49.78125 C 12.226562 49.917969 12.300781 50.121094 12.300781 50.390625 L 12.300781 52.128906 C 12.300781 52.398438 12.226562 52.601562 12.070312 52.738281 C 11.921875 52.871094 11.710938 52.941406 11.433594 52.941406 L 11.242188 52.941406 C 10.964844 52.941406 10.75 52.871094 10.59375 52.738281 C 10.445312 52.601562 10.375 52.398438 10.375 52.128906 L 10.375 50.390625 C 10.375 50.121094 10.445312 49.917969 10.59375 49.78125 C 10.75 49.644531 10.964844 49.578125 11.242188 49.578125 L 11.433594 49.578125 M 11.480469 49.949219 L 11.195312 49.949219 C 11.070312 49.949219 10.972656 49.980469 10.898438 50.050781 C 10.832031 50.121094 10.796875 50.210938 10.796875 50.308594 L 10.796875 52.210938 C 10.796875 52.308594 10.832031 52.394531 10.898438 52.46875 C 10.972656 52.535156 11.070312 52.570312 11.195312 52.570312 L 11.480469 52.570312 C 11.605469 52.570312 11.703125 52.535156 11.777344 52.46875 C 11.84375 52.394531 11.878906 52.308594 11.878906 52.210938 L 11.878906 50.308594 C 11.878906 50.210938 11.84375 50.121094 11.777344 50.050781 C 11.703125 49.980469 11.605469 49.949219 11.480469 49.949219 M 16.425781 55.019531 L 16.621094 55.019531 C 16.898438 55.019531 17.109375 55.085938 17.257812 55.222656 C 17.410156 55.355469 17.488281 55.558594 17.488281 55.832031 L 17.488281 57.566406 C 17.488281 57.835938 17.410156 58.039062 17.257812 58.175781 C 17.109375 58.3125 16.898438 58.378906 16.621094 58.378906 L 16.425781 58.378906 C 16.148438 58.378906 15.933594 58.3125 15.78125 58.175781 C 15.632812 58.039062 15.558594 57.835938 15.558594 57.566406 L 15.558594 55.832031 C 15.558594 55.558594 15.632812 55.355469 15.78125 55.222656 C 15.933594 55.085938 16.148438 55.019531 16.425781 55.019531 M 16.085938 55.488281 C 16.019531 55.5625 15.984375 55.648438 15.984375 55.746094 L 15.984375 57.648438 C 15.984375 57.75 16.019531 57.835938 16.085938 57.910156 C 16.160156 57.976562 16.257812 58.011719 16.382812 58.011719 L 16.667969 58.011719 C 16.789062 58.011719 16.890625 57.976562 16.960938 57.910156 C 17.03125 57.835938 17.0625 57.75 17.0625 57.648438 L 17.0625 55.746094 C 17.0625 55.648438 17.03125 55.5625 16.960938 55.488281 C 16.890625 55.421875 16.789062 55.386719 16.667969 55.386719 L 16.382812 55.386719 C 16.257812 55.386719 16.160156 55.421875 16.085938 55.488281 M 14.488281 55.191406 C 14.628906 55.308594 14.703125 55.5 14.703125 55.765625 L 14.703125 56.226562 C 14.703125 56.417969 14.664062 56.570312 14.589844 56.679688 C 14.511719 56.785156 14.402344 56.859375 14.269531 56.902344 L 14.933594 58.378906 L 14.480469 58.378906 L 13.863281 56.984375 L 13.390625 56.984375 L 13.390625 58.378906 L 12.964844 58.378906 L 12.964844 55.019531 L 13.871094 55.019531 C 14.136719 55.019531 14.339844 55.078125 14.488281 55.191406 M 13.925781 55.378906 L 13.390625 55.378906 L 13.390625 56.625 L 13.925781 56.625 C 14.050781 56.625 14.136719 56.597656 14.195312 56.542969 C 14.25 56.484375 14.277344 56.398438 14.277344 56.273438 L 14.277344 55.71875 C 14.277344 55.601562 14.25 55.515625 14.195312 55.460938 C 14.136719 55.40625 14.050781 55.378906 13.925781 55.378906 M 31.699219 41.710938 L 32.882812 41.710938 L 32.882812 42.058594 L 31.285156 42.058594 L 31.285156 38.699219 L 32.882812 38.699219 L 32.882812 39.050781 L 31.699219 39.050781 L 31.699219 40.148438 L 32.761719 40.148438 L 32.761719 40.5 L 31.699219 40.5 L 31.699219 41.710938 M 27.632812 44.136719 L 27.632812 44.507812 L 26.894531 44.507812 C 26.777344 44.507812 26.679688 44.542969 26.605469 44.609375 C 26.53125 44.683594 26.496094 44.769531 26.496094 44.867188 L 26.496094 45.226562 C 26.496094 45.328125 26.527344 45.410156 26.589844 45.476562 C 26.65625 45.546875 26.742188 45.578125 26.847656 45.578125 L 26.984375 45.578125 C 27.207031 45.578125 27.382812 45.640625 27.511719 45.765625 C 27.640625 45.894531 27.703125 46.09375 27.703125 46.363281 L 27.703125 46.6875 C 27.703125 46.957031 27.632812 47.160156 27.484375 47.296875 C 27.335938 47.433594 27.125 47.5 26.847656 47.5 L 26.164062 47.5 L 26.164062 47.128906 L 26.894531 47.128906 C 27.015625 47.128906 27.109375 47.097656 27.179688 47.027344 C 27.253906 46.957031 27.289062 46.871094 27.289062 46.78125 L 27.289062 46.273438 C 27.289062 46.179688 27.265625 46.105469 27.214844 46.050781 C 27.171875 45.988281 27.097656 45.957031 26.996094 45.957031 L 26.847656 45.957031 C 26.617188 45.957031 26.433594 45.890625 26.292969 45.753906 C 26.152344 45.617188 26.082031 45.414062 26.082031 45.136719 L 26.082031 44.960938 C 26.082031 44.683594 26.15625 44.476562 26.300781 44.339844 C 26.449219 44.207031 26.660156 44.136719 26.9375 44.136719 L 27.632812 44.136719 M 24.980469 45.9375 L 23.921875 45.9375 L 23.921875 47.148438 L 25.101562 47.148438 L 25.101562 47.5 L 23.503906 47.5 L 23.503906 44.136719 L 25.101562 44.136719 L 25.101562 44.488281 L 23.921875 44.488281 L 23.921875 45.589844 L 24.980469 45.589844 L 24.980469 45.9375 M 31.710938 45.632812 L 32.78125 45.632812 L 32.78125 45.984375 L 31.710938 45.984375 L 31.710938 47.5 L 31.292969 47.5 L 31.292969 44.136719 L 32.902344 44.136719 L 32.902344 44.488281 L 31.710938 44.488281 L 31.710938 45.632812 M 22.683594 44.136719 L 22.683594 44.507812 L 21.917969 44.507812 L 21.917969 47.5 L 21.503906 47.5 L 21.503906 44.507812 L 20.738281 44.507812 L 20.738281 44.136719 L 22.683594 44.136719 M 20.191406 44.136719 L 19.324219 45.9375 L 19.324219 47.5 L 18.890625 47.5 L 18.890625 45.9375 L 18.03125 44.136719 L 18.496094 44.136719 L 19.121094 45.53125 L 19.757812 44.136719 L 20.191406 44.136719 M 21.992188 49.578125 L 22.785156 52.941406 L 22.363281 52.941406 L 22.175781 52.089844 L 21.246094 52.089844 L 21.058594 52.941406 L 20.625 52.941406 L 21.4375 49.578125 L 21.992188 49.578125 M 22.101562 51.730469 L 21.707031 49.890625 L 21.320312 51.730469 L 22.101562 51.730469 M 23.855469 52.941406 L 23.441406 52.941406 L 23.441406 49.578125 L 24.34375 49.578125 C 24.609375 49.578125 24.816406 49.636719 24.964844 49.753906 C 25.105469 49.871094 25.175781 50.0625 25.175781 50.324219 L 25.175781 50.871094 C 25.175781 51.136719 25.105469 51.328125 24.964844 51.453125 C 24.824219 51.574219 24.621094 51.636719 24.355469 51.636719 L 23.855469 51.636719 L 23.855469 52.941406 M 23.855469 51.269531 L 24.402344 51.269531 C 24.523438 51.269531 24.613281 51.242188 24.667969 51.183594 C 24.722656 51.128906 24.75 51.042969 24.75 50.925781 L 24.75 50.28125 C 24.75 50.164062 24.722656 50.078125 24.667969 50.019531 C 24.613281 49.964844 24.523438 49.9375 24.402344 49.9375 L 23.855469 49.9375 L 23.855469 51.269531 M 19.324219 49.949219 L 19.324219 52.941406 L 18.910156 52.941406 L 18.910156 49.949219 L 18.144531 49.949219 L 18.144531 49.578125 L 20.089844 49.578125 L 20.089844 49.949219 L 19.324219 49.949219 M 20.164062 55.019531 L 20.164062 58.378906 L 19.785156 58.378906 L 19.785156 55.359375 L 19.304688 57.253906 L 18.910156 57.253906 L 18.4375 55.359375 L 18.4375 58.378906 L 18.078125 58.378906 L 18.078125 55.019531 L 18.742188 55.019531 L 19.121094 56.734375 L 19.519531 55.019531 L 20.164062 55.019531 M 23.496094 55.257812 L 24.125 55.019531 L 24.585938 55.019531 L 24.585938 58.019531 L 25.101562 58.019531 L 25.101562 58.378906 L 23.542969 58.378906 L 23.542969 58.019531 L 24.171875 58.019531 L 24.171875 55.394531 L 23.496094 55.644531 L 23.496094 55.257812 M 21.769531 54.445312 L 22.1875 54.445312 L 21.925781 54.785156 L 21.753906 55.101562 L 21.660156 55.460938 L 21.640625 55.941406 L 21.640625 57.457031 L 21.660156 57.9375 L 21.753906 58.296875 L 21.925781 58.609375 L 22.1875 58.953125 L 21.769531 58.953125 L 21.558594 58.710938 L 21.390625 58.390625 L 21.273438 57.980469 L 21.226562 57.445312 L 21.226562 55.949219 L 21.273438 55.425781 L 21.390625 55.007812 L 21.558594 54.695312 L 21.769531 54.445312 M 31.710938 52.941406 L 31.292969 52.941406 L 31.292969 49.578125 L 32.902344 49.578125 L 32.902344 49.929688 L 31.710938 49.929688 L 31.710938 51.074219 L 32.78125 51.074219 L 32.78125 51.425781 L 31.710938 51.425781 L 31.710938 52.941406 M 27.695312 49.929688 L 26.515625 49.929688 L 26.515625 51.027344 L 27.574219 51.027344 L 27.574219 51.378906 L 26.515625 51.378906 L 26.515625 52.589844 L 27.695312 52.589844 L 27.695312 52.941406 L 26.097656 52.941406 L 26.097656 49.578125 L 27.695312 49.578125 L 27.695312 49.929688 M 27.214844 55.007812 C 27.265625 55.125 27.304688 55.265625 27.335938 55.425781 L 27.371094 55.949219 L 27.371094 57.445312 L 27.335938 57.980469 C 27.304688 58.136719 27.265625 58.273438 27.214844 58.390625 L 27.050781 58.710938 L 26.835938 58.953125 L 26.414062 58.953125 L 26.679688 58.609375 L 26.855469 58.296875 L 26.9375 57.9375 C 26.957031 57.800781 26.964844 57.640625 26.964844 57.457031 L 26.964844 55.941406 C 26.964844 55.757812 26.957031 55.597656 26.9375 55.460938 L 26.855469 55.101562 L 26.679688 54.785156 L 26.414062 54.445312 L 26.835938 54.445312 L 27.050781 54.695312 L 27.214844 55.007812 M 29.246094 55.976562 L 29.726562 55.976562 L 29.726562 56.457031 L 29.246094 56.457031 L 29.246094 55.976562 M 29.726562 57.898438 L 29.726562 58.378906 L 29.246094 58.378906 L 29.246094 57.898438 L 29.726562 57.898438 M 58.457031 22.785156 L 58.492188 23.3125 L 58.492188 24.808594 L 58.457031 25.34375 C 58.425781 25.496094 58.382812 25.632812 58.335938 25.75 C 58.292969 25.875 58.238281 25.980469 58.167969 26.074219 L 57.957031 26.3125 L 57.53125 26.3125 C 57.644531 26.191406 57.730469 26.078125 57.800781 25.972656 C 57.867188 25.875 57.925781 25.769531 57.976562 25.65625 C 58.011719 25.554688 58.039062 25.433594 58.058594 25.296875 C 58.078125 25.164062 58.085938 25.003906 58.085938 24.816406 L 58.085938 23.304688 C 58.085938 23.117188 58.078125 22.957031 58.058594 22.824219 L 57.976562 22.460938 L 57.800781 22.148438 L 57.53125 21.808594 L 57.957031 21.808594 L 58.167969 22.054688 L 58.335938 22.371094 C 58.382812 22.488281 58.425781 22.625 58.457031 22.785156 M 56.195312 23.589844 C 56.195312 23.78125 56.15625 23.929688 56.082031 24.042969 C 56.003906 24.144531 55.894531 24.21875 55.761719 24.261719 L 56.425781 25.742188 L 55.972656 25.742188 L 55.355469 24.347656 L 54.882812 24.347656 L 54.882812 25.742188 L 54.460938 25.742188 L 54.460938 22.378906 L 55.363281 22.378906 C 55.628906 22.378906 55.835938 22.4375 55.980469 22.554688 C 56.125 22.671875 56.195312 22.863281 56.195312 23.128906 L 56.195312 23.589844 M 55.769531 23.082031 C 55.769531 22.964844 55.742188 22.878906 55.6875 22.824219 C 55.632812 22.765625 55.542969 22.738281 55.417969 22.738281 L 54.882812 22.738281 L 54.882812 23.988281 L 55.417969 23.988281 C 55.542969 23.988281 55.632812 23.957031 55.6875 23.902344 C 55.742188 23.847656 55.769531 23.757812 55.769531 23.636719 L 55.769531 23.082031 M 52.679688 22.054688 L 52.890625 21.808594 L 53.304688 21.808594 L 53.046875 22.148438 L 52.871094 22.460938 L 52.78125 22.824219 L 52.761719 23.304688 L 52.761719 24.816406 L 52.78125 25.296875 L 52.871094 25.65625 L 53.046875 25.972656 L 53.304688 26.3125 L 52.890625 26.3125 L 52.679688 26.074219 L 52.511719 25.75 L 52.390625 25.34375 L 52.34375 24.808594 L 52.34375 23.3125 L 52.390625 22.785156 L 52.511719 22.371094 L 52.679688 22.054688 M 51.203125 23.191406 L 51.203125 24.929688 C 51.203125 25.199219 51.125 25.402344 50.96875 25.539062 C 50.824219 25.671875 50.609375 25.742188 50.332031 25.742188 L 50.140625 25.742188 C 49.863281 25.742188 49.648438 25.671875 49.492188 25.539062 C 49.347656 25.402344 49.273438 25.199219 49.273438 24.929688 L 49.273438 23.191406 C 49.273438 22.921875 49.347656 22.71875 49.492188 22.582031 C 49.648438 22.445312 49.863281 22.378906 50.140625 22.378906 L 50.332031 22.378906 C 50.609375 22.378906 50.824219 22.445312 50.96875 22.582031 C 51.125 22.71875 51.203125 22.921875 51.203125 23.191406 M 50.675781 22.851562 C 50.601562 22.78125 50.503906 22.75 50.378906 22.75 L 50.09375 22.75 C 49.972656 22.75 49.871094 22.78125 49.796875 22.851562 C 49.730469 22.925781 49.695312 23.011719 49.695312 23.109375 L 49.695312 25.011719 C 49.695312 25.109375 49.730469 25.195312 49.796875 25.269531 C 49.871094 25.335938 49.972656 25.371094 50.09375 25.371094 L 50.378906 25.371094 C 50.503906 25.371094 50.601562 25.335938 50.675781 25.269531 C 50.742188 25.195312 50.777344 25.109375 50.777344 25.011719 L 50.777344 23.109375 C 50.777344 23.011719 50.742188 22.925781 50.675781 22.851562 M 48.414062 22.75 L 47.683594 22.75 C 47.5625 22.75 47.464844 22.78125 47.390625 22.851562 C 47.320312 22.925781 47.289062 23.011719 47.289062 23.109375 L 47.289062 25.011719 C 47.289062 25.109375 47.320312 25.195312 47.390625 25.269531 C 47.464844 25.335938 47.5625 25.371094 47.683594 25.371094 L 48.414062 25.371094 L 48.414062 25.742188 L 47.730469 25.742188 C 47.453125 25.742188 47.242188 25.671875 47.09375 25.539062 C 46.945312 25.402344 46.871094 25.199219 46.871094 24.929688 L 46.871094 23.191406 C 46.871094 22.921875 46.945312 22.71875 47.09375 22.582031 C 47.242188 22.445312 47.453125 22.378906 47.730469 22.378906 L 48.414062 22.378906 L 48.414062 22.75 M 45.886719 23.128906 L 45.886719 23.40625 C 45.886719 23.527344 45.863281 23.636719 45.820312 23.738281 C 45.773438 23.828125 45.707031 23.902344 45.628906 23.957031 C 45.726562 24.015625 45.800781 24.089844 45.859375 24.191406 C 45.90625 24.289062 45.933594 24.40625 45.933594 24.550781 L 45.933594 24.984375 C 45.933594 25.253906 45.871094 25.449219 45.746094 25.566406 C 45.617188 25.683594 45.410156 25.742188 45.121094 25.742188 L 44.160156 25.742188 L 44.160156 22.378906 L 45.0625 22.378906 C 45.339844 22.378906 45.546875 22.433594 45.683594 22.546875 C 45.816406 22.65625 45.886719 22.851562 45.886719 23.128906 M 45.386719 22.824219 L 45.121094 22.738281 L 44.574219 22.738281 L 44.574219 23.800781 L 45.121094 23.800781 C 45.21875 23.800781 45.300781 23.769531 45.367188 23.710938 C 45.4375 23.640625 45.46875 23.554688 45.46875 23.449219 L 45.46875 23.082031 C 45.46875 22.964844 45.441406 22.878906 45.386719 22.824219 M 43.421875 23.191406 L 43.421875 24.929688 C 43.421875 25.199219 43.34375 25.402344 43.191406 25.539062 C 43.042969 25.671875 42.832031 25.742188 42.554688 25.742188 L 42.359375 25.742188 C 42.082031 25.742188 41.867188 25.671875 41.714844 25.539062 C 41.566406 25.402344 41.492188 25.199219 41.492188 24.929688 L 41.492188 23.191406 C 41.492188 22.921875 41.566406 22.71875 41.714844 22.582031 C 41.867188 22.445312 42.082031 22.378906 42.359375 22.378906 L 42.554688 22.378906 C 42.832031 22.378906 43.042969 22.445312 43.191406 22.582031 C 43.34375 22.71875 43.421875 22.921875 43.421875 23.191406 M 44.574219 25.382812 L 45.164062 25.382812 C 45.28125 25.382812 45.371094 25.351562 45.433594 25.296875 C 45.488281 25.242188 45.515625 25.152344 45.515625 25.03125 L 45.515625 24.503906 C 45.515625 24.398438 45.484375 24.316406 45.425781 24.253906 C 45.355469 24.191406 45.269531 24.160156 45.164062 24.160156 L 44.574219 24.160156 L 44.574219 25.382812 M 42.996094 23.109375 C 42.996094 23.011719 42.964844 22.925781 42.894531 22.851562 C 42.820312 22.78125 42.722656 22.75 42.601562 22.75 L 42.3125 22.75 C 42.191406 22.75 42.09375 22.78125 42.019531 22.851562 C 41.949219 22.925781 41.917969 23.011719 41.917969 23.109375 L 41.917969 25.011719 C 41.917969 25.109375 41.949219 25.195312 42.019531 25.269531 C 42.09375 25.335938 42.191406 25.371094 42.3125 25.371094 L 42.601562 25.371094 C 42.722656 25.371094 42.820312 25.335938 42.894531 25.269531 C 42.964844 25.195312 42.996094 25.109375 42.996094 25.011719 L 42.996094 23.109375 M 40.125 22.824219 C 40.070312 22.765625 39.980469 22.738281 39.859375 22.738281 L 39.324219 22.738281 L 39.324219 23.988281 L 39.859375 23.988281 C 39.980469 23.988281 40.070312 23.957031 40.125 23.902344 C 40.183594 23.847656 40.210938 23.757812 40.210938 23.636719 L 40.210938 23.082031 C 40.210938 22.964844 40.183594 22.878906 40.125 22.824219 M 40.421875 22.554688 C 40.5625 22.671875 40.632812 22.863281 40.632812 23.128906 L 40.632812 23.589844 C 40.632812 23.78125 40.597656 23.929688 40.523438 24.042969 C 40.445312 24.144531 40.335938 24.21875 40.199219 24.261719 L 40.863281 25.742188 L 40.414062 25.742188 L 39.792969 24.347656 L 39.324219 24.347656 L 39.324219 25.742188 L 38.898438 25.742188 L 38.898438 22.378906 L 39.804688 22.378906 C 40.066406 22.378906 40.273438 22.4375 40.421875 22.554688 M 35.144531 22.804688 L 34.257812 22.804688 L 34.257812 23.765625 L 34.441406 23.765625 C 34.675781 23.765625 34.863281 23.820312 35.003906 23.929688 C 35.144531 24.042969 35.21875 24.226562 35.21875 24.484375 L 35.21875 24.992188 C 35.21875 25.257812 35.15625 25.449219 35.03125 25.566406 C 34.910156 25.683594 34.707031 25.742188 34.421875 25.742188 L 33.804688 25.742188 L 33.804688 25.390625 L 34.460938 25.390625 C 34.582031 25.390625 34.667969 25.359375 34.71875 25.296875 C 34.78125 25.25 34.8125 25.164062 34.8125 25.039062 L 34.8125 24.449219 C 34.8125 24.34375 34.777344 24.261719 34.710938 24.199219 C 34.648438 24.144531 34.566406 24.117188 34.46875 24.117188 L 33.851562 24.117188 L 33.851562 22.453125 L 35.144531 22.453125 L 35.144531 22.804688 M 37.550781 33.257812 L 37.550781 36.261719 L 38.070312 36.261719 L 38.070312 36.621094 L 36.507812 36.621094 L 36.507812 36.261719 L 37.136719 36.261719 L 37.136719 33.636719 L 36.464844 33.886719 L 36.464844 33.5 L 37.089844 33.257812 L 37.550781 33.257812 M 35.199219 34.421875 L 35.199219 35.523438 L 35.558594 35.523438 L 35.558594 35.871094 L 35.199219 35.871094 L 35.199219 36.621094 L 34.785156 36.621094 L 34.785156 35.871094 L 33.796875 35.871094 L 33.796875 35.457031 L 34.3125 33.257812 L 34.699219 33.257812 L 34.210938 35.523438 L 34.785156 35.523438 L 34.785156 34.421875 L 35.199219 34.421875 M 34.304688 38.699219 L 34.683594 40.417969 L 35.078125 38.699219 L 35.726562 38.699219 L 35.726562 42.058594 L 35.347656 42.058594 L 35.347656 39.039062 L 34.867188 40.933594 L 34.46875 40.933594 L 34 39.039062 L 34 42.058594 L 33.640625 42.058594 L 33.640625 38.699219 L 34.304688 38.699219 M 44.601562 33.988281 L 44.601562 35.289062 L 45.496094 33.988281 C 45.496094 33.890625 45.460938 33.804688 45.386719 33.730469 C 45.320312 33.65625 45.222656 33.617188 45.101562 33.617188 L 45 33.617188 C 44.875 33.617188 44.78125 33.65625 44.714844 33.730469 C 44.640625 33.804688 44.601562 33.890625 44.601562 33.988281 M 44.417969 33.453125 C 44.566406 33.324219 44.757812 33.257812 45 33.257812 L 45.101562 33.257812 C 45.339844 33.257812 45.535156 33.324219 45.683594 33.453125 C 45.832031 33.589844 45.902344 33.792969 45.902344 34.070312 L 45.902344 35.808594 C 45.902344 36.078125 45.832031 36.28125 45.683594 36.417969 C 45.535156 36.554688 45.339844 36.621094 45.101562 36.621094 L 45 36.621094 C 44.757812 36.621094 44.566406 36.554688 44.417969 36.417969 C 44.269531 36.28125 44.195312 36.078125 44.195312 35.808594 L 44.195312 34.070312 C 44.195312 33.792969 44.269531 33.589844 44.417969 33.453125 M 41.648438 33.5 L 42.277344 33.257812 L 42.738281 33.257812 L 42.738281 36.261719 L 43.253906 36.261719 L 43.253906 36.621094 L 41.695312 36.621094 L 41.695312 36.261719 L 42.324219 36.261719 L 42.324219 33.636719 L 41.648438 33.886719 L 41.648438 33.5 M 40.097656 36.140625 L 40.097656 36.621094 L 39.621094 36.621094 L 39.621094 36.140625 L 40.097656 36.140625 M 45.101562 36.261719 C 45.222656 36.261719 45.320312 36.222656 45.386719 36.148438 C 45.460938 36.074219 45.496094 35.988281 45.496094 35.890625 L 45.496094 34.597656 L 44.601562 35.890625 C 44.601562 35.988281 44.640625 36.074219 44.714844 36.148438 C 44.78125 36.222656 44.875 36.261719 45 36.261719 L 45.101562 36.261719 M 39.480469 44.488281 L 39.480469 45.589844 L 40.542969 45.589844 L 40.542969 45.9375 L 39.480469 45.9375 L 39.480469 47.148438 L 40.660156 47.148438 L 40.660156 47.5 L 39.066406 47.5 L 39.066406 44.136719 L 40.660156 44.136719 L 40.660156 44.488281 L 39.480469 44.488281 M 38.070312 44.136719 L 38.070312 44.488281 L 36.886719 44.488281 L 36.886719 45.589844 L 37.949219 45.589844 L 37.949219 45.9375 L 36.886719 45.9375 L 36.886719 47.148438 L 38.070312 47.148438 L 38.070312 47.5 L 36.472656 47.5 L 36.472656 44.136719 L 38.070312 44.136719 M 34.617188 44.136719 C 34.882812 44.136719 35.085938 44.195312 35.234375 44.3125 C 35.378906 44.429688 35.449219 44.621094 35.449219 44.886719 L 35.449219 45.347656 C 35.449219 45.539062 35.410156 45.691406 35.335938 45.800781 C 35.257812 45.90625 35.148438 45.980469 35.015625 46.023438 L 35.679688 47.5 L 35.226562 47.5 L 34.609375 46.105469 L 34.136719 46.105469 L 34.136719 47.5 L 33.710938 47.5 L 33.710938 44.136719 L 34.617188 44.136719 M 34.941406 44.582031 C 34.886719 44.527344 34.796875 44.5 34.671875 44.5 L 34.136719 44.5 L 34.136719 45.746094 L 34.671875 45.746094 C 34.796875 45.746094 34.886719 45.71875 34.941406 45.664062 C 34.996094 45.605469 35.023438 45.515625 35.023438 45.394531 L 35.023438 44.839844 C 35.023438 44.722656 34.996094 44.636719 34.941406 44.582031 M 38.1875 49.578125 L 38.1875 52.128906 C 38.1875 52.398438 38.113281 52.601562 37.96875 52.738281 C 37.820312 52.871094 37.605469 52.941406 37.332031 52.941406 L 37.210938 52.941406 C 36.925781 52.941406 36.710938 52.871094 36.566406 52.738281 C 36.417969 52.601562 36.34375 52.398438 36.34375 52.128906 L 36.34375 49.578125 L 36.757812 49.578125 L 36.757812 52.210938 C 36.757812 52.308594 36.796875 52.394531 36.867188 52.46875 C 36.941406 52.535156 37.039062 52.570312 37.15625 52.570312 L 37.375 52.570312 C 37.5 52.570312 37.59375 52.535156 37.664062 52.46875 C 37.738281 52.394531 37.773438 52.308594 37.773438 52.210938 L 37.773438 49.578125 L 38.1875 49.578125 M 35.640625 52.128906 C 35.640625 52.398438 35.566406 52.601562 35.410156 52.738281 C 35.261719 52.871094 35.050781 52.941406 34.773438 52.941406 L 34.582031 52.941406 C 34.304688 52.941406 34.089844 52.871094 33.933594 52.738281 C 33.785156 52.601562 33.710938 52.398438 33.710938 52.128906 L 33.710938 50.390625 C 33.710938 50.121094 33.785156 49.917969 33.933594 49.78125 C 34.089844 49.644531 34.304688 49.578125 34.582031 49.578125 L 34.773438 49.578125 C 35.050781 49.578125 35.261719 49.644531 35.410156 49.78125 C 35.566406 49.917969 35.640625 50.121094 35.640625 50.390625 L 35.640625 52.128906 M 38.945312 49.578125 L 39.628906 49.578125 L 40.386719 52.578125 L 40.386719 49.578125 L 40.773438 49.578125 L 40.773438 52.941406 L 40.089844 52.941406 L 39.332031 49.929688 L 39.332031 52.941406 L 38.945312 52.941406 L 38.945312 49.578125 M 34.136719 50.308594 L 34.136719 52.210938 C 34.136719 52.308594 34.171875 52.394531 34.238281 52.46875 C 34.3125 52.535156 34.410156 52.570312 34.535156 52.570312 L 34.820312 52.570312 C 34.941406 52.570312 35.042969 52.535156 35.117188 52.46875 C 35.183594 52.394531 35.21875 52.308594 35.21875 52.210938 L 35.21875 50.308594 C 35.21875 50.210938 35.183594 50.121094 35.117188 50.050781 C 35.042969 49.980469 34.941406 49.949219 34.820312 49.949219 L 34.535156 49.949219 C 34.410156 49.949219 34.3125 49.980469 34.238281 50.050781 C 34.171875 50.121094 34.136719 50.210938 34.136719 50.308594 M 34.191406 55.378906 L 34.191406 58.019531 L 34.800781 58.019531 L 35.078125 57.9375 C 35.132812 57.878906 35.160156 57.792969 35.160156 57.667969 L 35.160156 55.71875 C 35.160156 55.613281 35.128906 55.53125 35.058594 55.46875 C 35 55.410156 34.914062 55.378906 34.8125 55.378906 L 34.191406 55.378906 M 35.347656 55.183594 C 35.5 55.292969 35.578125 55.488281 35.578125 55.765625 L 35.578125 57.621094 C 35.578125 57.898438 35.511719 58.09375 35.382812 58.203125 C 35.261719 58.320312 35.054688 58.378906 34.765625 58.378906 L 33.777344 58.378906 L 33.777344 55.019531 L 34.699219 55.019531 C 34.976562 55.019531 35.191406 55.074219 35.347656 55.183594 M 38.070312 55.367188 L 36.886719 55.367188 L 36.886719 56.46875 L 37.949219 56.46875 L 37.949219 56.820312 L 36.886719 56.820312 L 36.886719 58.027344 L 38.070312 58.027344 L 38.070312 58.378906 L 36.472656 58.378906 L 36.472656 55.019531 L 38.070312 55.019531 L 38.070312 55.367188 M 39.222656 55.019531 L 40.496094 55.019531 L 40.496094 55.367188 L 40.070312 55.367188 L 40.070312 58.027344 L 40.496094 58.027344 L 40.496094 58.378906 L 39.222656 58.378906 L 39.222656 58.027344 L 39.65625 58.027344 L 39.65625 55.367188 L 39.222656 55.367188 L 39.222656 55.019531 M 43.355469 50.324219 L 43.355469 52.183594 C 43.355469 52.460938 43.292969 52.652344 43.164062 52.765625 C 43.039062 52.882812 42.832031 52.941406 42.542969 52.941406 L 41.558594 52.941406 L 41.558594 49.578125 L 42.480469 49.578125 C 42.757812 49.578125 42.972656 49.632812 43.125 49.746094 C 43.28125 49.855469 43.355469 50.050781 43.355469 50.324219 M 42.839844 50.03125 C 42.777344 49.96875 42.695312 49.9375 42.589844 49.9375 L 41.972656 49.9375 L 41.972656 52.578125 L 42.582031 52.578125 C 42.703125 52.578125 42.796875 52.550781 42.859375 52.496094 C 42.914062 52.441406 42.941406 52.351562 42.941406 52.230469 L 42.941406 50.28125 C 42.941406 50.175781 42.90625 50.09375 42.839844 50.03125 M 41.484375 55.019531 L 43.429688 55.019531 L 43.429688 55.386719 L 42.664062 55.386719 L 42.664062 58.378906 L 42.25 58.378906 L 42.25 55.386719 L 41.484375 55.386719 L 41.484375 55.019531 M 45.609375 55.191406 C 45.75 55.308594 45.820312 55.5 45.820312 55.765625 L 45.820312 56.226562 C 45.820312 56.417969 45.785156 56.570312 45.710938 56.679688 C 45.628906 56.785156 45.523438 56.859375 45.386719 56.902344 L 46.050781 58.378906 L 45.597656 58.378906 L 44.980469 56.984375 L 44.511719 56.984375 L 44.511719 58.378906 L 44.085938 58.378906 L 44.085938 55.019531 L 44.992188 55.019531 C 45.253906 55.019531 45.460938 55.078125 45.609375 55.191406 M 45.046875 55.378906 L 44.511719 55.378906 L 44.511719 56.625 L 45.046875 56.625 C 45.167969 56.625 45.257812 56.597656 45.3125 56.542969 C 45.367188 56.484375 45.394531 56.398438 45.394531 56.273438 L 45.394531 55.71875 C 45.394531 55.601562 45.367188 55.515625 45.3125 55.460938 C 45.257812 55.40625 45.167969 55.378906 45.046875 55.378906 M 48.277344 55.019531 L 48.277344 55.367188 L 47.851562 55.367188 L 47.851562 58.027344 L 48.277344 58.027344 L 48.277344 58.378906 L 47.003906 58.378906 L 47.003906 58.027344 L 47.4375 58.027344 L 47.4375 55.367188 L 47.003906 55.367188 L 47.003906 55.019531 L 48.277344 55.019531 M 49.261719 55.019531 L 49.714844 55.019531 L 50.242188 56.152344 L 50.796875 55.019531 L 51.238281 55.019531 L 50.464844 56.632812 L 51.285156 58.378906 L 50.8125 58.378906 L 50.242188 57.113281 L 49.632812 58.378906 L 49.179688 58.378906 L 50.019531 56.644531 L 49.261719 55.019531 "/>
</g>
</svg>
