<?xml version="1.0" encoding="UTF-8"?>
<svg xmlns="http://www.w3.org/2000/svg" xmlns:xlink="http://www.w3.org/1999/xlink" width="129pt" height="53pt" viewBox="0 0 129 53" version="1.1">
<g id="surface1">
<path style=" stroke:none;fill-rule:nonzero;fill:rgb(100%,100%,100%);fill-opacity:1;" d="M 110.097656 0.492188 L 110.035156 1.230469 L 110.71875 0.960938 L 110.847656 1.339844 L 110.136719 1.488281 L 110.644531 2.082031 L 110.300781 2.332031 L 109.878906 1.644531 L 109.445312 2.332031 L 109.101562 2.082031 L 109.621094 1.488281 L 108.917969 1.339844 L 109.054688 0.953125 L 109.730469 1.230469 L 109.664062 0.492188 L 110.097656 0.492188 M 107.507812 0.492188 L 107.441406 1.230469 L 108.125 0.960938 L 108.253906 1.339844 L 107.542969 1.488281 L 108.050781 2.082031 L 107.710938 2.332031 L 107.285156 1.644531 L 106.851562 2.332031 L 106.507812 2.082031 L 107.027344 1.488281 L 106.324219 1.339844 L 106.464844 0.953125 L 107.136719 1.230469 L 107.074219 0.492188 L 107.507812 0.492188 M 112.691406 0.492188 L 112.628906 1.230469 L 113.3125 0.960938 L 113.441406 1.339844 L 112.730469 1.488281 L 113.238281 2.082031 L 112.894531 2.332031 L 112.472656 1.644531 L 112.039062 2.332031 L 111.695312 2.082031 L 112.210938 1.488281 L 111.511719 1.339844 L 111.648438 0.953125 L 112.324219 1.230469 L 112.257812 0.492188 L 112.691406 0.492188 M 115.285156 0.492188 L 115.222656 1.230469 L 115.90625 0.960938 L 116.035156 1.339844 L 115.324219 1.488281 L 115.832031 2.082031 L 115.488281 2.332031 L 115.066406 1.644531 L 114.628906 2.332031 L 114.289062 2.082031 L 114.804688 1.488281 L 114.105469 1.339844 L 114.242188 0.953125 L 114.917969 1.230469 L 114.851562 0.492188 L 115.285156 0.492188 M 116.882812 2.082031 L 117.398438 1.488281 L 116.699219 1.339844 L 116.835938 0.953125 L 117.511719 1.230469 L 117.445312 0.492188 L 117.878906 0.492188 L 117.816406 1.230469 L 118.496094 0.960938 L 118.625 1.339844 L 117.917969 1.488281 L 118.421875 2.082031 L 118.082031 2.332031 L 117.65625 1.644531 L 117.222656 2.332031 L 116.882812 2.082031 M 120.472656 0.492188 L 120.40625 1.230469 L 121.089844 0.960938 L 121.21875 1.339844 L 120.507812 1.488281 L 121.015625 2.082031 L 120.675781 2.332031 L 120.25 1.644531 L 119.816406 2.332031 L 119.476562 2.082031 L 119.992188 1.488281 L 119.292969 1.339844 L 119.429688 0.953125 L 120.101562 1.230469 L 120.039062 0.492188 L 120.472656 0.492188 M 94.539062 0.492188 L 94.476562 1.230469 L 95.15625 0.960938 L 95.289062 1.339844 L 94.578125 1.488281 L 95.085938 2.082031 L 94.742188 2.332031 L 94.316406 1.644531 L 93.882812 2.332031 L 93.542969 2.082031 L 94.058594 1.488281 L 93.359375 1.339844 L 93.496094 0.953125 L 94.171875 1.230469 L 94.105469 0.492188 L 94.539062 0.492188 M 92.695312 1.339844 L 91.984375 1.488281 L 92.492188 2.082031 L 92.148438 2.332031 L 91.726562 1.644531 L 91.292969 2.332031 L 90.949219 2.082031 L 91.464844 1.488281 L 90.765625 1.339844 L 90.902344 0.953125 L 91.578125 1.230469 L 91.511719 0.492188 L 91.945312 0.492188 L 91.882812 1.230469 L 92.566406 0.960938 L 92.695312 1.339844 M 97.132812 0.492188 L 97.070312 1.230469 L 97.75 0.960938 L 97.878906 1.339844 L 97.167969 1.488281 L 97.675781 2.082031 L 97.335938 2.332031 L 96.910156 1.644531 L 96.476562 2.332031 L 96.136719 2.082031 L 96.652344 1.488281 L 95.953125 1.339844 L 96.089844 0.953125 L 96.765625 1.230469 L 96.699219 0.492188 L 97.132812 0.492188 M 98.683594 0.953125 L 99.355469 1.230469 L 99.292969 0.492188 L 99.726562 0.492188 L 99.660156 1.230469 L 100.34375 0.960938 L 100.472656 1.339844 L 99.761719 1.488281 L 100.269531 2.082031 L 99.929688 2.332031 L 99.503906 1.644531 L 99.070312 2.332031 L 98.730469 2.082031 L 99.246094 1.488281 L 98.546875 1.339844 L 98.683594 0.953125 M 102.320312 0.492188 L 102.253906 1.230469 L 102.9375 0.960938 L 103.066406 1.339844 L 102.355469 1.488281 L 102.863281 2.082031 L 102.523438 2.332031 L 102.097656 1.644531 L 101.664062 2.332031 L 101.324219 2.082031 L 101.839844 1.488281 L 101.136719 1.339844 L 101.277344 0.953125 L 101.949219 1.230469 L 101.886719 0.492188 L 102.320312 0.492188 M 103.917969 2.082031 L 104.433594 1.488281 L 103.730469 1.339844 L 103.871094 0.953125 L 104.542969 1.230469 L 104.480469 0.492188 L 104.914062 0.492188 L 104.847656 1.230469 L 105.53125 0.960938 L 105.660156 1.339844 L 104.949219 1.488281 L 105.457031 2.082031 L 105.117188 2.332031 L 104.691406 1.644531 L 104.257812 2.332031 L 103.917969 2.082031 M 81.40625 0.601562 C 81.648438 0.601562 81.839844 0.667969 81.988281 0.796875 C 82.136719 0.929688 82.210938 1.136719 82.210938 1.414062 L 82.210938 3.152344 C 82.210938 3.425781 82.136719 3.628906 81.988281 3.761719 C 81.839844 3.898438 81.648438 3.964844 81.40625 3.964844 L 81.304688 3.964844 C 81.066406 3.964844 80.871094 3.898438 80.722656 3.761719 C 80.578125 3.628906 80.503906 3.425781 80.503906 3.152344 L 80.503906 1.414062 C 80.503906 1.136719 80.578125 0.929688 80.722656 0.796875 C 80.871094 0.667969 81.066406 0.601562 81.304688 0.601562 L 81.40625 0.601562 M 81.019531 1.074219 C 80.945312 1.148438 80.910156 1.234375 80.910156 1.332031 L 80.910156 2.636719 L 81.804688 1.332031 C 81.804688 1.234375 81.765625 1.148438 81.691406 1.074219 C 81.625 1 81.53125 0.960938 81.40625 0.960938 L 81.304688 0.960938 C 81.183594 0.960938 81.085938 1 81.019531 1.074219 M 86.585938 0.601562 C 86.832031 0.601562 87.019531 0.660156 87.15625 0.777344 C 87.296875 0.894531 87.367188 1.085938 87.367188 1.351562 L 87.367188 1.65625 C 87.367188 1.90625 87.28125 2.09375 87.109375 2.210938 C 87.214844 2.265625 87.296875 2.34375 87.351562 2.441406 C 87.398438 2.539062 87.425781 2.660156 87.425781 2.800781 L 87.425781 3.207031 C 87.425781 3.472656 87.363281 3.664062 87.238281 3.78125 C 87.109375 3.90625 86.902344 3.964844 86.613281 3.964844 L 86.472656 3.964844 C 86.183594 3.964844 85.976562 3.90625 85.847656 3.78125 C 85.722656 3.664062 85.660156 3.472656 85.660156 3.207031 L 85.660156 2.800781 C 85.660156 2.660156 85.6875 2.539062 85.734375 2.441406 C 85.789062 2.34375 85.867188 2.265625 85.964844 2.210938 C 85.800781 2.09375 85.71875 1.90625 85.71875 1.65625 L 85.71875 1.351562 C 85.71875 1.085938 85.789062 0.894531 85.929688 0.777344 C 86.066406 0.660156 86.253906 0.601562 86.492188 0.601562 L 86.585938 0.601562 M 86.953125 1.304688 C 86.953125 1.1875 86.925781 1.101562 86.871094 1.046875 C 86.816406 0.988281 86.730469 0.960938 86.613281 0.960938 L 86.4375 0.960938 C 86.324219 0.96875 86.25 1 86.207031 1.054688 C 86.15625 1.109375 86.132812 1.191406 86.132812 1.304688 L 86.132812 1.703125 C 86.132812 1.804688 86.164062 1.890625 86.222656 1.953125 C 86.285156 2.011719 86.359375 2.046875 86.445312 2.054688 L 86.613281 2.054688 C 86.703125 2.054688 86.785156 2.023438 86.851562 1.960938 C 86.917969 1.898438 86.953125 1.8125 86.953125 1.703125 L 86.953125 1.304688 M 86.179688 2.507812 C 86.109375 2.566406 86.078125 2.652344 86.078125 2.753906 L 86.078125 3.253906 C 86.078125 3.371094 86.101562 3.460938 86.152344 3.523438 C 86.199219 3.578125 86.28125 3.605469 86.390625 3.605469 L 86.648438 3.605469 C 86.773438 3.605469 86.863281 3.578125 86.925781 3.523438 C 86.980469 3.46875 87.007812 3.378906 87.007812 3.253906 L 87.007812 2.753906 C 87.007812 2.652344 86.976562 2.566406 86.90625 2.507812 C 86.847656 2.445312 86.761719 2.414062 86.660156 2.414062 L 86.425781 2.414062 C 86.324219 2.414062 86.238281 2.445312 86.179688 2.507812 M 62.71875 0.0273438 L 63.144531 0.0273438 L 63.355469 0.277344 L 63.523438 0.59375 L 63.640625 1.007812 L 63.679688 1.535156 L 63.679688 3.03125 L 63.640625 3.570312 L 63.523438 3.976562 L 63.355469 4.300781 L 63.144531 4.539062 L 62.71875 4.539062 L 62.988281 4.199219 L 63.160156 3.882812 L 63.246094 3.523438 L 63.273438 3.042969 L 63.273438 1.527344 L 63.246094 1.046875 L 63.160156 0.683594 L 62.988281 0.371094 L 62.71875 0.0273438 M 67.785156 0.601562 L 68.359375 3.542969 L 68.976562 0.601562 L 69.390625 0.601562 L 68.632812 3.964844 L 68.070312 3.964844 L 67.359375 0.601562 L 67.785156 0.601562 M 70.183594 0.601562 L 71.746094 0.601562 L 71.746094 1.0625 L 70.90625 3.964844 L 70.472656 3.964844 L 71.347656 0.960938 L 70.183594 0.960938 L 70.183594 0.601562 M 75.988281 0.601562 L 76.453125 0.601562 L 76.453125 3.605469 L 76.96875 3.605469 L 76.96875 3.964844 L 75.410156 3.964844 L 75.410156 3.605469 L 76.035156 3.605469 L 76.035156 0.980469 L 75.363281 1.230469 L 75.363281 0.84375 L 75.988281 0.601562 M 73.8125 3.484375 L 73.8125 3.964844 L 73.332031 3.964844 L 73.332031 3.484375 L 73.8125 3.484375 M 84.183594 3.964844 L 83.707031 3.964844 L 83.707031 3.484375 L 84.183594 3.484375 L 84.183594 3.964844 M 81.40625 3.605469 C 81.53125 3.605469 81.625 3.570312 81.691406 3.496094 C 81.765625 3.421875 81.804688 3.335938 81.804688 3.234375 L 81.804688 1.941406 L 80.910156 3.234375 C 80.910156 3.335938 80.945312 3.421875 81.019531 3.496094 C 81.085938 3.570312 81.183594 3.605469 81.304688 3.605469 L 81.40625 3.605469 M 79 3.964844 L 78.519531 3.964844 L 78.519531 3.484375 L 79 3.484375 L 79 3.964844 M 123.066406 0.492188 L 123 1.230469 L 123.683594 0.960938 L 123.8125 1.339844 L 123.101562 1.488281 L 123.609375 2.082031 L 123.269531 2.332031 L 122.84375 1.644531 L 122.410156 2.332031 L 122.070312 2.082031 L 122.585938 1.488281 L 121.882812 1.339844 L 122.023438 0.953125 L 122.695312 1.230469 L 122.632812 0.492188 L 123.066406 0.492188 M 124.617188 0.953125 L 125.289062 1.230469 L 125.226562 0.492188 L 125.660156 0.492188 L 125.59375 1.230469 L 126.277344 0.960938 L 126.40625 1.339844 L 125.695312 1.488281 L 126.203125 2.082031 L 125.863281 2.332031 L 125.4375 1.644531 L 125.003906 2.332031 L 124.664062 2.082031 L 125.179688 1.488281 L 124.476562 1.339844 L 124.617188 0.953125 M 128.253906 0.492188 L 128.1875 1.230469 L 128.871094 0.960938 L 129 1.339844 L 128.289062 1.488281 L 128.796875 2.082031 L 128.457031 2.332031 L 128.03125 1.644531 L 127.597656 2.332031 L 127.253906 2.082031 L 127.773438 1.488281 L 127.070312 1.339844 L 127.210938 0.953125 L 127.882812 1.230469 L 127.820312 0.492188 L 128.253906 0.492188 M 1.179688 0.492188 L 1.117188 1.230469 L 1.800781 0.960938 L 1.929688 1.339844 L 1.21875 1.488281 L 1.726562 2.082031 L 1.382812 2.332031 L 0.960938 1.644531 L 0.527344 2.332031 L 0.183594 2.082031 L 0.703125 1.488281 L 0 1.339844 L 0.136719 0.953125 L 0.8125 1.230469 L 0.746094 0.492188 L 1.179688 0.492188 M 1.734375 22.75 L 1.007812 22.75 C 0.882812 22.75 0.785156 22.785156 0.710938 22.851562 C 0.644531 22.925781 0.609375 23.011719 0.609375 23.113281 L 0.609375 25.015625 C 0.609375 25.113281 0.644531 25.199219 0.710938 25.273438 C 0.785156 25.34375 0.882812 25.375 1.007812 25.375 L 1.734375 25.375 L 1.734375 25.746094 L 1.050781 25.746094 C 0.773438 25.746094 0.5625 25.679688 0.414062 25.542969 C 0.269531 25.40625 0.195312 25.203125 0.195312 24.933594 L 0.195312 23.195312 C 0.195312 22.925781 0.269531 22.71875 0.414062 22.585938 C 0.5625 22.449219 0.773438 22.382812 1.050781 22.382812 L 1.734375 22.382812 L 1.734375 22.75 M 0.636719 27.828125 L 0.636719 30.820312 L 1.707031 30.820312 L 1.707031 31.191406 L 0.222656 31.191406 L 0.222656 27.828125 L 0.636719 27.828125 M 1.644531 35.074219 L 0.582031 35.074219 L 0.582031 36.285156 L 1.761719 36.285156 L 1.761719 36.636719 L 0.167969 36.636719 L 0.167969 33.273438 L 1.761719 33.273438 L 1.761719 33.621094 L 0.582031 33.621094 L 0.582031 34.722656 L 1.644531 34.722656 L 1.644531 35.074219 M 0.542969 39.445312 L 0.542969 39.964844 L 1.015625 39.964844 C 1.285156 39.964844 1.488281 40.027344 1.625 40.148438 C 1.753906 40.265625 1.816406 40.464844 1.816406 40.742188 L 1.816406 41.269531 C 1.816406 41.402344 1.796875 41.519531 1.753906 41.621094 C 1.714844 41.722656 1.664062 41.808594 1.597656 41.878906 C 1.523438 41.945312 1.441406 42 1.347656 42.035156 L 1.0625 42.082031 L 0.894531 42.082031 L 0.601562 42.027344 L 0.359375 41.878906 L 0.195312 41.621094 L 0.136719 41.269531 L 0.136719 39.53125 C 0.136719 39.257812 0.210938 39.054688 0.351562 38.921875 C 0.5 38.785156 0.710938 38.714844 0.988281 38.714844 L 1.585938 38.714844 L 1.585938 39.085938 L 0.941406 39.085938 C 0.816406 39.085938 0.71875 39.121094 0.644531 39.1875 C 0.578125 39.261719 0.542969 39.347656 0.542969 39.445312 M 1.0625 40.324219 L 0.542969 40.324219 L 0.542969 41.359375 C 0.542969 41.453125 0.574219 41.535156 0.636719 41.609375 C 0.703125 41.683594 0.796875 41.722656 0.914062 41.722656 L 1.035156 41.722656 C 1.15625 41.722656 1.25 41.683594 1.308594 41.609375 C 1.378906 41.535156 1.410156 41.453125 1.410156 41.359375 L 1.410156 40.648438 C 1.410156 40.550781 1.382812 40.472656 1.328125 40.417969 C 1.273438 40.355469 1.183594 40.324219 1.0625 40.324219 M 0.804688 44.160156 C 1.074219 44.160156 1.28125 44.21875 1.421875 44.335938 C 1.5625 44.453125 1.632812 44.644531 1.632812 44.910156 L 1.632812 45.214844 C 1.632812 45.34375 1.609375 45.457031 1.558594 45.546875 C 1.515625 45.640625 1.453125 45.714844 1.367188 45.769531 C 1.46875 45.824219 1.546875 45.902344 1.597656 46 C 1.652344 46.101562 1.679688 46.21875 1.679688 46.363281 L 1.679688 46.769531 C 1.679688 47.035156 1.613281 47.222656 1.484375 47.339844 C 1.363281 47.464844 1.152344 47.527344 0.859375 47.527344 L 0.25 47.527344 L 0.25 47.164062 L 0.90625 47.164062 C 1.027344 47.164062 1.117188 47.136719 1.171875 47.082031 C 1.234375 47.027344 1.265625 46.9375 1.265625 46.816406 L 1.265625 46.316406 C 1.265625 46.210938 1.230469 46.128906 1.164062 46.066406 C 1.101562 46.003906 1.019531 45.972656 0.914062 45.972656 L 0.398438 45.972656 L 0.398438 45.613281 L 0.867188 45.613281 C 0.960938 45.613281 1.039062 45.582031 1.109375 45.519531 C 1.179688 45.457031 1.21875 45.371094 1.21875 45.261719 L 1.21875 44.863281 C 1.21875 44.746094 1.1875 44.660156 1.125 44.605469 C 1.070312 44.550781 0.984375 44.523438 0.867188 44.523438 L 0.25 44.523438 L 0.25 44.160156 L 0.804688 44.160156 M 0.730469 49.605469 L 1.484375 52.609375 L 1.484375 49.605469 L 1.875 49.605469 L 1.875 52.972656 L 1.191406 52.972656 L 0.433594 49.957031 L 0.433594 52.972656 L 0.046875 52.972656 L 0.046875 49.605469 L 0.730469 49.605469 M 47.683594 0.601562 C 47.949219 0.601562 48.15625 0.660156 48.304688 0.777344 C 48.445312 0.894531 48.515625 1.085938 48.515625 1.351562 L 48.515625 1.894531 C 48.515625 2.160156 48.445312 2.355469 48.304688 2.476562 C 48.160156 2.601562 47.957031 2.664062 47.695312 2.664062 L 47.195312 2.664062 L 47.195312 3.964844 L 46.78125 3.964844 L 46.78125 0.601562 L 47.683594 0.601562 M 48.007812 1.046875 C 47.953125 0.988281 47.863281 0.960938 47.742188 0.960938 L 47.195312 0.960938 L 47.195312 2.292969 L 47.742188 2.292969 C 47.863281 2.292969 47.953125 2.265625 48.007812 2.210938 C 48.0625 2.15625 48.089844 2.070312 48.089844 1.953125 L 48.089844 1.304688 C 48.089844 1.1875 48.0625 1.101562 48.007812 1.046875 M 49.457031 2.285156 L 51.015625 2.285156 L 51.015625 2.644531 L 49.457031 2.644531 L 49.457031 2.285156 M 52.925781 0.601562 C 53.203125 0.601562 53.417969 0.667969 53.5625 0.804688 C 53.71875 0.941406 53.792969 1.144531 53.792969 1.414062 L 53.792969 3.152344 C 53.792969 3.425781 53.71875 3.628906 53.5625 3.761719 C 53.417969 3.898438 53.203125 3.964844 52.925781 3.964844 L 52.734375 3.964844 C 52.457031 3.964844 52.242188 3.898438 52.085938 3.761719 C 51.941406 3.628906 51.867188 3.425781 51.867188 3.152344 L 51.867188 1.414062 C 51.867188 1.144531 51.941406 0.941406 52.085938 0.804688 C 52.242188 0.667969 52.457031 0.601562 52.734375 0.601562 L 52.925781 0.601562 M 52.6875 0.972656 C 52.5625 0.972656 52.464844 1.003906 52.390625 1.074219 C 52.324219 1.148438 52.289062 1.234375 52.289062 1.332031 L 52.289062 3.234375 C 52.289062 3.335938 52.324219 3.421875 52.390625 3.496094 C 52.464844 3.5625 52.5625 3.597656 52.6875 3.597656 L 52.972656 3.597656 C 53.097656 3.597656 53.195312 3.5625 53.269531 3.496094 C 53.335938 3.421875 53.371094 3.335938 53.371094 3.234375 L 53.371094 1.332031 C 53.371094 1.234375 53.335938 1.148438 53.269531 1.074219 C 53.195312 1.003906 53.097656 0.972656 52.972656 0.972656 L 52.6875 0.972656 M 57.863281 0.277344 L 58.078125 0.0273438 L 58.492188 0.0273438 L 58.234375 0.371094 L 58.058594 0.683594 L 57.964844 1.046875 L 57.949219 1.527344 L 57.949219 3.042969 L 57.964844 3.523438 L 58.058594 3.882812 L 58.234375 4.199219 L 58.492188 4.539062 L 58.078125 4.539062 L 57.863281 4.300781 L 57.699219 3.976562 L 57.578125 3.570312 L 57.53125 3.03125 L 57.53125 1.535156 L 57.578125 1.007812 L 57.699219 0.59375 L 57.863281 0.277344 M 55.132812 1.074219 C 55.058594 1.148438 55.023438 1.234375 55.023438 1.332031 L 55.023438 1.691406 C 55.023438 1.792969 55.054688 1.875 55.113281 1.941406 C 55.183594 2.011719 55.269531 2.042969 55.371094 2.042969 L 55.511719 2.042969 C 55.734375 2.042969 55.90625 2.105469 56.039062 2.230469 C 56.167969 2.359375 56.230469 2.558594 56.230469 2.828125 L 56.230469 3.152344 C 56.230469 3.425781 56.15625 3.628906 56.007812 3.761719 C 55.863281 3.898438 55.648438 3.964844 55.371094 3.964844 L 54.691406 3.964844 L 54.691406 3.597656 L 55.417969 3.597656 C 55.542969 3.597656 55.636719 3.5625 55.703125 3.496094 C 55.777344 3.421875 55.816406 3.339844 55.816406 3.246094 L 55.816406 2.738281 C 55.816406 2.644531 55.792969 2.570312 55.742188 2.515625 C 55.699219 2.453125 55.625 2.421875 55.519531 2.421875 L 55.371094 2.421875 C 55.144531 2.421875 54.960938 2.355469 54.820312 2.21875 C 54.675781 2.082031 54.605469 1.878906 54.605469 1.601562 L 54.605469 1.425781 C 54.605469 1.148438 54.679688 0.941406 54.828125 0.804688 C 54.976562 0.667969 55.1875 0.601562 55.464844 0.601562 L 56.15625 0.601562 L 56.15625 0.972656 L 55.417969 0.972656 C 55.300781 0.972656 55.207031 1.003906 55.132812 1.074219 M 61.167969 0.777344 C 61.308594 0.894531 61.378906 1.085938 61.378906 1.351562 L 61.378906 1.8125 C 61.378906 2.003906 61.34375 2.15625 61.269531 2.265625 C 61.191406 2.371094 61.082031 2.445312 60.945312 2.488281 L 61.613281 3.964844 L 61.160156 3.964844 L 60.539062 2.570312 L 60.070312 2.570312 L 60.070312 3.964844 L 59.644531 3.964844 L 59.644531 0.601562 L 60.550781 0.601562 C 60.816406 0.601562 61.019531 0.660156 61.167969 0.777344 M 60.875 1.046875 C 60.816406 0.988281 60.726562 0.960938 60.605469 0.960938 L 60.070312 0.960938 L 60.070312 2.210938 L 60.605469 2.210938 C 60.726562 2.210938 60.816406 2.183594 60.875 2.128906 C 60.929688 2.070312 60.957031 1.980469 60.957031 1.859375 L 60.957031 1.304688 C 60.957031 1.1875 60.929688 1.101562 60.875 1.046875 M 34.894531 0.492188 L 34.828125 1.230469 L 35.511719 0.960938 L 35.640625 1.339844 L 34.929688 1.488281 L 35.4375 2.082031 L 35.097656 2.332031 L 34.671875 1.644531 L 34.238281 2.332031 L 33.898438 2.082031 L 34.414062 1.488281 L 33.710938 1.339844 L 33.851562 0.953125 L 34.523438 1.230469 L 34.460938 0.492188 L 34.894531 0.492188 M 32.300781 0.492188 L 32.234375 1.230469 L 32.917969 0.960938 L 33.046875 1.339844 L 32.335938 1.488281 L 32.84375 2.082031 L 32.503906 2.332031 L 32.078125 1.644531 L 31.644531 2.332031 L 31.304688 2.082031 L 31.820312 1.488281 L 31.121094 1.339844 L 31.257812 0.953125 L 31.929688 1.230469 L 31.867188 0.492188 L 32.300781 0.492188 M 36.492188 2.082031 L 37.007812 1.488281 L 36.304688 1.339844 L 36.445312 0.953125 L 37.117188 1.230469 L 37.054688 0.492188 L 37.488281 0.492188 L 37.421875 1.230469 L 38.105469 0.960938 L 38.234375 1.339844 L 37.523438 1.488281 L 38.03125 2.082031 L 37.691406 2.332031 L 37.265625 1.644531 L 36.832031 2.332031 L 36.492188 2.082031 M 42.5 0.601562 C 42.761719 0.601562 42.96875 0.660156 43.117188 0.777344 C 43.257812 0.894531 43.328125 1.085938 43.328125 1.351562 L 43.328125 1.894531 C 43.328125 2.160156 43.257812 2.355469 43.117188 2.476562 C 42.976562 2.601562 42.773438 2.664062 42.507812 2.664062 L 42.007812 2.664062 L 42.007812 3.964844 L 41.59375 3.964844 L 41.59375 0.601562 L 42.5 0.601562 M 42.554688 0.960938 L 42.007812 0.960938 L 42.007812 2.292969 L 42.554688 2.292969 C 42.675781 2.292969 42.765625 2.265625 42.820312 2.210938 C 42.875 2.15625 42.90625 2.070312 42.90625 1.953125 L 42.90625 1.304688 C 42.90625 1.1875 42.875 1.101562 42.820312 1.046875 C 42.765625 0.988281 42.675781 0.960938 42.554688 0.960938 M 44.410156 0.601562 L 45.683594 0.601562 L 45.683594 0.953125 L 45.257812 0.953125 L 45.257812 3.617188 L 45.683594 3.617188 L 45.683594 3.964844 L 44.410156 3.964844 L 44.410156 3.617188 L 44.84375 3.617188 L 44.84375 0.953125 L 44.410156 0.953125 L 44.410156 0.601562 M 19.335938 0.492188 L 19.269531 1.230469 L 19.953125 0.960938 L 20.082031 1.339844 L 19.371094 1.488281 L 19.878906 2.082031 L 19.539062 2.332031 L 19.113281 1.644531 L 18.679688 2.332031 L 18.335938 2.082031 L 18.855469 1.488281 L 18.152344 1.339844 L 18.292969 0.953125 L 18.964844 1.230469 L 18.902344 0.492188 L 19.335938 0.492188 M 16.945312 2.332031 L 16.519531 1.644531 L 16.085938 2.332031 L 15.746094 2.082031 L 16.261719 1.488281 L 15.558594 1.339844 L 15.699219 0.953125 L 16.371094 1.230469 L 16.308594 0.492188 L 16.742188 0.492188 L 16.675781 1.230469 L 17.359375 0.960938 L 17.488281 1.339844 L 16.777344 1.488281 L 17.285156 2.082031 L 16.945312 2.332031 M 21.925781 0.492188 L 21.863281 1.230469 L 22.546875 0.960938 L 22.675781 1.339844 L 21.964844 1.488281 L 22.472656 2.082031 L 22.128906 2.332031 L 21.707031 1.644531 L 21.273438 2.332031 L 20.929688 2.082031 L 21.449219 1.488281 L 20.746094 1.339844 L 20.882812 0.953125 L 21.558594 1.230469 L 21.492188 0.492188 L 21.925781 0.492188 M 23.523438 2.082031 L 24.039062 1.488281 L 23.339844 1.339844 L 23.476562 0.953125 L 24.152344 1.230469 L 24.085938 0.492188 L 24.519531 0.492188 L 24.457031 1.230469 L 25.140625 0.960938 L 25.269531 1.339844 L 24.558594 1.488281 L 25.066406 2.082031 L 24.722656 2.332031 L 24.300781 1.644531 L 23.867188 2.332031 L 23.523438 2.082031 M 27.113281 0.492188 L 27.050781 1.230469 L 27.734375 0.960938 L 27.863281 1.339844 L 27.152344 1.488281 L 27.660156 2.082031 L 27.316406 2.332031 L 26.894531 1.644531 L 26.457031 2.332031 L 26.117188 2.082031 L 26.632812 1.488281 L 25.933594 1.339844 L 26.070312 0.953125 L 26.746094 1.230469 L 26.679688 0.492188 L 27.113281 0.492188 M 29.707031 0.492188 L 29.644531 1.230469 L 30.324219 0.960938 L 30.453125 1.339844 L 29.746094 1.488281 L 30.253906 2.082031 L 29.910156 2.332031 L 29.484375 1.644531 L 29.050781 2.332031 L 28.710938 2.082031 L 29.226562 1.488281 L 28.527344 1.339844 L 28.664062 0.953125 L 29.339844 1.230469 L 29.273438 0.492188 L 29.707031 0.492188 M 2.777344 2.082031 L 3.292969 1.488281 L 2.59375 1.339844 L 2.730469 0.953125 L 3.40625 1.230469 L 3.339844 0.492188 L 3.773438 0.492188 L 3.710938 1.230469 L 4.394531 0.960938 L 4.523438 1.339844 L 3.8125 1.488281 L 4.320312 2.082031 C 4.207031 2.167969 4.09375 2.25 3.976562 2.332031 L 3.554688 1.644531 L 3.121094 2.332031 L 2.777344 2.082031 M 5.324219 0.953125 L 6 1.230469 L 5.933594 0.492188 L 6.367188 0.492188 L 6.304688 1.230469 L 6.984375 0.960938 L 7.117188 1.339844 L 6.40625 1.488281 L 6.914062 2.082031 L 6.570312 2.332031 L 6.144531 1.644531 L 5.710938 2.332031 L 5.371094 2.082031 L 5.886719 1.488281 L 5.1875 1.339844 L 5.324219 0.953125 M 8.960938 0.492188 L 8.898438 1.230469 L 9.578125 0.960938 L 9.707031 1.339844 L 9 1.488281 L 9.503906 2.082031 L 9.164062 2.332031 L 8.738281 1.644531 L 8.304688 2.332031 L 7.964844 2.082031 L 8.480469 1.488281 L 7.78125 1.339844 L 7.917969 0.953125 L 8.59375 1.230469 L 8.527344 0.492188 L 8.960938 0.492188 M 11.074219 1.488281 L 10.375 1.339844 L 10.511719 0.953125 L 11.183594 1.230469 L 11.121094 0.492188 L 11.554688 0.492188 L 11.488281 1.230469 L 12.171875 0.960938 L 12.300781 1.339844 L 11.589844 1.488281 L 12.097656 2.082031 L 11.757812 2.332031 L 11.332031 1.644531 L 10.898438 2.332031 L 10.558594 2.082031 L 11.074219 1.488281 M 14.148438 0.492188 L 14.082031 1.230469 L 14.765625 0.960938 L 14.894531 1.339844 L 14.183594 1.488281 L 14.691406 2.082031 L 14.351562 2.332031 L 13.925781 1.644531 L 13.492188 2.332031 L 13.152344 2.082031 L 13.667969 1.488281 L 12.964844 1.339844 L 13.105469 0.953125 L 13.777344 1.230469 L 13.714844 0.492188 L 14.148438 0.492188 M 30.289062 23.242188 L 30.289062 24.941406 C 30.289062 25.214844 30.214844 25.414062 30.066406 25.542969 C 29.917969 25.679688 29.730469 25.746094 29.503906 25.746094 L 29.402344 25.746094 C 29.167969 25.746094 28.976562 25.679688 28.832031 25.542969 C 28.683594 25.414062 28.609375 25.214844 28.609375 24.941406 L 28.609375 23.242188 C 28.609375 22.976562 28.683594 22.777344 28.832031 22.648438 C 28.976562 22.519531 29.167969 22.457031 29.402344 22.457031 L 29.503906 22.457031 C 29.730469 22.457031 29.917969 22.519531 30.066406 22.648438 C 30.214844 22.777344 30.289062 22.976562 30.289062 23.242188 M 31.203125 22.457031 L 32.726562 22.457031 L 32.726562 22.910156 L 31.894531 25.746094 L 31.488281 25.746094 L 32.335938 22.808594 L 31.203125 22.808594 L 31.203125 22.457031 M 29.402344 22.808594 C 29.28125 22.808594 29.183594 22.839844 29.117188 22.910156 C 29.050781 22.984375 29.015625 23.070312 29.015625 23.167969 L 29.015625 24.441406 L 29.882812 23.167969 C 29.882812 23.070312 29.851562 22.984375 29.789062 22.910156 C 29.714844 22.839844 29.621094 22.808594 29.503906 22.808594 L 29.402344 22.808594 M 29.117188 25.285156 C 29.183594 25.359375 29.28125 25.394531 29.402344 25.394531 L 29.503906 25.394531 C 29.621094 25.394531 29.714844 25.359375 29.789062 25.285156 C 29.851562 25.210938 29.882812 25.125 29.882812 25.027344 L 29.882812 23.769531 L 29.015625 25.027344 C 29.015625 25.125 29.050781 25.210938 29.117188 25.285156 M 26.753906 22.457031 C 27.03125 22.457031 27.242188 22.519531 27.382812 22.648438 C 27.523438 22.777344 27.59375 22.976562 27.59375 23.242188 L 27.59375 23.453125 L 27.574219 23.757812 L 27.519531 23.980469 L 27.417969 24.175781 L 27.269531 24.40625 L 26.578125 25.375 L 27.695312 25.375 L 27.695312 25.746094 L 26.136719 25.746094 L 26.136719 25.332031 L 26.894531 24.257812 L 27.050781 24.027344 L 27.132812 23.859375 L 27.1875 23.695312 L 27.195312 23.492188 L 27.195312 23.167969 C 27.195312 23.070312 27.160156 22.984375 27.085938 22.910156 C 27.019531 22.839844 26.921875 22.808594 26.800781 22.808594 L 26.238281 22.808594 L 26.238281 22.457031 L 26.753906 22.457031 M 26.71875 27.828125 L 27.179688 27.828125 L 27.179688 30.832031 L 27.695312 30.832031 L 27.695312 31.191406 L 26.136719 31.191406 L 26.136719 30.832031 L 26.761719 30.832031 L 26.761719 28.207031 L 26.089844 28.457031 L 26.089844 28.066406 L 26.71875 27.828125 M 22.683594 22.75 L 21.917969 22.75 L 21.917969 25.746094 L 21.503906 25.746094 L 21.503906 22.75 L 20.738281 22.75 L 20.738281 22.382812 L 22.683594 22.382812 L 22.683594 22.75 M 20.027344 22.382812 L 20.027344 25.746094 L 19.609375 25.746094 L 19.609375 24.203125 L 18.625 24.203125 L 18.625 25.746094 L 18.207031 25.746094 L 18.207031 22.382812 L 18.625 22.382812 L 18.625 23.84375 L 19.609375 23.84375 L 19.609375 22.382812 L 20.027344 22.382812 M 17.222656 22.75 L 16.492188 22.75 C 16.375 22.75 16.28125 22.785156 16.207031 22.851562 C 16.132812 22.925781 16.09375 23.011719 16.09375 23.113281 L 16.09375 25.015625 C 16.09375 25.113281 16.132812 25.199219 16.207031 25.273438 C 16.28125 25.34375 16.375 25.375 16.492188 25.375 L 16.960938 25.375 L 16.960938 24.339844 L 16.546875 24.339844 L 16.546875 23.980469 L 17.359375 23.980469 L 17.359375 25.746094 L 16.539062 25.746094 C 16.261719 25.746094 16.050781 25.679688 15.902344 25.542969 C 15.753906 25.40625 15.679688 25.203125 15.679688 24.933594 L 15.679688 23.195312 C 15.679688 22.925781 15.753906 22.71875 15.902344 22.585938 C 16.050781 22.449219 16.261719 22.382812 16.539062 22.382812 L 17.222656 22.382812 L 17.222656 22.75 M 20.117188 27.828125 L 19.363281 31.191406 L 18.800781 31.191406 L 18.089844 27.828125 L 18.511719 27.828125 L 19.085938 30.765625 L 19.703125 27.828125 L 20.117188 27.828125 M 21.53125 27.828125 L 21.992188 27.828125 L 21.992188 30.832031 L 22.507812 30.832031 L 22.507812 31.191406 L 20.949219 31.191406 L 20.949219 30.832031 L 21.578125 30.832031 L 21.578125 28.207031 L 20.902344 28.457031 L 20.902344 28.066406 L 21.53125 27.828125 M 24.058594 30.710938 L 24.539062 30.710938 L 24.539062 31.191406 L 24.058594 31.191406 L 24.058594 30.710938 M 20.894531 34.09375 C 20.894531 33.816406 20.96875 33.609375 21.117188 33.476562 C 21.261719 33.339844 21.476562 33.273438 21.753906 33.273438 L 22.445312 33.273438 L 22.445312 33.640625 L 21.707031 33.640625 C 21.589844 33.640625 21.492188 33.675781 21.421875 33.742188 C 21.347656 33.816406 21.308594 33.902344 21.308594 34 L 21.308594 34.363281 C 21.308594 34.460938 21.339844 34.542969 21.402344 34.613281 C 21.46875 34.679688 21.554688 34.714844 21.660156 34.714844 L 21.796875 34.714844 C 22.019531 34.714844 22.195312 34.773438 22.324219 34.898438 C 22.453125 35.027344 22.519531 35.226562 22.519531 35.5 L 22.519531 35.824219 C 22.519531 36.09375 22.445312 36.296875 22.296875 36.433594 C 22.148438 36.570312 21.9375 36.636719 21.660156 36.636719 L 20.976562 36.636719 L 20.976562 36.265625 L 21.707031 36.265625 C 21.828125 36.265625 21.925781 36.234375 21.992188 36.164062 C 22.066406 36.089844 22.101562 36.007812 22.101562 35.914062 L 22.101562 35.40625 C 22.101562 35.316406 22.078125 35.242188 22.027344 35.183594 C 21.984375 35.125 21.914062 35.09375 21.808594 35.09375 L 21.660156 35.09375 C 21.433594 35.09375 21.246094 35.023438 21.105469 34.890625 C 20.964844 34.753906 20.894531 34.546875 20.894531 34.269531 L 20.894531 34.09375 M 23.664062 33.273438 L 24.9375 33.273438 L 24.9375 33.621094 L 24.511719 33.621094 L 24.511719 36.285156 L 24.9375 36.285156 L 24.9375 36.636719 L 23.664062 36.636719 L 23.664062 36.285156 L 24.097656 36.285156 L 24.097656 33.621094 L 23.664062 33.621094 L 23.664062 33.273438 M 18.578125 34.878906 L 19.113281 34.878906 C 19.234375 34.878906 19.324219 34.851562 19.378906 34.796875 C 19.4375 34.742188 19.464844 34.652344 19.464844 34.527344 L 19.464844 33.972656 C 19.464844 33.855469 19.4375 33.769531 19.378906 33.714844 C 19.324219 33.660156 19.234375 33.632812 19.113281 33.632812 L 18.578125 33.632812 L 18.578125 34.878906 M 17.203125 35.074219 L 16.140625 35.074219 L 16.140625 36.285156 L 17.324219 36.285156 L 17.324219 36.636719 L 15.726562 36.636719 L 15.726562 33.273438 L 17.324219 33.273438 L 17.324219 33.621094 L 16.140625 33.621094 L 16.140625 34.722656 L 17.203125 34.722656 L 17.203125 35.074219 M 19.777344 34.9375 C 19.699219 35.039062 19.589844 35.113281 19.453125 35.15625 L 20.117188 36.636719 L 19.667969 36.636719 L 19.046875 35.242188 L 18.578125 35.242188 L 18.578125 36.636719 L 18.152344 36.636719 L 18.152344 33.273438 L 19.058594 33.273438 C 19.320312 33.273438 19.527344 33.332031 19.675781 33.445312 C 19.816406 33.5625 19.886719 33.753906 19.886719 34.019531 L 19.886719 34.484375 C 19.886719 34.671875 19.851562 34.824219 19.777344 34.9375 M 17.570312 38.714844 L 17.570312 42.082031 L 17.191406 42.082031 L 17.191406 39.058594 L 16.714844 40.953125 L 16.316406 40.953125 L 15.847656 39.058594 L 15.847656 42.082031 L 15.484375 42.082031 L 15.484375 38.714844 L 16.148438 38.714844 L 16.527344 40.4375 L 16.925781 38.714844 L 17.570312 38.714844 M 21.753906 38.714844 L 22.445312 38.714844 L 22.445312 39.085938 L 21.707031 39.085938 C 21.589844 39.085938 21.492188 39.121094 21.421875 39.1875 C 21.347656 39.261719 21.308594 39.347656 21.308594 39.445312 L 21.308594 39.808594 C 21.308594 39.90625 21.339844 39.988281 21.402344 40.058594 C 21.46875 40.125 21.554688 40.160156 21.660156 40.160156 L 21.796875 40.160156 C 22.019531 40.160156 22.195312 40.21875 22.324219 40.34375 C 22.453125 40.472656 22.519531 40.671875 22.519531 40.945312 L 22.519531 41.269531 C 22.519531 41.539062 22.445312 41.742188 22.296875 41.878906 C 22.148438 42.015625 21.9375 42.082031 21.660156 42.082031 L 20.976562 42.082031 L 20.976562 41.710938 L 21.707031 41.710938 C 21.828125 41.710938 21.925781 41.679688 21.992188 41.609375 C 22.066406 41.535156 22.101562 41.453125 22.101562 41.359375 L 22.101562 40.851562 C 22.101562 40.757812 22.078125 40.6875 22.027344 40.628906 C 21.984375 40.570312 21.914062 40.539062 21.808594 40.539062 L 21.660156 40.539062 C 21.433594 40.539062 21.246094 40.46875 21.105469 40.335938 C 20.964844 40.199219 20.894531 39.992188 20.894531 39.714844 L 20.894531 39.539062 C 20.894531 39.261719 20.96875 39.054688 21.117188 38.921875 C 21.261719 38.785156 21.476562 38.714844 21.753906 38.714844 M 23.679688 38.714844 L 24.308594 40.113281 L 24.945312 38.714844 L 25.378906 38.714844 L 24.511719 40.519531 L 24.511719 42.082031 L 24.078125 42.082031 L 24.078125 40.519531 L 23.21875 38.714844 L 23.679688 38.714844 M 30.398438 33.273438 L 30.398438 36.636719 L 29.714844 36.636719 L 28.960938 33.621094 L 28.960938 36.636719 L 28.574219 36.636719 L 28.574219 33.273438 L 29.253906 33.273438 L 30.011719 36.277344 L 30.011719 33.273438 L 30.398438 33.273438 M 26.15625 33.476562 C 26.308594 33.339844 26.523438 33.273438 26.800781 33.273438 L 26.996094 33.273438 C 27.269531 33.273438 27.484375 33.339844 27.632812 33.476562 C 27.785156 33.609375 27.863281 33.8125 27.863281 34.085938 L 27.863281 35.824219 C 27.863281 36.09375 27.785156 36.296875 27.632812 36.433594 C 27.484375 36.570312 27.269531 36.636719 26.996094 36.636719 L 26.800781 36.636719 C 26.523438 36.636719 26.308594 36.570312 26.15625 36.433594 C 26.007812 36.296875 25.933594 36.09375 25.933594 35.824219 L 25.933594 34.085938 C 25.933594 33.8125 26.007812 33.609375 26.15625 33.476562 M 26.355469 34 L 26.355469 35.90625 C 26.355469 36.003906 26.390625 36.089844 26.457031 36.164062 C 26.53125 36.234375 26.632812 36.265625 26.753906 36.265625 L 27.039062 36.265625 C 27.164062 36.265625 27.261719 36.234375 27.335938 36.164062 C 27.402344 36.089844 27.4375 36.003906 27.4375 35.90625 L 27.4375 34 C 27.4375 33.902344 27.402344 33.816406 27.335938 33.742188 C 27.261719 33.675781 27.164062 33.640625 27.039062 33.640625 L 26.753906 33.640625 C 26.632812 33.640625 26.53125 33.675781 26.457031 33.742188 C 26.390625 33.816406 26.355469 33.902344 26.355469 34 M 27.632812 38.714844 L 27.632812 39.085938 L 26.894531 39.085938 C 26.777344 39.085938 26.679688 39.121094 26.605469 39.1875 C 26.53125 39.261719 26.496094 39.347656 26.496094 39.445312 L 26.496094 39.808594 C 26.496094 39.90625 26.527344 39.988281 26.589844 40.058594 C 26.65625 40.125 26.742188 40.160156 26.847656 40.160156 L 26.984375 40.160156 C 27.207031 40.160156 27.382812 40.21875 27.511719 40.34375 C 27.640625 40.472656 27.703125 40.671875 27.703125 40.945312 L 27.703125 41.269531 C 27.703125 41.539062 27.632812 41.742188 27.484375 41.878906 C 27.335938 42.015625 27.125 42.082031 26.847656 42.082031 L 26.164062 42.082031 L 26.164062 41.710938 L 26.894531 41.710938 C 27.015625 41.710938 27.109375 41.679688 27.179688 41.609375 C 27.253906 41.535156 27.289062 41.453125 27.289062 41.359375 L 27.289062 40.851562 C 27.289062 40.757812 27.265625 40.6875 27.214844 40.628906 C 27.171875 40.570312 27.097656 40.539062 26.996094 40.539062 L 26.847656 40.539062 C 26.617188 40.539062 26.433594 40.46875 26.292969 40.335938 C 26.152344 40.199219 26.082031 39.992188 26.082031 39.714844 L 26.082031 39.539062 C 26.082031 39.261719 26.15625 39.054688 26.300781 38.921875 C 26.449219 38.785156 26.660156 38.714844 26.9375 38.714844 L 27.632812 38.714844 M 28.515625 39.085938 L 28.515625 38.714844 L 30.464844 38.714844 L 30.464844 39.085938 L 29.699219 39.085938 L 29.699219 42.082031 L 29.28125 42.082031 L 29.28125 39.085938 L 28.515625 39.085938 M 14.5625 22.382812 L 14.5625 22.734375 L 14.136719 22.734375 L 14.136719 25.394531 L 14.5625 25.394531 L 14.5625 25.746094 L 13.289062 25.746094 L 13.289062 25.394531 L 13.722656 25.394531 L 13.722656 22.734375 L 13.289062 22.734375 L 13.289062 22.382812 L 14.5625 22.382812 M 11.683594 23.085938 C 11.683594 22.96875 11.65625 22.878906 11.601562 22.824219 C 11.546875 22.769531 11.457031 22.742188 11.332031 22.742188 L 10.796875 22.742188 L 10.796875 23.988281 L 11.332031 23.988281 C 11.457031 23.988281 11.546875 23.960938 11.601562 23.90625 C 11.65625 23.851562 11.683594 23.761719 11.683594 23.640625 L 11.683594 23.085938 M 12.109375 23.128906 L 12.109375 23.59375 C 12.109375 23.785156 12.070312 23.933594 11.996094 24.046875 C 11.917969 24.148438 11.808594 24.222656 11.675781 24.265625 L 12.339844 25.746094 L 11.886719 25.746094 L 11.269531 24.351562 L 10.796875 24.351562 L 10.796875 25.746094 L 10.375 25.746094 L 10.375 22.382812 L 11.277344 22.382812 C 11.542969 22.382812 11.75 22.441406 11.894531 22.558594 C 12.039062 22.675781 12.109375 22.867188 12.109375 23.128906 M 9.820312 22.382812 L 8.953125 24.183594 L 8.953125 25.746094 L 8.519531 25.746094 L 8.519531 24.183594 L 7.660156 22.382812 L 8.121094 22.382812 L 8.75 23.777344 L 9.386719 22.382812 L 9.820312 22.382812 M 12.136719 28.179688 L 10.953125 28.179688 L 10.953125 29.277344 L 12.015625 29.277344 L 12.015625 29.628906 L 10.953125 29.628906 L 10.953125 30.839844 L 12.136719 30.839844 L 12.136719 31.191406 L 10.539062 31.191406 L 10.539062 27.828125 L 12.136719 27.828125 L 12.136719 28.179688 M 9.644531 30.433594 C 9.644531 30.710938 9.578125 30.90625 9.449219 31.015625 C 9.328125 31.132812 9.121094 31.191406 8.832031 31.191406 L 7.84375 31.191406 L 7.84375 27.828125 L 8.765625 27.828125 C 9.042969 27.828125 9.257812 27.882812 9.414062 27.992188 C 9.566406 28.105469 9.644531 28.296875 9.644531 28.574219 L 9.644531 30.433594 M 13.390625 28.1875 L 13.390625 29.433594 L 13.925781 29.433594 C 14.050781 29.433594 14.136719 29.40625 14.195312 29.351562 C 14.25 29.296875 14.277344 29.207031 14.277344 29.082031 L 14.277344 28.527344 C 14.277344 28.410156 14.25 28.324219 14.195312 28.269531 C 14.136719 28.214844 14.050781 28.1875 13.925781 28.1875 L 13.390625 28.1875 M 14.488281 28.003906 C 14.628906 28.121094 14.703125 28.308594 14.703125 28.574219 L 14.703125 29.039062 C 14.703125 29.230469 14.664062 29.378906 14.589844 29.492188 C 14.511719 29.59375 14.402344 29.667969 14.269531 29.710938 L 14.933594 31.191406 L 14.480469 31.191406 L 13.863281 29.796875 L 13.390625 29.796875 L 13.390625 31.191406 L 12.964844 31.191406 L 12.964844 27.828125 L 13.871094 27.828125 C 14.136719 27.828125 14.339844 27.886719 14.488281 28.003906 M 7.023438 23.128906 L 7.023438 23.675781 C 7.023438 23.941406 6.953125 24.136719 6.8125 24.257812 C 6.667969 24.382812 6.464844 24.441406 6.203125 24.441406 L 5.703125 24.441406 L 5.703125 25.746094 L 5.289062 25.746094 L 5.289062 22.382812 L 6.191406 22.382812 C 6.457031 22.382812 6.664062 22.441406 6.8125 22.558594 C 6.953125 22.675781 7.023438 22.867188 7.023438 23.128906 M 6.515625 22.824219 C 6.460938 22.769531 6.371094 22.742188 6.246094 22.742188 L 5.703125 22.742188 L 5.703125 24.074219 L 6.246094 24.074219 C 6.371094 24.074219 6.460938 24.046875 6.515625 23.988281 C 6.570312 23.933594 6.597656 23.847656 6.597656 23.730469 L 6.597656 23.085938 C 6.597656 22.96875 6.570312 22.878906 6.515625 22.824219 M 3.996094 22.851562 C 3.921875 22.785156 3.824219 22.75 3.699219 22.75 L 3.414062 22.75 C 3.292969 22.75 3.191406 22.785156 3.121094 22.851562 C 3.050781 22.925781 3.019531 23.011719 3.019531 23.113281 L 3.019531 25.015625 C 3.019531 25.113281 3.050781 25.199219 3.121094 25.273438 C 3.191406 25.34375 3.292969 25.375 3.414062 25.375 L 3.699219 25.375 C 3.824219 25.375 3.921875 25.34375 3.996094 25.273438 C 4.0625 25.199219 4.097656 25.113281 4.097656 25.015625 L 4.097656 23.113281 C 4.097656 23.011719 4.0625 22.925781 3.996094 22.851562 M 4.523438 23.195312 L 4.523438 24.933594 C 4.523438 25.203125 4.445312 25.40625 4.292969 25.542969 C 4.144531 25.679688 3.929688 25.746094 3.65625 25.746094 L 3.460938 25.746094 C 3.183594 25.746094 2.96875 25.679688 2.816406 25.542969 C 2.667969 25.40625 2.59375 25.203125 2.59375 24.933594 L 2.59375 23.195312 C 2.59375 22.925781 2.667969 22.71875 2.816406 22.585938 C 2.96875 22.449219 3.183594 22.382812 3.460938 22.382812 L 3.65625 22.382812 C 3.929688 22.382812 4.144531 22.449219 4.292969 22.585938 C 4.445312 22.71875 4.523438 22.925781 4.523438 23.195312 M 3.414062 28.195312 C 3.292969 28.195312 3.191406 28.230469 3.121094 28.296875 C 3.050781 28.371094 3.019531 28.457031 3.019531 28.558594 L 3.019531 30.460938 C 3.019531 30.558594 3.050781 30.644531 3.121094 30.71875 C 3.191406 30.789062 3.292969 30.820312 3.414062 30.820312 L 3.699219 30.820312 C 3.824219 30.820312 3.921875 30.789062 3.996094 30.71875 C 4.0625 30.644531 4.097656 30.558594 4.097656 30.460938 L 4.097656 28.558594 C 4.097656 28.457031 4.0625 28.371094 3.996094 28.296875 C 3.921875 28.230469 3.824219 28.195312 3.699219 28.195312 L 3.414062 28.195312 M 3.460938 27.828125 L 3.65625 27.828125 C 3.929688 27.828125 4.144531 27.894531 4.292969 28.03125 C 4.445312 28.164062 4.523438 28.367188 4.523438 28.640625 L 4.523438 30.378906 C 4.523438 30.648438 4.445312 30.851562 4.292969 30.988281 C 4.144531 31.125 3.929688 31.191406 3.65625 31.191406 L 3.460938 31.191406 C 3.183594 31.191406 2.96875 31.125 2.816406 30.988281 C 2.667969 30.851562 2.59375 30.648438 2.59375 30.378906 L 2.59375 28.640625 C 2.59375 28.367188 2.667969 28.164062 2.816406 28.03125 C 2.96875 27.894531 3.183594 27.828125 3.460938 27.828125 M 8.257812 28.1875 L 8.257812 30.832031 L 8.867188 30.832031 C 8.992188 30.832031 9.085938 30.804688 9.144531 30.746094 C 9.199219 30.691406 9.230469 30.601562 9.230469 30.480469 L 9.230469 28.527344 C 9.230469 28.425781 9.195312 28.339844 9.128906 28.28125 C 9.066406 28.21875 8.984375 28.1875 8.878906 28.1875 L 8.257812 28.1875 M 6.433594 27.828125 L 7.226562 31.191406 L 6.800781 31.191406 L 6.617188 30.339844 L 5.683594 30.339844 L 5.5 31.191406 L 5.066406 31.191406 L 5.878906 27.828125 L 6.433594 27.828125 M 6.542969 29.980469 L 6.144531 28.140625 L 5.757812 29.980469 L 6.542969 29.980469 M 6.828125 35.074219 L 5.769531 35.074219 L 5.769531 36.285156 L 6.949219 36.285156 L 6.949219 36.636719 L 5.351562 36.636719 L 5.351562 33.273438 L 6.949219 33.273438 L 6.949219 33.621094 L 5.769531 33.621094 L 5.769531 34.722656 L 6.828125 34.722656 L 6.828125 35.074219 M 8.492188 33.742188 C 8.421875 33.816406 8.390625 33.902344 8.390625 34 L 8.390625 35.90625 C 8.390625 36.003906 8.421875 36.089844 8.492188 36.164062 C 8.5625 36.234375 8.664062 36.265625 8.785156 36.265625 L 9.515625 36.265625 L 9.515625 36.636719 L 8.832031 36.636719 C 8.554688 36.636719 8.34375 36.570312 8.195312 36.433594 C 8.046875 36.296875 7.972656 36.09375 7.972656 35.824219 L 7.972656 34.085938 C 7.972656 33.8125 8.046875 33.609375 8.195312 33.476562 C 8.34375 33.339844 8.554688 33.273438 8.832031 33.273438 L 9.515625 33.273438 L 9.515625 33.640625 L 8.785156 33.640625 C 8.664062 33.640625 8.5625 33.675781 8.492188 33.742188 M 3.035156 33.273438 L 3.5625 34.410156 L 4.117188 33.273438 L 4.558594 33.273438 L 3.785156 34.890625 L 4.605469 36.636719 L 4.132812 36.636719 L 3.5625 35.371094 L 2.953125 36.636719 L 2.5 36.636719 L 3.339844 34.898438 L 2.585938 33.273438 L 3.035156 33.273438 M 3.582031 38.714844 L 3.089844 40.980469 L 3.664062 40.980469 L 3.664062 39.882812 L 4.078125 39.882812 L 4.078125 40.980469 L 4.4375 40.980469 L 4.4375 41.332031 L 4.078125 41.332031 L 4.078125 42.082031 L 3.664062 42.082031 L 3.664062 41.332031 L 2.675781 41.332031 L 2.675781 40.917969 L 3.191406 38.714844 L 3.582031 38.714844 M 6.996094 39.679688 L 6.15625 40.621094 L 7.058594 42.082031 L 6.550781 42.082031 L 5.851562 40.90625 L 5.722656 41.054688 L 5.722656 42.082031 L 5.316406 42.082031 L 5.316406 38.714844 L 5.722656 38.714844 L 5.722656 40.527344 L 6.480469 39.679688 L 6.996094 39.679688 M 14.933594 33.273438 L 14.175781 36.636719 L 13.613281 36.636719 L 12.902344 33.273438 L 13.328125 33.273438 L 13.898438 36.210938 L 14.515625 33.273438 L 14.933594 33.273438 M 11.332031 39.078125 L 10.796875 39.078125 L 10.796875 40.324219 L 11.332031 40.324219 C 11.457031 40.324219 11.546875 40.296875 11.601562 40.242188 C 11.65625 40.1875 11.683594 40.097656 11.683594 39.972656 L 11.683594 39.417969 C 11.683594 39.300781 11.65625 39.214844 11.601562 39.160156 C 11.546875 39.105469 11.457031 39.078125 11.332031 39.078125 M 11.894531 38.890625 C 12.039062 39.007812 12.109375 39.199219 12.109375 39.464844 L 12.109375 39.925781 C 12.109375 40.117188 12.070312 40.269531 11.996094 40.378906 C 11.917969 40.484375 11.808594 40.558594 11.675781 40.601562 L 12.339844 42.082031 L 11.886719 42.082031 L 11.269531 40.6875 L 10.796875 40.6875 L 10.796875 42.082031 L 10.375 42.082031 L 10.375 38.714844 L 11.277344 38.714844 C 11.542969 38.714844 11.75 38.773438 11.894531 38.890625 M 14.210938 38.714844 L 15.007812 42.082031 L 14.582031 42.082031 L 14.398438 41.230469 L 13.464844 41.230469 L 13.28125 42.082031 L 12.847656 42.082031 L 13.660156 38.714844 L 14.210938 38.714844 M 16.539062 44.160156 C 16.816406 44.160156 17.019531 44.21875 17.15625 44.328125 C 17.292969 44.4375 17.359375 44.632812 17.359375 44.910156 L 17.359375 45.1875 C 17.359375 45.3125 17.335938 45.421875 17.292969 45.519531 C 17.246094 45.613281 17.179688 45.6875 17.101562 45.742188 C 17.199219 45.796875 17.277344 45.875 17.332031 45.972656 C 17.382812 46.070312 17.40625 46.191406 17.40625 46.335938 L 17.40625 46.769531 C 17.40625 47.039062 17.34375 47.234375 17.222656 47.351562 C 17.089844 47.46875 16.882812 47.527344 16.59375 47.527344 L 15.632812 47.527344 L 15.632812 44.160156 L 16.539062 44.160156 M 14.324219 40.871094 L 13.925781 39.03125 L 13.539062 40.871094 L 14.324219 40.871094 M 11.617188 44.160156 L 11.617188 47.164062 L 12.136719 47.164062 L 12.136719 47.527344 L 10.578125 47.527344 L 10.578125 47.164062 L 11.203125 47.164062 L 11.203125 44.539062 L 10.53125 44.789062 L 10.53125 44.402344 L 11.15625 44.160156 L 11.617188 44.160156 M 9.542969 47.527344 L 7.984375 47.527344 L 7.984375 47.164062 L 8.609375 47.164062 L 8.609375 44.539062 L 7.9375 44.789062 L 7.9375 44.402344 L 8.5625 44.160156 L 9.027344 44.160156 L 9.027344 47.164062 L 9.542969 47.164062 L 9.542969 47.527344 M 16.640625 47.164062 C 16.757812 47.164062 16.84375 47.136719 16.90625 47.082031 C 16.960938 47.027344 16.988281 46.9375 16.988281 46.816406 L 16.988281 46.289062 C 16.988281 46.183594 16.960938 46.101562 16.898438 46.039062 C 16.832031 45.976562 16.742188 45.945312 16.640625 45.945312 L 16.050781 45.945312 L 16.050781 47.164062 L 16.640625 47.164062 M 16.050781 45.585938 L 16.59375 45.585938 C 16.691406 45.585938 16.773438 45.554688 16.84375 45.492188 C 16.910156 45.425781 16.945312 45.339844 16.945312 45.234375 L 16.945312 44.863281 C 16.945312 44.746094 16.917969 44.660156 16.859375 44.605469 C 16.804688 44.550781 16.714844 44.523438 16.59375 44.523438 L 16.050781 44.523438 L 16.050781 45.585938 M 6.238281 44.160156 L 6.535156 44.207031 L 6.773438 44.363281 C 6.847656 44.433594 6.902344 44.515625 6.941406 44.613281 C 6.984375 44.71875 7.003906 44.839844 7.003906 44.976562 L 7.003906 46.714844 C 7.003906 46.984375 6.929688 47.1875 6.78125 47.324219 C 6.636719 47.457031 6.421875 47.527344 6.144531 47.527344 L 5.59375 47.527344 L 5.59375 47.15625 L 6.191406 47.15625 C 6.316406 47.15625 6.414062 47.121094 6.488281 47.054688 C 6.554688 46.980469 6.589844 46.898438 6.589844 46.804688 L 6.589844 46.277344 L 6.117188 46.277344 C 5.847656 46.277344 5.648438 46.21875 5.519531 46.101562 C 5.382812 45.980469 5.316406 45.78125 5.316406 45.511719 L 5.316406 44.984375 C 5.316406 44.84375 5.335938 44.71875 5.378906 44.613281 L 5.539062 44.363281 C 5.609375 44.296875 5.695312 44.246094 5.785156 44.207031 L 6.074219 44.160156 L 6.238281 44.160156 M 3.597656 44.160156 C 3.84375 44.160156 4.035156 44.21875 4.171875 44.335938 C 4.3125 44.453125 4.382812 44.644531 4.382812 44.910156 L 4.382812 45.214844 C 4.382812 45.46875 4.296875 45.652344 4.125 45.769531 C 4.230469 45.824219 4.308594 45.902344 4.363281 46 C 4.414062 46.101562 4.4375 46.21875 4.4375 46.363281 L 4.4375 46.769531 C 4.4375 47.035156 4.378906 47.222656 4.253906 47.339844 C 4.125 47.464844 3.917969 47.527344 3.625 47.527344 L 3.488281 47.527344 C 3.199219 47.527344 2.988281 47.464844 2.859375 47.339844 C 2.738281 47.222656 2.675781 47.035156 2.675781 46.769531 L 2.675781 46.363281 C 2.675781 46.21875 2.699219 46.101562 2.75 46 L 2.980469 45.769531 C 2.816406 45.652344 2.730469 45.46875 2.730469 45.214844 L 2.730469 44.910156 C 2.730469 44.644531 2.800781 44.453125 2.945312 44.335938 C 3.078125 44.21875 3.265625 44.160156 3.507812 44.160156 L 3.597656 44.160156 M 3.96875 44.863281 C 3.96875 44.746094 3.941406 44.660156 3.886719 44.605469 C 3.828125 44.550781 3.742188 44.523438 3.625 44.523438 L 3.453125 44.523438 C 3.339844 44.527344 3.265625 44.558594 3.222656 44.613281 C 3.171875 44.671875 3.148438 44.753906 3.148438 44.863281 L 3.148438 45.261719 C 3.148438 45.367188 3.179688 45.449219 3.238281 45.511719 C 3.300781 45.574219 3.375 45.605469 3.460938 45.613281 L 3.625 45.613281 C 3.71875 45.613281 3.800781 45.582031 3.867188 45.519531 C 3.933594 45.457031 3.96875 45.371094 3.96875 45.261719 L 3.96875 44.863281 M 3.921875 46.066406 C 3.859375 46.003906 3.777344 45.972656 3.671875 45.972656 L 3.441406 45.972656 C 3.335938 45.972656 3.253906 46.003906 3.191406 46.066406 C 3.125 46.128906 3.089844 46.210938 3.089844 46.316406 L 3.089844 46.816406 C 3.089844 46.933594 3.117188 47.019531 3.164062 47.082031 C 3.214844 47.136719 3.292969 47.164062 3.40625 47.164062 L 3.664062 47.164062 C 3.785156 47.164062 3.878906 47.136719 3.941406 47.082031 C 3.996094 47.027344 4.023438 46.9375 4.023438 46.816406 L 4.023438 46.316406 C 4.023438 46.210938 3.988281 46.128906 3.921875 46.066406 M 5.722656 44.890625 L 5.722656 45.605469 C 5.722656 45.695312 5.75 45.769531 5.804688 45.824219 C 5.859375 45.886719 5.949219 45.917969 6.074219 45.917969 L 6.589844 45.917969 L 6.589844 44.890625 C 6.589844 44.792969 6.558594 44.707031 6.496094 44.632812 C 6.433594 44.558594 6.34375 44.523438 6.21875 44.523438 L 6.101562 44.523438 C 5.976562 44.523438 5.886719 44.558594 5.824219 44.632812 C 5.753906 44.707031 5.722656 44.792969 5.722656 44.890625 M 9.238281 51.066406 L 9.238281 49.605469 L 9.652344 49.605469 L 9.652344 52.972656 L 9.238281 52.972656 L 9.238281 51.425781 L 8.25 51.425781 L 8.25 52.972656 L 7.835938 52.972656 L 7.835938 49.605469 L 8.25 49.605469 L 8.25 51.066406 L 9.238281 51.066406 M 4.523438 50.421875 L 4.523438 52.15625 C 4.523438 52.429688 4.445312 52.632812 4.292969 52.769531 C 4.144531 52.902344 3.929688 52.972656 3.65625 52.972656 L 3.460938 52.972656 C 3.183594 52.972656 2.96875 52.902344 2.816406 52.769531 C 2.667969 52.632812 2.59375 52.429688 2.59375 52.15625 L 2.59375 50.421875 C 2.59375 50.148438 2.667969 49.945312 2.816406 49.808594 C 2.96875 49.675781 3.183594 49.605469 3.460938 49.605469 L 3.65625 49.605469 C 3.929688 49.605469 4.144531 49.675781 4.292969 49.808594 C 4.445312 49.945312 4.523438 50.148438 4.523438 50.421875 M 3.996094 50.078125 C 3.921875 50.011719 3.824219 49.976562 3.699219 49.976562 L 3.414062 49.976562 C 3.292969 49.976562 3.191406 50.011719 3.121094 50.078125 C 3.050781 50.152344 3.019531 50.238281 3.019531 50.335938 L 3.019531 52.242188 C 3.019531 52.339844 3.050781 52.425781 3.121094 52.5 C 3.191406 52.566406 3.292969 52.601562 3.414062 52.601562 L 3.699219 52.601562 C 3.824219 52.601562 3.921875 52.566406 3.996094 52.5 C 4.0625 52.425781 4.097656 52.339844 4.097656 52.242188 L 4.097656 50.335938 C 4.097656 50.238281 4.0625 50.152344 3.996094 50.078125 M 16.621094 49.605469 C 16.898438 49.605469 17.109375 49.675781 17.257812 49.808594 C 17.410156 49.945312 17.488281 50.148438 17.488281 50.421875 L 17.488281 52.15625 C 17.488281 52.429688 17.410156 52.632812 17.257812 52.769531 C 17.109375 52.902344 16.898438 52.972656 16.621094 52.972656 L 16.425781 52.972656 C 16.148438 52.972656 15.933594 52.902344 15.78125 52.769531 C 15.632812 52.632812 15.558594 52.429688 15.558594 52.15625 L 15.558594 50.421875 C 15.558594 50.148438 15.632812 49.945312 15.78125 49.808594 C 15.933594 49.675781 16.148438 49.605469 16.425781 49.605469 L 16.621094 49.605469 M 16.085938 50.078125 C 16.019531 50.152344 15.984375 50.238281 15.984375 50.335938 L 15.984375 52.242188 C 15.984375 52.339844 16.019531 52.425781 16.085938 52.5 C 16.160156 52.566406 16.257812 52.601562 16.382812 52.601562 L 16.667969 52.601562 C 16.789062 52.601562 16.890625 52.566406 16.960938 52.5 C 17.03125 52.425781 17.0625 52.339844 17.0625 52.242188 L 17.0625 50.335938 C 17.0625 50.238281 17.03125 50.152344 16.960938 50.078125 C 16.890625 50.011719 16.789062 49.976562 16.667969 49.976562 L 16.382812 49.976562 C 16.257812 49.976562 16.160156 50.011719 16.085938 50.078125 M 13.601562 49.605469 L 13.601562 52.601562 L 14.671875 52.601562 L 14.671875 52.972656 L 13.1875 52.972656 L 13.1875 49.605469 L 13.601562 49.605469 M 11.480469 49.976562 L 11.195312 49.976562 C 11.070312 49.976562 10.972656 50.011719 10.898438 50.078125 C 10.832031 50.152344 10.796875 50.238281 10.796875 50.335938 L 10.796875 52.242188 C 10.796875 52.339844 10.832031 52.425781 10.898438 52.5 C 10.972656 52.566406 11.070312 52.601562 11.195312 52.601562 L 11.480469 52.601562 C 11.605469 52.601562 11.703125 52.566406 11.777344 52.5 C 11.84375 52.425781 11.878906 52.339844 11.878906 52.242188 L 11.878906 50.335938 C 11.878906 50.238281 11.84375 50.152344 11.777344 50.078125 C 11.703125 50.011719 11.605469 49.976562 11.480469 49.976562 M 11.433594 49.605469 C 11.710938 49.605469 11.921875 49.675781 12.070312 49.808594 C 12.226562 49.945312 12.300781 50.148438 12.300781 50.421875 L 12.300781 52.15625 C 12.300781 52.429688 12.226562 52.632812 12.070312 52.769531 C 11.921875 52.902344 11.710938 52.972656 11.433594 52.972656 L 11.242188 52.972656 C 10.964844 52.972656 10.75 52.902344 10.59375 52.769531 C 10.445312 52.632812 10.375 52.429688 10.375 52.15625 L 10.375 50.421875 C 10.375 50.148438 10.445312 49.945312 10.59375 49.808594 C 10.75 49.675781 10.964844 49.605469 11.242188 49.605469 L 11.433594 49.605469 M 31.699219 41.730469 L 32.882812 41.730469 L 32.882812 42.082031 L 31.285156 42.082031 L 31.285156 38.714844 L 32.882812 38.714844 L 32.882812 39.066406 L 31.699219 39.066406 L 31.699219 40.167969 L 32.761719 40.167969 L 32.761719 40.519531 L 31.699219 40.519531 L 31.699219 41.730469 M 27.632812 44.160156 L 27.632812 44.53125 L 26.894531 44.53125 C 26.777344 44.53125 26.679688 44.566406 26.605469 44.632812 C 26.53125 44.707031 26.496094 44.792969 26.496094 44.890625 L 26.496094 45.253906 C 26.496094 45.351562 26.527344 45.433594 26.589844 45.503906 C 26.65625 45.570312 26.742188 45.605469 26.847656 45.605469 L 26.984375 45.605469 C 27.207031 45.605469 27.382812 45.664062 27.511719 45.789062 C 27.640625 45.917969 27.703125 46.117188 27.703125 46.390625 L 27.703125 46.714844 C 27.703125 46.984375 27.632812 47.1875 27.484375 47.324219 C 27.335938 47.457031 27.125 47.527344 26.847656 47.527344 L 26.164062 47.527344 L 26.164062 47.15625 L 26.894531 47.15625 C 27.015625 47.15625 27.109375 47.121094 27.179688 47.054688 C 27.253906 46.980469 27.289062 46.898438 27.289062 46.804688 L 27.289062 46.296875 C 27.289062 46.203125 27.265625 46.128906 27.214844 46.074219 C 27.171875 46.011719 27.097656 45.984375 26.996094 45.984375 L 26.847656 45.984375 C 26.617188 45.984375 26.433594 45.914062 26.292969 45.78125 C 26.152344 45.644531 26.082031 45.4375 26.082031 45.160156 L 26.082031 44.984375 C 26.082031 44.707031 26.15625 44.5 26.300781 44.363281 C 26.449219 44.230469 26.660156 44.160156 26.9375 44.160156 L 27.632812 44.160156 M 24.980469 45.964844 L 23.921875 45.964844 L 23.921875 47.175781 L 25.101562 47.175781 L 25.101562 47.527344 L 23.503906 47.527344 L 23.503906 44.160156 L 25.101562 44.160156 L 25.101562 44.511719 L 23.921875 44.511719 L 23.921875 45.613281 L 24.980469 45.613281 L 24.980469 45.964844 M 31.710938 45.660156 L 32.78125 45.660156 L 32.78125 46.011719 L 31.710938 46.011719 L 31.710938 47.527344 L 31.292969 47.527344 L 31.292969 44.160156 L 32.902344 44.160156 L 32.902344 44.511719 L 31.710938 44.511719 L 31.710938 45.660156 M 22.683594 44.160156 L 22.683594 44.53125 L 21.917969 44.53125 L 21.917969 47.527344 L 21.503906 47.527344 L 21.503906 44.53125 L 20.738281 44.53125 L 20.738281 44.160156 L 22.683594 44.160156 M 20.191406 44.160156 L 19.324219 45.964844 L 19.324219 47.527344 L 18.890625 47.527344 L 18.890625 45.964844 L 18.03125 44.160156 L 18.496094 44.160156 L 19.121094 45.558594 L 19.757812 44.160156 L 20.191406 44.160156 M 21.992188 49.605469 L 22.785156 52.972656 L 22.363281 52.972656 L 22.175781 52.121094 L 21.246094 52.121094 L 21.058594 52.972656 L 20.625 52.972656 L 21.4375 49.605469 L 21.992188 49.605469 M 22.101562 51.761719 L 21.707031 49.921875 L 21.320312 51.761719 L 22.101562 51.761719 M 23.855469 52.972656 L 23.441406 52.972656 L 23.441406 49.605469 L 24.34375 49.605469 C 24.609375 49.605469 24.816406 49.664062 24.964844 49.78125 C 25.105469 49.898438 25.175781 50.089844 25.175781 50.355469 L 25.175781 50.902344 C 25.175781 51.164062 25.105469 51.359375 24.964844 51.484375 C 24.824219 51.605469 24.621094 51.667969 24.355469 51.667969 L 23.855469 51.667969 L 23.855469 52.972656 M 23.855469 51.296875 L 24.402344 51.296875 C 24.523438 51.296875 24.613281 51.269531 24.667969 51.214844 C 24.722656 51.160156 24.75 51.074219 24.75 50.957031 L 24.75 50.308594 C 24.75 50.191406 24.722656 50.105469 24.667969 50.050781 C 24.613281 49.996094 24.523438 49.96875 24.402344 49.96875 L 23.855469 49.96875 L 23.855469 51.296875 M 19.324219 49.976562 L 19.324219 52.972656 L 18.910156 52.972656 L 18.910156 49.976562 L 18.144531 49.976562 L 18.144531 49.605469 L 20.089844 49.605469 L 20.089844 49.976562 L 19.324219 49.976562 M 31.710938 52.972656 L 31.292969 52.972656 L 31.292969 49.605469 L 32.902344 49.605469 L 32.902344 49.957031 L 31.710938 49.957031 L 31.710938 51.105469 L 32.78125 51.105469 L 32.78125 51.457031 L 31.710938 51.457031 L 31.710938 52.972656 M 27.695312 49.957031 L 26.515625 49.957031 L 26.515625 51.058594 L 27.574219 51.058594 L 27.574219 51.410156 L 26.515625 51.410156 L 26.515625 52.621094 L 27.695312 52.621094 L 27.695312 52.972656 L 26.097656 52.972656 L 26.097656 49.605469 L 27.695312 49.605469 L 27.695312 49.957031 M 58.457031 22.789062 L 58.492188 23.316406 L 58.492188 24.8125 L 58.457031 25.347656 C 58.425781 25.503906 58.382812 25.640625 58.335938 25.753906 C 58.292969 25.878906 58.238281 25.988281 58.167969 26.078125 L 57.957031 26.320312 L 57.53125 26.320312 C 57.644531 26.195312 57.730469 26.082031 57.800781 25.976562 C 57.867188 25.878906 57.925781 25.773438 57.976562 25.664062 C 58.011719 25.558594 58.039062 25.4375 58.058594 25.304688 C 58.078125 25.167969 58.085938 25.007812 58.085938 24.820312 L 58.085938 23.304688 C 58.085938 23.121094 58.078125 22.960938 58.058594 22.824219 L 57.976562 22.464844 L 57.800781 22.152344 L 57.53125 21.808594 L 57.957031 21.808594 L 58.167969 22.058594 L 58.335938 22.371094 C 58.382812 22.488281 58.425781 22.628906 58.457031 22.789062 M 56.195312 23.59375 C 56.195312 23.785156 56.15625 23.933594 56.082031 24.046875 C 56.003906 24.148438 55.894531 24.222656 55.761719 24.265625 L 56.425781 25.746094 L 55.972656 25.746094 L 55.355469 24.351562 L 54.882812 24.351562 L 54.882812 25.746094 L 54.460938 25.746094 L 54.460938 22.382812 L 55.363281 22.382812 C 55.628906 22.382812 55.835938 22.441406 55.980469 22.558594 C 56.125 22.675781 56.195312 22.867188 56.195312 23.128906 L 56.195312 23.59375 M 55.769531 23.085938 C 55.769531 22.96875 55.742188 22.878906 55.6875 22.824219 C 55.632812 22.769531 55.542969 22.742188 55.417969 22.742188 L 54.882812 22.742188 L 54.882812 23.988281 L 55.417969 23.988281 C 55.542969 23.988281 55.632812 23.960938 55.6875 23.90625 C 55.742188 23.851562 55.769531 23.761719 55.769531 23.640625 L 55.769531 23.085938 M 52.871094 22.464844 L 52.78125 22.824219 L 52.761719 23.304688 L 52.761719 24.820312 L 52.78125 25.304688 L 52.871094 25.664062 L 53.046875 25.976562 L 53.304688 26.320312 L 52.890625 26.320312 L 52.679688 26.078125 L 52.511719 25.753906 L 52.390625 25.347656 L 52.34375 24.8125 L 52.34375 23.316406 L 52.390625 22.789062 L 52.511719 22.371094 L 52.679688 22.058594 L 52.890625 21.808594 L 53.304688 21.808594 L 53.046875 22.152344 L 52.871094 22.464844 M 50.675781 22.851562 C 50.601562 22.785156 50.503906 22.75 50.378906 22.75 L 50.09375 22.75 C 49.972656 22.75 49.871094 22.785156 49.796875 22.851562 C 49.730469 22.925781 49.695312 23.011719 49.695312 23.113281 L 49.695312 25.015625 C 49.695312 25.113281 49.730469 25.199219 49.796875 25.273438 C 49.871094 25.34375 49.972656 25.375 50.09375 25.375 L 50.378906 25.375 C 50.503906 25.375 50.601562 25.34375 50.675781 25.273438 C 50.742188 25.199219 50.777344 25.113281 50.777344 25.015625 L 50.777344 23.113281 C 50.777344 23.011719 50.742188 22.925781 50.675781 22.851562 M 51.203125 23.195312 L 51.203125 24.933594 C 51.203125 25.203125 51.125 25.40625 50.96875 25.542969 C 50.824219 25.679688 50.609375 25.746094 50.332031 25.746094 L 50.140625 25.746094 C 49.863281 25.746094 49.648438 25.679688 49.492188 25.542969 C 49.347656 25.40625 49.273438 25.203125 49.273438 24.933594 L 49.273438 23.195312 C 49.273438 22.925781 49.347656 22.71875 49.492188 22.585938 C 49.648438 22.449219 49.863281 22.382812 50.140625 22.382812 L 50.332031 22.382812 C 50.609375 22.382812 50.824219 22.449219 50.96875 22.585938 C 51.125 22.71875 51.203125 22.925781 51.203125 23.195312 M 48.414062 22.75 L 47.683594 22.75 C 47.5625 22.75 47.464844 22.785156 47.390625 22.851562 C 47.320312 22.925781 47.289062 23.011719 47.289062 23.113281 L 47.289062 25.015625 C 47.289062 25.113281 47.320312 25.199219 47.390625 25.273438 C 47.464844 25.34375 47.5625 25.375 47.683594 25.375 L 48.414062 25.375 L 48.414062 25.746094 L 47.730469 25.746094 C 47.453125 25.746094 47.242188 25.679688 47.09375 25.542969 C 46.945312 25.40625 46.871094 25.203125 46.871094 24.933594 L 46.871094 23.195312 C 46.871094 22.925781 46.945312 22.71875 47.09375 22.585938 C 47.242188 22.449219 47.453125 22.382812 47.730469 22.382812 L 48.414062 22.382812 L 48.414062 22.75 M 45.46875 23.085938 C 45.46875 22.96875 45.441406 22.878906 45.386719 22.824219 L 45.121094 22.742188 L 44.574219 22.742188 L 44.574219 23.804688 L 45.121094 23.804688 C 45.21875 23.804688 45.300781 23.773438 45.367188 23.710938 C 45.4375 23.644531 45.46875 23.558594 45.46875 23.453125 L 45.46875 23.085938 M 45.886719 23.128906 L 45.886719 23.40625 C 45.886719 23.53125 45.863281 23.640625 45.820312 23.742188 C 45.773438 23.832031 45.707031 23.90625 45.628906 23.960938 C 45.726562 24.019531 45.800781 24.09375 45.859375 24.195312 C 45.90625 24.292969 45.933594 24.414062 45.933594 24.554688 L 45.933594 24.988281 C 45.933594 25.257812 45.871094 25.453125 45.746094 25.570312 C 45.617188 25.6875 45.410156 25.746094 45.121094 25.746094 L 44.160156 25.746094 L 44.160156 22.382812 L 45.0625 22.382812 C 45.339844 22.382812 45.546875 22.4375 45.683594 22.546875 C 45.816406 22.660156 45.886719 22.851562 45.886719 23.128906 M 43.421875 23.195312 L 43.421875 24.933594 C 43.421875 25.203125 43.34375 25.40625 43.191406 25.542969 C 43.042969 25.679688 42.832031 25.746094 42.554688 25.746094 L 42.359375 25.746094 C 42.082031 25.746094 41.867188 25.679688 41.714844 25.542969 C 41.566406 25.40625 41.492188 25.203125 41.492188 24.933594 L 41.492188 23.195312 C 41.492188 22.925781 41.566406 22.71875 41.714844 22.585938 C 41.867188 22.449219 42.082031 22.382812 42.359375 22.382812 L 42.554688 22.382812 C 42.832031 22.382812 43.042969 22.449219 43.191406 22.585938 C 43.34375 22.71875 43.421875 22.925781 43.421875 23.195312 M 44.574219 25.386719 L 45.164062 25.386719 C 45.28125 25.386719 45.371094 25.359375 45.433594 25.304688 C 45.488281 25.246094 45.515625 25.15625 45.515625 25.035156 L 45.515625 24.507812 C 45.515625 24.402344 45.484375 24.320312 45.425781 24.257812 C 45.355469 24.195312 45.269531 24.164062 45.164062 24.164062 L 44.574219 24.164062 L 44.574219 25.386719 M 42.996094 23.113281 C 42.996094 23.011719 42.964844 22.925781 42.894531 22.851562 C 42.820312 22.785156 42.722656 22.75 42.601562 22.75 L 42.3125 22.75 C 42.191406 22.75 42.09375 22.785156 42.019531 22.851562 C 41.949219 22.925781 41.917969 23.011719 41.917969 23.113281 L 41.917969 25.015625 C 41.917969 25.113281 41.949219 25.199219 42.019531 25.273438 C 42.09375 25.34375 42.191406 25.375 42.3125 25.375 L 42.601562 25.375 C 42.722656 25.375 42.820312 25.34375 42.894531 25.273438 C 42.964844 25.199219 42.996094 25.113281 42.996094 25.015625 L 42.996094 23.113281 M 40.421875 22.558594 C 40.5625 22.675781 40.632812 22.867188 40.632812 23.128906 L 40.632812 23.59375 C 40.632812 23.785156 40.597656 23.933594 40.523438 24.046875 C 40.445312 24.148438 40.335938 24.222656 40.199219 24.265625 L 40.863281 25.746094 L 40.414062 25.746094 L 39.792969 24.351562 L 39.324219 24.351562 L 39.324219 25.746094 L 38.898438 25.746094 L 38.898438 22.382812 L 39.804688 22.382812 C 40.066406 22.382812 40.273438 22.441406 40.421875 22.558594 M 40.125 22.824219 C 40.070312 22.769531 39.980469 22.742188 39.859375 22.742188 L 39.324219 22.742188 L 39.324219 23.988281 L 39.859375 23.988281 C 39.980469 23.988281 40.070312 23.960938 40.125 23.90625 C 40.183594 23.851562 40.210938 23.761719 40.210938 23.640625 L 40.210938 23.085938 C 40.210938 22.96875 40.183594 22.878906 40.125 22.824219 M 35.144531 22.808594 L 34.257812 22.808594 L 34.257812 23.769531 L 34.441406 23.769531 C 34.675781 23.769531 34.863281 23.824219 35.003906 23.933594 C 35.144531 24.046875 35.21875 24.230469 35.21875 24.488281 L 35.21875 24.996094 C 35.21875 25.261719 35.15625 25.453125 35.03125 25.570312 C 34.910156 25.6875 34.707031 25.746094 34.421875 25.746094 L 33.804688 25.746094 L 33.804688 25.394531 L 34.460938 25.394531 C 34.582031 25.394531 34.667969 25.363281 34.71875 25.304688 C 34.78125 25.253906 34.8125 25.167969 34.8125 25.042969 L 34.8125 24.453125 C 34.8125 24.347656 34.777344 24.265625 34.710938 24.203125 C 34.648438 24.148438 34.566406 24.121094 34.46875 24.121094 L 33.851562 24.121094 L 33.851562 22.457031 L 35.144531 22.457031 L 35.144531 22.808594 M 37.550781 33.273438 L 37.550781 36.277344 L 38.070312 36.277344 L 38.070312 36.636719 L 36.507812 36.636719 L 36.507812 36.277344 L 37.136719 36.277344 L 37.136719 33.652344 L 36.464844 33.898438 L 36.464844 33.511719 L 37.089844 33.273438 L 37.550781 33.273438 M 35.199219 34.4375 L 35.199219 35.535156 L 35.558594 35.535156 L 35.558594 35.886719 L 35.199219 35.886719 L 35.199219 36.636719 L 34.785156 36.636719 L 34.785156 35.886719 L 33.796875 35.886719 L 33.796875 35.472656 L 34.3125 33.273438 L 34.699219 33.273438 L 34.210938 35.535156 L 34.785156 35.535156 L 34.785156 34.4375 L 35.199219 34.4375 M 34.304688 38.714844 L 34.683594 40.4375 L 35.078125 38.714844 L 35.726562 38.714844 L 35.726562 42.082031 L 35.347656 42.082031 L 35.347656 39.058594 L 34.867188 40.953125 L 34.46875 40.953125 L 34 39.058594 L 34 42.082031 L 33.640625 42.082031 L 33.640625 38.714844 L 34.304688 38.714844 M 44.417969 33.464844 C 44.566406 33.335938 44.757812 33.273438 45 33.273438 L 45.101562 33.273438 C 45.339844 33.273438 45.535156 33.335938 45.683594 33.464844 C 45.832031 33.601562 45.902344 33.808594 45.902344 34.085938 L 45.902344 35.824219 C 45.902344 36.09375 45.832031 36.296875 45.683594 36.433594 C 45.535156 36.570312 45.339844 36.636719 45.101562 36.636719 L 45 36.636719 C 44.757812 36.636719 44.566406 36.570312 44.417969 36.433594 C 44.269531 36.296875 44.195312 36.09375 44.195312 35.824219 L 44.195312 34.085938 C 44.195312 33.808594 44.269531 33.601562 44.417969 33.464844 M 44.601562 34 L 44.601562 35.304688 L 45.496094 34 C 45.496094 33.902344 45.460938 33.816406 45.386719 33.742188 C 45.320312 33.667969 45.222656 33.632812 45.101562 33.632812 L 45 33.632812 C 44.875 33.632812 44.78125 33.667969 44.714844 33.742188 C 44.640625 33.816406 44.601562 33.902344 44.601562 34 M 41.648438 33.511719 L 42.277344 33.273438 L 42.738281 33.273438 L 42.738281 36.277344 L 43.253906 36.277344 L 43.253906 36.636719 L 41.695312 36.636719 L 41.695312 36.277344 L 42.324219 36.277344 L 42.324219 33.652344 L 41.648438 33.898438 L 41.648438 33.511719 M 40.097656 36.15625 L 40.097656 36.636719 L 39.621094 36.636719 L 39.621094 36.15625 L 40.097656 36.15625 M 45.101562 36.277344 C 45.222656 36.277344 45.320312 36.238281 45.386719 36.164062 C 45.460938 36.089844 45.496094 36.003906 45.496094 35.90625 L 45.496094 34.613281 L 44.601562 35.90625 C 44.601562 36.003906 44.640625 36.089844 44.714844 36.164062 C 44.78125 36.238281 44.875 36.277344 45 36.277344 L 45.101562 36.277344 M 39.480469 44.511719 L 39.480469 45.613281 L 40.542969 45.613281 L 40.542969 45.964844 L 39.480469 45.964844 L 39.480469 47.175781 L 40.660156 47.175781 L 40.660156 47.527344 L 39.066406 47.527344 L 39.066406 44.160156 L 40.660156 44.160156 L 40.660156 44.511719 L 39.480469 44.511719 M 38.070312 44.160156 L 38.070312 44.511719 L 36.886719 44.511719 L 36.886719 45.613281 L 37.949219 45.613281 L 37.949219 45.964844 L 36.886719 45.964844 L 36.886719 47.175781 L 38.070312 47.175781 L 38.070312 47.527344 L 36.472656 47.527344 L 36.472656 44.160156 L 38.070312 44.160156 M 34.617188 44.160156 C 34.882812 44.160156 35.085938 44.21875 35.234375 44.335938 C 35.378906 44.453125 35.449219 44.644531 35.449219 44.910156 L 35.449219 45.371094 C 35.449219 45.5625 35.410156 45.714844 35.335938 45.824219 C 35.257812 45.929688 35.148438 46.003906 35.015625 46.046875 L 35.679688 47.527344 L 35.226562 47.527344 L 34.609375 46.128906 L 34.136719 46.128906 L 34.136719 47.527344 L 33.710938 47.527344 L 33.710938 44.160156 L 34.617188 44.160156 M 34.941406 44.605469 C 34.886719 44.550781 34.796875 44.523438 34.671875 44.523438 L 34.136719 44.523438 L 34.136719 45.769531 L 34.671875 45.769531 C 34.796875 45.769531 34.886719 45.742188 34.941406 45.6875 C 34.996094 45.632812 35.023438 45.542969 35.023438 45.417969 L 35.023438 44.863281 C 35.023438 44.746094 34.996094 44.660156 34.941406 44.605469 M 38.1875 49.605469 L 38.1875 52.15625 C 38.1875 52.429688 38.113281 52.632812 37.96875 52.769531 C 37.820312 52.902344 37.605469 52.972656 37.332031 52.972656 L 37.210938 52.972656 C 36.925781 52.972656 36.710938 52.902344 36.566406 52.769531 C 36.417969 52.632812 36.34375 52.429688 36.34375 52.15625 L 36.34375 49.605469 L 36.757812 49.605469 L 36.757812 52.242188 C 36.757812 52.339844 36.796875 52.425781 36.867188 52.5 C 36.941406 52.566406 37.039062 52.601562 37.15625 52.601562 L 37.375 52.601562 C 37.5 52.601562 37.59375 52.566406 37.664062 52.5 C 37.738281 52.425781 37.773438 52.339844 37.773438 52.242188 L 37.773438 49.605469 L 38.1875 49.605469 M 35.640625 52.15625 C 35.640625 52.429688 35.566406 52.632812 35.410156 52.769531 C 35.261719 52.902344 35.050781 52.972656 34.773438 52.972656 L 34.582031 52.972656 C 34.304688 52.972656 34.089844 52.902344 33.933594 52.769531 C 33.785156 52.632812 33.710938 52.429688 33.710938 52.15625 L 33.710938 50.421875 C 33.710938 50.148438 33.785156 49.945312 33.933594 49.808594 C 34.089844 49.675781 34.304688 49.605469 34.582031 49.605469 L 34.773438 49.605469 C 35.050781 49.605469 35.261719 49.675781 35.410156 49.808594 C 35.566406 49.945312 35.640625 50.148438 35.640625 50.421875 L 35.640625 52.15625 M 34.136719 50.335938 L 34.136719 52.242188 C 34.136719 52.339844 34.171875 52.425781 34.238281 52.5 C 34.3125 52.566406 34.410156 52.601562 34.535156 52.601562 L 34.820312 52.601562 C 34.941406 52.601562 35.042969 52.566406 35.117188 52.5 C 35.183594 52.425781 35.21875 52.339844 35.21875 52.242188 L 35.21875 50.335938 C 35.21875 50.238281 35.183594 50.152344 35.117188 50.078125 C 35.042969 50.011719 34.941406 49.976562 34.820312 49.976562 L 34.535156 49.976562 C 34.410156 49.976562 34.3125 50.011719 34.238281 50.078125 C 34.171875 50.152344 34.136719 50.238281 34.136719 50.335938 "/>
</g>
</svg>
