<?xml version="1.0" encoding="UTF-8"?>
<svg xmlns="http://www.w3.org/2000/svg" xmlns:xlink="http://www.w3.org/1999/xlink" width="128pt" height="6pt" viewBox="0 0 128 6" version="1.1">
<g id="surface1">
<path style=" stroke:none;fill-rule:nonzero;fill:rgb(100%,100%,100%);fill-opacity:1;" d="M 123.632812 0.660156 L 123.546875 1.625 L 124.441406 1.273438 L 124.609375 1.769531 L 123.679688 1.960938 L 124.34375 2.734375 L 123.898438 3.058594 L 123.339844 2.167969 L 122.773438 3.058594 L 122.328125 2.734375 L 123.003906 1.960938 L 122.085938 1.769531 L 122.265625 1.261719 L 123.148438 1.625 L 123.0625 0.660156 L 123.632812 0.660156 M 121.21875 1.769531 L 120.289062 1.960938 L 120.953125 2.734375 L 120.503906 3.058594 L 119.949219 2.167969 L 119.382812 3.058594 L 118.9375 2.734375 L 119.613281 1.960938 L 118.695312 1.769531 L 118.875 1.261719 L 119.757812 1.625 L 119.671875 0.660156 L 120.238281 0.660156 L 120.15625 1.625 L 121.046875 1.273438 L 121.21875 1.769531 M 127.023438 0.660156 L 126.9375 1.625 L 127.832031 1.273438 L 128 1.769531 L 127.070312 1.960938 L 127.734375 2.734375 L 127.289062 3.058594 L 126.734375 2.167969 L 126.164062 3.058594 L 125.71875 2.734375 L 126.394531 1.960938 L 125.476562 1.769531 L 125.660156 1.261719 L 126.539062 1.625 L 126.457031 0.660156 L 127.023438 0.660156 M 107.21875 1.058594 C 107.410156 1.234375 107.507812 1.503906 107.507812 1.867188 L 107.507812 4.132812 C 107.507812 4.488281 107.410156 4.753906 107.21875 4.929688 C 107.023438 5.109375 106.769531 5.195312 106.457031 5.195312 L 106.324219 5.195312 C 106.011719 5.195312 105.757812 5.109375 105.5625 4.929688 C 105.371094 4.753906 105.273438 4.488281 105.273438 4.132812 L 105.273438 1.867188 C 105.273438 1.503906 105.371094 1.234375 105.5625 1.058594 C 105.757812 0.886719 106.011719 0.804688 106.324219 0.804688 L 106.457031 0.804688 C 106.769531 0.804688 107.023438 0.886719 107.21875 1.058594 M 105.949219 1.417969 C 105.855469 1.515625 105.804688 1.628906 105.804688 1.757812 L 105.804688 3.457031 L 106.976562 1.757812 C 106.976562 1.628906 106.929688 1.515625 106.832031 1.417969 C 106.742188 1.324219 106.617188 1.273438 106.457031 1.273438 L 106.324219 1.273438 C 106.164062 1.273438 106.039062 1.324219 105.949219 1.417969 M 113.226562 0.804688 C 113.550781 0.804688 113.800781 0.878906 113.976562 1.03125 C 114.160156 1.1875 114.253906 1.433594 114.253906 1.78125 L 114.253906 2.179688 C 114.253906 2.507812 114.140625 2.75 113.914062 2.902344 C 114.050781 2.976562 114.15625 3.078125 114.230469 3.207031 C 114.292969 3.332031 114.328125 3.492188 114.328125 3.675781 L 114.328125 4.207031 C 114.328125 4.554688 114.246094 4.800781 114.085938 4.957031 C 113.914062 5.117188 113.640625 5.195312 113.265625 5.195312 L 113.082031 5.195312 C 112.703125 5.195312 112.429688 5.117188 112.261719 4.957031 C 112.101562 4.800781 112.019531 4.554688 112.019531 4.207031 L 112.019531 3.675781 C 112.019531 3.492188 112.054688 3.332031 112.117188 3.207031 C 112.191406 3.078125 112.289062 2.976562 112.417969 2.902344 C 112.203125 2.75 112.09375 2.507812 112.09375 2.179688 L 112.09375 1.78125 C 112.09375 1.433594 112.1875 1.1875 112.371094 1.03125 C 112.546875 0.878906 112.792969 0.804688 113.105469 0.804688 L 113.226562 0.804688 M 113.710938 1.722656 C 113.710938 1.566406 113.675781 1.457031 113.601562 1.382812 C 113.53125 1.308594 113.417969 1.273438 113.265625 1.273438 L 113.035156 1.273438 C 112.890625 1.28125 112.789062 1.324219 112.734375 1.394531 C 112.667969 1.46875 112.636719 1.574219 112.636719 1.722656 L 112.636719 2.238281 C 112.636719 2.375 112.675781 2.484375 112.757812 2.566406 C 112.835938 2.644531 112.933594 2.691406 113.046875 2.699219 L 113.265625 2.699219 C 113.386719 2.699219 113.488281 2.65625 113.578125 2.578125 C 113.667969 2.496094 113.710938 2.382812 113.710938 2.238281 L 113.710938 1.722656 M 112.695312 3.289062 C 112.609375 3.371094 112.5625 3.480469 112.5625 3.617188 L 112.5625 4.265625 C 112.5625 4.421875 112.597656 4.535156 112.660156 4.617188 C 112.726562 4.691406 112.828125 4.726562 112.972656 4.726562 L 113.3125 4.726562 C 113.472656 4.726562 113.59375 4.691406 113.675781 4.617188 C 113.746094 4.542969 113.78125 4.429688 113.78125 4.265625 L 113.78125 3.617188 C 113.78125 3.480469 113.738281 3.371094 113.648438 3.289062 C 113.570312 3.210938 113.460938 3.167969 113.324219 3.167969 L 113.023438 3.167969 C 112.886719 3.167969 112.777344 3.210938 112.695312 3.289062 M 82.019531 0.0546875 L 82.574219 0.0546875 L 82.851562 0.382812 L 83.070312 0.792969 L 83.226562 1.335938 L 83.273438 2.023438 L 83.273438 3.976562 L 83.226562 4.675781 L 83.070312 5.207031 L 82.851562 5.632812 L 82.574219 5.945312 L 82.019531 5.945312 L 82.367188 5.5 L 82.597656 5.085938 L 82.707031 4.617188 L 82.742188 3.988281 L 82.742188 2.011719 L 82.707031 1.382812 L 82.597656 0.914062 L 82.367188 0.5 L 82.019531 0.0546875 M 88.644531 0.804688 L 89.390625 4.640625 L 90.199219 0.804688 L 90.742188 0.804688 L 89.753906 5.195312 L 89.019531 5.195312 L 88.089844 0.804688 L 88.644531 0.804688 M 99.375 0.804688 L 99.976562 0.804688 L 99.976562 4.726562 L 100.652344 4.726562 L 100.652344 5.195312 L 98.613281 5.195312 L 98.613281 4.726562 L 99.433594 4.726562 L 99.433594 1.296875 L 98.550781 1.625 L 98.550781 1.117188 L 99.375 0.804688 M 91.78125 0.804688 L 93.820312 0.804688 L 93.820312 1.40625 L 92.722656 5.195312 L 92.15625 5.195312 L 93.300781 1.273438 L 91.78125 1.273438 L 91.78125 0.804688 M 96.523438 4.570312 L 96.523438 5.195312 L 95.898438 5.195312 L 95.898438 4.570312 L 96.523438 4.570312 M 110.089844 5.195312 L 109.460938 5.195312 L 109.460938 4.570312 L 110.089844 4.570312 L 110.089844 5.195312 M 106.457031 4.726562 C 106.617188 4.726562 106.742188 4.675781 106.832031 4.582031 C 106.929688 4.484375 106.976562 4.371094 106.976562 4.242188 L 106.976562 2.554688 L 105.804688 4.242188 C 105.804688 4.371094 105.855469 4.484375 105.949219 4.582031 C 106.039062 4.675781 106.164062 4.726562 106.324219 4.726562 L 106.457031 4.726562 M 103.308594 5.195312 L 102.679688 5.195312 L 102.679688 4.570312 L 103.308594 4.570312 L 103.308594 5.195312 M 1.542969 0.660156 L 1.460938 1.625 L 2.351562 1.273438 L 2.523438 1.769531 L 1.59375 1.960938 L 2.257812 2.734375 L 1.808594 3.058594 L 1.253906 2.167969 L 0.6875 3.058594 L 0.242188 2.734375 L 0.917969 1.960938 L 0 1.769531 L 0.179688 1.261719 L 1.0625 1.625 L 0.976562 0.660156 L 1.542969 0.660156 M 62.359375 0.804688 C 62.703125 0.804688 62.972656 0.878906 63.167969 1.03125 C 63.351562 1.1875 63.445312 1.433594 63.445312 1.78125 L 63.445312 2.492188 C 63.445312 2.839844 63.351562 3.09375 63.167969 3.253906 C 62.980469 3.414062 62.714844 3.496094 62.371094 3.496094 L 61.71875 3.496094 L 61.71875 5.195312 L 61.175781 5.195312 L 61.175781 0.804688 L 62.359375 0.804688 M 62.78125 1.382812 C 62.707031 1.308594 62.59375 1.273438 62.429688 1.273438 L 61.71875 1.273438 L 61.71875 3.011719 L 62.429688 3.011719 C 62.59375 3.011719 62.707031 2.976562 62.78125 2.902344 C 62.851562 2.832031 62.890625 2.71875 62.890625 2.566406 L 62.890625 1.722656 C 62.890625 1.566406 62.851562 1.457031 62.78125 1.382812 M 64.675781 3 L 66.714844 3 L 66.714844 3.46875 L 64.675781 3.46875 L 64.675781 3 M 69.214844 0.804688 C 69.574219 0.804688 69.851562 0.890625 70.046875 1.070312 C 70.246094 1.246094 70.347656 1.511719 70.347656 1.867188 L 70.347656 4.132812 C 70.347656 4.488281 70.246094 4.753906 70.046875 4.929688 C 69.851562 5.109375 69.574219 5.195312 69.214844 5.195312 L 68.960938 5.195312 C 68.597656 5.195312 68.316406 5.109375 68.117188 4.929688 C 67.921875 4.753906 67.824219 4.488281 67.824219 4.132812 L 67.824219 1.867188 C 67.824219 1.511719 67.921875 1.246094 68.117188 1.070312 C 68.316406 0.890625 68.597656 0.804688 68.960938 0.804688 L 69.214844 0.804688 M 68.898438 1.285156 C 68.738281 1.285156 68.609375 1.332031 68.511719 1.417969 C 68.425781 1.515625 68.382812 1.628906 68.382812 1.757812 L 68.382812 4.242188 C 68.382812 4.371094 68.425781 4.484375 68.511719 4.582031 C 68.609375 4.667969 68.738281 4.714844 68.898438 4.714844 L 69.273438 4.714844 C 69.433594 4.714844 69.5625 4.667969 69.660156 4.582031 C 69.75 4.484375 69.792969 4.371094 69.792969 4.242188 L 69.792969 1.757812 C 69.792969 1.628906 69.75 1.515625 69.660156 1.417969 C 69.5625 1.332031 69.433594 1.285156 69.273438 1.285156 L 68.898438 1.285156 M 75.671875 0.382812 L 75.949219 0.0546875 L 76.492188 0.0546875 L 76.152344 0.5 L 75.921875 0.914062 L 75.804688 1.382812 L 75.777344 2.011719 L 75.777344 3.988281 L 75.804688 4.617188 L 75.921875 5.085938 L 76.152344 5.5 L 76.492188 5.945312 L 75.949219 5.945312 L 75.671875 5.632812 L 75.453125 5.207031 L 75.296875 4.675781 L 75.234375 3.976562 L 75.234375 2.023438 L 75.296875 1.335938 L 75.453125 0.792969 L 75.671875 0.382812 M 72.097656 1.417969 C 72 1.515625 71.953125 1.628906 71.953125 1.757812 L 71.953125 2.226562 C 71.953125 2.355469 71.992188 2.464844 72.074219 2.554688 C 72.164062 2.640625 72.273438 2.6875 72.410156 2.6875 L 72.59375 2.6875 C 72.882812 2.6875 73.113281 2.765625 73.28125 2.925781 C 73.449219 3.097656 73.535156 3.359375 73.535156 3.710938 L 73.535156 4.132812 C 73.535156 4.488281 73.4375 4.753906 73.246094 4.929688 C 73.050781 5.109375 72.773438 5.195312 72.410156 5.195312 L 71.519531 5.195312 L 71.519531 4.714844 L 72.472656 4.714844 C 72.632812 4.714844 72.757812 4.667969 72.847656 4.582031 C 72.941406 4.484375 72.992188 4.375 72.992188 4.253906 L 72.992188 3.589844 C 72.992188 3.46875 72.957031 3.375 72.894531 3.300781 C 72.839844 3.222656 72.742188 3.179688 72.605469 3.179688 L 72.410156 3.179688 C 72.113281 3.179688 71.871094 3.09375 71.6875 2.914062 C 71.503906 2.738281 71.410156 2.46875 71.410156 2.105469 L 71.410156 1.878906 C 71.410156 1.515625 71.507812 1.246094 71.699219 1.070312 C 71.894531 0.890625 72.171875 0.804688 72.53125 0.804688 L 73.4375 0.804688 L 73.4375 1.285156 L 72.472656 1.285156 C 72.320312 1.285156 72.195312 1.332031 72.097656 1.417969 M 79.992188 1.03125 C 80.175781 1.1875 80.269531 1.433594 80.269531 1.78125 L 80.269531 2.382812 C 80.269531 2.632812 80.21875 2.832031 80.125 2.976562 C 80.019531 3.113281 79.878906 3.210938 79.703125 3.265625 L 80.570312 5.195312 L 79.980469 5.195312 L 79.171875 3.375 L 78.554688 3.375 L 78.554688 5.195312 L 78 5.195312 L 78 0.804688 L 79.183594 0.804688 C 79.527344 0.804688 79.796875 0.878906 79.992188 1.03125 M 79.605469 1.382812 C 79.53125 1.308594 79.414062 1.273438 79.253906 1.273438 L 78.554688 1.273438 L 78.554688 2.902344 L 79.253906 2.902344 C 79.414062 2.902344 79.53125 2.867188 79.605469 2.792969 C 79.675781 2.722656 79.714844 2.605469 79.714844 2.445312 L 79.714844 1.722656 C 79.714844 1.566406 79.675781 1.457031 79.605469 1.382812 M 45.632812 0.660156 L 45.546875 1.625 L 46.441406 1.273438 L 46.609375 1.769531 L 45.679688 1.960938 L 46.34375 2.734375 L 45.898438 3.058594 L 45.34375 2.167969 L 44.773438 3.058594 L 44.328125 2.734375 L 45.003906 1.960938 L 44.085938 1.769531 L 44.269531 1.261719 L 45.148438 1.625 L 45.0625 0.660156 L 45.632812 0.660156 M 42.242188 0.660156 L 42.15625 1.625 L 43.050781 1.273438 L 43.21875 1.769531 L 42.289062 1.960938 L 42.953125 2.734375 L 42.503906 3.058594 L 41.949219 2.167969 L 41.382812 3.058594 L 40.9375 2.734375 L 41.613281 1.960938 L 40.695312 1.769531 L 40.875 1.261719 L 41.757812 1.625 L 41.671875 0.660156 L 42.242188 0.660156 M 47.71875 2.734375 L 48.394531 1.960938 L 47.476562 1.769531 L 47.660156 1.261719 L 48.539062 1.625 L 48.457031 0.660156 L 49.023438 0.660156 L 48.9375 1.625 L 49.832031 1.273438 L 50 1.769531 L 49.070312 1.960938 L 49.734375 2.734375 L 49.289062 3.058594 L 48.734375 2.167969 L 48.164062 3.058594 L 47.71875 2.734375 M 55.574219 0.804688 C 55.921875 0.804688 56.191406 0.878906 56.382812 1.03125 C 56.570312 1.1875 56.664062 1.433594 56.664062 1.78125 L 56.664062 2.492188 C 56.664062 2.839844 56.570312 3.09375 56.382812 3.253906 C 56.199219 3.414062 55.933594 3.496094 55.589844 3.496094 L 54.9375 3.496094 L 54.9375 5.195312 L 54.394531 5.195312 L 54.394531 0.804688 L 55.574219 0.804688 M 56 1.382812 C 55.925781 1.308594 55.808594 1.273438 55.648438 1.273438 L 54.9375 1.273438 L 54.9375 3.011719 L 55.648438 3.011719 C 55.808594 3.011719 55.925781 2.976562 56 2.902344 C 56.070312 2.832031 56.105469 2.71875 56.105469 2.566406 L 56.105469 1.722656 C 56.105469 1.566406 56.070312 1.457031 56 1.382812 M 58.074219 0.804688 L 59.738281 0.804688 L 59.738281 1.261719 L 59.183594 1.261719 L 59.183594 4.738281 L 59.738281 4.738281 L 59.738281 5.195312 L 58.074219 5.195312 L 58.074219 4.738281 L 58.640625 4.738281 L 58.640625 1.261719 L 58.074219 1.261719 L 58.074219 0.804688 M 25.285156 0.660156 L 25.199219 1.625 L 26.09375 1.273438 L 26.261719 1.769531 L 25.332031 1.960938 L 25.996094 2.734375 L 25.550781 3.058594 L 24.996094 2.167969 L 24.425781 3.058594 L 23.980469 2.734375 L 24.65625 1.960938 L 23.738281 1.769531 L 23.921875 1.261719 L 24.800781 1.625 L 24.714844 0.660156 L 25.285156 0.660156 M 22.15625 3.058594 L 21.601562 2.167969 L 21.035156 3.058594 L 20.589844 2.734375 L 21.265625 1.960938 L 20.347656 1.769531 L 20.527344 1.261719 L 21.410156 1.625 L 21.324219 0.660156 L 21.890625 0.660156 L 21.808594 1.625 L 22.699219 1.273438 L 22.871094 1.769531 L 21.941406 1.960938 L 22.605469 2.734375 L 22.15625 3.058594 M 28.675781 0.660156 L 28.589844 1.625 L 29.484375 1.273438 L 29.652344 1.769531 L 28.722656 1.960938 L 29.386719 2.734375 L 28.941406 3.058594 L 28.386719 2.167969 L 27.816406 3.058594 L 27.371094 2.734375 L 28.046875 1.960938 L 27.128906 1.769531 L 27.3125 1.261719 L 28.191406 1.625 L 28.109375 0.660156 L 28.675781 0.660156 M 30.761719 2.734375 L 31.4375 1.960938 L 30.523438 1.769531 L 30.703125 1.261719 L 31.582031 1.625 L 31.5 0.660156 L 32.066406 0.660156 L 31.980469 1.625 L 32.875 1.273438 L 33.042969 1.769531 L 32.113281 1.960938 L 32.777344 2.734375 L 32.332031 3.058594 L 31.777344 2.167969 L 31.210938 3.058594 L 30.761719 2.734375 M 35.457031 0.660156 L 35.375 1.625 L 36.265625 1.273438 L 36.433594 1.769531 L 35.507812 1.960938 L 36.167969 2.734375 L 35.722656 3.058594 L 35.167969 2.167969 L 34.601562 3.058594 L 34.152344 2.734375 L 34.832031 1.960938 L 33.914062 1.769531 L 34.09375 1.261719 L 34.976562 1.625 L 34.890625 0.660156 L 35.457031 0.660156 M 38.847656 0.660156 L 38.765625 1.625 L 39.65625 1.273438 L 39.828125 1.769531 L 38.898438 1.960938 L 39.5625 2.734375 L 39.113281 3.058594 L 38.558594 2.167969 L 37.992188 3.058594 L 37.546875 2.734375 L 38.222656 1.960938 L 37.304688 1.769531 L 37.484375 1.261719 L 38.367188 1.625 L 38.28125 0.660156 L 38.847656 0.660156 M 3.632812 2.734375 L 4.308594 1.960938 L 3.390625 1.769531 L 3.574219 1.261719 L 4.453125 1.625 L 4.367188 0.660156 L 4.9375 0.660156 L 4.851562 1.625 L 5.746094 1.273438 L 5.914062 1.769531 L 4.984375 1.960938 L 5.648438 2.734375 C 5.503906 2.847656 5.355469 2.957031 5.203125 3.058594 L 4.644531 2.167969 L 4.078125 3.058594 L 3.632812 2.734375 M 6.964844 1.261719 L 7.84375 1.625 L 7.761719 0.660156 L 8.328125 0.660156 L 8.242188 1.625 L 9.136719 1.273438 L 9.304688 1.769531 L 8.375 1.960938 L 9.039062 2.734375 L 8.59375 3.058594 L 8.039062 2.167969 L 7.46875 3.058594 L 7.023438 2.734375 L 7.699219 1.960938 L 6.78125 1.769531 L 6.964844 1.261719 M 11.71875 0.660156 L 11.632812 1.625 L 12.527344 1.273438 L 12.695312 1.769531 L 11.765625 1.960938 L 12.429688 2.734375 L 11.984375 3.058594 L 11.429688 2.167969 L 10.863281 3.058594 L 10.414062 2.734375 L 11.089844 1.960938 L 10.175781 1.769531 L 10.355469 1.261719 L 11.234375 1.625 L 11.152344 0.660156 L 11.71875 0.660156 M 14.480469 1.960938 L 13.566406 1.769531 L 13.746094 1.261719 L 14.628906 1.625 L 14.542969 0.660156 L 15.109375 0.660156 L 15.027344 1.625 L 15.917969 1.273438 L 16.085938 1.769531 L 15.160156 1.960938 L 15.820312 2.734375 L 15.375 3.058594 L 14.820312 2.167969 L 14.253906 3.058594 L 13.804688 2.734375 L 14.480469 1.960938 M 18.5 0.660156 L 18.417969 1.625 L 19.308594 1.273438 L 19.480469 1.769531 L 18.550781 1.960938 L 19.214844 2.734375 L 18.765625 3.058594 L 18.210938 2.167969 L 17.644531 3.058594 L 17.199219 2.734375 L 17.875 1.960938 L 16.957031 1.769531 L 17.136719 1.261719 L 18.019531 1.625 L 17.933594 0.660156 L 18.5 0.660156 "/>
</g>
</svg>
