<?xml version="1.0" encoding="UTF-8"?>
<svg xmlns="http://www.w3.org/2000/svg" xmlns:xlink="http://www.w3.org/1999/xlink" width="131pt" height="20pt" viewBox="0 0 131 20" version="1.1">
<g id="surface1">
<path style=" stroke:none;fill-rule:nonzero;fill:rgb(100%,100%,100%);fill-opacity:1;" d="M 104.996094 3.953125 L 102.636719 4.925781 L 101.875 3.257812 C 101.503906 2.839844 101.085938 2.609375 100.625 2.5625 L 100.488281 2.5625 C 99.933594 2.5625 99.445312 2.910156 99.03125 3.605469 C 98.566406 4.300781 98.335938 5.484375 98.335938 7.152344 L 98.335938 11.808594 C 98.335938 13.707031 98.566406 15.121094 99.03125 16.046875 C 99.445312 16.972656 99.933594 17.484375 100.488281 17.574219 L 100.625 17.574219 C 101.132812 17.574219 101.597656 17.203125 102.011719 16.464844 C 102.429688 15.769531 102.636719 14.75 102.636719 13.40625 L 102.636719 11.460938 L 100.488281 11.460938 L 100.488281 9.234375 L 105.203125 9.234375 L 105.203125 12.78125 C 105.203125 15.1875 104.785156 16.949219 103.953125 18.0625 C 103.074219 19.171875 101.851562 19.730469 100.277344 19.730469 C 98.707031 19.730469 97.527344 18.917969 96.742188 17.296875 C 95.957031 15.722656 95.5625 13.453125 95.5625 10.488281 L 95.5625 7.707031 C 95.5625 4.925781 96.070312 2.957031 97.089844 1.800781 C 98.058594 0.640625 99.144531 0.0625 100.347656 0.0625 C 101.410156 0.0625 102.40625 0.433594 103.328125 1.171875 C 104.207031 1.867188 104.761719 2.796875 104.996094 3.953125 M 114.007812 19.519531 L 112.832031 19.9375 L 111.722656 19.589844 C 111.351562 19.3125 111.167969 18.894531 111.167969 18.339844 C 111.167969 17.875 111.328125 17.503906 111.652344 17.226562 C 112.023438 16.949219 112.414062 16.8125 112.832031 16.8125 L 112.898438 16.8125 C 113.316406 16.8125 113.6875 16.925781 114.007812 17.160156 C 114.332031 17.4375 114.496094 17.832031 114.496094 18.339844 C 114.496094 18.894531 114.332031 19.289062 114.007812 19.519531 M 121.152344 19.9375 L 119.972656 19.589844 C 119.605469 19.3125 119.417969 18.894531 119.417969 18.339844 C 119.417969 17.875 119.582031 17.503906 119.902344 17.226562 C 120.273438 16.949219 120.667969 16.8125 121.082031 16.8125 L 121.152344 16.8125 C 121.570312 16.8125 121.9375 16.925781 122.261719 17.160156 C 122.585938 17.4375 122.746094 17.832031 122.746094 18.339844 C 122.746094 18.894531 122.585938 19.289062 122.261719 19.519531 L 121.152344 19.9375 M 127.671875 18.339844 C 127.671875 17.875 127.832031 17.503906 128.15625 17.226562 C 128.527344 16.949219 128.917969 16.8125 129.335938 16.8125 L 129.40625 16.8125 L 130.515625 17.160156 C 130.839844 17.4375 131 17.832031 131 18.339844 C 131 18.894531 130.839844 19.289062 130.515625 19.519531 L 129.40625 19.9375 L 128.226562 19.589844 C 127.855469 19.3125 127.671875 18.894531 127.671875 18.339844 M 83.980469 0.410156 L 88.28125 14.796875 L 87.726562 0.410156 L 90.222656 0.410156 L 90.222656 19.3125 L 88.074219 19.3125 L 83.355469 4.507812 L 83.980469 19.3125 L 81.414062 19.3125 L 81.414062 0.410156 L 83.980469 0.410156 M 75.519531 19.3125 L 73.164062 19.3125 L 73.164062 0.410156 L 75.519531 0.410156 L 75.519531 19.3125 M 69.003906 2.5625 L 66.296875 2.5625 L 66.296875 19.3125 L 63.730469 19.3125 L 63.730469 2.5625 L 60.75 2.5625 L 60.75 0.410156 L 69.003906 0.410156 L 69.003906 2.5625 M 54.855469 0.410156 L 58.945312 19.3125 L 56.242188 19.3125 L 55.617188 15.558594 L 51.871094 15.558594 L 51.316406 19.3125 L 48.753906 19.3125 L 52.84375 0.410156 L 54.855469 0.410156 M 55.269531 13.40625 L 53.882812 3.121094 L 52.289062 13.40625 L 55.269531 13.40625 M 35.019531 2.5625 L 35.019531 19.3125 L 32.457031 19.3125 L 32.457031 2.5625 L 29.472656 2.5625 L 29.472656 0.410156 L 37.726562 0.410156 L 37.726562 2.5625 L 35.019531 2.5625 M 44.246094 0.410156 L 44.246094 19.3125 L 41.886719 19.3125 L 41.886719 0.410156 L 44.246094 0.410156 M 25.171875 0.410156 L 25.171875 19.3125 L 22.816406 19.3125 L 22.816406 0.410156 L 25.171875 0.410156 M 10.820312 0.410156 L 15.117188 14.796875 L 14.5625 0.410156 L 17.058594 0.410156 L 17.058594 19.3125 L 14.910156 19.3125 L 10.195312 4.507812 L 10.820312 19.3125 L 8.253906 19.3125 L 8.253906 0.410156 L 10.820312 0.410156 M 2.359375 0.410156 L 2.359375 19.3125 L 0 19.3125 L 0 0.410156 L 2.359375 0.410156 "/>
</g>
</svg>
