<?xml version="1.0" encoding="UTF-8"?>
<svg xmlns="http://www.w3.org/2000/svg" xmlns:xlink="http://www.w3.org/1999/xlink" width="131pt" height="10pt" viewBox="0 0 131 10" version="1.1">
<g id="surface1">
<path style=" stroke:none;fill-rule:nonzero;fill:rgb(100%,100%,100%);fill-opacity:1;" d="M 3.386719 0.015625 L 3.203125 2.136719 L 5.160156 1.367188 L 5.53125 2.453125 L 3.492188 2.878906 L 4.949219 4.574219 L 3.96875 5.292969 L 2.753906 3.328125 L 1.507812 5.292969 L 0.527344 4.574219 L 2.011719 2.878906 L 0 2.453125 L 0.398438 1.339844 L 2.328125 2.136719 L 2.144531 0.015625 L 3.386719 0.015625 M 100.0625 0.015625 L 99.878906 2.136719 L 101.835938 1.367188 L 102.207031 2.453125 L 100.167969 2.878906 L 101.625 4.574219 L 100.644531 5.292969 L 99.425781 3.328125 L 98.183594 5.292969 L 97.203125 4.574219 L 98.6875 2.878906 L 96.675781 2.453125 L 97.074219 1.339844 L 99.003906 2.136719 L 98.820312 0.015625 L 100.0625 0.015625 M 92.625 0.015625 L 92.441406 2.136719 L 94.398438 1.367188 L 94.769531 2.453125 L 92.730469 2.878906 L 94.1875 4.574219 L 93.207031 5.292969 L 91.992188 3.328125 L 90.746094 5.292969 L 89.769531 4.574219 L 91.25 2.878906 L 89.238281 2.453125 L 89.636719 1.339844 L 91.566406 2.136719 L 91.382812 0.015625 L 92.625 0.015625 M 104.640625 4.574219 L 106.125 2.878906 L 104.113281 2.453125 L 104.507812 1.339844 L 106.441406 2.136719 L 106.253906 0.015625 L 107.5 0.015625 L 107.3125 2.136719 L 109.273438 1.367188 L 109.644531 2.453125 L 107.605469 2.878906 L 109.0625 4.574219 L 108.082031 5.292969 L 106.863281 3.328125 L 105.621094 5.292969 L 104.640625 4.574219 M 121.871094 0.332031 C 122.628906 0.332031 123.21875 0.5 123.644531 0.835938 C 124.046875 1.171875 124.25 1.71875 124.25 2.480469 L 124.25 4.046875 C 124.25 4.804688 124.046875 5.363281 123.644531 5.714844 C 123.238281 6.070312 122.65625 6.246094 121.894531 6.246094 L 120.46875 6.246094 L 120.46875 9.984375 L 119.277344 9.984375 L 119.277344 0.332031 L 121.871094 0.332031 M 122.796875 1.605469 C 122.636719 1.445312 122.382812 1.367188 122.027344 1.367188 L 120.46875 1.367188 L 120.46875 5.1875 L 122.027344 5.1875 C 122.382812 5.1875 122.636719 5.105469 122.796875 4.945312 C 122.953125 4.789062 123.035156 4.539062 123.035156 4.203125 L 123.035156 2.347656 C 123.035156 2.011719 122.953125 1.765625 122.796875 1.605469 M 127.347656 0.332031 L 131 0.332031 L 131 1.339844 L 129.78125 1.339844 L 129.78125 8.976562 L 131 8.976562 L 131 9.984375 L 127.347656 9.984375 L 127.347656 8.976562 L 128.589844 8.976562 L 128.589844 1.339844 L 127.347656 1.339844 L 127.347656 0.332031 M 55.445312 0.015625 L 55.257812 2.136719 L 57.214844 1.367188 L 57.585938 2.453125 L 55.550781 2.878906 L 57.003906 4.574219 L 56.027344 5.292969 L 54.808594 3.328125 L 53.5625 5.292969 L 52.585938 4.574219 L 54.066406 2.878906 L 52.054688 2.453125 L 52.453125 1.339844 L 54.386719 2.136719 L 54.199219 0.015625 L 55.445312 0.015625 M 48.589844 5.292969 L 47.371094 3.328125 L 46.128906 5.292969 L 45.148438 4.574219 L 46.628906 2.878906 L 44.621094 2.453125 L 45.015625 1.339844 L 46.949219 2.136719 L 46.761719 0.015625 L 48.007812 0.015625 L 47.820312 2.136719 L 49.78125 1.367188 L 50.152344 2.453125 L 48.113281 2.878906 L 49.566406 4.574219 L 48.589844 5.292969 M 62.878906 0.015625 L 62.695312 2.136719 L 64.652344 1.367188 L 65.023438 2.453125 L 62.984375 2.878906 L 64.441406 4.574219 L 63.460938 5.292969 L 62.246094 3.328125 L 61 5.292969 L 60.023438 4.574219 L 61.503906 2.878906 L 59.492188 2.453125 L 59.890625 1.339844 L 61.820312 2.136719 L 61.636719 0.015625 L 62.878906 0.015625 M 67.457031 4.574219 L 68.941406 2.878906 L 66.929688 2.453125 L 67.324219 1.339844 L 69.257812 2.136719 L 69.074219 0.015625 L 70.316406 0.015625 L 70.132812 2.136719 L 72.089844 1.367188 L 72.460938 2.453125 L 70.421875 2.878906 L 71.878906 4.574219 L 70.898438 5.292969 L 69.679688 3.328125 L 68.4375 5.292969 L 67.457031 4.574219 M 77.753906 0.015625 L 77.566406 2.136719 L 79.527344 1.367188 L 79.898438 2.453125 L 77.859375 2.878906 L 79.316406 4.574219 L 78.335938 5.292969 L 77.117188 3.328125 L 75.875 5.292969 L 74.894531 4.574219 L 76.378906 2.878906 L 74.367188 2.453125 L 74.761719 1.339844 L 76.695312 2.136719 L 76.507812 0.015625 L 77.753906 0.015625 M 85.191406 0.015625 L 85.003906 2.136719 L 86.960938 1.367188 L 87.332031 2.453125 L 85.296875 2.878906 L 86.75 4.574219 L 85.773438 5.292969 L 84.554688 3.328125 L 83.3125 5.292969 L 82.332031 4.574219 L 83.8125 2.878906 L 81.800781 2.453125 L 82.199219 1.339844 L 84.132812 2.136719 L 83.945312 0.015625 L 85.191406 0.015625 M 7.964844 4.574219 L 9.449219 2.878906 L 7.4375 2.453125 L 7.832031 1.339844 L 9.765625 2.136719 L 9.582031 0.015625 L 10.824219 0.015625 L 10.640625 2.136719 L 12.597656 1.367188 L 12.96875 2.453125 L 10.929688 2.878906 L 12.386719 4.574219 C 12.066406 4.824219 11.742188 5.0625 11.40625 5.292969 L 10.1875 3.328125 L 8.945312 5.292969 L 7.964844 4.574219 M 15.269531 1.339844 L 17.203125 2.136719 L 17.015625 0.015625 L 18.261719 0.015625 L 18.074219 2.136719 L 20.035156 1.367188 L 20.402344 2.453125 L 18.367188 2.878906 L 19.820312 4.574219 L 18.84375 5.292969 L 17.625 3.328125 L 16.382812 5.292969 L 15.402344 4.574219 L 16.882812 2.878906 L 14.875 2.453125 L 15.269531 1.339844 M 25.695312 0.015625 L 25.511719 2.136719 L 27.46875 1.367188 L 27.839844 2.453125 L 25.804688 2.878906 L 27.257812 4.574219 L 26.28125 5.292969 L 25.0625 3.328125 L 23.816406 5.292969 L 22.839844 4.574219 L 24.320312 2.878906 L 22.308594 2.453125 L 22.707031 1.339844 L 24.636719 2.136719 L 24.453125 0.015625 L 25.695312 0.015625 M 31.757812 2.878906 L 29.746094 2.453125 L 30.144531 1.339844 L 32.074219 2.136719 L 31.890625 0.015625 L 33.132812 0.015625 L 32.949219 2.136719 L 34.90625 1.367188 L 35.277344 2.453125 L 33.238281 2.878906 L 34.695312 4.574219 L 33.714844 5.292969 L 32.5 3.328125 L 31.253906 5.292969 L 30.277344 4.574219 L 31.757812 2.878906 M 40.570312 0.015625 L 40.386719 2.136719 L 42.34375 1.367188 L 42.714844 2.453125 L 40.675781 2.878906 L 42.132812 4.574219 L 41.152344 5.292969 L 39.933594 3.328125 L 38.691406 5.292969 L 37.710938 4.574219 L 39.195312 2.878906 L 37.183594 2.453125 L 37.578125 1.339844 L 39.511719 2.136719 L 39.328125 0.015625 L 40.570312 0.015625 "/>
</g>
</svg>
