<?xml version="1.0" encoding="UTF-8"?>
<svg xmlns="http://www.w3.org/2000/svg" xmlns:xlink="http://www.w3.org/1999/xlink" width="134pt" height="5pt" viewBox="0 0 134 5" version="1.1">
<g id="surface1">
<path style=" stroke:none;fill-rule:nonzero;fill:rgb(100%,100%,100%);fill-opacity:1;" d="M 121.644531 0.511719 L 121.570312 1.332031 L 122.324219 1.035156 L 122.46875 1.453125 L 121.683594 1.617188 L 122.246094 2.273438 L 121.867188 2.550781 L 121.398438 1.792969 L 120.917969 2.550781 L 120.542969 2.273438 L 121.113281 1.617188 L 120.339844 1.453125 L 120.492188 1.023438 L 121.234375 1.332031 L 121.164062 0.511719 L 121.644531 0.511719 M 118.78125 0.511719 L 118.707031 1.332031 L 119.460938 1.035156 L 119.605469 1.453125 L 118.820312 1.617188 L 119.382812 2.273438 L 119.003906 2.550781 L 118.535156 1.792969 L 118.054688 2.550781 L 117.679688 2.273438 L 118.25 1.617188 L 117.476562 1.453125 L 117.628906 1.023438 L 118.371094 1.332031 L 118.300781 0.511719 L 118.78125 0.511719 M 124.507812 0.511719 L 124.433594 1.332031 L 125.1875 1.035156 L 125.332031 1.453125 L 124.546875 1.617188 L 125.109375 2.273438 L 124.730469 2.550781 L 124.261719 1.792969 L 123.78125 2.550781 L 123.40625 2.273438 L 123.976562 1.617188 L 123.203125 1.453125 L 123.355469 1.023438 L 124.097656 1.332031 L 124.027344 0.511719 L 124.507812 0.511719 M 127.371094 0.511719 L 127.296875 1.332031 L 128.050781 1.035156 L 128.195312 1.453125 L 127.410156 1.617188 L 127.972656 2.273438 L 127.59375 2.550781 L 127.125 1.792969 L 126.644531 2.550781 L 126.269531 2.273438 L 126.839844 1.617188 L 126.066406 1.453125 L 126.21875 1.023438 L 126.960938 1.332031 L 126.890625 0.511719 L 127.371094 0.511719 M 129.132812 2.273438 L 129.703125 1.617188 L 128.929688 1.453125 L 129.082031 1.023438 L 129.824219 1.332031 L 129.753906 0.511719 L 130.234375 0.511719 L 130.160156 1.332031 L 130.914062 1.035156 L 131.058594 1.453125 L 130.273438 1.617188 L 130.835938 2.273438 L 130.457031 2.550781 L 129.988281 1.792969 L 129.507812 2.550781 L 129.132812 2.273438 M 133.097656 0.511719 L 133.023438 1.332031 L 133.78125 1.035156 L 133.921875 1.453125 L 133.136719 1.617188 L 133.699219 2.273438 L 133.320312 2.550781 L 132.851562 1.792969 L 132.375 2.550781 L 131.996094 2.273438 L 132.566406 1.617188 L 131.792969 1.453125 L 131.945312 1.023438 L 132.6875 1.332031 L 132.617188 0.511719 L 133.097656 0.511719 M 104.464844 0.511719 L 104.390625 1.332031 L 105.144531 1.035156 L 105.289062 1.453125 L 104.503906 1.617188 L 105.0625 2.273438 L 104.6875 2.550781 L 104.21875 1.792969 L 103.738281 2.550781 L 103.363281 2.273438 L 103.933594 1.617188 L 103.160156 1.453125 L 103.3125 1.023438 L 104.054688 1.332031 L 103.984375 0.511719 L 104.464844 0.511719 M 102.425781 1.453125 L 101.640625 1.617188 L 102.199219 2.273438 L 101.824219 2.550781 L 101.355469 1.792969 L 100.875 2.550781 L 100.5 2.273438 L 101.070312 1.617188 L 100.296875 1.453125 L 100.449219 1.023438 L 101.191406 1.332031 L 101.121094 0.511719 L 101.601562 0.511719 L 101.527344 1.332031 L 102.28125 1.035156 L 102.425781 1.453125 M 107.328125 0.511719 L 107.253906 1.332031 L 108.007812 1.035156 L 108.152344 1.453125 L 107.367188 1.617188 L 107.925781 2.273438 L 107.550781 2.550781 L 107.082031 1.792969 L 106.601562 2.550781 L 106.226562 2.273438 L 106.796875 1.617188 L 106.023438 1.453125 L 106.175781 1.023438 L 106.917969 1.332031 L 106.847656 0.511719 L 107.328125 0.511719 M 109.039062 1.023438 L 109.78125 1.332031 L 109.710938 0.511719 L 110.191406 0.511719 L 110.117188 1.332031 L 110.871094 1.035156 L 111.015625 1.453125 L 110.230469 1.617188 L 110.789062 2.273438 L 110.414062 2.550781 L 109.945312 1.792969 L 109.464844 2.550781 L 109.089844 2.273438 L 109.660156 1.617188 L 108.886719 1.453125 L 109.039062 1.023438 M 113.054688 0.511719 L 112.980469 1.332031 L 113.734375 1.035156 L 113.878906 1.453125 L 113.09375 1.617188 L 113.65625 2.273438 L 113.277344 2.550781 L 112.808594 1.792969 L 112.328125 2.550781 L 111.953125 2.273438 L 112.523438 1.617188 L 111.75 1.453125 L 111.902344 1.023438 L 112.644531 1.332031 L 112.574219 0.511719 L 113.054688 0.511719 M 114.816406 2.273438 L 115.386719 1.617188 L 114.613281 1.453125 L 114.765625 1.023438 L 115.507812 1.332031 L 115.4375 0.511719 L 115.917969 0.511719 L 115.84375 1.332031 L 116.597656 1.035156 L 116.742188 1.453125 L 115.957031 1.617188 L 116.519531 2.273438 L 116.140625 2.550781 L 115.671875 1.792969 L 115.191406 2.550781 L 114.816406 2.273438 M 90.605469 0.851562 C 90.769531 1 90.847656 1.230469 90.847656 1.535156 L 90.847656 3.464844 C 90.847656 3.761719 90.769531 3.988281 90.605469 4.140625 C 90.441406 4.289062 90.226562 4.363281 89.960938 4.363281 L 89.851562 4.363281 C 89.585938 4.363281 89.371094 4.289062 89.207031 4.140625 C 89.046875 3.988281 88.964844 3.761719 88.964844 3.464844 L 88.964844 1.535156 C 88.964844 1.230469 89.046875 1 89.207031 0.851562 C 89.371094 0.707031 89.585938 0.636719 89.851562 0.636719 L 89.960938 0.636719 C 90.226562 0.636719 90.441406 0.707031 90.605469 0.851562 M 89.535156 1.15625 C 89.453125 1.238281 89.414062 1.335938 89.414062 1.445312 L 89.414062 2.890625 L 90.402344 1.445312 C 90.402344 1.335938 90.359375 1.238281 90.277344 1.15625 C 90.203125 1.074219 90.097656 1.035156 89.960938 1.035156 L 89.851562 1.035156 C 89.714844 1.035156 89.609375 1.074219 89.535156 1.15625 M 95.679688 0.636719 C 95.949219 0.636719 96.160156 0.699219 96.3125 0.828125 C 96.46875 0.960938 96.546875 1.171875 96.546875 1.464844 L 96.546875 1.804688 C 96.546875 2.082031 96.449219 2.289062 96.261719 2.417969 C 96.375 2.480469 96.464844 2.566406 96.523438 2.675781 C 96.578125 2.785156 96.605469 2.917969 96.605469 3.074219 L 96.605469 3.523438 C 96.605469 3.816406 96.539062 4.03125 96.402344 4.160156 C 96.261719 4.296875 96.027344 4.363281 95.710938 4.363281 L 95.558594 4.363281 C 95.238281 4.363281 95.007812 4.296875 94.863281 4.160156 C 94.726562 4.03125 94.660156 3.816406 94.660156 3.523438 L 94.660156 3.074219 C 94.660156 2.917969 94.6875 2.785156 94.742188 2.675781 C 94.804688 2.566406 94.886719 2.480469 94.996094 2.417969 C 94.8125 2.289062 94.722656 2.082031 94.722656 1.804688 L 94.722656 1.464844 C 94.722656 1.171875 94.800781 0.960938 94.957031 0.828125 C 95.105469 0.699219 95.3125 0.636719 95.578125 0.636719 L 95.679688 0.636719 M 96.085938 1.414062 C 96.085938 1.285156 96.054688 1.1875 95.996094 1.128906 C 95.933594 1.066406 95.839844 1.035156 95.710938 1.035156 L 95.515625 1.035156 C 95.394531 1.042969 95.308594 1.074219 95.261719 1.136719 C 95.207031 1.199219 95.179688 1.289062 95.179688 1.414062 L 95.179688 1.855469 C 95.179688 1.96875 95.214844 2.0625 95.28125 2.132812 C 95.351562 2.199219 95.429688 2.238281 95.527344 2.242188 L 95.710938 2.242188 C 95.8125 2.242188 95.898438 2.210938 95.976562 2.140625 C 96.050781 2.074219 96.085938 1.976562 96.085938 1.855469 L 96.085938 1.414062 M 95.230469 2.746094 C 95.15625 2.8125 95.117188 2.90625 95.117188 3.023438 L 95.117188 3.574219 C 95.117188 3.707031 95.144531 3.804688 95.199219 3.871094 C 95.253906 3.933594 95.34375 3.964844 95.464844 3.964844 L 95.75 3.964844 C 95.886719 3.964844 95.988281 3.933594 96.054688 3.871094 C 96.117188 3.8125 96.148438 3.710938 96.148438 3.574219 L 96.148438 3.023438 C 96.148438 2.90625 96.109375 2.8125 96.035156 2.746094 C 95.96875 2.675781 95.875 2.644531 95.761719 2.644531 L 95.507812 2.644531 C 95.390625 2.644531 95.300781 2.675781 95.230469 2.746094 M 69.328125 0 L 69.796875 0 L 70.03125 0.277344 L 70.214844 0.625 L 70.347656 1.085938 L 70.386719 1.671875 L 70.386719 3.328125 L 70.347656 3.925781 L 70.214844 4.375 L 70.03125 4.734375 L 69.796875 5 L 69.328125 5 L 69.625 4.621094 L 69.816406 4.273438 L 69.910156 3.871094 L 69.941406 3.339844 L 69.941406 1.660156 L 69.910156 1.128906 L 69.816406 0.726562 L 69.625 0.378906 L 69.328125 0 M 74.921875 0.636719 L 75.554688 3.894531 L 76.238281 0.636719 L 76.695312 0.636719 L 75.859375 4.363281 L 75.238281 4.363281 L 74.453125 0.636719 L 74.921875 0.636719 M 83.980469 0.636719 L 84.492188 0.636719 L 84.492188 3.964844 L 85.0625 3.964844 L 85.0625 4.363281 L 83.339844 4.363281 L 83.339844 3.964844 L 84.03125 3.964844 L 84.03125 1.054688 L 83.289062 1.332031 L 83.289062 0.902344 L 83.980469 0.636719 M 77.570312 0.636719 L 79.292969 0.636719 L 79.292969 1.148438 L 78.367188 4.363281 L 77.886719 4.363281 L 78.855469 1.035156 L 77.570312 1.035156 L 77.570312 0.636719 M 81.578125 3.832031 L 81.578125 4.363281 L 81.046875 4.363281 L 81.046875 3.832031 L 81.578125 3.832031 M 93.03125 4.363281 L 92.5 4.363281 L 92.5 3.832031 L 93.03125 3.832031 L 93.03125 4.363281 M 89.960938 3.964844 C 90.097656 3.964844 90.203125 3.925781 90.277344 3.84375 C 90.359375 3.761719 90.402344 3.664062 90.402344 3.554688 L 90.402344 2.121094 L 89.414062 3.554688 C 89.414062 3.664062 89.453125 3.761719 89.535156 3.84375 C 89.609375 3.925781 89.714844 3.964844 89.851562 3.964844 L 89.960938 3.964844 M 87.304688 4.363281 L 86.773438 4.363281 L 86.773438 3.832031 L 87.304688 3.832031 L 87.304688 4.363281 M 1.382812 0.511719 L 1.3125 1.332031 L 2.066406 1.035156 L 2.207031 1.453125 L 1.421875 1.617188 L 1.984375 2.273438 L 1.605469 2.550781 L 1.136719 1.792969 L 0.660156 2.550781 L 0.28125 2.273438 L 0.851562 1.617188 L 0.078125 1.453125 L 0.230469 1.023438 L 0.976562 1.332031 L 0.902344 0.511719 L 1.382812 0.511719 M 52.730469 0.636719 C 53.019531 0.636719 53.25 0.699219 53.410156 0.828125 C 53.566406 0.960938 53.644531 1.171875 53.644531 1.464844 L 53.644531 2.070312 C 53.644531 2.363281 53.566406 2.578125 53.410156 2.714844 C 53.253906 2.851562 53.03125 2.921875 52.738281 2.921875 L 52.1875 2.921875 L 52.1875 4.363281 L 51.730469 4.363281 L 51.730469 0.636719 L 52.730469 0.636719 M 53.085938 1.128906 C 53.023438 1.066406 52.925781 1.035156 52.789062 1.035156 L 52.1875 1.035156 L 52.1875 2.511719 L 52.789062 2.511719 C 52.925781 2.511719 53.023438 2.480469 53.085938 2.417969 C 53.148438 2.355469 53.175781 2.261719 53.175781 2.132812 L 53.175781 1.414062 C 53.175781 1.285156 53.148438 1.1875 53.085938 1.128906 M 54.683594 2.5 L 56.40625 2.5 L 56.40625 2.898438 L 54.683594 2.898438 L 54.683594 2.5 M 58.515625 0.636719 C 58.824219 0.636719 59.058594 0.710938 59.21875 0.859375 C 59.390625 1.011719 59.476562 1.238281 59.476562 1.535156 L 59.476562 3.464844 C 59.476562 3.761719 59.390625 3.988281 59.21875 4.140625 C 59.058594 4.289062 58.824219 4.363281 58.515625 4.363281 L 58.304688 4.363281 C 57.996094 4.363281 57.757812 4.289062 57.589844 4.140625 C 57.425781 3.988281 57.34375 3.761719 57.34375 3.464844 L 57.34375 1.535156 C 57.34375 1.238281 57.425781 1.011719 57.589844 0.859375 C 57.757812 0.710938 57.996094 0.636719 58.304688 0.636719 L 58.515625 0.636719 M 58.253906 1.046875 C 58.117188 1.046875 58.007812 1.082031 57.925781 1.15625 C 57.851562 1.238281 57.8125 1.335938 57.8125 1.445312 L 57.8125 3.554688 C 57.8125 3.664062 57.851562 3.761719 57.925781 3.84375 C 58.007812 3.917969 58.117188 3.953125 58.253906 3.953125 L 58.566406 3.953125 C 58.703125 3.953125 58.8125 3.917969 58.894531 3.84375 C 58.96875 3.761719 59.007812 3.664062 59.007812 3.554688 L 59.007812 1.445312 C 59.007812 1.335938 58.96875 1.238281 58.894531 1.15625 C 58.8125 1.082031 58.703125 1.046875 58.566406 1.046875 L 58.253906 1.046875 M 63.96875 0.277344 L 64.203125 0 L 64.660156 0 L 64.375 0.378906 L 64.183594 0.726562 L 64.082031 1.128906 L 64.058594 1.660156 L 64.058594 3.339844 L 64.082031 3.871094 L 64.183594 4.273438 L 64.375 4.621094 L 64.660156 5 L 64.203125 5 L 63.96875 4.734375 L 63.785156 4.375 L 63.652344 3.925781 L 63.601562 3.328125 L 63.601562 1.671875 L 63.652344 1.085938 L 63.785156 0.625 L 63.96875 0.277344 M 60.953125 1.15625 C 60.871094 1.238281 60.828125 1.335938 60.828125 1.445312 L 60.828125 1.84375 C 60.828125 1.953125 60.863281 2.046875 60.933594 2.121094 C 61.007812 2.195312 61.101562 2.234375 61.21875 2.234375 L 61.371094 2.234375 C 61.613281 2.234375 61.808594 2.300781 61.949219 2.4375 C 62.09375 2.582031 62.164062 2.804688 62.164062 3.105469 L 62.164062 3.464844 C 62.164062 3.761719 62.082031 3.988281 61.921875 4.140625 C 61.757812 4.289062 61.523438 4.363281 61.21875 4.363281 L 60.464844 4.363281 L 60.464844 3.953125 L 61.269531 3.953125 C 61.402344 3.953125 61.507812 3.917969 61.585938 3.84375 C 61.664062 3.761719 61.707031 3.667969 61.707031 3.566406 L 61.707031 3.003906 C 61.707031 2.898438 61.679688 2.816406 61.625 2.757812 C 61.578125 2.6875 61.496094 2.652344 61.378906 2.652344 L 61.21875 2.652344 C 60.964844 2.652344 60.761719 2.578125 60.605469 2.429688 C 60.449219 2.277344 60.371094 2.050781 60.371094 1.742188 L 60.371094 1.546875 C 60.371094 1.238281 60.453125 1.011719 60.617188 0.859375 C 60.777344 0.710938 61.011719 0.636719 61.320312 0.636719 L 62.082031 0.636719 L 62.082031 1.046875 L 61.269531 1.046875 C 61.140625 1.046875 61.035156 1.082031 60.953125 1.15625 M 67.617188 0.828125 C 67.773438 0.960938 67.851562 1.171875 67.851562 1.464844 L 67.851562 1.976562 C 67.851562 2.1875 67.808594 2.355469 67.730469 2.480469 C 67.640625 2.59375 67.519531 2.675781 67.371094 2.726562 L 68.105469 4.363281 L 67.605469 4.363281 L 66.921875 2.816406 L 66.402344 2.816406 L 66.402344 4.363281 L 65.933594 4.363281 L 65.933594 0.636719 L 66.933594 0.636719 C 67.226562 0.636719 67.453125 0.699219 67.617188 0.828125 M 67.289062 1.128906 C 67.230469 1.066406 67.128906 1.035156 66.996094 1.035156 L 66.402344 1.035156 L 66.402344 2.417969 L 66.996094 2.417969 C 67.128906 2.417969 67.230469 2.386719 67.289062 2.324219 C 67.351562 2.265625 67.382812 2.164062 67.382812 2.027344 L 67.382812 1.414062 C 67.382812 1.285156 67.351562 1.1875 67.289062 1.128906 M 38.605469 0.511719 L 38.535156 1.332031 L 39.289062 1.035156 L 39.429688 1.453125 L 38.648438 1.617188 L 39.207031 2.273438 L 38.832031 2.550781 L 38.363281 1.792969 L 37.882812 2.550781 L 37.503906 2.273438 L 38.074219 1.617188 L 37.300781 1.453125 L 37.453125 1.023438 L 38.199219 1.332031 L 38.128906 0.511719 L 38.605469 0.511719 M 35.742188 0.511719 L 35.671875 1.332031 L 36.425781 1.035156 L 36.566406 1.453125 L 35.785156 1.617188 L 36.34375 2.273438 L 35.964844 2.550781 L 35.496094 1.792969 L 35.019531 2.550781 L 34.640625 2.273438 L 35.210938 1.617188 L 34.4375 1.453125 L 34.589844 1.023438 L 35.335938 1.332031 L 35.261719 0.511719 L 35.742188 0.511719 M 40.367188 2.273438 L 40.9375 1.617188 L 40.164062 1.453125 L 40.316406 1.023438 L 41.0625 1.332031 L 40.992188 0.511719 L 41.46875 0.511719 L 41.398438 1.332031 L 42.152344 1.035156 L 42.292969 1.453125 L 41.511719 1.617188 L 42.070312 2.273438 L 41.695312 2.550781 L 41.226562 1.792969 L 40.746094 2.550781 L 40.367188 2.273438 M 47.003906 0.636719 C 47.292969 0.636719 47.523438 0.699219 47.683594 0.828125 C 47.839844 0.960938 47.917969 1.171875 47.917969 1.464844 L 47.917969 2.070312 C 47.917969 2.363281 47.839844 2.578125 47.683594 2.714844 C 47.527344 2.851562 47.304688 2.921875 47.011719 2.921875 L 46.460938 2.921875 L 46.460938 4.363281 L 46.003906 4.363281 L 46.003906 0.636719 L 47.003906 0.636719 M 47.359375 1.128906 C 47.296875 1.066406 47.199219 1.035156 47.0625 1.035156 L 46.460938 1.035156 L 46.460938 2.511719 L 47.0625 2.511719 C 47.199219 2.511719 47.296875 2.480469 47.359375 2.417969 C 47.421875 2.355469 47.449219 2.261719 47.449219 2.132812 L 47.449219 1.414062 C 47.449219 1.285156 47.421875 1.1875 47.359375 1.128906 M 49.113281 0.636719 L 50.519531 0.636719 L 50.519531 1.023438 L 50.050781 1.023438 L 50.050781 3.976562 L 50.519531 3.976562 L 50.519531 4.363281 L 49.113281 4.363281 L 49.113281 3.976562 L 49.589844 3.976562 L 49.589844 1.023438 L 49.113281 1.023438 L 49.113281 0.636719 M 21.425781 0.511719 L 21.355469 1.332031 L 22.109375 1.035156 L 22.25 1.453125 L 21.464844 1.617188 L 22.027344 2.273438 L 21.648438 2.550781 L 21.179688 1.792969 L 20.703125 2.550781 L 20.324219 2.273438 L 20.894531 1.617188 L 20.121094 1.453125 L 20.273438 1.023438 L 21.019531 1.332031 L 20.945312 0.511719 L 21.425781 0.511719 M 18.785156 2.550781 L 18.316406 1.792969 L 17.839844 2.550781 L 17.460938 2.273438 L 18.03125 1.617188 L 17.257812 1.453125 L 17.410156 1.023438 L 18.15625 1.332031 L 18.082031 0.511719 L 18.5625 0.511719 L 18.492188 1.332031 L 19.246094 1.035156 L 19.386719 1.453125 L 18.601562 1.617188 L 19.164062 2.273438 L 18.785156 2.550781 M 24.289062 0.511719 L 24.21875 1.332031 L 24.972656 1.035156 L 25.113281 1.453125 L 24.328125 1.617188 L 24.890625 2.273438 L 24.511719 2.550781 L 24.042969 1.792969 L 23.566406 2.550781 L 23.1875 2.273438 L 23.757812 1.617188 L 22.984375 1.453125 L 23.136719 1.023438 L 23.882812 1.332031 L 23.808594 0.511719 L 24.289062 0.511719 M 26.050781 2.273438 L 26.621094 1.617188 L 25.847656 1.453125 L 26 1.023438 L 26.746094 1.332031 L 26.671875 0.511719 L 27.152344 0.511719 L 27.082031 1.332031 L 27.835938 1.035156 L 27.976562 1.453125 L 27.191406 1.617188 L 27.753906 2.273438 L 27.375 2.550781 L 26.90625 1.792969 L 26.429688 2.550781 L 26.050781 2.273438 M 30.015625 0.511719 L 29.945312 1.332031 L 30.699219 1.035156 L 30.839844 1.453125 L 30.054688 1.617188 L 30.617188 2.273438 L 30.238281 2.550781 L 29.769531 1.792969 L 29.292969 2.550781 L 28.914062 2.273438 L 29.484375 1.617188 L 28.710938 1.453125 L 28.863281 1.023438 L 29.609375 1.332031 L 29.535156 0.511719 L 30.015625 0.511719 M 32.878906 0.511719 L 32.808594 1.332031 L 33.5625 1.035156 L 33.703125 1.453125 L 32.921875 1.617188 L 33.480469 2.273438 L 33.101562 2.550781 L 32.632812 1.792969 L 32.15625 2.550781 L 31.777344 2.273438 L 32.347656 1.617188 L 31.574219 1.453125 L 31.726562 1.023438 L 32.472656 1.332031 L 32.398438 0.511719 L 32.878906 0.511719 M 3.144531 2.273438 L 3.714844 1.617188 L 2.941406 1.453125 L 3.09375 1.023438 L 3.839844 1.332031 L 3.765625 0.511719 L 4.246094 0.511719 L 4.175781 1.332031 L 4.929688 1.035156 L 5.070312 1.453125 L 4.285156 1.617188 L 4.847656 2.273438 C 4.726562 2.371094 4.597656 2.460938 4.46875 2.550781 L 4 1.792969 L 3.523438 2.550781 L 3.144531 2.273438 M 5.957031 1.023438 L 6.703125 1.332031 L 6.628906 0.511719 L 7.109375 0.511719 L 7.039062 1.332031 L 7.792969 1.035156 L 7.933594 1.453125 L 7.148438 1.617188 L 7.710938 2.273438 L 7.332031 2.550781 L 6.863281 1.792969 L 6.386719 2.550781 L 6.007812 2.273438 L 6.578125 1.617188 L 5.804688 1.453125 L 5.957031 1.023438 M 9.972656 0.511719 L 9.902344 1.332031 L 10.65625 1.035156 L 10.796875 1.453125 L 10.011719 1.617188 L 10.574219 2.273438 L 10.195312 2.550781 L 9.726562 1.792969 L 9.25 2.550781 L 8.871094 2.273438 L 9.441406 1.617188 L 8.667969 1.453125 L 8.820312 1.023438 L 9.566406 1.332031 L 9.492188 0.511719 L 9.972656 0.511719 M 12.304688 1.617188 L 11.53125 1.453125 L 11.683594 1.023438 L 12.429688 1.332031 L 12.355469 0.511719 L 12.835938 0.511719 L 12.765625 1.332031 L 13.519531 1.035156 L 13.660156 1.453125 L 12.875 1.617188 L 13.4375 2.273438 L 13.058594 2.550781 L 12.589844 1.792969 L 12.113281 2.550781 L 11.734375 2.273438 L 12.304688 1.617188 M 15.699219 0.511719 L 15.628906 1.332031 L 16.382812 1.035156 L 16.523438 1.453125 L 15.738281 1.617188 L 16.300781 2.273438 L 15.921875 2.550781 L 15.453125 1.792969 L 14.976562 2.550781 L 14.597656 2.273438 L 15.167969 1.617188 L 14.394531 1.453125 L 14.546875 1.023438 L 15.292969 1.332031 L 15.21875 0.511719 L 15.699219 0.511719 "/>
</g>
</svg>
