<?xml version="1.0" encoding="UTF-8"?>
<svg xmlns="http://www.w3.org/2000/svg" xmlns:xlink="http://www.w3.org/1999/xlink" width="137pt" height="7pt" viewBox="0 0 137 7" version="1.1">
<g id="surface1">
<path style=" stroke:none;fill-rule:nonzero;fill:rgb(100%,100%,100%);fill-opacity:1;" d="M 127.628906 1.191406 C 127.855469 1.402344 127.96875 1.722656 127.96875 2.152344 L 127.96875 4.847656 C 127.96875 5.269531 127.855469 5.585938 127.628906 5.796875 C 127.398438 6.003906 127.101562 6.109375 126.730469 6.109375 L 126.574219 6.109375 C 126.203125 6.109375 125.902344 6.003906 125.675781 5.796875 C 125.445312 5.585938 125.332031 5.269531 125.332031 4.847656 L 125.332031 2.152344 C 125.332031 1.722656 125.445312 1.402344 125.675781 1.191406 C 125.902344 0.988281 126.203125 0.890625 126.574219 0.890625 L 126.730469 0.890625 C 127.101562 0.890625 127.398438 0.988281 127.628906 1.191406 M 126.128906 1.621094 C 126.015625 1.734375 125.960938 1.871094 125.960938 2.023438 L 125.960938 4.046875 L 127.34375 2.023438 C 127.34375 1.871094 127.285156 1.734375 127.171875 1.621094 C 127.066406 1.507812 126.917969 1.449219 126.730469 1.449219 L 126.574219 1.449219 C 126.382812 1.449219 126.234375 1.507812 126.128906 1.621094 M 134.726562 0.890625 C 135.105469 0.890625 135.402344 0.980469 135.609375 1.160156 C 135.828125 1.34375 135.9375 1.640625 135.9375 2.050781 L 135.9375 2.523438 C 135.9375 2.917969 135.804688 3.203125 135.539062 3.386719 C 135.703125 3.472656 135.824219 3.589844 135.910156 3.742188 C 135.988281 3.898438 136.023438 4.082031 136.023438 4.304688 L 136.023438 4.933594 C 136.023438 5.34375 135.929688 5.640625 135.738281 5.824219 C 135.539062 6.015625 135.214844 6.109375 134.769531 6.109375 L 134.554688 6.109375 C 134.109375 6.109375 133.785156 6.015625 133.585938 5.824219 C 133.398438 5.640625 133.300781 5.34375 133.300781 4.933594 L 133.300781 4.304688 C 133.300781 4.082031 133.339844 3.898438 133.414062 3.742188 C 133.5 3.589844 133.621094 3.472656 133.773438 3.386719 C 133.515625 3.203125 133.386719 2.917969 133.386719 2.523438 L 133.386719 2.050781 C 133.386719 1.640625 133.496094 1.34375 133.714844 1.160156 C 133.925781 0.980469 134.214844 0.890625 134.585938 0.890625 L 134.726562 0.890625 M 135.296875 1.980469 C 135.296875 1.796875 135.253906 1.664062 135.167969 1.578125 C 135.082031 1.492188 134.949219 1.449219 134.769531 1.449219 L 134.5 1.449219 C 134.328125 1.457031 134.210938 1.507812 134.144531 1.59375 C 134.066406 1.679688 134.027344 1.808594 134.027344 1.980469 L 134.027344 2.597656 C 134.027344 2.757812 134.078125 2.886719 134.171875 2.984375 C 134.265625 3.078125 134.378906 3.132812 134.511719 3.140625 L 134.769531 3.140625 C 134.914062 3.140625 135.035156 3.09375 135.140625 2.996094 C 135.246094 2.902344 135.296875 2.769531 135.296875 2.597656 L 135.296875 1.980469 M 134.101562 3.84375 C 133.996094 3.941406 133.941406 4.070312 133.941406 4.230469 L 133.941406 5.007812 C 133.941406 5.1875 133.980469 5.328125 134.058594 5.421875 C 134.132812 5.507812 134.257812 5.550781 134.429688 5.550781 L 134.828125 5.550781 C 135.015625 5.550781 135.160156 5.507812 135.253906 5.421875 C 135.339844 5.335938 135.382812 5.199219 135.382812 5.007812 L 135.382812 4.230469 C 135.382812 4.070312 135.332031 3.941406 135.226562 3.84375 C 135.132812 3.75 135.003906 3.699219 134.839844 3.699219 L 134.484375 3.699219 C 134.324219 3.699219 134.195312 3.75 134.101562 3.84375 M 97.859375 0 L 98.515625 0 L 98.84375 0.386719 L 99.101562 0.875 L 99.285156 1.519531 L 99.34375 2.339844 L 99.34375 4.660156 L 99.285156 5.492188 L 99.101562 6.125 L 98.84375 6.628906 L 98.515625 7 L 97.859375 7 L 98.273438 6.46875 L 98.546875 5.980469 L 98.671875 5.421875 L 98.714844 4.675781 L 98.714844 2.324219 L 98.671875 1.578125 L 98.546875 1.019531 L 98.273438 0.53125 L 97.859375 0 M 105.6875 0.890625 L 106.570312 5.449219 L 107.527344 0.890625 L 108.167969 0.890625 L 107 6.109375 L 106.128906 6.109375 L 105.03125 0.890625 L 105.6875 0.890625 M 118.359375 0.890625 L 119.074219 0.890625 L 119.074219 5.550781 L 119.871094 5.550781 L 119.871094 6.109375 L 117.464844 6.109375 L 117.464844 5.550781 L 118.433594 5.550781 L 118.433594 1.476562 L 117.390625 1.863281 L 117.390625 1.261719 L 118.359375 0.890625 M 109.394531 0.890625 L 111.804688 0.890625 L 111.804688 1.605469 L 110.507812 6.109375 L 109.835938 6.109375 L 111.191406 1.449219 L 109.394531 1.449219 L 109.394531 0.890625 M 114.996094 5.363281 L 114.996094 6.109375 L 114.253906 6.109375 L 114.253906 5.363281 L 114.996094 5.363281 M 131.019531 6.109375 L 130.277344 6.109375 L 130.277344 5.363281 L 131.019531 5.363281 L 131.019531 6.109375 M 126.730469 5.550781 C 126.917969 5.550781 127.066406 5.492188 127.171875 5.378906 C 127.285156 5.265625 127.34375 5.128906 127.34375 4.976562 L 127.34375 2.96875 L 125.960938 4.976562 C 125.960938 5.128906 126.015625 5.265625 126.128906 5.378906 C 126.234375 5.492188 126.382812 5.550781 126.574219 5.550781 L 126.730469 5.550781 M 123.007812 6.109375 L 122.265625 6.109375 L 122.265625 5.363281 L 123.007812 5.363281 L 123.007812 6.109375 M 2.800781 0.71875 L 2.699219 1.863281 L 3.753906 1.449219 L 3.953125 2.035156 L 2.855469 2.265625 L 3.640625 3.183594 L 3.113281 3.570312 L 2.457031 2.511719 L 1.789062 3.570312 L 1.261719 3.183594 L 2.058594 2.265625 L 0.976562 2.035156 L 1.1875 1.433594 L 2.230469 1.863281 L 2.128906 0.71875 L 2.800781 0.71875 M 74.636719 0.890625 C 75.046875 0.890625 75.363281 0.980469 75.59375 1.160156 C 75.8125 1.34375 75.921875 1.640625 75.921875 2.050781 L 75.921875 2.898438 C 75.921875 3.308594 75.8125 3.609375 75.59375 3.800781 C 75.375 3.992188 75.058594 4.089844 74.652344 4.089844 L 73.882812 4.089844 L 73.882812 6.109375 L 73.238281 6.109375 L 73.238281 0.890625 L 74.636719 0.890625 M 75.136719 1.578125 C 75.050781 1.492188 74.914062 1.449219 74.722656 1.449219 L 73.882812 1.449219 L 73.882812 3.515625 L 74.722656 3.515625 C 74.914062 3.515625 75.050781 3.472656 75.136719 3.386719 C 75.222656 3.300781 75.265625 3.164062 75.265625 2.984375 L 75.265625 1.980469 C 75.265625 1.796875 75.222656 1.664062 75.136719 1.578125 M 77.375 3.5 L 79.785156 3.5 L 79.785156 4.058594 L 77.375 4.058594 L 77.375 3.5 M 82.734375 0.890625 C 83.164062 0.890625 83.492188 0.996094 83.71875 1.203125 C 83.957031 1.414062 84.074219 1.730469 84.074219 2.152344 L 84.074219 4.847656 C 84.074219 5.269531 83.957031 5.585938 83.71875 5.796875 C 83.492188 6.003906 83.164062 6.109375 82.734375 6.109375 L 82.433594 6.109375 C 82.007812 6.109375 81.675781 6.003906 81.4375 5.796875 C 81.210938 5.585938 81.09375 5.269531 81.09375 4.847656 L 81.09375 2.152344 C 81.09375 1.730469 81.210938 1.414062 81.4375 1.203125 C 81.675781 0.996094 82.007812 0.890625 82.433594 0.890625 L 82.734375 0.890625 M 82.363281 1.464844 C 82.175781 1.464844 82.023438 1.515625 81.90625 1.621094 C 81.804688 1.734375 81.75 1.871094 81.75 2.023438 L 81.75 4.976562 C 81.75 5.128906 81.804688 5.265625 81.90625 5.378906 C 82.023438 5.484375 82.175781 5.535156 82.363281 5.535156 L 82.804688 5.535156 C 82.996094 5.535156 83.148438 5.484375 83.261719 5.378906 C 83.367188 5.265625 83.417969 5.128906 83.417969 4.976562 L 83.417969 2.023438 C 83.417969 1.871094 83.367188 1.734375 83.261719 1.621094 C 83.148438 1.515625 82.996094 1.464844 82.804688 1.464844 L 82.363281 1.464844 M 90.363281 0.386719 L 90.691406 0 L 91.332031 0 L 90.933594 0.53125 L 90.660156 1.019531 L 90.519531 1.578125 L 90.488281 2.324219 L 90.488281 4.675781 L 90.519531 5.421875 L 90.660156 5.980469 L 90.933594 6.46875 L 91.332031 7 L 90.691406 7 L 90.363281 6.628906 L 90.105469 6.125 L 89.921875 5.492188 L 89.847656 4.660156 L 89.847656 2.339844 L 89.921875 1.519531 L 90.105469 0.875 L 90.363281 0.386719 M 86.140625 1.621094 C 86.027344 1.734375 85.972656 1.871094 85.972656 2.023438 L 85.972656 2.582031 C 85.972656 2.734375 86.019531 2.863281 86.113281 2.96875 C 86.21875 3.074219 86.351562 3.128906 86.511719 3.128906 L 86.726562 3.128906 C 87.070312 3.128906 87.339844 3.222656 87.539062 3.414062 C 87.738281 3.613281 87.839844 3.925781 87.839844 4.347656 L 87.839844 4.847656 C 87.839844 5.269531 87.722656 5.585938 87.496094 5.796875 C 87.269531 6.003906 86.941406 6.109375 86.511719 6.109375 L 85.457031 6.109375 L 85.457031 5.535156 L 86.585938 5.535156 C 86.773438 5.535156 86.921875 5.484375 87.027344 5.378906 C 87.140625 5.265625 87.195312 5.136719 87.195312 4.992188 L 87.195312 4.203125 C 87.195312 4.058594 87.160156 3.945312 87.082031 3.859375 C 87.015625 3.761719 86.902344 3.714844 86.742188 3.714844 L 86.511719 3.714844 C 86.160156 3.714844 85.875 3.609375 85.65625 3.398438 C 85.4375 3.1875 85.328125 2.867188 85.328125 2.4375 L 85.328125 2.164062 C 85.328125 1.734375 85.445312 1.414062 85.671875 1.203125 C 85.898438 0.996094 86.226562 0.890625 86.65625 0.890625 L 87.722656 0.890625 L 87.722656 1.464844 L 86.585938 1.464844 C 86.402344 1.464844 86.257812 1.515625 86.140625 1.621094 M 95.464844 1.160156 C 95.683594 1.34375 95.792969 1.640625 95.792969 2.050781 L 95.792969 2.769531 C 95.792969 3.066406 95.738281 3.300781 95.621094 3.472656 C 95.5 3.632812 95.332031 3.75 95.125 3.816406 L 96.148438 6.109375 L 95.453125 6.109375 L 94.496094 3.945312 L 93.769531 3.945312 L 93.769531 6.109375 L 93.113281 6.109375 L 93.113281 0.890625 L 94.511719 0.890625 C 94.917969 0.890625 95.238281 0.980469 95.464844 1.160156 M 95.007812 1.578125 C 94.925781 1.492188 94.785156 1.449219 94.597656 1.449219 L 93.769531 1.449219 L 93.769531 3.386719 L 94.597656 3.386719 C 94.785156 3.386719 94.925781 3.34375 95.007812 3.257812 C 95.09375 3.171875 95.136719 3.03125 95.136719 2.839844 L 95.136719 1.980469 C 95.136719 1.796875 95.09375 1.664062 95.007812 1.578125 M 54.878906 0.71875 L 54.777344 1.863281 L 55.832031 1.449219 L 56.03125 2.035156 L 54.933594 2.265625 L 55.71875 3.183594 L 55.191406 3.570312 L 54.535156 2.511719 L 53.867188 3.570312 L 53.339844 3.183594 L 54.136719 2.265625 L 53.054688 2.035156 L 53.265625 1.433594 L 54.308594 1.863281 L 54.207031 0.71875 L 54.878906 0.71875 M 50.871094 0.71875 L 50.773438 1.863281 L 51.828125 1.449219 L 52.027344 2.035156 L 50.929688 2.265625 L 51.714844 3.183594 L 51.1875 3.570312 L 50.53125 2.511719 L 49.859375 3.570312 L 49.332031 3.183594 L 50.132812 2.265625 L 49.046875 2.035156 L 49.261719 1.433594 L 50.300781 1.863281 L 50.203125 0.71875 L 50.871094 0.71875 M 57.34375 3.183594 L 58.144531 2.265625 L 57.058594 2.035156 L 57.273438 1.433594 L 58.3125 1.863281 L 58.214844 0.71875 L 58.882812 0.71875 L 58.785156 1.863281 L 59.839844 1.449219 L 60.039062 2.035156 L 58.941406 2.265625 L 59.726562 3.183594 L 59.199219 3.570312 L 58.542969 2.511719 L 57.871094 3.570312 L 57.34375 3.183594 M 66.625 0.890625 C 67.035156 0.890625 67.351562 0.980469 67.582031 1.160156 C 67.800781 1.34375 67.910156 1.640625 67.910156 2.050781 L 67.910156 2.898438 C 67.910156 3.308594 67.800781 3.609375 67.582031 3.800781 C 67.363281 3.992188 67.046875 4.089844 66.640625 4.089844 L 65.871094 4.089844 L 65.871094 6.109375 L 65.226562 6.109375 L 65.226562 0.890625 L 66.625 0.890625 M 67.125 1.578125 C 67.039062 1.492188 66.902344 1.449219 66.710938 1.449219 L 65.871094 1.449219 L 65.871094 3.515625 L 66.710938 3.515625 C 66.902344 3.515625 67.039062 3.472656 67.125 3.386719 C 67.210938 3.300781 67.253906 3.164062 67.253906 2.984375 L 67.253906 1.980469 C 67.253906 1.796875 67.210938 1.664062 67.125 1.578125 M 69.578125 0.890625 L 71.542969 0.890625 L 71.542969 1.433594 L 70.886719 1.433594 L 70.886719 5.566406 L 71.542969 5.566406 L 71.542969 6.109375 L 69.578125 6.109375 L 69.578125 5.566406 L 70.246094 5.566406 L 70.246094 1.433594 L 69.578125 1.433594 L 69.578125 0.890625 M 30.84375 0.71875 L 30.742188 1.863281 L 31.796875 1.449219 L 31.996094 2.035156 L 30.898438 2.265625 L 31.683594 3.183594 L 31.15625 3.570312 L 30.5 2.511719 L 29.828125 3.570312 L 29.300781 3.183594 L 30.101562 2.265625 L 29.015625 2.035156 L 29.230469 1.433594 L 30.273438 1.863281 L 30.171875 0.71875 L 30.84375 0.71875 M 27.148438 3.570312 L 26.492188 2.511719 L 25.824219 3.570312 L 25.296875 3.183594 L 26.09375 2.265625 L 25.011719 2.035156 L 25.226562 1.433594 L 26.265625 1.863281 L 26.167969 0.71875 L 26.835938 0.71875 L 26.738281 1.863281 L 27.792969 1.449219 L 27.992188 2.035156 L 26.894531 2.265625 L 27.675781 3.183594 L 27.148438 3.570312 M 34.847656 0.71875 L 34.75 1.863281 L 35.804688 1.449219 L 36.003906 2.035156 L 34.90625 2.265625 L 35.6875 3.183594 L 35.160156 3.570312 L 34.507812 2.511719 L 33.835938 3.570312 L 33.308594 3.183594 L 34.105469 2.265625 L 33.023438 2.035156 L 33.238281 1.433594 L 34.277344 1.863281 L 34.179688 0.71875 L 34.847656 0.71875 M 37.316406 3.183594 L 38.113281 2.265625 L 37.03125 2.035156 L 37.242188 1.433594 L 38.285156 1.863281 L 38.183594 0.71875 L 38.855469 0.71875 L 38.753906 1.863281 L 39.808594 1.449219 L 40.007812 2.035156 L 38.910156 2.265625 L 39.695312 3.183594 L 39.167969 3.570312 L 38.511719 2.511719 L 37.84375 3.570312 L 37.316406 3.183594 M 42.859375 0.71875 L 42.761719 1.863281 L 43.816406 1.449219 L 44.015625 2.035156 L 42.917969 2.265625 L 43.703125 3.183594 L 43.175781 3.570312 L 42.519531 2.511719 L 41.847656 3.570312 L 41.320312 3.183594 L 42.117188 2.265625 L 41.035156 2.035156 L 41.25 1.433594 L 42.289062 1.863281 L 42.191406 0.71875 L 42.859375 0.71875 M 46.867188 0.71875 L 46.765625 1.863281 L 47.820312 1.449219 L 48.019531 2.035156 L 46.921875 2.265625 L 47.707031 3.183594 L 47.179688 3.570312 L 46.523438 2.511719 L 45.855469 3.570312 L 45.328125 3.183594 L 46.125 2.265625 L 45.042969 2.035156 L 45.253906 1.433594 L 46.296875 1.863281 L 46.195312 0.71875 L 46.867188 0.71875 M 5.265625 3.183594 L 6.066406 2.265625 L 4.980469 2.035156 L 5.195312 1.433594 L 6.234375 1.863281 L 6.136719 0.71875 L 6.804688 0.71875 L 6.707031 1.863281 L 7.761719 1.449219 L 7.960938 2.035156 L 6.863281 2.265625 L 7.648438 3.183594 C 7.476562 3.316406 7.300781 3.449219 7.121094 3.570312 L 6.464844 2.511719 L 5.792969 3.570312 L 5.265625 3.183594 M 9.203125 1.433594 L 10.242188 1.863281 L 10.140625 0.71875 L 10.8125 0.71875 L 10.710938 1.863281 L 11.765625 1.449219 L 11.96875 2.035156 L 10.871094 2.265625 L 11.652344 3.183594 L 11.125 3.570312 L 10.46875 2.511719 L 9.800781 3.570312 L 9.273438 3.183594 L 10.070312 2.265625 L 8.988281 2.035156 L 9.203125 1.433594 M 14.816406 0.71875 L 14.71875 1.863281 L 15.773438 1.449219 L 15.972656 2.035156 L 14.875 2.265625 L 15.660156 3.183594 L 15.132812 3.570312 L 14.476562 2.511719 L 13.804688 3.570312 L 13.277344 3.183594 L 14.078125 2.265625 L 12.992188 2.035156 L 13.207031 1.433594 L 14.246094 1.863281 L 14.148438 0.71875 L 14.816406 0.71875 M 18.082031 2.265625 L 17 2.035156 L 17.214844 1.433594 L 18.253906 1.863281 L 18.152344 0.71875 L 18.824219 0.71875 L 18.722656 1.863281 L 19.78125 1.449219 L 19.980469 2.035156 L 18.882812 2.265625 L 19.664062 3.183594 L 19.136719 3.570312 L 18.480469 2.511719 L 17.8125 3.570312 L 17.285156 3.183594 L 18.082031 2.265625 M 22.832031 0.71875 L 22.730469 1.863281 L 23.785156 1.449219 L 23.984375 2.035156 L 22.886719 2.265625 L 23.671875 3.183594 L 23.144531 3.570312 L 22.488281 2.511719 L 21.816406 3.570312 L 21.289062 3.183594 L 22.089844 2.265625 L 21.003906 2.035156 L 21.21875 1.433594 L 22.261719 1.863281 L 22.160156 0.71875 L 22.832031 0.71875 "/>
</g>
</svg>
