<?xml version="1.0" encoding="UTF-8"?>
<svg xmlns="http://www.w3.org/2000/svg" xmlns:xlink="http://www.w3.org/1999/xlink" width="128pt" height="5pt" viewBox="0 0 128 5" version="1.1">
<g id="surface1">
<path style=" stroke:none;fill-rule:nonzero;fill:rgb(100%,100%,100%);fill-opacity:1;" d="M 123.261719 0.511719 L 123.191406 1.332031 L 123.949219 1.035156 L 124.09375 1.453125 L 123.304688 1.617188 L 123.867188 2.273438 L 123.488281 2.550781 L 123.015625 1.792969 L 122.535156 2.550781 L 122.15625 2.273438 L 122.730469 1.617188 L 121.949219 1.453125 L 122.105469 1.023438 L 122.851562 1.332031 L 122.78125 0.511719 L 123.261719 0.511719 M 120.382812 0.511719 L 120.3125 1.332031 L 121.070312 1.035156 L 121.214844 1.453125 L 120.425781 1.617188 L 120.988281 2.273438 L 120.609375 2.550781 L 120.136719 1.792969 L 119.65625 2.550781 L 119.277344 2.273438 L 119.851562 1.617188 L 119.070312 1.453125 L 119.226562 1.023438 L 119.972656 1.332031 L 119.902344 0.511719 L 120.382812 0.511719 M 126.140625 0.511719 L 126.070312 1.332031 L 126.828125 1.035156 L 126.972656 1.453125 L 126.183594 1.617188 L 126.746094 2.273438 L 126.367188 2.550781 L 125.894531 1.792969 L 125.414062 2.550781 L 125.035156 2.273438 L 125.609375 1.617188 L 124.828125 1.453125 L 124.984375 1.023438 L 125.730469 1.332031 L 125.660156 0.511719 L 126.140625 0.511719 M 105.988281 0.511719 L 105.914062 1.332031 L 106.675781 1.035156 L 106.816406 1.453125 L 106.027344 1.617188 L 106.59375 2.273438 L 106.214844 2.550781 L 105.742188 1.792969 L 105.261719 2.550781 L 104.882812 2.273438 L 105.453125 1.617188 L 104.675781 1.453125 L 104.828125 1.023438 L 105.578125 1.332031 L 105.507812 0.511719 L 105.988281 0.511719 M 103.9375 1.453125 L 103.148438 1.617188 L 103.714844 2.273438 L 103.335938 2.550781 L 102.863281 1.792969 L 102.382812 2.550781 L 102.003906 2.273438 L 102.574219 1.617188 L 101.796875 1.453125 L 101.949219 1.023438 L 102.699219 1.332031 L 102.628906 0.511719 L 103.109375 0.511719 L 103.035156 1.332031 L 103.796875 1.035156 L 103.9375 1.453125 M 108.867188 0.511719 L 108.796875 1.332031 L 109.554688 1.035156 L 109.695312 1.453125 L 108.90625 1.617188 L 109.472656 2.273438 L 109.09375 2.550781 L 108.621094 1.792969 L 108.140625 2.550781 L 107.761719 2.273438 L 108.335938 1.617188 L 107.554688 1.453125 L 107.710938 1.023438 L 108.457031 1.332031 L 108.386719 0.511719 L 108.867188 0.511719 M 110.589844 1.023438 L 111.335938 1.332031 L 111.265625 0.511719 L 111.746094 0.511719 L 111.675781 1.332031 L 112.433594 1.035156 L 112.574219 1.453125 L 111.785156 1.617188 L 112.351562 2.273438 L 111.972656 2.550781 L 111.5 1.792969 L 111.019531 2.550781 L 110.640625 2.273438 L 111.214844 1.617188 L 110.433594 1.453125 L 110.589844 1.023438 M 114.625 0.511719 L 114.554688 1.332031 L 115.3125 1.035156 L 115.453125 1.453125 L 114.664062 1.617188 L 115.230469 2.273438 L 114.851562 2.550781 L 114.378906 1.792969 L 113.898438 2.550781 L 113.519531 2.273438 L 114.09375 1.617188 L 113.3125 1.453125 L 113.46875 1.023438 L 114.214844 1.332031 L 114.144531 0.511719 L 114.625 0.511719 M 116.398438 2.273438 L 116.972656 1.617188 L 116.191406 1.453125 L 116.347656 1.023438 L 117.09375 1.332031 L 117.023438 0.511719 L 117.503906 0.511719 L 117.433594 1.332031 L 118.191406 1.035156 L 118.335938 1.453125 L 117.546875 1.617188 L 118.109375 2.273438 L 117.730469 2.550781 L 117.257812 1.792969 L 116.777344 2.550781 L 116.398438 2.273438 M 92.054688 0.851562 C 92.21875 1 92.300781 1.230469 92.300781 1.535156 L 92.300781 3.464844 C 92.300781 3.761719 92.21875 3.988281 92.054688 4.140625 C 91.890625 4.289062 91.675781 4.363281 91.40625 4.363281 L 91.296875 4.363281 C 91.027344 4.363281 90.8125 4.289062 90.648438 4.140625 C 90.484375 3.988281 90.402344 3.761719 90.402344 3.464844 L 90.402344 1.535156 C 90.402344 1.230469 90.484375 1 90.648438 0.851562 C 90.8125 0.707031 91.027344 0.636719 91.296875 0.636719 L 91.40625 0.636719 C 91.675781 0.636719 91.890625 0.707031 92.054688 0.851562 M 90.976562 1.15625 C 90.894531 1.238281 90.855469 1.335938 90.855469 1.445312 L 90.855469 2.890625 L 91.847656 1.445312 C 91.847656 1.335938 91.808594 1.238281 91.726562 1.15625 C 91.648438 1.074219 91.542969 1.035156 91.40625 1.035156 L 91.296875 1.035156 C 91.160156 1.035156 91.050781 1.074219 90.976562 1.15625 M 97.15625 0.636719 C 97.429688 0.636719 97.640625 0.699219 97.789062 0.828125 C 97.949219 0.960938 98.027344 1.171875 98.027344 1.464844 L 98.027344 1.804688 C 98.027344 2.082031 97.929688 2.289062 97.738281 2.417969 C 97.855469 2.480469 97.945312 2.566406 98.007812 2.675781 C 98.0625 2.785156 98.089844 2.917969 98.089844 3.074219 L 98.089844 3.523438 C 98.089844 3.816406 98.019531 4.03125 97.882812 4.160156 C 97.738281 4.296875 97.507812 4.363281 97.1875 4.363281 L 97.03125 4.363281 C 96.710938 4.363281 96.480469 4.296875 96.335938 4.160156 C 96.199219 4.03125 96.132812 3.816406 96.132812 3.523438 L 96.132812 3.074219 C 96.132812 2.917969 96.160156 2.785156 96.214844 2.675781 C 96.273438 2.566406 96.359375 2.480469 96.46875 2.417969 C 96.285156 2.289062 96.191406 2.082031 96.191406 1.804688 L 96.191406 1.464844 C 96.191406 1.171875 96.269531 0.960938 96.429688 0.828125 C 96.578125 0.699219 96.785156 0.636719 97.054688 0.636719 L 97.15625 0.636719 M 97.566406 1.414062 C 97.566406 1.285156 97.535156 1.1875 97.472656 1.128906 C 97.410156 1.066406 97.316406 1.035156 97.1875 1.035156 L 96.992188 1.035156 C 96.867188 1.042969 96.785156 1.074219 96.734375 1.136719 C 96.679688 1.199219 96.652344 1.289062 96.652344 1.414062 L 96.652344 1.855469 C 96.652344 1.96875 96.6875 2.0625 96.757812 2.132812 C 96.824219 2.199219 96.90625 2.238281 97.003906 2.242188 L 97.1875 2.242188 C 97.289062 2.242188 97.378906 2.210938 97.453125 2.140625 C 97.527344 2.074219 97.566406 1.976562 97.566406 1.855469 L 97.566406 1.414062 M 96.703125 2.746094 C 96.628906 2.8125 96.59375 2.90625 96.59375 3.023438 L 96.59375 3.574219 C 96.59375 3.707031 96.621094 3.804688 96.675781 3.871094 C 96.730469 3.933594 96.816406 3.964844 96.941406 3.964844 L 97.226562 3.964844 C 97.363281 3.964844 97.464844 3.933594 97.535156 3.871094 C 97.597656 3.8125 97.628906 3.710938 97.628906 3.574219 L 97.628906 3.023438 C 97.628906 2.90625 97.589844 2.8125 97.515625 2.746094 C 97.445312 2.675781 97.355469 2.644531 97.238281 2.644531 L 96.980469 2.644531 C 96.867188 2.644531 96.773438 2.675781 96.703125 2.746094 M 70.660156 0 L 71.132812 0 L 71.367188 0.277344 L 71.550781 0.625 L 71.683594 1.085938 L 71.726562 1.671875 L 71.726562 3.328125 L 71.683594 3.925781 L 71.550781 4.375 L 71.367188 4.734375 L 71.132812 5 L 70.660156 5 L 70.957031 4.621094 L 71.152344 4.273438 L 71.242188 3.871094 L 71.273438 3.339844 L 71.273438 1.660156 L 71.242188 1.128906 L 71.152344 0.726562 L 70.957031 0.378906 L 70.660156 0 M 76.285156 0.636719 L 76.921875 3.894531 L 77.605469 0.636719 L 78.066406 0.636719 L 77.226562 4.363281 L 76.601562 4.363281 L 75.8125 0.636719 L 76.285156 0.636719 M 85.394531 0.636719 L 85.90625 0.636719 L 85.90625 3.964844 L 86.480469 3.964844 L 86.480469 4.363281 L 84.746094 4.363281 L 84.746094 3.964844 L 85.445312 3.964844 L 85.445312 1.054688 L 84.695312 1.332031 L 84.695312 0.902344 L 85.394531 0.636719 M 78.949219 0.636719 L 80.679688 0.636719 L 80.679688 1.148438 L 79.746094 4.363281 L 79.265625 4.363281 L 80.238281 1.035156 L 78.949219 1.035156 L 78.949219 0.636719 M 82.976562 3.832031 L 82.976562 4.363281 L 82.441406 4.363281 L 82.441406 3.832031 L 82.976562 3.832031 M 94.492188 4.363281 L 93.960938 4.363281 L 93.960938 3.832031 L 94.492188 3.832031 L 94.492188 4.363281 M 91.40625 3.964844 C 91.542969 3.964844 91.648438 3.925781 91.726562 3.84375 C 91.808594 3.761719 91.847656 3.664062 91.847656 3.554688 L 91.847656 2.121094 L 90.855469 3.554688 C 90.855469 3.664062 90.894531 3.761719 90.976562 3.84375 C 91.050781 3.925781 91.160156 3.964844 91.296875 3.964844 L 91.40625 3.964844 M 88.734375 4.363281 L 88.199219 4.363281 L 88.199219 3.832031 L 88.734375 3.832031 L 88.734375 4.363281 M 2.339844 0.511719 L 2.269531 1.332031 L 3.027344 1.035156 L 3.171875 1.453125 L 2.382812 1.617188 L 2.945312 2.273438 L 2.566406 2.550781 L 2.09375 1.792969 L 1.613281 2.550781 L 1.234375 2.273438 L 1.808594 1.617188 L 1.027344 1.453125 L 1.183594 1.023438 L 1.929688 1.332031 L 1.859375 0.511719 L 2.339844 0.511719 M 53.96875 0.636719 C 54.261719 0.636719 54.492188 0.699219 54.65625 0.828125 C 54.8125 0.960938 54.890625 1.171875 54.890625 1.464844 L 54.890625 2.070312 C 54.890625 2.363281 54.8125 2.578125 54.65625 2.714844 C 54.5 2.851562 54.273438 2.921875 53.980469 2.921875 L 53.425781 2.921875 L 53.425781 4.363281 L 52.964844 4.363281 L 52.964844 0.636719 L 53.96875 0.636719 M 54.328125 1.128906 C 54.265625 1.066406 54.167969 1.035156 54.03125 1.035156 L 53.425781 1.035156 L 53.425781 2.511719 L 54.03125 2.511719 C 54.167969 2.511719 54.265625 2.480469 54.328125 2.417969 C 54.390625 2.355469 54.421875 2.261719 54.421875 2.132812 L 54.421875 1.414062 C 54.421875 1.285156 54.390625 1.1875 54.328125 1.128906 M 55.9375 2.5 L 57.667969 2.5 L 57.667969 2.898438 L 55.9375 2.898438 L 55.9375 2.5 M 59.789062 0.636719 C 60.097656 0.636719 60.332031 0.710938 60.496094 0.859375 C 60.667969 1.011719 60.753906 1.238281 60.753906 1.535156 L 60.753906 3.464844 C 60.753906 3.761719 60.667969 3.988281 60.496094 4.140625 C 60.332031 4.289062 60.097656 4.363281 59.789062 4.363281 L 59.574219 4.363281 C 59.265625 4.363281 59.027344 4.289062 58.855469 4.140625 C 58.691406 3.988281 58.609375 3.761719 58.609375 3.464844 L 58.609375 1.535156 C 58.609375 1.238281 58.691406 1.011719 58.855469 0.859375 C 59.027344 0.710938 59.265625 0.636719 59.574219 0.636719 L 59.789062 0.636719 M 59.523438 1.046875 C 59.386719 1.046875 59.277344 1.082031 59.195312 1.15625 C 59.121094 1.238281 59.082031 1.335938 59.082031 1.445312 L 59.082031 3.554688 C 59.082031 3.664062 59.121094 3.761719 59.195312 3.84375 C 59.277344 3.917969 59.386719 3.953125 59.523438 3.953125 L 59.839844 3.953125 C 59.976562 3.953125 60.085938 3.917969 60.167969 3.84375 C 60.242188 3.761719 60.28125 3.664062 60.28125 3.554688 L 60.28125 1.445312 C 60.28125 1.335938 60.242188 1.238281 60.167969 1.15625 C 60.085938 1.082031 59.976562 1.046875 59.839844 1.046875 L 59.523438 1.046875 M 65.269531 0.277344 L 65.507812 0 L 65.96875 0 L 65.679688 0.378906 L 65.484375 0.726562 L 65.382812 1.128906 L 65.363281 1.660156 L 65.363281 3.339844 L 65.382812 3.871094 L 65.484375 4.273438 L 65.679688 4.621094 L 65.96875 5 L 65.507812 5 L 65.269531 4.734375 L 65.085938 4.375 L 64.953125 3.925781 L 64.902344 3.328125 L 64.902344 1.671875 L 64.953125 1.085938 L 65.085938 0.625 L 65.269531 0.277344 M 62.238281 1.15625 C 62.15625 1.238281 62.113281 1.335938 62.113281 1.445312 L 62.113281 1.84375 C 62.113281 1.953125 62.148438 2.046875 62.21875 2.121094 C 62.292969 2.195312 62.386719 2.234375 62.503906 2.234375 L 62.65625 2.234375 C 62.902344 2.234375 63.097656 2.300781 63.242188 2.4375 C 63.386719 2.582031 63.457031 2.804688 63.457031 3.105469 L 63.457031 3.464844 C 63.457031 3.761719 63.375 3.988281 63.210938 4.140625 C 63.046875 4.289062 62.8125 4.363281 62.503906 4.363281 L 61.746094 4.363281 L 61.746094 3.953125 L 62.554688 3.953125 C 62.691406 3.953125 62.796875 3.917969 62.871094 3.84375 C 62.953125 3.761719 62.996094 3.667969 62.996094 3.566406 L 62.996094 3.003906 C 62.996094 2.898438 62.96875 2.816406 62.914062 2.757812 C 62.867188 2.6875 62.785156 2.652344 62.667969 2.652344 L 62.503906 2.652344 C 62.25 2.652344 62.046875 2.578125 61.890625 2.429688 C 61.730469 2.277344 61.652344 2.050781 61.652344 1.742188 L 61.652344 1.546875 C 61.652344 1.238281 61.734375 1.011719 61.898438 0.859375 C 62.0625 0.710938 62.300781 0.636719 62.605469 0.636719 L 63.375 0.636719 L 63.375 1.046875 L 62.554688 1.046875 C 62.425781 1.046875 62.320312 1.082031 62.238281 1.15625 M 68.9375 0.828125 C 69.09375 0.960938 69.175781 1.171875 69.175781 1.464844 L 69.175781 1.976562 C 69.175781 2.1875 69.132812 2.355469 69.050781 2.480469 C 68.960938 2.59375 68.84375 2.675781 68.691406 2.726562 L 69.429688 4.363281 L 68.929688 4.363281 L 68.242188 2.816406 L 67.71875 2.816406 L 67.71875 4.363281 L 67.246094 4.363281 L 67.246094 0.636719 L 68.253906 0.636719 C 68.546875 0.636719 68.773438 0.699219 68.9375 0.828125 M 68.609375 1.128906 C 68.550781 1.066406 68.449219 1.035156 68.3125 1.035156 L 67.71875 1.035156 L 67.71875 2.417969 L 68.3125 2.417969 C 68.449219 2.417969 68.550781 2.386719 68.609375 2.324219 C 68.671875 2.265625 68.703125 2.164062 68.703125 2.027344 L 68.703125 1.414062 C 68.703125 1.285156 68.671875 1.1875 68.609375 1.128906 M 39.769531 0.511719 L 39.695312 1.332031 L 40.453125 1.035156 L 40.597656 1.453125 L 39.808594 1.617188 L 40.371094 2.273438 L 39.992188 2.550781 L 39.523438 1.792969 L 39.039062 2.550781 L 38.660156 2.273438 L 39.234375 1.617188 L 38.457031 1.453125 L 38.609375 1.023438 L 39.359375 1.332031 L 39.285156 0.511719 L 39.769531 0.511719 M 36.890625 0.511719 L 36.816406 1.332031 L 37.574219 1.035156 L 37.71875 1.453125 L 36.929688 1.617188 L 37.492188 2.273438 L 37.113281 2.550781 L 36.644531 1.792969 L 36.160156 2.550781 L 35.78125 2.273438 L 36.355469 1.617188 L 35.578125 1.453125 L 35.730469 1.023438 L 36.480469 1.332031 L 36.40625 0.511719 L 36.890625 0.511719 M 41.539062 2.273438 L 42.113281 1.617188 L 41.335938 1.453125 L 41.488281 1.023438 L 42.238281 1.332031 L 42.164062 0.511719 L 42.648438 0.511719 L 42.574219 1.332031 L 43.335938 1.035156 L 43.476562 1.453125 L 42.6875 1.617188 L 43.253906 2.273438 L 42.871094 2.550781 L 42.402344 1.792969 L 41.921875 2.550781 L 41.539062 2.273438 M 48.210938 0.636719 C 48.503906 0.636719 48.734375 0.699219 48.898438 0.828125 C 49.054688 0.960938 49.132812 1.171875 49.132812 1.464844 L 49.132812 2.070312 C 49.132812 2.363281 49.054688 2.578125 48.898438 2.714844 C 48.742188 2.851562 48.515625 2.921875 48.222656 2.921875 L 47.667969 2.921875 L 47.667969 4.363281 L 47.207031 4.363281 L 47.207031 0.636719 L 48.210938 0.636719 M 48.570312 1.128906 C 48.507812 1.066406 48.410156 1.035156 48.273438 1.035156 L 47.667969 1.035156 L 47.667969 2.511719 L 48.273438 2.511719 C 48.410156 2.511719 48.507812 2.480469 48.570312 2.417969 C 48.632812 2.355469 48.660156 2.261719 48.660156 2.132812 L 48.660156 1.414062 C 48.660156 1.285156 48.632812 1.1875 48.570312 1.128906 M 50.332031 0.636719 L 51.746094 0.636719 L 51.746094 1.023438 L 51.273438 1.023438 L 51.273438 3.976562 L 51.746094 3.976562 L 51.746094 4.363281 L 50.332031 4.363281 L 50.332031 3.976562 L 50.8125 3.976562 L 50.8125 1.023438 L 50.332031 1.023438 L 50.332031 0.636719 M 22.492188 0.511719 L 22.421875 1.332031 L 23.179688 1.035156 L 23.324219 1.453125 L 22.535156 1.617188 L 23.097656 2.273438 L 22.71875 2.550781 L 22.246094 1.792969 L 21.765625 2.550781 L 21.386719 2.273438 L 21.960938 1.617188 L 21.183594 1.453125 L 21.335938 1.023438 L 22.085938 1.332031 L 22.011719 0.511719 L 22.492188 0.511719 M 19.839844 2.550781 L 19.367188 1.792969 L 18.886719 2.550781 L 18.507812 2.273438 L 19.082031 1.617188 L 18.304688 1.453125 L 18.457031 1.023438 L 19.203125 1.332031 L 19.132812 0.511719 L 19.613281 0.511719 L 19.542969 1.332031 L 20.300781 1.035156 L 20.445312 1.453125 L 19.65625 1.617188 L 20.21875 2.273438 L 19.839844 2.550781 M 25.371094 0.511719 L 25.300781 1.332031 L 26.058594 1.035156 L 26.203125 1.453125 L 25.414062 1.617188 L 25.976562 2.273438 L 25.597656 2.550781 L 25.128906 1.792969 L 24.644531 2.550781 L 24.265625 2.273438 L 24.839844 1.617188 L 24.0625 1.453125 L 24.214844 1.023438 L 24.964844 1.332031 L 24.890625 0.511719 L 25.371094 0.511719 M 27.144531 2.273438 L 27.71875 1.617188 L 26.941406 1.453125 L 27.09375 1.023438 L 27.84375 1.332031 L 27.769531 0.511719 L 28.253906 0.511719 L 28.179688 1.332031 L 28.9375 1.035156 L 29.082031 1.453125 L 28.292969 1.617188 L 28.855469 2.273438 L 28.476562 2.550781 L 28.007812 1.792969 L 27.523438 2.550781 L 27.144531 2.273438 M 31.132812 0.511719 L 31.058594 1.332031 L 31.816406 1.035156 L 31.960938 1.453125 L 31.171875 1.617188 L 31.734375 2.273438 L 31.355469 2.550781 L 30.886719 1.792969 L 30.402344 2.550781 L 30.023438 2.273438 L 30.597656 1.617188 L 29.820312 1.453125 L 29.972656 1.023438 L 30.722656 1.332031 L 30.648438 0.511719 L 31.132812 0.511719 M 34.011719 0.511719 L 33.9375 1.332031 L 34.695312 1.035156 L 34.839844 1.453125 L 34.050781 1.617188 L 34.613281 2.273438 L 34.234375 2.550781 L 33.765625 1.792969 L 33.28125 2.550781 L 32.902344 2.273438 L 33.476562 1.617188 L 32.699219 1.453125 L 32.851562 1.023438 L 33.601562 1.332031 L 33.527344 0.511719 L 34.011719 0.511719 M 4.113281 2.273438 L 4.6875 1.617188 L 3.90625 1.453125 L 4.0625 1.023438 L 4.808594 1.332031 L 4.738281 0.511719 L 5.21875 0.511719 L 5.148438 1.332031 L 5.90625 1.035156 L 6.050781 1.453125 L 5.261719 1.617188 L 5.824219 2.273438 C 5.699219 2.371094 5.574219 2.460938 5.445312 2.550781 L 4.972656 1.792969 L 4.492188 2.550781 L 4.113281 2.273438 M 6.941406 1.023438 L 7.6875 1.332031 L 7.617188 0.511719 L 8.097656 0.511719 L 8.027344 1.332031 L 8.785156 1.035156 L 8.929688 1.453125 L 8.140625 1.617188 L 8.703125 2.273438 L 8.324219 2.550781 L 7.851562 1.792969 L 7.371094 2.550781 L 6.992188 2.273438 L 7.566406 1.617188 L 6.785156 1.453125 L 6.941406 1.023438 M 10.976562 0.511719 L 10.90625 1.332031 L 11.664062 1.035156 L 11.808594 1.453125 L 11.019531 1.617188 L 11.582031 2.273438 L 11.203125 2.550781 L 10.730469 1.792969 L 10.25 2.550781 L 9.871094 2.273438 L 10.445312 1.617188 L 9.664062 1.453125 L 9.820312 1.023438 L 10.566406 1.332031 L 10.496094 0.511719 L 10.976562 0.511719 M 13.324219 1.617188 L 12.546875 1.453125 L 12.699219 1.023438 L 13.445312 1.332031 L 13.375 0.511719 L 13.855469 0.511719 L 13.785156 1.332031 L 14.542969 1.035156 L 14.6875 1.453125 L 13.898438 1.617188 L 14.460938 2.273438 L 14.082031 2.550781 L 13.609375 1.792969 L 13.128906 2.550781 L 12.75 2.273438 L 13.324219 1.617188 M 16.734375 0.511719 L 16.664062 1.332031 L 17.421875 1.035156 L 17.566406 1.453125 L 16.777344 1.617188 L 17.339844 2.273438 L 16.960938 2.550781 L 16.488281 1.792969 L 16.007812 2.550781 L 15.628906 2.273438 L 16.203125 1.617188 L 15.425781 1.453125 L 15.578125 1.023438 L 16.324219 1.332031 L 16.253906 0.511719 L 16.734375 0.511719 "/>
</g>
</svg>
