<?xml version="1.0" encoding="UTF-8"?>
<svg xmlns="http://www.w3.org/2000/svg" xmlns:xlink="http://www.w3.org/1999/xlink" width="127pt" height="36pt" viewBox="0 0 127 36" version="1.1">
<g id="surface1">
<path style=" stroke:none;fill-rule:nonzero;fill:rgb(100%,100%,100%);fill-opacity:1;" d="M 108.375 0.453125 L 108.3125 1.183594 L 108.984375 0.917969 L 109.113281 1.289062 L 108.414062 1.4375 L 108.914062 2.019531 L 108.578125 2.261719 L 108.160156 1.589844 L 107.730469 2.261719 L 107.394531 2.019531 L 107.90625 1.4375 L 107.214844 1.289062 L 107.351562 0.910156 L 108.011719 1.183594 L 107.949219 0.453125 L 108.375 0.453125 M 105.824219 0.453125 L 105.761719 1.183594 L 106.433594 0.917969 L 106.558594 1.289062 L 105.859375 1.4375 L 106.359375 2.019531 L 106.023438 2.261719 L 105.605469 1.589844 L 105.179688 2.261719 L 104.84375 2.019531 L 105.351562 1.4375 L 104.660156 1.289062 L 104.796875 0.910156 L 105.460938 1.183594 L 105.398438 0.453125 L 105.824219 0.453125 M 110.929688 0.453125 L 110.867188 1.183594 L 111.539062 0.917969 L 111.664062 1.289062 L 110.964844 1.4375 L 111.464844 2.019531 L 111.128906 2.261719 L 110.710938 1.589844 L 110.285156 2.261719 L 109.949219 2.019531 L 110.457031 1.4375 L 109.765625 1.289062 L 109.902344 0.910156 L 110.566406 1.183594 L 110.503906 0.453125 L 110.929688 0.453125 M 113.480469 0.453125 L 113.417969 1.183594 L 114.089844 0.917969 L 114.21875 1.289062 L 113.515625 1.4375 L 114.015625 2.019531 L 113.679688 2.261719 L 113.261719 1.589844 L 112.835938 2.261719 L 112.5 2.019531 L 113.007812 1.4375 L 112.320312 1.289062 L 112.453125 0.910156 L 113.117188 1.183594 L 113.054688 0.453125 L 113.480469 0.453125 M 115.050781 2.019531 L 115.5625 1.4375 L 114.871094 1.289062 L 115.007812 0.910156 L 115.671875 1.183594 L 115.605469 0.453125 L 116.035156 0.453125 L 115.96875 1.183594 L 116.640625 0.917969 L 116.769531 1.289062 L 116.070312 1.4375 L 116.570312 2.019531 L 116.234375 2.261719 L 115.816406 1.589844 L 115.386719 2.261719 L 115.050781 2.019531 M 118.585938 0.453125 L 118.523438 1.183594 L 119.195312 0.917969 L 119.320312 1.289062 L 118.621094 1.4375 L 119.121094 2.019531 L 118.785156 2.261719 L 118.367188 1.589844 L 117.941406 2.261719 L 117.605469 2.019531 L 118.113281 1.4375 L 117.421875 1.289062 L 117.558594 0.910156 L 118.222656 1.183594 L 118.160156 0.453125 L 118.585938 0.453125 M 93.0625 0.453125 L 93 1.183594 L 93.671875 0.917969 L 93.800781 1.289062 L 93.101562 1.4375 L 93.597656 2.019531 L 93.261719 2.261719 L 92.84375 1.589844 L 92.417969 2.261719 L 92.082031 2.019531 L 92.589844 1.4375 L 91.902344 1.289062 L 92.039062 0.910156 L 92.699219 1.183594 L 92.636719 0.453125 L 93.0625 0.453125 M 91.246094 1.289062 L 90.546875 1.4375 L 91.046875 2.019531 L 90.710938 2.261719 L 90.292969 1.589844 L 89.867188 2.261719 L 89.53125 2.019531 L 90.039062 1.4375 L 89.347656 1.289062 L 89.484375 0.910156 L 90.148438 1.183594 L 90.085938 0.453125 L 90.511719 0.453125 L 90.449219 1.183594 L 91.121094 0.917969 L 91.246094 1.289062 M 95.617188 0.453125 L 95.550781 1.183594 L 96.222656 0.917969 L 96.351562 1.289062 L 95.652344 1.4375 L 96.152344 2.019531 L 95.816406 2.261719 L 95.398438 1.589844 L 94.972656 2.261719 L 94.636719 2.019531 L 95.144531 1.4375 L 94.453125 1.289062 L 94.589844 0.910156 L 95.253906 1.183594 L 95.1875 0.453125 L 95.617188 0.453125 M 97.140625 0.910156 L 97.804688 1.183594 L 97.742188 0.453125 L 98.167969 0.453125 L 98.105469 1.183594 L 98.777344 0.917969 L 98.902344 1.289062 L 98.203125 1.4375 L 98.703125 2.019531 L 98.367188 2.261719 L 97.949219 1.589844 L 97.523438 2.261719 L 97.1875 2.019531 L 97.695312 1.4375 L 97.003906 1.289062 L 97.140625 0.910156 M 100.71875 0.453125 L 100.65625 1.183594 L 101.328125 0.917969 L 101.457031 1.289062 L 100.757812 1.4375 L 101.257812 2.019531 L 100.921875 2.261719 L 100.503906 1.589844 L 100.074219 2.261719 L 99.738281 2.019531 L 100.246094 1.4375 L 99.558594 1.289062 L 99.695312 0.910156 L 100.355469 1.183594 L 100.292969 0.453125 L 100.71875 0.453125 M 102.292969 2.019531 L 102.800781 1.4375 L 102.109375 1.289062 L 102.246094 0.910156 L 102.910156 1.183594 L 102.84375 0.453125 L 103.273438 0.453125 L 103.207031 1.183594 L 103.882812 0.917969 L 104.007812 1.289062 L 103.308594 1.4375 L 103.808594 2.019531 L 103.472656 2.261719 L 103.054688 1.589844 L 102.628906 2.261719 L 102.292969 2.019531 M 80.039062 0.5625 L 80.140625 0.5625 C 80.375 0.5625 80.566406 0.628906 80.710938 0.753906 C 80.855469 0.886719 80.929688 1.089844 80.929688 1.363281 L 80.929688 3.074219 C 80.929688 3.339844 80.855469 3.539062 80.710938 3.671875 C 80.566406 3.804688 80.375 3.871094 80.140625 3.871094 L 80.039062 3.871094 C 79.804688 3.871094 79.613281 3.804688 79.46875 3.671875 C 79.320312 3.539062 79.25 3.339844 79.25 3.074219 L 79.25 1.363281 C 79.25 1.089844 79.320312 0.886719 79.46875 0.753906 C 79.613281 0.628906 79.804688 0.5625 80.039062 0.5625 M 79.757812 1.027344 C 79.683594 1.101562 79.648438 1.183594 79.648438 1.28125 L 79.648438 2.5625 L 80.53125 1.28125 C 80.53125 1.183594 80.492188 1.101562 80.421875 1.027344 C 80.355469 0.953125 80.261719 0.917969 80.140625 0.917969 L 80.039062 0.917969 C 79.917969 0.917969 79.824219 0.953125 79.757812 1.027344 M 85.234375 0.5625 C 85.476562 0.5625 85.664062 0.621094 85.796875 0.738281 C 85.9375 0.851562 86.007812 1.039062 86.007812 1.300781 L 86.007812 1.601562 C 86.007812 1.847656 85.921875 2.03125 85.753906 2.144531 C 85.855469 2.199219 85.933594 2.277344 85.988281 2.371094 C 86.035156 2.46875 86.0625 2.585938 86.0625 2.726562 L 86.0625 3.128906 C 86.0625 3.386719 86 3.574219 85.878906 3.691406 C 85.753906 3.8125 85.546875 3.871094 85.261719 3.871094 L 85.125 3.871094 C 84.839844 3.871094 84.636719 3.8125 84.507812 3.691406 C 84.386719 3.574219 84.328125 3.386719 84.328125 3.128906 L 84.328125 2.726562 C 84.328125 2.585938 84.351562 2.46875 84.398438 2.371094 C 84.453125 2.277344 84.527344 2.199219 84.625 2.144531 C 84.460938 2.03125 84.378906 1.847656 84.378906 1.601562 L 84.378906 1.300781 C 84.378906 1.039062 84.449219 0.851562 84.589844 0.738281 C 84.722656 0.621094 84.90625 0.5625 85.144531 0.5625 L 85.234375 0.5625 M 85.597656 1.253906 C 85.597656 1.140625 85.570312 1.054688 85.515625 1 C 85.460938 0.945312 85.375 0.917969 85.261719 0.917969 L 85.089844 0.917969 C 84.980469 0.925781 84.90625 0.953125 84.863281 1.007812 C 84.8125 1.0625 84.789062 1.144531 84.789062 1.253906 L 84.789062 1.644531 C 84.789062 1.75 84.820312 1.832031 84.878906 1.890625 C 84.941406 1.953125 85.011719 1.984375 85.097656 1.992188 L 85.261719 1.992188 C 85.351562 1.992188 85.429688 1.960938 85.496094 1.898438 C 85.566406 1.839844 85.597656 1.753906 85.597656 1.644531 L 85.597656 1.253906 M 84.835938 2.4375 C 84.769531 2.496094 84.734375 2.578125 84.734375 2.683594 L 84.734375 3.171875 C 84.734375 3.289062 84.757812 3.375 84.808594 3.4375 C 84.855469 3.492188 84.933594 3.519531 85.042969 3.519531 L 85.296875 3.519531 C 85.417969 3.519531 85.511719 3.492188 85.570312 3.4375 C 85.625 3.382812 85.652344 3.292969 85.652344 3.171875 L 85.652344 2.683594 C 85.652344 2.578125 85.617188 2.496094 85.550781 2.4375 C 85.492188 2.375 85.410156 2.34375 85.308594 2.34375 L 85.082031 2.34375 C 84.976562 2.34375 84.894531 2.375 84.835938 2.4375 M 61.746094 0 L 62.164062 0 L 62.375 0.246094 L 62.539062 0.554688 L 62.65625 0.964844 L 62.691406 1.480469 L 62.691406 2.953125 L 62.65625 3.480469 L 62.539062 3.882812 L 62.375 4.199219 L 62.164062 4.4375 L 61.746094 4.4375 L 62.011719 4.101562 L 62.183594 3.789062 L 62.265625 3.4375 L 62.292969 2.964844 L 62.292969 1.472656 L 62.265625 1 L 62.183594 0.644531 L 62.011719 0.335938 L 61.746094 0 M 66.734375 0.5625 L 67.296875 3.453125 L 67.90625 0.5625 L 68.3125 0.5625 L 67.570312 3.871094 L 67.015625 3.871094 L 66.316406 0.5625 L 66.734375 0.5625 M 69.09375 0.5625 L 70.628906 0.5625 L 70.628906 1.019531 L 69.804688 3.871094 L 69.375 3.871094 L 70.238281 0.917969 L 69.09375 0.917969 L 69.09375 0.5625 M 74.808594 0.5625 L 75.261719 0.5625 L 75.261719 3.519531 L 75.769531 3.519531 L 75.769531 3.871094 L 74.234375 3.871094 L 74.234375 3.519531 L 74.851562 3.519531 L 74.851562 0.9375 L 74.191406 1.183594 L 74.191406 0.800781 L 74.808594 0.5625 M 72.664062 3.398438 L 72.664062 3.871094 L 72.191406 3.871094 L 72.191406 3.398438 L 72.664062 3.398438 M 82.871094 3.871094 L 82.402344 3.871094 L 82.402344 3.398438 L 82.871094 3.398438 L 82.871094 3.871094 M 80.140625 3.519531 C 80.261719 3.519531 80.355469 3.480469 80.421875 3.410156 C 80.492188 3.335938 80.53125 3.25 80.53125 3.15625 L 80.53125 1.882812 L 79.648438 3.15625 C 79.648438 3.25 79.683594 3.335938 79.757812 3.410156 C 79.824219 3.480469 79.917969 3.519531 80.039062 3.519531 L 80.140625 3.519531 M 77.769531 3.871094 L 77.296875 3.871094 L 77.296875 3.398438 L 77.769531 3.398438 L 77.769531 3.871094 M 121.136719 0.453125 L 121.074219 1.183594 L 121.746094 0.917969 L 121.875 1.289062 L 121.175781 1.4375 L 121.671875 2.019531 L 121.335938 2.261719 L 120.917969 1.589844 L 120.492188 2.261719 L 120.15625 2.019531 L 120.664062 1.4375 L 119.976562 1.289062 L 120.113281 0.910156 L 120.773438 1.183594 L 120.710938 0.453125 L 121.136719 0.453125 M 122.664062 0.910156 L 123.328125 1.183594 L 123.261719 0.453125 L 123.691406 0.453125 L 123.625 1.183594 L 124.296875 0.917969 L 124.425781 1.289062 L 123.726562 1.4375 L 124.226562 2.019531 L 123.890625 2.261719 L 123.472656 1.589844 L 123.046875 2.261719 L 122.707031 2.019531 L 123.21875 1.4375 L 122.527344 1.289062 L 122.664062 0.910156 M 126.242188 0.453125 L 126.179688 1.183594 L 126.851562 0.917969 L 126.976562 1.289062 L 126.277344 1.4375 L 126.777344 2.019531 L 126.441406 2.261719 L 126.023438 1.589844 L 125.597656 2.261719 L 125.261719 2.019531 L 125.769531 1.4375 L 125.078125 1.289062 L 125.214844 0.910156 L 125.878906 1.183594 L 125.816406 0.453125 L 126.242188 0.453125 M 1.183594 0.453125 L 1.121094 1.183594 L 1.792969 0.917969 L 1.921875 1.289062 L 1.222656 1.4375 L 1.71875 2.019531 L 1.382812 2.261719 L 0.96875 1.589844 L 0.539062 2.261719 L 0.203125 2.019531 L 0.710938 1.4375 L 0.0234375 1.289062 L 0.160156 0.910156 L 0.820312 1.183594 L 0.757812 0.453125 L 1.183594 0.453125 M 1.730469 22.34375 L 1.011719 22.34375 C 0.890625 22.34375 0.792969 22.378906 0.722656 22.445312 C 0.65625 22.519531 0.621094 22.601562 0.621094 22.699219 L 0.621094 24.574219 C 0.621094 24.667969 0.65625 24.753906 0.722656 24.828125 C 0.792969 24.894531 0.890625 24.925781 1.011719 24.925781 L 1.730469 24.925781 L 1.730469 25.289062 L 1.058594 25.289062 C 0.785156 25.289062 0.578125 25.222656 0.429688 25.089844 C 0.285156 24.957031 0.214844 24.757812 0.214844 24.492188 L 0.214844 22.78125 C 0.214844 22.515625 0.285156 22.316406 0.429688 22.183594 C 0.578125 22.046875 0.785156 21.980469 1.058594 21.980469 L 1.730469 21.980469 L 1.730469 22.34375 M 0.648438 27.335938 L 0.648438 30.28125 L 1.703125 30.28125 L 1.703125 30.644531 L 0.238281 30.644531 L 0.238281 27.335938 L 0.648438 27.335938 M 1.640625 34.464844 L 0.59375 34.464844 L 0.59375 35.65625 L 1.757812 35.65625 L 1.757812 36 L 0.1875 36 L 0.1875 32.691406 L 1.757812 32.691406 L 1.757812 33.035156 L 0.59375 33.035156 L 0.59375 34.117188 L 1.640625 34.117188 L 1.640625 34.464844 M 47.558594 0.738281 C 47.699219 0.851562 47.769531 1.039062 47.769531 1.300781 L 47.769531 1.835938 C 47.769531 2.097656 47.699219 2.289062 47.558594 2.410156 C 47.421875 2.53125 47.222656 2.589844 46.960938 2.589844 L 46.46875 2.589844 L 46.46875 3.871094 L 46.0625 3.871094 L 46.0625 0.5625 L 46.953125 0.5625 C 47.210938 0.5625 47.414062 0.621094 47.558594 0.738281 M 47.269531 1 C 47.214844 0.945312 47.128906 0.917969 47.007812 0.917969 L 46.46875 0.917969 L 46.46875 2.226562 L 47.007812 2.226562 C 47.128906 2.226562 47.214844 2.199219 47.269531 2.144531 C 47.324219 2.089844 47.351562 2.007812 47.351562 1.890625 L 47.351562 1.253906 C 47.351562 1.140625 47.324219 1.054688 47.269531 1 M 48.695312 2.21875 L 50.230469 2.21875 L 50.230469 2.574219 L 48.695312 2.574219 L 48.695312 2.21875 M 52.109375 0.5625 C 52.382812 0.5625 52.59375 0.628906 52.738281 0.761719 C 52.886719 0.898438 52.964844 1.097656 52.964844 1.363281 L 52.964844 3.074219 C 52.964844 3.339844 52.886719 3.539062 52.738281 3.671875 C 52.59375 3.804688 52.382812 3.871094 52.109375 3.871094 L 51.917969 3.871094 C 51.648438 3.871094 51.433594 3.804688 51.285156 3.671875 C 51.140625 3.539062 51.066406 3.339844 51.066406 3.074219 L 51.066406 1.363281 C 51.066406 1.097656 51.140625 0.898438 51.285156 0.761719 C 51.433594 0.628906 51.648438 0.5625 51.917969 0.5625 L 52.109375 0.5625 M 51.875 0.925781 C 51.753906 0.925781 51.65625 0.960938 51.582031 1.027344 C 51.515625 1.101562 51.484375 1.183594 51.484375 1.28125 L 51.484375 3.15625 C 51.484375 3.25 51.515625 3.335938 51.582031 3.410156 C 51.65625 3.476562 51.753906 3.507812 51.875 3.507812 L 52.15625 3.507812 C 52.277344 3.507812 52.375 3.476562 52.445312 3.410156 C 52.511719 3.335938 52.546875 3.25 52.546875 3.15625 L 52.546875 1.28125 C 52.546875 1.183594 52.511719 1.101562 52.445312 1.027344 C 52.375 0.960938 52.277344 0.925781 52.15625 0.925781 L 51.875 0.925781 M 56.96875 0.246094 L 57.179688 0 L 57.585938 0 L 57.332031 0.335938 L 57.160156 0.644531 L 57.070312 1 L 57.050781 1.472656 L 57.050781 2.964844 L 57.070312 3.4375 L 57.160156 3.789062 L 57.332031 4.101562 L 57.585938 4.4375 L 57.179688 4.4375 L 56.96875 4.199219 L 56.804688 3.882812 L 56.6875 3.480469 L 56.644531 2.953125 L 56.644531 1.480469 L 56.6875 0.964844 L 56.804688 0.554688 L 56.96875 0.246094 M 54.28125 1.027344 C 54.207031 1.101562 54.171875 1.183594 54.171875 1.28125 L 54.171875 1.636719 C 54.171875 1.734375 54.203125 1.816406 54.261719 1.882812 C 54.328125 1.949219 54.414062 1.980469 54.515625 1.980469 L 54.652344 1.980469 C 54.871094 1.980469 55.042969 2.042969 55.171875 2.164062 C 55.296875 2.289062 55.363281 2.488281 55.363281 2.753906 L 55.363281 3.074219 C 55.363281 3.339844 55.289062 3.539062 55.144531 3.671875 C 55 3.804688 54.789062 3.871094 54.515625 3.871094 L 53.84375 3.871094 L 53.84375 3.507812 L 54.5625 3.507812 C 54.683594 3.507812 54.777344 3.476562 54.84375 3.410156 C 54.917969 3.335938 54.953125 3.253906 54.953125 3.164062 L 54.953125 2.664062 C 54.953125 2.574219 54.929688 2.5 54.878906 2.445312 C 54.839844 2.386719 54.765625 2.355469 54.664062 2.355469 L 54.515625 2.355469 C 54.292969 2.355469 54.113281 2.289062 53.972656 2.15625 C 53.832031 2.019531 53.761719 1.816406 53.761719 1.546875 L 53.761719 1.371094 C 53.761719 1.101562 53.835938 0.898438 53.980469 0.761719 C 54.125 0.628906 54.335938 0.5625 54.609375 0.5625 L 55.289062 0.5625 L 55.289062 0.925781 L 54.5625 0.925781 C 54.449219 0.925781 54.355469 0.960938 54.28125 1.027344 M 60.222656 0.738281 C 60.359375 0.851562 60.429688 1.039062 60.429688 1.300781 L 60.429688 1.753906 C 60.429688 1.941406 60.394531 2.089844 60.320312 2.199219 C 60.242188 2.304688 60.136719 2.375 60.003906 2.417969 L 60.65625 3.871094 L 60.210938 3.871094 L 59.605469 2.5 L 59.140625 2.5 L 59.140625 3.871094 L 58.722656 3.871094 L 58.722656 0.5625 L 59.613281 0.5625 C 59.871094 0.5625 60.074219 0.621094 60.222656 0.738281 M 59.929688 1 C 59.875 0.945312 59.789062 0.917969 59.667969 0.917969 L 59.140625 0.917969 L 59.140625 2.144531 L 59.667969 2.144531 C 59.789062 2.144531 59.875 2.117188 59.929688 2.0625 C 59.984375 2.007812 60.011719 1.921875 60.011719 1.800781 L 60.011719 1.253906 C 60.011719 1.140625 59.984375 1.054688 59.929688 1 M 34.363281 0.453125 L 34.300781 1.183594 L 34.972656 0.917969 L 35.097656 1.289062 L 34.398438 1.4375 L 34.898438 2.019531 L 34.5625 2.261719 L 34.144531 1.589844 L 33.71875 2.261719 L 33.382812 2.019531 L 33.890625 1.4375 L 33.199219 1.289062 L 33.335938 0.910156 L 34 1.183594 L 33.9375 0.453125 L 34.363281 0.453125 M 31.8125 0.453125 L 31.746094 1.183594 L 32.417969 0.917969 L 32.546875 1.289062 L 31.847656 1.4375 L 32.347656 2.019531 L 32.011719 2.261719 L 31.59375 1.589844 L 31.167969 2.261719 L 30.832031 2.019531 L 31.339844 1.4375 L 30.648438 1.289062 L 30.785156 0.910156 L 31.449219 1.183594 L 31.382812 0.453125 L 31.8125 0.453125 M 35.933594 2.019531 L 36.441406 1.4375 L 35.753906 1.289062 L 35.890625 0.910156 L 36.550781 1.183594 L 36.488281 0.453125 L 36.914062 0.453125 L 36.851562 1.183594 L 37.523438 0.917969 L 37.652344 1.289062 L 36.953125 1.4375 L 37.453125 2.019531 L 37.117188 2.261719 L 36.699219 1.589844 L 36.269531 2.261719 L 35.933594 2.019531 M 41.847656 0.5625 C 42.109375 0.5625 42.308594 0.621094 42.457031 0.738281 C 42.59375 0.851562 42.664062 1.039062 42.664062 1.300781 L 42.664062 1.835938 C 42.664062 2.097656 42.59375 2.289062 42.457031 2.410156 C 42.316406 2.53125 42.117188 2.589844 41.855469 2.589844 L 41.367188 2.589844 L 41.367188 3.871094 L 40.957031 3.871094 L 40.957031 0.5625 L 41.847656 0.5625 M 42.164062 1 C 42.109375 0.945312 42.023438 0.917969 41.902344 0.917969 L 41.367188 0.917969 L 41.367188 2.226562 L 41.902344 2.226562 C 42.023438 2.226562 42.109375 2.199219 42.164062 2.144531 C 42.21875 2.089844 42.246094 2.007812 42.246094 1.890625 L 42.246094 1.253906 C 42.246094 1.140625 42.21875 1.054688 42.164062 1 M 43.726562 0.5625 L 44.980469 0.5625 L 44.980469 0.910156 L 44.5625 0.910156 L 44.5625 3.527344 L 44.980469 3.527344 L 44.980469 3.871094 L 43.726562 3.871094 L 43.726562 3.527344 L 44.152344 3.527344 L 44.152344 0.910156 L 43.726562 0.910156 L 43.726562 0.5625 M 19.050781 0.453125 L 18.988281 1.183594 L 19.660156 0.917969 L 19.785156 1.289062 L 19.085938 1.4375 L 19.585938 2.019531 L 19.25 2.261719 L 18.832031 1.589844 L 18.40625 2.261719 L 18.070312 2.019531 L 18.578125 1.4375 L 17.886719 1.289062 L 18.023438 0.910156 L 18.6875 1.183594 L 18.625 0.453125 L 19.050781 0.453125 M 16.699219 2.261719 L 16.28125 1.589844 L 15.851562 2.261719 L 15.515625 2.019531 L 16.027344 1.4375 L 15.335938 1.289062 L 15.472656 0.910156 L 16.132812 1.183594 L 16.070312 0.453125 L 16.496094 0.453125 L 16.433594 1.183594 L 17.105469 0.917969 L 17.234375 1.289062 L 16.535156 1.4375 L 17.035156 2.019531 L 16.699219 2.261719 M 21.601562 0.453125 L 21.539062 1.183594 L 22.210938 0.917969 L 22.339844 1.289062 L 21.636719 1.4375 L 22.136719 2.019531 L 21.800781 2.261719 L 21.382812 1.589844 L 20.957031 2.261719 L 20.621094 2.019531 L 21.128906 1.4375 L 20.441406 1.289062 L 20.574219 0.910156 L 21.238281 1.183594 L 21.175781 0.453125 L 21.601562 0.453125 M 23.171875 2.019531 L 23.683594 1.4375 L 22.992188 1.289062 L 23.128906 0.910156 L 23.792969 1.183594 L 23.726562 0.453125 L 24.15625 0.453125 L 24.089844 1.183594 L 24.761719 0.917969 L 24.890625 1.289062 L 24.191406 1.4375 L 24.691406 2.019531 L 24.355469 2.261719 L 23.9375 1.589844 L 23.507812 2.261719 L 23.171875 2.019531 M 26.707031 0.453125 L 26.644531 1.183594 L 27.316406 0.917969 L 27.441406 1.289062 L 26.742188 1.4375 L 27.242188 2.019531 L 26.90625 2.261719 L 26.488281 1.589844 L 26.0625 2.261719 L 25.726562 2.019531 L 26.234375 1.4375 L 25.542969 1.289062 L 25.679688 0.910156 L 26.34375 1.183594 L 26.28125 0.453125 L 26.707031 0.453125 M 29.257812 0.453125 L 29.195312 1.183594 L 29.867188 0.917969 L 29.996094 1.289062 L 29.296875 1.4375 L 29.792969 2.019531 L 29.457031 2.261719 L 29.039062 1.589844 L 28.613281 2.261719 L 28.277344 2.019531 L 28.785156 1.4375 L 28.097656 1.289062 L 28.234375 0.910156 L 28.894531 1.183594 L 28.832031 0.453125 L 29.257812 0.453125 M 2.757812 2.019531 L 3.265625 1.4375 L 2.574219 1.289062 L 2.710938 0.910156 L 3.375 1.183594 L 3.308594 0.453125 L 3.738281 0.453125 L 3.671875 1.183594 L 4.34375 0.917969 L 4.472656 1.289062 L 3.773438 1.4375 L 4.273438 2.019531 C 4.164062 2.101562 4.050781 2.183594 3.9375 2.261719 L 3.519531 1.589844 L 3.09375 2.261719 L 2.757812 2.019531 M 5.261719 0.910156 L 5.925781 1.183594 L 5.863281 0.453125 L 6.289062 0.453125 L 6.226562 1.183594 L 6.898438 0.917969 L 7.023438 1.289062 L 6.324219 1.4375 L 6.824219 2.019531 L 6.488281 2.261719 L 6.070312 1.589844 L 5.644531 2.261719 L 5.308594 2.019531 L 5.816406 1.4375 L 5.125 1.289062 L 5.261719 0.910156 M 8.839844 0.453125 L 8.777344 1.183594 L 9.449219 0.917969 L 9.578125 1.289062 L 8.878906 1.4375 L 9.378906 2.019531 L 9.042969 2.261719 L 8.625 1.589844 L 8.195312 2.261719 L 7.859375 2.019531 L 8.367188 1.4375 L 7.679688 1.289062 L 7.816406 0.910156 L 8.476562 1.183594 L 8.414062 0.453125 L 8.839844 0.453125 M 10.921875 1.4375 L 10.230469 1.289062 L 10.367188 0.910156 L 11.03125 1.183594 L 10.964844 0.453125 L 11.394531 0.453125 L 11.328125 1.183594 L 12.003906 0.917969 L 12.128906 1.289062 L 11.429688 1.4375 L 11.929688 2.019531 L 11.59375 2.261719 L 11.175781 1.589844 L 10.75 2.261719 L 10.414062 2.019531 L 10.921875 1.4375 M 13.945312 0.453125 L 13.882812 1.183594 L 14.554688 0.917969 L 14.679688 1.289062 L 13.980469 1.4375 L 14.480469 2.019531 L 14.144531 2.261719 L 13.726562 1.589844 L 13.300781 2.261719 L 12.964844 2.019531 L 13.472656 1.4375 L 12.78125 1.289062 L 12.917969 0.910156 L 13.582031 1.183594 L 13.519531 0.453125 L 13.945312 0.453125 M 29.832031 22.828125 L 29.832031 24.5 C 29.832031 24.765625 29.757812 24.964844 29.613281 25.089844 C 29.46875 25.222656 29.28125 25.289062 29.058594 25.289062 L 28.960938 25.289062 C 28.730469 25.289062 28.542969 25.222656 28.394531 25.089844 C 28.25 24.964844 28.179688 24.765625 28.179688 24.5 L 28.179688 22.828125 C 28.179688 22.566406 28.25 22.371094 28.394531 22.246094 C 28.542969 22.117188 28.730469 22.054688 28.960938 22.054688 L 29.058594 22.054688 C 29.28125 22.054688 29.46875 22.117188 29.613281 22.246094 C 29.757812 22.371094 29.832031 22.566406 29.832031 22.828125 M 30.730469 22.054688 L 32.230469 22.054688 L 32.230469 22.5 L 31.410156 25.289062 L 31.011719 25.289062 L 31.847656 22.398438 L 30.730469 22.398438 L 30.730469 22.054688 M 28.960938 22.398438 C 28.839844 22.398438 28.746094 22.433594 28.675781 22.5 C 28.609375 22.574219 28.578125 22.65625 28.578125 22.753906 L 28.578125 24.007812 L 29.429688 22.753906 C 29.429688 22.65625 29.402344 22.574219 29.339844 22.5 C 29.269531 22.433594 29.175781 22.398438 29.058594 22.398438 L 28.960938 22.398438 M 28.675781 24.835938 C 28.746094 24.910156 28.839844 24.945312 28.960938 24.945312 L 29.058594 24.945312 C 29.175781 24.945312 29.269531 24.910156 29.339844 24.835938 C 29.402344 24.761719 29.429688 24.679688 29.429688 24.582031 L 29.429688 23.34375 L 28.578125 24.582031 C 28.578125 24.679688 28.609375 24.761719 28.675781 24.835938 M 26.351562 22.054688 C 26.625 22.054688 26.832031 22.117188 26.96875 22.246094 C 27.109375 22.371094 27.179688 22.566406 27.179688 22.828125 L 27.179688 23.035156 L 27.160156 23.335938 L 27.105469 23.554688 L 27.007812 23.746094 L 26.859375 23.972656 L 26.179688 24.925781 L 27.277344 24.925781 L 27.277344 25.289062 L 25.742188 25.289062 L 25.742188 24.882812 L 26.488281 23.828125 L 26.644531 23.601562 L 26.726562 23.4375 L 26.78125 23.273438 L 26.789062 23.074219 L 26.789062 22.753906 C 26.789062 22.65625 26.753906 22.574219 26.679688 22.5 C 26.613281 22.433594 26.519531 22.398438 26.398438 22.398438 L 25.84375 22.398438 L 25.84375 22.054688 L 26.351562 22.054688 M 26.316406 27.335938 L 26.769531 27.335938 L 26.769531 30.289062 L 27.277344 30.289062 L 27.277344 30.644531 L 25.742188 30.644531 L 25.742188 30.289062 L 26.363281 30.289062 L 26.363281 27.710938 L 25.699219 27.953125 L 25.699219 27.574219 L 26.316406 27.335938 M 22.347656 22.34375 L 21.59375 22.34375 L 21.59375 25.289062 L 21.183594 25.289062 L 21.183594 22.34375 L 20.429688 22.34375 L 20.429688 21.980469 L 22.347656 21.980469 L 22.347656 22.34375 M 19.730469 21.980469 L 19.730469 25.289062 L 19.324219 25.289062 L 19.324219 23.773438 L 18.351562 23.773438 L 18.351562 25.289062 L 17.941406 25.289062 L 17.941406 21.980469 L 18.351562 21.980469 L 18.351562 23.417969 L 19.324219 23.417969 L 19.324219 21.980469 L 19.730469 21.980469 M 16.96875 22.34375 L 16.253906 22.34375 C 16.136719 22.34375 16.042969 22.378906 15.972656 22.445312 C 15.898438 22.519531 15.863281 22.601562 15.863281 22.699219 L 15.863281 24.574219 C 15.863281 24.667969 15.898438 24.753906 15.972656 24.828125 C 16.042969 24.894531 16.136719 24.925781 16.253906 24.925781 L 16.714844 24.925781 L 16.714844 23.910156 L 16.308594 23.910156 L 16.308594 23.554688 L 17.105469 23.554688 L 17.105469 25.289062 L 16.296875 25.289062 C 16.027344 25.289062 15.816406 25.222656 15.671875 25.089844 C 15.527344 24.957031 15.453125 24.757812 15.453125 24.492188 L 15.453125 22.78125 C 15.453125 22.515625 15.527344 22.316406 15.671875 22.183594 C 15.816406 22.046875 16.027344 21.980469 16.296875 21.980469 L 16.96875 21.980469 L 16.96875 22.34375 M 19.820312 27.335938 L 19.078125 30.644531 L 18.523438 30.644531 L 17.824219 27.335938 L 18.242188 27.335938 L 18.804688 30.226562 L 19.414062 27.335938 L 19.820312 27.335938 M 21.210938 27.335938 L 21.664062 27.335938 L 21.664062 30.289062 L 22.175781 30.289062 L 22.175781 30.644531 L 20.640625 30.644531 L 20.640625 30.289062 L 21.257812 30.289062 L 21.257812 27.710938 L 20.59375 27.953125 L 20.59375 27.574219 L 21.210938 27.335938 M 23.699219 30.171875 L 24.171875 30.171875 L 24.171875 30.644531 L 23.699219 30.644531 L 23.699219 30.171875 M 20.585938 33.5 C 20.585938 33.226562 20.65625 33.023438 20.804688 32.890625 C 20.949219 32.757812 21.15625 32.691406 21.429688 32.691406 L 22.109375 32.691406 L 22.109375 33.054688 L 21.382812 33.054688 C 21.269531 33.054688 21.175781 33.085938 21.101562 33.15625 C 21.03125 33.226562 20.992188 33.3125 20.992188 33.410156 L 20.992188 33.761719 C 20.992188 33.859375 21.023438 33.941406 21.085938 34.007812 C 21.152344 34.074219 21.234375 34.109375 21.339844 34.109375 L 21.476562 34.109375 C 21.691406 34.109375 21.867188 34.167969 21.992188 34.289062 C 22.121094 34.417969 22.183594 34.613281 22.183594 34.882812 L 22.183594 35.199219 C 22.183594 35.464844 22.109375 35.667969 21.964844 35.800781 C 21.820312 35.933594 21.613281 36 21.339844 36 L 20.667969 36 L 20.667969 35.636719 L 21.382812 35.636719 C 21.503906 35.636719 21.597656 35.601562 21.664062 35.535156 C 21.738281 35.464844 21.773438 35.382812 21.773438 35.289062 L 21.773438 34.789062 C 21.773438 34.699219 21.75 34.628906 21.703125 34.574219 C 21.660156 34.511719 21.585938 34.480469 21.484375 34.480469 L 21.339844 34.480469 C 21.113281 34.480469 20.933594 34.414062 20.792969 34.28125 C 20.65625 34.148438 20.585938 33.945312 20.585938 33.671875 L 20.585938 33.5 M 23.308594 32.691406 L 24.5625 32.691406 L 24.5625 33.035156 L 24.144531 33.035156 L 24.144531 35.65625 L 24.5625 35.65625 L 24.5625 36 L 23.308594 36 L 23.308594 35.65625 L 23.738281 35.65625 L 23.738281 33.035156 L 23.308594 33.035156 L 23.308594 32.691406 M 16.953125 34.464844 L 15.90625 34.464844 L 15.90625 35.65625 L 17.070312 35.65625 L 17.070312 36 L 15.5 36 L 15.5 32.691406 L 17.070312 32.691406 L 17.070312 33.035156 L 15.90625 33.035156 L 15.90625 34.117188 L 16.953125 34.117188 L 16.953125 34.464844 M 18.304688 34.273438 L 18.832031 34.273438 C 18.953125 34.273438 19.042969 34.246094 19.09375 34.191406 C 19.148438 34.136719 19.175781 34.046875 19.175781 33.925781 L 19.175781 33.382812 C 19.175781 33.265625 19.148438 33.183594 19.09375 33.128906 C 19.042969 33.074219 18.953125 33.046875 18.832031 33.046875 L 18.304688 33.046875 L 18.304688 34.273438 M 19.59375 33.882812 C 19.59375 34.070312 19.558594 34.21875 19.484375 34.328125 C 19.40625 34.429688 19.300781 34.503906 19.167969 34.546875 L 19.820312 36 L 19.378906 36 L 18.769531 34.628906 L 18.304688 34.628906 L 18.304688 36 L 17.886719 36 L 17.886719 32.691406 L 18.777344 32.691406 C 19.039062 32.691406 19.242188 32.75 19.386719 32.863281 C 19.527344 32.980469 19.59375 33.167969 19.59375 33.425781 L 19.59375 33.882812 M 14.355469 21.980469 L 14.355469 22.328125 L 13.9375 22.328125 L 13.9375 24.945312 L 14.355469 24.945312 L 14.355469 25.289062 L 13.101562 25.289062 L 13.101562 24.945312 L 13.527344 24.945312 L 13.527344 22.328125 L 13.101562 22.328125 L 13.101562 21.980469 L 14.355469 21.980469 M 11.9375 22.71875 L 11.9375 23.171875 C 11.9375 23.359375 11.902344 23.507812 11.828125 23.617188 C 11.75 23.722656 11.644531 23.792969 11.511719 23.835938 L 12.164062 25.289062 L 11.71875 25.289062 L 11.113281 23.917969 L 10.648438 23.917969 L 10.648438 25.289062 L 10.230469 25.289062 L 10.230469 21.980469 L 11.121094 21.980469 C 11.382812 21.980469 11.585938 22.039062 11.730469 22.15625 C 11.867188 22.269531 11.9375 22.457031 11.9375 22.71875 M 11.519531 22.671875 C 11.519531 22.558594 11.492188 22.472656 11.4375 22.417969 C 11.382812 22.363281 11.296875 22.335938 11.175781 22.335938 L 10.648438 22.335938 L 10.648438 23.5625 L 11.175781 23.5625 C 11.296875 23.5625 11.382812 23.535156 11.4375 23.480469 C 11.492188 23.425781 11.519531 23.339844 11.519531 23.21875 L 11.519531 22.671875 M 9.6875 21.980469 L 8.832031 23.753906 L 8.832031 25.289062 L 8.40625 25.289062 L 8.40625 23.753906 L 7.5625 21.980469 L 8.015625 21.980469 L 8.632812 23.355469 L 9.257812 21.980469 L 9.6875 21.980469 M 11.964844 27.683594 L 10.804688 27.683594 L 10.804688 28.761719 L 11.847656 28.761719 L 11.847656 29.109375 L 10.804688 29.109375 L 10.804688 30.300781 L 11.964844 30.300781 L 11.964844 30.644531 L 10.394531 30.644531 L 10.394531 27.335938 L 11.964844 27.335938 L 11.964844 27.683594 M 9.511719 29.898438 C 9.511719 30.171875 9.449219 30.363281 9.324219 30.472656 C 9.203125 30.585938 9 30.644531 8.714844 30.644531 L 7.742188 30.644531 L 7.742188 27.335938 L 8.652344 27.335938 C 8.921875 27.335938 9.136719 27.390625 9.285156 27.5 C 9.4375 27.609375 9.511719 27.800781 9.511719 28.074219 L 9.511719 29.898438 M 14.28125 27.507812 C 14.421875 27.625 14.492188 27.8125 14.492188 28.074219 L 14.492188 28.527344 C 14.492188 28.714844 14.453125 28.863281 14.382812 28.972656 C 14.304688 29.074219 14.195312 29.148438 14.0625 29.191406 L 14.71875 30.644531 L 14.273438 30.644531 L 13.664062 29.273438 L 13.199219 29.273438 L 13.199219 30.644531 L 12.78125 30.644531 L 12.78125 27.335938 L 13.671875 27.335938 C 13.933594 27.335938 14.136719 27.394531 14.28125 27.507812 M 13.199219 27.691406 L 13.199219 28.917969 L 13.726562 28.917969 C 13.847656 28.917969 13.9375 28.890625 13.992188 28.835938 C 14.046875 28.78125 14.074219 28.695312 14.074219 28.574219 L 14.074219 28.027344 C 14.074219 27.914062 14.046875 27.828125 13.992188 27.773438 C 13.9375 27.71875 13.847656 27.691406 13.726562 27.691406 L 13.199219 27.691406 M 6.433594 22.417969 C 6.378906 22.363281 6.292969 22.335938 6.171875 22.335938 L 5.636719 22.335938 L 5.636719 23.644531 L 6.171875 23.644531 C 6.292969 23.644531 6.378906 23.617188 6.433594 23.5625 C 6.488281 23.507812 6.515625 23.425781 6.515625 23.308594 L 6.515625 22.671875 C 6.515625 22.558594 6.488281 22.472656 6.433594 22.417969 M 6.933594 22.71875 L 6.933594 23.253906 C 6.933594 23.515625 6.863281 23.707031 6.726562 23.828125 C 6.585938 23.949219 6.386719 24.007812 6.125 24.007812 L 5.636719 24.007812 L 5.636719 25.289062 L 5.226562 25.289062 L 5.226562 21.980469 L 6.117188 21.980469 C 6.378906 21.980469 6.578125 22.039062 6.726562 22.15625 C 6.863281 22.269531 6.933594 22.457031 6.933594 22.71875 M 4.472656 22.78125 L 4.472656 24.492188 C 4.472656 24.757812 4.398438 24.957031 4.246094 25.089844 C 4.101562 25.222656 3.890625 25.289062 3.617188 25.289062 L 3.429688 25.289062 C 3.15625 25.289062 2.945312 25.222656 2.792969 25.089844 C 2.648438 24.957031 2.574219 24.757812 2.574219 24.492188 L 2.574219 22.78125 C 2.574219 22.515625 2.648438 22.316406 2.792969 22.183594 C 2.945312 22.046875 3.15625 21.980469 3.429688 21.980469 L 3.617188 21.980469 C 3.890625 21.980469 4.101562 22.046875 4.246094 22.183594 C 4.398438 22.316406 4.472656 22.515625 4.472656 22.78125 M 3.953125 22.445312 C 3.882812 22.378906 3.785156 22.34375 3.664062 22.34375 L 3.382812 22.34375 C 3.261719 22.34375 3.164062 22.378906 3.09375 22.445312 C 3.027344 22.519531 2.992188 22.601562 2.992188 22.699219 L 2.992188 24.574219 C 2.992188 24.667969 3.027344 24.753906 3.09375 24.828125 C 3.164062 24.894531 3.261719 24.925781 3.382812 24.925781 L 3.664062 24.925781 C 3.785156 24.925781 3.882812 24.894531 3.953125 24.828125 C 4.023438 24.753906 4.054688 24.667969 4.054688 24.574219 L 4.054688 22.699219 C 4.054688 22.601562 4.023438 22.519531 3.953125 22.445312 M 3.429688 27.335938 L 3.617188 27.335938 C 3.890625 27.335938 4.101562 27.402344 4.246094 27.535156 C 4.398438 27.667969 4.472656 27.871094 4.472656 28.136719 L 4.472656 29.84375 C 4.472656 30.113281 4.398438 30.3125 4.246094 30.445312 C 4.101562 30.578125 3.890625 30.644531 3.617188 30.644531 L 3.429688 30.644531 C 3.15625 30.644531 2.945312 30.578125 2.792969 30.445312 C 2.648438 30.3125 2.574219 30.113281 2.574219 29.84375 L 2.574219 28.136719 C 2.574219 27.871094 2.648438 27.667969 2.792969 27.535156 C 2.945312 27.402344 3.15625 27.335938 3.429688 27.335938 M 3.382812 27.699219 C 3.261719 27.699219 3.164062 27.734375 3.09375 27.800781 C 3.027344 27.871094 2.992188 27.957031 2.992188 28.054688 L 2.992188 29.925781 C 2.992188 30.023438 3.027344 30.109375 3.09375 30.183594 C 3.164062 30.25 3.261719 30.28125 3.382812 30.28125 L 3.664062 30.28125 C 3.785156 30.28125 3.882812 30.25 3.953125 30.183594 C 4.023438 30.109375 4.054688 30.023438 4.054688 29.925781 L 4.054688 28.054688 C 4.054688 27.957031 4.023438 27.871094 3.953125 27.800781 C 3.882812 27.734375 3.785156 27.699219 3.664062 27.699219 L 3.382812 27.699219 M 8.152344 27.691406 L 8.152344 30.289062 L 8.75 30.289062 C 8.871094 30.289062 8.960938 30.261719 9.023438 30.210938 C 9.078125 30.15625 9.105469 30.066406 9.105469 29.945312 L 9.105469 28.027344 C 9.105469 27.925781 9.070312 27.84375 9.003906 27.78125 C 8.945312 27.722656 8.863281 27.691406 8.757812 27.691406 L 8.152344 27.691406 M 6.351562 27.335938 L 7.132812 30.644531 L 6.714844 30.644531 L 6.535156 29.808594 L 5.617188 29.808594 L 5.433594 30.644531 L 5.007812 30.644531 L 5.808594 27.335938 L 6.351562 27.335938 M 6.460938 29.453125 L 6.070312 27.644531 L 5.691406 29.453125 L 6.460938 29.453125 M 6.742188 34.464844 L 5.699219 34.464844 L 5.699219 35.65625 L 6.863281 35.65625 L 6.863281 36 L 5.289062 36 L 5.289062 32.691406 L 6.863281 32.691406 L 6.863281 33.035156 L 5.699219 33.035156 L 5.699219 34.117188 L 6.742188 34.117188 L 6.742188 34.464844 M 8.378906 33.15625 C 8.3125 33.226562 8.277344 33.3125 8.277344 33.410156 L 8.277344 35.28125 C 8.277344 35.378906 8.3125 35.464844 8.378906 35.535156 C 8.449219 35.601562 8.546875 35.636719 8.667969 35.636719 L 9.386719 35.636719 L 9.386719 36 L 8.714844 36 C 8.441406 36 8.234375 35.933594 8.085938 35.800781 C 7.941406 35.667969 7.871094 35.464844 7.871094 35.199219 L 7.871094 33.492188 C 7.871094 33.222656 7.941406 33.023438 8.085938 32.890625 C 8.234375 32.757812 8.441406 32.691406 8.714844 32.691406 L 9.386719 32.691406 L 9.386719 33.054688 L 8.667969 33.054688 C 8.546875 33.054688 8.449219 33.085938 8.378906 33.15625 M 3.011719 32.691406 L 3.527344 33.808594 L 4.074219 32.691406 L 4.507812 32.691406 L 3.746094 34.28125 L 4.554688 36 L 4.089844 36 L 3.527344 34.753906 L 2.929688 36 L 2.484375 36 L 3.308594 34.289062 L 2.566406 32.691406 L 3.011719 32.691406 M 14.71875 32.691406 L 13.972656 36 L 13.417969 36 L 12.71875 32.691406 L 13.136719 32.691406 L 13.699219 35.582031 L 14.308594 32.691406 L 14.71875 32.691406 M 57.550781 22.382812 L 57.585938 22.898438 L 57.585938 24.371094 L 57.550781 24.898438 C 57.519531 25.050781 57.480469 25.183594 57.433594 25.300781 C 57.390625 25.421875 57.335938 25.527344 57.269531 25.617188 L 57.058594 25.855469 L 56.644531 25.855469 C 56.75 25.734375 56.839844 25.621094 56.90625 25.519531 C 56.972656 25.421875 57.03125 25.316406 57.078125 25.210938 C 57.113281 25.105469 57.140625 24.988281 57.160156 24.855469 C 57.179688 24.722656 57.1875 24.5625 57.1875 24.382812 L 57.1875 22.890625 C 57.1875 22.710938 57.179688 22.550781 57.160156 22.417969 L 57.078125 22.0625 L 56.90625 21.753906 L 56.644531 21.417969 L 57.058594 21.417969 L 57.269531 21.664062 L 57.433594 21.972656 C 57.480469 22.085938 57.519531 22.222656 57.550781 22.382812 M 55.324219 23.171875 C 55.324219 23.359375 55.289062 23.507812 55.214844 23.617188 C 55.136719 23.722656 55.03125 23.792969 54.898438 23.835938 L 55.554688 25.289062 L 55.109375 25.289062 L 54.5 23.917969 L 54.035156 23.917969 L 54.035156 25.289062 L 53.617188 25.289062 L 53.617188 21.980469 L 54.507812 21.980469 C 54.769531 21.980469 54.972656 22.039062 55.117188 22.15625 C 55.257812 22.269531 55.324219 22.457031 55.324219 22.71875 L 55.324219 23.171875 M 54.90625 22.671875 C 54.90625 22.558594 54.878906 22.472656 54.828125 22.417969 C 54.773438 22.363281 54.683594 22.335938 54.5625 22.335938 L 54.035156 22.335938 L 54.035156 23.5625 L 54.5625 23.5625 C 54.683594 23.5625 54.773438 23.535156 54.828125 23.480469 C 54.878906 23.425781 54.90625 23.339844 54.90625 23.21875 L 54.90625 22.671875 M 51.867188 21.664062 L 52.074219 21.417969 L 52.484375 21.417969 L 52.230469 21.753906 L 52.054688 22.0625 L 51.964844 22.417969 L 51.945312 22.890625 L 51.945312 24.382812 L 51.964844 24.855469 L 52.054688 25.210938 L 52.230469 25.519531 L 52.484375 25.855469 L 52.074219 25.855469 L 51.867188 25.617188 L 51.703125 25.300781 L 51.582031 24.898438 L 51.539062 24.371094 L 51.539062 22.898438 L 51.582031 22.382812 L 51.703125 21.972656 L 51.867188 21.664062 M 50.410156 22.78125 L 50.410156 24.492188 C 50.410156 24.757812 50.335938 24.957031 50.183594 25.089844 C 50.039062 25.222656 49.832031 25.289062 49.558594 25.289062 L 49.367188 25.289062 C 49.09375 25.289062 48.882812 25.222656 48.730469 25.089844 C 48.585938 24.957031 48.515625 24.757812 48.515625 24.492188 L 48.515625 22.78125 C 48.515625 22.515625 48.585938 22.316406 48.730469 22.183594 C 48.882812 22.046875 49.09375 21.980469 49.367188 21.980469 L 49.558594 21.980469 C 49.832031 21.980469 50.039062 22.046875 50.183594 22.183594 C 50.335938 22.316406 50.410156 22.515625 50.410156 22.78125 M 49.894531 22.445312 C 49.820312 22.378906 49.726562 22.34375 49.605469 22.34375 L 49.320312 22.34375 C 49.199219 22.34375 49.105469 22.378906 49.03125 22.445312 C 48.964844 22.519531 48.929688 22.601562 48.929688 22.699219 L 48.929688 24.574219 C 48.929688 24.667969 48.964844 24.753906 49.03125 24.828125 C 49.105469 24.894531 49.199219 24.925781 49.320312 24.925781 L 49.605469 24.925781 C 49.726562 24.925781 49.820312 24.894531 49.894531 24.828125 C 49.960938 24.753906 49.996094 24.667969 49.996094 24.574219 L 49.996094 22.699219 C 49.996094 22.601562 49.960938 22.519531 49.894531 22.445312 M 47.667969 22.34375 L 46.953125 22.34375 C 46.832031 22.34375 46.734375 22.378906 46.660156 22.445312 C 46.59375 22.519531 46.5625 22.601562 46.5625 22.699219 L 46.5625 24.574219 C 46.5625 24.667969 46.59375 24.753906 46.660156 24.828125 C 46.734375 24.894531 46.832031 24.925781 46.953125 24.925781 L 47.667969 24.925781 L 47.667969 25.289062 L 46.996094 25.289062 C 46.722656 25.289062 46.515625 25.222656 46.371094 25.089844 C 46.226562 24.957031 46.152344 24.757812 46.152344 24.492188 L 46.152344 22.78125 C 46.152344 22.515625 46.226562 22.316406 46.371094 22.183594 C 46.515625 22.046875 46.722656 21.980469 46.996094 21.980469 L 47.667969 21.980469 L 47.667969 22.34375 M 45.179688 22.71875 L 45.179688 22.992188 C 45.179688 23.113281 45.160156 23.222656 45.117188 23.316406 C 45.070312 23.410156 45.003906 23.480469 44.925781 23.535156 C 45.023438 23.589844 45.097656 23.667969 45.152344 23.761719 C 45.203125 23.859375 45.226562 23.980469 45.226562 24.117188 L 45.226562 24.546875 C 45.226562 24.8125 45.164062 25.003906 45.042969 25.117188 C 44.917969 25.234375 44.710938 25.289062 44.425781 25.289062 L 43.480469 25.289062 L 43.480469 21.980469 L 44.371094 21.980469 C 44.644531 21.980469 44.847656 22.035156 44.980469 22.144531 C 45.113281 22.253906 45.179688 22.445312 45.179688 22.71875 M 44.773438 22.671875 C 44.773438 22.558594 44.746094 22.472656 44.691406 22.417969 L 44.425781 22.335938 L 43.890625 22.335938 L 43.890625 23.382812 L 44.425781 23.382812 C 44.523438 23.382812 44.605469 23.351562 44.671875 23.289062 C 44.738281 23.222656 44.773438 23.140625 44.773438 23.035156 L 44.773438 22.671875 M 42.753906 22.78125 L 42.753906 24.492188 C 42.753906 24.757812 42.679688 24.957031 42.527344 25.089844 C 42.382812 25.222656 42.175781 25.289062 41.902344 25.289062 L 41.710938 25.289062 C 41.4375 25.289062 41.226562 25.222656 41.074219 25.089844 C 40.929688 24.957031 40.855469 24.757812 40.855469 24.492188 L 40.855469 22.78125 C 40.855469 22.515625 40.929688 22.316406 41.074219 22.183594 C 41.226562 22.046875 41.4375 21.980469 41.710938 21.980469 L 41.902344 21.980469 C 42.175781 21.980469 42.382812 22.046875 42.527344 22.183594 C 42.679688 22.316406 42.753906 22.515625 42.753906 22.78125 M 43.890625 24.9375 L 44.472656 24.9375 C 44.585938 24.9375 44.675781 24.910156 44.734375 24.855469 C 44.789062 24.800781 44.816406 24.710938 44.816406 24.589844 L 44.816406 24.074219 C 44.816406 23.96875 44.785156 23.886719 44.726562 23.828125 C 44.660156 23.765625 44.574219 23.738281 44.472656 23.738281 L 43.890625 23.738281 L 43.890625 24.9375 M 42.335938 22.699219 C 42.335938 22.601562 42.304688 22.519531 42.238281 22.445312 C 42.164062 22.378906 42.066406 22.34375 41.945312 22.34375 L 41.664062 22.34375 C 41.542969 22.34375 41.449219 22.378906 41.375 22.445312 C 41.308594 22.519531 41.273438 22.601562 41.273438 22.699219 L 41.273438 24.574219 C 41.273438 24.667969 41.308594 24.753906 41.375 24.828125 C 41.449219 24.894531 41.542969 24.925781 41.664062 24.925781 L 41.945312 24.925781 C 42.066406 24.925781 42.164062 24.894531 42.238281 24.828125 C 42.304688 24.753906 42.335938 24.667969 42.335938 24.574219 L 42.335938 22.699219 M 39.511719 22.417969 C 39.457031 22.363281 39.371094 22.335938 39.25 22.335938 L 38.722656 22.335938 L 38.722656 23.5625 L 39.25 23.5625 C 39.371094 23.5625 39.457031 23.535156 39.511719 23.480469 C 39.566406 23.425781 39.59375 23.339844 39.59375 23.21875 L 39.59375 22.671875 C 39.59375 22.558594 39.566406 22.472656 39.511719 22.417969 M 39.804688 22.15625 C 39.941406 22.269531 40.011719 22.457031 40.011719 22.71875 L 40.011719 23.171875 C 40.011719 23.359375 39.976562 23.507812 39.902344 23.617188 C 39.824219 23.722656 39.71875 23.792969 39.585938 23.835938 L 40.238281 25.289062 L 39.792969 25.289062 L 39.1875 23.917969 L 38.722656 23.917969 L 38.722656 25.289062 L 38.304688 25.289062 L 38.304688 21.980469 L 39.195312 21.980469 C 39.457031 21.980469 39.660156 22.039062 39.804688 22.15625 M 34.609375 22.398438 L 33.738281 22.398438 L 33.738281 23.34375 L 33.917969 23.34375 C 34.148438 23.34375 34.332031 23.398438 34.472656 23.507812 C 34.613281 23.617188 34.679688 23.800781 34.679688 24.054688 L 34.679688 24.554688 C 34.679688 24.816406 34.621094 25.003906 34.5 25.117188 C 34.378906 25.234375 34.179688 25.289062 33.898438 25.289062 L 33.292969 25.289062 L 33.292969 24.945312 L 33.9375 24.945312 C 34.058594 24.945312 34.140625 24.914062 34.191406 24.855469 C 34.25 24.804688 34.28125 24.722656 34.28125 24.601562 L 34.28125 24.019531 C 34.28125 23.914062 34.25 23.832031 34.179688 23.773438 C 34.121094 23.71875 34.042969 23.691406 33.945312 23.691406 L 33.335938 23.691406 L 33.335938 22.054688 L 34.609375 22.054688 L 34.609375 22.398438 "/>
</g>
</svg>
