<?xml version="1.0" encoding="UTF-8"?>
<svg xmlns="http://www.w3.org/2000/svg" xmlns:xlink="http://www.w3.org/1999/xlink" width="128pt" height="58pt" viewBox="0 0 128 58" version="1.1">
<g id="surface1">
<path style=" stroke:none;fill-rule:nonzero;fill:rgb(100%,100%,100%);fill-opacity:1;" d="M 109.179688 0.460938 L 109.113281 1.195312 L 109.789062 0.925781 L 109.917969 1.304688 L 109.214844 1.449219 L 109.71875 2.039062 L 109.378906 2.285156 L 108.957031 1.605469 L 108.527344 2.285156 L 108.191406 2.039062 L 108.703125 1.449219 L 108.007812 1.304688 L 108.144531 0.917969 L 108.8125 1.195312 L 108.746094 0.460938 L 109.179688 0.460938 M 106.609375 0.460938 L 106.542969 1.195312 L 107.222656 0.925781 L 107.347656 1.304688 L 106.644531 1.449219 L 107.148438 2.039062 L 106.808594 2.285156 L 106.390625 1.605469 L 105.960938 2.285156 L 105.621094 2.039062 L 106.132812 1.449219 L 105.4375 1.304688 L 105.574219 0.917969 L 106.242188 1.195312 L 106.179688 0.460938 L 106.609375 0.460938 M 111.746094 0.460938 L 111.683594 1.195312 L 112.359375 0.925781 L 112.488281 1.304688 L 111.785156 1.449219 L 112.285156 2.039062 L 111.949219 2.285156 L 111.527344 1.605469 L 111.097656 2.285156 L 110.757812 2.039062 L 111.273438 1.449219 L 110.578125 1.304688 L 110.714844 0.917969 L 111.382812 1.195312 L 111.316406 0.460938 L 111.746094 0.460938 M 114.316406 0.460938 L 114.253906 1.195312 L 114.929688 0.925781 L 115.058594 1.304688 L 114.351562 1.449219 L 114.855469 2.039062 L 114.515625 2.285156 L 114.097656 1.605469 L 113.667969 2.285156 L 113.328125 2.039062 L 113.839844 1.449219 L 113.144531 1.304688 L 113.28125 0.917969 L 113.949219 1.195312 L 113.886719 0.460938 L 114.316406 0.460938 M 115.898438 2.039062 L 116.410156 1.449219 L 115.714844 1.304688 L 115.851562 0.917969 L 116.519531 1.195312 L 116.457031 0.460938 L 116.886719 0.460938 L 116.820312 1.195312 L 117.5 0.925781 L 117.625 1.304688 L 116.921875 1.449219 L 117.425781 2.039062 L 117.085938 2.285156 L 116.667969 1.605469 L 116.238281 2.285156 L 115.898438 2.039062 M 119.453125 0.460938 L 119.390625 1.195312 L 120.066406 0.925781 L 120.195312 1.304688 L 119.492188 1.449219 L 119.996094 2.039062 L 119.65625 2.285156 L 119.234375 1.605469 L 118.804688 2.285156 L 118.46875 2.039062 L 118.980469 1.449219 L 118.285156 1.304688 L 118.421875 0.917969 L 119.089844 1.195312 L 119.023438 0.460938 L 119.453125 0.460938 M 93.761719 0.460938 L 93.699219 1.195312 L 94.375 0.925781 L 94.503906 1.304688 L 93.796875 1.449219 L 94.300781 2.039062 L 93.964844 2.285156 L 93.542969 1.605469 L 93.113281 2.285156 L 92.773438 2.039062 L 93.285156 1.449219 L 92.589844 1.304688 L 92.730469 0.917969 L 93.394531 1.195312 L 93.332031 0.460938 L 93.761719 0.460938 M 91.933594 1.304688 L 91.230469 1.449219 L 91.730469 2.039062 L 91.394531 2.285156 L 90.972656 1.605469 L 90.542969 2.285156 L 90.207031 2.039062 L 90.71875 1.449219 L 90.023438 1.304688 L 90.160156 0.917969 L 90.828125 1.195312 L 90.761719 0.460938 L 91.191406 0.460938 L 91.128906 1.195312 L 91.804688 0.925781 L 91.933594 1.304688 M 96.332031 0.460938 L 96.265625 1.195312 L 96.945312 0.925781 L 97.070312 1.304688 L 96.367188 1.449219 L 96.871094 2.039062 L 96.53125 2.285156 L 96.113281 1.605469 L 95.683594 2.285156 L 95.34375 2.039062 L 95.855469 1.449219 L 95.160156 1.304688 L 95.296875 0.917969 L 95.964844 1.195312 L 95.902344 0.460938 L 96.332031 0.460938 M 97.867188 0.917969 L 98.535156 1.195312 L 98.472656 0.460938 L 98.902344 0.460938 L 98.835938 1.195312 L 99.511719 0.925781 L 99.640625 1.304688 L 98.9375 1.449219 L 99.441406 2.039062 L 99.101562 2.285156 L 98.679688 1.605469 L 98.25 2.285156 L 97.914062 2.039062 L 98.425781 1.449219 L 97.730469 1.304688 L 97.867188 0.917969 M 101.46875 0.460938 L 101.40625 1.195312 L 102.082031 0.925781 L 102.210938 1.304688 L 101.507812 1.449219 L 102.007812 2.039062 L 101.671875 2.285156 L 101.25 1.605469 L 100.820312 2.285156 L 100.480469 2.039062 L 100.996094 1.449219 L 100.300781 1.304688 L 100.4375 0.917969 L 101.105469 1.195312 L 101.039062 0.460938 L 101.46875 0.460938 M 103.050781 2.039062 L 103.5625 1.449219 L 102.867188 1.304688 L 103.007812 0.917969 L 103.671875 1.195312 L 103.609375 0.460938 L 104.039062 0.460938 L 103.976562 1.195312 L 104.652344 0.925781 L 104.78125 1.304688 L 104.074219 1.449219 L 104.578125 2.039062 L 104.242188 2.285156 L 103.820312 1.605469 L 103.390625 2.285156 L 103.050781 2.039062 M 81.328125 0.761719 C 81.472656 0.898438 81.546875 1.101562 81.546875 1.378906 L 81.546875 3.105469 C 81.546875 3.375 81.472656 3.574219 81.328125 3.710938 C 81.179688 3.84375 80.988281 3.910156 80.75 3.910156 L 80.648438 3.910156 C 80.414062 3.910156 80.21875 3.84375 80.074219 3.710938 C 79.929688 3.574219 79.855469 3.375 79.855469 3.105469 L 79.855469 1.378906 C 79.855469 1.101562 79.929688 0.898438 80.074219 0.761719 C 80.21875 0.632812 80.414062 0.570312 80.648438 0.570312 L 80.75 0.570312 C 80.988281 0.570312 81.179688 0.632812 81.328125 0.761719 M 80.367188 1.039062 C 80.292969 1.109375 80.257812 1.195312 80.257812 1.292969 L 80.257812 2.589844 L 81.144531 1.292969 C 81.144531 1.195312 81.105469 1.109375 81.035156 1.039062 C 80.96875 0.964844 80.871094 0.925781 80.75 0.925781 L 80.648438 0.925781 C 80.527344 0.925781 80.433594 0.964844 80.367188 1.039062 M 85.878906 0.570312 C 86.125 0.570312 86.3125 0.628906 86.445312 0.742188 C 86.585938 0.859375 86.65625 1.050781 86.65625 1.3125 L 86.65625 1.617188 C 86.65625 1.867188 86.570312 2.050781 86.402344 2.167969 C 86.503906 2.222656 86.585938 2.296875 86.640625 2.398438 C 86.6875 2.496094 86.710938 2.613281 86.710938 2.753906 L 86.710938 3.160156 C 86.710938 3.421875 86.652344 3.613281 86.53125 3.726562 C 86.402344 3.851562 86.195312 3.910156 85.90625 3.910156 L 85.769531 3.910156 C 85.484375 3.910156 85.277344 3.851562 85.148438 3.726562 C 85.027344 3.613281 84.964844 3.421875 84.964844 3.160156 L 84.964844 2.753906 C 84.964844 2.613281 84.992188 2.496094 85.039062 2.398438 C 85.09375 2.296875 85.171875 2.222656 85.269531 2.167969 C 85.101562 2.050781 85.019531 1.867188 85.019531 1.617188 L 85.019531 1.3125 C 85.019531 1.050781 85.089844 0.859375 85.230469 0.742188 C 85.363281 0.628906 85.550781 0.570312 85.789062 0.570312 L 85.878906 0.570312 M 86.246094 1.265625 C 86.246094 1.152344 86.21875 1.066406 86.164062 1.011719 C 86.109375 0.953125 86.023438 0.925781 85.90625 0.925781 L 85.734375 0.925781 C 85.625 0.933594 85.546875 0.964844 85.503906 1.019531 C 85.457031 1.074219 85.433594 1.15625 85.433594 1.265625 L 85.433594 1.664062 C 85.433594 1.765625 85.460938 1.847656 85.523438 1.910156 C 85.585938 1.972656 85.65625 2.003906 85.742188 2.011719 L 85.90625 2.011719 C 86 2.011719 86.078125 1.980469 86.144531 1.917969 C 86.210938 1.859375 86.246094 1.773438 86.246094 1.664062 L 86.246094 1.265625 M 85.476562 2.460938 C 85.410156 2.523438 85.378906 2.605469 85.378906 2.710938 L 85.378906 3.203125 C 85.378906 3.320312 85.402344 3.410156 85.449219 3.472656 C 85.5 3.527344 85.578125 3.554688 85.6875 3.554688 L 85.945312 3.554688 C 86.066406 3.554688 86.15625 3.527344 86.21875 3.472656 C 86.273438 3.417969 86.300781 3.328125 86.300781 3.203125 L 86.300781 2.710938 C 86.300781 2.605469 86.265625 2.523438 86.199219 2.460938 C 86.140625 2.398438 86.058594 2.371094 85.953125 2.371094 L 85.726562 2.371094 C 85.621094 2.371094 85.539062 2.398438 85.476562 2.460938 M 62.234375 0 L 62.65625 0 L 62.867188 0.246094 L 63.03125 0.558594 L 63.148438 0.972656 L 63.1875 1.496094 L 63.1875 2.984375 L 63.148438 3.515625 L 63.03125 3.921875 L 62.867188 4.242188 L 62.65625 4.480469 L 62.234375 4.480469 L 62.5 4.140625 L 62.675781 3.828125 L 62.757812 3.472656 L 62.785156 2.992188 L 62.785156 1.488281 L 62.757812 1.011719 L 62.675781 0.652344 L 62.5 0.339844 L 62.234375 0 M 67.253906 0.570312 L 67.820312 3.488281 L 68.433594 0.570312 L 68.847656 0.570312 L 68.097656 3.910156 L 67.539062 3.910156 L 66.835938 0.570312 L 67.253906 0.570312 M 69.632812 0.570312 L 71.175781 0.570312 L 71.175781 1.027344 L 70.34375 3.910156 L 69.914062 3.910156 L 70.785156 0.925781 L 69.632812 0.925781 L 69.632812 0.570312 M 75.382812 0.570312 L 75.839844 0.570312 L 75.839844 3.554688 L 76.351562 3.554688 L 76.351562 3.910156 L 74.808594 3.910156 L 74.808594 3.554688 L 75.429688 3.554688 L 75.429688 0.945312 L 74.761719 1.195312 L 74.761719 0.808594 L 75.382812 0.570312 M 73.226562 3.433594 L 73.226562 3.910156 L 72.75 3.910156 L 72.75 3.433594 L 73.226562 3.433594 M 83.503906 3.910156 L 83.027344 3.910156 L 83.027344 3.433594 L 83.503906 3.433594 L 83.503906 3.910156 M 80.75 3.554688 C 80.871094 3.554688 80.96875 3.515625 81.035156 3.445312 C 81.105469 3.371094 81.144531 3.285156 81.144531 3.1875 L 81.144531 1.902344 L 80.257812 3.1875 C 80.257812 3.285156 80.292969 3.371094 80.367188 3.445312 C 80.433594 3.515625 80.527344 3.554688 80.648438 3.554688 L 80.75 3.554688 M 78.363281 3.910156 L 77.890625 3.910156 L 77.890625 3.433594 L 78.363281 3.433594 L 78.363281 3.910156 M 122.023438 0.460938 L 121.960938 1.195312 L 122.636719 0.925781 L 122.765625 1.304688 L 122.0625 1.449219 L 122.5625 2.039062 L 122.226562 2.285156 L 121.804688 1.605469 L 121.375 2.285156 L 121.035156 2.039062 L 121.550781 1.449219 L 120.855469 1.304688 L 120.992188 0.917969 L 121.660156 1.195312 L 121.59375 0.460938 L 122.023438 0.460938 M 123.558594 0.917969 L 124.226562 1.195312 L 124.164062 0.460938 L 124.59375 0.460938 L 124.53125 1.195312 L 125.207031 0.925781 L 125.335938 1.304688 L 124.628906 1.449219 L 125.132812 2.039062 L 124.792969 2.285156 L 124.375 1.605469 L 123.945312 2.285156 L 123.605469 2.039062 L 124.117188 1.449219 L 123.421875 1.304688 L 123.558594 0.917969 M 127.164062 0.460938 L 127.097656 1.195312 L 127.777344 0.925781 L 127.902344 1.304688 L 127.199219 1.449219 L 127.703125 2.039062 L 127.363281 2.285156 L 126.945312 1.605469 L 126.515625 2.285156 L 126.175781 2.039062 L 126.6875 1.449219 L 125.992188 1.304688 L 126.128906 0.917969 L 126.796875 1.195312 L 126.734375 0.460938 L 127.164062 0.460938 M 1.265625 0.460938 L 1.203125 1.195312 L 1.878906 0.925781 L 2.007812 1.304688 L 1.304688 1.449219 L 1.804688 2.039062 L 1.46875 2.285156 L 1.046875 1.605469 L 0.617188 2.285156 L 0.28125 2.039062 L 0.792969 1.449219 L 0.0976562 1.304688 L 0.234375 0.917969 L 0.902344 1.195312 L 0.835938 0.460938 L 1.265625 0.460938 M 1.816406 22.570312 L 1.09375 22.570312 C 0.972656 22.570312 0.875 22.605469 0.800781 22.671875 C 0.734375 22.746094 0.699219 22.832031 0.699219 22.929688 L 0.699219 24.820312 C 0.699219 24.917969 0.734375 25.003906 0.800781 25.078125 C 0.875 25.144531 0.972656 25.179688 1.09375 25.179688 L 1.816406 25.179688 L 1.816406 25.546875 L 1.140625 25.546875 C 0.863281 25.546875 0.652344 25.480469 0.507812 25.34375 C 0.363281 25.210938 0.289062 25.007812 0.289062 24.738281 L 0.289062 23.011719 C 0.289062 22.742188 0.363281 22.542969 0.507812 22.40625 C 0.652344 22.273438 0.863281 22.203125 1.140625 22.203125 L 1.816406 22.203125 L 1.816406 22.570312 M 0.726562 27.613281 L 0.726562 30.589844 L 1.789062 30.589844 L 1.789062 30.957031 L 0.316406 30.957031 L 0.316406 27.613281 L 0.726562 27.613281 M 1.722656 34.8125 L 0.671875 34.8125 L 0.671875 36.015625 L 1.84375 36.015625 L 1.84375 36.363281 L 0.261719 36.363281 L 0.261719 33.023438 L 1.84375 33.023438 L 1.84375 33.371094 L 0.671875 33.371094 L 0.671875 34.464844 L 1.722656 34.464844 L 1.722656 34.8125 M 0.636719 39.15625 L 0.636719 39.671875 L 1.101562 39.671875 C 1.371094 39.671875 1.570312 39.730469 1.707031 39.855469 C 1.832031 39.96875 1.898438 40.167969 1.898438 40.441406 L 1.898438 40.964844 C 1.898438 41.101562 1.875 41.214844 1.832031 41.3125 C 1.796875 41.417969 1.746094 41.503906 1.679688 41.570312 C 1.605469 41.640625 1.523438 41.691406 1.429688 41.726562 L 1.148438 41.773438 L 0.984375 41.773438 L 0.691406 41.71875 L 0.453125 41.570312 L 0.289062 41.3125 L 0.234375 40.964844 L 0.234375 39.238281 C 0.234375 38.96875 0.304688 38.769531 0.445312 38.632812 C 0.589844 38.5 0.800781 38.429688 1.074219 38.429688 L 1.667969 38.429688 L 1.667969 38.796875 L 1.027344 38.796875 C 0.90625 38.796875 0.808594 38.832031 0.738281 38.898438 C 0.667969 38.972656 0.636719 39.058594 0.636719 39.15625 M 1.148438 40.027344 L 0.636719 40.027344 L 0.636719 41.058594 C 0.636719 41.148438 0.667969 41.230469 0.726562 41.304688 C 0.792969 41.378906 0.886719 41.414062 1 41.414062 L 1.121094 41.414062 C 1.242188 41.414062 1.332031 41.378906 1.394531 41.304688 C 1.460938 41.230469 1.496094 41.148438 1.496094 41.058594 L 1.496094 40.351562 C 1.496094 40.253906 1.46875 40.175781 1.414062 40.121094 C 1.359375 40.058594 1.269531 40.027344 1.148438 40.027344 M 0.890625 43.839844 C 1.160156 43.839844 1.363281 43.898438 1.503906 44.015625 C 1.644531 44.128906 1.714844 44.320312 1.714844 44.582031 L 1.714844 44.886719 C 1.714844 45.015625 1.691406 45.125 1.640625 45.21875 C 1.597656 45.308594 1.535156 45.382812 1.449219 45.4375 C 1.554688 45.492188 1.628906 45.570312 1.679688 45.667969 C 1.734375 45.765625 1.761719 45.882812 1.761719 46.023438 L 1.761719 46.429688 C 1.761719 46.691406 1.695312 46.882812 1.570312 47 C 1.445312 47.121094 1.238281 47.183594 0.945312 47.183594 L 0.34375 47.183594 L 0.34375 46.824219 L 0.992188 46.824219 C 1.113281 46.824219 1.203125 46.796875 1.257812 46.742188 C 1.320312 46.6875 1.347656 46.597656 1.347656 46.476562 L 1.347656 45.980469 C 1.347656 45.875 1.316406 45.792969 1.25 45.730469 C 1.1875 45.671875 1.105469 45.640625 1 45.640625 L 0.488281 45.640625 L 0.488281 45.28125 L 0.957031 45.28125 C 1.046875 45.28125 1.125 45.25 1.195312 45.191406 C 1.265625 45.128906 1.304688 45.042969 1.304688 44.933594 L 1.304688 44.539062 C 1.304688 44.421875 1.273438 44.335938 1.210938 44.28125 C 1.15625 44.226562 1.070312 44.199219 0.957031 44.199219 L 0.34375 44.199219 L 0.34375 43.839844 L 0.890625 43.839844 M 0.820312 49.25 L 1.570312 52.234375 L 1.570312 49.25 L 1.953125 49.25 L 1.953125 52.589844 L 1.277344 52.589844 L 0.527344 49.597656 L 0.527344 52.589844 L 0.140625 52.589844 L 0.140625 49.25 L 0.820312 49.25 M 0.726562 54.65625 L 0.726562 57.632812 L 1.789062 57.632812 L 1.789062 58 L 0.316406 58 L 0.316406 54.65625 L 0.726562 54.65625 M 47.953125 0.742188 C 48.09375 0.859375 48.164062 1.050781 48.164062 1.3125 L 48.164062 1.855469 C 48.164062 2.117188 48.09375 2.3125 47.953125 2.433594 C 47.8125 2.554688 47.613281 2.617188 47.351562 2.617188 L 46.855469 2.617188 L 46.855469 3.910156 L 46.445312 3.910156 L 46.445312 0.570312 L 47.339844 0.570312 C 47.601562 0.570312 47.808594 0.628906 47.953125 0.742188 M 47.660156 1.011719 C 47.605469 0.953125 47.515625 0.925781 47.394531 0.925781 L 46.855469 0.925781 L 46.855469 2.25 L 47.394531 2.25 C 47.515625 2.25 47.605469 2.222656 47.660156 2.167969 C 47.714844 2.113281 47.742188 2.027344 47.742188 1.910156 L 47.742188 1.265625 C 47.742188 1.152344 47.714844 1.066406 47.660156 1.011719 M 49.097656 2.242188 L 50.640625 2.242188 L 50.640625 2.597656 L 49.097656 2.597656 L 49.097656 2.242188 M 52.535156 0.570312 C 52.808594 0.570312 53.019531 0.636719 53.164062 0.769531 C 53.316406 0.90625 53.394531 1.109375 53.394531 1.378906 L 53.394531 3.105469 C 53.394531 3.375 53.316406 3.574219 53.164062 3.710938 C 53.019531 3.84375 52.808594 3.910156 52.535156 3.910156 L 52.34375 3.910156 C 52.066406 3.910156 51.855469 3.84375 51.703125 3.710938 C 51.554688 3.574219 51.484375 3.375 51.484375 3.105469 L 51.484375 1.378906 C 51.484375 1.109375 51.554688 0.90625 51.703125 0.769531 C 51.855469 0.636719 52.066406 0.570312 52.34375 0.570312 L 52.535156 0.570312 M 52.296875 0.9375 C 52.175781 0.9375 52.078125 0.96875 52.003906 1.039062 C 51.9375 1.109375 51.902344 1.195312 51.902344 1.292969 L 51.902344 3.1875 C 51.902344 3.285156 51.9375 3.371094 52.003906 3.445312 C 52.078125 3.511719 52.175781 3.542969 52.296875 3.542969 L 52.578125 3.542969 C 52.703125 3.542969 52.800781 3.511719 52.871094 3.445312 C 52.941406 3.371094 52.972656 3.285156 52.972656 3.1875 L 52.972656 1.292969 C 52.972656 1.195312 52.941406 1.109375 52.871094 1.039062 C 52.800781 0.96875 52.703125 0.9375 52.578125 0.9375 L 52.296875 0.9375 M 57.425781 0.246094 L 57.636719 0 L 58.046875 0 L 57.792969 0.339844 L 57.617188 0.652344 L 57.527344 1.011719 L 57.507812 1.488281 L 57.507812 2.992188 L 57.527344 3.472656 L 57.617188 3.828125 L 57.792969 4.140625 L 58.046875 4.480469 L 57.636719 4.480469 L 57.425781 4.242188 L 57.261719 3.921875 L 57.140625 3.515625 L 57.097656 2.984375 L 57.097656 1.496094 L 57.140625 0.972656 L 57.261719 0.558594 L 57.425781 0.246094 M 54.71875 1.039062 C 54.644531 1.109375 54.609375 1.195312 54.609375 1.292969 L 54.609375 1.652344 C 54.609375 1.75 54.640625 1.832031 54.699219 1.902344 C 54.769531 1.96875 54.851562 2 54.957031 2 L 55.09375 2 C 55.3125 2 55.488281 2.0625 55.617188 2.1875 C 55.742188 2.3125 55.808594 2.511719 55.808594 2.78125 L 55.808594 3.105469 C 55.808594 3.375 55.734375 3.574219 55.589844 3.710938 C 55.441406 3.84375 55.230469 3.910156 54.957031 3.910156 L 54.28125 3.910156 L 54.28125 3.542969 L 55.003906 3.542969 C 55.125 3.542969 55.21875 3.511719 55.285156 3.445312 C 55.359375 3.371094 55.394531 3.289062 55.394531 3.195312 L 55.394531 2.691406 C 55.394531 2.597656 55.371094 2.523438 55.324219 2.46875 C 55.28125 2.410156 55.207031 2.378906 55.101562 2.378906 L 54.957031 2.378906 C 54.730469 2.378906 54.546875 2.3125 54.410156 2.175781 C 54.269531 2.042969 54.199219 1.835938 54.199219 1.5625 L 54.199219 1.386719 C 54.199219 1.109375 54.269531 0.90625 54.417969 0.769531 C 54.5625 0.636719 54.773438 0.570312 55.046875 0.570312 L 55.734375 0.570312 L 55.734375 0.9375 L 55.003906 0.9375 C 54.886719 0.9375 54.792969 0.96875 54.71875 1.039062 M 60.699219 0.742188 C 60.839844 0.859375 60.910156 1.050781 60.910156 1.3125 L 60.910156 1.773438 C 60.910156 1.960938 60.871094 2.113281 60.800781 2.222656 C 60.71875 2.328125 60.613281 2.398438 60.480469 2.441406 L 61.136719 3.910156 L 60.691406 3.910156 L 60.078125 2.523438 L 59.609375 2.523438 L 59.609375 3.910156 L 59.191406 3.910156 L 59.191406 0.570312 L 60.085938 0.570312 C 60.347656 0.570312 60.554688 0.628906 60.699219 0.742188 M 60.40625 1.011719 C 60.351562 0.953125 60.261719 0.925781 60.140625 0.925781 L 59.609375 0.925781 L 59.609375 2.167969 L 60.140625 2.167969 C 60.261719 2.167969 60.351562 2.140625 60.40625 2.085938 C 60.460938 2.03125 60.488281 1.941406 60.488281 1.816406 L 60.488281 1.265625 C 60.488281 1.152344 60.460938 1.066406 60.40625 1.011719 M 34.667969 0.460938 L 34.605469 1.195312 L 35.28125 0.925781 L 35.410156 1.304688 L 34.703125 1.449219 L 35.207031 2.039062 L 34.867188 2.285156 L 34.449219 1.605469 L 34.019531 2.285156 L 33.679688 2.039062 L 34.191406 1.449219 L 33.496094 1.304688 L 33.632812 0.917969 L 34.300781 1.195312 L 34.238281 0.460938 L 34.667969 0.460938 M 32.097656 0.460938 L 32.035156 1.195312 L 32.710938 0.925781 L 32.839844 1.304688 L 32.136719 1.449219 L 32.636719 2.039062 L 32.300781 2.285156 L 31.878906 1.605469 L 31.449219 2.285156 L 31.109375 2.039062 L 31.625 1.449219 L 30.929688 1.304688 L 31.066406 0.917969 L 31.734375 1.195312 L 31.667969 0.460938 L 32.097656 0.460938 M 36.25 2.039062 L 36.761719 1.449219 L 36.066406 1.304688 L 36.203125 0.917969 L 36.871094 1.195312 L 36.808594 0.460938 L 37.238281 0.460938 L 37.171875 1.195312 L 37.851562 0.925781 L 37.976562 1.304688 L 37.273438 1.449219 L 37.777344 2.039062 L 37.4375 2.285156 L 37.019531 1.605469 L 36.589844 2.285156 L 36.25 2.039062 M 42.203125 0.570312 C 42.464844 0.570312 42.667969 0.628906 42.816406 0.742188 C 42.953125 0.859375 43.023438 1.050781 43.023438 1.3125 L 43.023438 1.855469 C 43.023438 2.117188 42.953125 2.3125 42.816406 2.433594 C 42.675781 2.554688 42.472656 2.617188 42.210938 2.617188 L 41.71875 2.617188 L 41.71875 3.910156 L 41.304688 3.910156 L 41.304688 0.570312 L 42.203125 0.570312 M 42.523438 1.011719 C 42.46875 0.953125 42.378906 0.925781 42.257812 0.925781 L 41.71875 0.925781 L 41.71875 2.25 L 42.257812 2.25 C 42.378906 2.25 42.46875 2.222656 42.523438 2.167969 C 42.578125 2.113281 42.605469 2.027344 42.605469 1.910156 L 42.605469 1.265625 C 42.605469 1.152344 42.578125 1.066406 42.523438 1.011719 M 44.09375 0.570312 L 45.355469 0.570312 L 45.355469 0.917969 L 44.9375 0.917969 L 44.9375 3.5625 L 45.355469 3.5625 L 45.355469 3.910156 L 44.09375 3.910156 L 44.09375 3.5625 L 44.523438 3.5625 L 44.523438 0.917969 L 44.09375 0.917969 L 44.09375 0.570312 M 19.253906 0.460938 L 19.1875 1.195312 L 19.863281 0.925781 L 19.992188 1.304688 L 19.289062 1.449219 L 19.792969 2.039062 L 19.453125 2.285156 L 19.03125 1.605469 L 18.601562 2.285156 L 18.265625 2.039062 L 18.777344 1.449219 L 18.082031 1.304688 L 18.21875 0.917969 L 18.886719 1.195312 L 18.820312 0.460938 L 19.253906 0.460938 M 16.882812 2.285156 L 16.464844 1.605469 L 16.035156 2.285156 L 15.695312 2.039062 L 16.207031 1.449219 L 15.511719 1.304688 L 15.648438 0.917969 L 16.316406 1.195312 L 16.253906 0.460938 L 16.683594 0.460938 L 16.617188 1.195312 L 17.296875 0.925781 L 17.421875 1.304688 L 16.71875 1.449219 L 17.222656 2.039062 L 16.882812 2.285156 M 21.820312 0.460938 L 21.757812 1.195312 L 22.433594 0.925781 L 22.5625 1.304688 L 21.859375 1.449219 L 22.359375 2.039062 L 22.023438 2.285156 L 21.601562 1.605469 L 21.171875 2.285156 L 20.832031 2.039062 L 21.347656 1.449219 L 20.652344 1.304688 L 20.789062 0.917969 L 21.457031 1.195312 L 21.390625 0.460938 L 21.820312 0.460938 M 23.402344 2.039062 L 23.914062 1.449219 L 23.21875 1.304688 L 23.355469 0.917969 L 24.023438 1.195312 L 23.960938 0.460938 L 24.390625 0.460938 L 24.328125 1.195312 L 25.003906 0.925781 L 25.132812 1.304688 L 24.425781 1.449219 L 24.929688 2.039062 L 24.589844 2.285156 L 24.171875 1.605469 L 23.742188 2.285156 L 23.402344 2.039062 M 26.960938 0.460938 L 26.894531 1.195312 L 27.574219 0.925781 L 27.699219 1.304688 L 26.996094 1.449219 L 27.5 2.039062 L 27.160156 2.285156 L 26.742188 1.605469 L 26.3125 2.285156 L 25.972656 2.039062 L 26.484375 1.449219 L 25.789062 1.304688 L 25.925781 0.917969 L 26.59375 1.195312 L 26.53125 0.460938 L 26.960938 0.460938 M 29.527344 0.460938 L 29.464844 1.195312 L 30.140625 0.925781 L 30.269531 1.304688 L 29.566406 1.449219 L 30.070312 2.039062 L 29.730469 2.285156 L 29.308594 1.605469 L 28.878906 2.285156 L 28.542969 2.039062 L 29.054688 1.449219 L 28.359375 1.304688 L 28.496094 0.917969 L 29.164062 1.195312 L 29.097656 0.460938 L 29.527344 0.460938 M 2.847656 2.039062 L 3.359375 1.449219 L 2.664062 1.304688 L 2.804688 0.917969 L 3.46875 1.195312 L 3.40625 0.460938 L 3.835938 0.460938 L 3.773438 1.195312 L 4.449219 0.925781 L 4.578125 1.304688 L 3.871094 1.449219 L 4.375 2.039062 C 4.265625 2.125 4.152344 2.207031 4.039062 2.285156 L 3.617188 1.605469 L 3.1875 2.285156 L 2.847656 2.039062 M 5.371094 0.917969 L 6.039062 1.195312 L 5.976562 0.460938 L 6.40625 0.460938 L 6.339844 1.195312 L 7.019531 0.925781 L 7.144531 1.304688 L 6.441406 1.449219 L 6.945312 2.039062 L 6.605469 2.285156 L 6.1875 1.605469 L 5.757812 2.285156 L 5.417969 2.039062 L 5.929688 1.449219 L 5.234375 1.304688 L 5.371094 0.917969 M 8.976562 0.460938 L 8.910156 1.195312 L 9.585938 0.925781 L 9.714844 1.304688 L 9.011719 1.449219 L 9.515625 2.039062 L 9.175781 2.285156 L 8.753906 1.605469 L 8.324219 2.285156 L 7.988281 2.039062 L 8.5 1.449219 L 7.804688 1.304688 L 7.941406 0.917969 L 8.609375 1.195312 L 8.546875 0.460938 L 8.976562 0.460938 M 11.070312 1.449219 L 10.375 1.304688 L 10.511719 0.917969 L 11.179688 1.195312 L 11.113281 0.460938 L 11.542969 0.460938 L 11.480469 1.195312 L 12.15625 0.925781 L 12.285156 1.304688 L 11.582031 1.449219 L 12.082031 2.039062 L 11.746094 2.285156 L 11.324219 1.605469 L 10.894531 2.285156 L 10.554688 2.039062 L 11.070312 1.449219 M 14.113281 0.460938 L 14.050781 1.195312 L 14.726562 0.925781 L 14.855469 1.304688 L 14.148438 1.449219 L 14.652344 2.039062 L 14.316406 2.285156 L 13.894531 1.605469 L 13.464844 2.285156 L 13.125 2.039062 L 13.636719 1.449219 L 12.941406 1.304688 L 13.082031 0.917969 L 13.746094 1.195312 L 13.683594 0.460938 L 14.113281 0.460938 M 30.105469 23.058594 L 30.105469 24.75 C 30.105469 25.019531 30.03125 25.214844 29.886719 25.34375 C 29.738281 25.480469 29.554688 25.546875 29.328125 25.546875 L 29.226562 25.546875 C 28.996094 25.546875 28.808594 25.480469 28.660156 25.34375 C 28.515625 25.214844 28.441406 25.019531 28.441406 24.75 L 28.441406 23.058594 C 28.441406 22.796875 28.515625 22.597656 28.660156 22.472656 C 28.808594 22.34375 28.996094 22.277344 29.226562 22.277344 L 29.328125 22.277344 C 29.554688 22.277344 29.738281 22.34375 29.886719 22.472656 C 30.03125 22.597656 30.105469 22.796875 30.105469 23.058594 M 31.011719 22.277344 L 32.519531 22.277344 L 32.519531 22.726562 L 31.695312 25.546875 L 31.292969 25.546875 L 32.136719 22.628906 L 31.011719 22.628906 L 31.011719 22.277344 M 29.226562 22.628906 C 29.105469 22.628906 29.011719 22.660156 28.945312 22.726562 C 28.878906 22.800781 28.84375 22.886719 28.84375 22.984375 L 28.84375 24.253906 L 29.703125 22.984375 C 29.703125 22.886719 29.671875 22.800781 29.613281 22.726562 C 29.539062 22.660156 29.445312 22.628906 29.328125 22.628906 L 29.226562 22.628906 M 28.945312 25.089844 C 29.011719 25.160156 29.105469 25.199219 29.226562 25.199219 L 29.328125 25.199219 C 29.445312 25.199219 29.539062 25.160156 29.613281 25.089844 C 29.671875 25.015625 29.703125 24.929688 29.703125 24.832031 L 29.703125 23.582031 L 28.84375 24.832031 C 28.84375 24.929688 28.878906 25.015625 28.945312 25.089844 M 26.601562 22.277344 C 26.878906 22.277344 27.085938 22.34375 27.226562 22.472656 C 27.367188 22.597656 27.433594 22.796875 27.433594 23.058594 L 27.433594 23.269531 L 27.417969 23.574219 L 27.363281 23.792969 L 27.261719 23.984375 L 27.117188 24.214844 L 26.429688 25.179688 L 27.535156 25.179688 L 27.535156 25.546875 L 25.992188 25.546875 L 25.992188 25.132812 L 26.742188 24.070312 L 26.894531 23.839844 L 26.976562 23.675781 L 27.03125 23.507812 L 27.042969 23.304688 L 27.042969 22.984375 C 27.042969 22.886719 27.003906 22.800781 26.933594 22.726562 C 26.867188 22.660156 26.769531 22.628906 26.648438 22.628906 L 26.089844 22.628906 L 26.089844 22.277344 L 26.601562 22.277344 M 26.566406 27.613281 L 27.023438 27.613281 L 27.023438 30.597656 L 27.535156 30.597656 L 27.535156 30.957031 L 25.992188 30.957031 L 25.992188 30.597656 L 26.613281 30.597656 L 26.613281 27.988281 L 25.945312 28.238281 L 25.945312 27.851562 L 26.566406 27.613281 M 22.570312 22.570312 L 21.8125 22.570312 L 21.8125 25.546875 L 21.402344 25.546875 L 21.402344 22.570312 L 20.640625 22.570312 L 20.640625 22.203125 L 22.570312 22.203125 L 22.570312 22.570312 M 19.9375 22.203125 L 19.9375 25.546875 L 19.527344 25.546875 L 19.527344 24.011719 L 18.546875 24.011719 L 18.546875 25.546875 L 18.136719 25.546875 L 18.136719 22.203125 L 18.546875 22.203125 L 18.546875 23.65625 L 19.527344 23.65625 L 19.527344 22.203125 L 19.9375 22.203125 M 17.15625 22.570312 L 16.4375 22.570312 C 16.320312 22.570312 16.226562 22.605469 16.152344 22.671875 C 16.078125 22.746094 16.042969 22.832031 16.042969 22.929688 L 16.042969 24.820312 C 16.042969 24.917969 16.078125 25.003906 16.152344 25.078125 C 16.226562 25.144531 16.320312 25.179688 16.4375 25.179688 L 16.902344 25.179688 L 16.902344 24.152344 L 16.492188 24.152344 L 16.492188 23.792969 L 17.296875 23.792969 L 17.296875 25.546875 L 16.480469 25.546875 C 16.207031 25.546875 15.996094 25.480469 15.851562 25.34375 C 15.703125 25.210938 15.632812 25.007812 15.632812 24.738281 L 15.632812 23.011719 C 15.632812 22.742188 15.703125 22.542969 15.851562 22.40625 C 15.996094 22.273438 16.207031 22.203125 16.480469 22.203125 L 17.15625 22.203125 L 17.15625 22.570312 M 20.027344 27.613281 L 19.28125 30.957031 L 18.722656 30.957031 L 18.019531 27.613281 L 18.4375 27.613281 L 19.003906 30.535156 L 19.617188 27.613281 L 20.027344 27.613281 M 21.429688 27.613281 L 21.886719 27.613281 L 21.886719 30.597656 L 22.398438 30.597656 L 22.398438 30.957031 L 20.851562 30.957031 L 20.851562 30.597656 L 21.472656 30.597656 L 21.472656 27.988281 L 20.804688 28.238281 L 20.804688 27.851562 L 21.429688 27.613281 M 23.933594 30.476562 L 24.410156 30.476562 L 24.410156 30.957031 L 23.933594 30.957031 L 23.933594 30.476562 M 20.796875 33.839844 C 20.796875 33.5625 20.871094 33.359375 21.015625 33.222656 C 21.164062 33.089844 21.375 33.023438 21.648438 33.023438 L 22.332031 33.023438 L 22.332031 33.390625 L 21.601562 33.390625 C 21.484375 33.390625 21.390625 33.421875 21.320312 33.492188 C 21.246094 33.5625 21.207031 33.648438 21.207031 33.746094 L 21.207031 34.105469 C 21.207031 34.203125 21.238281 34.285156 21.300781 34.355469 C 21.367188 34.421875 21.453125 34.453125 21.554688 34.453125 L 21.691406 34.453125 C 21.914062 34.453125 22.085938 34.515625 22.214844 34.636719 C 22.34375 34.765625 22.40625 34.964844 22.40625 35.234375 L 22.40625 35.558594 C 22.40625 35.824219 22.332031 36.027344 22.1875 36.164062 C 22.039062 36.296875 21.832031 36.363281 21.554688 36.363281 L 20.878906 36.363281 L 20.878906 35.996094 L 21.601562 35.996094 C 21.722656 35.996094 21.816406 35.964844 21.886719 35.894531 C 21.957031 35.824219 21.996094 35.742188 21.996094 35.648438 L 21.996094 35.144531 C 21.996094 35.050781 21.96875 34.976562 21.921875 34.921875 C 21.878906 34.863281 21.804688 34.832031 21.703125 34.832031 L 21.554688 34.832031 C 21.332031 34.832031 21.148438 34.765625 21.007812 34.628906 C 20.867188 34.496094 20.796875 34.289062 20.796875 34.015625 L 20.796875 33.839844 M 23.539062 33.023438 L 24.800781 33.023438 L 24.800781 33.371094 L 24.382812 33.371094 L 24.382812 36.015625 L 24.800781 36.015625 L 24.800781 36.363281 L 23.539062 36.363281 L 23.539062 36.015625 L 23.96875 36.015625 L 23.96875 33.371094 L 23.539062 33.371094 L 23.539062 33.023438 M 17.140625 34.8125 L 16.089844 34.8125 L 16.089844 36.015625 L 17.257812 36.015625 L 17.257812 36.363281 L 15.675781 36.363281 L 15.675781 33.023438 L 17.257812 33.023438 L 17.257812 33.371094 L 16.089844 33.371094 L 16.089844 34.464844 L 17.140625 34.464844 L 17.140625 34.8125 M 18.503906 34.621094 L 19.03125 34.621094 C 19.15625 34.621094 19.242188 34.59375 19.296875 34.539062 C 19.351562 34.480469 19.378906 34.394531 19.378906 34.269531 L 19.378906 33.71875 C 19.378906 33.605469 19.351562 33.519531 19.296875 33.464844 C 19.242188 33.40625 19.15625 33.378906 19.03125 33.378906 L 18.503906 33.378906 L 18.503906 34.621094 M 19.800781 34.226562 C 19.800781 34.414062 19.765625 34.566406 19.691406 34.675781 C 19.613281 34.777344 19.503906 34.851562 19.371094 34.894531 L 20.027344 36.363281 L 19.582031 36.363281 L 18.96875 34.976562 L 18.503906 34.976562 L 18.503906 36.363281 L 18.082031 36.363281 L 18.082031 33.023438 L 18.976562 33.023438 C 19.238281 33.023438 19.445312 33.082031 19.589844 33.195312 C 19.730469 33.3125 19.800781 33.503906 19.800781 33.765625 L 19.800781 34.226562 M 17.503906 38.429688 L 17.503906 41.773438 L 17.128906 41.773438 L 17.128906 38.769531 L 16.65625 40.652344 L 16.261719 40.652344 L 15.796875 38.769531 L 15.796875 41.773438 L 15.4375 41.773438 L 15.4375 38.429688 L 16.097656 38.429688 L 16.472656 40.140625 L 16.867188 38.429688 L 17.503906 38.429688 M 21.648438 38.429688 L 22.332031 38.429688 L 22.332031 38.796875 L 21.601562 38.796875 C 21.484375 38.796875 21.390625 38.832031 21.320312 38.898438 C 21.246094 38.972656 21.207031 39.058594 21.207031 39.15625 L 21.207031 39.515625 C 21.207031 39.613281 21.238281 39.695312 21.300781 39.761719 C 21.367188 39.828125 21.453125 39.863281 21.554688 39.863281 L 21.691406 39.863281 C 21.914062 39.863281 22.085938 39.925781 22.214844 40.046875 C 22.34375 40.175781 22.40625 40.375 22.40625 40.644531 L 22.40625 40.964844 C 22.40625 41.234375 22.332031 41.4375 22.1875 41.570312 C 22.039062 41.707031 21.832031 41.773438 21.554688 41.773438 L 20.878906 41.773438 L 20.878906 41.40625 L 21.601562 41.40625 C 21.722656 41.40625 21.816406 41.371094 21.886719 41.304688 C 21.957031 41.230469 21.996094 41.148438 21.996094 41.058594 L 21.996094 40.550781 C 21.996094 40.460938 21.96875 40.386719 21.921875 40.332031 C 21.878906 40.269531 21.804688 40.238281 21.703125 40.238281 L 21.554688 40.238281 C 21.332031 40.238281 21.148438 40.171875 21.007812 40.039062 C 20.867188 39.902344 20.796875 39.699219 20.796875 39.421875 L 20.796875 39.25 C 20.796875 38.972656 20.871094 38.769531 21.015625 38.632812 C 21.164062 38.5 21.375 38.429688 21.648438 38.429688 M 23.558594 38.429688 L 24.179688 39.816406 L 24.8125 38.429688 L 25.242188 38.429688 L 24.382812 40.222656 L 24.382812 41.773438 L 23.953125 41.773438 L 23.953125 40.222656 L 23.101562 38.429688 L 23.558594 38.429688 M 30.214844 33.023438 L 30.214844 36.363281 L 29.539062 36.363281 L 28.789062 33.371094 L 28.789062 36.363281 L 28.40625 36.363281 L 28.40625 33.023438 L 29.082031 33.023438 L 29.832031 36.007812 L 29.832031 33.023438 L 30.214844 33.023438 M 26.007812 33.222656 C 26.160156 33.089844 26.375 33.023438 26.648438 33.023438 L 26.839844 33.023438 C 27.117188 33.023438 27.324219 33.089844 27.472656 33.222656 C 27.625 33.359375 27.699219 33.5625 27.699219 33.832031 L 27.699219 35.558594 C 27.699219 35.824219 27.625 36.027344 27.472656 36.164062 C 27.324219 36.296875 27.117188 36.363281 26.839844 36.363281 L 26.648438 36.363281 C 26.375 36.363281 26.160156 36.296875 26.007812 36.164062 C 25.863281 36.027344 25.789062 35.824219 25.789062 35.558594 L 25.789062 33.832031 C 25.789062 33.5625 25.863281 33.359375 26.007812 33.222656 M 26.210938 33.746094 L 26.210938 35.640625 C 26.210938 35.738281 26.242188 35.824219 26.3125 35.894531 C 26.382812 35.964844 26.480469 35.996094 26.601562 35.996094 L 26.886719 35.996094 C 27.007812 35.996094 27.105469 35.964844 27.179688 35.894531 C 27.246094 35.824219 27.28125 35.738281 27.28125 35.640625 L 27.28125 33.746094 C 27.28125 33.648438 27.246094 33.5625 27.179688 33.492188 C 27.105469 33.421875 27.007812 33.390625 26.886719 33.390625 L 26.601562 33.390625 C 26.480469 33.390625 26.382812 33.421875 26.3125 33.492188 C 26.242188 33.5625 26.210938 33.648438 26.210938 33.746094 M 27.472656 38.429688 L 27.472656 38.796875 L 26.742188 38.796875 C 26.625 38.796875 26.53125 38.832031 26.457031 38.898438 C 26.382812 38.972656 26.347656 39.058594 26.347656 39.15625 L 26.347656 39.515625 C 26.347656 39.613281 26.378906 39.695312 26.4375 39.761719 C 26.503906 39.828125 26.589844 39.863281 26.695312 39.863281 L 26.832031 39.863281 C 27.050781 39.863281 27.226562 39.925781 27.351562 40.046875 C 27.480469 40.175781 27.546875 40.375 27.546875 40.644531 L 27.546875 40.964844 C 27.546875 41.234375 27.472656 41.4375 27.324219 41.570312 C 27.179688 41.707031 26.96875 41.773438 26.695312 41.773438 L 26.019531 41.773438 L 26.019531 41.40625 L 26.742188 41.40625 C 26.863281 41.40625 26.957031 41.371094 27.023438 41.304688 C 27.097656 41.230469 27.132812 41.148438 27.132812 41.058594 L 27.132812 40.550781 C 27.132812 40.460938 27.109375 40.386719 27.058594 40.332031 C 27.019531 40.269531 26.945312 40.238281 26.839844 40.238281 L 26.695312 40.238281 C 26.46875 40.238281 26.285156 40.171875 26.144531 40.039062 C 26.007812 39.902344 25.9375 39.699219 25.9375 39.421875 L 25.9375 39.25 C 25.9375 38.972656 26.007812 38.769531 26.15625 38.632812 C 26.300781 38.5 26.511719 38.429688 26.785156 38.429688 L 27.472656 38.429688 M 28.351562 38.796875 L 28.351562 38.429688 L 30.277344 38.429688 L 30.277344 38.796875 L 29.519531 38.796875 L 29.519531 41.773438 L 29.109375 41.773438 L 29.109375 38.796875 L 28.351562 38.796875 M 14.523438 22.203125 L 14.523438 22.554688 L 14.105469 22.554688 L 14.105469 25.199219 L 14.523438 25.199219 L 14.523438 25.546875 L 13.261719 25.546875 L 13.261719 25.199219 L 13.691406 25.199219 L 13.691406 22.554688 L 13.261719 22.554688 L 13.261719 22.203125 L 14.523438 22.203125 M 12.09375 22.949219 L 12.09375 23.40625 C 12.09375 23.597656 12.054688 23.746094 11.984375 23.859375 C 11.902344 23.960938 11.796875 24.035156 11.664062 24.078125 L 12.320312 25.546875 L 11.875 25.546875 L 11.261719 24.160156 L 10.792969 24.160156 L 10.792969 25.546875 L 10.375 25.546875 L 10.375 22.203125 L 11.269531 22.203125 C 11.53125 22.203125 11.734375 22.261719 11.882812 22.378906 C 12.023438 22.496094 12.09375 22.683594 12.09375 22.949219 M 11.589844 22.644531 C 11.535156 22.589844 11.445312 22.5625 11.324219 22.5625 L 10.792969 22.5625 L 10.792969 23.800781 L 11.324219 23.800781 C 11.445312 23.800781 11.535156 23.773438 11.589844 23.71875 C 11.644531 23.664062 11.671875 23.574219 11.671875 23.453125 L 11.671875 22.902344 C 11.671875 22.785156 11.644531 22.699219 11.589844 22.644531 M 9.824219 22.203125 L 8.964844 23.996094 L 8.964844 25.546875 L 8.535156 25.546875 L 8.535156 23.996094 L 7.683594 22.203125 L 8.144531 22.203125 L 8.765625 23.589844 L 9.394531 22.203125 L 9.824219 22.203125 M 12.121094 27.960938 L 10.949219 27.960938 L 10.949219 29.054688 L 12 29.054688 L 12 29.402344 L 10.949219 29.402344 L 10.949219 30.605469 L 12.121094 30.605469 L 12.121094 30.957031 L 10.539062 30.957031 L 10.539062 27.613281 L 12.121094 27.613281 L 12.121094 27.960938 M 9.652344 30.203125 C 9.652344 30.476562 9.585938 30.671875 9.460938 30.78125 C 9.335938 30.898438 9.132812 30.957031 8.847656 30.957031 L 7.867188 30.957031 L 7.867188 27.613281 L 8.78125 27.613281 C 9.058594 27.613281 9.269531 27.667969 9.421875 27.777344 C 9.574219 27.890625 9.652344 28.082031 9.652344 28.355469 L 9.652344 30.203125 M 14.453125 27.789062 C 14.59375 27.902344 14.660156 28.09375 14.660156 28.355469 L 14.660156 28.816406 C 14.660156 29.007812 14.625 29.15625 14.550781 29.265625 C 14.472656 29.371094 14.367188 29.445312 14.230469 29.488281 L 14.890625 30.957031 L 14.441406 30.957031 L 13.828125 29.570312 L 13.363281 29.570312 L 13.363281 30.957031 L 12.941406 30.957031 L 12.941406 27.613281 L 13.839844 27.613281 C 14.101562 27.613281 14.304688 27.671875 14.453125 27.789062 M 13.363281 27.972656 L 13.363281 29.210938 L 13.894531 29.210938 C 14.015625 29.210938 14.105469 29.183594 14.160156 29.128906 C 14.214844 29.074219 14.242188 28.984375 14.242188 28.863281 L 14.242188 28.3125 C 14.242188 28.195312 14.214844 28.109375 14.160156 28.054688 C 14.105469 28 14.015625 27.972656 13.894531 27.972656 L 13.363281 27.972656 M 6.550781 22.644531 C 6.496094 22.589844 6.410156 22.5625 6.285156 22.5625 L 5.746094 22.5625 L 5.746094 23.886719 L 6.285156 23.886719 C 6.410156 23.886719 6.496094 23.859375 6.550781 23.800781 C 6.605469 23.746094 6.632812 23.660156 6.632812 23.546875 L 6.632812 22.902344 C 6.632812 22.785156 6.605469 22.699219 6.550781 22.644531 M 7.054688 22.949219 L 7.054688 23.488281 C 7.054688 23.753906 6.984375 23.945312 6.84375 24.070312 C 6.703125 24.191406 6.503906 24.253906 6.242188 24.253906 L 5.746094 24.253906 L 5.746094 25.546875 L 5.335938 25.546875 L 5.335938 22.203125 L 6.230469 22.203125 C 6.492188 22.203125 6.699219 22.261719 6.84375 22.378906 C 6.984375 22.496094 7.054688 22.683594 7.054688 22.949219 M 4.578125 23.011719 L 4.578125 24.738281 C 4.578125 25.007812 4.5 25.210938 4.347656 25.34375 C 4.203125 25.480469 3.992188 25.546875 3.71875 25.546875 L 3.523438 25.546875 C 3.25 25.546875 3.039062 25.480469 2.886719 25.34375 C 2.738281 25.210938 2.664062 25.007812 2.664062 24.738281 L 2.664062 23.011719 C 2.664062 22.742188 2.738281 22.542969 2.886719 22.40625 C 3.039062 22.273438 3.25 22.203125 3.523438 22.203125 L 3.71875 22.203125 C 3.992188 22.203125 4.203125 22.273438 4.347656 22.40625 C 4.5 22.542969 4.578125 22.742188 4.578125 23.011719 M 4.054688 22.671875 C 3.984375 22.605469 3.886719 22.570312 3.761719 22.570312 L 3.480469 22.570312 C 3.359375 22.570312 3.261719 22.605469 3.1875 22.671875 C 3.121094 22.746094 3.085938 22.832031 3.085938 22.929688 L 3.085938 24.820312 C 3.085938 24.917969 3.121094 25.003906 3.1875 25.078125 C 3.261719 25.144531 3.359375 25.179688 3.480469 25.179688 L 3.761719 25.179688 C 3.886719 25.179688 3.984375 25.144531 4.054688 25.078125 C 4.121094 25.003906 4.15625 24.917969 4.15625 24.820312 L 4.15625 22.929688 C 4.15625 22.832031 4.121094 22.746094 4.054688 22.671875 M 3.523438 27.613281 L 3.71875 27.613281 C 3.992188 27.613281 4.203125 27.679688 4.347656 27.816406 C 4.5 27.949219 4.578125 28.152344 4.578125 28.421875 L 4.578125 30.148438 C 4.578125 30.417969 4.5 30.621094 4.347656 30.753906 C 4.203125 30.886719 3.992188 30.957031 3.71875 30.957031 L 3.523438 30.957031 C 3.25 30.957031 3.039062 30.886719 2.886719 30.753906 C 2.738281 30.621094 2.664062 30.417969 2.664062 30.148438 L 2.664062 28.421875 C 2.664062 28.152344 2.738281 27.949219 2.886719 27.816406 C 3.039062 27.679688 3.25 27.613281 3.523438 27.613281 M 3.480469 27.980469 C 3.359375 27.980469 3.261719 28.015625 3.1875 28.082031 C 3.121094 28.15625 3.085938 28.242188 3.085938 28.339844 L 3.085938 30.230469 C 3.085938 30.328125 3.121094 30.414062 3.1875 30.488281 C 3.261719 30.554688 3.359375 30.589844 3.480469 30.589844 L 3.761719 30.589844 C 3.886719 30.589844 3.984375 30.554688 4.054688 30.488281 C 4.121094 30.414062 4.15625 30.328125 4.15625 30.230469 L 4.15625 28.339844 C 4.15625 28.242188 4.121094 28.15625 4.054688 28.082031 C 3.984375 28.015625 3.886719 27.980469 3.761719 27.980469 L 3.480469 27.980469 M 8.28125 27.972656 L 8.28125 30.597656 L 8.882812 30.597656 C 9.003906 30.597656 9.097656 30.570312 9.15625 30.515625 C 9.210938 30.460938 9.238281 30.371094 9.238281 30.25 L 9.238281 28.3125 C 9.238281 28.207031 9.207031 28.125 9.140625 28.0625 C 9.078125 28.003906 8.996094 27.972656 8.890625 27.972656 L 8.28125 27.972656 M 6.46875 27.613281 L 7.253906 30.957031 L 6.835938 30.957031 L 6.652344 30.109375 L 5.730469 30.109375 L 5.546875 30.957031 L 5.117188 30.957031 L 5.921875 27.613281 L 6.46875 27.613281 M 6.578125 29.753906 L 6.1875 27.925781 L 5.800781 29.753906 L 6.578125 29.753906 M 6.863281 34.8125 L 5.8125 34.8125 L 5.8125 36.015625 L 6.980469 36.015625 L 6.980469 36.363281 L 5.398438 36.363281 L 5.398438 33.023438 L 6.980469 33.023438 L 6.980469 33.371094 L 5.8125 33.371094 L 5.8125 34.464844 L 6.863281 34.464844 L 6.863281 34.8125 M 8.507812 33.492188 C 8.441406 33.5625 8.40625 33.648438 8.40625 33.746094 L 8.40625 35.640625 C 8.40625 35.738281 8.441406 35.824219 8.507812 35.894531 C 8.582031 35.964844 8.679688 35.996094 8.800781 35.996094 L 9.523438 35.996094 L 9.523438 36.363281 L 8.847656 36.363281 C 8.574219 36.363281 8.363281 36.296875 8.214844 36.164062 C 8.070312 36.027344 7.996094 35.824219 7.996094 35.558594 L 7.996094 33.832031 C 7.996094 33.5625 8.070312 33.359375 8.214844 33.222656 C 8.363281 33.089844 8.574219 33.023438 8.847656 33.023438 L 9.523438 33.023438 L 9.523438 33.390625 L 8.800781 33.390625 C 8.679688 33.390625 8.582031 33.421875 8.507812 33.492188 M 3.105469 33.023438 L 3.625 34.152344 L 4.175781 33.023438 L 4.613281 33.023438 L 3.84375 34.628906 L 4.660156 36.363281 L 4.191406 36.363281 L 3.625 35.105469 L 3.023438 36.363281 L 2.574219 36.363281 L 3.40625 34.636719 L 2.65625 33.023438 L 3.105469 33.023438 M 3.644531 38.429688 L 3.160156 40.679688 L 3.726562 40.679688 L 3.726562 39.589844 L 4.136719 39.589844 L 4.136719 40.679688 L 4.496094 40.679688 L 4.496094 41.03125 L 4.136719 41.03125 L 4.136719 41.773438 L 3.726562 41.773438 L 3.726562 41.03125 L 2.75 41.03125 L 2.75 40.617188 L 3.261719 38.429688 L 3.644531 38.429688 M 7.027344 39.386719 L 6.195312 40.324219 L 7.089844 41.773438 L 6.589844 41.773438 L 5.894531 40.605469 L 5.765625 40.753906 L 5.765625 41.773438 L 5.363281 41.773438 L 5.363281 38.429688 L 5.765625 38.429688 L 5.765625 40.230469 L 6.515625 39.386719 L 7.027344 39.386719 M 14.890625 33.023438 L 14.140625 36.363281 L 13.582031 36.363281 L 12.878906 33.023438 L 13.300781 33.023438 L 13.867188 35.941406 L 14.480469 33.023438 L 14.890625 33.023438 M 11.882812 38.605469 C 12.023438 38.722656 12.09375 38.910156 12.09375 39.175781 L 12.09375 39.632812 C 12.09375 39.824219 12.054688 39.972656 11.984375 40.082031 C 11.902344 40.1875 11.796875 40.261719 11.664062 40.304688 L 12.320312 41.773438 L 11.875 41.773438 L 11.261719 40.386719 L 10.792969 40.386719 L 10.792969 41.773438 L 10.375 41.773438 L 10.375 38.429688 L 11.269531 38.429688 C 11.53125 38.429688 11.734375 38.488281 11.882812 38.605469 M 11.324219 38.789062 L 10.792969 38.789062 L 10.792969 40.027344 L 11.324219 40.027344 C 11.445312 40.027344 11.535156 40 11.589844 39.945312 C 11.644531 39.890625 11.671875 39.800781 11.671875 39.679688 L 11.671875 39.128906 C 11.671875 39.011719 11.644531 38.925781 11.589844 38.871094 C 11.535156 38.816406 11.445312 38.789062 11.324219 38.789062 M 14.175781 38.429688 L 14.964844 41.773438 L 14.542969 41.773438 L 14.359375 40.929688 L 13.4375 40.929688 L 13.253906 41.773438 L 12.824219 41.773438 L 13.628906 38.429688 L 14.175781 38.429688 M 14.285156 40.570312 L 13.894531 38.742188 L 13.511719 40.570312 L 14.285156 40.570312 M 16.480469 43.839844 C 16.753906 43.839844 16.960938 43.894531 17.09375 44.003906 C 17.226562 44.117188 17.296875 44.308594 17.296875 44.582031 L 17.296875 44.859375 C 17.296875 44.980469 17.273438 45.089844 17.230469 45.191406 C 17.183594 45.28125 17.117188 45.355469 17.039062 45.410156 C 17.136719 45.464844 17.214844 45.542969 17.269531 45.640625 C 17.316406 45.738281 17.339844 45.855469 17.339844 45.996094 L 17.339844 46.429688 C 17.339844 46.699219 17.28125 46.890625 17.15625 47.007812 C 17.03125 47.125 16.824219 47.183594 16.535156 47.183594 L 15.585938 47.183594 L 15.585938 43.839844 L 16.480469 43.839844 M 11.609375 43.839844 L 11.609375 46.824219 L 12.121094 46.824219 L 12.121094 47.183594 L 10.574219 47.183594 L 10.574219 46.824219 L 11.195312 46.824219 L 11.195312 44.214844 L 10.527344 44.464844 L 10.527344 44.078125 L 11.152344 43.839844 L 11.609375 43.839844 M 9.550781 47.183594 L 8.003906 47.183594 L 8.003906 46.824219 L 8.628906 46.824219 L 8.628906 44.214844 L 7.960938 44.464844 L 7.960938 44.078125 L 8.582031 43.839844 L 9.039062 43.839844 L 9.039062 46.824219 L 9.550781 46.824219 L 9.550781 47.183594 M 15.996094 45.253906 L 16.535156 45.253906 C 16.632812 45.253906 16.714844 45.222656 16.785156 45.164062 C 16.851562 45.09375 16.882812 45.007812 16.882812 44.90625 L 16.882812 44.539062 C 16.882812 44.421875 16.855469 44.335938 16.800781 44.28125 C 16.746094 44.226562 16.660156 44.199219 16.535156 44.199219 L 15.996094 44.199219 L 15.996094 45.253906 M 16.582031 46.824219 C 16.699219 46.824219 16.785156 46.796875 16.847656 46.742188 C 16.902344 46.6875 16.929688 46.597656 16.929688 46.476562 L 16.929688 45.953125 C 16.929688 45.847656 16.898438 45.765625 16.839844 45.703125 C 16.769531 45.644531 16.6875 45.613281 16.582031 45.613281 L 15.996094 45.613281 L 15.996094 46.824219 L 16.582031 46.824219 M 6.570312 43.886719 L 6.808594 44.042969 C 6.882812 44.109375 6.9375 44.191406 6.972656 44.289062 C 7.015625 44.394531 7.035156 44.511719 7.035156 44.648438 L 7.035156 46.375 C 7.035156 46.644531 6.964844 46.84375 6.816406 46.980469 C 6.671875 47.113281 6.460938 47.183594 6.1875 47.183594 L 5.636719 47.183594 L 5.636719 46.816406 L 6.230469 46.816406 C 6.355469 46.816406 6.449219 46.78125 6.523438 46.714844 C 6.589844 46.640625 6.625 46.558594 6.625 46.464844 L 6.625 45.941406 L 6.160156 45.941406 C 5.890625 45.941406 5.691406 45.882812 5.5625 45.769531 C 5.429688 45.644531 5.363281 45.449219 5.363281 45.179688 L 5.363281 44.65625 C 5.363281 44.515625 5.382812 44.394531 5.425781 44.289062 L 5.582031 44.042969 C 5.65625 43.972656 5.738281 43.921875 5.828125 43.886719 L 6.113281 43.839844 L 6.277344 43.839844 L 6.570312 43.886719 M 3.664062 43.839844 C 3.90625 43.839844 4.09375 43.898438 4.230469 44.015625 C 4.371094 44.128906 4.441406 44.320312 4.441406 44.582031 L 4.441406 44.886719 C 4.441406 45.136719 4.355469 45.320312 4.183594 45.4375 C 4.289062 45.492188 4.367188 45.570312 4.421875 45.667969 C 4.46875 45.765625 4.496094 45.882812 4.496094 46.023438 L 4.496094 46.429688 C 4.496094 46.691406 4.433594 46.882812 4.3125 47 C 4.183594 47.121094 3.976562 47.183594 3.691406 47.183594 L 3.550781 47.183594 C 3.265625 47.183594 3.058594 47.121094 2.929688 47 C 2.808594 46.882812 2.75 46.691406 2.75 46.429688 L 2.75 46.023438 C 2.75 45.882812 2.773438 45.765625 2.820312 45.667969 L 3.050781 45.4375 C 2.886719 45.320312 2.804688 45.136719 2.804688 44.886719 L 2.804688 44.582031 C 2.804688 44.320312 2.871094 44.128906 3.011719 44.015625 C 3.148438 43.898438 3.332031 43.839844 3.570312 43.839844 L 3.664062 43.839844 M 4.027344 44.539062 C 4.027344 44.421875 4 44.335938 3.945312 44.28125 C 3.890625 44.226562 3.804688 44.199219 3.691406 44.199219 L 3.515625 44.199219 C 3.40625 44.203125 3.332031 44.234375 3.289062 44.289062 C 3.238281 44.34375 3.214844 44.425781 3.214844 44.539062 L 3.214844 44.933594 C 3.214844 45.035156 3.246094 45.121094 3.304688 45.179688 C 3.367188 45.242188 3.441406 45.273438 3.523438 45.28125 L 3.691406 45.28125 C 3.78125 45.28125 3.859375 45.25 3.925781 45.191406 C 3.996094 45.128906 4.027344 45.042969 4.027344 44.933594 L 4.027344 44.539062 M 3.984375 45.730469 C 3.921875 45.671875 3.839844 45.640625 3.734375 45.640625 L 3.507812 45.640625 C 3.402344 45.640625 3.320312 45.671875 3.261719 45.730469 C 3.191406 45.792969 3.160156 45.875 3.160156 45.980469 L 3.160156 46.476562 C 3.160156 46.589844 3.183594 46.679688 3.234375 46.742188 C 3.28125 46.796875 3.359375 46.824219 3.46875 46.824219 L 3.726562 46.824219 C 3.847656 46.824219 3.941406 46.796875 4 46.742188 C 4.054688 46.6875 4.082031 46.597656 4.082031 46.476562 L 4.082031 45.980469 C 4.082031 45.875 4.050781 45.792969 3.984375 45.730469 M 5.765625 44.566406 L 5.765625 45.273438 C 5.765625 45.363281 5.792969 45.4375 5.847656 45.492188 C 5.902344 45.554688 5.992188 45.585938 6.113281 45.585938 L 6.625 45.585938 L 6.625 44.566406 C 6.625 44.46875 6.59375 44.382812 6.535156 44.308594 C 6.472656 44.234375 6.382812 44.199219 6.257812 44.199219 L 6.140625 44.199219 C 6.019531 44.199219 5.925781 44.234375 5.867188 44.308594 C 5.800781 44.382812 5.765625 44.46875 5.765625 44.566406 M 9.25 49.25 L 9.660156 49.25 L 9.660156 52.589844 L 9.25 52.589844 L 9.25 51.058594 L 8.269531 51.058594 L 8.269531 52.589844 L 7.859375 52.589844 L 7.859375 49.25 L 8.269531 49.25 L 8.269531 50.699219 L 9.25 50.699219 L 9.25 49.25 M 4.054688 49.71875 C 3.984375 49.648438 3.886719 49.617188 3.761719 49.617188 L 3.480469 49.617188 C 3.359375 49.617188 3.261719 49.648438 3.1875 49.71875 C 3.121094 49.789062 3.085938 49.875 3.085938 49.972656 L 3.085938 51.867188 C 3.085938 51.964844 3.121094 52.050781 3.1875 52.121094 C 3.261719 52.191406 3.359375 52.222656 3.480469 52.222656 L 3.761719 52.222656 C 3.886719 52.222656 3.984375 52.191406 4.054688 52.121094 C 4.121094 52.050781 4.15625 51.964844 4.15625 51.867188 L 4.15625 49.972656 C 4.15625 49.875 4.121094 49.789062 4.054688 49.71875 M 4.578125 50.058594 L 4.578125 51.78125 C 4.578125 52.050781 4.5 52.253906 4.347656 52.390625 C 4.203125 52.523438 3.992188 52.589844 3.71875 52.589844 L 3.523438 52.589844 C 3.25 52.589844 3.039062 52.523438 2.886719 52.390625 C 2.738281 52.253906 2.664062 52.050781 2.664062 51.78125 L 2.664062 50.058594 C 2.664062 49.789062 2.738281 49.585938 2.886719 49.449219 C 3.039062 49.316406 3.25 49.25 3.523438 49.25 L 3.71875 49.25 C 3.992188 49.25 4.203125 49.316406 4.347656 49.449219 C 4.5 49.585938 4.578125 49.789062 4.578125 50.058594 M 3.480469 55.023438 C 3.359375 55.023438 3.261719 55.058594 3.1875 55.125 C 3.121094 55.199219 3.085938 55.285156 3.085938 55.382812 L 3.085938 57.273438 C 3.085938 57.371094 3.121094 57.457031 3.1875 57.53125 C 3.261719 57.597656 3.359375 57.632812 3.480469 57.632812 L 3.761719 57.632812 C 3.886719 57.632812 3.984375 57.597656 4.054688 57.53125 C 4.121094 57.457031 4.15625 57.371094 4.15625 57.273438 L 4.15625 55.382812 C 4.15625 55.285156 4.121094 55.199219 4.054688 55.125 C 3.984375 55.058594 3.886719 55.023438 3.761719 55.023438 L 3.480469 55.023438 M 3.523438 54.65625 L 3.71875 54.65625 C 3.992188 54.65625 4.203125 54.726562 4.347656 54.859375 C 4.5 54.992188 4.578125 55.195312 4.578125 55.464844 L 4.578125 57.191406 C 4.578125 57.460938 4.5 57.664062 4.347656 57.796875 C 4.203125 57.933594 3.992188 58 3.71875 58 L 3.523438 58 C 3.25 58 3.039062 57.933594 2.886719 57.796875 C 2.738281 57.664062 2.664062 57.460938 2.664062 57.191406 L 2.664062 55.464844 C 2.664062 55.195312 2.738281 54.992188 2.886719 54.859375 C 3.039062 54.726562 3.25 54.65625 3.523438 54.65625 M 8.78125 54.65625 C 9.058594 54.65625 9.269531 54.710938 9.421875 54.824219 C 9.574219 54.933594 9.652344 55.125 9.652344 55.402344 L 9.652344 57.246094 C 9.652344 57.523438 9.585938 57.714844 9.460938 57.824219 C 9.335938 57.941406 9.132812 58 8.847656 58 L 7.867188 58 L 7.867188 54.65625 L 8.78125 54.65625 M 8.890625 55.015625 L 8.28125 55.015625 L 8.28125 57.640625 L 8.882812 57.640625 C 9.003906 57.640625 9.097656 57.613281 9.15625 57.558594 C 9.210938 57.503906 9.238281 57.414062 9.238281 57.292969 L 9.238281 55.355469 C 9.238281 55.25 9.207031 55.167969 9.140625 55.105469 C 9.078125 55.046875 8.996094 55.015625 8.890625 55.015625 M 6.46875 54.65625 L 7.253906 58 L 6.835938 58 L 6.652344 57.15625 L 5.730469 57.15625 L 5.546875 58 L 5.117188 58 L 5.921875 54.65625 L 6.46875 54.65625 M 6.578125 56.796875 L 6.1875 54.96875 L 5.800781 56.796875 L 6.578125 56.796875 M 16.035156 49.71875 C 15.964844 49.789062 15.933594 49.875 15.933594 49.972656 L 15.933594 51.867188 C 15.933594 51.964844 15.964844 52.050781 16.035156 52.121094 C 16.105469 52.191406 16.203125 52.222656 16.324219 52.222656 L 16.609375 52.222656 C 16.730469 52.222656 16.828125 52.191406 16.902344 52.121094 C 16.96875 52.050781 17.003906 51.964844 17.003906 51.867188 L 17.003906 49.972656 C 17.003906 49.875 16.96875 49.789062 16.902344 49.71875 C 16.828125 49.648438 16.730469 49.617188 16.609375 49.617188 L 16.324219 49.617188 C 16.203125 49.617188 16.105469 49.648438 16.035156 49.71875 M 15.730469 49.449219 C 15.882812 49.316406 16.097656 49.25 16.371094 49.25 L 16.5625 49.25 C 16.839844 49.25 17.046875 49.316406 17.195312 49.449219 C 17.347656 49.585938 17.421875 49.789062 17.421875 50.058594 L 17.421875 51.78125 C 17.421875 52.050781 17.347656 52.253906 17.195312 52.390625 C 17.046875 52.523438 16.839844 52.589844 16.5625 52.589844 L 16.371094 52.589844 C 16.097656 52.589844 15.882812 52.523438 15.730469 52.390625 C 15.585938 52.253906 15.511719 52.050781 15.511719 51.78125 L 15.511719 50.058594 C 15.511719 49.789062 15.585938 49.585938 15.730469 49.449219 M 13.574219 49.25 L 13.574219 52.222656 L 14.632812 52.222656 L 14.632812 52.589844 L 13.164062 52.589844 L 13.164062 49.25 L 13.574219 49.25 M 11.425781 49.25 C 11.699219 49.25 11.910156 49.316406 12.054688 49.449219 C 12.207031 49.585938 12.285156 49.789062 12.285156 50.058594 L 12.285156 51.78125 C 12.285156 52.050781 12.207031 52.253906 12.054688 52.390625 C 11.910156 52.523438 11.699219 52.589844 11.425781 52.589844 L 11.234375 52.589844 C 10.957031 52.589844 10.746094 52.523438 10.59375 52.390625 C 10.445312 52.253906 10.375 52.050781 10.375 51.78125 L 10.375 50.058594 C 10.375 49.789062 10.445312 49.585938 10.59375 49.449219 C 10.746094 49.316406 10.957031 49.25 11.234375 49.25 L 11.425781 49.25 M 11.472656 49.617188 L 11.1875 49.617188 C 11.066406 49.617188 10.96875 49.648438 10.894531 49.71875 C 10.828125 49.789062 10.792969 49.875 10.792969 49.972656 L 10.792969 51.867188 C 10.792969 51.964844 10.828125 52.050781 10.894531 52.121094 C 10.96875 52.191406 11.066406 52.222656 11.1875 52.222656 L 11.472656 52.222656 C 11.59375 52.222656 11.691406 52.191406 11.761719 52.121094 C 11.832031 52.050781 11.863281 51.964844 11.863281 51.867188 L 11.863281 49.972656 C 11.863281 49.875 11.832031 49.789062 11.761719 49.71875 C 11.691406 49.648438 11.59375 49.617188 11.472656 49.617188 M 31.503906 41.425781 L 32.675781 41.425781 L 32.675781 41.773438 L 31.09375 41.773438 L 31.09375 38.429688 L 32.675781 38.429688 L 32.675781 38.78125 L 31.503906 38.78125 L 31.503906 39.871094 L 32.554688 39.871094 L 32.554688 40.222656 L 31.503906 40.222656 L 31.503906 41.425781 M 27.472656 43.839844 L 27.472656 44.207031 L 26.742188 44.207031 C 26.625 44.207031 26.53125 44.242188 26.457031 44.308594 C 26.382812 44.382812 26.347656 44.46875 26.347656 44.566406 L 26.347656 44.921875 C 26.347656 45.019531 26.378906 45.105469 26.4375 45.171875 C 26.503906 45.238281 26.589844 45.273438 26.695312 45.273438 L 26.832031 45.273438 C 27.050781 45.273438 27.226562 45.332031 27.351562 45.457031 C 27.480469 45.585938 27.546875 45.785156 27.546875 46.054688 L 27.546875 46.375 C 27.546875 46.644531 27.472656 46.84375 27.324219 46.980469 C 27.179688 47.113281 26.96875 47.183594 26.695312 47.183594 L 26.019531 47.183594 L 26.019531 46.816406 L 26.742188 46.816406 C 26.863281 46.816406 26.957031 46.78125 27.023438 46.714844 C 27.097656 46.640625 27.132812 46.558594 27.132812 46.464844 L 27.132812 45.960938 C 27.132812 45.871094 27.109375 45.796875 27.058594 45.742188 C 27.019531 45.679688 26.945312 45.648438 26.839844 45.648438 L 26.695312 45.648438 C 26.46875 45.648438 26.285156 45.582031 26.144531 45.445312 C 26.007812 45.3125 25.9375 45.105469 25.9375 44.832031 L 25.9375 44.65625 C 25.9375 44.382812 26.007812 44.175781 26.15625 44.042969 C 26.300781 43.90625 26.511719 43.839844 26.785156 43.839844 L 27.472656 43.839844 M 24.847656 45.628906 L 23.796875 45.628906 L 23.796875 46.832031 L 24.964844 46.832031 L 24.964844 47.183594 L 23.386719 47.183594 L 23.386719 43.839844 L 24.964844 43.839844 L 24.964844 44.1875 L 23.796875 44.1875 L 23.796875 45.28125 L 24.847656 45.28125 L 24.847656 45.628906 M 31.511719 45.328125 L 32.574219 45.328125 L 32.574219 45.675781 L 31.511719 45.675781 L 31.511719 47.183594 L 31.101562 47.183594 L 31.101562 43.839844 L 32.691406 43.839844 L 32.691406 44.1875 L 31.511719 44.1875 L 31.511719 45.328125 M 22.570312 43.839844 L 22.570312 44.207031 L 21.8125 44.207031 L 21.8125 47.183594 L 21.402344 47.183594 L 21.402344 44.207031 L 20.640625 44.207031 L 20.640625 43.839844 L 22.570312 43.839844 M 20.101562 43.839844 L 19.242188 45.628906 L 19.242188 47.183594 L 18.8125 47.183594 L 18.8125 45.628906 L 17.960938 43.839844 L 18.421875 43.839844 L 19.042969 45.226562 L 19.671875 43.839844 L 20.101562 43.839844 M 21.886719 49.25 L 22.671875 52.589844 L 22.25 52.589844 L 22.066406 51.746094 L 21.144531 51.746094 L 20.960938 52.589844 L 20.53125 52.589844 L 21.335938 49.25 L 21.886719 49.25 M 21.996094 51.386719 L 21.601562 49.5625 L 21.21875 51.386719 L 21.996094 51.386719 M 23.730469 52.589844 L 23.320312 52.589844 L 23.320312 49.25 L 24.21875 49.25 C 24.480469 49.25 24.683594 49.308594 24.828125 49.421875 C 24.96875 49.539062 25.039062 49.730469 25.039062 49.992188 L 25.039062 50.535156 C 25.039062 50.796875 24.96875 50.992188 24.828125 51.113281 C 24.6875 51.234375 24.488281 51.296875 24.226562 51.296875 L 23.730469 51.296875 L 23.730469 52.589844 M 23.730469 50.929688 L 24.273438 50.929688 C 24.394531 50.929688 24.480469 50.902344 24.535156 50.847656 C 24.589844 50.792969 24.621094 50.707031 24.621094 50.589844 L 24.621094 49.945312 C 24.621094 49.832031 24.589844 49.746094 24.535156 49.6875 C 24.480469 49.632812 24.394531 49.605469 24.273438 49.605469 L 23.730469 49.605469 L 23.730469 50.929688 M 19.242188 49.617188 L 19.242188 52.589844 L 18.832031 52.589844 L 18.832031 49.617188 L 18.074219 49.617188 L 18.074219 49.25 L 20 49.25 L 20 49.617188 L 19.242188 49.617188 M 31.511719 52.589844 L 31.101562 52.589844 L 31.101562 49.25 L 32.691406 49.25 L 32.691406 49.597656 L 31.511719 49.597656 L 31.511719 50.734375 L 32.574219 50.734375 L 32.574219 51.085938 L 31.511719 51.085938 L 31.511719 52.589844 M 27.535156 49.597656 L 26.367188 49.597656 L 26.367188 50.691406 L 27.417969 50.691406 L 27.417969 51.039062 L 26.367188 51.039062 L 26.367188 52.242188 L 27.535156 52.242188 L 27.535156 52.589844 L 25.953125 52.589844 L 25.953125 49.25 L 27.535156 49.25 L 27.535156 49.597656 M 58.011719 22.609375 L 58.046875 23.132812 L 58.046875 24.621094 L 58.011719 25.152344 C 57.980469 25.304688 57.941406 25.441406 57.890625 25.554688 C 57.847656 25.679688 57.792969 25.785156 57.726562 25.878906 L 57.515625 26.117188 L 57.097656 26.117188 C 57.207031 25.992188 57.292969 25.878906 57.363281 25.777344 C 57.429688 25.679688 57.488281 25.574219 57.535156 25.464844 C 57.570312 25.359375 57.597656 25.242188 57.617188 25.105469 C 57.636719 24.972656 57.644531 24.8125 57.644531 24.628906 L 57.644531 23.121094 C 57.644531 22.9375 57.636719 22.78125 57.617188 22.644531 L 57.535156 22.289062 L 57.363281 21.976562 L 57.097656 21.636719 L 57.515625 21.636719 L 57.726562 21.882812 L 57.890625 22.195312 C 57.941406 22.3125 57.980469 22.449219 58.011719 22.609375 M 55.769531 23.40625 C 55.769531 23.597656 55.734375 23.746094 55.660156 23.859375 C 55.582031 23.960938 55.476562 24.035156 55.339844 24.078125 L 56 25.546875 L 55.550781 25.546875 L 54.9375 24.160156 L 54.472656 24.160156 L 54.472656 25.546875 L 54.050781 25.546875 L 54.050781 22.203125 L 54.949219 22.203125 C 55.210938 22.203125 55.414062 22.261719 55.5625 22.378906 C 55.699219 22.496094 55.769531 22.683594 55.769531 22.949219 L 55.769531 23.40625 M 55.351562 22.902344 C 55.351562 22.785156 55.324219 22.699219 55.269531 22.644531 C 55.214844 22.589844 55.125 22.5625 55.003906 22.5625 L 54.472656 22.5625 L 54.472656 23.800781 L 55.003906 23.800781 C 55.125 23.800781 55.214844 23.773438 55.269531 23.71875 C 55.324219 23.664062 55.351562 23.574219 55.351562 23.453125 L 55.351562 22.902344 M 52.289062 21.882812 L 52.496094 21.636719 L 52.910156 21.636719 L 52.652344 21.976562 L 52.480469 22.289062 L 52.386719 22.644531 L 52.371094 23.121094 L 52.371094 24.628906 L 52.386719 25.105469 L 52.480469 25.464844 L 52.652344 25.777344 L 52.910156 26.117188 L 52.496094 26.117188 L 52.289062 25.878906 L 52.121094 25.554688 L 52.003906 25.152344 L 51.957031 24.621094 L 51.957031 23.132812 L 52.003906 22.609375 L 52.121094 22.195312 L 52.289062 21.882812 M 50.824219 23.011719 L 50.824219 24.738281 C 50.824219 25.007812 50.75 25.210938 50.597656 25.34375 C 50.449219 25.480469 50.238281 25.546875 49.964844 25.546875 L 49.773438 25.546875 C 49.5 25.546875 49.285156 25.480469 49.132812 25.34375 C 48.988281 25.210938 48.914062 25.007812 48.914062 24.738281 L 48.914062 23.011719 C 48.914062 22.742188 48.988281 22.542969 49.132812 22.40625 C 49.285156 22.273438 49.5 22.203125 49.773438 22.203125 L 49.964844 22.203125 C 50.238281 22.203125 50.449219 22.273438 50.597656 22.40625 C 50.75 22.542969 50.824219 22.742188 50.824219 23.011719 M 50.304688 22.671875 C 50.230469 22.605469 50.132812 22.570312 50.011719 22.570312 L 49.726562 22.570312 C 49.605469 22.570312 49.507812 22.605469 49.433594 22.671875 C 49.367188 22.746094 49.332031 22.832031 49.332031 22.929688 L 49.332031 24.820312 C 49.332031 24.917969 49.367188 25.003906 49.433594 25.078125 C 49.507812 25.144531 49.605469 25.179688 49.726562 25.179688 L 50.011719 25.179688 C 50.132812 25.179688 50.230469 25.144531 50.304688 25.078125 C 50.371094 25.003906 50.402344 24.917969 50.402344 24.820312 L 50.402344 22.929688 C 50.402344 22.832031 50.371094 22.746094 50.304688 22.671875 M 48.0625 22.570312 L 47.339844 22.570312 C 47.21875 22.570312 47.121094 22.605469 47.046875 22.671875 C 46.980469 22.746094 46.949219 22.832031 46.949219 22.929688 L 46.949219 24.820312 C 46.949219 24.917969 46.980469 25.003906 47.046875 25.078125 C 47.121094 25.144531 47.21875 25.179688 47.339844 25.179688 L 48.0625 25.179688 L 48.0625 25.546875 L 47.386719 25.546875 C 47.113281 25.546875 46.902344 25.480469 46.753906 25.34375 C 46.609375 25.210938 46.535156 25.007812 46.535156 24.738281 L 46.535156 23.011719 C 46.535156 22.742188 46.609375 22.542969 46.753906 22.40625 C 46.902344 22.273438 47.113281 22.203125 47.386719 22.203125 L 48.0625 22.203125 L 48.0625 22.570312 M 45.558594 22.949219 L 45.558594 23.222656 C 45.558594 23.347656 45.535156 23.457031 45.492188 23.554688 C 45.445312 23.644531 45.382812 23.71875 45.300781 23.773438 C 45.398438 23.828125 45.476562 23.90625 45.53125 24.003906 C 45.578125 24.101562 45.601562 24.222656 45.601562 24.363281 L 45.601562 24.792969 C 45.601562 25.0625 45.542969 25.257812 45.421875 25.371094 C 45.292969 25.488281 45.085938 25.546875 44.796875 25.546875 L 43.847656 25.546875 L 43.847656 22.203125 L 44.742188 22.203125 C 45.019531 22.203125 45.222656 22.257812 45.355469 22.371094 C 45.492188 22.480469 45.558594 22.671875 45.558594 22.949219 M 45.0625 22.644531 L 44.796875 22.5625 L 44.257812 22.5625 L 44.257812 23.617188 L 44.796875 23.617188 C 44.894531 23.617188 44.980469 23.589844 45.046875 23.527344 C 45.113281 23.460938 45.144531 23.375 45.144531 23.269531 L 45.144531 22.902344 C 45.144531 22.785156 45.117188 22.699219 45.0625 22.644531 M 43.117188 23.011719 L 43.117188 24.738281 C 43.117188 25.007812 43.039062 25.210938 42.886719 25.34375 C 42.742188 25.480469 42.53125 25.546875 42.257812 25.546875 L 42.066406 25.546875 C 41.789062 25.546875 41.578125 25.480469 41.425781 25.34375 C 41.277344 25.210938 41.207031 25.007812 41.207031 24.738281 L 41.207031 23.011719 C 41.207031 22.742188 41.277344 22.542969 41.425781 22.40625 C 41.578125 22.273438 41.789062 22.203125 42.066406 22.203125 L 42.257812 22.203125 C 42.53125 22.203125 42.742188 22.273438 42.886719 22.40625 C 43.039062 22.542969 43.117188 22.742188 43.117188 23.011719 M 44.257812 25.1875 L 44.84375 25.1875 C 44.960938 25.1875 45.046875 25.160156 45.109375 25.105469 C 45.164062 25.050781 45.191406 24.960938 45.191406 24.839844 L 45.191406 24.316406 C 45.191406 24.210938 45.160156 24.128906 45.101562 24.070312 C 45.035156 24.007812 44.949219 23.976562 44.84375 23.976562 L 44.257812 23.976562 L 44.257812 25.1875 M 42.695312 22.929688 C 42.695312 22.832031 42.664062 22.746094 42.59375 22.671875 C 42.523438 22.605469 42.425781 22.570312 42.300781 22.570312 L 42.019531 22.570312 C 41.898438 22.570312 41.800781 22.605469 41.726562 22.671875 C 41.660156 22.746094 41.625 22.832031 41.625 22.929688 L 41.625 24.820312 C 41.625 24.917969 41.660156 25.003906 41.726562 25.078125 C 41.800781 25.144531 41.898438 25.179688 42.019531 25.179688 L 42.300781 25.179688 C 42.425781 25.179688 42.523438 25.144531 42.59375 25.078125 C 42.664062 25.003906 42.695312 24.917969 42.695312 24.820312 L 42.695312 22.929688 M 39.851562 22.644531 C 39.796875 22.589844 39.707031 22.5625 39.585938 22.5625 L 39.058594 22.5625 L 39.058594 23.800781 L 39.585938 23.800781 C 39.707031 23.800781 39.796875 23.773438 39.851562 23.71875 C 39.90625 23.664062 39.933594 23.574219 39.933594 23.453125 L 39.933594 22.902344 C 39.933594 22.785156 39.90625 22.699219 39.851562 22.644531 M 40.144531 22.378906 C 40.285156 22.496094 40.355469 22.683594 40.355469 22.949219 L 40.355469 23.40625 C 40.355469 23.597656 40.320312 23.746094 40.246094 23.859375 C 40.167969 23.960938 40.058594 24.035156 39.925781 24.078125 L 40.582031 25.546875 L 40.136719 25.546875 L 39.523438 24.160156 L 39.058594 24.160156 L 39.058594 25.546875 L 38.636719 25.546875 L 38.636719 22.203125 L 39.53125 22.203125 C 39.792969 22.203125 40 22.261719 40.144531 22.378906 M 34.914062 22.628906 L 34.035156 22.628906 L 34.035156 23.582031 L 34.21875 23.582031 C 34.453125 23.582031 34.636719 23.636719 34.777344 23.746094 C 34.917969 23.859375 34.988281 24.042969 34.988281 24.296875 L 34.988281 24.804688 C 34.988281 25.066406 34.925781 25.257812 34.804688 25.371094 C 34.683594 25.488281 34.480469 25.546875 34.203125 25.546875 L 33.589844 25.546875 L 33.589844 25.199219 L 34.238281 25.199219 C 34.359375 25.199219 34.445312 25.167969 34.492188 25.105469 C 34.554688 25.058594 34.585938 24.972656 34.585938 24.847656 L 34.585938 24.261719 C 34.585938 24.15625 34.550781 24.074219 34.484375 24.011719 C 34.425781 23.957031 34.34375 23.929688 34.246094 23.929688 L 33.632812 23.929688 L 33.632812 22.277344 L 34.914062 22.277344 L 34.914062 22.628906 M 37.300781 33.023438 L 37.300781 36.007812 L 37.8125 36.007812 L 37.8125 36.363281 L 36.269531 36.363281 L 36.269531 36.007812 L 36.890625 36.007812 L 36.890625 33.398438 L 36.222656 33.648438 L 36.222656 33.261719 L 36.84375 33.023438 L 37.300781 33.023438 M 34.96875 34.179688 L 34.96875 35.273438 L 35.324219 35.273438 L 35.324219 35.621094 L 34.96875 35.621094 L 34.96875 36.363281 L 34.558594 36.363281 L 34.558594 35.621094 L 33.578125 35.621094 L 33.578125 35.207031 L 34.089844 33.023438 L 34.476562 33.023438 L 33.992188 35.273438 L 34.558594 35.273438 L 34.558594 34.179688 L 34.96875 34.179688 M 34.082031 38.429688 L 34.457031 40.140625 L 34.851562 38.429688 L 35.492188 38.429688 L 35.492188 41.773438 L 35.117188 41.773438 L 35.117188 38.769531 L 34.640625 40.652344 L 34.246094 40.652344 L 33.78125 38.769531 L 33.78125 41.773438 L 33.425781 41.773438 L 33.425781 38.429688 L 34.082031 38.429688 M 44.285156 33.746094 L 44.285156 35.042969 L 45.171875 33.746094 C 45.171875 33.648438 45.136719 33.5625 45.0625 33.492188 C 44.996094 33.417969 44.902344 33.378906 44.78125 33.378906 L 44.679688 33.378906 C 44.558594 33.378906 44.464844 33.417969 44.394531 33.492188 C 44.324219 33.5625 44.285156 33.648438 44.285156 33.746094 M 44.105469 33.214844 C 44.25 33.085938 44.441406 33.023438 44.679688 33.023438 L 44.78125 33.023438 C 45.019531 33.023438 45.210938 33.085938 45.355469 33.214844 C 45.503906 33.351562 45.574219 33.554688 45.574219 33.832031 L 45.574219 35.558594 C 45.574219 35.824219 45.503906 36.027344 45.355469 36.164062 C 45.210938 36.296875 45.019531 36.363281 44.78125 36.363281 L 44.679688 36.363281 C 44.441406 36.363281 44.25 36.296875 44.105469 36.164062 C 43.957031 36.027344 43.882812 35.824219 43.882812 35.558594 L 43.882812 33.832031 C 43.882812 33.554688 43.957031 33.351562 44.105469 33.214844 M 41.359375 33.261719 L 41.984375 33.023438 L 42.441406 33.023438 L 42.441406 36.007812 L 42.953125 36.007812 L 42.953125 36.363281 L 41.40625 36.363281 L 41.40625 36.007812 L 42.027344 36.007812 L 42.027344 33.398438 L 41.359375 33.648438 L 41.359375 33.261719 M 39.824219 35.886719 L 39.824219 36.363281 L 39.347656 36.363281 L 39.347656 35.886719 L 39.824219 35.886719 M 44.78125 36.007812 C 44.902344 36.007812 44.996094 35.96875 45.0625 35.894531 C 45.136719 35.824219 45.171875 35.738281 45.171875 35.640625 L 45.171875 34.355469 L 44.285156 35.640625 C 44.285156 35.738281 44.324219 35.824219 44.394531 35.894531 C 44.464844 35.96875 44.558594 36.007812 44.679688 36.007812 L 44.78125 36.007812 M 39.210938 44.1875 L 39.210938 45.28125 L 40.261719 45.28125 L 40.261719 45.628906 L 39.210938 45.628906 L 39.210938 46.832031 L 40.382812 46.832031 L 40.382812 47.183594 L 38.800781 47.183594 L 38.800781 43.839844 L 40.382812 43.839844 L 40.382812 44.1875 L 39.210938 44.1875 M 37.8125 43.839844 L 37.8125 44.1875 L 36.644531 44.1875 L 36.644531 45.28125 L 37.695312 45.28125 L 37.695312 45.628906 L 36.644531 45.628906 L 36.644531 46.832031 L 37.8125 46.832031 L 37.8125 47.183594 L 36.230469 47.183594 L 36.230469 43.839844 L 37.8125 43.839844 M 34.394531 43.839844 C 34.65625 43.839844 34.859375 43.898438 35.007812 44.015625 C 35.144531 44.128906 35.214844 44.320312 35.214844 44.582031 L 35.214844 45.042969 C 35.214844 45.234375 35.179688 45.382812 35.105469 45.492188 C 35.027344 45.597656 34.921875 45.671875 34.785156 45.714844 L 35.445312 47.183594 L 34.996094 47.183594 L 34.382812 45.796875 L 33.917969 45.796875 L 33.917969 47.183594 L 33.496094 47.183594 L 33.496094 43.839844 L 34.394531 43.839844 M 34.714844 44.28125 C 34.660156 44.226562 34.570312 44.199219 34.449219 44.199219 L 33.917969 44.199219 L 33.917969 45.4375 L 34.449219 45.4375 C 34.570312 45.4375 34.660156 45.410156 34.714844 45.355469 C 34.769531 45.300781 34.796875 45.210938 34.796875 45.089844 L 34.796875 44.539062 C 34.796875 44.421875 34.769531 44.335938 34.714844 44.28125 M 37.933594 49.25 L 37.933594 51.78125 C 37.933594 52.050781 37.859375 52.253906 37.710938 52.390625 C 37.566406 52.523438 37.355469 52.589844 37.082031 52.589844 L 36.960938 52.589844 C 36.683594 52.589844 36.46875 52.523438 36.324219 52.390625 C 36.175781 52.253906 36.101562 52.050781 36.101562 51.78125 L 36.101562 49.25 L 36.515625 49.25 L 36.515625 51.867188 C 36.515625 51.964844 36.550781 52.050781 36.625 52.121094 C 36.699219 52.191406 36.792969 52.222656 36.90625 52.222656 L 37.128906 52.222656 C 37.25 52.222656 37.34375 52.191406 37.410156 52.121094 C 37.484375 52.050781 37.519531 51.964844 37.519531 51.867188 L 37.519531 49.25 L 37.933594 49.25 M 35.410156 51.78125 C 35.410156 52.050781 35.332031 52.253906 35.179688 52.390625 C 35.035156 52.523438 34.824219 52.589844 34.550781 52.589844 L 34.355469 52.589844 C 34.082031 52.589844 33.871094 52.523438 33.71875 52.390625 C 33.570312 52.253906 33.496094 52.050781 33.496094 51.78125 L 33.496094 50.058594 C 33.496094 49.789062 33.570312 49.585938 33.71875 49.449219 C 33.871094 49.316406 34.082031 49.25 34.355469 49.25 L 34.550781 49.25 C 34.824219 49.25 35.035156 49.316406 35.179688 49.449219 C 35.332031 49.585938 35.410156 49.789062 35.410156 50.058594 L 35.410156 51.78125 M 38.683594 49.25 L 39.359375 49.25 L 40.109375 52.234375 L 40.109375 49.25 L 40.492188 49.25 L 40.492188 52.589844 L 39.816406 52.589844 L 39.066406 49.597656 L 39.066406 52.589844 L 38.683594 52.589844 L 38.683594 49.25 M 33.917969 49.972656 L 33.917969 51.867188 C 33.917969 51.964844 33.953125 52.050781 34.019531 52.121094 C 34.089844 52.191406 34.1875 52.222656 34.3125 52.222656 L 34.59375 52.222656 C 34.714844 52.222656 34.8125 52.191406 34.886719 52.121094 C 34.953125 52.050781 34.988281 51.964844 34.988281 51.867188 L 34.988281 49.972656 C 34.988281 49.875 34.953125 49.789062 34.886719 49.71875 C 34.8125 49.648438 34.714844 49.617188 34.59375 49.617188 L 34.3125 49.617188 C 34.1875 49.617188 34.089844 49.648438 34.019531 49.71875 C 33.953125 49.789062 33.917969 49.875 33.917969 49.972656 M 43.050781 49.992188 L 43.050781 51.839844 C 43.050781 52.113281 42.988281 52.304688 42.859375 52.417969 C 42.738281 52.53125 42.535156 52.589844 42.246094 52.589844 L 41.269531 52.589844 L 41.269531 49.25 L 42.183594 49.25 C 42.457031 49.25 42.671875 49.304688 42.824219 49.414062 C 42.976562 49.523438 43.050781 49.71875 43.050781 49.992188 M 42.539062 49.699219 C 42.480469 49.636719 42.398438 49.605469 42.292969 49.605469 L 41.679688 49.605469 L 41.679688 52.234375 L 42.285156 52.234375 C 42.40625 52.234375 42.496094 52.207031 42.558594 52.152344 C 42.613281 52.09375 42.640625 52.007812 42.640625 51.882812 L 42.640625 49.945312 C 42.640625 49.84375 42.605469 49.757812 42.539062 49.699219 "/>
</g>
</svg>
