<?xml version="1.0" encoding="UTF-8"?>
<svg xmlns="http://www.w3.org/2000/svg" xmlns:xlink="http://www.w3.org/1999/xlink" width="128pt" height="47pt" viewBox="0 0 128 47" version="1.1">
<g id="surface1">
<path style=" stroke:none;fill-rule:nonzero;fill:rgb(100%,100%,100%);fill-opacity:1;" d="M 109.199219 0.457031 L 109.132812 1.1875 L 109.8125 0.925781 L 109.9375 1.300781 L 109.234375 1.445312 L 109.738281 2.03125 L 109.398438 2.277344 L 108.976562 1.601562 L 108.546875 2.277344 L 108.210938 2.03125 L 108.722656 1.445312 L 108.027344 1.300781 L 108.164062 0.914062 L 108.832031 1.1875 L 108.769531 0.457031 L 109.199219 0.457031 M 106.628906 0.457031 L 106.5625 1.1875 L 107.242188 0.925781 L 107.367188 1.300781 L 106.664062 1.445312 L 107.167969 2.03125 L 106.828125 2.277344 L 106.40625 1.601562 L 105.976562 2.277344 L 105.640625 2.03125 L 106.152344 1.445312 L 105.457031 1.300781 L 105.59375 0.914062 L 106.261719 1.1875 L 106.199219 0.457031 L 106.628906 0.457031 M 111.769531 0.457031 L 111.703125 1.1875 L 112.382812 0.925781 L 112.507812 1.300781 L 111.804688 1.445312 L 112.308594 2.03125 L 111.96875 2.277344 L 111.550781 1.601562 L 111.117188 2.277344 L 110.78125 2.03125 L 111.292969 1.445312 L 110.597656 1.300781 L 110.734375 0.914062 L 111.402344 1.1875 L 111.339844 0.457031 L 111.769531 0.457031 M 114.339844 0.457031 L 114.273438 1.1875 L 114.953125 0.925781 L 115.078125 1.300781 L 114.375 1.445312 L 114.878906 2.03125 L 114.539062 2.277344 L 114.121094 1.601562 L 113.6875 2.277344 L 113.351562 2.03125 L 113.863281 1.445312 L 113.167969 1.300781 L 113.304688 0.914062 L 113.972656 1.1875 L 113.910156 0.457031 L 114.339844 0.457031 M 115.921875 2.03125 L 116.433594 1.445312 L 115.738281 1.300781 L 115.875 0.914062 L 116.542969 1.1875 L 116.480469 0.457031 L 116.910156 0.457031 L 116.84375 1.1875 L 117.523438 0.925781 L 117.648438 1.300781 L 116.945312 1.445312 L 117.449219 2.03125 L 117.109375 2.277344 L 116.691406 1.601562 L 116.261719 2.277344 L 115.921875 2.03125 M 119.480469 0.457031 L 119.414062 1.1875 L 120.09375 0.925781 L 120.222656 1.300781 L 119.515625 1.445312 L 120.019531 2.03125 L 119.679688 2.277344 L 119.261719 1.601562 L 118.832031 2.277344 L 118.492188 2.03125 L 119.003906 1.445312 L 118.308594 1.300781 L 118.445312 0.914062 L 119.113281 1.1875 L 119.050781 0.457031 L 119.480469 0.457031 M 93.773438 0.457031 L 93.710938 1.1875 L 94.386719 0.925781 L 94.515625 1.300781 L 93.8125 1.445312 L 94.316406 2.03125 L 93.976562 2.277344 L 93.554688 1.601562 L 93.125 2.277344 L 92.789062 2.03125 L 93.300781 1.445312 L 92.605469 1.300781 L 92.742188 0.914062 L 93.410156 1.1875 L 93.34375 0.457031 L 93.773438 0.457031 M 91.945312 1.300781 L 91.242188 1.445312 L 91.746094 2.03125 L 91.40625 2.277344 L 90.984375 1.601562 L 90.554688 2.277344 L 90.21875 2.03125 L 90.730469 1.445312 L 90.035156 1.300781 L 90.171875 0.914062 L 90.839844 1.1875 L 90.773438 0.457031 L 91.203125 0.457031 L 91.140625 1.1875 L 91.816406 0.925781 L 91.945312 1.300781 M 96.34375 0.457031 L 96.28125 1.1875 L 96.957031 0.925781 L 97.085938 1.300781 L 96.382812 1.445312 L 96.886719 2.03125 L 96.546875 2.277344 L 96.125 1.601562 L 95.695312 2.277344 L 95.359375 2.03125 L 95.871094 1.445312 L 95.175781 1.300781 L 95.3125 0.914062 L 95.980469 1.1875 L 95.914062 0.457031 L 96.34375 0.457031 M 97.882812 0.914062 L 98.550781 1.1875 L 98.484375 0.457031 L 98.917969 0.457031 L 98.851562 1.1875 L 99.527344 0.925781 L 99.65625 1.300781 L 98.953125 1.445312 L 99.457031 2.03125 L 99.117188 2.277344 L 98.695312 1.601562 L 98.265625 2.277344 L 97.929688 2.03125 L 98.441406 1.445312 L 97.746094 1.300781 L 97.882812 0.914062 M 101.488281 0.457031 L 101.421875 1.1875 L 102.097656 0.925781 L 102.226562 1.300781 L 101.523438 1.445312 L 102.027344 2.03125 L 101.6875 2.277344 L 101.265625 1.601562 L 100.835938 2.277344 L 100.5 2.03125 L 101.011719 1.445312 L 100.316406 1.300781 L 100.453125 0.914062 L 101.121094 1.1875 L 101.054688 0.457031 L 101.488281 0.457031 M 103.070312 2.03125 L 103.582031 1.445312 L 102.886719 1.300781 L 103.023438 0.914062 L 103.691406 1.1875 L 103.628906 0.457031 L 104.058594 0.457031 L 103.992188 1.1875 L 104.667969 0.925781 L 104.796875 1.300781 L 104.09375 1.445312 L 104.597656 2.03125 L 104.257812 2.277344 L 103.835938 1.601562 L 103.40625 2.277344 L 103.070312 2.03125 M 80.757812 0.566406 C 80.996094 0.566406 81.1875 0.632812 81.335938 0.757812 C 81.480469 0.894531 81.554688 1.097656 81.554688 1.371094 L 81.554688 3.09375 C 81.554688 3.359375 81.480469 3.5625 81.335938 3.695312 C 81.1875 3.828125 80.996094 3.898438 80.757812 3.898438 L 80.65625 3.898438 C 80.417969 3.898438 80.226562 3.828125 80.082031 3.695312 C 79.933594 3.5625 79.863281 3.359375 79.863281 3.09375 L 79.863281 1.371094 C 79.863281 1.097656 79.933594 0.894531 80.082031 0.757812 C 80.226562 0.632812 80.417969 0.566406 80.65625 0.566406 L 80.757812 0.566406 M 80.375 1.035156 C 80.300781 1.105469 80.265625 1.191406 80.265625 1.289062 L 80.265625 2.578125 L 81.152344 1.289062 C 81.152344 1.191406 81.113281 1.105469 81.042969 1.035156 C 80.976562 0.960938 80.878906 0.925781 80.757812 0.925781 L 80.65625 0.925781 C 80.535156 0.925781 80.441406 0.960938 80.375 1.035156 M 85.890625 0.566406 C 86.132812 0.566406 86.324219 0.625 86.457031 0.742188 C 86.597656 0.855469 86.667969 1.046875 86.667969 1.308594 L 86.667969 1.609375 C 86.667969 1.859375 86.582031 2.042969 86.410156 2.160156 C 86.515625 2.214844 86.59375 2.289062 86.648438 2.386719 C 86.699219 2.484375 86.722656 2.605469 86.722656 2.746094 L 86.722656 3.148438 C 86.722656 3.410156 86.660156 3.597656 86.539062 3.714844 C 86.410156 3.835938 86.203125 3.898438 85.917969 3.898438 L 85.78125 3.898438 C 85.492188 3.898438 85.285156 3.835938 85.160156 3.714844 C 85.035156 3.597656 84.976562 3.410156 84.976562 3.148438 L 84.976562 2.746094 C 84.976562 2.605469 85 2.484375 85.046875 2.386719 C 85.101562 2.289062 85.179688 2.214844 85.277344 2.160156 C 85.113281 2.042969 85.03125 1.859375 85.03125 1.609375 L 85.03125 1.308594 C 85.03125 1.046875 85.101562 0.855469 85.242188 0.742188 C 85.375 0.625 85.5625 0.566406 85.796875 0.566406 L 85.890625 0.566406 M 86.257812 1.261719 C 86.257812 1.148438 86.226562 1.0625 86.171875 1.007812 C 86.117188 0.953125 86.035156 0.925781 85.917969 0.925781 L 85.742188 0.925781 C 85.632812 0.929688 85.558594 0.960938 85.515625 1.015625 C 85.464844 1.070312 85.441406 1.152344 85.441406 1.261719 L 85.441406 1.65625 C 85.441406 1.757812 85.472656 1.839844 85.535156 1.902344 C 85.59375 1.964844 85.667969 1.996094 85.753906 2.003906 L 85.917969 2.003906 C 86.007812 2.003906 86.089844 1.972656 86.15625 1.910156 C 86.222656 1.851562 86.257812 1.765625 86.257812 1.65625 L 86.257812 1.261719 M 85.488281 2.453125 C 85.421875 2.511719 85.386719 2.59375 85.386719 2.699219 L 85.386719 3.191406 C 85.386719 3.308594 85.410156 3.398438 85.460938 3.457031 C 85.507812 3.511719 85.589844 3.539062 85.699219 3.539062 L 85.953125 3.539062 C 86.074219 3.539062 86.167969 3.511719 86.226562 3.457031 C 86.285156 3.402344 86.3125 3.316406 86.3125 3.191406 L 86.3125 2.699219 C 86.3125 2.59375 86.277344 2.511719 86.210938 2.453125 C 86.148438 2.390625 86.066406 2.359375 85.964844 2.359375 L 85.734375 2.359375 C 85.628906 2.359375 85.546875 2.390625 85.488281 2.453125 M 62.234375 0 L 62.65625 0 L 62.867188 0.246094 L 63.03125 0.558594 L 63.148438 0.96875 L 63.1875 1.492188 L 63.1875 2.972656 L 63.148438 3.503906 L 63.03125 3.90625 L 62.867188 4.226562 L 62.65625 4.464844 L 62.234375 4.464844 L 62.5 4.125 L 62.671875 3.816406 L 62.757812 3.457031 L 62.785156 2.980469 L 62.785156 1.480469 L 62.757812 1.007812 L 62.671875 0.648438 L 62.5 0.339844 L 62.234375 0 M 67.257812 0.566406 L 67.824219 3.476562 L 68.4375 0.566406 L 68.847656 0.566406 L 68.097656 3.898438 L 67.539062 3.898438 L 66.835938 0.566406 L 67.257812 0.566406 M 69.636719 0.566406 L 71.179688 0.566406 L 71.179688 1.023438 L 70.347656 3.898438 L 69.917969 3.898438 L 70.789062 0.925781 L 69.636719 0.925781 L 69.636719 0.566406 M 75.390625 0.566406 L 75.847656 0.566406 L 75.847656 3.539062 L 76.359375 3.539062 L 76.359375 3.898438 L 74.8125 3.898438 L 74.8125 3.539062 L 75.433594 3.539062 L 75.433594 0.941406 L 74.765625 1.1875 L 74.765625 0.804688 L 75.390625 0.566406 M 73.230469 3.421875 L 73.230469 3.898438 L 72.753906 3.898438 L 72.753906 3.421875 L 73.230469 3.421875 M 83.511719 3.898438 L 83.035156 3.898438 L 83.035156 3.421875 L 83.511719 3.421875 L 83.511719 3.898438 M 80.757812 3.539062 C 80.878906 3.539062 80.976562 3.503906 81.042969 3.429688 C 81.113281 3.355469 81.152344 3.273438 81.152344 3.175781 L 81.152344 1.894531 L 80.265625 3.175781 C 80.265625 3.273438 80.300781 3.355469 80.375 3.429688 C 80.441406 3.503906 80.535156 3.539062 80.65625 3.539062 L 80.757812 3.539062 M 78.371094 3.898438 L 77.894531 3.898438 L 77.894531 3.421875 L 78.371094 3.421875 L 78.371094 3.898438 M 122.050781 0.457031 L 121.984375 1.1875 L 122.664062 0.925781 L 122.792969 1.300781 L 122.085938 1.445312 L 122.589844 2.03125 L 122.25 2.277344 L 121.832031 1.601562 L 121.402344 2.277344 L 121.0625 2.03125 L 121.574219 1.445312 L 120.878906 1.300781 L 121.015625 0.914062 L 121.683594 1.1875 L 121.621094 0.457031 L 122.050781 0.457031 M 123.585938 0.914062 L 124.253906 1.1875 L 124.191406 0.457031 L 124.621094 0.457031 L 124.554688 1.1875 L 125.234375 0.925781 L 125.363281 1.300781 L 124.65625 1.445312 L 125.160156 2.03125 L 124.820312 2.277344 L 124.402344 1.601562 L 123.972656 2.277344 L 123.632812 2.03125 L 124.144531 1.445312 L 123.449219 1.300781 L 123.585938 0.914062 M 127.191406 0.457031 L 127.128906 1.1875 L 127.804688 0.925781 L 127.933594 1.300781 L 127.226562 1.445312 L 127.730469 2.03125 L 127.390625 2.277344 L 126.972656 1.601562 L 126.542969 2.277344 L 126.203125 2.03125 L 126.714844 1.445312 L 126.019531 1.300781 L 126.15625 0.914062 L 126.824219 1.1875 L 126.761719 0.457031 L 127.191406 0.457031 M 1.238281 0.457031 L 1.175781 1.1875 L 1.851562 0.925781 L 1.980469 1.300781 L 1.277344 1.445312 L 1.777344 2.03125 L 1.441406 2.277344 L 1.019531 1.601562 L 0.589844 2.277344 L 0.25 2.03125 L 0.761719 1.445312 L 0.0664062 1.300781 L 0.207031 0.914062 L 0.871094 1.1875 L 0.808594 0.457031 L 1.238281 0.457031 M 1.789062 22.484375 L 1.066406 22.484375 C 0.941406 22.484375 0.84375 22.519531 0.773438 22.585938 C 0.707031 22.660156 0.671875 22.742188 0.671875 22.839844 L 0.671875 24.726562 C 0.671875 24.824219 0.707031 24.910156 0.773438 24.980469 C 0.84375 25.050781 0.941406 25.082031 1.066406 25.082031 L 1.789062 25.082031 L 1.789062 25.449219 L 1.109375 25.449219 C 0.835938 25.449219 0.625 25.382812 0.480469 25.246094 C 0.332031 25.113281 0.261719 24.910156 0.261719 24.644531 L 0.261719 22.921875 C 0.261719 22.65625 0.332031 22.453125 0.480469 22.320312 C 0.625 22.1875 0.835938 22.117188 1.109375 22.117188 L 1.789062 22.117188 L 1.789062 22.484375 M 0.699219 27.507812 L 0.699219 30.46875 L 1.761719 30.46875 L 1.761719 30.835938 L 0.289062 30.835938 L 0.289062 27.507812 L 0.699219 27.507812 M 1.695312 34.679688 L 0.644531 34.679688 L 0.644531 35.875 L 1.816406 35.875 L 1.816406 36.222656 L 0.234375 36.222656 L 0.234375 32.894531 L 1.816406 32.894531 L 1.816406 33.242188 L 0.644531 33.242188 L 0.644531 34.332031 L 1.695312 34.332031 L 1.695312 34.679688 M 0.609375 39.003906 L 0.609375 39.515625 L 1.074219 39.515625 C 1.34375 39.515625 1.542969 39.578125 1.679688 39.699219 C 1.804688 39.816406 1.871094 40.011719 1.871094 40.285156 L 1.871094 40.808594 C 1.871094 40.941406 1.847656 41.058594 1.804688 41.15625 C 1.769531 41.257812 1.71875 41.34375 1.652344 41.410156 C 1.578125 41.476562 1.496094 41.53125 1.402344 41.566406 L 1.121094 41.613281 L 0.957031 41.613281 L 0.664062 41.558594 L 0.425781 41.410156 L 0.261719 41.15625 L 0.207031 40.808594 L 0.207031 39.085938 C 0.207031 38.820312 0.273438 38.617188 0.414062 38.484375 C 0.5625 38.347656 0.773438 38.28125 1.046875 38.28125 L 1.640625 38.28125 L 1.640625 38.648438 L 1 38.648438 C 0.878906 38.648438 0.78125 38.683594 0.707031 38.75 C 0.640625 38.820312 0.609375 38.90625 0.609375 39.003906 M 1.121094 39.875 L 0.609375 39.875 L 0.609375 40.898438 C 0.609375 40.988281 0.636719 41.074219 0.699219 41.144531 C 0.765625 41.21875 0.859375 41.253906 0.972656 41.253906 L 1.09375 41.253906 C 1.214844 41.253906 1.304688 41.21875 1.367188 41.144531 C 1.433594 41.074219 1.46875 40.988281 1.46875 40.898438 L 1.46875 40.195312 C 1.46875 40.097656 1.441406 40.019531 1.386719 39.964844 C 1.332031 39.90625 1.242188 39.875 1.121094 39.875 M 0.863281 43.671875 C 1.132812 43.671875 1.335938 43.726562 1.476562 43.84375 C 1.617188 43.960938 1.6875 44.148438 1.6875 44.410156 L 1.6875 44.714844 C 1.6875 44.839844 1.664062 44.949219 1.613281 45.042969 C 1.570312 45.132812 1.507812 45.207031 1.421875 45.261719 C 1.527344 45.316406 1.601562 45.394531 1.652344 45.492188 C 1.707031 45.589844 1.734375 45.707031 1.734375 45.847656 L 1.734375 46.25 C 1.734375 46.511719 1.667969 46.703125 1.539062 46.816406 C 1.417969 46.9375 1.210938 47 0.917969 47 L 0.316406 47 L 0.316406 46.644531 L 0.964844 46.644531 C 1.085938 46.644531 1.175781 46.617188 1.230469 46.5625 C 1.289062 46.507812 1.320312 46.417969 1.320312 46.296875 L 1.320312 45.800781 C 1.320312 45.699219 1.289062 45.617188 1.21875 45.554688 C 1.160156 45.492188 1.078125 45.464844 0.972656 45.464844 L 0.460938 45.464844 L 0.460938 45.105469 L 0.929688 45.105469 C 1.019531 45.105469 1.097656 45.074219 1.164062 45.015625 C 1.238281 44.953125 1.277344 44.867188 1.277344 44.757812 L 1.277344 44.367188 C 1.277344 44.25 1.246094 44.164062 1.183594 44.109375 C 1.128906 44.054688 1.042969 44.027344 0.929688 44.027344 L 0.316406 44.027344 L 0.316406 43.671875 L 0.863281 43.671875 M 47.945312 0.742188 C 48.085938 0.855469 48.15625 1.046875 48.15625 1.308594 L 48.15625 1.847656 C 48.15625 2.109375 48.085938 2.300781 47.945312 2.425781 C 47.804688 2.546875 47.605469 2.605469 47.34375 2.605469 L 46.847656 2.605469 L 46.847656 3.898438 L 46.4375 3.898438 L 46.4375 0.566406 L 47.332031 0.566406 C 47.59375 0.566406 47.800781 0.625 47.945312 0.742188 M 47.652344 1.007812 C 47.597656 0.953125 47.511719 0.925781 47.386719 0.925781 L 46.847656 0.925781 L 46.847656 2.242188 L 47.386719 2.242188 C 47.511719 2.242188 47.597656 2.214844 47.652344 2.160156 C 47.707031 2.105469 47.734375 2.019531 47.734375 1.902344 L 47.734375 1.261719 C 47.734375 1.148438 47.707031 1.0625 47.652344 1.007812 M 49.089844 2.230469 L 50.636719 2.230469 L 50.636719 2.589844 L 49.089844 2.589844 L 49.089844 2.230469 M 52.527344 0.566406 C 52.804688 0.566406 53.015625 0.632812 53.160156 0.769531 C 53.3125 0.902344 53.390625 1.105469 53.390625 1.371094 L 53.390625 3.09375 C 53.390625 3.359375 53.3125 3.5625 53.160156 3.695312 C 53.015625 3.828125 52.804688 3.898438 52.527344 3.898438 L 52.335938 3.898438 C 52.0625 3.898438 51.847656 3.828125 51.695312 3.695312 C 51.550781 3.5625 51.476562 3.359375 51.476562 3.09375 L 51.476562 1.371094 C 51.476562 1.105469 51.550781 0.902344 51.695312 0.769531 C 51.847656 0.632812 52.0625 0.566406 52.335938 0.566406 L 52.527344 0.566406 M 52.292969 0.933594 C 52.167969 0.933594 52.070312 0.964844 52 1.035156 C 51.929688 1.105469 51.898438 1.191406 51.898438 1.289062 L 51.898438 3.175781 C 51.898438 3.273438 51.929688 3.355469 52 3.429688 C 52.070312 3.496094 52.167969 3.53125 52.292969 3.53125 L 52.574219 3.53125 C 52.695312 3.53125 52.792969 3.496094 52.867188 3.429688 C 52.933594 3.355469 52.96875 3.273438 52.96875 3.175781 L 52.96875 1.289062 C 52.96875 1.191406 52.933594 1.105469 52.867188 1.035156 C 52.792969 0.964844 52.695312 0.933594 52.574219 0.933594 L 52.292969 0.933594 M 57.421875 0.246094 L 57.632812 0 L 58.046875 0 L 57.789062 0.339844 L 57.613281 0.648438 L 57.523438 1.007812 L 57.503906 1.480469 L 57.503906 2.980469 L 57.523438 3.457031 L 57.613281 3.816406 L 57.789062 4.125 L 58.046875 4.464844 L 57.632812 4.464844 L 57.421875 4.226562 L 57.257812 3.90625 L 57.140625 3.503906 L 57.09375 2.972656 L 57.09375 1.492188 L 57.140625 0.96875 L 57.257812 0.558594 L 57.421875 0.246094 M 54.714844 1.035156 C 54.640625 1.105469 54.605469 1.191406 54.605469 1.289062 L 54.605469 1.648438 C 54.605469 1.742188 54.636719 1.828125 54.695312 1.894531 C 54.765625 1.960938 54.847656 1.996094 54.953125 1.996094 L 55.089844 1.996094 C 55.308594 1.996094 55.484375 2.054688 55.613281 2.175781 C 55.738281 2.304688 55.804688 2.503906 55.804688 2.773438 L 55.804688 3.09375 C 55.804688 3.359375 55.730469 3.5625 55.585938 3.695312 C 55.4375 3.828125 55.226562 3.898438 54.953125 3.898438 L 54.277344 3.898438 L 54.277344 3.53125 L 55 3.53125 C 55.121094 3.53125 55.214844 3.496094 55.28125 3.429688 C 55.355469 3.355469 55.390625 3.273438 55.390625 3.183594 L 55.390625 2.679688 C 55.390625 2.589844 55.367188 2.515625 55.320312 2.460938 C 55.277344 2.398438 55.203125 2.371094 55.097656 2.371094 L 54.953125 2.371094 C 54.726562 2.371094 54.542969 2.300781 54.402344 2.167969 C 54.265625 2.035156 54.195312 1.828125 54.195312 1.554688 L 54.195312 1.382812 C 54.195312 1.105469 54.265625 0.902344 54.414062 0.769531 C 54.558594 0.632812 54.769531 0.566406 55.042969 0.566406 L 55.730469 0.566406 L 55.730469 0.933594 L 55 0.933594 C 54.882812 0.933594 54.789062 0.964844 54.714844 1.035156 M 60.699219 0.742188 C 60.839844 0.855469 60.90625 1.046875 60.90625 1.308594 L 60.90625 1.765625 C 60.90625 1.953125 60.871094 2.105469 60.796875 2.214844 C 60.71875 2.316406 60.613281 2.390625 60.476562 2.433594 L 61.136719 3.898438 L 60.6875 3.898438 L 60.074219 2.515625 L 59.609375 2.515625 L 59.609375 3.898438 L 59.1875 3.898438 L 59.1875 0.566406 L 60.085938 0.566406 C 60.347656 0.566406 60.550781 0.625 60.699219 0.742188 M 60.40625 1.007812 C 60.351562 0.953125 60.261719 0.925781 60.140625 0.925781 L 59.609375 0.925781 L 59.609375 2.160156 L 60.140625 2.160156 C 60.261719 2.160156 60.351562 2.132812 60.40625 2.078125 C 60.460938 2.023438 60.488281 1.933594 60.488281 1.8125 L 60.488281 1.261719 C 60.488281 1.148438 60.460938 1.0625 60.40625 1.007812 M 34.65625 0.457031 L 34.589844 1.1875 L 35.269531 0.925781 L 35.394531 1.300781 L 34.691406 1.445312 L 35.195312 2.03125 L 34.855469 2.277344 L 34.433594 1.601562 L 34.003906 2.277344 L 33.667969 2.03125 L 34.179688 1.445312 L 33.484375 1.300781 L 33.621094 0.914062 L 34.289062 1.1875 L 34.226562 0.457031 L 34.65625 0.457031 M 32.085938 0.457031 L 32.019531 1.1875 L 32.695312 0.925781 L 32.824219 1.300781 L 32.121094 1.445312 L 32.625 2.03125 L 32.285156 2.277344 L 31.863281 1.601562 L 31.433594 2.277344 L 31.097656 2.03125 L 31.609375 1.445312 L 30.914062 1.300781 L 31.050781 0.914062 L 31.71875 1.1875 L 31.65625 0.457031 L 32.085938 0.457031 M 36.238281 2.03125 L 36.75 1.445312 L 36.054688 1.300781 L 36.191406 0.914062 L 36.859375 1.1875 L 36.796875 0.457031 L 37.226562 0.457031 L 37.160156 1.1875 L 37.839844 0.925781 L 37.964844 1.300781 L 37.261719 1.445312 L 37.765625 2.03125 L 37.425781 2.277344 L 37.003906 1.601562 L 36.574219 2.277344 L 36.238281 2.03125 M 42.191406 0.566406 C 42.453125 0.566406 42.660156 0.625 42.804688 0.742188 C 42.945312 0.855469 43.015625 1.046875 43.015625 1.308594 L 43.015625 1.847656 C 43.015625 2.109375 42.945312 2.300781 42.804688 2.425781 C 42.664062 2.546875 42.464844 2.605469 42.203125 2.605469 L 41.707031 2.605469 L 41.707031 3.898438 L 41.296875 3.898438 L 41.296875 0.566406 L 42.191406 0.566406 M 42.511719 1.007812 C 42.457031 0.953125 42.371094 0.925781 42.246094 0.925781 L 41.707031 0.925781 L 41.707031 2.242188 L 42.246094 2.242188 C 42.371094 2.242188 42.457031 2.214844 42.511719 2.160156 C 42.566406 2.105469 42.59375 2.019531 42.59375 1.902344 L 42.59375 1.261719 C 42.59375 1.148438 42.566406 1.0625 42.511719 1.007812 M 44.085938 0.566406 L 45.347656 0.566406 L 45.347656 0.914062 L 44.925781 0.914062 L 44.925781 3.550781 L 45.347656 3.550781 L 45.347656 3.898438 L 44.085938 3.898438 L 44.085938 3.550781 L 44.515625 3.550781 L 44.515625 0.914062 L 44.085938 0.914062 L 44.085938 0.566406 M 19.230469 0.457031 L 19.167969 1.1875 L 19.84375 0.925781 L 19.972656 1.300781 L 19.269531 1.445312 L 19.773438 2.03125 L 19.433594 2.277344 L 19.011719 1.601562 L 18.582031 2.277344 L 18.242188 2.03125 L 18.757812 1.445312 L 18.0625 1.300781 L 18.199219 0.914062 L 18.867188 1.1875 L 18.800781 0.457031 L 19.230469 0.457031 M 16.863281 2.277344 L 16.441406 1.601562 L 16.011719 2.277344 L 15.671875 2.03125 L 16.1875 1.445312 L 15.492188 1.300781 L 15.628906 0.914062 L 16.296875 1.1875 L 16.230469 0.457031 L 16.660156 0.457031 L 16.597656 1.1875 L 17.273438 0.925781 L 17.402344 1.300781 L 16.699219 1.445312 L 17.203125 2.03125 L 16.863281 2.277344 M 21.800781 0.457031 L 21.738281 1.1875 L 22.414062 0.925781 L 22.542969 1.300781 L 21.839844 1.445312 L 22.34375 2.03125 L 22.003906 2.277344 L 21.582031 1.601562 L 21.152344 2.277344 L 20.816406 2.03125 L 21.328125 1.445312 L 20.632812 1.300781 L 20.769531 0.914062 L 21.4375 1.1875 L 21.371094 0.457031 L 21.800781 0.457031 M 23.386719 2.03125 L 23.898438 1.445312 L 23.203125 1.300781 L 23.339844 0.914062 L 24.007812 1.1875 L 23.941406 0.457031 L 24.371094 0.457031 L 24.308594 1.1875 L 24.984375 0.925781 L 25.113281 1.300781 L 24.410156 1.445312 L 24.914062 2.03125 L 24.574219 2.277344 L 24.152344 1.601562 L 23.722656 2.277344 L 23.386719 2.03125 M 26.945312 0.457031 L 26.878906 1.1875 L 27.554688 0.925781 L 27.683594 1.300781 L 26.980469 1.445312 L 27.484375 2.03125 L 27.144531 2.277344 L 26.722656 1.601562 L 26.292969 2.277344 L 25.957031 2.03125 L 26.46875 1.445312 L 25.773438 1.300781 L 25.910156 0.914062 L 26.578125 1.1875 L 26.511719 0.457031 L 26.945312 0.457031 M 29.515625 0.457031 L 29.449219 1.1875 L 30.125 0.925781 L 30.253906 1.300781 L 29.550781 1.445312 L 30.054688 2.03125 L 29.714844 2.277344 L 29.292969 1.601562 L 28.863281 2.277344 L 28.527344 2.03125 L 29.039062 1.445312 L 28.34375 1.300781 L 28.480469 0.914062 L 29.148438 1.1875 L 29.082031 0.457031 L 29.515625 0.457031 M 2.820312 2.03125 L 3.332031 1.445312 L 2.636719 1.300781 L 2.777344 0.914062 L 3.445312 1.1875 L 3.378906 0.457031 L 3.808594 0.457031 L 3.746094 1.1875 L 4.421875 0.925781 L 4.550781 1.300781 L 3.847656 1.445312 L 4.347656 2.03125 C 4.238281 2.117188 4.125 2.199219 4.011719 2.277344 L 3.589844 1.601562 L 3.160156 2.277344 L 2.820312 2.03125 M 5.347656 0.914062 L 6.015625 1.1875 L 5.949219 0.457031 L 6.378906 0.457031 L 6.316406 1.1875 L 6.992188 0.925781 L 7.121094 1.300781 L 6.417969 1.445312 L 6.917969 2.03125 L 6.582031 2.277344 L 6.160156 1.601562 L 5.730469 2.277344 L 5.390625 2.03125 L 5.902344 1.445312 L 5.207031 1.300781 L 5.347656 0.914062 M 8.949219 0.457031 L 8.886719 1.1875 L 9.5625 0.925781 L 9.691406 1.300781 L 8.988281 1.445312 L 9.488281 2.03125 L 9.152344 2.277344 L 8.730469 1.601562 L 8.300781 2.277344 L 7.960938 2.03125 L 8.472656 1.445312 L 7.777344 1.300781 L 7.917969 0.914062 L 8.585938 1.1875 L 8.519531 0.457031 L 8.949219 0.457031 M 11.046875 1.445312 L 10.351562 1.300781 L 10.488281 0.914062 L 11.15625 1.1875 L 11.089844 0.457031 L 11.519531 0.457031 L 11.457031 1.1875 L 12.132812 0.925781 L 12.261719 1.300781 L 11.558594 1.445312 L 12.058594 2.03125 L 11.722656 2.277344 L 11.300781 1.601562 L 10.871094 2.277344 L 10.53125 2.03125 L 11.046875 1.445312 M 14.089844 0.457031 L 14.027344 1.1875 L 14.703125 0.925781 L 14.832031 1.300781 L 14.128906 1.445312 L 14.628906 2.03125 L 14.292969 2.277344 L 13.871094 1.601562 L 13.441406 2.277344 L 13.101562 2.03125 L 13.617188 1.445312 L 12.921875 1.300781 L 13.058594 0.914062 L 13.726562 1.1875 L 13.660156 0.457031 L 14.089844 0.457031 M 30.089844 22.96875 L 30.089844 24.652344 C 30.089844 24.921875 30.015625 25.117188 29.871094 25.246094 C 29.722656 25.382812 29.539062 25.449219 29.3125 25.449219 L 29.210938 25.449219 C 28.980469 25.449219 28.792969 25.382812 28.644531 25.246094 C 28.5 25.117188 28.425781 24.921875 28.425781 24.652344 L 28.425781 22.96875 C 28.425781 22.707031 28.5 22.511719 28.644531 22.382812 C 28.792969 22.257812 28.980469 22.191406 29.210938 22.191406 L 29.3125 22.191406 C 29.539062 22.191406 29.722656 22.257812 29.871094 22.382812 C 30.015625 22.511719 30.089844 22.707031 30.089844 22.96875 M 30.996094 22.191406 L 32.503906 22.191406 L 32.503906 22.640625 L 31.683594 25.449219 L 31.277344 25.449219 L 32.121094 22.539062 L 30.996094 22.539062 L 30.996094 22.191406 M 29.210938 22.539062 C 29.089844 22.539062 28.996094 22.574219 28.929688 22.640625 C 28.859375 22.714844 28.828125 22.796875 28.828125 22.894531 L 28.828125 24.160156 L 29.6875 22.894531 C 29.6875 22.796875 29.65625 22.714844 29.597656 22.640625 C 29.523438 22.574219 29.429688 22.539062 29.3125 22.539062 L 29.210938 22.539062 M 28.929688 24.992188 C 28.996094 25.0625 29.089844 25.101562 29.210938 25.101562 L 29.3125 25.101562 C 29.429688 25.101562 29.523438 25.0625 29.597656 24.992188 C 29.65625 24.917969 29.6875 24.832031 29.6875 24.734375 L 29.6875 23.492188 L 28.828125 24.734375 C 28.828125 24.832031 28.859375 24.917969 28.929688 24.992188 M 26.585938 22.191406 C 26.859375 22.191406 27.070312 22.257812 27.207031 22.382812 C 27.347656 22.511719 27.417969 22.707031 27.417969 22.96875 L 27.417969 23.179688 L 27.402344 23.480469 L 27.347656 23.703125 L 27.246094 23.894531 L 27.097656 24.121094 L 26.414062 25.082031 L 27.519531 25.082031 L 27.519531 25.449219 L 25.972656 25.449219 L 25.972656 25.035156 L 26.722656 23.976562 L 26.878906 23.746094 L 26.960938 23.582031 L 27.015625 23.417969 L 27.027344 23.214844 L 27.027344 22.894531 C 27.027344 22.796875 26.988281 22.714844 26.914062 22.640625 C 26.847656 22.574219 26.753906 22.539062 26.632812 22.539062 L 26.074219 22.539062 L 26.074219 22.191406 L 26.585938 22.191406 M 26.550781 27.507812 L 27.007812 27.507812 L 27.007812 30.480469 L 27.519531 30.480469 L 27.519531 30.835938 L 25.972656 30.835938 L 25.972656 30.480469 L 26.597656 30.480469 L 26.597656 27.882812 L 25.929688 28.128906 L 25.929688 27.746094 L 26.550781 27.507812 M 22.550781 22.484375 L 21.792969 22.484375 L 21.792969 25.449219 L 21.382812 25.449219 L 21.382812 22.484375 L 20.621094 22.484375 L 20.621094 22.117188 L 22.550781 22.117188 L 22.550781 22.484375 M 19.917969 22.117188 L 19.917969 25.449219 L 19.507812 25.449219 L 19.507812 23.921875 L 18.527344 23.921875 L 18.527344 25.449219 L 18.117188 25.449219 L 18.117188 22.117188 L 18.527344 22.117188 L 18.527344 23.5625 L 19.507812 23.5625 L 19.507812 22.117188 L 19.917969 22.117188 M 17.136719 22.484375 L 16.414062 22.484375 C 16.296875 22.484375 16.203125 22.519531 16.132812 22.585938 C 16.058594 22.660156 16.019531 22.742188 16.019531 22.839844 L 16.019531 24.726562 C 16.019531 24.824219 16.058594 24.910156 16.132812 24.980469 C 16.203125 25.050781 16.296875 25.082031 16.414062 25.082031 L 16.882812 25.082031 L 16.882812 24.058594 L 16.46875 24.058594 L 16.46875 23.703125 L 17.273438 23.703125 L 17.273438 25.449219 L 16.460938 25.449219 C 16.1875 25.449219 15.976562 25.382812 15.828125 25.246094 C 15.683594 25.113281 15.609375 24.910156 15.609375 24.644531 L 15.609375 22.921875 C 15.609375 22.65625 15.683594 22.453125 15.828125 22.320312 C 15.976562 22.1875 16.1875 22.117188 16.460938 22.117188 L 17.136719 22.117188 L 17.136719 22.484375 M 20.007812 27.507812 L 19.257812 30.835938 L 18.703125 30.835938 L 17.996094 27.507812 L 18.417969 27.507812 L 18.984375 30.414062 L 19.597656 27.507812 L 20.007812 27.507812 M 21.410156 27.507812 L 21.867188 27.507812 L 21.867188 30.480469 L 22.378906 30.480469 L 22.378906 30.835938 L 20.832031 30.835938 L 20.832031 30.480469 L 21.453125 30.480469 L 21.453125 27.882812 L 20.785156 28.128906 L 20.785156 27.746094 L 21.410156 27.507812 M 23.914062 30.359375 L 24.390625 30.359375 L 24.390625 30.835938 L 23.914062 30.835938 L 23.914062 30.359375 M 20.777344 33.707031 C 20.777344 33.433594 20.851562 33.230469 20.996094 33.097656 C 21.144531 32.960938 21.355469 32.894531 21.628906 32.894531 L 22.316406 32.894531 L 22.316406 33.261719 L 21.582031 33.261719 C 21.46875 33.261719 21.371094 33.292969 21.300781 33.359375 C 21.226562 33.433594 21.191406 33.519531 21.191406 33.617188 L 21.191406 33.972656 C 21.191406 34.070312 21.21875 34.152344 21.28125 34.222656 C 21.347656 34.289062 21.433594 34.320312 21.539062 34.320312 L 21.675781 34.320312 C 21.894531 34.320312 22.066406 34.382812 22.195312 34.503906 C 22.324219 34.632812 22.386719 34.832031 22.386719 35.097656 L 22.386719 35.417969 C 22.386719 35.6875 22.316406 35.890625 22.167969 36.023438 C 22.023438 36.15625 21.8125 36.222656 21.539062 36.222656 L 20.859375 36.222656 L 20.859375 35.859375 L 21.582031 35.859375 C 21.703125 35.859375 21.800781 35.824219 21.867188 35.757812 C 21.941406 35.683594 21.976562 35.601562 21.976562 35.511719 L 21.976562 35.007812 C 21.976562 34.917969 21.953125 34.84375 21.902344 34.789062 C 21.859375 34.726562 21.789062 34.695312 21.683594 34.695312 L 21.539062 34.695312 C 21.3125 34.695312 21.128906 34.628906 20.988281 34.496094 C 20.847656 34.359375 20.777344 34.15625 20.777344 33.882812 L 20.777344 33.707031 M 23.523438 32.894531 L 24.785156 32.894531 L 24.785156 33.242188 L 24.363281 33.242188 L 24.363281 35.875 L 24.785156 35.875 L 24.785156 36.222656 L 23.523438 36.222656 L 23.523438 35.875 L 23.953125 35.875 L 23.953125 33.242188 L 23.523438 33.242188 L 23.523438 32.894531 M 17.117188 34.679688 L 16.066406 34.679688 L 16.066406 35.875 L 17.238281 35.875 L 17.238281 36.222656 L 15.65625 36.222656 L 15.65625 32.894531 L 17.238281 32.894531 L 17.238281 33.242188 L 16.066406 33.242188 L 16.066406 34.332031 L 17.117188 34.332031 L 17.117188 34.679688 M 18.480469 34.484375 L 19.011719 34.484375 C 19.132812 34.484375 19.222656 34.457031 19.277344 34.402344 C 19.332031 34.347656 19.359375 34.261719 19.359375 34.136719 L 19.359375 33.589844 C 19.359375 33.472656 19.332031 33.386719 19.277344 33.332031 C 19.222656 33.277344 19.132812 33.25 19.011719 33.25 L 18.480469 33.25 L 18.480469 34.484375 M 19.78125 34.09375 C 19.78125 34.28125 19.746094 34.429688 19.671875 34.542969 C 19.59375 34.644531 19.484375 34.71875 19.351562 34.761719 L 20.007812 36.222656 L 19.5625 36.222656 L 18.949219 34.84375 L 18.480469 34.84375 L 18.480469 36.222656 L 18.0625 36.222656 L 18.0625 32.894531 L 18.957031 32.894531 C 19.21875 32.894531 19.425781 32.953125 19.570312 33.066406 C 19.710938 33.183594 19.78125 33.375 19.78125 33.636719 L 19.78125 34.09375 M 17.484375 38.28125 L 17.484375 41.613281 L 17.109375 41.613281 L 17.109375 38.621094 L 16.632812 40.496094 L 16.242188 40.496094 L 15.773438 38.621094 L 15.773438 41.613281 L 15.417969 41.613281 L 15.417969 38.28125 L 16.074219 38.28125 L 16.449219 39.984375 L 16.84375 38.28125 L 17.484375 38.28125 M 21.628906 38.28125 L 22.316406 38.28125 L 22.316406 38.648438 L 21.582031 38.648438 C 21.46875 38.648438 21.371094 38.683594 21.300781 38.75 C 21.226562 38.820312 21.191406 38.90625 21.191406 39.003906 L 21.191406 39.363281 C 21.191406 39.460938 21.21875 39.542969 21.28125 39.609375 C 21.347656 39.675781 21.433594 39.710938 21.539062 39.710938 L 21.675781 39.710938 C 21.894531 39.710938 22.066406 39.769531 22.195312 39.890625 C 22.324219 40.019531 22.386719 40.21875 22.386719 40.488281 L 22.386719 40.808594 C 22.386719 41.074219 22.316406 41.277344 22.167969 41.410156 C 22.023438 41.546875 21.8125 41.613281 21.539062 41.613281 L 20.859375 41.613281 L 20.859375 41.246094 L 21.582031 41.246094 C 21.703125 41.246094 21.800781 41.210938 21.867188 41.144531 C 21.941406 41.074219 21.976562 40.988281 21.976562 40.898438 L 21.976562 40.394531 C 21.976562 40.304688 21.953125 40.230469 21.902344 40.175781 C 21.859375 40.113281 21.789062 40.085938 21.683594 40.085938 L 21.539062 40.085938 C 21.3125 40.085938 21.128906 40.015625 20.988281 39.882812 C 20.847656 39.75 20.777344 39.542969 20.777344 39.269531 L 20.777344 39.097656 C 20.777344 38.820312 20.851562 38.617188 20.996094 38.484375 C 21.144531 38.347656 21.355469 38.28125 21.628906 38.28125 M 23.539062 38.28125 L 24.164062 39.664062 L 24.792969 38.28125 L 25.222656 38.28125 L 24.363281 40.066406 L 24.363281 41.613281 L 23.933594 41.613281 L 23.933594 40.066406 L 23.082031 38.28125 L 23.539062 38.28125 M 30.199219 32.894531 L 30.199219 36.222656 L 29.523438 36.222656 L 28.773438 33.242188 L 28.773438 36.222656 L 28.390625 36.222656 L 28.390625 32.894531 L 29.066406 32.894531 L 29.816406 35.867188 L 29.816406 32.894531 L 30.199219 32.894531 M 25.992188 33.097656 C 26.144531 32.960938 26.359375 32.894531 26.632812 32.894531 L 26.824219 32.894531 C 27.097656 32.894531 27.308594 32.960938 27.457031 33.097656 C 27.609375 33.230469 27.683594 33.429688 27.683594 33.699219 L 27.683594 35.417969 C 27.683594 35.6875 27.609375 35.890625 27.457031 36.023438 C 27.308594 36.15625 27.097656 36.222656 26.824219 36.222656 L 26.632812 36.222656 C 26.359375 36.222656 26.144531 36.15625 25.992188 36.023438 C 25.84375 35.890625 25.773438 35.6875 25.773438 35.417969 L 25.773438 33.699219 C 25.773438 33.429688 25.84375 33.230469 25.992188 33.097656 M 26.191406 33.617188 L 26.191406 35.5 C 26.191406 35.597656 26.226562 35.683594 26.292969 35.757812 C 26.367188 35.824219 26.464844 35.859375 26.585938 35.859375 L 26.871094 35.859375 C 26.992188 35.859375 27.089844 35.824219 27.164062 35.757812 C 27.230469 35.683594 27.261719 35.597656 27.261719 35.5 L 27.261719 33.617188 C 27.261719 33.519531 27.230469 33.433594 27.164062 33.359375 C 27.089844 33.292969 26.992188 33.261719 26.871094 33.261719 L 26.585938 33.261719 C 26.464844 33.261719 26.367188 33.292969 26.292969 33.359375 C 26.226562 33.433594 26.191406 33.519531 26.191406 33.617188 M 27.457031 38.28125 L 27.457031 38.648438 L 26.722656 38.648438 C 26.609375 38.648438 26.511719 38.683594 26.441406 38.75 C 26.367188 38.820312 26.332031 38.90625 26.332031 39.003906 L 26.332031 39.363281 C 26.332031 39.460938 26.359375 39.542969 26.421875 39.609375 C 26.488281 39.675781 26.574219 39.710938 26.679688 39.710938 L 26.816406 39.710938 C 27.035156 39.710938 27.207031 39.769531 27.335938 39.890625 C 27.464844 40.019531 27.527344 40.21875 27.527344 40.488281 L 27.527344 40.808594 C 27.527344 41.074219 27.457031 41.277344 27.308594 41.410156 C 27.164062 41.546875 26.953125 41.613281 26.679688 41.613281 L 26 41.613281 L 26 41.246094 L 26.722656 41.246094 C 26.847656 41.246094 26.941406 41.210938 27.007812 41.144531 C 27.082031 41.074219 27.117188 40.988281 27.117188 40.898438 L 27.117188 40.394531 C 27.117188 40.304688 27.09375 40.230469 27.042969 40.175781 C 27 40.113281 26.929688 40.085938 26.824219 40.085938 L 26.679688 40.085938 C 26.453125 40.085938 26.269531 40.015625 26.128906 39.882812 C 25.988281 39.75 25.917969 39.542969 25.917969 39.269531 L 25.917969 39.097656 C 25.917969 38.820312 25.992188 38.617188 26.136719 38.484375 C 26.285156 38.347656 26.496094 38.28125 26.769531 38.28125 L 27.457031 38.28125 M 28.332031 38.648438 L 28.332031 38.28125 L 30.265625 38.28125 L 30.265625 38.648438 L 29.503906 38.648438 L 29.503906 41.613281 L 29.09375 41.613281 L 29.09375 38.648438 L 28.332031 38.648438 M 14.503906 22.117188 L 14.503906 22.464844 L 14.082031 22.464844 L 14.082031 25.101562 L 14.503906 25.101562 L 14.503906 25.449219 L 13.242188 25.449219 L 13.242188 25.101562 L 13.671875 25.101562 L 13.671875 22.464844 L 13.242188 22.464844 L 13.242188 22.117188 L 14.503906 22.117188 M 12.070312 22.859375 L 12.070312 23.316406 C 12.070312 23.507812 12.03125 23.65625 11.960938 23.765625 C 11.878906 23.867188 11.773438 23.941406 11.640625 23.984375 L 12.296875 25.449219 L 11.851562 25.449219 L 11.238281 24.066406 L 10.769531 24.066406 L 10.769531 25.449219 L 10.351562 25.449219 L 10.351562 22.117188 L 11.246094 22.117188 C 11.507812 22.117188 11.710938 22.175781 11.859375 22.292969 C 12 22.410156 12.070312 22.597656 12.070312 22.859375 M 11.300781 22.476562 L 10.769531 22.476562 L 10.769531 23.710938 L 11.300781 23.710938 C 11.421875 23.710938 11.511719 23.683594 11.566406 23.628906 C 11.621094 23.574219 11.648438 23.484375 11.648438 23.363281 L 11.648438 22.8125 C 11.648438 22.699219 11.621094 22.613281 11.566406 22.558594 C 11.511719 22.503906 11.421875 22.476562 11.300781 22.476562 M 9.800781 22.117188 L 8.941406 23.902344 L 8.941406 25.449219 L 8.511719 25.449219 L 8.511719 23.902344 L 7.660156 22.117188 L 8.117188 22.117188 L 8.738281 23.5 L 9.371094 22.117188 L 9.800781 22.117188 M 12.097656 27.855469 L 10.925781 27.855469 L 10.925781 28.941406 L 11.976562 28.941406 L 11.976562 29.289062 L 10.925781 29.289062 L 10.925781 30.488281 L 12.097656 30.488281 L 12.097656 30.835938 L 10.515625 30.835938 L 10.515625 27.507812 L 12.097656 27.507812 L 12.097656 27.855469 M 9.628906 30.085938 C 9.628906 30.359375 9.5625 30.554688 9.433594 30.664062 C 9.3125 30.777344 9.109375 30.835938 8.820312 30.835938 L 7.84375 30.835938 L 7.84375 27.507812 L 8.757812 27.507812 C 9.03125 27.507812 9.246094 27.5625 9.398438 27.671875 C 9.550781 27.78125 9.628906 27.972656 9.628906 28.246094 L 9.628906 30.085938 M 14.429688 27.679688 C 14.570312 27.796875 14.640625 27.984375 14.640625 28.246094 L 14.640625 28.703125 C 14.640625 28.894531 14.601562 29.042969 14.53125 29.152344 C 14.449219 29.257812 14.34375 29.328125 14.210938 29.371094 L 14.867188 30.835938 L 14.421875 30.835938 L 13.808594 29.453125 L 13.339844 29.453125 L 13.339844 30.835938 L 12.921875 30.835938 L 12.921875 27.507812 L 13.816406 27.507812 C 14.078125 27.507812 14.28125 27.566406 14.429688 27.679688 M 13.339844 27.863281 L 13.339844 29.097656 L 13.871094 29.097656 C 13.992188 29.097656 14.082031 29.070312 14.136719 29.015625 C 14.191406 28.960938 14.21875 28.871094 14.21875 28.75 L 14.21875 28.203125 C 14.21875 28.085938 14.191406 28 14.136719 27.945312 C 14.082031 27.890625 13.992188 27.863281 13.871094 27.863281 L 13.339844 27.863281 M 6.527344 22.558594 C 6.472656 22.503906 6.382812 22.476562 6.261719 22.476562 L 5.722656 22.476562 L 5.722656 23.792969 L 6.261719 23.792969 C 6.382812 23.792969 6.472656 23.765625 6.527344 23.710938 C 6.582031 23.65625 6.609375 23.570312 6.609375 23.453125 L 6.609375 22.8125 C 6.609375 22.699219 6.582031 22.613281 6.527344 22.558594 M 7.027344 22.859375 L 7.027344 23.398438 C 7.027344 23.660156 6.960938 23.855469 6.820312 23.976562 C 6.679688 24.097656 6.476562 24.160156 6.214844 24.160156 L 5.722656 24.160156 L 5.722656 25.449219 L 5.308594 25.449219 L 5.308594 22.117188 L 6.207031 22.117188 C 6.46875 22.117188 6.671875 22.175781 6.820312 22.292969 C 6.960938 22.410156 7.027344 22.597656 7.027344 22.859375 M 4.550781 22.921875 L 4.550781 24.644531 C 4.550781 24.910156 4.472656 25.113281 4.320312 25.246094 C 4.175781 25.382812 3.964844 25.449219 3.691406 25.449219 L 3.5 25.449219 C 3.222656 25.449219 3.011719 25.382812 2.859375 25.246094 C 2.710938 25.113281 2.636719 24.910156 2.636719 24.644531 L 2.636719 22.921875 C 2.636719 22.65625 2.710938 22.453125 2.859375 22.320312 C 3.011719 22.1875 3.222656 22.117188 3.5 22.117188 L 3.691406 22.117188 C 3.964844 22.117188 4.175781 22.1875 4.320312 22.320312 C 4.472656 22.453125 4.550781 22.65625 4.550781 22.921875 M 4.027344 22.585938 C 3.957031 22.519531 3.859375 22.484375 3.734375 22.484375 L 3.453125 22.484375 C 3.332031 22.484375 3.234375 22.519531 3.160156 22.585938 C 3.09375 22.660156 3.058594 22.742188 3.058594 22.839844 L 3.058594 24.726562 C 3.058594 24.824219 3.09375 24.910156 3.160156 24.980469 C 3.234375 25.050781 3.332031 25.082031 3.453125 25.082031 L 3.734375 25.082031 C 3.859375 25.082031 3.957031 25.050781 4.027344 24.980469 C 4.097656 24.910156 4.128906 24.824219 4.128906 24.726562 L 4.128906 22.839844 C 4.128906 22.742188 4.097656 22.660156 4.027344 22.585938 M 3.5 27.507812 L 3.691406 27.507812 C 3.964844 27.507812 4.175781 27.574219 4.320312 27.707031 C 4.472656 27.84375 4.550781 28.042969 4.550781 28.3125 L 4.550781 30.03125 C 4.550781 30.300781 4.472656 30.5 4.320312 30.636719 C 4.175781 30.769531 3.964844 30.835938 3.691406 30.835938 L 3.5 30.835938 C 3.222656 30.835938 3.011719 30.769531 2.859375 30.636719 C 2.710938 30.5 2.636719 30.300781 2.636719 30.03125 L 2.636719 28.3125 C 2.636719 28.042969 2.710938 27.84375 2.859375 27.707031 C 3.011719 27.574219 3.222656 27.507812 3.5 27.507812 M 3.453125 27.871094 C 3.332031 27.871094 3.234375 27.90625 3.160156 27.972656 C 3.09375 28.046875 3.058594 28.132812 3.058594 28.230469 L 3.058594 30.113281 C 3.058594 30.210938 3.09375 30.296875 3.160156 30.371094 C 3.234375 30.4375 3.332031 30.46875 3.453125 30.46875 L 3.734375 30.46875 C 3.859375 30.46875 3.957031 30.4375 4.027344 30.371094 C 4.097656 30.296875 4.128906 30.210938 4.128906 30.113281 L 4.128906 28.230469 C 4.128906 28.132812 4.097656 28.046875 4.027344 27.972656 C 3.957031 27.90625 3.859375 27.871094 3.734375 27.871094 L 3.453125 27.871094 M 8.253906 27.863281 L 8.253906 30.480469 L 8.859375 30.480469 C 8.980469 30.480469 9.070312 30.453125 9.132812 30.398438 C 9.1875 30.34375 9.214844 30.253906 9.214844 30.132812 L 9.214844 28.203125 C 9.214844 28.097656 9.183594 28.015625 9.113281 27.953125 C 9.054688 27.894531 8.972656 27.863281 8.867188 27.863281 L 8.253906 27.863281 M 6.445312 27.507812 L 7.230469 30.835938 L 6.808594 30.835938 L 6.625 29.996094 L 5.703125 29.996094 L 5.519531 30.835938 L 5.089844 30.835938 L 5.894531 27.507812 L 6.445312 27.507812 M 6.554688 29.636719 L 6.160156 27.816406 L 5.777344 29.636719 L 6.554688 29.636719 M 6.835938 34.679688 L 5.785156 34.679688 L 5.785156 35.875 L 6.957031 35.875 L 6.957031 36.222656 L 5.375 36.222656 L 5.375 32.894531 L 6.957031 32.894531 L 6.957031 33.242188 L 5.785156 33.242188 L 5.785156 34.332031 L 6.835938 34.332031 L 6.835938 34.679688 M 8.484375 33.359375 C 8.417969 33.433594 8.382812 33.519531 8.382812 33.617188 L 8.382812 35.5 C 8.382812 35.597656 8.417969 35.683594 8.484375 35.757812 C 8.558594 35.824219 8.65625 35.859375 8.777344 35.859375 L 9.5 35.859375 L 9.5 36.222656 L 8.820312 36.222656 C 8.546875 36.222656 8.335938 36.15625 8.191406 36.023438 C 8.042969 35.890625 7.972656 35.6875 7.972656 35.417969 L 7.972656 33.699219 C 7.972656 33.429688 8.042969 33.230469 8.191406 33.097656 C 8.335938 32.960938 8.546875 32.894531 8.820312 32.894531 L 9.5 32.894531 L 9.5 33.261719 L 8.777344 33.261719 C 8.65625 33.261719 8.558594 33.292969 8.484375 33.359375 M 3.078125 32.894531 L 3.597656 34.019531 L 4.148438 32.894531 L 4.585938 32.894531 L 3.820312 34.496094 L 4.632812 36.222656 L 4.167969 36.222656 L 3.597656 34.972656 L 2.996094 36.222656 L 2.546875 36.222656 L 3.378906 34.503906 L 2.628906 32.894531 L 3.078125 32.894531 M 3.617188 38.28125 L 3.132812 40.523438 L 3.699219 40.523438 L 3.699219 39.433594 L 4.109375 39.433594 L 4.109375 40.523438 L 4.46875 40.523438 L 4.46875 40.871094 L 4.109375 40.871094 L 4.109375 41.613281 L 3.699219 41.613281 L 3.699219 40.871094 L 2.722656 40.871094 L 2.722656 40.460938 L 3.234375 38.28125 L 3.617188 38.28125 M 7 39.234375 L 6.167969 40.167969 L 7.066406 41.613281 L 6.5625 41.613281 L 5.867188 40.449219 L 5.738281 40.597656 L 5.738281 41.613281 L 5.335938 41.613281 L 5.335938 38.28125 L 5.738281 38.28125 L 5.738281 40.074219 L 6.488281 39.234375 L 7 39.234375 M 14.867188 32.894531 L 14.117188 36.222656 L 13.558594 36.222656 L 12.855469 32.894531 L 13.277344 32.894531 L 13.84375 35.804688 L 14.457031 32.894531 L 14.867188 32.894531 M 11.859375 38.457031 C 12 38.570312 12.070312 38.761719 12.070312 39.023438 L 12.070312 39.480469 C 12.070312 39.667969 12.03125 39.820312 11.960938 39.929688 C 11.878906 40.03125 11.773438 40.105469 11.640625 40.148438 L 12.296875 41.613281 L 11.851562 41.613281 L 11.238281 40.230469 L 10.769531 40.230469 L 10.769531 41.613281 L 10.351562 41.613281 L 10.351562 38.28125 L 11.246094 38.28125 C 11.507812 38.28125 11.710938 38.339844 11.859375 38.457031 M 11.300781 38.640625 L 10.769531 38.640625 L 10.769531 39.875 L 11.300781 39.875 C 11.421875 39.875 11.511719 39.847656 11.566406 39.792969 C 11.621094 39.738281 11.648438 39.648438 11.648438 39.527344 L 11.648438 38.976562 C 11.648438 38.863281 11.621094 38.777344 11.566406 38.722656 C 11.511719 38.667969 11.421875 38.640625 11.300781 38.640625 M 14.15625 38.28125 L 14.941406 41.613281 L 14.519531 41.613281 L 14.339844 40.769531 L 13.414062 40.769531 L 13.230469 41.613281 L 12.800781 41.613281 L 13.605469 38.28125 L 14.15625 38.28125 M 14.265625 40.414062 L 13.871094 38.59375 L 13.488281 40.414062 L 14.265625 40.414062 M 16.460938 43.671875 C 16.734375 43.671875 16.9375 43.726562 17.074219 43.835938 C 17.207031 43.945312 17.273438 44.136719 17.273438 44.410156 L 17.273438 44.6875 C 17.273438 44.808594 17.253906 44.917969 17.210938 45.015625 C 17.160156 45.105469 17.097656 45.179688 17.019531 45.234375 C 17.117188 45.289062 17.191406 45.367188 17.246094 45.464844 C 17.296875 45.5625 17.320312 45.679688 17.320312 45.820312 L 17.320312 46.25 C 17.320312 46.519531 17.257812 46.710938 17.136719 46.828125 C 17.007812 46.941406 16.800781 47 16.515625 47 L 15.5625 47 L 15.5625 43.671875 L 16.460938 43.671875 M 11.585938 43.671875 L 11.585938 46.644531 L 12.097656 46.644531 L 12.097656 47 L 10.550781 47 L 10.550781 46.644531 L 11.171875 46.644531 L 11.171875 44.046875 L 10.503906 44.292969 L 10.503906 43.90625 L 11.128906 43.671875 L 11.585938 43.671875 M 9.527344 47 L 7.980469 47 L 7.980469 46.644531 L 8.601562 46.644531 L 8.601562 44.046875 L 7.933594 44.292969 L 7.933594 43.90625 L 8.558594 43.671875 L 9.015625 43.671875 L 9.015625 46.644531 L 9.527344 46.644531 L 9.527344 47 M 15.976562 45.078125 L 16.515625 45.078125 C 16.613281 45.078125 16.695312 45.046875 16.761719 44.988281 C 16.828125 44.921875 16.863281 44.835938 16.863281 44.730469 L 16.863281 44.367188 C 16.863281 44.25 16.835938 44.164062 16.78125 44.109375 C 16.726562 44.054688 16.636719 44.027344 16.515625 44.027344 L 15.976562 44.027344 L 15.976562 45.078125 M 16.5625 46.644531 C 16.675781 46.644531 16.765625 46.617188 16.828125 46.5625 C 16.882812 46.507812 16.910156 46.417969 16.910156 46.296875 L 16.910156 45.773438 C 16.910156 45.671875 16.878906 45.589844 16.816406 45.527344 C 16.75 45.464844 16.664062 45.4375 16.5625 45.4375 L 15.976562 45.4375 L 15.976562 46.644531 L 16.5625 46.644531 M 6.25 43.671875 L 6.542969 43.714844 L 6.78125 43.871094 C 6.855469 43.9375 6.910156 44.019531 6.945312 44.117188 C 6.988281 44.222656 7.011719 44.339844 7.011719 44.476562 L 7.011719 46.195312 C 7.011719 46.464844 6.9375 46.664062 6.792969 46.796875 C 6.644531 46.933594 6.433594 47 6.160156 47 L 5.609375 47 L 5.609375 46.632812 L 6.207031 46.632812 C 6.328125 46.632812 6.425781 46.601562 6.5 46.535156 C 6.566406 46.460938 6.597656 46.378906 6.597656 46.285156 L 6.597656 45.765625 L 6.132812 45.765625 C 5.863281 45.765625 5.667969 45.707031 5.539062 45.589844 C 5.402344 45.46875 5.335938 45.273438 5.335938 45.003906 L 5.335938 44.484375 C 5.335938 44.34375 5.359375 44.222656 5.402344 44.117188 L 5.554688 43.871094 C 5.628906 43.804688 5.710938 43.753906 5.804688 43.714844 L 6.085938 43.671875 L 6.25 43.671875 M 3.636719 43.671875 C 3.878906 43.671875 4.070312 43.726562 4.203125 43.84375 C 4.34375 43.960938 4.414062 44.148438 4.414062 44.410156 L 4.414062 44.714844 C 4.414062 44.964844 4.328125 45.144531 4.15625 45.261719 C 4.261719 45.316406 4.339844 45.394531 4.394531 45.492188 C 4.445312 45.589844 4.46875 45.707031 4.46875 45.847656 L 4.46875 46.25 C 4.46875 46.511719 4.40625 46.703125 4.285156 46.816406 C 4.15625 46.9375 3.949219 47 3.664062 47 L 3.527344 47 C 3.238281 47 3.03125 46.9375 2.902344 46.816406 C 2.78125 46.703125 2.722656 46.511719 2.722656 46.25 L 2.722656 45.847656 C 2.722656 45.707031 2.746094 45.589844 2.792969 45.492188 L 3.023438 45.261719 C 2.859375 45.144531 2.777344 44.964844 2.777344 44.714844 L 2.777344 44.410156 C 2.777344 44.148438 2.847656 43.960938 2.984375 43.84375 C 3.121094 43.726562 3.304688 43.671875 3.542969 43.671875 L 3.636719 43.671875 M 4 44.367188 C 4 44.25 3.972656 44.164062 3.917969 44.109375 C 3.863281 44.054688 3.777344 44.027344 3.664062 44.027344 L 3.488281 44.027344 C 3.378906 44.03125 3.304688 44.0625 3.261719 44.117188 C 3.210938 44.171875 3.1875 44.253906 3.1875 44.367188 L 3.1875 44.757812 C 3.1875 44.863281 3.21875 44.945312 3.277344 45.003906 C 3.339844 45.066406 3.414062 45.101562 3.5 45.105469 L 3.664062 45.105469 C 3.753906 45.105469 3.832031 45.074219 3.902344 45.015625 C 3.96875 44.953125 4 44.867188 4 44.757812 L 4 44.367188 M 3.957031 45.554688 C 3.894531 45.492188 3.8125 45.464844 3.707031 45.464844 L 3.480469 45.464844 C 3.375 45.464844 3.292969 45.492188 3.234375 45.554688 C 3.164062 45.617188 3.132812 45.699219 3.132812 45.800781 L 3.132812 46.296875 C 3.132812 46.410156 3.15625 46.5 3.207031 46.5625 C 3.253906 46.617188 3.332031 46.644531 3.445312 46.644531 L 3.699219 46.644531 C 3.820312 46.644531 3.914062 46.617188 3.972656 46.5625 C 4.027344 46.507812 4.054688 46.417969 4.054688 46.296875 L 4.054688 45.800781 C 4.054688 45.699219 4.023438 45.617188 3.957031 45.554688 M 5.738281 44.394531 L 5.738281 45.097656 C 5.738281 45.1875 5.765625 45.261719 5.820312 45.316406 C 5.875 45.378906 5.964844 45.410156 6.085938 45.410156 L 6.597656 45.410156 L 6.597656 44.394531 C 6.597656 44.296875 6.570312 44.210938 6.507812 44.136719 C 6.445312 44.0625 6.355469 44.027344 6.234375 44.027344 L 6.113281 44.027344 C 5.992188 44.027344 5.902344 44.0625 5.839844 44.136719 C 5.773438 44.210938 5.738281 44.296875 5.738281 44.394531 M 31.488281 41.265625 L 32.660156 41.265625 L 32.660156 41.613281 L 31.078125 41.613281 L 31.078125 38.28125 L 32.660156 38.28125 L 32.660156 38.628906 L 31.488281 38.628906 L 31.488281 39.71875 L 32.542969 39.71875 L 32.542969 40.066406 L 31.488281 40.066406 L 31.488281 41.265625 M 58.007812 22.519531 L 58.046875 23.042969 L 58.046875 24.523438 L 58.007812 25.054688 C 57.976562 25.207031 57.9375 25.339844 57.890625 25.457031 C 57.847656 25.578125 57.792969 25.6875 57.726562 25.777344 L 57.515625 26.015625 L 57.09375 26.015625 C 57.203125 25.894531 57.292969 25.78125 57.359375 25.675781 C 57.425781 25.578125 57.484375 25.476562 57.53125 25.367188 C 57.570312 25.261719 57.597656 25.144531 57.613281 25.007812 C 57.632812 24.875 57.640625 24.714844 57.640625 24.535156 L 57.640625 23.035156 C 57.640625 22.851562 57.632812 22.691406 57.613281 22.558594 L 57.53125 22.199219 L 57.359375 21.890625 L 57.09375 21.550781 L 57.515625 21.550781 L 57.726562 21.796875 L 57.890625 22.109375 C 57.9375 22.226562 57.976562 22.363281 58.007812 22.519531 M 55.765625 23.316406 C 55.765625 23.507812 55.730469 23.65625 55.65625 23.765625 C 55.578125 23.867188 55.472656 23.941406 55.335938 23.984375 L 55.996094 25.449219 L 55.546875 25.449219 L 54.933594 24.066406 L 54.46875 24.066406 L 54.46875 25.449219 L 54.046875 25.449219 L 54.046875 22.117188 L 54.945312 22.117188 C 55.207031 22.117188 55.410156 22.175781 55.558594 22.292969 C 55.695312 22.410156 55.765625 22.597656 55.765625 22.859375 L 55.765625 23.316406 M 55.347656 22.8125 C 55.347656 22.699219 55.320312 22.613281 55.265625 22.558594 C 55.210938 22.503906 55.121094 22.476562 55 22.476562 L 54.46875 22.476562 L 54.46875 23.710938 L 55 23.710938 C 55.121094 23.710938 55.210938 23.683594 55.265625 23.628906 C 55.320312 23.574219 55.347656 23.484375 55.347656 23.363281 L 55.347656 22.8125 M 52.28125 21.796875 L 52.492188 21.550781 L 52.902344 21.550781 L 52.648438 21.890625 L 52.472656 22.199219 L 52.382812 22.558594 L 52.363281 23.035156 L 52.363281 24.535156 L 52.382812 25.007812 L 52.472656 25.367188 L 52.648438 25.675781 L 52.902344 26.015625 L 52.492188 26.015625 L 52.28125 25.777344 L 52.117188 25.457031 L 52 25.054688 L 51.953125 24.523438 L 51.953125 23.042969 L 52 22.519531 L 52.117188 22.109375 L 52.28125 21.796875 M 50.820312 22.921875 L 50.820312 24.644531 C 50.820312 24.910156 50.742188 25.113281 50.589844 25.246094 C 50.445312 25.382812 50.234375 25.449219 49.957031 25.449219 L 49.765625 25.449219 C 49.492188 25.449219 49.277344 25.382812 49.125 25.246094 C 48.980469 25.113281 48.90625 24.910156 48.90625 24.644531 L 48.90625 22.921875 C 48.90625 22.65625 48.980469 22.453125 49.125 22.320312 C 49.277344 22.1875 49.492188 22.117188 49.765625 22.117188 L 49.957031 22.117188 C 50.234375 22.117188 50.445312 22.1875 50.589844 22.320312 C 50.742188 22.453125 50.820312 22.65625 50.820312 22.921875 M 50.296875 22.585938 C 50.222656 22.519531 50.125 22.484375 50.003906 22.484375 L 49.722656 22.484375 C 49.597656 22.484375 49.5 22.519531 49.429688 22.585938 C 49.359375 22.660156 49.328125 22.742188 49.328125 22.839844 L 49.328125 24.726562 C 49.328125 24.824219 49.359375 24.910156 49.429688 24.980469 C 49.5 25.050781 49.597656 25.082031 49.722656 25.082031 L 50.003906 25.082031 C 50.125 25.082031 50.222656 25.050781 50.296875 24.980469 C 50.363281 24.910156 50.398438 24.824219 50.398438 24.726562 L 50.398438 22.839844 C 50.398438 22.742188 50.363281 22.660156 50.296875 22.585938 M 48.054688 22.484375 L 47.332031 22.484375 C 47.210938 22.484375 47.113281 22.519531 47.039062 22.585938 C 46.972656 22.660156 46.941406 22.742188 46.941406 22.839844 L 46.941406 24.726562 C 46.941406 24.824219 46.972656 24.910156 47.039062 24.980469 C 47.113281 25.050781 47.210938 25.082031 47.332031 25.082031 L 48.054688 25.082031 L 48.054688 25.449219 L 47.378906 25.449219 C 47.105469 25.449219 46.894531 25.382812 46.746094 25.246094 C 46.601562 25.113281 46.527344 24.910156 46.527344 24.644531 L 46.527344 22.921875 C 46.527344 22.65625 46.601562 22.453125 46.746094 22.320312 C 46.894531 22.1875 47.105469 22.117188 47.378906 22.117188 L 48.054688 22.117188 L 48.054688 22.484375 M 45.550781 22.859375 L 45.550781 23.132812 C 45.550781 23.257812 45.527344 23.367188 45.484375 23.464844 C 45.4375 23.554688 45.371094 23.628906 45.292969 23.683594 C 45.390625 23.738281 45.46875 23.8125 45.523438 23.910156 C 45.570312 24.007812 45.59375 24.128906 45.59375 24.269531 L 45.59375 24.699219 C 45.59375 24.964844 45.535156 25.160156 45.414062 25.273438 C 45.285156 25.390625 45.078125 25.449219 44.789062 25.449219 L 43.839844 25.449219 L 43.839844 22.117188 L 44.734375 22.117188 C 45.007812 22.117188 45.214844 22.171875 45.347656 22.285156 C 45.480469 22.394531 45.550781 22.585938 45.550781 22.859375 M 44.789062 22.476562 L 44.25 22.476562 L 44.25 23.527344 L 44.789062 23.527344 C 44.886719 23.527344 44.96875 23.496094 45.039062 23.4375 C 45.105469 23.367188 45.136719 23.285156 45.136719 23.179688 L 45.136719 22.8125 C 45.136719 22.699219 45.109375 22.613281 45.054688 22.558594 L 44.789062 22.476562 M 43.105469 22.921875 L 43.105469 24.644531 C 43.105469 24.910156 43.03125 25.113281 42.878906 25.246094 C 42.730469 25.382812 42.523438 25.449219 42.246094 25.449219 L 42.054688 25.449219 C 41.78125 25.449219 41.566406 25.382812 41.414062 25.246094 C 41.269531 25.113281 41.195312 24.910156 41.195312 24.644531 L 41.195312 22.921875 C 41.195312 22.65625 41.269531 22.453125 41.414062 22.320312 C 41.566406 22.1875 41.78125 22.117188 42.054688 22.117188 L 42.246094 22.117188 C 42.523438 22.117188 42.730469 22.1875 42.878906 22.320312 C 43.03125 22.453125 43.105469 22.65625 43.105469 22.921875 M 44.25 25.089844 L 44.835938 25.089844 C 44.953125 25.089844 45.039062 25.0625 45.101562 25.007812 C 45.15625 24.953125 45.183594 24.867188 45.183594 24.742188 L 45.183594 24.222656 C 45.183594 24.117188 45.152344 24.035156 45.09375 23.976562 C 45.023438 23.914062 44.941406 23.882812 44.835938 23.882812 L 44.25 23.882812 L 44.25 25.089844 M 42.6875 22.839844 C 42.6875 22.742188 42.652344 22.660156 42.585938 22.585938 C 42.511719 22.519531 42.414062 22.484375 42.292969 22.484375 L 42.007812 22.484375 C 41.886719 22.484375 41.789062 22.519531 41.714844 22.585938 C 41.648438 22.660156 41.617188 22.742188 41.617188 22.839844 L 41.617188 24.726562 C 41.617188 24.824219 41.648438 24.910156 41.714844 24.980469 C 41.789062 25.050781 41.886719 25.082031 42.007812 25.082031 L 42.292969 25.082031 C 42.414062 25.082031 42.511719 25.050781 42.585938 24.980469 C 42.652344 24.910156 42.6875 24.824219 42.6875 24.726562 L 42.6875 22.839844 M 39.839844 22.558594 C 39.785156 22.503906 39.699219 22.476562 39.574219 22.476562 L 39.046875 22.476562 L 39.046875 23.710938 L 39.574219 23.710938 C 39.699219 23.710938 39.785156 23.683594 39.839844 23.628906 C 39.894531 23.574219 39.921875 23.484375 39.921875 23.363281 L 39.921875 22.8125 C 39.921875 22.699219 39.894531 22.613281 39.839844 22.558594 M 40.132812 22.292969 C 40.273438 22.410156 40.34375 22.597656 40.34375 22.859375 L 40.34375 23.316406 C 40.34375 23.507812 40.308594 23.65625 40.234375 23.765625 C 40.15625 23.867188 40.046875 23.941406 39.914062 23.984375 L 40.574219 25.449219 L 40.125 25.449219 L 39.511719 24.066406 L 39.046875 24.066406 L 39.046875 25.449219 L 38.625 25.449219 L 38.625 22.117188 L 39.519531 22.117188 C 39.785156 22.117188 39.988281 22.175781 40.132812 22.292969 M 34.902344 22.539062 L 34.023438 22.539062 L 34.023438 23.492188 L 34.207031 23.492188 C 34.4375 23.492188 34.625 23.546875 34.765625 23.65625 C 34.90625 23.765625 34.976562 23.949219 34.976562 24.203125 L 34.976562 24.707031 C 34.976562 24.96875 34.914062 25.160156 34.792969 25.273438 C 34.671875 25.390625 34.46875 25.449219 34.1875 25.449219 L 33.574219 25.449219 L 33.574219 25.101562 L 34.226562 25.101562 C 34.347656 25.101562 34.433594 25.070312 34.480469 25.007812 C 34.542969 24.960938 34.574219 24.875 34.574219 24.753906 L 34.574219 24.167969 C 34.574219 24.0625 34.539062 23.980469 34.472656 23.921875 C 34.410156 23.867188 34.332031 23.839844 34.234375 23.839844 L 33.621094 23.839844 L 33.621094 22.191406 L 34.902344 22.191406 L 34.902344 22.539062 M 37.289062 32.894531 L 37.289062 35.867188 L 37.800781 35.867188 L 37.800781 36.222656 L 36.253906 36.222656 L 36.253906 35.867188 L 36.878906 35.867188 L 36.878906 33.269531 L 36.210938 33.515625 L 36.210938 33.132812 L 36.832031 32.894531 L 37.289062 32.894531 M 34.957031 34.046875 L 34.957031 35.136719 L 35.3125 35.136719 L 35.3125 35.484375 L 34.957031 35.484375 L 34.957031 36.222656 L 34.546875 36.222656 L 34.546875 35.484375 L 33.566406 35.484375 L 33.566406 35.070312 L 34.078125 32.894531 L 34.460938 32.894531 L 33.976562 35.136719 L 34.546875 35.136719 L 34.546875 34.046875 L 34.957031 34.046875 M 34.070312 38.28125 L 34.445312 39.984375 L 34.835938 38.28125 L 35.476562 38.28125 L 35.476562 41.613281 L 35.101562 41.613281 L 35.101562 38.621094 L 34.628906 40.496094 L 34.234375 40.496094 L 33.765625 38.621094 L 33.765625 41.613281 L 33.410156 41.613281 L 33.410156 38.28125 L 34.070312 38.28125 M 44.277344 33.617188 L 44.277344 34.90625 L 45.164062 33.617188 C 45.164062 33.519531 45.128906 33.433594 45.054688 33.359375 C 44.988281 33.289062 44.894531 33.25 44.773438 33.25 L 44.671875 33.25 C 44.550781 33.25 44.453125 33.289062 44.386719 33.359375 C 44.316406 33.433594 44.277344 33.519531 44.277344 33.617188 M 44.09375 33.085938 C 44.242188 32.957031 44.433594 32.894531 44.671875 32.894531 L 44.773438 32.894531 C 45.007812 32.894531 45.203125 32.957031 45.347656 33.085938 C 45.496094 33.222656 45.566406 33.425781 45.566406 33.699219 L 45.566406 35.417969 C 45.566406 35.6875 45.496094 35.890625 45.347656 36.023438 C 45.203125 36.15625 45.007812 36.222656 44.773438 36.222656 L 44.671875 36.222656 C 44.433594 36.222656 44.242188 36.15625 44.09375 36.023438 C 43.949219 35.890625 43.875 35.6875 43.875 35.417969 L 43.875 33.699219 C 43.875 33.425781 43.949219 33.222656 44.09375 33.085938 M 41.351562 33.132812 L 41.972656 32.894531 L 42.429688 32.894531 L 42.429688 35.867188 L 42.941406 35.867188 L 42.941406 36.222656 L 41.394531 36.222656 L 41.394531 35.867188 L 42.019531 35.867188 L 42.019531 33.269531 L 41.351562 33.515625 L 41.351562 33.132812 M 39.8125 35.75 L 39.8125 36.222656 L 39.339844 36.222656 L 39.339844 35.75 L 39.8125 35.75 M 44.773438 35.867188 C 44.894531 35.867188 44.988281 35.832031 45.054688 35.757812 C 45.128906 35.683594 45.164062 35.597656 45.164062 35.5 L 45.164062 34.222656 L 44.277344 35.5 C 44.277344 35.597656 44.316406 35.683594 44.386719 35.757812 C 44.453125 35.832031 44.550781 35.867188 44.671875 35.867188 L 44.773438 35.867188 "/>
</g>
</svg>
