<?xml version="1.0" encoding="UTF-8"?>
<svg xmlns="http://www.w3.org/2000/svg" xmlns:xlink="http://www.w3.org/1999/xlink" width="124pt" height="9pt" viewBox="0 0 124 9" version="1.1">
<g id="surface1">
<path style=" stroke:none;fill-rule:nonzero;fill:rgb(100%,100%,100%);fill-opacity:1;" d="M 6.117188 0 L 5.804688 3.617188 L 9.136719 2.304688 L 9.765625 4.160156 L 6.296875 4.882812 L 8.773438 7.777344 L 7.109375 9 L 5.039062 5.652344 L 2.921875 9 L 1.253906 7.777344 L 3.777344 4.882812 L 0.355469 4.160156 L 1.03125 2.261719 L 4.316406 3.617188 L 4 0 L 6.117188 0 M 94.691406 0 L 94.375 3.617188 L 97.707031 2.304688 L 98.339844 4.160156 L 94.871094 4.882812 L 97.347656 7.777344 L 95.683594 9 L 93.609375 5.652344 L 91.496094 9 L 89.828125 7.777344 L 92.351562 4.882812 L 88.929688 4.160156 L 89.601562 2.261719 L 92.890625 3.617188 L 92.574219 0 L 94.691406 0 M 83.027344 9 L 80.957031 5.652344 L 78.839844 9 L 77.175781 7.777344 L 79.695312 4.882812 L 76.273438 4.160156 L 76.949219 2.261719 L 80.238281 3.617188 L 79.921875 0 L 82.039062 0 L 81.722656 3.617188 L 85.054688 2.304688 L 85.6875 4.160156 L 82.21875 4.882812 L 84.695312 7.777344 L 83.027344 9 M 107.34375 0 L 107.03125 3.617188 L 110.363281 2.304688 L 110.992188 4.160156 L 107.523438 4.882812 L 110 7.777344 L 108.335938 9 L 106.265625 5.652344 L 104.148438 9 L 102.480469 7.777344 L 105.003906 4.882812 L 101.582031 4.160156 L 102.257812 2.261719 L 105.542969 3.617188 L 105.230469 0 L 107.34375 0 M 115.136719 7.777344 L 117.65625 4.882812 L 114.234375 4.160156 L 114.910156 2.261719 L 118.195312 3.617188 L 117.882812 0 L 120 0 L 119.683594 3.617188 L 123.015625 2.304688 L 123.644531 4.160156 L 120.179688 4.882812 L 122.65625 7.777344 L 120.988281 9 L 118.917969 5.652344 L 116.800781 9 L 115.136719 7.777344 M 13.90625 7.777344 L 16.429688 4.882812 L 13.007812 4.160156 L 13.683594 2.261719 L 16.96875 3.617188 L 16.65625 0 L 18.769531 0 L 18.457031 3.617188 L 21.789062 2.304688 L 22.417969 4.160156 L 18.953125 4.882812 L 21.429688 7.777344 C 20.886719 8.199219 20.332031 8.609375 19.761719 9 L 17.691406 5.652344 L 15.574219 9 L 13.90625 7.777344 M 26.335938 2.261719 L 29.625 3.617188 L 29.308594 0 L 31.425781 0 L 31.109375 3.617188 L 34.441406 2.304688 L 35.070312 4.160156 L 31.605469 4.882812 L 34.082031 7.777344 L 32.414062 9 L 30.34375 5.652344 L 28.226562 9 L 26.5625 7.777344 L 29.082031 4.882812 L 25.660156 4.160156 L 26.335938 2.261719 M 44.078125 0 L 43.761719 3.617188 L 47.09375 2.304688 L 47.726562 4.160156 L 44.257812 4.882812 L 46.734375 7.777344 L 45.070312 9 L 42.996094 5.652344 L 40.882812 9 L 39.214844 7.777344 L 41.738281 4.882812 L 38.3125 4.160156 L 38.988281 2.261719 L 42.277344 3.617188 L 41.960938 0 L 44.078125 0 M 54.390625 4.882812 L 50.96875 4.160156 L 51.644531 2.261719 L 54.929688 3.617188 L 54.613281 0 L 56.730469 0 L 56.417969 3.617188 L 59.75 2.304688 L 60.378906 4.160156 L 56.910156 4.882812 L 59.386719 7.777344 L 57.722656 9 L 55.652344 5.652344 L 53.535156 9 L 51.867188 7.777344 L 54.390625 4.882812 M 69.386719 0 L 69.070312 3.617188 L 72.402344 2.304688 L 73.03125 4.160156 L 69.566406 4.882812 L 72.042969 7.777344 L 70.375 9 L 68.304688 5.652344 L 66.1875 9 L 64.523438 7.777344 L 67.042969 4.882812 L 63.621094 4.160156 L 64.296875 2.261719 L 67.582031 3.617188 L 67.269531 0 L 69.386719 0 "/>
</g>
</svg>
