<?xml version="1.0" encoding="UTF-8"?>
<svg xmlns="http://www.w3.org/2000/svg" xmlns:xlink="http://www.w3.org/1999/xlink" width="122pt" height="6pt" viewBox="0 0 122 6" version="1.1">
<g id="surface1">
<path style=" stroke:none;fill-rule:nonzero;fill:rgb(100%,100%,100%);fill-opacity:1;" d="M 3.769531 0.0507812 L 3.5625 2.421875 L 5.742188 1.5625 L 6.15625 2.777344 L 3.886719 3.253906 L 5.507812 5.148438 L 4.417969 5.949219 L 3.0625 3.757812 L 1.679688 5.949219 L 0.589844 5.148438 L 2.238281 3.253906 L 0 2.777344 L 0.441406 1.53125 L 2.589844 2.421875 L 2.386719 0.0507812 L 3.769531 0.0507812 M 111.339844 0.0507812 L 111.132812 2.421875 L 113.3125 1.5625 L 113.726562 2.777344 L 111.457031 3.253906 L 113.078125 5.148438 L 111.988281 5.949219 L 110.632812 3.757812 L 109.25 5.949219 L 108.160156 5.148438 L 109.808594 3.253906 L 107.570312 2.777344 L 108.011719 1.53125 L 110.164062 2.421875 L 109.957031 0.0507812 L 111.339844 0.0507812 M 103.066406 0.0507812 L 102.859375 2.421875 L 105.039062 1.5625 L 105.449219 2.777344 L 103.183594 3.253906 L 104.804688 5.148438 L 103.714844 5.949219 L 102.359375 3.757812 L 100.976562 5.949219 L 99.886719 5.148438 L 101.535156 3.253906 L 99.296875 2.777344 L 99.738281 1.53125 L 101.886719 2.421875 L 101.679688 0.0507812 L 103.066406 0.0507812 M 116.433594 5.148438 L 118.082031 3.253906 L 115.84375 2.777344 L 116.289062 1.53125 L 118.4375 2.421875 L 118.230469 0.0507812 L 119.613281 0.0507812 L 119.410156 2.421875 L 121.585938 1.5625 L 122 2.777344 L 119.734375 3.253906 L 121.351562 5.148438 L 120.261719 5.949219 L 118.90625 3.757812 L 117.523438 5.949219 L 116.433594 5.148438 M 61.691406 0.0507812 L 61.484375 2.421875 L 63.664062 1.5625 L 64.078125 2.777344 L 61.808594 3.253906 L 63.429688 5.148438 L 62.339844 5.949219 L 60.984375 3.757812 L 59.601562 5.949219 L 58.511719 5.148438 L 60.160156 3.253906 L 57.921875 2.777344 L 58.363281 1.53125 L 60.515625 2.421875 L 60.308594 0.0507812 L 61.691406 0.0507812 M 54.066406 5.949219 L 52.710938 3.757812 L 51.328125 5.949219 L 50.238281 5.148438 L 51.886719 3.253906 L 49.648438 2.777344 L 50.089844 1.53125 L 52.238281 2.421875 L 52.035156 0.0507812 L 53.417969 0.0507812 L 53.210938 2.421875 L 55.390625 1.5625 L 55.800781 2.777344 L 53.535156 3.253906 L 55.15625 5.148438 L 54.066406 5.949219 M 69.964844 0.0507812 L 69.761719 2.421875 L 71.941406 1.5625 L 72.351562 2.777344 L 70.085938 3.253906 L 71.703125 5.148438 L 70.613281 5.949219 L 69.261719 3.757812 L 67.875 5.949219 L 66.785156 5.148438 L 68.433594 3.253906 L 66.199219 2.777344 L 66.640625 1.53125 L 68.789062 2.421875 L 68.582031 0.0507812 L 69.964844 0.0507812 M 75.0625 5.148438 L 76.710938 3.253906 L 74.472656 2.777344 L 74.914062 1.53125 L 77.0625 2.421875 L 76.855469 0.0507812 L 78.242188 0.0507812 L 78.035156 2.421875 L 80.214844 1.5625 L 80.625 2.777344 L 78.359375 3.253906 L 79.980469 5.148438 L 78.890625 5.949219 L 77.535156 3.757812 L 76.152344 5.949219 L 75.0625 5.148438 M 86.515625 0.0507812 L 86.308594 2.421875 L 88.488281 1.5625 L 88.902344 2.777344 L 86.632812 3.253906 L 88.253906 5.148438 L 87.164062 5.949219 L 85.808594 3.757812 L 84.425781 5.949219 L 83.335938 5.148438 L 84.984375 3.253906 L 82.746094 2.777344 L 83.1875 1.53125 L 85.339844 2.421875 L 85.132812 0.0507812 L 86.515625 0.0507812 M 94.789062 0.0507812 L 94.585938 2.421875 L 96.765625 1.5625 L 97.175781 2.777344 L 94.910156 3.253906 L 96.527344 5.148438 L 95.4375 5.949219 L 94.085938 3.757812 L 92.699219 5.949219 L 91.609375 5.148438 L 93.257812 3.253906 L 91.019531 2.777344 L 91.464844 1.53125 L 93.613281 2.421875 L 93.40625 0.0507812 L 94.789062 0.0507812 M 8.863281 5.148438 L 10.511719 3.253906 L 8.273438 2.777344 L 8.714844 1.53125 L 10.867188 2.421875 L 10.660156 0.0507812 L 12.042969 0.0507812 L 11.835938 2.421875 L 14.015625 1.5625 L 14.429688 2.777344 L 12.160156 3.253906 L 13.78125 5.148438 C 13.429688 5.425781 13.066406 5.695312 12.691406 5.949219 L 11.335938 3.757812 L 9.953125 5.949219 L 8.863281 5.148438 M 16.992188 1.53125 L 19.140625 2.421875 L 18.933594 0.0507812 L 20.320312 0.0507812 L 20.113281 2.421875 L 22.292969 1.5625 L 22.703125 2.777344 L 20.4375 3.253906 L 22.054688 5.148438 L 20.964844 5.949219 L 19.613281 3.757812 L 18.226562 5.949219 L 17.136719 5.148438 L 18.789062 3.253906 L 16.550781 2.777344 L 16.992188 1.53125 M 28.59375 0.0507812 L 28.386719 2.421875 L 30.566406 1.5625 L 30.980469 2.777344 L 28.710938 3.253906 L 30.332031 5.148438 L 29.242188 5.949219 L 27.886719 3.757812 L 26.503906 5.949219 L 25.414062 5.148438 L 27.0625 3.253906 L 24.824219 2.777344 L 25.265625 1.53125 L 27.414062 2.421875 L 27.210938 0.0507812 L 28.59375 0.0507812 M 35.335938 3.253906 L 33.097656 2.777344 L 33.539062 1.53125 L 35.691406 2.421875 L 35.484375 0.0507812 L 36.867188 0.0507812 L 36.660156 2.421875 L 38.839844 1.5625 L 39.253906 2.777344 L 36.984375 3.253906 L 38.605469 5.148438 L 37.515625 5.949219 L 36.160156 3.757812 L 34.777344 5.949219 L 33.6875 5.148438 L 35.335938 3.253906 M 45.144531 0.0507812 L 44.9375 2.421875 L 47.117188 1.5625 L 47.527344 2.777344 L 45.261719 3.253906 L 46.878906 5.148438 L 45.789062 5.949219 L 44.4375 3.757812 L 43.050781 5.949219 L 41.960938 5.148438 L 43.613281 3.253906 L 41.375 2.777344 L 41.816406 1.53125 L 43.964844 2.421875 L 43.757812 0.0507812 L 45.144531 0.0507812 "/>
</g>
</svg>
