<?xml version="1.0" encoding="UTF-8"?>
<svg xmlns="http://www.w3.org/2000/svg" xmlns:xlink="http://www.w3.org/1999/xlink" width="121pt" height="5pt" viewBox="0 0 121 5" version="1.1">
<g id="surface1">
<path style=" stroke:none;fill-rule:nonzero;fill:rgb(100%,100%,100%);fill-opacity:1;" d="M 119.324219 0.511719 L 119.25 1.332031 L 120.003906 1.035156 L 120.144531 1.453125 L 119.363281 1.617188 L 119.921875 2.273438 L 119.546875 2.550781 L 119.078125 1.792969 L 118.601562 2.550781 L 118.222656 2.273438 L 118.792969 1.617188 L 118.019531 1.453125 L 118.171875 1.023438 L 118.914062 1.332031 L 118.84375 0.511719 L 119.324219 0.511719 M 105.035156 0.511719 L 104.960938 1.332031 L 105.714844 1.035156 L 105.859375 1.453125 L 105.074219 1.617188 L 105.632812 2.273438 L 105.257812 2.550781 L 104.789062 1.792969 L 104.3125 2.550781 L 103.933594 2.273438 L 104.503906 1.617188 L 103.730469 1.453125 L 103.882812 1.023438 L 104.628906 1.332031 L 104.554688 0.511719 L 105.035156 0.511719 M 103 1.453125 L 102.214844 1.617188 L 102.777344 2.273438 L 102.398438 2.550781 L 101.933594 1.792969 L 101.453125 2.550781 L 101.078125 2.273438 L 101.648438 1.617188 L 100.875 1.453125 L 101.027344 1.023438 L 101.769531 1.332031 L 101.699219 0.511719 L 102.175781 0.511719 L 102.105469 1.332031 L 102.859375 1.035156 L 103 1.453125 M 107.890625 0.511719 L 107.820312 1.332031 L 108.574219 1.035156 L 108.714844 1.453125 L 107.933594 1.617188 L 108.492188 2.273438 L 108.117188 2.550781 L 107.648438 1.792969 L 107.167969 2.550781 L 106.792969 2.273438 L 107.363281 1.617188 L 106.589844 1.453125 L 106.742188 1.023438 L 107.484375 1.332031 L 107.414062 0.511719 L 107.890625 0.511719 M 109.601562 1.023438 L 110.34375 1.332031 L 110.269531 0.511719 L 110.75 0.511719 L 110.679688 1.332031 L 111.429688 1.035156 L 111.574219 1.453125 L 110.789062 1.617188 L 111.347656 2.273438 L 110.972656 2.550781 L 110.503906 1.792969 L 110.027344 2.550781 L 109.652344 2.273438 L 110.21875 1.617188 L 109.449219 1.453125 L 109.601562 1.023438 M 113.605469 0.511719 L 113.535156 1.332031 L 114.289062 1.035156 L 114.429688 1.453125 L 113.648438 1.617188 L 114.207031 2.273438 L 113.832031 2.550781 L 113.363281 1.792969 L 112.886719 2.550781 L 112.507812 2.273438 L 113.078125 1.617188 L 112.304688 1.453125 L 112.457031 1.023438 L 113.199219 1.332031 L 113.128906 0.511719 L 113.605469 0.511719 M 115.367188 2.273438 L 115.9375 1.617188 L 115.164062 1.453125 L 115.316406 1.023438 L 116.058594 1.332031 L 115.988281 0.511719 L 116.464844 0.511719 L 116.394531 1.332031 L 117.144531 1.035156 L 117.289062 1.453125 L 116.503906 1.617188 L 117.066406 2.273438 L 116.6875 2.550781 L 116.21875 1.792969 L 115.742188 2.550781 L 115.367188 2.273438 M 91.203125 0.851562 C 91.367188 1 91.445312 1.230469 91.445312 1.535156 L 91.445312 3.464844 C 91.445312 3.761719 91.367188 3.988281 91.203125 4.140625 C 91.039062 4.289062 90.828125 4.363281 90.5625 4.363281 L 90.449219 4.363281 C 90.1875 4.363281 89.972656 4.289062 89.808594 4.140625 C 89.648438 3.988281 89.566406 3.761719 89.566406 3.464844 L 89.566406 1.535156 C 89.566406 1.230469 89.648438 1 89.808594 0.851562 C 89.972656 0.707031 90.1875 0.636719 90.449219 0.636719 L 90.5625 0.636719 C 90.828125 0.636719 91.039062 0.707031 91.203125 0.851562 M 90.136719 1.15625 C 90.054688 1.238281 90.011719 1.335938 90.011719 1.445312 L 90.011719 2.890625 L 91 1.445312 C 91 1.335938 90.957031 1.238281 90.878906 1.15625 C 90.804688 1.074219 90.699219 1.035156 90.5625 1.035156 L 90.449219 1.035156 C 90.316406 1.035156 90.210938 1.074219 90.136719 1.15625 M 96.265625 0.636719 C 96.539062 0.636719 96.75 0.699219 96.898438 0.828125 C 97.054688 0.960938 97.132812 1.171875 97.132812 1.464844 L 97.132812 1.804688 C 97.132812 2.082031 97.035156 2.289062 96.847656 2.417969 C 96.960938 2.480469 97.050781 2.566406 97.113281 2.675781 C 97.164062 2.785156 97.191406 2.917969 97.191406 3.074219 L 97.191406 3.523438 C 97.191406 3.816406 97.125 4.03125 96.988281 4.160156 C 96.847656 4.296875 96.617188 4.363281 96.296875 4.363281 L 96.144531 4.363281 C 95.828125 4.363281 95.597656 4.296875 95.453125 4.160156 C 95.316406 4.03125 95.25 3.816406 95.25 3.523438 L 95.25 3.074219 C 95.25 2.917969 95.277344 2.785156 95.332031 2.675781 C 95.394531 2.566406 95.476562 2.480469 95.585938 2.417969 C 95.402344 2.289062 95.3125 2.082031 95.3125 1.804688 L 95.3125 1.464844 C 95.3125 1.171875 95.390625 0.960938 95.546875 0.828125 C 95.695312 0.699219 95.902344 0.636719 96.164062 0.636719 L 96.265625 0.636719 M 96.675781 1.414062 C 96.675781 1.285156 96.644531 1.1875 96.582031 1.128906 C 96.523438 1.066406 96.425781 1.035156 96.296875 1.035156 L 96.105469 1.035156 C 95.984375 1.042969 95.898438 1.074219 95.851562 1.136719 C 95.796875 1.199219 95.769531 1.289062 95.769531 1.414062 L 95.769531 1.855469 C 95.769531 1.96875 95.804688 2.0625 95.871094 2.132812 C 95.9375 2.199219 96.019531 2.238281 96.113281 2.242188 L 96.296875 2.242188 C 96.398438 2.242188 96.488281 2.210938 96.5625 2.140625 C 96.636719 2.074219 96.675781 1.976562 96.675781 1.855469 L 96.675781 1.414062 M 95.820312 2.746094 C 95.746094 2.8125 95.707031 2.90625 95.707031 3.023438 L 95.707031 3.574219 C 95.707031 3.707031 95.734375 3.804688 95.789062 3.871094 C 95.84375 3.933594 95.933594 3.964844 96.054688 3.964844 L 96.339844 3.964844 C 96.472656 3.964844 96.574219 3.933594 96.644531 3.871094 C 96.703125 3.8125 96.734375 3.710938 96.734375 3.574219 L 96.734375 3.023438 C 96.734375 2.90625 96.699219 2.8125 96.625 2.746094 C 96.554688 2.675781 96.464844 2.644531 96.347656 2.644531 L 96.09375 2.644531 C 95.980469 2.644531 95.886719 2.675781 95.820312 2.746094 M 69.96875 0 L 70.4375 0 L 70.667969 0.277344 L 70.851562 0.625 L 70.984375 1.085938 L 71.027344 1.671875 L 71.027344 3.328125 L 70.984375 3.925781 L 70.851562 4.375 L 70.667969 4.734375 L 70.4375 5 L 69.96875 5 L 70.261719 4.621094 L 70.457031 4.273438 L 70.546875 3.871094 L 70.578125 3.339844 L 70.578125 1.660156 L 70.546875 1.128906 L 70.457031 0.726562 L 70.261719 0.378906 L 69.96875 0 M 75.550781 0.636719 L 76.183594 3.894531 L 76.863281 0.636719 L 77.320312 0.636719 L 76.488281 4.363281 L 75.867188 4.363281 L 75.082031 0.636719 L 75.550781 0.636719 M 84.59375 0.636719 L 85.101562 0.636719 L 85.101562 3.964844 L 85.671875 3.964844 L 85.671875 4.363281 L 83.953125 4.363281 L 83.953125 3.964844 L 84.644531 3.964844 L 84.644531 1.054688 L 83.902344 1.332031 L 83.902344 0.902344 L 84.59375 0.636719 M 78.195312 0.636719 L 79.914062 0.636719 L 79.914062 1.148438 L 78.988281 4.363281 L 78.511719 4.363281 L 79.476562 1.035156 L 78.195312 1.035156 L 78.195312 0.636719 M 82.191406 3.832031 L 82.191406 4.363281 L 81.664062 4.363281 L 81.664062 3.832031 L 82.191406 3.832031 M 93.625 4.363281 L 93.09375 4.363281 L 93.09375 3.832031 L 93.625 3.832031 L 93.625 4.363281 M 90.5625 3.964844 C 90.699219 3.964844 90.804688 3.925781 90.878906 3.84375 C 90.957031 3.761719 91 3.664062 91 3.554688 L 91 2.121094 L 90.011719 3.554688 C 90.011719 3.664062 90.054688 3.761719 90.136719 3.84375 C 90.210938 3.925781 90.316406 3.964844 90.449219 3.964844 L 90.5625 3.964844 M 87.90625 4.363281 L 87.378906 4.363281 L 87.378906 3.832031 L 87.90625 3.832031 L 87.90625 4.363281 M 2.15625 0.511719 L 2.085938 1.332031 L 2.835938 1.035156 L 2.980469 1.453125 L 2.195312 1.617188 L 2.753906 2.273438 L 2.378906 2.550781 L 1.910156 1.792969 L 1.433594 2.550781 L 1.058594 2.273438 L 1.625 1.617188 L 0.855469 1.453125 L 1.007812 1.023438 L 1.75 1.332031 L 1.675781 0.511719 L 2.15625 0.511719 M 53.402344 0.636719 C 53.691406 0.636719 53.921875 0.699219 54.082031 0.828125 C 54.238281 0.960938 54.316406 1.171875 54.316406 1.464844 L 54.316406 2.070312 C 54.316406 2.363281 54.238281 2.578125 54.082031 2.714844 C 53.925781 2.851562 53.703125 2.921875 53.410156 2.921875 L 52.863281 2.921875 L 52.863281 4.363281 L 52.40625 4.363281 L 52.40625 0.636719 L 53.402344 0.636719 M 53.757812 1.128906 C 53.695312 1.066406 53.597656 1.035156 53.460938 1.035156 L 52.863281 1.035156 L 52.863281 2.511719 L 53.460938 2.511719 C 53.597656 2.511719 53.695312 2.480469 53.757812 2.417969 C 53.820312 2.355469 53.847656 2.261719 53.847656 2.132812 L 53.847656 1.414062 C 53.847656 1.285156 53.820312 1.1875 53.757812 1.128906 M 55.355469 2.5 L 57.074219 2.5 L 57.074219 2.898438 L 55.355469 2.898438 L 55.355469 2.5 M 59.179688 0.636719 C 59.484375 0.636719 59.71875 0.710938 59.878906 0.859375 C 60.050781 1.011719 60.132812 1.238281 60.132812 1.535156 L 60.132812 3.464844 C 60.132812 3.761719 60.050781 3.988281 59.878906 4.140625 C 59.71875 4.289062 59.484375 4.363281 59.179688 4.363281 L 58.964844 4.363281 C 58.660156 4.363281 58.421875 4.289062 58.253906 4.140625 C 58.089844 3.988281 58.007812 3.761719 58.007812 3.464844 L 58.007812 1.535156 C 58.007812 1.238281 58.089844 1.011719 58.253906 0.859375 C 58.421875 0.710938 58.660156 0.636719 58.964844 0.636719 L 59.179688 0.636719 M 58.914062 1.046875 C 58.777344 1.046875 58.667969 1.082031 58.589844 1.15625 C 58.511719 1.238281 58.476562 1.335938 58.476562 1.445312 L 58.476562 3.554688 C 58.476562 3.664062 58.511719 3.761719 58.589844 3.84375 C 58.667969 3.917969 58.777344 3.953125 58.914062 3.953125 L 59.230469 3.953125 C 59.363281 3.953125 59.472656 3.917969 59.554688 3.84375 C 59.628906 3.761719 59.667969 3.664062 59.667969 3.554688 L 59.667969 1.445312 C 59.667969 1.335938 59.628906 1.238281 59.554688 1.15625 C 59.472656 1.082031 59.363281 1.046875 59.230469 1.046875 L 58.914062 1.046875 M 64.617188 0.277344 L 64.851562 0 L 65.308594 0 L 65.027344 0.378906 L 64.832031 0.726562 L 64.730469 1.128906 L 64.710938 1.660156 L 64.710938 3.339844 L 64.730469 3.871094 L 64.832031 4.273438 L 65.027344 4.621094 L 65.308594 5 L 64.851562 5 L 64.617188 4.734375 L 64.4375 4.375 L 64.304688 3.925781 L 64.253906 3.328125 L 64.253906 1.671875 L 64.304688 1.085938 L 64.4375 0.625 L 64.617188 0.277344 M 61.609375 1.15625 C 61.527344 1.238281 61.488281 1.335938 61.488281 1.445312 L 61.488281 1.84375 C 61.488281 1.953125 61.519531 2.046875 61.589844 2.121094 C 61.664062 2.195312 61.757812 2.234375 61.871094 2.234375 L 62.027344 2.234375 C 62.269531 2.234375 62.460938 2.300781 62.605469 2.4375 C 62.746094 2.582031 62.820312 2.804688 62.820312 3.105469 L 62.820312 3.464844 C 62.820312 3.761719 62.738281 3.988281 62.574219 4.140625 C 62.410156 4.289062 62.179688 4.363281 61.871094 4.363281 L 61.121094 4.363281 L 61.121094 3.953125 L 61.921875 3.953125 C 62.058594 3.953125 62.164062 3.917969 62.238281 3.84375 C 62.320312 3.761719 62.359375 3.667969 62.359375 3.566406 L 62.359375 3.003906 C 62.359375 2.898438 62.332031 2.816406 62.28125 2.757812 C 62.230469 2.6875 62.152344 2.652344 62.035156 2.652344 L 61.871094 2.652344 C 61.621094 2.652344 61.417969 2.578125 61.261719 2.429688 C 61.105469 2.277344 61.027344 2.050781 61.027344 1.742188 L 61.027344 1.546875 C 61.027344 1.238281 61.109375 1.011719 61.273438 0.859375 C 61.4375 0.710938 61.667969 0.636719 61.976562 0.636719 L 62.738281 0.636719 L 62.738281 1.046875 L 61.921875 1.046875 C 61.796875 1.046875 61.691406 1.082031 61.609375 1.15625 M 68.257812 0.828125 C 68.414062 0.960938 68.492188 1.171875 68.492188 1.464844 L 68.492188 1.976562 C 68.492188 2.1875 68.453125 2.355469 68.371094 2.480469 C 68.285156 2.59375 68.164062 2.675781 68.015625 2.726562 L 68.746094 4.363281 L 68.25 4.363281 L 67.566406 2.816406 L 67.050781 2.816406 L 67.050781 4.363281 L 66.582031 4.363281 L 66.582031 0.636719 L 67.578125 0.636719 C 67.871094 0.636719 68.097656 0.699219 68.257812 0.828125 M 67.933594 1.128906 C 67.875 1.066406 67.773438 1.035156 67.640625 1.035156 L 67.050781 1.035156 L 67.050781 2.417969 L 67.640625 2.417969 C 67.773438 2.417969 67.875 2.386719 67.933594 2.324219 C 67.996094 2.265625 68.027344 2.164062 68.027344 2.027344 L 68.027344 1.414062 C 68.027344 1.285156 67.996094 1.1875 67.933594 1.128906 M 39.304688 0.511719 L 39.234375 1.332031 L 39.988281 1.035156 L 40.128906 1.453125 L 39.347656 1.617188 L 39.90625 2.273438 L 39.53125 2.550781 L 39.0625 1.792969 L 38.582031 2.550781 L 38.207031 2.273438 L 38.777344 1.617188 L 38.003906 1.453125 L 38.15625 1.023438 L 38.898438 1.332031 L 38.828125 0.511719 L 39.304688 0.511719 M 36.449219 0.511719 L 36.378906 1.332031 L 37.128906 1.035156 L 37.273438 1.453125 L 36.488281 1.617188 L 37.046875 2.273438 L 36.671875 2.550781 L 36.203125 1.792969 L 35.726562 2.550781 L 35.351562 2.273438 L 35.917969 1.617188 L 35.148438 1.453125 L 35.300781 1.023438 L 36.042969 1.332031 L 35.96875 0.511719 L 36.449219 0.511719 M 41.066406 2.273438 L 41.636719 1.617188 L 40.863281 1.453125 L 41.015625 1.023438 L 41.757812 1.332031 L 41.6875 0.511719 L 42.164062 0.511719 L 42.09375 1.332031 L 42.84375 1.035156 L 42.988281 1.453125 L 42.203125 1.617188 L 42.765625 2.273438 L 42.386719 2.550781 L 41.917969 1.792969 L 41.441406 2.550781 L 41.066406 2.273438 M 47.6875 0.636719 C 47.976562 0.636719 48.203125 0.699219 48.367188 0.828125 C 48.523438 0.960938 48.601562 1.171875 48.601562 1.464844 L 48.601562 2.070312 C 48.601562 2.363281 48.523438 2.578125 48.367188 2.714844 C 48.210938 2.851562 47.988281 2.921875 47.695312 2.921875 L 47.148438 2.921875 L 47.148438 4.363281 L 46.6875 4.363281 L 46.6875 0.636719 L 47.6875 0.636719 M 48.042969 1.128906 C 47.980469 1.066406 47.882812 1.035156 47.746094 1.035156 L 47.148438 1.035156 L 47.148438 2.511719 L 47.746094 2.511719 C 47.882812 2.511719 47.980469 2.480469 48.042969 2.417969 C 48.101562 2.355469 48.132812 2.261719 48.132812 2.132812 L 48.132812 1.414062 C 48.132812 1.285156 48.101562 1.1875 48.042969 1.128906 M 49.792969 0.636719 L 51.195312 0.636719 L 51.195312 1.023438 L 50.726562 1.023438 L 50.726562 3.976562 L 51.195312 3.976562 L 51.195312 4.363281 L 49.792969 4.363281 L 49.792969 3.976562 L 50.269531 3.976562 L 50.269531 1.023438 L 49.792969 1.023438 L 49.792969 0.636719 M 22.160156 0.511719 L 22.089844 1.332031 L 22.839844 1.035156 L 22.984375 1.453125 L 22.199219 1.617188 L 22.757812 2.273438 L 22.382812 2.550781 L 21.914062 1.792969 L 21.4375 2.550781 L 21.0625 2.273438 L 21.628906 1.617188 L 20.859375 1.453125 L 21.011719 1.023438 L 21.753906 1.332031 L 21.683594 0.511719 L 22.160156 0.511719 M 19.527344 2.550781 L 19.058594 1.792969 L 18.578125 2.550781 L 18.203125 2.273438 L 18.773438 1.617188 L 18 1.453125 L 18.152344 1.023438 L 18.894531 1.332031 L 18.824219 0.511719 L 19.300781 0.511719 L 19.230469 1.332031 L 19.984375 1.035156 L 20.125 1.453125 L 19.34375 1.617188 L 19.902344 2.273438 L 19.527344 2.550781 M 25.015625 0.511719 L 24.945312 1.332031 L 25.699219 1.035156 L 25.839844 1.453125 L 25.058594 1.617188 L 25.617188 2.273438 L 25.242188 2.550781 L 24.773438 1.792969 L 24.296875 2.550781 L 23.917969 2.273438 L 24.488281 1.617188 L 23.714844 1.453125 L 23.867188 1.023438 L 24.609375 1.332031 L 24.539062 0.511719 L 25.015625 0.511719 M 26.777344 2.273438 L 27.347656 1.617188 L 26.574219 1.453125 L 26.726562 1.023438 L 27.46875 1.332031 L 27.398438 0.511719 L 27.875 0.511719 L 27.804688 1.332031 L 28.554688 1.035156 L 28.699219 1.453125 L 27.914062 1.617188 L 28.476562 2.273438 L 28.097656 2.550781 L 27.632812 1.792969 L 27.152344 2.550781 L 26.777344 2.273438 M 30.734375 0.511719 L 30.660156 1.332031 L 31.414062 1.035156 L 31.554688 1.453125 L 30.773438 1.617188 L 31.332031 2.273438 L 30.957031 2.550781 L 30.488281 1.792969 L 30.011719 2.550781 L 29.632812 2.273438 L 30.203125 1.617188 L 29.429688 1.453125 L 29.582031 1.023438 L 30.324219 1.332031 L 30.253906 0.511719 L 30.734375 0.511719 M 33.589844 0.511719 L 33.519531 1.332031 L 34.273438 1.035156 L 34.414062 1.453125 L 33.632812 1.617188 L 34.191406 2.273438 L 33.8125 2.550781 L 33.347656 1.792969 L 32.867188 2.550781 L 32.492188 2.273438 L 33.0625 1.617188 L 32.289062 1.453125 L 32.441406 1.023438 L 33.183594 1.332031 L 33.113281 0.511719 L 33.589844 0.511719 M 3.914062 2.273438 L 4.484375 1.617188 L 3.710938 1.453125 L 3.863281 1.023438 L 4.605469 1.332031 L 4.535156 0.511719 L 5.011719 0.511719 L 4.941406 1.332031 L 5.695312 1.035156 L 5.835938 1.453125 L 5.054688 1.617188 L 5.613281 2.273438 C 5.492188 2.371094 5.367188 2.460938 5.238281 2.550781 L 4.769531 1.792969 L 4.292969 2.550781 L 3.914062 2.273438 M 6.722656 1.023438 L 7.464844 1.332031 L 7.394531 0.511719 L 7.871094 0.511719 L 7.800781 1.332031 L 8.550781 1.035156 L 8.695312 1.453125 L 7.910156 1.617188 L 8.472656 2.273438 L 8.09375 2.550781 L 7.625 1.792969 L 7.148438 2.550781 L 6.773438 2.273438 L 7.34375 1.617188 L 6.570312 1.453125 L 6.722656 1.023438 M 10.730469 0.511719 L 10.65625 1.332031 L 11.410156 1.035156 L 11.550781 1.453125 L 10.769531 1.617188 L 11.328125 2.273438 L 10.953125 2.550781 L 10.484375 1.792969 L 10.007812 2.550781 L 9.628906 2.273438 L 10.199219 1.617188 L 9.425781 1.453125 L 9.578125 1.023438 L 10.320312 1.332031 L 10.25 0.511719 L 10.730469 0.511719 M 13.058594 1.617188 L 12.285156 1.453125 L 12.4375 1.023438 L 13.179688 1.332031 L 13.109375 0.511719 L 13.585938 0.511719 L 13.515625 1.332031 L 14.269531 1.035156 L 14.410156 1.453125 L 13.628906 1.617188 L 14.1875 2.273438 L 13.808594 2.550781 L 13.34375 1.792969 L 12.863281 2.550781 L 12.488281 2.273438 L 13.058594 1.617188 M 16.445312 0.511719 L 16.371094 1.332031 L 17.125 1.035156 L 17.269531 1.453125 L 16.484375 1.617188 L 17.042969 2.273438 L 16.667969 2.550781 L 16.199219 1.792969 L 15.722656 2.550781 L 15.347656 2.273438 L 15.914062 1.617188 L 15.140625 1.453125 L 15.296875 1.023438 L 16.039062 1.332031 L 15.964844 0.511719 L 16.445312 0.511719 "/>
</g>
</svg>
