<?xml version="1.0" encoding="UTF-8"?>
<svg xmlns="http://www.w3.org/2000/svg" xmlns:xlink="http://www.w3.org/1999/xlink" width="132pt" height="14pt" viewBox="0 0 132 14" version="1.1">
<g id="surface1">
<path style=" stroke:none;fill-rule:nonzero;fill:rgb(100%,100%,100%);fill-opacity:1;" d="M 8.917969 0.03125 L 8.429688 5.632812 L 13.582031 3.601562 L 14.558594 6.476562 L 9.195312 7.59375 L 13.027344 12.078125 L 10.449219 13.96875 L 7.246094 8.785156 L 3.96875 13.96875 L 1.394531 12.078125 L 5.292969 7.59375 L 0 6.476562 L 1.042969 3.53125 L 6.128906 5.632812 L 5.640625 0.03125 L 8.917969 0.03125 M 132 6.476562 L 126.636719 7.59375 L 130.46875 12.078125 L 127.890625 13.96875 L 124.6875 8.785156 L 121.414062 13.96875 L 118.835938 12.078125 L 122.734375 7.59375 L 117.441406 6.476562 L 118.488281 3.53125 L 123.570312 5.632812 L 123.082031 0.03125 L 126.359375 0.03125 L 125.871094 5.632812 L 131.023438 3.601562 L 132 6.476562 M 20.964844 12.078125 L 24.867188 7.59375 L 19.574219 6.476562 L 20.617188 3.53125 L 25.703125 5.632812 L 25.214844 0.03125 L 28.488281 0.03125 L 28.003906 5.632812 L 33.15625 3.601562 L 34.132812 6.476562 L 28.769531 7.59375 L 32.597656 12.078125 C 31.761719 12.730469 30.90625 13.363281 30.023438 13.96875 L 26.816406 8.785156 L 23.542969 13.96875 L 20.964844 12.078125 M 40.191406 3.53125 L 45.277344 5.632812 L 44.789062 0.03125 L 48.0625 0.03125 L 47.574219 5.632812 L 52.730469 3.601562 L 53.707031 6.476562 L 48.34375 7.59375 L 52.171875 12.078125 L 49.597656 13.96875 L 46.390625 8.785156 L 43.117188 13.96875 L 40.539062 12.078125 L 44.441406 7.59375 L 39.148438 6.476562 L 40.191406 3.53125 M 67.636719 0.03125 L 67.148438 5.632812 L 72.304688 3.601562 L 73.277344 6.476562 L 67.914062 7.59375 L 71.746094 12.078125 L 69.167969 13.96875 L 65.964844 8.785156 L 62.691406 13.96875 L 60.113281 12.078125 L 64.015625 7.59375 L 58.722656 6.476562 L 59.765625 3.53125 L 64.851562 5.632812 L 64.363281 0.03125 L 67.636719 0.03125 M 83.589844 7.59375 L 78.292969 6.476562 L 79.339844 3.53125 L 84.425781 5.632812 L 83.9375 0.03125 L 87.210938 0.03125 L 86.722656 5.632812 L 91.878906 3.601562 L 92.851562 6.476562 L 87.488281 7.59375 L 91.320312 12.078125 L 88.742188 13.96875 L 85.539062 8.785156 L 82.265625 13.96875 L 79.6875 12.078125 L 83.589844 7.59375 M 106.785156 0.03125 L 106.296875 5.632812 L 111.453125 3.601562 L 112.425781 6.476562 L 107.0625 7.59375 L 110.894531 12.078125 L 108.316406 13.96875 L 105.113281 8.785156 L 101.839844 13.96875 L 99.261719 12.078125 L 103.160156 7.59375 L 97.867188 6.476562 L 98.914062 3.53125 L 103.996094 5.632812 L 103.511719 0.03125 L 106.785156 0.03125 "/>
</g>
</svg>
