<?xml version="1.0" encoding="UTF-8"?>
<svg xmlns="http://www.w3.org/2000/svg" xmlns:xlink="http://www.w3.org/1999/xlink" width="127pt" height="125pt" viewBox="0 0 127 125" version="1.1">
<g id="surface1">
<path style=" stroke:none;fill-rule:nonzero;fill:rgb(100%,100%,100%);fill-opacity:1;" d="M 76.035156 16.667969 C 72.71875 13.335938 68.574219 11.667969 63.605469 11.667969 C 58.769531 11.667969 54.625 13.335938 51.171875 16.667969 C 47.71875 20.28125 45.992188 24.515625 45.992188 29.375 C 45.992188 34.375 47.71875 38.613281 51.171875 42.085938 C 54.625 45.417969 58.769531 47.085938 63.605469 47.085938 C 68.574219 47.085938 72.71875 45.417969 76.035156 42.085938 C 79.488281 38.613281 81.214844 34.375 81.214844 29.375 C 81.214844 24.515625 79.488281 20.28125 76.035156 16.667969 M 63.605469 0.00390625 C 71.753906 0.00390625 78.726562 2.917969 84.527344 8.753906 C 90.191406 14.445312 93.023438 21.460938 93.023438 29.792969 L 91.78125 38.542969 L 99.652344 38.542969 C 103.242188 39.238281 106.351562 40.972656 108.976562 43.75 C 111.738281 46.527344 113.464844 49.652344 114.15625 53.125 L 125.964844 108.539062 C 126.65625 112.84375 125.6875 116.664062 123.0625 119.996094 C 120.300781 123.328125 116.640625 124.996094 112.082031 124.996094 L 14.917969 124.996094 C 10.359375 124.996094 6.769531 123.328125 4.144531 119.996094 C 1.382812 116.664062 0.414062 112.84375 1.242188 108.539062 L 13.050781 53.125 C 13.605469 49.652344 15.261719 46.527344 18.023438 43.75 C 20.785156 40.972656 23.894531 39.238281 27.347656 38.542969 L 35.425781 38.542969 C 34.460938 35.765625 33.976562 32.847656 33.976562 29.792969 C 33.976562 21.460938 36.878906 14.445312 42.679688 8.753906 C 48.480469 2.917969 55.453125 0.00390625 63.605469 0.00390625 "/>
</g>
</svg>
