<?xml version="1.0" encoding="UTF-8"?>
<svg xmlns="http://www.w3.org/2000/svg" xmlns:xlink="http://www.w3.org/1999/xlink" width="130pt" height="15pt" viewBox="0 0 130 15" version="1.1">
<g id="surface1">
<path style=" stroke:none;fill-rule:nonzero;fill:rgb(37.647059%,38.039216%,38.823529%);fill-opacity:1;" d="M 69.949219 13.363281 L 69.082031 13.363281 L 68.683594 13.300781 L 67.90625 13.078125 C 67.65625 12.96875 67.421875 12.839844 67.203125 12.691406 L 66.550781 12.148438 L 66.019531 11.503906 C 65.917969 11.363281 65.828125 11.199219 65.746094 11.015625 L 65.714844 13.332031 L 60.949219 13.332031 L 60.0625 13.148438 L 59.675781 12.976562 L 59.328125 12.78125 C 59.101562 12.632812 58.902344 12.453125 58.726562 12.25 C 58.535156 12.039062 58.378906 11.816406 58.257812 11.585938 C 58.113281 11.3125 58.007812 11.042969 57.941406 10.777344 C 57.859375 10.492188 57.804688 10.183594 57.777344 9.851562 L 57.308594 5.128906 L 57.308594 5.242188 L 57.265625 4.34375 C 57.265625 3.929688 57.308594 3.523438 57.390625 3.128906 C 57.46875 2.753906 57.589844 2.410156 57.746094 2.097656 C 57.902344 1.789062 58.101562 1.511719 58.335938 1.257812 C 58.582031 0.992188 58.859375 0.773438 59.164062 0.605469 L 59.574219 0.390625 L 60.03125 0.238281 L 60.511719 0.113281 L 61.042969 0.03125 L 65.785156 0.03125 L 65.753906 2.554688 L 66.089844 1.972656 C 66.253906 1.726562 66.441406 1.503906 66.652344 1.300781 L 67.324219 0.746094 C 67.589844 0.578125 67.84375 0.445312 68.082031 0.347656 C 68.304688 0.253906 68.578125 0.175781 68.898438 0.113281 L 69.785156 0.03125 L 70.671875 0.113281 L 71.507812 0.347656 C 71.761719 0.449219 72.015625 0.585938 72.273438 0.757812 L 72.988281 1.300781 C 73.199219 1.496094 73.398438 1.722656 73.582031 1.972656 C 73.738281 2.175781 73.882812 2.425781 74.019531 2.71875 L 74.027344 2.75 L 74.027344 2.207031 L 74.753906 0.03125 L 78.753906 0.03125 L 80.058594 5.273438 L 81.375 0.03125 L 90.273438 0.03125 L 91.382812 4.375 L 92.902344 0.03125 L 96.914062 0.03125 L 97.078125 8.847656 L 95.046875 13.332031 L 92.515625 13.332031 L 92.507812 11.003906 L 91.578125 13.332031 L 88.363281 13.332031 L 87.914062 11.699219 L 87.363281 13.332031 L 84.882812 13.332031 L 84.90625 10.882812 L 84.191406 13.332031 L 81.660156 13.332031 L 81.660156 9.359375 L 80.710938 13.332031 L 77.507812 13.332031 L 76.894531 11.074219 L 76.507812 13.332031 L 74.027344 13.332031 L 74.027344 7.386719 L 73.734375 9.746094 L 73.589844 10.410156 L 73.335938 11.035156 L 72.976562 11.617188 L 72.519531 12.148438 L 71.855469 12.679688 C 71.632812 12.835938 71.390625 12.96875 71.132812 13.078125 C 70.875 13.179688 70.613281 13.253906 70.347656 13.300781 L 69.949219 13.363281 M 26.976562 13.363281 L 26.109375 13.363281 L 25.699219 13.300781 C 25.457031 13.253906 25.199219 13.179688 24.933594 13.078125 C 24.683594 12.960938 24.453125 12.832031 24.242188 12.691406 L 23.609375 12.148438 L 23.292969 11.78125 L 23.140625 11.585938 L 20.566406 7.355469 L 20.566406 13.3125 L 20.597656 13.355469 L 18.019531 13.34375 L 17.046875 11.945312 L 17.570312 13.332031 L 11.855469 13.332031 L 10.988281 12.238281 L 10.5 13.332031 L 8.007812 13.332031 L 4.203125 8.847656 L 7.476562 1.402344 L 4.550781 8.765625 L 5.582031 8.765625 L 8.683594 0.980469 L 10.109375 0.980469 L 12.753906 7.859375 L 7.957031 7.859375 L 8.507812 8.765625 L 14.261719 8.765625 L 10.84375 0.0742188 L 8.058594 0.0742188 L 8.070312 0.03125 L 11.132812 0.03125 L 12.578125 2.207031 L 12.628906 0.398438 L 12.628906 0.980469 L 20.097656 0.980469 L 20.527344 0.0742188 L 12.640625 0.0742188 L 12.640625 0.03125 L 20.925781 0.03125 L 21.425781 0.929688 L 21.691406 0.746094 L 21.824219 0.675781 C 21.53125 0.851562 21.253906 1.070312 20.996094 1.328125 C 20.167969 2.160156 19.753906 3.183594 19.753906 4.40625 C 19.753906 5.625 20.171875 6.664062 21.015625 7.53125 C 21.859375 8.390625 22.871094 8.816406 24.046875 8.816406 C 25.246094 8.816406 26.273438 8.386719 27.136719 7.519531 C 28.007812 6.65625 28.445312 5.617188 28.445312 4.40625 C 28.445312 3.199219 28.003906 2.175781 27.128906 1.339844 C 26.246094 0.496094 25.210938 0.0742188 24.027344 0.0742188 C 23.328125 0.0742188 22.6875 0.21875 22.109375 0.511719 L 22.445312 0.347656 C 22.683594 0.253906 22.957031 0.175781 23.273438 0.113281 L 24.160156 0.03125 L 25.046875 0.113281 C 25.332031 0.167969 25.609375 0.246094 25.875 0.347656 C 26.132812 0.449219 26.386719 0.585938 26.640625 0.757812 C 26.855469 0.894531 27.085938 1.074219 27.332031 1.300781 L 27.914062 1.972656 L 28.28125 2.617188 L 28.25 2.566406 L 28.894531 3.925781 L 28.976562 0.03125 L 33.128906 0.03125 L 34.65625 3.945312 L 35.75 0.03125 L 52.011719 0.03125 L 52.808594 5.058594 L 52.226562 6.078125 L 52.238281 6.109375 L 51.972656 6.582031 L 52.757812 11.125 L 52.726562 13.332031 L 47.972656 13.332031 L 47.085938 13.148438 L 46.707031 12.976562 L 46.351562 12.78125 C 46.199219 12.679688 46.046875 12.554688 45.890625 12.402344 L 45.511719 11.953125 C 45.390625 11.777344 45.292969 11.601562 45.21875 11.433594 L 44.992188 10.820312 L 44.472656 8.992188 L 44.472656 13.332031 L 41.933594 13.332031 L 41.207031 11.175781 L 41.207031 13.332031 L 38.675781 13.332031 L 38.117188 11.882812 L 37.738281 13.332031 L 34.523438 13.332031 L 33.546875 11.148438 L 33.523438 13.332031 L 31.046875 13.332031 L 30.128906 11.503906 L 29.566406 12.148438 L 28.894531 12.679688 L 28.167969 13.078125 L 27.375 13.300781 L 26.976562 13.363281 M 122.347656 0.144531 L 121.859375 0.0742188 L 117.105469 0.0742188 L 117.105469 8.765625 L 121.664062 8.765625 C 122.339844 8.699219 122.914062 8.515625 123.390625 8.214844 C 124.539062 7.472656 125.105469 6.175781 125.09375 4.324219 C 125.085938 3.191406 124.863281 2.28125 124.417969 1.585938 L 124.695312 2.066406 C 124.851562 2.378906 124.96875 2.726562 125.050781 3.105469 C 125.140625 3.46875 125.191406 3.875 125.203125 4.332031 C 125.21875 4.824219 125.199219 5.257812 125.144531 5.628906 C 125.089844 6.011719 124.992188 6.375 124.847656 6.722656 C 124.710938 7.035156 124.539062 7.328125 124.328125 7.59375 L 124.335938 7.59375 L 120.605469 12.160156 L 120.265625 12.503906 L 119.878906 12.800781 L 119.511719 13.007812 L 119.113281 13.148438 L 118.675781 13.261719 L 118.207031 13.332031 L 113.769531 13.332031 L 113.777344 12.3125 L 113.035156 13.332031 L 109.472656 13.332031 L 108.820312 11.699219 L 107.769531 13.332031 L 105.289062 13.332031 L 105.300781 12.769531 L 104.953125 13.332031 L 99.238281 13.332031 L 98.496094 12.105469 L 97.882812 13.332031 L 95.394531 13.332031 L 98.605469 5.058594 L 100.851562 0.03125 L 103.902344 0.03125 L 103.921875 0.0742188 L 101.074219 0.0742188 L 97.617188 8.765625 L 98.648438 8.765625 L 101.769531 0.980469 L 103.175781 0.980469 L 105.820312 7.859375 L 101.035156 7.859375 L 101.574219 8.765625 L 107.339844 8.765625 L 103.992188 0.246094 L 105.320312 3.382812 L 107.777344 0.03125 L 111.738281 0.03125 L 113.011719 3.414062 L 113.035156 0.511719 L 113.574219 0.03125 L 121.675781 0.03125 L 122.152344 0.105469 L 122.347656 0.144531 M 95.535156 8.765625 L 95.535156 1.238281 L 94.160156 1.238281 L 92.445312 7.859375 L 90.8125 7.859375 L 89.109375 1.238281 L 87.667969 1.238281 L 87.667969 8.765625 L 88.667969 8.765625 L 88.667969 3.515625 L 90.015625 8.765625 L 93.1875 8.765625 L 94.484375 3.464844 L 94.484375 8.765625 L 95.535156 8.765625 M 103.992188 6.691406 L 100.820312 6.691406 L 102.441406 2.515625 L 103.992188 6.691406 M 95.820312 8.765625 L 96.851562 8.765625 L 96.851562 0.0742188 L 93.117188 0.0742188 L 91.609375 5.957031 L 90.230469 0.0742188 L 86.355469 0.0742188 L 86.355469 8.765625 L 87.382812 8.765625 L 87.382812 0.980469 L 89.332031 0.980469 L 91.066406 7.601562 L 92.179688 7.601562 L 93.945312 0.980469 L 95.820312 0.980469 L 95.820312 8.765625 M 102.972656 1.238281 L 101.984375 1.238281 L 98.933594 8.765625 L 99.933594 8.765625 L 100.628906 7.113281 L 100.890625 7.601562 L 105.410156 7.601562 L 102.972656 1.238281 M 114.769531 0.0742188 L 113.738281 0.0742188 L 113.738281 5.609375 L 111.605469 0.0742188 L 108.085938 0.0742188 L 108.085938 8.765625 L 109.117188 8.765625 L 109.117188 0.980469 L 110.789062 0.980469 L 113.410156 7.601562 L 114.769531 7.601562 L 114.769531 0.0742188 M 116.011719 0.0742188 L 115.023438 0.0742188 L 115.023438 7.859375 L 113.207031 7.859375 L 110.605469 1.238281 L 109.390625 1.238281 L 109.390625 8.765625 L 110.402344 8.765625 L 110.402344 3.117188 L 112.480469 8.765625 L 116.011719 8.765625 L 116.011719 0.0742188 M 122.714844 1.625 C 122.394531 1.40625 122.023438 1.277344 121.601562 1.238281 L 118.421875 1.238281 L 118.421875 7.601562 L 121.449219 7.601562 C 121.898438 7.5625 122.289062 7.429688 122.625 7.203125 C 123.414062 6.660156 123.808594 5.710938 123.808594 4.363281 C 123.808594 3.0625 123.441406 2.148438 122.714844 1.625 M 121.726562 0.980469 C 122.1875 1.03125 122.582031 1.171875 122.910156 1.410156 C 123.703125 1.976562 124.101562 2.957031 124.101562 4.355469 C 124.101562 5.816406 123.675781 6.839844 122.816406 7.417969 C 122.46875 7.648438 122.042969 7.796875 121.53125 7.859375 L 118.132812 7.859375 L 118.132812 0.980469 L 121.726562 0.980469 M 121.226562 2.175781 C 121.511719 2.203125 121.761719 2.296875 121.980469 2.453125 C 122.492188 2.828125 122.746094 3.46875 122.746094 4.375 C 122.746094 5.347656 122.484375 6.023438 121.960938 6.398438 C 121.742188 6.558594 121.472656 6.660156 121.15625 6.691406 L 119.429688 6.691406 L 119.429688 2.175781 L 121.226562 2.175781 M 69.796875 0.0742188 C 68.605469 0.0742188 67.597656 0.492188 66.773438 1.328125 C 65.9375 2.175781 65.519531 3.199219 65.519531 4.40625 C 65.519531 5.625 65.941406 6.664062 66.785156 7.53125 C 67.628906 8.390625 68.640625 8.816406 69.816406 8.816406 C 71.019531 8.816406 72.050781 8.386719 72.90625 7.519531 C 73.777344 6.65625 74.210938 5.617188 74.210938 4.40625 C 74.210938 3.199219 73.773438 2.175781 72.898438 1.339844 C 72.019531 0.496094 70.984375 0.0742188 69.796875 0.0742188 M 67.488281 1.953125 C 68.09375 1.304688 68.863281 0.980469 69.796875 0.980469 C 70.742188 0.980469 71.539062 1.316406 72.191406 1.984375 C 72.847656 2.644531 73.171875 3.457031 73.171875 4.425781 C 73.171875 5.40625 72.847656 6.222656 72.203125 6.875 C 71.5625 7.53125 70.773438 7.859375 69.835938 7.859375 C 68.902344 7.859375 68.128906 7.523438 67.511719 6.855469 C 66.898438 6.203125 66.589844 5.382812 66.589844 4.394531 C 66.589844 3.421875 66.890625 2.605469 67.488281 1.953125 M 69.796875 1.238281 C 68.945312 1.238281 68.246094 1.539062 67.695312 2.136719 C 67.140625 2.734375 66.867188 3.484375 66.867188 4.382812 C 66.867188 5.296875 67.148438 6.058594 67.714844 6.671875 C 68.265625 7.292969 68.972656 7.601562 69.835938 7.601562 C 70.699219 7.601562 71.414062 7.296875 71.976562 6.683594 C 72.550781 6.078125 72.835938 5.316406 72.835938 4.40625 C 72.835938 3.511719 72.542969 2.761719 71.957031 2.148438 C 71.378906 1.539062 70.660156 1.238281 69.796875 1.238281 M 68.386719 2.769531 C 68.734375 2.375 69.203125 2.175781 69.796875 2.175781 C 70.414062 2.175781 70.910156 2.382812 71.285156 2.789062 C 71.671875 3.191406 71.867188 3.730469 71.867188 4.40625 C 71.867188 5.078125 71.675781 5.628906 71.296875 6.050781 C 70.925781 6.476562 70.441406 6.691406 69.835938 6.691406 C 69.25 6.691406 68.773438 6.476562 68.40625 6.050781 C 68.054688 5.628906 67.878906 5.070312 67.878906 4.382812 C 67.878906 3.703125 68.046875 3.164062 68.386719 2.769531 M 65.019531 0.980469 L 65.519531 0.0742188 L 61.042969 0.0742188 C 60.339844 0.140625 59.738281 0.332031 59.234375 0.644531 C 58.023438 1.367188 57.417969 2.597656 57.417969 4.332031 C 57.417969 6.152344 57.964844 7.4375 59.050781 8.195312 C 59.507812 8.5 60.054688 8.691406 60.695312 8.765625 L 65.613281 8.765625 L 65.621094 7.859375 L 60.949219 7.859375 C 60.453125 7.808594 60.035156 7.667969 59.695312 7.429688 C 58.863281 6.84375 58.449219 5.816406 58.449219 4.355469 C 58.449219 2.949219 58.914062 1.96875 59.847656 1.410156 C 60.242188 1.171875 60.707031 1.03125 61.246094 0.980469 L 65.019531 0.980469 M 64.398438 2.175781 L 64.917969 1.238281 L 61.417969 1.238281 C 60.886719 1.265625 60.441406 1.382812 60.070312 1.59375 C 59.175781 2.105469 58.726562 3.03125 58.726562 4.375 C 58.726562 5.722656 59.125 6.664062 59.917969 7.203125 C 60.246094 7.429688 60.640625 7.5625 61.101562 7.601562 L 65.613281 7.601562 L 65.621094 6.691406 L 61.410156 6.691406 C 61.089844 6.660156 60.808594 6.558594 60.570312 6.398438 C 60.019531 6 59.746094 5.316406 59.746094 4.34375 C 59.746094 3.429688 60.066406 2.796875 60.703125 2.441406 C 60.96875 2.285156 61.285156 2.199219 61.652344 2.175781 L 64.398438 2.175781 M 83.964844 1.238281 L 82.597656 1.238281 L 80.863281 7.859375 L 79.253906 7.859375 L 77.550781 1.238281 L 76.101562 1.238281 L 76.101562 8.765625 L 77.109375 8.765625 L 77.109375 3.515625 L 78.457031 8.765625 L 81.621094 8.765625 L 82.90625 3.464844 L 82.90625 8.765625 L 83.964844 8.765625 L 83.964844 1.238281 M 82.363281 0.980469 L 84.253906 0.980469 L 84.253906 8.765625 L 85.292969 8.765625 L 85.292969 0.0742188 L 81.546875 0.0742188 L 80.046875 5.957031 L 78.660156 0.0742188 L 74.785156 0.0742188 L 74.785156 8.765625 L 75.816406 8.765625 L 75.816406 0.980469 L 77.773438 0.980469 L 79.507812 7.601562 L 80.609375 7.601562 L 82.363281 0.980469 M 65.355469 5.722656 L 65.164062 6.070312 L 65.164062 6.109375 L 64.949219 6.488281 L 65.347656 6.488281 L 65.355469 5.722656 M 19.507812 2.175781 L 19.957031 1.238281 L 16.46875 1.238281 L 16.46875 8.789062 L 17.570312 8.789062 L 17.570312 2.175781 L 19.507812 2.175781 M 24.027344 1.238281 C 23.167969 1.238281 22.46875 1.539062 21.925781 2.136719 C 21.375 2.734375 21.097656 3.484375 21.097656 4.382812 C 21.097656 5.296875 21.382812 6.058594 21.945312 6.671875 C 22.496094 7.292969 23.199219 7.601562 24.058594 7.601562 C 24.929688 7.601562 25.640625 7.296875 26.199219 6.683594 C 26.777344 6.078125 27.066406 5.316406 27.066406 4.40625 C 27.066406 3.511719 26.773438 2.761719 26.191406 2.148438 C 25.613281 1.539062 24.890625 1.238281 24.027344 1.238281 M 21.722656 1.953125 C 22.328125 1.304688 23.09375 0.980469 24.027344 0.980469 C 24.964844 0.980469 25.765625 1.316406 26.425781 1.984375 C 27.078125 2.644531 27.402344 3.457031 27.402344 4.425781 C 27.402344 5.40625 27.082031 6.222656 26.433594 6.875 C 25.796875 7.53125 25.003906 7.859375 24.058594 7.859375 C 23.132812 7.859375 22.355469 7.523438 21.730469 6.855469 C 21.117188 6.195312 20.8125 5.375 20.8125 4.394531 C 20.8125 3.421875 21.117188 2.605469 21.722656 1.953125 M 22.617188 2.769531 C 22.964844 2.375 23.433594 2.175781 24.027344 2.175781 C 24.644531 2.175781 25.140625 2.382812 25.515625 2.789062 C 25.902344 3.207031 26.097656 3.742188 26.097656 4.40625 C 26.097656 5.078125 25.90625 5.628906 25.527344 6.050781 C 25.152344 6.476562 24.664062 6.691406 24.058594 6.691406 C 23.472656 6.691406 23 6.476562 22.640625 6.050781 C 22.285156 5.628906 22.109375 5.070312 22.109375 4.382812 C 22.109375 3.703125 22.277344 3.164062 22.617188 2.769531 M 30.046875 0.980469 L 31.996094 0.980469 L 33.738281 7.601562 L 34.839844 7.601562 L 36.597656 0.980469 L 38.484375 0.980469 L 38.484375 8.765625 L 39.523438 8.765625 L 39.523438 0.0742188 L 35.78125 0.0742188 L 34.28125 5.957031 L 32.894531 0.0742188 L 29.015625 0.0742188 L 29.015625 8.765625 L 30.046875 8.765625 L 30.046875 0.980469 M 31.769531 1.238281 L 30.332031 1.238281 L 30.332031 8.765625 L 31.34375 8.765625 L 31.34375 3.515625 L 32.6875 8.765625 L 35.851562 8.765625 L 37.136719 3.464844 L 37.136719 8.765625 L 38.1875 8.765625 L 38.1875 1.238281 L 36.832031 1.238281 L 35.097656 7.859375 L 33.484375 7.859375 L 31.769531 1.238281 M 41.648438 0.0742188 L 40.617188 0.0742188 L 40.617188 8.765625 L 41.648438 8.765625 L 41.648438 0.0742188 M 42.921875 0.0742188 L 41.910156 0.0742188 L 41.910156 8.765625 L 42.921875 8.765625 L 42.921875 0.0742188 M 47.605469 1.238281 C 47.074219 1.265625 46.625 1.382812 46.257812 1.59375 C 45.359375 2.097656 44.910156 3.027344 44.910156 4.375 C 44.910156 5.730469 45.300781 6.671875 46.085938 7.203125 C 46.425781 7.429688 46.824219 7.5625 47.289062 7.601562 L 51.789062 7.601562 L 51.796875 6.691406 L 47.585938 6.691406 C 47.265625 6.660156 46.984375 6.558594 46.746094 6.398438 C 46.195312 6.007812 45.921875 5.324219 45.921875 4.34375 C 45.921875 3.429688 46.246094 2.796875 46.890625 2.441406 C 47.15625 2.285156 47.472656 2.199219 47.839844 2.175781 L 50.574219 2.175781 L 51.09375 1.238281 L 47.605469 1.238281 M 46.023438 1.410156 C 46.417969 1.171875 46.886719 1.03125 47.429688 0.980469 L 51.207031 0.980469 L 51.695312 0.0742188 L 47.21875 0.0742188 C 46.515625 0.140625 45.914062 0.332031 45.410156 0.644531 C 44.199219 1.375 43.59375 2.601562 43.59375 4.332031 C 43.59375 6.152344 44.144531 7.4375 45.238281 8.195312 C 45.6875 8.5 46.230469 8.691406 46.871094 8.765625 L 51.789062 8.765625 L 51.796875 7.859375 L 47.125 7.859375 C 46.628906 7.808594 46.210938 7.667969 45.871094 7.429688 C 45.039062 6.84375 44.625 5.816406 44.625 4.355469 C 44.625 2.949219 45.089844 1.96875 46.023438 1.410156 M 14.976562 5.976562 L 14.621094 5.457031 L 14.957031 6.367188 L 14.976562 5.976562 M 10.925781 6.691406 L 7.742188 6.691406 L 9.367188 2.515625 L 10.925781 6.691406 M 9.894531 1.238281 L 8.90625 1.238281 L 5.867188 8.765625 L 6.867188 8.765625 L 7.558594 7.113281 L 7.824219 7.601562 L 12.34375 7.601562 L 9.894531 1.238281 M 15.140625 8.777344 L 16.222656 8.789062 L 16.222656 1.238281 L 12.628906 1.238281 L 12.628906 2.175781 L 15.140625 2.175781 L 15.140625 8.777344 "/>
<path style=" stroke:none;fill-rule:nonzero;fill:rgb(100%,100%,100%);fill-opacity:1;" d="M 69.949219 13.363281 L 130 13.363281 L 130 13.691406 L 0 13.691406 L 0 13.363281 L 69.949219 13.363281 M 130 14.640625 L 130 14.96875 L 0 14.96875 L 0 14.640625 L 130 14.640625 M 7.476562 1.402344 L 8 0.0742188 L 10.84375 0.0742188 L 14.261719 8.765625 L 8.507812 8.765625 L 7.957031 7.859375 L 12.753906 7.859375 L 10.109375 0.980469 L 8.683594 0.980469 L 5.582031 8.765625 L 4.550781 8.765625 L 7.476562 1.402344 M 12.628906 0.398438 L 12.628906 0.0742188 L 20.527344 0.0742188 L 20.097656 0.980469 L 12.628906 0.980469 L 12.628906 0.398438 M 21.824219 0.675781 L 21.914062 0.613281 L 22.058594 0.542969 L 22.109375 0.511719 C 22.6875 0.21875 23.328125 0.0742188 24.027344 0.0742188 C 25.210938 0.0742188 26.246094 0.496094 27.128906 1.339844 C 28.003906 2.175781 28.445312 3.199219 28.445312 4.40625 C 28.445312 5.617188 28.007812 6.65625 27.136719 7.519531 C 26.273438 8.386719 25.246094 8.816406 24.046875 8.816406 C 22.871094 8.816406 21.859375 8.390625 21.015625 7.53125 C 20.171875 6.664062 19.753906 5.625 19.753906 4.40625 C 19.753906 3.183594 20.167969 2.160156 20.996094 1.328125 C 21.253906 1.070312 21.53125 0.851562 21.824219 0.675781 M 122.347656 0.144531 L 122.417969 0.164062 L 122.601562 0.214844 C 122.917969 0.3125 123.207031 0.445312 123.46875 0.613281 C 123.851562 0.867188 124.167969 1.191406 124.417969 1.585938 C 124.863281 2.28125 125.085938 3.191406 125.09375 4.324219 C 125.105469 6.175781 124.539062 7.472656 123.390625 8.214844 C 122.914062 8.515625 122.339844 8.699219 121.664062 8.765625 L 117.105469 8.765625 L 117.105469 0.0742188 L 121.859375 0.0742188 L 122.347656 0.144531 M 103.921875 0.0742188 L 103.992188 0.246094 L 107.339844 8.765625 L 101.574219 8.765625 L 101.035156 7.859375 L 105.820312 7.859375 L 103.175781 0.980469 L 101.769531 0.980469 L 98.648438 8.765625 L 97.617188 8.765625 L 101.074219 0.0742188 L 103.921875 0.0742188 M 121.226562 2.175781 L 119.429688 2.175781 L 119.429688 6.691406 L 121.15625 6.691406 C 121.472656 6.660156 121.742188 6.558594 121.960938 6.398438 C 122.484375 6.023438 122.746094 5.347656 122.746094 4.375 C 122.746094 3.46875 122.492188 2.828125 121.980469 2.453125 C 121.761719 2.296875 121.511719 2.203125 121.226562 2.175781 M 121.726562 0.980469 L 118.132812 0.980469 L 118.132812 7.859375 L 121.53125 7.859375 C 122.042969 7.796875 122.46875 7.648438 122.816406 7.417969 C 123.675781 6.839844 124.101562 5.816406 124.101562 4.355469 C 124.101562 2.957031 123.703125 1.976562 122.910156 1.410156 C 122.582031 1.171875 122.1875 1.03125 121.726562 0.980469 M 122.714844 1.625 C 123.441406 2.148438 123.808594 3.0625 123.808594 4.363281 C 123.808594 5.710938 123.414062 6.660156 122.625 7.203125 C 122.289062 7.429688 121.898438 7.5625 121.449219 7.601562 L 118.421875 7.601562 L 118.421875 1.238281 L 121.601562 1.238281 C 122.023438 1.277344 122.394531 1.40625 122.714844 1.625 M 116.011719 0.0742188 L 116.011719 8.765625 L 112.480469 8.765625 L 110.402344 3.117188 L 110.402344 8.765625 L 109.390625 8.765625 L 109.390625 1.238281 L 110.605469 1.238281 L 113.207031 7.859375 L 115.023438 7.859375 L 115.023438 0.0742188 L 116.011719 0.0742188 M 114.769531 0.0742188 L 114.769531 7.601562 L 113.410156 7.601562 L 110.789062 0.980469 L 109.117188 0.980469 L 109.117188 8.765625 L 108.085938 8.765625 L 108.085938 0.0742188 L 111.605469 0.0742188 L 113.738281 5.609375 L 113.738281 0.0742188 L 114.769531 0.0742188 M 102.972656 1.238281 L 105.410156 7.601562 L 100.890625 7.601562 L 100.628906 7.113281 L 99.933594 8.765625 L 98.933594 8.765625 L 101.984375 1.238281 L 102.972656 1.238281 M 95.820312 8.765625 L 95.820312 0.980469 L 93.945312 0.980469 L 92.179688 7.601562 L 91.066406 7.601562 L 89.332031 0.980469 L 87.382812 0.980469 L 87.382812 8.765625 L 86.355469 8.765625 L 86.355469 0.0742188 L 90.230469 0.0742188 L 91.609375 5.957031 L 93.117188 0.0742188 L 96.851562 0.0742188 L 96.851562 8.765625 L 95.820312 8.765625 M 103.992188 6.691406 L 102.441406 2.515625 L 100.820312 6.691406 L 103.992188 6.691406 M 95.535156 8.765625 L 94.484375 8.765625 L 94.484375 3.464844 L 93.1875 8.765625 L 90.015625 8.765625 L 88.667969 3.515625 L 88.667969 8.765625 L 87.667969 8.765625 L 87.667969 1.238281 L 89.109375 1.238281 L 90.8125 7.859375 L 92.445312 7.859375 L 94.160156 1.238281 L 95.535156 1.238281 L 95.535156 8.765625 M 82.363281 0.980469 L 80.609375 7.601562 L 79.507812 7.601562 L 77.773438 0.980469 L 75.816406 0.980469 L 75.816406 8.765625 L 74.785156 8.765625 L 74.785156 0.0742188 L 78.660156 0.0742188 L 80.046875 5.957031 L 81.546875 0.0742188 L 85.292969 0.0742188 L 85.292969 8.765625 L 84.253906 8.765625 L 84.253906 0.980469 L 82.363281 0.980469 M 83.964844 1.238281 L 83.964844 8.765625 L 82.90625 8.765625 L 82.90625 3.464844 L 81.621094 8.765625 L 78.457031 8.765625 L 77.109375 3.515625 L 77.109375 8.765625 L 76.101562 8.765625 L 76.101562 1.238281 L 77.550781 1.238281 L 79.253906 7.859375 L 80.863281 7.859375 L 82.597656 1.238281 L 83.964844 1.238281 M 64.398438 2.175781 L 61.652344 2.175781 C 61.285156 2.199219 60.96875 2.285156 60.703125 2.441406 C 60.066406 2.796875 59.746094 3.429688 59.746094 4.34375 C 59.746094 5.316406 60.019531 6 60.570312 6.398438 C 60.808594 6.558594 61.089844 6.660156 61.410156 6.691406 L 65.621094 6.691406 L 65.613281 7.601562 L 61.101562 7.601562 C 60.640625 7.5625 60.246094 7.429688 59.917969 7.203125 C 59.125 6.664062 58.726562 5.722656 58.726562 4.375 C 58.726562 3.03125 59.175781 2.105469 60.070312 1.59375 C 60.441406 1.382812 60.886719 1.265625 61.417969 1.238281 L 64.917969 1.238281 L 64.398438 2.175781 M 65.019531 0.980469 L 61.246094 0.980469 C 60.707031 1.03125 60.242188 1.171875 59.847656 1.410156 C 58.914062 1.96875 58.449219 2.949219 58.449219 4.355469 C 58.449219 5.816406 58.863281 6.84375 59.695312 7.429688 C 60.035156 7.667969 60.453125 7.808594 60.949219 7.859375 L 65.621094 7.859375 L 65.613281 8.765625 L 60.695312 8.765625 C 60.054688 8.691406 59.507812 8.5 59.050781 8.195312 C 57.964844 7.4375 57.417969 6.152344 57.417969 4.332031 C 57.417969 2.597656 58.023438 1.367188 59.234375 0.644531 C 59.738281 0.332031 60.339844 0.140625 61.042969 0.0742188 L 65.519531 0.0742188 L 65.019531 0.980469 M 68.386719 2.769531 C 68.046875 3.164062 67.878906 3.703125 67.878906 4.382812 C 67.878906 5.070312 68.054688 5.628906 68.40625 6.050781 C 68.773438 6.476562 69.25 6.691406 69.835938 6.691406 C 70.441406 6.691406 70.925781 6.476562 71.296875 6.050781 C 71.675781 5.628906 71.867188 5.078125 71.867188 4.40625 C 71.867188 3.730469 71.671875 3.191406 71.285156 2.789062 C 70.910156 2.382812 70.414062 2.175781 69.796875 2.175781 C 69.203125 2.175781 68.734375 2.375 68.386719 2.769531 M 69.796875 1.238281 C 70.660156 1.238281 71.378906 1.539062 71.957031 2.148438 C 72.542969 2.761719 72.835938 3.511719 72.835938 4.40625 C 72.835938 5.316406 72.550781 6.078125 71.976562 6.683594 C 71.414062 7.296875 70.699219 7.601562 69.835938 7.601562 C 68.972656 7.601562 68.265625 7.292969 67.714844 6.671875 C 67.148438 6.058594 66.867188 5.296875 66.867188 4.382812 C 66.867188 3.484375 67.140625 2.734375 67.695312 2.136719 C 68.246094 1.539062 68.945312 1.238281 69.796875 1.238281 M 67.488281 1.953125 C 66.890625 2.605469 66.589844 3.421875 66.589844 4.394531 C 66.589844 5.382812 66.898438 6.203125 67.511719 6.855469 C 68.128906 7.523438 68.902344 7.859375 69.835938 7.859375 C 70.773438 7.859375 71.5625 7.53125 72.203125 6.875 C 72.847656 6.222656 73.171875 5.40625 73.171875 4.425781 C 73.171875 3.457031 72.847656 2.644531 72.191406 1.984375 C 71.539062 1.316406 70.742188 0.980469 69.796875 0.980469 C 68.863281 0.980469 68.09375 1.304688 67.488281 1.953125 M 69.796875 0.0742188 C 70.984375 0.0742188 72.019531 0.496094 72.898438 1.339844 C 73.773438 2.175781 74.210938 3.199219 74.210938 4.40625 C 74.210938 5.617188 73.777344 6.65625 72.90625 7.519531 C 72.050781 8.386719 71.019531 8.816406 69.816406 8.816406 C 68.640625 8.816406 67.628906 8.390625 66.785156 7.53125 C 65.941406 6.664062 65.519531 5.625 65.519531 4.40625 C 65.519531 3.199219 65.9375 2.175781 66.773438 1.328125 C 67.597656 0.492188 68.605469 0.0742188 69.796875 0.0742188 M 46.023438 1.410156 C 45.089844 1.96875 44.625 2.949219 44.625 4.355469 C 44.625 5.816406 45.039062 6.84375 45.871094 7.429688 C 46.210938 7.667969 46.628906 7.808594 47.125 7.859375 L 51.796875 7.859375 L 51.789062 8.765625 L 46.871094 8.765625 C 46.230469 8.691406 45.6875 8.5 45.238281 8.195312 C 44.144531 7.4375 43.59375 6.152344 43.59375 4.332031 C 43.59375 2.601562 44.199219 1.375 45.410156 0.644531 C 45.914062 0.332031 46.515625 0.140625 47.21875 0.0742188 L 51.695312 0.0742188 L 51.207031 0.980469 L 47.429688 0.980469 C 46.886719 1.03125 46.417969 1.171875 46.023438 1.410156 M 47.605469 1.238281 L 51.09375 1.238281 L 50.574219 2.175781 L 47.839844 2.175781 C 47.472656 2.199219 47.15625 2.285156 46.890625 2.441406 C 46.246094 2.796875 45.921875 3.429688 45.921875 4.34375 C 45.921875 5.324219 46.195312 6.007812 46.746094 6.398438 C 46.984375 6.558594 47.265625 6.660156 47.585938 6.691406 L 51.796875 6.691406 L 51.789062 7.601562 L 47.289062 7.601562 C 46.824219 7.5625 46.425781 7.429688 46.085938 7.203125 C 45.300781 6.671875 44.910156 5.730469 44.910156 4.375 C 44.910156 3.027344 45.359375 2.097656 46.257812 1.59375 C 46.625 1.382812 47.074219 1.265625 47.605469 1.238281 M 42.921875 0.0742188 L 42.921875 8.765625 L 41.910156 8.765625 L 41.910156 0.0742188 L 42.921875 0.0742188 M 41.648438 0.0742188 L 41.648438 8.765625 L 40.617188 8.765625 L 40.617188 0.0742188 L 41.648438 0.0742188 M 31.769531 1.238281 L 33.484375 7.859375 L 35.097656 7.859375 L 36.832031 1.238281 L 38.1875 1.238281 L 38.1875 8.765625 L 37.136719 8.765625 L 37.136719 3.464844 L 35.851562 8.765625 L 32.6875 8.765625 L 31.34375 3.515625 L 31.34375 8.765625 L 30.332031 8.765625 L 30.332031 1.238281 L 31.769531 1.238281 M 30.046875 0.980469 L 30.046875 8.765625 L 29.015625 8.765625 L 29.015625 0.0742188 L 32.894531 0.0742188 L 34.28125 5.957031 L 35.78125 0.0742188 L 39.523438 0.0742188 L 39.523438 8.765625 L 38.484375 8.765625 L 38.484375 0.980469 L 36.597656 0.980469 L 34.839844 7.601562 L 33.738281 7.601562 L 31.996094 0.980469 L 30.046875 0.980469 M 22.617188 2.769531 C 22.277344 3.164062 22.109375 3.703125 22.109375 4.382812 C 22.109375 5.070312 22.285156 5.628906 22.640625 6.050781 C 23 6.476562 23.472656 6.691406 24.058594 6.691406 C 24.664062 6.691406 25.152344 6.476562 25.527344 6.050781 C 25.90625 5.628906 26.097656 5.078125 26.097656 4.40625 C 26.097656 3.742188 25.902344 3.207031 25.515625 2.789062 C 25.140625 2.382812 24.644531 2.175781 24.027344 2.175781 C 23.433594 2.175781 22.964844 2.375 22.617188 2.769531 M 21.722656 1.953125 C 21.117188 2.605469 20.8125 3.421875 20.8125 4.394531 C 20.8125 5.375 21.117188 6.195312 21.730469 6.855469 C 22.355469 7.523438 23.132812 7.859375 24.058594 7.859375 C 25.003906 7.859375 25.796875 7.53125 26.433594 6.875 C 27.082031 6.222656 27.402344 5.40625 27.402344 4.425781 C 27.402344 3.457031 27.078125 2.644531 26.425781 1.984375 C 25.765625 1.316406 24.964844 0.980469 24.027344 0.980469 C 23.09375 0.980469 22.328125 1.304688 21.722656 1.953125 M 24.027344 1.238281 C 24.890625 1.238281 25.613281 1.539062 26.191406 2.148438 C 26.773438 2.761719 27.066406 3.511719 27.066406 4.40625 C 27.066406 5.316406 26.777344 6.078125 26.199219 6.683594 C 25.640625 7.296875 24.929688 7.601562 24.058594 7.601562 C 23.199219 7.601562 22.496094 7.292969 21.945312 6.671875 C 21.382812 6.058594 21.097656 5.296875 21.097656 4.382812 C 21.097656 3.484375 21.375 2.734375 21.925781 2.136719 C 22.46875 1.539062 23.167969 1.238281 24.027344 1.238281 M 19.507812 2.175781 L 17.570312 2.175781 L 17.570312 8.789062 L 16.46875 8.789062 L 16.46875 1.238281 L 19.957031 1.238281 L 19.507812 2.175781 M 15.140625 8.777344 L 15.140625 2.175781 L 12.628906 2.175781 L 12.628906 1.238281 L 16.222656 1.238281 L 16.222656 8.789062 L 15.140625 8.777344 M 9.894531 1.238281 L 12.34375 7.601562 L 7.824219 7.601562 L 7.558594 7.113281 L 6.867188 8.765625 L 5.867188 8.765625 L 8.90625 1.238281 L 9.894531 1.238281 M 10.925781 6.691406 L 9.367188 2.515625 L 7.742188 6.691406 L 10.925781 6.691406 "/>
</g>
</svg>
