<?xml version="1.0" encoding="UTF-8"?>
<svg xmlns="http://www.w3.org/2000/svg" xmlns:xlink="http://www.w3.org/1999/xlink" width="124pt" height="8pt" viewBox="0 0 124 8" version="1.1">
<g id="surface1">
<path style=" stroke:none;fill-rule:nonzero;fill:rgb(100%,100%,100%);fill-opacity:1;" d="M 103.296875 7.050781 L 98.914062 7.050781 L 98.914062 6.191406 L 98.058594 6.191406 L 98.058594 1.808594 L 99.804688 1.808594 L 99.804688 6.191406 L 101.550781 6.191406 L 101.550781 1.808594 L 103.296875 1.808594 L 103.296875 7.050781 M 106.117188 2.699219 L 107.863281 2.699219 L 107.863281 7.050781 L 106.117188 7.050781 L 106.117188 2.699219 M 106.117188 0.949219 L 107.863281 0.949219 L 107.863281 1.808594 L 106.117188 1.808594 L 106.117188 0.949219 M 110.703125 7.050781 L 110.703125 1.808594 L 115.050781 1.808594 L 115.050781 2.699219 L 115.941406 2.699219 L 115.941406 7.050781 L 114.195312 7.050781 L 114.195312 2.699219 L 112.449219 2.699219 L 112.449219 7.050781 L 110.703125 7.050781 M 91.746094 1.808594 L 91.746094 3.554688 L 93.492188 3.554688 L 93.492188 1.808594 L 91.746094 1.808594 M 93.492188 4.445312 L 91.746094 4.445312 L 91.746094 7.050781 L 90 7.050781 L 90 0.949219 L 94.347656 0.949219 L 94.347656 1.808594 L 95.238281 1.808594 L 95.238281 3.554688 L 94.347656 3.554688 L 94.347656 4.445312 L 95.238281 4.445312 L 95.238281 7.050781 L 93.492188 7.050781 L 93.492188 4.445312 M 79.972656 1.808594 L 79.972656 5.300781 L 81.722656 5.300781 L 81.722656 1.808594 L 83.46875 1.808594 L 83.46875 7.050781 L 82.578125 7.050781 L 82.578125 7.941406 L 79.085938 7.941406 L 79.085938 7.050781 L 78.226562 7.050781 L 78.226562 6.191406 L 79.085938 6.191406 L 79.085938 7.050781 L 81.722656 7.050781 L 81.722656 6.191406 L 79.972656 6.191406 L 79.972656 5.300781 L 79.085938 5.300781 L 79.085938 4.445312 L 78.226562 4.445312 L 78.226562 1.808594 L 79.972656 1.808594 M 74.515625 2.699219 L 75.40625 2.699219 L 75.40625 6.191406 L 74.515625 6.191406 L 74.515625 7.050781 L 70.167969 7.050781 L 70.167969 0.0585938 L 71.914062 0.0585938 L 71.914062 1.808594 L 74.515625 1.808594 L 74.515625 2.699219 M 73.660156 2.699219 L 71.914062 2.699219 L 71.914062 6.191406 L 73.660156 6.191406 L 73.660156 2.699219 M 65.601562 6.191406 L 65.601562 1.808594 L 67.347656 1.808594 L 67.347656 7.050781 L 62.964844 7.050781 L 62.964844 6.191406 L 62.109375 6.191406 L 62.109375 1.808594 L 63.855469 1.808594 L 63.855469 6.191406 L 65.601562 6.191406 M 119.617188 1.808594 L 123.109375 1.808594 L 123.109375 2.699219 L 124 2.699219 L 124 3.554688 L 123.109375 3.554688 L 123.109375 2.699219 L 121.363281 2.699219 L 121.363281 3.554688 L 122.253906 3.554688 L 122.253906 4.445312 L 123.109375 4.445312 L 123.109375 5.300781 L 124 5.300781 L 124 6.191406 L 123.109375 6.191406 L 123.109375 7.050781 L 119.617188 7.050781 L 119.617188 6.191406 L 118.761719 6.191406 L 118.761719 5.300781 L 119.617188 5.300781 L 119.617188 6.191406 L 121.363281 6.191406 L 121.363281 5.300781 L 120.507812 5.300781 L 120.507812 4.445312 L 119.617188 4.445312 L 119.617188 3.554688 L 118.761719 3.554688 L 118.761719 2.699219 L 119.617188 2.699219 L 119.617188 1.808594 M 4.347656 2.699219 L 5.238281 2.699219 L 5.238281 7.050781 L 0.855469 7.050781 L 0.855469 6.191406 L 0 6.191406 L 0 4.445312 L 0.855469 4.445312 L 0.855469 3.554688 L 0 3.554688 L 0 2.699219 L 0.855469 2.699219 L 0.855469 1.808594 L 4.347656 1.808594 L 4.347656 2.699219 M 1.746094 6.191406 L 3.492188 6.191406 L 3.492188 4.445312 L 1.746094 4.445312 L 1.746094 6.191406 M 47.519531 5.300781 L 47.519531 6.191406 L 46.628906 6.191406 L 46.628906 7.050781 L 43.136719 7.050781 L 43.136719 6.191406 L 42.261719 6.191406 L 42.261719 2.699219 L 43.136719 2.699219 L 43.136719 1.808594 L 46.628906 1.808594 L 46.628906 2.699219 L 47.519531 2.699219 L 47.519531 4.445312 L 44.027344 4.445312 L 44.027344 6.191406 L 46.628906 6.191406 L 46.628906 5.300781 L 47.519531 5.300781 M 59.289062 1.808594 L 59.289062 3.554688 L 58.398438 3.554688 L 58.398438 4.445312 L 59.289062 4.445312 L 59.289062 7.050781 L 57.542969 7.050781 L 57.542969 4.445312 L 55.796875 4.445312 L 55.796875 7.050781 L 54.050781 7.050781 L 54.050781 0.949219 L 58.398438 0.949219 L 58.398438 1.808594 L 59.289062 1.808594 M 55.796875 1.808594 L 55.796875 3.554688 L 57.542969 3.554688 L 57.542969 1.808594 L 55.796875 1.808594 M 39.441406 2.699219 L 39.441406 7.050781 L 37.695312 7.050781 L 37.695312 2.699219 L 35.949219 2.699219 L 35.949219 7.050781 L 34.203125 7.050781 L 34.203125 0.0585938 L 35.949219 0.0585938 L 35.949219 1.808594 L 38.570312 1.808594 L 38.570312 2.699219 L 39.441406 2.699219 M 44.027344 2.699219 L 44.027344 3.554688 L 45.773438 3.554688 L 45.773438 2.699219 L 44.027344 2.699219 M 19.613281 0.0585938 L 21.359375 0.0585938 L 21.359375 7.050781 L 16.976562 7.050781 L 16.976562 6.191406 L 16.121094 6.191406 L 16.121094 2.699219 L 16.976562 2.699219 L 16.976562 1.808594 L 19.613281 1.808594 L 19.613281 0.0585938 M 19.613281 2.699219 L 17.867188 2.699219 L 17.867188 6.191406 L 19.613281 6.191406 L 19.613281 2.699219 M 31.382812 2.699219 L 30.492188 2.699219 L 30.492188 6.191406 L 31.382812 6.191406 L 31.382812 7.050781 L 29.636719 7.050781 L 29.636719 6.191406 L 28.746094 6.191406 L 28.746094 2.699219 L 27.890625 2.699219 L 27.890625 1.808594 L 28.746094 1.808594 L 28.746094 0.949219 L 30.492188 0.949219 L 30.492188 1.808594 L 31.382812 1.808594 L 31.382812 2.699219 M 8.058594 1.808594 L 12.410156 1.808594 L 12.410156 2.699219 L 13.296875 2.699219 L 13.296875 7.050781 L 11.550781 7.050781 L 11.550781 2.699219 L 9.804688 2.699219 L 9.804688 7.050781 L 8.058594 7.050781 L 8.058594 1.808594 "/>
</g>
</svg>
