<?xml version="1.0" encoding="UTF-8"?>
<svg xmlns="http://www.w3.org/2000/svg" xmlns:xlink="http://www.w3.org/1999/xlink" width="128pt" height="61pt" viewBox="0 0 128 61" version="1.1">
<g id="surface1">
<path style=" stroke:none;fill-rule:nonzero;fill:rgb(100%,100%,100%);fill-opacity:1;" d="M 83.75 26.738281 L 82.023438 30.058594 L 81.1875 31.699219 L 89.757812 32.015625 L 87.574219 37.066406 L 79.125 36.734375 L 78.214844 38.960938 C 76.761719 42.316406 75.671875 45.625 74.957031 48.878906 L 67.449219 49.394531 L 67.449219 49.320312 C 67.449219 49.15625 67.898438 47.851562 68.800781 45.40625 C 69.839844 42.554688 70.746094 40.261719 71.515625 38.523438 C 72.847656 35.519531 74.308594 32.550781 75.894531 29.621094 C 76.554688 28.4375 77.234375 27.269531 77.945312 26.117188 L 76.304688 26.195312 L 76.5625 25.148438 C 76.703125 24.429688 76.777344 23.8125 76.777344 23.296875 C 76.785156 22.265625 76.644531 21.324219 76.351562 20.476562 L 77.320312 20.476562 L 86.085938 20.539062 L 97.15625 20.917969 L 94.898438 26.558594 L 92.59375 26.390625 L 82.992188 25.949219 L 82.554688 25.949219 L 83.75 26.738281 M 101.597656 31.226562 C 100.933594 31.925781 99.390625 33.777344 96.972656 36.777344 L 95.019531 39.203125 L 98.582031 39.660156 L 99.308594 40.386719 C 100.1875 39.023438 100.90625 36.375 101.460938 32.441406 L 101.597656 31.226562 M 102.144531 25.664062 L 106.695312 26.085938 L 106.527344 28.363281 C 106.394531 30.058594 106.21875 31.691406 105.996094 33.261719 C 105.5625 36.324219 104.929688 39.148438 104.101562 41.738281 L 104.085938 41.765625 L 104.054688 41.8125 L 104.039062 41.84375 C 103.816406 42.367188 103.273438 44.007812 102.402344 46.757812 L 102.386719 46.816406 L 102.222656 47.285156 C 101.855469 48.53125 101.476562 49.632812 101.082031 50.59375 L 94.230469 51.257812 C 95.109375 49.398438 96.367188 46.84375 98.003906 43.585938 L 92.652344 43.085938 C 91.316406 44.671875 90 46.796875 88.695312 49.457031 L 81.824219 50.136719 C 82.140625 49.410156 83.277344 47.621094 85.238281 44.769531 L 87.300781 41.75 C 89.261719 38.878906 92.15625 35.457031 95.988281 31.484375 C 98.082031 29.273438 100.132812 27.332031 102.144531 25.664062 M 114.246094 33.289062 L 115.945312 33.503906 L 117.398438 33.5625 L 115.945312 35.703125 L 112.667969 40.644531 L 111.988281 41.75 L 110.667969 44.179688 L 107.226562 50.335938 L 115.1875 51.59375 L 112.820312 55.65625 L 111.335938 55.355469 L 111.257812 55.324219 L 109.574219 54.976562 C 107.351562 54.5 104.011719 54.160156 99.550781 53.957031 L 99.566406 53.914062 C 99.609375 53.75 100.011719 52.9375 100.78125 51.472656 L 101.675781 51.382812 L 101.871094 50.910156 C 102.257812 49.949219 102.644531 48.828125 103.039062 47.542969 L 103.191406 47.074219 L 103.828125 45.996094 C 105.113281 43.90625 106.546875 41.773438 108.136719 39.597656 L 111.546875 34.777344 C 112.125 33.949219 112.546875 33.375 112.820312 33.0625 L 113.804688 33.183594 L 114.246094 33.289062 M 123.148438 40.796875 L 123.527344 40.917969 L 124.953125 41.175781 L 126.210938 41.3125 L 124.859375 43.054688 L 121.828125 47.136719 L 121.191406 48.058594 L 117.976562 53.109375 L 116.703125 55.171875 L 123.449219 56.628906 L 121.238281 59.992188 L 119.234375 59.449219 L 118.492188 59.234375 C 116.640625 58.742188 113.800781 58.296875 109.96875 57.902344 L 109.984375 57.871094 C 110.003906 57.761719 110.328125 57.179688 110.957031 56.128906 L 113.246094 56.628906 L 116.535156 50.957031 L 114.472656 50.636719 C 115.566406 49.101562 116.738281 47.566406 117.992188 46.027344 L 119.296875 44.390625 L 121.128906 42.054688 L 122.3125 40.660156 L 123.148438 40.796875 M 51.617188 16.035156 L 51.042969 16.078125 L 50.980469 16.078125 L 46.386719 16.457031 L 48.570312 17.457031 C 48.144531 18.429688 47.625 19.871094 47.007812 21.78125 C 46.25 24.046875 45.214844 27.867188 43.898438 33.246094 C 43.433594 35.1875 43 37.21875 42.597656 39.339844 L 49.027344 38.644531 L 47.265625 45.859375 L 46.113281 45.9375 L 45.21875 45.996094 L 39.867188 46.4375 C 38.148438 46.660156 33.953125 47.421875 27.28125 48.726562 L 28.933594 41.28125 L 34.105469 40.523438 L 35.742188 33.777344 C 36.5 30.863281 37.789062 27.015625 39.609375 22.234375 C 40.003906 21.152344 40.710938 19.414062 41.730469 17.019531 L 37.683594 17.914062 C 38.582031 16.226562 39.082031 14.410156 39.183594 12.46875 L 39.183594 10.742188 L 44.976562 9.90625 C 48.941406 9.339844 52.457031 8.9375 55.53125 8.695312 L 53.773438 15.882812 L 51.617188 16.035156 M 38.351562 10.878906 L 38.335938 12.425781 C 38.234375 14.488281 37.648438 16.398438 36.574219 18.15625 L 35.894531 19.15625 C 34.15625 21.492188 31.492188 23.523438 27.902344 25.253906 C 24.324219 26.941406 19.898438 28.15625 14.632812 28.894531 L 14.042969 32.230469 C 13.648438 34.554688 13.046875 39.511719 12.238281 47.105469 L 11.902344 47.210938 C 8.6875 48.3125 5.058594 49.726562 1.015625 51.457031 C 1.664062 45.785156 2.566406 39.855469 3.730469 33.667969 C 4.4375 29.808594 5.703125 24.8125 7.519531 18.6875 C 7.90625 17.414062 8.453125 15.753906 9.160156 13.714844 L 7.019531 14.667969 L 3.304688 4.507812 C 8.429688 2.980469 12.910156 1.945312 16.742188 1.398438 L 19.726562 1.140625 L 24.808594 0.871094 L 24.992188 0.871094 C 26.617188 0.890625 28.476562 1.1875 30.570312 1.765625 C 35.109375 2.945312 37.675781 5.703125 38.273438 10.027344 L 38.273438 10.042969 L 38.351562 10.878906 M 61.597656 15.003906 L 63.734375 15.109375 L 67.480469 15.457031 C 68.644531 15.640625 69.925781 16.039062 71.332031 16.65625 L 71.605469 16.792969 L 71.664062 16.808594 L 71.710938 16.835938 L 71.773438 16.851562 L 71.816406 16.882812 L 71.878906 16.898438 C 73.546875 17.714844 74.703125 18.839844 75.351562 20.265625 C 75.53125 20.667969 75.667969 21.101562 75.757812 21.566406 C 75.882812 22.105469 75.941406 22.679688 75.941406 23.296875 C 75.941406 23.773438 75.871094 24.339844 75.730469 24.996094 C 75.566406 25.835938 75.292969 26.625 74.910156 27.359375 L 71.773438 30.789062 L 71.542969 30.925781 L 70.164062 31.742188 C 69.953125 31.84375 69.734375 31.949219 69.511719 32.0625 L 69.464844 32.078125 C 68.730469 32.421875 67.917969 32.730469 67.039062 33.003906 C 64.382812 33.8125 61.207031 34.214844 57.515625 34.214844 L 57.289062 34.214844 L 56.53125 36.503906 C 55.984375 38.234375 55.050781 41.675781 53.726562 46.832031 L 53.484375 46.878906 C 51.136719 47.320312 48.429688 47.953125 45.355469 48.773438 L 45.886719 46.800781 L 47.3125 46.710938 L 47.917969 46.664062 L 50.132812 37.6875 L 48.632812 37.839844 L 49.085938 36.476562 C 49.957031 33.886719 51.359375 30.484375 53.300781 26.269531 L 54.984375 22.917969 L 53.363281 23.371094 L 51.996094 16.851562 L 54.425781 16.683594 L 54.710938 15.546875 L 60.898438 15.003906 L 61.597656 15.003906 M 63.839844 21.3125 C 62.921875 21.351562 61.683594 21.582031 60.125 22.007812 L 61.71875 22.828125 C 61.171875 23.765625 60.609375 24.917969 60.035156 26.285156 L 59.140625 28.679688 L 61.050781 28.621094 C 63.050781 28.578125 64.714844 28.300781 66.039062 27.785156 C 68.011719 27.015625 68.996094 25.835938 68.996094 24.238281 C 69.007812 23.054688 68.222656 22.175781 66.644531 21.597656 C 66.179688 21.417969 65.4375 21.324219 64.417969 21.324219 L 63.839844 21.3125 M 23.746094 9.453125 L 21.125 9.726562 C 19.871094 9.957031 18.203125 10.523438 16.121094 11.421875 L 18.484375 12.242188 C 17.929688 13.636719 17.386719 15.351562 16.863281 17.382812 L 16.105469 20.855469 L 18.726562 20.402344 C 21.46875 19.9375 23.714844 19.207031 25.476562 18.21875 C 28.035156 16.78125 29.160156 14.945312 28.855469 12.710938 C 28.625 11.085938 27.359375 10.027344 25.066406 9.542969 L 23.972656 9.4375 L 23.746094 9.453125 "/>
<path style=" stroke:none;fill-rule:nonzero;fill:rgb(29.803922%,29.803922%,30.196078%);fill-opacity:1;" d="M 83.75 26.738281 L 82.554688 25.949219 L 82.992188 25.949219 L 92.59375 26.390625 L 94.898438 26.558594 L 97.15625 20.917969 L 86.085938 20.539062 L 77.320312 20.476562 L 76.351562 20.476562 C 76.644531 21.324219 76.785156 22.265625 76.777344 23.296875 C 76.777344 23.8125 76.703125 24.429688 76.5625 25.148438 L 76.304688 26.195312 L 77.945312 26.117188 C 77.234375 27.269531 76.554688 28.4375 75.894531 29.621094 C 74.308594 32.550781 72.847656 35.519531 71.515625 38.523438 C 70.746094 40.261719 69.839844 42.554688 68.800781 45.40625 C 67.898438 47.851562 67.449219 49.15625 67.449219 49.320312 L 67.449219 49.394531 L 74.957031 48.878906 C 75.671875 45.625 76.761719 42.316406 78.214844 38.960938 L 79.125 36.734375 L 87.574219 37.066406 L 89.757812 32.015625 L 81.1875 31.699219 L 82.023438 30.058594 L 83.75 26.738281 M 101.597656 25.011719 L 101.871094 24.78125 L 102.234375 24.828125 L 106.769531 25.253906 L 107.589844 25.3125 L 107.375 28.421875 C 107.246094 30.058594 107.0625 31.714844 106.832031 33.382812 C 106.375 36.523438 105.730469 39.394531 104.890625 41.996094 L 104.875 42.054688 L 104.84375 42.117188 C 104.742188 42.328125 104.546875 42.875 104.253906 43.753906 C 105.273438 42.175781 106.339844 40.628906 107.453125 39.113281 L 110.847656 34.292969 C 111.414062 33.480469 111.867188 32.886719 112.199219 32.5 L 112.488281 32.183594 L 113.972656 32.351562 L 114.429688 32.457031 L 115.976562 32.667969 L 119.160156 32.820312 L 118.050781 34.125 C 117.859375 34.347656 117.390625 35.023438 116.640625 36.15625 L 113.414062 41.070312 L 112.714844 42.191406 L 111.394531 44.585938 L 108.53125 49.667969 L 113.546875 50.484375 C 114.699219 48.839844 115.960938 47.175781 117.324219 45.496094 L 120.480469 41.523438 L 121.722656 40.070312 L 122.039062 39.75 L 123.359375 39.976562 L 123.753906 40.097656 L 125.042969 40.339844 L 128 40.660156 L 126.816406 41.886719 L 125.527344 43.570312 L 122.527344 47.605469 L 121.902344 48.53125 L 118.050781 54.582031 L 123.632812 55.792969 L 124.832031 56.066406 L 121.601562 60.980469 L 118.265625 60.054688 C 116.414062 59.558594 113.621094 59.125 109.878906 58.75 L 108.894531 58.644531 L 109.152344 57.628906 L 110.089844 55.945312 L 109.394531 55.792969 C 107.199219 55.328125 103.910156 54.996094 99.523438 54.792969 L 98.519531 54.761719 L 98.75 53.730469 C 98.777344 53.550781 99.121094 52.832031 99.78125 51.578125 L 92.835938 52.230469 L 93.457031 50.894531 L 96.703125 44.316406 L 93.015625 43.964844 C 91.84375 45.429688 90.65625 47.382812 89.453125 49.820312 L 89.242188 50.242188 L 80.507812 51.125 L 81.050781 49.804688 C 81.40625 48.996094 82.570312 47.160156 84.539062 44.300781 L 86.601562 41.28125 C 88.554688 38.402344 91.476562 34.9375 95.367188 30.894531 C 97.46875 28.679688 99.546875 26.71875 101.597656 25.011719 M 84.675781 26.816406 L 84.496094 27.164062 C 84.332031 27.4375 83.761719 28.535156 82.78125 30.453125 L 82.765625 30.453125 L 82.765625 30.46875 L 82.539062 30.910156 L 91.015625 31.210938 L 88.117188 37.929688 L 79.671875 37.597656 L 78.988281 39.28125 L 78.988281 39.296875 C 77.554688 42.582031 76.484375 45.839844 75.773438 49.074219 L 75.636719 49.710938 L 74.972656 49.726562 L 67.527344 50.226562 L 66.539062 50.335938 L 66.601562 49.257812 C 66.640625 48.953125 67.109375 47.570312 68.011719 45.101562 C 69.074219 42.191406 69.980469 39.886719 70.742188 38.1875 C 72.035156 35.265625 73.503906 32.273438 75.152344 29.210938 L 76.410156 27.027344 L 75.988281 27.058594 C 74.691406 30.132812 71.792969 32.378906 67.28125 33.804688 C 64.65625 34.613281 61.527344 35.027344 57.894531 35.050781 L 57.335938 36.761719 C 56.808594 38.421875 55.878906 41.847656 54.546875 47.042969 L 54.410156 47.574219 L 53.636719 47.710938 C 51.351562 48.136719 48.660156 48.757812 45.566406 49.578125 L 44.15625 49.941406 L 44.523438 48.558594 L 44.992188 46.863281 L 39.972656 47.269531 C 38.183594 47.503906 34.007812 48.261719 27.445312 49.546875 L 26.171875 49.804688 L 28.25 40.554688 L 31.222656 40.054688 L 31.238281 40.054688 L 33.40625 39.765625 L 33.921875 37.503906 L 34.921875 33.546875 C 35.710938 30.523438 37.011719 26.664062 38.820312 21.960938 C 39.164062 20.992188 39.660156 19.738281 40.304688 18.203125 L 37.105469 18.898438 C 35.308594 21.660156 32.355469 24.03125 28.25 26.011719 C 24.734375 27.679688 20.4375 28.894531 15.359375 29.652344 L 14.875 32.363281 C 14.480469 34.761719 13.878906 39.699219 13.070312 47.179688 L 13.011719 47.726562 L 12.175781 48.015625 C 9.113281 49.054688 5.5 50.460938 1.335938 52.230469 L 0 52.792969 L 0.167969 51.367188 C 0.824219 45.625 1.734375 39.679688 2.894531 33.53125 C 3.605469 29.652344 4.878906 24.621094 6.71875 18.445312 L 7.734375 15.273438 L 6.535156 15.789062 L 2.214844 3.949219 L 3.0625 3.703125 C 8.238281 2.160156 12.757812 1.113281 16.621094 0.566406 L 19.683594 0.292969 L 24.855469 0.0195312 L 25.019531 0.0195312 C 26.75 0.0507812 28.671875 0.363281 30.78125 0.960938 C 35.675781 2.234375 38.457031 5.214844 39.125 9.90625 L 44.871094 9.058594 C 48.964844 8.492188 52.496094 8.085938 55.46875 7.84375 L 56.652344 7.753906 L 54.96875 14.546875 L 61.429688 14.136719 L 61.597656 14.152344 L 63.808594 14.273438 L 67.632812 14.625 C 68.824219 14.816406 70.167969 15.238281 71.664062 15.898438 C 73.738281 16.765625 75.183594 18.011719 76.003906 19.628906 L 77.304688 19.628906 L 86.085938 19.703125 L 97.1875 20.082031 L 98.382812 20.128906 L 95.457031 27.4375 L 92.546875 27.222656 L 84.675781 26.816406 M 123.148438 40.796875 L 122.3125 40.660156 L 121.128906 42.054688 L 119.296875 44.390625 L 117.992188 46.027344 C 116.738281 47.566406 115.566406 49.101562 114.472656 50.636719 L 116.535156 50.957031 L 113.246094 56.628906 L 110.957031 56.128906 C 110.328125 57.179688 110.003906 57.761719 109.984375 57.871094 L 109.96875 57.902344 C 113.800781 58.296875 116.640625 58.742188 118.492188 59.234375 L 119.234375 59.449219 L 121.238281 59.992188 L 123.449219 56.628906 L 116.703125 55.171875 L 117.976562 53.109375 L 121.191406 48.058594 L 121.828125 47.136719 L 124.859375 43.054688 L 126.210938 41.3125 L 124.953125 41.175781 L 123.527344 40.917969 L 123.148438 40.796875 M 114.246094 33.289062 L 113.804688 33.183594 L 112.820312 33.0625 C 112.546875 33.375 112.125 33.949219 111.546875 34.777344 L 108.136719 39.597656 C 106.546875 41.773438 105.113281 43.90625 103.828125 45.996094 L 103.191406 47.074219 L 103.039062 47.542969 C 102.644531 48.828125 102.257812 49.949219 101.871094 50.910156 L 101.675781 51.382812 L 100.78125 51.472656 C 100.011719 52.9375 99.609375 53.75 99.566406 53.914062 L 99.550781 53.957031 C 104.011719 54.160156 107.351562 54.5 109.574219 54.976562 L 111.257812 55.324219 L 111.335938 55.355469 L 112.820312 55.65625 L 115.1875 51.59375 L 107.226562 50.335938 L 110.667969 44.179688 L 111.988281 41.75 L 112.667969 40.644531 L 115.945312 35.703125 L 117.398438 33.5625 L 115.945312 33.503906 L 114.246094 33.289062 M 102.144531 25.664062 C 100.132812 27.332031 98.082031 29.273438 95.988281 31.484375 C 92.15625 35.457031 89.261719 38.878906 87.300781 41.75 L 85.238281 44.769531 C 83.277344 47.621094 82.140625 49.410156 81.824219 50.136719 L 88.695312 49.457031 C 90 46.796875 91.316406 44.671875 92.652344 43.085938 L 98.003906 43.585938 C 96.367188 46.84375 95.109375 49.398438 94.230469 51.257812 L 101.082031 50.59375 C 101.476562 49.632812 101.855469 48.53125 102.222656 47.285156 L 102.386719 46.816406 L 102.402344 46.757812 C 103.273438 44.007812 103.816406 42.367188 104.039062 41.84375 L 104.054688 41.8125 L 104.085938 41.765625 L 104.101562 41.738281 C 104.929688 39.148438 105.5625 36.324219 105.996094 33.261719 C 106.21875 31.691406 106.394531 30.058594 106.527344 28.363281 L 106.695312 26.085938 L 102.144531 25.664062 M 101.597656 31.226562 L 101.460938 32.441406 C 100.90625 36.375 100.1875 39.023438 99.308594 40.386719 L 98.582031 39.660156 L 95.019531 39.203125 L 96.972656 36.777344 C 99.390625 33.777344 100.933594 31.925781 101.597656 31.226562 M 51.148438 16.914062 L 49.648438 17.019531 L 49.675781 17.050781 L 49.34375 17.808594 C 48.929688 18.746094 48.417969 20.15625 47.8125 22.039062 C 47.023438 24.402344 45.992188 28.207031 44.71875 33.441406 C 44.335938 35.050781 43.980469 36.691406 43.65625 38.371094 L 47.707031 37.929688 L 48.296875 36.203125 C 49.21875 33.453125 50.632812 30.019531 52.542969 25.90625 L 53.363281 24.253906 L 52.726562 24.402344 L 51.148438 16.914062 M 98.992188 38.855469 L 99.097656 38.960938 C 99.59375 37.789062 100.023438 36.105469 100.386719 33.910156 L 97.640625 37.308594 L 96.625 38.550781 L 98.992188 38.855469 M 51.617188 16.035156 L 53.773438 15.882812 L 55.53125 8.695312 C 52.457031 8.9375 48.941406 9.339844 44.976562 9.90625 L 39.183594 10.742188 L 39.183594 12.46875 C 39.082031 14.410156 38.582031 16.226562 37.683594 17.914062 L 41.730469 17.019531 C 40.710938 19.414062 40.003906 21.152344 39.609375 22.234375 C 37.789062 27.015625 36.5 30.863281 35.742188 33.777344 L 34.105469 40.523438 L 28.933594 41.28125 L 27.28125 48.726562 C 33.953125 47.421875 38.148438 46.660156 39.867188 46.4375 L 45.21875 45.996094 L 46.113281 45.9375 L 47.265625 45.859375 L 49.027344 38.644531 L 42.597656 39.339844 C 43 37.21875 43.433594 35.1875 43.898438 33.246094 C 45.214844 27.867188 46.25 24.046875 47.007812 21.78125 C 47.625 19.871094 48.144531 18.429688 48.570312 17.457031 L 46.386719 16.457031 L 50.980469 16.078125 L 51.042969 16.078125 L 51.617188 16.035156 M 60.898438 15.003906 L 54.710938 15.546875 L 54.425781 16.683594 L 51.996094 16.851562 L 53.363281 23.371094 L 54.984375 22.917969 L 53.300781 26.269531 C 51.359375 30.484375 49.957031 33.886719 49.085938 36.476562 L 48.632812 37.839844 L 50.132812 37.6875 L 47.917969 46.664062 L 47.3125 46.710938 L 45.886719 46.800781 L 45.355469 48.773438 C 48.429688 47.953125 51.136719 47.320312 53.484375 46.878906 L 53.726562 46.832031 C 55.050781 41.675781 55.984375 38.234375 56.53125 36.503906 L 57.289062 34.214844 L 57.515625 34.214844 C 61.207031 34.214844 64.382812 33.8125 67.039062 33.003906 C 67.917969 32.730469 68.730469 32.421875 69.464844 32.078125 L 69.511719 32.0625 C 69.734375 31.949219 69.953125 31.84375 70.164062 31.742188 L 71.542969 30.925781 L 71.773438 30.789062 L 74.910156 27.359375 C 75.292969 26.625 75.566406 25.835938 75.730469 24.996094 C 75.871094 24.339844 75.941406 23.773438 75.941406 23.296875 C 75.941406 22.679688 75.882812 22.105469 75.757812 21.566406 C 75.667969 21.101562 75.53125 20.667969 75.351562 20.265625 C 74.703125 18.839844 73.546875 17.714844 71.878906 16.898438 L 71.816406 16.882812 L 71.773438 16.851562 L 71.710938 16.835938 L 71.664062 16.808594 L 71.605469 16.792969 L 71.332031 16.65625 C 69.925781 16.039062 68.644531 15.640625 67.480469 15.457031 L 63.734375 15.109375 L 61.597656 15.003906 L 61.429688 14.988281 L 60.898438 15.003906 M 38.351562 10.878906 L 38.273438 10.042969 L 38.273438 10.027344 C 37.675781 5.703125 35.109375 2.945312 30.570312 1.765625 C 28.476562 1.1875 26.617188 0.890625 24.992188 0.871094 L 24.808594 0.871094 L 19.726562 1.140625 L 16.742188 1.398438 C 12.910156 1.945312 8.429688 2.980469 3.304688 4.507812 L 7.019531 14.667969 L 9.160156 13.714844 C 8.453125 15.753906 7.90625 17.414062 7.519531 18.6875 C 5.703125 24.8125 4.4375 29.808594 3.730469 33.667969 C 2.566406 39.855469 1.664062 45.785156 1.015625 51.457031 C 5.058594 49.726562 8.6875 48.3125 11.902344 47.210938 L 12.238281 47.105469 C 13.046875 39.511719 13.648438 34.554688 14.042969 32.230469 L 14.632812 28.894531 C 19.898438 28.15625 24.324219 26.941406 27.902344 25.253906 C 31.492188 23.523438 34.15625 21.492188 35.894531 19.15625 L 36.574219 18.15625 C 37.648438 16.398438 38.234375 14.488281 38.335938 12.425781 L 38.351562 10.878906 M 63.839844 21.3125 L 64.417969 21.324219 C 65.4375 21.324219 66.179688 21.417969 66.644531 21.597656 C 68.222656 22.175781 69.007812 23.054688 68.996094 24.238281 C 68.996094 25.835938 68.011719 27.015625 66.039062 27.785156 C 64.714844 28.300781 63.050781 28.578125 61.050781 28.621094 L 59.140625 28.679688 L 60.035156 26.285156 C 60.609375 24.917969 61.171875 23.765625 61.71875 22.828125 L 60.125 22.007812 C 61.683594 21.582031 62.921875 21.351562 63.839844 21.3125 M 24.882812 10.363281 L 24.867188 10.363281 L 23.972656 10.285156 L 22.035156 10.4375 L 21.261719 10.542969 C 20.5 10.695312 19.585938 10.96875 18.515625 11.363281 L 19.59375 11.742188 L 19.273438 12.5625 C 18.726562 13.90625 18.195312 15.582031 17.679688 17.59375 L 17.195312 19.808594 L 18.574219 19.566406 C 21.226562 19.132812 23.382812 18.441406 25.050781 17.488281 C 27.285156 16.234375 28.277344 14.6875 28.023438 12.847656 C 27.941406 12.375 27.769531 11.980469 27.507812 11.667969 C 26.992188 11.058594 26.117188 10.625 24.882812 10.363281 M 66.359375 22.386719 L 66.34375 22.386719 L 66.34375 22.371094 C 65.957031 22.242188 65.316406 22.175781 64.417969 22.175781 L 63.855469 22.160156 L 62.566406 22.3125 L 62.886719 22.492188 L 62.445312 23.25 C 61.949219 24.121094 61.410156 25.25 60.824219 26.632812 L 60.382812 27.800781 L 61.035156 27.785156 C 62.914062 27.753906 64.488281 27.488281 65.75 26.980469 C 66.703125 26.617188 67.375 26.15625 67.769531 25.601562 C 68.019531 25.207031 68.148438 24.753906 68.148438 24.238281 C 68.167969 23.457031 67.570312 22.84375 66.359375 22.386719 M 23.746094 9.453125 L 23.972656 9.4375 L 25.066406 9.542969 C 27.359375 10.027344 28.625 11.085938 28.855469 12.710938 C 29.160156 14.945312 28.035156 16.78125 25.476562 18.21875 C 23.714844 19.207031 21.46875 19.9375 18.726562 20.402344 L 16.105469 20.855469 L 16.863281 17.382812 C 17.386719 15.351562 17.929688 13.636719 18.484375 12.242188 L 16.121094 11.421875 C 18.203125 10.523438 19.871094 9.957031 21.125 9.726562 L 23.746094 9.453125 "/>
</g>
</svg>
