<?xml version="1.0" encoding="UTF-8"?>
<svg xmlns="http://www.w3.org/2000/svg" xmlns:xlink="http://www.w3.org/1999/xlink" width="128pt" height="137pt" viewBox="0 0 128 137" version="1.1">
<g id="surface1">
<path style=" stroke:none;fill-rule:nonzero;fill:rgb(100%,100%,100%);fill-opacity:1;" d="M 128 39.1875 L 108.675781 57.972656 L 79.117188 119.09375 C 78.210938 121.355469 76.617188 122.109375 74.34375 121.355469 L 71.84375 120.449219 L 69.570312 118.414062 L 69.34375 115.695312 L 79.574219 86.496094 L 30.238281 134.710938 C 28.417969 136.21875 26.601562 136.21875 24.78125 134.710938 L 22.960938 132.671875 C 21.144531 130.863281 21.144531 129.050781 22.960938 127.242188 L 62.523438 88.53125 L 59.113281 85.136719 L 17.050781 126.335938 L 11.59375 126.109375 L 9.777344 124.070312 L 8.640625 121.582031 L 9.777344 118.867188 L 51.835938 77.667969 L 48.882812 74.726562 L 10.457031 112.074219 L 7.957031 113.207031 L 5.230469 112.074219 L 3.183594 110.039062 L 2.273438 107.546875 L 3.410156 104.832031 L 41.605469 67.253906 L 38.421875 64.085938 L 8.183594 93.511719 L 5.683594 94.644531 L 2.957031 93.511719 L 0.910156 91.476562 L 0 88.984375 L 0.910156 86.269531 L 89.351562 0.0273438 L 128 39.1875 "/>
</g>
</svg>
