<?xml version="1.0" encoding="UTF-8"?>
<svg xmlns="http://www.w3.org/2000/svg" xmlns:xlink="http://www.w3.org/1999/xlink" width="128pt" height="186pt" viewBox="0 0 128 186" version="1.1">
<g id="surface1">
<path style=" stroke:none;fill-rule:nonzero;fill:rgb(100%,100%,100%);fill-opacity:1;" d="M 107.617188 13.730469 L 108.554688 12.484375 L 109.804688 11.859375 L 110.429688 10.609375 L 111.992188 8.738281 L 112.621094 7.800781 L 113.558594 3.433594 L 116.683594 0.3125 L 121.375 0 L 124.5 2.808594 L 124.8125 7.488281 C 123.5625 12.066406 121.269531 16.226562 117.933594 19.972656 C 114.597656 23.71875 109.597656 26.527344 102.925781 28.398438 L 85.417969 32.457031 L 82.289062 33.394531 L 78.851562 34.953125 L 76.039062 36.511719 L 73.222656 38.386719 L 70.097656 42.441406 L 69.785156 43.378906 L 68.535156 45.875 L 78.539062 45.875 L 81.664062 47.125 L 82.289062 49.933594 L 82.289062 60.855469 C 95.839844 65.015625 106.78125 72.609375 115.121094 83.636719 C 123.667969 95.082031 127.941406 107.875 127.941406 122.023438 C 127.941406 139.707031 121.582031 154.6875 108.867188 166.964844 C 96.570312 179.65625 81.5625 186 63.84375 186 C 46.125 186 31.117188 179.65625 18.820312 166.964844 C 6.3125 154.6875 0.0585938 139.707031 0.0585938 122.023438 C 0.0585938 107.875 4.332031 95.082031 12.878906 83.636719 C 21.21875 72.609375 32.054688 65.015625 45.398438 60.855469 L 45.398438 49.933594 L 46.335938 47.125 C 46.960938 46.292969 48.003906 45.875 49.460938 45.875 L 56.652344 45.875 L 60.40625 35.265625 C 63.53125 30.480469 68.324219 26.734375 74.785156 24.03125 L 91.984375 19.035156 L 99.800781 17.164062 L 103.238281 15.917969 L 106.679688 14.355469 L 106.679688 14.042969 L 107.617188 13.730469 "/>
</g>
</svg>
