<?xml version="1.0" encoding="UTF-8"?>
<svg xmlns="http://www.w3.org/2000/svg" xmlns:xlink="http://www.w3.org/1999/xlink" width="129pt" height="35pt" viewBox="0 0 129 35" version="1.1">
<g id="surface1">
<path style=" stroke:none;fill-rule:nonzero;fill:rgb(100%,100%,100%);fill-opacity:1;" d="M 97.539062 15.757812 L 96.035156 15.910156 C 95.230469 16.71875 94.980469 17.574219 95.28125 18.484375 C 95.382812 19.394531 96.183594 19.746094 97.6875 19.546875 L 99.195312 18.636719 L 98.894531 16.816406 L 97.539062 15.757812 M 91.21875 1.667969 L 93.023438 2.574219 L 94.828125 0 L 96.035156 0 L 96.636719 4.847656 L 101.902344 8.484375 C 102.808594 9.089844 104.109375 9.394531 105.816406 9.394531 L 110.332031 9.394531 L 120.71875 12.574219 L 128.847656 15.453125 L 127.792969 20.304688 L 125.988281 28.03125 L 124.179688 32.726562 C 123.476562 34.242188 122.824219 34.847656 122.222656 34.546875 L 116.804688 30.152344 L 112.890625 25.910156 L 110.183594 23.332031 L 105.367188 19.242188 L 102.054688 17.425781 L 100.550781 16.816406 L 100.851562 18.9375 C 100.851562 20.453125 100.5 21.363281 99.796875 21.667969 L 96.484375 21.667969 C 95.28125 21.363281 94.429688 20.707031 93.925781 19.695312 C 93.523438 18.890625 93.375 17.777344 93.476562 16.363281 L 93.777344 14.695312 L 56.144531 14.695312 C 54.84375 14.695312 53.6875 14.242188 52.683594 13.332031 C 51.78125 12.425781 51.328125 11.3125 51.328125 10 L 51.328125 8.789062 L 0.152344 8.789062 L 0.152344 2.574219 L 86.398438 2.574219 L 86.851562 2.273438 L 87.304688 1.816406 L 91.21875 1.667969 "/>
</g>
</svg>
