<?xml version="1.0" encoding="UTF-8"?>
<svg xmlns="http://www.w3.org/2000/svg" xmlns:xlink="http://www.w3.org/1999/xlink" width="128pt" height="128pt" viewBox="0 0 128 128" version="1.1">
<g id="surface1">
<path style=" stroke:none;fill-rule:nonzero;fill:rgb(100%,100%,100%);fill-opacity:1;" d="M 68.425781 51.503906 L 74.839844 55.464844 C 77.28125 58.109375 78.402344 61.257812 78.199219 64.914062 C 78.199219 68.773438 76.875 71.921875 74.230469 74.363281 C 71.378906 76.597656 68.222656 77.714844 64.761719 77.714844 C 61.097656 77.714844 57.945312 76.292969 55.296875 73.449219 L 52.242188 67.046875 C 51.632812 64.8125 51.835938 62.476562 52.855469 60.039062 L 25.066406 23.160156 L 61.097656 51.808594 L 68.425781 51.503906 M 63.847656 0 C 81.558594 0 96.621094 6.296875 109.039062 18.894531 C 121.660156 31.289062 127.972656 46.324219 127.972656 64 C 127.972656 81.675781 121.660156 96.710938 109.039062 109.105469 C 96.621094 121.703125 81.558594 128 63.847656 128 C 46.339844 128 31.277344 121.703125 18.652344 109.105469 C 6.238281 96.710938 0.0273438 81.675781 0.0273438 64 C 0.0273438 55.667969 1.65625 47.542969 4.914062 39.617188 L 7.964844 36.265625 L 12.546875 36.265625 L 15.90625 39.617188 L 15.90625 43.886719 C 13.054688 50.386719 11.632812 57.09375 11.632812 64 C 11.632812 78.425781 16.71875 90.820312 26.898438 101.179688 C 37.078125 111.136719 49.394531 116.113281 63.847656 116.113281 C 78.300781 116.113281 90.617188 111.136719 100.796875 101.179688 C 110.972656 90.820312 116.0625 78.425781 116.0625 64 C 116.0625 50.589844 111.585938 39.007812 102.628906 29.257812 C 93.875 19.503906 82.984375 13.816406 69.953125 12.191406 L 69.953125 36.875 C 69.953125 38.5 69.34375 39.820312 68.121094 40.839844 C 66.902344 42.261719 65.476562 42.972656 63.847656 42.972656 C 62.21875 42.972656 60.894531 42.261719 59.878906 40.839844 L 58.046875 36.875 L 58.046875 6.09375 L 59.878906 1.828125 C 60.894531 0.609375 62.21875 0 63.847656 0 "/>
</g>
</svg>
