<?xml version="1.0" encoding="UTF-8"?>
<svg xmlns="http://www.w3.org/2000/svg" xmlns:xlink="http://www.w3.org/1999/xlink" width="128pt" height="63pt" viewBox="0 0 128 63" version="1.1">
<g id="surface1">
<path style=" stroke:none;fill-rule:nonzero;fill:rgb(100%,100%,100%);fill-opacity:1;" d="M 46.589844 29.769531 L 37.960938 29.769531 L 33.882812 34.648438 C 32.210938 35.910156 30.429688 36.695312 28.550781 37.011719 C 30.429688 41 32.992188 43.050781 36.234375 43.152344 C 38.535156 43.152344 40.679688 41.632812 42.667969 38.585938 C 44.128906 36.277344 45.4375 33.335938 46.589844 29.769531 M 116.390625 23.3125 L 113.097656 22.996094 L 109.648438 22.996094 L 109.332031 32.917969 L 109.332031 42.367188 L 111.6875 42.367188 L 114.511719 42.210938 L 115.609375 32.761719 L 116.390625 23.3125 M 64.3125 2.679688 C 64.628906 1.734375 65.308594 1 66.351562 0.476562 L 69.019531 0.00390625 L 101.019531 9.765625 L 101.804688 10.082031 L 103.53125 8.191406 C 105.203125 7.035156 107.191406 6.460938 109.488281 6.460938 C 111.894531 6.460938 114.769531 7.089844 118.117188 8.347656 L 123.921875 11.183594 C 125.59375 12.234375 126.746094 14.125 127.371094 16.855469 L 128 22.050781 L 127.371094 32.601562 L 125.804688 42.367188 L 124.550781 48.667969 C 124.128906 50.347656 123.347656 51.660156 122.195312 52.601562 C 120.628906 54.179688 118.378906 54.964844 115.449219 54.964844 L 108.390625 53.863281 C 105.148438 52.917969 102.796875 51.605469 101.332031 49.925781 C 100.183594 48.875 99.449219 47.457031 99.136719 45.675781 C 98.613281 43.46875 98.351562 40.320312 98.351562 36.226562 L 90.667969 32.761719 C 92.445312 37.90625 93.488281 42.839844 93.804688 47.5625 L 84.550781 47.5625 L 83.921875 40.632812 L 80.3125 27.71875 L 74.980469 25.359375 L 64.628906 58.746094 L 63.371094 61.582031 C 63.164062 62.523438 63.007812 62.839844 62.902344 62.523438 L 51.136719 57.484375 L 48.785156 54.964844 L 48.628906 51.660156 L 55.53125 29.769531 L 52.550781 29.769531 C 51.292969 34.492188 49.726562 38.378906 47.84375 41.421875 C 44.390625 47.089844 40.523438 49.925781 36.234375 49.925781 L 36.078125 49.925781 C 31.058594 49.925781 26.980469 46.984375 23.84375 41.105469 L 21.960938 36.382812 C 19.136719 35.226562 16.890625 33.023438 15.214844 29.769531 L 8.46875 29.769531 C 7.949219 29.769531 7.582031 29.609375 7.371094 29.296875 L 6.589844 27.71875 L 6.589844 26.773438 L 4.863281 26.773438 L 4.234375 26.933594 L 1.726562 26.933594 L 0.3125 26.144531 L 0 24.570312 L 0 5.515625 L 0.3125 3.941406 L 1.726562 2.996094 L 4.234375 2.996094 C 4.652344 2.996094 5.019531 3.203125 5.332031 3.625 L 5.960938 4.726562 L 7.371094 4.726562 L 8.46875 4.097656 L 64.3125 2.679688 "/>
</g>
</svg>
