<?xml version="1.0" encoding="UTF-8"?>
<svg xmlns="http://www.w3.org/2000/svg" xmlns:xlink="http://www.w3.org/1999/xlink" width="128pt" height="142pt" viewBox="0 0 128 142" version="1.1">
<g id="surface1">
<path style=" stroke:none;fill-rule:nonzero;fill:rgb(100%,100%,100%);fill-opacity:1;" d="M 64 128.511719 C 68.582031 128.511719 72.371094 126.851562 75.371094 123.539062 L 52.390625 123.539062 C 55.390625 126.851562 59.261719 128.511719 64 128.511719 M 74.660156 104.84375 C 71.660156 102.160156 68.105469 100.820312 64 100.820312 C 59.894531 100.820312 56.261719 102.160156 53.101562 104.84375 L 74.660156 104.84375 M 78.925781 112.652344 L 77.503906 108.628906 L 50.257812 108.628906 L 49.074219 112.652344 L 78.925781 112.652344 M 77.742188 119.988281 L 78.925781 116.203125 L 48.835938 116.203125 L 50.019531 119.988281 L 77.742188 119.988281 M 78.691406 86.621094 C 80.902344 86.621094 82.953125 87.328125 84.851562 88.75 C 86.746094 90.171875 87.851562 91.90625 88.167969 93.957031 L 96.222656 134.664062 C 96.539062 136.714844 96.066406 138.449219 94.800781 139.871094 C 93.539062 141.289062 91.800781 142 89.589844 142 L 38.410156 142 C 36.199219 142 34.382812 141.289062 32.960938 139.871094 C 31.699219 138.449219 31.304688 136.714844 31.777344 134.664062 L 40.070312 93.957031 C 40.386719 91.90625 41.492188 90.171875 43.386719 88.75 C 45.28125 87.328125 47.335938 86.621094 49.546875 86.621094 L 78.691406 86.621094 M 106.175781 58.457031 C 105.859375 56.246094 104.671875 54.355469 102.621094 52.777344 C 100.726562 51.199219 98.511719 50.410156 95.984375 50.410156 L 32.25 50.410156 C 29.722656 50.410156 27.511719 51.199219 25.617188 52.777344 C 23.5625 54.355469 22.378906 56.246094 22.0625 58.457031 L 18.746094 73.128906 C 18.429688 75.339844 18.984375 77.152344 20.402344 78.574219 C 21.824219 80.152344 23.800781 80.941406 26.328125 80.941406 L 33.433594 80.941406 C 34.382812 80.941406 38.488281 78.730469 45.757812 74.3125 C 53.023438 69.894531 59.023438 67.6875 63.761719 67.6875 C 68.34375 67.6875 75.136719 69.816406 84.140625 74.078125 L 98.828125 80.230469 L 101.4375 80.230469 C 103.964844 80.230469 105.9375 79.441406 107.359375 77.863281 C 108.78125 76.285156 109.332031 74.390625 109.015625 72.183594 L 106.175781 58.457031 M 100.25 9.941406 C 107.675781 14.832031 111.703125 19.25 112.335938 23.191406 L 127.5 115.019531 C 127.8125 117.230469 127.261719 119.121094 125.839844 120.699219 C 124.417969 122.277344 122.445312 123.066406 119.917969 123.066406 L 98.59375 123.066406 L 92.433594 91.828125 C 91.957031 89.144531 90.457031 86.855469 87.929688 84.964844 C 85.5625 83.070312 82.875 82.125 79.875 82.125 L 48.363281 82.125 C 45.359375 82.125 42.675781 83.070312 40.304688 84.964844 C 37.777344 86.855469 36.277344 89.144531 35.804688 91.828125 L 29.40625 123.066406 L 7.847656 123.066406 C 5.476562 123.066406 3.582031 122.277344 2.160156 120.699219 C 0.738281 119.121094 0.1875 117.230469 0.5 115.019531 L 16.375 23.191406 C 17.007812 19.25 20.957031 14.832031 28.222656 9.941406 C 37.859375 3.3125 49.785156 0 64 0 C 78.058594 0 90.140625 3.3125 100.25 9.941406 "/>
</g>
</svg>
