<?xml version='1.0' encoding='UTF-8'?>
<svg xmlns:xlink="http://www.w3.org/1999/xlink" xmlns="http://www.w3.org/2000/svg" version="1.1" width="512px" height="138px" viewBox="-234.350260926 -62.5665802003 511.999351502 138.329649353"><defs><g id="c90"><path fill="#ffffff" stroke="none" d="M11.0 -0.5 L10.5 -0.45 Q10.1 -0.05 10.25 0.4 10.3 0.85 11.05 0.75 L11.55 0.45 11.45 -0.15 11.0 -0.5 M8.9 -5.15 L9.5 -4.85 10.1 -5.7 10.5 -5.7 10.7 -4.1 12.45 -2.9 Q12.9 -2.6 13.75 -2.6 L15.25 -2.6 18.7 -1.55 21.4 -0.6 21.05 1.0 20.45 3.55 19.85 5.1 Q19.5 5.85 19.2 5.7 L17.4 4.25 16.1 2.85 15.2 2.0 13.6 0.65 12.5 0.05 12.0 -0.15 12.1 0.55 Q12.1 1.3 11.75 1.45 L10.65 1.45 Q10.05 1.3 9.8 0.8 9.6 0.4 9.65 -0.3 L9.75 -0.85 -2.75 -0.85 Q-3.4 -0.85 -3.9 -1.3 -4.35 -1.75 -4.35 -2.4 L-4.35 -2.8 -21.35 -2.8 -21.35 -4.85 7.3 -4.85 7.45 -4.95 7.6 -5.1 8.9 -5.15"/></g></defs><g><g><use transform="matrix(11.9765930176,0.0,0.0,11.9765930176,21.35,5.7)" xlink:href="#c90"/></g></g></svg>