<?xml version="1.0" encoding="UTF-8"?>
<svg xmlns="http://www.w3.org/2000/svg" xmlns:xlink="http://www.w3.org/1999/xlink" width="128pt" height="47pt" viewBox="0 0 128 47" version="1.1">
<g id="surface1">
<path style=" stroke:none;fill-rule:nonzero;fill:rgb(100%,100%,100%);fill-opacity:1;" d="M 61.757812 8.234375 L 67.207031 8.234375 L 67.207031 10.984375 L 61.757812 10.984375 L 61.757812 16.4375 L 72.65625 16.4375 L 72.65625 19.1875 L 53.574219 19.1875 L 53.574219 0.00390625 L 72.65625 0.00390625 L 72.65625 2.730469 L 61.757812 2.730469 L 61.757812 8.234375 M 83.550781 2.730469 L 83.550781 16.4375 L 88.972656 16.4375 L 88.972656 2.730469 L 83.550781 2.730469 M 91.738281 0.00390625 L 91.738281 2.730469 L 94.449219 2.730469 L 94.449219 16.4375 L 91.738281 16.4375 L 91.738281 19.1875 L 75.367188 19.1875 L 75.367188 0.00390625 L 91.738281 0.00390625 M 39.964844 10.984375 L 45.414062 10.984375 L 45.414062 2.730469 L 39.964844 2.730469 L 39.964844 10.984375 M 50.859375 2.730469 L 50.859375 10.984375 L 48.125 10.984375 L 48.125 13.710938 L 50.859375 13.710938 L 50.859375 19.1875 L 45.414062 19.1875 L 45.414062 13.710938 L 39.964844 13.710938 L 39.964844 19.1875 L 31.804688 19.1875 L 31.804688 0.00390625 L 48.125 0.00390625 L 48.125 2.730469 L 50.859375 2.730469 M 40.824219 30.589844 L 29.953125 30.589844 L 29.953125 36.066406 L 35.402344 36.066406 L 35.402344 38.792969 L 29.953125 38.792969 L 29.953125 44.269531 L 40.824219 44.269531 L 40.824219 46.996094 L 21.792969 46.996094 L 21.792969 27.863281 L 40.824219 27.863281 L 40.824219 30.589844 M 13.609375 27.863281 L 19.03125 27.863281 L 19.03125 46.996094 L 13.609375 46.996094 L 13.609375 38.792969 L 10.871094 38.792969 L 10.871094 41.542969 L 8.160156 41.542969 L 8.160156 38.792969 L 5.449219 38.792969 L 5.449219 46.996094 L 0 46.996094 L 0 27.863281 L 5.449219 27.863281 L 5.449219 30.589844 L 8.160156 30.589844 L 8.160156 33.316406 L 10.871094 33.316406 L 10.871094 30.25 L 13.609375 30.25 L 13.609375 27.863281 M 46.273438 38.792969 L 46.273438 46.996094 L 43.5625 46.996094 L 43.5625 27.863281 L 51.722656 27.863281 L 51.722656 30.589844 L 54.484375 30.589844 L 54.484375 33.316406 L 57.195312 33.316406 L 57.195312 36.066406 L 59.90625 36.066406 L 59.90625 27.863281 L 62.644531 27.863281 L 62.644531 46.996094 L 54.484375 46.996094 L 54.484375 44.269531 L 51.722656 44.269531 L 51.722656 41.542969 L 49.011719 41.542969 L 49.011719 38.792969 L 46.273438 38.792969 M 117.078125 30.589844 L 117.078125 36.066406 L 122.527344 36.066406 L 122.527344 38.792969 L 117.078125 38.792969 L 117.078125 44.269531 L 128 44.269531 L 128 46.996094 L 108.917969 46.996094 L 108.917969 27.863281 L 128 27.863281 L 128 30.589844 L 117.078125 30.589844 M 95.308594 30.589844 L 95.308594 44.269531 L 100.757812 44.269531 L 100.757812 41.542969 L 106.207031 41.542969 L 106.207031 44.269531 L 103.46875 44.269531 L 103.46875 46.996094 L 89.835938 46.996094 L 89.835938 44.269531 L 87.125 44.269531 L 87.125 30.589844 L 89.835938 30.589844 L 89.835938 27.863281 L 103.46875 27.863281 L 103.46875 30.589844 L 106.207031 30.589844 L 106.207031 33.316406 L 100.757812 33.316406 L 100.757812 30.589844 L 95.308594 30.589844 M 73.515625 30.589844 L 73.515625 38.792969 L 78.964844 38.792969 L 78.964844 30.589844 L 73.515625 30.589844 M 84.386719 30.589844 L 84.386719 46.996094 L 78.964844 46.996094 L 78.964844 41.542969 L 73.515625 41.542969 L 73.515625 46.996094 L 65.355469 46.996094 L 65.355469 30.589844 L 68.09375 30.589844 L 68.09375 27.863281 L 81.675781 27.863281 L 81.675781 30.589844 L 84.386719 30.589844 "/>
</g>
</svg>
