<?xml version="1.0" encoding="UTF-8"?>
<svg xmlns="http://www.w3.org/2000/svg" xmlns:xlink="http://www.w3.org/1999/xlink" width="128pt" height="151pt" viewBox="0 0 128 151" version="1.1">
<g id="surface1">
<path style=" stroke:none;fill-rule:nonzero;fill:rgb(100%,100%,100%);fill-opacity:1;" d="M 22.425781 50.703125 L 105.753906 50.519531 L 105.753906 111.054688 C 105.753906 113.851562 104.78125 116.21875 102.835938 118.164062 C 100.894531 120.109375 98.523438 121.082031 95.726562 121.082031 L 88.980469 121.082031 L 88.980469 141.6875 C 88.980469 144.238281 88.070312 146.425781 86.246094 148.25 C 84.421875 150.074219 82.234375 150.984375 79.679688 150.984375 C 77.128906 150.984375 74.941406 150.074219 73.117188 148.25 C 71.292969 146.546875 70.382812 144.359375 70.382812 141.6875 L 70.382812 121.082031 L 57.800781 121.082031 L 57.800781 141.6875 C 57.800781 144.359375 56.890625 146.546875 55.066406 148.25 C 53.242188 150.074219 51.054688 150.984375 48.5 150.984375 C 45.949219 150.984375 43.699219 150.074219 41.753906 148.25 C 39.929688 146.546875 39.019531 144.359375 39.019531 141.6875 L 39.019531 121.082031 L 32.273438 121.082031 C 29.597656 121.082031 27.289062 120.109375 25.34375 118.164062 C 23.398438 116.21875 22.425781 113.851562 22.425781 111.054688 L 22.425781 50.703125 M 112.136719 51.613281 C 113.960938 49.792969 116.148438 48.878906 118.699219 48.878906 C 121.253906 48.878906 123.441406 49.792969 125.265625 51.613281 C 127.089844 53.4375 128 55.625 128 58.179688 L 128 97.199219 C 128 99.75 127.089844 101.9375 125.265625 103.761719 C 123.441406 105.585938 121.253906 106.496094 118.699219 106.496094 C 116.027344 106.496094 113.839844 105.585938 112.136719 103.761719 C 110.3125 101.9375 109.402344 99.75 109.402344 97.199219 L 109.402344 58.179688 C 109.402344 55.625 110.3125 53.4375 112.136719 51.613281 M 42.484375 31.195312 L 44.855469 32.105469 L 47.40625 31.195312 L 48.5 28.640625 L 47.40625 26.089844 L 44.855469 25.175781 C 43.882812 25.175781 43.09375 25.480469 42.484375 26.089844 C 41.753906 26.816406 41.390625 27.667969 41.390625 28.640625 C 41.390625 29.613281 41.753906 30.464844 42.484375 31.195312 M 79.679688 28.640625 L 80.59375 31.195312 L 83.144531 32.105469 L 85.699219 31.195312 L 86.609375 28.640625 L 85.699219 26.089844 L 83.144531 24.996094 C 82.171875 25.117188 81.320312 25.480469 80.59375 26.089844 C 79.984375 26.816406 79.679688 27.667969 79.679688 28.640625 M 9.480469 48.878906 C 12.035156 48.878906 14.222656 49.792969 16.046875 51.613281 C 17.867188 53.4375 18.78125 55.625 18.78125 58.179688 L 18.78125 97.199219 C 18.78125 99.75 17.867188 101.9375 16.046875 103.761719 C 14.222656 105.585938 12.035156 106.496094 9.480469 106.496094 C 6.808594 106.496094 4.621094 105.585938 2.917969 103.761719 C 1.09375 101.9375 0.183594 99.75 0.183594 97.199219 L 0 58.179688 C 0 55.625 0.910156 53.4375 2.734375 51.613281 C 4.558594 49.792969 6.808594 48.878906 9.480469 48.878906 M 22.0625 47.421875 C 22.0625 40.25 24.007812 33.625 27.898438 27.546875 C 31.789062 21.710938 36.953125 17.09375 43.394531 13.691406 L 37.015625 1.839844 L 36.832031 0.925781 L 37.378906 0.199219 L 38.472656 0.015625 L 39.203125 0.746094 L 45.765625 12.597656 C 51.601562 10.042969 57.679688 8.765625 64 8.765625 C 70.441406 8.765625 76.519531 10.042969 82.234375 12.597656 L 88.796875 0.5625 L 89.710938 0.015625 L 90.621094 0.199219 L 91.351562 0.925781 L 91.167969 1.839844 L 84.605469 13.691406 C 91.167969 17.09375 96.335938 21.773438 100.101562 27.730469 C 103.992188 33.683594 105.9375 40.25 105.9375 47.421875 L 22.0625 47.421875 "/>
</g>
</svg>
