<?xml version="1.0" encoding="UTF-8"?>
<svg xmlns="http://www.w3.org/2000/svg" xmlns:xlink="http://www.w3.org/1999/xlink" width="128pt" height="128pt" viewBox="0 0 128 128" version="1.1">
<g id="surface1">
<rect x="0" y="0" width="128" height="128" style="fill:rgb(20%,20%,20%);fill-opacity:1;stroke:none;"/>
<path style=" stroke:none;fill-rule:nonzero;fill:rgb(40%,40%,40%);fill-opacity:1;" d="M 78.71875 34.238281 L 86.078125 28.160156 L 95.839844 37.921875 L 89.761719 45.28125 L 93.121094 53.441406 L 102.558594 54.398438 L 102.558594 68.160156 L 93.121094 69.121094 L 89.761719 77.28125 L 95.839844 84.640625 L 86.078125 94.398438 L 78.71875 88.160156 L 70.558594 91.679688 L 69.601562 101.121094 L 55.839844 101.121094 L 54.878906 91.679688 L 46.71875 88.160156 L 39.359375 94.398438 L 29.601562 84.640625 L 35.839844 77.28125 L 32.320312 69.121094 L 22.878906 68.160156 L 22.878906 54.398438 L 32.320312 53.441406 L 35.839844 45.28125 L 29.601562 37.921875 L 39.359375 28.160156 L 46.71875 34.238281 L 54.878906 30.878906 L 55.839844 21.441406 L 69.601562 21.441406 L 70.558594 30.878906 L 78.71875 34.238281 M 72.800781 61.28125 C 72.800781 58.507812 71.839844 56.105469 69.921875 54.078125 C 67.894531 52.160156 65.492188 51.199219 62.71875 51.199219 C 59.945312 51.199219 57.546875 52.160156 55.519531 54.078125 C 53.601562 56.105469 52.640625 58.507812 52.640625 61.28125 C 52.640625 64.054688 53.601562 66.453125 55.519531 68.480469 C 57.546875 70.398438 59.945312 71.359375 62.71875 71.359375 C 65.492188 71.359375 67.894531 70.398438 69.921875 68.480469 C 71.839844 66.453125 72.800781 64.054688 72.800781 61.28125 "/>
</g>
</svg>
