<?xml version="1.0" encoding="UTF-8"?>
<svg xmlns="http://www.w3.org/2000/svg" xmlns:xlink="http://www.w3.org/1999/xlink" width="128pt" height="7pt" viewBox="0 0 128 7" version="1.1">
<g id="surface1">
<path style=" stroke:none;fill-rule:nonzero;fill:rgb(100%,100%,100%);fill-opacity:1;" d="M 127.546875 1.191406 C 127.773438 1.402344 127.890625 1.722656 127.890625 2.152344 L 127.890625 4.847656 C 127.890625 5.269531 127.773438 5.585938 127.546875 5.796875 C 127.316406 6.003906 127.015625 6.109375 126.640625 6.109375 L 126.484375 6.109375 C 126.109375 6.109375 125.808594 6.003906 125.578125 5.796875 C 125.351562 5.585938 125.234375 5.269531 125.234375 4.847656 L 125.234375 2.152344 C 125.234375 1.722656 125.351562 1.402344 125.578125 1.191406 C 125.808594 0.988281 126.109375 0.890625 126.484375 0.890625 L 126.640625 0.890625 C 127.015625 0.890625 127.316406 0.988281 127.546875 1.191406 M 126.039062 1.621094 C 125.925781 1.734375 125.867188 1.871094 125.867188 2.023438 L 125.867188 4.046875 L 127.257812 2.023438 C 127.257812 1.871094 127.199219 1.734375 127.085938 1.621094 C 126.980469 1.507812 126.832031 1.449219 126.640625 1.449219 L 126.484375 1.449219 C 126.292969 1.449219 126.144531 1.507812 126.039062 1.621094 M 97.59375 0 L 98.253906 0 L 98.585938 0.386719 L 98.84375 0.875 L 99.027344 1.519531 L 99.085938 2.339844 L 99.085938 4.660156 L 99.027344 5.492188 L 98.84375 6.125 L 98.585938 6.628906 L 98.253906 7 L 97.59375 7 L 98.011719 6.46875 L 98.28125 5.980469 L 98.410156 5.421875 L 98.453125 4.675781 L 98.453125 2.324219 L 98.410156 1.578125 L 98.28125 1.019531 L 98.011719 0.53125 L 97.59375 0 M 105.46875 0.890625 L 106.359375 5.449219 L 107.320312 0.890625 L 107.964844 0.890625 L 106.789062 6.109375 L 105.914062 6.109375 L 104.808594 0.890625 L 105.46875 0.890625 M 118.222656 0.890625 L 118.9375 0.890625 L 118.9375 5.550781 L 119.742188 5.550781 L 119.742188 6.109375 L 117.316406 6.109375 L 117.316406 5.550781 L 118.292969 5.550781 L 118.292969 1.476562 L 117.246094 1.863281 L 117.246094 1.261719 L 118.222656 0.890625 M 109.199219 0.890625 L 111.621094 0.890625 L 111.621094 1.605469 L 110.316406 6.109375 L 109.644531 6.109375 L 111.007812 1.449219 L 109.199219 1.449219 L 109.199219 0.890625 M 114.835938 5.363281 L 114.835938 6.109375 L 114.089844 6.109375 L 114.089844 5.363281 L 114.835938 5.363281 M 126.640625 5.550781 C 126.832031 5.550781 126.980469 5.492188 127.085938 5.378906 C 127.199219 5.265625 127.257812 5.128906 127.257812 4.976562 L 127.257812 2.96875 L 125.867188 4.976562 C 125.867188 5.128906 125.925781 5.265625 126.039062 5.378906 C 126.144531 5.492188 126.292969 5.550781 126.484375 5.550781 L 126.640625 5.550781 M 122.898438 6.109375 L 122.152344 6.109375 L 122.152344 5.363281 L 122.898438 5.363281 L 122.898438 6.109375 M 1.945312 0.71875 L 1.847656 1.863281 L 2.90625 1.449219 L 3.109375 2.035156 L 2.003906 2.265625 L 2.792969 3.183594 L 2.261719 3.570312 L 1.601562 2.511719 L 0.929688 3.570312 L 0.398438 3.183594 L 1.199219 2.265625 L 0.109375 2.035156 L 0.324219 1.433594 L 1.371094 1.863281 L 1.273438 0.71875 L 1.945312 0.71875 M 74.226562 0.890625 C 74.636719 0.890625 74.960938 0.980469 75.1875 1.160156 C 75.410156 1.34375 75.519531 1.640625 75.519531 2.050781 L 75.519531 2.898438 C 75.519531 3.308594 75.410156 3.609375 75.1875 3.800781 C 74.96875 3.992188 74.652344 4.089844 74.242188 4.089844 L 73.46875 4.089844 L 73.46875 6.109375 L 72.820312 6.109375 L 72.820312 0.890625 L 74.226562 0.890625 M 74.730469 1.578125 C 74.644531 1.492188 74.503906 1.449219 74.3125 1.449219 L 73.46875 1.449219 L 73.46875 3.515625 L 74.3125 3.515625 C 74.503906 3.515625 74.644531 3.472656 74.730469 3.386719 C 74.816406 3.300781 74.859375 3.164062 74.859375 2.984375 L 74.859375 1.980469 C 74.859375 1.796875 74.816406 1.664062 74.730469 1.578125 M 76.980469 3.5 L 79.40625 3.5 L 79.40625 4.058594 L 76.980469 4.058594 L 76.980469 3.5 M 82.375 0.890625 C 82.804688 0.890625 83.136719 0.996094 83.363281 1.203125 C 83.605469 1.414062 83.722656 1.730469 83.722656 2.152344 L 83.722656 4.847656 C 83.722656 5.269531 83.605469 5.585938 83.363281 5.796875 C 83.136719 6.003906 82.804688 6.109375 82.375 6.109375 L 82.074219 6.109375 C 81.644531 6.109375 81.308594 6.003906 81.070312 5.796875 C 80.839844 5.585938 80.726562 5.269531 80.726562 4.847656 L 80.726562 2.152344 C 80.726562 1.730469 80.839844 1.414062 81.070312 1.203125 C 81.308594 0.996094 81.644531 0.890625 82.074219 0.890625 L 82.375 0.890625 M 82.003906 1.464844 C 81.8125 1.464844 81.65625 1.515625 81.542969 1.621094 C 81.4375 1.734375 81.386719 1.871094 81.386719 2.023438 L 81.386719 4.976562 C 81.386719 5.128906 81.4375 5.265625 81.542969 5.378906 C 81.65625 5.484375 81.8125 5.535156 82.003906 5.535156 L 82.445312 5.535156 C 82.636719 5.535156 82.789062 5.484375 82.90625 5.378906 C 83.011719 5.265625 83.0625 5.128906 83.0625 4.976562 L 83.0625 2.023438 C 83.0625 1.871094 83.011719 1.734375 82.90625 1.621094 C 82.789062 1.515625 82.636719 1.464844 82.445312 1.464844 L 82.003906 1.464844 M 90.050781 0.386719 L 90.378906 0 L 91.023438 0 L 90.621094 0.53125 L 90.351562 1.019531 L 90.207031 1.578125 L 90.179688 2.324219 L 90.179688 4.675781 L 90.207031 5.421875 L 90.351562 5.980469 L 90.621094 6.46875 L 91.023438 7 L 90.378906 7 L 90.050781 6.628906 L 89.789062 6.125 L 89.605469 5.492188 L 89.53125 4.660156 L 89.53125 2.339844 L 89.605469 1.519531 L 89.789062 0.875 L 90.050781 0.386719 M 85.804688 1.621094 C 85.6875 1.734375 85.632812 1.871094 85.632812 2.023438 L 85.632812 2.582031 C 85.632812 2.734375 85.679688 2.863281 85.773438 2.96875 C 85.878906 3.074219 86.011719 3.128906 86.175781 3.128906 L 86.390625 3.128906 C 86.734375 3.128906 87.007812 3.222656 87.210938 3.414062 C 87.410156 3.613281 87.511719 3.925781 87.511719 4.347656 L 87.511719 4.847656 C 87.511719 5.269531 87.394531 5.585938 87.164062 5.796875 C 86.9375 6.003906 86.605469 6.109375 86.175781 6.109375 L 85.113281 6.109375 L 85.113281 5.535156 L 86.246094 5.535156 C 86.4375 5.535156 86.585938 5.484375 86.691406 5.378906 C 86.808594 5.265625 86.863281 5.136719 86.863281 4.992188 L 86.863281 4.203125 C 86.863281 4.058594 86.828125 3.945312 86.75 3.859375 C 86.683594 3.761719 86.566406 3.714844 86.40625 3.714844 L 86.175781 3.714844 C 85.824219 3.714844 85.535156 3.609375 85.316406 3.398438 C 85.09375 3.1875 84.984375 2.867188 84.984375 2.4375 L 84.984375 2.164062 C 84.984375 1.734375 85.101562 1.414062 85.328125 1.203125 C 85.558594 0.996094 85.890625 0.890625 86.320312 0.890625 L 87.394531 0.890625 L 87.394531 1.464844 L 86.246094 1.464844 C 86.066406 1.464844 85.917969 1.515625 85.804688 1.621094 M 95.183594 1.160156 C 95.40625 1.34375 95.515625 1.640625 95.515625 2.050781 L 95.515625 2.769531 C 95.515625 3.066406 95.457031 3.300781 95.34375 3.472656 C 95.21875 3.632812 95.050781 3.75 94.839844 3.816406 L 95.871094 6.109375 L 95.171875 6.109375 L 94.210938 3.945312 L 93.476562 3.945312 L 93.476562 6.109375 L 92.816406 6.109375 L 92.816406 0.890625 L 94.222656 0.890625 C 94.632812 0.890625 94.953125 0.980469 95.183594 1.160156 M 94.726562 1.578125 C 94.640625 1.492188 94.5 1.449219 94.308594 1.449219 L 93.476562 1.449219 L 93.476562 3.386719 L 94.308594 3.386719 C 94.5 3.386719 94.640625 3.34375 94.726562 3.257812 C 94.8125 3.171875 94.855469 3.03125 94.855469 2.839844 L 94.855469 1.980469 C 94.855469 1.796875 94.8125 1.664062 94.726562 1.578125 M 54.347656 0.71875 L 54.246094 1.863281 L 55.308594 1.449219 L 55.507812 2.035156 L 54.402344 2.265625 L 55.191406 3.183594 L 54.660156 3.570312 L 54.003906 2.511719 L 53.328125 3.570312 L 52.796875 3.183594 L 53.601562 2.265625 L 52.511719 2.035156 L 52.726562 1.433594 L 53.773438 1.863281 L 53.671875 0.71875 L 54.347656 0.71875 M 50.316406 0.71875 L 50.214844 1.863281 L 51.277344 1.449219 L 51.476562 2.035156 L 50.371094 2.265625 L 51.160156 3.183594 L 50.632812 3.570312 L 49.972656 2.511719 L 49.296875 3.570312 L 48.765625 3.183594 L 49.570312 2.265625 L 48.480469 2.035156 L 48.695312 1.433594 L 49.742188 1.863281 L 49.640625 0.71875 L 50.316406 0.71875 M 56.828125 3.183594 L 57.632812 2.265625 L 56.539062 2.035156 L 56.757812 1.433594 L 57.804688 1.863281 L 57.703125 0.71875 L 58.378906 0.71875 L 58.277344 1.863281 L 59.339844 1.449219 L 59.539062 2.035156 L 58.433594 2.265625 L 59.222656 3.183594 L 58.691406 3.570312 L 58.03125 2.511719 L 57.359375 3.570312 L 56.828125 3.183594 M 66.164062 0.890625 C 66.578125 0.890625 66.898438 0.980469 67.128906 1.160156 C 67.347656 1.34375 67.457031 1.640625 67.457031 2.050781 L 67.457031 2.898438 C 67.457031 3.308594 67.347656 3.609375 67.128906 3.800781 C 66.90625 3.992188 66.589844 4.089844 66.179688 4.089844 L 65.40625 4.089844 L 65.40625 6.109375 L 64.761719 6.109375 L 64.761719 0.890625 L 66.164062 0.890625 M 66.667969 1.578125 C 66.582031 1.492188 66.441406 1.449219 66.253906 1.449219 L 65.40625 1.449219 L 65.40625 3.515625 L 66.253906 3.515625 C 66.441406 3.515625 66.582031 3.472656 66.667969 3.386719 C 66.753906 3.300781 66.796875 3.164062 66.796875 2.984375 L 66.796875 1.980469 C 66.796875 1.796875 66.753906 1.664062 66.667969 1.578125 M 69.136719 0.890625 L 71.113281 0.890625 L 71.113281 1.433594 L 70.453125 1.433594 L 70.453125 5.566406 L 71.113281 5.566406 L 71.113281 6.109375 L 69.136719 6.109375 L 69.136719 5.566406 L 69.808594 5.566406 L 69.808594 1.433594 L 69.136719 1.433594 L 69.136719 0.890625 M 30.160156 0.71875 L 30.0625 1.863281 L 31.121094 1.449219 L 31.324219 2.035156 L 30.21875 2.265625 L 31.007812 3.183594 L 30.476562 3.570312 L 29.816406 2.511719 L 29.144531 3.570312 L 28.613281 3.183594 L 29.414062 2.265625 L 28.324219 2.035156 L 28.539062 1.433594 L 29.589844 1.863281 L 29.488281 0.71875 L 30.160156 0.71875 M 26.445312 3.570312 L 25.785156 2.511719 L 25.113281 3.570312 L 24.582031 3.183594 L 25.386719 2.265625 L 24.296875 2.035156 L 24.511719 1.433594 L 25.558594 1.863281 L 25.457031 0.71875 L 26.132812 0.71875 L 26.03125 1.863281 L 27.09375 1.449219 L 27.292969 2.035156 L 26.1875 2.265625 L 26.976562 3.183594 L 26.445312 3.570312 M 34.191406 0.71875 L 34.09375 1.863281 L 35.152344 1.449219 L 35.355469 2.035156 L 34.25 2.265625 L 35.039062 3.183594 L 34.507812 3.570312 L 33.847656 2.511719 L 33.175781 3.570312 L 32.644531 3.183594 L 33.445312 2.265625 L 32.355469 2.035156 L 32.570312 1.433594 L 33.617188 1.863281 L 33.519531 0.71875 L 34.191406 0.71875 M 36.675781 3.183594 L 37.476562 2.265625 L 36.386719 2.035156 L 36.601562 1.433594 L 37.648438 1.863281 L 37.550781 0.71875 L 38.222656 0.71875 L 38.121094 1.863281 L 39.183594 1.449219 L 39.386719 2.035156 L 38.28125 2.265625 L 39.070312 3.183594 L 38.539062 3.570312 L 37.878906 2.511719 L 37.203125 3.570312 L 36.675781 3.183594 M 42.253906 0.71875 L 42.152344 1.863281 L 43.214844 1.449219 L 43.414062 2.035156 L 42.3125 2.265625 L 43.101562 3.183594 L 42.570312 3.570312 L 41.910156 2.511719 L 41.234375 3.570312 L 40.703125 3.183594 L 41.507812 2.265625 L 40.417969 2.035156 L 40.632812 1.433594 L 41.679688 1.863281 L 41.578125 0.71875 L 42.253906 0.71875 M 46.285156 0.71875 L 46.183594 1.863281 L 47.246094 1.449219 L 47.445312 2.035156 L 46.34375 2.265625 L 47.132812 3.183594 L 46.601562 3.570312 L 45.941406 2.511719 L 45.265625 3.570312 L 44.734375 3.183594 L 45.539062 2.265625 L 44.449219 2.035156 L 44.664062 1.433594 L 45.710938 1.863281 L 45.609375 0.71875 L 46.285156 0.71875 M 4.429688 3.183594 L 5.230469 2.265625 L 4.140625 2.035156 L 4.355469 1.433594 L 5.402344 1.863281 L 5.304688 0.71875 L 5.976562 0.71875 L 5.878906 1.863281 L 6.9375 1.449219 L 7.140625 2.035156 L 6.035156 2.265625 L 6.824219 3.183594 C 6.652344 3.316406 6.476562 3.449219 6.292969 3.570312 L 5.632812 2.511719 L 4.960938 3.570312 L 4.429688 3.183594 M 8.386719 1.433594 L 9.433594 1.863281 L 9.335938 0.71875 L 10.007812 0.71875 L 9.90625 1.863281 L 10.96875 1.449219 L 11.171875 2.035156 L 10.066406 2.265625 L 10.855469 3.183594 L 10.324219 3.570312 L 9.664062 2.511719 L 8.988281 3.570312 L 8.460938 3.183594 L 9.261719 2.265625 L 8.171875 2.035156 L 8.386719 1.433594 M 14.039062 0.71875 L 13.9375 1.863281 L 15 1.449219 L 15.199219 2.035156 L 14.097656 2.265625 L 14.886719 3.183594 L 14.355469 3.570312 L 13.695312 2.511719 L 13.019531 3.570312 L 12.488281 3.183594 L 13.292969 2.265625 L 12.203125 2.035156 L 12.417969 1.433594 L 13.464844 1.863281 L 13.363281 0.71875 L 14.039062 0.71875 M 17.324219 2.265625 L 16.234375 2.035156 L 16.449219 1.433594 L 17.496094 1.863281 L 17.394531 0.71875 L 18.070312 0.71875 L 17.96875 1.863281 L 19.03125 1.449219 L 19.230469 2.035156 L 18.128906 2.265625 L 18.914062 3.183594 L 18.386719 3.570312 L 17.726562 2.511719 L 17.050781 3.570312 L 16.519531 3.183594 L 17.324219 2.265625 M 22.101562 0.71875 L 22 1.863281 L 23.0625 1.449219 L 23.261719 2.035156 L 22.15625 2.265625 L 22.945312 3.183594 L 22.414062 3.570312 L 21.757812 2.511719 L 21.082031 3.570312 L 20.550781 3.183594 L 21.355469 2.265625 L 20.265625 2.035156 L 20.480469 1.433594 L 21.527344 1.863281 L 21.425781 0.71875 L 22.101562 0.71875 "/>
</g>
</svg>
