<?xml version="1.0" encoding="UTF-8"?>
<svg xmlns="http://www.w3.org/2000/svg" xmlns:xlink="http://www.w3.org/1999/xlink" width="128pt" height="8pt" viewBox="0 0 128 8" version="1.1">
<g id="surface1">
<path style=" stroke:none;fill-rule:nonzero;fill:rgb(100%,100%,100%);fill-opacity:1;" d="M 111.6875 0 L 112.441406 0 L 112.820312 0.441406 L 113.113281 1 L 113.328125 1.738281 L 113.394531 2.671875 L 113.394531 5.328125 L 113.328125 6.277344 L 113.113281 7 L 112.820312 7.574219 L 112.441406 8 L 111.6875 8 L 112.164062 7.394531 L 112.476562 6.835938 L 112.621094 6.195312 L 112.671875 5.34375 L 112.671875 2.65625 L 112.621094 1.804688 L 112.476562 1.164062 L 112.164062 0.605469 L 111.6875 0 M 120.6875 1.015625 L 121.703125 6.230469 L 122.804688 1.015625 L 123.539062 1.015625 L 122.195312 6.984375 L 121.195312 6.984375 L 119.933594 1.015625 L 120.6875 1.015625 M 124.949219 1.015625 L 127.722656 1.015625 L 127.722656 1.835938 L 126.230469 6.984375 L 125.460938 6.984375 L 127.015625 1.65625 L 124.949219 1.65625 L 124.949219 1.015625 M 2.378906 0.820312 L 2.261719 2.132812 L 3.476562 1.65625 L 3.703125 2.328125 L 2.441406 2.589844 L 3.34375 3.640625 L 2.738281 4.082031 L 1.984375 2.867188 L 1.214844 4.082031 L 0.605469 3.640625 L 1.523438 2.589844 L 0.277344 2.328125 L 0.523438 1.640625 L 1.722656 2.132812 L 1.605469 0.820312 L 2.378906 0.820312 M 84.984375 1.015625 C 85.453125 1.015625 85.820312 1.121094 86.082031 1.328125 C 86.332031 1.535156 86.460938 1.875 86.460938 2.34375 L 86.460938 3.3125 C 86.460938 3.78125 86.332031 4.125 86.082031 4.34375 C 85.832031 4.5625 85.46875 4.671875 85 4.671875 L 84.113281 4.671875 L 84.113281 6.984375 L 83.378906 6.984375 L 83.378906 1.015625 L 84.984375 1.015625 M 85.558594 1.804688 C 85.460938 1.703125 85.300781 1.65625 85.082031 1.65625 L 84.113281 1.65625 L 84.113281 4.015625 L 85.082031 4.015625 C 85.300781 4.015625 85.460938 3.96875 85.558594 3.867188 C 85.65625 3.769531 85.703125 3.617188 85.703125 3.410156 L 85.703125 2.261719 C 85.703125 2.054688 85.65625 1.902344 85.558594 1.804688 M 88.132812 4 L 90.902344 4 L 90.902344 4.640625 L 88.132812 4.640625 L 88.132812 4 M 94.296875 1.015625 C 94.785156 1.015625 95.164062 1.136719 95.425781 1.378906 C 95.699219 1.617188 95.835938 1.976562 95.835938 2.460938 L 95.835938 5.539062 C 95.835938 6.023438 95.699219 6.382812 95.425781 6.621094 C 95.164062 6.863281 94.785156 6.984375 94.296875 6.984375 L 93.949219 6.984375 C 93.460938 6.984375 93.078125 6.863281 92.804688 6.621094 C 92.539062 6.382812 92.410156 6.023438 92.410156 5.539062 L 92.410156 2.460938 C 92.410156 1.976562 92.539062 1.617188 92.804688 1.378906 C 93.078125 1.136719 93.460938 1.015625 93.949219 1.015625 L 94.296875 1.015625 M 93.867188 1.671875 C 93.648438 1.671875 93.476562 1.730469 93.34375 1.851562 C 93.222656 1.984375 93.164062 2.136719 93.164062 2.3125 L 93.164062 5.6875 C 93.164062 5.863281 93.222656 6.015625 93.34375 6.148438 C 93.476562 6.269531 93.648438 6.328125 93.867188 6.328125 L 94.378906 6.328125 C 94.59375 6.328125 94.769531 6.269531 94.902344 6.148438 C 95.023438 6.015625 95.082031 5.863281 95.082031 5.6875 L 95.082031 2.3125 C 95.082031 2.136719 95.023438 1.984375 94.902344 1.851562 C 94.769531 1.730469 94.59375 1.671875 94.378906 1.671875 L 93.867188 1.671875 M 103.066406 0.441406 L 103.441406 0 L 104.179688 0 L 103.722656 0.605469 L 103.410156 1.164062 L 103.246094 1.804688 L 103.214844 2.65625 L 103.214844 5.34375 L 103.246094 6.195312 L 103.410156 6.835938 L 103.722656 7.394531 L 104.179688 8 L 103.441406 8 L 103.066406 7.574219 L 102.769531 7 L 102.558594 6.277344 L 102.476562 5.328125 L 102.476562 2.671875 L 102.558594 1.738281 L 102.769531 1 L 103.066406 0.441406 M 98.214844 1.851562 C 98.082031 1.984375 98.015625 2.136719 98.015625 2.3125 L 98.015625 2.949219 C 98.015625 3.125 98.070312 3.273438 98.179688 3.394531 C 98.300781 3.511719 98.453125 3.574219 98.640625 3.574219 L 98.886719 3.574219 C 99.277344 3.574219 99.589844 3.683594 99.820312 3.902344 C 100.050781 4.132812 100.164062 4.488281 100.164062 4.96875 L 100.164062 5.539062 C 100.164062 6.023438 100.03125 6.382812 99.769531 6.621094 C 99.507812 6.863281 99.132812 6.984375 98.640625 6.984375 L 97.425781 6.984375 L 97.425781 6.328125 L 98.722656 6.328125 C 98.941406 6.328125 99.109375 6.269531 99.230469 6.148438 C 99.359375 6.015625 99.425781 5.867188 99.425781 5.703125 L 99.425781 4.804688 C 99.425781 4.640625 99.382812 4.507812 99.296875 4.410156 C 99.21875 4.300781 99.085938 4.246094 98.902344 4.246094 L 98.640625 4.246094 C 98.234375 4.246094 97.90625 4.125 97.65625 3.886719 C 97.40625 3.644531 97.277344 3.277344 97.277344 2.785156 L 97.277344 2.476562 C 97.277344 1.984375 97.410156 1.617188 97.671875 1.378906 C 97.933594 1.136719 98.3125 1.015625 98.804688 1.015625 L 100.03125 1.015625 L 100.03125 1.671875 L 98.722656 1.671875 C 98.511719 1.671875 98.34375 1.730469 98.214844 1.851562 M 108.933594 1.328125 C 109.1875 1.535156 109.3125 1.875 109.3125 2.34375 L 109.3125 3.164062 C 109.3125 3.503906 109.246094 3.769531 109.113281 3.96875 C 108.972656 4.152344 108.78125 4.285156 108.539062 4.359375 L 109.722656 6.984375 L 108.917969 6.984375 L 107.820312 4.507812 L 106.984375 4.507812 L 106.984375 6.984375 L 106.230469 6.984375 L 106.230469 1.015625 L 107.835938 1.015625 C 108.304688 1.015625 108.671875 1.121094 108.933594 1.328125 M 108.410156 1.804688 C 108.3125 1.703125 108.152344 1.65625 107.933594 1.65625 L 106.984375 1.65625 L 106.984375 3.867188 L 107.933594 3.867188 C 108.152344 3.867188 108.3125 3.820312 108.410156 3.722656 C 108.507812 3.621094 108.558594 3.464844 108.558594 3.246094 L 108.558594 2.261719 C 108.558594 2.054688 108.507812 1.902344 108.410156 1.804688 M 62.261719 0.820312 L 62.148438 2.132812 L 63.359375 1.65625 L 63.589844 2.328125 L 62.328125 2.589844 L 63.230469 3.640625 L 62.621094 4.082031 L 61.867188 2.867188 L 61.097656 4.082031 L 60.492188 3.640625 L 61.410156 2.589844 L 60.164062 2.328125 L 60.410156 1.640625 L 61.605469 2.132812 L 61.492188 0.820312 L 62.261719 0.820312 M 57.65625 0.820312 L 57.539062 2.132812 L 58.753906 1.65625 L 58.984375 2.328125 L 57.722656 2.589844 L 58.621094 3.640625 L 58.015625 4.082031 L 57.261719 2.867188 L 56.492188 4.082031 L 55.886719 3.640625 L 56.804688 2.589844 L 55.558594 2.328125 L 55.804688 1.640625 L 57 2.132812 L 56.886719 0.820312 L 57.65625 0.820312 M 65.097656 3.640625 L 66.015625 2.589844 L 64.769531 2.328125 L 65.015625 1.640625 L 66.214844 2.132812 L 66.097656 0.820312 L 66.867188 0.820312 L 66.753906 2.132812 L 67.96875 1.65625 L 68.195312 2.328125 L 66.933594 2.589844 L 67.835938 3.640625 L 67.230469 4.082031 L 66.476562 2.867188 L 65.703125 4.082031 L 65.097656 3.640625 M 75.769531 1.015625 C 76.242188 1.015625 76.605469 1.121094 76.867188 1.328125 C 77.121094 1.535156 77.246094 1.875 77.246094 2.34375 L 77.246094 3.3125 C 77.246094 3.78125 77.121094 4.125 76.867188 4.34375 C 76.617188 4.5625 76.257812 4.671875 75.785156 4.671875 L 74.902344 4.671875 L 74.902344 6.984375 L 74.164062 6.984375 L 74.164062 1.015625 L 75.769531 1.015625 M 76.34375 1.804688 C 76.246094 1.703125 76.085938 1.65625 75.867188 1.65625 L 74.902344 1.65625 L 74.902344 4.015625 L 75.867188 4.015625 C 76.085938 4.015625 76.246094 3.96875 76.34375 3.867188 C 76.441406 3.769531 76.492188 3.617188 76.492188 3.410156 L 76.492188 2.261719 C 76.492188 2.054688 76.441406 1.902344 76.34375 1.804688 M 79.164062 1.015625 L 81.425781 1.015625 L 81.425781 1.640625 L 80.671875 1.640625 L 80.671875 6.359375 L 81.425781 6.359375 L 81.425781 6.984375 L 79.164062 6.984375 L 79.164062 6.359375 L 79.933594 6.359375 L 79.933594 1.640625 L 79.164062 1.640625 L 79.164062 1.015625 M 34.621094 0.820312 L 34.507812 2.132812 L 35.722656 1.65625 L 35.949219 2.328125 L 34.6875 2.589844 L 35.589844 3.640625 L 34.984375 4.082031 L 34.230469 2.867188 L 33.460938 4.082031 L 32.851562 3.640625 L 33.769531 2.589844 L 32.523438 2.328125 L 32.769531 1.640625 L 33.96875 2.132812 L 33.851562 0.820312 L 34.621094 0.820312 M 30.378906 4.082031 L 29.621094 2.867188 L 28.851562 4.082031 L 28.246094 3.640625 L 29.164062 2.589844 L 27.917969 2.328125 L 28.164062 1.640625 L 29.359375 2.132812 L 29.246094 0.820312 L 30.015625 0.820312 L 29.902344 2.132812 L 31.113281 1.65625 L 31.34375 2.328125 L 30.082031 2.589844 L 30.984375 3.640625 L 30.378906 4.082031 M 39.230469 0.820312 L 39.113281 2.132812 L 40.328125 1.65625 L 40.558594 2.328125 L 39.296875 2.589844 L 40.195312 3.640625 L 39.589844 4.082031 L 38.835938 2.867188 L 38.066406 4.082031 L 37.460938 3.640625 L 38.378906 2.589844 L 37.132812 2.328125 L 37.378906 1.640625 L 38.574219 2.132812 L 38.460938 0.820312 L 39.230469 0.820312 M 42.066406 3.640625 L 42.984375 2.589844 L 41.738281 2.328125 L 41.984375 1.640625 L 43.179688 2.132812 L 43.066406 0.820312 L 43.835938 0.820312 L 43.722656 2.132812 L 44.933594 1.65625 L 45.164062 2.328125 L 43.902344 2.589844 L 44.804688 3.640625 L 44.195312 4.082031 L 43.441406 2.867188 L 42.671875 4.082031 L 42.066406 3.640625 M 48.441406 0.820312 L 48.328125 2.132812 L 49.539062 1.65625 L 49.769531 2.328125 L 48.507812 2.589844 L 49.410156 3.640625 L 48.804688 4.082031 L 48.050781 2.867188 L 47.277344 4.082031 L 46.671875 3.640625 L 47.589844 2.589844 L 46.34375 2.328125 L 46.589844 1.640625 L 47.785156 2.132812 L 47.671875 0.820312 L 48.441406 0.820312 M 53.050781 0.820312 L 52.933594 2.132812 L 54.148438 1.65625 L 54.378906 2.328125 L 53.113281 2.589844 L 54.015625 3.640625 L 53.410156 4.082031 L 52.65625 2.867188 L 51.886719 4.082031 L 51.277344 3.640625 L 52.195312 2.589844 L 50.949219 2.328125 L 51.195312 1.640625 L 52.394531 2.132812 L 52.277344 0.820312 L 53.050781 0.820312 M 5.214844 3.640625 L 6.132812 2.589844 L 4.886719 2.328125 L 5.132812 1.640625 L 6.328125 2.132812 L 6.214844 0.820312 L 6.984375 0.820312 L 6.867188 2.132812 L 8.082031 1.65625 L 8.3125 2.328125 L 7.050781 2.589844 L 7.949219 3.640625 C 7.753906 3.792969 7.550781 3.941406 7.34375 4.082031 L 6.589844 2.867188 L 5.820312 4.082031 L 5.214844 3.640625 M 9.738281 1.640625 L 10.933594 2.132812 L 10.820312 0.820312 L 11.589844 0.820312 L 11.476562 2.132812 L 12.6875 1.65625 L 12.917969 2.328125 L 11.65625 2.589844 L 12.558594 3.640625 L 11.949219 4.082031 L 11.195312 2.867188 L 10.425781 4.082031 L 9.820312 3.640625 L 10.738281 2.589844 L 9.492188 2.328125 L 9.738281 1.640625 M 16.195312 0.820312 L 16.082031 2.132812 L 17.296875 1.65625 L 17.523438 2.328125 L 16.261719 2.589844 L 17.164062 3.640625 L 16.558594 4.082031 L 15.804688 2.867188 L 15.03125 4.082031 L 14.425781 3.640625 L 15.34375 2.589844 L 14.097656 2.328125 L 14.34375 1.640625 L 15.539062 2.132812 L 15.425781 0.820312 L 16.195312 0.820312 M 19.949219 2.589844 L 18.703125 2.328125 L 18.949219 1.640625 L 20.148438 2.132812 L 20.03125 0.820312 L 20.804688 0.820312 L 20.6875 2.132812 L 21.902344 1.65625 L 22.132812 2.328125 L 20.867188 2.589844 L 21.769531 3.640625 L 21.164062 4.082031 L 20.410156 2.867188 L 19.640625 4.082031 L 19.03125 3.640625 L 19.949219 2.589844 M 25.410156 0.820312 L 25.296875 2.132812 L 26.507812 1.65625 L 26.738281 2.328125 L 25.476562 2.589844 L 26.378906 3.640625 L 25.769531 4.082031 L 25.015625 2.867188 L 24.246094 4.082031 L 23.640625 3.640625 L 24.558594 2.589844 L 23.3125 2.328125 L 23.558594 1.640625 L 24.753906 2.132812 L 24.640625 0.820312 L 25.410156 0.820312 "/>
</g>
</svg>
