<?xml version="1.0" encoding="UTF-8"?>
<svg xmlns="http://www.w3.org/2000/svg" xmlns:xlink="http://www.w3.org/1999/xlink" width="131pt" height="9pt" viewBox="0 0 131 9" version="1.1">
<g id="surface1">
<path style=" stroke:none;fill-rule:nonzero;fill:rgb(100%,100%,100%);fill-opacity:1;" d="M 3.035156 0.0234375 L 2.867188 1.929688 L 4.621094 1.238281 L 4.953125 2.214844 L 3.128906 2.59375 L 4.429688 4.117188 L 3.554688 4.761719 L 2.464844 3 L 1.351562 4.761719 L 0.472656 4.117188 L 1.800781 2.59375 L 0 2.214844 L 0.355469 1.214844 L 2.085938 1.929688 L 1.917969 0.0234375 L 3.035156 0.0234375 M 122.445312 0.308594 C 123.125 0.308594 123.652344 0.460938 124.03125 0.761719 C 124.394531 1.0625 124.578125 1.554688 124.578125 2.238281 L 124.578125 3.644531 C 124.578125 4.324219 124.394531 4.824219 124.03125 5.144531 C 123.667969 5.460938 123.148438 5.621094 122.46875 5.621094 L 121.1875 5.621094 L 121.1875 8.976562 L 120.121094 8.976562 L 120.121094 0.308594 L 122.445312 0.308594 M 123.273438 1.453125 C 123.132812 1.308594 122.902344 1.238281 122.585938 1.238281 L 121.1875 1.238281 L 121.1875 4.667969 L 122.585938 4.667969 C 122.902344 4.667969 123.132812 4.59375 123.273438 4.453125 C 123.417969 4.308594 123.488281 4.085938 123.488281 3.785156 L 123.488281 2.117188 C 123.488281 1.816406 123.417969 1.59375 123.273438 1.453125 M 126.996094 4.644531 L 131 4.644531 L 131 5.570312 L 126.996094 5.570312 L 126.996094 4.644531 M 89.601562 0.0234375 L 89.433594 1.929688 L 91.1875 1.238281 L 91.519531 2.214844 L 89.695312 2.59375 L 91 4.117188 L 90.121094 4.761719 L 89.03125 3 L 87.917969 4.761719 L 87.042969 4.117188 L 88.367188 2.59375 L 86.566406 2.214844 L 86.921875 1.214844 L 88.652344 1.929688 L 88.488281 0.0234375 L 89.601562 0.0234375 M 82.941406 0.0234375 L 82.777344 1.929688 L 84.527344 1.238281 L 84.859375 2.214844 L 83.035156 2.59375 L 84.339844 4.117188 L 83.460938 4.761719 L 82.371094 3 L 81.257812 4.761719 L 80.382812 4.117188 L 81.710938 2.59375 L 79.90625 2.214844 L 80.261719 1.214844 L 81.992188 1.929688 L 81.828125 0.0234375 L 82.941406 0.0234375 M 93.699219 4.117188 L 95.027344 2.59375 L 93.226562 2.214844 L 93.582031 1.214844 L 95.3125 1.929688 L 95.144531 0.0234375 L 96.257812 0.0234375 L 96.09375 1.929688 L 97.847656 1.238281 L 98.179688 2.214844 L 96.355469 2.59375 L 97.65625 4.117188 L 96.78125 4.761719 L 95.691406 3 L 94.578125 4.761719 L 93.699219 4.117188 M 109.128906 0.308594 C 109.804688 0.308594 110.335938 0.460938 110.714844 0.761719 C 111.078125 1.0625 111.261719 1.554688 111.261719 2.238281 L 111.261719 3.644531 C 111.261719 4.324219 111.078125 4.824219 110.714844 5.144531 C 110.351562 5.460938 109.832031 5.621094 109.152344 5.621094 L 107.871094 5.621094 L 107.871094 8.976562 L 106.804688 8.976562 L 106.804688 0.308594 L 109.128906 0.308594 M 109.957031 1.453125 C 109.8125 1.308594 109.585938 1.238281 109.269531 1.238281 L 107.871094 1.238281 L 107.871094 4.667969 L 109.269531 4.667969 C 109.585938 4.667969 109.8125 4.59375 109.957031 4.453125 C 110.097656 4.308594 110.167969 4.085938 110.167969 3.785156 L 110.167969 2.117188 C 110.167969 1.816406 110.097656 1.59375 109.957031 1.453125 M 114.03125 0.308594 L 117.304688 0.308594 L 117.304688 1.214844 L 116.210938 1.214844 L 116.210938 8.074219 L 117.304688 8.074219 L 117.304688 8.976562 L 114.03125 8.976562 L 114.03125 8.074219 L 115.144531 8.074219 L 115.144531 1.214844 L 114.03125 1.214844 L 114.03125 0.308594 M 49.644531 0.0234375 L 49.480469 1.929688 L 51.234375 1.238281 L 51.566406 2.214844 L 49.742188 2.59375 L 51.042969 4.117188 L 50.167969 4.761719 L 49.078125 3 L 47.964844 4.761719 L 47.085938 4.117188 L 48.414062 2.59375 L 46.613281 2.214844 L 46.96875 1.214844 L 48.699219 1.929688 L 48.53125 0.0234375 L 49.644531 0.0234375 M 43.507812 4.761719 L 42.417969 3 L 41.304688 4.761719 L 40.429688 4.117188 L 41.753906 2.59375 L 39.953125 2.214844 L 40.308594 1.214844 L 42.039062 1.929688 L 41.875 0.0234375 L 42.988281 0.0234375 L 42.820312 1.929688 L 44.574219 1.238281 L 44.90625 2.214844 L 43.082031 2.59375 L 44.386719 4.117188 L 43.507812 4.761719 M 56.304688 0.0234375 L 56.140625 1.929688 L 57.894531 1.238281 L 58.226562 2.214844 L 56.398438 2.59375 L 57.703125 4.117188 L 56.828125 4.761719 L 55.738281 3 L 54.621094 4.761719 L 53.746094 4.117188 L 55.074219 2.59375 L 53.273438 2.214844 L 53.628906 1.214844 L 55.359375 1.929688 L 55.191406 0.0234375 L 56.304688 0.0234375 M 60.40625 4.117188 L 61.730469 2.59375 L 59.929688 2.214844 L 60.285156 1.214844 L 62.015625 1.929688 L 61.851562 0.0234375 L 62.964844 0.0234375 L 62.796875 1.929688 L 64.550781 1.238281 L 64.882812 2.214844 L 63.058594 2.59375 L 64.363281 4.117188 L 63.484375 4.761719 L 62.394531 3 L 61.28125 4.761719 L 60.40625 4.117188 M 69.625 0.0234375 L 69.457031 1.929688 L 71.210938 1.238281 L 71.542969 2.214844 L 69.71875 2.59375 L 71.023438 4.117188 L 70.144531 4.761719 L 69.054688 3 L 67.941406 4.761719 L 67.0625 4.117188 L 68.390625 2.59375 L 66.589844 2.214844 L 66.945312 1.214844 L 68.675781 1.929688 L 68.507812 0.0234375 L 69.625 0.0234375 M 76.28125 0.0234375 L 76.117188 1.929688 L 77.871094 1.238281 L 78.203125 2.214844 L 76.378906 2.59375 L 77.679688 4.117188 L 76.804688 4.761719 L 75.714844 3 L 74.601562 4.761719 L 73.722656 4.117188 L 75.050781 2.59375 L 73.25 2.214844 L 73.605469 1.214844 L 75.335938 1.929688 L 75.167969 0.0234375 L 76.28125 0.0234375 M 7.132812 4.117188 L 8.460938 2.59375 L 6.660156 2.214844 L 7.015625 1.214844 L 8.746094 1.929688 L 8.578125 0.0234375 L 9.691406 0.0234375 L 9.527344 1.929688 L 11.28125 1.238281 L 11.613281 2.214844 L 9.785156 2.59375 L 11.089844 4.117188 C 10.804688 4.339844 10.515625 4.554688 10.214844 4.761719 L 9.125 3 L 8.011719 4.761719 L 7.132812 4.117188 M 13.671875 1.214844 L 15.402344 1.929688 L 15.238281 0.0234375 L 16.351562 0.0234375 L 16.183594 1.929688 L 17.9375 1.238281 L 18.269531 2.214844 L 16.445312 2.59375 L 17.75 4.117188 L 16.871094 4.761719 L 15.78125 3 L 14.667969 4.761719 L 13.792969 4.117188 L 15.117188 2.59375 L 13.316406 2.214844 L 13.671875 1.214844 M 23.011719 0.0234375 L 22.84375 1.929688 L 24.597656 1.238281 L 24.929688 2.214844 L 23.105469 2.59375 L 24.410156 4.117188 L 23.53125 4.761719 L 22.441406 3 L 21.328125 4.761719 L 20.449219 4.117188 L 21.777344 2.59375 L 19.976562 2.214844 L 20.332031 1.214844 L 22.0625 1.929688 L 21.898438 0.0234375 L 23.011719 0.0234375 M 28.4375 2.59375 L 26.636719 2.214844 L 26.992188 1.214844 L 28.722656 1.929688 L 28.554688 0.0234375 L 29.667969 0.0234375 L 29.503906 1.929688 L 31.257812 1.238281 L 31.589844 2.214844 L 29.765625 2.59375 L 31.066406 4.117188 L 30.191406 4.761719 L 29.101562 3 L 27.988281 4.761719 L 27.109375 4.117188 L 28.4375 2.59375 M 36.328125 0.0234375 L 36.164062 1.929688 L 37.917969 1.238281 L 38.246094 2.214844 L 36.421875 2.59375 L 37.726562 4.117188 L 36.851562 4.761719 L 35.757812 3 L 34.644531 4.761719 L 33.769531 4.117188 L 35.097656 2.59375 L 33.296875 2.214844 L 33.652344 1.214844 L 35.378906 1.929688 L 35.214844 0.0234375 L 36.328125 0.0234375 "/>
</g>
</svg>
