<?xml version="1.0" encoding="UTF-8"?>
<svg xmlns="http://www.w3.org/2000/svg" xmlns:xlink="http://www.w3.org/1999/xlink" width="126pt" height="24pt" viewBox="0 0 126 24" version="1.1">
<g id="surface1">
<path style=" stroke:none;fill-rule:nonzero;fill:rgb(100%,100%,100%);fill-opacity:1;" d="M 15.332031 0.0195312 L 14.492188 9.652344 L 23.355469 6.160156 L 25.03125 11.097656 L 15.808594 13.023438 L 22.398438 20.730469 L 17.964844 23.980469 L 12.457031 15.070312 L 6.828125 23.980469 L 2.394531 20.730469 L 9.101562 13.023438 L 0 11.097656 L 1.796875 6.039062 L 10.539062 9.652344 L 9.703125 0.0195312 L 15.332031 0.0195312 M 36.050781 20.730469 L 42.757812 13.023438 L 33.65625 11.097656 L 35.453125 6.039062 L 44.195312 9.652344 L 43.355469 0.0195312 L 48.988281 0.0195312 L 48.148438 9.652344 L 57.011719 6.160156 L 58.6875 11.097656 L 49.464844 13.023438 L 56.054688 20.730469 C 54.617188 21.855469 53.140625 22.9375 51.621094 23.980469 L 46.113281 15.070312 L 40.484375 23.980469 L 36.050781 20.730469 M 69.109375 6.039062 L 77.851562 9.652344 L 77.011719 0.0195312 L 82.644531 0.0195312 L 81.804688 9.652344 L 90.667969 6.160156 L 92.34375 11.097656 L 83.121094 13.023438 L 89.710938 20.730469 L 85.277344 23.980469 L 79.769531 15.070312 L 74.140625 23.980469 L 69.707031 20.730469 L 76.414062 13.023438 L 67.3125 11.097656 L 69.109375 6.039062 M 116.296875 0.0195312 L 115.460938 9.652344 L 124.324219 6.160156 L 126 11.097656 L 116.777344 13.023438 L 123.363281 20.730469 L 118.933594 23.980469 L 113.425781 15.070312 L 107.792969 23.980469 L 103.363281 20.730469 L 110.070312 13.023438 L 100.96875 11.097656 L 102.765625 6.039062 L 111.507812 9.652344 L 110.667969 0.0195312 L 116.296875 0.0195312 "/>
</g>
</svg>
