<?xml version="1.0" encoding="UTF-8"?>
<svg xmlns="http://www.w3.org/2000/svg" xmlns:xlink="http://www.w3.org/1999/xlink" width="128pt" height="52pt" viewBox="0 0 128 52" version="1.1">
<g id="surface1">
<path style=" stroke:none;fill-rule:nonzero;fill:rgb(100%,100%,100%);fill-opacity:1;" d="M 33.4375 0.0078125 L 31.609375 20.90625 L 50.9375 13.332031 L 54.597656 24.039062 L 34.480469 28.21875 L 48.847656 44.9375 L 39.183594 51.992188 L 27.167969 32.660156 L 14.890625 51.992188 L 5.222656 44.9375 L 19.851562 28.21875 L 0 24.039062 L 3.917969 13.070312 L 22.988281 20.90625 L 21.160156 0.0078125 L 33.4375 0.0078125 M 78.628906 44.9375 L 93.257812 28.21875 L 73.402344 24.039062 L 77.324219 13.070312 L 96.390625 20.90625 L 94.5625 0.0078125 L 106.839844 0.0078125 L 105.011719 20.90625 L 124.34375 13.332031 L 128 24.039062 L 107.886719 28.21875 L 122.253906 44.9375 C 119.117188 47.375 115.898438 49.726562 112.585938 51.992188 L 100.570312 32.660156 L 88.292969 51.992188 L 78.628906 44.9375 "/>
</g>
</svg>
