<?xml version="1.0" encoding="UTF-8"?>
<svg xmlns="http://www.w3.org/2000/svg" xmlns:xlink="http://www.w3.org/1999/xlink" width="132pt" height="8pt" viewBox="0 0 132 8" version="1.1">
<g id="surface1">
<path style=" stroke:none;fill-rule:nonzero;fill:rgb(100%,100%,100%);fill-opacity:1;" d="M 5.121094 0.015625 L 4.839844 3.21875 L 7.800781 2.058594 L 8.359375 3.699219 L 5.28125 4.339844 L 7.480469 6.902344 L 6 7.984375 L 4.160156 5.019531 L 2.28125 7.984375 L 0.800781 6.902344 L 3.039062 4.339844 L 0 3.699219 L 0.601562 2.019531 L 3.519531 3.21875 L 3.238281 0.015625 L 5.121094 0.015625 M 83.800781 0.015625 L 83.519531 3.21875 L 86.480469 2.058594 L 87.039062 3.699219 L 83.960938 4.339844 L 86.160156 6.902344 L 84.679688 7.984375 L 82.839844 5.019531 L 80.960938 7.984375 L 79.480469 6.902344 L 81.71875 4.339844 L 78.679688 3.699219 L 79.28125 2.019531 L 82.199219 3.21875 L 81.921875 0.015625 L 83.800781 0.015625 M 73.441406 7.984375 L 71.601562 5.019531 L 69.71875 7.984375 L 68.238281 6.902344 L 70.480469 4.339844 L 67.441406 3.699219 L 68.039062 2.019531 L 70.960938 3.21875 L 70.679688 0.015625 L 72.558594 0.015625 L 72.28125 3.21875 L 75.238281 2.058594 L 75.800781 3.699219 L 72.71875 4.339844 L 74.921875 6.902344 L 73.441406 7.984375 M 95.039062 0.015625 L 94.761719 3.21875 L 97.71875 2.058594 L 98.28125 3.699219 L 95.199219 4.339844 L 97.398438 6.902344 L 95.921875 7.984375 L 94.078125 5.019531 L 92.199219 7.984375 L 90.71875 6.902344 L 92.960938 4.339844 L 89.921875 3.699219 L 90.519531 2.019531 L 93.441406 3.21875 L 93.160156 0.015625 L 95.039062 0.015625 M 101.960938 6.902344 L 104.199219 4.339844 L 101.160156 3.699219 L 101.761719 2.019531 L 104.679688 3.21875 L 104.398438 0.015625 L 106.28125 0.015625 L 106 3.21875 L 108.960938 2.058594 L 109.519531 3.699219 L 106.441406 4.339844 L 108.640625 6.902344 L 107.160156 7.984375 L 105.320312 5.019531 L 103.441406 7.984375 L 101.960938 6.902344 M 117.519531 0.015625 L 117.238281 3.21875 L 120.199219 2.058594 L 120.761719 3.699219 L 117.679688 4.339844 L 119.878906 6.902344 L 118.398438 7.984375 L 116.558594 5.019531 L 114.679688 7.984375 L 113.199219 6.902344 L 115.441406 4.339844 L 112.398438 3.699219 L 113 2.019531 L 115.921875 3.21875 L 115.640625 0.015625 L 117.519531 0.015625 M 128.761719 0.015625 L 128.480469 3.21875 L 131.441406 2.058594 L 132 3.699219 L 128.921875 4.339844 L 131.121094 6.902344 L 129.640625 7.984375 L 127.800781 5.019531 L 125.921875 7.984375 L 124.441406 6.902344 L 126.679688 4.339844 L 123.640625 3.699219 L 124.238281 2.019531 L 127.160156 3.21875 L 126.878906 0.015625 L 128.761719 0.015625 M 12.039062 6.902344 L 14.28125 4.339844 L 11.238281 3.699219 L 11.839844 2.019531 L 14.761719 3.21875 L 14.480469 0.015625 L 16.359375 0.015625 L 16.078125 3.21875 L 19.039062 2.058594 L 19.601562 3.699219 L 16.519531 4.339844 L 18.71875 6.902344 C 18.238281 7.277344 17.746094 7.636719 17.238281 7.984375 L 15.398438 5.019531 L 13.519531 7.984375 L 12.039062 6.902344 M 23.078125 2.019531 L 26 3.21875 L 25.71875 0.015625 L 27.601562 0.015625 L 27.320312 3.21875 L 30.28125 2.058594 L 30.839844 3.699219 L 27.761719 4.339844 L 29.960938 6.902344 L 28.480469 7.984375 L 26.640625 5.019531 L 24.761719 7.984375 L 23.28125 6.902344 L 25.519531 4.339844 L 22.480469 3.699219 L 23.078125 2.019531 M 38.839844 0.015625 L 38.558594 3.21875 L 41.519531 2.058594 L 42.078125 3.699219 L 39 4.339844 L 41.199219 6.902344 L 39.71875 7.984375 L 37.878906 5.019531 L 36 7.984375 L 34.519531 6.902344 L 36.761719 4.339844 L 33.71875 3.699219 L 34.320312 2.019531 L 37.238281 3.21875 L 36.960938 0.015625 L 38.839844 0.015625 M 48 4.339844 L 44.960938 3.699219 L 45.558594 2.019531 L 48.480469 3.21875 L 48.199219 0.015625 L 50.078125 0.015625 L 49.800781 3.21875 L 52.761719 2.058594 L 53.320312 3.699219 L 50.238281 4.339844 L 52.441406 6.902344 L 50.960938 7.984375 L 49.121094 5.019531 L 47.238281 7.984375 L 45.761719 6.902344 L 48 4.339844 M 61.320312 0.015625 L 61.039062 3.21875 L 64 2.058594 L 64.558594 3.699219 L 61.480469 4.339844 L 63.679688 6.902344 L 62.199219 7.984375 L 60.359375 5.019531 L 58.480469 7.984375 L 57 6.902344 L 59.238281 4.339844 L 56.199219 3.699219 L 56.800781 2.019531 L 59.71875 3.21875 L 59.441406 0.015625 L 61.320312 0.015625 "/>
</g>
</svg>
