<?xml version="1.0" encoding="UTF-8"?>
<svg xmlns="http://www.w3.org/2000/svg" xmlns:xlink="http://www.w3.org/1999/xlink" width="139pt" height="6pt" viewBox="0 0 139 6" version="1.1">
<g id="surface1">
<path style=" stroke:none;fill-rule:nonzero;fill:rgb(100%,100%,100%);fill-opacity:1;" d="M 124.371094 0.632812 L 124.285156 1.609375 L 125.183594 1.257812 L 125.355469 1.757812 L 124.417969 1.949219 L 125.085938 2.730469 L 124.636719 3.0625 L 124.078125 2.160156 L 123.507812 3.0625 L 123.058594 2.730469 L 123.738281 1.949219 L 122.816406 1.757812 L 123 1.242188 L 123.882812 1.609375 L 123.800781 0.632812 L 124.371094 0.632812 M 121.941406 1.757812 L 121.007812 1.949219 L 121.675781 2.730469 L 121.226562 3.0625 L 120.667969 2.160156 L 120.097656 3.0625 L 119.648438 2.730469 L 120.328125 1.949219 L 119.40625 1.757812 L 119.585938 1.242188 L 120.472656 1.609375 L 120.386719 0.632812 L 120.957031 0.632812 L 120.875 1.609375 L 121.773438 1.257812 L 121.941406 1.757812 M 127.78125 0.632812 L 127.695312 1.609375 L 128.59375 1.257812 L 128.765625 1.757812 L 127.832031 1.949219 L 128.5 2.730469 L 128.050781 3.0625 L 127.492188 2.160156 L 126.917969 3.0625 L 126.46875 2.730469 L 127.152344 1.949219 L 126.226562 1.757812 L 126.410156 1.242188 L 127.296875 1.609375 L 127.210938 0.632812 L 127.78125 0.632812 M 129.820312 1.242188 L 130.707031 1.609375 L 130.621094 0.632812 L 131.195312 0.632812 L 131.109375 1.609375 L 132.007812 1.257812 L 132.175781 1.757812 L 131.242188 1.949219 L 131.910156 2.730469 L 131.460938 3.0625 L 130.902344 2.160156 L 130.332031 3.0625 L 129.882812 2.730469 L 130.5625 1.949219 L 129.640625 1.757812 L 129.820312 1.242188 M 134.605469 0.632812 L 134.519531 1.609375 L 135.417969 1.257812 L 135.589844 1.757812 L 134.652344 1.949219 L 135.320312 2.730469 L 134.871094 3.0625 L 134.3125 2.160156 L 133.742188 3.0625 L 133.292969 2.730469 L 133.972656 1.949219 L 133.050781 1.757812 L 133.234375 1.242188 L 134.121094 1.609375 L 134.035156 0.632812 L 134.605469 0.632812 M 136.707031 2.730469 L 137.386719 1.949219 L 136.460938 1.757812 L 136.644531 1.242188 L 137.53125 1.609375 L 137.445312 0.632812 L 138.015625 0.632812 L 137.929688 1.609375 L 138.828125 1.257812 L 139 1.757812 L 138.066406 1.949219 L 138.734375 2.730469 L 138.285156 3.0625 L 137.726562 2.160156 L 137.15625 3.0625 L 136.707031 2.730469 M 107.859375 1.035156 C 108.054688 1.214844 108.148438 1.488281 108.148438 1.855469 L 108.148438 4.144531 C 108.148438 4.503906 108.054688 4.773438 107.859375 4.953125 C 107.664062 5.128906 107.410156 5.21875 107.09375 5.21875 L 106.960938 5.21875 C 106.644531 5.21875 106.390625 5.128906 106.195312 4.953125 C 106 4.773438 105.902344 4.503906 105.902344 4.144531 L 105.902344 1.855469 C 105.902344 1.488281 106 1.214844 106.195312 1.035156 C 106.390625 0.867188 106.644531 0.78125 106.960938 0.78125 L 107.09375 0.78125 C 107.410156 0.78125 107.664062 0.867188 107.859375 1.035156 M 106.585938 1.402344 C 106.488281 1.5 106.4375 1.613281 106.4375 1.742188 L 106.4375 3.464844 L 107.617188 1.742188 C 107.617188 1.613281 107.566406 1.5 107.46875 1.402344 C 107.382812 1.304688 107.253906 1.257812 107.09375 1.257812 L 106.960938 1.257812 C 106.796875 1.257812 106.671875 1.304688 106.585938 1.402344 M 113.90625 0.78125 C 114.230469 0.78125 114.480469 0.859375 114.65625 1.011719 C 114.84375 1.167969 114.9375 1.417969 114.9375 1.769531 L 114.9375 2.171875 C 114.9375 2.503906 114.824219 2.746094 114.597656 2.902344 C 114.734375 2.976562 114.839844 3.078125 114.914062 3.207031 C 114.976562 3.335938 115.011719 3.496094 115.011719 3.683594 L 115.011719 4.21875 C 115.011719 4.570312 114.929688 4.820312 114.765625 4.976562 C 114.597656 5.136719 114.320312 5.21875 113.941406 5.21875 L 113.757812 5.21875 C 113.378906 5.21875 113.105469 5.136719 112.933594 4.976562 C 112.773438 4.820312 112.691406 4.570312 112.691406 4.21875 L 112.691406 3.683594 C 112.691406 3.496094 112.722656 3.335938 112.789062 3.207031 C 112.859375 3.078125 112.960938 2.976562 113.089844 2.902344 C 112.871094 2.746094 112.765625 2.503906 112.765625 2.171875 L 112.765625 1.769531 C 112.765625 1.417969 112.855469 1.167969 113.042969 1.011719 C 113.222656 0.859375 113.46875 0.78125 113.785156 0.78125 L 113.90625 0.78125 M 114.390625 1.707031 C 114.390625 1.550781 114.355469 1.4375 114.28125 1.367188 C 114.207031 1.292969 114.09375 1.257812 113.941406 1.257812 L 113.710938 1.257812 C 113.566406 1.265625 113.464844 1.304688 113.40625 1.378906 C 113.34375 1.449219 113.308594 1.5625 113.308594 1.707031 L 113.308594 2.230469 C 113.308594 2.371094 113.351562 2.480469 113.429688 2.5625 C 113.511719 2.640625 113.609375 2.6875 113.722656 2.695312 L 113.941406 2.695312 C 114.0625 2.695312 114.167969 2.65625 114.257812 2.574219 C 114.347656 2.492188 114.390625 2.378906 114.390625 2.230469 L 114.390625 1.707031 M 113.371094 3.292969 C 113.28125 3.375 113.238281 3.484375 113.238281 3.621094 L 113.238281 4.28125 C 113.238281 4.433594 113.269531 4.554688 113.335938 4.632812 C 113.398438 4.707031 113.503906 4.742188 113.648438 4.742188 L 113.988281 4.742188 C 114.152344 4.742188 114.273438 4.707031 114.355469 4.632812 C 114.425781 4.5625 114.464844 4.441406 114.464844 4.28125 L 114.464844 3.621094 C 114.464844 3.484375 114.417969 3.375 114.328125 3.292969 C 114.25 3.210938 114.140625 3.171875 114.003906 3.171875 L 113.699219 3.171875 C 113.5625 3.171875 113.453125 3.210938 113.371094 3.292969 M 82.507812 0.0234375 L 83.066406 0.0234375 L 83.347656 0.351562 L 83.566406 0.769531 L 83.722656 1.316406 L 83.773438 2.011719 L 83.773438 3.988281 L 83.722656 4.695312 L 83.566406 5.230469 L 83.347656 5.660156 L 83.066406 5.976562 L 82.507812 5.976562 L 82.859375 5.523438 L 83.089844 5.109375 L 83.199219 4.632812 L 83.238281 4 L 83.238281 2 L 83.199219 1.367188 L 83.089844 0.890625 L 82.859375 0.476562 L 82.507812 0.0234375 M 89.175781 0.78125 L 89.925781 4.660156 L 90.742188 0.78125 L 91.285156 0.78125 L 90.292969 5.21875 L 89.550781 5.21875 L 88.617188 0.78125 L 89.175781 0.78125 M 99.96875 0.78125 L 100.574219 0.78125 L 100.574219 4.742188 L 101.253906 4.742188 L 101.253906 5.21875 L 99.203125 5.21875 L 99.203125 4.742188 L 100.027344 4.742188 L 100.027344 1.28125 L 99.140625 1.609375 L 99.140625 1.097656 L 99.96875 0.78125 M 92.332031 0.78125 L 94.382812 0.78125 L 94.382812 1.390625 L 93.277344 5.21875 L 92.707031 5.21875 L 93.859375 1.257812 L 92.332031 1.257812 L 92.332031 0.78125 M 97.101562 4.585938 L 97.101562 5.21875 L 96.472656 5.21875 L 96.472656 4.585938 L 97.101562 4.585938 M 110.75 5.21875 L 110.117188 5.21875 L 110.117188 4.585938 L 110.75 4.585938 L 110.75 5.21875 M 107.09375 4.742188 C 107.253906 4.742188 107.382812 4.695312 107.46875 4.597656 C 107.566406 4.5 107.617188 4.386719 107.617188 4.257812 L 107.617188 2.546875 L 106.4375 4.257812 C 106.4375 4.386719 106.488281 4.5 106.585938 4.597656 C 106.671875 4.695312 106.796875 4.742188 106.960938 4.742188 L 107.09375 4.742188 M 103.925781 5.21875 L 103.292969 5.21875 L 103.292969 4.585938 L 103.925781 4.585938 L 103.925781 5.21875 M 1.554688 0.632812 L 1.46875 1.609375 L 2.367188 1.257812 L 2.539062 1.757812 L 1.601562 1.949219 L 2.269531 2.730469 L 1.820312 3.0625 L 1.261719 2.160156 L 0.691406 3.0625 L 0.242188 2.730469 L 0.921875 1.949219 L 0 1.757812 L 0.183594 1.242188 L 1.070312 1.609375 L 0.984375 0.632812 L 1.554688 0.632812 M 62.730469 0.78125 C 63.078125 0.78125 63.351562 0.859375 63.546875 1.011719 C 63.730469 1.167969 63.824219 1.417969 63.824219 1.769531 L 63.824219 2.488281 C 63.824219 2.835938 63.730469 3.09375 63.546875 3.257812 C 63.359375 3.417969 63.089844 3.5 62.742188 3.5 L 62.089844 3.5 L 62.089844 5.21875 L 61.542969 5.21875 L 61.542969 0.78125 L 62.730469 0.78125 M 63.15625 1.367188 C 63.082031 1.292969 62.964844 1.257812 62.804688 1.257812 L 62.089844 1.257812 L 62.089844 3.011719 L 62.804688 3.011719 C 62.964844 3.011719 63.082031 2.976562 63.15625 2.902344 C 63.230469 2.828125 63.265625 2.714844 63.265625 2.5625 L 63.265625 1.707031 C 63.265625 1.550781 63.230469 1.4375 63.15625 1.367188 M 65.0625 3 L 67.113281 3 L 67.113281 3.476562 L 65.0625 3.476562 L 65.0625 3 M 69.628906 0.78125 C 69.992188 0.78125 70.269531 0.871094 70.464844 1.046875 C 70.667969 1.226562 70.769531 1.496094 70.769531 1.855469 L 70.769531 4.144531 C 70.769531 4.503906 70.667969 4.773438 70.464844 4.953125 C 70.269531 5.128906 69.992188 5.21875 69.628906 5.21875 L 69.371094 5.21875 C 69.007812 5.21875 68.726562 5.128906 68.523438 4.953125 C 68.328125 4.773438 68.230469 4.503906 68.230469 4.144531 L 68.230469 1.855469 C 68.230469 1.496094 68.328125 1.226562 68.523438 1.046875 C 68.726562 0.871094 69.007812 0.78125 69.371094 0.78125 L 69.628906 0.78125 M 69.3125 1.269531 C 69.148438 1.269531 69.019531 1.3125 68.921875 1.402344 C 68.835938 1.5 68.789062 1.613281 68.789062 1.742188 L 68.789062 4.257812 C 68.789062 4.386719 68.835938 4.5 68.921875 4.597656 C 69.019531 4.6875 69.148438 4.730469 69.3125 4.730469 L 69.6875 4.730469 C 69.851562 4.730469 69.980469 4.6875 70.078125 4.597656 C 70.164062 4.5 70.210938 4.386719 70.210938 4.257812 L 70.210938 1.742188 C 70.210938 1.613281 70.164062 1.5 70.078125 1.402344 C 69.980469 1.3125 69.851562 1.269531 69.6875 1.269531 L 69.3125 1.269531 M 76.121094 0.351562 L 76.402344 0.0234375 L 76.949219 0.0234375 L 76.609375 0.476562 L 76.378906 0.890625 L 76.257812 1.367188 L 76.230469 2 L 76.230469 4 L 76.257812 4.632812 L 76.378906 5.109375 L 76.609375 5.523438 L 76.949219 5.976562 L 76.402344 5.976562 L 76.121094 5.660156 L 75.902344 5.230469 L 75.746094 4.695312 L 75.6875 3.988281 L 75.6875 2.011719 L 75.746094 1.316406 L 75.902344 0.769531 L 76.121094 0.351562 M 72.527344 1.402344 C 72.433594 1.5 72.382812 1.613281 72.382812 1.742188 L 72.382812 2.21875 C 72.382812 2.347656 72.425781 2.460938 72.503906 2.546875 C 72.59375 2.636719 72.707031 2.683594 72.84375 2.683594 L 73.027344 2.683594 C 73.316406 2.683594 73.550781 2.765625 73.71875 2.925781 C 73.890625 3.097656 73.972656 3.363281 73.972656 3.71875 L 73.972656 4.144531 C 73.972656 4.503906 73.875 4.773438 73.683594 4.953125 C 73.488281 5.128906 73.210938 5.21875 72.84375 5.21875 L 71.945312 5.21875 L 71.945312 4.730469 L 72.90625 4.730469 C 73.066406 4.730469 73.191406 4.6875 73.28125 4.597656 C 73.378906 4.5 73.425781 4.390625 73.425781 4.269531 L 73.425781 3.597656 C 73.425781 3.476562 73.394531 3.378906 73.332031 3.304688 C 73.273438 3.222656 73.175781 3.183594 73.039062 3.183594 L 72.84375 3.183594 C 72.546875 3.183594 72.300781 3.09375 72.117188 2.914062 C 71.929688 2.734375 71.835938 2.464844 71.835938 2.097656 L 71.835938 1.867188 C 71.835938 1.5 71.933594 1.226562 72.128906 1.046875 C 72.324219 0.871094 72.601562 0.78125 72.964844 0.78125 L 73.875 0.78125 L 73.875 1.269531 L 72.90625 1.269531 C 72.75 1.269531 72.625 1.3125 72.527344 1.402344 M 80.46875 1.011719 C 80.65625 1.167969 80.75 1.417969 80.75 1.769531 L 80.75 2.378906 C 80.75 2.628906 80.699219 2.828125 80.601562 2.976562 C 80.496094 3.113281 80.355469 3.210938 80.179688 3.269531 L 81.050781 5.21875 L 80.457031 5.21875 L 79.644531 3.378906 L 79.023438 3.378906 L 79.023438 5.21875 L 78.464844 5.21875 L 78.464844 0.78125 L 79.65625 0.78125 C 80.003906 0.78125 80.273438 0.859375 80.46875 1.011719 M 80.082031 1.367188 C 80.007812 1.292969 79.890625 1.257812 79.730469 1.257812 L 79.023438 1.257812 L 79.023438 2.902344 L 79.730469 2.902344 C 79.890625 2.902344 80.007812 2.867188 80.082031 2.792969 C 80.152344 2.71875 80.191406 2.601562 80.191406 2.4375 L 80.191406 1.707031 C 80.191406 1.550781 80.152344 1.4375 80.082031 1.367188 M 45.90625 0.632812 L 45.820312 1.609375 L 46.71875 1.257812 L 46.886719 1.757812 L 45.953125 1.949219 L 46.621094 2.730469 L 46.171875 3.0625 L 45.613281 2.160156 L 45.042969 3.0625 L 44.59375 2.730469 L 45.273438 1.949219 L 44.351562 1.757812 L 44.53125 1.242188 L 45.417969 1.609375 L 45.332031 0.632812 L 45.90625 0.632812 M 42.492188 0.632812 L 42.40625 1.609375 L 43.304688 1.257812 L 43.476562 1.757812 L 42.542969 1.949219 L 43.210938 2.730469 L 42.761719 3.0625 L 42.203125 2.160156 L 41.628906 3.0625 L 41.179688 2.730469 L 41.863281 1.949219 L 40.9375 1.757812 L 41.121094 1.242188 L 42.007812 1.609375 L 41.921875 0.632812 L 42.492188 0.632812 M 48.003906 2.730469 L 48.683594 1.949219 L 47.761719 1.757812 L 47.945312 1.242188 L 48.832031 1.609375 L 48.746094 0.632812 L 49.316406 0.632812 L 49.230469 1.609375 L 50.128906 1.257812 L 50.300781 1.757812 L 49.363281 1.949219 L 50.03125 2.730469 L 49.582031 3.0625 L 49.023438 2.160156 L 48.453125 3.0625 L 48.003906 2.730469 M 55.910156 0.78125 C 56.257812 0.78125 56.527344 0.859375 56.722656 1.011719 C 56.90625 1.167969 57 1.417969 57 1.769531 L 57 2.488281 C 57 2.835938 56.90625 3.09375 56.722656 3.257812 C 56.535156 3.417969 56.269531 3.5 55.921875 3.5 L 55.265625 3.5 L 55.265625 5.21875 L 54.71875 5.21875 L 54.71875 0.78125 L 55.910156 0.78125 M 56.332031 1.367188 C 56.261719 1.292969 56.144531 1.257812 55.980469 1.257812 L 55.265625 1.257812 L 55.265625 3.011719 L 55.980469 3.011719 C 56.144531 3.011719 56.261719 2.976562 56.332031 2.902344 C 56.40625 2.828125 56.441406 2.714844 56.441406 2.5625 L 56.441406 1.707031 C 56.441406 1.550781 56.40625 1.4375 56.332031 1.367188 M 58.421875 0.78125 L 60.097656 0.78125 L 60.097656 1.242188 L 59.539062 1.242188 L 59.539062 4.757812 L 60.097656 4.757812 L 60.097656 5.21875 L 58.421875 5.21875 L 58.421875 4.757812 L 58.992188 4.757812 L 58.992188 1.242188 L 58.421875 1.242188 L 58.421875 0.78125 M 25.433594 0.632812 L 25.351562 1.609375 L 26.25 1.257812 L 26.417969 1.757812 L 25.484375 1.949219 L 26.152344 2.730469 L 25.703125 3.0625 L 25.144531 2.160156 L 24.574219 3.0625 L 24.125 2.730469 L 24.804688 1.949219 L 23.882812 1.757812 L 24.0625 1.242188 L 24.949219 1.609375 L 24.863281 0.632812 L 25.433594 0.632812 M 22.289062 3.0625 L 21.730469 2.160156 L 21.160156 3.0625 L 20.710938 2.730469 L 21.390625 1.949219 L 20.46875 1.757812 L 20.652344 1.242188 L 21.539062 1.609375 L 21.453125 0.632812 L 22.023438 0.632812 L 21.9375 1.609375 L 22.835938 1.257812 L 23.007812 1.757812 L 22.070312 1.949219 L 22.738281 2.730469 L 22.289062 3.0625 M 28.847656 0.632812 L 28.761719 1.609375 L 29.660156 1.257812 L 29.828125 1.757812 L 28.894531 1.949219 L 29.5625 2.730469 L 29.113281 3.0625 L 28.554688 2.160156 L 27.984375 3.0625 L 27.535156 2.730469 L 28.214844 1.949219 L 27.292969 1.757812 L 27.476562 1.242188 L 28.359375 1.609375 L 28.277344 0.632812 L 28.847656 0.632812 M 30.945312 2.730469 L 31.625 1.949219 L 30.703125 1.757812 L 30.886719 1.242188 L 31.773438 1.609375 L 31.6875 0.632812 L 32.257812 0.632812 L 32.171875 1.609375 L 33.070312 1.257812 L 33.242188 1.757812 L 32.308594 1.949219 L 32.972656 2.730469 L 32.523438 3.0625 L 31.964844 2.160156 L 31.394531 3.0625 L 30.945312 2.730469 M 35.667969 0.632812 L 35.585938 1.609375 L 36.484375 1.257812 L 36.652344 1.757812 L 35.71875 1.949219 L 36.386719 2.730469 L 35.9375 3.0625 L 35.378906 2.160156 L 34.808594 3.0625 L 34.359375 2.730469 L 35.039062 1.949219 L 34.117188 1.757812 L 34.296875 1.242188 L 35.183594 1.609375 L 35.097656 0.632812 L 35.667969 0.632812 M 39.082031 0.632812 L 38.996094 1.609375 L 39.894531 1.257812 L 40.066406 1.757812 L 39.128906 1.949219 L 39.796875 2.730469 L 39.347656 3.0625 L 38.789062 2.160156 L 38.21875 3.0625 L 37.769531 2.730469 L 38.449219 1.949219 L 37.527344 1.757812 L 37.710938 1.242188 L 38.59375 1.609375 L 38.511719 0.632812 L 39.082031 0.632812 M 3.65625 2.730469 L 4.335938 1.949219 L 3.410156 1.757812 L 3.59375 1.242188 L 4.480469 1.609375 L 4.394531 0.632812 L 4.964844 0.632812 L 4.878906 1.609375 L 5.777344 1.257812 L 5.949219 1.757812 L 5.015625 1.949219 L 5.683594 2.730469 C 5.535156 2.84375 5.386719 2.957031 5.234375 3.0625 L 4.675781 2.160156 L 4.105469 3.0625 L 3.65625 2.730469 M 7.003906 1.242188 L 7.890625 1.609375 L 7.804688 0.632812 L 8.378906 0.632812 L 8.292969 1.609375 L 9.191406 1.257812 L 9.359375 1.757812 L 8.425781 1.949219 L 9.09375 2.730469 L 8.644531 3.0625 L 8.085938 2.160156 L 7.515625 3.0625 L 7.066406 2.730469 L 7.746094 1.949219 L 6.824219 1.757812 L 7.003906 1.242188 M 11.789062 0.632812 L 11.703125 1.609375 L 12.601562 1.257812 L 12.773438 1.757812 L 11.835938 1.949219 L 12.503906 2.730469 L 12.054688 3.0625 L 11.496094 2.160156 L 10.925781 3.0625 L 10.476562 2.730469 L 11.15625 1.949219 L 10.234375 1.757812 L 10.417969 1.242188 L 11.304688 1.609375 L 11.21875 0.632812 L 11.789062 0.632812 M 14.570312 1.949219 L 13.644531 1.757812 L 13.828125 1.242188 L 14.714844 1.609375 L 14.628906 0.632812 L 15.199219 0.632812 L 15.117188 1.609375 L 16.015625 1.257812 L 16.183594 1.757812 L 15.25 1.949219 L 15.917969 2.730469 L 15.46875 3.0625 L 14.910156 2.160156 L 14.339844 3.0625 L 13.890625 2.730469 L 14.570312 1.949219 M 18.613281 0.632812 L 18.527344 1.609375 L 19.425781 1.257812 L 19.59375 1.757812 L 18.660156 1.949219 L 19.328125 2.730469 L 18.878906 3.0625 L 18.320312 2.160156 L 17.75 3.0625 L 17.300781 2.730469 L 17.980469 1.949219 L 17.058594 1.757812 L 17.238281 1.242188 L 18.125 1.609375 L 18.042969 0.632812 L 18.613281 0.632812 "/>
</g>
</svg>
