<?xml version="1.0" encoding="UTF-8"?>
<svg xmlns="http://www.w3.org/2000/svg" xmlns:xlink="http://www.w3.org/1999/xlink" width="130pt" height="26pt" viewBox="0 0 130 26" version="1.1">
<g id="surface1">
<path style=" stroke:none;fill-rule:nonzero;fill:rgb(100%,100%,100%);fill-opacity:1;" d="M 110.953125 0.480469 L 110.886719 1.226562 L 111.574219 0.957031 L 111.707031 1.339844 L 110.988281 1.488281 L 111.5 2.085938 L 111.15625 2.335938 L 110.730469 1.644531 L 110.292969 2.335938 L 109.949219 2.085938 L 110.46875 1.488281 L 109.761719 1.339844 L 109.902344 0.945312 L 110.582031 1.226562 L 110.515625 0.480469 L 110.953125 0.480469 M 108.339844 0.480469 L 108.273438 1.226562 L 108.960938 0.957031 L 109.09375 1.339844 L 108.375 1.488281 L 108.886719 2.085938 L 108.542969 2.335938 L 108.117188 1.644531 L 107.679688 2.335938 L 107.335938 2.085938 L 107.855469 1.488281 L 107.148438 1.339844 L 107.289062 0.945312 L 107.96875 1.226562 L 107.902344 0.480469 L 108.339844 0.480469 M 113.566406 0.480469 L 113.5 1.226562 L 114.1875 0.957031 L 114.320312 1.339844 L 113.605469 1.488281 L 114.113281 2.085938 L 113.769531 2.335938 L 113.34375 1.644531 L 112.90625 2.335938 L 112.5625 2.085938 L 113.082031 1.488281 L 112.375 1.339844 L 112.515625 0.945312 L 113.195312 1.226562 L 113.128906 0.480469 L 113.566406 0.480469 M 116.179688 0.480469 L 116.113281 1.226562 L 116.804688 0.957031 L 116.933594 1.339844 L 116.21875 1.488281 L 116.726562 2.085938 L 116.382812 2.335938 L 115.957031 1.644531 L 115.519531 2.335938 L 115.175781 2.085938 L 115.695312 1.488281 L 114.988281 1.339844 L 115.128906 0.945312 L 115.808594 1.226562 L 115.742188 0.480469 L 116.179688 0.480469 M 117.789062 2.085938 L 118.308594 1.488281 L 117.601562 1.339844 L 117.742188 0.945312 L 118.421875 1.226562 L 118.355469 0.480469 L 118.792969 0.480469 L 118.726562 1.226562 L 119.417969 0.957031 L 119.546875 1.339844 L 118.832031 1.488281 L 119.34375 2.085938 L 118.996094 2.335938 L 118.570312 1.644531 L 118.132812 2.335938 L 117.789062 2.085938 M 121.40625 0.480469 L 121.339844 1.226562 L 122.03125 0.957031 L 122.160156 1.339844 L 121.445312 1.488281 L 121.957031 2.085938 L 121.609375 2.335938 L 121.183594 1.644531 L 120.746094 2.335938 L 120.402344 2.085938 L 120.921875 1.488281 L 120.214844 1.339844 L 120.355469 0.945312 L 121.035156 1.226562 L 120.96875 0.480469 L 121.40625 0.480469 M 95.273438 0.480469 L 95.207031 1.226562 L 95.894531 0.957031 L 96.027344 1.339844 L 95.308594 1.488281 L 95.820312 2.085938 L 95.476562 2.335938 L 95.050781 1.644531 L 94.613281 2.335938 L 94.269531 2.085938 L 94.789062 1.488281 L 94.082031 1.339844 L 94.222656 0.945312 L 94.902344 1.226562 L 94.835938 0.480469 L 95.273438 0.480469 M 93.414062 1.339844 L 92.695312 1.488281 L 93.207031 2.085938 L 92.863281 2.335938 L 92.4375 1.644531 L 92 2.335938 L 91.65625 2.085938 L 92.175781 1.488281 L 91.46875 1.339844 L 91.609375 0.945312 L 92.289062 1.226562 L 92.222656 0.480469 L 92.660156 0.480469 L 92.59375 1.226562 L 93.28125 0.957031 L 93.414062 1.339844 M 97.886719 0.480469 L 97.820312 1.226562 L 98.507812 0.957031 L 98.640625 1.339844 L 97.921875 1.488281 L 98.433594 2.085938 L 98.089844 2.335938 L 97.664062 1.644531 L 97.226562 2.335938 L 96.882812 2.085938 L 97.402344 1.488281 L 96.695312 1.339844 L 96.835938 0.945312 L 97.515625 1.226562 L 97.449219 0.480469 L 97.886719 0.480469 M 99.449219 0.945312 L 100.128906 1.226562 L 100.0625 0.480469 L 100.5 0.480469 L 100.433594 1.226562 L 101.121094 0.957031 L 101.253906 1.339844 L 100.535156 1.488281 L 101.046875 2.085938 L 100.703125 2.335938 L 100.277344 1.644531 L 99.839844 2.335938 L 99.496094 2.085938 L 100.015625 1.488281 L 99.308594 1.339844 L 99.449219 0.945312 M 103.113281 0.480469 L 103.046875 1.226562 L 103.734375 0.957031 L 103.867188 1.339844 L 103.148438 1.488281 L 103.660156 2.085938 L 103.316406 2.335938 L 102.890625 1.644531 L 102.453125 2.335938 L 102.109375 2.085938 L 102.628906 1.488281 L 101.921875 1.339844 L 102.0625 0.945312 L 102.742188 1.226562 L 102.675781 0.480469 L 103.113281 0.480469 M 104.722656 2.085938 L 105.242188 1.488281 L 104.535156 1.339844 L 104.675781 0.945312 L 105.355469 1.226562 L 105.289062 0.480469 L 105.726562 0.480469 L 105.660156 1.226562 L 106.347656 0.957031 L 106.480469 1.339844 L 105.761719 1.488281 L 106.273438 2.085938 L 105.929688 2.335938 L 105.503906 1.644531 L 105.066406 2.335938 L 104.722656 2.085938 M 82.625 0.789062 C 82.773438 0.925781 82.847656 1.132812 82.847656 1.414062 L 82.847656 3.167969 C 82.847656 3.441406 82.773438 3.648438 82.625 3.785156 C 82.476562 3.921875 82.28125 3.988281 82.039062 3.988281 L 81.9375 3.988281 C 81.695312 3.988281 81.5 3.921875 81.351562 3.785156 C 81.203125 3.648438 81.125 3.441406 81.125 3.167969 L 81.125 1.414062 C 81.125 1.132812 81.203125 0.925781 81.351562 0.789062 C 81.5 0.65625 81.695312 0.589844 81.9375 0.589844 L 82.039062 0.589844 C 82.28125 0.589844 82.476562 0.65625 82.625 0.789062 M 81.648438 1.066406 C 81.574219 1.140625 81.535156 1.230469 81.535156 1.328125 L 81.535156 2.644531 L 82.4375 1.328125 C 82.4375 1.230469 82.402344 1.140625 82.328125 1.066406 C 82.257812 0.992188 82.164062 0.957031 82.039062 0.957031 L 81.9375 0.957031 C 81.8125 0.957031 81.714844 0.992188 81.648438 1.066406 M 87.253906 0.589844 C 87.503906 0.589844 87.695312 0.652344 87.832031 0.769531 C 87.976562 0.886719 88.046875 1.078125 88.046875 1.347656 L 88.046875 1.65625 C 88.046875 1.910156 87.960938 2.097656 87.785156 2.214844 C 87.890625 2.273438 87.972656 2.351562 88.027344 2.449219 C 88.078125 2.550781 88.101562 2.671875 88.101562 2.8125 L 88.101562 3.222656 C 88.101562 3.492188 88.039062 3.683594 87.914062 3.804688 C 87.785156 3.929688 87.574219 3.988281 87.285156 3.988281 L 87.144531 3.988281 C 86.851562 3.988281 86.640625 3.929688 86.511719 3.804688 C 86.386719 3.683594 86.324219 3.492188 86.324219 3.222656 L 86.324219 2.8125 C 86.324219 2.671875 86.351562 2.550781 86.398438 2.449219 C 86.457031 2.351562 86.535156 2.273438 86.632812 2.214844 C 86.464844 2.097656 86.382812 1.910156 86.382812 1.65625 L 86.382812 1.347656 C 86.382812 1.078125 86.453125 0.886719 86.59375 0.769531 C 86.730469 0.652344 86.921875 0.589844 87.164062 0.589844 L 87.253906 0.589844 M 87.628906 1.300781 C 87.628906 1.183594 87.601562 1.09375 87.542969 1.039062 C 87.488281 0.984375 87.402344 0.957031 87.285156 0.957031 L 87.105469 0.957031 C 86.996094 0.960938 86.917969 0.992188 86.875 1.050781 C 86.824219 1.105469 86.800781 1.1875 86.800781 1.300781 L 86.800781 1.703125 C 86.800781 1.808594 86.832031 1.890625 86.894531 1.953125 C 86.953125 2.015625 87.03125 2.050781 87.117188 2.058594 L 87.285156 2.058594 C 87.375 2.058594 87.457031 2.027344 87.527344 1.964844 C 87.59375 1.902344 87.628906 1.816406 87.628906 1.703125 L 87.628906 1.300781 M 86.847656 2.515625 C 86.777344 2.578125 86.746094 2.660156 86.746094 2.765625 L 86.746094 3.269531 C 86.746094 3.390625 86.769531 3.480469 86.820312 3.542969 C 86.867188 3.597656 86.949219 3.625 87.058594 3.625 L 87.320312 3.625 C 87.445312 3.625 87.539062 3.597656 87.601562 3.542969 C 87.65625 3.484375 87.683594 3.394531 87.683594 3.269531 L 87.683594 2.765625 C 87.683594 2.660156 87.648438 2.578125 87.582031 2.515625 C 87.519531 2.453125 87.433594 2.421875 87.332031 2.421875 L 87.097656 2.421875 C 86.992188 2.421875 86.910156 2.453125 86.847656 2.515625 M 63.203125 0.0117188 L 63.632812 0.0117188 L 63.847656 0.265625 L 64.015625 0.582031 L 64.136719 1.003906 L 64.171875 1.535156 L 64.171875 3.046875 L 64.136719 3.589844 L 64.015625 4 L 63.847656 4.324219 L 63.632812 4.570312 L 63.203125 4.570312 L 63.476562 4.222656 L 63.652344 3.90625 L 63.734375 3.542969 L 63.761719 3.054688 L 63.761719 1.523438 L 63.734375 1.039062 L 63.652344 0.675781 L 63.476562 0.359375 L 63.203125 0.0117188 M 68.3125 0.589844 L 68.886719 3.558594 L 69.511719 0.589844 L 69.929688 0.589844 L 69.167969 3.988281 L 68.597656 3.988281 L 67.882812 0.589844 L 68.3125 0.589844 M 70.730469 0.589844 L 72.300781 0.589844 L 72.300781 1.058594 L 71.453125 3.988281 L 71.015625 3.988281 L 71.902344 0.957031 L 70.730469 0.957031 L 70.730469 0.589844 M 76.578125 0.589844 L 77.042969 0.589844 L 77.042969 3.625 L 77.566406 3.625 L 77.566406 3.988281 L 75.992188 3.988281 L 75.992188 3.625 L 76.625 3.625 L 76.625 0.972656 L 75.945312 1.226562 L 75.945312 0.835938 L 76.578125 0.589844 M 74.382812 3.503906 L 74.382812 3.988281 L 73.902344 3.988281 L 73.902344 3.503906 L 74.382812 3.503906 M 84.835938 3.988281 L 84.355469 3.988281 L 84.355469 3.503906 L 84.835938 3.503906 L 84.835938 3.988281 M 82.039062 3.625 C 82.164062 3.625 82.257812 3.589844 82.328125 3.515625 C 82.402344 3.4375 82.4375 3.351562 82.4375 3.253906 L 82.4375 1.945312 L 81.535156 3.253906 C 81.535156 3.351562 81.574219 3.4375 81.648438 3.515625 C 81.714844 3.589844 81.8125 3.625 81.9375 3.625 L 82.039062 3.625 M 79.609375 3.988281 L 79.128906 3.988281 L 79.128906 3.503906 L 79.609375 3.503906 L 79.609375 3.988281 M 124.019531 0.480469 L 123.953125 1.226562 L 124.644531 0.957031 L 124.773438 1.339844 L 124.058594 1.488281 L 124.570312 2.085938 L 124.222656 2.335938 L 123.796875 1.644531 L 123.359375 2.335938 L 123.015625 2.085938 L 123.535156 1.488281 L 122.828125 1.339844 L 122.96875 0.945312 L 123.648438 1.226562 L 123.582031 0.480469 L 124.019531 0.480469 M 125.582031 0.945312 L 126.261719 1.226562 L 126.195312 0.480469 L 126.632812 0.480469 L 126.566406 1.226562 L 127.257812 0.957031 L 127.386719 1.339844 L 126.671875 1.488281 L 127.183594 2.085938 L 126.835938 2.335938 L 126.410156 1.644531 L 125.972656 2.335938 L 125.628906 2.085938 L 126.148438 1.488281 L 125.441406 1.339844 L 125.582031 0.945312 M 129.246094 0.480469 L 129.179688 1.226562 L 129.871094 0.957031 L 130 1.339844 L 129.285156 1.488281 L 129.796875 2.085938 L 129.453125 2.335938 L 129.023438 1.644531 L 128.585938 2.335938 L 128.242188 2.085938 L 128.761719 1.488281 L 128.054688 1.339844 L 128.195312 0.945312 L 128.875 1.226562 L 128.808594 0.480469 L 129.246094 0.480469 M 1.191406 0.480469 L 1.125 1.226562 L 1.8125 0.957031 L 1.945312 1.339844 L 1.226562 1.488281 L 1.738281 2.085938 L 1.394531 2.335938 L 0.96875 1.644531 L 0.53125 2.335938 L 0.1875 2.085938 L 0.707031 1.488281 L 0 1.339844 L 0.140625 0.945312 L 0.820312 1.226562 L 0.753906 0.480469 L 1.191406 0.480469 M 1.75 22.960938 L 1.015625 22.960938 C 0.890625 22.960938 0.789062 22.996094 0.714844 23.066406 C 0.648438 23.140625 0.613281 23.226562 0.613281 23.328125 L 0.613281 25.25 C 0.613281 25.347656 0.648438 25.4375 0.714844 25.511719 C 0.789062 25.578125 0.890625 25.613281 1.015625 25.613281 L 1.75 25.613281 L 1.75 25.988281 L 1.058594 25.988281 C 0.78125 25.988281 0.566406 25.917969 0.417969 25.78125 C 0.269531 25.644531 0.195312 25.441406 0.195312 25.164062 L 0.195312 23.410156 C 0.195312 23.136719 0.269531 22.929688 0.417969 22.792969 C 0.566406 22.65625 0.78125 22.589844 1.058594 22.589844 L 1.75 22.589844 L 1.75 22.960938 M 48.054688 0.589844 C 48.320312 0.589844 48.527344 0.652344 48.679688 0.769531 C 48.820312 0.886719 48.890625 1.078125 48.890625 1.347656 L 48.890625 1.898438 C 48.890625 2.167969 48.820312 2.363281 48.679688 2.488281 C 48.535156 2.609375 48.332031 2.671875 48.0625 2.671875 L 47.5625 2.671875 L 47.5625 3.988281 L 47.144531 3.988281 L 47.144531 0.589844 L 48.054688 0.589844 M 48.378906 1.039062 C 48.324219 0.984375 48.234375 0.957031 48.109375 0.957031 L 47.5625 0.957031 L 47.5625 2.300781 L 48.109375 2.300781 C 48.234375 2.300781 48.324219 2.273438 48.378906 2.214844 C 48.4375 2.160156 48.464844 2.074219 48.464844 1.953125 L 48.464844 1.300781 C 48.464844 1.183594 48.4375 1.09375 48.378906 1.039062 M 49.839844 2.289062 L 51.414062 2.289062 L 51.414062 2.65625 L 49.839844 2.65625 L 49.839844 2.289062 M 53.335938 0.589844 C 53.617188 0.589844 53.832031 0.660156 53.980469 0.796875 C 54.132812 0.933594 54.210938 1.140625 54.210938 1.414062 L 54.210938 3.167969 C 54.210938 3.441406 54.132812 3.648438 53.980469 3.785156 C 53.832031 3.921875 53.617188 3.988281 53.335938 3.988281 L 53.140625 3.988281 C 52.863281 3.988281 52.644531 3.921875 52.492188 3.785156 C 52.34375 3.648438 52.269531 3.441406 52.269531 3.167969 L 52.269531 1.414062 C 52.269531 1.140625 52.34375 0.933594 52.492188 0.796875 C 52.644531 0.660156 52.863281 0.589844 53.140625 0.589844 L 53.335938 0.589844 M 53.09375 0.964844 C 52.972656 0.964844 52.871094 1 52.796875 1.066406 C 52.730469 1.140625 52.695312 1.230469 52.695312 1.328125 L 52.695312 3.253906 C 52.695312 3.351562 52.730469 3.4375 52.796875 3.515625 C 52.871094 3.582031 52.972656 3.617188 53.09375 3.617188 L 53.382812 3.617188 C 53.507812 3.617188 53.605469 3.582031 53.679688 3.515625 C 53.75 3.4375 53.785156 3.351562 53.785156 3.253906 L 53.785156 1.328125 C 53.785156 1.230469 53.75 1.140625 53.679688 1.066406 C 53.605469 1 53.507812 0.964844 53.382812 0.964844 L 53.09375 0.964844 M 58.3125 0.265625 L 58.527344 0.0117188 L 58.945312 0.0117188 L 58.683594 0.359375 L 58.507812 0.675781 L 58.414062 1.039062 L 58.398438 1.523438 L 58.398438 3.054688 L 58.414062 3.542969 L 58.507812 3.90625 L 58.683594 4.222656 L 58.945312 4.570312 L 58.527344 4.570312 L 58.3125 4.324219 L 58.144531 4 L 58.023438 3.589844 L 57.976562 3.046875 L 57.976562 1.535156 L 58.023438 1.003906 L 58.144531 0.582031 L 58.3125 0.265625 M 55.558594 1.066406 C 55.484375 1.140625 55.449219 1.230469 55.449219 1.328125 L 55.449219 1.691406 C 55.449219 1.792969 55.480469 1.875 55.542969 1.945312 C 55.609375 2.015625 55.695312 2.046875 55.800781 2.046875 L 55.941406 2.046875 C 56.164062 2.046875 56.339844 2.109375 56.472656 2.234375 C 56.601562 2.367188 56.667969 2.566406 56.667969 2.839844 L 56.667969 3.167969 C 56.667969 3.441406 56.59375 3.648438 56.445312 3.785156 C 56.292969 3.921875 56.082031 3.988281 55.800781 3.988281 L 55.113281 3.988281 L 55.113281 3.617188 L 55.847656 3.617188 C 55.972656 3.617188 56.070312 3.582031 56.136719 3.515625 C 56.210938 3.4375 56.25 3.355469 56.25 3.261719 L 56.25 2.75 C 56.25 2.65625 56.222656 2.582031 56.175781 2.523438 C 56.128906 2.460938 56.054688 2.429688 55.949219 2.429688 L 55.800781 2.429688 C 55.574219 2.429688 55.386719 2.363281 55.242188 2.226562 C 55.101562 2.089844 55.03125 1.878906 55.03125 1.601562 L 55.03125 1.421875 C 55.03125 1.140625 55.105469 0.933594 55.253906 0.796875 C 55.402344 0.660156 55.617188 0.589844 55.894531 0.589844 L 56.59375 0.589844 L 56.59375 0.964844 L 55.847656 0.964844 C 55.730469 0.964844 55.632812 1 55.558594 1.066406 M 61.644531 0.769531 C 61.785156 0.886719 61.855469 1.078125 61.855469 1.347656 L 61.855469 1.816406 C 61.855469 2.007812 61.820312 2.160156 61.746094 2.273438 C 61.664062 2.378906 61.554688 2.453125 61.417969 2.496094 L 62.089844 3.988281 L 61.632812 3.988281 L 61.011719 2.582031 L 60.535156 2.582031 L 60.535156 3.988281 L 60.109375 3.988281 L 60.109375 0.589844 L 61.019531 0.589844 C 61.285156 0.589844 61.492188 0.652344 61.644531 0.769531 M 61.34375 1.039062 C 61.289062 0.984375 61.199219 0.957031 61.074219 0.957031 L 60.535156 0.957031 L 60.535156 2.214844 L 61.074219 2.214844 C 61.199219 2.214844 61.289062 2.1875 61.34375 2.132812 C 61.402344 2.074219 61.429688 1.984375 61.429688 1.859375 L 61.429688 1.300781 C 61.429688 1.183594 61.402344 1.09375 61.34375 1.039062 M 35.164062 0.480469 L 35.097656 1.226562 L 35.789062 0.957031 L 35.917969 1.339844 L 35.203125 1.488281 L 35.714844 2.085938 L 35.371094 2.335938 L 34.941406 1.644531 L 34.503906 2.335938 L 34.160156 2.085938 L 34.679688 1.488281 L 33.972656 1.339844 L 34.113281 0.945312 L 34.792969 1.226562 L 34.726562 0.480469 L 35.164062 0.480469 M 32.550781 0.480469 L 32.484375 1.226562 L 33.175781 0.957031 L 33.304688 1.339844 L 32.589844 1.488281 L 33.101562 2.085938 L 32.753906 2.335938 L 32.328125 1.644531 L 31.890625 2.335938 L 31.546875 2.085938 L 32.066406 1.488281 L 31.359375 1.339844 L 31.5 0.945312 L 32.179688 1.226562 L 32.113281 0.480469 L 32.550781 0.480469 M 36.773438 2.085938 L 37.292969 1.488281 L 36.585938 1.339844 L 36.726562 0.945312 L 37.40625 1.226562 L 37.339844 0.480469 L 37.777344 0.480469 L 37.710938 1.226562 L 38.402344 0.957031 L 38.53125 1.339844 L 37.816406 1.488281 L 38.328125 2.085938 L 37.984375 2.335938 L 37.554688 1.644531 L 37.117188 2.335938 L 36.773438 2.085938 M 42.828125 0.589844 C 43.09375 0.589844 43.300781 0.652344 43.449219 0.769531 C 43.59375 0.886719 43.664062 1.078125 43.664062 1.347656 L 43.664062 1.898438 C 43.664062 2.167969 43.59375 2.363281 43.449219 2.488281 C 43.308594 2.609375 43.105469 2.671875 42.835938 2.671875 L 42.335938 2.671875 L 42.335938 3.988281 L 41.917969 3.988281 L 41.917969 0.589844 L 42.828125 0.589844 M 42.882812 0.957031 L 42.335938 0.957031 L 42.335938 2.300781 L 42.882812 2.300781 C 43.007812 2.300781 43.097656 2.273438 43.152344 2.214844 C 43.210938 2.160156 43.238281 2.074219 43.238281 1.953125 L 43.238281 1.300781 C 43.238281 1.183594 43.210938 1.09375 43.152344 1.039062 C 43.097656 0.984375 43.007812 0.957031 42.882812 0.957031 M 44.753906 0.589844 L 46.035156 0.589844 L 46.035156 0.945312 L 45.609375 0.945312 L 45.609375 3.636719 L 46.035156 3.636719 L 46.035156 3.988281 L 44.753906 3.988281 L 44.753906 3.636719 L 45.191406 3.636719 L 45.191406 0.945312 L 44.753906 0.945312 L 44.753906 0.589844 M 19.484375 0.480469 L 19.417969 1.226562 L 20.105469 0.957031 L 20.238281 1.339844 L 19.519531 1.488281 L 20.03125 2.085938 L 19.6875 2.335938 L 19.261719 1.644531 L 18.824219 2.335938 L 18.480469 2.085938 L 19 1.488281 L 18.292969 1.339844 L 18.433594 0.945312 L 19.113281 1.226562 L 19.046875 0.480469 L 19.484375 0.480469 M 17.074219 2.335938 L 16.648438 1.644531 L 16.210938 2.335938 L 15.867188 2.085938 L 16.386719 1.488281 L 15.679688 1.339844 L 15.820312 0.945312 L 16.5 1.226562 L 16.433594 0.480469 L 16.871094 0.480469 L 16.804688 1.226562 L 17.492188 0.957031 L 17.625 1.339844 L 16.90625 1.488281 L 17.417969 2.085938 L 17.074219 2.335938 M 22.097656 0.480469 L 22.03125 1.226562 L 22.722656 0.957031 L 22.851562 1.339844 L 22.136719 1.488281 L 22.644531 2.085938 L 22.300781 2.335938 L 21.875 1.644531 L 21.4375 2.335938 L 21.09375 2.085938 L 21.613281 1.488281 L 20.90625 1.339844 L 21.046875 0.945312 L 21.726562 1.226562 L 21.660156 0.480469 L 22.097656 0.480469 M 23.707031 2.085938 L 24.226562 1.488281 L 23.519531 1.339844 L 23.660156 0.945312 L 24.339844 1.226562 L 24.273438 0.480469 L 24.710938 0.480469 L 24.644531 1.226562 L 25.335938 0.957031 L 25.464844 1.339844 L 24.75 1.488281 L 25.257812 2.085938 L 24.914062 2.335938 L 24.488281 1.644531 L 24.050781 2.335938 L 23.707031 2.085938 M 27.324219 0.480469 L 27.257812 1.226562 L 27.949219 0.957031 L 28.078125 1.339844 L 27.363281 1.488281 L 27.875 2.085938 L 27.527344 2.335938 L 27.101562 1.644531 L 26.664062 2.335938 L 26.320312 2.085938 L 26.839844 1.488281 L 26.132812 1.339844 L 26.273438 0.945312 L 26.953125 1.226562 L 26.886719 0.480469 L 27.324219 0.480469 M 29.9375 0.480469 L 29.871094 1.226562 L 30.5625 0.957031 L 30.691406 1.339844 L 29.976562 1.488281 L 30.488281 2.085938 L 30.140625 2.335938 L 29.714844 1.644531 L 29.277344 2.335938 L 28.933594 2.085938 L 29.453125 1.488281 L 28.746094 1.339844 L 28.886719 0.945312 L 29.566406 1.226562 L 29.5 0.480469 L 29.9375 0.480469 M 2.800781 2.085938 L 3.320312 1.488281 L 2.613281 1.339844 L 2.753906 0.945312 L 3.433594 1.226562 L 3.367188 0.480469 L 3.804688 0.480469 L 3.738281 1.226562 L 4.425781 0.957031 L 4.558594 1.339844 L 3.839844 1.488281 L 4.351562 2.085938 C 4.242188 2.171875 4.125 2.257812 4.007812 2.335938 L 3.582031 1.644531 L 3.144531 2.335938 L 2.800781 2.085938 M 5.367188 0.945312 L 6.046875 1.226562 L 5.980469 0.480469 L 6.417969 0.480469 L 6.351562 1.226562 L 7.039062 0.957031 L 7.171875 1.339844 L 6.453125 1.488281 L 6.964844 2.085938 L 6.621094 2.335938 L 6.195312 1.644531 L 5.757812 2.335938 L 5.414062 2.085938 L 5.933594 1.488281 L 5.226562 1.339844 L 5.367188 0.945312 M 9.03125 0.480469 L 8.964844 1.226562 L 9.652344 0.957031 L 9.785156 1.339844 L 9.066406 1.488281 L 9.578125 2.085938 L 9.234375 2.335938 L 8.808594 1.644531 L 8.371094 2.335938 L 8.027344 2.085938 L 8.546875 1.488281 L 7.839844 1.339844 L 7.980469 0.945312 L 8.660156 1.226562 L 8.59375 0.480469 L 9.03125 0.480469 M 11.160156 1.488281 L 10.453125 1.339844 L 10.59375 0.945312 L 11.273438 1.226562 L 11.207031 0.480469 L 11.644531 0.480469 L 11.578125 1.226562 L 12.265625 0.957031 L 12.398438 1.339844 L 11.679688 1.488281 L 12.191406 2.085938 L 11.847656 2.335938 L 11.421875 1.644531 L 10.984375 2.335938 L 10.640625 2.085938 L 11.160156 1.488281 M 14.257812 0.480469 L 14.191406 1.226562 L 14.878906 0.957031 L 15.011719 1.339844 L 14.292969 1.488281 L 14.804688 2.085938 L 14.460938 2.335938 L 14.035156 1.644531 L 13.597656 2.335938 L 13.253906 2.085938 L 13.773438 1.488281 L 13.066406 1.339844 L 13.207031 0.945312 L 13.886719 1.226562 L 13.820312 0.480469 L 14.257812 0.480469 M 30.523438 23.457031 L 30.523438 25.175781 C 30.523438 25.449219 30.449219 25.652344 30.300781 25.78125 C 30.152344 25.917969 29.960938 25.988281 29.734375 25.988281 L 29.628906 25.988281 C 29.394531 25.988281 29.203125 25.917969 29.054688 25.78125 C 28.90625 25.652344 28.832031 25.449219 28.832031 25.175781 L 28.832031 23.457031 C 28.832031 23.191406 28.90625 22.992188 29.054688 22.859375 C 29.203125 22.730469 29.394531 22.664062 29.628906 22.664062 L 29.734375 22.664062 C 29.960938 22.664062 30.152344 22.730469 30.300781 22.859375 C 30.449219 22.992188 30.523438 23.191406 30.523438 23.457031 M 31.445312 22.664062 L 32.980469 22.664062 L 32.980469 23.121094 L 32.140625 25.988281 L 31.734375 25.988281 L 32.589844 23.019531 L 31.445312 23.019531 L 31.445312 22.664062 M 29.34375 23.121094 C 29.273438 23.195312 29.242188 23.28125 29.242188 23.382812 L 29.242188 24.671875 L 30.113281 23.382812 C 30.113281 23.28125 30.082031 23.195312 30.019531 23.121094 C 29.945312 23.050781 29.851562 23.019531 29.734375 23.019531 L 29.628906 23.019531 C 29.507812 23.019531 29.410156 23.050781 29.34375 23.121094 M 29.34375 25.519531 C 29.410156 25.59375 29.507812 25.632812 29.628906 25.632812 L 29.734375 25.632812 C 29.851562 25.632812 29.945312 25.59375 30.019531 25.519531 C 30.082031 25.445312 30.113281 25.359375 30.113281 25.257812 L 30.113281 23.988281 L 29.242188 25.257812 C 29.242188 25.359375 29.273438 25.445312 29.34375 25.519531 M 26.960938 22.664062 C 27.242188 22.664062 27.453125 22.730469 27.59375 22.859375 C 27.738281 22.992188 27.808594 23.191406 27.808594 23.457031 L 27.808594 23.671875 L 27.789062 23.980469 L 27.734375 24.203125 L 27.632812 24.398438 L 27.484375 24.632812 L 26.785156 25.613281 L 27.910156 25.613281 L 27.910156 25.988281 L 26.339844 25.988281 L 26.339844 25.566406 L 27.101562 24.484375 L 27.257812 24.25 L 27.34375 24.082031 L 27.398438 23.914062 L 27.40625 23.710938 L 27.40625 23.382812 C 27.40625 23.28125 27.371094 23.195312 27.296875 23.121094 C 27.226562 23.050781 27.132812 23.019531 27.007812 23.019531 L 26.441406 23.019531 L 26.441406 22.664062 L 26.960938 22.664062 M 22.089844 25.988281 L 21.667969 25.988281 L 21.667969 22.960938 L 20.898438 22.960938 L 20.898438 22.589844 L 22.859375 22.589844 L 22.859375 22.960938 L 22.089844 22.960938 L 22.089844 25.988281 M 20.183594 22.589844 L 20.183594 25.988281 L 19.761719 25.988281 L 19.761719 24.429688 L 18.769531 24.429688 L 18.769531 25.988281 L 18.347656 25.988281 L 18.347656 22.589844 L 18.769531 22.589844 L 18.769531 24.0625 L 19.761719 24.0625 L 19.761719 22.589844 L 20.183594 22.589844 M 17.355469 22.960938 L 16.621094 22.960938 C 16.5 22.960938 16.40625 22.996094 16.332031 23.066406 C 16.257812 23.140625 16.21875 23.226562 16.21875 23.328125 L 16.21875 25.25 C 16.21875 25.347656 16.257812 25.4375 16.332031 25.511719 C 16.40625 25.578125 16.5 25.613281 16.621094 25.613281 L 17.09375 25.613281 L 17.09375 24.566406 L 16.675781 24.566406 L 16.675781 24.203125 L 17.492188 24.203125 L 17.492188 25.988281 L 16.667969 25.988281 C 16.386719 25.988281 16.171875 25.917969 16.023438 25.78125 C 15.875 25.644531 15.800781 25.441406 15.800781 25.164062 L 15.800781 23.410156 C 15.800781 23.136719 15.875 22.929688 16.023438 22.792969 C 16.171875 22.65625 16.386719 22.589844 16.667969 22.589844 L 17.355469 22.589844 L 17.355469 22.960938 M 14.675781 22.589844 L 14.675781 22.945312 L 14.25 22.945312 L 14.25 25.632812 L 14.675781 25.632812 L 14.675781 25.988281 L 13.390625 25.988281 L 13.390625 25.632812 L 13.828125 25.632812 L 13.828125 22.945312 L 13.390625 22.945312 L 13.390625 22.589844 L 14.675781 22.589844 M 11.691406 23.035156 C 11.632812 22.980469 11.542969 22.953125 11.421875 22.953125 L 10.882812 22.953125 L 10.882812 24.214844 L 11.421875 24.214844 C 11.542969 24.214844 11.632812 24.183594 11.691406 24.128906 C 11.746094 24.074219 11.773438 23.984375 11.773438 23.859375 L 11.773438 23.296875 C 11.773438 23.179688 11.746094 23.09375 11.691406 23.035156 M 12.203125 23.34375 L 12.203125 23.8125 C 12.203125 24.003906 12.164062 24.15625 12.089844 24.269531 C 12.011719 24.375 11.902344 24.449219 11.765625 24.492188 L 12.433594 25.988281 L 11.980469 25.988281 L 11.355469 24.578125 L 10.882812 24.578125 L 10.882812 25.988281 L 10.453125 25.988281 L 10.453125 22.589844 L 11.363281 22.589844 C 11.632812 22.589844 11.839844 22.648438 11.988281 22.765625 C 12.128906 22.882812 12.203125 23.078125 12.203125 23.34375 M 9.894531 22.589844 L 9.019531 24.410156 L 9.019531 25.988281 L 8.585938 25.988281 L 8.585938 24.410156 L 7.71875 22.589844 L 8.183594 22.589844 L 8.816406 24 L 9.457031 22.589844 L 9.894531 22.589844 M 7.078125 23.34375 L 7.078125 23.894531 C 7.078125 24.164062 7.007812 24.359375 6.863281 24.484375 C 6.722656 24.609375 6.515625 24.671875 6.25 24.671875 L 5.746094 24.671875 L 5.746094 25.988281 L 5.328125 25.988281 L 5.328125 22.589844 L 6.242188 22.589844 C 6.507812 22.589844 6.714844 22.648438 6.863281 22.765625 C 7.007812 22.882812 7.078125 23.078125 7.078125 23.34375 M 6.566406 23.035156 C 6.511719 22.980469 6.421875 22.953125 6.296875 22.953125 L 5.746094 22.953125 L 5.746094 24.296875 L 6.296875 24.296875 C 6.421875 24.296875 6.511719 24.269531 6.566406 24.214844 C 6.621094 24.15625 6.648438 24.070312 6.648438 23.953125 L 6.648438 23.296875 C 6.648438 23.179688 6.621094 23.09375 6.566406 23.035156 M 4.027344 23.066406 C 3.953125 22.996094 3.851562 22.960938 3.730469 22.960938 L 3.441406 22.960938 C 3.316406 22.960938 3.21875 22.996094 3.144531 23.066406 C 3.074219 23.140625 3.042969 23.226562 3.042969 23.328125 L 3.042969 25.25 C 3.042969 25.347656 3.074219 25.4375 3.144531 25.511719 C 3.21875 25.578125 3.316406 25.613281 3.441406 25.613281 L 3.730469 25.613281 C 3.851562 25.613281 3.953125 25.578125 4.027344 25.511719 C 4.09375 25.4375 4.128906 25.347656 4.128906 25.25 L 4.128906 23.328125 C 4.128906 23.226562 4.09375 23.140625 4.027344 23.066406 M 4.558594 23.410156 L 4.558594 25.164062 C 4.558594 25.441406 4.480469 25.644531 4.324219 25.78125 C 4.175781 25.917969 3.960938 25.988281 3.683594 25.988281 L 3.488281 25.988281 C 3.207031 25.988281 2.992188 25.917969 2.835938 25.78125 C 2.6875 25.644531 2.613281 25.441406 2.613281 25.164062 L 2.613281 23.410156 C 2.613281 23.136719 2.6875 22.929688 2.835938 22.792969 C 2.992188 22.65625 3.207031 22.589844 3.488281 22.589844 L 3.683594 22.589844 C 3.960938 22.589844 4.175781 22.65625 4.324219 22.792969 C 4.480469 22.929688 4.558594 23.136719 4.558594 23.410156 M 34.523438 23.019531 L 34.523438 23.988281 L 34.707031 23.988281 C 34.945312 23.988281 35.132812 24.046875 35.277344 24.15625 C 35.417969 24.269531 35.488281 24.457031 35.488281 24.71875 L 35.488281 25.230469 C 35.488281 25.5 35.429688 25.691406 35.304688 25.808594 C 35.179688 25.929688 34.976562 25.988281 34.691406 25.988281 L 34.066406 25.988281 L 34.066406 25.632812 L 34.726562 25.632812 C 34.851562 25.632812 34.9375 25.601562 34.988281 25.539062 C 35.050781 25.488281 35.082031 25.402344 35.082031 25.277344 L 35.082031 24.679688 C 35.082031 24.574219 35.046875 24.492188 34.980469 24.429688 C 34.917969 24.371094 34.835938 24.34375 34.738281 24.34375 L 34.113281 24.34375 L 34.113281 22.664062 L 35.414062 22.664062 L 35.414062 23.019531 L 34.523438 23.019531 "/>
</g>
</svg>
