<?xml version="1.0" encoding="UTF-8"?>
<svg xmlns="http://www.w3.org/2000/svg" xmlns:xlink="http://www.w3.org/1999/xlink" width="124pt" height="10pt" viewBox="0 0 124 10" version="1.1">
<g id="surface1">
<path style=" stroke:none;fill-rule:nonzero;fill:rgb(100%,100%,100%);fill-opacity:1;" d="M 3.386719 0 L 3.199219 2.128906 L 5.15625 1.355469 L 5.523438 2.445312 L 3.492188 2.871094 L 4.945312 4.574219 L 3.964844 5.292969 L 2.753906 3.324219 L 1.511719 5.292969 L 0.535156 4.574219 L 2.011719 2.871094 L 0.00390625 2.445312 L 0.402344 1.328125 L 2.328125 2.128906 L 2.144531 0 L 3.386719 0 M 99.855469 0 L 99.671875 2.128906 L 101.625 1.355469 L 101.996094 2.445312 L 99.960938 2.871094 L 101.414062 4.574219 L 100.4375 5.292969 L 99.222656 3.324219 L 97.980469 5.292969 L 97.003906 4.574219 L 98.484375 2.871094 L 96.476562 2.445312 L 96.871094 1.328125 L 98.800781 2.128906 L 98.617188 0 L 99.855469 0 M 92.4375 0 L 92.25 2.128906 L 94.207031 1.355469 L 94.574219 2.445312 L 92.542969 2.871094 L 93.996094 4.574219 L 93.015625 5.292969 L 91.800781 3.324219 L 90.5625 5.292969 L 89.582031 4.574219 L 91.0625 2.871094 L 89.054688 2.445312 L 89.453125 1.328125 L 91.378906 2.128906 L 91.195312 0 L 92.4375 0 M 104.425781 4.574219 L 105.90625 2.871094 L 103.898438 2.445312 L 104.292969 1.328125 L 106.222656 2.128906 L 106.035156 0 L 107.277344 0 L 107.09375 2.128906 L 109.046875 1.355469 L 109.417969 2.445312 L 107.382812 2.871094 L 108.835938 4.574219 L 107.859375 5.292969 L 106.644531 3.324219 L 105.402344 5.292969 L 104.425781 4.574219 M 121.617188 0.320312 C 122.375 0.320312 122.964844 0.488281 123.386719 0.824219 C 123.792969 1.160156 123.996094 1.710938 123.996094 2.472656 L 123.996094 4.042969 C 123.996094 4.804688 123.792969 5.363281 123.386719 5.71875 C 122.980469 6.074219 122.402344 6.25 121.644531 6.25 L 120.21875 6.25 L 120.21875 10 L 119.03125 10 L 119.03125 0.320312 L 121.617188 0.320312 M 122.542969 1.597656 C 122.382812 1.4375 122.128906 1.355469 121.777344 1.355469 L 120.21875 1.355469 L 120.21875 5.1875 L 121.777344 5.1875 C 122.128906 5.1875 122.382812 5.105469 122.542969 4.945312 C 122.699219 4.789062 122.78125 4.539062 122.78125 4.203125 L 122.78125 2.339844 C 122.78125 2.003906 122.699219 1.753906 122.542969 1.597656 M 55.332031 0 L 55.148438 2.128906 L 57.101562 1.355469 L 57.472656 2.445312 L 55.4375 2.871094 L 56.890625 4.574219 L 55.914062 5.292969 L 54.699219 3.324219 L 53.457031 5.292969 L 52.480469 4.574219 L 53.957031 2.871094 L 51.953125 2.445312 L 52.347656 1.328125 L 54.277344 2.128906 L 54.089844 0 L 55.332031 0 M 48.492188 5.292969 L 47.277344 3.324219 L 46.035156 5.292969 L 45.058594 4.574219 L 46.539062 2.871094 L 44.53125 2.445312 L 44.925781 1.328125 L 46.855469 2.128906 L 46.667969 0 L 47.910156 0 L 47.726562 2.128906 L 49.679688 1.355469 L 50.050781 2.445312 L 48.015625 2.871094 L 49.46875 4.574219 L 48.492188 5.292969 M 62.753906 0 L 62.566406 2.128906 L 64.523438 1.355469 L 64.890625 2.445312 L 62.859375 2.871094 L 64.3125 4.574219 L 63.332031 5.292969 L 62.117188 3.324219 L 60.878906 5.292969 L 59.902344 4.574219 L 61.378906 2.871094 L 59.371094 2.445312 L 59.769531 1.328125 L 61.695312 2.128906 L 61.511719 0 L 62.753906 0 M 67.320312 4.574219 L 68.800781 2.871094 L 66.792969 2.445312 L 67.1875 1.328125 L 69.117188 2.128906 L 68.933594 0 L 70.171875 0 L 69.988281 2.128906 L 71.941406 1.355469 L 72.3125 2.445312 L 70.277344 2.871094 L 71.730469 4.574219 L 70.753906 5.292969 L 69.539062 3.324219 L 68.296875 5.292969 L 67.320312 4.574219 M 77.59375 0 L 77.410156 2.128906 L 79.363281 1.355469 L 79.734375 2.445312 L 77.699219 2.871094 L 79.152344 4.574219 L 78.175781 5.292969 L 76.960938 3.324219 L 75.71875 5.292969 L 74.742188 4.574219 L 76.222656 2.871094 L 74.214844 2.445312 L 74.609375 1.328125 L 76.539062 2.128906 L 76.351562 0 L 77.59375 0 M 85.015625 0 L 84.832031 2.128906 L 86.785156 1.355469 L 87.15625 2.445312 L 85.121094 2.871094 L 86.574219 4.574219 L 85.597656 5.292969 L 84.382812 3.324219 L 83.140625 5.292969 L 82.164062 4.574219 L 83.640625 2.871094 L 81.636719 2.445312 L 82.03125 1.328125 L 83.957031 2.128906 L 83.773438 0 L 85.015625 0 M 7.953125 4.574219 L 9.433594 2.871094 L 7.425781 2.445312 L 7.824219 1.328125 L 9.75 2.128906 L 9.566406 0 L 10.808594 0 L 10.621094 2.128906 L 12.574219 1.355469 L 12.945312 2.445312 L 10.914062 2.871094 L 12.363281 4.574219 C 12.046875 4.824219 11.722656 5.0625 11.386719 5.292969 L 10.171875 3.324219 L 8.929688 5.292969 L 7.953125 4.574219 M 15.242188 1.328125 L 17.171875 2.128906 L 16.984375 0 L 18.226562 0 L 18.042969 2.128906 L 19.996094 1.355469 L 20.367188 2.445312 L 18.332031 2.871094 L 19.785156 4.574219 L 18.808594 5.292969 L 17.59375 3.324219 L 16.351562 5.292969 L 15.375 4.574219 L 16.855469 2.871094 L 14.847656 2.445312 L 15.242188 1.328125 M 25.648438 0 L 25.464844 2.128906 L 27.417969 1.355469 L 27.789062 2.445312 L 25.753906 2.871094 L 27.207031 4.574219 L 26.230469 5.292969 L 25.015625 3.324219 L 23.773438 5.292969 L 22.796875 4.574219 L 24.273438 2.871094 L 22.269531 2.445312 L 22.664062 1.328125 L 24.59375 2.128906 L 24.40625 0 L 25.648438 0 M 31.695312 2.871094 L 29.6875 2.445312 L 30.085938 1.328125 L 32.011719 2.128906 L 31.828125 0 L 33.070312 0 L 32.882812 2.128906 L 34.839844 1.355469 L 35.207031 2.445312 L 33.175781 2.871094 L 34.628906 4.574219 L 33.648438 5.292969 L 32.433594 3.324219 L 31.195312 5.292969 L 30.21875 4.574219 L 31.695312 2.871094 M 40.488281 0 L 40.304688 2.128906 L 42.257812 1.355469 L 42.628906 2.445312 L 40.597656 2.871094 L 42.046875 4.574219 L 41.070312 5.292969 L 39.855469 3.324219 L 38.613281 5.292969 L 37.636719 4.574219 L 39.117188 2.871094 L 37.109375 2.445312 L 37.507812 1.328125 L 39.433594 2.128906 L 39.25 0 L 40.488281 0 "/>
</g>
</svg>
