<?xml version="1.0" encoding="UTF-8"?>
<svg xmlns="http://www.w3.org/2000/svg" xmlns:xlink="http://www.w3.org/1999/xlink" width="128pt" height="9pt" viewBox="0 0 128 9" version="1.1">
<g id="surface1">
<path style=" stroke:none;fill-rule:nonzero;fill:rgb(100%,100%,100%);fill-opacity:1;" d="M 125.710938 0 L 126.558594 0 L 126.980469 0.496094 L 127.3125 1.125 L 127.554688 1.953125 L 127.628906 3.007812 L 127.628906 5.992188 L 127.554688 7.0625 L 127.3125 7.875 L 126.980469 8.519531 L 126.558594 9 L 125.710938 9 L 126.242188 8.316406 L 126.59375 7.691406 L 126.761719 6.972656 L 126.816406 6.011719 L 126.816406 2.988281 L 126.761719 2.027344 L 126.59375 1.308594 L 126.242188 0.683594 L 125.710938 0 M 2.734375 0.921875 L 2.605469 2.398438 L 3.96875 1.863281 L 4.226562 2.617188 L 2.808594 2.914062 L 3.820312 4.09375 L 3.140625 4.59375 L 2.289062 3.226562 L 1.425781 4.59375 L 0.742188 4.09375 L 1.773438 2.914062 L 0.371094 2.617188 L 0.648438 1.84375 L 1.996094 2.398438 L 1.867188 0.921875 L 2.734375 0.921875 M 95.664062 1.144531 C 96.195312 1.144531 96.605469 1.261719 96.902344 1.492188 C 97.183594 1.726562 97.324219 2.109375 97.324219 2.636719 L 97.324219 3.726562 C 97.324219 4.253906 97.183594 4.640625 96.902344 4.886719 C 96.617188 5.132812 96.214844 5.257812 95.683594 5.257812 L 94.6875 5.257812 L 94.6875 7.855469 L 93.859375 7.855469 L 93.859375 1.144531 L 95.664062 1.144531 M 96.3125 2.027344 C 96.199219 1.917969 96.023438 1.863281 95.777344 1.863281 L 94.6875 1.863281 L 94.6875 4.519531 L 95.777344 4.519531 C 96.023438 4.519531 96.199219 4.464844 96.3125 4.351562 C 96.421875 4.242188 96.476562 4.070312 96.476562 3.835938 L 96.476562 2.546875 C 96.476562 2.3125 96.421875 2.140625 96.3125 2.027344 M 99.207031 4.5 L 102.324219 4.5 L 102.324219 5.21875 L 99.207031 5.21875 L 99.207031 4.5 M 106.140625 1.144531 C 106.695312 1.144531 107.117188 1.277344 107.414062 1.550781 C 107.722656 1.820312 107.875 2.226562 107.875 2.765625 L 107.875 6.234375 C 107.875 6.773438 107.722656 7.179688 107.414062 7.449219 C 107.117188 7.722656 106.695312 7.855469 106.140625 7.855469 L 105.753906 7.855469 C 105.199219 7.855469 104.769531 7.722656 104.464844 7.449219 C 104.167969 7.179688 104.019531 6.773438 104.019531 6.234375 L 104.019531 2.765625 C 104.019531 2.226562 104.167969 1.820312 104.464844 1.550781 C 104.769531 1.277344 105.199219 1.144531 105.753906 1.144531 L 106.140625 1.144531 M 105.660156 1.882812 C 105.414062 1.882812 105.21875 1.949219 105.070312 2.085938 C 104.9375 2.230469 104.867188 2.402344 104.867188 2.601562 L 104.867188 6.398438 C 104.867188 6.597656 104.9375 6.769531 105.070312 6.914062 C 105.21875 7.050781 105.414062 7.117188 105.660156 7.117188 L 106.234375 7.117188 C 106.480469 7.117188 106.675781 7.050781 106.824219 6.914062 C 106.960938 6.769531 107.027344 6.597656 107.027344 6.398438 L 107.027344 2.601562 C 107.027344 2.402344 106.960938 2.230469 106.824219 2.085938 C 106.675781 1.949219 106.480469 1.882812 106.234375 1.882812 L 105.660156 1.882812 M 116.007812 0.496094 L 116.433594 0 L 117.261719 0 L 116.746094 0.683594 L 116.394531 1.308594 L 116.210938 2.027344 L 116.175781 2.988281 L 116.175781 6.011719 L 116.210938 6.972656 L 116.394531 7.691406 L 116.746094 8.316406 L 117.261719 9 L 116.433594 9 L 116.007812 8.519531 L 115.675781 7.875 L 115.4375 7.0625 L 115.34375 5.992188 L 115.34375 3.007812 L 115.4375 1.953125 L 115.675781 1.125 L 116.007812 0.496094 M 110.550781 2.085938 C 110.402344 2.230469 110.328125 2.402344 110.328125 2.601562 L 110.328125 3.320312 C 110.328125 3.515625 110.390625 3.683594 110.511719 3.816406 C 110.648438 3.953125 110.820312 4.019531 111.027344 4.019531 L 111.304688 4.019531 C 111.746094 4.019531 112.097656 4.144531 112.355469 4.390625 C 112.613281 4.648438 112.742188 5.046875 112.742188 5.589844 L 112.742188 6.234375 C 112.742188 6.773438 112.597656 7.179688 112.300781 7.449219 C 112.007812 7.722656 111.582031 7.855469 111.027344 7.855469 L 109.664062 7.855469 L 109.664062 7.117188 L 111.121094 7.117188 C 111.367188 7.117188 111.558594 7.050781 111.691406 6.914062 C 111.839844 6.769531 111.914062 6.601562 111.914062 6.417969 L 111.914062 5.402344 C 111.914062 5.21875 111.863281 5.070312 111.765625 4.960938 C 111.679688 4.839844 111.53125 4.777344 111.324219 4.777344 L 111.027344 4.777344 C 110.574219 4.777344 110.203125 4.640625 109.921875 4.371094 C 109.640625 4.101562 109.496094 3.6875 109.496094 3.136719 L 109.496094 2.785156 C 109.496094 2.230469 109.644531 1.820312 109.941406 1.550781 C 110.234375 1.277344 110.660156 1.144531 111.214844 1.144531 L 112.597656 1.144531 L 112.597656 1.882812 L 111.121094 1.882812 C 110.886719 1.882812 110.695312 1.949219 110.550781 2.085938 M 122.609375 1.492188 C 122.894531 1.726562 123.035156 2.109375 123.035156 2.636719 L 123.035156 3.558594 C 123.035156 3.941406 122.960938 4.242188 122.8125 4.464844 C 122.652344 4.671875 122.4375 4.820312 122.167969 4.90625 L 123.496094 7.855469 L 122.59375 7.855469 L 121.355469 5.070312 L 120.414062 5.070312 L 120.414062 7.855469 L 119.566406 7.855469 L 119.566406 1.144531 L 121.375 1.144531 C 121.902344 1.144531 122.316406 1.261719 122.609375 1.492188 M 122.019531 2.027344 C 121.910156 1.917969 121.730469 1.863281 121.484375 1.863281 L 120.414062 1.863281 L 120.414062 4.351562 L 121.484375 4.351562 C 121.730469 4.351562 121.910156 4.296875 122.019531 4.1875 C 122.132812 4.074219 122.1875 3.898438 122.1875 3.652344 L 122.1875 2.546875 C 122.1875 2.3125 122.132812 2.140625 122.019531 2.027344 M 70.105469 0.921875 L 69.976562 2.398438 L 71.339844 1.863281 L 71.597656 2.617188 L 70.179688 2.914062 L 71.191406 4.09375 L 70.511719 4.59375 L 69.660156 3.226562 L 68.796875 4.59375 L 68.113281 4.09375 L 69.144531 2.914062 L 67.742188 2.617188 L 68.019531 1.84375 L 69.367188 2.398438 L 69.238281 0.921875 L 70.105469 0.921875 M 64.921875 0.921875 L 64.792969 2.398438 L 66.15625 1.863281 L 66.414062 2.617188 L 64.996094 2.914062 L 66.011719 4.09375 L 65.328125 4.59375 L 64.480469 3.226562 L 63.613281 4.59375 L 62.929688 4.09375 L 63.964844 2.914062 L 62.5625 2.617188 L 62.839844 1.84375 L 64.183594 2.398438 L 64.054688 0.921875 L 64.921875 0.921875 M 73.296875 4.09375 L 74.328125 2.914062 L 72.925781 2.617188 L 73.203125 1.84375 L 74.550781 2.398438 L 74.421875 0.921875 L 75.285156 0.921875 L 75.15625 2.398438 L 76.523438 1.863281 L 76.78125 2.617188 L 75.359375 2.914062 L 76.375 4.09375 L 75.691406 4.59375 L 74.84375 3.226562 L 73.976562 4.59375 L 73.296875 4.09375 M 85.300781 1.144531 C 85.828125 1.144531 86.242188 1.261719 86.535156 1.492188 C 86.820312 1.726562 86.960938 2.109375 86.960938 2.636719 L 86.960938 3.726562 C 86.960938 4.253906 86.820312 4.640625 86.535156 4.886719 C 86.253906 5.132812 85.847656 5.257812 85.320312 5.257812 L 84.324219 5.257812 L 84.324219 7.855469 L 83.492188 7.855469 L 83.492188 1.144531 L 85.300781 1.144531 M 85.945312 2.027344 C 85.835938 1.917969 85.65625 1.863281 85.410156 1.863281 L 84.324219 1.863281 L 84.324219 4.519531 L 85.410156 4.519531 C 85.65625 4.519531 85.835938 4.464844 85.945312 4.351562 C 86.058594 4.242188 86.113281 4.070312 86.113281 3.835938 L 86.113281 2.546875 C 86.113281 2.3125 86.058594 2.140625 85.945312 2.027344 M 89.117188 1.144531 L 91.664062 1.144531 L 91.664062 1.84375 L 90.816406 1.84375 L 90.816406 7.15625 L 91.664062 7.15625 L 91.664062 7.855469 L 89.117188 7.855469 L 89.117188 7.15625 L 89.984375 7.15625 L 89.984375 1.84375 L 89.117188 1.84375 L 89.117188 1.144531 M 39.011719 0.921875 L 38.882812 2.398438 L 40.246094 1.863281 L 40.503906 2.617188 L 39.085938 2.914062 L 40.097656 4.09375 L 39.414062 4.59375 L 38.566406 3.226562 L 37.699219 4.59375 L 37.019531 4.09375 L 38.050781 2.914062 L 36.648438 2.617188 L 36.925781 1.84375 L 38.273438 2.398438 L 38.144531 0.921875 L 39.011719 0.921875 M 34.234375 4.59375 L 33.386719 3.226562 L 32.519531 4.59375 L 31.835938 4.09375 L 32.867188 2.914062 L 31.46875 2.617188 L 31.742188 1.84375 L 33.089844 2.398438 L 32.960938 0.921875 L 33.828125 0.921875 L 33.699219 2.398438 L 35.0625 1.863281 L 35.320312 2.617188 L 33.902344 2.914062 L 34.914062 4.09375 L 34.234375 4.59375 M 44.191406 0.921875 L 44.0625 2.398438 L 45.429688 1.863281 L 45.6875 2.617188 L 44.265625 2.914062 L 45.28125 4.09375 L 44.597656 4.59375 L 43.75 3.226562 L 42.882812 4.59375 L 42.199219 4.09375 L 43.234375 2.914062 L 41.832031 2.617188 L 42.109375 1.84375 L 43.453125 2.398438 L 43.324219 0.921875 L 44.191406 0.921875 M 47.382812 4.09375 L 48.414062 2.914062 L 47.015625 2.617188 L 47.289062 1.84375 L 48.636719 2.398438 L 48.507812 0.921875 L 49.375 0.921875 L 49.246094 2.398438 L 50.609375 1.863281 L 50.867188 2.617188 L 49.449219 2.914062 L 50.464844 4.09375 L 49.78125 4.59375 L 48.933594 3.226562 L 48.066406 4.59375 L 47.382812 4.09375 M 54.558594 0.921875 L 54.429688 2.398438 L 55.792969 1.863281 L 56.050781 2.617188 L 54.632812 2.914062 L 55.644531 4.09375 L 54.964844 4.59375 L 54.113281 3.226562 L 53.246094 4.59375 L 52.566406 4.09375 L 53.597656 2.914062 L 52.195312 2.617188 L 52.472656 1.84375 L 53.820312 2.398438 L 53.691406 0.921875 L 54.558594 0.921875 M 59.738281 0.921875 L 59.609375 2.398438 L 60.976562 1.863281 L 61.234375 2.617188 L 59.8125 2.914062 L 60.828125 4.09375 L 60.144531 4.59375 L 59.296875 3.226562 L 58.429688 4.59375 L 57.746094 4.09375 L 58.78125 2.914062 L 57.378906 2.617188 L 57.65625 1.84375 L 59.003906 2.398438 L 58.871094 0.921875 L 59.738281 0.921875 M 5.925781 4.09375 L 6.957031 2.914062 L 5.554688 2.617188 L 5.832031 1.84375 L 7.179688 2.398438 L 7.050781 0.921875 L 7.914062 0.921875 L 7.785156 2.398438 L 9.152344 1.863281 L 9.410156 2.617188 L 7.988281 2.914062 L 9.003906 4.09375 C 8.78125 4.265625 8.554688 4.433594 8.320312 4.59375 L 7.472656 3.226562 L 6.605469 4.59375 L 5.925781 4.09375 M 11.015625 1.84375 L 12.359375 2.398438 L 12.230469 0.921875 L 13.097656 0.921875 L 12.96875 2.398438 L 14.335938 1.863281 L 14.59375 2.617188 L 13.171875 2.914062 L 14.1875 4.09375 L 13.503906 4.59375 L 12.65625 3.226562 L 11.789062 4.59375 L 11.105469 4.09375 L 12.140625 2.914062 L 10.738281 2.617188 L 11.015625 1.84375 M 18.28125 0.921875 L 18.152344 2.398438 L 19.515625 1.863281 L 19.773438 2.617188 L 18.355469 2.914062 L 19.367188 4.09375 L 18.6875 4.59375 L 17.839844 3.226562 L 16.972656 4.59375 L 16.289062 4.09375 L 17.320312 2.914062 L 15.921875 2.617188 L 16.195312 1.84375 L 17.542969 2.398438 L 17.414062 0.921875 L 18.28125 0.921875 M 22.503906 2.914062 L 21.101562 2.617188 L 21.378906 1.84375 L 22.726562 2.398438 L 22.597656 0.921875 L 23.464844 0.921875 L 23.335938 2.398438 L 24.699219 1.863281 L 24.957031 2.617188 L 23.535156 2.914062 L 24.550781 4.09375 L 23.867188 4.59375 L 23.019531 3.226562 L 22.152344 4.59375 L 21.472656 4.09375 L 22.503906 2.914062 M 28.644531 0.921875 L 28.515625 2.398438 L 29.882812 1.863281 L 30.140625 2.617188 L 28.71875 2.914062 L 29.734375 4.09375 L 29.050781 4.59375 L 28.203125 3.226562 L 27.335938 4.59375 L 26.652344 4.09375 L 27.6875 2.914062 L 26.285156 2.617188 L 26.5625 1.84375 L 27.90625 2.398438 L 27.777344 0.921875 L 28.644531 0.921875 "/>
</g>
</svg>
