<?xml version="1.0" encoding="UTF-8"?>
<svg xmlns="http://www.w3.org/2000/svg" xmlns:xlink="http://www.w3.org/1999/xlink" width="124pt" height="9pt" viewBox="0 0 124 9" version="1.1">
<g id="surface1">
<path style=" stroke:none;fill-rule:nonzero;fill:rgb(100%,100%,100%);fill-opacity:1;" d="M 3.019531 0.046875 L 2.855469 1.941406 L 4.597656 1.253906 L 4.929688 2.226562 L 3.113281 2.605469 L 4.410156 4.121094 L 3.539062 4.761719 L 2.453125 3.007812 L 1.34375 4.761719 L 0.472656 4.121094 L 1.792969 2.605469 L 0 2.226562 L 0.355469 1.230469 L 2.074219 1.941406 L 1.910156 0.046875 L 3.019531 0.046875 M 121.878906 0.332031 C 122.554688 0.332031 123.082031 0.480469 123.457031 0.78125 C 123.820312 1.082031 124 1.570312 124 2.25 L 124 3.648438 C 124 4.328125 123.820312 4.824219 123.457031 5.140625 C 123.097656 5.457031 122.578125 5.613281 121.902344 5.613281 L 120.628906 5.613281 L 120.628906 8.953125 L 119.566406 8.953125 L 119.566406 0.332031 L 121.878906 0.332031 M 122.703125 1.46875 C 122.5625 1.324219 122.332031 1.253906 122.019531 1.253906 L 120.628906 1.253906 L 120.628906 4.664062 L 122.019531 4.664062 C 122.332031 4.664062 122.5625 4.59375 122.703125 4.453125 C 122.84375 4.308594 122.914062 4.089844 122.914062 3.789062 L 122.914062 2.132812 C 122.914062 1.832031 122.84375 1.609375 122.703125 1.46875 M 89.183594 0.046875 L 89.019531 1.941406 L 90.765625 1.253906 L 91.09375 2.226562 L 89.277344 2.605469 L 90.578125 4.121094 L 89.703125 4.761719 L 88.617188 3.007812 L 87.511719 4.761719 L 86.636719 4.121094 L 87.957031 2.605469 L 86.164062 2.226562 L 86.519531 1.230469 L 88.242188 1.941406 L 88.074219 0.046875 L 89.183594 0.046875 M 82.554688 0.046875 L 82.390625 1.941406 L 84.136719 1.253906 L 84.46875 2.226562 L 82.652344 2.605469 L 83.949219 4.121094 L 83.074219 4.761719 L 81.992188 3.007812 L 80.882812 4.761719 L 80.007812 4.121094 L 81.328125 2.605469 L 79.539062 2.226562 L 79.890625 1.230469 L 81.613281 1.941406 L 81.449219 0.046875 L 82.554688 0.046875 M 93.265625 4.121094 L 94.585938 2.605469 L 92.792969 2.226562 L 93.148438 1.230469 L 94.871094 1.941406 L 94.703125 0.046875 L 95.8125 0.046875 L 95.648438 1.941406 L 97.394531 1.253906 L 97.722656 2.226562 L 95.90625 2.605469 L 97.203125 4.121094 L 96.332031 4.761719 L 95.246094 3.007812 L 94.136719 4.761719 L 93.265625 4.121094 M 108.621094 0.332031 C 109.296875 0.332031 109.824219 0.480469 110.203125 0.78125 C 110.5625 1.082031 110.742188 1.570312 110.742188 2.25 L 110.742188 3.648438 C 110.742188 4.328125 110.5625 4.824219 110.203125 5.140625 C 109.839844 5.457031 109.320312 5.613281 108.644531 5.613281 L 107.371094 5.613281 L 107.371094 8.953125 L 106.308594 8.953125 L 106.308594 0.332031 L 108.621094 0.332031 M 109.445312 1.46875 C 109.304688 1.324219 109.078125 1.253906 108.761719 1.253906 L 107.371094 1.253906 L 107.371094 4.664062 L 108.761719 4.664062 C 109.078125 4.664062 109.304688 4.59375 109.445312 4.453125 C 109.589844 4.308594 109.660156 4.089844 109.660156 3.789062 L 109.660156 2.132812 C 109.660156 1.832031 109.589844 1.609375 109.445312 1.46875 M 113.503906 0.332031 L 116.757812 0.332031 L 116.757812 1.230469 L 115.671875 1.230469 L 115.671875 8.054688 L 116.757812 8.054688 L 116.757812 8.953125 L 113.503906 8.953125 L 113.503906 8.054688 L 114.613281 8.054688 L 114.613281 1.230469 L 113.503906 1.230469 L 113.503906 0.332031 M 49.417969 0.046875 L 49.25 1.941406 L 50.996094 1.253906 L 51.328125 2.226562 L 49.511719 2.605469 L 50.808594 4.121094 L 49.933594 4.761719 L 48.851562 3.007812 L 47.742188 4.761719 L 46.867188 4.121094 L 48.191406 2.605469 L 46.398438 2.226562 L 46.75 1.230469 L 48.472656 1.941406 L 48.308594 0.046875 L 49.417969 0.046875 M 43.308594 4.761719 L 42.222656 3.007812 L 41.113281 4.761719 L 40.242188 4.121094 L 41.5625 2.605469 L 39.769531 2.226562 L 40.121094 1.230469 L 41.84375 1.941406 L 41.679688 0.046875 L 42.789062 0.046875 L 42.621094 1.941406 L 44.367188 1.253906 L 44.699219 2.226562 L 42.882812 2.605469 L 44.179688 4.121094 L 43.308594 4.761719 M 56.042969 0.046875 L 55.878906 1.941406 L 57.625 1.253906 L 57.953125 2.226562 L 56.136719 2.605469 L 57.4375 4.121094 L 56.5625 4.761719 L 55.476562 3.007812 L 54.371094 4.761719 L 53.496094 4.121094 L 54.816406 2.605469 L 53.023438 2.226562 L 53.378906 1.230469 L 55.101562 1.941406 L 54.933594 0.046875 L 56.042969 0.046875 M 60.125 4.121094 L 61.445312 2.605469 L 59.652344 2.226562 L 60.007812 1.230469 L 61.730469 1.941406 L 61.5625 0.046875 L 62.671875 0.046875 L 62.507812 1.941406 L 64.253906 1.253906 L 64.582031 2.226562 L 62.765625 2.605469 L 64.0625 4.121094 L 63.191406 4.761719 L 62.105469 3.007812 L 60.996094 4.761719 L 60.125 4.121094 M 69.300781 0.046875 L 69.136719 1.941406 L 70.878906 1.253906 L 71.210938 2.226562 L 69.394531 2.605469 L 70.691406 4.121094 L 69.820312 4.761719 L 68.734375 3.007812 L 67.625 4.761719 L 66.753906 4.121094 L 68.074219 2.605469 L 66.28125 2.226562 L 66.636719 1.230469 L 68.355469 1.941406 L 68.191406 0.046875 L 69.300781 0.046875 M 75.929688 0.046875 L 75.761719 1.941406 L 77.507812 1.253906 L 77.839844 2.226562 L 76.023438 2.605469 L 77.320312 4.121094 L 76.449219 4.761719 L 75.363281 3.007812 L 74.253906 4.761719 L 73.382812 4.121094 L 74.703125 2.605469 L 72.910156 2.226562 L 73.261719 1.230469 L 74.984375 1.941406 L 74.820312 0.046875 L 75.929688 0.046875 M 7.101562 4.121094 L 8.421875 2.605469 L 6.628906 2.226562 L 6.980469 1.230469 L 8.703125 1.941406 L 8.539062 0.046875 L 9.648438 0.046875 L 9.480469 1.941406 L 11.226562 1.253906 L 11.558594 2.226562 L 9.742188 2.605469 L 11.039062 4.121094 C 10.757812 4.34375 10.464844 4.554688 10.167969 4.761719 L 9.082031 3.007812 L 7.972656 4.761719 L 7.101562 4.121094 M 13.609375 1.230469 L 15.332031 1.941406 L 15.167969 0.046875 L 16.277344 0.046875 L 16.109375 1.941406 L 17.855469 1.253906 L 18.1875 2.226562 L 16.371094 2.605469 L 17.667969 4.121094 L 16.792969 4.761719 L 15.710938 3.007812 L 14.601562 4.761719 L 13.726562 4.121094 L 15.050781 2.605469 L 13.257812 2.226562 L 13.609375 1.230469 M 22.902344 0.046875 L 22.738281 1.941406 L 24.484375 1.253906 L 24.8125 2.226562 L 22.996094 2.605469 L 24.296875 4.121094 L 23.421875 4.761719 L 22.335938 3.007812 L 21.230469 4.761719 L 20.355469 4.121094 L 21.675781 2.605469 L 19.882812 2.226562 L 20.238281 1.230469 L 21.960938 1.941406 L 21.796875 0.046875 L 22.902344 0.046875 M 28.304688 2.605469 L 26.511719 2.226562 L 26.867188 1.230469 L 28.589844 1.941406 L 28.421875 0.046875 L 29.53125 0.046875 L 29.367188 1.941406 L 31.113281 1.253906 L 31.441406 2.226562 L 29.625 2.605469 L 30.921875 4.121094 L 30.050781 4.761719 L 28.964844 3.007812 L 27.855469 4.761719 L 26.984375 4.121094 L 28.304688 2.605469 M 36.160156 0.046875 L 35.996094 1.941406 L 37.738281 1.253906 L 38.070312 2.226562 L 36.253906 2.605469 L 37.550781 4.121094 L 36.679688 4.761719 L 35.59375 3.007812 L 34.484375 4.761719 L 33.613281 4.121094 L 34.933594 2.605469 L 33.140625 2.226562 L 33.496094 1.230469 L 35.214844 1.941406 L 35.050781 0.046875 L 36.160156 0.046875 "/>
</g>
</svg>
