<?xml version="1.0" encoding="UTF-8"?>
<svg xmlns="http://www.w3.org/2000/svg" xmlns:xlink="http://www.w3.org/1999/xlink" width="129pt" height="31pt" viewBox="0 0 129 31" version="1.1">
<g id="surface1">
<path style=" stroke:none;fill-rule:nonzero;fill:rgb(100%,100%,100%);fill-opacity:1;" d="M 109.921875 0.460938 L 109.859375 1.195312 L 110.539062 0.929688 L 110.667969 1.304688 L 109.960938 1.453125 L 110.464844 2.042969 L 110.125 2.289062 L 109.703125 1.609375 L 109.269531 2.289062 L 108.929688 2.042969 L 109.445312 1.453125 L 108.746094 1.304688 L 108.882812 0.917969 L 109.554688 1.195312 L 109.492188 0.460938 L 109.921875 0.460938 M 107.339844 0.460938 L 107.277344 1.195312 L 107.957031 0.929688 L 108.085938 1.304688 L 107.378906 1.453125 L 107.882812 2.042969 L 107.542969 2.289062 L 107.121094 1.609375 L 106.6875 2.289062 L 106.347656 2.042969 L 106.863281 1.453125 L 106.164062 1.304688 L 106.300781 0.917969 L 106.972656 1.195312 L 106.90625 0.460938 L 107.339844 0.460938 M 112.507812 0.460938 L 112.441406 1.195312 L 113.121094 0.929688 L 113.25 1.304688 L 112.542969 1.453125 L 113.050781 2.042969 L 112.710938 2.289062 L 112.285156 1.609375 L 111.855469 2.289062 L 111.515625 2.042969 L 112.027344 1.453125 L 111.332031 1.304688 L 111.46875 0.917969 L 112.140625 1.195312 L 112.074219 0.460938 L 112.507812 0.460938 M 115.089844 0.460938 L 115.027344 1.195312 L 115.707031 0.929688 L 115.835938 1.304688 L 115.125 1.453125 L 115.632812 2.042969 L 115.292969 2.289062 L 114.871094 1.609375 L 114.4375 2.289062 L 114.097656 2.042969 L 114.613281 1.453125 L 113.914062 1.304688 L 114.050781 0.917969 L 114.722656 1.195312 L 114.65625 0.460938 L 115.089844 0.460938 M 116.679688 2.042969 L 117.195312 1.453125 L 116.496094 1.304688 L 116.632812 0.917969 L 117.304688 1.195312 L 117.242188 0.460938 L 117.671875 0.460938 L 117.609375 1.195312 L 118.289062 0.929688 L 118.417969 1.304688 L 117.710938 1.453125 L 118.214844 2.042969 L 117.875 2.289062 L 117.453125 1.609375 L 117.019531 2.289062 L 116.679688 2.042969 M 120.257812 0.460938 L 120.191406 1.195312 L 120.871094 0.929688 L 121 1.304688 L 120.292969 1.453125 L 120.800781 2.042969 L 120.457031 2.289062 L 120.035156 1.609375 L 119.605469 2.289062 L 119.265625 2.042969 L 119.777344 1.453125 L 119.078125 1.304688 L 119.21875 0.917969 L 119.890625 1.195312 L 119.824219 0.460938 L 120.257812 0.460938 M 94.421875 0.460938 L 94.359375 1.195312 L 95.039062 0.929688 L 95.167969 1.304688 L 94.460938 1.453125 L 94.964844 2.042969 L 94.625 2.289062 L 94.203125 1.609375 L 93.769531 2.289062 L 93.429688 2.042969 L 93.945312 1.453125 L 93.246094 1.304688 L 93.386719 0.917969 L 94.054688 1.195312 L 93.992188 0.460938 L 94.421875 0.460938 M 92.585938 1.304688 L 91.878906 1.453125 L 92.382812 2.042969 L 92.042969 2.289062 L 91.621094 1.609375 L 91.1875 2.289062 L 90.847656 2.042969 L 91.363281 1.453125 L 90.664062 1.304688 L 90.800781 0.917969 L 91.472656 1.195312 L 91.410156 0.460938 L 91.839844 0.460938 L 91.777344 1.195312 L 92.457031 0.929688 L 92.585938 1.304688 M 97.007812 0.460938 L 96.941406 1.195312 L 97.625 0.929688 L 97.75 1.304688 L 97.042969 1.453125 L 97.550781 2.042969 L 97.210938 2.289062 L 96.785156 1.609375 L 96.355469 2.289062 L 96.015625 2.042969 L 96.527344 1.453125 L 95.832031 1.304688 L 95.96875 0.917969 L 96.640625 1.195312 L 96.574219 0.460938 L 97.007812 0.460938 M 98.550781 0.917969 L 99.222656 1.195312 L 99.160156 0.460938 L 99.589844 0.460938 L 99.527344 1.195312 L 100.207031 0.929688 L 100.335938 1.304688 L 99.628906 1.453125 L 100.132812 2.042969 L 99.792969 2.289062 L 99.371094 1.609375 L 98.9375 2.289062 L 98.597656 2.042969 L 99.113281 1.453125 L 98.414062 1.304688 L 98.550781 0.917969 M 102.171875 0.460938 L 102.109375 1.195312 L 102.789062 0.929688 L 102.917969 1.304688 L 102.210938 1.453125 L 102.714844 2.042969 L 102.375 2.289062 L 101.953125 1.609375 L 101.519531 2.289062 L 101.179688 2.042969 L 101.695312 1.453125 L 100.996094 1.304688 L 101.136719 0.917969 L 101.804688 1.195312 L 101.742188 0.460938 L 102.171875 0.460938 M 103.765625 2.042969 L 104.277344 1.453125 L 103.582031 1.304688 L 103.71875 0.917969 L 104.390625 1.195312 L 104.324219 0.460938 L 104.757812 0.460938 L 104.691406 1.195312 L 105.371094 0.929688 L 105.5 1.304688 L 104.792969 1.453125 L 105.300781 2.042969 L 104.960938 2.289062 L 104.535156 1.609375 L 104.105469 2.289062 L 103.765625 2.042969 M 81.34375 0.570312 C 81.582031 0.570312 81.773438 0.632812 81.921875 0.761719 C 82.066406 0.898438 82.140625 1.105469 82.140625 1.378906 L 82.140625 3.109375 C 82.140625 3.378906 82.066406 3.582031 81.921875 3.714844 C 81.773438 3.851562 81.582031 3.917969 81.34375 3.917969 L 81.242188 3.917969 C 81 3.917969 80.808594 3.851562 80.660156 3.714844 C 80.515625 3.582031 80.441406 3.378906 80.441406 3.109375 L 80.441406 1.378906 C 80.441406 1.105469 80.515625 0.898438 80.660156 0.761719 C 80.808594 0.632812 81 0.570312 81.242188 0.570312 L 81.34375 0.570312 M 80.957031 1.039062 C 80.882812 1.113281 80.84375 1.199219 80.84375 1.296875 L 80.84375 2.59375 L 81.738281 1.296875 C 81.738281 1.199219 81.699219 1.113281 81.625 1.039062 C 81.558594 0.964844 81.464844 0.929688 81.34375 0.929688 L 81.242188 0.929688 C 81.117188 0.929688 81.023438 0.964844 80.957031 1.039062 M 86.5 0.570312 C 86.746094 0.570312 86.933594 0.628906 87.070312 0.746094 C 87.210938 0.863281 87.28125 1.050781 87.28125 1.316406 L 87.28125 1.617188 C 87.28125 1.871094 87.195312 2.054688 87.023438 2.171875 C 87.128906 2.226562 87.207031 2.300781 87.261719 2.398438 C 87.3125 2.5 87.335938 2.617188 87.335938 2.757812 L 87.335938 3.164062 C 87.335938 3.425781 87.273438 3.617188 87.152344 3.734375 C 87.023438 3.855469 86.816406 3.917969 86.527344 3.917969 L 86.390625 3.917969 C 86.101562 3.917969 85.890625 3.855469 85.765625 3.734375 C 85.640625 3.617188 85.578125 3.425781 85.578125 3.164062 L 85.578125 2.757812 C 85.578125 2.617188 85.605469 2.5 85.652344 2.398438 C 85.707031 2.300781 85.785156 2.226562 85.882812 2.171875 C 85.71875 2.054688 85.636719 1.871094 85.636719 1.617188 L 85.636719 1.316406 C 85.636719 1.050781 85.707031 0.863281 85.847656 0.746094 C 85.980469 0.628906 86.167969 0.570312 86.40625 0.570312 L 86.5 0.570312 M 86.867188 1.269531 C 86.867188 1.152344 86.839844 1.066406 86.785156 1.011719 C 86.730469 0.957031 86.644531 0.929688 86.527344 0.929688 L 86.351562 0.929688 C 86.242188 0.933594 86.164062 0.964844 86.121094 1.019531 C 86.074219 1.074219 86.050781 1.160156 86.050781 1.269531 L 86.050781 1.664062 C 86.050781 1.769531 86.078125 1.851562 86.140625 1.914062 C 86.203125 1.972656 86.277344 2.007812 86.363281 2.015625 L 86.527344 2.015625 C 86.617188 2.015625 86.699219 1.984375 86.765625 1.921875 C 86.832031 1.859375 86.867188 1.773438 86.867188 1.664062 L 86.867188 1.269531 M 86.09375 2.464844 C 86.027344 2.527344 85.992188 2.609375 85.992188 2.710938 L 85.992188 3.210938 C 85.992188 3.324219 86.019531 3.414062 86.066406 3.476562 C 86.117188 3.53125 86.195312 3.558594 86.304688 3.558594 L 86.5625 3.558594 C 86.6875 3.558594 86.777344 3.53125 86.839844 3.476562 C 86.894531 3.421875 86.921875 3.332031 86.921875 3.210938 L 86.921875 2.710938 C 86.921875 2.609375 86.886719 2.527344 86.820312 2.464844 C 86.761719 2.402344 86.675781 2.371094 86.574219 2.371094 L 86.34375 2.371094 C 86.238281 2.371094 86.15625 2.402344 86.09375 2.464844 M 62.726562 0 L 63.148438 0 L 63.359375 0.25 L 63.527344 0.5625 L 63.644531 0.976562 L 63.683594 1.5 L 63.683594 2.988281 L 63.644531 3.523438 L 63.527344 3.925781 L 63.359375 4.25 L 63.148438 4.488281 L 62.726562 4.488281 L 62.992188 4.148438 L 63.167969 3.835938 L 63.25 3.476562 L 63.277344 2.996094 L 63.277344 1.488281 L 63.25 1.011719 L 63.167969 0.652344 L 62.992188 0.339844 L 62.726562 0 M 67.773438 0.570312 L 68.34375 3.496094 L 68.957031 0.570312 L 69.371094 0.570312 L 68.617188 3.917969 L 68.058594 3.917969 L 67.351562 0.570312 L 67.773438 0.570312 M 70.164062 0.570312 L 71.714844 0.570312 L 71.714844 1.03125 L 70.878906 3.917969 L 70.449219 3.917969 L 71.320312 0.929688 L 70.164062 0.929688 L 70.164062 0.570312 M 75.945312 0.570312 L 76.40625 0.570312 L 76.40625 3.558594 L 76.921875 3.558594 L 76.921875 3.917969 L 75.367188 3.917969 L 75.367188 3.558594 L 75.992188 3.558594 L 75.992188 0.945312 L 75.320312 1.195312 L 75.320312 0.808594 L 75.945312 0.570312 M 73.777344 3.4375 L 73.777344 3.917969 L 73.296875 3.917969 L 73.296875 3.4375 L 73.777344 3.4375 M 84.109375 3.917969 L 83.632812 3.917969 L 83.632812 3.4375 L 84.109375 3.4375 L 84.109375 3.917969 M 81.34375 3.558594 C 81.464844 3.558594 81.558594 3.523438 81.625 3.449219 C 81.699219 3.375 81.738281 3.289062 81.738281 3.191406 L 81.738281 1.902344 L 80.84375 3.191406 C 80.84375 3.289062 80.882812 3.375 80.957031 3.449219 C 81.023438 3.523438 81.117188 3.558594 81.242188 3.558594 L 81.34375 3.558594 M 78.941406 3.917969 L 78.464844 3.917969 L 78.464844 3.4375 L 78.941406 3.4375 L 78.941406 3.917969 M 122.839844 0.460938 L 122.777344 1.195312 L 123.457031 0.929688 L 123.585938 1.304688 L 122.875 1.453125 L 123.382812 2.042969 L 123.042969 2.289062 L 122.621094 1.609375 L 122.1875 2.289062 L 121.847656 2.042969 L 122.363281 1.453125 L 121.664062 1.304688 L 121.800781 0.917969 L 122.472656 1.195312 L 122.40625 0.460938 L 122.839844 0.460938 M 124.382812 0.917969 L 125.054688 1.195312 L 124.992188 0.460938 L 125.421875 0.460938 L 125.359375 1.195312 L 126.039062 0.929688 L 126.167969 1.304688 L 125.460938 1.453125 L 125.964844 2.042969 L 125.625 2.289062 L 125.203125 1.609375 L 124.769531 2.289062 L 124.429688 2.042969 L 124.945312 1.453125 L 124.246094 1.304688 L 124.382812 0.917969 M 128.007812 0.460938 L 127.941406 1.195312 L 128.621094 0.929688 L 128.75 1.304688 L 128.042969 1.453125 L 128.550781 2.042969 L 128.207031 2.289062 L 127.785156 1.609375 L 127.355469 2.289062 L 127.015625 2.042969 L 127.527344 1.453125 L 126.828125 1.304688 L 126.96875 0.917969 L 127.640625 1.195312 L 127.574219 0.460938 L 128.007812 0.460938 M 1.425781 0.460938 L 1.359375 1.195312 L 2.042969 0.929688 L 2.171875 1.304688 L 1.460938 1.453125 L 1.96875 2.042969 L 1.628906 2.289062 L 1.203125 1.609375 L 0.773438 2.289062 L 0.433594 2.042969 L 0.949219 1.453125 L 0.25 1.304688 L 0.386719 0.917969 L 1.058594 1.195312 L 0.992188 0.460938 L 1.425781 0.460938 M 1.976562 22.605469 L 1.25 22.605469 C 1.128906 22.605469 1.03125 22.636719 0.957031 22.707031 C 0.890625 22.777344 0.855469 22.863281 0.855469 22.960938 L 0.855469 24.855469 C 0.855469 24.957031 0.890625 25.039062 0.957031 25.113281 C 1.03125 25.183594 1.128906 25.214844 1.25 25.214844 L 1.976562 25.214844 L 1.976562 25.582031 L 1.296875 25.582031 C 1.019531 25.582031 0.808594 25.515625 0.664062 25.382812 C 0.515625 25.246094 0.441406 25.042969 0.441406 24.773438 L 0.441406 23.046875 C 0.441406 22.777344 0.515625 22.574219 0.664062 22.4375 C 0.808594 22.304688 1.019531 22.234375 1.296875 22.234375 L 1.976562 22.234375 L 1.976562 22.605469 M 0.882812 27.652344 L 0.882812 30.632812 L 1.949219 30.632812 L 1.949219 31 L 0.46875 31 L 0.46875 27.652344 L 0.882812 27.652344 M 48.367188 0.746094 C 48.507812 0.863281 48.578125 1.050781 48.578125 1.316406 L 48.578125 1.859375 C 48.578125 2.121094 48.507812 2.3125 48.367188 2.4375 C 48.226562 2.558594 48.023438 2.621094 47.757812 2.621094 L 47.261719 2.621094 L 47.261719 3.917969 L 46.847656 3.917969 L 46.847656 0.570312 L 47.75 0.570312 C 48.011719 0.570312 48.21875 0.628906 48.367188 0.746094 M 48.070312 1.011719 C 48.015625 0.957031 47.929688 0.929688 47.804688 0.929688 L 47.261719 0.929688 L 47.261719 2.253906 L 47.804688 2.253906 C 47.929688 2.253906 48.015625 2.226562 48.070312 2.171875 C 48.125 2.113281 48.15625 2.027344 48.15625 1.914062 L 48.15625 1.269531 C 48.15625 1.152344 48.125 1.066406 48.070312 1.011719 M 49.515625 2.242188 L 51.070312 2.242188 L 51.070312 2.601562 L 49.515625 2.601562 L 49.515625 2.242188 M 52.972656 0.570312 C 53.246094 0.570312 53.457031 0.636719 53.605469 0.773438 C 53.757812 0.90625 53.835938 1.109375 53.835938 1.378906 L 53.835938 3.109375 C 53.835938 3.378906 53.757812 3.582031 53.605469 3.714844 C 53.457031 3.851562 53.246094 3.917969 52.972656 3.917969 L 52.777344 3.917969 C 52.503906 3.917969 52.289062 3.851562 52.136719 3.714844 C 51.988281 3.582031 51.914062 3.378906 51.914062 3.109375 L 51.914062 1.378906 C 51.914062 1.109375 51.988281 0.90625 52.136719 0.773438 C 52.289062 0.636719 52.503906 0.570312 52.777344 0.570312 L 52.972656 0.570312 M 52.734375 0.9375 C 52.609375 0.9375 52.511719 0.972656 52.4375 1.039062 C 52.371094 1.113281 52.335938 1.199219 52.335938 1.296875 L 52.335938 3.191406 C 52.335938 3.289062 52.371094 3.375 52.4375 3.449219 C 52.511719 3.515625 52.609375 3.550781 52.734375 3.550781 L 53.019531 3.550781 C 53.140625 3.550781 53.238281 3.515625 53.3125 3.449219 C 53.378906 3.375 53.414062 3.289062 53.414062 3.191406 L 53.414062 1.296875 C 53.414062 1.199219 53.378906 1.113281 53.3125 1.039062 C 53.238281 0.972656 53.140625 0.9375 53.019531 0.9375 L 52.734375 0.9375 M 57.890625 0.25 L 58.101562 0 L 58.515625 0 L 58.257812 0.339844 L 58.082031 0.652344 L 57.992188 1.011719 L 57.972656 1.488281 L 57.972656 2.996094 L 57.992188 3.476562 L 58.082031 3.835938 L 58.257812 4.148438 L 58.515625 4.488281 L 58.101562 4.488281 L 57.890625 4.25 L 57.726562 3.925781 L 57.605469 3.523438 L 57.558594 2.988281 L 57.558594 1.5 L 57.605469 0.976562 L 57.726562 0.5625 L 57.890625 0.25 M 55.167969 1.039062 C 55.09375 1.113281 55.058594 1.199219 55.058594 1.296875 L 55.058594 1.65625 C 55.058594 1.753906 55.089844 1.835938 55.152344 1.902344 C 55.21875 1.972656 55.304688 2.003906 55.40625 2.003906 L 55.546875 2.003906 C 55.765625 2.003906 55.941406 2.066406 56.070312 2.1875 C 56.199219 2.316406 56.261719 2.515625 56.261719 2.785156 L 56.261719 3.109375 C 56.261719 3.378906 56.1875 3.582031 56.042969 3.714844 C 55.894531 3.851562 55.683594 3.917969 55.40625 3.917969 L 54.726562 3.917969 L 54.726562 3.550781 L 55.453125 3.550781 C 55.578125 3.550781 55.671875 3.515625 55.738281 3.449219 C 55.8125 3.375 55.847656 3.292969 55.847656 3.199219 L 55.847656 2.695312 C 55.847656 2.601562 55.824219 2.527344 55.777344 2.472656 C 55.734375 2.414062 55.660156 2.382812 55.554688 2.382812 L 55.40625 2.382812 C 55.179688 2.382812 54.996094 2.3125 54.855469 2.179688 C 54.714844 2.042969 54.644531 1.839844 54.644531 1.5625 L 54.644531 1.386719 C 54.644531 1.113281 54.71875 0.90625 54.867188 0.773438 C 55.011719 0.636719 55.222656 0.570312 55.5 0.570312 L 56.1875 0.570312 L 56.1875 0.9375 L 55.453125 0.9375 C 55.335938 0.9375 55.242188 0.972656 55.167969 1.039062 M 61.179688 0.746094 C 61.320312 0.863281 61.394531 1.050781 61.394531 1.316406 L 61.394531 1.773438 C 61.394531 1.964844 61.355469 2.113281 61.28125 2.226562 C 61.203125 2.328125 61.09375 2.402344 60.960938 2.445312 L 61.621094 3.917969 L 61.171875 3.917969 L 60.554688 2.527344 L 60.085938 2.527344 L 60.085938 3.917969 L 59.664062 3.917969 L 59.664062 0.570312 L 60.566406 0.570312 C 60.828125 0.570312 61.035156 0.628906 61.179688 0.746094 M 60.886719 1.011719 C 60.832031 0.957031 60.742188 0.929688 60.621094 0.929688 L 60.085938 0.929688 L 60.085938 2.171875 L 60.621094 2.171875 C 60.742188 2.171875 60.832031 2.144531 60.886719 2.085938 C 60.941406 2.03125 60.96875 1.945312 60.96875 1.820312 L 60.96875 1.269531 C 60.96875 1.152344 60.941406 1.066406 60.886719 1.011719 M 35.007812 0.460938 L 34.945312 1.195312 L 35.625 0.929688 L 35.753906 1.304688 L 35.046875 1.453125 L 35.550781 2.042969 L 35.210938 2.289062 L 34.789062 1.609375 L 34.355469 2.289062 L 34.015625 2.042969 L 34.53125 1.453125 L 33.832031 1.304688 L 33.96875 0.917969 L 34.640625 1.195312 L 34.578125 0.460938 L 35.007812 0.460938 M 32.425781 0.460938 L 32.359375 1.195312 L 33.039062 0.929688 L 33.167969 1.304688 L 32.460938 1.453125 L 32.96875 2.042969 L 32.628906 2.289062 L 32.203125 1.609375 L 31.773438 2.289062 L 31.433594 2.042969 L 31.945312 1.453125 L 31.25 1.304688 L 31.386719 0.917969 L 32.058594 1.195312 L 31.992188 0.460938 L 32.425781 0.460938 M 36.597656 2.042969 L 37.113281 1.453125 L 36.414062 1.304688 L 36.550781 0.917969 L 37.222656 1.195312 L 37.160156 0.460938 L 37.589844 0.460938 L 37.527344 1.195312 L 38.207031 0.929688 L 38.335938 1.304688 L 37.628906 1.453125 L 38.132812 2.042969 L 37.792969 2.289062 L 37.371094 1.609375 L 36.9375 2.289062 L 36.597656 2.042969 M 42.582031 0.570312 C 42.847656 0.570312 43.050781 0.628906 43.199219 0.746094 C 43.339844 0.863281 43.410156 1.050781 43.410156 1.316406 L 43.410156 1.859375 C 43.410156 2.121094 43.339844 2.3125 43.199219 2.4375 C 43.058594 2.558594 42.855469 2.621094 42.59375 2.621094 L 42.097656 2.621094 L 42.097656 3.917969 L 41.683594 3.917969 L 41.683594 0.570312 L 42.582031 0.570312 M 42.90625 1.011719 C 42.851562 0.957031 42.761719 0.929688 42.636719 0.929688 L 42.097656 0.929688 L 42.097656 2.253906 L 42.636719 2.253906 C 42.761719 2.253906 42.851562 2.226562 42.90625 2.171875 C 42.960938 2.113281 42.988281 2.027344 42.988281 1.914062 L 42.988281 1.269531 C 42.988281 1.152344 42.960938 1.066406 42.90625 1.011719 M 44.488281 0.570312 L 45.753906 0.570312 L 45.753906 0.917969 L 45.332031 0.917969 L 45.332031 3.566406 L 45.753906 3.566406 L 45.753906 3.917969 L 44.488281 3.917969 L 44.488281 3.566406 L 44.917969 3.566406 L 44.917969 0.917969 L 44.488281 0.917969 L 44.488281 0.570312 M 19.507812 0.460938 L 19.445312 1.195312 L 20.125 0.929688 L 20.253906 1.304688 L 19.546875 1.453125 L 20.050781 2.042969 L 19.710938 2.289062 L 19.289062 1.609375 L 18.855469 2.289062 L 18.515625 2.042969 L 19.03125 1.453125 L 18.332031 1.304688 L 18.46875 0.917969 L 19.140625 1.195312 L 19.078125 0.460938 L 19.507812 0.460938 M 17.128906 2.289062 L 16.703125 1.609375 L 16.273438 2.289062 L 15.933594 2.042969 L 16.445312 1.453125 L 15.75 1.304688 L 15.886719 0.917969 L 16.558594 1.195312 L 16.492188 0.460938 L 16.925781 0.460938 L 16.859375 1.195312 L 17.542969 0.929688 L 17.667969 1.304688 L 16.960938 1.453125 L 17.46875 2.042969 L 17.128906 2.289062 M 22.09375 0.460938 L 22.027344 1.195312 L 22.707031 0.929688 L 22.835938 1.304688 L 22.128906 1.453125 L 22.632812 2.042969 L 22.292969 2.289062 L 21.871094 1.609375 L 21.4375 2.289062 L 21.097656 2.042969 L 21.613281 1.453125 L 20.914062 1.304688 L 21.054688 0.917969 L 21.722656 1.195312 L 21.660156 0.460938 L 22.09375 0.460938 M 23.683594 2.042969 L 24.195312 1.453125 L 23.5 1.304688 L 23.636719 0.917969 L 24.308594 1.195312 L 24.242188 0.460938 L 24.675781 0.460938 L 24.609375 1.195312 L 25.292969 0.929688 L 25.417969 1.304688 L 24.710938 1.453125 L 25.21875 2.042969 L 24.878906 2.289062 L 24.453125 1.609375 L 24.023438 2.289062 L 23.683594 2.042969 M 27.257812 0.460938 L 27.195312 1.195312 L 27.875 0.929688 L 28.003906 1.304688 L 27.296875 1.453125 L 27.800781 2.042969 L 27.460938 2.289062 L 27.039062 1.609375 L 26.605469 2.289062 L 26.265625 2.042969 L 26.78125 1.453125 L 26.082031 1.304688 L 26.21875 0.917969 L 26.890625 1.195312 L 26.828125 0.460938 L 27.257812 0.460938 M 29.839844 0.460938 L 29.777344 1.195312 L 30.457031 0.929688 L 30.585938 1.304688 L 29.878906 1.453125 L 30.382812 2.042969 L 30.042969 2.289062 L 29.621094 1.609375 L 29.1875 2.289062 L 28.847656 2.042969 L 29.363281 1.453125 L 28.664062 1.304688 L 28.804688 0.917969 L 29.472656 1.195312 L 29.410156 0.460938 L 29.839844 0.460938 M 3.015625 2.042969 L 3.53125 1.453125 L 2.832031 1.304688 L 2.96875 0.917969 L 3.640625 1.195312 L 3.578125 0.460938 L 4.007812 0.460938 L 3.945312 1.195312 L 4.625 0.929688 L 4.753906 1.304688 L 4.046875 1.453125 L 4.550781 2.042969 C 4.441406 2.128906 4.328125 2.210938 4.210938 2.289062 L 3.789062 1.609375 L 3.355469 2.289062 L 3.015625 2.042969 M 5.554688 0.917969 L 6.222656 1.195312 L 6.160156 0.460938 L 6.59375 0.460938 L 6.527344 1.195312 L 7.207031 0.929688 L 7.335938 1.304688 L 6.628906 1.453125 L 7.132812 2.042969 L 6.792969 2.289062 L 6.371094 1.609375 L 5.9375 2.289062 L 5.597656 2.042969 L 6.113281 1.453125 L 5.414062 1.304688 L 5.554688 0.917969 M 9.175781 0.460938 L 9.109375 1.195312 L 9.792969 0.929688 L 9.921875 1.304688 L 9.210938 1.453125 L 9.71875 2.042969 L 9.378906 2.289062 L 8.953125 1.609375 L 8.523438 2.289062 L 8.183594 2.042969 L 8.699219 1.453125 L 8 1.304688 L 8.136719 0.917969 L 8.808594 1.195312 L 8.742188 0.460938 L 9.175781 0.460938 M 11.28125 1.453125 L 10.582031 1.304688 L 10.71875 0.917969 L 11.390625 1.195312 L 11.328125 0.460938 L 11.757812 0.460938 L 11.695312 1.195312 L 12.375 0.929688 L 12.503906 1.304688 L 11.796875 1.453125 L 12.300781 2.042969 L 11.960938 2.289062 L 11.539062 1.609375 L 11.105469 2.289062 L 10.765625 2.042969 L 11.28125 1.453125 M 14.34375 0.460938 L 14.277344 1.195312 L 14.957031 0.929688 L 15.085938 1.304688 L 14.378906 1.453125 L 14.882812 2.042969 L 14.542969 2.289062 L 14.121094 1.609375 L 13.6875 2.289062 L 13.347656 2.042969 L 13.863281 1.453125 L 13.164062 1.304688 L 13.304688 0.917969 L 13.972656 1.195312 L 13.910156 0.460938 L 14.34375 0.460938 M 31.332031 22.308594 L 32.847656 22.308594 L 32.847656 22.761719 L 32.019531 25.582031 L 31.617188 25.582031 L 32.460938 22.660156 L 31.332031 22.660156 L 31.332031 22.308594 M 30.421875 23.089844 L 30.421875 24.785156 C 30.421875 25.054688 30.347656 25.253906 30.199219 25.382812 C 30.054688 25.515625 29.867188 25.582031 29.640625 25.582031 L 29.539062 25.582031 C 29.304688 25.582031 29.117188 25.515625 28.96875 25.382812 C 28.820312 25.253906 28.746094 25.054688 28.746094 24.785156 L 28.746094 23.089844 C 28.746094 22.828125 28.820312 22.632812 28.96875 22.503906 C 29.117188 22.375 29.304688 22.308594 29.539062 22.308594 L 29.640625 22.308594 C 29.867188 22.308594 30.054688 22.375 30.199219 22.503906 C 30.347656 22.632812 30.421875 22.828125 30.421875 23.089844 M 29.253906 22.761719 C 29.1875 22.832031 29.152344 22.917969 29.152344 23.019531 L 29.152344 24.285156 L 30.015625 23.019531 C 30.015625 22.917969 29.984375 22.832031 29.925781 22.761719 C 29.851562 22.691406 29.757812 22.660156 29.640625 22.660156 L 29.539062 22.660156 C 29.414062 22.660156 29.320312 22.691406 29.253906 22.761719 M 29.253906 25.125 C 29.320312 25.199219 29.414062 25.234375 29.539062 25.234375 L 29.640625 25.234375 C 29.757812 25.234375 29.851562 25.199219 29.925781 25.125 C 29.984375 25.050781 30.015625 24.964844 30.015625 24.867188 L 30.015625 23.617188 L 29.152344 24.867188 C 29.152344 24.964844 29.1875 25.050781 29.253906 25.125 M 26.898438 22.308594 C 27.175781 22.308594 27.382812 22.375 27.523438 22.503906 C 27.664062 22.632812 27.738281 22.828125 27.738281 23.089844 L 27.738281 23.304688 L 27.71875 23.605469 L 27.664062 23.828125 L 27.5625 24.019531 L 27.414062 24.25 L 26.726562 25.214844 L 27.835938 25.214844 L 27.835938 25.582031 L 26.285156 25.582031 L 26.285156 25.167969 L 27.039062 24.101562 L 27.195312 23.871094 L 27.277344 23.707031 L 27.332031 23.542969 L 27.339844 23.339844 L 27.339844 23.019531 C 27.339844 22.917969 27.304688 22.832031 27.230469 22.761719 C 27.164062 22.691406 27.070312 22.660156 26.945312 22.660156 L 26.386719 22.660156 L 26.386719 22.308594 L 26.898438 22.308594 M 21.667969 22.605469 L 20.90625 22.605469 L 20.90625 22.234375 L 22.84375 22.234375 L 22.84375 22.605469 L 22.082031 22.605469 L 22.082031 25.582031 L 21.667969 25.582031 L 21.667969 22.605469 M 20.199219 22.234375 L 20.199219 25.582031 L 19.785156 25.582031 L 19.785156 24.046875 L 18.800781 24.046875 L 18.800781 25.582031 L 18.386719 25.582031 L 18.386719 22.234375 L 18.800781 22.234375 L 18.800781 23.6875 L 19.785156 23.6875 L 19.785156 22.234375 L 20.199219 22.234375 M 17.402344 22.605469 L 16.675781 22.605469 C 16.5625 22.605469 16.464844 22.636719 16.390625 22.707031 C 16.320312 22.777344 16.28125 22.863281 16.28125 22.960938 L 16.28125 24.855469 C 16.28125 24.957031 16.320312 25.039062 16.390625 25.113281 C 16.464844 25.183594 16.5625 25.214844 16.675781 25.214844 L 17.144531 25.214844 L 17.144531 24.1875 L 16.730469 24.1875 L 16.730469 23.828125 L 17.542969 23.828125 L 17.542969 25.582031 L 16.722656 25.582031 C 16.445312 25.582031 16.234375 25.515625 16.089844 25.382812 C 15.941406 25.246094 15.867188 25.042969 15.867188 24.773438 L 15.867188 23.046875 C 15.867188 22.777344 15.941406 22.574219 16.089844 22.4375 C 16.234375 22.304688 16.445312 22.234375 16.722656 22.234375 L 17.402344 22.234375 L 17.402344 22.605469 M 14.753906 22.234375 L 14.753906 22.585938 L 14.332031 22.585938 L 14.332031 25.234375 L 14.753906 25.234375 L 14.753906 25.582031 L 13.488281 25.582031 L 13.488281 25.234375 L 13.917969 25.234375 L 13.917969 22.585938 L 13.488281 22.585938 L 13.488281 22.234375 L 14.753906 22.234375 M 12.308594 22.980469 L 12.308594 23.441406 C 12.308594 23.632812 12.273438 23.78125 12.199219 23.890625 C 12.121094 23.996094 12.011719 24.070312 11.878906 24.113281 L 12.539062 25.582031 L 12.089844 25.582031 L 11.472656 24.195312 L 11.003906 24.195312 L 11.003906 25.582031 L 10.582031 25.582031 L 10.582031 22.234375 L 11.484375 22.234375 C 11.746094 22.234375 11.953125 22.292969 12.097656 22.410156 C 12.238281 22.527344 12.308594 22.71875 12.308594 22.980469 M 11.539062 22.59375 L 11.003906 22.59375 L 11.003906 23.835938 L 11.539062 23.835938 C 11.660156 23.835938 11.75 23.808594 11.804688 23.753906 C 11.859375 23.699219 11.886719 23.609375 11.886719 23.488281 L 11.886719 22.933594 C 11.886719 22.820312 11.859375 22.734375 11.804688 22.675781 C 11.75 22.621094 11.660156 22.59375 11.539062 22.59375 M 10.03125 22.234375 L 9.167969 24.03125 L 9.167969 25.582031 L 8.734375 25.582031 L 8.734375 24.03125 L 7.878906 22.234375 L 8.339844 22.234375 L 8.964844 23.625 L 9.597656 22.234375 L 10.03125 22.234375 M 6.738281 22.675781 C 6.683594 22.621094 6.59375 22.59375 6.472656 22.59375 L 5.929688 22.59375 L 5.929688 23.917969 L 6.472656 23.917969 C 6.59375 23.917969 6.683594 23.890625 6.738281 23.835938 C 6.792969 23.78125 6.820312 23.695312 6.820312 23.578125 L 6.820312 22.933594 C 6.820312 22.820312 6.792969 22.734375 6.738281 22.675781 M 7.246094 22.980469 L 7.246094 23.523438 C 7.246094 23.789062 7.175781 23.980469 7.035156 24.101562 C 6.890625 24.226562 6.691406 24.285156 6.425781 24.285156 L 5.929688 24.285156 L 5.929688 25.582031 L 5.515625 25.582031 L 5.515625 22.234375 L 6.417969 22.234375 C 6.679688 22.234375 6.886719 22.292969 7.035156 22.410156 C 7.175781 22.527344 7.246094 22.71875 7.246094 22.980469 M 4.753906 23.046875 L 4.753906 24.773438 C 4.753906 25.042969 4.675781 25.246094 4.523438 25.382812 C 4.375 25.515625 4.164062 25.582031 3.890625 25.582031 L 3.695312 25.582031 C 3.421875 25.582031 3.207031 25.515625 3.054688 25.382812 C 2.90625 25.246094 2.832031 25.042969 2.832031 24.773438 L 2.832031 23.046875 C 2.832031 22.777344 2.90625 22.574219 3.054688 22.4375 C 3.207031 22.304688 3.421875 22.234375 3.695312 22.234375 L 3.890625 22.234375 C 4.164062 22.234375 4.375 22.304688 4.523438 22.4375 C 4.675781 22.574219 4.753906 22.777344 4.753906 23.046875 M 4.230469 22.707031 C 4.15625 22.636719 4.058594 22.605469 3.933594 22.605469 L 3.648438 22.605469 C 3.527344 22.605469 3.429688 22.636719 3.355469 22.707031 C 3.289062 22.777344 3.253906 22.863281 3.253906 22.960938 L 3.253906 24.855469 C 3.253906 24.957031 3.289062 25.039062 3.355469 25.113281 C 3.429688 25.183594 3.527344 25.214844 3.648438 25.214844 L 3.933594 25.214844 C 4.058594 25.214844 4.15625 25.183594 4.230469 25.113281 C 4.296875 25.039062 4.332031 24.957031 4.332031 24.855469 L 4.332031 22.960938 C 4.332031 22.863281 4.296875 22.777344 4.230469 22.707031 M 3.890625 27.652344 C 4.164062 27.652344 4.375 27.71875 4.523438 27.855469 C 4.675781 27.988281 4.753906 28.191406 4.753906 28.460938 L 4.753906 30.191406 C 4.753906 30.460938 4.675781 30.664062 4.523438 30.796875 C 4.375 30.933594 4.164062 31 3.890625 31 L 3.695312 31 C 3.421875 31 3.207031 30.933594 3.054688 30.796875 C 2.90625 30.664062 2.832031 30.460938 2.832031 30.191406 L 2.832031 28.460938 C 2.832031 28.191406 2.90625 27.988281 3.054688 27.855469 C 3.207031 27.71875 3.421875 27.652344 3.695312 27.652344 L 3.890625 27.652344 M 3.648438 28.019531 C 3.527344 28.019531 3.429688 28.054688 3.355469 28.121094 C 3.289062 28.195312 3.253906 28.28125 3.253906 28.378906 L 3.253906 30.273438 C 3.253906 30.371094 3.289062 30.457031 3.355469 30.53125 C 3.429688 30.597656 3.527344 30.632812 3.648438 30.632812 L 3.933594 30.632812 C 4.058594 30.632812 4.15625 30.597656 4.230469 30.53125 C 4.296875 30.457031 4.332031 30.371094 4.332031 30.273438 L 4.332031 28.378906 C 4.332031 28.28125 4.296875 28.195312 4.230469 28.121094 C 4.15625 28.054688 4.058594 28.019531 3.933594 28.019531 L 3.648438 28.019531 M 58.476562 22.640625 L 58.515625 23.164062 L 58.515625 24.65625 L 58.476562 25.1875 C 58.449219 25.339844 58.40625 25.476562 58.359375 25.59375 C 58.316406 25.714844 58.261719 25.824219 58.195312 25.914062 L 57.980469 26.152344 L 57.558594 26.152344 C 57.667969 26.03125 57.757812 25.917969 57.824219 25.8125 C 57.894531 25.714844 57.953125 25.609375 58 25.5 C 58.039062 25.398438 58.066406 25.277344 58.082031 25.140625 C 58.101562 25.007812 58.109375 24.847656 58.109375 24.664062 L 58.109375 23.15625 C 58.109375 22.972656 58.101562 22.8125 58.082031 22.675781 L 58 22.320312 L 57.824219 22.007812 L 57.558594 21.664062 L 57.980469 21.664062 L 58.195312 21.914062 L 58.359375 22.226562 C 58.40625 22.34375 58.449219 22.480469 58.476562 22.640625 M 56.226562 23.441406 C 56.226562 23.632812 56.1875 23.78125 56.117188 23.890625 C 56.035156 23.996094 55.929688 24.070312 55.792969 24.113281 L 56.457031 25.582031 L 56.003906 25.582031 L 55.390625 24.195312 L 54.921875 24.195312 L 54.921875 25.582031 L 54.496094 25.582031 L 54.496094 22.234375 L 55.398438 22.234375 C 55.664062 22.234375 55.867188 22.292969 56.015625 22.410156 C 56.15625 22.527344 56.226562 22.71875 56.226562 22.980469 L 56.226562 23.441406 M 55.804688 22.933594 C 55.804688 22.820312 55.777344 22.734375 55.71875 22.675781 C 55.664062 22.621094 55.578125 22.59375 55.453125 22.59375 L 54.921875 22.59375 L 54.921875 23.835938 L 55.453125 23.835938 C 55.578125 23.835938 55.664062 23.808594 55.71875 23.753906 C 55.777344 23.699219 55.804688 23.609375 55.804688 23.488281 L 55.804688 22.933594 M 52.722656 21.914062 L 52.933594 21.664062 L 53.347656 21.664062 L 53.089844 22.007812 L 52.917969 22.320312 L 52.824219 22.675781 L 52.804688 23.15625 L 52.804688 24.664062 L 52.824219 25.140625 L 52.917969 25.5 L 53.089844 25.8125 L 53.347656 26.152344 L 52.933594 26.152344 L 52.722656 25.914062 L 52.558594 25.59375 L 52.4375 25.1875 L 52.390625 24.65625 L 52.390625 23.164062 L 52.4375 22.640625 L 52.558594 22.226562 L 52.722656 21.914062 M 51.253906 23.046875 L 51.253906 24.773438 C 51.253906 25.042969 51.175781 25.246094 51.023438 25.382812 C 50.875 25.515625 50.664062 25.582031 50.386719 25.582031 L 50.195312 25.582031 C 49.917969 25.582031 49.707031 25.515625 49.550781 25.382812 C 49.40625 25.246094 49.332031 25.042969 49.332031 24.773438 L 49.332031 23.046875 C 49.332031 22.777344 49.40625 22.574219 49.550781 22.4375 C 49.707031 22.304688 49.917969 22.234375 50.195312 22.234375 L 50.386719 22.234375 C 50.664062 22.234375 50.875 22.304688 51.023438 22.4375 C 51.175781 22.574219 51.253906 22.777344 51.253906 23.046875 M 50.730469 22.707031 C 50.65625 22.636719 50.558594 22.605469 50.433594 22.605469 L 50.148438 22.605469 C 50.027344 22.605469 49.929688 22.636719 49.855469 22.707031 C 49.789062 22.777344 49.753906 22.863281 49.753906 22.960938 L 49.753906 24.855469 C 49.753906 24.957031 49.789062 25.039062 49.855469 25.113281 C 49.929688 25.183594 50.027344 25.214844 50.148438 25.214844 L 50.433594 25.214844 C 50.558594 25.214844 50.65625 25.183594 50.730469 25.113281 C 50.796875 25.039062 50.828125 24.957031 50.828125 24.855469 L 50.828125 22.960938 C 50.828125 22.863281 50.796875 22.777344 50.730469 22.707031 M 48.476562 22.605469 L 47.75 22.605469 C 47.628906 22.605469 47.53125 22.636719 47.457031 22.707031 C 47.386719 22.777344 47.355469 22.863281 47.355469 22.960938 L 47.355469 24.855469 C 47.355469 24.957031 47.386719 25.039062 47.457031 25.113281 C 47.53125 25.183594 47.628906 25.214844 47.75 25.214844 L 48.476562 25.214844 L 48.476562 25.582031 L 47.796875 25.582031 C 47.519531 25.582031 47.308594 25.515625 47.160156 25.382812 C 47.015625 25.246094 46.941406 25.042969 46.941406 24.773438 L 46.941406 23.046875 C 46.941406 22.777344 47.015625 22.574219 47.160156 22.4375 C 47.308594 22.304688 47.519531 22.234375 47.796875 22.234375 L 48.476562 22.234375 L 48.476562 22.605469 M 45.957031 22.980469 L 45.957031 23.257812 C 45.957031 23.378906 45.9375 23.488281 45.894531 23.589844 C 45.84375 23.679688 45.78125 23.753906 45.699219 23.808594 C 45.796875 23.863281 45.875 23.941406 45.929688 24.039062 C 45.980469 24.136719 46.003906 24.257812 46.003906 24.398438 L 46.003906 24.828125 C 46.003906 25.097656 45.941406 25.292969 45.820312 25.410156 C 45.691406 25.523438 45.480469 25.582031 45.195312 25.582031 L 44.238281 25.582031 L 44.238281 22.234375 L 45.140625 22.234375 C 45.414062 22.234375 45.621094 22.292969 45.753906 22.402344 C 45.890625 22.511719 45.957031 22.707031 45.957031 22.980469 M 45.195312 22.59375 L 44.652344 22.59375 L 44.652344 23.652344 L 45.195312 23.652344 C 45.292969 23.652344 45.375 23.621094 45.441406 23.558594 C 45.511719 23.492188 45.542969 23.40625 45.542969 23.304688 L 45.542969 22.933594 C 45.542969 22.820312 45.515625 22.734375 45.460938 22.675781 L 45.195312 22.59375 M 43.503906 23.046875 L 43.503906 24.773438 C 43.503906 25.042969 43.425781 25.246094 43.273438 25.382812 C 43.125 25.515625 42.914062 25.582031 42.636719 25.582031 L 42.445312 25.582031 C 42.167969 25.582031 41.957031 25.515625 41.800781 25.382812 C 41.65625 25.246094 41.582031 25.042969 41.582031 24.773438 L 41.582031 23.046875 C 41.582031 22.777344 41.65625 22.574219 41.800781 22.4375 C 41.957031 22.304688 42.167969 22.234375 42.445312 22.234375 L 42.636719 22.234375 C 42.914062 22.234375 43.125 22.304688 43.273438 22.4375 C 43.425781 22.574219 43.503906 22.777344 43.503906 23.046875 M 44.652344 25.226562 L 45.242188 25.226562 C 45.355469 25.226562 45.445312 25.199219 45.507812 25.140625 C 45.5625 25.085938 45.589844 24.996094 45.589844 24.875 L 45.589844 24.351562 C 45.589844 24.246094 45.558594 24.164062 45.496094 24.101562 C 45.429688 24.042969 45.34375 24.011719 45.242188 24.011719 L 44.652344 24.011719 L 44.652344 25.226562 M 43.078125 22.960938 C 43.078125 22.863281 43.046875 22.777344 42.980469 22.707031 C 42.90625 22.636719 42.808594 22.605469 42.683594 22.605469 L 42.398438 22.605469 C 42.277344 22.605469 42.179688 22.636719 42.105469 22.707031 C 42.039062 22.777344 42.003906 22.863281 42.003906 22.960938 L 42.003906 24.855469 C 42.003906 24.957031 42.039062 25.039062 42.105469 25.113281 C 42.179688 25.183594 42.277344 25.214844 42.398438 25.214844 L 42.683594 25.214844 C 42.808594 25.214844 42.90625 25.183594 42.980469 25.113281 C 43.046875 25.039062 43.078125 24.957031 43.078125 24.855469 L 43.078125 22.960938 M 40.222656 22.675781 C 40.164062 22.621094 40.078125 22.59375 39.953125 22.59375 L 39.421875 22.59375 L 39.421875 23.835938 L 39.953125 23.835938 C 40.078125 23.835938 40.164062 23.808594 40.222656 23.753906 C 40.277344 23.699219 40.304688 23.609375 40.304688 23.488281 L 40.304688 22.933594 C 40.304688 22.820312 40.277344 22.734375 40.222656 22.675781 M 40.515625 22.410156 C 40.65625 22.527344 40.726562 22.71875 40.726562 22.980469 L 40.726562 23.441406 C 40.726562 23.632812 40.691406 23.78125 40.617188 23.890625 C 40.535156 23.996094 40.429688 24.070312 40.292969 24.113281 L 40.957031 25.582031 L 40.503906 25.582031 L 39.890625 24.195312 L 39.421875 24.195312 L 39.421875 25.582031 L 39 25.582031 L 39 22.234375 L 39.898438 22.234375 C 40.164062 22.234375 40.367188 22.292969 40.515625 22.410156 M 35.257812 22.660156 L 34.375 22.660156 L 34.375 23.617188 L 34.558594 23.617188 C 34.789062 23.617188 34.976562 23.671875 35.117188 23.78125 C 35.257812 23.890625 35.328125 24.074219 35.328125 24.332031 L 35.328125 24.839844 C 35.328125 25.101562 35.269531 25.292969 35.144531 25.410156 C 35.023438 25.523438 34.820312 25.582031 34.539062 25.582031 L 33.921875 25.582031 L 33.921875 25.234375 L 34.578125 25.234375 C 34.699219 25.234375 34.785156 25.203125 34.832031 25.140625 C 34.894531 25.09375 34.925781 25.007812 34.925781 24.882812 L 34.925781 24.296875 C 34.925781 24.191406 34.890625 24.109375 34.824219 24.046875 C 34.761719 23.992188 34.683594 23.964844 34.585938 23.964844 L 33.96875 23.964844 L 33.96875 22.308594 L 35.257812 22.308594 L 35.257812 22.660156 "/>
</g>
</svg>
