<?xml version="1.0" encoding="UTF-8"?>
<svg xmlns="http://www.w3.org/2000/svg" xmlns:xlink="http://www.w3.org/1999/xlink" width="128pt" height="8pt" viewBox="0 0 128 8" version="1.1">
<g id="surface1">
<path style=" stroke:none;fill-rule:nonzero;fill:rgb(100%,100%,100%);fill-opacity:1;" d="M 2.6875 0.0507812 L 2.542969 1.730469 L 4.097656 1.121094 L 4.390625 1.984375 L 2.773438 2.320312 L 3.929688 3.664062 L 3.152344 4.230469 L 2.183594 2.675781 L 1.199219 4.230469 L 0.421875 3.664062 L 1.597656 2.320312 L 0 1.984375 L 0.316406 1.101562 L 1.847656 1.730469 L 1.703125 0.0507812 L 2.6875 0.0507812 M 108.546875 0.300781 C 109.148438 0.300781 109.617188 0.4375 109.953125 0.703125 C 110.277344 0.96875 110.4375 1.402344 110.4375 2.003906 L 110.4375 3.242188 C 110.4375 3.847656 110.277344 4.285156 109.953125 4.566406 C 109.632812 4.847656 109.171875 4.988281 108.566406 4.988281 L 107.433594 4.988281 L 107.433594 7.949219 L 106.488281 7.949219 L 106.488281 0.300781 L 108.546875 0.300781 M 109.28125 1.3125 C 109.15625 1.183594 108.953125 1.121094 108.671875 1.121094 L 107.433594 1.121094 L 107.433594 4.148438 L 108.671875 4.148438 C 108.953125 4.148438 109.15625 4.085938 109.28125 3.957031 C 109.40625 3.832031 109.472656 3.636719 109.472656 3.371094 L 109.472656 1.898438 C 109.472656 1.632812 109.40625 1.4375 109.28125 1.3125 M 112.582031 4.125 L 116.128906 4.125 L 116.128906 4.945312 L 112.582031 4.945312 L 112.582031 4.125 M 120.480469 0.300781 C 121.109375 0.300781 121.59375 0.457031 121.929688 0.765625 C 122.277344 1.074219 122.453125 1.535156 122.453125 2.152344 L 122.453125 6.101562 C 122.453125 6.71875 122.277344 7.179688 121.929688 7.488281 C 121.59375 7.796875 121.109375 7.949219 120.480469 7.949219 L 120.039062 7.949219 C 119.40625 7.949219 118.917969 7.796875 118.566406 7.488281 C 118.230469 7.179688 118.0625 6.71875 118.0625 6.101562 L 118.0625 2.152344 C 118.0625 1.535156 118.230469 1.074219 118.566406 0.765625 C 118.917969 0.457031 119.40625 0.300781 120.039062 0.300781 L 120.480469 0.300781 M 119.933594 1.144531 C 119.652344 1.144531 119.429688 1.21875 119.261719 1.375 C 119.105469 1.542969 119.03125 1.738281 119.03125 1.960938 L 119.03125 6.289062 C 119.03125 6.515625 119.105469 6.710938 119.261719 6.878906 C 119.429688 7.03125 119.652344 7.109375 119.933594 7.109375 L 120.585938 7.109375 C 120.863281 7.109375 121.089844 7.03125 121.257812 6.878906 C 121.410156 6.710938 121.488281 6.515625 121.488281 6.289062 L 121.488281 1.960938 C 121.488281 1.738281 121.410156 1.542969 121.257812 1.375 C 121.089844 1.21875 120.863281 1.144531 120.585938 1.144531 L 119.933594 1.144531 M 125.5 1.375 C 125.332031 1.542969 125.246094 1.738281 125.246094 1.960938 L 125.246094 2.78125 C 125.246094 3.003906 125.316406 3.195312 125.457031 3.347656 C 125.613281 3.503906 125.808594 3.578125 126.046875 3.578125 L 126.363281 3.578125 C 126.867188 3.578125 127.265625 3.71875 127.558594 4 C 127.851562 4.292969 128 4.75 128 5.367188 L 128 6.101562 C 128 6.71875 127.832031 7.179688 127.496094 7.488281 C 127.160156 7.796875 126.675781 7.949219 126.046875 7.949219 L 124.492188 7.949219 L 124.492188 7.109375 L 126.152344 7.109375 C 126.429688 7.109375 126.648438 7.03125 126.800781 6.878906 C 126.96875 6.710938 127.054688 6.519531 127.054688 6.3125 L 127.054688 5.15625 C 127.054688 4.945312 127 4.777344 126.886719 4.652344 C 126.789062 4.511719 126.621094 4.441406 126.382812 4.441406 L 126.046875 4.441406 C 125.527344 4.441406 125.109375 4.285156 124.785156 3.980469 C 124.464844 3.671875 124.300781 3.203125 124.300781 2.570312 L 124.300781 2.171875 C 124.300781 1.542969 124.472656 1.074219 124.808594 0.765625 C 125.144531 0.457031 125.625 0.300781 126.257812 0.300781 L 127.832031 0.300781 L 127.832031 1.144531 L 126.152344 1.144531 C 125.886719 1.144531 125.667969 1.21875 125.5 1.375 M 79.429688 0.0507812 L 79.28125 1.730469 L 80.835938 1.121094 L 81.132812 1.984375 L 79.515625 2.320312 L 80.667969 3.664062 L 79.890625 4.230469 L 78.925781 2.675781 L 77.9375 4.230469 L 77.160156 3.664062 L 78.335938 2.320312 L 76.742188 1.984375 L 77.054688 1.101562 L 78.589844 1.730469 L 78.441406 0.0507812 L 79.429688 0.0507812 M 73.527344 0.0507812 L 73.378906 1.730469 L 74.933594 1.121094 L 75.230469 1.984375 L 73.609375 2.320312 L 74.765625 3.664062 L 73.988281 4.230469 L 73.023438 2.675781 L 72.035156 4.230469 L 71.257812 3.664062 L 72.433594 2.320312 L 70.839844 1.984375 L 71.152344 1.101562 L 72.6875 1.730469 L 72.539062 0.0507812 L 73.527344 0.0507812 M 83.066406 3.664062 L 84.242188 2.320312 L 82.644531 1.984375 L 82.960938 1.101562 L 84.492188 1.730469 L 84.347656 0.0507812 L 85.332031 0.0507812 L 85.1875 1.730469 L 86.742188 1.121094 L 87.035156 1.984375 L 85.417969 2.320312 L 86.574219 3.664062 L 85.796875 4.230469 L 84.828125 2.675781 L 83.839844 4.230469 L 83.066406 3.664062 M 96.742188 0.300781 C 97.34375 0.300781 97.8125 0.4375 98.148438 0.703125 C 98.46875 0.96875 98.632812 1.402344 98.632812 2.003906 L 98.632812 3.242188 C 98.632812 3.847656 98.46875 4.285156 98.148438 4.566406 C 97.824219 4.847656 97.363281 4.988281 96.761719 4.988281 L 95.628906 4.988281 L 95.628906 7.949219 L 94.683594 7.949219 L 94.683594 0.300781 L 96.742188 0.300781 M 97.476562 1.3125 C 97.351562 1.183594 97.148438 1.121094 96.867188 1.121094 L 95.628906 1.121094 L 95.628906 4.148438 L 96.867188 4.148438 C 97.148438 4.148438 97.351562 4.085938 97.476562 3.957031 C 97.601562 3.832031 97.664062 3.636719 97.664062 3.371094 L 97.664062 1.898438 C 97.664062 1.632812 97.601562 1.4375 97.476562 1.3125 M 101.089844 0.300781 L 103.988281 0.300781 L 103.988281 1.101562 L 103.023438 1.101562 L 103.023438 7.152344 L 103.988281 7.152344 L 103.988281 7.949219 L 101.089844 7.949219 L 101.089844 7.152344 L 102.078125 7.152344 L 102.078125 1.101562 L 101.089844 1.101562 L 101.089844 0.300781 M 44.011719 0.0507812 L 43.863281 1.730469 L 45.417969 1.121094 L 45.710938 1.984375 L 44.09375 2.320312 L 45.25 3.664062 L 44.472656 4.230469 L 43.507812 2.675781 L 42.519531 4.230469 L 41.742188 3.664062 L 42.917969 2.320312 L 41.320312 1.984375 L 41.636719 1.101562 L 43.171875 1.730469 L 43.023438 0.0507812 L 44.011719 0.0507812 M 38.570312 4.230469 L 37.605469 2.675781 L 36.617188 4.230469 L 35.839844 3.664062 L 37.015625 2.320312 L 35.417969 1.984375 L 35.734375 1.101562 L 37.269531 1.730469 L 37.121094 0.0507812 L 38.109375 0.0507812 L 37.960938 1.730469 L 39.515625 1.121094 L 39.808594 1.984375 L 38.191406 2.320312 L 39.347656 3.664062 L 38.570312 4.230469 M 49.914062 0.0507812 L 49.765625 1.730469 L 51.320312 1.121094 L 51.617188 1.984375 L 50 2.320312 L 51.152344 3.664062 L 50.375 4.230469 L 49.410156 2.675781 L 48.421875 4.230469 L 47.644531 3.664062 L 48.820312 2.320312 L 47.226562 1.984375 L 47.539062 1.101562 L 49.074219 1.730469 L 48.925781 0.0507812 L 49.914062 0.0507812 M 53.546875 3.664062 L 54.726562 2.320312 L 53.128906 1.984375 L 53.445312 1.101562 L 54.976562 1.730469 L 54.832031 0.0507812 L 55.816406 0.0507812 L 55.671875 1.730469 L 57.226562 1.121094 L 57.519531 1.984375 L 55.902344 2.320312 L 57.058594 3.664062 L 56.28125 4.230469 L 55.3125 2.675781 L 54.324219 4.230469 L 53.546875 3.664062 M 61.71875 0.0507812 L 61.574219 1.730469 L 63.128906 1.121094 L 63.421875 1.984375 L 61.804688 2.320312 L 62.960938 3.664062 L 62.183594 4.230469 L 61.214844 2.675781 L 60.230469 4.230469 L 59.453125 3.664062 L 60.628906 2.320312 L 59.03125 1.984375 L 59.347656 1.101562 L 60.878906 1.730469 L 60.734375 0.0507812 L 61.71875 0.0507812 M 67.625 0.0507812 L 67.476562 1.730469 L 69.03125 1.121094 L 69.324219 1.984375 L 67.707031 2.320312 L 68.863281 3.664062 L 68.085938 4.230469 L 67.121094 2.675781 L 66.132812 4.230469 L 65.355469 3.664062 L 66.53125 2.320312 L 64.933594 1.984375 L 65.25 1.101562 L 66.785156 1.730469 L 66.636719 0.0507812 L 67.625 0.0507812 M 6.324219 3.664062 L 7.5 2.320312 L 5.902344 1.984375 L 6.21875 1.101562 L 7.75 1.730469 L 7.605469 0.0507812 L 8.59375 0.0507812 L 8.445312 1.730469 L 10 1.121094 L 10.292969 1.984375 L 8.675781 2.320312 L 9.832031 3.664062 C 9.578125 3.859375 9.320312 4.050781 9.054688 4.230469 L 8.089844 2.675781 L 7.101562 4.230469 L 6.324219 3.664062 M 12.121094 1.101562 L 13.65625 1.730469 L 13.507812 0.0507812 L 14.496094 0.0507812 L 14.347656 1.730469 L 15.902344 1.121094 L 16.195312 1.984375 L 14.578125 2.320312 L 15.734375 3.664062 L 14.957031 4.230469 L 13.992188 2.675781 L 13.003906 4.230469 L 12.226562 3.664062 L 13.402344 2.320312 L 11.804688 1.984375 L 12.121094 1.101562 M 20.398438 0.0507812 L 20.25 1.730469 L 21.804688 1.121094 L 22.101562 1.984375 L 20.484375 2.320312 L 21.636719 3.664062 L 20.859375 4.230469 L 19.894531 2.675781 L 18.90625 4.230469 L 18.128906 3.664062 L 19.304688 2.320312 L 17.710938 1.984375 L 18.023438 1.101562 L 19.558594 1.730469 L 19.410156 0.0507812 L 20.398438 0.0507812 M 25.210938 2.320312 L 23.613281 1.984375 L 23.929688 1.101562 L 25.460938 1.730469 L 25.3125 0.0507812 L 26.300781 0.0507812 L 26.15625 1.730469 L 27.710938 1.121094 L 28.003906 1.984375 L 26.386719 2.320312 L 27.542969 3.664062 L 26.765625 4.230469 L 25.796875 2.675781 L 24.808594 4.230469 L 24.03125 3.664062 L 25.210938 2.320312 M 32.203125 0.0507812 L 32.058594 1.730469 L 33.613281 1.121094 L 33.90625 1.984375 L 32.289062 2.320312 L 33.445312 3.664062 L 32.667969 4.230469 L 31.699219 2.675781 L 30.714844 4.230469 L 29.9375 3.664062 L 31.113281 2.320312 L 29.515625 1.984375 L 29.832031 1.101562 L 31.363281 1.730469 L 31.21875 0.0507812 L 32.203125 0.0507812 "/>
</g>
</svg>
