<?xml version="1.0" encoding="UTF-8"?>
<svg xmlns="http://www.w3.org/2000/svg" xmlns:xlink="http://www.w3.org/1999/xlink" width="123pt" height="7pt" viewBox="0 0 123 7" version="1.1">
<g id="surface1">
<path style=" stroke:none;fill-rule:nonzero;fill:rgb(100%,100%,100%);fill-opacity:1;" d="M 97.417969 0 L 98.074219 0 L 98.402344 0.386719 L 98.660156 0.875 L 98.847656 1.519531 L 98.902344 2.339844 L 98.902344 4.660156 L 98.847656 5.492188 L 98.660156 6.125 L 98.402344 6.628906 L 98.074219 7 L 97.417969 7 L 97.832031 6.46875 L 98.105469 5.980469 L 98.234375 5.421875 L 98.277344 4.675781 L 98.277344 2.324219 L 98.234375 1.578125 L 98.105469 1.019531 L 97.832031 0.53125 L 97.417969 0 M 105.257812 0.890625 L 106.140625 5.449219 L 107.097656 0.890625 L 107.742188 0.890625 L 106.570312 6.109375 L 105.699219 6.109375 L 104.601562 0.890625 L 105.257812 0.890625 M 117.949219 0.890625 L 118.660156 0.890625 L 118.660156 5.550781 L 119.460938 5.550781 L 119.460938 6.109375 L 117.046875 6.109375 L 117.046875 5.550781 L 118.019531 5.550781 L 118.019531 1.476562 L 116.976562 1.863281 L 116.976562 1.261719 L 117.949219 0.890625 M 108.96875 0.890625 L 111.382812 0.890625 L 111.382812 1.605469 L 110.082031 6.109375 L 109.410156 6.109375 L 110.765625 1.449219 L 108.96875 1.449219 L 108.96875 0.890625 M 114.578125 5.363281 L 114.578125 6.109375 L 113.835938 6.109375 L 113.835938 5.363281 L 114.578125 5.363281 M 122.601562 6.109375 L 121.859375 6.109375 L 121.859375 5.363281 L 122.601562 5.363281 L 122.601562 6.109375 M 2.226562 0.71875 L 2.125 1.863281 L 3.179688 1.449219 L 3.382812 2.035156 L 2.28125 2.265625 L 3.066406 3.183594 L 2.539062 3.570312 L 1.882812 2.511719 L 1.210938 3.570312 L 0.683594 3.183594 L 1.484375 2.265625 L 0.398438 2.035156 L 0.613281 1.433594 L 1.652344 1.863281 L 1.554688 0.71875 L 2.226562 0.71875 M 74.164062 0.890625 C 74.570312 0.890625 74.890625 0.980469 75.121094 1.160156 C 75.339844 1.34375 75.449219 1.640625 75.449219 2.050781 L 75.449219 2.898438 C 75.449219 3.308594 75.339844 3.609375 75.121094 3.800781 C 74.902344 3.992188 74.585938 4.089844 74.175781 4.089844 L 73.40625 4.089844 L 73.40625 6.109375 L 72.765625 6.109375 L 72.765625 0.890625 L 74.164062 0.890625 M 74.664062 1.578125 C 74.578125 1.492188 74.4375 1.449219 74.25 1.449219 L 73.40625 1.449219 L 73.40625 3.515625 L 74.25 3.515625 C 74.4375 3.515625 74.578125 3.472656 74.664062 3.386719 C 74.75 3.300781 74.792969 3.164062 74.792969 2.984375 L 74.792969 1.980469 C 74.792969 1.796875 74.75 1.664062 74.664062 1.578125 M 76.902344 3.5 L 79.316406 3.5 L 79.316406 4.058594 L 76.902344 4.058594 L 76.902344 3.5 M 82.273438 0.890625 C 82.699219 0.890625 83.027344 0.996094 83.257812 1.203125 C 83.496094 1.414062 83.613281 1.730469 83.613281 2.152344 L 83.613281 4.847656 C 83.613281 5.269531 83.496094 5.585938 83.257812 5.796875 C 83.027344 6.003906 82.699219 6.109375 82.273438 6.109375 L 81.972656 6.109375 C 81.542969 6.109375 81.210938 6.003906 80.972656 5.796875 C 80.746094 5.585938 80.628906 5.269531 80.628906 4.847656 L 80.628906 2.152344 C 80.628906 1.730469 80.746094 1.414062 80.972656 1.203125 C 81.210938 0.996094 81.542969 0.890625 81.972656 0.890625 L 82.273438 0.890625 M 81.902344 1.464844 C 81.710938 1.464844 81.558594 1.515625 81.445312 1.621094 C 81.339844 1.734375 81.285156 1.871094 81.285156 2.023438 L 81.285156 4.976562 C 81.285156 5.128906 81.339844 5.265625 81.445312 5.378906 C 81.558594 5.484375 81.710938 5.535156 81.902344 5.535156 L 82.34375 5.535156 C 82.535156 5.535156 82.6875 5.484375 82.800781 5.378906 C 82.90625 5.265625 82.957031 5.128906 82.957031 4.976562 L 82.957031 2.023438 C 82.957031 1.871094 82.90625 1.734375 82.800781 1.621094 C 82.6875 1.515625 82.535156 1.464844 82.34375 1.464844 L 81.902344 1.464844 M 89.910156 0.386719 L 90.238281 0 L 90.878906 0 L 90.480469 0.53125 L 90.210938 1.019531 L 90.066406 1.578125 L 90.039062 2.324219 L 90.039062 4.675781 L 90.066406 5.421875 L 90.210938 5.980469 L 90.480469 6.46875 L 90.878906 7 L 90.238281 7 L 89.910156 6.628906 L 89.652344 6.125 L 89.46875 5.492188 L 89.394531 4.660156 L 89.394531 2.339844 L 89.46875 1.519531 L 89.652344 0.875 L 89.910156 0.386719 M 85.683594 1.621094 C 85.570312 1.734375 85.511719 1.871094 85.511719 2.023438 L 85.511719 2.582031 C 85.511719 2.734375 85.558594 2.863281 85.65625 2.96875 C 85.761719 3.074219 85.894531 3.128906 86.054688 3.128906 L 86.269531 3.128906 C 86.613281 3.128906 86.882812 3.222656 87.082031 3.414062 C 87.28125 3.613281 87.382812 3.925781 87.382812 4.347656 L 87.382812 4.847656 C 87.382812 5.269531 87.269531 5.585938 87.039062 5.796875 C 86.8125 6.003906 86.484375 6.109375 86.054688 6.109375 L 85 6.109375 L 85 5.535156 L 86.125 5.535156 C 86.316406 5.535156 86.464844 5.484375 86.570312 5.378906 C 86.683594 5.265625 86.742188 5.136719 86.742188 4.992188 L 86.742188 4.203125 C 86.742188 4.058594 86.703125 3.945312 86.625 3.859375 C 86.558594 3.761719 86.445312 3.714844 86.285156 3.714844 L 86.054688 3.714844 C 85.703125 3.714844 85.417969 3.609375 85.199219 3.398438 C 84.980469 3.1875 84.871094 2.867188 84.871094 2.4375 L 84.871094 2.164062 C 84.871094 1.734375 84.984375 1.414062 85.210938 1.203125 C 85.441406 0.996094 85.769531 0.890625 86.199219 0.890625 L 87.269531 0.890625 L 87.269531 1.464844 L 86.125 1.464844 C 85.945312 1.464844 85.796875 1.515625 85.683594 1.621094 M 95.019531 1.160156 C 95.238281 1.34375 95.347656 1.640625 95.347656 2.050781 L 95.347656 2.769531 C 95.347656 3.066406 95.292969 3.300781 95.175781 3.472656 C 95.054688 3.632812 94.886719 3.75 94.679688 3.816406 L 95.707031 6.109375 L 95.007812 6.109375 L 94.050781 3.945312 L 93.320312 3.945312 L 93.320312 6.109375 L 92.664062 6.109375 L 92.664062 0.890625 L 94.0625 0.890625 C 94.472656 0.890625 94.792969 0.980469 95.019531 1.160156 M 94.5625 1.578125 C 94.476562 1.492188 94.339844 1.449219 94.148438 1.449219 L 93.320312 1.449219 L 93.320312 3.386719 L 94.148438 3.386719 C 94.339844 3.386719 94.476562 3.34375 94.5625 3.257812 C 94.648438 3.171875 94.691406 3.03125 94.691406 2.839844 L 94.691406 1.980469 C 94.691406 1.796875 94.648438 1.664062 94.5625 1.578125 M 54.375 0.71875 L 54.277344 1.863281 L 55.332031 1.449219 L 55.53125 2.035156 L 54.433594 2.265625 L 55.21875 3.183594 L 54.691406 3.570312 L 54.035156 2.511719 L 53.363281 3.570312 L 52.835938 3.183594 L 53.632812 2.265625 L 52.546875 2.035156 L 52.761719 1.433594 L 53.804688 1.863281 L 53.707031 0.71875 L 54.375 0.71875 M 50.363281 0.71875 L 50.265625 1.863281 L 51.320312 1.449219 L 51.519531 2.035156 L 50.421875 2.265625 L 51.207031 3.183594 L 50.679688 3.570312 L 50.023438 2.511719 L 49.351562 3.570312 L 48.824219 3.183594 L 49.621094 2.265625 L 48.539062 2.035156 L 48.75 1.433594 L 49.792969 1.863281 L 49.695312 0.71875 L 50.363281 0.71875 M 56.847656 3.183594 L 57.644531 2.265625 L 56.558594 2.035156 L 56.773438 1.433594 L 57.816406 1.863281 L 57.71875 0.71875 L 58.386719 0.71875 L 58.289062 1.863281 L 59.34375 1.449219 L 59.542969 2.035156 L 58.445312 2.265625 L 59.230469 3.183594 L 58.703125 3.570312 L 58.046875 2.511719 L 57.375 3.570312 L 56.847656 3.183594 M 66.140625 0.890625 C 66.550781 0.890625 66.867188 0.980469 67.097656 1.160156 C 67.316406 1.34375 67.425781 1.640625 67.425781 2.050781 L 67.425781 2.898438 C 67.425781 3.308594 67.316406 3.609375 67.097656 3.800781 C 66.878906 3.992188 66.5625 4.089844 66.152344 4.089844 L 65.382812 4.089844 L 65.382812 6.109375 L 64.742188 6.109375 L 64.742188 0.890625 L 66.140625 0.890625 M 66.640625 1.578125 C 66.554688 1.492188 66.414062 1.449219 66.226562 1.449219 L 65.382812 1.449219 L 65.382812 3.515625 L 66.226562 3.515625 C 66.414062 3.515625 66.554688 3.472656 66.640625 3.386719 C 66.726562 3.300781 66.769531 3.164062 66.769531 2.984375 L 66.769531 1.980469 C 66.769531 1.796875 66.726562 1.664062 66.640625 1.578125 M 69.09375 0.890625 L 71.066406 0.890625 L 71.066406 1.433594 L 70.410156 1.433594 L 70.410156 5.566406 L 71.066406 5.566406 L 71.066406 6.109375 L 69.09375 6.109375 L 69.09375 5.566406 L 69.765625 5.566406 L 69.765625 1.433594 L 69.09375 1.433594 L 69.09375 0.890625 M 30.304688 0.71875 L 30.207031 1.863281 L 31.261719 1.449219 L 31.460938 2.035156 L 30.363281 2.265625 L 31.148438 3.183594 L 30.621094 3.570312 L 29.964844 2.511719 L 29.292969 3.570312 L 28.765625 3.183594 L 29.5625 2.265625 L 28.480469 2.035156 L 28.691406 1.433594 L 29.734375 1.863281 L 29.636719 0.71875 L 30.304688 0.71875 M 26.609375 3.570312 L 25.953125 2.511719 L 25.28125 3.570312 L 24.753906 3.183594 L 25.550781 2.265625 L 24.46875 2.035156 L 24.679688 1.433594 L 25.722656 1.863281 L 25.625 0.71875 L 26.292969 0.71875 L 26.195312 1.863281 L 27.25 1.449219 L 27.453125 2.035156 L 26.351562 2.265625 L 27.136719 3.183594 L 26.609375 3.570312 M 34.316406 0.71875 L 34.21875 1.863281 L 35.273438 1.449219 L 35.472656 2.035156 L 34.375 2.265625 L 35.160156 3.183594 L 34.632812 3.570312 L 33.976562 2.511719 L 33.304688 3.570312 L 32.777344 3.183594 L 33.574219 2.265625 L 32.492188 2.035156 L 32.703125 1.433594 L 33.746094 1.863281 L 33.648438 0.71875 L 34.316406 0.71875 M 36.789062 3.183594 L 37.585938 2.265625 L 36.503906 2.035156 L 36.714844 1.433594 L 37.757812 1.863281 L 37.660156 0.71875 L 38.328125 0.71875 L 38.230469 1.863281 L 39.285156 1.449219 L 39.484375 2.035156 L 38.386719 2.265625 L 39.171875 3.183594 L 38.644531 3.570312 L 37.988281 2.511719 L 37.316406 3.570312 L 36.789062 3.183594 M 42.339844 0.71875 L 42.242188 1.863281 L 43.296875 1.449219 L 43.496094 2.035156 L 42.398438 2.265625 L 43.183594 3.183594 L 42.65625 3.570312 L 42 2.511719 L 41.328125 3.570312 L 40.800781 3.183594 L 41.597656 2.265625 L 40.515625 2.035156 L 40.726562 1.433594 L 41.769531 1.863281 L 41.671875 0.71875 L 42.339844 0.71875 M 46.351562 0.71875 L 46.253906 1.863281 L 47.308594 1.449219 L 47.507812 2.035156 L 46.410156 2.265625 L 47.195312 3.183594 L 46.667969 3.570312 L 46.011719 2.511719 L 45.339844 3.570312 L 44.8125 3.183594 L 45.609375 2.265625 L 44.527344 2.035156 L 44.738281 1.433594 L 45.78125 1.863281 L 45.683594 0.71875 L 46.351562 0.71875 M 4.695312 3.183594 L 5.496094 2.265625 L 4.410156 2.035156 L 4.625 1.433594 L 5.664062 1.863281 L 5.566406 0.71875 L 6.238281 0.71875 L 6.136719 1.863281 L 7.191406 1.449219 L 7.394531 2.035156 L 6.292969 2.265625 L 7.078125 3.183594 C 6.90625 3.316406 6.730469 3.449219 6.550781 3.570312 L 5.894531 2.511719 L 5.222656 3.570312 L 4.695312 3.183594 M 8.636719 1.433594 L 9.675781 1.863281 L 9.578125 0.71875 L 10.25 0.71875 L 10.148438 1.863281 L 11.203125 1.449219 L 11.40625 2.035156 L 10.304688 2.265625 L 11.089844 3.183594 L 10.5625 3.570312 L 9.90625 2.511719 L 9.234375 3.570312 L 8.707031 3.183594 L 9.507812 2.265625 L 8.421875 2.035156 L 8.636719 1.433594 M 14.261719 0.71875 L 14.160156 1.863281 L 15.214844 1.449219 L 15.417969 2.035156 L 14.316406 2.265625 L 15.101562 3.183594 L 14.574219 3.570312 L 13.917969 2.511719 L 13.246094 3.570312 L 12.71875 3.183594 L 13.519531 2.265625 L 12.433594 2.035156 L 12.648438 1.433594 L 13.6875 1.863281 L 13.589844 0.71875 L 14.261719 0.71875 M 17.527344 2.265625 L 16.445312 2.035156 L 16.660156 1.433594 L 17.699219 1.863281 L 17.601562 0.71875 L 18.273438 0.71875 L 18.171875 1.863281 L 19.226562 1.449219 L 19.429688 2.035156 L 18.328125 2.265625 L 19.113281 3.183594 L 18.585938 3.570312 L 17.929688 2.511719 L 17.257812 3.570312 L 16.730469 3.183594 L 17.527344 2.265625 M 22.285156 0.71875 L 22.183594 1.863281 L 23.238281 1.449219 L 23.441406 2.035156 L 22.339844 2.265625 L 23.125 3.183594 L 22.597656 3.570312 L 21.941406 2.511719 L 21.269531 3.570312 L 20.742188 3.183594 L 21.539062 2.265625 L 20.457031 2.035156 L 20.671875 1.433594 L 21.710938 1.863281 L 21.613281 0.71875 L 22.285156 0.71875 "/>
</g>
</svg>
