<?xml version="1.0" encoding="UTF-8"?>
<svg xmlns="http://www.w3.org/2000/svg" xmlns:xlink="http://www.w3.org/1999/xlink" width="128pt" height="42pt" viewBox="0 0 128 42" version="1.1">
<g id="surface1">
<path style=" stroke:none;fill-rule:nonzero;fill:rgb(100%,100%,100%);fill-opacity:1;" d="M 109.246094 0.507812 L 109.183594 1.246094 L 109.859375 0.976562 L 109.988281 1.355469 L 109.28125 1.503906 L 109.785156 2.09375 L 109.449219 2.339844 L 109.027344 1.660156 L 108.597656 2.339844 L 108.257812 2.09375 L 108.769531 1.503906 L 108.074219 1.355469 L 108.210938 0.96875 L 108.878906 1.246094 L 108.816406 0.507812 L 109.246094 0.507812 M 106.671875 0.507812 L 106.609375 1.246094 L 107.285156 0.976562 L 107.414062 1.355469 L 106.710938 1.503906 L 107.214844 2.09375 L 106.875 2.339844 L 106.453125 1.660156 L 106.023438 2.339844 L 105.683594 2.09375 L 106.195312 1.503906 L 105.5 1.355469 L 105.636719 0.96875 L 106.304688 1.246094 L 106.242188 0.507812 L 106.671875 0.507812 M 111.820312 0.507812 L 111.753906 1.246094 L 112.433594 0.976562 L 112.5625 1.355469 L 111.855469 1.503906 L 112.359375 2.09375 L 112.019531 2.339844 L 111.597656 1.660156 L 111.167969 2.339844 L 110.832031 2.09375 L 111.34375 1.503906 L 110.648438 1.355469 L 110.785156 0.96875 L 111.453125 1.246094 L 111.390625 0.507812 L 111.820312 0.507812 M 114.390625 0.507812 L 114.328125 1.246094 L 115.007812 0.976562 L 115.132812 1.355469 L 114.429688 1.503906 L 114.933594 2.09375 L 114.59375 2.339844 L 114.171875 1.660156 L 113.742188 2.339844 L 113.402344 2.09375 L 113.917969 1.503906 L 113.21875 1.355469 L 113.359375 0.96875 L 114.027344 1.246094 L 113.960938 0.507812 L 114.390625 0.507812 M 115.976562 2.09375 L 116.488281 1.503906 L 115.792969 1.355469 L 115.929688 0.96875 L 116.597656 1.246094 L 116.535156 0.507812 L 116.964844 0.507812 L 116.902344 1.246094 L 117.578125 0.976562 L 117.707031 1.355469 L 117.003906 1.503906 L 117.503906 2.09375 L 117.167969 2.339844 L 116.746094 1.660156 L 116.316406 2.339844 L 115.976562 2.09375 M 119.539062 0.507812 L 119.472656 1.246094 L 120.152344 0.976562 L 120.28125 1.355469 L 119.574219 1.503906 L 120.078125 2.09375 L 119.738281 2.339844 L 119.320312 1.660156 L 118.886719 2.339844 L 118.550781 2.09375 L 119.0625 1.503906 L 118.367188 1.355469 L 118.503906 0.96875 L 119.171875 1.246094 L 119.109375 0.507812 L 119.539062 0.507812 M 93.808594 0.507812 L 93.742188 1.246094 L 94.421875 0.976562 L 94.546875 1.355469 L 93.84375 1.503906 L 94.347656 2.09375 L 94.007812 2.339844 L 93.585938 1.660156 L 93.15625 2.339844 L 92.816406 2.09375 L 93.332031 1.503906 L 92.632812 1.355469 L 92.773438 0.96875 L 93.441406 1.246094 L 93.375 0.507812 L 93.808594 0.507812 M 91.976562 1.355469 L 91.269531 1.503906 L 91.773438 2.09375 L 91.433594 2.339844 L 91.015625 1.660156 L 90.582031 2.339844 L 90.246094 2.09375 L 90.757812 1.503906 L 90.0625 1.355469 L 90.199219 0.96875 L 90.867188 1.246094 L 90.804688 0.507812 L 91.234375 0.507812 L 91.167969 1.246094 L 91.847656 0.976562 L 91.976562 1.355469 M 96.378906 0.507812 L 96.316406 1.246094 L 96.992188 0.976562 L 97.121094 1.355469 L 96.417969 1.503906 L 96.921875 2.09375 L 96.582031 2.339844 L 96.160156 1.660156 L 95.730469 2.339844 L 95.390625 2.09375 L 95.902344 1.503906 L 95.207031 1.355469 L 95.34375 0.96875 L 96.015625 1.246094 L 95.949219 0.507812 L 96.378906 0.507812 M 97.917969 0.96875 L 98.585938 1.246094 L 98.523438 0.507812 L 98.953125 0.507812 L 98.890625 1.246094 L 99.566406 0.976562 L 99.695312 1.355469 L 98.988281 1.503906 L 99.492188 2.09375 L 99.15625 2.339844 L 98.734375 1.660156 L 98.304688 2.339844 L 97.964844 2.09375 L 98.476562 1.503906 L 97.78125 1.355469 L 97.917969 0.96875 M 101.527344 0.507812 L 101.460938 1.246094 L 102.140625 0.976562 L 102.269531 1.355469 L 101.5625 1.503906 L 102.066406 2.09375 L 101.726562 2.339844 L 101.304688 1.660156 L 100.875 2.339844 L 100.539062 2.09375 L 101.050781 1.503906 L 100.355469 1.355469 L 100.492188 0.96875 L 101.160156 1.246094 L 101.097656 0.507812 L 101.527344 0.507812 M 103.109375 2.09375 L 103.625 1.503906 L 102.925781 1.355469 L 103.066406 0.96875 L 103.734375 1.246094 L 103.667969 0.507812 L 104.097656 0.507812 L 104.035156 1.246094 L 104.714844 0.976562 L 104.839844 1.355469 L 104.136719 1.503906 L 104.640625 2.09375 L 104.300781 2.339844 L 103.878906 1.660156 L 103.449219 2.339844 L 103.109375 2.09375 M 81.351562 0.8125 C 81.5 0.945312 81.574219 1.152344 81.574219 1.429688 L 81.574219 3.160156 C 81.574219 3.429688 81.5 3.632812 81.351562 3.769531 C 81.207031 3.902344 81.015625 3.972656 80.777344 3.972656 L 80.675781 3.972656 C 80.4375 3.972656 80.246094 3.902344 80.097656 3.769531 C 79.953125 3.632812 79.878906 3.429688 79.878906 3.160156 L 79.878906 1.429688 C 79.878906 1.152344 79.953125 0.945312 80.097656 0.8125 C 80.246094 0.683594 80.4375 0.617188 80.675781 0.617188 L 80.777344 0.617188 C 81.015625 0.617188 81.207031 0.683594 81.351562 0.8125 M 80.390625 1.089844 C 80.316406 1.160156 80.28125 1.246094 80.28125 1.347656 L 80.28125 2.644531 L 81.167969 1.347656 C 81.167969 1.246094 81.132812 1.160156 81.058594 1.089844 C 80.992188 1.015625 80.898438 0.976562 80.777344 0.976562 L 80.675781 0.976562 C 80.554688 0.976562 80.457031 1.015625 80.390625 1.089844 M 85.914062 0.617188 C 86.15625 0.617188 86.347656 0.675781 86.480469 0.792969 C 86.621094 0.910156 86.691406 1.101562 86.691406 1.363281 L 86.691406 1.667969 C 86.691406 1.921875 86.605469 2.105469 86.433594 2.222656 C 86.539062 2.277344 86.617188 2.351562 86.671875 2.453125 C 86.722656 2.550781 86.746094 2.667969 86.746094 2.8125 L 86.746094 3.214844 C 86.746094 3.480469 86.6875 3.671875 86.5625 3.789062 C 86.433594 3.910156 86.226562 3.972656 85.941406 3.972656 L 85.804688 3.972656 C 85.515625 3.972656 85.308594 3.910156 85.179688 3.789062 C 85.058594 3.671875 84.996094 3.480469 84.996094 3.214844 L 84.996094 2.8125 C 84.996094 2.667969 85.023438 2.550781 85.070312 2.453125 C 85.125 2.351562 85.203125 2.277344 85.300781 2.222656 C 85.136719 2.105469 85.050781 1.921875 85.050781 1.667969 L 85.050781 1.363281 C 85.050781 1.101562 85.121094 0.910156 85.261719 0.792969 C 85.398438 0.675781 85.582031 0.617188 85.820312 0.617188 L 85.914062 0.617188 M 86.28125 1.320312 C 86.28125 1.203125 86.253906 1.117188 86.195312 1.058594 C 86.140625 1.003906 86.058594 0.976562 85.941406 0.976562 L 85.765625 0.976562 C 85.65625 0.984375 85.582031 1.015625 85.539062 1.070312 C 85.488281 1.125 85.464844 1.207031 85.464844 1.320312 L 85.464844 1.714844 C 85.464844 1.820312 85.496094 1.902344 85.554688 1.964844 C 85.617188 2.023438 85.691406 2.058594 85.777344 2.066406 L 85.941406 2.066406 C 86.03125 2.066406 86.113281 2.035156 86.179688 1.972656 C 86.246094 1.910156 86.28125 1.824219 86.28125 1.714844 L 86.28125 1.320312 M 85.511719 2.515625 C 85.441406 2.578125 85.410156 2.660156 85.410156 2.765625 L 85.410156 3.261719 C 85.410156 3.378906 85.433594 3.46875 85.484375 3.527344 C 85.53125 3.585938 85.609375 3.613281 85.722656 3.613281 L 85.976562 3.613281 C 86.097656 3.613281 86.191406 3.585938 86.253906 3.527344 C 86.308594 3.472656 86.335938 3.386719 86.335938 3.261719 L 86.335938 2.765625 C 86.335938 2.660156 86.300781 2.578125 86.234375 2.515625 C 86.171875 2.453125 86.089844 2.425781 85.988281 2.425781 L 85.757812 2.425781 C 85.652344 2.425781 85.570312 2.453125 85.511719 2.515625 M 62.234375 0.046875 L 62.652344 0.046875 L 62.863281 0.296875 L 63.03125 0.609375 L 63.148438 1.023438 L 63.183594 1.546875 L 63.183594 3.042969 L 63.148438 3.574219 L 63.03125 3.980469 L 62.863281 4.304688 L 62.652344 4.542969 L 62.234375 4.542969 L 62.5 4.203125 L 62.671875 3.886719 L 62.753906 3.527344 L 62.78125 3.050781 L 62.78125 1.539062 L 62.753906 1.058594 L 62.671875 0.703125 L 62.5 0.386719 L 62.234375 0.046875 M 67.261719 0.617188 L 67.828125 3.546875 L 68.441406 0.617188 L 68.851562 0.617188 L 68.101562 3.972656 L 67.542969 3.972656 L 66.839844 0.617188 L 67.261719 0.617188 M 69.640625 0.617188 L 71.1875 0.617188 L 71.1875 1.078125 L 70.355469 3.972656 L 69.925781 3.972656 L 70.792969 0.976562 L 69.640625 0.976562 L 69.640625 0.617188 M 75.402344 0.617188 L 75.859375 0.617188 L 75.859375 3.613281 L 76.371094 3.613281 L 76.371094 3.972656 L 74.824219 3.972656 L 74.824219 3.613281 L 75.445312 3.613281 L 75.445312 0.996094 L 74.777344 1.246094 L 74.777344 0.859375 L 75.402344 0.617188 M 73.238281 3.492188 L 73.238281 3.972656 L 72.761719 3.972656 L 72.761719 3.492188 L 73.238281 3.492188 M 83.53125 3.972656 L 83.054688 3.972656 L 83.054688 3.492188 L 83.53125 3.492188 L 83.53125 3.972656 M 80.777344 3.613281 C 80.898438 3.613281 80.992188 3.574219 81.058594 3.5 C 81.132812 3.429688 81.167969 3.34375 81.167969 3.242188 L 81.167969 1.953125 L 80.28125 3.242188 C 80.28125 3.34375 80.316406 3.429688 80.390625 3.5 C 80.457031 3.574219 80.554688 3.613281 80.675781 3.613281 L 80.777344 3.613281 M 78.386719 3.972656 L 77.910156 3.972656 L 77.910156 3.492188 L 78.386719 3.492188 L 78.386719 3.972656 M 122.113281 0.507812 L 122.046875 1.246094 L 122.726562 0.976562 L 122.855469 1.355469 L 122.148438 1.503906 L 122.652344 2.09375 L 122.3125 2.339844 L 121.890625 1.660156 L 121.460938 2.339844 L 121.121094 2.09375 L 121.636719 1.503906 L 120.941406 1.355469 L 121.078125 0.96875 L 121.746094 1.246094 L 121.679688 0.507812 L 122.113281 0.507812 M 123.648438 0.96875 L 124.320312 1.246094 L 124.253906 0.507812 L 124.683594 0.507812 L 124.621094 1.246094 L 125.296875 0.976562 L 125.425781 1.355469 L 124.722656 1.503906 L 125.226562 2.09375 L 124.886719 2.339844 L 124.464844 1.660156 L 124.035156 2.339844 L 123.695312 2.09375 L 124.207031 1.503906 L 123.511719 1.355469 L 123.648438 0.96875 M 127.257812 0.507812 L 127.195312 1.246094 L 127.871094 0.976562 L 128 1.355469 L 127.292969 1.503906 L 127.796875 2.09375 L 127.460938 2.339844 L 127.039062 1.660156 L 126.609375 2.339844 L 126.269531 2.09375 L 126.78125 1.503906 L 126.085938 1.355469 L 126.222656 0.96875 L 126.890625 1.246094 L 126.828125 0.507812 L 127.257812 0.507812 M 1.171875 0.507812 L 1.109375 1.246094 L 1.785156 0.976562 L 1.914062 1.355469 L 1.207031 1.503906 L 1.710938 2.09375 L 1.375 2.339844 L 0.953125 1.660156 L 0.523438 2.339844 L 0.183594 2.09375 L 0.695312 1.503906 L 0 1.355469 L 0.136719 0.96875 L 0.804688 1.246094 L 0.742188 0.507812 L 1.171875 0.507812 M 1.722656 22.691406 L 1 22.691406 C 0.875 22.691406 0.777344 22.722656 0.707031 22.792969 C 0.636719 22.867188 0.605469 22.953125 0.605469 23.050781 L 0.605469 24.949219 C 0.605469 25.046875 0.636719 25.132812 0.707031 25.207031 C 0.777344 25.273438 0.875 25.308594 1 25.308594 L 1.722656 25.308594 L 1.722656 25.675781 L 1.042969 25.675781 C 0.769531 25.675781 0.558594 25.609375 0.410156 25.472656 C 0.265625 25.335938 0.191406 25.132812 0.191406 24.863281 L 0.191406 23.132812 C 0.191406 22.863281 0.265625 22.660156 0.410156 22.523438 C 0.558594 22.390625 0.769531 22.320312 1.042969 22.320312 L 1.722656 22.320312 L 1.722656 22.691406 M 0.632812 27.746094 L 0.632812 30.734375 L 1.695312 30.734375 L 1.695312 31.101562 L 0.21875 31.101562 L 0.21875 27.746094 L 0.632812 27.746094 M 1.628906 34.96875 L 0.578125 34.96875 L 0.578125 36.175781 L 1.75 36.175781 L 1.75 36.527344 L 0.164062 36.527344 L 0.164062 33.171875 L 1.75 33.171875 L 1.75 33.523438 L 0.578125 33.523438 L 0.578125 34.621094 L 1.628906 34.621094 L 1.628906 34.96875 M 0.539062 39.328125 L 0.539062 39.84375 L 1.007812 39.84375 C 1.277344 39.84375 1.476562 39.90625 1.613281 40.027344 C 1.738281 40.144531 1.804688 40.339844 1.804688 40.617188 L 1.804688 41.140625 C 1.804688 41.277344 1.78125 41.394531 1.738281 41.492188 C 1.703125 41.597656 1.652344 41.683594 1.585938 41.75 C 1.511719 41.816406 1.429688 41.871094 1.335938 41.90625 L 1.054688 41.953125 L 0.886719 41.953125 L 0.59375 41.898438 L 0.355469 41.75 L 0.191406 41.492188 L 0.136719 41.140625 L 0.136719 39.410156 C 0.136719 39.140625 0.207031 38.9375 0.347656 38.800781 C 0.496094 38.667969 0.707031 38.601562 0.980469 38.601562 L 1.574219 38.601562 L 1.574219 38.96875 L 0.933594 38.96875 C 0.8125 38.96875 0.714844 39 0.640625 39.070312 C 0.574219 39.144531 0.539062 39.230469 0.539062 39.328125 M 1.054688 40.203125 L 0.539062 40.203125 L 0.539062 41.234375 C 0.539062 41.328125 0.570312 41.410156 0.632812 41.484375 C 0.699219 41.558594 0.789062 41.59375 0.90625 41.59375 L 1.027344 41.59375 C 1.148438 41.59375 1.238281 41.558594 1.300781 41.484375 C 1.367188 41.410156 1.402344 41.328125 1.402344 41.234375 L 1.402344 40.523438 C 1.402344 40.425781 1.375 40.351562 1.320312 40.292969 C 1.265625 40.234375 1.175781 40.203125 1.054688 40.203125 M 47.929688 0.792969 C 48.070312 0.910156 48.140625 1.101562 48.140625 1.363281 L 48.140625 1.90625 C 48.140625 2.171875 48.070312 2.367188 47.929688 2.488281 C 47.789062 2.609375 47.585938 2.671875 47.324219 2.671875 L 46.832031 2.671875 L 46.832031 3.972656 L 46.417969 3.972656 L 46.417969 0.617188 L 47.316406 0.617188 C 47.578125 0.617188 47.78125 0.675781 47.929688 0.792969 M 47.636719 1.058594 C 47.582031 1.003906 47.492188 0.976562 47.371094 0.976562 L 46.832031 0.976562 L 46.832031 2.304688 L 47.371094 2.304688 C 47.492188 2.304688 47.582031 2.277344 47.636719 2.222656 C 47.691406 2.164062 47.71875 2.078125 47.71875 1.964844 L 47.71875 1.320312 C 47.71875 1.203125 47.691406 1.117188 47.636719 1.058594 M 49.074219 2.292969 L 50.621094 2.292969 L 50.621094 2.652344 L 49.074219 2.652344 L 49.074219 2.292969 M 52.515625 0.617188 C 52.792969 0.617188 53.003906 0.6875 53.148438 0.820312 C 53.300781 0.957031 53.378906 1.160156 53.378906 1.429688 L 53.378906 3.160156 C 53.378906 3.429688 53.300781 3.632812 53.148438 3.769531 C 53.003906 3.902344 52.792969 3.972656 52.515625 3.972656 L 52.324219 3.972656 C 52.050781 3.972656 51.835938 3.902344 51.683594 3.769531 C 51.535156 3.632812 51.464844 3.429688 51.464844 3.160156 L 51.464844 1.429688 C 51.464844 1.160156 51.535156 0.957031 51.683594 0.820312 C 51.835938 0.6875 52.050781 0.617188 52.324219 0.617188 L 52.515625 0.617188 M 52.277344 0.988281 C 52.15625 0.988281 52.058594 1.019531 51.984375 1.089844 C 51.917969 1.160156 51.886719 1.246094 51.886719 1.347656 L 51.886719 3.242188 C 51.886719 3.34375 51.917969 3.429688 51.984375 3.5 C 52.058594 3.570312 52.15625 3.601562 52.277344 3.601562 L 52.5625 3.601562 C 52.683594 3.601562 52.78125 3.570312 52.855469 3.5 C 52.921875 3.429688 52.957031 3.34375 52.957031 3.242188 L 52.957031 1.347656 C 52.957031 1.246094 52.921875 1.160156 52.855469 1.089844 C 52.78125 1.019531 52.683594 0.988281 52.5625 0.988281 L 52.277344 0.988281 M 57.414062 0.296875 L 57.625 0.046875 L 58.039062 0.046875 L 57.78125 0.386719 L 57.609375 0.703125 L 57.515625 1.058594 L 57.5 1.539062 L 57.5 3.050781 L 57.515625 3.527344 L 57.609375 3.886719 L 57.78125 4.203125 L 58.039062 4.542969 L 57.625 4.542969 L 57.414062 4.304688 L 57.25 3.980469 L 57.132812 3.574219 L 57.085938 3.042969 L 57.085938 1.546875 L 57.132812 1.023438 L 57.25 0.609375 L 57.414062 0.296875 M 54.707031 1.089844 C 54.632812 1.160156 54.59375 1.246094 54.59375 1.347656 L 54.59375 1.707031 C 54.59375 1.804688 54.625 1.886719 54.6875 1.953125 C 54.753906 2.023438 54.839844 2.054688 54.945312 2.054688 L 55.082031 2.054688 C 55.300781 2.054688 55.472656 2.117188 55.601562 2.238281 C 55.730469 2.367188 55.796875 2.566406 55.796875 2.839844 L 55.796875 3.160156 C 55.796875 3.429688 55.722656 3.632812 55.574219 3.769531 C 55.429688 3.902344 55.21875 3.972656 54.945312 3.972656 L 54.265625 3.972656 L 54.265625 3.601562 L 54.988281 3.601562 C 55.113281 3.601562 55.207031 3.570312 55.273438 3.5 C 55.347656 3.429688 55.382812 3.34375 55.382812 3.253906 L 55.382812 2.746094 C 55.382812 2.652344 55.359375 2.582031 55.308594 2.523438 C 55.265625 2.464844 55.195312 2.433594 55.089844 2.433594 L 54.945312 2.433594 C 54.71875 2.433594 54.535156 2.367188 54.394531 2.230469 C 54.253906 2.09375 54.183594 1.890625 54.183594 1.613281 L 54.183594 1.4375 C 54.183594 1.160156 54.257812 0.957031 54.402344 0.820312 C 54.550781 0.6875 54.761719 0.617188 55.035156 0.617188 L 55.722656 0.617188 L 55.722656 0.988281 L 54.988281 0.988281 C 54.875 0.988281 54.777344 1.019531 54.707031 1.089844 M 60.695312 0.792969 C 60.835938 0.910156 60.90625 1.101562 60.90625 1.363281 L 60.90625 1.824219 C 60.90625 2.015625 60.867188 2.164062 60.796875 2.277344 C 60.714844 2.378906 60.609375 2.453125 60.472656 2.496094 L 61.132812 3.972656 L 60.683594 3.972656 L 60.070312 2.582031 L 59.605469 2.582031 L 59.605469 3.972656 L 59.183594 3.972656 L 59.183594 0.617188 L 60.082031 0.617188 C 60.34375 0.617188 60.546875 0.675781 60.695312 0.792969 M 60.402344 1.058594 C 60.347656 1.003906 60.257812 0.976562 60.136719 0.976562 L 59.605469 0.976562 L 59.605469 2.222656 L 60.136719 2.222656 C 60.257812 2.222656 60.347656 2.195312 60.402344 2.136719 C 60.457031 2.082031 60.484375 1.992188 60.484375 1.871094 L 60.484375 1.320312 C 60.484375 1.203125 60.457031 1.117188 60.402344 1.058594 M 34.625 0.507812 L 34.558594 1.246094 L 35.238281 0.976562 L 35.367188 1.355469 L 34.660156 1.503906 L 35.164062 2.09375 L 34.824219 2.339844 L 34.402344 1.660156 L 33.972656 2.339844 L 33.632812 2.09375 L 34.148438 1.503906 L 33.453125 1.355469 L 33.589844 0.96875 L 34.257812 1.246094 L 34.191406 0.507812 L 34.625 0.507812 M 32.050781 0.507812 L 31.984375 1.246094 L 32.664062 0.976562 L 32.792969 1.355469 L 32.085938 1.503906 L 32.589844 2.09375 L 32.25 2.339844 L 31.832031 1.660156 L 31.398438 2.339844 L 31.0625 2.09375 L 31.574219 1.503906 L 30.878906 1.355469 L 31.015625 0.96875 L 31.683594 1.246094 L 31.621094 0.507812 L 32.050781 0.507812 M 36.207031 2.09375 L 36.71875 1.503906 L 36.023438 1.355469 L 36.160156 0.96875 L 36.832031 1.246094 L 36.765625 0.507812 L 37.195312 0.507812 L 37.132812 1.246094 L 37.808594 0.976562 L 37.9375 1.355469 L 37.234375 1.503906 L 37.738281 2.09375 L 37.398438 2.339844 L 36.976562 1.660156 L 36.546875 2.339844 L 36.207031 2.09375 M 42.167969 0.617188 C 42.429688 0.617188 42.636719 0.675781 42.78125 0.792969 C 42.921875 0.910156 42.992188 1.101562 42.992188 1.363281 L 42.992188 1.90625 C 42.992188 2.171875 42.921875 2.367188 42.78125 2.488281 C 42.640625 2.609375 42.441406 2.671875 42.179688 2.671875 L 41.683594 2.671875 L 41.683594 3.972656 L 41.273438 3.972656 L 41.273438 0.617188 L 42.167969 0.617188 M 42.488281 1.058594 C 42.433594 1.003906 42.347656 0.976562 42.222656 0.976562 L 41.683594 0.976562 L 41.683594 2.304688 L 42.222656 2.304688 C 42.347656 2.304688 42.433594 2.277344 42.488281 2.222656 C 42.542969 2.164062 42.570312 2.078125 42.570312 1.964844 L 42.570312 1.320312 C 42.570312 1.203125 42.542969 1.117188 42.488281 1.058594 M 44.066406 0.617188 L 45.328125 0.617188 L 45.328125 0.96875 L 44.90625 0.96875 L 44.90625 3.621094 L 45.328125 3.621094 L 45.328125 3.972656 L 44.066406 3.972656 L 44.066406 3.621094 L 44.496094 3.621094 L 44.496094 0.96875 L 44.066406 0.96875 L 44.066406 0.617188 M 19.183594 0.507812 L 19.121094 1.246094 L 19.796875 0.976562 L 19.925781 1.355469 L 19.222656 1.503906 L 19.726562 2.09375 L 19.386719 2.339844 L 18.964844 1.660156 L 18.535156 2.339844 L 18.195312 2.09375 L 18.707031 1.503906 L 18.011719 1.355469 L 18.148438 0.96875 L 18.816406 1.246094 L 18.753906 0.507812 L 19.183594 0.507812 M 16.8125 2.339844 L 16.390625 1.660156 L 15.960938 2.339844 L 15.621094 2.09375 L 16.136719 1.503906 L 15.4375 1.355469 L 15.578125 0.96875 L 16.246094 1.246094 L 16.179688 0.507812 L 16.609375 0.507812 L 16.546875 1.246094 L 17.226562 0.976562 L 17.351562 1.355469 L 16.648438 1.503906 L 17.152344 2.09375 L 16.8125 2.339844 M 21.757812 0.507812 L 21.695312 1.246094 L 22.371094 0.976562 L 22.5 1.355469 L 21.792969 1.503906 L 22.296875 2.09375 L 21.960938 2.339844 L 21.539062 1.660156 L 21.109375 2.339844 L 20.769531 2.09375 L 21.28125 1.503906 L 20.585938 1.355469 L 20.722656 0.96875 L 21.390625 1.246094 L 21.328125 0.507812 L 21.757812 0.507812 M 23.34375 2.09375 L 23.855469 1.503906 L 23.160156 1.355469 L 23.296875 0.96875 L 23.964844 1.246094 L 23.902344 0.507812 L 24.332031 0.507812 L 24.265625 1.246094 L 24.945312 0.976562 L 25.074219 1.355469 L 24.367188 1.503906 L 24.871094 2.09375 L 24.53125 2.339844 L 24.109375 1.660156 L 23.679688 2.339844 L 23.34375 2.09375 M 26.902344 0.507812 L 26.839844 1.246094 L 27.515625 0.976562 L 27.644531 1.355469 L 26.941406 1.503906 L 27.445312 2.09375 L 27.105469 2.339844 L 26.683594 1.660156 L 26.253906 2.339844 L 25.914062 2.09375 L 26.429688 1.503906 L 25.730469 1.355469 L 25.871094 0.96875 L 26.539062 1.246094 L 26.472656 0.507812 L 26.902344 0.507812 M 29.476562 0.507812 L 29.414062 1.246094 L 30.089844 0.976562 L 30.21875 1.355469 L 29.515625 1.503906 L 30.015625 2.09375 L 29.679688 2.339844 L 29.257812 1.660156 L 28.828125 2.339844 L 28.488281 2.09375 L 29 1.503906 L 28.304688 1.355469 L 28.441406 0.96875 L 29.109375 1.246094 L 29.046875 0.507812 L 29.476562 0.507812 M 2.757812 2.09375 L 3.269531 1.503906 L 2.574219 1.355469 L 2.710938 0.96875 L 3.378906 1.246094 L 3.316406 0.507812 L 3.746094 0.507812 L 3.679688 1.246094 L 4.359375 0.976562 L 4.488281 1.355469 L 3.78125 1.503906 L 4.285156 2.09375 C 4.175781 2.179688 4.0625 2.261719 3.945312 2.339844 L 3.527344 1.660156 L 3.09375 2.339844 L 2.757812 2.09375 M 5.285156 0.96875 L 5.953125 1.246094 L 5.886719 0.507812 L 6.320312 0.507812 L 6.253906 1.246094 L 6.933594 0.976562 L 7.058594 1.355469 L 6.355469 1.503906 L 6.859375 2.09375 L 6.519531 2.339844 L 6.097656 1.660156 L 5.667969 2.339844 L 5.328125 2.09375 L 5.84375 1.503906 L 5.144531 1.355469 L 5.285156 0.96875 M 8.890625 0.507812 L 8.828125 1.246094 L 9.503906 0.976562 L 9.632812 1.355469 L 8.929688 1.503906 L 9.433594 2.09375 L 9.09375 2.339844 L 8.671875 1.660156 L 8.242188 2.339844 L 7.902344 2.09375 L 8.414062 1.503906 L 7.71875 1.355469 L 7.855469 0.96875 L 8.527344 1.246094 L 8.460938 0.507812 L 8.890625 0.507812 M 10.988281 1.503906 L 10.292969 1.355469 L 10.429688 0.96875 L 11.097656 1.246094 L 11.035156 0.507812 L 11.464844 0.507812 L 11.402344 1.246094 L 12.078125 0.976562 L 12.207031 1.355469 L 11.5 1.503906 L 12.003906 2.09375 L 11.667969 2.339844 L 11.246094 1.660156 L 10.816406 2.339844 L 10.476562 2.09375 L 10.988281 1.503906 M 14.039062 0.507812 L 13.972656 1.246094 L 14.652344 0.976562 L 14.78125 1.355469 L 14.074219 1.503906 L 14.578125 2.09375 L 14.238281 2.339844 L 13.816406 1.660156 L 13.386719 2.339844 L 13.050781 2.09375 L 13.5625 1.503906 L 12.867188 1.355469 L 13.003906 0.96875 L 13.671875 1.246094 L 13.609375 0.507812 L 14.039062 0.507812 M 30.054688 23.179688 L 30.054688 24.875 C 30.054688 25.144531 29.980469 25.34375 29.835938 25.472656 C 29.6875 25.609375 29.5 25.675781 29.277344 25.675781 L 29.175781 25.675781 C 28.941406 25.675781 28.753906 25.609375 28.605469 25.472656 C 28.460938 25.34375 28.386719 25.144531 28.386719 24.875 L 28.386719 23.179688 C 28.386719 22.914062 28.460938 22.71875 28.605469 22.589844 C 28.753906 22.460938 28.941406 22.394531 29.175781 22.394531 L 29.277344 22.394531 C 29.5 22.394531 29.6875 22.460938 29.835938 22.589844 C 29.980469 22.71875 30.054688 22.914062 30.054688 23.179688 M 30.960938 22.394531 L 32.472656 22.394531 L 32.472656 22.847656 L 31.648438 25.675781 L 31.246094 25.675781 L 32.085938 22.746094 L 30.960938 22.746094 L 30.960938 22.394531 M 29.175781 22.746094 C 29.054688 22.746094 28.957031 22.78125 28.890625 22.847656 C 28.824219 22.921875 28.789062 23.007812 28.789062 23.105469 L 28.789062 24.375 L 29.652344 23.105469 C 29.652344 23.007812 29.621094 22.921875 29.558594 22.847656 C 29.488281 22.78125 29.390625 22.746094 29.277344 22.746094 L 29.175781 22.746094 M 28.890625 25.214844 C 28.957031 25.289062 29.054688 25.324219 29.175781 25.324219 L 29.277344 25.324219 C 29.390625 25.324219 29.488281 25.289062 29.558594 25.214844 C 29.621094 25.140625 29.652344 25.054688 29.652344 24.957031 L 29.652344 23.703125 L 28.789062 24.957031 C 28.789062 25.054688 28.824219 25.140625 28.890625 25.214844 M 26.546875 22.394531 C 26.820312 22.394531 27.027344 22.460938 27.167969 22.589844 C 27.308594 22.71875 27.378906 22.914062 27.378906 23.179688 L 27.378906 23.390625 L 27.363281 23.695312 L 27.308594 23.914062 L 27.207031 24.109375 L 27.058594 24.339844 L 26.371094 25.308594 L 27.480469 25.308594 L 27.480469 25.675781 L 25.933594 25.675781 L 25.933594 25.261719 L 26.683594 24.191406 L 26.839844 23.960938 L 26.921875 23.796875 L 26.976562 23.628906 L 26.988281 23.425781 L 26.988281 23.105469 C 26.988281 23.007812 26.949219 22.921875 26.875 22.847656 C 26.808594 22.78125 26.714844 22.746094 26.59375 22.746094 L 26.035156 22.746094 L 26.035156 22.394531 L 26.546875 22.394531 M 26.511719 27.746094 L 26.96875 27.746094 L 26.96875 30.742188 L 27.480469 30.742188 L 27.480469 31.101562 L 25.933594 31.101562 L 25.933594 30.742188 L 26.554688 30.742188 L 26.554688 28.125 L 25.886719 28.375 L 25.886719 27.988281 L 26.511719 27.746094 M 22.507812 22.691406 L 21.75 22.691406 L 21.75 25.675781 L 21.335938 25.675781 L 21.335938 22.691406 L 20.578125 22.691406 L 20.578125 22.320312 L 22.507812 22.320312 L 22.507812 22.691406 M 19.871094 22.320312 L 19.871094 25.675781 L 19.460938 25.675781 L 19.460938 24.136719 L 18.480469 24.136719 L 18.480469 25.675781 L 18.066406 25.675781 L 18.066406 22.320312 L 18.480469 22.320312 L 18.480469 23.777344 L 19.460938 23.777344 L 19.460938 22.320312 L 19.871094 22.320312 M 17.085938 22.691406 L 16.363281 22.691406 C 16.246094 22.691406 16.152344 22.722656 16.082031 22.792969 C 16.007812 22.867188 15.96875 22.953125 15.96875 23.050781 L 15.96875 24.949219 C 15.96875 25.046875 16.007812 25.132812 16.082031 25.207031 C 16.152344 25.273438 16.246094 25.308594 16.363281 25.308594 L 16.832031 25.308594 L 16.832031 24.273438 L 16.417969 24.273438 L 16.417969 23.914062 L 17.226562 23.914062 L 17.226562 25.675781 L 16.410156 25.675781 C 16.136719 25.675781 15.925781 25.609375 15.777344 25.472656 C 15.632812 25.335938 15.558594 25.132812 15.558594 24.863281 L 15.558594 23.132812 C 15.558594 22.863281 15.632812 22.660156 15.777344 22.523438 C 15.925781 22.390625 16.136719 22.320312 16.410156 22.320312 L 17.085938 22.320312 L 17.085938 22.691406 M 19.960938 27.746094 L 19.210938 31.101562 L 18.652344 31.101562 L 17.949219 27.746094 L 18.371094 27.746094 L 18.9375 30.675781 L 19.550781 27.746094 L 19.960938 27.746094 M 21.363281 27.746094 L 21.820312 27.746094 L 21.820312 30.742188 L 22.335938 30.742188 L 22.335938 31.101562 L 20.785156 31.101562 L 20.785156 30.742188 L 21.410156 30.742188 L 21.410156 28.125 L 20.742188 28.375 L 20.742188 27.988281 L 21.363281 27.746094 M 23.871094 30.621094 L 24.347656 30.621094 L 24.347656 31.101562 L 23.871094 31.101562 L 23.871094 30.621094 M 20.730469 33.992188 C 20.730469 33.71875 20.804688 33.511719 20.953125 33.375 C 21.097656 33.242188 21.308594 33.171875 21.582031 33.171875 L 22.269531 33.171875 L 22.269531 33.542969 L 21.539062 33.542969 C 21.421875 33.542969 21.328125 33.574219 21.253906 33.644531 C 21.179688 33.71875 21.144531 33.804688 21.144531 33.902344 L 21.144531 34.261719 C 21.144531 34.359375 21.175781 34.441406 21.234375 34.507812 C 21.304688 34.578125 21.386719 34.609375 21.492188 34.609375 L 21.628906 34.609375 C 21.847656 34.609375 22.023438 34.671875 22.152344 34.796875 C 22.28125 34.925781 22.34375 35.125 22.34375 35.394531 L 22.34375 35.714844 C 22.34375 35.988281 22.269531 36.1875 22.125 36.324219 C 21.976562 36.460938 21.765625 36.527344 21.492188 36.527344 L 20.8125 36.527344 L 20.8125 36.160156 L 21.539062 36.160156 C 21.660156 36.160156 21.753906 36.125 21.820312 36.058594 C 21.894531 35.984375 21.929688 35.902344 21.929688 35.808594 L 21.929688 35.300781 C 21.929688 35.210938 21.90625 35.136719 21.859375 35.082031 C 21.816406 35.019531 21.742188 34.988281 21.636719 34.988281 L 21.492188 34.988281 C 21.265625 34.988281 21.082031 34.921875 20.941406 34.785156 C 20.800781 34.652344 20.730469 34.445312 20.730469 34.167969 L 20.730469 33.992188 M 23.480469 33.171875 L 24.742188 33.171875 L 24.742188 33.523438 L 24.320312 33.523438 L 24.320312 36.175781 L 24.742188 36.175781 L 24.742188 36.527344 L 23.480469 36.527344 L 23.480469 36.175781 L 23.910156 36.175781 L 23.910156 33.523438 L 23.480469 33.523438 L 23.480469 33.171875 M 17.1875 33.523438 L 16.015625 33.523438 L 16.015625 34.621094 L 17.070312 34.621094 L 17.070312 34.96875 L 16.015625 34.96875 L 16.015625 36.175781 L 17.1875 36.175781 L 17.1875 36.527344 L 15.605469 36.527344 L 15.605469 33.171875 L 17.1875 33.171875 L 17.1875 33.523438 M 18.433594 34.777344 L 18.964844 34.777344 C 19.085938 34.777344 19.175781 34.75 19.230469 34.695312 C 19.285156 34.636719 19.3125 34.550781 19.3125 34.425781 L 19.3125 33.875 C 19.3125 33.757812 19.285156 33.671875 19.230469 33.617188 C 19.175781 33.5625 19.085938 33.53125 18.964844 33.53125 L 18.433594 33.53125 L 18.433594 34.777344 M 19.734375 34.378906 C 19.734375 34.570312 19.695312 34.722656 19.625 34.832031 C 19.542969 34.9375 19.4375 35.011719 19.304688 35.054688 L 19.960938 36.527344 L 19.515625 36.527344 L 18.902344 35.136719 L 18.433594 35.136719 L 18.433594 36.527344 L 18.011719 36.527344 L 18.011719 33.171875 L 18.910156 33.171875 C 19.171875 33.171875 19.375 33.230469 19.523438 33.347656 C 19.664062 33.464844 19.734375 33.65625 19.734375 33.921875 L 19.734375 34.378906 M 17.433594 38.601562 L 17.433594 41.953125 L 17.058594 41.953125 L 17.058594 38.941406 L 16.582031 40.828125 L 16.191406 40.828125 L 15.722656 38.941406 L 15.722656 41.953125 L 15.367188 41.953125 L 15.367188 38.601562 L 16.023438 38.601562 L 16.402344 40.3125 L 16.792969 38.601562 L 17.433594 38.601562 M 30.164062 33.171875 L 30.164062 36.527344 L 29.488281 36.527344 L 28.734375 33.523438 L 28.734375 36.527344 L 28.351562 36.527344 L 28.351562 33.171875 L 29.027344 33.171875 L 29.78125 36.167969 L 29.78125 33.171875 L 30.164062 33.171875 M 25.953125 33.375 C 26.105469 33.242188 26.316406 33.171875 26.59375 33.171875 L 26.785156 33.171875 C 27.058594 33.171875 27.269531 33.242188 27.417969 33.375 C 27.570312 33.511719 27.644531 33.714844 27.644531 33.984375 L 27.644531 35.714844 C 27.644531 35.988281 27.570312 36.1875 27.417969 36.324219 C 27.269531 36.460938 27.058594 36.527344 26.785156 36.527344 L 26.59375 36.527344 C 26.316406 36.527344 26.105469 36.460938 25.953125 36.324219 C 25.804688 36.1875 25.730469 35.988281 25.730469 35.714844 L 25.730469 33.984375 C 25.730469 33.714844 25.804688 33.511719 25.953125 33.375 M 26.152344 33.902344 L 26.152344 35.800781 C 26.152344 35.898438 26.1875 35.984375 26.253906 36.058594 C 26.328125 36.125 26.425781 36.160156 26.546875 36.160156 L 26.832031 36.160156 C 26.953125 36.160156 27.050781 36.125 27.125 36.058594 C 27.191406 35.984375 27.222656 35.898438 27.222656 35.800781 L 27.222656 33.902344 C 27.222656 33.804688 27.191406 33.71875 27.125 33.644531 C 27.050781 33.574219 26.953125 33.542969 26.832031 33.542969 L 26.546875 33.542969 C 26.425781 33.542969 26.328125 33.574219 26.253906 33.644531 C 26.1875 33.71875 26.152344 33.804688 26.152344 33.902344 M 14.449219 22.320312 L 14.449219 22.671875 L 14.027344 22.671875 L 14.027344 25.324219 L 14.449219 25.324219 L 14.449219 25.675781 L 13.1875 25.675781 L 13.1875 25.324219 L 13.617188 25.324219 L 13.617188 22.671875 L 13.1875 22.671875 L 13.1875 22.320312 L 14.449219 22.320312 M 12.015625 23.066406 L 12.015625 23.527344 C 12.015625 23.71875 11.976562 23.871094 11.90625 23.980469 C 11.824219 24.085938 11.71875 24.160156 11.582031 24.203125 L 12.242188 25.675781 L 11.792969 25.675781 L 11.179688 24.285156 L 10.714844 24.285156 L 10.714844 25.675781 L 10.292969 25.675781 L 10.292969 22.320312 L 11.191406 22.320312 C 11.453125 22.320312 11.65625 22.378906 11.804688 22.496094 C 11.945312 22.613281 12.015625 22.804688 12.015625 23.066406 M 11.511719 22.765625 C 11.457031 22.707031 11.367188 22.679688 11.246094 22.679688 L 10.714844 22.679688 L 10.714844 23.925781 L 11.246094 23.925781 C 11.367188 23.925781 11.457031 23.898438 11.511719 23.84375 C 11.566406 23.785156 11.59375 23.699219 11.59375 23.574219 L 11.59375 23.023438 C 11.59375 22.90625 11.566406 22.820312 11.511719 22.765625 M 9.742188 22.320312 L 8.882812 24.117188 L 8.882812 25.675781 L 8.453125 25.675781 L 8.453125 24.117188 L 7.601562 22.320312 L 8.058594 22.320312 L 8.679688 23.714844 L 9.3125 22.320312 L 9.742188 22.320312 M 12.042969 28.097656 L 10.871094 28.097656 L 10.871094 29.195312 L 11.921875 29.195312 L 11.921875 29.542969 L 10.871094 29.542969 L 10.871094 30.75 L 12.042969 30.75 L 12.042969 31.101562 L 10.457031 31.101562 L 10.457031 27.746094 L 12.042969 27.746094 L 12.042969 28.097656 M 9.570312 30.34375 C 9.570312 30.621094 9.503906 30.816406 9.378906 30.925781 C 9.253906 31.042969 9.050781 31.101562 8.761719 31.101562 L 7.785156 31.101562 L 7.785156 27.746094 L 8.699219 27.746094 C 8.972656 27.746094 9.1875 27.804688 9.339844 27.914062 C 9.492188 28.023438 9.570312 28.21875 9.570312 28.492188 L 9.570312 30.34375 M 14.375 27.921875 C 14.515625 28.039062 14.585938 28.230469 14.585938 28.492188 L 14.585938 28.953125 C 14.585938 29.144531 14.550781 29.296875 14.476562 29.40625 C 14.398438 29.511719 14.292969 29.585938 14.15625 29.628906 L 14.816406 31.101562 L 14.367188 31.101562 L 13.753906 29.710938 L 13.289062 29.710938 L 13.289062 31.101562 L 12.867188 31.101562 L 12.867188 27.746094 L 13.761719 27.746094 C 14.027344 27.746094 14.230469 27.804688 14.375 27.921875 M 13.289062 28.105469 L 13.289062 29.351562 L 13.816406 29.351562 C 13.941406 29.351562 14.027344 29.324219 14.082031 29.269531 C 14.140625 29.210938 14.167969 29.125 14.167969 29 L 14.167969 28.449219 C 14.167969 28.332031 14.140625 28.246094 14.082031 28.191406 C 14.027344 28.132812 13.941406 28.105469 13.816406 28.105469 L 13.289062 28.105469 M 6.464844 22.765625 C 6.410156 22.707031 6.320312 22.679688 6.199219 22.679688 L 5.660156 22.679688 L 5.660156 24.007812 L 6.199219 24.007812 C 6.320312 24.007812 6.410156 23.980469 6.464844 23.925781 C 6.519531 23.871094 6.546875 23.785156 6.546875 23.667969 L 6.546875 23.023438 C 6.546875 22.90625 6.519531 22.820312 6.464844 22.765625 M 6.96875 23.066406 L 6.96875 23.613281 C 6.96875 23.875 6.898438 24.070312 6.757812 24.191406 C 6.617188 24.316406 6.417969 24.375 6.152344 24.375 L 5.660156 24.375 L 5.660156 25.675781 L 5.246094 25.675781 L 5.246094 22.320312 L 6.144531 22.320312 C 6.40625 22.320312 6.613281 22.378906 6.757812 22.496094 C 6.898438 22.613281 6.96875 22.804688 6.96875 23.066406 M 4.488281 23.132812 L 4.488281 24.863281 C 4.488281 25.132812 4.410156 25.335938 4.257812 25.472656 C 4.113281 25.609375 3.902344 25.675781 3.625 25.675781 L 3.433594 25.675781 C 3.160156 25.675781 2.945312 25.609375 2.792969 25.472656 C 2.644531 25.335938 2.574219 25.132812 2.574219 24.863281 L 2.574219 23.132812 C 2.574219 22.863281 2.644531 22.660156 2.792969 22.523438 C 2.945312 22.390625 3.160156 22.320312 3.433594 22.320312 L 3.625 22.320312 C 3.902344 22.320312 4.113281 22.390625 4.257812 22.523438 C 4.410156 22.660156 4.488281 22.863281 4.488281 23.132812 M 3.964844 22.792969 C 3.890625 22.722656 3.792969 22.691406 3.671875 22.691406 L 3.386719 22.691406 C 3.265625 22.691406 3.167969 22.722656 3.09375 22.792969 C 3.027344 22.867188 2.996094 22.953125 2.996094 23.050781 L 2.996094 24.949219 C 2.996094 25.046875 3.027344 25.132812 3.09375 25.207031 C 3.167969 25.273438 3.265625 25.308594 3.386719 25.308594 L 3.671875 25.308594 C 3.792969 25.308594 3.890625 25.273438 3.964844 25.207031 C 4.03125 25.132812 4.066406 25.046875 4.066406 24.949219 L 4.066406 23.050781 C 4.066406 22.953125 4.03125 22.867188 3.964844 22.792969 M 3.625 27.746094 C 3.902344 27.746094 4.113281 27.816406 4.257812 27.949219 C 4.410156 28.085938 4.488281 28.289062 4.488281 28.558594 L 4.488281 30.289062 C 4.488281 30.5625 4.410156 30.761719 4.257812 30.898438 C 4.113281 31.035156 3.902344 31.101562 3.625 31.101562 L 3.433594 31.101562 C 3.160156 31.101562 2.945312 31.035156 2.792969 30.898438 C 2.644531 30.761719 2.574219 30.5625 2.574219 30.289062 L 2.574219 28.558594 C 2.574219 28.289062 2.644531 28.085938 2.792969 27.949219 C 2.945312 27.816406 3.160156 27.746094 3.433594 27.746094 L 3.625 27.746094 M 3.386719 28.117188 C 3.265625 28.117188 3.167969 28.148438 3.09375 28.21875 C 3.027344 28.292969 2.996094 28.378906 2.996094 28.476562 L 2.996094 30.375 C 2.996094 30.472656 3.027344 30.558594 3.09375 30.632812 C 3.167969 30.699219 3.265625 30.734375 3.386719 30.734375 L 3.671875 30.734375 C 3.792969 30.734375 3.890625 30.699219 3.964844 30.632812 C 4.03125 30.558594 4.066406 30.472656 4.066406 30.375 L 4.066406 28.476562 C 4.066406 28.378906 4.03125 28.292969 3.964844 28.21875 C 3.890625 28.148438 3.792969 28.117188 3.671875 28.117188 L 3.386719 28.117188 M 8.195312 28.105469 L 8.195312 30.742188 L 8.800781 30.742188 C 8.921875 30.742188 9.015625 30.714844 9.074219 30.660156 C 9.128906 30.605469 9.15625 30.515625 9.15625 30.390625 L 9.15625 28.449219 C 9.15625 28.34375 9.125 28.261719 9.054688 28.199219 C 8.996094 28.136719 8.914062 28.105469 8.808594 28.105469 L 8.195312 28.105469 M 6.382812 27.746094 L 7.171875 31.101562 L 6.75 31.101562 L 6.566406 30.253906 L 5.640625 30.253906 L 5.457031 31.101562 L 5.027344 31.101562 L 5.832031 27.746094 L 6.382812 27.746094 M 6.492188 29.894531 L 6.097656 28.0625 L 5.714844 29.894531 L 6.492188 29.894531 M 6.777344 34.96875 L 5.722656 34.96875 L 5.722656 36.175781 L 6.894531 36.175781 L 6.894531 36.527344 L 5.3125 36.527344 L 5.3125 33.171875 L 6.894531 33.171875 L 6.894531 33.523438 L 5.722656 33.523438 L 5.722656 34.621094 L 6.777344 34.621094 L 6.777344 34.96875 M 8.425781 33.644531 C 8.359375 33.71875 8.324219 33.804688 8.324219 33.902344 L 8.324219 35.800781 C 8.324219 35.898438 8.359375 35.984375 8.425781 36.058594 C 8.496094 36.125 8.59375 36.160156 8.71875 36.160156 L 9.441406 36.160156 L 9.441406 36.527344 L 8.761719 36.527344 C 8.488281 36.527344 8.277344 36.460938 8.132812 36.324219 C 7.984375 36.1875 7.910156 35.988281 7.910156 35.714844 L 7.910156 33.984375 C 7.910156 33.714844 7.984375 33.511719 8.132812 33.375 C 8.277344 33.242188 8.488281 33.171875 8.761719 33.171875 L 9.441406 33.171875 L 9.441406 33.542969 L 8.71875 33.542969 C 8.59375 33.542969 8.496094 33.574219 8.425781 33.644531 M 3.011719 33.171875 L 3.535156 34.308594 L 4.085938 33.171875 L 4.523438 33.171875 L 3.753906 34.785156 L 4.570312 36.527344 L 4.101562 36.527344 L 3.535156 35.265625 L 2.929688 36.527344 L 2.480469 36.527344 L 3.316406 34.796875 L 2.5625 33.171875 L 3.011719 33.171875 M 3.554688 38.601562 L 3.066406 40.855469 L 3.636719 40.855469 L 3.636719 39.761719 L 4.046875 39.761719 L 4.046875 40.855469 L 4.40625 40.855469 L 4.40625 41.207031 L 4.046875 41.207031 L 4.046875 41.953125 L 3.636719 41.953125 L 3.636719 41.207031 L 2.65625 41.207031 L 2.65625 40.792969 L 3.167969 38.601562 L 3.554688 38.601562 M 6.941406 39.558594 L 6.109375 40.496094 L 7.003906 41.953125 L 6.5 41.953125 L 5.804688 40.78125 L 5.675781 40.929688 L 5.675781 41.953125 L 5.273438 41.953125 L 5.273438 38.601562 L 5.675781 38.601562 L 5.675781 40.40625 L 6.429688 39.558594 L 6.941406 39.558594 M 14.816406 33.171875 L 14.066406 36.527344 L 13.507812 36.527344 L 12.800781 33.171875 L 13.222656 33.171875 L 13.789062 36.101562 L 14.40625 33.171875 L 14.816406 33.171875 M 11.804688 38.773438 C 11.945312 38.890625 12.015625 39.082031 12.015625 39.347656 L 12.015625 39.804688 C 12.015625 39.996094 11.976562 40.148438 11.90625 40.257812 C 11.824219 40.363281 11.71875 40.4375 11.582031 40.480469 L 12.242188 41.953125 L 11.792969 41.953125 L 11.179688 40.5625 L 10.714844 40.5625 L 10.714844 41.953125 L 10.292969 41.953125 L 10.292969 38.601562 L 11.191406 38.601562 C 11.453125 38.601562 11.65625 38.65625 11.804688 38.773438 M 11.246094 38.957031 L 10.714844 38.957031 L 10.714844 40.203125 L 11.246094 40.203125 C 11.367188 40.203125 11.457031 40.175781 11.511719 40.121094 C 11.566406 40.0625 11.59375 39.976562 11.59375 39.851562 L 11.59375 39.300781 C 11.59375 39.183594 11.566406 39.097656 11.511719 39.042969 C 11.457031 38.988281 11.367188 38.957031 11.246094 38.957031 M 14.101562 38.601562 L 14.890625 41.953125 L 14.46875 41.953125 L 14.285156 41.105469 L 13.359375 41.105469 L 13.175781 41.953125 L 12.746094 41.953125 L 13.550781 38.601562 L 14.101562 38.601562 M 14.210938 40.746094 L 13.816406 38.914062 L 13.433594 40.746094 L 14.210938 40.746094 M 58.003906 22.726562 L 58.039062 23.253906 L 58.039062 24.746094 L 58.003906 25.277344 C 57.972656 25.433594 57.933594 25.566406 57.882812 25.683594 C 57.839844 25.808594 57.785156 25.914062 57.71875 26.007812 L 57.507812 26.246094 L 57.085938 26.246094 C 57.195312 26.125 57.285156 26.011719 57.351562 25.90625 C 57.417969 25.808594 57.476562 25.703125 57.527344 25.59375 C 57.5625 25.488281 57.589844 25.367188 57.609375 25.234375 C 57.625 25.097656 57.636719 24.9375 57.636719 24.753906 L 57.636719 23.242188 C 57.636719 23.058594 57.625 22.898438 57.609375 22.765625 L 57.527344 22.40625 L 57.351562 22.089844 L 57.085938 21.75 L 57.507812 21.75 L 57.71875 22 L 57.882812 22.3125 C 57.933594 22.429688 57.972656 22.566406 58.003906 22.726562 M 55.757812 23.527344 C 55.757812 23.71875 55.722656 23.871094 55.648438 23.980469 C 55.570312 24.085938 55.460938 24.160156 55.328125 24.203125 L 55.988281 25.675781 L 55.539062 25.675781 L 54.925781 24.285156 L 54.457031 24.285156 L 54.457031 25.675781 L 54.035156 25.675781 L 54.035156 22.320312 L 54.933594 22.320312 C 55.195312 22.320312 55.402344 22.378906 55.546875 22.496094 C 55.6875 22.613281 55.757812 22.804688 55.757812 23.066406 L 55.757812 23.527344 M 55.335938 23.023438 C 55.335938 22.90625 55.308594 22.820312 55.253906 22.765625 C 55.199219 22.707031 55.113281 22.679688 54.988281 22.679688 L 54.457031 22.679688 L 54.457031 23.925781 L 54.988281 23.925781 C 55.113281 23.925781 55.199219 23.898438 55.253906 23.84375 C 55.308594 23.785156 55.335938 23.699219 55.335938 23.574219 L 55.335938 23.023438 M 52.269531 22 L 52.480469 21.75 L 52.890625 21.75 L 52.636719 22.089844 L 52.460938 22.40625 L 52.371094 22.765625 L 52.351562 23.242188 L 52.351562 24.753906 L 52.371094 25.234375 L 52.460938 25.59375 L 52.636719 25.90625 L 52.890625 26.246094 L 52.480469 26.246094 L 52.269531 26.007812 L 52.105469 25.683594 L 51.984375 25.277344 L 51.941406 24.746094 L 51.941406 23.253906 L 51.984375 22.726562 L 52.105469 22.3125 L 52.269531 22 M 50.804688 23.132812 L 50.804688 24.863281 C 50.804688 25.132812 50.726562 25.335938 50.574219 25.472656 C 50.429688 25.609375 50.21875 25.675781 49.945312 25.675781 L 49.75 25.675781 C 49.476562 25.675781 49.261719 25.609375 49.109375 25.472656 C 48.964844 25.335938 48.890625 25.132812 48.890625 24.863281 L 48.890625 23.132812 C 48.890625 22.863281 48.964844 22.660156 49.109375 22.523438 C 49.261719 22.390625 49.476562 22.320312 49.75 22.320312 L 49.945312 22.320312 C 50.21875 22.320312 50.429688 22.390625 50.574219 22.523438 C 50.726562 22.660156 50.804688 22.863281 50.804688 23.132812 M 50.28125 22.792969 C 50.210938 22.722656 50.113281 22.691406 49.988281 22.691406 L 49.707031 22.691406 C 49.582031 22.691406 49.484375 22.722656 49.414062 22.792969 C 49.34375 22.867188 49.3125 22.953125 49.3125 23.050781 L 49.3125 24.949219 C 49.3125 25.046875 49.34375 25.132812 49.414062 25.207031 C 49.484375 25.273438 49.582031 25.308594 49.707031 25.308594 L 49.988281 25.308594 C 50.113281 25.308594 50.210938 25.273438 50.28125 25.207031 C 50.347656 25.132812 50.382812 25.046875 50.382812 24.949219 L 50.382812 23.050781 C 50.382812 22.953125 50.347656 22.867188 50.28125 22.792969 M 48.039062 22.691406 L 47.316406 22.691406 C 47.195312 22.691406 47.097656 22.722656 47.023438 22.792969 C 46.957031 22.867188 46.921875 22.953125 46.921875 23.050781 L 46.921875 24.949219 C 46.921875 25.046875 46.957031 25.132812 47.023438 25.207031 C 47.097656 25.273438 47.195312 25.308594 47.316406 25.308594 L 48.039062 25.308594 L 48.039062 25.675781 L 47.359375 25.675781 C 47.085938 25.675781 46.875 25.609375 46.730469 25.472656 C 46.582031 25.335938 46.507812 25.132812 46.507812 24.863281 L 46.507812 23.132812 C 46.507812 22.863281 46.582031 22.660156 46.730469 22.523438 C 46.875 22.390625 47.085938 22.320312 47.359375 22.320312 L 48.039062 22.320312 L 48.039062 22.691406 M 45.53125 23.066406 L 45.53125 23.34375 C 45.53125 23.46875 45.507812 23.578125 45.464844 23.675781 C 45.417969 23.769531 45.351562 23.84375 45.273438 23.898438 C 45.371094 23.953125 45.449219 24.027344 45.503906 24.128906 C 45.550781 24.226562 45.574219 24.34375 45.574219 24.488281 L 45.574219 24.917969 C 45.574219 25.191406 45.515625 25.382812 45.390625 25.5 C 45.265625 25.617188 45.058594 25.675781 44.769531 25.675781 L 43.816406 25.675781 L 43.816406 22.320312 L 44.714844 22.320312 C 44.988281 22.320312 45.195312 22.378906 45.328125 22.488281 C 45.460938 22.597656 45.53125 22.792969 45.53125 23.066406 M 45.035156 22.765625 L 44.769531 22.679688 L 44.230469 22.679688 L 44.230469 23.742188 L 44.769531 23.742188 C 44.867188 23.742188 44.949219 23.710938 45.015625 23.648438 C 45.085938 23.582031 45.117188 23.496094 45.117188 23.390625 L 45.117188 23.023438 C 45.117188 22.90625 45.089844 22.820312 45.035156 22.765625 M 43.085938 23.132812 L 43.085938 24.863281 C 43.085938 25.132812 43.007812 25.335938 42.855469 25.472656 C 42.710938 25.609375 42.5 25.675781 42.222656 25.675781 L 42.03125 25.675781 C 41.757812 25.675781 41.542969 25.609375 41.390625 25.472656 C 41.246094 25.335938 41.171875 25.132812 41.171875 24.863281 L 41.171875 23.132812 C 41.171875 22.863281 41.246094 22.660156 41.390625 22.523438 C 41.542969 22.390625 41.757812 22.320312 42.03125 22.320312 L 42.222656 22.320312 C 42.5 22.320312 42.710938 22.390625 42.855469 22.523438 C 43.007812 22.660156 43.085938 22.863281 43.085938 23.132812 M 44.230469 25.316406 L 44.816406 25.316406 C 44.929688 25.316406 45.019531 25.289062 45.082031 25.234375 C 45.136719 25.175781 45.164062 25.089844 45.164062 24.964844 L 45.164062 24.441406 C 45.164062 24.335938 45.132812 24.253906 45.070312 24.191406 C 45.003906 24.128906 44.917969 24.101562 44.816406 24.101562 L 44.230469 24.101562 L 44.230469 25.316406 M 42.664062 23.050781 C 42.664062 22.953125 42.628906 22.867188 42.5625 22.792969 C 42.488281 22.722656 42.390625 22.691406 42.269531 22.691406 L 41.984375 22.691406 C 41.863281 22.691406 41.765625 22.722656 41.691406 22.792969 C 41.625 22.867188 41.59375 22.953125 41.59375 23.050781 L 41.59375 24.949219 C 41.59375 25.046875 41.625 25.132812 41.691406 25.207031 C 41.765625 25.273438 41.863281 25.308594 41.984375 25.308594 L 42.269531 25.308594 C 42.390625 25.308594 42.488281 25.273438 42.5625 25.207031 C 42.628906 25.132812 42.664062 25.046875 42.664062 24.949219 L 42.664062 23.050781 M 39.816406 22.765625 C 39.761719 22.707031 39.671875 22.679688 39.550781 22.679688 L 39.019531 22.679688 L 39.019531 23.925781 L 39.550781 23.925781 C 39.671875 23.925781 39.761719 23.898438 39.816406 23.84375 C 39.871094 23.785156 39.898438 23.699219 39.898438 23.574219 L 39.898438 23.023438 C 39.898438 22.90625 39.871094 22.820312 39.816406 22.765625 M 40.109375 22.496094 C 40.25 22.613281 40.320312 22.804688 40.320312 23.066406 L 40.320312 23.527344 C 40.320312 23.71875 40.28125 23.871094 40.210938 23.980469 C 40.128906 24.085938 40.023438 24.160156 39.890625 24.203125 L 40.546875 25.675781 L 40.097656 25.675781 L 39.484375 24.285156 L 39.019531 24.285156 L 39.019531 25.675781 L 38.597656 25.675781 L 38.597656 22.320312 L 39.496094 22.320312 C 39.757812 22.320312 39.960938 22.378906 40.109375 22.496094 M 34.871094 22.746094 L 33.992188 22.746094 L 33.992188 23.703125 L 34.175781 23.703125 C 34.40625 23.703125 34.59375 23.757812 34.734375 23.871094 C 34.875 23.980469 34.945312 24.164062 34.945312 24.421875 L 34.945312 24.929688 C 34.945312 25.191406 34.882812 25.382812 34.761719 25.5 C 34.640625 25.617188 34.4375 25.675781 34.15625 25.675781 L 33.542969 25.675781 L 33.542969 25.324219 L 34.191406 25.324219 C 34.316406 25.324219 34.402344 25.292969 34.449219 25.234375 C 34.511719 25.183594 34.542969 25.097656 34.542969 24.976562 L 34.542969 24.386719 C 34.542969 24.28125 34.507812 24.199219 34.441406 24.136719 C 34.378906 24.082031 34.300781 24.054688 34.203125 24.054688 L 33.589844 24.054688 L 33.589844 22.394531 L 34.871094 22.394531 L 34.871094 22.746094 M 37.261719 33.171875 L 37.261719 36.167969 L 37.773438 36.167969 L 37.773438 36.527344 L 36.226562 36.527344 L 36.226562 36.167969 L 36.847656 36.167969 L 36.847656 33.550781 L 36.179688 33.800781 L 36.179688 33.414062 L 36.804688 33.171875 L 37.261719 33.171875 M 34.925781 34.335938 L 34.925781 35.429688 L 35.28125 35.429688 L 35.28125 35.78125 L 34.925781 35.78125 L 34.925781 36.527344 L 34.511719 36.527344 L 34.511719 35.78125 L 33.535156 35.78125 L 33.535156 35.367188 L 34.046875 33.171875 L 34.429688 33.171875 L 33.945312 35.429688 L 34.511719 35.429688 L 34.511719 34.335938 L 34.925781 34.335938 M 44.257812 33.902344 L 44.257812 35.199219 L 45.144531 33.902344 C 45.144531 33.804688 45.109375 33.71875 45.035156 33.644531 C 44.96875 33.570312 44.875 33.53125 44.75 33.53125 L 44.652344 33.53125 C 44.527344 33.53125 44.433594 33.570312 44.367188 33.644531 C 44.292969 33.71875 44.257812 33.804688 44.257812 33.902344 M 44.074219 33.367188 C 44.21875 33.238281 44.414062 33.171875 44.652344 33.171875 L 44.75 33.171875 C 44.988281 33.171875 45.183594 33.238281 45.328125 33.367188 C 45.476562 33.503906 45.546875 33.707031 45.546875 33.984375 L 45.546875 35.714844 C 45.546875 35.988281 45.476562 36.1875 45.328125 36.324219 C 45.183594 36.460938 44.988281 36.527344 44.75 36.527344 L 44.652344 36.527344 C 44.414062 36.527344 44.21875 36.460938 44.074219 36.324219 C 43.925781 36.1875 43.855469 35.988281 43.855469 35.714844 L 43.855469 33.984375 C 43.855469 33.707031 43.925781 33.503906 44.074219 33.367188 M 41.328125 33.414062 L 41.949219 33.171875 L 42.40625 33.171875 L 42.40625 36.167969 L 42.921875 36.167969 L 42.921875 36.527344 L 41.371094 36.527344 L 41.371094 36.167969 L 41.996094 36.167969 L 41.996094 33.550781 L 41.328125 33.800781 L 41.328125 33.414062 M 39.789062 36.046875 L 39.789062 36.527344 L 39.3125 36.527344 L 39.3125 36.046875 L 39.789062 36.046875 M 44.75 36.167969 C 44.875 36.167969 44.96875 36.128906 45.035156 36.058594 C 45.109375 35.984375 45.144531 35.898438 45.144531 35.800781 L 45.144531 34.507812 L 44.257812 35.800781 C 44.257812 35.898438 44.292969 35.984375 44.367188 36.058594 C 44.433594 36.128906 44.527344 36.167969 44.652344 36.167969 L 44.75 36.167969 "/>
</g>
</svg>
