<?xml version="1.0" encoding="UTF-8"?>
<svg xmlns="http://www.w3.org/2000/svg" xmlns:xlink="http://www.w3.org/1999/xlink" width="128pt" height="168pt" viewBox="0 0 128 168" version="1.1">
<g id="surface1">
<path style=" stroke:none;fill-rule:nonzero;fill:rgb(100%,100%,100%);fill-opacity:1;" d="M 124.582031 50.347656 C 123.332031 53.714844 122.457031 57.585938 121.953125 61.957031 C 121.558594 65.238281 121.339844 69.207031 121.296875 73.863281 C 121.296875 73.972656 121.371094 74.082031 121.527344 74.191406 C 119.96875 74.148438 118.335938 74.378906 116.628906 74.882812 C 115.335938 75.273438 113.800781 75.898438 112.027344 76.75 C 110.425781 77.515625 108.804688 78.195312 107.160156 78.785156 C 107.753906 74.390625 109.046875 69.675781 111.039062 64.648438 L 113.472656 59.464844 C 114.457031 57.386719 115.105469 55.617188 115.410156 54.152344 C 115.9375 49.757812 116.527344 46.5 117.1875 44.378906 C 118.347656 40.59375 120.515625 38.484375 123.695312 38.046875 C 126.523438 37.652344 127.640625 39.207031 127.046875 42.707031 C 126.851562 43.886719 126.027344 46.433594 124.582031 50.347656 M 115.214844 50.050781 C 114.90625 51.953125 114.335938 53.988281 113.503906 56.152344 L 111.074219 62.058594 C 108.375 68.550781 106.710938 74.246094 106.074219 79.144531 L 103.25 80 L 102.984375 77.667969 C 102.242188 73.035156 100.628906 68.78125 98.152344 64.910156 C 95.765625 61.171875 92.621094 57.890625 88.71875 55.070312 C 83.984375 51.660156 79.625 49.550781 75.636719 48.742188 C 76.578125 47.429688 77.257812 46.324219 77.675781 45.425781 L 78.003906 45.394531 C 79.691406 45.242188 80.941406 44.160156 81.75 42.148438 C 82.582031 40.070312 82.308594 38.363281 80.929688 37.03125 L 80.4375 36.964844 L 80.796875 36.441406 L 81.191406 35.457031 C 83.976562 35.652344 86.417969 35.445312 88.523438 34.832031 C 90.363281 34.285156 91.84375 33.457031 92.960938 32.339844 L 108.113281 34.078125 C 113.546875 34.886719 118.511719 35.925781 123.003906 37.195312 C 120.484375 37.5 118.566406 39.085938 117.253906 41.949219 C 116.484375 43.65625 115.804688 46.355469 115.214844 50.050781 M 95.195312 77.40625 C 95.128906 77.1875 94.898438 76.980469 94.503906 76.785156 C 93.695312 76.390625 92.851562 76.203125 91.972656 76.226562 C 91.03125 76.226562 90.199219 76.457031 89.476562 76.914062 C 89.386719 76.980469 89.367188 77.066406 89.410156 77.175781 C 86.496094 77.332031 83.308594 78.578125 79.84375 80.917969 C 78.417969 80.238281 77.082031 80.0625 75.832031 80.390625 C 74.890625 79.800781 73.808594 79.363281 72.578125 79.078125 L 72.578125 79.046875 L 72.613281 78.753906 C 72.570312 77.003906 70.113281 75.964844 65.25 75.636719 C 67.855469 73.820312 70.726562 72.160156 73.863281 70.652344 C 73.949219 70.605469 73.949219 70.507812 73.863281 70.355469 L 72.382812 68.320312 C 71.550781 67.207031 71.046875 66.636719 70.871094 66.617188 L 76.164062 67.007812 L 76.328125 66.976562 C 80.25 60.722656 81.839844 55.539062 81.09375 51.429688 C 83.4375 52.457031 85.816406 53.878906 88.226562 55.695312 L 88.71875 56.085938 C 87.121094 56.523438 85.773438 57.519531 84.675781 59.070312 C 83.734375 60.449219 83.121094 62.035156 82.835938 63.828125 C 82.792969 64.023438 82.957031 64.234375 83.328125 64.453125 L 83.953125 64.484375 C 84.214844 62.714844 84.820312 61.160156 85.761719 59.828125 C 86.835938 58.296875 88.171875 57.332031 89.769531 56.941406 C 93.34375 59.890625 96.160156 63.148438 98.21875 66.714844 C 100.453125 70.5625 101.738281 74.664062 102.066406 79.015625 C 102.371094 83.058594 101.738281 86.460938 100.160156 89.214844 C 98.472656 92.144531 95.742188 94.234375 91.972656 95.480469 C 90.199219 96.09375 88.214844 96.574219 86.023438 96.921875 C 86.945312 95.851562 87.546875 94.417969 87.832031 92.625 C 88.074219 91.050781 88.027344 89.519531 87.699219 88.035156 C 87.351562 86.527344 86.691406 85.148438 85.726562 83.902344 C 84.765625 82.675781 83.589844 81.671875 82.210938 80.882812 C 84.664062 79.417969 86.910156 78.488281 88.949219 78.097656 C 91.710938 77.570312 93.78125 78.128906 95.164062 79.769531 L 95.851562 80.164062 C 96.160156 80.25 96.191406 80.140625 95.953125 79.835938 C 94.769531 78.457031 93.3125 77.605469 91.578125 77.277344 C 92.675781 76.96875 93.738281 77.058594 94.769531 77.539062 L 95.0625 77.605469 L 95.195312 77.40625 M 116.132812 75.996094 C 118.171875 75.273438 120.066406 74.949219 121.820312 75.011719 L 121.855469 75.011719 C 124.964844 75.648438 126.523438 77.210938 126.523438 79.703125 C 123.804688 81.101562 120.101562 82.558594 115.410156 84.066406 C 109.164062 86.054688 105.375 87.3125 104.039062 87.835938 L 101.902344 88.65625 C 102.910156 86.449219 103.378906 83.890625 103.316406 80.984375 C 106.121094 80.304688 108.628906 79.429688 110.84375 78.359375 C 113.40625 77.132812 115.171875 76.347656 116.132812 75.996094 M 123.203125 88.65625 C 120.835938 93.46875 119.3125 98.34375 118.632812 103.285156 L 118.335938 103.285156 C 117.089844 104.839844 115.402344 106.207031 113.273438 107.386719 C 111.804688 108.21875 109.800781 109.101562 107.257812 110.042969 C 101.757812 112.140625 97.769531 113.792969 95.292969 114.996094 C 89.96875 117.574219 85.507812 120.113281 81.914062 122.605469 L 78.234375 125.164062 C 76.742188 126.125 75.394531 126.769531 74.191406 127.097656 C 74.78125 123.949219 76.261719 120.023438 78.628906 115.324219 C 81.566406 109.441406 83.351562 105.605469 83.984375 103.8125 L 84.90625 101.21875 L 85.664062 98.105469 C 88.949219 97.710938 91.808594 96.96875 94.242188 95.875 C 97.398438 94.519531 99.753906 92.507812 101.308594 89.839844 L 105.515625 88.199219 C 107.25 87.5 110.753906 86.328125 116.035156 84.6875 C 120.484375 83.289062 123.945312 81.988281 126.421875 80.785156 C 126.25 81.878906 125.800781 83.210938 125.074219 84.789062 L 123.203125 88.65625 M 105.648438 116.273438 L 112.15625 113.550781 C 112.769531 115.410156 113.636719 117.695312 114.753906 120.40625 L 117.546875 127.164062 L 120.902344 136.054688 L 121.921875 138.777344 C 122.316406 140.042969 122.425781 140.996094 122.25 141.628906 C 122.183594 141.824219 121.582031 141.214844 120.441406 139.792969 L 118.4375 137.234375 L 113.734375 129.789062 L 105.78125 116.40625 L 105.648438 116.273438 M 102.820312 112.734375 L 109.691406 110.011719 C 111.640625 109.199219 113.210938 108.445312 114.390625 107.746094 C 116.035156 106.808594 117.40625 105.757812 118.5 104.597656 L 118.304688 107.976562 C 117.078125 109.507812 115.390625 110.863281 113.242188 112.042969 C 111.816406 112.832031 109.824219 113.707031 107.257812 114.667969 C 101.757812 116.765625 97.769531 118.417969 95.292969 119.621094 C 89.96875 122.199219 85.507812 124.738281 81.914062 127.230469 L 79.582031 128.871094 L 77.148438 130.445312 L 76.953125 130.445312 L 76.953125 130.574219 C 74.761719 131.777344 72.734375 132.238281 70.871094 131.953125 C 68.328125 131.558594 65.523438 130.464844 62.453125 128.671875 L 54.761719 123.753906 L 54.597656 123.65625 L 56.539062 120.769531 L 59.464844 122.605469 L 64.722656 125.785156 C 66.871094 126.902344 68.800781 127.589844 70.507812 127.851562 C 72.304688 128.136719 74.058594 127.972656 75.769531 127.359375 C 77.125 126.878906 78.683594 126.015625 80.4375 124.769531 C 85.542969 121.160156 90.734375 118.121094 96.015625 115.652344 C 97.792969 114.820312 100.058594 113.847656 102.820312 112.734375 M 65.28125 2.230469 L 67.023438 3.804688 C 69.105469 7.523438 70.816406 9.863281 72.152344 10.824219 C 73.09375 11.5 73.90625 11.644531 74.585938 11.25 L 75.339844 10.429688 L 70.246094 5.347656 C 71.867188 5.9375 73.695312 6.441406 75.734375 6.855469 L 77.015625 7.117188 C 79.296875 7.578125 81.664062 10.101562 84.117188 14.695312 L 83.261719 20.960938 C 79.996094 18.136719 76.675781 16.179688 73.300781 15.085938 C 70.277344 14.125 64.582031 12.605469 56.210938 10.527344 C 55.96875 10.464844 56.199219 9.917969 56.898438 8.890625 C 57.558594 7.925781 58.09375 7.257812 58.511719 6.886719 C 59.914062 5.621094 60.691406 4.492188 60.84375 3.507812 L 61.171875 1.410156 L 61.207031 1.277344 C 61.402344 0.667969 61.675781 0.304688 62.027344 0.195312 C 62.554688 0.0664062 63.296875 0.425781 64.261719 1.277344 L 65.28125 2.230469 M 51.507812 16.628906 L 62.355469 18.335938 C 64.65625 18.683594 67.308594 19.273438 70.3125 20.105469 L 78.921875 22.597656 C 83.085938 23.867188 84.796875 24.546875 84.050781 24.632812 C 79.734375 25.089844 72.917969 24.765625 63.605469 23.648438 C 55.628906 22.6875 50.445312 21.832031 48.058594 21.089844 L 44.96875 20.007812 L 37.570312 17.613281 L 43.75 17.054688 L 51.507812 16.628906 M 53.414062 13.511719 C 54.074219 12.507812 54.707031 11.796875 55.320312 11.382812 C 61.457031 12.78125 66.378906 14.015625 70.082031 15.085938 L 71.59375 16.136719 L 69.425781 15.84375 L 71.726562 17.21875 L 69.257812 17.089844 L 71.460938 18.433594 L 69.160156 18.402344 L 71.429688 19.484375 C 67.921875 18.5 64.953125 17.808594 62.519531 17.417969 L 52.167969 15.808594 C 52.449219 15.085938 52.867188 14.324219 53.414062 13.511719 M 75.800781 17.089844 C 77.378906 17.832031 78.945312 18.785156 80.5 19.941406 L 83.066406 22.042969 L 82.933594 22.863281 L 81.160156 22.597656 L 81.160156 22.535156 L 76.097656 20.859375 L 74.289062 20.007812 L 76.589844 20.039062 L 74.421875 18.695312 L 76.886719 18.828125 L 74.585938 17.449219 L 76.753906 17.746094 L 75.800781 17.089844 M 16.632812 40.738281 L 16.664062 40.738281 C 15.328125 43.054688 12.90625 44.980469 9.398438 46.511719 C 12.863281 44.191406 14.550781 41.292969 14.460938 37.816406 L 16.632812 40.738281 M 21.824219 47.429688 L 15.808594 47.820312 L 7.296875 48.214844 C 10.101562 47.320312 12.425781 46.171875 14.265625 44.773438 C 16.609375 43.023438 17.992188 41 18.40625 38.703125 L 21.824219 47.429688 M 25.507812 47.820312 C 28.222656 47.296875 30.527344 46.566406 32.410156 45.625 L 32.441406 45.722656 L 37.503906 54.675781 C 36.234375 53.933594 34.371094 52.929688 31.917969 51.660156 L 29.714844 50.378906 C 28.816406 49.855469 28.058594 49.496094 27.445312 49.296875 L 26 49.265625 L 24.554688 49.394531 L 7.558594 49.824219 L 3.976562 49.824219 L 0.394531 49.625 C 0.175781 49.605469 0.152344 49.539062 0.328125 49.429688 L 1.214844 49.003906 L 3.582031 47.757812 L 7.558594 45.65625 C 9.398438 44.5 10.472656 43.371094 10.78125 42.277344 L 11.273438 43.296875 L 11.40625 43.492188 C 10.417969 44.652344 9.148438 45.667969 7.59375 46.542969 C 6.167969 47.351562 4.621094 47.976562 2.957031 48.414062 C 2.714844 48.476562 2.695312 48.621094 2.890625 48.839844 C 3.066406 49.058594 3.253906 49.167969 3.449219 49.167969 L 14.527344 48.9375 C 18.890625 48.785156 22.546875 48.414062 25.507812 47.820312 M 27.609375 50.183594 L 28.664062 55.890625 C 28.683594 56.066406 28.816406 56.242188 29.058594 56.414062 L 29.683594 56.644531 C 32.027344 56.359375 34.183594 56.359375 36.15625 56.644531 C 38.613281 57.015625 40.574219 57.824219 42.042969 59.070312 L 42.140625 59.136719 C 43.148438 60.710938 44.070312 62.714844 44.902344 65.140625 L 46.839844 71.46875 L 48.351562 76.71875 C 47.738281 76.914062 47.257812 77.15625 46.90625 77.441406 L 46.875 77.210938 L 46.609375 76.980469 L 46.347656 76.851562 L 32.113281 77.242188 L 32.179688 76.523438 C 32.070312 75.515625 30.921875 74.804688 28.730469 74.390625 L 28.203125 74.292969 L 33.167969 74.292969 C 33.363281 74.292969 33.417969 74.183594 33.332031 73.964844 L 29.582031 66.191406 L 29.386719 66.027344 L 29.253906 65.960938 L 17.945312 66.191406 L 17.75 66.355469 L 17.816406 66.582031 L 20.972656 70.617188 C 21.980469 72.148438 22.789062 73.207031 23.402344 73.800781 L 19.851562 73.765625 L 18.867188 72.554688 C 14.550781 66.714844 9.96875 61.019531 5.125 55.464844 L 0.65625 50.445312 L 8.152344 50.90625 L 15.679688 50.578125 L 27.609375 50.183594 M 9.039062 42.542969 L 4.335938 36.40625 L 5.355469 36.605469 C 6.410156 36.714844 7.417969 37.207031 8.382812 38.082031 C 9.453125 39.042969 9.902344 40.027344 9.730469 41.03125 L 9.039062 42.542969 M 12.390625 74.585938 C 13.09375 72.640625 14.472656 71.261719 16.53125 70.453125 L 16.863281 70.878906 C 13.269531 73.261719 12.335938 76.949219 14.066406 81.933594 C 14.789062 83.988281 15.886719 85.804688 17.355469 87.378906 C 18.84375 88.996094 20.410156 90.003906 22.054688 90.394531 L 22.054688 90.660156 C 21.332031 93.347656 21.695312 96.355469 23.140625 99.679688 C 24.257812 102.257812 25.96875 104.914062 28.269531 107.648438 C 22.964844 105.527344 18.570312 103.351562 15.085938 101.121094 C 14.824219 100.945312 14.703125 100.945312 14.726562 101.121094 C 14.769531 101.296875 14.890625 101.449219 15.085938 101.582031 C 18.613281 103.832031 23.207031 106.074219 28.859375 108.304688 L 30.765625 110.273438 L 30.765625 110.371094 L 30.867188 113.257812 C 24.53125 110.875 19.402344 108.445312 15.480469 105.976562 L 15.449219 105.941406 C 14.855469 104.457031 14.617188 102.347656 14.726562 99.613281 C 14.855469 96.441406 14.800781 94.265625 14.5625 93.085938 L 13.507812 88.460938 L 12.488281 83.804688 C 12.117188 81.769531 11.898438 80.226562 11.832031 79.179688 C 11.746094 77.386719 11.929688 75.855469 12.390625 74.585938 M 6.308594 54.121094 L 6.375 54.382812 L 13.738281 62.582031 C 14.199219 63.085938 14.890625 63.347656 15.808594 63.367188 L 18.210938 63.238281 L 39.804688 63.140625 L 40.003906 63.039062 L 39.972656 62.8125 L 38 59.203125 C 37.910156 59.050781 37.777344 58.984375 37.605469 59.007812 C 37.429688 59.027344 37.386719 59.125 37.472656 59.300781 L 39.28125 62.582031 L 15.085938 62.714844 L 14.496094 62.746094 L 14.363281 62.550781 L 7.164062 54.511719 L 26.625 54.054688 C 26.800781 54.054688 26.867188 53.976562 26.820312 53.824219 C 26.757812 53.582031 26.636719 53.484375 26.460938 53.527344 L 6.507812 53.988281 C 6.398438 53.988281 6.332031 54.03125 6.308594 54.121094 M 39.476562 56.578125 L 41.21875 57.988281 C 38.21875 56.042969 34.339844 55.289062 29.582031 55.726562 L 28.597656 50.28125 C 29.144531 50.5 30.078125 51.015625 31.390625 51.824219 L 33.988281 53.429688 L 36.714844 54.941406 C 37.964844 55.640625 38.886719 56.1875 39.476562 56.578125 M 39.9375 56.285156 C 41.078125 55.210938 42.292969 54.25 43.585938 53.398438 C 45.121094 52.371094 46.492188 51.714844 47.695312 51.429688 L 48.058594 51.890625 C 48.078125 53.835938 48.242188 55.78125 48.550781 57.726562 L 48.648438 58.710938 C 48.714844 59.125 48.847656 59.421875 49.042969 59.597656 L 51.179688 61.039062 L 53.546875 62.253906 L 49.832031 63.566406 C 49.746094 63.585938 49.722656 63.652344 49.765625 63.761719 C 51.148438 68.003906 52.175781 72.015625 52.855469 75.800781 L 49.898438 76.324219 L 49.207031 76.488281 L 47.894531 71.960938 L 45.984375 65.761719 C 45.175781 63.402344 44.300781 61.433594 43.355469 59.859375 C 42.613281 58.636719 41.484375 57.464844 39.972656 56.351562 L 39.9375 56.285156 M 32.871094 65.171875 L 32.707031 65.074219 L 40.398438 64.746094 L 43.652344 72.71875 C 43.695312 72.890625 43.839844 72.980469 44.078125 72.980469 L 44.179688 72.78125 L 40.792969 64.515625 C 40.683594 64.296875 40.539062 64.210938 40.363281 64.253906 L 32.3125 64.582031 C 32.203125 64.582031 32.167969 64.660156 32.214844 64.8125 L 36.058594 74.09375 L 36.453125 74.390625 L 43.09375 74.621094 L 43.226562 74.488281 L 43.0625 74.226562 L 42.863281 74.128906 L 36.484375 73.898438 L 36.15625 73.175781 L 33.988281 67.929688 L 33.066406 65.632812 L 32.871094 65.171875 M 26.820312 74.882812 C 28.507812 75.011719 29.800781 75.339844 30.699219 75.867188 C 31.445312 76.304688 31.25 76.761719 30.109375 77.242188 C 29.253906 77.570312 28.519531 77.769531 27.90625 77.832031 L 24.390625 77.996094 C 22.878906 78.085938 22.210938 78.414062 22.382812 78.980469 C 22.582031 79.527344 23.335938 79.933594 24.652344 80.195312 L 28.136719 80.882812 C 29.253906 81.144531 30.242188 81.628906 31.09375 82.328125 C 32.167969 83.222656 32.039062 83.933594 30.699219 84.460938 C 29.515625 84.917969 28.148438 85.113281 26.59375 85.050781 C 25.101562 84.984375 23.730469 84.699219 22.484375 84.195312 C 22.109375 84.042969 21.96875 84.132812 22.054688 84.460938 C 22.164062 84.765625 22.351562 84.972656 22.613281 85.082031 L 25.144531 85.542969 L 29.058594 85.640625 C 28.574219 86.472656 27.851562 87.050781 26.886719 87.378906 L 24.027344 87.542969 C 23.699219 87.476562 23.632812 87.609375 23.832031 87.9375 C 24.027344 88.265625 24.246094 88.449219 24.488281 88.492188 L 25.636719 88.625 C 24.0625 89.785156 22.339844 89.871094 20.476562 88.886719 C 18.789062 87.992188 17.367188 86.460938 16.203125 84.296875 C 15.042969 82.085938 14.507812 79.898438 14.59375 77.734375 C 14.679688 75.308594 15.601562 73.425781 17.355469 72.09375 L 18.375 73.570312 C 18.789062 74.09375 19.183594 74.457031 19.558594 74.652344 L 21.136719 74.847656 L 22.746094 74.75 L 26.820312 74.882812 M 26.261719 78.949219 L 28.003906 78.851562 L 30.011719 78.589844 C 30.886719 78.414062 31.5 78.117188 31.851562 77.703125 L 46.414062 77.277344 L 46.546875 77.867188 L 46.347656 78.324219 L 46.347656 78.523438 C 46.414062 83.464844 47.390625 87.726562 49.273438 91.3125 L 48.78125 91.414062 L 48.058594 91.28125 L 26.789062 89.476562 L 26.65625 89.476562 L 27.609375 88.625 L 27.675781 88.328125 C 29.011719 87.890625 29.933594 87.027344 30.4375 85.738281 L 30.40625 85.507812 C 33.121094 85.113281 33.855469 84.078125 32.609375 82.394531 C 32.058594 81.628906 31.226562 81.027344 30.109375 80.589844 C 29.386719 80.304688 28.378906 80.042969 27.085938 79.800781 L 26.261719 79.636719 L 26.261719 78.949219 M 24.71875 79.34375 L 23.730469 79.179688 C 23.492188 79.132812 23.621094 79.089844 24.125 79.046875 L 25.703125 78.949219 L 25.738281 79.539062 L 24.71875 79.34375 M 32.707031 73.765625 L 24.0625 73.765625 L 18.503906 66.714844 L 29.1875 66.519531 L 32.507812 73.40625 L 32.707031 73.765625 M 84.773438 33.226562 C 85.148438 33.464844 86.167969 33.324219 87.832031 32.800781 C 89.652344 32.230469 90.933594 31.519531 91.679688 30.667969 C 92.402344 29.816406 92.523438 28.984375 92.039062 28.175781 C 91.601562 27.386719 91.097656 27.113281 90.527344 27.355469 C 90.242188 27.464844 90.15625 28 90.265625 28.960938 C 90.375 30.011719 90.222656 30.722656 89.804688 31.09375 C 89.386719 31.445312 88.3125 31.882812 86.582031 32.40625 C 85.179688 32.84375 84.578125 33.117188 84.773438 33.226562 M 82.40625 29.488281 C 82.539062 28.351562 82.5625 27.136719 82.472656 25.847656 L 88.949219 26.140625 C 91.273438 26.449219 92.773438 27.003906 93.453125 27.8125 C 93.761719 28.207031 93.878906 28.589844 93.816406 28.960938 C 93.53125 30.820312 92.257812 32.253906 90 33.257812 C 87.746094 34.265625 84.90625 34.679688 81.488281 34.503906 C 81.949219 32.820312 82.253906 31.148438 82.40625 29.488281 M 75.011719 25.714844 L 80.894531 25.8125 C 81.003906 28.132812 80.777344 30.371094 80.207031 32.539062 C 79.65625 30.746094 78.660156 29.269531 77.214844 28.109375 L 75.636719 26.960938 L 74.453125 26.238281 L 75.011719 25.714844 M 73.433594 25.683594 L 73.269531 25.78125 L 73.039062 26.109375 C 72.929688 26.347656 73.019531 26.535156 73.300781 26.667969 C 74.617188 27.257812 75.722656 27.890625 76.621094 28.570312 C 78.484375 30.035156 79.503906 31.792969 79.679688 33.847656 C 78.890625 32.339844 77.882812 30.996094 76.65625 29.816406 C 75.210938 28.546875 74.265625 27.859375 73.828125 27.75 L 73.566406 27.75 C 73.347656 27.769531 73.214844 27.867188 73.171875 28.042969 C 73.128906 28.21875 73.214844 28.351562 73.433594 28.4375 L 76.164062 30.40625 C 76.90625 30.996094 77.652344 31.792969 78.398438 32.800781 L 79.710938 34.800781 L 79.613281 35.585938 L 78.429688 33.75 C 77.75 32.875 77.09375 32.1875 76.457031 31.683594 C 75.515625 30.941406 74.738281 30.480469 74.125 30.308594 L 73.992188 30.308594 C 73.796875 30.328125 73.695312 30.460938 73.695312 30.699219 C 73.71875 30.941406 73.894531 31.136719 74.222656 31.289062 L 75.964844 32.339844 C 77.015625 33.238281 78.199219 34.539062 79.515625 36.242188 L 79.515625 36.277344 C 79.449219 36.496094 79.460938 36.703125 79.546875 36.898438 L 78.398438 36.769531 C 78.398438 36.898438 78.472656 37.042969 78.628906 37.195312 C 80.273438 38.222656 80.808594 39.65625 80.238281 41.492188 C 79.667969 43.304688 78.453125 44.300781 76.589844 44.476562 L 76.097656 44.476562 C 75.4375 45.964844 74.707031 47.296875 73.894531 48.476562 C 73.675781 48.523438 73.597656 48.632812 73.664062 48.804688 C 72.460938 50.554688 71.121094 52.019531 69.652344 53.199219 C 69.390625 53.398438 69.269531 53.5625 69.292969 53.691406 C 69.3125 53.800781 69.46875 53.847656 69.753906 53.824219 C 70.605469 53.738281 71.625 53.210938 72.808594 52.25 C 72.765625 53.890625 71.769531 55.464844 69.816406 56.972656 C 68.019531 58.371094 66.214844 59.148438 64.394531 59.300781 C 63.582031 59.410156 62.914062 59.3125 62.390625 59.007812 L 62.554688 59.007812 C 63.015625 58.964844 63.714844 58.746094 64.65625 58.351562 C 65.621094 57.933594 66.058594 57.652344 65.972656 57.496094 L 65.808594 57.464844 L 65.085938 57.628906 L 63.703125 57.859375 C 61.90625 58.035156 59.835938 57.738281 57.492188 56.972656 C 53.304688 55.59375 50.039062 52.796875 47.695312 48.578125 C 45.4375 44.53125 44.550781 40.210938 45.03125 35.621094 C 45.339844 32.734375 46.207031 29.824219 47.628906 26.894531 C 48.441406 26.675781 49.25 26.164062 50.0625 25.355469 L 51.671875 22.894531 C 55.640625 23.746094 59.507812 24.414062 63.277344 24.894531 C 62.707031 25.683594 62.511719 26.175781 62.683594 26.371094 L 63.308594 26.601562 L 64.589844 26.996094 L 66.039062 27.648438 L 67.058594 28.011719 L 67.089844 28.011719 C 67.222656 27.3125 66.488281 26.339844 64.886719 25.089844 L 73.105469 25.683594 L 73.433594 25.683594 M 73.960938 33.191406 C 73.917969 33.390625 74.035156 33.566406 74.320312 33.71875 L 74.421875 33.75 L 74.453125 33.785156 C 74.890625 33.957031 75.296875 34.175781 75.667969 34.441406 L 76.65625 35.324219 L 77.378906 35.882812 L 77.476562 35.71875 L 77.082031 34.867188 L 76.164062 33.847656 C 75.660156 33.367188 75.089844 33.039062 74.453125 32.867188 L 74.320312 32.867188 C 74.144531 32.886719 74.027344 32.996094 73.960938 33.191406 M 74.617188 35.359375 C 74.441406 35.378906 74.332031 35.488281 74.289062 35.6875 C 74.246094 35.882812 74.3125 36.023438 74.484375 36.113281 L 74.980469 36.441406 C 75.285156 36.679688 75.460938 36.898438 75.503906 37.097656 C 75.550781 37.359375 75.691406 37.46875 75.933594 37.425781 C 76.21875 37.378906 76.328125 37.195312 76.261719 36.867188 C 76.195312 36.539062 76 36.234375 75.667969 35.949219 C 75.382812 35.707031 75.101562 35.523438 74.816406 35.390625 L 74.617188 35.359375 M 67.023438 42.3125 L 63.507812 40.3125 L 63.277344 40.246094 C 63.125 40.289062 63.113281 40.410156 63.242188 40.605469 L 63.738281 41.589844 C 63.824219 41.742188 63.804688 41.929688 63.671875 42.148438 L 63.210938 42.542969 L 60.777344 43.65625 C 58.960938 44.421875 57.601562 44.890625 56.703125 45.066406 L 55.816406 45.199219 L 50.621094 45.035156 C 50.445312 45.035156 50.28125 44.96875 50.128906 44.835938 C 49.996094 44.683594 49.929688 44.519531 49.929688 44.34375 L 49.898438 43.886719 L 49.734375 43.589844 L 49.503906 43.789062 L 48.453125 45.363281 C 48.34375 45.515625 48.296875 45.691406 48.320312 45.886719 C 48.320312 46.105469 48.375 46.28125 48.484375 46.410156 L 50.09375 48.445312 L 50.324219 48.640625 L 50.425781 48.3125 L 50.359375 47.984375 C 50.359375 47.679688 50.5 47.503906 50.785156 47.460938 L 50.949219 47.460938 L 53.121094 48.476562 C 54.851562 49.132812 56.382812 49.394531 57.722656 49.265625 L 57.753906 49.265625 C 59.089844 49.132812 60.800781 48.347656 62.882812 46.902344 L 65.578125 44.738281 L 65.875 44.640625 C 66.160156 44.640625 66.398438 44.738281 66.597656 44.9375 L 66.726562 46.410156 L 67.023438 46.609375 C 67.132812 46.585938 67.199219 46.476562 67.222656 46.28125 L 67.550781 43.261719 C 67.59375 42.824219 67.417969 42.507812 67.023438 42.3125 M 75.800781 49.691406 C 76.109375 52.882812 75.285156 55.75 73.335938 58.285156 C 72.347656 59.554688 70.15625 61.566406 66.761719 64.320312 C 65.554688 62.746094 64.4375 61.585938 63.410156 60.84375 L 64.230469 60.8125 C 66.992188 60.546875 69.425781 59.421875 71.527344 57.433594 C 73.785156 55.289062 74.75 52.917969 74.421875 50.316406 L 75.011719 49.558594 L 75.800781 49.691406 M 76.851562 49.921875 C 77.839844 50.160156 78.902344 50.511719 80.042969 50.972656 C 80.390625 53.046875 80.128906 55.386719 79.253906 57.988281 C 78.640625 59.871094 77.628906 62.046875 76.226562 64.515625 L 75.472656 65.828125 C 75.273438 66.027344 74.847656 66.089844 74.191406 66.027344 L 70.015625 65.730469 C 69.929688 65.707031 69.875 65.742188 69.851562 65.828125 L 69.917969 66.027344 L 72.742188 69.863281 L 72.710938 69.894531 C 70.890625 70.792969 69.074219 71.820312 67.253906 72.980469 C 66.003906 73.765625 64.757812 74.621094 63.507812 75.539062 L 60.515625 75.503906 L 59.167969 75.472656 C 60.460938 72.871094 61.90625 70.738281 63.507812 69.074219 C 64.472656 68.070312 66.015625 66.703125 68.140625 64.976562 L 72.742188 60.910156 C 75.988281 57.605469 77.355469 53.964844 76.851562 49.988281 L 76.851562 49.921875 M 57.0625 31.226562 L 57.03125 31.226562 C 56.832031 31.269531 56.660156 31.464844 56.503906 31.816406 L 56.175781 32.765625 L 55.453125 34.570312 C 55.101562 35.3125 54.359375 36.539062 53.21875 38.246094 C 52.957031 38.574219 52.964844 38.921875 53.25 39.292969 L 54.925781 41.292969 C 55.125 41.511719 55.421875 41.621094 55.816406 41.621094 L 56.503906 41.359375 L 56.832031 41.066406 L 56.703125 40.671875 L 55.355469 39.164062 C 55.046875 38.835938 54.980469 38.464844 55.15625 38.046875 L 56.273438 35.324219 L 57.03125 32.996094 L 57.292969 31.882812 L 57.261719 31.421875 L 57.0625 31.226562 M 63.769531 30.4375 C 63.441406 30.480469 63.179688 30.722656 62.980469 31.160156 C 62.761719 31.597656 62.675781 32.121094 62.71875 32.734375 C 62.738281 33.347656 62.894531 33.871094 63.179688 34.308594 C 63.441406 34.722656 63.738281 34.921875 64.066406 34.898438 L 64.097656 34.898438 C 64.40625 34.878906 64.667969 34.636719 64.886719 34.175781 C 65.085938 33.71875 65.160156 33.183594 65.117188 32.570312 C 65.074219 31.957031 64.921875 31.445312 64.65625 31.027344 C 64.394531 30.613281 64.097656 30.417969 63.769531 30.4375 M 50.652344 26.46875 L 48.289062 28.273438 L 48.058594 28.570312 L 48.386719 28.667969 L 48.453125 28.667969 L 51.082031 28.304688 C 51.300781 28.285156 51.464844 28.1875 51.574219 28.011719 L 51.671875 27.421875 L 51.507812 26.765625 C 51.398438 26.4375 51.222656 26.292969 50.984375 26.339844 L 50.652344 26.46875 M 49.273438 24.765625 C 48.460938 25.617188 47.617188 26.085938 46.742188 26.175781 C 46.105469 26.21875 45.59375 26.066406 45.199219 25.714844 C 44.410156 25.101562 43.804688 24.261719 43.390625 23.1875 C 42.972656 22.160156 42.820312 21.175781 42.929688 20.238281 L 44.671875 20.859375 L 47.792969 21.941406 L 50.652344 22.699219 L 49.273438 24.765625 M 42.402344 26.109375 C 39.925781 25.058594 37.824219 23.8125 36.09375 22.371094 C 34.121094 20.6875 33.277344 19.230469 33.5625 18.007812 C 33.78125 17.351562 36.5625 17.972656 41.910156 19.875 C 41.601562 21.429688 41.976562 22.9375 43.027344 24.402344 C 42.742188 24.839844 42.535156 25.410156 42.402344 26.109375 M 46.347656 26.960938 C 45.777344 28.207031 45.273438 29.476562 44.835938 30.765625 C 44.179688 29.804688 43.785156 29.09375 43.652344 28.632812 C 43.476562 27.957031 43.445312 27.355469 43.554688 26.832031 C 43.664062 26.328125 43.871094 26.054688 44.179688 26.011719 C 44.375 26.011719 44.5625 26.085938 44.738281 26.238281 C 45.285156 26.65625 45.820312 26.894531 46.347656 26.960938 M 49.140625 32.539062 C 48.921875 32.976562 48.835938 33.5 48.878906 34.113281 C 48.921875 34.722656 49.078125 35.238281 49.339844 35.652344 C 49.601562 36.089844 49.910156 36.289062 50.257812 36.242188 C 50.589844 36.222656 50.851562 35.992188 51.046875 35.554688 C 51.246094 35.09375 51.332031 34.558594 51.3125 33.949219 C 51.269531 33.335938 51.113281 32.820312 50.851562 32.40625 C 50.589844 31.992188 50.292969 31.792969 49.964844 31.816406 L 49.929688 31.816406 C 49.601562 31.859375 49.339844 32.101562 49.140625 32.539062 M 50.621094 45.65625 C 52.660156 45.898438 54.511719 45.941406 56.175781 45.789062 L 57.0625 45.65625 C 58.136719 45.480469 59.539062 45.011719 61.273438 44.246094 L 63.574219 43.164062 L 64.328125 42.96875 C 64.636719 42.925781 64.921875 42.988281 65.183594 43.164062 C 65.488281 43.359375 65.578125 43.601562 65.445312 43.886719 L 64.953125 44.410156 L 63.078125 45.625 L 60.21875 47.230469 C 59.476562 47.582031 58.402344 47.832031 57 47.984375 C 56.101562 48.050781 55.398438 48.039062 54.894531 47.953125 L 50.71875 46.9375 C 50.414062 46.914062 50.183594 46.695312 50.03125 46.28125 C 49.875 45.910156 50.039062 45.699219 50.523438 45.65625 L 50.621094 45.65625 M 56.769531 51.527344 L 57.65625 51.59375 L 58.742188 51.332031 C 59.199219 51.132812 59.375 50.851562 59.265625 50.480469 C 59.15625 50.128906 58.90625 49.976562 58.511719 50.019531 L 55.652344 50.644531 L 55.320312 50.808594 L 55.617188 51.035156 L 56.769531 51.527344 M 57.492188 57.859375 C 58.039062 58.753906 58.816406 59.476562 59.824219 60.023438 C 58.882812 60.285156 57.710938 60.953125 56.308594 62.023438 L 54.925781 57.039062 L 57.492188 57.859375 M 54.992188 62.515625 L 54.597656 62.1875 L 49.863281 59.5 L 49.734375 59.007812 L 49.4375 56.777344 L 49.175781 53.136719 C 50.621094 54.578125 52.199219 55.726562 53.910156 56.578125 L 55.652344 62.613281 C 55.519531 62.832031 55.585938 63.074219 55.847656 63.335938 C 56.898438 67.097656 57.28125 70.332031 57 73.042969 L 56.667969 75.503906 L 53.742188 75.703125 C 53.347656 73.535156 52.8125 71.230469 52.132812 68.78125 L 50.820312 64.289062 L 52.757812 63.761719 L 55.058594 62.910156 C 55.191406 62.84375 55.167969 62.714844 54.992188 62.515625 M 59.53125 63.894531 L 57.886719 68.585938 C 57.667969 67.054688 57.273438 65.316406 56.703125 63.367188 C 57.558594 62.648438 58.390625 62.066406 59.199219 61.628906 L 59.53125 63.894531 M 62.71875 61.597656 C 63.859375 62.496094 64.929688 63.621094 65.9375 64.976562 C 63.726562 66.8125 62.117188 68.464844 61.105469 69.929688 L 60.484375 70.914062 L 60.976562 64.550781 L 62.71875 61.597656 M 53.25 76.6875 L 59.628906 76.554688 L 67.089844 77.078125 C 67.855469 77.230469 68.691406 77.460938 69.589844 77.769531 C 71.011719 78.226562 71.503906 78.589844 71.066406 78.851562 C 70.058594 79.460938 68.789062 79.910156 67.253906 80.195312 L 67.089844 80.128906 C 61.941406 79.320312 56.722656 79.296875 51.441406 80.0625 C 49.121094 79.800781 47.828125 79.363281 47.5625 78.753906 C 47.9375 77.679688 49.832031 76.992188 53.25 76.6875 M 65.546875 81.574219 C 68.917969 81.332031 71.089844 80.785156 72.054688 79.933594 L 72.183594 79.964844 C 73.652344 80.183594 74.871094 80.664062 75.832031 81.410156 C 76.972656 82.285156 77.574219 83.398438 77.640625 84.753906 L 76.425781 85.015625 C 76.226562 84.011719 75.648438 83.179688 74.683594 82.523438 C 73.871094 81.933594 72.863281 81.519531 71.660156 81.277344 C 71.417969 81.277344 71.285156 81.355469 71.265625 81.507812 L 71.230469 81.703125 L 69.851562 82.097656 C 68.863281 82.601562 68.1875 83.277344 67.8125 84.132812 C 67.398438 85.027344 67.40625 85.957031 67.847656 86.917969 C 66.773438 87.136719 66.058594 87.683594 65.710938 88.558594 C 65.335938 89.457031 65.5 90.320312 66.203125 91.148438 L 66.726562 91.707031 L 66.695312 91.742188 C 66.039062 92.550781 65.894531 93.5 66.269531 94.59375 L 66.167969 94.59375 C 63.472656 96.101562 60.691406 96.738281 57.820312 96.496094 C 54.578125 96.234375 52.242188 94.824219 50.820312 92.265625 C 48.890625 88.832031 47.804688 84.796875 47.5625 80.164062 C 48.8125 80.972656 50.9375 81.472656 53.941406 81.671875 L 59.628906 81.738281 L 65.546875 81.574219 M 72.742188 82.558594 C 73.863281 83.257812 74.070312 83.714844 73.367188 83.933594 L 72.808594 84.164062 L 72.382812 84.492188 C 72.183594 85.496094 73.117188 86.078125 75.175781 86.230469 C 77.238281 86.382812 78.429688 86.089844 78.757812 85.34375 L 78.792969 85.113281 C 78.726562 83.585938 78.113281 82.292969 76.953125 81.246094 C 78.835938 80.875 80.609375 81.683594 82.277344 83.671875 C 83.875 85.574219 84.566406 87.445312 84.347656 89.28125 C 84.039062 91.707031 83.1875 93.621094 81.785156 95.019531 C 79.527344 97.273438 76.449219 98.179688 72.546875 97.742188 C 70.96875 97.566406 69.578125 97.074219 68.371094 96.265625 C 66.839844 95.171875 66.609375 93.949219 67.679688 92.59375 C 68.515625 93.269531 69.773438 94.035156 71.460938 94.890625 C 71.8125 95.0625 71.921875 95 71.789062 94.691406 L 71.230469 94.101562 C 69.128906 93.117188 67.726562 92.132812 67.023438 91.148438 C 66.519531 90.496094 66.445312 89.839844 66.792969 89.183594 C 67.101562 88.570312 67.625 88.144531 68.371094 87.902344 C 69.511719 89.566406 71.253906 90.855469 73.597656 91.773438 C 73.972656 91.90625 74.101562 91.804688 73.992188 91.476562 C 73.882812 91.148438 73.695312 90.933594 73.433594 90.824219 C 72.03125 90.296875 70.828125 89.519531 69.816406 88.492188 C 68.503906 87.160156 68.207031 85.878906 68.929688 84.65625 C 69.257812 84.042969 69.796875 83.519531 70.542969 83.082031 C 71.351562 82.601562 72.085938 82.425781 72.742188 82.558594 M 81.027344 81.636719 L 81.75 81.144531 C 84.445312 82.457031 86.132812 85.039062 86.8125 88.886719 C 87.535156 92.867188 86.507812 95.644531 83.722656 97.21875 L 80.996094 97.382812 L 82.308594 96.332031 C 83.601562 95.019531 84.523438 93.535156 85.070312 91.871094 C 85.707031 89.992188 85.707031 88.265625 85.070312 86.691406 C 84.699219 85.75 84.160156 84.84375 83.460938 83.96875 C 82.738281 83.027344 81.925781 82.25 81.027344 81.636719 M 84.25 99.808594 C 83.460938 102.761719 82.132812 106.195312 80.273438 110.109375 L 76.195312 118.339844 C 74.707031 121.554688 73.730469 124.453125 73.269531 127.03125 L 73.335938 127.296875 C 72.480469 127.449219 71.660156 127.460938 70.871094 127.328125 C 68.898438 127.042969 66.792969 126.332031 64.558594 125.195312 L 64.589844 125.164062 L 65.546875 120.964844 L 66.332031 116.734375 L 67.878906 110.175781 L 69.554688 103.648438 L 70.640625 98.332031 C 71.953125 98.75 73.3125 98.957031 74.714844 98.957031 C 76.226562 98.980469 77.621094 98.769531 78.890625 98.332031 L 78.957031 98.367188 C 80.886719 98.433594 82.757812 98.386719 84.578125 98.234375 L 84.25 99.808594 M 75.109375 84.230469 L 75.375 85.113281 L 73.53125 85.179688 L 74.355469 84.820312 C 74.726562 84.625 74.980469 84.425781 75.109375 84.230469 M 69.851562 98.070312 L 67.320312 108.335938 C 65.960938 103.789062 63.8125 100.171875 60.878906 97.480469 C 62.914062 97.285156 64.898438 96.683594 66.828125 95.675781 C 67.527344 96.726562 68.425781 97.492188 69.523438 97.972656 L 69.851562 98.070312 M 54.46875 97.183594 L 54.367188 96.726562 C 55.75 97.230469 57.140625 97.503906 58.542969 97.546875 L 60.21875 97.511719 C 61.796875 98.890625 63.167969 100.683594 64.328125 102.894531 C 65.359375 104.839844 66.148438 106.949219 66.695312 109.222656 L 67.023438 109.582031 L 65.808594 114.667969 L 65.609375 114.667969 C 63.59375 115.257812 61.511719 115.617188 59.363281 115.75 C 60.109375 113.933594 60.273438 112.371094 59.859375 111.058594 C 59.640625 110.339844 59.253906 109.878906 58.707031 109.683594 L 58.675781 109.617188 C 56.8125 106.949219 54.664062 104.214844 52.230469 101.417969 L 49.242188 98.003906 C 47.96875 96.671875 46.773438 95.675781 45.65625 95.019531 C 48.945312 95.808594 51.792969 96.59375 54.203125 97.382812 C 54.402344 97.425781 54.488281 97.359375 54.46875 97.183594 M 44.015625 95.085938 C 45.21875 95.457031 46.5 96.300781 47.859375 97.613281 L 50.984375 101.054688 C 52.84375 103.199219 54.761719 105.582031 56.734375 108.207031 L 57.394531 109.125 L 57.03125 109.125 L 54.796875 109.320312 C 52.84375 109.714844 51.101562 110.402344 49.570312 111.386719 C 48.121094 112.328125 46.765625 113.617188 45.492188 115.257812 L 44.34375 116.667969 C 43.859375 117.324219 43.738281 117.707031 43.980469 117.816406 L 40.957031 116.375 C 38.984375 115.367188 37.417969 114.503906 36.257812 113.78125 C 34.570312 112.753906 33.132812 111.683594 31.949219 110.566406 C 31.882812 110.285156 31.6875 110.097656 31.359375 110.011719 L 30.964844 109.617188 C 28.398438 106.882812 26.425781 104.238281 25.046875 101.679688 C 23.183594 98.269531 22.472656 95.171875 22.910156 92.398438 L 22.941406 92.398438 C 29.714844 92.441406 36.5625 93.160156 43.488281 94.5625 C 43.597656 94.824219 43.773438 95 44.015625 95.085938 M 47.726562 94.855469 C 42.886719 93.675781 38.917969 92.910156 35.828125 92.5625 L 23.140625 91.511719 L 23.140625 90.558594 C 24.214844 90.625 25.246094 90.363281 26.230469 89.773438 L 26.394531 89.839844 L 49.535156 91.773438 C 50.214844 93.085938 51.015625 94.253906 51.9375 95.28125 C 52.265625 95.699219 52.726562 96.039062 53.316406 96.300781 L 53.347656 96.429688 L 52.035156 96.039062 L 47.726562 94.855469 M 57.917969 115.453125 L 57.0625 117.226562 L 53.679688 114.011719 L 53.449219 113.847656 C 54.457031 112.796875 55.464844 111.957031 56.472656 111.320312 C 57.941406 110.382812 58.707031 110.566406 58.773438 111.878906 C 58.839844 112.929688 58.554688 114.121094 57.917969 115.453125 M 65.445312 116.308594 L 64.691406 120.539062 L 63.738281 124.738281 L 63.738281 124.769531 L 56.769531 120.40625 C 57.753906 118.964844 58.488281 117.71875 58.96875 116.667969 C 61.316406 116.601562 63.519531 116.320312 65.578125 115.816406 L 65.445312 116.308594 M 44.671875 118.667969 C 47.914062 113.53125 51.726562 110.699219 56.109375 110.175781 C 53.394531 111.617188 50.371094 114.691406 47.039062 119.390625 C 43.683594 124.15625 42.074219 127.6875 42.207031 129.984375 C 41.527344 128.957031 41.601562 127.023438 42.4375 124.179688 C 43.070312 122.015625 43.816406 120.179688 44.671875 118.667969 M 44.078125 127.359375 C 45.4375 124.410156 47.277344 121.433594 49.601562 118.441406 C 51.222656 116.363281 52.40625 114.941406 53.152344 114.175781 L 56.867188 117.683594 C 53.230469 124.726562 49.480469 128.945312 45.625 130.347656 C 44.683594 130.71875 43.894531 130.828125 43.257812 130.675781 C 43.234375 130.390625 43.34375 129.800781 43.585938 128.902344 C 43.804688 128.09375 43.96875 127.578125 44.078125 127.359375 M 44.472656 131.789062 C 47.257812 131.375 49.976562 129.546875 52.625 126.3125 L 51.804688 142.644531 L 51.773438 142.644531 C 51.269531 142.972656 50.761719 143.226562 50.257812 143.398438 C 48.265625 143.992188 46.097656 144.164062 43.75 143.925781 L 39.773438 143.234375 L 39.28125 143.105469 L 38.589844 141.628906 C 36.640625 137.144531 35.203125 133.078125 34.285156 129.425781 C 32.925781 124.179688 32.160156 118.167969 31.984375 111.386719 C 34.964844 113.925781 38.753906 116.242188 43.355469 118.339844 C 41.886719 121.292969 40.988281 124.082031 40.660156 126.707031 C 40.179688 130.53125 41.449219 132.226562 44.472656 131.789062 M 43.09375 144.910156 L 47.5 145.136719 C 49.25 145.074219 50.699219 144.734375 51.835938 144.121094 C 51.726562 145.257812 51.3125 146.101562 50.589844 146.648438 L 48.1875 148.058594 C 46.875 148.714844 46.050781 148.855469 45.722656 148.484375 L 45.328125 148.125 C 45.132812 147.96875 44.976562 147.925781 44.867188 147.992188 L 38.722656 151.273438 C 36.136719 152.367188 33.902344 152.757812 32.015625 152.453125 C 30.699219 152.257812 30.316406 151.5 30.867188 150.191406 C 31.28125 149.183594 31.949219 148.296875 32.871094 147.53125 C 34.6875 146.003906 36.726562 144.875 38.984375 144.15625 C 39.464844 144.4375 40.167969 144.636719 41.089844 144.746094 L 43.09375 144.910156 M 70.507812 132.476562 C 72.699219 132.828125 74.871094 132.488281 77.015625 131.460938 C 77.191406 134.042969 77.257812 137.003906 77.214844 140.351562 L 76.917969 149.207031 C 76.722656 153.996094 76.457031 157.808594 76.128906 160.652344 L 75.734375 164.128906 C 75.515625 165.59375 75.144531 166.6875 74.617188 167.410156 C 74.355469 167.804688 74.167969 167.878906 74.058594 167.640625 L 73.730469 166.394531 L 73.007812 162.753906 C 72.523438 159.734375 72.097656 156.226562 71.726562 152.222656 C 70.914062 143.761719 70.496094 137.179688 70.476562 132.476562 L 70.507812 132.476562 M 20.082031 109.058594 C 18.703125 113.015625 16.347656 118.59375 13.015625 125.785156 C 11.023438 130.09375 9.390625 133.332031 8.117188 135.496094 L 6.179688 138.414062 L 5.421875 139.234375 C 5.117188 139.519531 4.953125 139.550781 4.929688 139.332031 C 4.820312 138.347656 4.941406 137.144531 5.289062 135.726562 L 6.308594 132.183594 C 7.144531 129.40625 8.261719 126.058594 9.664062 122.144531 L 12.589844 114.308594 L 15.449219 106.402344 C 16.71875 107.234375 18.265625 108.117188 20.082031 109.058594 "/>
</g>
</svg>
