<?xml version="1.0" encoding="UTF-8"?>
<svg xmlns="http://www.w3.org/2000/svg" xmlns:xlink="http://www.w3.org/1999/xlink" width="128pt" height="133pt" viewBox="0 0 128 133" version="1.1">
<g id="surface1">
<path style=" stroke:none;fill-rule:nonzero;fill:rgb(100%,100%,100%);fill-opacity:1;" d="M 79 118.898438 L 79.820312 120.074219 C 80.085938 120.5 80.246094 120.960938 80.308594 121.464844 L 80.277344 122.949219 C 80.054688 127.5625 78.808594 130.609375 76.539062 132.078125 C 75.6875 132.644531 74.683594 131.738281 73.53125 129.359375 C 72.71875 127.726562 72.03125 125.902344 71.460938 123.886719 C 72.699219 123.84375 73.792969 123.492188 74.746094 122.828125 C 76.546875 121.558594 77.703125 119.640625 78.210938 117.082031 C 78.332031 117.625 78.59375 118.230469 79 118.898438 M 78.027344 110.671875 C 78.695312 110.25 79.285156 110.761719 79.792969 112.214844 L 80.429688 115.027344 C 80.488281 115.410156 80.226562 115.691406 79.640625 115.875 C 78.890625 116.09375 78.453125 116.277344 78.332031 116.417969 C 78.636719 114.523438 78.535156 112.609375 78.027344 110.671875 M 60.183594 92.835938 C 64.847656 92.835938 70.1875 91.816406 76.203125 89.78125 C 76.914062 96.9375 75.6875 102.800781 72.527344 107.378906 L 67.417969 112.367188 C 67.15625 112.585938 67.1875 112.871094 67.511719 113.210938 C 67.816406 113.554688 68.109375 113.636719 68.390625 113.453125 C 70.539062 112.042969 72.304688 110.300781 73.679688 108.222656 L 74.835938 106.894531 L 76.78125 110.339844 C 77.390625 112.4375 77.441406 114.542969 76.933594 116.660156 C 76.386719 118.9375 75.273438 120.679688 73.589844 121.890625 C 72.554688 122.617188 71.179688 122.835938 69.457031 122.554688 L 66.964844 121.890625 L 65.65625 121.40625 L 65.292969 121.253906 C 62.878906 120.265625 60.964844 118.421875 59.546875 115.722656 C 58.714844 114.148438 57.804688 111.558594 56.8125 107.953125 C 55.859375 104.425781 55.261719 101.160156 55.019531 98.15625 C 54.976562 97.8125 54.753906 97.5625 54.347656 97.398438 C 53.945312 97.257812 53.761719 97.398438 53.800781 97.824219 C 54.105469 101.613281 54.957031 105.785156 56.355469 110.339844 C 57.390625 113.828125 58.625 116.507812 60.0625 118.382812 C 54.695312 118.746094 50.550781 117.515625 47.632812 114.695312 C 45.242188 112.375 43.667969 108.878906 42.921875 104.203125 C 42.148438 99.425781 42.261719 94.558594 43.253906 89.597656 C 45.140625 90.386719 47.234375 91.050781 49.546875 91.59375 C 53.074219 92.421875 56.617188 92.835938 60.183594 92.835938 M 49.242188 46.605469 L 50.730469 47.480469 C 51.257812 49.113281 52.222656 50.40625 53.621094 51.351562 C 54.957031 52.28125 56.464844 52.742188 58.148438 52.742188 C 62.101562 52.722656 65.027344 50.617188 66.933594 46.425781 C 68.332031 47.050781 69.851562 47.867188 71.492188 48.875 C 70.519531 49.859375 69.140625 50.707031 67.359375 51.414062 C 66.019531 51.9375 64.957031 52.238281 64.167969 52.320312 C 63.519531 52.402344 63.011719 52.613281 62.648438 52.953125 C 62.304688 53.277344 62.058594 53.78125 61.917969 54.464844 C 61.308594 57.148438 60.84375 60.082031 60.519531 63.265625 C 60.359375 64.957031 60.257812 67.539062 60.214844 71.003906 C 60.195312 74.410156 60.246094 76.757812 60.367188 78.050781 C 60.40625 78.371094 60.570312 78.675781 60.855469 78.957031 C 61.15625 79.238281 61.480469 79.398438 61.828125 79.441406 L 68.9375 79.230469 L 75.382812 78.472656 C 75.222656 81.65625 75.25 84.953125 75.476562 88.359375 C 73.550781 89.1875 71.148438 89.921875 68.269531 90.566406 C 65.273438 91.253906 62.617188 91.636719 60.308594 91.714844 C 58.039062 91.796875 54.5625 91.300781 49.878906 90.234375 L 43.527344 88.570312 L 42.675781 77.476562 C 43.304688 77.71875 44.855469 78.039062 47.328125 78.441406 C 47.734375 78.503906 48.035156 78.433594 48.238281 78.230469 C 48.484375 78.007812 48.582031 77.484375 48.542969 76.660156 L 48.542969 76.566406 L 48.484375 71.941406 C 48.523438 68.878906 48.675781 66.289062 48.9375 64.171875 C 49.203125 62.035156 49.667969 59.585938 50.335938 56.824219 C 50.78125 54.949219 51.136719 53.589844 51.402344 52.742188 C 51.5625 52.320312 51.574219 51.90625 51.429688 51.503906 C 51.289062 51.101562 51.035156 50.816406 50.671875 50.65625 L 50.277344 50.503906 L 50.246094 50.503906 L 48.390625 49.660156 L 46.476562 48.449219 C 47.144531 47.785156 48.066406 47.171875 49.242188 46.605469 M 55.59375 38.59375 C 54.945312 38.714844 54.097656 38.714844 53.042969 38.59375 C 52.007812 38.472656 51.21875 38.28125 50.671875 38.019531 L 47.175781 36.175781 C 46.910156 36.074219 46.75 35.820312 46.6875 35.417969 C 46.667969 35.015625 46.902344 34.882812 47.386719 35.027344 L 49.363281 35.691406 L 53.132812 36.476562 C 54.734375 36.597656 56.863281 36.347656 59.515625 35.722656 L 60.183594 35.691406 C 60.488281 35.710938 60.753906 35.84375 60.976562 36.082031 C 61.199219 36.324219 61.230469 36.558594 61.066406 36.777344 L 60.488281 37.140625 C 58.097656 37.96875 56.464844 38.453125 55.59375 38.59375 M 54.015625 41.253906 L 53.800781 40.859375 C 53.660156 40.738281 53.496094 40.679688 53.316406 40.679688 L 52.769531 40.710938 L 50.730469 40.617188 C 50.550781 40.597656 50.449219 40.628906 50.429688 40.710938 L 50.609375 40.953125 L 51.523438 41.648438 C 52.027344 41.949219 52.636719 42.039062 53.347656 41.917969 C 53.792969 41.839844 54.015625 41.617188 54.015625 41.253906 M 48.453125 24.292969 C 48.351562 24.855469 48.371094 25.351562 48.511719 25.773438 C 48.65625 26.21875 48.878906 26.46875 49.183594 26.53125 C 49.464844 26.589844 49.757812 26.4375 50.0625 26.074219 C 50.347656 25.734375 50.539062 25.28125 50.640625 24.714844 C 50.742188 24.171875 50.722656 23.675781 50.578125 23.234375 C 50.4375 22.789062 50.226562 22.539062 49.941406 22.476562 C 49.636719 22.4375 49.34375 22.589844 49.058594 22.933594 C 48.757812 23.292969 48.554688 23.75 48.453125 24.292969 M 56.476562 24.230469 L 56.566406 23.808594 L 56.445312 23.597656 C 56.242188 23.535156 56.03125 23.667969 55.808594 23.988281 L 54.226562 26.195312 L 52.523438 27.921875 L 51.371094 28.980469 L 51.128906 29.402344 C 51.085938 29.605469 51.105469 29.773438 51.1875 29.914062 L 52.222656 32.09375 C 52.523438 32.597656 52.992188 32.738281 53.621094 32.515625 C 53.78125 32.496094 53.902344 32.425781 53.984375 32.304688 L 53.953125 31.910156 L 53.074219 30.277344 C 52.890625 29.914062 52.921875 29.574219 53.164062 29.25 L 54.804688 27.074219 C 55.433594 26.1875 55.992188 25.238281 56.476562 24.230469 M 45.503906 16.339844 C 45.828125 15.878906 46.171875 15.878906 46.539062 16.339844 C 46.882812 16.785156 47.308594 17.125 47.8125 17.367188 C 47.0625 18.253906 46.324219 19.273438 45.59375 20.421875 C 45.210938 19.433594 45.015625 18.707031 45.015625 18.246094 C 45.015625 17.398438 45.179688 16.765625 45.503906 16.339844 M 52.464844 18.335938 C 52.464844 18.132812 52.394531 17.984375 52.25 17.882812 C 52.128906 17.800781 51.96875 17.800781 51.765625 17.882812 L 49.242188 18.972656 C 49.058594 19.050781 48.96875 19.132812 48.96875 19.210938 L 49.304688 19.332031 L 51.734375 19.605469 L 52.25 19.453125 C 52.394531 19.332031 52.464844 19.164062 52.464844 18.941406 L 52.464844 18.335938 M 70.945312 31.882812 L 71.28125 32.273438 C 71.523438 32.597656 71.632812 32.847656 71.613281 33.03125 C 71.59375 33.25 71.707031 33.371094 71.949219 33.394531 C 72.191406 33.414062 72.324219 33.273438 72.34375 32.96875 C 72.363281 32.707031 72.261719 32.386719 72.039062 32.003906 L 71.402344 31.308594 C 71.199219 31.164062 71.035156 31.195312 70.914062 31.398438 C 70.773438 31.578125 70.785156 31.738281 70.945312 31.882812 M 71.1875 29.101562 C 71.046875 29.28125 71.097656 29.484375 71.339844 29.703125 L 71.433594 29.796875 L 72.375 30.671875 L 73.164062 31.851562 C 73.449219 32.316406 73.628906 32.433594 73.710938 32.214844 C 73.773438 32.074219 73.710938 31.789062 73.53125 31.367188 L 72.953125 30.25 C 72.566406 29.703125 72.132812 29.28125 71.644531 28.980469 C 71.460938 28.898438 71.308594 28.9375 71.1875 29.101562 M 59.851562 33.058594 C 59.789062 33.101562 59.78125 33.203125 59.820312 33.363281 L 60.035156 34.359375 C 60.074219 34.523438 60.011719 34.671875 59.851562 34.8125 L 59.335938 35.085938 C 56.4375 35.671875 54.308594 35.933594 52.949219 35.871094 C 52.101562 35.832031 50.933594 35.578125 49.457031 35.117188 L 47.511719 34.453125 L 47.113281 34.179688 L 47.023438 33.695312 L 47.113281 33.273438 L 47.085938 32.96875 C 47.023438 32.929688 46.933594 32.96875 46.8125 33.089844 L 45.472656 34.269531 L 45.230469 34.691406 L 45.261719 35.207031 L 46.234375 37.382812 L 46.445312 37.59375 L 46.566406 37.355469 L 46.597656 37.050781 L 46.839844 36.6875 C 46.960938 36.628906 47.09375 36.628906 47.234375 36.6875 L 48.96875 38.109375 C 50.367188 39.078125 51.683594 39.660156 52.921875 39.863281 C 54.15625 40.066406 55.867188 39.742188 58.058594 38.894531 L 60.976562 37.566406 L 61.492188 37.65625 L 61.828125 37.988281 L 61.644531 39.347656 C 61.703125 39.511719 61.785156 39.582031 61.886719 39.5625 L 62.101562 39.320312 L 63.074219 36.71875 C 63.214844 36.335938 63.125 36.011719 62.800781 35.75 L 60.15625 33.152344 C 60.011719 33.050781 59.910156 33.019531 59.851562 33.058594 M 61.980469 24.65625 C 61.695312 24.996094 61.503906 25.453125 61.402344 26.015625 C 61.300781 26.582031 61.308594 27.074219 61.429688 27.496094 C 61.574219 27.941406 61.796875 28.191406 62.101562 28.253906 C 62.402344 28.292969 62.699219 28.140625 62.980469 27.800781 C 63.285156 27.4375 63.488281 26.984375 63.589844 26.4375 C 63.691406 25.875 63.671875 25.378906 63.527344 24.957031 C 63.386719 24.515625 63.164062 24.261719 62.859375 24.203125 C 62.554688 24.140625 62.261719 24.292969 61.980469 24.65625 M 66.144531 22.992188 C 66.367188 22.507812 66.121094 21.734375 65.414062 20.664062 L 64.320312 19.210938 C 64.199219 19.113281 64.054688 19.070312 63.894531 19.09375 C 63.730469 19.09375 63.601562 19.164062 63.5 19.304688 L 62.980469 19.789062 C 62.65625 20.148438 62.515625 20.390625 62.554688 20.511719 L 63.101562 20.84375 L 64.167969 21.511719 L 65.351562 22.449219 C 65.757812 22.789062 66.019531 22.972656 66.144531 22.992188 M 59.820312 14.859375 L 61.796875 14.375 C 62.585938 14.09375 63.425781 14.152344 64.320312 14.558594 C 65.273438 15 66.082031 15.746094 66.75 16.792969 C 67.054688 17.277344 67.511719 17.558594 68.117188 17.640625 L 69.667969 17.488281 L 72.40625 17.339844 C 73.519531 17.359375 74.21875 18.023438 74.503906 19.332031 C 74.785156 20.726562 74.015625 21.753906 72.191406 22.417969 L 71.886719 22.628906 C 71.746094 22.8125 71.796875 22.992188 72.039062 23.171875 L 74.5625 25.621094 C 75.878906 27.355469 76.398438 29.171875 76.113281 31.066406 C 75.707031 29.492188 75.109375 28.0625 74.320312 26.773438 C 73.328125 25.320312 72.628906 24.492188 72.222656 24.292969 L 71.644531 24.324219 C 71.523438 24.484375 71.554688 24.644531 71.734375 24.804688 L 72.40625 25.5 L 73.710938 27.195312 C 74.5625 28.285156 75.292969 29.855469 75.898438 31.910156 L 75.65625 32.578125 C 75.230469 30.902344 74.582031 29.503906 73.710938 28.375 C 73.082031 27.546875 72.496094 26.964844 71.949219 26.621094 C 71.726562 26.5 71.574219 26.558594 71.492188 26.800781 C 71.410156 27.0625 71.511719 27.304688 71.796875 27.527344 L 73.105469 28.859375 C 73.570312 29.523438 74.308594 30.902344 75.324219 33 L 75.109375 33.03125 L 74.59375 33.089844 C 74.269531 33.210938 74.199219 33.445312 74.378906 33.785156 C 75.699219 35.15625 75.820312 36.617188 74.746094 38.171875 C 73.671875 39.703125 72.242188 40.226562 70.460938 39.742188 C 68.148438 42.683594 65.566406 44.792969 62.707031 46.0625 C 61.917969 46.402344 61.949219 46.605469 62.800781 46.667969 C 63.628906 46.726562 64.601562 46.484375 65.71875 45.941406 C 64.96875 48.378906 62.980469 50 59.757812 50.808594 L 56.417969 50.988281 C 55.421875 50.769531 54.90625 50.304688 54.867188 49.597656 C 55.148438 49.71875 55.816406 49.710938 56.871094 49.570312 C 57.925781 49.425781 58.441406 49.265625 58.421875 49.085938 L 56.507812 48.902344 C 54.785156 48.683594 52.929688 47.9375 50.945312 46.667969 C 47.5 44.488281 45.210938 41.242188 44.074219 36.929688 C 42.980469 32.820312 43.164062 28.765625 44.621094 24.777344 C 45.59375 22.238281 47.035156 19.835938 48.9375 17.582031 C 49.730469 17.582031 50.578125 17.296875 51.492188 16.734375 L 53.285156 15.132812 C 54.378906 14.101562 55.089844 13.527344 55.414062 13.40625 C 55.839844 13.265625 56.375 13.378906 57.023438 13.742188 L 57.996094 14.40625 C 58.542969 14.769531 59.152344 14.917969 59.820312 14.859375 M 71.492188 8.660156 C 72.648438 9.003906 73.609375 9.878906 74.378906 11.292969 C 75.230469 12.84375 75.707031 13.648438 75.808594 13.710938 C 76.539062 14.152344 77.238281 15.050781 77.90625 16.402344 C 78.371094 17.347656 78.757812 18.367188 79.0625 19.453125 C 79.546875 21.328125 79.335938 23.648438 78.421875 26.410156 C 77.957031 27.800781 77.441406 29 76.871094 30.007812 C 76.792969 28.253906 76.234375 26.699219 75.199219 25.351562 L 73.132812 23.082031 C 73.84375 22.742188 74.480469 22.308594 75.050781 21.78125 C 75.757812 21.117188 76.125 20.503906 76.144531 19.9375 C 76.144531 19.03125 75.929688 18.253906 75.503906 17.609375 C 74.898438 16.703125 73.933594 16.238281 72.617188 16.21875 L 70.277344 16.671875 L 68.332031 16.886719 L 66.417969 14.285156 C 65.320312 12.753906 64.378906 12.097656 63.589844 12.320312 L 61.371094 13.226562 L 59.789062 13.890625 L 58.695312 13.863281 L 57.9375 13.316406 C 57.265625 12.875 56.851562 12.621094 56.691406 12.5625 C 56.222656 12.421875 55.644531 12.480469 54.957031 12.742188 C 54.53125 12.902344 53.761719 13.488281 52.648438 14.496094 L 50.945312 16.070312 C 50.195312 16.511719 49.496094 16.742188 48.847656 16.765625 C 48.078125 16.785156 47.480469 16.511719 47.054688 15.949219 C 46.425781 15.160156 46.0625 14.171875 45.960938 12.984375 C 45.878906 11.835938 46.0625 10.859375 46.507812 10.050781 C 46.851562 9.386719 47.328125 8.851562 47.933594 8.449219 C 47.753906 9.175781 47.875 9.78125 48.300781 10.261719 C 48.886719 10.910156 49.617188 11.242188 50.488281 11.261719 C 51.359375 11.28125 52.160156 10.988281 52.890625 10.382812 C 54.957031 8.609375 56.375 7.695312 57.144531 7.632812 C 57.753906 7.574219 58.535156 7.785156 59.484375 8.269531 C 60.257812 8.652344 60.84375 8.703125 61.25 8.417969 L 62.527344 7.117188 C 63.78125 5.667969 64.671875 4.941406 65.199219 4.941406 C 65.769531 4.941406 66.496094 5.34375 67.390625 6.152344 L 68.089844 6.90625 L 68.9375 7.574219 C 69.972656 8.097656 70.824219 8.460938 71.492188 8.660156 M 19.363281 63.628906 C 19.261719 62.035156 19.605469 60.765625 20.394531 59.816406 C 21.613281 58.386719 22.613281 57.570312 23.40625 57.367188 L 24.621094 58.910156 C 25.574219 59.757812 27.003906 60.140625 28.90625 60.058594 C 28.867188 61.046875 29.3125 62.238281 30.246094 63.628906 L 30.882812 61.511719 C 31.429688 59.960938 31.996094 58.808594 32.585938 58.066406 C 33.941406 56.351562 35.96875 54.609375 38.664062 52.832031 C 41.074219 51.242188 43.375 50.03125 45.566406 49.207031 L 45.566406 49.175781 C 46.234375 49.417969 46.617188 49.597656 46.71875 49.71875 C 47.265625 50.363281 48.320312 50.960938 49.878906 51.503906 L 49.972656 51.5625 L 50.214844 51.65625 C 50.457031 51.753906 50.519531 52.007812 50.398438 52.410156 C 50.132812 53.117188 49.75 54.558594 49.242188 56.734375 C 48.59375 59.476562 48.128906 61.914062 47.84375 64.050781 C 47.582031 66.148438 47.4375 68.769531 47.417969 71.910156 C 47.398438 73.808594 47.410156 75.378906 47.449219 76.628906 L 47.480469 77.382812 L 42.464844 76.328125 L 41.492188 61.359375 L 41.035156 61.449219 L 40.792969 64.714844 L 40.457031 71.671875 C 36.363281 72.757812 32.167969 72.578125 27.875 71.125 C 24.976562 70.117188 22.6875 68.878906 21.003906 67.40625 L 20.792969 67.257812 C 20.285156 66.832031 19.992188 66.5 19.910156 66.257812 C 19.605469 65.371094 19.421875 64.496094 19.363281 63.628906 M 17.050781 55.222656 C 17.824219 55.34375 18.449219 55.554688 18.9375 55.855469 L 20.09375 56.855469 L 20.09375 56.886719 L 20.121094 56.886719 L 20.578125 57.007812 C 20.699219 56.945312 20.761719 56.734375 20.761719 56.371094 L 20.761719 56.339844 L 20.730469 56.3125 L 20.667969 56.191406 L 20.0625 55.160156 C 20.953125 55.261719 21.792969 55.636719 22.585938 56.28125 C 21.632812 56.703125 20.617188 57.5625 19.546875 58.851562 C 18.289062 60.34375 17.8125 62.316406 18.117188 64.777344 L 15.078125 64.929688 C 14.507812 64.828125 13.902344 64.625 13.253906 64.324219 C 12.460938 63.960938 11.9375 63.558594 11.671875 63.113281 L 11.339844 62.480469 L 12.066406 62.628906 L 12.371094 62.539062 C 12.9375 62.417969 13.484375 62.066406 14.011719 61.480469 L 14.105469 61.542969 L 14.378906 61.449219 C 14.5 61.308594 14.53125 61.066406 14.46875 60.726562 L 14.621094 60.210938 C 14.78125 59.484375 14.632812 58.789062 14.164062 58.125 L 13.34375 57.21875 L 13.132812 57.066406 L 11.824219 56.765625 C 11.722656 56.402344 11.734375 56.128906 11.855469 55.949219 L 12.433594 55.828125 C 13 55.828125 13.585938 55.929688 14.195312 56.128906 C 14.964844 56.351562 15.554688 56.683594 15.957031 57.128906 L 15.988281 57.15625 L 16.476562 57.21875 C 16.617188 57.136719 16.6875 56.996094 16.6875 56.792969 L 16.6875 56.734375 C 16.585938 56.371094 16.230469 56.019531 15.625 55.675781 L 15.199219 55.34375 L 17.050781 55.222656 M 3.769531 59.757812 C 4.296875 58.648438 4.488281 57.5 4.347656 56.3125 L 4.378906 56.21875 L 12.613281 58.183594 L 13.101562 58.699219 C 13.40625 59.121094 13.515625 59.546875 13.433594 59.96875 C 13.292969 60.65625 12.816406 61.128906 12.007812 61.390625 L 3.769531 59.757812 M 8.296875 46.515625 C 4.023438 49.214844 1.945312 51.898438 2.066406 54.558594 C 2.085938 55.503906 2.453125 56.289062 3.160156 56.914062 C 3.179688 57.539062 3.070312 58.195312 2.828125 58.878906 C 1.164062 57.894531 0.304688 56.472656 0.242188 54.617188 C 0.0820312 51.152344 2.460938 47.894531 7.386719 44.851562 C 13.324219 41.183594 22.027344 38.554688 33.496094 36.960938 C 36.496094 36.558594 39.394531 35.972656 42.191406 35.207031 L 42.554688 36.992188 C 39.71875 37.757812 36.789062 38.339844 33.769531 38.746094 C 22.464844 40.316406 13.972656 42.90625 8.296875 46.515625 M 102.191406 68.917969 L 102.46875 68.496094 C 102.589844 68.234375 102.597656 67.992188 102.496094 67.769531 L 106.023438 67.859375 L 105.445312 70.945312 L 101.917969 70.28125 L 102.191406 68.917969 M 105.507812 64.898438 C 106.09375 64.816406 106.640625 64.644531 107.148438 64.382812 L 107.90625 64.113281 L 107.148438 65.441406 C 106.660156 66.046875 106.125 66.5 105.535156 66.800781 L 104.835938 66.921875 L 102.496094 66.320312 L 102.496094 66.226562 C 102.515625 65.984375 102.640625 65.804688 102.863281 65.683594 C 103.042969 65.5625 103.429688 65.441406 104.015625 65.320312 L 105.507812 64.898438 M 110.949219 77.929688 C 111.351562 78.210938 111.433594 78.554688 111.191406 78.957031 C 109.875 81.03125 108.546875 82.714844 107.207031 84.007812 C 105.585938 85.578125 103.824219 86.746094 101.917969 87.511719 C 101.472656 87.675781 101.140625 87.542969 100.917969 87.121094 C 100.695312 86.65625 100.804688 86.324219 101.25 86.121094 C 103.074219 85.398438 104.746094 84.296875 106.265625 82.828125 C 107.460938 81.636719 108.679688 80.066406 109.914062 78.109375 C 110.175781 77.6875 110.523438 77.625 110.949219 77.929688 M 108.757812 87.484375 C 110.664062 86.3125 112.902344 84.53125 115.476562 82.132812 C 115.820312 81.789062 116.164062 81.808594 116.511719 82.191406 C 116.855469 82.613281 116.84375 82.988281 116.480469 83.308594 C 113.804688 85.808594 111.445312 87.675781 109.398438 88.902344 C 106.539062 90.617188 103.734375 91.554688 100.976562 91.714844 C 100.492188 91.757812 100.195312 91.523438 100.097656 91.019531 C 99.996094 90.515625 100.1875 90.246094 100.671875 90.203125 C 103.347656 90.042969 106.042969 89.136719 108.757812 87.484375 M 103.957031 61.632812 L 104.714844 61.511719 L 105.507812 61.269531 C 105.992188 61.128906 106.558594 60.855469 107.207031 60.453125 C 107.492188 60.394531 107.878906 60.140625 108.363281 59.695312 L 108.757812 59.363281 C 108.800781 59.910156 108.699219 60.511719 108.453125 61.179688 C 108.03125 62.289062 107.433594 63.0625 106.660156 63.507812 L 105.292969 64.019531 L 103.164062 63.839844 C 102.699219 63.617188 102.4375 63.324219 102.375 62.960938 C 102.316406 62.5 102.40625 62.175781 102.648438 61.996094 C 102.851562 61.855469 103.289062 61.734375 103.957031 61.632812 M 106.875 56.097656 C 107.28125 55.917969 107.664062 55.808594 108.03125 55.765625 C 108.433594 55.746094 108.71875 55.816406 108.878906 55.976562 L 108.851562 56.554688 L 108.304688 58.035156 C 107.980469 58.640625 107.605469 59.113281 107.179688 59.457031 L 107.148438 59.394531 L 105.261719 60.363281 L 103.015625 60.273438 C 102.34375 59.949219 102.011719 59.464844 102.011719 58.820312 C 102.011719 58.316406 102.546875 57.863281 103.621094 57.460938 L 104.078125 57.460938 C 105.050781 57.257812 105.679688 56.996094 105.960938 56.671875 L 106.875 56.097656 M 104.503906 54.074219 C 104.910156 54.132812 105.140625 54.34375 105.203125 54.707031 C 105.304688 55.253906 105.101562 55.777344 104.59375 56.28125 C 103.945312 56.382812 103.316406 56.582031 102.710938 56.886719 C 101.636719 57.390625 101.097656 58.035156 101.097656 58.820312 L 101.21875 59.515625 C 101.078125 60.988281 100.644531 61.875 99.914062 62.175781 L 99.945312 62.992188 L 100.492188 62.75 L 101.554688 62.085938 C 101.453125 62.367188 101.433594 62.691406 101.496094 63.054688 C 101.554688 63.578125 101.777344 63.980469 102.164062 64.261719 C 102.265625 64.363281 102.324219 64.496094 102.34375 64.65625 L 102.253906 64.988281 C 101.828125 65.269531 101.605469 65.671875 101.585938 66.199219 L 101.464844 66.53125 L 101.039062 66.710938 L 99.0625 65.804688 C 98.230469 65.359375 97.5625 64.835938 97.054688 64.230469 C 95.859375 62.863281 95.558594 61.199219 96.144531 59.242188 L 97.359375 57.429688 L 98.820312 55.011719 C 99.449219 54.285156 100.398438 53.941406 101.675781 53.984375 L 104.503906 54.074219 M 105.261719 49.960938 L 105.414062 49.992188 C 106.429688 50.394531 107.542969 50.648438 108.757812 50.746094 L 108.152344 54.132812 L 106.539062 54.40625 C 106.558594 53.78125 106.417969 53.359375 106.113281 53.136719 C 105.851562 52.953125 105.394531 52.84375 104.746094 52.804688 L 105.261719 49.960938 M 94.59375 60.273438 L 94.714844 61.84375 C 94.777344 63.09375 95.050781 64.203125 95.535156 65.167969 C 96.125 66.339844 97.097656 67.226562 98.453125 67.832031 C 99.570312 68.335938 100.105469 68.636719 100.066406 68.738281 C 99.742188 69.804688 98.425781 71.136719 96.113281 72.726562 C 92.6875 75.128906 88.71875 76.125 84.199219 75.722656 C 83.207031 75.640625 81.25 75.078125 78.332031 74.027344 L 74.257812 72.515625 L 72.980469 73.605469 L 75.75 75.085938 L 75.476562 77.355469 L 68.847656 78.171875 C 65.523438 78.433594 63.214844 78.492188 61.917969 78.351562 L 61.613281 78.199219 L 61.429688 77.957031 C 61.332031 76.667969 61.289062 74.351562 61.308594 71.003906 C 61.351562 67.558594 61.453125 65.007812 61.613281 63.355469 C 61.898438 60.292969 62.355469 57.398438 62.980469 54.679688 C 63.082031 54.234375 63.226562 53.921875 63.40625 53.742188 C 63.589844 53.558594 63.875 53.449219 64.257812 53.410156 C 65.148438 53.308594 66.316406 52.976562 67.753906 52.410156 C 69.839844 51.585938 71.433594 50.554688 72.527344 49.328125 C 76.152344 51.261719 79.464844 53.882812 82.464844 57.1875 C 83.984375 58.839844 85.128906 60.292969 85.902344 61.542969 C 85.496094 61.742188 85.078125 62.085938 84.65625 62.570312 C 83.78125 63.558594 83.308594 64.796875 83.226562 66.289062 C 83.734375 65.382812 85.515625 64.191406 88.574219 62.71875 C 91.167969 61.472656 93.175781 60.65625 94.59375 60.273438 M 99.609375 1.886719 C 96.40625 1.886719 93.285156 2.582031 90.246094 3.972656 C 85.28125 6.273438 80.683594 9.246094 76.449219 12.894531 L 76.234375 12.773438 C 75.949219 12.652344 75.636719 12.230469 75.292969 11.503906 C 79.691406 7.734375 84.421875 4.679688 89.488281 2.34375 C 92.769531 0.832031 96.144531 0.0742188 99.609375 0.0742188 C 104.613281 0.0742188 109.4375 1.597656 114.078125 4.640625 C 118.152344 7.300781 121.484375 10.667969 124.078125 14.738281 C 126.691406 18.828125 127.960938 22.679688 127.878906 26.289062 C 127.757812 31.085938 126.398438 34.925781 123.804688 37.808594 C 122.285156 39.519531 119.609375 41.394531 115.78125 43.429688 C 113.714844 44.539062 112.234375 45.417969 111.34375 46.0625 C 109.945312 47.089844 108.921875 48.226562 108.273438 49.476562 L 106.449219 49.054688 C 107.179688 47.480469 108.375 46.0625 110.035156 44.792969 C 111.027344 44.046875 112.660156 43.058594 114.929688 41.828125 C 118.515625 39.914062 121.007812 38.179688 122.40625 36.628906 C 124.738281 34.046875 125.953125 30.589844 126.054688 26.257812 C 126.117188 22.972656 124.910156 19.414062 122.4375 15.585938 C 119.964844 11.753906 116.84375 8.609375 113.074219 6.152344 C 108.71875 3.308594 104.230469 1.886719 99.609375 1.886719 "/>
</g>
</svg>
