<?xml version="1.0" encoding="UTF-8"?>
<svg xmlns="http://www.w3.org/2000/svg" xmlns:xlink="http://www.w3.org/1999/xlink" width="128pt" height="148pt" viewBox="0 0 128 148" version="1.1">
<g id="surface1">
<path style=" stroke:none;fill-rule:nonzero;fill:rgb(100%,100%,100%);fill-opacity:1;" d="M 106.679688 111.511719 L 106.824219 112.023438 C 107.023438 112.90625 107.707031 113.757812 108.882812 114.589844 C 109.816406 115.222656 110.699219 115.542969 111.53125 115.542969 L 112.265625 115.542969 L 112.265625 115.25 C 112.5625 113.929688 112.292969 112.734375 111.457031 111.660156 L 111.164062 111.292969 L 109.914062 113.050781 L 108.296875 111.21875 L 108.074219 111.074219 L 107.855469 111.21875 L 107.121094 111.511719 L 106.679688 111.511719 M 109.253906 96.859375 C 103.417969 91.976562 99.570312 89.386719 97.710938 89.09375 L 97.414062 89.09375 L 97.269531 89.3125 C 95.40625 93.316406 95.0625 97.566406 96.238281 102.0625 L 96.679688 102.425781 C 96.972656 102.425781 97.121094 102.257812 97.121094 101.914062 C 97.316406 97.957031 97.929688 94.855469 98.960938 92.609375 L 104.398438 95.6875 C 106.214844 96.613281 107.535156 97.421875 108.371094 98.105469 L 108.664062 98.398438 L 108.957031 98.03125 L 109.324219 97.152344 L 109.324219 96.933594 L 109.253906 96.859375 M 123.808594 110.632812 L 123.589844 110.558594 L 123.367188 110.707031 L 122.042969 112.683594 L 120.941406 111.4375 L 120.574219 111.144531 L 120.355469 111.511719 C 119.714844 112.636719 119.519531 113.882812 119.765625 115.25 L 119.839844 115.542969 L 120.132812 115.542969 C 121.164062 115.542969 122.167969 115.078125 123.148438 114.148438 C 124.226562 113.222656 124.863281 112.390625 125.058594 111.660156 L 125.207031 111.367188 L 123.808594 110.632812 M 118.882812 94.585938 C 121.433594 91.949219 123.320312 90.3125 124.542969 89.679688 C 125.917969 88.945312 126.699219 89.433594 126.898438 91.144531 C 127.632812 97.296875 127.140625 102.28125 125.425781 106.089844 C 126.800781 110.144531 126.382812 113.613281 124.175781 116.496094 C 123.933594 116.886719 123.882812 117.179688 124.03125 117.375 L 119.765625 122.503906 C 117.511719 124.066406 115.699219 124.847656 114.324219 124.847656 C 112.855469 124.847656 111.261719 123.992188 109.546875 122.28125 C 108.664062 121.355469 107.5625 120.621094 106.238281 120.085938 C 103.003906 118.960938 100.871094 117.960938 99.839844 117.082031 C 98.8125 116.25 97.464844 114.515625 95.796875 111.878906 C 94.71875 114.027344 96.753906 117.738281 101.898438 123.015625 C 107.683594 128.925781 110.648438 132.148438 110.796875 132.6875 C 111.1875 134.199219 112.265625 135.789062 114.03125 137.449219 L 116.53125 139.5 C 118.34375 140.964844 119.375 142.210938 119.617188 143.238281 C 120.058594 145.140625 118.761719 146.484375 115.722656 147.265625 C 114.152344 147.707031 112.4375 147.511719 110.574219 146.679688 C 108.273438 145.65625 106.777344 143.96875 106.089844 141.625 C 105.550781 139.671875 103.417969 137.105469 99.695312 133.933594 L 91.460938 126.164062 C 88.46875 122.113281 85.945312 119.253906 83.886719 117.59375 C 80.554688 116.566406 76.386719 111.632812 71.390625 102.792969 C 66.78125 93.757812 64.136719 88.824219 63.449219 87.992188 C 62.417969 91.902344 58.9375 92.144531 53.007812 88.726562 C 47.519531 84.769531 44.921875 83.109375 45.214844 83.746094 C 48.890625 87.113281 50.730469 89.53125 50.730469 90.996094 C 50.730469 91.875 50.3125 92.609375 49.480469 93.195312 C 47.273438 94.808594 45.066406 94.683594 42.863281 92.828125 C 41.539062 91.65625 37.644531 85.941406 31.171875 75.683594 C 30.339844 74.316406 29.75 72.972656 29.410156 71.65625 C 28.820312 69.554688 29.039062 68.089844 30.070312 67.257812 C 31 66.476562 33.527344 66.941406 37.644531 68.652344 C 41.515625 70.261719 43.449219 70.945312 43.449219 70.703125 C 42.617188 68.113281 42.273438 65.476562 42.421875 62.789062 C 42.667969 57.464844 45.140625 53.851562 49.847656 51.945312 C 49.257812 51.507812 47.59375 51.164062 44.847656 50.921875 L 35.511719 50.113281 C 26.050781 48.992188 18.675781 46.453125 13.378906 42.496094 C 9.605469 39.664062 6.496094 34.242188 4.042969 26.230469 C 1.347656 17.488281 0.929688 9.722656 2.792969 2.933594 C 3.234375 1.269531 4.386719 0.367188 6.25 0.222656 C 8.113281 0.125 8.945312 1.269531 8.75 3.664062 C 8.308594 10.894531 8.160156 15.484375 8.308594 17.4375 C 9.09375 26.277344 12.03125 32.703125 17.128906 36.707031 C 22.523438 41.003906 31.171875 43.839844 43.082031 45.207031 L 60.289062 46.085938 C 68.277344 47.40625 76.019531 51.117188 83.519531 57.222656 C 90.726562 63.035156 96.164062 69.800781 99.839844 77.515625 C 103.957031 79.371094 106.777344 81.351562 108.296875 83.453125 C 109.816406 85.503906 110.28125 87.824219 109.691406 90.410156 C 113.613281 91.386719 116.679688 92.78125 118.882812 94.585938 "/>
</g>
</svg>
