<?xml version="1.0" encoding="UTF-8"?>
<svg xmlns="http://www.w3.org/2000/svg" xmlns:xlink="http://www.w3.org/1999/xlink" width="128pt" height="275pt" viewBox="0 0 128 275" version="1.1">
<g id="surface1">
<path style=" stroke:none;fill-rule:nonzero;fill:rgb(100%,100%,100%);fill-opacity:1;" d="M 24.214844 252.949219 C 25.582031 253.503906 27.355469 254.078125 29.535156 254.675781 C 33.121094 255.652344 36.28125 256.226562 39.015625 256.398438 L 52.019531 255.824219 C 51.976562 257.355469 51.445312 258.484375 50.417969 259.207031 C 49.5625 259.847656 47.664062 260.164062 44.714844 260.164062 L 43.050781 258.25 L 42.921875 258.058594 L 42.667969 258.121094 C 37.710938 259.484375 33.355469 260.335938 29.597656 260.675781 C 23.917969 261.101562 18.363281 260.65625 12.941406 259.335938 L 12.300781 259.144531 C 11.53125 258.929688 11.105469 258.699219 11.019531 258.441406 C 11.019531 257.929688 11.875 257.25 13.582031 256.398438 C 14.777344 255.800781 18.324219 254.652344 24.214844 252.949219 M 80.207031 136.796875 L 81.363281 139.03125 C 78.628906 145.375 77.261719 150.847656 77.261719 155.441406 L 76.171875 155.25 L 75.53125 154.804688 L 75.273438 154.292969 C 75.359375 150.632812 75.957031 144.589844 77.070312 136.160156 L 80.207031 136.796875 M 88.730469 104.296875 L 84.628906 104.550781 C 84.246094 104.550781 83.945312 104.761719 83.730469 105.1875 L 82.515625 108.574219 C 81.746094 111 81.363281 112.875 81.363281 114.191406 L 83.476562 114.191406 C 83.476562 112.617188 84.136719 110.085938 85.460938 106.59375 L 87.511719 106.464844 C 86.828125 110 85.953125 112.554688 84.886719 114.128906 L 86.613281 115.277344 C 88.023438 113.148438 89.089844 109.894531 89.816406 105.507812 L 89.5625 104.613281 C 89.347656 104.402344 89.070312 104.296875 88.730469 104.296875 M 84.691406 102.570312 C 86.785156 102.273438 88.941406 102.699219 91.164062 103.847656 C 94.066406 105.421875 96.351562 108.019531 98.019531 111.636719 C 99.511719 114.875 100.386719 118.34375 100.644531 122.046875 C 100.902344 125.921875 100.410156 129.328125 99.171875 132.265625 L 97.441406 135.265625 L 95.261719 137.5 C 91.71875 140.308594 88.769531 141.351562 86.421875 140.628906 C 84.925781 140.203125 83.644531 138.96875 82.578125 136.925781 L 86.101562 136.863281 L 86.808594 136.476562 L 87.0625 135.777344 C 86.976562 135.09375 86.613281 134.753906 85.972656 134.753906 C 83.410156 134.753906 80.402344 134.351562 76.941406 133.539062 C 72.710938 132.476562 70.277344 131.222656 69.636719 129.773438 C 68.867188 127.941406 68.699219 126.496094 69.125 125.429688 L 69.765625 124.472656 L 72.199219 125.878906 C 74.207031 126.941406 76.875 127.515625 80.207031 127.601562 L 84.886719 127.410156 C 85.484375 127.324219 85.78125 126.964844 85.78125 126.324219 C 85.695312 125.6875 85.332031 125.367188 84.691406 125.367188 L 83.21875 125.429688 L 76.300781 124.855469 L 73.160156 123.960938 L 71.878906 123.070312 C 70.8125 122.089844 70.34375 120.769531 70.46875 119.109375 L 70.917969 117.832031 C 72.113281 117.023438 73.203125 115.789062 74.1875 114.128906 C 74.484375 114.9375 74.976562 115.703125 75.660156 116.429688 C 77.027344 117.832031 78.96875 118.832031 81.488281 119.429688 L 86.679688 119.8125 C 89.242188 119.386719 91.632812 115.34375 93.855469 107.679688 L 91.867188 107.105469 C 91.097656 109.746094 90.203125 112.105469 89.175781 114.191406 C 88.066406 116.449219 87.128906 117.640625 86.359375 117.769531 L 81.9375 117.386719 C 79.84375 116.875 78.265625 116.066406 77.195312 114.960938 C 76 113.765625 75.554688 112.234375 75.851562 110.363281 C 76.363281 107.210938 77.625 105.0625 79.632812 103.914062 C 80.570312 103.316406 82.257812 102.871094 84.691406 102.570312 M 65.859375 113.492188 C 65.34375 112.554688 65.152344 111.851562 65.28125 111.382812 L 67.332031 110.488281 L 70.34375 109.277344 C 71.410156 108.636719 72.050781 107.851562 72.265625 106.914062 C 72.777344 104.570312 73.929688 102.847656 75.722656 101.742188 C 76.75 101.101562 77.902344 100.71875 79.183594 100.589844 C 76.363281 102.210938 74.550781 105.339844 73.738281 109.976562 C 73.609375 110.660156 73.589844 111.40625 73.671875 112.214844 L 72.96875 112.339844 C 71.390625 113.363281 70.171875 114.703125 69.316406 116.363281 L 68.675781 116.492188 C 68.207031 116.40625 67.714844 116.066406 67.203125 115.46875 L 65.859375 113.492188 M 28.636719 78.753906 C 31.582031 77.6875 33.933594 79.074219 35.683594 82.902344 C 36.410156 84.691406 36.066406 88.246094 34.660156 93.566406 C 33.503906 93.867188 32.074219 94.910156 30.367188 96.695312 C 29.511719 97.675781 28.785156 98.929688 28.1875 100.464844 L 27.484375 102.445312 C 27.484375 102.996094 27.738281 103.335938 28.253906 103.464844 C 28.765625 103.550781 29.128906 103.359375 29.339844 102.890625 L 30.878906 99.121094 C 32.5 96.910156 34.914062 96.164062 38.117188 96.886719 C 41.621094 97.738281 44.226562 98.953125 45.933594 100.527344 C 47.171875 101.632812 48.003906 103.039062 48.433594 104.742188 C 48.644531 105.636719 48.601562 106.871094 48.304688 108.445312 C 47.960938 110.191406 47.40625 111.636719 46.636719 112.789062 C 45.785156 113.980469 44.886719 114.640625 43.949219 114.765625 L 39.398438 114.449219 C 37.519531 113.980469 35.984375 113.257812 34.785156 112.277344 C 33.632812 111.296875 33.015625 110.234375 32.929688 109.085938 L 33.378906 105.316406 C 33.589844 103.316406 33.484375 102.316406 33.058594 102.316406 C 32.929688 102.316406 32.523438 103.167969 31.839844 104.871094 C 31.15625 106.65625 30.792969 107.808594 30.75 108.316406 C 30.75 110.0625 31.21875 111.808594 32.160156 113.554688 C 33.570312 116.109375 35.683594 117.472656 38.503906 117.640625 L 44.394531 117.894531 C 43.925781 119.683594 43.351562 120.960938 42.667969 121.726562 C 41.984375 122.535156 40.019531 123.21875 36.773438 123.769531 C 33.058594 124.367188 30.300781 124.003906 28.507812 122.6875 L 27.226562 122.8125 C 26.757812 123.195312 26.714844 123.621094 27.097656 124.089844 L 29.917969 126.390625 C 32.523438 127.496094 35.769531 127.21875 39.65625 125.558594 C 40.082031 126.238281 39.996094 127.324219 39.398438 128.816406 C 39.058594 129.710938 37.328125 130.582031 34.210938 131.433594 L 25.625 132.964844 C 23.746094 131.648438 22.167969 130.261719 20.886719 128.816406 L 19.089844 126.007812 C 18.792969 125.496094 18.363281 125.367188 17.808594 125.621094 C 17.339844 125.921875 17.167969 126.347656 17.296875 126.898438 C 17.597656 127.667969 18.257812 128.6875 19.285156 129.964844 L 22.933594 135.648438 C 23.148438 136.03125 23.488281 136.179688 23.960938 136.09375 L 34.980469 134.371094 L 33.824219 136.03125 C 33.015625 136.96875 31.476562 137.628906 29.214844 138.011719 C 26.695312 138.4375 24.601562 138.203125 22.933594 137.308594 C 19.644531 135.5625 17.105469 133.242188 15.3125 130.347656 C 13.347656 127.242188 12.875 124.324219 13.902344 121.601562 C 14.882812 119.089844 16.1875 117.109375 17.808594 115.660156 L 20.050781 114.191406 L 20.371094 113.554688 C 20.414062 113.042969 20.09375 112.320312 19.410156 111.382812 L 18.195312 109.402344 C 17.851562 107.914062 17.851562 106.914062 18.195312 106.402344 L 21.332031 103.019531 C 24.578125 99.742188 26.308594 97.613281 26.523438 96.632812 C 26.777344 95.527344 26.566406 92.289062 25.882812 86.925781 L 25.625 85.457031 C 25.371094 83.457031 25.410156 82.03125 25.753906 81.179688 C 26.136719 80.117188 27.097656 79.304688 28.636719 78.753906 M 42.539062 103.082031 L 42.28125 102.058594 L 39.785156 99.632812 L 39.144531 99.507812 L 38.628906 100.082031 L 37.605469 103.71875 C 36.921875 106.359375 36.601562 108.46875 36.644531 110.042969 L 38.183594 109.976562 C 38.183594 108.277344 38.671875 105.65625 39.65625 102.125 L 40.9375 103.335938 C 40.339844 106.957031 39.71875 109.445312 39.078125 110.808594 L 40.359375 111.957031 L 41.832031 107.105469 L 42.539062 103.082031 M 50.226562 89.160156 C 50.996094 90.226562 52.148438 91.546875 53.6875 93.121094 L 57.210938 96.121094 L 57.464844 96.1875 L 57.914062 96.441406 C 58.46875 96.78125 58.53125 97.3125 58.105469 98.039062 C 57.335938 99.699219 56.207031 102.65625 54.710938 106.914062 C 52.703125 112.53125 51.164062 117.535156 50.097656 121.917969 C 49.03125 126.261719 48.089844 131.730469 47.277344 138.332031 L 46.253906 148.292969 L 46.253906 148.484375 L 46.125 149.824219 C 44.246094 149.3125 42.539062 148.527344 41 147.460938 L 40.488281 130.796875 C 41.640625 130.285156 42.347656 129.730469 42.601562 129.136719 C 42.730469 128.667969 42.582031 127.773438 42.152344 126.453125 L 41.128906 124.152344 C 42.625 124.027344 43.648438 123.644531 44.203125 123.003906 C 45.1875 121.898438 45.957031 120.066406 46.511719 117.511719 L 46.636719 117.003906 C 46.722656 116.578125 46.574219 116.257812 46.191406 116.042969 L 48.242188 113.9375 C 49.179688 112.53125 49.820312 110.789062 50.164062 108.703125 C 50.503906 106.957031 50.566406 105.488281 50.355469 104.296875 C 49.882812 101.402344 48.261719 99.101562 45.484375 97.398438 C 43.648438 96.25 41.449219 95.441406 38.886719 94.972656 C 40.167969 93.78125 42.390625 92.441406 45.550781 90.949219 C 48.539062 89.503906 50.097656 88.90625 50.226562 89.160156 M 58.875 84.5 L 61.054688 86.160156 L 61.566406 89.035156 C 61.90625 89.886719 62.953125 91.078125 64.703125 92.609375 C 65.601562 93.375 67.265625 94.035156 69.703125 94.589844 C 73.503906 95.484375 78.242188 95.527344 83.925781 94.71875 C 86.699219 94.332031 89.410156 93.164062 92.058594 91.203125 C 94.152344 89.671875 95.433594 88.417969 95.902344 87.4375 C 99.023438 87.691406 102.523438 88.691406 106.410156 90.4375 C 104.488281 93.589844 100.921875 96.035156 95.710938 97.78125 C 92.167969 98.972656 89.285156 99.570312 87.0625 99.570312 L 82.195312 100.398438 L 79.183594 99.761719 L 76.621094 99.570312 L 74.1875 99.953125 C 73.074219 100.378906 72.007812 101.699219 70.984375 103.914062 C 70.085938 106.210938 69.445312 107.59375 69.0625 108.0625 L 65.601562 108.828125 C 63.851562 109.085938 62.976562 110.105469 62.976562 111.894531 C 62.976562 113.851562 63.722656 115.449219 65.21875 116.683594 L 67.460938 117.960938 C 67.117188 118.769531 67.183594 119.832031 67.652344 121.152344 L 68.421875 122.941406 L 67.011719 125.175781 C 66.414062 127.132812 66.882812 129.199219 68.421875 131.371094 C 69.53125 132.988281 71.710938 134.542969 74.953125 136.03125 L 73.800781 144.140625 C 73.03125 149.84375 72.671875 153.421875 72.710938 154.867188 C 72.796875 156.316406 73.671875 157.230469 75.339844 157.613281 L 77.835938 157.742188 C 78.394531 164.765625 82.664062 168.492188 90.652344 168.917969 C 94.664062 169.128906 98.617188 168.640625 102.503906 167.449219 L 103.65625 171.597656 C 99.34375 174.109375 94.300781 175.878906 88.535156 176.898438 C 81.703125 178.089844 74.484375 178.070312 66.882812 176.835938 C 61.671875 176.027344 56.207031 174.089844 50.484375 171.023438 C 45.441406 168.300781 42.324219 166 41.128906 164.128906 L 40.550781 149.121094 L 46.894531 151.421875 C 47.664062 151.675781 48.324219 151.589844 48.882812 151.164062 L 49.648438 149.824219 L 49.777344 147.910156 L 49.777344 147.71875 L 50.546875 138.011719 C 51.1875 131.496094 51.976562 126.070312 52.917969 121.726562 C 53.898438 117.214844 55.308594 112.148438 57.144531 106.53125 C 58.597656 102.230469 59.621094 99.441406 60.21875 98.164062 C 60.902344 96.71875 60.433594 95.503906 58.8125 94.527344 C 56.761719 93.25 54.367188 91.183594 51.636719 88.332031 C 54.113281 86.628906 56.527344 85.351562 58.875 84.5 M 58.425781 69.300781 C 58.210938 69.386719 58.253906 69.578125 58.554688 69.878906 L 60.027344 70.386719 L 62.65625 70.835938 C 63.296875 70.921875 63.957031 71.367188 64.640625 72.175781 C 65.195312 73.28125 65.601562 73.835938 65.859375 73.835938 L 67.203125 73.707031 C 67.460938 73.453125 67.628906 72.984375 67.714844 72.304688 C 67.714844 71.878906 67.246094 71.453125 66.304688 71.027344 C 65.28125 70.304688 64.621094 69.917969 64.320312 69.878906 L 59.132812 69.367188 L 58.425781 69.300781 M 60.605469 35.714844 C 59.535156 35.757812 58.660156 36.054688 57.976562 36.609375 C 57.59375 36.90625 57.699219 37.097656 58.296875 37.183594 L 61.375 37.695312 L 67.523438 37.949219 C 66.96875 36.84375 66.199219 36.054688 65.21875 35.585938 C 63.636719 34.652344 62.460938 34.140625 61.695312 34.054688 C 61.351562 34.054688 61.136719 34.351562 61.054688 34.949219 L 60.605469 35.714844 M 105.066406 56.085938 C 104.722656 56 104.445312 56.128906 104.230469 56.46875 C 103.976562 56.765625 103.996094 57.0625 104.296875 57.363281 L 104.9375 58.320312 L 105.449219 59.914062 C 105.320312 60.382812 105.492188 60.660156 105.960938 60.746094 C 106.515625 60.917969 106.859375 60.660156 106.988281 59.980469 C 107.074219 59.46875 106.921875 58.765625 106.539062 57.871094 L 105.386719 56.277344 L 105.066406 56.085938 M 106.410156 51.421875 L 106.21875 51.359375 C 105.875 51.230469 105.597656 51.339844 105.386719 51.679688 C 105.128906 52.019531 105.214844 52.421875 105.640625 52.890625 L 107.628906 55.191406 L 108.78125 57.425781 C 109.207031 58.363281 109.527344 58.871094 109.742188 58.957031 L 109.996094 58.765625 C 110.167969 58.46875 110.105469 57.851562 109.804688 56.914062 L 108.84375 54.425781 C 108.289062 53.273438 107.476562 52.273438 106.410156 51.421875 M 76.492188 67.449219 L 72.199219 67.769531 C 70.707031 67.640625 69.46875 67.195312 68.484375 66.429688 C 67.332031 65.28125 65.730469 64.621094 63.679688 64.449219 L 58.746094 63.554688 C 57.976562 63.34375 57.210938 62.683594 56.441406 61.574219 L 55.289062 59.597656 C 55.414062 58.703125 55.96875 58.488281 56.953125 58.957031 L 60.414062 60.425781 C 63.1875 61.703125 65.621094 62.535156 67.714844 62.917969 C 70.875 63.429688 75.789062 63.023438 82.449219 61.703125 L 85.71875 61.640625 L 86.167969 62.214844 L 86.167969 62.980469 L 85.140625 64.066406 C 80.957031 66.324219 78.074219 67.449219 76.492188 67.449219 M 82.644531 55.957031 L 82.324219 55.765625 L 82.066406 56.085938 C 81.9375 56.167969 81.917969 56.296875 82.003906 56.46875 L 82.769531 58.445312 C 83.15625 58.871094 83.113281 59.257812 82.644531 59.597656 L 82.003906 60.300781 C 74.828125 61.574219 69.980469 61.980469 67.460938 61.511719 C 65.664062 61.382812 63.488281 60.660156 60.925781 59.339844 L 57.464844 57.679688 C 56.652344 57.425781 56.375 56.808594 56.632812 55.828125 L 56.761719 55.125 C 56.972656 54.957031 56.972656 54.765625 56.761719 54.550781 C 56.890625 54.210938 56.695312 54.253906 56.183594 54.679688 L 53.300781 56.660156 C 52.660156 57.382812 52.40625 58.0625 52.53125 58.703125 L 53.941406 63.492188 C 54.328125 64.34375 54.648438 64.363281 54.902344 63.554688 L 54.96875 62.980469 L 55.863281 63.875 L 57.976562 65.980469 C 59.046875 66.578125 60.902344 67.214844 63.550781 67.898438 C 65.816406 68.109375 67.929688 68.75 69.894531 69.8125 C 72.925781 71.644531 76.554688 71.367188 80.785156 68.984375 C 82.664062 68.003906 84.542969 66.535156 86.421875 64.578125 C 87.0625 64.238281 87.683594 64.429688 88.28125 65.152344 L 88.410156 68.027344 C 89.007812 68.535156 89.328125 68.449219 89.371094 67.769531 L 90.136719 61.894531 C 90.265625 61 89.945312 60.449219 89.175781 60.234375 L 82.644531 55.957031 M 90.074219 39.800781 C 89.390625 39.332031 88.578125 39.566406 87.640625 40.503906 C 87.085938 40.972656 86.335938 41.992188 85.398438 43.570312 C 84.84375 45.1875 84.605469 46.441406 84.691406 47.335938 C 84.566406 48.441406 84.863281 49.167969 85.589844 49.507812 C 86.359375 49.976562 87.210938 49.804688 88.152344 48.996094 C 88.921875 48.359375 89.605469 47.273438 90.203125 45.738281 C 90.929688 44.335938 91.183594 43.078125 90.972656 41.972656 C 91.097656 40.78125 90.800781 40.058594 90.074219 39.800781 M 70.664062 29.902344 C 71.429688 29.476562 71.773438 29.222656 71.6875 29.136719 C 71.132812 28.160156 70.277344 27.5625 69.125 27.351562 L 65.859375 27.605469 C 65.34375 27.773438 64.8125 28.03125 64.257812 28.371094 L 64 28.625 L 64.382812 28.625 L 67.203125 28.5625 C 68.144531 28.859375 68.867188 29.4375 69.382812 30.285156 L 70.664062 29.902344 M 77.453125 36.542969 C 77.027344 36.375 76.554688 36.628906 76.042969 37.3125 L 72.90625 40.949219 L 71.429688 42.355469 L 65.664062 46.761719 L 65.410156 47.082031 C 64.980469 47.632812 64.875 48.1875 65.089844 48.742188 L 66.691406 53.59375 L 67.140625 54.042969 L 67.140625 54.105469 L 67.394531 54.296875 C 68.035156 54.808594 68.785156 54.957031 69.636719 54.742188 L 70.40625 54.425781 L 70.46875 53.59375 L 68.867188 49.378906 C 68.785156 48.742188 68.953125 48.210938 69.382812 47.785156 L 73.289062 43.570312 C 74.828125 41.824219 76.195312 39.949219 77.390625 37.949219 C 77.816406 37.226562 77.835938 36.757812 77.453125 36.542969 M 100.324219 31.179688 C 99.214844 27.691406 97.3125 26.09375 94.621094 26.390625 C 92.445312 26.773438 90.457031 28.117188 88.664062 30.414062 C 88.492188 30.671875 88.066406 30.5 87.382812 29.902344 C 87.085938 29.179688 86.785156 28.96875 86.488281 29.265625 L 86.679688 30.796875 L 87.320312 32.585938 L 90.523438 31.371094 C 92.617188 30.480469 94.132812 30.054688 95.070312 30.09375 C 97.460938 30.691406 98.894531 31.734375 99.363281 33.222656 L 99.621094 33.925781 C 99.746094 34.011719 99.960938 33.925781 100.261719 33.671875 C 100.601562 32.988281 100.625 32.160156 100.324219 31.179688 M 95.390625 19.429688 C 98.125 20.113281 100.324219 22.15625 101.988281 25.5625 C 102.546875 26.625 103.378906 27.308594 104.488281 27.605469 L 107.949219 27.734375 L 113.648438 28.050781 L 114.097656 28.117188 C 116.320312 28.753906 117.492188 30.394531 117.621094 33.03125 C 117.75 35.84375 115.890625 37.714844 112.046875 38.652344 C 111.835938 38.652344 111.597656 38.78125 111.34375 39.035156 C 111 39.375 111.066406 39.78125 111.535156 40.25 C 113.542969 42.25 115.101562 44.164062 116.210938 45.996094 C 118.605469 49.953125 119.246094 53.871094 118.132812 57.746094 C 117.75 54.507812 116.851562 51.359375 115.445312 48.292969 C 113.691406 45.058594 112.433594 43.164062 111.664062 42.609375 L 111.214844 42.355469 C 110.832031 42.269531 110.53125 42.375 110.316406 42.675781 C 110.105469 42.972656 110.148438 43.269531 110.445312 43.570312 L 111.726562 45.230469 L 114.097656 49.058594 C 115.464844 51.359375 116.597656 54.828125 117.492188 59.46875 L 116.917969 60.746094 L 116.851562 60.683594 C 116.210938 57.019531 115.1875 53.976562 113.777344 51.550781 C 112.582031 49.550781 111.472656 48.1875 110.445312 47.464844 L 110.253906 47.335938 C 109.871094 47.25 109.613281 47.421875 109.484375 47.847656 C 109.355469 48.316406 109.507812 48.804688 109.933594 49.316406 C 111.042969 50.421875 111.855469 51.464844 112.367188 52.445312 C 113.4375 54.273438 114.609375 57.191406 115.890625 61.191406 L 115.570312 61.640625 L 114.484375 61.640625 C 113.800781 61.769531 113.605469 62.234375 113.90625 63.042969 C 116.210938 66.066406 116.210938 69.046875 113.90625 71.984375 C 111.597656 74.878906 108.695312 75.859375 105.191406 74.921875 L 104.230469 74.601562 C 98.679688 80.222656 92.765625 84.03125 86.488281 86.03125 C 85.847656 86.203125 85.503906 86.414062 85.460938 86.671875 L 86.230469 87.183594 C 87.808594 87.691406 90.011719 87.457031 92.828125 86.480469 C 91.632812 89.460938 88.75 91.628906 84.179688 92.992188 C 79.953125 94.3125 76.109375 94.503906 72.648438 93.566406 C 71.070312 93.097656 69.914062 92.441406 69.1875 91.589844 L 69.507812 91.714844 L 73.800781 91.972656 C 75.808594 91.886719 76.792969 91.671875 76.75 91.332031 L 76.554688 91.140625 L 75.082031 90.949219 L 72.390625 90.4375 C 68.976562 89.503906 65.410156 87.523438 61.695312 84.5 C 55.03125 79.136719 51.015625 71.792969 49.648438 62.46875 C 48.367188 53.53125 49.734375 45.058594 53.75 37.054688 C 56.3125 32.03125 59.898438 27.351562 64.511719 23.007812 C 66.09375 23.179688 67.949219 22.792969 70.085938 21.859375 L 74.1875 18.855469 C 76.707031 16.984375 78.328125 15.960938 79.054688 15.792969 L 80.402344 15.855469 C 81.597656 16.195312 82.855469 17.089844 84.179688 18.539062 C 84.90625 19.089844 85.652344 19.453125 86.421875 19.625 L 92.125 19.304688 L 95.390625 19.429688 M 12.042969 120.898438 C 10.761719 124.21875 10.914062 127.667969 12.492188 131.242188 C 14.074219 134.777344 16.59375 137.457031 20.050781 139.289062 C 21.847656 140.265625 24.257812 140.585938 27.292969 140.246094 C 30.109375 139.992188 32.394531 139.332031 34.144531 138.265625 L 35.554688 136.925781 L 35.746094 136.863281 C 36.816406 135.5 37.347656 134.265625 37.347656 133.15625 L 37.15625 132.582031 L 38.695312 131.878906 L 38.503906 140.757812 C 36.582031 144.078125 33.824219 147.121094 30.238281 149.886719 C 26.222656 152.953125 22.570312 154.441406 19.285156 154.359375 C 14.074219 154.1875 9.503906 151.613281 5.574219 146.632812 C 1.859375 141.949219 0.382812 137.5625 1.152344 133.476562 C 1.582031 131.136719 3.332031 128.261719 6.40625 124.855469 L 13.582031 117.320312 L 12.042969 120.898438 M 121.015625 261.632812 C 122.511719 264.65625 123.214844 266.636719 123.132812 267.574219 C 122.917969 271.40625 120.546875 273.640625 116.019531 274.277344 C 113.285156 274.660156 110.210938 273.765625 106.792969 271.597656 C 103.976562 269.808594 102.117188 268.125 101.222656 266.550781 C 100.625 265.65625 100.496094 264.335938 100.835938 262.59375 L 114.867188 263.101562 C 116.917969 262.976562 118.96875 262.484375 121.015625 261.632812 M 121.59375 243.4375 C 122.449219 252.546875 122.726562 257.503906 122.425781 258.3125 C 122.210938 258.738281 121.144531 259.1875 119.222656 259.65625 L 113.714844 260.484375 C 111.707031 260.613281 109.164062 260.570312 106.089844 260.359375 C 102.246094 260.101562 99.746094 259.632812 98.59375 258.953125 L 94.6875 248.351562 C 91.65625 239.539062 89.5625 233.773438 88.410156 231.046875 C 85.078125 222.832031 80.613281 213.636719 75.019531 203.460938 L 67.523438 190.4375 L 66.945312 190.753906 L 69.574219 198.035156 L 66.113281 206.273438 C 63.808594 212.019531 61.929688 217.171875 60.476562 221.726562 C 58.253906 228.875 55.691406 239.347656 52.789062 253.140625 L 52.277344 253.523438 L 40.167969 254.101562 L 32.800781 253.140625 C 30.367188 252.460938 28.359375 251.355469 26.777344 249.820312 C 29.425781 231.601562 31.371094 218.746094 32.609375 211.253906 C 36.238281 188.816406 38.652344 174.300781 39.847656 167.703125 C 44.332031 171.535156 51.292969 174.8125 60.734375 177.539062 C 68.632812 179.75 76.769531 180.410156 85.140625 179.515625 C 92.914062 178.707031 99.535156 176.769531 105 173.707031 L 111.792969 195.289062 C 114.996094 205.890625 117.109375 213.699219 118.132812 218.722656 C 119.457031 225.109375 120.609375 233.347656 121.59375 243.4375 M 119.671875 105.445312 C 123.816406 111.914062 125.117188 120.8125 123.578125 132.136719 C 122.085938 142.90625 118.882812 151.058594 113.96875 156.59375 C 108.246094 163.0625 102.480469 166.449219 96.671875 166.746094 L 89.625 166.363281 C 87.574219 165.851562 85.675781 164.789062 83.925781 163.167969 C 81.191406 160.699219 80.015625 156.871094 80.402344 151.675781 C 80.613281 148.355469 81.402344 144.90625 82.769531 141.332031 C 85.929688 144.78125 89.113281 145.632812 92.316406 143.886719 C 95.433594 142.226562 97.953125 139.96875 99.875 137.117188 C 101.925781 134.050781 103.144531 130.476562 103.527344 126.390625 C 106.132812 129.15625 107.328125 132.988281 107.113281 137.882812 C 107.03125 139.585938 106.347656 142.652344 105.066406 147.078125 C 104.082031 150.355469 103.953125 152.039062 104.679688 152.121094 C 105.066406 152.164062 105.769531 150.996094 106.792969 148.609375 C 107.90625 145.886719 108.714844 143.035156 109.230469 140.054688 C 110.679688 131.242188 108.695312 125.003906 103.269531 121.34375 L 102.566406 120.898438 C 102.226562 117.238281 101.347656 113.851562 99.941406 110.746094 C 97.71875 105.804688 94.410156 102.527344 90.011719 100.910156 C 92.914062 100.824219 96.222656 99.972656 99.941406 98.355469 C 103.953125 96.570312 106.835938 94.546875 108.589844 92.289062 C 110.679688 93.652344 112.730469 95.460938 114.738281 97.71875 C 116.660156 99.847656 118.007812 101.71875 118.773438 103.335938 C 117.066406 103.804688 115.1875 104.699219 113.136719 106.019531 C 108.953125 108.617188 106.28125 112.617188 105.128906 118.023438 C 107.433594 113.554688 110.277344 110.105469 113.648438 107.679688 C 116.425781 105.722656 118.433594 104.976562 119.671875 105.445312 M 125.4375 27.414062 C 126.164062 29.542969 126.71875 31.777344 127.101562 34.117188 C 127.699219 38.121094 126.699219 42.929688 124.09375 48.550781 C 122.8125 51.316406 121.445312 53.699219 119.992188 55.703125 C 120.25 51.957031 119.457031 48.570312 117.621094 45.546875 L 113.84375 40.3125 C 115.378906 39.714844 116.808594 38.949219 118.132812 38.011719 C 119.800781 36.777344 120.71875 35.566406 120.890625 34.375 C 121.101562 32.714844 120.910156 31.179688 120.3125 29.777344 C 119.5 27.859375 118.007812 26.605469 115.828125 26.007812 L 114.417969 25.753906 L 109.742188 26.074219 L 105.640625 26.328125 L 105.257812 26.199219 C 105 26.074219 103.996094 24.304688 102.246094 20.898438 C 100.582031 17.664062 99.023438 15.855469 97.570312 15.472656 L 96.480469 15.410156 L 93.917969 16.109375 L 91.546875 16.8125 L 88.601562 17.707031 L 86.488281 17.835938 L 85.78125 17.515625 L 84.308594 16.175781 L 82.835938 14.898438 C 82.363281 14.515625 81.875 14.257812 81.363281 14.132812 L 78.285156 14.257812 C 77.347656 14.472656 75.59375 15.515625 73.03125 17.386719 L 69.0625 20.261719 C 67.011719 21.242188 65.152344 21.515625 63.488281 21.09375 C 62.292969 20.75 61.4375 20.113281 60.925781 19.175781 C 59.816406 17.304688 59.300781 15.109375 59.386719 12.597656 C 59.472656 10.171875 60.09375 8.171875 61.246094 6.597656 C 62.140625 5.277344 63.253906 4.277344 64.578125 3.59375 C 64.019531 5.085938 64.128906 6.382812 64.898438 7.492188 C 65.792969 8.726562 66.96875 9.535156 68.421875 9.917969 C 70.511719 10.46875 72.542969 10.109375 74.507812 8.832031 C 79.375 5.597656 82.558594 4 84.050781 4.042969 L 85.527344 4.296875 C 86.335938 4.511719 87.277344 4.957031 88.34375 5.640625 L 90.652344 6.914062 L 92.445312 6.660156 L 95.457031 4.296875 C 98.445312 1.53125 100.472656 0.210938 101.542969 0.339844 L 101.925781 0.402344 C 103.035156 0.742188 104.359375 1.742188 105.898438 3.402344 L 107.179688 5.128906 L 108.78125 6.722656 C 110.746094 8.085938 112.433594 9.066406 113.84375 9.660156 C 116.148438 10.597656 117.964844 12.664062 119.289062 15.855469 L 121.722656 21.285156 C 123.132812 22.390625 124.371094 24.433594 125.4375 27.414062 "/>
</g>
</svg>
