<?xml version="1.0" encoding="UTF-8"?>
<svg xmlns="http://www.w3.org/2000/svg" xmlns:xlink="http://www.w3.org/1999/xlink" width="128pt" height="445pt" viewBox="0 0 128 445" version="1.1">
<g id="surface1">
<path style=" stroke:none;fill-rule:nonzero;fill:rgb(100%,100%,100%);fill-opacity:1;" d="M 66.761719 365.445312 L 68.566406 369.652344 C 69.171875 388.492188 65.253906 400.984375 56.820312 407.132812 C 52.40625 410.40625 48.691406 410.203125 45.679688 406.53125 C 43.871094 404.390625 42.0625 400.382812 40.257812 394.503906 C 38.851562 389.828125 37.582031 384.519531 36.441406 378.570312 C 41.730469 380.84375 47.351562 380.410156 53.308594 377.269531 C 58.058594 374.730469 62.542969 370.789062 66.761719 365.445312 M 9.035156 165.03125 L 10.039062 162.425781 C 11.710938 159.285156 14.625 155.847656 18.773438 152.105469 C 21.050781 155.378906 24.964844 158.25 30.519531 160.722656 C 30.652344 161.992188 29.617188 166.402344 27.40625 173.949219 C 24.863281 182.632812 23.425781 188.78125 23.089844 192.386719 C 22.285156 201.074219 21.953125 213.128906 22.085938 228.5625 C 22.21875 236.847656 22.085938 241.855469 21.683594 243.59375 L 16.765625 242.492188 L 16.765625 240.585938 C 16.429688 235.976562 15.09375 228.597656 12.75 218.441406 C 9.136719 202.941406 7.160156 194.023438 6.828125 191.6875 C 5.421875 181.664062 6.15625 172.78125 9.035156 165.03125 M 31.222656 125.25 C 31.15625 125.515625 31.390625 125.785156 31.925781 126.050781 L 35.339844 127.855469 L 38.046875 128.253906 L 41.363281 127.753906 C 41.964844 127.621094 42.433594 127.320312 42.765625 126.851562 C 43.167969 126.386719 43.300781 125.882812 43.167969 125.347656 C 42.902344 124.28125 42.199219 123.746094 41.058594 123.746094 L 40.660156 123.847656 L 32.226562 124.847656 C 31.554688 124.914062 31.222656 125.050781 31.222656 125.25 M 18.070312 108.214844 L 18.371094 108.214844 L 23.894531 109.214844 L 35.136719 110.21875 L 37.949219 110.117188 C 43.234375 109.71875 50.027344 107.8125 58.328125 104.40625 L 60.738281 103.90625 C 61.675781 103.90625 62.542969 104.207031 63.347656 104.808594 C 64.152344 105.542969 64.316406 106.308594 63.847656 107.113281 L 62.242188 108.515625 C 54.882812 112.457031 49.828125 114.894531 47.082031 115.828125 L 37.042969 117.132812 L 30.621094 116.429688 L 18.269531 112.121094 C 17.265625 111.921875 16.632812 111.1875 16.363281 109.917969 C 16.027344 108.78125 16.597656 108.214844 18.070312 108.214844 M 16.261719 101.699219 L 15.460938 102.203125 L 11.746094 106.710938 C 11.410156 107.113281 11.242188 107.644531 11.242188 108.3125 L 11.546875 109.917969 L 15.863281 116.632812 L 16.566406 117.234375 C 16.898438 117.234375 17 116.898438 16.867188 116.230469 L 16.867188 115.230469 C 16.867188 114.226562 17.335938 113.726562 18.269531 113.726562 L 18.773438 113.824219 L 25.097656 117.535156 C 30.183594 120.003906 34.769531 121.242188 38.851562 121.242188 L 38.953125 121.242188 C 43.101562 121.242188 48.523438 119.335938 55.214844 115.527344 L 64.050781 109.71875 L 64.953125 109.515625 C 65.824219 109.515625 66.527344 109.882812 67.0625 110.617188 L 67.164062 115.128906 L 67.964844 115.730469 C 68.300781 115.730469 68.5 115.429688 68.566406 114.828125 L 70.476562 105.808594 L 70.273438 104.105469 L 69.070312 102.804688 L 59.03125 95.6875 L 58.328125 95.386719 C 57.859375 95.386719 57.792969 95.753906 58.128906 96.488281 L 59.332031 99.597656 C 59.53125 100.128906 59.398438 100.699219 58.929688 101.300781 L 57.425781 102.300781 C 48.253906 105.707031 41.429688 107.679688 36.945312 108.214844 L 34.234375 108.3125 L 23.792969 107.3125 L 18.472656 106.308594 C 17.9375 106.242188 17.46875 106.007812 17.066406 105.609375 L 16.566406 104.105469 L 16.664062 102.601562 C 16.664062 102 16.53125 101.699219 16.261719 101.699219 M 42.566406 68.230469 C 42.96875 66.960938 42.800781 66.261719 42.0625 66.128906 L 41.964844 66.128906 C 41.363281 66.128906 40.792969 66.695312 40.257812 67.832031 L 36.140625 75.949219 L 31.523438 82.359375 L 28.3125 86.367188 C 27.441406 87.503906 27.40625 88.574219 28.210938 89.574219 L 32.628906 96.1875 C 33.363281 96.992188 34.234375 97.390625 35.238281 97.390625 L 37.445312 96.890625 L 38.449219 96.089844 C 38.652344 95.6875 38.585938 95.253906 38.25 94.785156 L 34.535156 89.777344 C 33.664062 88.707031 33.597656 87.570312 34.335938 86.367188 L 38.449219 78.453125 C 40.125 75.246094 41.496094 71.839844 42.566406 68.230469 M 23.691406 72.839844 C 23.828125 70.96875 23.523438 69.332031 22.789062 67.929688 C 22.121094 66.59375 21.28125 65.925781 20.277344 65.925781 L 20.179688 65.925781 C 19.175781 65.925781 18.304688 66.5625 17.570312 67.832031 C 16.832031 69.167969 16.429688 70.769531 16.363281 72.640625 C 16.296875 74.511719 16.597656 76.113281 17.265625 77.449219 C 17.9375 78.785156 18.808594 79.488281 19.878906 79.554688 C 20.882812 79.554688 21.75 78.886719 22.488281 77.550781 C 23.222656 76.28125 23.625 74.710938 23.691406 72.839844 M 6.023438 47.488281 C 7.363281 48.824219 8.933594 49.726562 10.742188 50.195312 C 8.535156 53.800781 6.625 57.507812 5.019531 61.316406 C 3.28125 58.3125 2.277344 56.039062 2.007812 54.503906 C 1.738281 52.433594 1.839844 50.59375 2.308594 48.992188 C 2.710938 47.457031 3.378906 46.6875 4.316406 46.6875 C 4.917969 46.6875 5.488281 46.953125 6.023438 47.488281 M 26.703125 53 L 26.402344 50.996094 C 26.269531 50.0625 25.800781 49.59375 24.996094 49.59375 L 23.894531 49.894531 L 16.261719 54.703125 L 15.460938 55.605469 L 16.363281 55.90625 L 24.695312 55.503906 C 25.367188 55.503906 25.902344 55.238281 26.304688 54.703125 C 26.703125 54.234375 26.839844 53.667969 26.703125 53 M 64.953125 77.351562 C 65.691406 76.082031 66.089844 74.511719 66.160156 72.640625 C 66.226562 70.703125 65.925781 69.066406 65.253906 67.730469 C 64.585938 66.394531 63.714844 65.726562 62.644531 65.726562 C 61.640625 65.726562 60.769531 66.359375 60.035156 67.628906 C 59.296875 68.964844 58.898438 70.570312 58.828125 72.441406 C 58.761719 74.3125 59.0625 75.914062 59.734375 77.25 C 60.402344 78.585938 61.238281 79.289062 62.242188 79.355469 L 62.34375 79.355469 C 63.347656 79.355469 64.21875 78.6875 64.953125 77.351562 M 61.539062 50.394531 C 60.601562 51.730469 60.269531 52.597656 60.535156 53 L 62.34375 53.902344 L 66.160156 55.503906 L 70.375 57.910156 L 73.386719 59.3125 L 73.488281 59.3125 C 73.886719 57.578125 72.683594 55.171875 69.871094 52.097656 L 65.554688 47.890625 L 64.453125 47.589844 C 63.78125 47.589844 63.28125 47.890625 62.945312 48.492188 L 61.539062 50.394531 M 88.847656 414.546875 C 92.796875 416.617188 97.3125 417.117188 102.398438 416.050781 C 107.152344 415.046875 111.234375 412.976562 114.648438 409.835938 C 119.265625 405.496094 122.578125 399.316406 124.585938 391.296875 C 126.863281 394.90625 127.933594 398.3125 127.800781 401.519531 C 127.730469 403.589844 127.464844 404.792969 126.996094 405.125 L 123.785156 405.726562 C 122.3125 405.996094 121.507812 407.199219 121.375 409.335938 L 121.574219 414.144531 C 121.84375 418.152344 118.261719 424.167969 110.832031 432.183594 L 108.421875 434.585938 C 103.804688 438.796875 98.453125 441.734375 92.359375 443.40625 L 83.023438 444.308594 C 78.941406 443.972656 76.800781 442.46875 76.597656 439.796875 C 76.464844 438.261719 76.734375 436.523438 77.402344 434.585938 L 78.003906 432.984375 L 81.117188 426.570312 C 82.722656 423.566406 84.765625 420.257812 87.242188 416.652344 L 88.847656 414.546875 M 118.964844 301.613281 C 120.503906 297.738281 121.472656 293.230469 121.875 288.085938 C 122.34375 301.3125 121.707031 312.335938 119.96875 321.152344 C 117.625 332.910156 113.109375 342.597656 106.414062 350.214844 L 105.3125 357.226562 L 106.71875 356.925781 L 112.640625 351.214844 C 115.71875 348.007812 117.960938 345.167969 119.367188 342.699219 C 121.242188 348.976562 122.445312 356.328125 122.980469 364.742188 C 123.179688 368.285156 123.046875 372.960938 122.578125 378.773438 L 121.875 381.980469 C 121.542969 383.515625 121.40625 384.683594 121.472656 385.488281 C 120.402344 391.5 118.128906 397.109375 114.648438 402.320312 C 112.105469 406.261719 108.324219 409.234375 103.304688 411.238281 C 97.816406 413.308594 93.097656 413.144531 89.148438 410.738281 L 79.109375 385.585938 L 72.582031 370.355469 L 71.980469 369.050781 L 68.96875 362.136719 L 68.265625 360.433594 C 64.050781 350.546875 60.90625 341.929688 58.828125 334.582031 C 55.148438 322.222656 52.804688 310.097656 51.800781 298.207031 C 51.667969 297.070312 50.933594 296.269531 49.59375 295.800781 C 48.253906 295.332031 47.652344 295.800781 47.785156 297.203125 C 48.65625 307.492188 50.664062 318.28125 53.808594 329.570312 C 56.351562 338.589844 59.96875 348.878906 64.652344 360.433594 C 60.234375 366.445312 55.25 370.824219 49.695312 373.5625 C 42.667969 376.96875 36.976562 376.199219 32.628906 371.257812 C 23.925781 361.4375 18.171875 346.539062 15.359375 326.566406 C 12.550781 307.191406 12.683594 287.21875 15.761719 266.640625 C 20.113281 270.113281 25.464844 273.253906 31.824219 276.058594 C 38.984375 279.402344 46.882812 281.605469 55.515625 282.675781 C 63.949219 283.675781 72.449219 283.542969 81.015625 282.273438 L 80.816406 284.476562 C 78.40625 286.550781 76.164062 287.851562 74.089844 288.386719 L 65.957031 289.488281 L 62.144531 289.988281 C 60.871094 290.324219 59.933594 291.058594 59.332031 292.195312 C 58.527344 293.597656 58.496094 295.066406 59.230469 296.601562 C 60.703125 299.742188 64.652344 301.949219 71.078125 303.214844 L 75.59375 303.917969 L 66.558594 317.445312 C 63.75 321.320312 61.941406 324.226562 61.140625 326.164062 C 59.800781 329.304688 59.902344 331.777344 61.441406 333.578125 C 64.585938 336.917969 69.839844 335.851562 77.203125 330.371094 L 79.210938 331.375 C 82.691406 332.375 87.339844 331.074219 93.164062 327.464844 L 98.382812 327.867188 C 100.726562 327.398438 102.835938 326.199219 104.710938 324.261719 C 110.597656 318.3125 115.351562 310.765625 118.964844 301.613281 M 117.660156 289.890625 C 117.324219 293.695312 116.523438 297.105469 115.25 300.109375 C 111.835938 308.726562 107.351562 315.84375 101.796875 321.453125 C 99.253906 323.992188 96.878906 324.726562 94.667969 323.660156 L 99.1875 317.847656 C 102.398438 313.703125 103.804688 310.933594 103.402344 309.53125 L 95.371094 318.546875 C 89.347656 325.230469 84.429688 328.234375 80.613281 327.566406 L 79.511719 327.066406 L 79.210938 326.765625 C 79.140625 326.566406 81.484375 323.625 86.238281 317.945312 C 90.789062 312.066406 92.527344 308.59375 91.457031 307.527344 L 84.628906 315.242188 L 75.195312 325.863281 C 69.4375 330.738281 65.855469 332.410156 64.453125 330.875 C 63.515625 329.871094 65.289062 326.164062 69.773438 319.75 L 70.875 318.246094 L 81.316406 302.414062 L 81.617188 301.414062 C 81.617188 301.078125 80.214844 300.84375 77.402344 300.710938 L 69.871094 300.109375 C 67.128906 299.574219 64.988281 298.707031 63.449219 297.503906 C 61.839844 296.167969 61.640625 295.066406 62.84375 294.199219 L 64.050781 293.695312 L 66.058594 293.496094 L 75.09375 292.292969 C 76.96875 291.828125 79.140625 290.722656 81.617188 288.988281 C 84.09375 292.058594 88.746094 294.433594 95.574219 296.101562 C 102.867188 297.90625 110.230469 295.835938 117.660156 289.890625 M 125.289062 183.769531 C 126.160156 189.316406 126.761719 197.699219 127.097656 208.921875 C 127.566406 223.085938 126.628906 237.914062 124.285156 253.414062 C 122.8125 262.898438 121.039062 271.484375 118.964844 279.167969 L 118.765625 280.070312 C 118.363281 281.9375 117.828125 283.308594 117.15625 284.175781 C 110.332031 290.992188 103.707031 293.664062 97.28125 292.195312 C 91.121094 290.65625 87.207031 288.886719 85.535156 286.882812 C 86.539062 280.738281 86.972656 275.925781 86.839844 272.453125 C 86.371094 258.890625 84.664062 246.734375 81.71875 235.976562 C 80.046875 229.765625 77.367188 222.382812 73.6875 213.832031 L 71.78125 215.535156 C 75.664062 226.222656 78.304688 235.84375 79.710938 244.394531 L 80.3125 248.605469 L 58.128906 250.207031 C 56.386719 245.863281 55.917969 233.539062 56.722656 213.230469 C 57.589844 191.652344 59.734375 177.625 63.148438 171.144531 C 64.082031 169.539062 64.820312 168.738281 65.355469 168.738281 L 65.757812 168.738281 C 71.578125 168.738281 77.636719 167.269531 83.929688 164.328125 C 90.285156 161.324219 95.171875 157.648438 98.585938 153.308594 C 101.929688 149.097656 103.4375 144.722656 103.101562 140.179688 C 108.523438 144.855469 112.507812 149.265625 115.050781 153.40625 C 120.070312 161.691406 123.480469 171.8125 125.289062 183.769531 M 98.382812 144.289062 C 97.648438 147.09375 96.675781 149.265625 95.472656 150.800781 C 92.394531 154.675781 87.976562 157.949219 82.222656 160.621094 C 76.398438 163.359375 70.875 164.730469 65.65625 164.730469 L 65.253906 164.730469 C 60.101562 164.863281 56.453125 173.75 54.3125 191.386719 C 53.039062 201.742188 52.40625 213.097656 52.40625 225.457031 C 52.335938 237.882812 52.875 246.230469 54.011719 250.507812 C 54.679688 252.914062 55.71875 254.148438 57.125 254.214844 L 61.640625 254.214844 L 80.714844 252.613281 C 81.519531 260.628906 81.71875 268.945312 81.316406 277.5625 C 70.742188 279.367188 60.636719 279.5 51 277.964844 C 44.773438 277.027344 38.683594 275.257812 32.726562 272.652344 C 26.503906 269.980469 21.050781 266.640625 16.363281 262.632812 L 16.867188 246.699219 L 22.1875 247.703125 L 22.488281 247.703125 L 24.292969 247 C 25.164062 246.199219 25.734375 244.460938 26 241.789062 L 26.101562 228.460938 C 25.96875 213.164062 26.304688 201.273438 27.105469 192.789062 C 27.375 189.382812 28.777344 183.46875 31.324219 175.050781 L 34.433594 162.828125 C 34.769531 160.15625 34.335938 158.382812 33.128906 157.515625 L 32.828125 157.316406 C 27.207031 154.84375 23.558594 152.238281 21.886719 149.5 L 28.3125 144.1875 C 30.519531 145.324219 32.960938 146.359375 35.640625 147.292969 C 37.445312 150.96875 40.191406 153.742188 43.871094 155.613281 C 47.152344 157.28125 50.964844 158.117188 55.316406 158.117188 C 63.683594 158.117188 71.3125 155.476562 78.207031 150.199219 C 85.632812 144.589844 89.347656 137.84375 89.347656 129.960938 L 99.085938 136.972656 C 99.222656 139.3125 98.988281 141.75 98.382812 144.289062 M 98.785156 88.875 C 98.71875 87.804688 98.21875 86.804688 97.28125 85.867188 L 94.871094 83.863281 L 94.269531 83.765625 C 93.734375 83.765625 93.363281 84.0625 93.164062 84.664062 C 92.964844 85.265625 93.128906 85.699219 93.664062 85.96875 L 94.972656 87.171875 L 96.476562 89.375 C 96.476562 90.109375 96.878906 90.476562 97.679688 90.476562 C 98.484375 90.476562 98.851562 89.941406 98.785156 88.875 M 94.066406 76.046875 C 93.53125 76.046875 93.164062 76.347656 92.964844 76.949219 C 92.695312 77.617188 92.964844 78.183594 93.765625 78.652344 L 97.679688 81.257812 L 100.390625 84.164062 L 102.5 86.167969 L 102.902344 85.667969 C 102.96875 85.199219 102.632812 84.296875 101.898438 82.960938 L 99.289062 79.554688 C 97.882812 77.953125 96.242188 76.816406 94.367188 76.148438 L 94.066406 76.046875 M 90.957031 37.566406 L 91.558594 37.566406 C 95.238281 37.566406 97.714844 39.539062 98.988281 43.480469 C 100.324219 47.6875 98.316406 51.296875 92.964844 54.304688 C 92.695312 54.304688 92.394531 54.601562 92.058594 55.203125 C 91.65625 55.804688 91.890625 56.375 92.761719 56.910156 C 96.910156 59.3125 100.089844 61.585938 102.300781 63.722656 C 107.585938 68.734375 110.164062 74.378906 110.03125 80.65625 C 108.222656 75.914062 105.578125 71.539062 102.097656 67.53125 C 98.082031 63.320312 95.371094 60.949219 93.96875 60.414062 L 93.265625 60.316406 C 92.59375 60.316406 92.160156 60.582031 91.960938 61.117188 C 91.824219 61.652344 92.027344 62.085938 92.5625 62.417969 L 95.070312 64.421875 L 100.292969 69.132812 C 103.238281 71.9375 106.414062 76.75 109.828125 83.5625 L 109.425781 85.867188 C 107.152344 80.722656 104.308594 76.449219 100.894531 73.042969 C 98.351562 70.636719 96.109375 69.035156 94.167969 68.230469 L 93.765625 68.230469 C 93.164062 68.230469 92.863281 68.597656 92.863281 69.332031 C 92.863281 70.070312 93.296875 70.703125 94.167969 71.238281 L 99.1875 75.046875 C 101.664062 77.585938 104.710938 81.625 108.324219 87.171875 L 108.023438 87.070312 L 107.820312 87.570312 L 106.113281 88.074219 C 105.175781 88.605469 105.078125 89.410156 105.8125 90.476562 C 110.566406 94.085938 111.804688 98.59375 109.527344 104.003906 C 107.253906 109.351562 103.269531 112.023438 97.582031 112.023438 L 96.074219 111.921875 C 90.050781 122.675781 82.691406 130.894531 73.988281 136.574219 C 73.117188 137.175781 72.71875 137.640625 72.785156 137.976562 C 72.851562 138.308594 73.285156 138.476562 74.089844 138.476562 C 76.832031 138.476562 80.078125 137.207031 83.828125 134.667969 C 83.292969 139.613281 79.84375 144.089844 73.488281 148.097656 C 67.597656 151.835938 61.875 153.707031 56.320312 153.707031 C 53.84375 153.707031 51.800781 153.207031 50.195312 152.203125 L 50.699219 152.203125 L 57.324219 150.800781 C 60.335938 149.867188 61.742188 149.164062 61.539062 148.699219 C 61.539062 148.5625 61.40625 148.496094 61.140625 148.496094 L 54.613281 149.097656 C 49.191406 149.097656 42.96875 147.59375 35.941406 144.589844 C 23.625 139.246094 14.488281 129.792969 8.535156 116.230469 C 2.84375 103.269531 1.40625 89.910156 4.214844 76.148438 C 5.890625 67.53125 9.335938 58.914062 14.558594 50.292969 C 16.898438 49.960938 19.542969 48.625 22.488281 46.285156 L 27.40625 40.074219 C 30.484375 36.199219 32.527344 33.996094 33.53125 33.460938 L 35.539062 32.957031 C 37.480469 32.957031 39.789062 33.761719 42.464844 35.363281 L 46.28125 36.164062 C 48.355469 36.164062 51.199219 35.230469 54.8125 33.359375 C 56.21875 32.558594 57.859375 32.15625 59.734375 32.15625 C 64.351562 32.15625 68.535156 34.328125 72.28125 38.671875 C 73.488281 40.074219 74.992188 40.773438 76.800781 40.773438 L 82.121094 39.472656 C 83.929688 38.804688 86.871094 38.167969 90.957031 37.566406 M 94.367188 16.726562 L 100.292969 24.039062 C 102.902344 25.175781 105.613281 27.75 108.421875 31.757812 C 110.5 34.695312 112.273438 37.835938 113.746094 41.175781 C 116.355469 47.054688 116.855469 54.769531 115.25 64.324219 C 114.445312 69.066406 113.375 73.242188 112.039062 76.847656 C 110.832031 71.171875 108.222656 66.359375 104.207031 62.417969 L 99.6875 58.511719 L 96.375 56.007812 L 101.898438 50.796875 C 103.90625 48.257812 104.742188 46.050781 104.40625 44.183594 C 104.074219 41.578125 103.167969 39.339844 101.695312 37.46875 C 99.621094 34.929688 96.8125 33.660156 93.265625 33.660156 L 91.054688 33.761719 C 89.71875 33.960938 87.40625 34.796875 84.128906 36.265625 C 81.117188 37.601562 79.074219 38.269531 78.003906 38.269531 L 77.402344 38.269531 C 76.933594 38.136719 74.691406 35.898438 70.675781 31.554688 C 66.792969 27.347656 63.683594 25.242188 61.339844 25.242188 L 59.632812 25.644531 L 56.121094 27.648438 L 52.90625 29.753906 L 48.691406 32.359375 L 45.679688 33.460938 L 44.375 33.160156 L 41.664062 31.757812 L 38.953125 30.453125 C 38.015625 30.054688 37.144531 29.851562 36.34375 29.851562 C 35.136719 29.851562 33.597656 30.386719 31.722656 31.457031 C 30.386719 32.191406 28.175781 34.460938 25.097656 38.269531 L 20.277344 44.382812 C 18.269531 46.050781 16.261719 47.121094 14.253906 47.589844 L 12.148438 47.890625 C 10.339844 47.890625 8.800781 47.253906 7.53125 45.984375 C 5.054688 43.648438 3.347656 40.574219 2.410156 36.765625 C 1.605469 33.027344 1.707031 29.71875 2.710938 26.847656 C 3.582031 24.574219 4.851562 22.605469 6.527344 20.933594 C 6.390625 23.472656 7.09375 25.375 8.632812 26.644531 C 10.574219 28.183594 12.683594 28.949219 14.957031 28.949219 C 18.304688 28.949219 21.214844 27.546875 23.691406 24.742188 C 29.648438 17.929688 33.796875 14.21875 36.140625 13.617188 L 38.550781 13.316406 L 43.371094 14.21875 L 47.285156 15.121094 C 48.355469 15.121094 49.257812 14.753906 49.996094 14.019531 L 53.507812 9.210938 C 56.855469 3.730469 59.363281 0.894531 61.039062 0.691406 L 61.742188 0.691406 C 63.683594 0.691406 66.058594 1.660156 68.867188 3.597656 L 71.578125 5.703125 L 74.691406 7.40625 C 78.105469 8.609375 81.050781 9.34375 83.527344 9.609375 C 87.476562 10.144531 91.089844 12.515625 94.367188 16.726562 "/>
</g>
</svg>
