<?xml version="1.0" encoding="UTF-8"?>
<svg xmlns="http://www.w3.org/2000/svg" xmlns:xlink="http://www.w3.org/1999/xlink" width="128pt" height="168pt" viewBox="0 0 128 168" version="1.1">
<g id="surface1">
<path style=" stroke:none;fill-rule:nonzero;fill:rgb(100%,100%,100%);fill-opacity:1;" d="M 124.558594 50.394531 C 123.308594 53.757812 122.433594 57.628906 121.929688 62 C 121.535156 65.277344 121.316406 69.246094 121.273438 73.902344 C 121.273438 74.011719 121.351562 74.121094 121.503906 74.230469 C 119.949219 74.1875 118.316406 74.414062 116.605469 74.917969 C 115.316406 75.3125 113.78125 75.933594 112.007812 76.785156 C 110.453125 77.53125 108.839844 78.207031 107.175781 78.820312 C 107.746094 74.449219 109.027344 69.738281 111.019531 64.6875 L 113.453125 59.507812 C 114.4375 57.433594 115.085938 55.660156 115.390625 54.195312 C 115.917969 49.804688 116.507812 46.546875 117.164062 44.425781 C 118.328125 40.644531 120.496094 38.535156 123.671875 38.097656 C 126.496094 37.703125 127.613281 39.257812 127.023438 42.753906 C 126.828125 43.933594 126.003906 46.480469 124.558594 50.394531 M 115.195312 50.097656 C 114.886719 52 114.316406 54.03125 113.484375 56.195312 L 111.054688 62.097656 C 108.359375 68.589844 106.695312 74.285156 106.058594 79.179688 L 102.675781 80.164062 L 102.707031 80.066406 C 102.796875 77.203125 102.367188 74.316406 101.425781 71.410156 C 100.484375 68.503906 99.148438 65.902344 97.417969 63.605469 C 94.679688 60.023438 91.492188 56.929688 87.855469 54.328125 C 83.757812 51.398438 79.683594 49.550781 75.632812 48.785156 C 76.574219 47.476562 77.253906 46.371094 77.667969 45.476562 L 77.996094 45.441406 C 79.683594 45.289062 80.933594 44.207031 81.742188 42.195312 C 82.578125 40.121094 82.300781 38.414062 80.921875 37.082031 L 80.429688 37.015625 L 80.789062 36.492188 L 81.183594 35.507812 C 83.96875 35.703125 86.410156 35.496094 88.511719 34.886719 C 90.351562 34.339844 91.832031 33.507812 92.949219 32.394531 L 108.097656 34.132812 C 113.53125 34.941406 118.492188 35.976562 122.980469 37.246094 C 120.460938 37.550781 118.546875 39.136719 117.230469 42 C 116.464844 43.703125 115.785156 46.40625 115.195312 50.097656 M 94.757812 75.605469 C 94.253906 74.054688 92.6875 72.523438 90.058594 71.015625 L 89.957031 70.949219 C 88.535156 68.699219 86.574219 66.304688 84.078125 63.769531 C 84.449219 62.085938 85.105469 60.65625 86.046875 59.476562 C 87.144531 58.097656 88.457031 57.246094 89.992188 56.917969 L 90.023438 56.886719 C 92.894531 59.246094 95.203125 61.769531 96.957031 64.460938 C 98.644531 67.058594 99.894531 69.714844 100.703125 72.425781 C 101.644531 75.574219 101.875 78.46875 101.394531 81.113281 C 100.957031 83.5625 99.773438 85.59375 97.84375 87.214844 C 96.136719 88.675781 93.957031 89.703125 91.304688 90.296875 C 86.597656 91.386719 82.464844 90.078125 78.917969 86.359375 C 76.070312 83.386719 73.859375 79.246094 72.28125 73.933594 L 76.683594 73.703125 C 78.171875 73.203125 79.390625 72.394531 80.332031 71.277344 C 81.644531 69.769531 82.355469 68.164062 82.464844 66.460938 C 82.578125 64.820312 82.128906 63.203125 81.121094 61.605469 C 83.988281 64.273438 86.210938 66.699219 87.789062 68.886719 C 89.957031 71.859375 91.21875 74.675781 91.570312 77.34375 C 91.589844 77.519531 91.789062 77.703125 92.160156 77.902344 C 92.511719 78.097656 92.675781 78.132812 92.652344 78 C 92.410156 76.03125 91.710938 74.023438 90.550781 71.96875 C 92.300781 73.015625 93.34375 74.078125 93.671875 75.148438 C 93.714844 75.324219 93.921875 75.496094 94.296875 75.671875 C 94.667969 75.847656 94.820312 75.824219 94.757812 75.605469 M 116.113281 76.03125 C 118.152344 75.3125 120.046875 74.984375 121.800781 75.050781 L 121.832031 75.050781 C 124.941406 75.683594 126.496094 77.246094 126.496094 79.738281 C 123.78125 81.136719 120.078125 82.589844 115.390625 84.097656 C 109.148438 86.085938 105.359375 87.34375 104.023438 87.867188 L 85.226562 94.785156 L 85.0625 94.523438 C 83.878906 92.949219 82.664062 91.617188 81.414062 90.523438 C 79.617188 88.949219 77.976562 88.066406 76.488281 87.867188 L 77.339844 87.378906 L 78.425781 86.917969 C 80.527344 89.148438 82.804688 90.613281 85.257812 91.3125 C 88.019531 92.097656 90.921875 91.890625 93.96875 90.6875 C 96.53125 89.660156 98.492188 88.46875 99.847656 87.113281 C 101.425781 85.496094 102.347656 83.519531 102.609375 81.179688 C 105.699219 80.480469 108.4375 79.550781 110.824219 78.394531 C 113.386719 77.167969 115.152344 76.382812 116.113281 76.03125 M 123.179688 88.6875 C 120.792969 93.519531 119.28125 98.394531 118.644531 103.3125 L 118.316406 103.3125 C 117.066406 104.863281 115.378906 106.230469 113.253906 107.410156 C 111.789062 108.242188 109.785156 109.125 107.242188 110.066406 C 101.742188 112.164062 97.757812 113.8125 95.28125 115.015625 C 89.957031 117.59375 85.5 120.132812 81.90625 122.621094 L 78.226562 125.179688 C 76.761719 126.140625 75.414062 126.785156 74.1875 127.113281 C 74.777344 123.96875 76.257812 120.042969 78.621094 115.34375 C 81.558594 109.464844 83.34375 105.628906 83.976562 103.835938 L 85.292969 99.902344 C 85.773438 98.085938 85.863281 96.644531 85.554688 95.574219 C 94.644531 92.359375 101.292969 89.914062 105.5 88.230469 C 107.230469 87.53125 110.738281 86.359375 116.015625 84.722656 C 120.460938 83.324219 123.921875 82.023438 126.398438 80.820312 C 126.222656 81.914062 125.773438 83.246094 125.050781 84.820312 L 123.179688 88.6875 M 105.632812 116.296875 L 112.136719 113.574219 C 112.75 115.433594 113.617188 117.714844 114.734375 120.425781 L 117.527344 127.179688 L 120.878906 136.066406 L 121.898438 138.785156 C 122.292969 140.054688 122.402344 141.003906 122.226562 141.640625 C 122.160156 141.835938 121.558594 141.222656 120.417969 139.804688 L 118.414062 137.246094 L 113.714844 129.804688 L 105.765625 116.425781 L 105.632812 116.296875 M 102.804688 112.753906 L 109.675781 110.03125 C 111.644531 109.203125 113.222656 108.449219 114.40625 107.769531 C 116.046875 106.832031 117.40625 105.78125 118.480469 104.621094 L 118.28125 108 C 117.054688 109.53125 115.371094 110.886719 113.222656 112.066406 C 111.796875 112.851562 109.804688 113.726562 107.242188 114.6875 C 101.742188 116.785156 97.757812 118.4375 95.28125 119.640625 C 89.957031 122.21875 85.5 124.753906 81.90625 127.246094 L 79.574219 128.886719 L 77.144531 130.460938 L 76.945312 130.460938 L 76.945312 130.589844 C 74.753906 131.792969 72.730469 132.25 70.867188 131.96875 C 68.328125 131.574219 65.523438 130.480469 62.457031 128.6875 L 54.765625 123.769531 L 54.601562 123.671875 L 56.542969 120.785156 L 59.464844 122.621094 L 64.722656 125.804688 C 66.871094 126.917969 68.796875 127.605469 70.507812 127.867188 C 72.300781 128.152344 74.054688 127.988281 75.761719 127.378906 C 77.121094 126.894531 78.675781 126.03125 80.429688 124.785156 C 85.535156 121.179688 90.726562 118.140625 96.003906 115.671875 C 97.777344 114.839844 100.046875 113.867188 102.804688 112.753906 M 65.28125 2.296875 L 67.054688 3.867188 C 69.160156 7.605469 70.855469 9.945312 72.148438 10.886719 C 73.113281 11.5625 73.933594 11.703125 74.613281 11.3125 L 75.335938 10.492188 L 70.242188 5.410156 C 71.863281 6 73.695312 6.503906 75.730469 6.917969 L 77.011719 7.179688 C 79.289062 7.640625 81.65625 10.164062 84.109375 14.753906 L 83.253906 21.015625 C 79.992188 18.195312 76.683594 16.242188 73.332031 15.148438 C 70.285156 14.1875 64.582031 12.667969 56.210938 10.589844 C 55.992188 10.523438 56.222656 9.976562 56.902344 8.949219 C 57.558594 7.988281 58.097656 7.324219 58.511719 6.949219 C 59.914062 5.683594 60.691406 4.558594 60.84375 3.574219 L 61.175781 1.476562 C 61.371094 0.777344 61.65625 0.371094 62.027344 0.261719 C 62.707031 0.0859375 63.792969 0.765625 65.28125 2.296875 M 51.546875 16.6875 L 62.355469 18.394531 C 64.65625 18.742188 67.308594 19.332031 70.308594 20.164062 L 78.917969 22.65625 C 83.082031 23.921875 84.789062 24.601562 84.042969 24.6875 C 79.726562 25.148438 72.914062 24.820312 63.605469 23.703125 C 55.632812 22.742188 50.449219 21.890625 48.0625 21.148438 L 44.976562 20.066406 L 37.582031 17.671875 L 43.757812 17.113281 L 51.546875 16.6875 M 53.417969 13.574219 C 54.078125 12.566406 54.710938 11.859375 55.324219 11.441406 C 61.457031 12.839844 66.375 14.078125 70.078125 15.148438 L 71.589844 16.195312 L 69.453125 15.902344 L 71.722656 17.277344 L 69.289062 17.148438 L 71.457031 18.492188 L 69.160156 18.460938 L 71.425781 19.539062 C 68.007812 18.578125 65.039062 17.890625 62.519531 17.476562 L 52.171875 15.867188 C 52.457031 15.148438 52.871094 14.382812 53.417969 13.574219 M 75.796875 17.148438 C 77.375 17.890625 78.941406 18.839844 80.496094 20 L 83.058594 22.097656 L 82.925781 22.917969 L 81.152344 22.65625 L 81.183594 22.589844 L 76.09375 20.917969 L 74.316406 20.066406 L 76.585938 20.097656 L 74.417969 18.753906 L 76.878906 18.886719 L 74.582031 17.507812 L 76.75 17.804688 L 75.796875 17.148438 M 16.648438 40.785156 L 16.683594 40.785156 C 15.347656 43.125 12.925781 45.050781 9.421875 46.558594 C 12.882812 44.242188 14.570312 41.34375 14.480469 37.867188 L 16.648438 40.785156 M 21.84375 47.476562 L 15.828125 47.867188 L 7.316406 48.261719 C 10.121094 47.367188 12.445312 46.21875 14.285156 44.820312 C 16.628906 43.070312 18.007812 41.050781 18.425781 38.753906 L 21.84375 47.476562 M 25.523438 47.867188 C 28.238281 47.34375 30.539062 46.613281 32.421875 45.671875 L 32.488281 45.769531 L 37.515625 54.722656 C 36.246094 53.976562 34.382812 52.972656 31.929688 51.703125 L 29.726562 50.425781 C 28.828125 49.902344 28.074219 49.539062 27.460938 49.34375 L 26.015625 49.3125 L 24.570312 49.441406 L 7.613281 49.867188 L 4 49.867188 L 0.417969 49.671875 C 0.199219 49.648438 0.175781 49.585938 0.351562 49.476562 L 1.238281 49.050781 L 3.605469 47.804688 L 7.582031 45.703125 C 9.421875 44.546875 10.496094 43.421875 10.800781 42.328125 L 11.292969 43.34375 L 11.425781 43.539062 C 10.441406 44.699219 9.167969 45.714844 7.613281 46.589844 C 6.191406 47.398438 4.644531 48.023438 2.980469 48.460938 C 2.738281 48.523438 2.71875 48.667969 2.914062 48.886719 C 3.113281 49.105469 3.296875 49.214844 3.472656 49.214844 L 14.546875 48.984375 C 18.90625 48.832031 22.566406 48.460938 25.523438 47.867188 M 27.625 50.230469 L 28.710938 55.933594 C 28.730469 56.109375 28.863281 56.285156 29.105469 56.460938 L 29.695312 56.6875 C 31.777344 56.425781 33.738281 56.40625 35.578125 56.621094 C 37.8125 56.886719 39.664062 57.496094 41.128906 58.460938 C 42.027344 61.539062 43.429688 64.207031 45.335938 66.460938 L 46.847656 71.507812 L 48.390625 76.820312 C 49.992188 82.460938 51.644531 89.003906 53.355469 96.460938 L 52.039062 96.066406 L 47.734375 94.886719 C 42.894531 93.703125 38.929688 92.941406 35.839844 92.589844 L 23.15625 91.539062 L 23.15625 90.589844 C 24.230469 90.65625 25.257812 90.394531 26.246094 89.804688 L 26.410156 89.867188 L 49.835938 91.835938 L 49.902344 91.804688 L 46.878906 77.246094 L 46.617188 77.015625 L 46.355469 76.886719 L 32.125 77.277344 L 32.191406 76.558594 C 32.105469 75.550781 30.964844 74.839844 28.773438 74.425781 L 28.214844 74.328125 L 33.179688 74.328125 C 33.375 74.328125 33.429688 74.21875 33.34375 74 L 29.597656 66.230469 L 29.398438 66.066406 L 29.269531 66 L 17.964844 66.230469 L 17.765625 66.394531 L 17.832031 66.621094 L 20.988281 70.65625 L 22.136719 72.261719 L 23.417969 73.835938 L 19.871094 73.804688 L 18.882812 72.589844 C 14.570312 66.753906 9.992188 61.058594 5.148438 55.507812 L 0.679688 50.492188 L 8.171875 50.949219 L 15.699219 50.621094 L 27.625 50.230469 M 9.058594 42.589844 L 4.359375 36.460938 L 5.378906 36.65625 C 6.429688 36.765625 7.4375 37.257812 8.402344 38.132812 C 9.476562 39.09375 9.925781 40.078125 9.75 41.082031 L 9.058594 42.589844 M 12.410156 74.621094 C 13.113281 72.675781 14.492188 71.289062 16.550781 70.460938 L 16.878906 70.917969 C 13.289062 73.300781 12.355469 76.984375 14.085938 81.96875 C 14.808594 84.023438 15.90625 85.835938 17.375 87.410156 C 18.863281 89.027344 20.429688 90.03125 22.070312 90.425781 L 22.070312 90.6875 C 21.347656 93.378906 21.710938 96.382812 23.15625 99.703125 C 24.273438 102.285156 25.980469 104.941406 28.28125 107.671875 C 22.980469 105.550781 18.589844 103.378906 15.105469 101.148438 C 14.84375 100.972656 14.722656 100.972656 14.746094 101.148438 C 14.789062 101.324219 14.910156 101.476562 15.105469 101.605469 C 18.632812 103.859375 23.222656 106.097656 28.875 108.328125 L 30.78125 110.296875 L 30.78125 110.394531 L 30.878906 113.277344 C 24.546875 110.894531 19.421875 108.46875 15.5 106 L 15.46875 105.96875 C 14.875 104.480469 14.636719 102.371094 14.746094 99.640625 C 14.875 96.46875 14.820312 94.296875 14.582031 93.113281 L 13.527344 88.492188 L 12.511719 83.835938 C 12.136719 81.804688 11.917969 80.261719 11.851562 79.214844 C 11.765625 77.421875 11.953125 75.890625 12.410156 74.621094 M 6.332031 54.164062 C 6.3125 54.25 6.34375 54.339844 6.429688 54.425781 L 13.757812 62.621094 C 14.21875 63.125 14.910156 63.386719 15.828125 63.410156 L 18.226562 63.277344 L 39.816406 63.179688 L 40.011719 63.082031 L 39.980469 62.851562 L 38.007812 59.246094 C 37.921875 59.09375 37.789062 59.027344 37.613281 59.050781 C 37.4375 59.070312 37.394531 59.167969 37.484375 59.34375 L 39.289062 62.621094 L 15.105469 62.753906 L 14.515625 62.785156 L 14.382812 62.589844 L 7.1875 54.558594 L 26.640625 54.097656 C 26.816406 54.097656 26.878906 54.023438 26.835938 53.867188 C 26.769531 53.628906 26.648438 53.53125 26.476562 53.574219 L 6.53125 54.03125 C 6.421875 54.03125 6.355469 54.078125 6.332031 54.164062 M 39.945312 56.328125 L 40.503906 55.835938 L 40.734375 56.984375 L 39.980469 56.394531 L 39.945312 56.328125 M 39.488281 56.621094 L 40.933594 57.804688 L 40.964844 57.902344 C 37.988281 56.042969 34.207031 55.332031 29.628906 55.769531 L 28.609375 50.328125 C 29.160156 50.546875 30.089844 51.058594 31.402344 51.867188 L 34 53.476562 L 36.726562 54.984375 C 37.976562 55.683594 38.894531 56.230469 39.488281 56.621094 M 32.226562 64.851562 L 36.070312 74.132812 L 36.464844 74.425781 L 43.101562 74.65625 L 43.265625 74.523438 L 43.070312 74.261719 L 42.871094 74.164062 L 36.496094 73.933594 L 36.464844 73.867188 L 33.078125 65.671875 L 32.882812 65.214844 L 32.71875 65.113281 L 37.351562 64.917969 L 39.980469 64.785156 L 40.40625 64.785156 L 43.660156 72.753906 C 43.746094 72.929688 43.890625 73.015625 44.085938 73.015625 C 44.21875 73.015625 44.25 72.949219 44.1875 72.820312 L 40.800781 64.558594 C 40.691406 64.339844 40.550781 64.25 40.375 64.296875 L 32.324219 64.621094 C 32.214844 64.621094 32.179688 64.699219 32.226562 64.851562 M 26.835938 74.917969 C 28.523438 75.050781 29.816406 75.378906 30.714844 75.902344 C 31.457031 76.339844 31.261719 76.796875 30.121094 77.277344 C 29.289062 77.605469 28.566406 77.804688 27.953125 77.867188 L 24.40625 78.03125 C 22.894531 78.121094 22.226562 78.449219 22.402344 79.015625 C 22.597656 79.5625 23.351562 79.96875 24.667969 80.230469 L 28.152344 80.917969 C 29.269531 81.179688 30.253906 81.660156 31.109375 82.359375 C 32.203125 83.257812 32.082031 83.96875 30.746094 84.492188 C 29.542969 84.949219 28.160156 85.148438 26.605469 85.082031 C 25.117188 85.015625 23.746094 84.730469 22.5 84.230469 C 22.125 84.078125 21.996094 84.164062 22.105469 84.492188 C 22.191406 84.796875 22.367188 85.003906 22.628906 85.113281 L 25.160156 85.574219 L 29.070312 85.671875 C 28.589844 86.503906 27.867188 87.082031 26.902344 87.410156 L 24.042969 87.574219 C 23.714844 87.507812 23.648438 87.640625 23.847656 87.96875 C 24.042969 88.296875 24.261719 88.480469 24.503906 88.523438 L 25.6875 88.65625 C 24.085938 89.8125 22.367188 89.902344 20.527344 88.917969 C 18.839844 88.023438 17.417969 86.492188 16.257812 84.328125 C 15.074219 82.140625 14.523438 79.957031 14.613281 77.769531 C 14.699219 75.34375 15.621094 73.464844 17.375 72.132812 C 18.292969 73.550781 19.027344 74.40625 19.574219 74.6875 L 21.152344 74.886719 L 22.761719 74.785156 L 26.835938 74.917969 M 26.277344 78.984375 L 28.019531 78.886719 L 30.058594 78.621094 C 30.910156 78.449219 31.511719 78.152344 31.863281 77.738281 L 46.421875 77.3125 L 49.3125 91.148438 C 49.355469 91.386719 49.222656 91.488281 48.917969 91.441406 L 48.0625 91.3125 L 26.804688 89.507812 L 26.671875 89.507812 L 27.65625 88.65625 L 27.691406 88.359375 C 29.027344 87.921875 29.945312 87.058594 30.449219 85.769531 L 30.417969 85.539062 C 33.113281 85.148438 33.855469 84.109375 32.652344 82.425781 C 32.082031 81.660156 31.25 81.058594 30.15625 80.621094 C 29.410156 80.339844 28.390625 80.078125 27.097656 79.835938 L 26.277344 79.671875 L 26.277344 78.984375 M 24.734375 79.378906 L 23.746094 79.214844 C 23.507812 79.167969 23.636719 79.125 24.140625 79.082031 L 25.71875 78.984375 L 25.753906 79.574219 L 24.734375 79.378906 M 32.75 73.804688 L 24.078125 73.804688 L 18.523438 66.753906 L 29.203125 66.558594 L 32.519531 73.441406 L 32.75 73.804688 M 84.765625 33.277344 C 85.140625 33.519531 86.15625 33.378906 87.824219 32.851562 C 89.640625 32.285156 90.921875 31.574219 91.667969 30.722656 C 92.390625 29.867188 92.511719 29.039062 92.027344 28.230469 C 91.589844 27.441406 91.085938 27.167969 90.515625 27.410156 C 90.230469 27.519531 90.144531 28.054688 90.253906 29.015625 C 90.363281 30.066406 90.210938 30.777344 89.792969 31.148438 C 89.378906 31.496094 88.316406 31.933594 86.605469 32.460938 C 85.183594 32.894531 84.570312 33.167969 84.765625 33.277344 M 82.433594 29.539062 L 82.464844 25.902344 L 88.941406 26.195312 C 91.261719 26.503906 92.761719 27.058594 93.441406 27.867188 C 93.75 28.21875 93.878906 28.601562 93.835938 29.015625 C 93.527344 30.875 92.246094 32.304688 89.992188 33.3125 C 87.734375 34.316406 84.898438 34.730469 81.480469 34.558594 C 81.917969 32.941406 82.238281 31.269531 82.433594 29.539062 M 75.007812 25.769531 L 80.890625 25.867188 C 81 28.1875 80.769531 30.425781 80.199219 32.589844 C 79.652344 30.796875 78.65625 29.324219 77.210938 28.164062 L 75.632812 27.015625 L 74.449219 26.296875 L 75.007812 25.769531 M 73.429688 25.738281 L 73.300781 25.835938 C 72.839844 26.207031 72.851562 26.503906 73.332031 26.722656 C 74.734375 27.378906 75.828125 28.011719 76.617188 28.621094 C 78.480469 30.085938 79.5 31.847656 79.671875 33.902344 C 78.886719 32.394531 77.886719 31.050781 76.683594 29.867188 C 75.238281 28.621094 74.285156 27.933594 73.824219 27.804688 L 73.5625 27.804688 C 73.34375 27.824219 73.210938 27.921875 73.167969 28.097656 C 73.125 28.273438 73.210938 28.40625 73.429688 28.492188 L 76.15625 30.460938 C 76.902344 31.050781 77.648438 31.847656 78.390625 32.851562 L 79.707031 34.851562 L 79.640625 35.640625 C 78.722656 34 77.660156 32.699219 76.453125 31.738281 C 75.511719 30.996094 74.734375 30.535156 74.121094 30.359375 L 73.988281 30.359375 C 73.792969 30.382812 73.695312 30.511719 73.695312 30.753906 C 73.714844 30.996094 73.890625 31.191406 74.21875 31.34375 C 75.007812 31.738281 75.589844 32.085938 75.960938 32.394531 L 78.164062 34.6875 L 79.507812 36.296875 L 79.507812 36.328125 C 79.445312 36.546875 79.453125 36.753906 79.542969 36.949219 L 78.425781 36.820312 L 78.621094 37.246094 C 80.265625 38.273438 80.800781 39.703125 80.230469 41.539062 C 79.664062 43.355469 78.445312 44.351562 76.585938 44.523438 L 76.09375 44.523438 C 74.886719 47.277344 73.332031 49.640625 71.425781 51.605469 L 69.355469 51.738281 C 68.328125 51.105469 67.242188 50.667969 66.101562 50.425781 L 66.101562 50.394531 L 66.136719 50.097656 C 66.070312 47.976562 62.488281 46.886719 55.390625 46.820312 L 55.257812 46.492188 C 55.085938 46.011719 54.832031 45.640625 54.503906 45.378906 C 54.175781 45.113281 53.867188 45.039062 53.582031 45.148438 C 53.410156 45.214844 53.265625 45.355469 53.15625 45.574219 L 52.828125 45.3125 C 52.675781 45.160156 52.621094 44.929688 52.664062 44.621094 C 52.707031 44.425781 52.96875 44.273438 53.453125 44.164062 L 54.570312 44.066406 C 54.808594 44.066406 55.214844 44.21875 55.785156 44.523438 L 56.507812 44.621094 C 56.617188 44.359375 56.5625 44.109375 56.34375 43.867188 C 56.125 43.628906 55.839844 43.476562 55.488281 43.410156 L 54.078125 43.34375 C 55.367188 42.730469 56.167969 42.097656 56.476562 41.441406 L 56.507812 41.410156 L 56.835938 41.113281 L 56.707031 40.722656 L 55.359375 39.214844 C 55.050781 38.886719 54.984375 38.511719 55.160156 38.097656 L 56.277344 35.378906 L 57.035156 33.050781 L 57.296875 31.933594 L 57.265625 31.476562 L 57.066406 31.277344 L 57.035156 31.277344 C 56.816406 31.324219 56.652344 31.519531 56.542969 31.867188 L 55.457031 34.621094 C 55.105469 35.367188 54.363281 36.589844 53.222656 38.296875 C 52.980469 38.667969 52.992188 39.015625 53.253906 39.34375 L 54.929688 41.34375 C 55.105469 41.519531 55.347656 41.628906 55.652344 41.671875 L 54.371094 42.753906 L 53.222656 43.410156 L 52.171875 43.867188 C 51.753906 44.132812 51.578125 44.492188 51.644531 44.949219 C 51.710938 45.386719 52.171875 45.914062 53.023438 46.523438 L 52.597656 46.820312 L 46.945312 47.082031 C 45.28125 43.410156 44.644531 39.605469 45.039062 35.671875 C 45.085938 34.996094 45.226562 34.132812 45.46875 33.082031 C 45.488281 33.234375 45.578125 33.386719 45.730469 33.539062 C 45.90625 33.714844 46.070312 33.804688 46.222656 33.804688 L 46.816406 33.933594 L 47.339844 33.96875 L 47.4375 34.230469 C 48.359375 35.648438 49.398438 36.242188 50.5625 36 C 51.21875 35.867188 51.742188 35.496094 52.136719 34.886719 C 52.53125 34.316406 52.707031 33.695312 52.664062 33.015625 C 52.640625 32.777344 52.445312 32.566406 52.070312 32.394531 C 51.699219 32.242188 51.523438 32.316406 51.546875 32.621094 C 51.570312 33.039062 51.480469 33.441406 51.285156 33.835938 L 50.429688 34.753906 L 49.214844 34.984375 C 48.90625 34.875 48.609375 34.589844 48.328125 34.132812 L 47.933594 33.804688 L 47.472656 33.738281 C 47.472656 33.453125 47.308594 33.246094 46.980469 33.113281 L 45.828125 32.785156 L 45.5 32.917969 C 45.960938 30.90625 46.671875 28.917969 47.636719 26.949219 C 48.445312 26.730469 49.257812 26.21875 50.066406 25.410156 L 51.679688 22.949219 C 55.597656 23.78125 59.464844 24.449219 63.277344 24.949219 C 62.773438 25.824219 62.574219 26.316406 62.6875 26.425781 L 63.308594 26.65625 L 64.589844 27.050781 C 65.992188 27.75 66.824219 28.085938 67.089844 28.066406 C 67.21875 27.324219 66.484375 26.351562 64.886719 25.148438 L 73.101562 25.738281 L 73.429688 25.738281 M 68.765625 32.785156 L 67.121094 32.6875 C 66.75 32.6875 66.652344 32.863281 66.824219 33.214844 C 67 33.539062 67.230469 33.703125 67.515625 33.703125 L 69.160156 33.804688 L 69.488281 33.703125 L 69.519531 33.34375 C 69.390625 33.039062 69.136719 32.851562 68.765625 32.785156 M 67.515625 34 L 66.761719 33.902344 C 66.5625 33.902344 66.5625 34.03125 66.761719 34.296875 L 67.546875 34.753906 L 69.027344 34.984375 C 69.222656 34.984375 69.222656 34.851562 69.027344 34.589844 C 68.765625 34.285156 68.5 34.132812 68.238281 34.132812 L 67.515625 34 M 74.316406 32.917969 C 74.140625 32.941406 74.03125 33.050781 73.988281 33.246094 C 73.945312 33.441406 74.054688 33.617188 74.316406 33.769531 L 74.417969 33.804688 L 74.449219 33.835938 C 74.886719 34.011719 75.292969 34.230469 75.664062 34.492188 L 76.652344 35.378906 L 77.375 35.933594 L 77.503906 35.769531 C 77.527344 35.59375 77.382812 35.3125 77.078125 34.917969 L 76.15625 33.902344 C 75.652344 33.421875 75.085938 33.09375 74.449219 32.917969 L 74.316406 32.917969 M 74.613281 35.410156 C 74.4375 35.433594 74.328125 35.539062 74.285156 35.738281 C 74.242188 35.933594 74.308594 36.078125 74.480469 36.164062 C 74.546875 36.164062 74.710938 36.273438 74.976562 36.492188 C 75.304688 36.730469 75.480469 36.949219 75.5 37.148438 C 75.542969 37.410156 75.6875 37.519531 75.929688 37.476562 C 76.210938 37.433594 76.320312 37.246094 76.257812 36.917969 C 76.191406 36.589844 75.992188 36.285156 75.664062 36 C 75.378906 35.757812 75.09375 35.574219 74.8125 35.441406 L 74.613281 35.410156 M 76.847656 49.96875 C 77.855469 50.230469 78.917969 50.558594 80.035156 50.949219 C 80.453125 53.3125 80.078125 55.988281 78.917969 58.984375 L 78.886719 58.917969 L 78.621094 58.03125 C 78.117188 56.832031 77.429688 55.75 76.550781 54.785156 C 76.96875 53.324219 77.078125 51.738281 76.878906 50.03125 L 76.847656 49.96875 M 75.796875 49.738281 C 75.949219 51.160156 75.871094 52.503906 75.566406 53.769531 L 74.316406 52.785156 C 74.492188 51.914062 74.527344 51.105469 74.417969 50.359375 L 75.007812 49.640625 L 75.796875 49.738281 M 61.175781 33.574219 C 60.84375 33.550781 60.789062 33.714844 61.011719 34.066406 C 61.929688 35.488281 62.96875 36.078125 64.132812 35.835938 C 64.789062 35.703125 65.3125 35.332031 65.707031 34.722656 C 66.101562 34.152344 66.277344 33.53125 66.234375 32.851562 C 66.234375 32.613281 66.046875 32.40625 65.675781 32.230469 C 65.28125 32.078125 65.09375 32.152344 65.117188 32.460938 C 65.140625 32.875 65.050781 33.277344 64.855469 33.671875 C 64.636719 34.066406 64.351562 34.371094 64 34.589844 C 63.539062 34.851562 63.144531 34.929688 62.816406 34.820312 C 62.511719 34.710938 62.214844 34.425781 61.929688 33.96875 C 61.753906 33.703125 61.503906 33.574219 61.175781 33.574219 M 50.660156 26.523438 L 48.292969 28.328125 L 48.097656 28.621094 L 48.390625 28.722656 L 48.457031 28.722656 L 51.085938 28.359375 C 51.304688 28.339844 51.46875 28.242188 51.578125 28.066406 L 51.679688 27.476562 L 51.511719 26.820312 C 51.402344 26.492188 51.230469 26.351562 50.988281 26.394531 L 50.660156 26.523438 M 49.3125 24.820312 C 48.457031 25.671875 47.613281 26.140625 46.78125 26.230469 C 46.167969 26.273438 45.644531 26.121094 45.203125 25.769531 C 44.417969 25.160156 43.8125 24.316406 43.398438 23.246094 C 42.980469 22.21875 42.828125 21.234375 42.9375 20.296875 L 44.679688 20.917969 L 47.800781 22 L 50.660156 22.753906 L 49.3125 24.820312 M 42.410156 26.164062 C 39.9375 25.113281 37.832031 23.867188 36.101562 22.425781 C 34.132812 20.742188 33.289062 19.289062 33.574219 18.066406 C 33.792969 17.410156 36.574219 18.03125 41.917969 19.933594 C 41.613281 21.488281 41.996094 22.996094 43.070312 24.460938 C 42.785156 24.832031 42.566406 25.398438 42.410156 26.164062 M 46.355469 27.015625 C 45.652344 28.613281 45.160156 29.878906 44.875 30.820312 C 44.21875 29.921875 43.8125 29.214844 43.660156 28.6875 C 43.484375 28.011719 43.453125 27.410156 43.5625 26.886719 C 43.671875 26.382812 43.878906 26.109375 44.1875 26.066406 C 44.382812 26.066406 44.570312 26.140625 44.746094 26.296875 C 45.269531 26.710938 45.808594 26.949219 46.355469 27.015625 M 42.773438 51.015625 C 41.832031 50.777344 41.273438 50.46875 41.097656 50.097656 C 41.492188 49.027344 43.386719 48.339844 46.78125 48.03125 C 47.878906 47.945312 50.011719 47.902344 53.1875 47.902344 L 56.507812 48.03125 L 60.617188 48.425781 C 61.578125 48.558594 62.542969 48.796875 63.507812 49.148438 C 64.691406 49.5625 65.0625 49.914062 64.625 50.195312 C 63.464844 50.875 62.191406 51.324219 60.8125 51.539062 C 60.550781 51.585938 59.410156 51.039062 57.394531 49.902344 C 55.3125 48.742188 53.792969 48.164062 52.828125 48.164062 C 51.886719 48.140625 50.570312 48.632812 48.886719 49.640625 C 47.066406 50.710938 45.761719 51.300781 44.976562 51.410156 L 42.773438 51.015625 M 65.707031 51.277344 C 67.199219 51.519531 68.414062 52.011719 69.355469 52.753906 C 70.496094 53.628906 71.097656 54.742188 71.164062 56.097656 L 69.980469 56.359375 C 69.761719 55.355469 69.167969 54.511719 68.207031 53.835938 C 67.394531 53.246094 66.386719 52.839844 65.183594 52.621094 L 64.953125 52.65625 L 64.820312 52.851562 L 64.789062 53.050781 L 63.410156 53.441406 C 62.421875 53.945312 61.734375 54.621094 61.339844 55.476562 C 60.921875 56.371094 60.933594 57.300781 61.371094 58.261719 C 60.320312 58.460938 59.609375 58.996094 59.234375 59.867188 C 58.863281 60.765625 59.027344 61.628906 59.726562 62.460938 L 60.253906 63.050781 L 60.222656 63.082031 C 59.5625 63.890625 59.421875 64.839844 59.792969 65.933594 L 59.726562 65.933594 C 57.011719 67.441406 54.230469 68.078125 51.382812 67.835938 C 48.140625 67.550781 45.796875 66.132812 44.351562 63.574219 C 42.421875 60.164062 41.339844 56.132812 41.097656 51.476562 C 42.324219 52.285156 44.449219 52.796875 47.472656 53.015625 L 53.1875 53.082031 L 59.070312 52.917969 C 62.445312 52.65625 64.613281 52.097656 65.578125 51.246094 L 65.707031 51.277344 M 66.332031 55.507812 C 66.070312 55.574219 65.925781 55.683594 65.90625 55.835938 C 65.707031 56.820312 66.652344 57.398438 68.730469 57.574219 C 70.789062 57.726562 71.972656 57.433594 72.28125 56.6875 L 72.347656 56.460938 C 72.28125 54.972656 71.667969 53.683594 70.507812 52.589844 C 72.390625 52.21875 74.164062 53.027344 75.828125 55.015625 C 77.40625 56.917969 78.085938 58.785156 77.867188 60.621094 C 77.558594 63.027344 76.707031 64.941406 75.304688 66.359375 C 73.046875 68.613281 69.96875 69.519531 66.070312 69.082031 C 64.492188 68.90625 63.113281 68.40625 61.929688 67.574219 C 60.394531 66.503906 60.167969 65.277344 61.238281 63.902344 C 62.269531 64.730469 63.527344 65.496094 65.019531 66.195312 C 65.367188 66.371094 65.46875 66.316406 65.3125 66.03125 C 65.160156 65.726562 64.976562 65.53125 64.753906 65.441406 C 62.632812 64.394531 61.230469 63.410156 60.550781 62.492188 C 60.046875 61.835938 59.96875 61.167969 60.320312 60.492188 C 60.625 59.878906 61.164062 59.453125 61.929688 59.214844 C 63.070312 60.917969 64.800781 62.207031 67.121094 63.082031 C 67.492188 63.214844 67.636719 63.125 67.546875 62.820312 C 67.4375 62.492188 67.253906 62.273438 66.988281 62.164062 C 65.566406 61.640625 64.351562 60.863281 63.34375 59.835938 C 62.027344 58.503906 61.734375 57.222656 62.457031 56 C 62.828125 55.386719 63.375 54.863281 64.097656 54.425781 C 64.910156 53.921875 65.632812 53.75 66.265625 53.902344 C 67.40625 54.558594 67.613281 55.015625 66.890625 55.277344 L 66.332031 55.507812 M 60.484375 70.949219 L 60.746094 67.539062 L 62.09375 68.722656 L 60.484375 70.949219 M 57 73.082031 C 56.671875 76.078125 56.136719 78.960938 55.390625 81.738281 L 54.800781 83.574219 C 54.515625 79.269531 53.636719 74.371094 52.171875 68.886719 C 53.746094 68.949219 55.324219 68.777344 56.902344 68.359375 C 57.121094 70.042969 57.15625 71.617188 57 73.082031 M 57.886719 68.621094 L 57.789062 68.097656 L 58.085938 68 L 57.886719 68.621094 M 56.804688 81.277344 C 58.621094 76.03125 60.78125 72.066406 63.277344 69.378906 C 65.488281 70.230469 67.824219 70.492188 70.277344 70.164062 L 70.507812 71.113281 L 67.253906 73.015625 C 62.390625 76.121094 58.851562 79.09375 56.640625 81.933594 L 56.804688 81.277344 M 51.285156 68.820312 C 53.101562 75.507812 53.933594 81.574219 53.78125 87.015625 L 53.78125 87.113281 C 53.472656 88.273438 53.246094 89.703125 53.089844 91.410156 L 52.300781 88.230469 C 50.726562 81.847656 49.257812 76.4375 47.898438 72 L 46.550781 67.476562 C 47.734375 68.152344 49.3125 68.601562 51.285156 68.820312 M 85.128906 58.558594 C 84.1875 59.714844 83.496094 61.125 83.058594 62.785156 L 79.96875 59.902344 C 81.175781 56.6875 81.535156 53.835938 81.054688 51.34375 C 83.75 52.480469 86.398438 54.054688 89.003906 56.066406 C 87.515625 56.394531 86.222656 57.222656 85.128906 58.558594 M 79.148438 59.804688 L 79.3125 60.066406 C 80.78125 61.792969 81.480469 63.660156 81.414062 65.671875 C 81.347656 67.75 80.472656 69.53125 78.785156 71.015625 C 77.84375 71.847656 76.804688 72.460938 75.664062 72.851562 C 74.4375 73.289062 73.246094 73.410156 72.082031 73.214844 L 71.328125 69.96875 C 73.234375 69.53125 74.746094 68.753906 75.863281 67.640625 C 76.914062 66.589844 77.722656 65.386719 78.292969 64.03125 C 78.929688 62.523438 79.167969 61.082031 79.015625 59.703125 L 79.148438 59.804688 M 67.878906 56.164062 L 68.632812 55.539062 L 68.894531 56.460938 L 67.023438 56.492188 L 67.878906 56.164062 M 84.242188 99.835938 C 83.453125 102.785156 82.128906 106.21875 80.265625 110.132812 L 76.191406 118.359375 C 74.699219 121.574219 73.726562 124.46875 73.265625 127.050781 L 73.332031 127.3125 C 72.476562 127.464844 71.65625 127.476562 70.867188 127.34375 C 68.875 127.039062 66.769531 126.328125 64.558594 125.214844 L 64.589844 125.179688 L 65.542969 120.984375 L 66.332031 116.753906 L 67.878906 110.195312 L 69.554688 103.671875 C 70.210938 100.085938 70.789062 97.398438 71.292969 95.605469 C 72.191406 92.480469 73.519531 90.175781 75.269531 88.6875 C 76.738281 88.359375 78.644531 89.082031 80.988281 90.851562 C 83.308594 92.601562 84.546875 94.207031 84.699219 95.671875 C 84.8125 96.894531 84.65625 98.285156 84.242188 99.835938 M 74.8125 87.933594 L 74.351562 88.066406 C 74.21875 88.109375 74.195312 88.21875 74.285156 88.394531 C 72.730469 89.859375 71.535156 91.933594 70.703125 94.621094 C 70.222656 96.195312 69.640625 98.667969 68.960938 102.03125 L 67.382812 108.132812 C 66.289062 104.589844 64.679688 101.574219 62.554688 99.082031 C 60.101562 96.21875 57.273438 94.511719 54.078125 93.96875 C 54.121094 91.695312 54.40625 89.550781 54.929688 87.539062 C 57.078125 81.859375 62.367188 76.765625 70.800781 72.261719 C 72.3125 77.921875 74.625 82.558594 77.734375 86.164062 L 76.683594 86.65625 C 75.984375 87.050781 75.359375 87.476562 74.8125 87.933594 M 68.535156 91.507812 C 65.09375 90.261719 62.925781 89.539062 62.027344 89.34375 C 59.554688 88.777344 57.320312 88.832031 55.324219 89.507812 C 55.148438 89.574219 55.171875 89.738281 55.390625 90 L 55.882812 90.394531 C 56.519531 90.632812 57.570312 90.785156 59.039062 90.851562 C 60.417969 90.941406 61.492188 91.160156 62.257812 91.507812 C 65.148438 92.886719 67.242188 94.777344 68.535156 97.179688 C 68.621094 97.378906 68.851562 97.539062 69.222656 97.671875 C 69.597656 97.78125 69.695312 97.695312 69.519531 97.410156 C 68.335938 95.179688 66.484375 93.289062 63.96875 91.738281 C 62.585938 90.90625 61.382812 90.351562 60.351562 90.066406 L 58.90625 89.902344 C 60.351562 89.8125 62.015625 90.054688 63.902344 90.621094 L 68.765625 92.328125 C 69.136719 92.460938 69.246094 92.382812 69.09375 92.097656 C 68.960938 91.792969 68.777344 91.59375 68.535156 91.507812 M 54.472656 97.214844 L 53.878906 94.6875 L 53.914062 94.6875 C 57.21875 94.996094 60.078125 96.699219 62.488281 99.804688 C 64.480469 102.382812 65.925781 105.53125 66.824219 109.246094 L 67.023438 109.539062 C 66.453125 111.8125 66.046875 113.53125 65.808594 114.6875 L 65.609375 114.6875 C 63.59375 115.277344 61.515625 115.640625 59.367188 115.769531 C 60.113281 113.957031 60.277344 112.394531 59.859375 111.082031 C 59.640625 110.382812 59.269531 109.921875 58.742188 109.703125 L 58.675781 109.640625 C 56.816406 106.972656 54.667969 104.242188 52.238281 101.441406 L 49.246094 98.03125 C 47.976562 96.699219 46.78125 95.703125 45.664062 95.050781 C 48.949219 95.835938 51.796875 96.621094 54.207031 97.410156 C 54.40625 97.453125 54.492188 97.386719 54.472656 97.214844 M 44.023438 95.113281 C 45.226562 95.488281 46.507812 96.328125 47.867188 97.640625 L 50.988281 101.082031 C 52.851562 103.222656 54.765625 105.605469 56.738281 108.230469 L 57.429688 109.148438 L 57.035156 109.148438 L 54.800781 109.34375 C 52.851562 109.738281 51.109375 110.425781 49.574219 111.410156 C 48.128906 112.351562 46.769531 113.640625 45.5 115.277344 L 44.351562 116.6875 C 43.867188 117.34375 43.746094 117.726562 43.988281 117.835938 L 40.964844 116.394531 C 38.996094 115.386719 37.429688 114.523438 36.265625 113.804688 C 34.582031 112.777344 33.144531 111.703125 31.960938 110.589844 C 31.898438 110.285156 31.699219 110.097656 31.371094 110.03125 L 30.976562 109.640625 C 28.414062 106.90625 26.441406 104.261719 25.0625 101.703125 C 23.199219 98.296875 22.488281 95.203125 22.925781 92.425781 L 22.960938 92.425781 C 29.726562 92.46875 36.574219 93.191406 43.496094 94.589844 C 43.605469 94.851562 43.78125 95.027344 44.023438 95.113281 M 57.921875 115.476562 L 57.066406 117.246094 L 53.683594 114.03125 L 53.453125 113.867188 C 54.570312 112.753906 55.578125 111.914062 56.476562 111.34375 C 57.964844 110.40625 58.742188 110.589844 58.808594 111.902344 C 58.851562 112.949219 58.554688 114.140625 57.921875 115.476562 M 65.445312 116.328125 L 64.691406 120.558594 L 63.738281 124.753906 L 63.738281 124.785156 L 56.769531 120.425781 C 57.757812 118.984375 58.492188 117.738281 58.972656 116.6875 C 61.316406 116.621094 63.519531 116.339844 65.578125 115.835938 L 65.445312 116.328125 M 44.679688 118.6875 C 47.921875 113.550781 51.734375 110.722656 56.113281 110.195312 C 53.398438 111.640625 50.375 114.710938 47.042969 119.410156 C 43.691406 124.175781 42.09375 127.703125 42.246094 130 C 41.566406 128.972656 41.644531 127.039062 42.476562 124.195312 C 43.089844 122.03125 43.824219 120.195312 44.679688 118.6875 M 44.085938 127.378906 C 45.445312 124.425781 47.285156 121.453125 49.609375 118.460938 C 51.230469 116.382812 52.410156 114.960938 53.15625 114.195312 L 56.871094 117.703125 C 53.277344 124.722656 49.53125 128.941406 45.632812 130.359375 C 44.691406 130.730469 43.902344 130.839844 43.265625 130.6875 C 43.242188 130.40625 43.355469 129.8125 43.59375 128.917969 C 43.8125 128.109375 43.976562 127.59375 44.085938 127.378906 M 44.480469 131.804688 C 47.265625 131.386719 49.980469 129.5625 52.628906 126.328125 L 51.808594 142.65625 L 51.777344 142.65625 C 51.273438 142.984375 50.769531 143.234375 50.265625 143.410156 C 48.273438 144 46.101562 144.175781 43.757812 143.933594 L 39.78125 143.246094 L 39.289062 143.113281 L 38.601562 141.640625 C 36.652344 137.160156 35.214844 133.09375 34.296875 129.441406 C 32.9375 124.195312 32.171875 118.1875 31.996094 111.410156 C 34.996094 113.96875 38.796875 116.285156 43.398438 118.359375 C 41.929688 121.289062 41.019531 124.078125 40.671875 126.722656 C 40.1875 130.546875 41.457031 132.242188 44.480469 131.804688 M 43.101562 144.917969 L 47.503906 145.148438 C 49.257812 145.082031 50.703125 144.742188 51.84375 144.132812 C 51.734375 145.269531 51.316406 146.109375 50.59375 146.65625 L 48.195312 148.066406 C 46.878906 148.722656 46.058594 148.863281 45.730469 148.492188 L 45.335938 148.132812 C 45.140625 147.976562 44.984375 147.933594 44.875 148 L 38.730469 151.277344 C 36.148438 152.371094 33.914062 152.765625 32.027344 152.460938 C 30.714844 152.261719 30.332031 151.507812 30.878906 150.195312 C 31.292969 149.191406 31.960938 148.304688 32.882812 147.539062 C 34.699219 146.011719 36.738281 144.886719 38.996094 144.164062 C 39.476562 144.449219 40.175781 144.644531 41.097656 144.753906 L 43.101562 144.917969 M 70.507812 132.492188 C 72.695312 132.839844 74.867188 132.503906 77.011719 131.476562 C 77.1875 134.054688 77.253906 137.015625 77.210938 140.359375 L 76.914062 149.214844 C 76.714844 154 76.453125 157.8125 76.125 160.65625 L 75.730469 164.132812 C 75.511719 165.59375 75.140625 166.6875 74.613281 167.410156 C 74.351562 167.804688 74.164062 167.878906 74.054688 167.640625 L 73.726562 166.394531 L 73.003906 162.753906 C 72.519531 159.738281 72.09375 156.230469 71.722656 152.230469 C 70.910156 143.769531 70.496094 137.191406 70.472656 132.492188 L 70.507812 132.492188 M 20.101562 109.082031 C 18.71875 113.039062 16.367188 118.613281 13.035156 125.804688 C 11.042969 130.109375 9.410156 133.34375 8.140625 135.507812 L 6.199219 138.425781 L 5.445312 139.246094 C 5.140625 139.53125 4.972656 139.5625 4.953125 139.34375 C 4.84375 138.359375 4.964844 137.160156 5.3125 135.738281 L 6.332031 132.195312 C 7.164062 129.421875 8.28125 126.078125 9.683594 122.164062 L 12.609375 114.328125 L 15.46875 106.425781 C 16.738281 107.257812 18.28125 108.140625 20.101562 109.082031 "/>
</g>
</svg>
