<?xml version="1.0" encoding="UTF-8"?>
<svg xmlns="http://www.w3.org/2000/svg" xmlns:xlink="http://www.w3.org/1999/xlink" width="128pt" height="153pt" viewBox="0 0 128 153" version="1.1">
<g id="surface1">
<path style=" stroke:none;fill-rule:nonzero;fill:rgb(100%,100%,100%);fill-opacity:1;" d="M 95.039062 113.804688 L 95.039062 113.644531 L 94.878906 113.484375 C 88.460938 108.164062 84.289062 105.371094 82.367188 105.105469 L 82.046875 105.027344 L 81.882812 105.34375 C 79.851562 109.65625 79.480469 114.253906 80.761719 119.148438 L 81.242188 119.546875 C 81.5625 119.546875 81.722656 119.363281 81.722656 118.988281 C 81.882812 114.894531 82.527344 111.515625 83.648438 108.855469 L 89.582031 112.289062 L 93.996094 114.921875 L 94.316406 115.238281 L 94.554688 114.839844 C 94.878906 114.46875 95.039062 114.121094 95.039062 113.804688 M 110.515625 128.40625 L 110.355469 128.644531 L 108.914062 130.71875 L 107.308594 129.042969 L 107.066406 129.523438 C 106.371094 130.746094 106.160156 132.101562 106.425781 133.59375 L 106.507812 133.910156 L 106.828125 133.910156 C 107.84375 133.910156 108.9375 133.40625 110.117188 132.394531 C 111.132812 131.542969 111.828125 130.613281 112.199219 129.601562 L 112.28125 129.285156 L 112.039062 129.125 L 110.515625 128.40625 M 98.164062 133.832031 L 98.246094 133.59375 C 98.566406 132.15625 98.273438 130.851562 97.363281 129.683594 L 97.042969 129.285156 L 95.679688 131.117188 L 93.914062 129.203125 L 93.675781 129.042969 L 93.433594 129.203125 C 93.003906 129.417969 92.738281 129.523438 92.632812 129.523438 L 92.148438 129.523438 L 92.3125 130 C 92.523438 131.011719 93.273438 131.945312 94.554688 132.792969 C 95.625 133.539062 96.589844 133.910156 97.445312 133.910156 L 97.925781 133.910156 L 98.164062 133.832031 M 105.464844 111.011719 L 111.640625 105.664062 C 113.082031 104.867188 113.9375 105.398438 114.207031 107.261719 C 115.007812 113.964844 114.472656 119.390625 112.601562 123.539062 C 114.097656 128.058594 113.644531 131.835938 111.238281 134.871094 C 110.972656 135.292969 110.917969 135.640625 111.078125 135.90625 C 113.75 139.738281 117.921875 142.847656 123.589844 145.242188 C 126.53125 146.253906 127.734375 147.957031 127.199219 150.347656 C 126.824219 152.105469 125.566406 152.980469 123.429688 152.980469 L 118.617188 151.945312 C 113.054688 149.605469 108.992188 146.09375 106.425781 141.414062 C 104.019531 143.167969 102.015625 144.046875 100.410156 144.046875 C 98.859375 144.046875 97.148438 143.113281 95.277344 141.253906 C 94.316406 140.242188 93.113281 139.445312 91.667969 138.859375 C 88.300781 137.6875 85.976562 136.597656 84.691406 135.585938 C 83.460938 134.523438 81.992188 132.636719 80.28125 129.921875 C 77.394531 130.082031 74.585938 129.734375 71.859375 128.882812 C 71.59375 128.882812 71.539062 129.042969 71.699219 129.363281 L 75.46875 134.3125 C 76.964844 136.277344 77.714844 137.847656 77.714844 139.019531 C 77.714844 141.144531 75.976562 142.210938 72.5 142.210938 C 69.722656 142.210938 66.859375 139.363281 63.917969 133.671875 L 58.707031 121.542969 C 56.726562 116.597656 54.882812 112.898438 53.171875 110.453125 C 49.964844 108.695312 47.210938 106.515625 44.914062 103.910156 C 43.789062 107.101562 41.675781 110.132812 38.578125 113.003906 L 43.386719 122.742188 C 47.34375 126.515625 49.324219 129.175781 49.324219 130.71875 C 49.324219 131.570312 48.867188 132.367188 47.960938 133.113281 C 45.5 134.816406 43.09375 134.683594 40.742188 132.714844 C 39.296875 131.386719 35.046875 125.160156 27.988281 114.042969 C 27.027344 112.445312 26.546875 111.195312 26.546875 110.292969 C 26.546875 109.015625 28.015625 107.605469 30.957031 106.0625 C 32.988281 105.160156 34.003906 104.042969 34.003906 102.710938 C 34.003906 101.914062 33.523438 100.71875 32.5625 99.121094 C 26.949219 89.652344 24.140625 82.976562 24.140625 79.09375 C 24.140625 76.914062 24.890625 74.144531 26.386719 70.792969 C 27.777344 67.65625 29.03125 65.609375 30.15625 64.652344 C 24.914062 62.789062 19.96875 60.183594 15.316406 56.832031 C 6.121094 50.234375 1.042969 41.695312 0.0820312 31.21875 C 0.0273438 22.015625 3.769531 14.40625 11.308594 8.394531 C 16.546875 4.195312 22.082031 1.558594 27.910156 0.496094 C 29.726562 0.175781 31.144531 0.867188 32.160156 2.570312 C 33.121094 4.328125 32.375 5.710938 29.914062 6.71875 C 23.339844 9.273438 19.300781 11.003906 17.804688 11.90625 C 10.746094 16.214844 7.136719 21.667969 6.976562 28.265625 C 6.816406 38.105469 12.324219 46.003906 23.5 51.964844 C 29.113281 54.996094 35.101562 57.097656 41.464844 58.265625 C 59.320312 61.140625 72.179688 70.792969 80.039062 87.230469 C 89.074219 91.273438 94.207031 97.683594 95.4375 106.460938 C 99.714844 107.578125 103.058594 109.097656 105.464844 111.011719 "/>
</g>
</svg>
