<?xml version="1.0" encoding="UTF-8"?>
<svg xmlns="http://www.w3.org/2000/svg" xmlns:xlink="http://www.w3.org/1999/xlink" width="128pt" height="192pt" viewBox="0 0 128 192" version="1.1">
<g id="surface1">
<path style=" stroke:none;fill-rule:nonzero;fill:rgb(100%,100%,100%);fill-opacity:1;" d="M 90.882812 143 C 90.210938 143.058594 89.816406 143.238281 89.707031 143.546875 C 89.59375 143.851562 90.011719 145.082031 90.964844 147.230469 L 92.4375 150.414062 C 93.109375 149.660156 93.207031 149.140625 92.730469 148.863281 C 92.421875 148.667969 92.171875 147.789062 91.976562 146.226562 C 91.808594 144.859375 91.765625 143.769531 91.847656 142.960938 L 90.882812 143 M 54.394531 109.671875 C 56.355469 111.625 57.5625 113.203125 58.011719 114.402344 C 58.625 116.050781 59.804688 117.683594 61.539062 119.300781 C 62.746094 120.417969 64.050781 121.382812 65.449219 122.191406 L 53.972656 132.199219 L 55.277344 133.203125 L 58.976562 130.605469 L 52.839844 138.351562 L 50.527344 142.375 L 52.125 142.5 L 52.714844 143.378906 C 52.882812 144.160156 52.390625 145.164062 51.242188 146.394531 L 47.667969 150.539062 L 48.804688 151.542969 L 48.929688 154.515625 C 48.875 156.804688 48.453125 158.71875 47.667969 160.253906 L 44.136719 165.988281 L 40.269531 171.054688 L 40.4375 172.648438 L 42.792969 169.925781 L 42.035156 174.90625 C 41.671875 177.167969 40.089844 178.367188 37.285156 178.507812 C 36.164062 178.535156 35.128906 178.816406 34.175781 179.347656 L 31.78125 180.980469 C 29.199219 182.738281 26.972656 183.699219 25.09375 183.867188 C 24.003906 183.980469 22.953125 183.785156 21.941406 183.28125 C 21.632812 183.140625 21.480469 182.722656 21.480469 182.027344 L 22.238281 181.523438 L 22.992188 181.019531 L 22.320312 180.894531 L 21.648438 180.726562 C 21.902344 179.640625 22.265625 178.523438 22.742188 177.378906 C 24.085938 176.792969 25.9375 176.09375 28.289062 175.285156 C 30.726562 174.445312 32.269531 173.972656 32.914062 173.859375 C 33.921875 173.722656 34.804688 172.382812 35.5625 169.839844 C 36.179688 167.746094 36.488281 165.976562 36.488281 164.523438 L 36.109375 159.207031 C 35.914062 156.300781 36.023438 154.082031 36.445312 152.546875 C 36.835938 151.070312 37.371094 149.769531 38.042969 148.652344 L 38.882812 147.398438 L 40.605469 146.519531 L 40.355469 144.214844 C 39.933594 141.394531 39.960938 139.289062 40.4375 137.894531 C 40.746094 136.972656 41.238281 136.679688 41.910156 137.011719 L 42.792969 137.808594 L 43.214844 144.507812 L 45.777344 146.226562 C 44.628906 139.832031 44.011719 135.535156 43.929688 133.328125 C 43.394531 133.273438 42.933594 132.140625 42.539062 129.9375 C 42.121094 127.5625 41.992188 124.941406 42.164062 122.066406 C 42.609375 114.136719 44.9375 108.386719 49.140625 104.8125 L 54.394531 109.671875 M 69.359375 96.148438 C 68.9375 95.644531 67.777344 95.28125 65.871094 95.058594 C 64.078125 94.863281 62.550781 94.875 61.289062 95.101562 C 57.226562 95.910156 55.125 96.59375 54.984375 97.152344 C 54.925781 97.515625 55.429688 97.640625 56.496094 97.527344 L 59.984375 97.152344 L 66.585938 97.445312 L 69.191406 97.320312 C 69.75 97.039062 69.808594 96.648438 69.359375 96.148438 M 54.5625 89.488281 L 57.800781 87.648438 L 60.195312 86.765625 L 62.929688 86.472656 C 63.515625 86.53125 65.589844 87.382812 69.148438 89.027344 C 72.289062 90.480469 73.96875 90.996094 74.195312 90.578125 C 74.503906 89.992188 73.183594 88.917969 70.242188 87.351562 C 67.273438 85.789062 64.734375 84.867188 62.632812 84.589844 C 60.867188 84.339844 58.667969 85.09375 56.035156 86.851562 L 52.628906 89.574219 C 52.628906 90.214844 53.273438 90.1875 54.5625 89.488281 M 54.269531 92.042969 L 56.285156 92.167969 L 59.984375 91.75 L 63.980469 91.875 L 66.878906 91.75 C 67.46875 91.5 67.578125 90.996094 67.214844 90.242188 C 66.824219 89.40625 65.730469 88.988281 63.9375 88.988281 C 61.890625 88.988281 59.773438 89.335938 57.589844 90.035156 C 55.429688 90.703125 54.324219 91.375 54.269531 92.042969 M 69.445312 79.566406 L 64.695312 79.898438 C 64.132812 79.789062 63.53125 79.453125 62.886719 78.894531 L 62.046875 78.140625 L 62.214844 79.355469 C 62.410156 80.25 62.691406 80.878906 63.054688 81.238281 C 63.390625 81.574219 64.203125 81.6875 65.492188 81.574219 L 69.234375 81.238281 L 72.890625 81.15625 L 77.136719 81.535156 C 77.976562 81.671875 79.292969 82.148438 81.085938 82.957031 C 82.460938 83.570312 83.777344 83.820312 85.039062 83.710938 C 86.1875 83.597656 88.472656 81.992188 91.890625 78.894531 C 92.058594 78.558594 92.800781 77.679688 94.117188 76.257812 L 96.050781 74.207031 C 95.996094 73.648438 95.464844 73.703125 94.457031 74.375 L 91.808594 76.257812 L 88.484375 78.140625 C 86.886719 78.894531 85.597656 79.34375 84.617188 79.480469 L 80.414062 79.355469 L 75.539062 79.019531 L 69.445312 79.566406 M 64.484375 66.167969 C 64.933594 66.558594 65.339844 66.753906 65.703125 66.753906 C 65.953125 66.753906 67.019531 66.152344 68.898438 64.953125 C 70.914062 63.667969 72.386719 62.914062 73.3125 62.691406 C 79.390625 61.265625 82.433594 60.332031 82.433594 59.886719 C 82.433594 59.496094 82.320312 59.214844 82.097656 59.046875 C 81.84375 58.824219 81.367188 58.714844 80.667969 58.714844 C 79.828125 58.714844 76.855469 59.71875 71.753906 61.726562 C 66.542969 63.765625 63.9375 65.050781 63.9375 65.578125 L 64.484375 66.167969 M 57.210938 67.339844 C 57.601562 66.890625 57.210938 66.125 56.035156 65.035156 C 54.996094 64.085938 53.917969 63.347656 52.796875 62.816406 C 49.574219 61.167969 47.710938 60.25 47.207031 60.054688 L 44.683594 59.675781 C 43.339844 59.59375 42.667969 59.71875 42.667969 60.054688 C 42.667969 60.304688 43.394531 60.777344 44.851562 61.476562 L 49.140625 63.402344 L 53.890625 66.25 C 55.769531 67.394531 56.875 67.757812 57.210938 67.339844 M 59.816406 69.976562 C 60.210938 68.832031 60.40625 67.910156 60.40625 67.214844 C 60.40625 66.429688 60.167969 66.039062 59.691406 66.039062 C 59.160156 66.039062 58.808594 66.460938 58.640625 67.296875 L 58.21875 70.4375 C 58.023438 71.664062 58.023438 73.160156 58.21875 74.917969 C 58.445312 76.648438 58.738281 77.484375 59.101562 77.429688 C 59.355469 77.375 59.480469 76.382812 59.480469 74.457031 C 59.480469 72.195312 59.59375 70.703125 59.816406 69.976562 M 64.820312 60.179688 C 65.101562 59.089844 65.113281 57.945312 64.863281 56.746094 C 64.636719 55.574219 64.328125 55.070312 63.9375 55.238281 C 63.710938 55.347656 63.671875 56.464844 63.8125 58.585938 C 63.726562 60.765625 62.941406 62.078125 61.457031 62.523438 L 59.648438 62.605469 C 59.171875 62.550781 58.933594 62.675781 58.933594 62.984375 C 58.933594 63.933594 59.621094 64.269531 60.996094 63.988281 C 61.835938 63.820312 62.578125 63.445312 63.222656 62.859375 C 64.007812 62.160156 64.539062 61.265625 64.820312 60.179688 M 68.351562 57.457031 C 67.59375 58.9375 67.34375 59.84375 67.59375 60.179688 C 67.847656 60.511719 68.324219 60.640625 69.023438 60.554688 C 69.75 60.5 70.117188 60.234375 70.117188 59.761719 L 71.082031 56.996094 C 71.558594 55.65625 71.378906 55.015625 70.535156 55.070312 C 69.835938 55.125 69.105469 55.921875 68.351562 57.457031 M 60.363281 43.429688 L 57.882812 43.429688 L 57 43.347656 C 56.441406 43.347656 56.398438 43.484375 56.875 43.765625 L 58.136719 44.601562 C 58.808594 44.964844 59.605469 45.0625 60.53125 44.894531 L 61.121094 44.644531 L 61.332031 44.140625 C 61.246094 43.667969 60.925781 43.429688 60.363281 43.429688 M 51.453125 36.648438 C 51.621094 36.5625 51.832031 36.5625 52.082031 36.648438 L 54.730469 37.441406 C 56.75 37.972656 58.417969 38.28125 59.734375 38.363281 C 61.835938 38.476562 64.582031 38.140625 67.972656 37.359375 C 68.839844 37.273438 69.484375 37.414062 69.90625 37.777344 C 70.214844 38.085938 70.269531 38.363281 70.074219 38.613281 L 69.359375 39.074219 L 63.136719 40.875 C 62.296875 41.015625 61.191406 41.015625 59.816406 40.875 L 56.664062 40.246094 L 51.914062 38.027344 C 51.550781 37.917969 51.324219 37.609375 51.242188 37.105469 C 51.1875 36.882812 51.257812 36.730469 51.453125 36.648438 M 49.183594 13.992188 C 49.6875 14.550781 50.246094 14.957031 50.863281 15.207031 L 49.980469 16.507812 L 48.339844 18.933594 C 47.753906 17.707031 47.445312 16.828125 47.417969 16.296875 C 47.332031 15.292969 47.472656 14.523438 47.835938 13.992188 C 48.230469 13.4375 48.679688 13.4375 49.183594 13.992188 M 56.707031 29.234375 C 56.34375 29.597656 56.285156 29.988281 56.539062 30.40625 L 58.09375 33.046875 C 58.542969 33.632812 59.171875 33.800781 59.984375 33.546875 L 60.40625 33.296875 L 60.320312 32.792969 L 59.0625 30.828125 C 58.753906 30.378906 58.753906 29.960938 59.0625 29.570312 L 60.996094 26.933594 L 62.886719 23.457031 L 62.96875 22.953125 L 62.761719 22.703125 C 62.507812 22.589844 62.253906 22.746094 62.003906 23.164062 L 60.152344 25.886719 L 58.09375 27.9375 L 56.707031 29.234375 M 55.949219 25.007812 C 56.007812 24.335938 55.824219 23.582031 55.402344 22.746094 C 55.011719 21.9375 54.605469 21.488281 54.183594 21.40625 C 53.792969 21.347656 53.316406 21.699219 52.753906 22.453125 C 52.195312 23.207031 51.871094 23.917969 51.789062 24.585938 C 51.703125 25.171875 51.859375 25.535156 52.25 25.675781 L 53.46875 25.886719 L 54.941406 26.011719 C 55.53125 25.925781 55.867188 25.59375 55.949219 25.007812 M 53.089844 17.59375 L 56.246094 17.929688 C 56.523438 17.957031 56.75 17.886719 56.917969 17.71875 C 57.113281 17.554688 57.195312 17.34375 57.167969 17.09375 L 57.085938 16.378906 L 56.789062 15.835938 C 56.59375 15.722656 56.382812 15.722656 56.160156 15.835938 L 52.964844 17.132812 C 52.742188 17.246094 52.644531 17.34375 52.671875 17.425781 C 52.671875 17.511719 52.8125 17.566406 53.089844 17.59375 M 72.679688 38.488281 C 72.820312 38.042969 72.667969 37.664062 72.21875 37.359375 L 68.519531 34.261719 C 68.351562 34.121094 68.226562 34.078125 68.140625 34.132812 C 68.054688 34.191406 68.054688 34.316406 68.140625 34.511719 L 68.519531 35.683594 L 68.308594 36.269531 L 67.679688 36.5625 C 63.949219 37.316406 61.191406 37.664062 59.398438 37.609375 C 58.277344 37.582031 56.75 37.289062 54.816406 36.730469 L 52.207031 35.933594 L 51.664062 35.601562 C 51.550781 35.433594 51.507812 35.238281 51.535156 35.011719 L 51.578125 34.511719 L 51.496094 34.175781 C 51.410156 34.121094 51.296875 34.164062 51.15625 34.300781 L 49.5625 35.726562 C 49.390625 35.835938 49.292969 36.019531 49.265625 36.269531 L 49.351562 36.855469 L 50.863281 39.492188 L 51.117188 39.746094 L 51.242188 39.453125 L 51.285156 39.074219 L 51.535156 38.65625 C 51.703125 38.574219 51.886719 38.574219 52.082031 38.65625 L 54.480469 40.332031 C 56.382812 41.503906 58.148438 42.203125 59.773438 42.425781 C 61.402344 42.648438 63.601562 42.242188 66.375 41.210938 L 70.03125 39.578125 C 70.535156 39.464844 70.914062 39.632812 71.167969 40.078125 L 71.042969 41.714844 L 71.671875 41.671875 L 72.679688 38.488281 M 83.863281 32.710938 C 83.664062 32.429688 83.371094 32.167969 82.980469 31.914062 L 82.347656 32 C 82.179688 32.222656 82.207031 32.417969 82.433594 32.585938 L 82.9375 33.085938 C 83.273438 33.449219 83.441406 33.742188 83.441406 33.964844 C 83.441406 34.246094 83.597656 34.398438 83.902344 34.425781 C 84.210938 34.425781 84.367188 34.246094 84.367188 33.882812 C 84.367188 33.519531 84.199219 33.128906 83.863281 32.710938 M 82.476562 29.234375 C 82.308594 29.457031 82.390625 29.695312 82.726562 29.945312 L 82.8125 30.03125 L 84.199219 31.121094 L 85.332031 32.542969 C 85.753906 33.101562 86.007812 33.253906 86.089844 33.003906 C 86.144531 32.835938 86.035156 32.488281 85.753906 31.957031 L 84.871094 30.574219 C 84.28125 29.878906 83.679688 29.375 83.0625 29.066406 C 82.839844 28.957031 82.644531 29.011719 82.476562 29.234375 M 72.09375 28.480469 C 72.820312 28.507812 73.214844 28.246094 73.269531 27.6875 C 73.351562 27.015625 73.085938 26.179688 72.46875 25.171875 C 71.855469 24.195312 71.335938 23.679688 70.914062 23.625 C 70.464844 23.539062 69.820312 23.902344 68.980469 24.714844 C 68.113281 25.523438 67.75 26.234375 67.886719 26.847656 C 68 27.40625 68.363281 27.769531 68.980469 27.9375 L 70.453125 28.148438 L 72.09375 28.480469 M 72.597656 17.300781 C 72.429688 17.164062 72.246094 17.105469 72.050781 17.132812 C 71.824219 17.164062 71.65625 17.261719 71.546875 17.425781 L 70.914062 18.054688 C 70.523438 18.472656 70.367188 18.753906 70.453125 18.894531 L 71.167969 19.3125 L 72.597656 20.105469 L 74.234375 21.238281 L 75.371094 21.867188 C 75.59375 21.28125 75.203125 20.34375 74.195312 19.058594 L 72.597656 17.300781 M 79.40625 15.167969 L 82.9375 14.957031 C 84.394531 14.984375 85.363281 15.78125 85.835938 17.34375 C 86.34375 19.019531 85.460938 20.273438 83.191406 21.113281 C 83.078125 21.113281 82.953125 21.195312 82.8125 21.363281 C 82.644531 21.585938 82.714844 21.808594 83.019531 22.035156 L 86.550781 25.007812 C 88.457031 27.070312 89.296875 29.25 89.074219 31.539062 C 88.484375 29.695312 87.574219 27.980469 86.34375 26.386719 C 84.941406 24.65625 83.960938 23.652344 83.398438 23.375 L 82.644531 23.414062 C 82.476562 23.609375 82.515625 23.804688 82.769531 24 L 83.734375 24.878906 L 85.585938 26.847656 C 86.734375 28.105469 87.800781 29.917969 88.78125 32.292969 L 88.484375 32.960938 C 87.644531 31.007812 86.71875 29.457031 85.710938 28.3125 C 84.84375 27.335938 84.015625 26.640625 83.230469 26.21875 C 82.921875 26.082031 82.742188 26.164062 82.683594 26.472656 C 82.601562 26.75 82.742188 27.03125 83.105469 27.308594 L 84.953125 28.898438 C 85.683594 29.738281 86.734375 31.328125 88.109375 33.671875 L 87.980469 33.925781 L 87.308594 34.007812 C 86.917969 34.148438 86.847656 34.425781 87.097656 34.847656 C 88.949219 36.492188 89.242188 38.265625 87.980469 40.164062 C 86.75 42.035156 84.941406 42.675781 82.558594 42.089844 C 79.8125 45.691406 76.660156 48.273438 73.101562 49.835938 C 70.328125 51.007812 68.421875 51.707031 67.382812 51.929688 C 63.851562 52.683594 60.671875 52.277344 57.839844 50.714844 C 53.160156 48.121094 49.867188 44.210938 47.964844 38.992188 C 46.167969 34.023438 46.03125 29.109375 47.542969 24.253906 C 48.496094 21.265625 50.136719 18.347656 52.460938 15.5 C 53.496094 15.472656 54.578125 15.125 55.699219 14.453125 L 57.839844 12.445312 C 59.160156 11.214844 60.042969 10.53125 60.488281 10.394531 C 61.300781 10.085938 62.4375 10.476562 63.894531 11.566406 C 64.652344 11.984375 65.464844 12.164062 66.332031 12.109375 L 68.855469 11.480469 L 72.175781 11.691406 C 73.4375 12.191406 74.558594 13.085938 75.539062 14.371094 C 75.988281 14.957031 76.605469 15.277344 77.386719 15.332031 L 79.40625 15.167969 M 35.351562 76.84375 C 34.007812 76.3125 33.195312 76.046875 32.914062 76.046875 L 32.871094 76.257812 C 33.375 77.039062 34.46875 77.972656 36.152344 79.0625 L 38.292969 80.320312 C 38.519531 80.457031 39.667969 81.003906 41.742188 81.953125 L 45.609375 83.585938 C 46.476562 83.808594 47.824219 83.667969 49.644531 83.167969 L 53.804688 82.121094 L 57.421875 81.28125 C 58.625 80.890625 59.230469 80.585938 59.230469 80.359375 C 59.230469 80.082031 59.117188 79.800781 58.894531 79.523438 C 58.640625 79.1875 58.375 79.078125 58.09375 79.1875 L 55.195312 80.320312 C 54.042969 80.738281 53.007812 80.945312 52.082031 80.945312 L 48.804688 80.695312 L 45.484375 80.359375 C 44.472656 80.277344 42.890625 79.832031 40.734375 79.019531 L 35.351562 76.84375 M 48.132812 9.933594 C 47.90625 8.5625 48.046875 7.378906 48.550781 6.375 C 48.917969 5.648438 49.476562 5.003906 50.234375 4.445312 C 50.066406 5.367188 50.289062 6.09375 50.90625 6.625 C 51.71875 7.40625 52.699219 7.8125 53.847656 7.839844 C 54.96875 7.839844 55.976562 7.476562 56.875 6.75 C 59.453125 4.574219 61.203125 3.441406 62.128906 3.359375 C 62.914062 3.273438 63.949219 3.527344 65.238281 4.113281 L 67.550781 4.28125 L 69.105469 2.6875 C 70.675781 0.902344 71.769531 0.0078125 72.386719 0.0078125 C 73.199219 0.0351562 74.179688 0.523438 75.328125 1.472656 L 76.335938 2.394531 L 77.515625 3.148438 C 78.777344 3.761719 79.910156 4.195312 80.917969 4.445312 C 82.460938 4.835938 83.804688 5.882812 84.953125 7.585938 L 87.058594 10.558594 C 88.039062 11.089844 89.019531 12.164062 90 13.785156 L 91.808594 17.46875 C 92.589844 19.648438 92.5625 22.339844 91.722656 25.550781 C 91.273438 27.253906 90.699219 28.800781 90 30.199219 L 89.875 29.613281 L 89.875 29.652344 C 89.535156 27.839844 88.695312 26.164062 87.351562 24.628906 L 84.449219 21.90625 L 86.804688 20.316406 C 87.671875 19.507812 88.078125 18.753906 88.023438 18.054688 C 87.96875 16.964844 87.632812 16.03125 87.015625 15.25 C 86.144531 14.160156 84.84375 13.601562 83.105469 13.574219 L 80.121094 14.160156 L 77.597656 14.453125 L 74.867188 11.3125 C 73.296875 9.472656 72.007812 8.691406 71 8.96875 L 68.183594 10.101562 L 66.207031 10.894531 C 65.617188 11.117188 65.128906 11.117188 64.734375 10.894531 L 63.726562 10.226562 L 62.046875 9.347656 L 59.816406 9.554688 C 59.285156 9.75 58.347656 10.460938 57 11.691406 L 54.898438 13.617188 C 54.003906 14.175781 53.121094 14.46875 52.25 14.496094 C 51.242188 14.523438 50.429688 14.203125 49.8125 13.535156 C 48.917969 12.585938 48.355469 11.382812 48.132812 9.933594 M 107.402344 156.734375 C 108.214844 158.855469 108.480469 162.011719 108.199219 166.199219 L 107.527344 171.976562 L 105.636719 172.101562 L 116.144531 184.285156 L 118.207031 186.378906 C 118.820312 187.023438 119.117188 187.414062 119.089844 187.554688 C 119.003906 187.859375 118.683594 188.097656 118.121094 188.265625 L 114.464844 189.269531 L 112.40625 189.730469 L 110.976562 188.140625 L 110.472656 190.441406 L 110.007812 191.28125 C 109.589844 191.753906 109.015625 191.992188 108.285156 191.992188 C 107.304688 191.992188 106.464844 191.445312 105.761719 190.359375 C 105.175781 189.464844 104.878906 188.667969 104.878906 187.972656 C 104.851562 186.242188 104.027344 183.449219 102.398438 179.597656 L 99.835938 173.945312 L 99.835938 173.859375 C 96.78125 169.671875 94.355469 165.863281 92.5625 162.429688 C 91.441406 160.308594 90.769531 157.921875 90.546875 155.269531 L 90.546875 151.835938 L 92.730469 152.714844 L 91.007812 150.121094 L 88.695312 144.675781 L 88.277344 143.253906 L 86.257812 142.960938 L 83.695312 141.996094 C 83.078125 141.550781 82.070312 140.265625 80.667969 138.144531 L 78.609375 135.128906 C 77.207031 133.0625 75.722656 130.441406 74.152344 127.257812 L 71.753906 122.234375 C 71.894531 117.402344 74.054688 112.714844 78.230469 108.164062 C 80.808594 105.371094 83.554688 103.125 86.46875 101.421875 L 91.890625 108.75 C 95.535156 114.445312 97.816406 119.929688 98.742188 125.207031 C 99.386719 128.863281 99.710938 132.085938 99.710938 134.878906 L 99.457031 138.101562 L 96.894531 135.546875 L 96.179688 135.546875 C 95.703125 135.605469 95.464844 135.785156 95.464844 136.09375 C 95.464844 136.34375 95.953125 137.167969 96.933594 138.5625 L 98.617188 141.242188 L 99.289062 144.71875 L 99.75 148.695312 L 99.542969 150.914062 C 99.457031 151.558594 99.527344 151.960938 99.75 152.128906 L 100.550781 152.757812 C 100.800781 152.867188 100.929688 152.617188 100.929688 152.003906 C 100.929688 151.027344 101.292969 148.765625 102.023438 145.21875 C 104.628906 150.441406 106.421875 154.277344 107.402344 156.734375 M 121.527344 104.519531 L 121.148438 105.820312 C 120.980469 106.40625 120.910156 106.824219 120.9375 107.074219 L 119.507812 107.367188 C 119.703125 107.003906 119.789062 106.574219 119.761719 106.070312 L 119.636719 103.765625 C 119.550781 102.957031 119.367188 102.414062 119.089844 102.132812 L 118.078125 101.296875 L 117.53125 100.960938 L 118.039062 100.835938 L 119.761719 101.171875 C 120.546875 101.421875 121.078125 101.9375 121.359375 102.71875 C 121.582031 103.308594 121.636719 103.90625 121.527344 104.519531 M 122.492188 103.683594 C 122.605469 102.316406 122.480469 101.421875 122.113281 101.003906 C 121.863281 100.695312 121.023438 100.402344 119.59375 100.125 C 118.332031 99.875 117.742188 99.609375 117.828125 99.328125 C 117.9375 98.964844 118.109375 98.730469 118.332031 98.617188 L 119.214844 98.492188 C 119.691406 98.4375 121.273438 99.007812 123.964844 100.207031 C 123.769531 101.492188 123.699219 103.503906 123.753906 106.238281 L 121.695312 106.867188 L 121.945312 106.445312 C 122.226562 105.777344 122.410156 104.855469 122.492188 103.683594 M 126.234375 65.414062 C 126.710938 67.394531 127.074219 69.488281 127.328125 71.691406 C 127.777344 75.460938 127.734375 78.449219 127.203125 80.652344 C 126.5 83.527344 124.761719 86.460938 121.988281 89.445312 L 117.996094 93.089844 L 116.902344 94.765625 C 116.285156 95.796875 116.003906 96.371094 116.0625 96.480469 L 117.363281 95.519531 C 118.234375 94.792969 118.710938 94.429688 118.792969 94.429688 C 119.691406 94.375 120.433594 94.472656 121.023438 94.722656 C 121.667969 95.003906 122.003906 95.394531 122.03125 95.894531 L 122.242188 96.984375 L 122.621094 98.074219 L 117.449219 97.570312 C 117.113281 97.738281 116.691406 98.015625 116.1875 98.40625 L 115.558594 98.992188 L 115.011719 97.570312 L 114.421875 95.8125 C 114.394531 95.617188 114.199219 95.40625 113.832031 95.183594 L 113.289062 94.890625 C 113.035156 95.03125 112.921875 95.40625 112.949219 96.019531 C 112.980469 96.605469 113.148438 97.191406 113.457031 97.78125 C 113.847656 98.5625 113.902344 99.453125 113.625 100.460938 L 112.824219 100.960938 C 112.320312 101.351562 112.179688 101.769531 112.40625 102.21875 C 112.742188 102.859375 113.21875 103.515625 113.832031 104.1875 C 114.535156 104.941406 114.996094 105.175781 115.222656 104.898438 C 115.390625 104.703125 115.179688 104.285156 114.589844 103.640625 C 114.03125 103 113.890625 102.609375 114.171875 102.46875 C 115.765625 101.714844 116.734375 101.671875 117.070312 102.34375 L 117.910156 103.765625 C 118.21875 104.324219 118.316406 104.800781 118.207031 105.191406 L 117.996094 106.320312 L 117.660156 107.453125 L 115.558594 107.785156 L 114.128906 107.660156 C 112.78125 107.046875 111.4375 105.652344 110.09375 103.472656 C 108.859375 101.519531 108.242188 100.097656 108.242188 99.203125 C 108.242188 98.5625 108.398438 96.957031 108.707031 94.386719 L 109.421875 86.601562 C 109.390625 85.425781 109.488281 84.269531 109.714844 83.125 L 110.472656 79.3125 C 110.976562 76.4375 112.476562 73.523438 114.96875 70.5625 C 115.78125 69.613281 116.691406 68.847656 117.699219 68.261719 L 118.960938 67.507812 L 117.53125 67.464844 C 116.46875 67.632812 115.726562 67.9375 115.304688 68.386719 C 115.136719 67.242188 114.378906 66.136719 113.035156 65.078125 L 111.015625 63.820312 C 113.257812 67.171875 114.253906 69.125 114.003906 69.683594 C 113.132812 70.519531 112.039062 72.378906 110.722656 75.253906 L 108.957031 79.3125 L 106.140625 80.109375 L 100.382812 79.648438 C 99.09375 79.230469 97.902344 78.574219 96.808594 77.679688 C 97.257812 78.601562 97.902344 79.355469 98.742188 79.941406 L 93.53125 86.433594 C 92.464844 87.492188 91.191406 88.46875 89.707031 89.363281 C 88.386719 90.144531 87.730469 90.480469 87.730469 90.367188 C 87.226562 88.496094 86.707031 88.066406 86.175781 89.070312 L 85.5 91.289062 L 83.734375 97.570312 C 82.167969 98.742188 80.148438 99.886719 77.683594 101.003906 C 73.621094 102.789062 69.570312 103.796875 65.535156 104.019531 C 61.5 104.214844 57.8125 103.863281 54.480469 102.972656 C 52.238281 102.359375 50.597656 101.6875 49.5625 100.960938 L 46.785156 92.460938 L 45.1875 85.300781 C 44.878906 85.105469 44.671875 85.707031 44.558594 87.101562 C 44.417969 88.609375 44.136719 89.335938 43.71875 89.28125 C 42.988281 89.195312 42.289062 88.246094 41.617188 86.433594 L 40.773438 83.710938 C 39.652344 83.179688 38.855469 82.941406 38.378906 83 C 33.699219 81.574219 28.824219 79.117188 23.75 75.628906 C 27.058594 74.207031 29.160156 72.085938 30.054688 69.265625 C 30.589844 66.835938 31.035156 65.089844 31.402344 64.03125 C 32.046875 62.273438 33.238281 60.972656 34.972656 60.136719 C 36.207031 59.550781 37.539062 59.171875 38.96875 59.007812 C 39.472656 58.949219 39.878906 58.585938 40.1875 57.917969 C 40.496094 57.246094 40.296875 56.953125 39.597656 57.039062 C 36.429688 57.457031 33.683594 58.726562 31.359375 60.847656 C 30.714844 61.433594 30.167969 62.148438 29.71875 62.984375 C 29.242188 63.847656 28.949219 64.6875 28.835938 65.496094 C 28.585938 67.5625 28.109375 69.238281 27.40625 70.519531 C 26.621094 71.945312 25.488281 73.019531 24.003906 73.746094 L 24.042969 73.621094 L 23.539062 73.953125 L 21.773438 74.539062 C 20.402344 74.707031 19.195312 74.375 18.160156 73.535156 L 13.660156 69.011719 C 11.503906 67.085938 9.878906 66.472656 8.785156 67.171875 C 10.160156 67.644531 11.882812 69.292969 13.957031 72.113281 C 16.085938 75.015625 17.613281 76.675781 18.539062 77.09375 C 19.40625 78.40625 19.785156 80.09375 19.671875 82.160156 C 19.617188 83.222656 19.460938 84.15625 19.210938 84.964844 L 18.285156 83.207031 C 17.695312 82.0625 17.390625 81.644531 17.359375 81.953125 C 17.050781 83.90625 17.207031 85.929688 17.824219 88.023438 C 18.273438 89.558594 18.550781 90.96875 18.664062 92.253906 L 18.789062 95.9375 C 18.761719 98.671875 17.488281 101.183594 14.964844 103.472656 C 12.527344 105.679688 10.117188 106.683594 7.734375 106.488281 C 7.089844 105.902344 6.683594 105.429688 6.515625 105.066406 C 6.179688 104.3125 4.484375 103.515625 1.429688 102.679688 L 0.125 102.300781 C 0.0429688 102.050781 0.113281 101.449219 0.335938 100.5 L 1.007812 97.445312 L 3.070312 95.308594 C 3.796875 94.554688 4.371094 94.191406 4.792969 94.21875 C 4.988281 94.21875 5.253906 94.386719 5.589844 94.722656 C 5.984375 95.085938 6.136719 95.421875 6.054688 95.726562 L 5.296875 96.984375 C 4.875 97.738281 4.707031 98.140625 4.792969 98.199219 C 4.902344 98.308594 5.730469 97.820312 7.273438 96.734375 L 9.332031 96.355469 L 9.835938 95.476562 L 10.003906 94.472656 L 8.742188 90.703125 C 8.015625 88.191406 7.371094 85.539062 6.808594 82.746094 C 5.660156 77.21875 5.410156 73.578125 6.054688 71.820312 C 5.074219 72.125 4.652344 75.027344 4.792969 80.527344 L 4.875 85.132812 C 4.820312 86.140625 4.582031 86.125 4.160156 85.09375 C 2.929688 82.050781 1.640625 76.957031 0.292969 69.808594 C 2.339844 67.964844 5.171875 65.59375 8.785156 62.691406 C 9.039062 62.46875 8.980469 62.230469 8.617188 61.980469 C 8.195312 61.671875 8.015625 61.433594 8.070312 61.265625 C 8.128906 61.070312 8.503906 60.75 9.207031 60.304688 L 10.636719 59.339844 C 12.261719 57.722656 14.460938 56.550781 17.234375 55.824219 C 18.636719 55.460938 19.882812 55.25 20.976562 55.195312 L 20.554688 57.207031 C 20.277344 58.519531 20.261719 59.160156 20.511719 59.132812 C 20.792969 59.074219 21.972656 57.667969 24.042969 54.902344 L 25.601562 53.898438 C 26.945312 53.171875 28.5 52.585938 30.265625 52.140625 C 33.683594 51.246094 36.726562 51.71875 39.386719 53.5625 C 40.734375 54.484375 41.824219 55.574219 42.667969 56.828125 L 43.128906 57.414062 L 43.507812 56.703125 C 44.011719 56.0625 44.851562 55.476562 46.03125 54.945312 C 47.347656 54.332031 48.242188 54.066406 48.71875 54.148438 C 48.972656 54.203125 49.113281 54.316406 49.140625 54.484375 L 49.433594 55.363281 C 49.546875 55.894531 49.644531 56.144531 49.730469 56.117188 L 50.359375 55.152344 L 50.90625 54.105469 L 52.335938 48.246094 C 54.015625 49.695312 55.78125 50.839844 57.632812 51.679688 C 63.9375 53.96875 70.160156 53.394531 76.296875 49.960938 L 77.304688 54.777344 C 77.332031 54.890625 77.667969 54.734375 78.3125 54.316406 L 79.492188 53.605469 C 80.640625 53.492188 81.886719 53.730469 83.230469 54.316406 C 83.902344 54.59375 84.464844 54.902344 84.914062 55.238281 L 82.8125 56.285156 C 81.355469 57.039062 80.679688 57.511719 80.792969 57.707031 C 80.960938 58.070312 83.933594 57.472656 89.707031 55.90625 C 91.808594 55.460938 94.300781 55.753906 97.1875 56.785156 C 98.617188 57.316406 99.863281 57.890625 100.929688 58.503906 L 103.410156 60.640625 C 105.035156 62.230469 105.832031 63.402344 105.804688 64.15625 C 104.292969 64.351562 102.90625 65.023438 101.644531 66.167969 C 100.382812 67.28125 100.046875 68.078125 100.632812 68.554688 C 100.859375 68.71875 101.195312 68.523438 101.644531 67.964844 C 102.34375 67.101562 102.960938 66.488281 103.492188 66.125 C 103.886719 65.84375 104.710938 65.539062 105.972656 65.203125 C 107.039062 64.925781 107.613281 64.644531 107.695312 64.367188 C 107.921875 63.667969 107.359375 62.566406 106.015625 61.058594 C 104.753906 59.632812 104.179688 58.878906 104.292969 58.796875 C 106.757812 56.816406 110.933594 57.207031 116.820312 59.96875 C 119.84375 61.394531 122.984375 63.207031 126.234375 65.414062 "/>
</g>
</svg>
