<?xml version="1.0" encoding="UTF-8"?>
<svg xmlns="http://www.w3.org/2000/svg" xmlns:xlink="http://www.w3.org/1999/xlink" width="128pt" height="196pt" viewBox="0 0 128 196" version="1.1">
<g id="surface1">
<path style=" stroke:none;fill-rule:nonzero;fill:rgb(100%,100%,100%);fill-opacity:1;" d="M 86.367188 146.210938 C 85.683594 146.269531 85.285156 146.453125 85.171875 146.765625 C 85.058594 147.078125 85.484375 148.328125 86.453125 150.511719 L 87.949219 153.746094 C 88.632812 152.980469 88.730469 152.453125 88.25 152.171875 C 87.933594 151.972656 87.679688 151.078125 87.480469 149.488281 C 87.308594 148.097656 87.265625 146.992188 87.351562 146.171875 L 86.367188 146.210938 M 47.914062 112.554688 C 49.421875 114.679688 51.101562 116.210938 52.953125 117.148438 C 54.777344 118.085938 56.402344 119.574219 57.824219 121.617188 C 59.277344 123.714844 60.175781 124.867188 60.519531 125.0625 L 48.851562 135.234375 L 50.175781 136.253906 L 53.9375 133.617188 L 47.699219 141.488281 L 45.347656 145.574219 L 46.972656 145.703125 L 47.570312 146.597656 C 47.742188 147.390625 47.242188 148.410156 46.074219 149.660156 L 42.445312 153.871094 L 43.597656 154.894531 L 43.726562 157.914062 C 43.667969 160.242188 43.242188 162.183594 42.445312 163.746094 C 41.589844 165.476562 40.394531 167.417969 38.855469 169.574219 L 34.964844 174.722656 L 35.09375 176.339844 L 37.488281 173.574219 L 36.71875 178.636719 C 36.347656 180.9375 34.738281 182.15625 31.890625 182.296875 C 30.75 182.328125 29.695312 182.609375 28.726562 183.148438 L 26.292969 184.808594 C 23.671875 186.597656 21.40625 187.574219 19.5 187.746094 C 18.417969 187.859375 17.347656 187.660156 16.292969 187.148438 C 15.980469 187.007812 15.824219 186.582031 15.824219 185.871094 L 16.59375 185.363281 L 17.363281 184.851562 L 16.679688 184.722656 L 15.996094 184.554688 C 16.195312 183.671875 16.566406 182.539062 17.105469 181.148438 C 18.472656 180.554688 20.351562 179.84375 22.746094 179.019531 C 25.222656 178.171875 26.792969 177.6875 27.445312 177.574219 C 28.472656 177.433594 29.367188 176.070312 30.136719 173.488281 C 30.765625 171.363281 31.078125 169.558594 31.078125 168.085938 L 30.695312 162.679688 C 30.523438 159.730469 30.636719 157.476562 31.035156 155.914062 C 31.433594 154.410156 31.976562 153.09375 32.660156 151.957031 C 32.972656 151.390625 33.257812 150.964844 33.511719 150.679688 L 35.265625 149.789062 L 35.007812 147.445312 C 34.582031 144.582031 34.609375 142.441406 35.09375 141.019531 C 35.40625 140.085938 35.90625 139.789062 36.589844 140.128906 C 36.933594 140.296875 37.230469 140.566406 37.488281 140.9375 L 37.914062 147.746094 L 40.5625 149.488281 C 39.394531 142.992188 38.753906 138.625 38.640625 136.382812 C 38.101562 136.328125 37.628906 135.175781 37.230469 132.9375 C 36.804688 130.523438 36.675781 127.859375 36.847656 124.9375 C 37.300781 116.878906 39.667969 111.035156 43.9375 107.402344 C 44.507812 107.941406 45.832031 109.660156 47.914062 112.554688 M 72.269531 100 C 73.351562 100.113281 73.863281 99.984375 73.804688 99.617188 C 73.664062 99.050781 71.527344 98.355469 67.398438 97.53125 C 66.113281 97.304688 64.5625 97.289062 62.738281 97.488281 C 60.800781 97.714844 59.621094 98.085938 59.191406 98.597656 C 58.738281 99.105469 58.792969 99.503906 59.363281 99.789062 L 62.011719 99.914062 L 68.722656 99.617188 L 72.269531 100 M 70.515625 72.46875 L 70.132812 69.277344 C 69.960938 68.425781 69.589844 68 69.019531 68 C 68.535156 68 68.292969 68.398438 68.292969 69.191406 C 68.292969 69.902344 68.492188 70.835938 68.890625 72 C 69.148438 72.738281 69.277344 74.253906 69.277344 76.554688 C 69.277344 78.511719 69.390625 79.519531 69.617188 79.574219 C 70.015625 79.632812 70.316406 78.78125 70.515625 77.019531 C 70.742188 75.234375 70.742188 73.714844 70.515625 72.46875 M 86.324219 61.914062 C 86.324219 61.574219 85.640625 61.445312 84.273438 61.53125 L 81.710938 61.914062 L 76.027344 64.722656 C 74.886719 65.261719 73.792969 66.015625 72.738281 66.980469 C 71.542969 68.085938 71.144531 68.867188 71.542969 69.320312 C 71.910156 69.746094 73.035156 69.375 74.917969 68.210938 L 79.746094 65.320312 L 84.101562 63.363281 C 85.585938 62.652344 86.324219 62.171875 86.324219 61.914062 M 91.195312 73.828125 C 91.082031 73.859375 91.066406 74.253906 91.152344 75.019531 C 91.265625 76.042969 91.253906 76.921875 91.109375 77.660156 C 90.542969 80.382812 88.175781 82.339844 84.019531 83.53125 L 80.640625 83.914062 L 77.394531 84.128906 C 76.457031 84.128906 75.402344 83.914062 74.234375 83.488281 L 71.328125 82.296875 C 71.042969 82.210938 70.773438 82.339844 70.515625 82.679688 C 70.289062 82.964844 70.175781 83.25 70.175781 83.53125 C 70.175781 83.757812 70.800781 84.070312 72.054688 84.46875 L 75.6875 85.320312 L 79.875 86.382812 L 83.933594 86.679688 C 89.515625 83.957031 92.492188 80.980469 92.863281 77.746094 C 92.976562 76.667969 92.777344 75.703125 92.265625 74.851562 C 91.867188 74.085938 91.507812 73.746094 91.195312 73.828125 M 54.28125 92.9375 C 54.507812 93.363281 56.214844 92.835938 59.40625 91.363281 C 63.023438 89.6875 65.132812 88.824219 65.730469 88.765625 L 68.550781 89.0625 L 70.941406 89.957031 L 74.234375 91.828125 C 75.542969 92.539062 76.199219 92.566406 76.199219 91.914062 C 75.230469 90.980469 74.078125 90.058594 72.738281 89.148438 C 70.089844 87.363281 67.851562 86.597656 66.03125 86.851562 C 63.921875 87.132812 61.34375 88.070312 58.296875 89.660156 C 55.304688 91.25 53.964844 92.339844 54.28125 92.9375 M 61.714844 94.128906 L 64.664062 94.253906 L 68.722656 94.128906 L 72.480469 94.554688 L 74.53125 94.425781 C 74.476562 93.746094 73.351562 93.0625 71.15625 92.382812 C 68.933594 91.671875 66.785156 91.320312 64.703125 91.320312 C 62.882812 91.320312 61.769531 91.746094 61.371094 92.597656 C 61 93.363281 61.117188 93.871094 61.714844 94.128906 M 35.351562 69.53125 L 35.308594 72.511719 C 35.308594 74.75 35.40625 76.566406 35.605469 77.957031 C 35.835938 79.632812 36.492188 81.363281 37.574219 83.148438 C 38.65625 84.964844 39.667969 86 40.605469 86.253906 C 41.945312 86.652344 43.382812 86.625 44.921875 86.171875 C 46.972656 85.574219 48.410156 85.261719 49.238281 85.234375 L 57.097656 85.191406 L 60.644531 85.660156 C 61.871094 85.859375 62.667969 85.757812 63.039062 85.363281 C 63.609375 84.625 64.019531 83.503906 64.277344 82 C 63.335938 82.992188 62.441406 83.589844 61.585938 83.789062 L 49.835938 83.445312 C 46.019531 82.765625 43.425781 82.027344 42.058594 81.234375 C 41.121094 80.695312 40.164062 79.589844 39.195312 77.914062 C 38.3125 76.382812 37.773438 75.035156 37.574219 73.871094 C 37.289062 72.453125 36.945312 71.261719 36.546875 70.296875 C 36.0625 69.078125 35.664062 68.824219 35.351562 69.53125 M 62.910156 68.722656 C 63.507812 68.722656 64.105469 68.328125 64.703125 67.53125 C 64.703125 66.992188 62.054688 65.6875 56.757812 63.617188 C 51.574219 61.574219 48.554688 60.554688 47.699219 60.554688 C 46.988281 60.554688 46.503906 60.667969 46.246094 60.894531 C 46.019531 61.0625 45.90625 61.347656 45.90625 61.746094 C 45.90625 62.199219 48.996094 63.148438 55.175781 64.597656 C 56.117188 64.824219 57.613281 65.589844 59.664062 66.894531 C 61.601562 68.113281 62.683594 68.722656 62.910156 68.722656 M 60.21875 59.277344 C 59.449219 57.714844 58.707031 56.90625 57.996094 56.851562 C 57.140625 56.792969 56.957031 57.445312 57.441406 58.808594 L 58.425781 61.617188 C 58.425781 62.097656 58.792969 62.367188 59.535156 62.425781 C 60.246094 62.511719 60.730469 62.382812 60.988281 62.042969 C 61.242188 61.703125 60.988281 60.78125 60.21875 59.277344 M 64.703125 57.019531 C 64.304688 56.851562 63.992188 57.363281 63.765625 58.554688 C 63.507812 59.773438 63.523438 60.9375 63.808594 62.042969 C 64.09375 63.148438 64.632812 64.058594 65.429688 64.765625 C 66.085938 65.363281 66.839844 65.746094 67.695312 65.914062 C 69.089844 66.199219 69.789062 65.859375 69.789062 64.894531 C 69.789062 64.582031 69.546875 64.453125 69.0625 64.511719 L 67.226562 64.425781 C 65.714844 63.972656 64.917969 62.636719 64.832031 60.425781 C 65.003906 58.269531 64.960938 57.132812 64.703125 57.019531 M 33.300781 42.597656 C 33.101562 41.121094 33.058594 40.226562 33.171875 39.914062 C 33.3125 39.488281 33.441406 39.21875 33.554688 39.105469 C 33.699219 38.9375 33.96875 38.835938 34.367188 38.808594 C 34.652344 38.808594 34.753906 39.445312 34.667969 40.722656 C 34.582031 42.199219 34.652344 43.105469 34.882812 43.445312 C 35.222656 43.902344 36.078125 44.242188 37.445312 44.46875 L 40.308594 44.636719 L 40.777344 44.511719 L 39.667969 46.382812 L 33.640625 45.019531 L 33.300781 42.597656 M 40.476562 42.425781 L 41.886719 42.511719 L 41.203125 43.828125 L 39.921875 43.746094 L 38.554688 43.746094 C 37.929688 43.714844 37.34375 43.519531 36.804688 43.148438 C 36.089844 42.667969 35.707031 42 35.648438 41.148438 C 35.621094 40.410156 35.679688 39.816406 35.820312 39.363281 L 36.035156 38.894531 L 36.25 39.53125 L 36.804688 40.765625 C 37.003906 41.105469 37.488281 41.417969 38.257812 41.703125 L 40.476562 42.425781 M 60.261719 25.488281 C 59.492188 26.425781 59.109375 27.21875 59.109375 27.871094 C 59.109375 28.46875 59.464844 28.792969 60.175781 28.851562 L 61.886719 28.722656 L 63.378906 28.722656 C 64.007812 28.636719 64.421875 28.328125 64.621094 27.789062 C 64.847656 27.191406 64.578125 26.410156 63.808594 25.445312 C 63.09375 24.539062 62.511719 24.097656 62.054688 24.128906 C 61.601562 24.128906 61 24.582031 60.261719 25.488281 M 49.621094 28.210938 C 49.480469 27.957031 49.292969 27.886719 49.066406 28 C 48.382812 28.199219 47.699219 28.609375 47.015625 29.234375 C 45.90625 30.339844 45.390625 31.105469 45.476562 31.53125 C 45.535156 31.789062 45.804688 31.660156 46.289062 31.148438 L 47.613281 29.871094 L 49.195312 28.9375 L 49.195312 28.980469 L 49.238281 28.9375 C 49.636719 28.710938 49.765625 28.46875 49.621094 28.210938 M 49.195312 31.617188 C 49.449219 31.476562 49.507812 31.277344 49.367188 31.019531 C 49.25 30.792969 49.050781 30.738281 48.765625 30.851562 C 48.425781 30.992188 48.082031 31.234375 47.742188 31.574219 C 47.371094 31.886719 47.144531 32.253906 47.058594 32.679688 C 47.03125 33.050781 47.171875 33.234375 47.484375 33.234375 C 47.800781 33.261719 47.984375 33.132812 48.042969 32.851562 C 48.070312 32.652344 48.269531 32.382812 48.640625 32.042969 L 49.195312 31.617188 M 57.78125 21.746094 C 58.066406 21.773438 59.078125 21.304688 60.816406 20.339844 L 62.355469 19.746094 L 63.125 19.445312 C 63.296875 19.21875 62.996094 18.667969 62.226562 17.789062 L 61.800781 17.445312 L 61.203125 17.53125 L 59.363281 19.0625 C 58.167969 20.226562 57.640625 21.121094 57.78125 21.746094 M 73.378906 45.871094 L 70.003906 45.53125 L 69.320312 45.617188 C 69.121094 45.730469 68.992188 45.886719 68.933594 46.085938 C 68.878906 46.285156 68.921875 46.46875 69.0625 46.636719 C 69.207031 46.808594 69.390625 46.921875 69.617188 46.980469 L 70.429688 47.148438 L 72.054688 46.980469 L 73.464844 46.339844 L 73.761719 46.042969 L 73.378906 45.871094 M 79.875 39.871094 C 80.074219 39.984375 80.128906 40.15625 80.042969 40.382812 C 79.84375 40.867188 79.558594 41.132812 79.191406 41.191406 L 74.148438 42.765625 L 70.859375 43.019531 L 67.523438 42.554688 C 66.839844 42.355469 65.628906 41.84375 63.894531 41.019531 L 61.5 39.871094 L 60.859375 39.363281 C 60.6875 39.078125 60.773438 38.808594 61.117188 38.554688 L 63.125 38.382812 L 66.03125 39.363281 C 68.222656 40.015625 69.976562 40.382812 71.285156 40.46875 L 79.234375 39.789062 L 79.875 39.871094 M 80.515625 37.53125 C 80.371094 37.390625 80.242188 37.332031 80.128906 37.363281 C 80.042969 37.390625 80 37.503906 80 37.703125 L 80 38.253906 L 79.789062 38.808594 C 79.644531 38.949219 79.460938 39.035156 79.234375 39.0625 C 76.042969 39.714844 73.535156 39.957031 71.710938 39.789062 C 70.601562 39.671875 68.90625 39.277344 66.628906 38.597656 L 63.550781 37.617188 L 62.953125 37.234375 C 62.78125 37.007812 62.738281 36.808594 62.824219 36.636719 L 63.378906 35.445312 L 63.378906 35.105469 L 62.996094 35.148438 L 58.851562 37.789062 C 58.652344 37.902344 58.496094 38.070312 58.382812 38.296875 L 58.253906 38.894531 L 58.851562 42.210938 C 58.878906 42.410156 58.949219 42.523438 59.066406 42.554688 L 59.40625 42.339844 L 59.535156 40.679688 L 60.089844 40.339844 C 60.316406 40.253906 60.53125 40.253906 60.730469 40.339844 L 64.234375 42.46875 C 66.882812 43.886719 69.050781 44.597656 70.730469 44.597656 C 72.382812 44.566406 74.246094 44.097656 76.328125 43.191406 C 77.382812 42.738281 78.265625 42.285156 78.976562 41.828125 L 79.53125 41.914062 L 79.703125 42.339844 L 79.660156 42.722656 C 79.660156 43.175781 79.800781 43.21875 80.085938 42.851562 L 81.925781 40.382812 L 82.136719 39.789062 L 81.925781 39.191406 L 80.515625 37.53125 M 80.472656 25.402344 C 80.015625 24.554688 79.589844 24.140625 79.191406 24.171875 C 78.761719 24.199219 78.277344 24.597656 77.738281 25.363281 C 77.222656 26.128906 76.953125 26.851562 76.925781 27.53125 C 76.925781 28.128906 77.222656 28.511719 77.824219 28.679688 L 79.316406 28.765625 L 80.558594 28.722656 C 80.957031 28.609375 81.15625 28.253906 81.15625 27.660156 C 81.15625 26.980469 80.925781 26.226562 80.472656 25.402344 M 71.585938 28.808594 L 73.164062 31.746094 C 73.421875 32.140625 73.378906 32.554688 73.035156 32.980469 L 71.457031 34.808594 C 71.3125 34.980469 71.269531 35.132812 71.328125 35.277344 C 71.355469 35.445312 71.484375 35.546875 71.710938 35.574219 L 72.394531 35.789062 C 72.910156 35.84375 73.335938 35.6875 73.679688 35.320312 L 75.601562 32.894531 C 75.914062 32.496094 75.914062 32.097656 75.601562 31.703125 L 72.566406 27.871094 L 71.070312 24.894531 C 70.929688 24.441406 70.6875 24.242188 70.34375 24.296875 C 70.230469 24.328125 70.160156 24.410156 70.132812 24.554688 L 70.132812 25.0625 L 70.515625 26.253906 L 71.585938 28.808594 M 76.796875 19.402344 C 76.738281 19.660156 76.78125 19.886719 76.925781 20.085938 C 77.066406 20.253906 77.28125 20.339844 77.566406 20.339844 L 80.8125 20.46875 L 81.285156 20.382812 L 80.984375 20.042969 L 77.949219 18.253906 L 77.308594 18.210938 C 77.109375 18.296875 76.980469 18.453125 76.925781 18.679688 L 76.796875 19.402344 M 74.363281 12.210938 L 76.710938 14.636719 L 78.632812 16.9375 C 79.601562 17.757812 80.640625 18.253906 81.753906 18.425781 C 83.691406 21.632812 84.945312 24.792969 85.511719 27.914062 C 86.398438 32.992188 85.585938 37.914062 83.078125 42.679688 C 80.457031 47.671875 76.597656 51.175781 71.5 53.191406 C 68.449219 54.382812 65.21875 54.367188 61.800781 53.148438 C 60.71875 52.75 58.878906 51.789062 56.289062 50.253906 C 52.839844 48.15625 50.007812 45.132812 47.785156 41.191406 C 46.417969 41.304688 45.191406 40.992188 44.109375 40.253906 C 44.507812 39.207031 44.722656 38.269531 44.75 37.445312 C 44.863281 36.3125 44.308594 34.78125 43.085938 32.851562 L 43.042969 32.339844 L 43.042969 32.296875 L 44.582031 30.382812 C 45.546875 29.191406 46.402344 28.253906 47.144531 27.574219 C 47.628906 27.148438 48.324219 26.695312 49.238281 26.210938 C 49.664062 25.984375 49.863281 25.714844 49.835938 25.402344 C 49.777344 25.09375 49.59375 24.992188 49.28125 25.105469 C 48.539062 25.304688 47.613281 25.886719 46.503906 26.851562 C 45.105469 28.070312 43.882812 29.644531 42.828125 31.574219 L 42.699219 30.722656 C 44.152344 28.253906 45.519531 26.480469 46.800781 25.402344 L 50.050781 22.894531 C 50.335938 22.75 50.40625 22.566406 50.261719 22.339844 C 50.121094 22.140625 49.863281 22.097656 49.492188 22.210938 C 48.925781 22.382812 47.800781 23.25 46.117188 24.808594 C 44.664062 26.3125 43.511719 27.929688 42.65625 29.660156 C 42.714844 27.332031 43.855469 25.25 46.074219 23.402344 C 47.074219 22.582031 48.398438 21.746094 50.050781 20.894531 C 50.617188 20.609375 50.605469 20.296875 50.007812 19.957031 C 47.8125 18.792969 47.085938 17.402344 47.828125 15.789062 C 48.539062 14.285156 49.636719 13.617188 51.117188 13.789062 L 54.621094 14.46875 L 56.628906 14.9375 C 57.425781 14.964844 58.097656 14.710938 58.636719 14.171875 C 59.777344 13.007812 61.03125 12.253906 62.398438 11.914062 C 63.679688 11.601562 64.804688 11.6875 65.773438 12.171875 C 66.714844 12.679688 67.523438 13.007812 68.207031 13.148438 L 70.730469 12.9375 L 72.183594 12.296875 L 74.363281 12.210938 M 83.378906 18.339844 C 84.0625 18.140625 84.6875 17.816406 85.257812 17.363281 C 85.828125 16.878906 86.269531 16.949219 86.582031 17.574219 C 86.894531 18.171875 86.9375 18.964844 86.710938 19.957031 C 86.597656 20.496094 86.15625 21.332031 85.386719 22.46875 L 84.0625 19.746094 L 83.378906 18.339844 M 59.449219 2 L 60.558594 1.234375 C 61.984375 0.410156 63.054688 0.0585938 63.765625 0.171875 C 64.191406 0.226562 64.703125 0.609375 65.304688 1.320312 L 66.714844 3.277344 L 68.039062 5.0625 L 70.386719 5.234375 C 71.785156 4.835938 72.867188 4.722656 73.636719 4.894531 C 74.605469 5.121094 76.214844 6.496094 78.464844 9.019531 C 79.261719 9.871094 80.230469 10.367188 81.367188 10.511719 C 82.535156 10.652344 83.589844 10.382812 84.53125 9.703125 C 85.214844 9.21875 85.527344 8.523438 85.472656 7.617188 C 86.15625 8.242188 86.625 8.964844 86.878906 9.789062 C 87.28125 10.835938 87.28125 12.042969 86.878906 13.402344 C 86.453125 14.824219 85.714844 15.957031 84.660156 16.808594 C 83.945312 17.402344 83.09375 17.617188 82.09375 17.445312 C 81.242188 17.304688 80.386719 16.894531 79.53125 16.210938 L 77.695312 14 C 76.496094 12.582031 75.644531 11.746094 75.128906 11.488281 C 74.277344 11.035156 73.550781 10.851562 72.953125 10.9375 C 72.695312 10.964844 72.082031 11.191406 71.113281 11.617188 L 69.960938 12.128906 L 68.507812 11.957031 L 66.628906 10.894531 C 65.289062 10.042969 64.390625 9.53125 63.9375 9.363281 C 62.96875 8.9375 61.570312 9.546875 59.75 11.191406 L 56.542969 14 C 56.144531 14.085938 55.320312 13.871094 54.066406 13.363281 C 52.640625 12.765625 51.660156 12.441406 51.117188 12.382812 C 49.378906 12.183594 48 12.566406 46.972656 13.53125 C 46.261719 14.242188 45.777344 15.132812 45.519531 16.210938 C 45.378906 16.921875 45.707031 17.746094 46.503906 18.679688 C 47.074219 19.363281 47.785156 20 48.640625 20.597656 C 47.074219 21.617188 45.960938 22.398438 45.304688 22.9375 C 43.625 24.382812 42.5 26.15625 41.929688 28.253906 C 41.445312 26.921875 41.089844 25.375 40.863281 23.617188 C 40.351562 20.097656 40.675781 17.261719 41.84375 15.105469 C 42.472656 13.886719 43.242188 12.738281 44.152344 11.660156 C 45.347656 10.15625 46.488281 9.207031 47.570312 8.808594 L 50.09375 6.128906 C 51.488281 4.566406 52.984375 3.6875 54.578125 3.488281 L 58.167969 2.636719 C 58.59375 2.523438 59.023438 2.3125 59.449219 2 M 103.160156 160.171875 C 103.984375 162.328125 104.257812 165.53125 103.972656 169.789062 L 103.289062 175.660156 L 101.367188 175.789062 L 112.046875 188.171875 L 114.140625 190.296875 C 114.769531 190.949219 115.066406 191.347656 115.039062 191.488281 C 114.953125 191.800781 114.625 192.042969 114.054688 192.210938 L 110.339844 193.234375 L 108.246094 193.703125 L 106.792969 192.085938 L 106.277344 194.425781 L 105.808594 195.277344 C 105.382812 195.757812 104.796875 196 104.058594 196 C 103.058594 196 102.207031 195.445312 101.492188 194.339844 C 100.925781 193.460938 100.625 192.652344 100.597656 191.914062 C 100.566406 190.15625 99.726562 187.320312 98.074219 183.402344 L 95.46875 177.660156 L 95.46875 177.574219 C 92.363281 173.320312 89.898438 169.445312 88.078125 165.957031 C 86.964844 163.800781 86.296875 161.375 86.070312 158.679688 L 86.070312 155.191406 L 88.25 156.085938 L 86.496094 153.445312 L 84.144531 147.914062 L 83.71875 146.46875 L 81.667969 146.171875 C 80.1875 145.714844 79.316406 145.390625 79.0625 145.191406 C 78.433594 144.738281 77.410156 143.433594 75.984375 141.277344 L 73.890625 138.210938 C 72.4375 136.085938 70.742188 133.175781 68.808594 129.488281 L 66.285156 124.554688 L 69.535156 123.789062 C 71.925781 122.738281 73.691406 120.878906 74.832031 118.210938 L 78.761719 109.0625 C 80.128906 106.085938 81.167969 104.382812 81.882812 103.957031 L 87.394531 111.402344 C 91.097656 117.191406 93.417969 122.765625 94.359375 128.128906 C 95.011719 131.816406 95.339844 135.09375 95.339844 137.957031 L 95.128906 141.234375 L 92.476562 138.636719 L 91.75 138.636719 C 91.265625 138.695312 91.027344 138.878906 91.027344 139.191406 C 91.027344 139.445312 91.523438 140.285156 92.519531 141.703125 L 94.230469 144.425781 L 94.914062 147.957031 L 95.382812 152 L 95.171875 154.253906 C 95.085938 154.90625 95.15625 155.320312 95.382812 155.488281 L 96.195312 156.128906 C 96.453125 156.242188 96.578125 155.984375 96.578125 155.363281 C 96.578125 154.367188 96.949219 152.070312 97.691406 148.46875 C 100.339844 153.773438 102.164062 157.671875 103.160156 160.171875 M 104.1875 40.382812 L 103.503906 37.617188 C 105.609375 39.488281 106.59375 40.183594 106.449219 39.703125 L 105.765625 37.789062 C 105.226562 36.566406 104.46875 35.375 103.503906 34.210938 C 102.734375 33.277344 101.691406 32.765625 100.382812 32.679688 C 99.273438 32.597656 98.53125 32.140625 98.160156 31.320312 C 98.074219 31.148438 98.191406 30.199219 98.503906 28.46875 L 98.886719 25.574219 L 96.621094 25.320312 L 96.664062 28.296875 C 96.636719 30.058594 96.679688 31.207031 96.792969 31.746094 L 96.109375 31.789062 L 94.742188 33.402344 L 93.375 34.085938 C 92.550781 34.480469 92.152344 34.722656 92.179688 34.808594 L 95 34.980469 C 95.3125 35.0625 95.539062 35.375 95.683594 35.914062 L 95.726562 36.808594 C 95.527344 37.207031 94.898438 37.53125 93.84375 37.789062 L 90.941406 38.511719 L 87.09375 37.234375 C 87.835938 33.773438 87.777344 30.355469 86.921875 26.980469 C 87.351562 26.328125 88.746094 25.332031 91.109375 24 C 93.5625 22.667969 95.8125 21.671875 97.863281 21.019531 C 100.484375 21.53125 104.910156 23.941406 111.148438 28.253906 C 117.105469 32.367188 120.90625 35.488281 122.558594 37.617188 C 124.667969 40.339844 126.460938 45.191406 127.941406 52.171875 C 122.871094 58.609375 118.628906 63.363281 115.210938 66.425781 C 112.191406 68.496094 109.398438 69.546875 106.835938 69.574219 C 105.011719 69.601562 102.988281 69.0625 100.765625 67.957031 C 97.691406 66.398438 95.910156 65.546875 95.425781 65.402344 C 93.402344 64.78125 91.382812 64.949219 89.359375 65.914062 C 92.804688 65.519531 96.339844 66.609375 99.957031 69.191406 C 101.609375 70.355469 102.960938 71.09375 104.015625 71.402344 C 105.695312 71.941406 107.589844 71.902344 109.699219 71.277344 C 106.761719 73.433594 102.304688 76.523438 96.324219 80.554688 L 88.25 85.957031 L 87.394531 88.722656 C 86.710938 90.566406 85.996094 91.53125 85.257812 91.617188 C 84.828125 91.671875 84.546875 90.9375 84.402344 89.402344 C 84.289062 87.984375 84.089844 87.375 83.804688 87.574219 L 82.136719 94.851562 L 80.085938 101.148438 C 78.007812 102.597656 76.226562 103.660156 74.746094 104.339844 C 70.984375 106.042969 67.097656 106.792969 63.082031 106.597656 C 58.980469 106.367188 54.863281 105.347656 50.734375 103.53125 C 48.226562 102.398438 46.175781 101.234375 44.582031 100.042969 L 42.785156 93.660156 C 42.613281 92.695312 42.386719 91.941406 42.101562 91.402344 C 41.5625 90.382812 41.035156 90.824219 40.519531 92.722656 C 38.300781 91.789062 36.332031 90.453125 34.625 88.722656 C 27.191406 81.574219 22.648438 76.894531 20.996094 74.679688 L 23.6875 74.597656 L 25.183594 74.339844 L 19.96875 73.0625 C 16.207031 71.984375 13.660156 70.808594 12.320312 69.53125 C 10.128906 67.460938 7.519531 64.539062 4.5 60.765625 L 0.0585938 54.9375 C 0.484375 52.894531 1.054688 50.808594 1.765625 48.679688 C 2.992188 45.019531 4.34375 42.296875 5.824219 40.511719 C 7.734375 38.15625 12.621094 35.476562 20.480469 32.46875 C 24.441406 30.9375 28.214844 29.644531 31.804688 28.597656 L 36.675781 29.363281 C 37.558594 29.617188 38.8125 30.597656 40.4375 32.296875 C 42.230469 34.199219 43.269531 35.886719 43.554688 37.363281 L 43.296875 38.765625 L 42.402344 40.722656 L 41.246094 40.765625 L 40.050781 40.679688 C 39.625 40.710938 39.167969 40.480469 38.683594 40 L 37.53125 38.808594 C 36.933594 38.296875 37.214844 37.375 38.382812 36.042969 C 38.585938 35.816406 38.925781 36.058594 39.410156 36.765625 C 39.921875 37.503906 40.292969 37.816406 40.519531 37.703125 C 40.835938 37.53125 40.71875 37.007812 40.179688 36.128906 C 39.695312 35.363281 39.167969 34.722656 38.597656 34.210938 L 37.230469 34.296875 L 36.546875 34.980469 C 35.492188 34.980469 34.625 34.679688 33.941406 34.085938 C 33.457031 33.660156 32.914062 33.347656 32.316406 33.148438 L 31.164062 33.234375 L 31.292969 33.828125 C 31.433594 34.253906 31.589844 34.496094 31.761719 34.554688 L 34.625 36.46875 C 33.742188 37.035156 33.101562 37.53125 32.703125 37.957031 C 32.503906 38.210938 32.304688 39.148438 32.105469 40.765625 L 31.890625 43.191406 L 30.949219 42.554688 L 29.882812 42 C 29.398438 41.828125 29.097656 41.402344 28.984375 40.722656 C 28.871094 40.070312 28.957031 39.332031 29.242188 38.511719 L 30.695312 37.402344 L 31.976562 36.339844 L 28.941406 35.703125 L 27.789062 37.53125 L 27.746094 37.574219 L 24.753906 42.765625 L 22.960938 45.828125 L 20.566406 48.980469 C 18.886719 51.390625 16.238281 53.417969 12.621094 55.0625 C 11.453125 55.601562 10.285156 55.914062 9.117188 56 L 7.621094 56.128906 C 7.476562 56.296875 7.917969 56.523438 8.945312 56.808594 L 11.378906 56.9375 C 11.039062 58.042969 11.253906 59.375 12.019531 60.9375 L 13.304688 62.980469 L 12.960938 59.871094 C 12.789062 57.746094 12.863281 56.554688 13.175781 56.296875 C 14.171875 55.957031 15.710938 54.949219 17.789062 53.277344 L 21.59375 49.957031 C 24.355469 49.644531 26.71875 50.824219 28.683594 53.488281 L 29.410156 54.765625 L 29.496094 55.019531 L 29.539062 55.019531 C 30.308594 56.722656 30.835938 58.980469 31.121094 61.789062 L 31.292969 65.445312 C 32.261719 61.277344 32.160156 57.789062 30.992188 54.980469 C 32.84375 55.09375 35.421875 55.574219 38.726562 56.425781 L 40.351562 56.980469 L 40.691406 57.148438 L 41.675781 57.53125 L 44.621094 58.722656 C 46.472656 59.460938 47.457031 59.730469 47.570312 59.53125 C 47.683594 59.332031 47.015625 58.851562 45.5625 58.085938 L 43.382812 57.019531 L 45.136719 56.085938 C 46.472656 55.488281 47.726562 55.25 48.894531 55.363281 L 50.09375 56.085938 C 50.777344 56.511719 51.132812 56.667969 51.160156 56.554688 L 52.527344 49.574219 C 58.394531 54.140625 64.746094 55.671875 71.585938 54.171875 C 73.40625 53.632812 75.203125 52.824219 76.96875 51.746094 L 77.949219 55.871094 L 78.507812 56.9375 L 79.148438 57.914062 L 79.445312 57.148438 L 79.746094 56.253906 L 80.171875 55.914062 C 80.65625 55.828125 81.566406 56.097656 82.90625 56.722656 C 84.101562 57.261719 85.113281 57.957031 85.941406 58.808594 L 86.753906 59.871094 L 87.394531 58.339844 C 90.242188 53.375 93.289062 50.511719 96.539062 49.746094 L 101.621094 49.363281 C 102.417969 49.445312 103.03125 49.574219 103.460938 49.746094 C 109.527344 54.140625 112.703125 56.3125 112.988281 56.253906 C 113.242188 56.199219 112.21875 54.949219 109.910156 52.511719 L 106.449219 48.808594 L 107.304688 48.511719 L 109.527344 47.957031 L 115.507812 50.296875 C 118.101562 51.121094 119.753906 50.992188 120.464844 49.914062 C 118.984375 50.058594 116.71875 49.234375 113.671875 47.445312 C 110.480469 45.601562 108.371094 44.679688 107.347656 44.679688 C 105.980469 43.800781 104.925781 42.367188 104.1875 40.382812 "/>
</g>
</svg>
