<?xml version="1.0" encoding="UTF-8"?>
<svg xmlns="http://www.w3.org/2000/svg" xmlns:xlink="http://www.w3.org/1999/xlink" width="128pt" height="237pt" viewBox="0 0 128 237" version="1.1">
<g id="surface1">
<path style=" stroke:none;fill-rule:nonzero;fill:rgb(100%,100%,100%);fill-opacity:1;" d="M 97.5625 227.117188 C 99.332031 227.007812 101.050781 226.59375 102.710938 225.875 C 104.011719 228.320312 104.628906 229.996094 104.554688 230.898438 C 104.375 234.101562 102.367188 235.972656 98.539062 236.515625 C 96.222656 236.839844 93.621094 236.082031 90.730469 234.246094 C 88.34375 232.769531 86.753906 231.363281 85.957031 230.03125 C 85.488281 229.167969 85.378906 228.035156 85.632812 226.628906 L 97.5625 227.117188 M 25.394531 225.0625 C 20.589844 225.386719 15.890625 224.992188 11.300781 223.875 L 10.757812 223.714844 L 9.671875 223.121094 C 9.601562 222.722656 10.324219 222.148438 11.839844 221.390625 C 13.179688 220.707031 16.179688 219.753906 20.839844 218.527344 C 25.613281 220.21875 29.789062 221.191406 33.367188 221.445312 L 44.371094 220.90625 C 44.265625 222.238281 43.8125 223.191406 43.015625 223.765625 C 42.222656 224.308594 40.59375 224.578125 38.136719 224.578125 L 36.726562 222.957031 L 36.621094 222.847656 L 36.457031 222.902344 C 32.226562 224.019531 28.539062 224.738281 25.394531 225.0625 M 2.894531 149.125 L 3.21875 148.746094 L 5.171875 146.800781 C 6.257812 148.78125 7.539062 150.457031 9.023438 151.824219 C 10.902344 153.515625 12.960938 154.542969 15.203125 154.902344 L 22.46875 154.6875 C 23.15625 156.089844 23.445312 157.207031 23.335938 158.035156 C 23.15625 159.65625 22.738281 160.789062 22.089844 161.4375 C 21.65625 161.835938 20.804688 162.195312 19.539062 162.519531 L 19.433594 162.574219 L 18.945312 162.464844 L 18.457031 162.195312 C 17.949219 161.152344 17.789062 160.234375 17.96875 159.441406 C 18.367188 158.574219 18.417969 157.964844 18.128906 157.605469 L 17.695312 157.441406 C 17.191406 157.550781 16.792969 158.109375 16.503906 159.117188 C 15.960938 160.628906 15.890625 161.835938 16.289062 162.734375 C 16.503906 163.203125 16.59375 163.851562 16.558594 164.679688 C 16.558594 165.472656 16.433594 166.171875 16.179688 166.785156 C 15.960938 167.398438 15.65625 167.792969 15.257812 167.972656 C 15.039062 167.972656 14.714844 167.8125 14.28125 167.488281 C 13.484375 166.910156 12.761719 166.136719 12.113281 165.164062 C 11.316406 164.011719 10.867188 162.898438 10.757812 161.816406 L 10.703125 161.761719 L 10.105469 161.167969 C 9.925781 161.132812 9.746094 161.1875 9.5625 161.332031 L 9.292969 161.601562 C 9.039062 162.210938 9.148438 163.113281 9.617188 164.300781 L 9.835938 165.21875 C 8.859375 164.824219 7.957031 164.191406 7.125 163.328125 C 6.148438 162.355469 5.480469 161.402344 5.117188 160.464844 C 4.863281 159.820312 4.683594 158.917969 4.574219 157.765625 L 4.574219 157.710938 C 4.503906 157.28125 4.339844 157.0625 4.089844 157.0625 C 3.761719 156.992188 3.4375 157.207031 3.113281 157.710938 L 3.113281 157.875 L 3.058594 158.089844 C 2.839844 158.953125 2.75 159.675781 2.785156 160.25 C 2.101562 159.53125 1.523438 158.703125 1.050781 157.765625 C 0.363281 156.398438 0.0742188 155.066406 0.183594 153.769531 C 0.21875 152.90625 1.125 151.355469 2.894531 149.125 M 74.191406 155.066406 C 80.878906 154.019531 85.851562 152.832031 89.101562 151.5 C 89.828125 153.121094 91.507812 158.269531 94.144531 166.949219 C 97.183594 176.8125 99.242188 184.339844 100.328125 189.523438 C 101.449219 194.925781 102.40625 201.894531 103.199219 210.425781 C 103.921875 218.167969 104.160156 222.363281 103.90625 223.011719 C 103.761719 223.371094 102.875 223.75 101.25 224.144531 L 96.53125 224.847656 C 94.832031 224.957031 92.683594 224.917969 90.078125 224.738281 C 86.863281 224.523438 84.765625 224.128906 83.789062 223.550781 C 83.5 223.261719 82.398438 220.273438 80.484375 214.585938 L 75.167969 199.949219 C 72.3125 193 68.519531 185.222656 63.78125 176.617188 L 57.441406 165.652344 L 56.953125 165.867188 L 59.230469 172.023438 L 56.300781 178.992188 C 54.3125 183.851562 52.722656 188.210938 51.53125 192.0625 C 49.613281 198.113281 47.425781 206.96875 44.96875 218.636719 L 44.535156 218.960938 L 34.34375 219.445312 L 28.054688 218.636719 C 25.992188 218.058594 24.292969 217.125 22.957031 215.828125 C 25.234375 200.417969 26.894531 189.558594 27.945312 183.257812 C 28.59375 179.335938 29.859375 173.339844 31.738281 165.273438 L 34.777344 152.417969 L 40.414062 153.5 C 47.03125 155.480469 53.96875 156.46875 61.234375 156.46875 C 65.066406 156.46875 69.386719 156 74.191406 155.066406 M 38.84375 78.316406 L 40.199219 76.964844 C 42.003906 78.011719 43.832031 78.839844 45.675781 79.449219 C 48.347656 84.5625 53.265625 86.292969 60.421875 84.636719 C 63.457031 83.914062 66.1875 82.617188 68.609375 80.746094 C 71.210938 78.730469 72.964844 76.40625 73.867188 73.777344 C 76.433594 74.96875 78.945312 76.335938 81.40625 77.882812 C 79.667969 79.648438 77.210938 81.160156 74.03125 82.421875 C 71.644531 83.355469 69.746094 83.898438 68.335938 84.042969 C 67.179688 84.183594 66.277344 84.5625 65.625 85.175781 C 65.011719 85.75 64.578125 86.652344 64.324219 87.875 C 63.242188 92.664062 62.410156 97.902344 61.832031 103.59375 C 61.542969 106.617188 61.363281 111.226562 61.289062 117.417969 C 61.253906 123.503906 61.34375 127.699219 61.558594 130.003906 C 61.632812 130.582031 61.921875 131.121094 62.425781 131.625 C 62.96875 132.164062 63.546875 132.453125 64.164062 132.488281 C 66.152344 132.667969 70.378906 132.5625 76.851562 132.164062 L 88.34375 130.761719 C 88.054688 136.664062 88.128906 143.039062 88.5625 149.878906 C 85.488281 151.210938 81.1875 152.292969 75.65625 153.121094 L 61.453125 154.417969 L 60.476562 154.417969 C 56.28125 154.238281 50.625 153.410156 43.503906 151.933594 L 34.992188 149.503906 C 35.210938 143.019531 34.976562 136.359375 34.289062 129.519531 C 35.949219 130.203125 37.289062 130.597656 38.300781 130.707031 C 39.023438 130.816406 39.566406 130.6875 39.925781 130.328125 C 40.359375 129.933594 40.542969 128.996094 40.46875 127.519531 L 40.46875 127.359375 L 40.359375 119.09375 C 40.433594 113.621094 40.703125 108.992188 41.171875 105.214844 C 41.644531 101.398438 42.476562 97.023438 43.667969 92.089844 L 45.566406 84.851562 C 45.855469 84.058594 45.871094 83.304688 45.621094 82.582031 C 45.367188 81.863281 44.914062 81.359375 44.265625 81.070312 L 43.558594 80.855469 L 43.503906 80.800781 C 41.15625 79.9375 39.601562 79.109375 38.84375 78.316406 M 36.835938 78.855469 L 37.214844 79.394531 C 38.191406 80.546875 40.070312 81.609375 42.855469 82.582031 L 43.015625 82.691406 L 43.449219 82.851562 C 43.882812 83.03125 43.992188 83.484375 43.777344 84.203125 C 43.304688 85.464844 42.621094 88.039062 41.714844 91.925781 C 40.558594 96.824219 39.726562 101.179688 39.222656 104.996094 C 38.753906 108.742188 38.5 113.421875 38.460938 119.039062 C 38.425781 122.425781 38.445312 125.234375 38.515625 127.464844 L 38.570312 128.816406 C 36.910156 128.527344 35.390625 128.023438 34.015625 127.304688 L 33.746094 125.035156 C 33.058594 118.949219 32.300781 114.449219 31.46875 111.53125 L 27.890625 100.191406 L 27.078125 100.351562 L 30.113281 115.257812 C 30.765625 118.5 31.34375 122.640625 31.847656 127.683594 L 31.957031 129.464844 L 31.144531 130.761719 C 28.539062 135.046875 26.300781 139.746094 24.421875 144.855469 C 23.40625 147.628906 22.632812 150.113281 22.089844 152.3125 L 15.148438 152.582031 C 12.945312 152.222656 10.972656 150.925781 9.238281 148.691406 C 8.191406 147.324219 7.414062 145.9375 6.90625 144.535156 C 6.691406 144.027344 6.691406 143.238281 6.90625 142.15625 L 6.960938 141.671875 C 7.539062 137.3125 8.425781 132.667969 9.617188 127.734375 C 11.640625 119.527344 14.207031 111.929688 17.316406 104.941406 C 20.570312 97.707031 24.492188 91.496094 29.082031 86.308594 C 31.578125 83.394531 34.160156 80.910156 36.835938 78.855469 M 49.089844 66.867188 L 48.167969 66.703125 L 47.191406 66.917969 L 43.613281 67.351562 C 43.289062 67.386719 43.109375 67.476562 43.070312 67.621094 L 43.503906 68 L 45.347656 68.917969 L 48.601562 68.863281 L 49.359375 68.324219 C 49.578125 68.070312 49.648438 67.800781 49.578125 67.515625 L 49.089844 66.867188 M 58.796875 55.847656 C 59.335938 55.8125 59.84375 55.972656 60.3125 56.332031 C 60.78125 56.695312 60.875 57.089844 60.585938 57.523438 L 59.714844 58.332031 C 55.777344 60.492188 53.066406 61.84375 51.582031 62.382812 L 47.082031 63.085938 L 42.746094 62.816406 L 36.023438 60.601562 C 35.515625 60.492188 35.15625 60.097656 34.9375 59.410156 C 34.757812 58.800781 35.121094 58.492188 36.023438 58.492188 L 39.710938 59.089844 L 46.59375 59.359375 C 49.453125 59.105469 53.121094 58.027344 57.601562 56.117188 L 58.796875 55.847656 M 57.386719 51.308594 C 57.277344 51.417969 57.292969 51.597656 57.441406 51.851562 L 58.089844 53.578125 C 58.234375 53.832031 58.179688 54.117188 57.925781 54.441406 L 57.113281 55.039062 C 52.199219 56.945312 48.511719 58.042969 46.054688 58.332031 L 39.710938 58.0625 L 36.078125 57.46875 C 35.789062 57.429688 35.535156 57.304688 35.316406 57.089844 L 35.046875 56.28125 L 35.046875 55.523438 L 34.9375 54.984375 C 34.792969 54.945312 34.632812 55.039062 34.449219 55.253906 L 32.5 57.738281 L 32.171875 58.601562 L 32.390625 59.464844 L 34.777344 63.03125 C 35.136719 63.570312 35.316406 63.5 35.316406 62.816406 L 35.316406 62.328125 C 35.28125 62.039062 35.371094 61.804688 35.589844 61.625 L 36.292969 61.519531 L 39.765625 63.460938 C 42.511719 64.757812 45.003906 65.390625 47.246094 65.351562 C 49.453125 65.351562 52.359375 64.292969 55.976562 62.167969 L 60.746094 58.925781 C 61.398438 58.675781 61.941406 58.835938 62.375 59.410156 L 62.425781 61.898438 L 62.914062 62.21875 L 63.242188 61.679688 L 64.164062 56.765625 L 64 55.902344 L 63.402344 55.199219 L 57.925781 51.417969 L 57.386719 51.308594 M 59.230469 38.402344 L 59.175781 38.402344 L 58.089844 38.886719 L 56.953125 39.753906 L 56.84375 39.804688 L 56.191406 40.5625 L 56.085938 40.722656 C 55.648438 41.371094 55.578125 41.914062 55.867188 42.34375 C 56.085938 42.882812 56.609375 43.136719 57.441406 43.101562 L 57.492188 43.101562 L 58.46875 42.9375 L 59.066406 42.777344 L 59.121094 42.777344 L 59.988281 42.34375 L 60.042969 42.34375 C 60.910156 41.875 61.542969 41.28125 61.941406 40.5625 L 61.992188 40.507812 L 62.210938 40.183594 C 62.425781 39.679688 62.425781 39.230469 62.210938 38.832031 C 61.992188 38.402344 61.523438 38.148438 60.800781 38.078125 L 60.636719 38.132812 L 60.421875 38.132812 L 59.230469 38.402344 M 59.664062 25.980469 L 58.902344 27.058594 C 58.398438 27.78125 58.214844 28.246094 58.359375 28.464844 L 59.390625 28.894531 L 61.453125 29.707031 L 63.835938 31.003906 C 64.667969 31.507812 65.191406 31.742188 65.410156 31.703125 C 65.664062 30.804688 65.011719 29.527344 63.457031 27.871094 L 61.070312 25.601562 C 60.457031 25.242188 59.988281 25.367188 59.664062 25.980469 M 40.957031 47.53125 C 40.921875 47.855469 40.992188 48.140625 41.171875 48.394531 L 43.667969 51.90625 C 44.101562 52.410156 44.660156 52.605469 45.347656 52.5 L 46.269531 52.230469 L 46.8125 51.796875 C 46.886719 51.582031 46.832031 51.347656 46.648438 51.09375 L 44.644531 48.449219 C 44.210938 47.871094 44.15625 47.257812 44.480469 46.613281 L 46.703125 42.289062 C 47.570312 40.527344 48.277344 38.691406 48.820312 36.78125 L 48.871094 36.023438 L 48.546875 35.648438 C 48.1875 35.574219 47.84375 35.882812 47.515625 36.566406 L 45.402344 40.941406 L 41.226562 46.664062 C 41.046875 46.882812 40.957031 47.167969 40.957031 47.53125 M 38.570312 38.078125 L 38.410156 38.132812 L 38.191406 38.132812 L 36.945312 38.402344 L 35.859375 38.886719 L 34.722656 39.753906 L 34.613281 39.804688 L 33.960938 40.5625 L 33.855469 40.722656 C 33.421875 41.371094 33.347656 41.914062 33.636719 42.34375 C 33.855469 42.882812 34.378906 43.136719 35.210938 43.101562 L 35.265625 43.101562 L 36.238281 42.9375 L 36.835938 42.777344 L 37.757812 42.34375 L 37.8125 42.34375 C 38.679688 41.875 39.3125 41.28125 39.710938 40.5625 L 39.980469 40.183594 C 40.199219 39.679688 40.199219 39.230469 39.980469 38.832031 C 39.765625 38.402344 39.292969 38.148438 38.570312 38.078125 M 39.058594 30.085938 C 39.421875 30.046875 39.710938 29.902344 39.925781 29.652344 C 40.144531 29.363281 40.214844 29.039062 40.144531 28.679688 L 39.980469 27.597656 C 39.910156 27.238281 39.726562 27.003906 39.4375 26.898438 L 38.570312 27.003906 L 34.503906 29.652344 L 34.070312 30.136719 L 34.722656 30.300781 L 39.058594 30.085938 M 78.476562 45.855469 L 77.175781 44.828125 C 76.777344 44.648438 76.488281 44.738281 76.308594 45.097656 C 76.089844 45.496094 76.164062 45.785156 76.523438 45.964844 L 77.285156 46.558594 C 77.753906 47.027344 78.007812 47.421875 78.042969 47.746094 C 78.113281 48.140625 78.367188 48.339844 78.800781 48.339844 C 79.199219 48.304688 79.378906 48.015625 79.34375 47.476562 C 79.234375 46.863281 78.945312 46.324219 78.476562 45.855469 M 76.089844 40.996094 C 75.910156 41.355469 76.074219 41.695312 76.578125 42.019531 L 78.691406 43.371094 L 80.429688 45.261719 C 81.078125 45.945312 81.441406 46.105469 81.511719 45.746094 C 81.550781 45.460938 81.367188 44.972656 80.96875 44.289062 L 79.5625 42.453125 C 78.875 41.734375 77.96875 41.121094 76.851562 40.617188 C 76.523438 40.472656 76.273438 40.597656 76.089844 40.996094 M 74.679688 19.875 C 76.707031 19.589844 78.152344 20.558594 79.019531 22.792969 C 79.921875 25.132812 78.875 27.167969 75.875 28.894531 L 75.441406 29.382812 C 75.222656 29.742188 75.351562 30.046875 75.820312 30.300781 C 78.132812 31.632812 79.867188 32.820312 81.023438 33.863281 C 83.917969 36.53125 85.363281 39.554688 85.363281 42.9375 C 84.242188 40.347656 82.761719 38.003906 80.917969 35.917969 C 78.710938 33.683594 77.246094 32.441406 76.523438 32.191406 C 76.019531 32.011719 75.675781 32.082031 75.496094 32.40625 C 75.277344 32.730469 75.367188 33 75.765625 33.214844 L 77.175781 34.296875 L 79.996094 36.835938 C 81.730469 38.417969 83.484375 40.976562 85.253906 44.503906 L 85.035156 45.746094 C 83.664062 42.867188 82.089844 40.597656 80.320312 38.941406 C 78.910156 37.574219 77.699219 36.726562 76.6875 36.402344 C 76.253906 36.257812 76.019531 36.402344 75.980469 36.835938 C 75.910156 37.304688 76.144531 37.699219 76.6875 38.023438 C 77.734375 38.601562 78.640625 39.246094 79.398438 39.96875 C 80.699219 41.265625 82.398438 43.441406 84.496094 46.503906 L 84.277344 46.558594 L 84.167969 46.71875 C 83.84375 46.753906 83.554688 46.84375 83.300781 46.988281 C 82.796875 47.277344 82.742188 47.710938 83.140625 48.285156 C 85.886719 50.265625 86.535156 52.804688 85.089844 55.902344 C 83.679688 58.925781 81.332031 60.257812 78.042969 59.898438 C 74.933594 65.730469 71.011719 70.230469 66.277344 73.402344 C 65.046875 74.191406 65.175781 74.515625 66.65625 74.375 C 68.175781 74.230469 69.820312 73.527344 71.589844 72.265625 C 71.265625 75.617188 68.734375 78.460938 64 80.800781 C 59.375 83.070312 55.902344 83.464844 53.589844 81.988281 L 57.113281 81.285156 C 58.921875 80.710938 59.769531 80.277344 59.664062 79.988281 L 56.246094 80.261719 C 53.175781 80.367188 49.703125 79.613281 45.835938 77.992188 C 43.8125 77.164062 41.789062 75.976562 39.765625 74.425781 L 39.4375 74.101562 L 39.382812 74.15625 C 34.792969 70.449219 31.488281 65.535156 29.460938 59.410156 C 27.472656 53.433594 27.039062 47.402344 28.160156 41.320312 C 28.992188 36.78125 30.78125 32.117188 33.527344 27.328125 C 34.976562 27.078125 36.382812 26.320312 37.757812 25.0625 L 40.414062 21.710938 C 42.042969 19.589844 43.125 18.363281 43.667969 18.039062 L 46.59375 18.148438 L 48.492188 19.066406 L 51.855469 19.28125 C 52.722656 19.101562 53.824219 18.632812 55.164062 17.878906 C 56.5 17.121094 58.019531 16.960938 59.714844 17.390625 C 61.488281 17.894531 63.113281 18.976562 64.597656 20.632812 C 65.28125 21.386719 66.167969 21.730469 67.253906 21.660156 L 69.964844 21.011719 C 70.832031 20.648438 72.402344 20.273438 74.679688 19.875 M 76.363281 8.640625 C 78.351562 11.164062 79.453125 12.457031 79.667969 12.53125 C 81.078125 13.105469 82.5625 14.476562 84.117188 16.636719 C 85.273438 18.21875 86.246094 19.894531 87.042969 21.660156 C 88.488281 24.792969 88.8125 28.933594 88.019531 34.082031 C 87.621094 36.671875 87.078125 38.941406 86.390625 40.886719 C 85.742188 37.898438 84.296875 35.324219 82.054688 33.164062 L 77.773438 29.8125 C 78.929688 28.949219 79.902344 27.996094 80.699219 26.953125 C 81.785156 25.546875 82.234375 24.339844 82.054688 23.332031 C 81.800781 21.75 81.1875 20.453125 80.210938 19.445312 C 78.910156 18.039062 77.101562 17.5 74.789062 17.824219 C 74.066406 17.929688 72.730469 18.4375 70.777344 19.335938 C 69.078125 20.128906 67.957031 20.46875 67.414062 20.363281 L 63.242188 16.3125 C 60.890625 13.933594 59.046875 13.050781 57.710938 13.664062 L 55.867188 14.851562 L 54.078125 15.988281 L 51.476562 17.609375 L 49.523438 17.878906 L 48.058594 17.121094 C 46.832031 16.546875 46.035156 16.238281 45.675781 16.203125 C 44.84375 16.058594 43.847656 16.328125 42.691406 17.011719 C 42.003906 17.410156 40.832031 18.667969 39.167969 20.792969 L 36.566406 24.035156 C 35.445312 25.042969 34.289062 25.671875 33.09375 25.925781 C 31.757812 26.175781 30.636719 25.890625 29.734375 25.0625 C 28.394531 23.835938 27.457031 22.179688 26.914062 20.09375 C 26.40625 18.113281 26.425781 16.328125 26.96875 14.746094 C 27.4375 13.519531 28.125 12.457031 29.027344 11.558594 C 28.882812 12.890625 29.28125 13.917969 30.222656 14.636719 L 30.816406 15.070312 C 31.757812 15.609375 32.769531 15.84375 33.855469 15.769531 L 34.34375 15.71875 C 35.894531 15.5 37.214844 14.746094 38.300781 13.449219 L 41.390625 9.992188 C 42.910156 8.445312 44.082031 7.5625 44.914062 7.34375 C 45.964844 7.09375 47.410156 7.238281 49.253906 7.777344 C 50.734375 8.246094 51.78125 8.15625 52.398438 7.507812 L 54.242188 4.859375 C 56.121094 1.910156 57.476562 0.359375 58.308594 0.214844 C 59.425781 0.0703125 60.835938 0.574219 62.535156 1.726562 L 64 2.808594 C 64.578125 3.242188 65.136719 3.546875 65.679688 3.726562 C 67.597656 4.375 69.203125 4.769531 70.507812 4.914062 C 72.640625 5.167969 74.589844 6.410156 76.363281 8.640625 M 122.503906 151.285156 L 124.78125 153.5 L 125.105469 153.878906 C 126.875 156.039062 127.78125 157.566406 127.816406 158.46875 C 127.925781 159.765625 127.636719 161.097656 126.949219 162.464844 C 126.441406 163.472656 125.863281 164.300781 125.214844 164.949219 L 124.941406 162.789062 L 124.886719 162.574219 L 124.886719 162.519531 L 124.832031 162.464844 C 124.507812 161.960938 124.203125 161.726562 123.910156 161.761719 C 123.621094 161.835938 123.460938 162.070312 123.425781 162.464844 L 123.371094 162.464844 L 122.882812 165.164062 C 122.519531 166.101562 121.851562 167.074219 120.875 168.082031 C 120.042969 168.910156 119.140625 169.523438 118.164062 169.917969 L 118.382812 169 C 118.816406 167.882812 118.925781 167 118.707031 166.355469 L 118.707031 166.300781 L 118.652344 166.300781 L 118.4375 166.082031 L 117.894531 165.921875 C 117.640625 165.921875 117.421875 166.101562 117.242188 166.460938 L 117.242188 166.570312 C 117.132812 167.648438 116.683594 168.765625 115.886719 169.917969 L 113.664062 172.1875 L 112.742188 172.726562 C 112.34375 172.511719 112.019531 172.097656 111.765625 171.484375 C 111.515625 170.871094 111.386719 170.171875 111.386719 169.378906 C 111.386719 168.585938 111.476562 167.957031 111.660156 167.488281 C 112.019531 166.769531 111.964844 165.542969 111.496094 163.816406 C 111.207031 162.808594 110.808594 162.265625 110.304688 162.195312 L 109.816406 162.355469 C 109.597656 162.679688 109.671875 163.292969 110.03125 164.191406 C 110.175781 165.09375 109.996094 166.011719 109.488281 166.949219 L 109.054688 167.21875 L 108.566406 167.273438 L 108.460938 167.273438 C 107.195312 166.910156 106.34375 166.535156 105.910156 166.136719 C 105.261719 165.527344 104.84375 164.390625 104.664062 162.734375 C 104.554688 161.796875 104.898438 160.574219 105.695312 159.0625 C 107.539062 159.53125 109.851562 159.566406 112.632812 159.171875 C 114.839844 158.808594 116.863281 157.820312 118.707031 156.199219 C 120.1875 154.867188 121.453125 153.230469 122.503906 151.285156 M 118.164062 132.003906 C 119.429688 137.152344 120.316406 141.796875 120.820312 145.9375 L 120.929688 146.421875 C 121.074219 147.539062 121.074219 148.332031 120.929688 148.800781 C 120.316406 150.3125 119.519531 151.699219 118.542969 152.957031 C 116.808594 155.191406 114.839844 156.488281 112.632812 156.847656 L 105.695312 156.578125 L 103.363281 149.125 C 101.519531 144.011719 99.277344 139.3125 96.640625 135.027344 C 93.894531 130.492188 90.765625 126.511719 87.261719 123.089844 L 82.8125 119.203125 L 82.273438 119.796875 L 84.0625 122.011719 L 88.5625 128.167969 L 88.507812 128.761719 L 76.6875 130.21875 C 70.757812 130.6875 66.636719 130.796875 64.324219 130.542969 L 63.78125 130.273438 L 63.457031 129.84375 C 63.277344 127.539062 63.203125 123.398438 63.242188 117.417969 C 63.3125 111.261719 63.492188 106.707031 63.78125 103.753906 C 64.289062 98.28125 65.101562 93.113281 66.222656 88.253906 C 66.402344 87.460938 66.65625 86.902344 66.980469 86.578125 C 67.308594 86.253906 67.8125 86.058594 68.5 85.984375 C 70.089844 85.804688 72.167969 85.210938 74.734375 84.203125 C 78.457031 82.726562 81.296875 80.910156 83.246094 78.746094 C 85.34375 79.539062 86.988281 80.351562 88.183594 81.179688 L 88.722656 81.554688 L 88.832031 81.609375 C 91.941406 83.625 95.25 86.617188 98.753906 90.578125 C 103.34375 95.90625 107.25 102.132812 110.464844 109.265625 C 113.609375 116.25 116.175781 123.828125 118.164062 132.003906 "/>
</g>
</svg>
