<?xml version="1.0" encoding="UTF-8"?>
<svg xmlns="http://www.w3.org/2000/svg" xmlns:xlink="http://www.w3.org/1999/xlink" width="127pt" height="121pt" viewBox="0 0 127 121" version="1.1">
<g id="surface1">
<path style=" stroke:none;fill-rule:nonzero;fill:rgb(100%,100%,100%);fill-opacity:1;" d="M 112.027344 42.371094 L 112.347656 43.417969 C 112.402344 43.75 112.558594 43.914062 112.808594 43.914062 L 113.359375 43.972656 L 114.371094 44.960938 C 114.949219 45.488281 115.285156 45.71875 115.382812 45.660156 C 115.632812 45.507812 115.671875 45.292969 115.496094 45.019531 L 114.832031 43.652344 C 114.425781 42.71875 114.273438 42.136719 114.371094 41.902344 L 114.6875 41.730469 C 115.4375 41.671875 116.632812 41.847656 118.269531 42.253906 L 118.414062 42.3125 L 118.386719 42.3125 L 118.792969 42.398438 L 121.191406 43.070312 L 122.578125 45.601562 C 123.273438 47.371094 123.503906 49.339844 123.273438 51.515625 C 123.039062 53.824219 122.441406 55.796875 121.480469 57.425781 L 119.832031 59.554688 C 117.691406 60.058594 115.621094 60.332031 113.617188 60.367188 C 109.398438 60.445312 105.640625 59.574219 102.34375 57.746094 C 99.050781 55.941406 96.226562 53.503906 93.878906 50.4375 L 90.929688 45.71875 C 90.988281 44.050781 90.863281 42.351562 90.554688 40.621094 C 89.996094 37.496094 88.914062 35.078125 87.316406 33.371094 C 85.949219 31.953125 84.503906 30.808594 82.980469 29.933594 C 82.035156 29.371094 80.917969 28.875 79.628906 28.449219 C 81.652344 26.992188 83.78125 26.070312 86.015625 25.683594 C 89.792969 25.003906 93.636719 25.835938 97.546875 28.1875 C 102.597656 31.214844 105.621094 35.265625 106.625 40.332031 C 106.777344 40.972656 106.96875 41.488281 107.203125 41.875 C 107.507812 42.359375 107.847656 42.5625 108.214844 42.488281 C 108.519531 42.449219 108.675781 42.300781 108.675781 42.050781 C 108.714844 41.46875 109.011719 41.050781 109.570312 40.796875 L 110.582031 40.738281 L 112.027344 42.371094 M 90.699219 47.03125 L 93.53125 51.574219 C 96.382812 55.496094 99.492188 58.476562 102.867188 60.515625 L 100.496094 60.195312 C 99.300781 60.019531 98.453125 59.824219 97.953125 59.613281 C 95.660156 58.699219 93.570312 56.933594 91.679688 54.3125 L 89.800781 51.078125 L 90.699219 47.03125 M 90.0625 46.011719 L 90.410156 46.59375 L 90.234375 47 C 89.597656 48.59375 88.894531 49.816406 88.125 50.671875 L 85.175781 50.699219 C 85.640625 48.835938 85.976562 47.03125 86.1875 45.28125 C 86.476562 42.679688 86.429688 40.585938 86.042969 38.992188 C 85.390625 36.410156 83.808594 33.449219 81.304688 30.109375 C 83.425781 31.234375 85.195312 32.546875 86.621094 34.039062 C 88.183594 35.671875 89.214844 38.109375 89.714844 41.351562 C 89.964844 43 90.0625 44.488281 90.003906 45.808594 L 90.0625 46.011719 M 118.472656 38.265625 L 119.917969 40.507812 L 119.226562 41.320312 L 119.023438 41.261719 L 117.75 39.808594 C 116.824219 38.875 115.816406 38.058594 114.714844 37.359375 L 114.425781 37.15625 L 116.59375 37.273438 L 118.011719 37.710938 L 118.472656 38.265625 M 113.414062 41.847656 C 112.394531 40.429688 111.519531 39.351562 110.785156 38.613281 C 111.804688 37.699219 112.886719 37.621094 114.023438 38.378906 C 115.238281 39.15625 116.085938 39.992188 116.566406 40.886719 L 114.660156 40.796875 C 114.097656 40.855469 113.722656 41.089844 113.53125 41.496094 L 113.414062 41.847656 M 123.589844 44.320312 C 124.089844 44.496094 124.589844 44.777344 125.09375 45.167969 L 125.902344 45.777344 L 126.21875 48.339844 L 125.003906 48.863281 L 124.457031 49.183594 L 124.339844 49.273438 C 124.320312 47.351562 124.070312 45.699219 123.589844 44.320312 M 124.339844 49.769531 L 125.871094 55.445312 C 126.625 57.992188 126.875 60.253906 126.625 62.234375 C 126.394531 64.234375 125.71875 65.339844 124.601562 65.554688 C 123.542969 65.804688 122.710938 65.574219 122.117188 64.855469 C 121.34375 63.921875 120.824219 62.515625 120.554688 60.632812 C 121.382812 60.882812 122.117188 60.273438 122.75 58.796875 C 123.40625 57.242188 123.898438 54.855469 124.226562 51.632812 L 124.339844 49.769531 M 41.621094 0.257812 C 42.160156 0.121094 42.941406 0.316406 43.960938 0.839844 L 44.800781 1.335938 C 45.128906 1.546875 45.4375 1.683594 45.726562 1.742188 L 48.355469 2.0625 C 49.492188 2.082031 50.597656 2.65625 51.679688 3.78125 L 53.644531 5.617188 C 54.433594 5.847656 55.300781 6.5 56.246094 7.566406 C 56.9375 8.363281 57.546875 9.207031 58.066406 10.101562 C 59.03125 11.710938 59.445312 13.90625 59.308594 16.683594 C 59.25 18.101562 59.097656 19.351562 58.847656 20.441406 C 58.269531 18.808594 57.351562 17.519531 56.101562 16.566406 L 54.65625 15.574219 L 53.644531 14.992188 C 54.183594 14.488281 54.644531 13.925781 55.03125 13.304688 C 55.511719 12.488281 55.675781 11.828125 55.523438 11.324219 C 55.3125 10.46875 54.914062 9.800781 54.335938 9.3125 C 53.546875 8.636719 52.546875 8.449219 51.332031 8.761719 C 50.964844 8.878906 50.28125 9.21875 49.28125 9.78125 C 48.449219 10.304688 47.882812 10.558594 47.574219 10.539062 L 45.175781 8.585938 C 43.769531 7.460938 42.738281 7.089844 42.082031 7.480469 L 40.289062 8.964844 L 38.988281 9.957031 C 38.625 10.246094 38.285156 10.34375 37.980469 10.246094 L 37.140625 9.925781 C 36.445312 9.671875 36.003906 9.558594 35.8125 9.578125 C 35.367188 9.539062 34.867188 9.742188 34.308594 10.1875 C 33.960938 10.441406 33.410156 11.179688 32.660156 12.402344 L 31.476562 14.292969 C 30.9375 14.898438 30.359375 15.292969 29.742188 15.488281 C 29.027344 15.722656 28.410156 15.632812 27.890625 15.226562 C 27.082031 14.644531 26.496094 13.820312 26.128906 12.75 C 25.742188 11.703125 25.65625 10.742188 25.867188 9.867188 C 25.984375 9.207031 26.273438 8.585938 26.734375 8.003906 C 26.753906 8.761719 27.023438 9.296875 27.542969 9.605469 C 28.238281 10.03125 29 10.148438 29.828125 9.957031 C 30.617188 9.742188 31.261719 9.257812 31.765625 8.5 C 33.285156 6.324219 34.347656 5.109375 34.945312 4.859375 C 35.464844 4.664062 36.234375 4.664062 37.257812 4.859375 C 38.046875 4.996094 38.59375 4.878906 38.902344 4.507812 L 39.742188 2.996094 C 40.53125 1.304688 41.15625 0.394531 41.621094 0.257812 M 34.886719 10.652344 C 35.445312 10.265625 36.3125 10.363281 37.488281 10.945312 L 39.308594 10.886719 L 40.957031 9.898438 C 41.628906 9.429688 42.421875 9.265625 43.324219 9.402344 C 44.308594 9.558594 45.242188 10.03125 46.128906 10.828125 C 46.535156 11.21875 47.023438 11.363281 47.601562 11.265625 L 48.992188 10.710938 C 49.492188 10.460938 50.300781 10.179688 51.417969 9.867188 C 52.460938 9.597656 53.277344 10.023438 53.875 11.148438 C 54.511719 12.371094 54.085938 13.527344 52.605469 14.613281 L 52.34375 14.90625 C 52.265625 15.101562 52.363281 15.253906 52.632812 15.371094 C 53.808594 15.878906 54.800781 16.410156 55.609375 16.972656 C 57.265625 18.253906 58.191406 19.800781 58.382812 21.605469 C 57.671875 20.304688 56.765625 19.128906 55.667969 18.082031 C 54.355469 17.011719 53.5 16.429688 53.09375 16.332031 C 52.824219 16.273438 52.652344 16.34375 52.574219 16.539062 C 52.496094 16.710938 52.554688 16.847656 52.75 16.945312 L 53.558594 17.441406 C 54.191406 17.828125 54.753906 18.234375 55.234375 18.664062 C 56.195312 19.382812 57.226562 20.59375 58.328125 22.304688 L 58.210938 22.828125 L 57.316406 21.574219 C 56.699219 20.800781 56.101562 20.1875 55.523438 19.742188 C 54.734375 19.140625 54.039062 18.761719 53.441406 18.605469 C 53.210938 18.546875 53.09375 18.644531 53.09375 18.894531 C 53.074219 19.148438 53.21875 19.34375 53.527344 19.480469 C 54.164062 19.730469 54.683594 20.023438 55.089844 20.351562 C 55.976562 21.070312 56.976562 22.109375 58.09375 23.46875 L 58.007812 23.730469 C 57.835938 23.75 57.691406 23.808594 57.574219 23.90625 C 57.304688 24.082031 57.296875 24.3125 57.546875 24.605469 C 59.105469 25.496094 59.589844 26.816406 58.992188 28.566406 C 58.433594 30.273438 57.277344 31.128906 55.523438 31.128906 C 54.136719 34.488281 52.316406 37.109375 50.058594 38.992188 C 49.425781 39.515625 49.5 39.691406 50.292969 39.515625 C 51.0625 39.359375 51.898438 38.894531 52.804688 38.117188 C 53.132812 41.960938 51.851562 44.417969 48.960938 45.488281 C 47.863281 45.875 46.785156 45.953125 45.726562 45.71875 C 44.683594 45.488281 44.039062 45.03125 43.789062 44.351562 L 45.636719 43.796875 C 46.582031 43.371094 47.007812 43.089844 46.910156 42.953125 L 45.148438 43.273438 C 43.507812 43.507812 41.609375 43.300781 39.453125 42.660156 C 35.734375 41.535156 32.796875 39.136719 30.636719 35.46875 C 28.554688 31.914062 27.667969 28.097656 27.976562 24.023438 C 28.171875 21.324219 28.824219 18.730469 29.945312 16.246094 C 30.675781 16.050781 31.425781 15.566406 32.199219 14.789062 L 33.382812 12.808594 C 34.113281 11.585938 34.617188 10.867188 34.886719 10.652344 M 28.875 16.390625 L 27.746094 19.710938 L 27.574219 19.480469 C 27.054688 18.800781 26.734375 18.246094 26.621094 17.820312 C 26.40625 17.0625 26.386719 16.441406 26.5625 15.953125 C 26.753906 15.449219 27.074219 15.371094 27.515625 15.722656 C 27.957031 16.050781 28.410156 16.253906 28.875 16.332031 L 28.875 16.390625 M 30.8125 17.730469 L 33.121094 17.382812 L 33.554688 17.089844 L 33.644531 16.539062 L 33.46875 16.042969 C 33.429688 15.847656 33.335938 15.722656 33.179688 15.664062 L 32.71875 15.78125 L 30.695312 17.382812 L 30.492188 17.703125 L 30.8125 17.730469 M 37.980469 20.351562 L 37.113281 22.855469 C 36.839844 23.515625 36.226562 24.613281 35.261719 26.148438 L 35.144531 26.613281 L 35.320312 27.050781 L 36.824219 28.828125 C 37.207031 29.195312 37.671875 29.195312 38.210938 28.828125 L 38.46875 28.566406 L 38.355469 28.214844 L 37.113281 26.90625 C 36.859375 26.613281 36.804688 26.292969 36.9375 25.945312 L 37.863281 23.496094 L 38.46875 21.371094 L 38.671875 20.410156 C 38.730469 20.003906 38.664062 19.808594 38.46875 19.828125 C 38.277344 19.808594 38.113281 19.984375 37.980469 20.351562 M 32.226562 20.5 C 31.9375 20.535156 31.714844 20.761719 31.5625 21.167969 C 31.371094 21.574219 31.300781 22.050781 31.359375 22.59375 C 31.417969 23.136719 31.5625 23.59375 31.792969 23.964844 C 32.042969 24.332031 32.3125 24.496094 32.601562 24.457031 C 32.890625 24.441406 33.113281 24.226562 33.265625 23.816406 C 33.460938 23.410156 33.527344 22.933594 33.46875 22.390625 C 33.410156 21.847656 33.265625 21.390625 33.035156 21.023438 C 32.785156 20.652344 32.515625 20.480469 32.226562 20.5 M 8.441406 36.515625 L 6.851562 35.03125 C 6.175781 34.214844 5.828125 33.546875 5.808594 33.019531 C 5.789062 32.75 5.90625 32.507812 6.15625 32.292969 C 6.636719 31.886719 7.84375 32.351562 9.769531 33.691406 C 11.464844 34.875 13.238281 36.390625 15.085938 38.234375 L 14.191406 38.992188 C 13.613281 39.828125 13.316406 41.011719 13.296875 42.546875 C 13.257812 44.019531 13.632812 45.574219 14.421875 47.203125 L 15.058594 48.398438 L 14.421875 49.300781 C 13.382812 50.542969 12.273438 51.4375 11.097656 51.980469 C 10.269531 52.410156 9.5 52.699219 8.785156 52.855469 L 7.542969 52.882812 C 7.332031 52.632812 7.417969 52.15625 7.804688 51.457031 C 8.054688 51.011719 8.507812 50.359375 9.164062 49.503906 L 10.085938 48.253906 C 10.320312 47.808594 10.394531 47.398438 10.320312 47.03125 C 10.125 46.429688 9.519531 45.914062 8.496094 45.488281 C 7.648438 45.136719 6.609375 44.757812 5.375 44.351562 C 1.792969 43.167969 0.0664062 42.273438 0.203125 41.671875 C 0.28125 41.28125 0.945312 40.992188 2.195312 40.796875 L 6.128906 40.621094 C 6.398438 40.621094 6.5625 40.496094 6.617188 40.246094 C 6.65625 40.011719 6.570312 39.828125 6.359375 39.691406 C 5.242188 39.226562 4.199219 38.671875 3.238281 38.03125 C 2.003906 37.253906 1.308594 36.59375 1.15625 36.050781 C 1.097656 35.894531 1.128906 35.730469 1.242188 35.554688 C 1.628906 35.011719 2.628906 35 4.25 35.527344 C 5.5 35.972656 6.726562 36.566406 7.917969 37.300781 C 8.171875 37.457031 8.382812 37.417969 8.554688 37.1875 C 8.710938 36.972656 8.671875 36.75 8.441406 36.515625 M 15.898438 39.339844 L 20.636719 38.847656 C 24.046875 38.339844 26.425781 37.652344 27.777344 36.777344 L 29.25 35.847656 L 29.308594 35.964844 C 30.328125 37.671875 31.523438 39.117188 32.890625 40.300781 C 32.890625 41.777344 33.34375 43.351562 34.25 45.019531 L 34.945312 45.980469 C 32.207031 47.050781 29.335938 47.710938 26.332031 47.960938 C 23.535156 48.214844 21.109375 48.175781 19.046875 47.84375 L 16.792969 47.351562 C 16.484375 47.136719 16.1875 46.777344 15.898438 46.273438 C 15.300781 45.320312 15 44.175781 15 42.835938 C 15.019531 41.613281 15.175781 40.671875 15.464844 40.011719 L 15.898438 39.339844 M 39.277344 34.652344 L 36.96875 34.710938 L 33.265625 33.925781 C 32.996094 33.886719 32.785156 33.691406 32.632812 33.34375 C 32.515625 33.011719 32.699219 32.828125 33.179688 32.789062 L 35.144531 32.875 L 38.789062 32.644531 C 40.308594 32.332031 42.207031 31.535156 44.480469 30.253906 L 45.058594 30.078125 C 45.347656 30.023438 45.628906 30.070312 45.898438 30.226562 C 46.167969 30.378906 46.246094 30.585938 46.128906 30.835938 L 45.695312 31.332031 L 41.621094 33.984375 L 39.277344 34.652344 M 32.488281 31.214844 L 32.371094 30.984375 C 32.292969 30.945312 32.21875 30.992188 32.140625 31.128906 L 31.214844 32.585938 C 31.023438 32.914062 31.042969 33.226562 31.273438 33.515625 L 32.746094 35.292969 C 32.996094 35.566406 33.085938 35.527344 33.007812 35.175781 L 33.007812 34.886719 C 32.96875 34.730469 33.007812 34.59375 33.121094 34.476562 L 33.5 34.390625 L 35.433594 35.234375 C 36.9375 35.777344 38.285156 35.972656 39.480469 35.816406 C 40.65625 35.699219 42.148438 34.964844 43.960938 33.605469 L 46.273438 31.59375 L 46.765625 31.535156 L 47.167969 31.769531 L 47.34375 33.078125 C 47.59375 33.351562 47.738281 33.304688 47.777344 32.933594 L 47.980469 30.253906 C 47.980469 29.867188 47.816406 29.59375 47.488281 29.4375 L 44.367188 27.722656 C 44.210938 27.664062 44.117188 27.664062 44.078125 27.722656 L 44.105469 28.011719 L 44.570312 28.855469 C 44.664062 28.992188 44.644531 29.148438 44.511719 29.324219 L 44.136719 29.703125 C 41.628906 31.003906 39.742188 31.808594 38.46875 32.117188 L 35.089844 32.351562 L 33.121094 32.234375 C 32.96875 32.234375 32.832031 32.175781 32.71875 32.058594 C 32.582031 31.925781 32.515625 31.777344 32.515625 31.625 L 32.488281 31.214844 M 40.550781 36.546875 L 40.058594 36.515625 L 37.691406 37.097656 C 37.324219 37.175781 37.324219 37.300781 37.691406 37.476562 L 38.703125 37.828125 C 39.222656 37.980469 39.800781 37.90625 40.433594 37.59375 L 40.8125 37.300781 L 40.839844 36.867188 L 40.550781 36.546875 M 38.757812 44.46875 C 40.472656 47.089844 42.824219 49.128906 45.8125 50.582031 C 47.296875 51.28125 48.59375 51.71875 49.714844 51.894531 L 52.027344 53.640625 C 53.796875 54.863281 55.511719 55.785156 57.171875 56.40625 C 52.410156 56.933594 47.421875 55.214844 42.199219 51.253906 C 40.5625 50.03125 39 48.652344 37.515625 47.117188 L 35.753906 45.136719 C 35.097656 43.953125 34.730469 42.757812 34.65625 41.554688 C 35.675781 42.175781 36.773438 42.679688 37.949219 43.070312 L 38.757812 44.46875 M 39.105469 43.390625 L 39.453125 43.476562 C 40.453125 44.972656 41.8125 46.089844 43.527344 46.828125 C 45.242188 47.523438 46.917969 47.691406 48.558594 47.320312 C 52.605469 46.332031 54.480469 42.679688 54.191406 36.371094 C 55.542969 34.46875 56.457031 32.992188 56.9375 31.945312 C 58.054688 31.925781 58.960938 31.4375 59.65625 30.488281 C 59.117188 32.351562 58.75 34.089844 58.558594 35.699219 L 58.472656 36.167969 C 58.277344 39.488281 57.691406 42.292969 56.707031 44.582031 L 55.347656 47.699219 C 55.386719 48.769531 57.738281 50.515625 62.402344 52.941406 L 64.453125 54.078125 C 65.320312 54.523438 65.996094 54.796875 66.476562 54.894531 C 64.144531 55.765625 61.765625 56.261719 59.339844 56.378906 C 56.949219 55.679688 54.53125 54.4375 52.082031 52.652344 L 49.136719 50.117188 L 48.902344 50 C 45.589844 49.632812 42.4375 47.59375 39.453125 43.882812 L 39.105469 43.390625 M 44.136719 13.683594 C 43.980469 13.761719 43.875 13.867188 43.816406 14.003906 L 43.46875 14.613281 C 43.257812 15.042969 43.199219 15.304688 43.296875 15.402344 L 43.847656 15.546875 L 44.972656 15.894531 L 46.332031 16.480469 L 47.199219 16.742188 C 47.257812 16.21875 46.84375 15.566406 45.957031 14.789062 L 44.539062 13.710938 L 44.136719 13.683594 M 53.382812 21.082031 C 53.308594 21.3125 53.402344 21.496094 53.671875 21.632812 L 54.886719 22.246094 L 55.925781 23.148438 C 56.3125 23.476562 56.515625 23.535156 56.535156 23.324219 L 56.160156 22.566406 L 55.320312 21.691406 C 54.839844 21.285156 54.328125 21.003906 53.789062 20.847656 C 53.597656 20.808594 53.460938 20.886719 53.382812 21.082031 M 48.269531 21.429688 C 47.691406 20.847656 46.996094 20.402344 46.1875 20.089844 C 44.511719 19.429688 43.066406 19.75 41.851562 21.050781 C 43.46875 20.761719 44.800781 20.992188 45.839844 21.75 C 46.378906 22.140625 46.753906 22.546875 46.96875 22.972656 L 48.269531 21.429688 M 53.703125 23.292969 C 53.625 23.507812 53.691406 23.664062 53.902344 23.761719 L 54.308594 24.050781 L 54.828125 24.605469 C 54.886719 24.816406 55.023438 24.914062 55.234375 24.894531 C 55.445312 24.855469 55.523438 24.691406 55.464844 24.402344 C 55.40625 24.128906 55.222656 23.847656 54.914062 23.554688 L 54.164062 23.089844 C 53.972656 23.011719 53.816406 23.082031 53.703125 23.292969 M 65.550781 29.730469 C 66.054688 29.476562 67.035156 29.304688 68.5 29.207031 L 70.609375 29.382812 L 76.679688 29.554688 L 78.992188 29.148438 L 79.453125 29.324219 C 81.265625 31.847656 82.691406 34.371094 83.730469 36.894531 C 84.734375 39.378906 84.832031 44.03125 84.019531 50.84375 L 83.152344 50.875 C 82.808594 49.261719 82.34375 47.71875 81.765625 46.242188 L 80.523438 43.535156 L 78.558594 39.3125 C 78.039062 38.207031 77.789062 37.417969 77.808594 36.953125 L 76.910156 36.867188 C 76.832031 37.585938 76.96875 38.488281 77.316406 39.574219 C 77.664062 40.621094 78.277344 42.078125 79.164062 43.941406 C 80.070312 45.847656 80.714844 47.4375 81.101562 48.71875 C 81.507812 50.136719 81.796875 51.824219 81.96875 53.785156 C 82.199219 56.464844 82.238281 61.136719 82.085938 67.796875 C 82.007812 68.105469 81.726562 68.417969 81.246094 68.726562 C 80.28125 69.347656 78.800781 69.648438 76.796875 69.628906 C 74.773438 69.589844 73.105469 69.40625 71.796875 69.078125 L 70.496094 68.667969 C 70.839844 63.445312 70.878906 59.613281 70.609375 57.164062 C 70.515625 56.253906 69.917969 54.5625 68.816406 52.097656 C 67.875 50.039062 66.871094 48.058594 65.8125 46.15625 C 65.136719 44.894531 64.511719 43.507812 63.933594 41.992188 L 62.691406 38.175781 C 62.035156 36.058594 62.132812 34.148438 62.980469 32.4375 C 63.636719 31.15625 64.492188 30.253906 65.550781 29.730469 M 61.910156 30.078125 C 62.257812 30.234375 62.402344 30.515625 62.34375 30.925781 L 61.910156 32.527344 C 61.214844 34.585938 61.042969 36.574219 61.390625 38.496094 C 61.890625 41.15625 62.960938 43.980469 64.597656 46.972656 C 65.332031 48.3125 66.101562 49.980469 66.910156 51.980469 L 67.488281 53.464844 C 65.675781 53.253906 64.125 52.804688 62.835938 52.125 L 58.933594 49.738281 C 57.71875 48.882812 57.0625 48.203125 56.96875 47.699219 C 56.929688 47.601562 57.34375 46.339844 58.210938 43.914062 C 59.117188 41.234375 59.511719 38.679688 59.394531 36.253906 L 59.425781 35.816406 C 59.484375 33.195312 60.136719 31.398438 61.390625 30.429688 L 61.910156 30.078125 M 76.652344 71.175781 L 79.945312 71 C 80.773438 73.136719 80.773438 74.816406 79.945312 76.039062 C 79.269531 77.007812 79.019531 77.882812 79.195312 78.660156 C 79.269531 78.910156 79.445312 79.019531 79.714844 78.980469 C 79.964844 78.941406 80.089844 78.785156 80.089844 78.511719 C 80.109375 77.832031 80.417969 77.269531 81.015625 76.824219 L 81.304688 76.910156 C 81.671875 77.144531 81.921875 77.542969 82.054688 78.105469 C 82.210938 78.765625 82.027344 79.320312 81.507812 79.765625 L 80.320312 80.464844 L 79.136719 80.523438 L 78.183594 79.765625 C 77.71875 79.164062 77.304688 78.417969 76.941406 77.523438 C 76.84375 77.25 76.652344 77.164062 76.363281 77.261719 C 76.074219 77.359375 75.976562 77.550781 76.074219 77.84375 L 76.417969 78.6875 C 76.707031 79.328125 77.046875 79.871094 77.429688 80.320312 C 77.816406 80.785156 78.152344 81.132812 78.441406 81.367188 L 77.429688 82.152344 L 75.839844 82.183594 C 75.320312 82.007812 74.800781 81.609375 74.28125 80.988281 C 73.875 80.523438 73.578125 80.085938 73.386719 79.679688 C 73.25 79.40625 73.046875 79.339844 72.777344 79.472656 C 72.507812 79.570312 72.421875 79.765625 72.519531 80.058594 L 73.039062 81.6875 C 73.367188 82.871094 73.5 83.8125 73.441406 84.511719 C 73.421875 85.019531 73.222656 85.570312 72.835938 86.171875 C 72.449219 86.734375 72.007812 87.191406 71.507812 87.542969 C 71.003906 87.851562 70.589844 87.941406 70.261719 87.804688 C 69.992188 87.707031 69.847656 87.5625 69.828125 87.367188 C 69.792969 87.132812 69.886719 86.695312 70.117188 86.054688 C 70.582031 84.8125 70.964844 83.300781 71.273438 81.511719 C 71.660156 79.261719 71.765625 77.230469 71.59375 75.425781 C 71.457031 73.988281 71.488281 72.71875 71.679688 71.609375 L 71.910156 70.738281 L 76.652344 71.175781 M 65.667969 104.460938 C 65.917969 103.257812 66.59375 102.375 67.691406 101.8125 L 69.28125 101.316406 L 69.511719 101.199219 L 69.65625 100.851562 C 69.175781 99.609375 68.960938 98.144531 69.019531 96.453125 C 69.058594 95.464844 69.234375 94.484375 69.539062 93.511719 L 70.003906 92.316406 C 70.15625 92.164062 70.1875 91.996094 70.089844 91.824219 L 69.570312 91.882812 L 69.105469 91.851562 C 69.089844 91.503906 69.25 91.066406 69.597656 90.542969 L 70.089844 89.726562 C 70.03125 89.472656 69.878906 89.347656 69.628906 89.347656 C 69.28125 89.347656 69.039062 89.269531 68.90625 89.113281 L 68.816406 88.675781 C 68.855469 88.40625 68.945312 88.25 69.078125 88.210938 L 69.195312 88.183594 L 69.945312 88.707031 C 70.871094 89.015625 71.660156 88.96875 72.316406 88.5625 L 72.777344 88.183594 L 72.863281 88.210938 C 73.113281 88.269531 73.257812 88.425781 73.296875 88.675781 L 73.210938 89.113281 C 73.058594 89.269531 72.808594 89.347656 72.460938 89.347656 C 72.210938 89.347656 72.066406 89.472656 72.027344 89.726562 C 71.988281 89.976562 72.09375 90.132812 72.34375 90.191406 L 72.863281 90.335938 C 73.171875 90.511719 73.316406 90.785156 73.296875 91.152344 L 71.535156 92.929688 C 71.417969 93.125 71.4375 93.316406 71.59375 93.511719 L 72.488281 94.066406 C 73.105469 94.609375 73.433594 95.375 73.472656 96.367188 L 73.5 100.792969 C 73.5 101.046875 73.625 101.191406 73.875 101.230469 C 74.164062 101.230469 74.53125 101.40625 74.972656 101.753906 C 75.667969 102.316406 76.140625 103.140625 76.390625 104.230469 L 76.449219 104.460938 L 76.652344 106.648438 L 74.484375 107.609375 L 72.605469 107.988281 L 70.0625 107.519531 L 68.296875 107.578125 C 68.125 107.890625 68.125 109.8125 68.296875 113.34375 L 68.617188 118.589844 L 69.800781 119.082031 L 73.125 119.285156 C 74.589844 119.074219 75.707031 118.761719 76.476562 118.355469 L 76.417969 119.285156 C 76.402344 119.65625 76.113281 119.984375 75.550781 120.277344 C 74.683594 120.722656 73.296875 120.945312 71.390625 120.945312 C 68.960938 120.945312 67.121094 120.316406 65.871094 119.054688 L 65.695312 118.761719 L 65.667969 118.644531 L 65.667969 118.589844 C 65.300781 112.648438 65.234375 108.421875 65.464844 105.917969 L 65.582031 105.074219 L 65.667969 104.460938 M 72.605469 101.144531 L 71.621094 101.171875 L 70.640625 101.144531 C 70.351562 101.144531 70.207031 101.210938 70.207031 101.347656 C 70.207031 101.5 70.351562 101.65625 70.640625 101.8125 L 71.621094 102.074219 C 71.988281 102.074219 72.316406 101.988281 72.605469 101.8125 C 72.875 101.65625 73.007812 101.5 73.007812 101.347656 C 73.007812 101.210938 72.875 101.144531 72.605469 101.144531 M 70.207031 108.65625 L 72.71875 108.628906 L 76.707031 107.898438 L 76.5625 116.492188 C 75.332031 117.054688 74.214844 117.394531 73.210938 117.511719 L 70.8125 117.597656 C 70.042969 117.578125 69.636719 117.492188 69.597656 117.335938 L 69.25 112.96875 C 69.078125 110.210938 69.050781 108.78125 69.164062 108.6875 L 70.207031 108.65625 "/>
</g>
</svg>
