<?xml version="1.0" encoding="UTF-8"?>
<svg xmlns="http://www.w3.org/2000/svg" xmlns:xlink="http://www.w3.org/1999/xlink" width="128pt" height="159pt" viewBox="0 0 128 159" version="1.1">
<g id="surface1">
<path style=" stroke:none;fill-rule:nonzero;fill:rgb(100%,100%,100%);fill-opacity:1;" d="M 103.484375 47.695312 L 103.519531 47.730469 C 104.671875 48.238281 105.734375 48.859375 106.703125 49.59375 C 111.957031 53.570312 116.484375 58.539062 120.289062 64.496094 C 125.105469 71.992188 126.316406 78.234375 123.921875 83.226562 C 122.515625 86.214844 119.738281 88.515625 115.585938 90.125 C 112.453125 91.367188 108.9375 89.882812 105.042969 85.675781 C 103.957031 84.5 103.058594 83.398438 102.34375 82.363281 C 104.417969 80.730469 105.777344 78.867188 106.425781 76.773438 C 106.792969 75.488281 106.976562 74.0625 106.976562 72.496094 L 106.769531 68.082031 C 110.25 69.1875 112.542969 71.082031 113.652344 73.773438 C 113.789062 74.164062 114.089844 74.371094 114.550781 74.394531 C 115.011719 74.441406 115.148438 74.222656 114.964844 73.738281 C 114.113281 71.714844 112.949219 69.96875 111.472656 68.496094 C 109.835938 66.910156 108.015625 65.886719 106.007812 65.425781 L 103.3125 62.320312 C 102.253906 61.171875 101.308594 60.285156 100.476562 59.667969 C 99.761719 59.136719 99.140625 58.792969 98.609375 58.632812 L 98.402344 58.5625 L 98.195312 58.5625 C 97.78125 58.5625 97.421875 58.710938 97.125 59.011719 C 96.9375 59.21875 96.8125 59.492188 96.742188 59.839844 C 96.859375 50.777344 96.675781 45.914062 96.191406 45.246094 L 93.320312 45.453125 L 90.554688 46.042969 L 87.511719 42.28125 L 87.476562 41.796875 L 89.933594 42.28125 C 94.796875 43.363281 99.324219 45.15625 103.519531 47.664062 L 103.484375 47.695312 M 105.492188 68.117188 L 105.558594 71.910156 C 105.539062 73.3125 105.410156 74.53125 105.179688 75.566406 C 104.789062 77.316406 103.726562 78.949219 102 80.464844 L 100.476562 80.257812 C 98.933594 79.820312 97.042969 78.9375 94.808594 77.601562 L 90.867188 75.121094 C 90.152344 74.707031 89.757812 74.152344 89.691406 73.464844 C 89.644531 73.074219 89.703125 72.726562 89.863281 72.429688 L 89.933594 72.394531 L 92.007812 73.152344 C 93.320312 73.636719 94.3125 73.878906 94.980469 73.878906 L 95.878906 73.671875 L 91.9375 72.152344 C 88.988281 71.003906 87.570312 69.667969 87.683594 68.152344 L 87.855469 67.738281 L 87.996094 67.566406 L 88.03125 67.53125 L 91.140625 68.359375 C 93.148438 68.886719 94.578125 69.152344 95.429688 69.152344 C 95.9375 69.152344 96.269531 69.070312 96.433594 68.910156 C 96.5 68.820312 95.371094 68.382812 93.042969 67.601562 C 90.691406 66.816406 89.066406 66.335938 88.167969 66.152344 C 86.902344 65.875 86.035156 65.621094 85.574219 65.390625 C 85.023438 65.117188 84.882812 64.816406 85.160156 64.496094 C 85.414062 64.21875 86.164062 64 87.40625 63.839844 L 90.449219 63.632812 L 92.523438 63.597656 L 97.917969 64.148438 L 97.953125 64.148438 C 98.113281 64.148438 98.160156 63.449219 98.09375 62.046875 C 98.023438 60.644531 98.058594 59.941406 98.195312 59.941406 C 99.671875 60.402344 101.226562 61.734375 102.863281 63.941406 L 105.492188 68.117188 M 96.707031 62.011719 L 96.707031 62.527344 L 96.707031 61.875 L 96.707031 62.011719 M 100.097656 81.605469 L 100.753906 81.742188 L 100.859375 82.226562 C 102.496094 84.800781 104.292969 86.917969 106.25 88.570312 C 108.003906 90.066406 109.777344 91.066406 111.578125 91.574219 L 109.050781 99.160156 C 106.976562 95.597656 102.550781 93.230469 95.773438 92.054688 L 96.226562 79.949219 C 97.746094 80.730469 99.035156 81.28125 100.097656 81.605469 M 95.5 98.679688 L 95.742188 92.816406 C 101.847656 94.171875 106.285156 96.757812 109.050781 100.574219 L 108.671875 103.609375 L 108.566406 103.921875 C 108.015625 105.875 107.382812 107.75 106.667969 109.542969 C 105.605469 107.152344 103.84375 105.359375 101.375 104.164062 C 99.554688 103.265625 97.609375 102.804688 95.535156 102.785156 L 95.601562 100.09375 L 95.636719 98.746094 L 95.5 98.679688 M 105.976562 111.164062 C 104.339844 114.292969 102.230469 117.132812 99.648438 119.683594 C 97.066406 122.285156 94.230469 124.34375 91.140625 125.859375 C 88.097656 127.378906 83.386719 127.503906 77 126.238281 L 68.355469 123.894531 C 69.648438 121.960938 70.535156 120.191406 71.019531 118.582031 C 71.132812 118.144531 70.996094 117.9375 70.605469 117.960938 C 70.1875 117.984375 69.914062 118.179688 69.773438 118.546875 L 66.453125 126.03125 C 64.585938 129.964844 62.753906 133.230469 60.957031 135.828125 C 59.667969 137.714844 58.03125 139.578125 56.046875 141.417969 L 52.9375 144.246094 L 51.3125 141.449219 L 51.277344 141.449219 C 49.453125 138.691406 47.058594 136.09375 44.085938 133.65625 C 41.710938 131.65625 38.757812 129.632812 35.234375 127.585938 C 36.847656 123.308594 38.910156 118.878906 41.421875 114.304688 C 43.796875 110.027344 46.125 106.667969 48.40625 104.230469 C 51.449219 101.011719 54.835938 98.863281 58.570312 97.78125 C 63.964844 96.21875 69.199219 97.425781 74.269531 101.402344 C 78.417969 104.691406 81.773438 109.128906 84.332031 114.71875 L 84.398438 114.890625 C 84.5625 115.28125 84.871094 115.488281 85.332031 115.511719 C 85.792969 115.558594 85.921875 115.351562 85.714844 114.890625 L 83.8125 111.234375 L 83.191406 110.097656 L 95.359375 108.40625 L 95.5 104.265625 C 97.640625 104.199219 99.601562 104.621094 101.375 105.542969 C 103.703125 106.761719 105.226562 108.613281 105.941406 111.097656 L 105.976562 111.164062 M 122.121094 124.375 L 69.980469 137.96875 L 69.738281 138.070312 C 68.332031 138.898438 67.375 139.3125 66.871094 139.3125 L 66.109375 139.242188 L 63.34375 139.175781 C 62.191406 139.382812 61.453125 139.992188 61.128906 141.003906 L 60.472656 142.625 C 59.78125 144.09375 59.296875 145.347656 59.019531 146.382812 C 58.515625 148.152344 58.339844 149.914062 58.503906 151.660156 C 58.6875 153.570312 59.492188 155.464844 60.921875 157.351562 C 58.203125 155.71875 53.984375 153.039062 48.269531 149.316406 L 48.441406 149.144531 C 49.984375 147.738281 50.90625 145.867188 51.207031 143.519531 L 52.347656 145.726562 C 52.441406 146.003906 52.601562 146.199219 52.832031 146.3125 L 53.628906 146.210938 C 54.363281 145.683594 55.539062 144.554688 57.152344 142.832031 C 59.207031 140.621094 61.0625 138.335938 62.71875 135.964844 C 64.011719 134.125 65.3125 131.828125 66.628906 129.066406 L 68.21875 125.375 C 77.300781 129.5625 85.058594 130.261719 91.488281 127.480469 C 94.832031 126.054688 97.871094 123.929688 100.617188 121.097656 L 102.550781 118.960938 C 114.816406 122.546875 121.140625 124.34375 121.535156 124.34375 L 122.121094 124.375 M 120.703125 127.824219 L 121.085938 127.617188 C 120.855469 128.214844 120.660156 128.976562 120.496094 129.894531 C 120.472656 130.035156 117.660156 130.988281 112.058594 132.757812 C 106.460938 134.550781 103.648438 135.53125 103.625 135.691406 L 111.886719 134.277344 C 117.417969 133.171875 120.1875 132.710938 120.1875 132.894531 L 120.289062 134.585938 C 120.3125 134.769531 116.9375 135.839844 110.160156 137.792969 C 103.429688 139.726562 100.085938 140.785156 100.132812 140.96875 L 110.574219 139.140625 L 121.015625 137.277344 L 121.914062 138.96875 C 121.984375 139.105469 117.535156 140.300781 108.566406 142.554688 C 99.625 144.832031 95.1875 146.027344 95.257812 146.140625 C 95.371094 146.304688 100.097656 145.507812 109.433594 143.761719 C 118.769531 142.015625 123.492188 141.199219 123.609375 141.3125 L 125.199219 143.070312 L 98.230469 149.210938 L 77 154.007812 L 70.707031 154.214844 C 69.808594 153.824219 68.726562 153.9375 67.457031 154.558594 L 67.839844 153.246094 C 67.859375 153.132812 72.054688 152.097656 80.421875 150.144531 L 92.972656 147.039062 C 93.019531 146.855469 88.953125 147.382812 80.769531 148.625 C 72.585938 149.890625 68.519531 150.417969 68.5625 150.210938 L 68.839844 148.175781 L 68.839844 145.933594 C 68.816406 145.820312 73.277344 144.542969 82.222656 142.105469 C 91.140625 139.644531 95.589844 138.359375 95.566406 138.242188 C 95.542969 138.128906 91.027344 139.058594 82.015625 141.035156 C 73 143.015625 68.484375 143.945312 68.460938 143.832031 L 67.597656 141.035156 C 68.402344 140.828125 69.394531 140.394531 70.570312 139.726562 L 120.460938 127.792969 C 120.394531 127.976562 120.472656 127.988281 120.703125 127.824219 M 127.652344 145.726562 C 127.882812 146.53125 127.503906 147.003906 126.511719 147.140625 L 98.507812 152.351562 C 80.367188 155.730469 71.109375 157.386719 70.742188 157.316406 L 69.082031 157.042969 C 68.34375 156.972656 67.457031 157.304688 66.421875 158.042969 C 65.820312 158.480469 65.335938 158.753906 64.96875 158.871094 C 64.160156 158.203125 63.433594 157.238281 62.789062 155.972656 C 62.007812 154.523438 61.546875 153.007812 61.40625 151.417969 C 61.085938 147.855469 61.324219 145.175781 62.132812 143.382812 L 62.894531 141.554688 C 63.078125 141.003906 64.082031 140.839844 65.902344 141.070312 L 66.28125 141.105469 L 65.730469 141.347656 L 64.621094 143.519531 C 63.839844 145.222656 63.390625 146.707031 63.273438 147.96875 C 63.160156 149.28125 63.402344 151.085938 64 153.386719 L 64.933594 156.421875 C 64.773438 156.902344 64.886719 157.261719 65.28125 157.492188 L 66.421875 157.421875 L 68.148438 156.28125 C 68.957031 155.871094 69.578125 155.742188 70.015625 155.902344 C 70.617188 156.15625 79.71875 154.464844 97.332031 150.832031 L 126.0625 144.796875 C 126.871094 144.636719 127.402344 144.945312 127.652344 145.726562 M 62.410156 6.546875 C 62.753906 6.429688 63.019531 6.222656 63.203125 5.925781 L 63.894531 3.992188 C 64.542969 1.855469 65.117188 0.683594 65.625 0.476562 L 65.796875 0.40625 C 66.464844 0.222656 67.355469 0.3125 68.460938 0.683594 L 69.566406 1.09375 L 70.742188 1.40625 L 73.890625 1.300781 C 75.25 1.117188 76.667969 1.566406 78.140625 2.648438 L 80.804688 4.511719 C 81.773438 4.625 82.914062 5.222656 84.226562 6.304688 C 85.195312 7.085938 86.082031 7.960938 86.890625 8.925781 C 88.296875 10.605469 89.183594 13.097656 89.550781 16.410156 C 89.734375 18.066406 89.78125 19.550781 89.691406 20.859375 C 88.8125 19.136719 87.5 17.789062 85.75 16.824219 C 85.058594 16.457031 83.984375 16.007812 82.53125 15.480469 L 83.847656 13.238281 C 84.261719 12.203125 84.34375 11.386719 84.089844 10.789062 C 83.71875 9.9375 83.199219 9.28125 82.53125 8.824219 C 81.609375 8.15625 80.5625 7.996094 79.386719 8.339844 L 78.695312 8.582031 C 78.257812 8.765625 77.566406 9.257812 76.621094 10.0625 C 75.746094 10.800781 75.132812 11.214844 74.789062 11.304688 L 74.582031 11.375 C 74.417969 11.375 73.460938 10.847656 71.710938 9.789062 C 70.027344 8.753906 68.792969 8.351562 68.011719 8.582031 C 67.847656 8.605469 67.675781 8.695312 67.492188 8.855469 L 65.625 10.855469 L 64.519531 12.097656 L 63.585938 12.753906 L 63.171875 12.789062 L 62.132812 12.582031 L 60.195312 12.480469 C 59.757812 12.59375 59.285156 12.902344 58.777344 13.410156 C 58.410156 13.777344 57.902344 14.742188 57.257812 16.308594 L 56.21875 18.757812 C 55.503906 19.792969 54.722656 20.433594 53.871094 20.6875 C 53.222656 20.847656 52.648438 20.792969 52.140625 20.515625 C 51.101562 19.988281 50.261719 19.125 49.617188 17.929688 C 48.972656 16.777344 48.683594 15.675781 48.753906 14.617188 C 48.820312 13.789062 49.0625 13.019531 49.476562 12.304688 C 49.640625 13.15625 50.054688 13.71875 50.722656 13.996094 L 53.003906 14.132812 C 54.132812 13.835938 54.964844 13.109375 55.496094 11.960938 C 56.855469 9.109375 57.878906 7.476562 58.570312 7.0625 L 59.332031 6.753906 L 61.027344 6.613281 L 62.410156 6.546875 M 79.214844 9.789062 C 80.410156 9.441406 81.402344 9.867188 82.1875 11.0625 C 83.039062 12.328125 82.71875 13.707031 81.21875 15.203125 L 81.011719 15.582031 C 80.964844 15.835938 81.105469 16.007812 81.425781 16.101562 C 83.085938 16.539062 84.34375 16.984375 85.195312 17.445312 C 87.386719 18.574219 88.789062 20.195312 89.414062 22.308594 C 88.261719 20.882812 86.957031 19.6875 85.507812 18.722656 C 83.730469 17.6875 82.613281 17.160156 82.152344 17.136719 L 81.875 17.167969 C 81.667969 17.214844 81.566406 17.34375 81.566406 17.550781 C 81.542969 17.734375 81.644531 17.859375 81.875 17.929688 L 82.914062 18.34375 L 85.089844 19.445312 C 85.992188 19.929688 86.914062 20.609375 87.855469 21.480469 L 89.585938 23.308594 L 89.65625 24.035156 L 89.621094 24.035156 C 88.328125 22.539062 87.003906 21.425781 85.644531 20.6875 C 84.539062 20.089844 83.652344 19.769531 82.980469 19.722656 L 82.808594 19.722656 C 82.601562 19.792969 82.542969 19.941406 82.636719 20.171875 C 82.707031 20.445312 82.914062 20.628906 83.257812 20.722656 C 84.019531 20.90625 84.6875 21.160156 85.265625 21.480469 L 89.34375 24.550781 L 89.308594 24.828125 L 88.789062 25.136719 C 88.515625 25.414062 88.558594 25.691406 88.929688 25.964844 C 90.84375 26.703125 91.671875 28.082031 91.417969 30.105469 C 91.1875 32.082031 90.128906 33.335938 88.238281 33.863281 L 87.71875 34.003906 C 87.1875 36.164062 86.484375 38.140625 85.609375 39.9375 L 85.507812 39.796875 C 85.230469 39.476562 84.90625 39.394531 84.539062 39.554688 L 78.28125 41.867188 L 71.539062 43.832031 L 71.46875 43.417969 C 71.332031 43.074219 71.042969 42.972656 70.605469 43.109375 L 70.464844 43.144531 L 67.769531 44.28125 L 67.492188 44.523438 L 67.597656 44.660156 L 65.175781 45.007812 L 60.714844 45.351562 L 59.160156 43.660156 C 56.046875 39.914062 54.296875 35.625 53.902344 30.792969 C 53.648438 27.828125 53.972656 24.65625 54.871094 21.273438 C 55.703125 20.90625 56.449219 20.214844 57.121094 19.203125 L 58.191406 16.652344 C 58.835938 15.113281 59.296875 14.191406 59.574219 13.894531 C 59.734375 13.730469 59.941406 13.617188 60.195312 13.546875 L 62.71875 13.71875 L 64.035156 13.617188 C 64.773438 13.410156 65.625 12.824219 66.59375 11.859375 C 66.984375 11.46875 67.492188 11.179688 68.113281 10.996094 C 69.613281 10.582031 71.214844 10.914062 72.921875 11.996094 C 73.40625 12.316406 73.96875 12.398438 74.613281 12.238281 C 75.074219 12.097656 75.628906 11.800781 76.273438 11.339844 C 76.804688 10.925781 77.703125 10.445312 78.972656 9.890625 L 79.214844 9.789062 M 31.773438 25.929688 C 30.851562 26.851562 30.347656 27.933594 30.253906 29.171875 C 30.09375 31.152344 29.6875 28.738281 29.042969 21.929688 L 33.125 24.894531 L 31.773438 25.929688 M 26.898438 22.859375 L 27.765625 28.691406 L 28.214844 21.652344 C 28.28125 25.472656 28.859375 29.566406 29.941406 33.933594 C 30.496094 36.050781 30.542969 38.726562 30.082031 41.972656 C 29.78125 44.15625 29.308594 46.339844 28.664062 48.523438 L 28.214844 49.765625 C 28.167969 49.765625 28.238281 48.511719 28.421875 46.007812 L 28.59375 42.246094 L 28.007812 45.972656 L 27.382812 49.699219 L 27.039062 46.421875 C 26.878906 44.234375 26.761719 43.144531 26.691406 43.144531 L 26.484375 46.453125 L 26.242188 49.730469 L 25.792969 46.488281 L 25.34375 43.28125 L 25.414062 49.90625 L 21.957031 26.449219 L 23.027344 26.378906 L 24.03125 30.484375 L 24.238281 25.308594 L 24.929688 24.65625 L 25.863281 28.964844 L 26.277344 23.449219 L 26.898438 22.859375 M 37.964844 23.171875 C 37.066406 24.78125 37.859375 27.863281 40.351562 32.414062 C 43.347656 37.890625 44.9375 41.992188 45.121094 44.730469 C 42.5625 44.800781 39.648438 45.292969 36.375 46.214844 C 34.714844 46.671875 33.332031 47.15625 32.226562 47.664062 C 31.488281 48.007812 30.875 48.351562 30.390625 48.695312 L 29.390625 49.628906 L 29.875 48.695312 L 30.253906 47.664062 C 30.875 45.890625 31.292969 43.695312 31.5 41.074219 C 31.753906 37.878906 31.660156 35.417969 31.222656 33.691406 C 30.601562 31.253906 31.0625 28.910156 32.605469 26.65625 C 34.101562 24.492188 35.890625 23.332031 37.964844 23.171875 M 21.714844 25.550781 L 20.710938 26.550781 L 24.308594 47.972656 L 22.578125 47.25 C 21.886719 43.429688 21.230469 39.566406 20.605469 35.660156 C 19.386719 27.863281 18.980469 23.757812 19.398438 23.34375 C 19.835938 22.929688 20.355469 23.171875 20.953125 24.070312 L 21.714844 25.550781 M 36.476562 49.492188 C 35.070312 49.328125 33.585938 49.675781 32.015625 50.523438 L 30.046875 51.800781 L 29.078125 51.558594 L 28.871094 51.320312 L 29.941406 50.457031 C 34.136719 47.144531 40.257812 45.636719 48.300781 45.9375 L 59.816406 46.730469 L 62.203125 46.695312 L 62.894531 46.660156 C 68.863281 46.410156 76.101562 44.648438 84.605469 41.382812 L 85.332031 42.144531 L 81.566406 43.523438 L 86.199219 43.109375 L 86.507812 43.453125 L 82.152344 44.351562 L 87.132812 44.144531 L 88.550781 45.628906 L 33.398438 53.113281 C 32.917969 53.160156 33.191406 52.90625 34.230469 52.351562 C 35.335938 51.753906 36.996094 51.25 39.210938 50.835938 C 37.226562 50.675781 35.335938 50.925781 33.539062 51.59375 L 31.324219 52.558594 L 31.015625 52.351562 C 30.898438 52.285156 31.535156 51.871094 32.917969 51.113281 C 34.367188 50.328125 35.554688 49.789062 36.476562 49.492188 M 29.320312 53.734375 C 29.828125 54.835938 30.691406 57.699219 31.914062 62.320312 C 33.390625 67.863281 34.046875 71.542969 33.882812 73.359375 C 30.957031 72.761719 28.511719 71.808594 26.554688 70.496094 C 24.800781 69.324219 24.191406 68.460938 24.722656 67.910156 L 24.929688 67.117188 L 24.929688 67.082031 C 21.65625 55.976562 20.214844 50.054688 20.605469 49.316406 C 20.816406 48.925781 21.242188 48.753906 21.886719 48.800781 C 22.394531 48.847656 22.921875 48.996094 23.476562 49.25 C 21.585938 50.328125 21.242188 51.339844 22.441406 52.285156 L 24.652344 53.871094 C 25.25 54.191406 25.976562 54.355469 26.832031 54.355469 C 27.820312 54.355469 28.652344 54.148438 29.320312 53.734375 M 29.492188 76.1875 C 31.246094 76.96875 32.949219 77.246094 34.609375 77.015625 L 35.542969 81.226562 L 35.890625 82.914062 L 40.175781 103.195312 C 37.757812 102.484375 35.738281 101.65625 34.125 100.714844 C 31.542969 99.195312 30.679688 97.679688 31.535156 96.160156 L 31.636719 95.574219 L 27.453125 75.085938 L 29.492188 76.1875 M 83.671875 22.308594 C 83.488281 22.378906 83.386719 22.515625 83.363281 22.722656 C 83.339844 22.929688 83.488281 23.089844 83.8125 23.207031 L 85.367188 23.6875 L 86.542969 24.414062 L 87.40625 24.863281 L 87.476562 24.6875 C 87.476562 24.503906 87.28125 24.230469 86.890625 23.863281 C 86.542969 23.515625 86.164062 23.21875 85.75 22.964844 C 85.101562 22.574219 84.445312 22.355469 83.777344 22.308594 L 83.671875 22.308594 M 84.46875 25.621094 L 85.023438 25.898438 C 85.414062 26.105469 85.644531 26.300781 85.714844 26.484375 L 85.921875 26.722656 L 86.199219 26.722656 C 86.496094 26.632812 86.578125 26.425781 86.441406 26.105469 C 86.300781 25.757812 86.035156 25.472656 85.644531 25.242188 C 85.230469 24.988281 84.894531 24.851562 84.640625 24.828125 L 84.46875 24.828125 C 84.285156 24.875 84.179688 25.011719 84.15625 25.242188 C 84.15625 25.449219 84.261719 25.574219 84.46875 25.621094 M 70.085938 22.035156 C 70.59375 21.503906 71.503906 20.847656 72.816406 20.066406 C 73.992188 19.378906 74.582031 18.976562 74.582031 18.859375 C 74.1875 18.652344 73.117188 18.90625 71.363281 19.617188 C 69.867188 20.238281 68.78125 20.78125 68.113281 21.238281 L 66.871094 21.171875 L 65.902344 20.894531 C 65.761719 21.011719 66.167969 21.527344 67.113281 22.449219 C 68.058594 23.367188 68.621094 23.804688 68.804688 23.757812 L 69.253906 23.171875 L 70.085938 22.035156 M 70.429688 25.449219 L 68.945312 25.207031 L 69.1875 26.207031 C 69.394531 26.964844 69.726562 27.574219 70.1875 28.035156 C 70.648438 28.449219 71.089844 28.609375 71.503906 28.519531 C 71.824219 28.378906 72.054688 28.082031 72.195312 27.621094 C 72.332031 27.160156 72.355469 26.609375 72.261719 25.964844 C 72.792969 25.710938 73.164062 25.230469 73.371094 24.515625 C 73.417969 24.378906 73.382812 24.253906 73.265625 24.136719 L 72.957031 23.894531 C 72.65625 23.828125 72.449219 23.964844 72.332031 24.308594 C 72.21875 24.746094 72 25.011719 71.675781 25.101562 L 71.570312 25.136719 L 70.429688 25.449219 M 74.40625 33.96875 L 74.027344 34.449219 C 71.308594 36.453125 69.234375 37.738281 67.804688 38.3125 L 66.90625 38.625 L 63.34375 39.28125 L 61.476562 39.453125 C 61.292969 39.5 61.117188 39.453125 60.957031 39.316406 L 60.644531 38.867188 L 60.542969 38.417969 L 60.300781 38.109375 L 60.09375 38.347656 L 59.296875 40.210938 C 59.136719 40.625 59.21875 40.980469 59.539062 41.28125 L 61.613281 43.074219 C 61.707031 43.210938 61.796875 43.257812 61.890625 43.210938 L 61.925781 42.867188 L 61.820312 42.558594 C 61.707031 42.210938 61.808594 42.003906 62.132812 41.9375 L 62.304688 41.902344 L 64.761719 42.523438 C 66.675781 42.867188 68.308594 42.855469 69.671875 42.488281 L 69.703125 42.453125 C 71.066406 42.0625 72.667969 40.914062 74.511719 39.003906 L 76.898438 36.28125 L 77.171875 36.140625 C 77.472656 36.027344 77.738281 36.074219 77.96875 36.28125 L 78.417969 37.796875 L 78.765625 37.902344 C 78.855469 37.902344 78.902344 37.785156 78.902344 37.554688 L 78.660156 34.382812 L 78.417969 33.832031 L 77.898438 33.519531 L 73.921875 32.105469 L 73.648438 32.070312 C 73.484375 32.117188 73.496094 32.242188 73.679688 32.449219 L 74.40625 33.382812 C 74.5 33.519531 74.5 33.714844 74.40625 33.96875 M 75.238281 34.65625 L 76.207031 34.726562 C 76.550781 34.863281 76.6875 35.09375 76.621094 35.417969 L 76.171875 36.039062 C 74.121094 38.039062 72.679688 39.328125 71.847656 39.902344 C 71.042969 40.453125 69.96875 40.914062 68.632812 41.28125 L 66.453125 41.625 L 61.960938 41.382812 C 61.613281 41.40625 61.335938 41.222656 61.128906 40.832031 C 60.921875 40.511719 61.050781 40.269531 61.511719 40.109375 L 61.648438 40.109375 L 63.585938 39.902344 L 67.355469 39.175781 L 68.289062 38.867188 C 69.992188 38.222656 72.066406 36.945312 74.511719 35.039062 C 74.855469 34.832031 75.097656 34.703125 75.238281 34.65625 M 57.636719 24.792969 L 61.199219 25.792969 L 61.820312 25.65625 L 62.097656 25.101562 L 62.167969 24.414062 L 62.0625 23.449219 C 61.949219 23.011719 61.789062 22.828125 61.578125 22.894531 L 60.886719 24.207031 L 57.601562 24.34375 C 57.121094 24.527344 57.132812 24.679688 57.636719 24.792969 M 65.039062 24.65625 L 64.484375 27.726562 C 64.253906 28.550781 63.710938 29.945312 62.859375 31.898438 C 62.699219 32.359375 62.777344 32.726562 63.101562 33.003906 L 65.210938 34.761719 L 66.210938 34.898438 L 66.871094 34.519531 L 67.144531 34.175781 L 66.9375 33.761719 L 65.246094 32.449219 L 64.898438 31.96875 C 64.808594 31.761719 64.785156 31.566406 64.828125 31.382812 L 65.488281 28.3125 L 65.796875 25.757812 L 65.867188 24.585938 C 65.867188 24.101562 65.742188 23.882812 65.488281 23.929688 L 65.453125 23.929688 C 65.269531 24 65.128906 24.242188 65.039062 24.65625 M 50.6875 22 C 50.6875 21.445312 50.851562 21.125 51.171875 21.03125 L 51.792969 21.136719 C 52.441406 21.480469 53.039062 21.632812 53.59375 21.585938 C 53.222656 23.078125 52.957031 24.484375 52.796875 25.792969 C 51.96875 25.058594 51.414062 24.402344 51.136719 23.828125 C 50.839844 23.183594 50.6875 22.574219 50.6875 22 M 60.992188 28.140625 L 61.027344 27.757812 L 60.785156 27.449219 C 60.484375 27.289062 60.242188 27.367188 60.058594 27.691406 L 59.503906 28.171875 L 59.195312 28.207031 L 58.917969 28.347656 L 58.675781 28.378906 C 58.214844 28.519531 57.742188 28.4375 57.257812 28.140625 C 57.234375 28.53125 57.304688 28.945312 57.464844 29.378906 C 57.671875 30 57.960938 30.496094 58.328125 30.863281 C 58.699219 31.230469 59.054688 31.359375 59.402344 31.242188 C 59.699219 31.128906 59.910156 30.875 60.023438 30.484375 C 60.140625 30.09375 60.140625 29.609375 60.023438 29.035156 C 60.414062 28.875 60.738281 28.574219 60.992188 28.140625 M 59.886719 52.59375 L 70.878906 51.386719 L 78.523438 50.558594 L 81.253906 50.285156 L 81.980469 50.179688 L 82.878906 51.007812 L 93.527344 60.460938 L 93.457031 62.253906 L 92.523438 62.21875 L 90.449219 62.253906 C 87.085938 62.253906 84.988281 62.691406 84.15625 63.5625 L 84.125 63.597656 C 83.640625 64.148438 83.511719 64.738281 83.742188 65.359375 C 83.972656 66.09375 84.804688 66.667969 86.230469 67.082031 L 86.441406 67.53125 L 86.335938 67.910156 L 86.335938 68.046875 C 86.222656 69.566406 86.957031 70.863281 88.550781 71.945312 C 88.25 72.683594 88.214844 73.441406 88.445312 74.222656 C 88.699219 75.097656 89.261719 75.785156 90.140625 76.292969 L 91.558594 77.1875 L 93.113281 78.1875 L 92.90625 97.503906 L 92.871094 98.851562 L 92.800781 106.507812 L 82.117188 108.234375 C 80.089844 105.175781 77.808594 102.632812 75.273438 100.609375 C 72.253906 98.148438 69.070312 96.597656 65.730469 95.953125 C 58.652344 94.597656 52.210938 97.253906 46.402344 103.921875 L 44.117188 106.855469 L 38.828125 81.257812 L 38.550781 79.914062 L 38.484375 79.601562 C 35.277344 64.148438 33.734375 56.296875 33.851562 56.042969 C 33.988281 55.699219 41.964844 54.628906 57.777344 52.835938 L 58.191406 52.800781 L 59.886719 52.59375 M 93.875 52.628906 C 94.011719 54.953125 94 56.894531 93.839844 58.457031 C 92.824219 56.847656 91.257812 55.042969 89.136719 53.042969 C 87.617188 51.59375 86.394531 50.535156 85.472656 49.871094 L 89.691406 49.144531 L 91.453125 48.9375 L 93.492188 48.800781 C 93.65625 49.304688 93.78125 50.582031 93.875 52.628906 M 41.628906 110.648438 C 40.753906 112.097656 39.878906 113.683594 39 115.40625 L 38.136719 114.648438 C 36.683594 113.199219 35.855469 111.695312 35.648438 110.128906 L 35.128906 104.09375 L 36.925781 105.023438 C 38.332031 105.714844 39.519531 106.027344 40.488281 105.957031 L 41.628906 110.648438 M 43.183594 141.933594 L 35.855469 145.28125 L 35.476562 144.898438 C 29.78125 139.402344 26.300781 134.320312 25.03125 129.652344 C 24.640625 128.160156 25.089844 127.238281 26.382812 126.894531 C 27.464844 126.59375 28.710938 126.734375 30.117188 127.308594 C 32.328125 128.226562 34.53125 129.90625 36.71875 132.34375 C 39.761719 136.070312 41.953125 139.242188 43.289062 141.863281 L 43.183594 141.933594 M 44.429688 141.589844 C 42.703125 138.371094 40.417969 135.035156 37.585938 131.585938 L 35.542969 129.585938 C 38.679688 131.449219 41.296875 133.21875 43.394531 134.898438 C 46.089844 137.011719 48.269531 139.21875 49.925781 141.519531 C 49.972656 144.855469 48.914062 147.269531 46.746094 148.761719 C 46.90625 147.730469 46.699219 146.476562 46.125 145.003906 L 44.429688 141.589844 M 44.949219 145.761719 C 45.132812 146.269531 45.269531 146.855469 45.363281 147.523438 C 45.480469 148.417969 45.363281 148.957031 45.019531 149.144531 L 43.703125 149.730469 L 42.285156 149.695312 C 40.742188 149.28125 39.023438 148.210938 37.132812 146.488281 L 44.015625 143.3125 L 44.949219 145.761719 M 29.90625 95.609375 C 28.894531 97.632812 29.148438 99.726562 30.667969 101.886719 C 31.960938 103.726562 32.917969 104.621094 33.539062 104.578125 L 33.609375 110.40625 C 34.714844 113.097656 35.949219 115.074219 37.308594 116.339844 C 34.125 117.605469 30.992188 119.617188 27.902344 122.375 C 26.703125 119.15625 24.964844 115.683594 22.683594 111.957031 C 21.089844 109.382812 18.40625 106.679688 14.625 103.851562 C 17.324219 100.496094 20.398438 97.035156 23.855469 93.46875 L 28.523438 88.882812 L 29.90625 95.609375 M 21.539062 112.339844 C 23.015625 114.613281 24.308594 116.996094 25.414062 119.476562 C 24.746094 120.46875 23.660156 121.042969 22.164062 121.203125 C 20.597656 121.386719 19.683594 120.835938 19.433594 119.546875 L 19.085938 117.824219 C 18.902344 117.179688 18.578125 116.695312 18.117188 116.375 C 17.726562 116.097656 17.058594 116.007812 16.113281 116.097656 L 14.175781 116.027344 C 13.644531 115.914062 13.023438 115.671875 12.308594 115.304688 C 9.21875 113.71875 6.464844 111.625 4.046875 109.027344 C 1.347656 106.082031 0.242188 103.230469 0.726562 100.472656 C 0.863281 99.574219 1.453125 99.207031 2.488281 99.367188 C 2.90625 99.414062 3.734375 99.691406 4.980469 100.195312 C 7.539062 101.183594 10.339844 102.585938 13.382812 104.40625 C 17.160156 107.164062 19.882812 109.808594 21.539062 112.339844 M 27.9375 125.238281 C 26.183594 124.917969 24.882812 125.25 24.03125 126.238281 C 23.222656 127.183594 23.304688 128.847656 24.273438 131.242188 C 24.640625 132.160156 25.160156 133.195312 25.828125 134.34375 L 23.683594 132.894531 C 23.015625 131.839844 22.394531 130.46875 21.816406 128.792969 C 21.078125 126.605469 20.699219 124.46875 20.675781 122.375 L 23.375 122.617188 C 24.480469 122.433594 25.402344 121.949219 26.140625 121.167969 L 27.074219 123.6875 L 27.558594 124.273438 L 28.25 124.308594 C 31.40625 121.386719 34.574219 119.25 37.757812 117.890625 L 35.300781 123.238281 L 33.675781 127.238281 L 33.539062 127.929688 L 31.914062 126.824219 C 30.601562 126.019531 29.273438 125.492188 27.9375 125.238281 "/>
<path style=" stroke:none;fill-rule:nonzero;fill:rgb(0%,0%,0%);fill-opacity:1;" d="M 95.5 98.679688 L 95.636719 98.746094 L 95.601562 100.09375 L 95.464844 100.023438 L 95.5 98.679688 "/>
</g>
</svg>
