<?xml version="1.0" encoding="UTF-8"?>
<svg xmlns="http://www.w3.org/2000/svg" xmlns:xlink="http://www.w3.org/1999/xlink" width="128pt" height="410pt" viewBox="0 0 128 410" version="1.1">
<g id="surface1">
<path style=" stroke:none;fill-rule:nonzero;fill:rgb(100%,100%,100%);fill-opacity:1;" d="M 51.734375 385.847656 C 58.066406 384.128906 63.632812 380.660156 68.425781 375.4375 C 69.65625 377.835938 70.484375 380.351562 70.917969 382.992188 C 71.285156 385.144531 70.917969 386.925781 69.808594 388.335938 C 68.886719 389.503906 67.351562 390.578125 65.199219 391.5625 L 62.523438 392.390625 C 61.171875 392.574219 60.371094 392.296875 60.125 391.5625 L 58.835938 389.902344 C 58.097656 389.410156 57.484375 389.410156 56.992188 389.902344 L 50.8125 396.351562 L 48.414062 398.65625 C 45.15625 401.480469 41.746094 403.601562 38.179688 405.011719 C 32.523438 407.160156 26.34375 408.421875 19.644531 408.789062 C 13.988281 409.21875 10.726562 408.484375 9.867188 406.578125 C 8.945312 404.613281 10.265625 401.820312 13.832031 398.195312 L 15.953125 396.351562 C 17.304688 395.183594 19.210938 393.617188 21.671875 391.652344 C 25.113281 388.953125 28.710938 386.433594 32.460938 384.097656 C 38.546875 387.171875 44.972656 387.753906 51.734375 385.847656 M 8.667969 145.578125 C 9.898438 143.304688 11.804688 140.878906 14.386719 138.296875 C 16.414062 142.230469 20.441406 145.546875 26.46875 148.25 C 26.589844 149.414062 25.636719 153.46875 23.609375 160.410156 C 21.210938 168.699219 19.886719 174.351562 19.644531 177.359375 C 18.78125 186.636719 18.472656 197.722656 18.71875 210.621094 C 18.71875 218.726562 18.597656 223.332031 18.351562 224.4375 L 15.03125 223.703125 L 14.847656 217.4375 C 14.539062 213.199219 13.308594 206.414062 11.160156 197.078125 L 5.625 171.28125 C 4.394531 161.636719 5.410156 153.070312 8.667969 145.578125 M 37.625 113.792969 L 37.257812 113.792969 L 29.511719 114.714844 C 28.957031 114.773438 28.648438 114.929688 28.589844 115.175781 L 29.234375 115.820312 L 32.367188 117.476562 L 34.859375 117.9375 L 37.996094 117.386719 C 38.484375 117.261719 38.886719 116.984375 39.191406 116.554688 C 39.5625 116.066406 39.683594 115.605469 39.5625 115.175781 C 39.4375 114.253906 38.792969 113.792969 37.625 113.792969 M 14.941406 100.984375 C 14.695312 100.003906 15.214844 99.511719 16.507812 99.511719 L 16.785156 99.511719 L 21.855469 100.433594 L 32.183594 101.261719 L 34.765625 101.171875 C 39.625 100.800781 45.894531 99.050781 53.578125 95.917969 L 55.699219 95.457031 C 56.5 95.457031 57.296875 95.765625 58.097656 96.378906 C 58.898438 96.992188 59.050781 97.667969 58.558594 98.40625 L 57.082031 99.695312 C 50.320312 103.320312 45.679688 105.5625 43.160156 106.421875 L 33.9375 107.621094 L 28.035156 106.972656 L 16.691406 103.011719 C 15.832031 102.890625 15.246094 102.214844 14.941406 100.984375 M 14.847656 93.429688 L 14.109375 93.890625 L 10.789062 98.039062 C 10.050781 99.019531 9.992188 100.035156 10.605469 101.078125 L 14.476562 107.160156 L 15.125 107.710938 C 15.371094 107.710938 15.492188 107.433594 15.492188 106.882812 L 15.402344 105.960938 C 15.402344 104.976562 15.832031 104.488281 16.691406 104.488281 L 17.152344 104.578125 L 22.960938 107.988281 C 27.636719 110.261719 31.878906 111.425781 35.6875 111.488281 L 35.78125 111.488281 C 39.53125 111.488281 44.480469 109.707031 50.628906 106.144531 L 58.742188 100.800781 L 59.574219 100.617188 C 60.496094 100.617188 61.140625 100.957031 61.511719 101.632812 L 61.601562 105.867188 L 62.339844 106.421875 C 62.648438 106.421875 62.832031 106.144531 62.894531 105.59375 L 64.644531 97.207031 C 64.890625 96.042969 64.460938 95.121094 63.355469 94.445312 L 54.226562 87.902344 L 53.488281 87.628906 C 53.058594 87.628906 52.996094 87.964844 53.300781 88.640625 L 54.410156 91.589844 C 54.65625 92.019531 54.5625 92.511719 54.132812 93.0625 L 52.75 94.078125 C 44.328125 97.207031 38.023438 98.988281 33.84375 99.421875 L 31.355469 99.605469 L 21.765625 98.683594 L 16.875 97.667969 C 16.382812 97.609375 15.953125 97.394531 15.585938 97.023438 L 15.125 95.644531 L 15.214844 94.351562 C 15.214844 93.738281 15.09375 93.429688 14.847656 93.429688 M 38.546875 60.816406 L 38.457031 60.816406 C 37.839844 60.816406 37.316406 61.308594 36.886719 62.292969 L 33.199219 69.753906 L 28.863281 75.652344 L 25.914062 79.335938 C 25.175781 80.257812 25.144531 81.238281 25.820312 82.285156 L 29.878906 88.363281 C 30.492188 89.101562 31.292969 89.46875 32.277344 89.46875 L 34.304688 89.007812 L 35.226562 88.273438 C 35.410156 87.902344 35.351562 87.503906 35.042969 87.074219 L 31.632812 82.46875 C 31.324219 82.101562 31.171875 81.609375 31.171875 80.996094 C 31.109375 80.378906 31.199219 79.859375 31.445312 79.429688 L 35.320312 72.058594 C 36.796875 69.109375 38.023438 66.007812 39.007812 62.753906 C 39.316406 61.585938 39.164062 60.941406 38.546875 60.816406 M 17.246094 64.226562 C 17.675781 63.242188 18.289062 62.722656 19.089844 62.660156 L 20.195312 62.84375 C 20.6875 62.597656 20.6875 62.136719 20.195312 61.460938 C 19.828125 60.972656 19.242188 60.789062 18.445312 60.910156 C 17.644531 61.03125 16.816406 61.523438 15.953125 62.382812 C 15.214844 63.121094 14.785156 64.964844 14.664062 67.910156 L 14.753906 72.148438 L 11.710938 72.609375 C 10.234375 72.980469 9.589844 73.347656 9.773438 73.714844 L 10.511719 74.175781 C 11.804688 73.808594 12.847656 73.808594 13.648438 74.175781 L 14.109375 74.730469 L 16.324219 75.742188 C 17.859375 76.234375 19.519531 75.867188 21.300781 74.636719 L 23.421875 72.609375 C 19.796875 74.023438 17.738281 73.992188 17.246094 72.519531 C 16.875 71.414062 16.660156 70.03125 16.597656 68.371094 C 16.597656 66.652344 16.816406 65.269531 17.246094 64.226562 M 9.773438 46.078125 C 7.683594 49.699219 5.964844 53.109375 4.609375 56.304688 C 2.949219 53.601562 2.027344 51.511719 1.84375 50.039062 C 1.535156 48.136719 1.597656 46.445312 2.027344 44.972656 C 2.460938 43.558594 3.105469 42.851562 3.964844 42.851562 L 5.441406 43.589844 C 6.792969 44.878906 8.238281 45.707031 9.773438 46.078125 M 22.871094 45.523438 L 21.855469 45.800781 L 14.847656 50.222656 L 14.109375 51.050781 L 15.03125 51.328125 L 22.59375 51.050781 C 23.207031 50.992188 23.699219 50.746094 24.070312 50.316406 C 24.4375 49.824219 24.5625 49.269531 24.4375 48.65625 L 24.160156 46.90625 C 24.101562 45.984375 23.667969 45.523438 22.871094 45.523438 M 57.175781 60.265625 C 56.375 60.386719 55.546875 60.878906 54.6875 61.738281 C 53.949219 62.476562 53.519531 64.320312 53.394531 67.265625 L 53.488281 71.503906 L 50.445312 71.875 C 48.90625 72.242188 48.261719 72.640625 48.507812 73.070312 C 48.570312 73.253906 48.816406 73.410156 49.246094 73.53125 C 50.535156 73.164062 51.582031 73.164062 52.378906 73.53125 L 52.839844 73.992188 L 55.054688 75.003906 C 56.589844 75.496094 58.160156 75.222656 59.757812 74.175781 L 61.601562 72.519531 C 58.035156 73.378906 56.160156 73.164062 55.976562 71.875 C 55.421875 67.695312 55.421875 64.902344 55.976562 63.488281 C 56.40625 62.566406 57.023438 62.078125 57.820312 62.015625 L 58.929688 62.109375 C 59.417969 61.863281 59.417969 61.433594 58.929688 60.816406 C 58.558594 60.265625 57.976562 60.082031 57.175781 60.265625 M 59.203125 43.683594 C 58.46875 43.683594 57.976562 43.988281 57.730469 44.601562 L 56.4375 46.355469 C 55.578125 47.582031 55.269531 48.378906 55.515625 48.75 L 57.175781 49.484375 L 60.679688 50.960938 L 64.554688 53.171875 L 67.320312 54.460938 L 67.410156 54.460938 C 67.84375 52.925781 66.765625 50.714844 64.183594 47.828125 L 60.125 43.957031 L 59.203125 43.683594 M 124.496094 331.125 C 125.480469 332.109375 126.277344 333.429688 126.894531 335.085938 C 127.632812 337.175781 127.386719 338.371094 126.15625 338.679688 C 123.941406 339.230469 123.296875 340.859375 124.21875 343.5625 C 124.648438 344.976562 125.539062 346.847656 126.894531 349.183594 C 127.140625 349.734375 127.171875 350.839844 126.984375 352.5 L 126.523438 356 L 125.324219 363.1875 C 124.464844 367.300781 122.773438 371.476562 120.253906 375.714844 C 117.792969 379.707031 114.320312 382.992188 109.832031 385.574219 C 104.238281 388.707031 100.609375 389.351562 98.949219 387.507812 C 97.535156 385.910156 96.800781 383.238281 96.738281 379.492188 L 97.292969 370.832031 C 97.476562 367.761719 97.90625 364.628906 98.582031 361.433594 C 106.574219 363.277344 112.261719 359.777344 115.644531 350.933594 C 117.980469 344.546875 118.933594 336.5 118.5 326.792969 C 120.898438 328.085938 122.898438 329.527344 124.496094 331.125 M 85.300781 295.929688 C 89.113281 297.222656 92.648438 296.238281 95.90625 292.984375 C 100.949219 287.824219 105.160156 281.222656 108.542969 273.175781 C 105.960938 291.539062 99.902344 304.746094 90.375 312.792969 L 88.347656 318.6875 L 89.730469 318.78125 L 90.097656 318.59375 C 94.277344 316.199219 97.9375 312.945312 101.070312 308.828125 C 103.960938 304.898438 106.207031 300.507812 107.804688 295.65625 L 110.476562 301.828125 C 111.832031 305.453125 112.9375 310.058594 113.796875 315.648438 L 113.984375 319.515625 C 114.105469 321.359375 114.351562 322.742188 114.71875 323.664062 C 115.398438 332.753906 114.75 340.429688 112.785156 346.695312 C 109.957031 356.03125 104.667969 359.5625 96.921875 357.289062 C 90.160156 354.15625 83.796875 349.886719 77.832031 344.484375 C 71.992188 339.261719 67.074219 333.429688 63.078125 326.980469 C 59.757812 321.574219 56.867188 315.09375 54.410156 307.539062 C 52.566406 301.949219 50.78125 295.039062 49.058594 286.8125 C 47.402344 279.195312 46.324219 272.378906 45.832031 266.359375 C 45.710938 265.3125 45.035156 264.578125 43.804688 264.148438 C 42.574219 263.71875 42.019531 264.148438 42.144531 265.4375 C 43.066406 276.800781 44.941406 287.578125 47.769531 297.773438 C 50.90625 309.257812 55.023438 319.363281 60.125 328.085938 C 62.707031 332.507812 66.058594 336.960938 70.179688 341.441406 L 69.996094 341.902344 C 69.996094 347.125 69.347656 354.125 68.058594 362.910156 L 67.136719 366.6875 C 66.644531 368.527344 66.429688 369.972656 66.488281 371.015625 C 62.125 376.175781 57.054688 379.738281 51.273438 381.703125 C 44.878906 383.851562 38.855469 383.515625 33.199219 380.691406 C 28.710938 366.378906 24.5625 349.886719 20.75 331.21875 C 17.246094 313.898438 14.941406 299.0625 13.832031 286.71875 C 12.355469 270.195312 12.601562 255.242188 14.570312 241.851562 C 18.257812 244.738281 22.960938 247.472656 28.679688 250.050781 C 35.257812 253.121094 42.542969 255.148438 50.535156 256.132812 C 58.34375 257.054688 66.183594 256.929688 74.050781 255.761719 L 73.960938 256.40625 C 71.746094 258.3125 69.65625 259.507812 67.6875 260 L 60.3125 261.015625 L 56.808594 261.476562 C 55.640625 261.78125 54.777344 262.457031 54.226562 263.503906 C 53.546875 264.730469 53.488281 266.082031 54.039062 267.554688 C 55.394531 270.441406 59.050781 272.46875 65.015625 273.636719 L 69.164062 274.28125 L 60.773438 286.71875 C 58.191406 290.402344 56.5625 293.074219 55.882812 294.734375 C 54.59375 297.621094 54.6875 299.863281 56.160156 301.460938 C 58.988281 304.652344 63.816406 303.699219 70.640625 298.601562 L 72.484375 299.523438 C 75.679688 300.445312 79.953125 299.25 85.300781 295.929688 M 107.804688 261.382812 C 107.3125 265.191406 106.574219 268.324219 105.589844 270.78125 C 102.457031 278.765625 98.335938 285.273438 93.234375 290.3125 C 90.898438 292.707031 88.714844 293.414062 86.6875 292.429688 L 90.835938 287.085938 C 93.785156 283.277344 95.078125 280.730469 94.707031 279.441406 L 87.332031 287.730469 C 81.738281 293.875 77.1875 296.636719 73.683594 296.023438 C 73.3125 295.960938 73.007812 295.808594 72.761719 295.5625 L 72.484375 295.285156 L 78.941406 287.179688 C 83.058594 281.773438 84.625 278.582031 83.644531 277.597656 L 77.464844 284.691406 L 68.703125 294.457031 C 63.414062 298.941406 60.15625 300.476562 58.929688 299.0625 C 58.066406 298.140625 59.695312 294.734375 63.816406 288.835938 L 64.828125 287.457031 L 74.328125 272.898438 L 74.605469 271.976562 C 74.667969 271.671875 73.375 271.457031 70.730469 271.332031 L 63.816406 270.78125 C 61.355469 270.226562 59.417969 269.398438 58.003906 268.292969 C 56.589844 267.125 56.40625 266.144531 57.453125 265.34375 L 58.558594 264.882812 L 60.402344 264.699219 L 68.703125 263.59375 C 70.425781 263.164062 72.421875 262.152344 74.699219 260.554688 C 76.972656 263.441406 81.246094 265.621094 87.515625 267.09375 C 94.21875 268.753906 100.980469 266.847656 107.804688 261.382812 M 110.109375 149.90625 C 113.859375 160.472656 115.980469 172.816406 116.472656 186.941406 C 116.839844 199.964844 115.980469 213.597656 113.890625 227.847656 C 112.539062 236.691406 110.910156 244.585938 109.003906 251.523438 L 108.820312 252.355469 L 107.25 256.132812 C 105.40625 258.097656 103.253906 259.785156 100.796875 261.199219 C 96.613281 263.59375 92.679688 264.332031 88.992188 263.410156 C 83.398438 262.058594 79.832031 260.460938 78.292969 258.621094 C 79.03125 254.136719 79.246094 249.589844 78.941406 244.984375 C 78.261719 234.542969 76.296875 221.953125 73.039062 207.210938 L 68.335938 188.140625 L 66.398438 189.613281 C 69.839844 203.863281 72.023438 213.84375 72.945312 219.554688 L 74.050781 229.046875 L 73.960938 228.769531 L 51.828125 230.519531 C 50.230469 226.589844 49.796875 215.257812 50.535156 196.523438 C 51.335938 176.6875 53.300781 163.789062 56.4375 157.828125 C 57.296875 156.355469 57.945312 155.617188 58.375 155.617188 C 63.414062 155.742188 68.734375 154.605469 74.328125 152.210938 C 80.414062 149.570312 85.242188 146.007812 88.808594 141.523438 C 92.679688 136.730469 94.464844 131.390625 94.15625 125.492188 C 100.980469 131.265625 106.296875 139.402344 110.109375 149.90625 M 90.003906 122.359375 C 91.296875 128.625 89.945312 134.246094 85.949219 139.21875 C 82.8125 143.152344 78.476562 146.3125 72.945312 148.710938 C 67.964844 150.859375 63.230469 151.933594 58.742188 151.933594 L 58.375 151.933594 C 53.640625 152.054688 50.289062 160.226562 48.324219 176.441406 C 47.15625 185.960938 46.570312 196.402344 46.570312 207.765625 C 46.507812 219.1875 47 226.867188 48.046875 230.796875 C 48.660156 233.007812 49.613281 234.144531 50.90625 234.203125 L 55.054688 234.203125 L 74.328125 232.453125 C 74.699219 238.65625 74.699219 244.953125 74.328125 251.339844 L 50.996094 252.355469 C 44.542969 251.863281 38.085938 250.359375 31.632812 247.839844 C 25.054688 245.199219 19.335938 241.820312 14.476562 237.707031 L 14.941406 227.570312 L 18.8125 228.214844 L 19.089844 228.214844 L 20.75 227.570312 C 21.546875 226.835938 22.070312 225.238281 22.316406 222.78125 L 22.410156 210.527344 C 22.164062 197.8125 22.441406 186.882812 23.238281 177.730469 C 23.546875 174.964844 24.835938 169.53125 27.113281 161.421875 L 30.0625 150.183594 C 30.371094 147.726562 29.941406 146.097656 28.773438 145.300781 L 28.496094 145.117188 C 22.285156 142.476562 18.566406 139.3125 17.335938 135.625 L 23.054688 130.835938 C 26.191406 132.800781 29.386719 134.304688 32.644531 135.351562 C 34.304688 138.726562 36.824219 141.277344 40.207031 142.996094 C 43.28125 144.59375 46.816406 145.390625 50.8125 145.390625 C 58.621094 145.390625 65.722656 142.90625 72.117188 137.929688 C 78.941406 132.523438 82.230469 126.136719 81.984375 118.765625 L 82.257812 118.492188 C 85.148438 119.597656 87.730469 120.886719 90.003906 122.359375 M 85.488281 77.769531 C 85.300781 78.324219 85.457031 78.753906 85.949219 79.058594 L 87.238281 80.074219 C 88.039062 80.871094 88.46875 81.546875 88.53125 82.101562 C 88.53125 82.773438 88.898438 83.113281 89.636719 83.113281 C 90.375 83.113281 90.710938 82.621094 90.652344 81.640625 C 90.589844 80.71875 90.128906 79.796875 89.269531 78.875 L 87.054688 77.125 L 86.5 76.941406 C 86.007812 76.941406 85.671875 77.21875 85.488281 77.769531 M 89.730469 74.636719 L 92.21875 77.402344 L 94.0625 79.152344 L 94.433594 78.78125 C 94.492188 78.292969 94.1875 77.433594 93.511719 76.203125 L 91.203125 73.164062 C 89.914062 71.8125 88.40625 70.738281 86.6875 69.9375 L 86.316406 69.9375 C 85.824219 69.9375 85.488281 70.214844 85.300781 70.769531 C 85.117188 71.320312 85.394531 71.84375 86.132812 72.335938 L 89.730469 74.636719 M 83.457031 34.5625 L 84.105469 34.46875 C 87.421875 34.46875 89.667969 36.28125 90.835938 39.90625 C 92.066406 43.773438 90.222656 47.089844 85.300781 49.855469 L 84.472656 50.683594 C 84.105469 51.359375 84.320312 51.910156 85.117188 52.34375 C 88.683594 54.308594 91.605469 56.363281 93.878906 58.515625 C 98.675781 63.058594 101.070312 68.25 101.070312 74.085938 C 99.042969 69.417969 96.585938 65.394531 93.695312 62.015625 C 90.003906 58.144531 87.515625 55.964844 86.226562 55.472656 L 85.578125 55.382812 C 84.964844 55.382812 84.59375 55.628906 84.472656 56.121094 C 84.289062 56.609375 84.441406 57.011719 84.933594 57.316406 L 87.332031 59.160156 L 92.035156 63.582031 C 94 65.484375 95.878906 67.910156 97.660156 70.859375 L 100.886719 76.757812 L 100.425781 78.875 C 98.398438 74.269531 95.785156 70.367188 92.589844 67.175781 C 90.25 64.839844 88.191406 63.367188 86.410156 62.753906 L 86.039062 62.660156 C 85.488281 62.660156 85.210938 63 85.210938 63.675781 C 85.210938 64.410156 85.609375 65.023438 86.410156 65.515625 L 91.019531 68.925781 C 93.726562 71.628906 96.707031 75.558594 99.964844 80.71875 L 99.875 80.808594 C 99.6875 81.667969 99.71875 82.34375 99.964844 82.835938 L 96.738281 81.824219 C 96.613281 82.253906 96.769531 82.683594 97.199219 83.113281 C 101.5625 86.429688 102.703125 90.574219 100.609375 95.550781 C 98.519531 100.464844 94.863281 102.921875 89.636719 102.921875 L 88.160156 102.828125 C 82.75 112.71875 75.988281 120.300781 67.875 125.585938 C 67.074219 126.074219 66.707031 126.507812 66.765625 126.875 L 68.058594 127.335938 C 70.515625 127.335938 73.46875 126.136719 76.910156 123.742188 C 76.417969 128.289062 73.253906 132.402344 67.410156 136.085938 C 62.0625 139.527344 56.808594 141.246094 51.644531 141.246094 C 49.183594 141.246094 47.339844 140.785156 46.109375 139.863281 L 46.570312 139.957031 L 52.566406 138.667969 C 55.332031 137.808594 56.621094 137.132812 56.4375 136.640625 L 56.070312 136.457031 L 50.074219 137.007812 C 44.910156 137.007812 39.191406 135.625 32.921875 132.863281 C 21.609375 127.949219 13.25 119.257812 7.839844 106.789062 C 2.613281 94.875 1.261719 82.589844 3.78125 69.9375 C 5.257812 62.324219 8.421875 54.429688 13.28125 46.261719 C 15.738281 45.832031 18.167969 44.574219 20.566406 42.484375 L 25.082031 36.773438 C 27.910156 33.269531 29.785156 31.246094 30.707031 30.691406 L 32.554688 30.230469 C 34.398438 30.230469 36.519531 31 38.917969 32.535156 L 42.421875 33.269531 C 44.386719 33.269531 47 32.378906 50.257812 30.597656 C 51.550781 29.863281 53.058594 29.492188 54.777344 29.492188 C 58.957031 29.492188 62.800781 31.519531 66.304688 35.574219 C 67.351562 36.804688 68.765625 37.417969 70.546875 37.417969 C 71.714844 37.417969 73.34375 37.046875 75.433594 36.3125 L 83.457031 34.5625 M 86.59375 15.398438 C 89.851562 19.699219 91.664062 21.910156 92.035156 22.03125 C 94.433594 23.074219 96.953125 25.472656 99.597656 29.21875 C 101.503906 31.980469 103.101562 34.867188 104.390625 37.878906 C 106.789062 43.28125 107.25 50.347656 105.773438 59.066406 C 105.039062 63.429688 104.054688 67.265625 102.824219 70.582031 C 101.839844 65.484375 99.441406 61.0625 95.632812 57.316406 C 94.523438 56.210938 92.125 54.277344 88.4375 51.511719 L 93.511719 46.722656 C 95.355469 44.386719 96.152344 42.332031 95.90625 40.550781 C 95.539062 38.152344 94.679688 36.097656 93.324219 34.375 C 91.417969 32.042969 88.867188 30.875 85.671875 30.875 L 83.644531 31.058594 C 82.351562 31.246094 80.230469 31.980469 77.28125 33.269531 L 71.652344 35.207031 L 71.007812 35.113281 L 64.828125 28.941406 C 61.265625 25.132812 58.40625 23.199219 56.253906 23.136719 L 54.6875 23.503906 L 48.507812 27.375 L 44.726562 29.679688 L 41.867188 30.691406 L 40.761719 30.507812 L 38.179688 29.125 L 35.6875 28.019531 L 33.292969 27.46875 C 32.121094 27.46875 30.707031 27.929688 29.050781 28.847656 C 27.882812 29.523438 25.851562 31.644531 22.960938 35.207031 L 18.535156 40.734375 C 15.953125 42.882812 13.464844 43.957031 11.066406 43.957031 C 9.53125 43.957031 8.117188 43.40625 6.824219 42.300781 C 4.550781 40.148438 3.011719 37.324219 2.214844 33.824219 C 1.414062 30.382812 1.507812 27.34375 2.488281 24.703125 C 3.167969 22.675781 4.335938 20.863281 5.996094 19.269531 C 5.75 21.601562 6.394531 23.351562 7.929688 24.519531 C 9.53125 25.871094 11.464844 26.546875 13.742188 26.546875 C 16.816406 26.546875 19.457031 25.285156 21.671875 22.769531 L 27.113281 16.871094 C 29.695312 14.292969 31.691406 12.820312 33.105469 12.449219 L 35.320312 12.171875 L 39.746094 13.003906 L 43.433594 13.925781 C 44.355469 13.925781 45.15625 13.585938 45.832031 12.910156 L 49.058594 8.394531 C 52.320312 3.421875 54.65625 0.8125 56.070312 0.566406 L 56.621094 0.566406 C 58.40625 0.566406 60.589844 1.457031 63.171875 3.238281 L 65.660156 5.171875 L 68.519531 6.738281 L 76.632812 8.855469 C 80.261719 9.347656 83.582031 11.527344 86.59375 15.398438 "/>
</g>
</svg>
