<?xml version="1.0" encoding="UTF-8"?>
<svg xmlns="http://www.w3.org/2000/svg" xmlns:xlink="http://www.w3.org/1999/xlink" width="128pt" height="168pt" viewBox="0 0 128 168" version="1.1">
<g id="surface1">
<path style=" stroke:none;fill-rule:nonzero;fill:rgb(100%,100%,100%);fill-opacity:1;" d="M 124.640625 50.40625 C 123.390625 53.773438 122.511719 57.640625 122.007812 62.007812 C 121.613281 65.285156 121.390625 69.25 121.347656 73.90625 C 121.347656 74.015625 121.425781 74.125 121.578125 74.234375 C 120.019531 74.191406 118.382812 74.417969 116.671875 74.921875 C 115.375 75.316406 113.839844 75.9375 112.0625 76.789062 C 110.503906 77.53125 108.890625 78.210938 107.222656 78.820312 C 107.792969 74.453125 109.074219 69.742188 111.074219 64.695312 L 113.511719 59.519531 C 114.5 57.441406 115.144531 55.671875 115.453125 54.207031 C 115.980469 49.816406 116.574219 46.5625 117.230469 44.441406 C 118.394531 40.660156 120.570312 38.554688 123.753906 38.117188 C 126.585938 37.722656 127.703125 39.273438 127.109375 42.769531 C 126.914062 43.949219 126.089844 46.496094 124.640625 50.40625 M 115.257812 50.113281 C 114.949219 52.011719 114.378906 54.042969 113.542969 56.207031 L 111.105469 62.105469 C 108.40625 68.597656 106.738281 74.289062 106.101562 79.183594 L 102.710938 80.164062 L 102.742188 80.066406 C 102.832031 77.203125 102.402344 74.320312 101.457031 71.414062 C 100.515625 68.507812 99.175781 65.910156 97.441406 63.613281 C 94.695312 60.03125 91.503906 56.941406 87.859375 54.339844 C 83.753906 51.410156 79.667969 49.566406 75.609375 48.800781 C 76.550781 47.488281 77.234375 46.386719 77.648438 45.492188 L 77.980469 45.457031 C 79.667969 45.304688 80.921875 44.222656 81.734375 42.214844 C 82.566406 40.136719 82.292969 38.433594 80.910156 37.101562 L 80.414062 37.035156 L 80.777344 36.511719 L 81.171875 35.527344 C 83.960938 35.722656 86.410156 35.515625 88.515625 34.90625 C 90.359375 34.359375 91.84375 33.527344 92.960938 32.414062 L 108.144531 34.152344 C 113.585938 34.960938 118.558594 35.996094 123.058594 37.265625 C 120.535156 37.570312 118.613281 39.15625 117.296875 42.015625 C 116.527344 43.722656 115.847656 46.417969 115.257812 50.113281 M 94.773438 75.609375 C 94.269531 74.058594 92.699219 72.527344 90.0625 71.023438 L 89.964844 70.957031 C 88.539062 68.707031 86.574219 66.3125 84.070312 63.777344 C 84.445312 62.097656 85.101562 60.664062 86.046875 59.484375 C 87.144531 58.109375 88.460938 57.257812 90 56.929688 L 90.03125 56.894531 C 92.90625 59.253906 95.222656 61.78125 96.980469 64.46875 C 98.671875 67.066406 99.921875 69.722656 100.734375 72.429688 C 101.675781 75.578125 101.910156 78.472656 101.425781 81.117188 C 100.984375 83.5625 99.800781 85.59375 97.867188 87.210938 C 96.15625 88.675781 93.972656 89.703125 91.316406 90.292969 C 86.59375 91.386719 82.457031 90.074219 78.902344 86.359375 C 76.046875 83.386719 73.828125 79.246094 72.25 73.9375 L 76.660156 73.710938 C 78.15625 73.207031 79.371094 72.398438 80.316406 71.285156 C 81.632812 69.777344 82.347656 68.171875 82.457031 66.464844 C 82.566406 64.828125 82.117188 63.210938 81.105469 61.617188 C 83.984375 64.28125 86.210938 66.707031 87.792969 68.890625 C 89.964844 71.863281 91.226562 74.679688 91.578125 77.347656 C 91.601562 77.523438 91.796875 77.707031 92.171875 77.902344 C 92.523438 78.101562 92.6875 78.132812 92.664062 78.003906 C 92.425781 76.035156 91.722656 74.027344 90.558594 71.972656 C 92.316406 73.019531 93.355469 74.082031 93.6875 75.152344 C 93.730469 75.324219 93.9375 75.5 94.3125 75.675781 C 94.683594 75.851562 94.839844 75.828125 94.773438 75.609375 M 116.179688 76.035156 C 118.21875 75.316406 120.117188 74.988281 121.875 75.054688 L 121.90625 75.054688 C 125.023438 75.6875 126.585938 77.25 126.585938 79.738281 C 123.863281 81.136719 120.152344 82.589844 115.453125 84.097656 C 109.195312 86.085938 105.398438 87.34375 104.058594 87.867188 L 85.222656 94.78125 L 85.058594 94.519531 C 83.875 92.945312 82.65625 91.613281 81.402344 90.523438 C 79.601562 88.949219 77.957031 88.0625 76.464844 87.867188 L 77.320312 87.375 L 78.40625 86.917969 C 80.515625 89.144531 82.796875 90.609375 85.257812 91.308594 C 88.023438 92.09375 90.929688 91.886719 93.984375 90.6875 C 96.550781 89.660156 98.515625 88.46875 99.878906 87.113281 C 101.457031 85.496094 102.378906 83.519531 102.644531 81.179688 C 105.738281 80.480469 108.484375 79.554688 110.875 78.394531 C 113.445312 77.171875 115.210938 76.386719 116.179688 76.035156 M 123.257812 88.6875 C 120.863281 93.515625 119.351562 98.386719 118.714844 103.304688 L 118.382812 103.304688 C 117.132812 104.855469 115.441406 106.21875 113.3125 107.402344 C 111.84375 108.230469 109.832031 109.117188 107.285156 110.054688 C 101.777344 112.152344 97.78125 113.800781 95.300781 115.003906 C 89.964844 117.582031 85.496094 120.117188 81.898438 122.609375 L 78.210938 125.164062 C 76.738281 126.125 75.386719 126.769531 74.160156 127.097656 C 74.75 123.953125 76.234375 120.03125 78.605469 115.332031 C 81.546875 109.453125 83.335938 105.621094 83.972656 103.828125 L 85.289062 99.894531 C 85.773438 98.082031 85.859375 96.640625 85.554688 95.570312 C 94.664062 92.355469 101.328125 89.910156 105.542969 88.226562 C 107.277344 87.527344 110.789062 86.359375 116.078125 84.722656 C 120.535156 83.324219 124.003906 82.023438 126.484375 80.820312 C 126.308594 81.914062 125.859375 83.246094 125.136719 84.820312 L 123.257812 88.6875 M 105.671875 116.28125 L 112.195312 113.5625 C 112.808594 115.417969 113.675781 117.703125 114.796875 120.410156 L 117.59375 127.164062 L 120.953125 136.042969 L 121.972656 138.765625 C 122.367188 140.03125 122.480469 140.984375 122.304688 141.617188 C 122.238281 141.8125 121.632812 141.203125 120.492188 139.78125 L 118.484375 137.226562 L 113.773438 129.785156 L 105.804688 116.414062 L 105.671875 116.28125 M 102.839844 112.742188 L 109.722656 110.023438 C 111.699219 109.191406 113.28125 108.4375 114.464844 107.761719 C 116.113281 106.820312 117.472656 105.773438 118.550781 104.613281 L 118.351562 107.992188 C 117.121094 109.519531 115.429688 110.875 113.28125 112.054688 C 111.851562 112.839844 109.855469 113.714844 107.285156 114.675781 C 101.777344 116.773438 97.78125 118.421875 95.300781 119.625 C 89.964844 122.203125 85.496094 124.738281 81.898438 127.230469 L 79.558594 128.867188 L 77.121094 130.441406 L 76.925781 130.441406 L 76.925781 130.570312 C 74.730469 131.773438 72.699219 132.230469 70.832031 131.949219 C 68.285156 131.554688 65.476562 130.460938 62.402344 128.671875 L 54.695312 123.753906 L 54.53125 123.65625 L 56.476562 120.773438 L 59.40625 122.609375 L 64.675781 125.785156 C 66.828125 126.902344 68.757812 127.589844 70.472656 127.851562 C 72.269531 128.136719 74.027344 127.972656 75.738281 127.359375 C 77.101562 126.878906 78.660156 126.015625 80.414062 124.769531 C 85.53125 121.164062 90.734375 118.128906 96.023438 115.660156 C 97.804688 114.828125 100.074219 113.855469 102.839844 112.742188 M 65.234375 2.328125 L 67.011719 3.902344 C 69.121094 7.636719 70.820312 9.976562 72.117188 10.914062 C 73.082031 11.589844 73.90625 11.734375 74.585938 11.339844 L 75.3125 10.519531 L 70.207031 5.441406 C 71.832031 6.03125 73.664062 6.535156 75.707031 6.949219 L 76.992188 7.210938 C 79.273438 7.667969 81.644531 10.195312 84.105469 14.78125 L 83.246094 21.042969 C 79.976562 18.222656 76.660156 16.265625 73.304688 15.175781 C 70.25 14.214844 64.53125 12.695312 56.144531 10.621094 C 55.925781 10.554688 56.15625 10.007812 56.835938 8.980469 C 57.496094 8.019531 58.035156 7.351562 58.453125 6.980469 C 59.855469 5.714844 60.636719 4.589844 60.789062 3.605469 L 61.117188 1.507812 C 61.316406 0.808594 61.601562 0.40625 61.976562 0.296875 C 62.65625 0.121094 63.742188 0.796875 65.234375 2.328125 M 51.46875 16.714844 L 62.304688 18.417969 C 64.609375 18.769531 67.265625 19.359375 70.273438 20.1875 L 78.902344 22.679688 C 83.070312 23.949219 84.785156 24.625 84.039062 24.710938 C 79.714844 25.171875 72.886719 24.84375 63.554688 23.730469 C 55.5625 22.769531 50.371094 21.914062 47.980469 21.171875 L 44.882812 20.089844 L 37.476562 17.699219 L 43.664062 17.140625 L 51.46875 16.714844 M 53.347656 13.601562 C 54.003906 12.597656 54.640625 11.886719 55.257812 11.472656 C 61.402344 12.871094 66.332031 14.105469 70.042969 15.175781 L 71.558594 16.222656 L 69.417969 15.929688 L 71.6875 17.304688 L 69.253906 17.175781 L 71.425781 18.519531 L 69.121094 18.484375 L 71.394531 19.566406 C 67.96875 18.605469 64.992188 17.917969 62.46875 17.5 L 52.097656 15.894531 C 52.382812 15.175781 52.796875 14.410156 53.347656 13.601562 M 75.773438 17.175781 C 77.351562 17.917969 78.921875 18.867188 80.480469 20.027344 L 83.050781 22.121094 L 82.917969 22.941406 L 81.140625 22.679688 L 81.171875 22.613281 L 76.070312 20.941406 L 74.289062 20.089844 L 76.5625 20.125 L 74.390625 18.78125 L 76.859375 18.910156 L 74.554688 17.535156 L 76.726562 17.828125 L 75.773438 17.175781 M 16.5 40.804688 L 16.53125 40.804688 C 15.191406 43.140625 12.765625 45.066406 9.253906 46.574219 C 12.722656 44.257812 14.414062 41.359375 14.324219 37.886719 L 16.5 40.804688 M 21.699219 47.488281 L 15.675781 47.882812 L 7.144531 48.277344 C 9.957031 47.378906 12.28125 46.234375 14.128906 44.835938 C 16.476562 43.085938 17.859375 41.066406 18.277344 38.773438 L 21.699219 47.488281 M 25.390625 47.882812 C 28.113281 47.359375 30.417969 46.625 32.304688 45.6875 L 32.371094 45.785156 L 37.410156 54.734375 C 36.136719 53.988281 34.269531 52.984375 31.8125 51.71875 L 29.605469 50.441406 C 28.703125 49.914062 27.945312 49.554688 27.332031 49.359375 L 25.882812 49.324219 L 24.433594 49.457031 L 7.441406 49.882812 L 3.820312 49.882812 L 0.757812 49.75 L 0.230469 49.6875 L 0.0976562 49.652344 C 0.03125 49.632812 0.03125 49.597656 0.0976562 49.554688 L 0.164062 49.488281 L 0.757812 49.226562 L 1.054688 49.0625 L 3.425781 47.816406 L 7.410156 45.71875 C 9.253906 44.5625 10.328125 43.4375 10.636719 42.34375 L 11.128906 43.359375 L 11.261719 43.558594 C 10.273438 44.714844 9 45.730469 7.441406 46.605469 C 6.015625 47.414062 4.46875 48.035156 2.800781 48.472656 C 2.558594 48.539062 2.535156 48.679688 2.734375 48.898438 C 2.929688 49.117188 3.117188 49.226562 3.292969 49.226562 L 14.390625 48.996094 C 18.757812 48.84375 22.425781 48.472656 25.390625 47.882812 M 27.496094 50.242188 L 28.582031 55.945312 C 28.605469 56.121094 28.738281 56.296875 28.980469 56.46875 L 29.570312 56.699219 C 31.65625 56.4375 33.621094 56.414062 35.464844 56.632812 C 37.707031 56.894531 39.558594 57.507812 41.03125 58.46875 C 41.929688 61.550781 43.335938 64.214844 45.246094 66.464844 L 46.761719 71.511719 L 48.308594 76.824219 C 49.910156 82.460938 51.570312 89.003906 53.28125 96.453125 L 51.964844 96.0625 L 47.648438 94.882812 C 42.796875 93.699219 38.824219 92.9375 35.730469 92.585938 L 23.019531 91.539062 L 23.019531 90.585938 C 24.09375 90.652344 25.125 90.390625 26.113281 89.800781 L 26.277344 89.867188 L 49.757812 91.832031 L 49.824219 91.800781 L 46.792969 77.25 L 46.53125 77.019531 L 46.265625 76.886719 L 32.007812 77.28125 L 32.074219 76.558594 C 31.984375 75.554688 30.84375 74.84375 28.648438 74.429688 L 28.089844 74.332031 L 33.0625 74.332031 C 33.257812 74.332031 33.316406 74.222656 33.226562 74.003906 L 29.472656 66.238281 L 29.273438 66.074219 L 29.144531 66.007812 L 17.816406 66.238281 L 17.617188 66.402344 L 17.683594 66.628906 L 20.84375 70.660156 L 21.996094 72.265625 L 23.28125 73.839844 L 19.726562 73.808594 L 18.738281 72.59375 C 14.414062 66.761719 9.824219 61.070312 4.972656 55.519531 L 0.757812 50.800781 L 0.492188 50.503906 L 0.757812 50.570312 L 8.003906 50.964844 L 15.542969 50.636719 L 27.496094 50.242188 M 8.890625 42.605469 L 4.183594 36.476562 L 5.203125 36.675781 C 6.257812 36.785156 7.265625 37.277344 8.234375 38.148438 C 9.308594 39.109375 9.757812 40.09375 9.582031 41.097656 L 8.890625 42.605469 M 12.25 74.625 C 12.953125 72.683594 14.335938 71.292969 16.398438 70.464844 L 16.730469 70.921875 C 13.128906 73.304688 12.195312 76.988281 13.929688 81.96875 C 14.652344 84.023438 15.75 85.835938 17.222656 87.410156 C 18.714844 89.023438 20.285156 90.03125 21.929688 90.421875 L 21.929688 90.6875 C 21.207031 93.375 21.570312 96.378906 23.019531 99.699219 C 24.136719 102.277344 25.851562 104.929688 28.15625 107.664062 C 22.84375 105.542969 18.441406 103.371094 14.949219 101.140625 C 14.6875 100.964844 14.566406 100.964844 14.589844 101.140625 C 14.632812 101.316406 14.753906 101.46875 14.949219 101.597656 C 18.484375 103.851562 23.085938 106.089844 28.75 108.316406 L 30.65625 110.285156 L 30.65625 110.382812 L 30.757812 113.265625 C 24.414062 110.886719 19.273438 108.460938 15.34375 105.992188 L 15.3125 105.957031 C 14.71875 104.472656 14.476562 102.363281 14.589844 99.632812 C 14.71875 96.464844 14.664062 94.289062 14.421875 93.109375 L 13.371094 88.488281 L 12.347656 83.835938 C 11.976562 81.804688 11.757812 80.265625 11.691406 79.214844 C 11.601562 77.421875 11.789062 75.894531 12.25 74.625 M 6.257812 54.4375 L 13.601562 62.632812 C 14.0625 63.132812 14.753906 63.394531 15.675781 63.417969 L 18.078125 63.285156 L 39.714844 63.1875 L 39.910156 63.089844 L 39.878906 62.859375 L 37.902344 59.253906 C 37.816406 59.101562 37.683594 59.039062 37.507812 59.058594 C 37.332031 59.082031 37.289062 59.179688 37.375 59.355469 L 39.1875 62.632812 L 14.949219 62.761719 L 14.359375 62.796875 L 14.226562 62.597656 L 7.015625 54.570312 L 26.507812 54.109375 C 26.683594 54.109375 26.75 54.035156 26.707031 53.882812 C 26.640625 53.640625 26.519531 53.542969 26.34375 53.585938 L 6.355469 54.042969 C 6.246094 54.042969 6.179688 54.089844 6.15625 54.175781 C 6.136719 54.261719 6.167969 54.351562 6.257812 54.4375 M 39.84375 56.339844 L 40.40625 55.847656 L 40.636719 56.996094 L 39.878906 56.40625 L 39.84375 56.339844 M 39.382812 56.632812 L 40.832031 57.8125 L 40.867188 57.910156 C 37.878906 56.054688 34.09375 55.34375 29.503906 55.78125 L 28.484375 50.339844 C 29.035156 50.558594 29.964844 51.074219 31.285156 51.882812 L 33.886719 53.488281 L 36.617188 54.996094 C 37.871094 55.695312 38.792969 56.242188 39.382812 56.632812 M 32.105469 64.859375 L 35.960938 74.136719 L 36.355469 74.429688 L 43.007812 74.660156 L 43.171875 74.527344 L 42.972656 74.265625 L 42.777344 74.167969 L 36.386719 73.9375 L 36.355469 73.871094 L 32.964844 65.679688 L 32.765625 65.21875 L 32.601562 65.121094 L 37.246094 64.925781 L 39.878906 64.792969 L 40.308594 64.792969 L 43.566406 72.757812 C 43.65625 72.933594 43.796875 73.019531 43.996094 73.019531 C 44.125 73.019531 44.160156 72.957031 44.09375 72.824219 L 40.703125 64.566406 C 40.59375 64.347656 40.449219 64.257812 40.273438 64.304688 L 32.207031 64.628906 C 32.097656 64.628906 32.0625 64.707031 32.105469 64.859375 M 26.707031 74.921875 C 28.398438 75.054688 29.691406 75.378906 30.59375 75.90625 C 31.339844 76.34375 31.140625 76.800781 30 77.28125 C 29.164062 77.609375 28.441406 77.804688 27.824219 77.871094 L 24.269531 78.035156 C 22.753906 78.121094 22.085938 78.449219 22.261719 79.019531 C 22.457031 79.566406 23.214844 79.96875 24.53125 80.230469 L 28.023438 80.917969 C 29.144531 81.179688 30.132812 81.664062 30.988281 82.359375 C 32.085938 83.257812 31.964844 83.96875 30.625 84.492188 C 29.417969 84.949219 28.035156 85.148438 26.476562 85.082031 C 24.984375 85.015625 23.609375 84.730469 22.359375 84.230469 C 21.988281 84.078125 21.855469 84.164062 21.964844 84.492188 C 22.050781 84.796875 22.226562 85.003906 22.492188 85.113281 L 25.027344 85.574219 L 28.945312 85.671875 C 28.460938 86.5 27.738281 87.082031 26.773438 87.410156 L 23.90625 87.574219 C 23.578125 87.507812 23.511719 87.636719 23.710938 87.964844 C 23.90625 88.292969 24.125 88.480469 24.367188 88.523438 L 25.554688 88.652344 C 23.953125 89.8125 22.226562 89.898438 20.382812 88.917969 C 18.695312 88.019531 17.265625 86.492188 16.101562 84.328125 C 14.917969 82.144531 14.367188 79.957031 14.457031 77.773438 C 14.542969 75.347656 15.464844 73.46875 17.222656 72.136719 C 18.144531 73.554688 18.878906 74.40625 19.429688 74.691406 L 21.007812 74.890625 L 22.625 74.789062 L 26.707031 74.921875 M 26.148438 78.984375 L 27.890625 78.886719 L 29.933594 78.625 C 30.789062 78.449219 31.394531 78.15625 31.746094 77.738281 L 46.332031 77.3125 L 49.230469 91.144531 C 49.273438 91.386719 49.144531 91.484375 48.835938 91.441406 L 47.980469 91.308594 L 26.671875 89.507812 L 26.542969 89.507812 L 27.53125 88.652344 L 27.5625 88.359375 C 28.902344 87.921875 29.824219 87.058594 30.328125 85.769531 L 30.296875 85.539062 C 32.996094 85.148438 33.742188 84.109375 32.535156 82.425781 C 31.964844 81.664062 31.128906 81.0625 30.03125 80.625 C 29.285156 80.339844 28.265625 80.078125 26.96875 79.835938 L 26.148438 79.675781 L 26.148438 78.984375 M 25.621094 79.574219 L 24.597656 79.378906 L 23.609375 79.214844 C 23.371094 79.171875 23.5 79.128906 24.007812 79.082031 L 25.585938 78.984375 L 25.621094 79.574219 M 32.632812 73.808594 L 23.941406 73.808594 L 18.375 66.761719 L 29.078125 66.5625 L 32.402344 73.445312 L 32.632812 73.808594 M 84.761719 33.300781 C 85.136719 33.539062 86.15625 33.398438 87.824219 32.871094 C 89.648438 32.304688 90.929688 31.59375 91.679688 30.742188 C 92.402344 29.890625 92.523438 29.058594 92.039062 28.25 C 91.601562 27.464844 91.097656 27.191406 90.523438 27.433594 C 90.238281 27.542969 90.152344 28.078125 90.261719 29.039062 C 90.371094 30.085938 90.21875 30.796875 89.800781 31.167969 C 89.382812 31.519531 88.320312 31.957031 86.605469 32.480469 C 85.179688 32.917969 84.566406 33.191406 84.761719 33.300781 M 82.425781 29.5625 L 82.457031 25.925781 L 88.945312 26.21875 C 91.273438 26.527344 92.777344 27.082031 93.457031 27.890625 C 93.761719 28.242188 93.894531 28.625 93.851562 29.039062 C 93.542969 30.894531 92.257812 32.328125 90 33.332031 C 87.738281 34.335938 84.894531 34.75 81.46875 34.578125 C 81.910156 32.960938 82.226562 31.289062 82.425781 29.5625 M 74.980469 25.792969 L 80.875 25.890625 C 80.988281 28.207031 80.757812 30.449219 80.183594 32.609375 C 79.636719 30.820312 78.636719 29.34375 77.1875 28.1875 L 75.609375 27.039062 L 74.421875 26.316406 L 74.980469 25.792969 M 73.402344 25.761719 L 73.269531 25.859375 C 72.808594 26.230469 72.820312 26.527344 73.304688 26.746094 C 74.707031 27.398438 75.804688 28.035156 76.597656 28.644531 C 78.460938 30.109375 79.484375 31.867188 79.660156 33.921875 C 78.867188 32.414062 77.867188 31.070312 76.660156 29.890625 C 75.210938 28.644531 74.257812 27.957031 73.796875 27.824219 L 73.535156 27.824219 C 73.3125 27.847656 73.183594 27.945312 73.136719 28.121094 C 73.09375 28.296875 73.183594 28.425781 73.402344 28.515625 L 76.136719 30.480469 C 76.882812 31.070312 77.628906 31.867188 78.375 32.871094 L 79.691406 34.871094 L 79.625 35.660156 C 78.703125 34.019531 77.636719 32.71875 76.429688 31.757812 C 75.488281 31.015625 74.707031 30.558594 74.09375 30.382812 L 73.960938 30.382812 C 73.765625 30.402344 73.664062 30.535156 73.664062 30.773438 C 73.6875 31.015625 73.863281 31.210938 74.191406 31.367188 C 74.980469 31.757812 75.5625 32.109375 75.9375 32.414062 L 78.144531 34.707031 L 79.492188 36.3125 L 79.492188 36.347656 C 79.429688 36.566406 79.4375 36.773438 79.527344 36.96875 L 78.40625 36.839844 L 78.605469 37.265625 C 80.25 38.292969 80.789062 39.722656 80.21875 41.558594 C 79.648438 43.371094 78.429688 44.367188 76.5625 44.539062 L 76.070312 44.539062 C 74.863281 47.292969 73.304688 49.652344 71.394531 51.621094 L 69.316406 51.75 C 68.285156 51.117188 67.199219 50.679688 66.058594 50.441406 L 66.058594 50.40625 L 66.089844 50.113281 C 66.023438 47.992188 62.4375 46.898438 55.324219 46.835938 L 55.191406 46.507812 C 55.015625 46.027344 54.761719 45.65625 54.433594 45.390625 C 54.105469 45.128906 53.796875 45.054688 53.511719 45.164062 C 53.335938 45.230469 53.195312 45.371094 53.082031 45.589844 L 52.753906 45.328125 C 52.601562 45.175781 52.546875 44.945312 52.589844 44.636719 C 52.632812 44.441406 52.898438 44.289062 53.378906 44.179688 L 54.5 44.082031 C 54.742188 44.082031 55.148438 44.234375 55.71875 44.539062 L 56.441406 44.636719 C 56.550781 44.375 56.496094 44.125 56.277344 43.886719 C 56.058594 43.644531 55.773438 43.492188 55.421875 43.425781 L 54.003906 43.359375 C 55.300781 42.75 56.101562 42.113281 56.410156 41.460938 L 56.441406 41.425781 L 56.773438 41.132812 L 56.640625 40.738281 L 55.289062 39.230469 C 54.984375 38.902344 54.917969 38.53125 55.09375 38.117188 L 56.210938 35.394531 L 56.96875 33.070312 L 57.234375 31.957031 L 57.199219 31.496094 L 57.003906 31.300781 L 56.96875 31.300781 C 56.75 31.34375 56.585938 31.539062 56.476562 31.890625 L 55.390625 34.644531 C 55.039062 35.386719 54.292969 36.609375 53.148438 38.3125 C 52.90625 38.683594 52.917969 39.035156 53.183594 39.363281 L 54.863281 41.359375 C 55.039062 41.535156 55.277344 41.644531 55.585938 41.6875 L 54.300781 42.769531 L 53.148438 43.425781 L 52.097656 43.886719 C 51.679688 44.148438 51.503906 44.507812 51.570312 44.964844 C 51.632812 45.402344 52.097656 45.929688 52.953125 46.539062 L 52.523438 46.835938 L 46.859375 47.097656 C 45.191406 43.425781 44.554688 39.625 44.949219 35.691406 C 44.992188 35.015625 45.136719 34.152344 45.378906 33.101562 C 45.398438 33.253906 45.488281 33.40625 45.640625 33.5625 C 45.816406 33.734375 45.980469 33.824219 46.136719 33.824219 L 46.726562 33.953125 L 47.253906 33.988281 L 47.355469 34.25 C 48.277344 35.667969 49.320312 36.257812 50.480469 36.019531 C 51.140625 35.886719 51.667969 35.515625 52.0625 34.90625 C 52.457031 34.335938 52.632812 33.714844 52.589844 33.035156 C 52.566406 32.796875 52.371094 32.589844 51.996094 32.414062 C 51.625 32.261719 51.449219 32.335938 51.46875 32.644531 C 51.492188 33.058594 51.402344 33.460938 51.207031 33.855469 L 50.351562 34.773438 L 49.132812 35.003906 C 48.824219 34.894531 48.527344 34.609375 48.242188 34.152344 L 47.847656 33.824219 L 47.386719 33.757812 C 47.386719 33.472656 47.222656 33.265625 46.894531 33.136719 L 45.738281 32.808594 L 45.410156 32.9375 C 45.871094 30.929688 46.585938 28.941406 47.550781 26.972656 C 48.363281 26.753906 49.175781 26.242188 49.988281 25.433594 L 51.601562 22.976562 C 55.53125 23.804688 59.40625 24.472656 63.226562 24.972656 C 62.722656 25.847656 62.523438 26.339844 62.632812 26.449219 L 63.257812 26.679688 L 64.542969 27.070312 C 65.949219 27.769531 66.78125 28.109375 67.046875 28.085938 C 67.179688 27.34375 66.441406 26.371094 64.839844 25.171875 L 73.074219 25.761719 L 73.402344 25.761719 M 68.726562 32.808594 L 67.078125 32.707031 C 66.707031 32.707031 66.605469 32.882812 66.78125 33.234375 C 66.957031 33.5625 67.1875 33.726562 67.472656 33.726562 L 69.121094 33.824219 L 69.449219 33.726562 L 69.484375 33.363281 C 69.351562 33.058594 69.097656 32.871094 68.726562 32.808594 M 67.472656 34.019531 L 66.714844 33.921875 C 66.519531 33.921875 66.519531 34.050781 66.714844 34.316406 L 67.507812 34.773438 L 68.988281 35.003906 C 69.1875 35.003906 69.1875 34.871094 68.988281 34.609375 C 68.726562 34.304688 68.460938 34.152344 68.199219 34.152344 L 67.472656 34.019531 M 74.289062 32.9375 C 74.113281 32.960938 74.003906 33.070312 73.960938 33.265625 C 73.917969 33.460938 74.027344 33.636719 74.289062 33.789062 L 74.390625 33.824219 L 74.421875 33.855469 C 74.863281 34.03125 75.269531 34.25 75.640625 34.511719 L 76.628906 35.394531 L 77.351562 35.953125 L 77.484375 35.789062 C 77.507812 35.613281 77.363281 35.332031 77.058594 34.9375 L 76.136719 33.921875 C 75.628906 33.441406 75.058594 33.113281 74.421875 32.9375 L 74.289062 32.9375 M 74.585938 35.429688 C 74.410156 35.449219 74.300781 35.558594 74.257812 35.757812 C 74.214844 35.953125 74.28125 36.09375 74.457031 36.183594 C 74.519531 36.183594 74.6875 36.292969 74.949219 36.511719 C 75.277344 36.75 75.453125 36.96875 75.476562 37.167969 C 75.519531 37.429688 75.664062 37.539062 75.902344 37.492188 C 76.191406 37.449219 76.300781 37.265625 76.234375 36.9375 C 76.167969 36.609375 75.96875 36.304688 75.640625 36.019531 C 75.355469 35.777344 75.070312 35.59375 74.785156 35.460938 L 74.585938 35.429688 M 76.828125 49.980469 C 77.835938 50.242188 78.902344 50.570312 80.019531 50.964844 C 80.4375 53.324219 80.066406 56 78.902344 58.992188 L 78.867188 58.929688 L 78.605469 58.042969 C 78.101562 56.839844 77.40625 55.761719 76.53125 54.796875 C 76.945312 53.335938 77.058594 51.75 76.859375 50.046875 L 76.828125 49.980469 M 75.773438 49.75 C 75.925781 51.171875 75.847656 52.515625 75.542969 53.78125 L 74.289062 52.800781 C 74.464844 51.925781 74.5 51.117188 74.390625 50.375 L 74.980469 49.652344 L 75.773438 49.75 M 61.117188 33.59375 C 60.789062 33.570312 60.734375 33.734375 60.953125 34.085938 C 61.875 35.503906 62.917969 36.09375 64.082031 35.855469 C 64.742188 35.722656 65.269531 35.351562 65.664062 34.742188 C 66.058594 34.171875 66.234375 33.550781 66.191406 32.871094 C 66.191406 32.632812 66.003906 32.425781 65.628906 32.25 C 65.234375 32.097656 65.046875 32.171875 65.070312 32.480469 C 65.09375 32.894531 65.003906 33.300781 64.808594 33.691406 C 64.585938 34.085938 64.300781 34.390625 63.949219 34.609375 C 63.488281 34.871094 63.09375 34.949219 62.765625 34.839844 C 62.457031 34.730469 62.160156 34.445312 61.875 33.988281 C 61.699219 33.726562 61.449219 33.59375 61.117188 33.59375 M 50.582031 26.546875 L 48.210938 28.351562 L 48.011719 28.644531 L 48.308594 28.742188 L 48.375 28.742188 L 51.007812 28.382812 C 51.230469 28.359375 51.394531 28.261719 51.503906 28.085938 L 51.601562 27.496094 L 51.4375 26.84375 C 51.328125 26.515625 51.152344 26.371094 50.910156 26.417969 L 50.582031 26.546875 M 49.230469 24.84375 C 48.375 25.695312 47.53125 26.164062 46.695312 26.253906 C 46.082031 26.296875 45.554688 26.144531 45.113281 25.792969 C 44.324219 25.183594 43.71875 24.339844 43.304688 23.269531 C 42.886719 22.242188 42.734375 21.261719 42.84375 20.320312 L 44.585938 20.941406 L 47.714844 22.023438 L 50.582031 22.777344 L 49.230469 24.84375 M 42.316406 26.1875 C 39.835938 25.136719 37.726562 23.894531 35.992188 22.449219 C 34.015625 20.769531 33.171875 19.316406 33.457031 18.09375 C 33.675781 17.4375 36.464844 18.058594 41.820312 19.960938 C 41.515625 21.511719 41.898438 23.019531 42.972656 24.484375 C 42.6875 24.855469 42.46875 25.421875 42.316406 26.1875 M 46.265625 27.039062 C 45.566406 28.632812 45.070312 29.902344 44.785156 30.839844 C 44.125 29.945312 43.71875 29.234375 43.566406 28.710938 C 43.390625 28.035156 43.359375 27.433594 43.46875 26.90625 C 43.578125 26.40625 43.785156 26.132812 44.09375 26.089844 C 44.292969 26.089844 44.476562 26.164062 44.652344 26.316406 C 45.179688 26.734375 45.71875 26.972656 46.265625 27.039062 M 42.675781 51.03125 C 41.734375 50.789062 41.171875 50.484375 41 50.113281 C 41.394531 49.042969 43.292969 48.351562 46.695312 48.046875 C 47.792969 47.960938 49.933594 47.917969 53.117188 47.917969 L 60.558594 48.441406 L 63.0625 49.097656 C 64.511719 49.578125 65.015625 49.949219 64.578125 50.210938 C 63.523438 50.820312 62.25 51.269531 60.757812 51.554688 L 60.558594 51.457031 C 59.835938 51.347656 58.539062 50.867188 56.671875 50.011719 C 54.984375 49.25 53.664062 48.867188 52.722656 48.867188 C 51.753906 48.84375 50.449219 49.214844 48.800781 49.980469 C 46.957031 50.832031 45.652344 51.3125 44.882812 51.421875 L 42.675781 51.03125 M 65.664062 51.292969 C 67.15625 51.53125 68.375 52.023438 69.316406 52.765625 C 70.460938 53.640625 71.0625 54.753906 71.128906 56.109375 L 69.945312 56.371094 C 69.722656 55.367188 69.132812 54.527344 68.164062 53.847656 C 67.351562 53.257812 66.34375 52.855469 65.136719 52.636719 L 64.90625 52.667969 L 64.773438 52.863281 L 64.742188 53.0625 L 63.359375 53.453125 C 62.371094 53.957031 61.679688 54.632812 61.285156 55.488281 C 60.867188 56.382812 60.878906 57.3125 61.316406 58.273438 C 60.261719 58.46875 59.550781 59.003906 59.175781 59.878906 C 58.800781 60.773438 58.96875 61.636719 59.667969 62.46875 L 60.195312 63.058594 L 60.164062 63.089844 C 59.503906 63.898438 59.363281 64.847656 59.734375 65.941406 L 59.667969 65.941406 C 56.949219 67.449219 54.160156 68.082031 51.304688 67.84375 C 48.054688 67.558594 45.707031 66.136719 44.257812 63.582031 C 42.328125 60.171875 41.238281 56.140625 41 51.488281 C 42.226562 52.296875 44.355469 52.808594 47.386719 53.027344 L 53.117188 53.09375 L 59.011719 52.929688 C 62.390625 52.667969 64.566406 52.109375 65.53125 51.257812 L 65.664062 51.292969 M 66.289062 55.519531 C 66.023438 55.585938 65.882812 55.695312 65.859375 55.847656 C 65.664062 56.832031 66.605469 57.410156 68.691406 57.585938 C 70.757812 57.738281 71.941406 57.441406 72.25 56.699219 L 72.316406 56.46875 C 72.25 54.984375 71.632812 53.695312 70.472656 52.601562 C 72.359375 52.230469 74.136719 53.039062 75.804688 55.027344 C 77.386719 56.929688 78.066406 58.796875 77.847656 60.632812 C 77.539062 63.035156 76.683594 64.949219 75.277344 66.367188 C 73.015625 68.617188 69.933594 69.523438 66.023438 69.089844 C 64.445312 68.914062 63.0625 68.410156 61.875 67.582031 C 60.339844 66.507812 60.109375 65.285156 61.183594 63.910156 C 62.214844 64.738281 63.480469 65.503906 64.972656 66.203125 C 65.324219 66.378906 65.421875 66.324219 65.269531 66.039062 C 65.113281 65.734375 64.925781 65.539062 64.707031 65.449219 C 62.578125 64.402344 61.171875 63.417969 60.492188 62.5 C 59.988281 61.84375 59.910156 61.179688 60.261719 60.5 C 60.570312 59.890625 61.109375 59.464844 61.875 59.222656 C 63.019531 60.925781 64.75 62.214844 67.078125 63.089844 C 67.453125 63.222656 67.59375 63.132812 67.507812 62.828125 C 67.398438 62.5 67.210938 62.28125 66.945312 62.171875 C 65.519531 61.648438 64.300781 60.871094 63.292969 59.84375 C 61.976562 58.511719 61.679688 57.234375 62.402344 56.011719 C 62.777344 55.398438 63.324219 54.875 64.050781 54.4375 C 64.863281 53.933594 65.585938 53.761719 66.222656 53.914062 C 67.363281 54.570312 67.574219 55.027344 66.847656 55.289062 L 66.289062 55.519531 M 60.425781 70.957031 L 60.691406 67.546875 L 62.039062 68.726562 L 60.425781 70.957031 M 56.9375 73.085938 C 56.605469 76.078125 56.070312 78.964844 55.324219 81.738281 L 54.730469 83.574219 C 54.445312 79.269531 53.566406 74.375 52.097656 68.890625 C 53.675781 68.957031 55.257812 68.78125 56.835938 68.367188 C 57.058594 70.050781 57.089844 71.621094 56.9375 73.085938 M 57.824219 68.628906 L 57.726562 68.105469 L 58.023438 68.007812 L 57.824219 68.628906 M 56.738281 81.28125 C 58.5625 76.035156 60.722656 72.070312 63.226562 69.382812 C 65.445312 70.234375 67.78125 70.496094 70.242188 70.167969 L 70.472656 71.121094 L 67.210938 73.019531 C 62.335938 76.125 58.792969 79.09375 56.574219 81.933594 L 56.738281 81.28125 M 51.207031 68.824219 C 53.027344 75.511719 53.863281 81.574219 53.710938 87.015625 L 53.710938 87.113281 C 53.402344 88.273438 53.171875 89.703125 53.019531 91.40625 L 52.226562 88.226562 C 50.648438 81.847656 49.175781 76.441406 47.816406 72.003906 L 46.464844 67.480469 C 47.648438 68.160156 49.230469 68.605469 51.207031 68.824219 M 85.125 58.566406 C 84.179688 59.726562 83.488281 61.136719 83.050781 62.796875 L 79.953125 59.910156 C 81.164062 56.699219 81.523438 53.847656 81.042969 51.355469 C 83.742188 52.492188 86.398438 54.066406 89.011719 56.078125 C 87.519531 56.40625 86.222656 57.234375 85.125 58.566406 M 79.132812 59.8125 L 79.296875 60.074219 C 80.765625 61.800781 81.46875 63.667969 81.402344 65.679688 C 81.335938 67.753906 80.460938 69.535156 78.769531 71.023438 C 77.824219 71.851562 76.78125 72.464844 75.640625 72.855469 C 74.410156 73.292969 73.214844 73.414062 72.050781 73.21875 L 71.292969 69.972656 C 73.203125 69.535156 74.71875 68.761719 75.839844 67.644531 C 76.890625 66.597656 77.703125 65.394531 78.273438 64.039062 C 78.910156 62.53125 79.152344 61.089844 79 59.714844 L 79.132812 59.8125 M 66.980469 56.503906 L 67.835938 56.175781 L 68.59375 55.550781 L 68.855469 56.46875 L 66.980469 56.503906 M 84.234375 99.828125 C 83.445312 102.78125 82.117188 106.210938 80.25 110.121094 L 76.167969 118.347656 C 74.675781 121.558594 73.699219 124.453125 73.238281 127.03125 L 73.304688 127.292969 C 72.445312 127.445312 71.625 127.457031 70.832031 127.328125 C 68.835938 127.019531 66.726562 126.3125 64.511719 125.195312 L 64.542969 125.164062 L 65.5 120.96875 L 66.289062 116.742188 L 67.835938 110.1875 L 69.515625 103.664062 C 70.175781 100.082031 70.757812 97.394531 71.261719 95.601562 C 72.160156 92.476562 73.488281 90.171875 75.246094 88.6875 C 76.714844 88.359375 78.625 89.078125 80.976562 90.851562 C 83.300781 92.597656 84.542969 94.203125 84.695312 95.667969 C 84.804688 96.890625 84.652344 98.277344 84.234375 99.828125 M 74.785156 87.933594 L 74.324219 88.0625 C 74.191406 88.109375 74.171875 88.21875 74.257812 88.390625 C 72.699219 89.855469 71.503906 91.929688 70.667969 94.617188 C 70.183594 96.191406 69.605469 98.660156 68.921875 102.027344 L 67.34375 108.121094 C 66.246094 104.582031 64.632812 101.566406 62.5 99.074219 C 60.042969 96.214844 57.210938 94.507812 54.003906 93.964844 C 54.050781 91.691406 54.335938 89.550781 54.863281 87.539062 C 57.011719 81.859375 62.316406 76.769531 70.765625 72.265625 C 72.28125 77.925781 74.597656 82.558594 77.714844 86.164062 L 76.660156 86.65625 C 75.960938 87.046875 75.332031 87.472656 74.785156 87.933594 M 68.496094 91.503906 C 65.046875 90.261719 62.875 89.539062 61.976562 89.34375 C 59.492188 88.773438 57.253906 88.828125 55.257812 89.507812 C 55.082031 89.570312 55.101562 89.734375 55.324219 89.996094 L 55.816406 90.390625 C 56.453125 90.632812 57.507812 90.785156 58.976562 90.851562 C 60.359375 90.9375 61.4375 91.15625 62.207031 91.503906 C 65.101562 92.882812 67.199219 94.773438 68.496094 97.175781 C 68.582031 97.371094 68.8125 97.535156 69.1875 97.667969 C 69.558594 97.777344 69.660156 97.6875 69.484375 97.40625 C 68.296875 95.175781 66.441406 93.285156 63.917969 91.734375 C 62.535156 90.90625 61.328125 90.347656 60.296875 90.0625 L 58.847656 89.898438 C 60.296875 89.8125 61.964844 90.050781 63.851562 90.621094 L 68.726562 92.324219 C 69.097656 92.457031 69.207031 92.378906 69.054688 92.09375 C 68.921875 91.789062 68.738281 91.59375 68.496094 91.503906 M 54.402344 97.207031 L 53.808594 94.683594 L 53.839844 94.683594 C 57.15625 94.988281 60.019531 96.695312 62.4375 99.796875 C 64.433594 102.375 65.882812 105.519531 66.78125 109.234375 L 66.980469 109.53125 C 66.410156 111.804688 66.003906 113.519531 65.761719 114.675781 L 65.5625 114.675781 C 63.542969 115.265625 61.457031 115.625 59.308594 115.757812 C 60.054688 113.945312 60.21875 112.382812 59.800781 111.070312 C 59.582031 110.371094 59.207031 109.914062 58.683594 109.695312 L 58.617188 109.628906 C 56.75 106.964844 54.597656 104.230469 52.160156 101.4375 L 49.164062 98.027344 C 47.890625 96.695312 46.695312 95.699219 45.574219 95.042969 C 48.867188 95.832031 51.722656 96.617188 54.136719 97.40625 C 54.335938 97.449219 54.421875 97.382812 54.402344 97.207031 M 43.929688 95.109375 C 45.136719 95.480469 46.421875 96.324219 47.78125 97.632812 L 50.910156 101.074219 C 52.777344 103.214844 54.695312 105.597656 56.671875 108.21875 L 57.363281 109.136719 L 56.96875 109.136719 L 54.730469 109.335938 C 52.777344 109.726562 51.03125 110.414062 49.496094 111.398438 C 48.046875 112.339844 46.683594 113.628906 45.410156 115.265625 L 44.257812 116.675781 C 43.773438 117.332031 43.65625 117.714844 43.894531 117.824219 L 40.867188 116.378906 C 38.890625 115.375 37.320312 114.511719 36.15625 113.792969 C 34.46875 112.765625 33.027344 111.695312 31.84375 110.578125 C 31.777344 110.273438 31.582031 110.089844 31.25 110.023438 L 30.855469 109.628906 C 28.289062 106.898438 26.3125 104.253906 24.929688 101.699219 C 23.0625 98.289062 22.347656 95.199219 22.789062 92.421875 L 22.820312 92.421875 C 29.605469 92.464844 36.464844 93.1875 43.402344 94.585938 C 43.511719 94.847656 43.6875 95.023438 43.929688 95.109375 M 57.859375 115.460938 L 57.003906 117.234375 L 53.609375 114.019531 L 53.378906 113.855469 C 54.5 112.742188 55.507812 111.902344 56.410156 111.332031 C 57.902344 110.394531 58.683594 110.578125 58.746094 111.890625 C 58.792969 112.9375 58.496094 114.128906 57.859375 115.460938 M 65.398438 116.316406 L 64.640625 120.542969 L 63.6875 124.738281 L 63.6875 124.769531 L 56.707031 120.410156 C 57.695312 118.96875 58.429688 117.722656 58.914062 116.675781 C 61.261719 116.609375 63.46875 116.324219 65.53125 115.824219 L 65.398438 116.316406 M 44.585938 118.675781 C 47.835938 113.539062 51.65625 110.710938 56.046875 110.1875 C 53.324219 111.628906 50.296875 114.699219 46.957031 119.394531 C 43.601562 124.160156 41.996094 127.6875 42.152344 129.980469 C 41.46875 128.953125 41.546875 127.019531 42.382812 124.179688 C 42.996094 122.019531 43.730469 120.183594 44.585938 118.675781 M 43.996094 127.359375 C 45.355469 124.410156 47.199219 121.4375 49.527344 118.445312 C 51.152344 116.371094 52.335938 114.949219 53.082031 114.183594 L 56.804688 117.691406 C 53.203125 124.703125 49.449219 128.921875 45.542969 130.34375 C 44.597656 130.714844 43.808594 130.824219 43.171875 130.667969 C 43.148438 130.386719 43.257812 129.796875 43.5 128.898438 C 43.71875 128.089844 43.886719 127.578125 43.996094 127.359375 M 44.390625 131.785156 C 47.179688 131.367188 49.898438 129.542969 52.558594 126.3125 L 51.734375 142.632812 L 51.699219 142.632812 C 51.195312 142.960938 50.691406 143.210938 50.1875 143.386719 C 48.1875 143.976562 46.015625 144.152344 43.664062 143.910156 L 39.679688 143.222656 L 39.1875 143.089844 L 38.496094 141.617188 C 36.542969 137.136719 35.105469 133.074219 34.179688 129.425781 C 32.820312 124.179688 32.050781 118.171875 31.875 111.398438 C 34.882812 113.957031 38.691406 116.269531 43.304688 118.347656 C 41.832031 121.273438 40.921875 124.058594 40.570312 126.703125 C 40.085938 130.527344 41.359375 132.222656 44.390625 131.785156 M 43.007812 144.894531 L 47.417969 145.125 C 49.175781 145.058594 50.625 144.71875 51.765625 144.105469 C 51.65625 145.242188 51.238281 146.085938 50.515625 146.628906 L 48.109375 148.039062 C 46.792969 148.695312 45.96875 148.835938 45.640625 148.464844 L 45.246094 148.105469 C 45.046875 147.953125 44.894531 147.910156 44.785156 147.972656 L 38.628906 151.25 C 36.035156 152.34375 33.796875 152.738281 31.910156 152.433594 C 30.59375 152.234375 30.207031 151.480469 30.757812 150.171875 C 31.175781 149.164062 31.84375 148.28125 32.765625 147.515625 C 34.585938 145.984375 36.628906 144.859375 38.890625 144.140625 C 39.375 144.425781 40.074219 144.621094 41 144.730469 L 43.007812 144.894531 M 70.472656 132.472656 C 72.667969 132.820312 74.839844 132.484375 76.992188 131.457031 C 77.167969 134.035156 77.234375 136.996094 77.1875 140.339844 L 76.890625 149.1875 C 76.695312 153.972656 76.429688 157.785156 76.101562 160.625 L 75.707031 164.097656 C 75.488281 165.5625 75.113281 166.65625 74.585938 167.375 C 74.324219 167.769531 74.136719 167.847656 74.027344 167.605469 L 73.699219 166.359375 L 72.972656 162.722656 C 72.492188 159.707031 72.0625 156.199219 71.6875 152.203125 C 70.875 143.746094 70.460938 137.171875 70.4375 132.472656 L 70.472656 132.472656 M 19.957031 109.070312 C 18.574219 113.027344 16.210938 118.597656 12.875 125.785156 C 10.878906 130.089844 9.242188 133.324219 7.96875 135.488281 L 6.027344 138.40625 L 5.269531 139.222656 C 4.960938 139.507812 4.796875 139.539062 4.773438 139.320312 C 4.664062 138.339844 4.785156 137.136719 5.136719 135.71875 L 6.15625 132.175781 C 6.992188 129.402344 8.113281 126.058594 9.515625 122.148438 L 12.449219 114.316406 L 15.3125 106.417969 C 16.585938 107.246094 18.132812 108.132812 19.957031 109.070312 "/>
</g>
</svg>
