<?xml version="1.0" encoding="UTF-8"?>
<svg xmlns="http://www.w3.org/2000/svg" xmlns:xlink="http://www.w3.org/1999/xlink" width="128pt" height="198pt" viewBox="0 0 128 198" version="1.1">
<g id="surface1">
<path style=" stroke:none;fill-rule:nonzero;fill:rgb(100%,100%,100%);fill-opacity:1;" d="M 19.867188 115.058594 C 23.078125 113.460938 24.945312 113.125 25.46875 114.046875 C 26.398438 115.613281 25.5625 117.410156 22.96875 119.4375 C 19.328125 122.417969 16.734375 123.382812 15.191406 122.339844 C 14.355469 121.816406 13.921875 121.234375 13.894531 120.589844 C 13.832031 120.066406 14.03125 119.421875 14.496094 118.652344 C 14.988281 117.761719 16.78125 116.566406 19.867188 115.058594 M 21.394531 108.285156 C 22.257812 108.5625 22.816406 108.882812 23.0625 109.253906 C 23.371094 109.714844 23.585938 110.265625 23.710938 110.910156 C 23.742188 111.128906 23.585938 111.402344 23.246094 111.742188 L 22.183594 112.433594 C 17.859375 114.03125 14.726562 116.195312 12.78125 118.929688 C 11.855469 119.296875 10.945312 119.082031 10.050781 118.285156 C 8.660156 117.027344 8.121094 115.964844 8.429688 115.105469 C 8.613281 114.613281 9.339844 113.800781 10.605469 112.664062 C 11.996094 111.402344 13.277344 110.480469 14.449219 109.898438 C 16.054688 109.097656 17.582031 108.578125 19.035156 108.332031 L 21.394531 108.285156 M 18.386719 106.8125 L 16.484375 107.59375 L 13.707031 108.5625 C 12.628906 109.144531 11.484375 110.019531 10.28125 111.1875 L 7.410156 114.320312 C 6.605469 114.230469 5.789062 113.890625 4.957031 113.308594 C 3.535156 112.234375 3.164062 110.851562 3.84375 109.160156 C 4.183594 108.269531 5.898438 106.65625 8.984375 104.324219 C 9.726562 103.832031 10.882812 103.402344 12.457031 103.03125 L 16.253906 102.847656 C 16.996094 103.0625 17.660156 103.632812 18.246094 104.554688 C 18.894531 105.535156 18.941406 106.289062 18.386719 106.8125 M 40.707031 182.199219 C 45.152344 183.675781 48.734375 184.503906 51.449219 184.6875 L 60.851562 184.273438 C 60.757812 185.441406 60.371094 186.238281 59.691406 186.667969 C 59.015625 187.128906 57.625 187.359375 55.523438 187.359375 L 54.320312 186.023438 L 54.230469 185.886719 L 54.042969 185.933594 C 50.460938 186.882812 47.3125 187.5 44.597656 187.777344 C 40.550781 188.082031 36.554688 187.746094 32.601562 186.761719 L 32.09375 186.667969 C 31.507812 186.515625 31.210938 186.347656 31.210938 186.164062 C 31.152344 185.824219 31.769531 185.316406 33.066406 184.640625 C 33.992188 184.210938 36.539062 183.398438 40.707031 182.199219 M 85.023438 95.660156 C 84.746094 95.8125 84.640625 96.042969 84.699219 96.351562 L 84.976562 98.839844 C 85.257812 100.558594 85.609375 101.835938 86.042969 102.664062 L 87.339844 102.019531 C 86.816406 101.003906 86.429688 99.222656 86.183594 96.671875 L 87.433594 95.980469 C 88.050781 98.5625 88.296875 100.421875 88.171875 101.558594 L 89.609375 101.742188 C 89.734375 100.636719 89.609375 99.144531 89.238281 97.273438 L 88.542969 94.644531 L 88.128906 94.183594 L 87.480469 94.230469 L 85.023438 95.660156 M 81.738281 96.8125 C 82.136719 96.164062 83.046875 95.367188 84.46875 94.414062 C 85.703125 93.585938 87.1875 93.1875 88.914062 93.21875 C 91.199219 93.277344 93.40625 94.167969 95.535156 95.890625 C 97.511719 97.488281 99.148438 99.390625 100.445312 101.605469 C 101.804688 103.9375 102.546875 106.195312 102.667969 108.378906 L 102.574219 110.726562 L 101.925781 112.800781 C 100.601562 115.597656 99.085938 117.164062 97.390625 117.5 C 96.308594 117.6875 95.121094 117.316406 93.824219 116.394531 L 96 115.242188 L 96.324219 114.828125 L 96.277344 114.277344 L 95.859375 113.953125 L 95.304688 114 C 93.667969 114.796875 91.679688 115.457031 89.332031 115.980469 C 86.367188 116.65625 84.453125 116.65625 83.589844 115.980469 C 82.539062 115.121094 81.96875 114.261719 81.875 113.398438 C 81.875 113.0625 81.921875 112.800781 82.015625 112.617188 L 83.960938 112.710938 C 85.535156 112.769531 87.371094 112.324219 89.46875 111.371094 C 90.734375 110.789062 91.679688 110.265625 92.296875 109.804688 C 92.664062 109.53125 92.742188 109.207031 92.527344 108.839844 C 92.3125 108.4375 92 108.347656 91.601562 108.5625 L 90.675781 109.023438 C 89.5 109.761719 88.003906 110.375 86.183594 110.867188 L 83.960938 111.28125 L 82.847656 111.097656 C 81.890625 110.820312 81.210938 110.160156 80.808594 109.113281 L 80.625 108.148438 C 81.121094 107.257812 81.414062 106.164062 81.503906 104.875 C 82.0625 105.304688 82.617188 105.613281 83.171875 105.796875 C 84.46875 106.226562 85.980469 106.242188 87.710938 105.84375 C 89.101562 105.535156 90.210938 105.089844 91.042969 104.507812 C 92.558594 103.460938 92.789062 100.207031 91.738281 94.738281 L 90.304688 95.015625 C 90.675781 96.855469 90.859375 98.59375 90.859375 100.222656 C 90.859375 101.972656 90.644531 103.015625 90.210938 103.355469 C 89.5 103.847656 88.542969 104.214844 87.339844 104.460938 C 85.890625 104.796875 84.652344 104.78125 83.636719 104.414062 C 82.492188 104.046875 81.738281 103.230469 81.367188 101.972656 C 80.71875 99.851562 80.839844 98.132812 81.738281 96.8125 M 78.585938 96.71875 C 79.050781 95.949219 79.652344 95.351562 80.394531 94.921875 C 79.160156 96.796875 79.019531 99.300781 79.976562 102.433594 C 80.101562 102.894531 80.316406 103.355469 80.625 103.816406 C 80.441406 103.875 80.300781 103.96875 80.207031 104.09375 C 79.527344 105.289062 79.191406 106.503906 79.191406 107.730469 L 78.820312 108.054688 C 78.203125 108.207031 77.304688 107.871094 76.132812 107.042969 C 75.484375 106.550781 75.160156 106.164062 75.160156 105.890625 C 75.191406 105.734375 75.515625 105.351562 76.132812 104.738281 L 77.613281 103.03125 C 78.078125 102.324219 78.234375 101.632812 78.078125 100.957031 C 77.675781 99.359375 77.847656 97.949219 78.585938 96.71875 M 58.8125 64.738281 L 60.621094 66.675781 C 61.546875 67.441406 62.75 68.101562 64.230469 68.65625 L 64.371094 68.746094 L 64.742188 68.933594 C 65.113281 69.117188 65.171875 69.5 64.925781 70.085938 C 64.402344 71.191406 63.613281 73.339844 62.5625 76.535156 C 61.207031 80.589844 60.1875 84.214844 59.507812 87.410156 C 58.828125 90.605469 58.242188 94.570312 57.75 99.300781 L 57.191406 106.488281 L 57.144531 107.640625 C 55.695312 107.242188 54.445312 106.703125 53.394531 106.027344 L 53.347656 104.046875 C 53.226562 98.792969 52.917969 94.90625 52.421875 92.386719 L 50.199219 82.480469 L 49.503906 82.617188 L 50.941406 95.519531 L 51.449219 103.445312 C 48.980469 106.824219 44.488281 110.375 37.972656 114.089844 L 28.851562 118.746094 C 30.332031 116.808594 31.058594 114.460938 31.027344 111.695312 C 30.964844 109.269531 30.472656 107.5625 29.546875 106.582031 L 28.757812 106.074219 L 28.433594 104.136719 C 28.1875 103.09375 27.339844 101.988281 25.886719 100.820312 L 23.757812 99.34375 L 29.359375 95.796875 C 33.746094 92.632812 37.617188 89.085938 40.984375 85.152344 L 49.457031 74.507812 C 52.976562 70.175781 56.097656 66.917969 58.8125 64.738281 M 65.4375 60.914062 L 67.011719 62.113281 C 67.378906 63.957031 68.261719 65.507812 69.648438 66.765625 C 70.824219 67.8125 72.335938 68.53125 74.1875 68.933594 C 78.046875 69.730469 81.859375 69.378906 85.625 67.871094 C 88.992188 66.582031 91.183594 64.96875 92.203125 63.035156 C 94.457031 63.21875 96.972656 63.941406 99.75 65.199219 C 98.394531 67.472656 95.832031 69.238281 92.0625 70.5 C 89.5 71.359375 87.417969 71.789062 85.8125 71.789062 C 83.929688 71.820312 82.695312 72.804688 82.105469 74.738281 C 80.78125 79.132812 79.699219 83.523438 78.867188 87.917969 L 77.984375 93.90625 C 77.152344 94.460938 76.640625 95.597656 76.457031 97.316406 C 76.304688 98.699219 76.363281 100.007812 76.640625 101.234375 C 76.734375 101.757812 76.226562 102.570312 75.113281 103.675781 L 73.863281 105.242188 C 73.800781 107.148438 74.511719 108.4375 75.996094 109.113281 C 77.042969 109.605469 78.109375 109.714844 79.191406 109.4375 L 79.375 109.390625 L 79.421875 109.574219 C 79.792969 110.464844 80.269531 111.15625 80.855469 111.648438 C 80.457031 112.292969 80.316406 112.925781 80.441406 113.539062 C 81.210938 116.519531 83.078125 118.101562 86.042969 118.285156 C 87.496094 118.347656 88.882812 118.117188 90.210938 117.59375 L 92.339844 117.039062 L 93.777344 118.054688 C 93.777344 118.175781 94.132812 118.453125 94.84375 118.882812 C 94.65625 119.3125 94.75 119.835938 95.121094 120.449219 L 97.15625 123.125 C 94.070312 124.90625 90.535156 126.132812 86.554688 126.808594 C 81.859375 127.578125 76.75 127.515625 71.222656 126.625 C 67.519531 126.042969 63.566406 124.492188 59.367188 121.972656 C 55.789062 119.820312 53.535156 118.007812 52.609375 116.535156 C 52.421875 115.890625 52.699219 113.015625 53.441406 107.917969 C 54.582031 108.5 55.695312 108.929688 56.777344 109.207031 C 57.363281 109.390625 57.824219 109.328125 58.164062 109.023438 C 58.441406 108.808594 58.628906 108.484375 58.71875 108.054688 L 58.859375 106.671875 L 58.859375 106.535156 L 59.414062 99.53125 C 59.878906 94.828125 60.449219 90.914062 61.128906 87.777344 C 61.839844 84.523438 62.859375 80.867188 64.183594 76.8125 C 65.234375 73.710938 65.976562 71.695312 66.40625 70.773438 C 66.71875 70.128906 66.777344 69.5 66.59375 68.886719 C 66.4375 68.273438 66.082031 67.8125 65.527344 67.503906 L 64.972656 67.226562 L 64.925781 67.179688 C 63.785156 66.84375 62.78125 66.273438 61.917969 65.476562 L 60.203125 63.679688 C 61.992188 62.449219 63.738281 61.527344 65.4375 60.914062 M 71.039062 25.386719 C 70.882812 24.710938 70.589844 24.292969 70.160156 24.140625 L 70.113281 24.140625 C 69.679688 23.988281 69.21875 24.15625 68.722656 24.648438 C 68.199219 25.140625 67.828125 25.800781 67.613281 26.628906 C 67.335938 27.457031 67.273438 28.210938 67.425781 28.886719 C 67.550781 29.59375 67.84375 30.007812 68.308594 30.132812 C 68.738281 30.253906 69.21875 30.070312 69.742188 29.578125 C 70.238281 29.085938 70.605469 28.441406 70.855469 27.644531 C 71.101562 26.8125 71.164062 26.0625 71.039062 25.386719 M 66.039062 14.234375 C 66.5 14.972656 67.101562 15.554688 67.84375 15.984375 C 66.453125 17.304688 65.15625 18.71875 63.953125 20.222656 C 63.550781 18.6875 63.382812 17.566406 63.445312 16.859375 C 63.535156 15.90625 63.785156 15.109375 64.183594 14.464844 C 64.585938 13.820312 65.003906 13.558594 65.4375 13.679688 L 66.039062 14.234375 M 101.09375 41.191406 L 100.863281 41.054688 C 100.617188 40.992188 100.414062 41.082031 100.261719 41.328125 C 100.105469 41.542969 100.121094 41.757812 100.308594 41.972656 C 100.957031 42.773438 101.234375 43.371094 101.140625 43.773438 C 101.078125 44.140625 101.21875 44.355469 101.558594 44.417969 C 101.925781 44.539062 102.160156 44.355469 102.25 43.863281 C 102.34375 43.371094 102.238281 42.867188 101.925781 42.34375 C 101.710938 41.851562 101.433594 41.46875 101.09375 41.191406 M 101.09375 37.875 C 100.910156 38.117188 100.96875 38.410156 101.28125 38.75 L 102.714844 40.363281 L 103.546875 42.019531 C 103.855469 42.695312 104.089844 43.050781 104.242188 43.082031 L 104.429688 42.941406 C 104.550781 42.757812 104.519531 42.3125 104.335938 41.605469 L 103.640625 39.808594 C 103.207031 38.949219 102.621094 38.242188 101.882812 37.6875 L 101.742188 37.644531 C 101.464844 37.550781 101.25 37.628906 101.09375 37.875 M 75.949219 49.484375 C 74.714844 49.578125 73.167969 49.363281 71.316406 48.839844 C 70.082031 48.535156 69.171875 48.179688 68.585938 47.78125 L 63.582031 44.371094 C 63.183594 44.1875 62.980469 43.785156 62.980469 43.171875 C 62.980469 42.648438 63.304688 42.464844 63.953125 42.621094 L 64.09375 42.664062 L 66.453125 43.773438 C 68.277344 44.601562 69.898438 45.199219 71.316406 45.570312 L 72.566406 45.890625 L 78.820312 46.121094 L 82.386719 45.84375 L 83.496094 45.890625 L 84.515625 46.628906 C 84.824219 47.027344 84.824219 47.382812 84.515625 47.6875 C 84.269531 47.933594 83.960938 48.074219 83.589844 48.101562 C 79.824219 48.964844 77.277344 49.425781 75.949219 49.484375 M 71.6875 50.960938 C 73.507812 51.453125 76.148438 51.253906 79.605469 50.359375 C 81.335938 49.929688 82.878906 49.441406 84.238281 48.886719 L 84.652344 48.886719 C 85.054688 49.039062 85.332031 49.285156 85.488281 49.625 L 84.933594 51.652344 L 85.210938 52.019531 C 85.394531 52.082031 85.535156 51.972656 85.625 51.699219 L 87.570312 47.917969 L 87.664062 47.136719 L 87.339844 46.445312 L 83.773438 42.066406 L 83.449219 41.835938 C 83.234375 41.773438 83.15625 41.929688 83.21875 42.296875 L 83.402344 43.863281 L 83.035156 44.507812 L 82.199219 44.785156 C 77.722656 45.183594 74.449219 45.230469 72.382812 44.921875 L 71.132812 44.648438 C 69.867188 44.308594 68.367188 43.742188 66.640625 42.941406 L 64.371094 41.835938 L 63.859375 41.328125 L 63.816406 40.59375 L 64.046875 39.992188 C 64.140625 39.714844 64.109375 39.546875 63.953125 39.484375 L 63.582031 39.625 L 61.359375 41.191406 C 60.867188 41.5 60.710938 41.972656 60.898438 42.621094 L 61.960938 46.074219 L 62.195312 46.398438 L 62.472656 46.03125 L 62.609375 45.613281 C 62.703125 45.183594 62.964844 45.015625 63.398438 45.109375 L 63.582031 45.199219 L 65.945312 47.597656 C 67.921875 49.316406 69.820312 50.4375 71.640625 50.960938 L 71.6875 50.960938 M 72.289062 52.296875 L 72.105469 52.296875 L 71.269531 52.203125 L 69.234375 51.882812 L 68.214844 51.699219 L 67.75 51.789062 L 67.9375 52.203125 L 69.234375 53.402344 L 70.390625 53.957031 L 71.964844 54.140625 L 72.707031 53.863281 L 73.03125 53.265625 C 73.09375 52.773438 72.84375 52.449219 72.289062 52.296875 M 89.054688 29.210938 L 89.007812 29.210938 C 88.574219 29.085938 88.113281 29.257812 87.617188 29.71875 C 87.125 30.207031 86.753906 30.867188 86.507812 31.699219 C 86.257812 32.527344 86.199219 33.28125 86.320312 33.957031 C 86.445312 34.664062 86.738281 35.078125 87.199219 35.199219 C 87.632812 35.324219 88.113281 35.140625 88.636719 34.648438 C 89.128906 34.15625 89.5 33.511719 89.75 32.710938 C 89.996094 31.882812 90.058594 31.128906 89.933594 30.453125 C 89.777344 29.777344 89.484375 29.363281 89.054688 29.210938 M 75.671875 20.683594 C 75.269531 19.976562 74.652344 19.53125 73.816406 19.347656 L 71.503906 19.53125 C 70.945312 19.777344 70.558594 19.976562 70.34375 20.132812 L 70.160156 20.316406 L 70.390625 20.316406 L 72.476562 20.222656 C 73.152344 20.4375 73.679688 20.871094 74.050781 21.515625 L 74.929688 21.238281 C 75.484375 20.929688 75.730469 20.746094 75.671875 20.683594 M 79.792969 26.90625 L 79.746094 26.90625 C 79.5 26.8125 79.175781 26.984375 78.773438 27.414062 L 75.996094 30.5 L 73.121094 32.804688 L 71.222656 34.1875 L 70.761719 34.832031 C 70.667969 35.109375 70.667969 35.355469 70.761719 35.570312 L 71.917969 39.070312 C 72.105469 39.5 72.445312 39.777344 72.9375 39.902344 L 74.003906 39.945312 C 74.558594 39.945312 74.757812 39.671875 74.605469 39.117188 L 73.539062 36.445312 L 73.492188 35.660156 L 73.863281 34.925781 L 76.734375 31.882812 C 77.847656 30.652344 78.851562 29.316406 79.746094 27.875 C 80.117188 27.351562 80.132812 27.027344 79.792969 26.90625 M 92.574219 21.375 C 94.332031 21.804688 95.382812 22.542969 95.722656 23.589844 L 95.90625 24.140625 L 96.371094 23.957031 C 96.585938 23.464844 96.601562 22.867188 96.417969 22.160156 C 95.550781 19.640625 94.179688 18.488281 92.296875 18.703125 C 90.660156 18.949219 89.222656 19.917969 87.988281 21.605469 C 87.835938 21.789062 87.511719 21.667969 87.015625 21.238281 C 86.863281 20.746094 86.644531 20.578125 86.367188 20.730469 L 86.554688 21.882812 L 86.96875 23.171875 L 89.285156 22.296875 C 90.890625 21.621094 91.988281 21.316406 92.574219 21.375 M 91.832031 13.957031 C 93.808594 14.449219 95.398438 15.921875 96.601562 18.382812 C 97.003906 19.148438 97.605469 19.640625 98.40625 19.855469 L 100.910156 19.949219 L 105.03125 20.179688 L 105.355469 20.222656 C 106.960938 20.683594 107.808594 21.867188 107.902344 23.773438 C 107.996094 25.800781 106.652344 27.152344 103.871094 27.828125 L 103.363281 28.105469 C 103.117188 28.351562 103.164062 28.640625 103.503906 28.980469 C 104.953125 30.421875 106.078125 31.804688 106.882812 33.125 C 108.613281 35.984375 109.074219 38.808594 108.273438 41.605469 C 107.996094 39.269531 107.347656 36.996094 106.328125 34.785156 C 105.0625 32.449219 104.152344 31.085938 103.59375 30.683594 L 103.269531 30.5 C 102.960938 30.4375 102.746094 30.515625 102.621094 30.730469 C 102.46875 30.945312 102.5 31.160156 102.714844 31.375 L 103.640625 32.574219 L 105.355469 35.339844 C 106.34375 36.996094 107.160156 39.5 107.808594 42.851562 L 107.390625 43.773438 L 107.347656 43.726562 C 106.914062 41.175781 106.171875 38.980469 105.121094 37.136719 C 104.257812 35.691406 103.457031 34.710938 102.714844 34.1875 L 102.574219 34.09375 C 102.296875 34.003906 102.097656 34.125 101.972656 34.464844 C 101.882812 34.800781 102.003906 35.15625 102.34375 35.523438 L 104.105469 37.78125 L 105.679688 41.238281 L 106.652344 44.09375 L 106.417969 44.417969 L 105.632812 44.417969 C 105.136719 44.507812 104.984375 44.847656 105.167969 45.429688 C 106.867188 47.613281 106.867188 49.761719 105.167969 51.882812 C 103.53125 53.972656 101.433594 54.675781 98.871094 54 L 98.222656 53.769531 C 94.210938 57.796875 89.933594 60.546875 85.394531 62.019531 L 84.652344 62.480469 L 85.210938 62.847656 C 86.320312 63.21875 87.910156 63.050781 89.980469 62.34375 C 89.117188 64.492188 87.03125 66.058594 83.726562 67.042969 C 80.671875 67.996094 77.894531 68.132812 75.390625 67.457031 C 74.25 67.121094 73.417969 66.644531 72.890625 66.027344 L 73.121094 66.121094 L 76.226562 66.304688 C 77.675781 66.242188 78.386719 66.089844 78.355469 65.84375 L 78.171875 65.707031 L 77.152344 65.566406 L 75.207031 65.199219 C 72.738281 64.523438 70.160156 63.09375 67.472656 60.914062 C 62.65625 57.042969 59.753906 51.742188 58.765625 45.015625 C 57.839844 38.566406 58.828125 32.449219 61.730469 26.675781 C 63.582031 23.050781 66.175781 19.671875 69.511719 16.539062 C 70.683594 16.660156 72.011719 16.382812 73.492188 15.707031 L 76.503906 13.542969 C 78.324219 12.191406 79.5 11.453125 80.023438 11.332031 L 80.996094 11.375 C 81.859375 11.621094 82.769531 12.265625 83.726562 13.3125 C 84.253906 13.710938 84.792969 13.972656 85.347656 14.09375 L 89.46875 13.863281 L 91.832031 13.957031 M 5.046875 89.300781 C 5.511719 89.730469 6.390625 91.28125 7.6875 93.953125 L 7.964844 94.460938 C 9.136719 96.613281 10.757812 97.792969 12.828125 98.007812 L 18.0625 98.332031 C 20.46875 99.007812 22.582031 100.035156 24.40625 101.417969 C 25.886719 102.523438 26.8125 103.523438 27.183594 104.414062 C 27.523438 105.273438 27.769531 106.320312 27.925781 107.546875 C 28.015625 108.5 28.125 108.976562 28.25 108.976562 L 28.664062 107.6875 L 28.757812 107.824219 C 29.808594 108.929688 30.300781 110.4375 30.238281 112.339844 C 30.148438 114.890625 28.914062 117.253906 26.535156 119.4375 C 24.929688 120.972656 23.246094 122.078125 21.488281 122.753906 C 21.054688 122.9375 20.792969 122.9375 20.699219 122.753906 C 20.640625 122.570312 20.777344 122.355469 21.117188 122.109375 L 23.617188 120.21875 C 25.191406 118.960938 26.304688 117.824219 26.953125 116.808594 C 27.601562 115.734375 27.769531 114.707031 27.460938 113.722656 C 27.277344 113.140625 26.875 112.664062 26.257812 112.292969 C 25.792969 112.019531 25.300781 111.847656 24.777344 111.789062 C 24.929688 110.4375 24.714844 109.34375 24.128906 108.515625 C 23.511719 107.625 22.121094 107.101562 19.960938 106.949219 C 20.359375 106.179688 20.4375 105.414062 20.191406 104.644531 C 20.003906 104 19.542969 103.371094 18.800781 102.753906 C 18.0625 102.140625 17.273438 101.710938 16.441406 101.464844 C 15.574219 101.21875 14.015625 101.375 11.761719 101.925781 L 8.566406 102.894531 L 6.484375 101.972656 C 4.351562 100.957031 2.777344 99.746094 1.761719 98.332031 C 0.585938 96.734375 0.03125 95.214844 0.09375 93.769531 C 0.15625 92.386719 0.742188 91.175781 1.851562 90.128906 C 3.148438 88.839844 4.214844 88.5625 5.046875 89.300781 M 110.679688 188.464844 C 111.761719 190.710938 112.285156 192.136719 112.253906 192.753906 C 112.070312 195.515625 110.339844 197.113281 107.066406 197.542969 C 105.09375 197.820312 102.871094 197.175781 100.398438 195.609375 C 98.363281 194.320312 97.019531 193.121094 96.371094 192.015625 C 95.96875 191.277344 95.875 190.324219 96.09375 189.15625 L 106.234375 189.527344 C 107.777344 189.433594 109.261719 189.082031 110.679688 188.464844 M 111.097656 175.289062 C 111.714844 181.890625 111.914062 185.488281 111.699219 186.070312 C 111.542969 186.378906 110.773438 186.683594 109.382812 186.992188 L 105.402344 187.636719 C 103.980469 187.730469 102.144531 187.699219 99.890625 187.546875 C 97.140625 187.328125 95.351562 186.992188 94.519531 186.53125 C 94.300781 186.316406 93.34375 183.75 91.648438 178.835938 L 87.15625 166.347656 C 84.714844 160.417969 81.472656 153.78125 77.429688 146.441406 L 72.011719 137.085938 L 71.59375 137.269531 L 73.492188 142.523438 L 70.992188 148.46875 C 69.324219 152.617188 67.96875 156.332031 66.917969 159.621094 C 65.3125 164.78125 63.460938 172.339844 61.359375 182.292969 L 60.988281 182.613281 L 52.285156 183.027344 L 46.910156 182.292969 C 45.152344 181.800781 43.699219 181 42.558594 179.894531 C 44.472656 166.777344 45.894531 157.515625 46.820312 152.109375 C 47.375 148.820312 48.5 143.09375 50.199219 134.921875 L 53.257812 120.910156 C 56.652344 123.523438 61.621094 125.671875 68.167969 127.363281 C 73.847656 128.808594 79.515625 129.253906 85.164062 128.699219 C 90.441406 128.207031 94.964844 126.902344 98.730469 124.78125 L 99.84375 125.703125 C 101.203125 129.328125 102.808594 134.535156 104.660156 141.324219 C 106.328125 147.4375 107.640625 152.816406 108.597656 157.453125 C 109.554688 162.0625 110.386719 168.007812 111.097656 175.289062 M 127.257812 107.085938 C 127.753906 110.496094 127.738281 113.660156 127.210938 116.578125 C 126.535156 120.082031 125.160156 122.910156 123.089844 125.058594 C 121.085938 127.117188 118.414062 128.222656 115.078125 128.375 C 112.238281 128.5 109.351562 127.945312 106.417969 126.71875 C 103.179688 125.335938 100.351562 122.984375 97.945312 119.667969 C 99.734375 119.789062 101.125 119.128906 102.113281 117.6875 C 103.007812 116.425781 103.5625 114.796875 103.78125 112.800781 C 104.027344 110.558594 103.765625 108.191406 102.992188 105.703125 C 106.050781 105.765625 108.65625 106.273438 110.820312 107.226562 C 113.503906 108.453125 115.21875 110.28125 115.960938 112.710938 C 116.113281 113.261719 116.53125 113.292969 117.210938 112.800781 C 117.859375 112.308594 118.199219 111.863281 118.230469 111.464844 C 118.320312 107.441406 114.738281 104.8125 107.484375 103.585938 L 106.882812 103.492188 L 106.882812 103.445312 L 105.445312 99.667969 C 104.179688 96.75 102.484375 94.167969 100.351562 91.925781 L 98.5 92.296875 L 96.695312 92.25 C 100.027344 95.167969 102.515625 98.914062 104.152344 103.492188 L 102.390625 103.492188 L 102.160156 103.539062 C 100.894531 100.527344 98.996094 97.609375 96.464844 94.785156 C 95.96875 94.199219 95.121094 93.648438 93.917969 93.125 C 92.679688 92.570312 91.339844 92.171875 89.886719 91.925781 L 89.65625 91.878906 L 88.128906 91.695312 C 86.121094 91.605469 84.269531 91.972656 82.570312 92.800781 C 82.136719 92.988281 81.628906 93.402344 81.042969 94.046875 L 81.367188 93.585938 C 81.058594 93.277344 80.5 93.1875 79.699219 93.308594 L 80.484375 88.195312 C 81.257812 83.984375 82.324219 79.652344 83.679688 75.199219 C 83.898438 74.523438 84.160156 74.0625 84.46875 73.816406 C 84.777344 73.570312 85.226562 73.449219 85.8125 73.449219 C 88.1875 73.355469 90.488281 72.972656 92.710938 72.296875 C 97.003906 71.003906 99.890625 68.886719 101.371094 65.9375 C 103.410156 66.949219 105.492188 68.210938 107.625 69.714844 C 113.027344 73.492188 117.503906 79.039062 121.054688 86.351562 C 124.078125 92.648438 126.148438 99.5625 127.257812 107.085938 M 113.550781 19.71875 C 114.078125 21.253906 114.476562 22.867188 114.753906 24.554688 C 115.1875 27.445312 114.460938 30.914062 112.578125 34.96875 C 111.652344 36.96875 110.664062 38.6875 109.613281 40.132812 C 109.769531 37.488281 109.199219 35.046875 107.902344 32.804688 L 105.167969 29.027344 C 106.28125 28.59375 107.316406 28.042969 108.273438 27.367188 C 109.476562 26.476562 110.140625 25.601562 110.261719 24.738281 C 110.417969 23.542969 110.277344 22.4375 109.847656 21.421875 C 109.230469 20.039062 108.132812 19.132812 106.558594 18.703125 L 105.585938 18.519531 L 102.207031 18.75 L 99.195312 18.933594 L 98.964844 18.839844 C 98.777344 18.75 98.054688 17.476562 96.789062 15.015625 C 95.582031 12.683594 94.457031 11.375 93.40625 11.101562 L 92.574219 11.054688 L 89.054688 12.066406 L 86.921875 12.714844 L 85.394531 12.804688 L 84.886719 12.574219 L 83.820312 11.605469 C 82.832031 10.746094 82.121094 10.253906 81.691406 10.132812 L 79.46875 10.222656 C 78.789062 10.378906 77.523438 11.128906 75.671875 12.484375 L 72.800781 14.554688 C 71.316406 15.261719 69.972656 15.460938 68.769531 15.15625 C 67.90625 14.910156 67.289062 14.449219 66.917969 13.773438 C 66.113281 12.421875 65.746094 10.839844 65.804688 9.027344 C 65.867188 7.273438 66.316406 5.832031 67.148438 4.695312 C 67.796875 3.742188 68.601562 3.019531 69.558594 2.527344 C 69.15625 3.605469 69.234375 4.542969 69.789062 5.339844 C 70.4375 6.230469 71.285156 6.816406 72.335938 7.089844 C 73.847656 7.492188 75.316406 7.230469 76.734375 6.308594 C 80.253906 3.972656 82.554688 2.820312 83.636719 2.851562 L 84.699219 3.035156 C 85.195312 3.160156 85.875 3.480469 86.738281 4.003906 C 87.511719 4.527344 88.066406 4.832031 88.40625 4.925781 L 89.703125 4.742188 L 91.878906 3.035156 C 94.039062 1.039062 95.507812 0.0859375 96.277344 0.179688 L 96.554688 0.226562 C 97.421875 0.472656 98.363281 1.191406 99.378906 2.390625 L 100.351562 3.636719 L 101.511719 4.785156 L 105.167969 6.90625 C 106.835938 7.582031 108.148438 9.074219 109.105469 11.375 L 110.867188 15.292969 C 111.882812 16.09375 112.78125 17.566406 113.550781 19.71875 "/>
</g>
</svg>
