<?xml version="1.0" encoding="UTF-8"?>
<svg xmlns="http://www.w3.org/2000/svg" xmlns:xlink="http://www.w3.org/1999/xlink" width="128pt" height="231pt" viewBox="0 0 128 231" version="1.1">
<g id="surface1">
<path style=" stroke:none;fill-rule:nonzero;fill:rgb(100%,100%,100%);fill-opacity:1;" d="M 90.6875 172.039062 C 89.84375 172.105469 89.355469 172.324219 89.222656 172.691406 C 89.085938 173.0625 89.589844 174.539062 90.734375 177.125 L 92.503906 180.953125 C 93.3125 180.046875 93.429688 179.425781 92.855469 179.089844 C 92.453125 178.855469 92.148438 177.796875 91.949219 175.914062 C 91.746094 174.238281 91.710938 172.925781 91.847656 171.988281 L 90.6875 172.039062 M 46.859375 131.945312 C 49.214844 134.296875 50.660156 136.191406 51.199219 137.636719 C 51.941406 139.617188 53.355469 141.582031 55.441406 143.53125 C 56.855469 144.839844 58.402344 145.996094 60.085938 147.003906 L 46.351562 159.042969 L 47.917969 160.25 L 52.3125 157.128906 L 44.988281 166.445312 L 42.210938 171.28125 L 44.082031 171.433594 L 44.835938 172.492188 C 45.007812 173.429688 44.417969 174.640625 43.070312 176.117188 L 38.777344 181.105469 L 40.140625 182.3125 L 40.292969 185.886719 C 40.226562 188.640625 39.722656 190.941406 38.777344 192.789062 C 37.769531 194.835938 36.339844 197.136719 34.488281 199.6875 L 29.890625 205.785156 L 30.042969 207.699219 L 32.871094 204.425781 L 31.960938 210.417969 C 31.792969 211.527344 31.324219 212.449219 30.546875 213.1875 C 29.570312 214.128906 28.140625 214.648438 26.257812 214.75 C 24.910156 214.78125 23.679688 215.117188 22.570312 215.757812 L 19.640625 217.722656 C 16.542969 219.835938 13.886719 220.996094 11.664062 221.195312 C 10.351562 221.332031 9.089844 221.09375 7.875 220.492188 C 7.472656 220.289062 7.289062 219.785156 7.320312 218.980469 L 8.230469 218.375 L 9.089844 217.769531 L 8.28125 217.621094 L 7.523438 217.417969 C 7.691406 216.445312 8.113281 215.101562 8.785156 213.390625 C 10.433594 212.683594 12.671875 211.84375 15.5 210.871094 C 18.394531 209.863281 20.230469 209.292969 21.003906 209.160156 C 22.21875 208.992188 23.277344 207.378906 24.1875 204.324219 C 24.925781 201.804688 25.296875 199.671875 25.296875 197.925781 L 24.84375 191.53125 C 24.640625 188.039062 24.792969 185.367188 25.296875 183.519531 C 25.769531 181.742188 26.390625 180.179688 27.164062 178.835938 C 27.738281 177.828125 28.089844 177.324219 28.226562 177.324219 L 30.296875 176.269531 L 29.941406 173.5 C 29.472656 170.105469 29.523438 167.570312 30.09375 165.894531 C 30.464844 164.785156 31.035156 164.433594 31.8125 164.835938 C 32.214844 165.035156 32.566406 165.355469 32.871094 165.792969 L 33.375 173.851562 L 36.507812 175.914062 C 35.125 168.226562 34.386719 163.054688 34.285156 160.402344 C 32.804688 160.199219 32.046875 157.632812 32.011719 152.695312 C 31.980469 147.15625 33.273438 141.953125 35.902344 137.082031 L 39.6875 129.527344 L 40.546875 126.101562 L 46.859375 131.945312 M 61.449219 117.238281 L 64.582031 117.085938 C 65.289062 116.75 65.371094 116.28125 64.832031 115.675781 C 64.328125 115.070312 62.929688 114.636719 60.640625 114.367188 C 58.488281 114.132812 56.652344 114.148438 55.136719 114.417969 C 50.191406 115.390625 47.664062 116.214844 47.566406 116.886719 C 47.496094 117.320312 48.085938 117.472656 49.332031 117.339844 L 53.523438 116.886719 L 61.449219 117.238281 M 99.722656 130.183594 L 99.320312 129.527344 L 99.925781 129.679688 C 100.429688 129.878906 101.003906 130.300781 101.644531 130.9375 C 102.347656 131.644531 102.636719 132.5 102.5 133.507812 C 102.433594 134.277344 102.164062 134.949219 101.691406 135.519531 L 100.632812 136.730469 L 99.671875 137.9375 L 98.007812 137.484375 L 98.964844 136.226562 L 100.078125 133.65625 C 100.414062 132.75 100.515625 132.078125 100.378906 131.644531 L 99.722656 130.183594 M 102.5 127.765625 L 104.773438 129.980469 L 106.640625 132.195312 C 106 133.136719 104.839844 135.269531 103.15625 138.59375 L 100.632812 138.140625 L 101.085938 137.789062 C 101.726562 137.285156 102.433594 136.394531 103.207031 135.117188 C 104.082031 133.707031 104.4375 132.683594 104.269531 132.046875 C 104.167969 131.574219 103.425781 130.804688 102.046875 129.730469 C 100.835938 128.789062 100.347656 128.199219 100.582031 127.964844 C 100.917969 127.628906 101.222656 127.460938 101.492188 127.460938 L 102.5 127.765625 M 47.007812 107.667969 L 50.898438 105.453125 L 53.773438 104.394531 L 57.058594 104.042969 C 57.796875 104.109375 60.304688 105.132812 64.582031 107.113281 C 68.351562 108.859375 70.371094 109.480469 70.640625 108.976562 C 71.011719 108.273438 69.410156 106.980469 65.84375 105.097656 C 62.273438 103.21875 59.226562 102.109375 56.703125 101.773438 C 54.582031 101.472656 51.957031 102.378906 48.828125 104.496094 C 47.246094 105.570312 45.882812 106.660156 44.738281 107.769531 C 44.738281 108.539062 45.496094 108.507812 47.007812 107.667969 M 50.695312 108.324219 C 48.101562 109.128906 46.757812 109.933594 46.65625 110.742188 L 49.078125 110.890625 L 53.523438 110.386719 L 58.371094 110.539062 L 61.804688 110.386719 C 62.542969 110.117188 62.695312 109.515625 62.257812 108.574219 C 61.753906 107.566406 60.441406 107.0625 58.320312 107.0625 C 55.863281 107.0625 53.320312 107.484375 50.695312 108.324219 M 58.976562 79.613281 C 59.515625 80.082031 60.003906 80.316406 60.441406 80.316406 C 60.710938 80.316406 61.988281 79.597656 64.277344 78.152344 C 66.703125 76.609375 68.46875 75.703125 69.578125 75.433594 L 76.144531 73.820312 C 79.039062 73.046875 80.484375 72.460938 80.484375 72.058594 C 80.484375 71.589844 80.351562 71.253906 80.082031 71.050781 C 79.777344 70.78125 79.207031 70.648438 78.367188 70.648438 C 77.355469 70.648438 73.789062 71.855469 67.660156 74.273438 C 61.433594 76.726562 58.320312 78.269531 58.320312 78.90625 L 58.976562 79.613281 M 50.191406 81.023438 C 50.660156 80.484375 50.207031 79.5625 48.828125 78.253906 C 47.582031 77.113281 46.285156 76.222656 44.9375 75.582031 L 38.222656 72.257812 L 35.195312 71.804688 C 33.578125 71.707031 32.769531 71.855469 32.769531 72.257812 C 32.769531 72.5625 33.644531 73.132812 35.394531 73.972656 L 40.496094 76.289062 L 46.203125 79.714844 C 48.457031 81.089844 49.785156 81.527344 50.191406 81.023438 M 53.371094 84.195312 C 54.414062 81.039062 54.347656 79.460938 53.167969 79.460938 C 52.53125 79.460938 52.109375 79.964844 51.90625 80.972656 L 51.453125 84.75 C 51.183594 86.226562 51.183594 88.023438 51.453125 90.140625 C 51.722656 92.222656 52.074219 93.230469 52.511719 93.160156 C 52.816406 93.09375 52.96875 91.902344 52.96875 89.585938 C 52.96875 86.867188 53.101562 85.070312 53.371094 84.195312 M 59.378906 72.410156 C 59.714844 71.101562 59.734375 69.722656 59.429688 68.28125 C 59.160156 66.871094 58.789062 66.265625 58.320312 66.46875 C 58.183594 66.535156 57.933594 67.910156 57.5625 70.597656 C 57.226562 73.285156 56.46875 74.828125 55.289062 75.230469 L 53.167969 75.332031 C 52.597656 75.265625 52.3125 75.414062 52.3125 75.785156 C 52.3125 76.925781 53.136719 77.328125 54.785156 76.992188 C 55.792969 76.792969 56.6875 76.339844 57.460938 75.632812 C 58.402344 74.792969 59.042969 73.71875 59.378906 72.410156 M 63.570312 69.136719 C 62.695312 70.917969 62.410156 72.007812 62.710938 72.410156 C 62.980469 72.8125 63.539062 72.964844 64.378906 72.863281 C 65.253906 72.796875 65.691406 72.476562 65.691406 71.90625 L 66.902344 68.582031 C 67.441406 66.972656 67.222656 66.199219 66.246094 66.265625 C 65.40625 66.332031 64.511719 67.289062 63.570312 69.136719 M 53.976562 52.261719 L 50.996094 52.261719 L 49.9375 52.164062 C 49.667969 52.164062 49.515625 52.214844 49.484375 52.3125 L 49.785156 52.667969 L 51.351562 53.675781 C 52.160156 54.109375 53.117188 54.226562 54.230469 54.027344 C 54.902344 53.960938 55.207031 53.65625 55.136719 53.121094 C 55.070312 52.550781 54.683594 52.261719 53.976562 52.261719 M 43.324219 44.105469 C 43.523438 44.003906 43.777344 44.003906 44.082031 44.105469 L 47.261719 45.0625 C 49.683594 45.699219 51.6875 46.070312 53.269531 46.167969 C 55.761719 46.304688 59.042969 45.902344 63.117188 44.960938 C 64.160156 44.859375 64.933594 45.027344 65.4375 45.464844 C 65.84375 45.832031 65.910156 46.167969 65.640625 46.472656 L 64.78125 47.023438 L 57.308594 49.191406 C 56.332031 49.359375 55.019531 49.359375 53.371094 49.191406 L 49.585938 48.4375 L 43.878906 45.765625 C 43.441406 45.632812 43.15625 45.261719 43.019531 44.65625 C 42.988281 44.390625 43.085938 44.203125 43.324219 44.105469 M 40.546875 16.855469 L 42.566406 18.316406 L 41.554688 19.878906 L 39.585938 22.796875 C 38.914062 21.488281 38.527344 20.429688 38.425781 19.625 C 38.324219 18.417969 38.507812 17.492188 38.980469 16.855469 C 39.417969 16.183594 39.941406 16.183594 40.546875 16.855469 M 49.632812 35.1875 C 49.195312 35.59375 49.128906 36.0625 49.433594 36.597656 L 51.300781 39.773438 C 51.839844 40.476562 52.582031 40.679688 53.523438 40.375 C 53.792969 40.34375 53.960938 40.242188 54.027344 40.074219 C 54.128906 39.90625 54.113281 39.707031 53.976562 39.46875 L 52.410156 37.101562 C 52.109375 36.566406 52.125 36.0625 52.460938 35.59375 L 54.734375 32.417969 C 55.644531 31.109375 56.417969 29.714844 57.058594 28.238281 L 57.15625 27.632812 L 56.90625 27.332031 C 56.570312 27.199219 56.25 27.382812 55.945312 27.886719 L 53.726562 31.160156 L 51.300781 33.628906 L 49.632812 35.1875 M 48.675781 30.101562 C 48.777344 29.296875 48.574219 28.390625 48.070312 27.382812 C 47.597656 26.410156 47.109375 25.871094 46.605469 25.769531 C 46.132812 25.703125 45.5625 26.121094 44.886719 27.03125 C 44.214844 27.9375 43.828125 28.792969 43.726562 29.597656 C 43.625 30.304688 43.8125 30.738281 44.28125 30.90625 L 45.746094 31.160156 L 47.464844 31.3125 C 48.171875 31.210938 48.574219 30.808594 48.675781 30.101562 M 45.242188 21.1875 L 49.078125 21.589844 C 49.414062 21.625 49.683594 21.539062 49.886719 21.339844 C 50.089844 21.136719 50.171875 20.882812 50.140625 20.582031 L 50.089844 19.726562 L 49.734375 19.070312 C 49.5 18.9375 49.230469 18.9375 48.929688 19.070312 L 45.140625 20.632812 C 44.835938 20.765625 44.703125 20.882812 44.738281 20.984375 L 45.242188 21.1875 M 68.820312 46.320312 C 68.957031 45.78125 68.773438 45.328125 68.265625 44.960938 L 63.824219 41.234375 C 63.316406 40.898438 63.148438 41 63.316406 41.535156 L 63.773438 42.945312 C 63.839844 43.179688 63.757812 43.414062 63.519531 43.652344 L 62.761719 44.003906 C 58.320312 44.910156 55.019531 45.328125 52.867188 45.261719 L 47.3125 44.203125 L 44.179688 43.246094 L 43.574219 42.84375 C 43.40625 42.644531 43.339844 42.410156 43.375 42.140625 L 43.472656 41.535156 C 43.542969 41 43.355469 40.914062 42.917969 41.285156 L 41 42.996094 C 40.832031 43.164062 40.730469 43.382812 40.699219 43.652344 C 40.628906 43.917969 40.664062 44.15625 40.796875 44.355469 L 42.566406 47.527344 C 42.835938 48.03125 43.003906 48.015625 43.070312 47.480469 L 43.121094 47.023438 C 43.121094 46.789062 43.222656 46.621094 43.425781 46.523438 C 43.59375 46.421875 43.792969 46.421875 44.03125 46.523438 L 46.90625 48.535156 C 49.230469 49.945312 51.351562 50.785156 53.269531 51.054688 C 55.222656 51.324219 57.863281 50.835938 61.199219 49.59375 L 65.640625 47.628906 C 66.246094 47.496094 66.703125 47.695312 67.003906 48.234375 L 66.851562 50.199219 C 67.15625 50.734375 67.390625 50.71875 67.558594 50.148438 L 68.820312 46.320312 M 82.253906 39.371094 L 81.191406 38.414062 L 80.433594 38.511719 C 80.234375 38.78125 80.265625 39.015625 80.535156 39.21875 L 81.140625 39.824219 C 81.511719 40.257812 81.699219 40.613281 81.699219 40.878906 C 81.699219 41.214844 81.898438 41.402344 82.304688 41.433594 C 82.675781 41.433594 82.859375 41.214844 82.859375 40.78125 C 82.859375 40.445312 82.65625 39.972656 82.253906 39.371094 M 80.585938 35.1875 C 80.386719 35.457031 80.484375 35.742188 80.890625 36.046875 L 80.992188 36.144531 L 82.65625 37.457031 L 84.019531 39.167969 C 84.492188 39.839844 84.777344 40.023438 84.878906 39.722656 C 84.980469 39.519531 84.863281 39.101562 84.527344 38.464844 L 83.464844 36.800781 C 82.824219 36.027344 82.101562 35.425781 81.292969 34.988281 C 81.023438 34.851562 80.789062 34.921875 80.585938 35.1875 M 68.113281 34.28125 C 68.992188 34.316406 69.460938 33.996094 69.527344 33.324219 C 69.628906 32.554688 69.292969 31.546875 68.519531 30.304688 C 67.777344 29.128906 67.15625 28.507812 66.652344 28.441406 C 66.113281 28.339844 65.355469 28.777344 64.378906 29.75 C 63.335938 30.722656 62.898438 31.578125 63.066406 32.316406 C 63.199219 32.988281 63.636719 33.425781 64.378906 33.628906 L 66.144531 33.878906 L 68.113281 34.28125 M 67.003906 23.25 L 68.722656 24.207031 L 70.691406 25.570312 C 71.363281 26.074219 71.800781 26.324219 72.003906 26.324219 C 72.273438 25.621094 71.800781 24.496094 70.589844 22.949219 L 68.722656 20.835938 C 68.183594 20.464844 67.761719 20.515625 67.457031 20.984375 L 66.703125 21.742188 C 66.230469 22.246094 66.046875 22.582031 66.144531 22.75 L 67.003906 23.25 M 81.09375 18.015625 C 82.875 18.046875 84.054688 19.003906 84.625 20.882812 C 85.230469 22.898438 84.15625 24.410156 81.394531 25.417969 L 80.941406 25.71875 C 80.738281 25.988281 80.839844 26.257812 81.242188 26.527344 C 83.0625 27.835938 84.476562 29.027344 85.484375 30.101562 C 87.773438 32.585938 88.785156 35.207031 88.515625 37.960938 C 87.707031 35.640625 86.613281 33.578125 85.230469 31.765625 C 83.480469 29.648438 82.285156 28.441406 81.648438 28.136719 L 80.789062 28.1875 C 80.585938 28.421875 80.636719 28.65625 80.941406 28.894531 L 82.050781 29.949219 L 84.324219 32.316406 C 85.601562 33.726562 86.914062 36.027344 88.261719 39.21875 L 88.007812 40.175781 C 87.066406 37.757812 85.871094 35.726562 84.425781 34.082031 C 83.382812 32.871094 82.386719 32.03125 81.445312 31.5625 C 81.109375 31.394531 80.890625 31.496094 80.789062 31.863281 C 80.722656 32.199219 80.90625 32.535156 81.34375 32.871094 L 83.566406 34.785156 C 84.441406 35.792969 85.703125 37.707031 87.351562 40.527344 L 87.152344 40.832031 L 86.34375 40.929688 C 85.90625 41.097656 85.839844 41.433594 86.140625 41.9375 C 88.363281 43.917969 88.714844 46.050781 87.203125 48.335938 C 85.71875 50.585938 83.550781 51.355469 80.6875 50.652344 C 77.390625 55.015625 73.585938 58.121094 69.277344 59.96875 C 66.078125 61.347656 63.789062 62.1875 62.410156 62.488281 C 58.203125 63.394531 54.398438 62.90625 50.996094 61.027344 C 45.375 57.90625 41.421875 53.203125 39.132812 46.925781 C 36.945312 40.949219 36.757812 35.039062 38.578125 29.195312 C 39.722656 25.601562 41.691406 22.09375 44.484375 18.667969 C 45.832031 18.636719 47.125 18.214844 48.371094 17.410156 L 50.996094 14.992188 C 52.582031 13.515625 53.625 12.691406 54.128906 12.523438 C 55.136719 12.152344 56.519531 12.625 58.269531 13.933594 C 59.179688 14.4375 60.152344 14.65625 61.199219 14.589844 L 64.175781 13.832031 L 68.214844 14.085938 C 69.730469 14.6875 71.078125 15.765625 72.253906 17.308594 C 72.761719 18.015625 73.484375 18.398438 74.425781 18.46875 L 76.902344 18.265625 L 81.09375 18.015625 M 39.335938 11.96875 C 39.066406 10.289062 39.234375 8.863281 39.839844 7.6875 C 40.308594 6.75 40.984375 5.976562 41.859375 5.371094 C 41.65625 6.480469 41.910156 7.351562 42.617188 7.992188 C 43.625 8.929688 44.804688 9.417969 46.152344 9.453125 C 47.53125 9.453125 48.757812 9.015625 49.835938 8.140625 C 52.800781 5.523438 54.902344 4.164062 56.148438 4.0625 C 57.089844 3.960938 58.335938 4.261719 59.886719 4.96875 L 62.660156 5.171875 L 64.480469 3.257812 C 66.363281 1.105469 67.675781 0.03125 68.417969 0.03125 C 69.359375 0.0664062 70.554688 0.652344 72.003906 1.796875 L 73.214844 2.902344 L 74.578125 3.808594 C 76.195312 4.546875 77.558594 5.070312 78.667969 5.371094 C 80.519531 5.839844 82.136719 7.101562 83.515625 9.148438 L 86.039062 12.726562 C 87.253906 13.363281 88.445312 14.65625 89.625 16.601562 C 90.46875 18.015625 91.171875 19.492188 91.746094 21.035156 C 92.753906 23.753906 92.707031 27.128906 91.59375 31.160156 C 91.023438 33.175781 90.347656 34.921875 89.574219 36.398438 C 89.273438 33.914062 88.226562 31.664062 86.445312 29.648438 L 82.960938 26.375 L 85.738281 24.460938 C 86.78125 23.488281 87.285156 22.582031 87.253906 21.742188 C 87.183594 20.464844 86.765625 19.339844 85.988281 18.367188 C 84.945312 17.058594 83.398438 16.386719 81.34375 16.351562 L 77.707031 17.058594 L 74.679688 17.410156 L 71.398438 13.632812 C 69.546875 11.414062 68.015625 10.476562 66.800781 10.8125 L 63.417969 12.171875 L 60.996094 13.128906 C 60.324219 13.398438 59.75 13.398438 59.277344 13.128906 L 58.015625 12.320312 C 56.972656 11.683594 56.300781 11.332031 55.996094 11.265625 L 53.371094 11.515625 C 52.730469 11.75 51.585938 12.609375 49.9375 14.085938 L 47.414062 16.402344 C 46.371094 17.074219 45.324219 17.425781 44.28125 17.460938 L 43.523438 17.308594 L 43.425781 17.410156 C 42.582031 17.308594 41.890625 16.9375 41.355469 16.300781 C 40.277344 15.160156 39.601562 13.714844 39.335938 11.96875 M 110.480469 188.558594 C 111.457031 191.109375 111.773438 194.90625 111.4375 199.941406 L 110.628906 206.890625 L 108.410156 207.042969 L 121.03125 221.699219 L 123.457031 224.21875 C 124.230469 224.992188 124.582031 225.460938 124.515625 225.628906 C 124.414062 225.996094 124.027344 226.285156 123.355469 226.484375 L 118.960938 227.695312 L 116.539062 228.246094 L 114.769531 226.332031 L 114.164062 229.105469 L 113.609375 230.109375 C 113.105469 230.683594 112.429688 230.96875 111.589844 230.96875 C 110.410156 230.96875 109.402344 230.3125 108.558594 229.003906 C 107.851562 227.929688 107.484375 226.972656 107.449219 226.132812 C 107.414062 224.050781 106.421875 220.691406 104.46875 216.058594 L 101.441406 209.257812 L 101.441406 209.207031 L 101.390625 209.160156 C 97.753906 204.121094 94.84375 199.539062 92.65625 195.40625 C 91.34375 192.855469 90.550781 189.984375 90.28125 186.796875 L 90.28125 182.664062 L 92.855469 183.722656 L 90.785156 180.601562 L 88.058594 174.050781 L 87.503906 172.339844 L 85.082031 171.988281 C 83.332031 171.449219 82.304688 171.0625 82 170.828125 C 81.261719 170.292969 80.046875 168.746094 78.367188 166.195312 L 75.941406 162.570312 C 74.257812 160.117188 72.472656 156.960938 70.589844 153.097656 L 67.660156 147.054688 C 67.828125 141.246094 70.4375 135.605469 75.488281 130.132812 C 78.515625 126.839844 81.796875 124.136719 85.332031 122.023438 L 87.605469 125.546875 C 87.503906 127.597656 87.722656 129.511719 88.261719 131.289062 C 88.902344 133.472656 89.894531 135.066406 91.242188 136.074219 C 92.117188 136.78125 93.242188 137.402344 94.625 137.9375 C 97.351562 143.144531 99.183594 147.375 100.128906 150.632812 C 101.339844 154.894531 101.84375 158.742188 101.644531 162.164062 C 101.542969 163.910156 101.324219 165.238281 100.984375 166.144531 L 97.855469 163.070312 L 96.996094 163.070312 C 96.425781 163.140625 96.140625 163.359375 96.140625 163.726562 C 96.140625 164.027344 96.726562 165.019531 97.90625 166.699219 L 99.925781 169.921875 L 100.785156 174.101562 L 101.339844 178.886719 L 101.085938 181.558594 C 100.984375 182.328125 101.070312 182.816406 101.339844 183.019531 L 102.300781 183.773438 C 102.566406 183.90625 102.703125 183.605469 102.703125 182.867188 C 102.703125 182.230469 103.140625 179.507812 104.015625 174.707031 C 107.078125 180.648438 109.234375 185.265625 110.480469 188.558594 M 108.660156 80.46875 C 108.089844 78.253906 107.886719 77.128906 108.054688 77.09375 C 109.132812 76.960938 110.75 77.53125 112.902344 78.808594 C 114.988281 80.015625 117.953125 83.003906 121.789062 87.773438 L 128 96.03125 C 127.628906 97.476562 126.671875 99.742188 125.121094 102.832031 C 123.167969 106.695312 121.269531 109.683594 119.417969 111.796875 C 117.464844 114.015625 114.351562 116.265625 110.074219 118.546875 L 104.117188 121.316406 L 102.097656 122.527344 L 100.230469 123.886719 L 102.148438 123.632812 L 104.269531 123.230469 C 105.246094 123.632812 105.984375 124.136719 106.488281 124.742188 C 107.027344 125.347656 107.179688 125.933594 106.945312 126.503906 L 106.589844 127.863281 L 106.390625 129.175781 L 104.015625 127.511719 C 102.433594 126.40625 101.457031 125.851562 101.085938 125.851562 L 99.320312 126.101562 L 98.308594 126.355469 L 98.816406 122.324219 L 98.511719 121.367188 L 98.109375 120.761719 C 97.769531 120.761719 97.453125 121.082031 97.148438 121.71875 C 96.847656 122.390625 96.695312 123.113281 96.695312 123.886719 C 96.695312 124.960938 96.289062 125.96875 95.484375 126.910156 L 94.320312 127.007812 C 93.546875 127.175781 93.160156 127.546875 93.160156 128.117188 C 93.160156 128.988281 93.3125 129.945312 93.613281 130.988281 C 93.984375 132.164062 94.371094 132.667969 94.777344 132.5 C 95.042969 132.398438 95.042969 131.828125 94.777344 130.785156 C 94.507812 129.847656 94.558594 129.375 94.925781 129.375 C 97.046875 129.375 98.109375 129.847656 98.109375 130.785156 L 98.257812 132.75 C 98.292969 133.523438 98.125 134.09375 97.753906 134.464844 L 96.945312 135.570312 L 95.988281 136.578125 L 93.5625 135.824219 L 92.097656 134.917969 C 90.988281 133.507812 90.296875 131.273438 90.027344 128.21875 C 89.792969 125.464844 89.910156 123.601562 90.382812 122.628906 L 93.460938 117.691406 C 96.089844 113.761719 97.753906 111.109375 98.460938 109.734375 C 99.101562 108.421875 99.839844 107.230469 100.683594 106.15625 L 103.5625 102.480469 C 105.683594 99.660156 108.878906 97.34375 113.15625 95.527344 C 114.535156 94.925781 115.914062 94.589844 117.296875 94.523438 L 119.0625 94.371094 C 119.265625 94.167969 118.757812 93.902344 117.546875 93.566406 L 114.667969 93.3125 C 115.109375 92.003906 114.886719 90.425781 114.011719 88.578125 L 112.550781 86.109375 C 113.15625 90.914062 113.15625 93.546875 112.550781 94.019531 C 111.167969 94.453125 108.996094 95.863281 106.035156 98.25 L 101.945312 101.675781 L 96.441406 99.40625 L 92.351562 94.269531 L 96.894531 89.285156 C 96.828125 88.613281 96.171875 88.679688 94.925781 89.484375 L 91.746094 91.75 L 87.808594 94.019531 C 85.890625 94.925781 84.339844 95.460938 83.164062 95.628906 L 78.0625 95.480469 L 72.207031 95.074219 L 64.882812 95.730469 L 59.179688 96.132812 C 58.539062 96 57.816406 95.597656 57.007812 94.925781 L 55.996094 94.019531 L 56.25 95.480469 C 56.484375 96.554688 56.820312 97.308594 57.257812 97.746094 C 57.664062 98.148438 58.621094 98.28125 60.136719 98.148438 L 64.632812 97.746094 L 69.074219 97.644531 L 74.175781 98.097656 C 75.183594 98.265625 76.765625 98.835938 78.921875 99.808594 C 80.570312 100.550781 82.152344 100.851562 83.667969 100.71875 C 85.351562 100.550781 88.078125 98.585938 91.847656 94.824219 L 94.21875 100.363281 C 94.1875 101.136719 93.195312 102.480469 91.242188 104.394531 L 86.898438 108.726562 C 86.292969 106.476562 85.671875 105.957031 85.03125 107.164062 C 84.695312 107.800781 84.40625 108.691406 84.171875 109.832031 L 82.101562 117.390625 C 80.082031 118.867188 77.640625 120.242188 74.78125 121.519531 C 69.898438 123.667969 65.050781 124.875 60.238281 125.144531 C 55.390625 125.378906 50.949219 124.960938 46.90625 123.886719 C 44.214844 123.148438 42.261719 122.339844 41.050781 121.46875 L 37.667969 111.242188 L 35.75 102.632812 C 35.378906 102.394531 35.125 103.117188 34.992188 104.796875 C 34.824219 106.609375 34.488281 107.484375 33.980469 107.414062 C 33.140625 107.316406 32.296875 106.171875 31.457031 103.992188 L 30.449219 100.71875 L 29.992188 97.945312 C 32.753906 99.289062 34.855469 100.164062 36.304688 100.566406 C 37.347656 100.835938 38.964844 100.667969 41.152344 100.0625 L 46.152344 98.804688 L 50.492188 97.796875 C 51.941406 97.324219 52.664062 96.957031 52.664062 96.6875 C 52.664062 96.351562 52.53125 96.015625 52.261719 95.679688 C 51.921875 95.277344 51.585938 95.144531 51.25 95.277344 L 47.765625 96.636719 C 46.386719 97.140625 45.140625 97.394531 44.03125 97.394531 L 40.140625 97.089844 L 36.101562 96.6875 C 34.890625 96.585938 32.988281 96.050781 30.398438 95.074219 L 23.933594 92.457031 C 22.351562 91.820312 21.375 91.5 21.003906 91.5 L 20.953125 91.75 C 21.964844 93.296875 24.554688 95.144531 28.730469 97.292969 L 26.558594 101.171875 L 24.992188 102.53125 C 23.679688 103.371094 22.335938 103.636719 20.953125 103.335938 L 13.582031 101.222656 C 10.183594 100.449219 8.113281 100.75 7.371094 102.128906 C 9.089844 101.792969 11.867188 102.511719 15.703125 104.292969 C 19.640625 106.105469 22.21875 106.960938 23.429688 106.863281 C 25.113281 107.734375 26.492188 109.3125 27.570312 111.597656 L 28.730469 114.769531 L 26.710938 113.410156 C 25.433594 112.570312 24.859375 112.320312 24.992188 112.652344 L 26.003906 114.871094 C 26.777344 116.246094 27.804688 117.558594 29.085938 118.800781 C 30.261719 120.007812 31.324219 121.351562 32.265625 122.828125 L 34.6875 126.554688 C 35.195312 127.261719 35.53125 128.050781 35.699219 128.921875 L 32.011719 136.527344 C 30.734375 138.945312 29.824219 141.464844 29.285156 144.082031 C 28.34375 143.914062 27.636719 143.648438 27.164062 143.277344 C 26.390625 142.707031 24.136719 142.859375 20.398438 143.730469 L 18.832031 144.082031 C 18.597656 143.882812 18.328125 143.226562 18.027344 142.121094 L 16.914062 138.492188 L 17.824219 135.066406 C 18.160156 133.824219 18.566406 133.085938 19.035156 132.851562 L 20.097656 132.953125 C 20.734375 133.121094 21.105469 133.390625 21.207031 133.757812 L 21.207031 135.519531 L 21.308594 137.082031 C 21.476562 137.117188 22.066406 136.125 23.074219 134.109375 L 24.992188 132.5 C 25.128906 132.363281 25.144531 131.960938 25.042969 131.289062 L 24.640625 130.132812 L 21.105469 126.910156 C 18.882812 124.691406 16.644531 122.292969 14.390625 119.707031 C 9.980469 114.535156 7.589844 110.839844 7.21875 108.625 C 6.414062 109.53125 7.675781 112.820312 11.007812 118.496094 L 13.785156 123.28125 C 14.289062 124.390625 14.019531 124.523438 12.976562 123.683594 C 10.183594 121.402344 5.855469 116.785156 0 109.832031 C 0.570312 107.917969 2.15625 103.773438 4.746094 97.394531 C 4.882812 97.023438 4.695312 96.804688 4.191406 96.738281 C 3.550781 96.671875 3.214844 96.535156 3.179688 96.335938 C 3.113281 96.101562 3.332031 95.546875 3.835938 94.671875 L 4.746094 92.808594 C 5.519531 90.15625 7.152344 87.636719 9.644531 85.253906 L 13.230469 82.433594 L 13.886719 84.800781 C 14.355469 86.34375 14.710938 87.015625 14.945312 86.816406 C 15.25 86.613281 15.667969 84.449219 16.207031 80.316406 C 16.375 79.816406 16.695312 79.160156 17.167969 78.355469 C 18.175781 76.742188 19.507812 75.230469 21.15625 73.820312 C 22.804688 72.445312 24.726562 71.421875 26.914062 70.75 L 29.742188 70.144531 L 37.011719 71.554688 L 35.195312 70.34375 L 33.273438 69.085938 L 33.78125 68.230469 C 34.386719 67.457031 35.394531 66.753906 36.808594 66.113281 C 38.359375 65.375 39.433594 65.058594 40.042969 65.15625 L 40.496094 65.5625 L 40.847656 66.617188 L 41.203125 67.523438 L 41.960938 66.367188 L 42.617188 65.105469 L 44.332031 58.054688 C 46.453125 59.835938 48.589844 61.210938 50.746094 62.1875 C 58.320312 64.9375 65.792969 64.25 73.164062 60.121094 L 74.324219 65.914062 C 74.359375 66.046875 74.761719 65.863281 75.539062 65.359375 L 76.953125 64.503906 C 78.332031 64.367188 79.828125 64.652344 81.445312 65.359375 C 82.253906 65.695312 82.925781 66.0625 83.464844 66.46875 L 80.941406 67.726562 C 79.222656 68.632812 78.433594 69.203125 78.566406 69.4375 C 78.667969 69.675781 79.492188 69.675781 81.042969 69.4375 L 84.878906 68.933594 L 87.503906 69.085938 C 88.179688 69.085938 88.546875 68.96875 88.617188 68.734375 C 88.683594 68.5 88.210938 68.027344 87.203125 67.324219 L 85.890625 66.316406 C 88.210938 65.945312 90.871094 66.164062 93.867188 66.972656 C 96.390625 67.640625 98.914062 69.171875 101.441406 71.554688 C 102.71875 72.730469 103.761719 73.871094 104.570312 74.980469 L 106.085938 78.65625 C 106.960938 81.207031 107.179688 82.886719 106.742188 83.691406 C 105.027344 83.089844 103.175781 83.054688 101.1875 83.59375 C 99.234375 84.128906 98.445312 84.800781 98.816406 85.605469 L 100.230469 85.554688 C 101.441406 84.984375 102.433594 84.648438 103.207031 84.550781 L 106.390625 84.902344 C 107.667969 85.136719 108.425781 85.136719 108.660156 84.902344 C 109.265625 84.296875 109.265625 82.820312 108.660156 80.46875 "/>
</g>
</svg>
