<?xml version="1.0" encoding="UTF-8"?>
<svg xmlns="http://www.w3.org/2000/svg" xmlns:xlink="http://www.w3.org/1999/xlink" width="128pt" height="196pt" viewBox="0 0 128 196" version="1.1">
<g id="surface1">
<path style=" stroke:none;fill-rule:nonzero;fill:rgb(100%,100%,100%);fill-opacity:1;" d="M 90.664062 146.210938 C 89.980469 146.269531 89.578125 146.453125 89.464844 146.765625 C 89.351562 147.078125 89.777344 148.328125 90.746094 150.511719 L 92.242188 153.746094 C 92.925781 152.980469 93.027344 152.453125 92.542969 152.171875 C 92.230469 151.972656 91.972656 151.078125 91.773438 149.488281 C 91.601562 148.097656 91.558594 146.992188 91.644531 146.171875 L 90.664062 146.210938 M 53.574219 112.339844 C 55.566406 114.328125 56.792969 115.929688 57.25 117.148438 C 57.875 118.824219 59.070312 120.480469 60.839844 122.128906 C 62.0625 123.261719 63.386719 124.242188 64.8125 125.0625 L 53.148438 135.234375 L 54.472656 136.253906 L 58.230469 133.617188 L 51.992188 141.488281 L 49.644531 145.574219 L 51.265625 145.703125 L 51.867188 146.597656 C 52.035156 147.390625 51.539062 148.410156 50.371094 149.660156 L 46.738281 153.871094 L 47.890625 154.894531 L 48.019531 157.914062 C 47.960938 160.242188 47.535156 162.183594 46.738281 163.746094 C 45.882812 165.476562 44.6875 167.417969 43.148438 169.574219 L 39.261719 174.722656 L 39.390625 176.339844 L 41.78125 173.574219 L 41.011719 178.636719 C 40.640625 180.9375 39.03125 182.15625 36.183594 182.296875 C 35.042969 182.328125 33.992188 182.609375 33.023438 183.148438 L 30.585938 184.808594 C 27.964844 186.597656 25.703125 187.574219 23.792969 187.746094 C 22.710938 187.859375 21.640625 187.660156 20.589844 187.148438 C 20.273438 187.007812 20.117188 186.582031 20.117188 185.871094 L 20.886719 185.363281 L 21.65625 184.851562 L 20.972656 184.722656 L 20.289062 184.554688 C 20.488281 183.671875 20.859375 182.539062 21.398438 181.148438 C 22.765625 180.554688 24.648438 179.84375 27.039062 179.019531 C 29.519531 178.171875 31.085938 177.6875 31.742188 177.574219 C 32.765625 177.433594 33.664062 176.070312 34.433594 173.488281 C 35.058594 171.363281 35.371094 169.558594 35.371094 168.085938 L 34.988281 162.679688 C 34.816406 159.730469 34.929688 157.476562 35.328125 155.914062 C 35.726562 154.410156 36.269531 153.09375 36.953125 151.957031 L 37.808594 150.679688 L 39.558594 149.789062 L 39.304688 147.445312 C 38.875 144.582031 38.90625 142.441406 39.390625 141.019531 C 39.703125 140.085938 40.199219 139.789062 40.882812 140.128906 L 41.78125 140.9375 L 42.207031 147.746094 L 44.859375 149.488281 C 43.691406 142.992188 43.050781 138.625 42.933594 136.382812 C 42.394531 136.328125 41.925781 135.175781 41.523438 132.9375 C 41.097656 130.523438 40.96875 127.859375 41.140625 124.9375 C 41.597656 116.878906 43.960938 111.035156 48.234375 107.402344 L 53.574219 112.339844 M 65.964844 99.914062 L 68.613281 99.789062 C 69.183594 99.503906 69.242188 99.105469 68.785156 98.597656 C 68.359375 98.085938 67.175781 97.714844 65.238281 97.488281 C 63.417969 97.289062 61.863281 97.304688 60.582031 97.53125 C 56.421875 98.355469 54.285156 99.050781 54.171875 99.617188 C 54.117188 99.984375 54.628906 100.113281 55.710938 100 L 59.257812 99.617188 L 65.964844 99.914062 M 53.445312 94.425781 L 55.496094 94.554688 L 59.257812 94.128906 L 63.316406 94.253906 L 66.265625 94.128906 C 66.863281 93.871094 66.976562 93.363281 66.605469 92.597656 C 66.207031 91.746094 65.097656 91.320312 63.273438 91.320312 C 61.195312 91.320312 59.042969 91.671875 56.820312 92.382812 C 54.628906 93.0625 53.503906 93.746094 53.445312 94.425781 M 53.746094 91.828125 L 57.035156 89.957031 C 58.316406 89.445312 59.128906 89.148438 59.472656 89.0625 L 62.25 88.765625 C 62.847656 88.824219 64.953125 89.6875 68.570312 91.363281 C 71.761719 92.835938 73.472656 93.363281 73.699219 92.9375 C 74.011719 92.339844 72.671875 91.25 69.683594 89.660156 C 66.664062 88.070312 64.085938 87.132812 61.949219 86.851562 C 60.15625 86.597656 57.933594 87.363281 55.285156 89.148438 L 51.824219 91.914062 L 53.746094 91.828125 M 64 83.277344 C 64.285156 84.210938 64.613281 84.90625 64.984375 85.363281 C 65.324219 85.757812 66.109375 85.859375 67.332031 85.660156 L 70.878906 85.191406 L 78.742188 85.234375 C 79.566406 85.261719 81.003906 85.574219 83.058594 86.171875 C 84.59375 86.625 86.035156 86.652344 87.371094 86.253906 C 88.3125 86 89.324219 84.964844 90.40625 83.148438 C 91.515625 81.363281 92.171875 79.632812 92.371094 77.957031 C 92.570312 76.566406 92.671875 74.75 92.671875 72.511719 L 92.628906 69.53125 C 92.3125 68.824219 91.914062 69.078125 91.429688 70.296875 C 91.03125 71.261719 90.691406 72.453125 90.40625 73.871094 C 90.207031 75.035156 89.664062 76.382812 88.78125 77.914062 C 87.8125 79.589844 86.859375 80.695312 85.917969 81.234375 C 84.550781 82.027344 81.972656 82.765625 78.1875 83.445312 L 66.433594 83.789062 C 65.894531 83.671875 65.269531 83.332031 64.554688 82.765625 L 63.699219 82 L 64 83.277344 M 36.824219 73.828125 C 36.539062 73.746094 36.183594 74.085938 35.757812 74.851562 C 35.242188 75.703125 35.042969 76.667969 35.160156 77.746094 C 35.5 80.980469 38.464844 83.957031 44.046875 86.679688 L 48.105469 86.382812 L 52.335938 85.320312 L 55.96875 84.46875 C 57.191406 84.070312 57.804688 83.757812 57.804688 83.53125 C 57.804688 83.25 57.691406 82.964844 57.460938 82.679688 C 57.207031 82.339844 56.9375 82.210938 56.652344 82.296875 L 53.746094 83.488281 C 52.578125 83.914062 51.523438 84.128906 50.582031 84.128906 L 47.335938 83.914062 L 43.960938 83.53125 C 39.800781 82.339844 37.453125 80.382812 36.910156 77.660156 C 36.769531 76.921875 36.753906 76.042969 36.867188 75.019531 C 36.953125 74.253906 36.9375 73.859375 36.824219 73.828125 M 63.828125 68.128906 C 64.285156 68.523438 64.699219 68.722656 65.066406 68.722656 C 65.324219 68.722656 66.40625 68.113281 68.316406 66.894531 C 70.367188 65.589844 71.863281 64.824219 72.800781 64.597656 C 78.984375 63.148438 82.074219 62.199219 82.074219 61.746094 C 82.074219 61.347656 81.960938 61.0625 81.730469 60.894531 C 81.476562 60.667969 80.992188 60.554688 80.28125 60.554688 C 79.425781 60.554688 76.40625 61.574219 71.222656 63.617188 C 65.921875 65.6875 63.273438 66.992188 63.273438 67.53125 L 63.828125 68.128906 M 53.0625 68.210938 C 54.96875 69.375 56.09375 69.746094 56.4375 69.320312 C 56.835938 68.867188 56.4375 68.085938 55.242188 66.980469 C 54.1875 66.015625 53.089844 65.261719 51.949219 64.722656 C 48.675781 63.050781 46.78125 62.113281 46.269531 61.914062 L 43.703125 61.53125 C 42.335938 61.445312 41.652344 61.574219 41.652344 61.914062 C 41.652344 62.171875 42.394531 62.652344 43.875 63.363281 L 48.234375 65.320312 L 53.0625 68.210938 M 59.085938 72 C 59.484375 70.835938 59.683594 69.902344 59.683594 69.191406 C 59.683594 68.398438 59.441406 68 58.957031 68 C 58.417969 68 58.0625 68.425781 57.890625 69.277344 L 57.460938 72.46875 C 57.261719 73.714844 57.261719 75.234375 57.460938 77.019531 C 57.691406 78.78125 57.988281 79.632812 58.359375 79.574219 C 58.617188 79.519531 58.746094 78.511719 58.746094 76.554688 C 58.746094 74.253906 58.859375 72.738281 59.085938 72 M 64.171875 62.042969 C 64.457031 60.90625 64.484375 59.746094 64.257812 58.554688 C 64 57.390625 63.671875 56.878906 63.273438 57.019531 C 63.046875 57.132812 63.003906 58.269531 63.144531 60.425781 C 63.058594 62.636719 62.261719 63.972656 60.753906 64.425781 L 58.957031 64.511719 C 58.472656 64.453125 58.230469 64.582031 58.230469 64.894531 C 58.230469 65.859375 58.914062 66.199219 60.28125 65.914062 C 61.136719 65.746094 61.890625 65.363281 62.546875 64.765625 C 63.34375 64.058594 63.886719 63.148438 64.171875 62.042969 M 67.761719 59.277344 C 66.992188 60.78125 66.734375 61.703125 66.992188 62.042969 C 67.246094 62.382812 67.730469 62.511719 68.445312 62.425781 C 69.183594 62.367188 69.554688 62.097656 69.554688 61.617188 L 70.539062 58.808594 C 71.023438 57.445312 70.835938 56.792969 69.980469 56.851562 C 69.269531 56.90625 68.527344 57.714844 67.761719 59.277344 M 58.660156 45.617188 L 58.019531 45.53125 L 54.601562 45.871094 C 54.371094 45.902344 54.242188 45.957031 54.214844 46.042969 L 54.515625 46.339844 L 55.925781 46.980469 C 56.664062 47.261719 57.492188 47.261719 58.402344 46.980469 L 58.957031 46.636719 L 59.042969 46.085938 C 59.015625 45.886719 58.886719 45.730469 58.660156 45.617188 M 47.976562 40.382812 C 47.835938 39.929688 48.089844 39.730469 48.746094 39.789062 L 51.523438 40.210938 L 56.695312 40.46875 C 58.828125 40.328125 61.550781 39.632812 64.855469 38.382812 C 65.710938 38.128906 66.378906 38.183594 66.863281 38.554688 C 67.203125 38.808594 67.289062 39.078125 67.117188 39.363281 L 66.476562 39.871094 C 63.574219 41.320312 61.566406 42.210938 60.453125 42.554688 L 57.121094 43.019531 L 53.832031 42.765625 L 48.789062 41.191406 C 48.390625 41.105469 48.121094 40.835938 47.976562 40.382812 M 47.976562 37.703125 L 47.847656 37.363281 C 47.761719 37.332031 47.648438 37.390625 47.507812 37.53125 L 46.054688 39.191406 L 45.882812 39.789062 L 46.054688 40.382812 L 47.890625 42.851562 C 48.175781 43.21875 48.320312 43.175781 48.320312 42.722656 L 48.277344 42.339844 C 48.246094 42.140625 48.304688 42 48.445312 41.914062 L 49.003906 41.828125 L 51.652344 43.191406 C 53.730469 44.097656 55.597656 44.566406 57.25 44.597656 C 58.929688 44.597656 61.09375 43.886719 63.742188 42.46875 L 67.246094 40.339844 C 67.445312 40.253906 67.660156 40.253906 67.886719 40.339844 C 68.117188 40.398438 68.300781 40.511719 68.445312 40.679688 L 68.570312 42.339844 L 68.957031 42.554688 L 69.171875 42.210938 L 69.769531 38.894531 C 69.824219 38.410156 69.613281 38.042969 69.128906 37.789062 L 64.984375 35.148438 L 64.597656 35.105469 C 64.511719 35.164062 64.511719 35.277344 64.597656 35.445312 L 65.152344 36.636719 C 65.269531 36.808594 65.226562 37.007812 65.027344 37.234375 L 64.425781 37.617188 C 60.78125 38.867188 58.0625 39.589844 56.265625 39.789062 L 51.480469 39.53125 L 48.746094 39.0625 L 48.191406 38.808594 L 47.976562 38.253906 L 47.976562 37.703125 M 51.054688 27.53125 C 51.023438 26.851562 50.753906 26.128906 50.242188 25.363281 C 49.730469 24.597656 49.257812 24.199219 48.832031 24.171875 C 48.40625 24.140625 47.960938 24.554688 47.507812 25.402344 C 47.050781 26.199219 46.824219 26.949219 46.824219 27.660156 C 46.824219 28.253906 47.023438 28.609375 47.421875 28.722656 L 48.660156 28.765625 L 50.199219 28.679688 C 50.769531 28.511719 51.054688 28.128906 51.054688 27.53125 M 46.996094 20.042969 C 46.765625 20.183594 46.667969 20.296875 46.695312 20.382812 L 47.164062 20.46875 L 50.414062 20.339844 L 51.054688 20.085938 C 51.222656 19.886719 51.28125 19.660156 51.222656 19.402344 L 51.054688 18.679688 L 50.667969 18.210938 L 50.027344 18.253906 L 46.996094 20.042969 M 44.601562 18.339844 L 43.917969 19.746094 L 42.59375 22.46875 C 41.824219 21.332031 41.382812 20.496094 41.269531 19.957031 C 41.039062 18.964844 41.082031 18.171875 41.398438 17.574219 C 41.738281 16.949219 42.195312 16.878906 42.765625 17.363281 C 43.304688 17.816406 43.917969 18.140625 44.601562 18.339844 M 64.171875 25.445312 C 63.402344 26.410156 63.132812 27.191406 63.359375 27.789062 C 63.558594 28.328125 63.972656 28.636719 64.597656 28.722656 L 66.09375 28.722656 L 67.804688 28.851562 C 68.515625 28.792969 68.871094 28.46875 68.871094 27.871094 C 68.871094 27.21875 68.488281 26.425781 67.71875 25.488281 C 66.976562 24.582031 66.378906 24.128906 65.921875 24.128906 C 65.46875 24.097656 64.882812 24.539062 64.171875 25.445312 M 56.90625 24.894531 L 55.410156 27.871094 L 53.660156 30.253906 L 52.421875 31.703125 C 52.078125 32.097656 52.066406 32.496094 52.378906 32.894531 L 54.300781 35.320312 C 54.84375 35.886719 55.496094 35.972656 56.265625 35.574219 L 56.652344 35.277344 L 56.523438 34.808594 L 54.984375 32.980469 C 54.613281 32.554688 54.558594 32.140625 54.8125 31.746094 L 56.394531 28.808594 C 56.992188 27.617188 57.476562 26.367188 57.847656 25.0625 C 57.988281 24.609375 57.917969 24.355469 57.632812 24.296875 C 57.347656 24.242188 57.105469 24.441406 56.90625 24.894531 M 68.613281 19.0625 L 66.777344 17.53125 L 66.179688 17.445312 L 65.75 17.789062 L 65.195312 18.511719 C 64.855469 18.992188 64.742188 19.304688 64.855469 19.445312 L 65.625 19.746094 L 67.160156 20.339844 L 68.957031 21.277344 L 70.195312 21.746094 C 70.339844 21.121094 69.8125 20.226562 68.613281 19.0625 M 94.464844 39.105469 L 94.847656 39.914062 L 94.722656 42.597656 L 94.335938 45.019531 C 93.539062 45.105469 91.53125 45.558594 88.3125 46.382812 L 87.203125 44.511719 L 87.671875 44.636719 L 90.535156 44.46875 C 91.902344 44.242188 92.757812 43.902344 93.097656 43.445312 C 93.324219 43.132812 93.398438 42.226562 93.3125 40.722656 C 93.253906 39.445312 93.367188 38.808594 93.652344 38.808594 C 94.023438 38.835938 94.292969 38.9375 94.464844 39.105469 M 87.5 42.425781 L 89.722656 41.703125 L 91.175781 40.765625 L 91.945312 38.894531 L 92.199219 39.363281 C 92.34375 39.816406 92.386719 40.410156 92.328125 41.148438 C 92.273438 42 91.902344 42.667969 91.21875 43.148438 C 90.648438 43.519531 90.050781 43.714844 89.421875 43.746094 L 86.773438 43.828125 L 86.132812 42.511719 L 87.5 42.425781 M 79.339844 32.042969 L 79.980469 32.851562 C 80.007812 33.132812 80.179688 33.261719 80.492188 33.234375 C 80.804688 33.234375 80.949219 33.050781 80.921875 32.679688 C 80.835938 32.253906 80.605469 31.886719 80.238281 31.574219 L 79.210938 30.851562 C 78.925781 30.738281 78.726562 30.792969 78.613281 31.019531 C 78.46875 31.277344 78.527344 31.476562 78.785156 31.617188 L 79.339844 32.042969 M 78.742188 28.9375 L 78.785156 28.980469 L 78.785156 28.9375 L 80.363281 29.871094 L 81.6875 31.148438 C 82.171875 31.660156 82.445312 31.789062 82.5 31.53125 C 82.53125 31.332031 82.386719 30.992188 82.074219 30.511719 L 80.964844 29.234375 C 80.28125 28.609375 79.59375 28.199219 78.910156 28 C 78.683594 27.886719 78.511719 27.957031 78.398438 28.210938 C 78.257812 28.46875 78.371094 28.710938 78.742188 28.9375 M 77.972656 19.957031 L 77.628906 20.253906 C 77.460938 20.511719 77.558594 20.722656 77.929688 20.894531 C 79.582031 21.746094 80.90625 22.582031 81.902344 23.402344 C 84.125 25.25 85.265625 27.332031 85.320312 29.660156 C 84.496094 27.929688 83.339844 26.3125 81.859375 24.808594 C 80.179688 23.25 79.054688 22.382812 78.484375 22.210938 C 78.113281 22.097656 77.859375 22.140625 77.714844 22.339844 C 77.574219 22.566406 77.660156 22.75 77.972656 22.894531 L 79.039062 23.660156 L 81.175781 25.402344 C 82.457031 26.480469 83.824219 28.253906 85.277344 30.722656 L 85.148438 31.574219 C 84.097656 29.644531 82.871094 28.070312 81.476562 26.851562 C 80.363281 25.886719 79.4375 25.304688 78.699219 25.105469 C 78.386719 24.992188 78.214844 25.09375 78.1875 25.402344 C 78.128906 25.714844 78.3125 25.984375 78.742188 26.210938 L 80.835938 27.574219 C 82.058594 28.679688 83.441406 30.253906 84.980469 32.296875 L 84.9375 32.339844 L 84.9375 32.851562 C 83.683594 34.75 83.113281 36.285156 83.226562 37.445312 C 83.257812 38.269531 83.46875 39.207031 83.867188 40.253906 C 82.785156 40.992188 81.5625 41.304688 80.195312 41.191406 C 77.945312 45.164062 75.109375 48.183594 71.691406 50.253906 C 69.097656 51.789062 67.277344 52.75 66.222656 53.148438 C 62.804688 54.367188 59.554688 54.382812 56.480469 53.191406 C 51.410156 51.175781 47.5625 47.671875 44.941406 42.679688 C 42.4375 37.914062 41.609375 32.992188 42.464844 27.914062 C 43.035156 24.792969 44.289062 21.632812 46.226562 18.425781 C 47.277344 18.285156 48.332031 17.789062 49.386719 16.9375 L 51.265625 14.636719 C 52.433594 13.25 53.21875 12.441406 53.617188 12.210938 L 55.796875 12.296875 C 56.28125 12.46875 56.765625 12.679688 57.25 12.9375 L 59.8125 13.148438 L 62.207031 12.171875 C 63.175781 11.6875 64.300781 11.601562 65.582031 11.914062 C 66.949219 12.253906 68.203125 13.007812 69.339844 14.171875 C 69.882812 14.710938 70.550781 14.964844 71.347656 14.9375 L 73.355469 14.46875 L 76.859375 13.789062 C 78.34375 13.617188 79.4375 14.285156 80.152344 15.789062 C 80.890625 17.402344 80.164062 18.792969 77.972656 19.957031 M 46.609375 10.511719 C 47.75 10.367188 48.71875 9.871094 49.515625 9.019531 C 51.878906 6.46875 53.488281 5.09375 54.34375 4.894531 L 57.589844 5.234375 L 59.941406 5.0625 L 61.265625 3.277344 C 62.632812 1.289062 63.617188 0.253906 64.214844 0.171875 C 64.984375 0.0585938 66.050781 0.410156 67.417969 1.234375 L 68.527344 2 C 68.984375 2.3125 69.414062 2.523438 69.8125 2.636719 L 73.441406 3.488281 C 75.039062 3.6875 76.519531 4.566406 77.886719 6.128906 L 80.40625 8.808594 C 81.488281 9.207031 82.644531 10.15625 83.867188 11.660156 L 86.132812 15.105469 C 87.300781 17.261719 87.628906 20.097656 87.117188 23.617188 C 86.886719 25.375 86.53125 26.921875 86.046875 28.253906 C 85.476562 26.15625 84.351562 24.382812 82.671875 22.9375 L 80.792969 21.488281 L 79.382812 20.597656 L 81.519531 18.679688 C 82.289062 17.746094 82.601562 16.921875 82.457031 16.210938 C 82.230469 15.132812 81.746094 14.242188 81.003906 13.53125 C 79.980469 12.566406 78.597656 12.183594 76.859375 12.382812 C 76.320312 12.441406 75.335938 12.765625 73.914062 13.363281 C 72.660156 13.871094 71.832031 14.085938 71.433594 14 L 68.230469 11.191406 C 66.40625 9.546875 65.011719 8.9375 64.042969 9.363281 C 63.785156 9.476562 63.332031 9.730469 62.675781 10.128906 L 61.394531 10.894531 L 59.472656 11.957031 L 58.019531 12.128906 L 56.863281 11.617188 L 55.070312 10.9375 C 54.441406 10.851562 53.703125 11.035156 52.847656 11.488281 C 52.335938 11.746094 51.480469 12.582031 50.285156 14 L 48.445312 16.210938 C 47.59375 16.894531 46.738281 17.304688 45.882812 17.445312 C 44.886719 17.617188 44.03125 17.402344 43.320312 16.808594 C 42.265625 15.957031 41.539062 14.824219 41.140625 13.402344 C 40.714844 12.042969 40.699219 10.835938 41.097656 9.789062 C 41.355469 8.964844 41.824219 8.242188 42.507812 7.617188 C 42.507812 8.582031 42.835938 9.277344 43.492188 9.703125 C 44.429688 10.382812 45.46875 10.652344 46.609375 10.511719 M 107.453125 160.171875 C 108.28125 162.328125 108.550781 165.53125 108.265625 169.789062 L 107.582031 175.660156 L 105.660156 175.789062 L 116.339844 188.171875 L 118.433594 190.296875 C 119.0625 190.949219 119.359375 191.347656 119.332031 191.488281 C 119.246094 191.800781 118.917969 192.042969 118.351562 192.210938 L 114.632812 193.234375 L 112.539062 193.703125 L 111.085938 192.085938 L 110.574219 194.425781 L 110.101562 195.277344 C 109.675781 195.757812 109.09375 196 108.351562 196 C 107.355469 196 106.5 195.445312 105.789062 194.339844 C 105.21875 193.460938 104.917969 192.652344 104.890625 191.914062 C 104.863281 190.15625 104.023438 187.320312 102.371094 183.402344 L 99.761719 177.660156 L 99.761719 177.574219 C 96.660156 173.320312 94.195312 169.445312 92.371094 165.957031 C 91.261719 163.800781 90.589844 161.375 90.363281 158.679688 L 90.363281 155.191406 L 92.542969 156.085938 L 90.789062 153.445312 L 88.441406 147.914062 L 88.011719 146.46875 L 85.960938 146.171875 L 83.355469 145.191406 C 82.730469 144.738281 81.703125 143.433594 80.28125 141.277344 L 78.1875 138.210938 C 76.761719 136.113281 75.25 133.445312 73.65625 130.210938 L 71.222656 125.105469 C 71.363281 120.199219 73.558594 115.433594 77.800781 110.808594 C 80.421875 107.972656 83.214844 105.6875 86.175781 103.957031 L 91.6875 111.402344 C 95.390625 117.191406 97.710938 122.765625 98.652344 128.128906 C 99.308594 131.816406 99.636719 135.09375 99.636719 137.957031 L 99.421875 141.234375 L 96.773438 138.636719 L 96.046875 138.636719 C 95.5625 138.695312 95.320312 138.878906 95.320312 139.191406 C 95.320312 139.445312 95.816406 140.285156 96.816406 141.703125 L 98.523438 144.425781 L 99.207031 147.957031 L 99.679688 152 L 99.464844 154.253906 C 99.378906 154.90625 99.449219 155.320312 99.679688 155.488281 L 100.488281 156.128906 C 100.746094 156.242188 100.875 155.984375 100.875 155.363281 C 100.875 154.367188 101.246094 152.070312 101.984375 148.46875 C 104.632812 153.773438 106.457031 157.671875 107.453125 160.171875 M 107.496094 32.46875 C 115.359375 35.476562 120.246094 38.15625 122.152344 40.511719 C 123.632812 42.296875 124.988281 45.019531 126.210938 48.679688 C 126.925781 50.808594 127.492188 52.894531 127.921875 54.9375 C 123.222656 61.375 119.132812 66.242188 115.65625 69.53125 C 114.320312 70.808594 111.785156 71.984375 108.050781 73.0625 L 102.796875 74.339844 L 104.292969 74.597656 L 106.984375 74.679688 C 105.929688 76.128906 103.496094 78.75 99.679688 82.554688 L 93.398438 88.722656 C 92.3125 89.800781 91.003906 90.792969 89.464844 91.703125 C 88.128906 92.496094 87.457031 92.835938 87.457031 92.722656 C 86.945312 90.824219 86.417969 90.382812 85.875 91.402344 L 85.191406 93.660156 L 83.398438 100.042969 C 81.804688 101.234375 79.753906 102.398438 77.246094 103.53125 C 73.117188 105.347656 69.011719 106.367188 64.941406 106.597656 C 60.808594 106.792969 57.050781 106.441406 53.660156 105.53125 C 51.410156 104.90625 49.742188 104.226562 48.660156 103.488281 L 45.839844 94.851562 L 44.21875 87.574219 C 43.902344 87.375 43.691406 87.984375 43.574219 89.402344 C 43.433594 90.9375 43.148438 91.671875 42.722656 91.617188 C 41.980469 91.53125 41.269531 90.566406 40.585938 88.722656 L 39.730469 85.957031 C 30.160156 79.632812 23.007812 74.738281 18.28125 71.277344 C 20.417969 71.902344 22.3125 71.941406 23.964844 71.402344 C 25.019531 71.09375 26.371094 70.355469 28.023438 69.191406 C 29.816406 67.914062 31.242188 67.0625 32.296875 66.636719 C 34.175781 65.902344 36.285156 65.660156 38.621094 65.914062 C 36.625 64.949219 34.601562 64.78125 32.550781 65.402344 C 32.066406 65.546875 30.300781 66.398438 27.253906 67.957031 C 25.003906 69.0625 22.96875 69.601562 21.144531 69.574219 C 18.582031 69.546875 15.789062 68.496094 12.769531 66.425781 C 10.519531 64.382812 7.828125 61.53125 4.695312 57.871094 L 0.078125 52.171875 C 0.476562 50.070312 0.992188 47.984375 1.617188 45.914062 C 2.726562 42.199219 3.996094 39.433594 5.421875 37.617188 C 7.070312 35.488281 10.875 32.367188 16.828125 28.253906 C 23.066406 23.941406 27.496094 21.53125 30.117188 21.019531 C 32.167969 21.671875 34.417969 22.667969 36.867188 24 C 39.230469 25.332031 40.628906 26.328125 41.054688 26.980469 C 40.199219 30.355469 40.144531 33.773438 40.882812 37.234375 C 39.375 37.6875 38.105469 38.113281 37.082031 38.511719 L 34.132812 37.789062 C 33.078125 37.53125 32.453125 37.207031 32.253906 36.808594 C 32.167969 36.667969 32.183594 36.367188 32.296875 35.914062 C 32.4375 35.375 32.667969 35.0625 32.980469 34.980469 L 35.800781 34.808594 C 35.828125 34.667969 34.972656 34.199219 33.234375 33.402344 L 31.867188 31.789062 L 31.183594 31.746094 C 31.328125 31.207031 31.382812 30.058594 31.355469 28.296875 L 31.355469 25.320312 L 29.089844 25.574219 L 29.519531 28.46875 L 29.816406 31.320312 C 29.476562 32.140625 28.734375 32.597656 27.597656 32.679688 C 26.285156 32.765625 25.246094 33.277344 24.476562 34.210938 C 23.507812 35.375 22.753906 36.566406 22.210938 37.789062 L 21.527344 39.703125 C 21.441406 39.984375 21.914062 39.730469 22.9375 38.9375 L 24.476562 37.617188 L 23.792969 40.382812 C 23.082031 42.367188 22.042969 43.800781 20.675781 44.679688 C 19.648438 44.679688 17.539062 45.601562 14.351562 47.445312 C 11.246094 49.234375 8.964844 50.058594 7.515625 49.914062 C 8.226562 50.992188 9.878906 51.121094 12.46875 50.296875 C 13.921875 49.84375 15.917969 49.0625 18.453125 47.957031 L 21.570312 48.808594 L 18.066406 52.511719 C 15.761719 54.949219 14.734375 56.199219 14.992188 56.253906 C 15.160156 56.285156 16.800781 55.21875 19.90625 53.0625 L 24.519531 49.746094 L 26.398438 49.363281 L 31.441406 49.746094 C 34.6875 50.511719 37.738281 53.375 40.585938 58.339844 L 41.226562 59.871094 L 42.082031 58.808594 C 42.878906 57.957031 43.890625 57.261719 45.113281 56.722656 C 46.425781 56.097656 47.335938 55.828125 47.847656 55.914062 L 48.234375 56.253906 L 48.53125 57.148438 L 48.832031 57.914062 L 49.472656 56.9375 L 50.027344 55.871094 L 51.011719 51.746094 C 52.777344 52.824219 54.570312 53.632812 56.394531 54.171875 C 63.230469 55.671875 69.582031 54.140625 75.449219 49.574219 L 76.859375 56.554688 C 76.890625 56.667969 77.230469 56.511719 77.886719 56.085938 L 79.082031 55.363281 C 80.25 55.25 81.519531 55.488281 82.886719 56.085938 C 83.570312 56.367188 84.140625 56.679688 84.59375 57.019531 L 82.457031 58.085938 C 80.976562 58.851562 80.292969 59.332031 80.40625 59.53125 C 80.519531 59.730469 81.503906 59.460938 83.355469 58.722656 L 86.304688 57.53125 L 87.285156 57.148438 L 87.628906 56.980469 L 89.253906 56.425781 C 92.554688 55.574219 95.132812 55.09375 96.984375 54.980469 C 95.816406 57.789062 95.734375 61.277344 96.730469 65.445312 C 96.699219 64.398438 96.757812 63.175781 96.902344 61.789062 C 97.15625 58.980469 97.667969 56.722656 98.4375 55.019531 L 98.480469 55.019531 L 98.566406 54.765625 L 99.335938 53.488281 C 101.273438 50.824219 103.621094 49.644531 106.386719 49.957031 L 110.230469 53.277344 C 112.28125 54.949219 113.820312 55.957031 114.847656 56.296875 C 115.160156 56.554688 115.214844 57.746094 115.015625 59.871094 L 114.675781 62.980469 L 115.957031 60.9375 C 116.726562 59.375 116.941406 58.042969 116.597656 56.9375 L 119.078125 56.808594 C 120.074219 56.523438 120.5 56.296875 120.359375 56.128906 L 118.863281 56 C 117.695312 55.914062 116.527344 55.601562 115.359375 55.0625 C 111.742188 53.417969 109.09375 51.390625 107.410156 48.980469 L 105.0625 45.828125 C 104.347656 44.867188 103.738281 43.84375 103.222656 42.765625 L 100.234375 37.574219 L 100.191406 37.53125 L 99.035156 35.703125 L 96.003906 36.339844 C 95.945312 36.398438 96.375 36.75 97.285156 37.402344 L 98.738281 38.511719 C 99.023438 39.332031 99.109375 40.070312 98.996094 40.722656 C 98.910156 41.402344 98.609375 41.828125 98.097656 42 L 97.070312 42.554688 L 96.089844 43.191406 C 95.890625 40.097656 95.617188 38.355469 95.277344 37.957031 L 94.082031 36.980469 L 93.355469 36.46875 L 96.21875 34.554688 C 96.5 34.441406 96.714844 34 96.859375 33.234375 L 95.660156 33.148438 C 95.089844 33.347656 94.550781 33.660156 94.039062 34.085938 C 93.609375 34.453125 93.054688 34.710938 92.371094 34.851562 L 91.429688 34.980469 L 90.746094 34.296875 L 89.378906 34.210938 C 88.839844 34.722656 88.328125 35.363281 87.84375 36.128906 C 87.273438 37.007812 87.144531 37.53125 87.457031 37.703125 C 87.683594 37.816406 88.054688 37.503906 88.570312 36.765625 C 89.054688 36.058594 89.394531 35.816406 89.59375 36.042969 L 90.535156 37.402344 C 90.847656 38.027344 90.820312 38.496094 90.449219 38.808594 L 89.296875 40 C 88.8125 40.480469 88.355469 40.710938 87.925781 40.679688 L 86.773438 40.765625 L 85.578125 40.722656 L 84.679688 38.765625 L 84.464844 37.363281 C 84.75 35.886719 85.792969 34.199219 87.585938 32.296875 C 89.179688 30.597656 90.421875 29.617188 91.304688 29.363281 L 96.175781 28.597656 L 107.496094 32.46875 "/>
</g>
</svg>
