<?xml version="1.0" encoding="UTF-8"?>
<svg xmlns="http://www.w3.org/2000/svg" xmlns:xlink="http://www.w3.org/1999/xlink" width="128pt" height="144pt" viewBox="0 0 128 144" version="1.1">
<g id="surface1">
<path style=" stroke:none;fill-rule:nonzero;fill:rgb(100%,100%,100%);fill-opacity:1;" d="M 16.101562 60.652344 C 16.570312 61.035156 16.792969 61.394531 16.769531 61.734375 C 16.75 62.132812 16.484375 62.496094 15.972656 62.8125 L 8.164062 62.304688 C 8.335938 61.4375 8.355469 60.621094 8.226562 59.859375 L 16.101562 60.652344 M 57.734375 48.71875 C 59.136719 49.691406 60.730469 50.179688 62.519531 50.179688 C 66.660156 50.160156 69.734375 47.9375 71.730469 43.515625 C 74.558594 44.699219 76.269531 45.472656 76.863281 45.832031 C 75.820312 46.867188 74.3125 47.808594 72.335938 48.65625 C 70.761719 49.3125 69.585938 49.671875 68.796875 49.734375 C 68.117188 49.820312 67.585938 50.042969 67.203125 50.402344 C 66.84375 50.738281 66.585938 51.269531 66.4375 51.988281 C 65.738281 55.417969 65.257812 58.496094 65.003906 61.222656 C 64.8125 62.980469 64.707031 65.6875 64.683594 69.351562 C 64.644531 72.90625 64.683594 75.371094 64.8125 76.746094 C 64.855469 77.082031 65.027344 77.402344 65.324219 77.695312 C 65.640625 77.992188 65.980469 78.164062 66.34375 78.203125 L 73.804688 77.984375 L 80.5625 77.1875 C 80.390625 80.53125 80.421875 83.992188 80.65625 87.566406 C 78.636719 88.433594 76.121094 89.207031 73.101562 89.886719 C 69.957031 90.605469 67.183594 91.007812 64.78125 91.089844 C 62.402344 91.175781 58.746094 90.65625 53.816406 89.535156 L 47.152344 87.789062 L 46.257812 76.140625 C 46.917969 76.394531 48.542969 76.734375 51.136719 77.15625 C 51.5625 77.222656 51.878906 77.148438 52.09375 76.933594 C 52.285156 76.789062 52.390625 76.566406 52.410156 76.269531 L 52.410156 75.191406 L 52.347656 70.332031 C 52.390625 67.117188 52.550781 64.398438 52.828125 62.175781 C 53.125 59.914062 53.613281 57.34375 54.292969 54.464844 C 54.804688 52.285156 55.183594 50.855469 55.441406 50.179688 C 55.609375 49.734375 55.609375 49.300781 55.441406 48.878906 C 55.292969 48.453125 55.027344 48.160156 54.644531 47.988281 L 54.230469 47.832031 L 54.195312 47.832031 L 52.253906 46.941406 C 51.210938 46.390625 50.542969 45.96875 50.246094 45.671875 C 50.796875 45.144531 51.457031 44.667969 52.222656 44.246094 L 53.144531 43.738281 L 53.175781 43.738281 L 54.707031 44.65625 C 55.261719 46.371094 56.269531 47.726562 57.734375 48.71875 M 56.84375 37.546875 L 54.707031 37.453125 C 54.515625 37.429688 54.410156 37.460938 54.386719 37.546875 L 54.578125 37.800781 L 55.566406 38.53125 C 56.078125 38.847656 56.703125 38.945312 57.449219 38.816406 C 57.917969 38.753906 58.148438 38.519531 58.148438 38.117188 L 57.925781 37.707031 C 57.777344 37.578125 57.609375 37.515625 57.417969 37.515625 L 56.84375 37.546875 M 53.367188 31.675781 L 51.328125 30.976562 L 50.914062 30.691406 C 50.828125 30.523438 50.808594 30.351562 50.851562 30.183594 L 50.945312 29.738281 L 50.882812 29.421875 C 50.816406 29.378906 50.722656 29.421875 50.59375 29.550781 L 49.191406 30.785156 L 48.9375 31.230469 C 48.894531 31.441406 48.914062 31.621094 49 31.769531 L 50.019531 34.054688 L 50.210938 34.277344 L 50.339844 34.023438 L 50.371094 33.707031 L 50.625 33.324219 C 50.753906 33.261719 50.890625 33.261719 51.042969 33.324219 L 52.859375 34.816406 C 54.324219 35.832031 55.707031 36.445312 57.003906 36.660156 C 58.300781 36.871094 60.09375 36.53125 62.390625 35.644531 C 63.539062 35.199219 64.558594 34.734375 65.449219 34.246094 L 65.992188 34.339844 L 66.34375 34.691406 L 66.152344 36.117188 C 66.34375 36.480469 66.503906 36.46875 66.628906 36.085938 L 67.648438 33.359375 C 67.800781 32.957031 67.703125 32.617188 67.363281 32.34375 L 64.589844 29.613281 C 64.292969 29.378906 64.175781 29.453125 64.238281 29.835938 L 64.460938 30.882812 L 64.269531 31.359375 L 63.761719 31.644531 C 60.722656 32.257812 58.480469 32.53125 57.035156 32.46875 C 56.140625 32.425781 54.917969 32.164062 53.367188 31.675781 M 59.808594 35.324219 C 59.128906 35.453125 58.234375 35.453125 57.128906 35.324219 C 56.046875 35.199219 55.21875 34.996094 54.644531 34.722656 L 50.976562 32.785156 C 50.703125 32.679688 50.53125 32.417969 50.46875 31.992188 C 50.445312 31.570312 50.691406 31.433594 51.199219 31.582031 L 53.273438 32.277344 L 57.226562 33.105469 C 58.925781 33.230469 61.15625 32.964844 63.921875 32.308594 L 64.621094 32.277344 C 64.941406 32.300781 65.214844 32.4375 65.449219 32.691406 C 65.683594 32.945312 65.714844 33.1875 65.546875 33.421875 L 64.941406 33.800781 C 62.433594 34.667969 60.722656 35.175781 59.808594 35.324219 M 53.878906 18.410156 C 53.558594 18.367188 53.25 18.523438 52.953125 18.882812 C 52.636719 19.265625 52.421875 19.742188 52.316406 20.3125 C 52.210938 20.90625 52.230469 21.425781 52.378906 21.867188 C 52.527344 22.332031 52.761719 22.597656 53.082031 22.660156 C 53.378906 22.726562 53.6875 22.566406 54.007812 22.1875 C 54.304688 21.824219 54.503906 21.351562 54.613281 20.757812 C 54.71875 20.164062 54.707031 19.644531 54.578125 19.203125 C 54.429688 18.738281 54.195312 18.472656 53.878906 18.410156 M 56.523438 14.695312 L 56.523438 14.058594 C 56.523438 13.847656 56.449219 13.691406 56.300781 13.585938 C 56.171875 13.5 56.003906 13.5 55.792969 13.585938 L 53.144531 14.726562 C 52.953125 14.8125 52.867188 14.894531 52.890625 14.980469 C 52.890625 15.042969 52.996094 15.085938 53.210938 15.109375 L 55.757812 15.394531 L 56.300781 15.234375 C 56.449219 15.109375 56.523438 14.929688 56.523438 14.695312 M 60.699219 19.582031 C 60.488281 19.519531 60.265625 19.65625 60.03125 19.996094 L 58.375 22.3125 L 55.375 25.234375 L 55.121094 25.675781 C 55.078125 25.886719 55.101562 26.066406 55.183594 26.214844 L 56.269531 28.5 C 56.589844 29.03125 57.078125 29.179688 57.734375 28.945312 L 58.117188 28.722656 L 58.085938 28.3125 L 57.160156 26.597656 C 56.972656 26.214844 57.003906 25.855469 57.257812 25.519531 L 58.980469 23.234375 C 59.660156 22.300781 60.242188 21.308594 60.730469 20.25 L 60.828125 19.804688 C 60.828125 19.679688 60.785156 19.605469 60.699219 19.582031 M 49.222656 11.964844 C 49.5625 11.480469 49.925781 11.480469 50.308594 11.964844 C 50.667969 12.429688 51.117188 12.789062 51.648438 13.042969 C 50.859375 13.976562 50.085938 15.042969 49.320312 16.25 C 48.914062 15.214844 48.714844 14.453125 48.714844 13.964844 C 48.714844 13.078125 48.882812 12.410156 49.222656 11.964844 M 76.386719 27.675781 C 76.171875 27.527344 76.003906 27.558594 75.875 27.773438 C 75.726562 27.960938 75.738281 28.132812 75.90625 28.28125 L 76.257812 28.691406 C 76.511719 29.03125 76.628906 29.296875 76.609375 29.484375 C 76.585938 29.71875 76.703125 29.84375 76.957031 29.867188 C 77.214844 29.886719 77.351562 29.738281 77.375 29.421875 C 77.394531 29.148438 77.289062 28.808594 77.054688 28.40625 L 76.386719 27.675781 M 76.160156 25.359375 C 76.011719 25.550781 76.066406 25.761719 76.320312 25.996094 L 76.417969 26.089844 L 77.40625 27.011719 L 78.234375 28.246094 C 78.53125 28.734375 78.722656 28.863281 78.808594 28.628906 C 78.871094 28.480469 78.808594 28.183594 78.617188 27.738281 L 78.011719 26.566406 C 77.648438 26.015625 77.191406 25.570312 76.640625 25.234375 C 76.46875 25.125 76.3125 25.167969 76.160156 25.359375 M 66.023438 24.027344 C 66.171875 24.472656 66.40625 24.726562 66.726562 24.789062 C 67.042969 24.851562 67.351562 24.691406 67.648438 24.3125 C 67.949219 23.953125 68.148438 23.476562 68.253906 22.882812 C 68.363281 22.292969 68.351562 21.773438 68.222656 21.328125 C 68.074219 20.863281 67.839844 20.597656 67.523438 20.535156 C 67.203125 20.492188 66.894531 20.664062 66.597656 21.042969 C 66.28125 21.402344 66.066406 21.878906 65.960938 22.472656 C 65.855469 23.042969 65.875 23.5625 66.023438 24.027344 M 70.042969 18.375 L 70.902344 18.949219 C 71.113281 18.441406 70.859375 17.625 70.136719 16.503906 L 68.957031 14.980469 C 68.828125 14.875 68.679688 14.832031 68.511719 14.855469 C 68.339844 14.855469 68.203125 14.929688 68.097656 15.074219 L 67.554688 15.582031 C 67.214844 15.964844 67.078125 16.21875 67.140625 16.34375 L 68.796875 17.394531 L 70.042969 18.375 M 64.238281 10.410156 C 64.75 10.390625 65.441406 10.21875 66.3125 9.902344 C 67.140625 9.605469 68.023438 9.667969 68.957031 10.09375 C 69.957031 10.558594 70.804688 11.339844 71.507812 12.441406 C 71.828125 12.949219 72.304688 13.246094 72.941406 13.332031 L 74.566406 13.171875 L 77.4375 13.011719 C 78.628906 13.035156 79.359375 13.734375 79.636719 15.109375 C 79.957031 16.566406 79.160156 17.648438 77.246094 18.34375 L 76.925781 18.566406 C 76.757812 18.757812 76.800781 18.949219 77.054688 19.136719 C 78.351562 20.238281 79.234375 21.097656 79.699219 21.710938 C 81.125 23.550781 81.667969 25.453125 81.324219 27.421875 C 80.902344 25.773438 80.273438 24.269531 79.445312 22.914062 C 78.402344 21.390625 77.679688 20.523438 77.277344 20.3125 L 76.640625 20.34375 C 76.511719 20.492188 76.542969 20.664062 76.734375 20.851562 L 77.4375 21.582031 L 78.808594 23.359375 C 79.59375 24.375 80.339844 25.941406 81.039062 28.058594 L 80.753906 28.628906 C 80.222656 27 79.574219 25.65625 78.808594 24.597656 C 78.148438 23.730469 77.53125 23.117188 76.957031 22.757812 C 76.726562 22.628906 76.566406 22.695312 76.480469 22.949219 C 76.394531 23.222656 76.5 23.476562 76.800781 23.710938 L 78.171875 25.105469 C 78.59375 25.675781 79.042969 26.4375 79.507812 27.390625 L 80.402344 29.261719 L 80.273438 29.484375 L 79.730469 29.550781 C 79.390625 29.675781 79.316406 29.917969 79.507812 30.277344 C 80.910156 31.71875 81.039062 33.25 79.890625 34.882812 C 78.785156 36.488281 77.289062 37.039062 75.398438 36.53125 C 72.972656 39.621094 70.265625 41.832031 67.269531 43.164062 C 66.4375 43.523438 66.480469 43.738281 67.394531 43.800781 C 68.265625 43.863281 69.285156 43.609375 70.457031 43.039062 C 69.667969 45.597656 67.585938 47.300781 64.207031 48.148438 L 60.667969 48.339844 C 59.648438 48.105469 59.105469 47.617188 59.042969 46.878906 C 59.339844 47.003906 60.042969 46.996094 61.148438 46.847656 C 62.253906 46.699219 62.792969 46.53125 62.773438 46.339844 L 60.765625 46.148438 C 58.957031 45.914062 57.011719 45.132812 54.929688 43.800781 C 51.316406 41.515625 48.914062 38.109375 47.726562 33.578125 C 46.578125 29.261719 46.78125 25.011719 48.332031 20.820312 C 49.289062 18.261719 50.785156 15.742188 52.828125 13.265625 C 53.65625 13.265625 54.546875 12.96875 55.503906 12.378906 L 57.386719 10.695312 C 58.53125 9.617188 59.277344 9.015625 59.617188 8.886719 C 60.0625 8.738281 60.625 8.855469 61.304688 9.234375 L 62.328125 9.933594 C 62.898438 10.316406 63.539062 10.472656 64.238281 10.410156 M 81.039062 9.203125 C 81.804688 9.691406 82.527344 10.632812 83.207031 12.027344 C 83.71875 13.066406 84.121094 14.132812 84.417969 15.234375 C 84.929688 17.203125 84.707031 19.636719 83.75 22.535156 C 83.261719 23.996094 82.71875 25.253906 82.125 26.3125 C 82.039062 24.472656 81.453125 22.839844 80.371094 21.425781 L 79.160156 19.964844 L 78.234375 19.042969 C 78.957031 18.664062 79.617188 18.207031 80.210938 17.679688 C 80.953125 16.980469 81.335938 16.335938 81.359375 15.742188 C 81.359375 14.789062 81.136719 13.976562 80.6875 13.296875 C 80.050781 12.347656 79.042969 11.859375 77.660156 11.839844 C 77.234375 11.839844 76.417969 11.996094 75.207031 12.316406 L 73.164062 12.535156 L 71.15625 9.808594 C 70.007812 8.199219 69.019531 7.511719 68.191406 7.746094 L 65.863281 8.695312 L 64.207031 9.394531 L 63.058594 9.363281 L 62.261719 8.792969 L 60.957031 8 L 59.171875 8.1875 C 58.722656 8.359375 57.917969 8.972656 56.746094 10.03125 L 54.929688 11.679688 C 54.144531 12.144531 53.410156 12.390625 52.730469 12.410156 C 51.921875 12.429688 51.296875 12.144531 50.851562 11.554688 C 50.191406 10.726562 49.808594 9.691406 49.703125 8.441406 C 49.617188 7.238281 49.808594 6.210938 50.277344 5.363281 C 50.636719 4.707031 51.136719 4.148438 51.773438 3.683594 C 51.582031 4.445312 51.710938 5.078125 52.15625 5.585938 C 52.773438 6.261719 53.539062 6.613281 54.453125 6.632812 C 55.367188 6.65625 56.207031 6.347656 56.972656 5.714844 C 59.117188 3.851562 60.605469 2.886719 61.433594 2.824219 C 62.070312 2.761719 62.890625 2.984375 63.886719 3.492188 C 64.695312 3.894531 65.3125 3.945312 65.738281 3.648438 L 67.078125 2.285156 C 68.394531 0.761719 69.328125 0 69.882812 0 C 70.519531 0 71.285156 0.421875 72.175781 1.269531 L 72.910156 2.0625 L 73.804688 2.761719 C 74.886719 3.3125 75.777344 3.691406 76.480469 3.902344 C 77.691406 4.261719 78.703125 5.183594 79.507812 6.664062 L 81.039062 9.203125 M 27.484375 57.859375 L 28.949219 59.320312 C 30.03125 60.082031 31.5625 60.304688 33.539062 59.988281 C 33.625 61.023438 34.242188 62.21875 35.390625 63.574219 C 35.730469 60.863281 36.300781 58.832031 37.109375 57.480469 C 38.257812 55.617188 40.054688 53.523438 42.496094 51.195312 C 44.792969 49.015625 47.003906 47.226562 49.128906 45.832031 L 49.925781 46.464844 L 50.5 47.003906 C 51.074219 47.683594 52.179688 48.308594 53.816406 48.878906 L 53.910156 48.941406 L 54.195312 49.035156 L 54.421875 49.355469 L 54.355469 49.832031 C 54.082031 50.59375 53.675781 52.105469 53.144531 54.367188 C 52.464844 57.246094 51.988281 59.808594 51.710938 62.050781 C 51.433594 64.25 51.273438 67 51.234375 70.300781 C 51.210938 72.269531 51.222656 73.921875 51.265625 75.253906 L 51.296875 75.378906 L 51.296875 76.046875 L 46.035156 74.9375 L 45.015625 59.226562 L 44.539062 59.320312 L 44.25 63.382812 C 44.039062 66.578125 43.921875 69.328125 43.898438 71.636719 C 40.289062 72.480469 36.546875 72.386719 32.679688 71.347656 C 30 70.652344 27.84375 69.742188 26.207031 68.621094 L 25.984375 68.460938 C 25.433594 68.121094 25.082031 67.816406 24.933594 67.539062 C 24.507812 66.671875 24.210938 65.773438 24.039062 64.84375 C 23.722656 63.214844 23.921875 61.859375 24.644531 60.78125 C 25.792969 59.023438 26.738281 58.050781 27.484375 57.859375 M 15.878906 57.574219 L 17.757812 57.667969 C 18.589844 57.816406 19.238281 58.105469 19.703125 58.527344 L 19.734375 58.527344 C 19.949219 58.613281 20.117188 58.613281 20.246094 58.527344 L 20.40625 58.242188 L 20.40625 58.019531 C 20.257812 57.660156 19.84375 57.320312 19.164062 57.003906 L 18.683594 56.71875 C 19.34375 56.484375 19.992188 56.378906 20.628906 56.398438 C 21.457031 56.421875 22.136719 56.558594 22.667969 56.8125 L 23.976562 57.734375 L 24.484375 57.828125 L 24.644531 57.480469 L 24.613281 57.128906 L 24.550781 57.066406 L 24.484375 56.972656 C 24.230469 56.527344 23.976562 56.1875 23.722656 55.957031 C 24.65625 55.957031 25.582031 56.242188 26.496094 56.8125 C 25.558594 57.382812 24.601562 58.398438 23.625 59.859375 C 22.5 61.59375 22.253906 63.710938 22.890625 66.207031 C 21.445312 66.652344 20.394531 66.832031 19.734375 66.746094 L 17.757812 66.335938 C 16.886719 66.039062 16.292969 65.679688 15.972656 65.253906 C 15.632812 64.832031 15.390625 64.417969 15.242188 64.019531 L 16.230469 64.082031 L 16.390625 64.019531 C 17.003906 63.722656 17.460938 63.296875 17.757812 62.75 C 17.949219 63.109375 18.132812 63.296875 18.300781 63.320312 L 18.589844 63.191406 C 18.738281 62.980469 18.671875 62.589844 18.398438 62.019531 L 18.015625 61.351562 C 17.929688 60.863281 17.683594 60.410156 17.28125 59.988281 L 16.613281 59.480469 L 16.515625 59.414062 L 15.785156 59.351562 L 15.367188 58.652344 C 15.199219 58.292969 15.167969 57.996094 15.273438 57.765625 C 15.359375 57.679688 15.558594 57.617188 15.878906 57.574219 M 1.535156 57.160156 C 0.511719 55.34375 0.00390625 53.492188 0.00390625 51.609375 C 0.00390625 49.746094 0.503906 48.105469 1.5 46.6875 C 3.753906 43.640625 7.898438 42.117188 13.933594 42.117188 C 16.632812 42.117188 19.683594 42.433594 23.082031 43.070312 C 29.183594 44.191406 34.550781 47.058594 39.183594 51.671875 L 37.875 53.066406 C 33.539062 48.730469 28.492188 46.023438 22.734375 44.941406 C 19.417969 44.328125 16.496094 44.023438 13.964844 44.023438 C 8.546875 44.023438 4.914062 45.28125 3.0625 47.800781 C 2.171875 49.027344 1.789062 50.464844 1.914062 52.117188 C 2.023438 53.53125 2.445312 54.898438 3.191406 56.210938 C 4.191406 57.988281 5.445312 59.257812 6.953125 60.019531 C 7.082031 60.652344 7.058594 61.332031 6.890625 62.050781 C 5.847656 61.691406 4.871094 61.085938 3.957031 60.242188 C 3 59.375 2.191406 58.347656 1.535156 57.160156 M 96.4375 143.300781 C 96.246094 143.765625 95.90625 143.925781 95.417969 143.777344 C 91.738281 142.65625 88.796875 141.515625 86.585938 140.351562 C 83.503906 138.722656 81.167969 136.761719 79.574219 134.476562 C 79.382812 134.222656 79.316406 134.003906 79.382812 133.8125 L 79.699219 133.398438 C 79.914062 133.207031 80.113281 133.132812 80.304688 133.175781 C 80.453125 133.21875 80.605469 133.324219 80.753906 133.496094 C 82.324219 135.714844 84.589844 137.589844 87.542969 139.113281 C 89.605469 140.191406 92.410156 141.261719 95.957031 142.316406 C 96.449219 142.464844 96.605469 142.792969 96.4375 143.300781 M 96.597656 136.699219 C 94.023438 136.617188 91.804688 136.308594 89.933594 135.78125 C 87.617188 135.144531 85.628906 134.160156 83.972656 132.828125 C 83.546875 132.488281 83.484375 132.109375 83.78125 131.683594 C 84.101562 131.242188 84.460938 131.175781 84.863281 131.496094 C 86.457031 132.742188 88.328125 133.664062 90.476562 134.257812 C 92.195312 134.722656 94.289062 135.007812 96.753906 135.113281 C 97.265625 135.113281 97.5 135.386719 97.457031 135.9375 C 97.394531 136.46875 97.105469 136.722656 96.597656 136.699219 M 89.996094 106.484375 C 91.039062 107.945312 91.664062 109.320312 91.878906 110.609375 C 92.027344 111.457031 92.058594 112.429688 91.972656 113.53125 L 91.65625 116.449219 L 91.496094 117.625 L 91.304688 117.878906 C 86.757812 122.660156 81.6875 125.972656 76.097656 127.8125 C 72.144531 129.125 68.4375 129.285156 64.972656 128.289062 L 62.675781 127.402344 C 60.617188 126.386719 59.054688 124.882812 57.992188 122.894531 L 57.195312 121.050781 C 56.34375 118.535156 56.023438 115.613281 56.238281 112.292969 C 56.386719 109.839844 56.855469 106.917969 57.640625 103.53125 C 58.085938 101.542969 58.605469 99.734375 59.203125 98.105469 C 59.328125 97.789062 59.203125 97.46875 58.820312 97.152344 L 58.023438 97.183594 C 56.960938 100.125 56.109375 103.5 55.472656 107.308594 C 54.472656 113.761719 54.886719 118.957031 56.714844 122.894531 L 57.289062 124.003906 L 57.703125 124.640625 C 55.75 125.65625 53.421875 125.867188 50.722656 125.273438 C 48.703125 124.808594 47.089844 124.015625 45.875 122.894531 L 44.792969 121.65625 C 43.773438 120.195312 43.179688 118.164062 43.007812 115.5625 C 42.921875 114.1875 42.976562 112.039062 43.167969 109.117188 C 43.570312 102.875 44.738281 96.105469 46.675781 88.804688 C 48.691406 89.632812 50.890625 90.328125 53.273438 90.902344 C 57.035156 91.808594 60.816406 92.265625 64.621094 92.265625 C 67.746094 92.265625 71.304688 91.777344 75.300781 90.804688 L 82.21875 88.773438 C 82.578125 89.875 82.855469 91.132812 83.046875 92.550781 C 83.238281 93.988281 83.300781 95.3125 83.238281 96.519531 C 83.089844 100.136719 81.953125 103.597656 79.828125 106.898438 C 77.957031 109.796875 75.417969 112.460938 72.207031 114.894531 C 71.933594 115.105469 71.933594 115.382812 72.207031 115.71875 C 72.484375 116.058594 72.773438 116.195312 73.070312 116.132812 L 75.207031 115.59375 L 76.386719 115.402344 C 76.917969 115.296875 77.277344 115.171875 77.46875 115.023438 C 77.746094 114.789062 78.019531 114.304688 78.296875 113.5625 L 78.902344 112.007812 C 79.945312 109.871094 81.09375 107.902344 82.347656 106.105469 C 83.113281 105.046875 83.769531 104.285156 84.324219 103.820312 C 85.320312 102.929688 86.203125 102.644531 86.96875 102.960938 L 89.996094 106.484375 M 92.644531 105.53125 L 93.949219 106.230469 C 96.117188 107.308594 97.796875 109.351562 98.988281 112.355469 C 99.753906 114.261719 100.15625 116.800781 100.199219 119.972656 C 100.21875 121.050781 100.058594 121.730469 99.71875 122.003906 C 99.359375 122.300781 98.699219 122.214844 97.742188 121.75 C 96.277344 121.03125 94.628906 119.804688 92.800781 118.070312 C 93.144531 116.144531 93.292969 114.230469 93.25 112.324219 C 93.226562 110.652344 92.707031 108.9375 91.6875 107.183594 C 90.921875 105.914062 89.785156 104.453125 88.277344 102.800781 L 92.578125 102.675781 C 92.855469 102.78125 92.972656 102.875 92.929688 102.960938 L 92.386719 103.34375 C 92.027344 103.703125 91.855469 104.03125 91.878906 104.328125 C 91.921875 104.792969 92.175781 105.195312 92.644531 105.53125 M 106.222656 71.253906 L 106.636719 69.824219 L 106.988281 69.445312 L 107.085938 68.683594 C 108.613281 69.210938 109.835938 69.371094 110.75 69.160156 L 109.859375 72.269531 L 106.222656 71.253906 M 102.84375 68.335938 C 103.972656 68.949219 104.503906 69.316406 104.4375 69.445312 C 103.992188 70.503906 102.484375 71.75 99.910156 73.191406 C 96.085938 75.328125 91.835938 75.953125 87.160156 75.0625 C 86.117188 74.871094 84.132812 74.089844 81.199219 72.714844 L 77.117188 70.714844 L 75.652344 71.730469 L 77.214844 72.808594 L 80.753906 75 L 80.65625 76.015625 L 73.707031 76.871094 C 70.242188 77.148438 67.832031 77.210938 66.46875 77.0625 L 66.121094 76.902344 L 65.929688 76.648438 C 65.824219 75.296875 65.78125 72.863281 65.800781 69.351562 C 65.84375 65.730469 65.949219 63.054688 66.121094 61.320312 C 66.480469 57.890625 66.960938 54.855469 67.554688 52.210938 C 67.660156 51.746094 67.808594 51.417969 68 51.226562 C 68.191406 51.035156 68.488281 50.921875 68.894531 50.878906 C 69.785156 50.773438 71.113281 50.371094 72.878906 49.671875 C 75.28125 48.699219 77.066406 47.578125 78.234375 46.308594 C 78.59375 46.457031 79.242188 46.910156 80.179688 47.671875 L 81.804688 49.132812 C 84.332031 51.691406 86.53125 54.347656 88.402344 57.097656 C 89.316406 58.472656 89.988281 59.585938 90.410156 60.429688 C 89.964844 60.601562 89.488281 60.929688 88.976562 61.414062 C 87.976562 62.367188 87.363281 63.617188 87.128906 65.160156 C 87.746094 64.25 89.730469 63.183594 93.089844 61.953125 C 95.957031 60.898438 98.136719 60.261719 99.625 60.050781 C 99.710938 60.070312 99.6875 60.609375 99.5625 61.667969 C 99.496094 63.003906 99.679688 64.199219 100.101562 65.253906 C 100.589844 66.546875 101.503906 67.574219 102.84375 68.335938 M 108.933594 66.269531 L 110.527344 65.984375 L 112.3125 65.605469 L 113.109375 65.414062 L 112.183594 66.714844 C 111.609375 67.308594 111.003906 67.730469 110.367188 67.984375 L 110.367188 67.953125 L 108.679688 67.984375 C 108.082031 67.878906 107.65625 67.699219 107.402344 67.445312 L 107.242188 67.066406 C 107.285156 66.8125 107.433594 66.628906 107.691406 66.523438 L 108.933594 66.269531 M 112.757812 61.511719 C 113.097656 61.488281 113.523438 61.265625 114.035156 60.84375 L 114.480469 60.527344 C 114.480469 61.140625 114.320312 61.765625 114.003906 62.398438 C 113.449219 63.476562 112.738281 64.230469 111.867188 64.652344 L 110.367188 65.035156 C 109.476562 65.074219 108.753906 64.9375 108.199219 64.621094 C 107.710938 64.367188 107.46875 64.039062 107.46875 63.636719 C 107.445312 63.148438 107.574219 62.820312 107.847656 62.652344 L 109.253906 62.429688 L 110.050781 62.367188 L 110.878906 62.175781 C 111.429688 62.09375 112.058594 61.871094 112.757812 61.511719 M 109.316406 58.019531 L 109.792969 58.050781 C 110.8125 57.988281 111.503906 57.785156 111.867188 57.449219 C 112.101562 57.234375 112.429688 57.054688 112.855469 56.90625 L 114.128906 56.71875 C 114.511719 56.71875 114.800781 56.8125 114.988281 57.003906 L 114.894531 57.636719 L 114.160156 59.097656 C 113.757812 59.710938 113.3125 60.167969 112.824219 60.460938 L 112.789062 60.398438 L 112.152344 60.714844 L 110.75 61.222656 C 109.878906 61.414062 109.101562 61.308594 108.421875 60.90625 C 107.742188 60.460938 107.433594 59.914062 107.5 59.257812 C 107.542969 58.75 108.148438 58.335938 109.316406 58.019531 M 108.453125 57.320312 C 107.265625 57.742188 106.628906 58.359375 106.542969 59.160156 L 106.605469 59.921875 C 106.308594 61.445312 105.757812 62.324219 104.949219 62.558594 L 104.917969 63.414062 L 105.492188 63.222656 L 106.667969 62.652344 C 106.5625 62.929688 106.511719 63.257812 106.511719 63.636719 C 106.554688 64.1875 106.753906 64.640625 107.117188 65 L 107.277344 65.382812 L 107.117188 65.730469 C 106.648438 65.984375 106.371094 66.386719 106.289062 66.9375 L 106.289062 67.253906 L 104.949219 67 C 103.503906 66.21875 102.460938 65.371094 101.824219 64.460938 C 101.292969 62.855469 101.28125 61.660156 101.792969 60.875 L 101.953125 59.480469 C 102.058594 58.589844 102.335938 57.882812 102.78125 57.351562 L 104.597656 54.972656 C 105.300781 54.273438 106.320312 54.007812 107.65625 54.179688 L 110.621094 54.589844 C 111.027344 54.695312 111.238281 54.941406 111.261719 55.320312 C 111.324219 55.890625 111.058594 56.410156 110.464844 56.875 C 109.742188 56.941406 109.070312 57.089844 108.453125 57.320312 M 111.835938 50.339844 L 111.992188 50.402344 C 113.015625 50.929688 114.152344 51.3125 115.40625 51.542969 L 114.417969 55.003906 L 112.695312 55.128906 C 112.800781 54.496094 112.695312 54.039062 112.375 53.765625 C 112.121094 53.53125 111.664062 53.375 111.003906 53.289062 L 111.835938 50.339844 M 114.925781 50.117188 L 113.078125 49.511719 C 114.011719 47.546875 115 45.90625 116.042969 44.59375 C 117.550781 42.648438 119.070312 41.558594 120.601562 41.324219 L 121.269531 41.292969 C 122.738281 41.292969 124.085938 42.066406 125.320312 43.609375 C 127.082031 45.808594 127.976562 51.34375 127.996094 60.207031 C 127.996094 65.5 127.699219 71.457031 127.105469 78.078125 C 126.296875 86.667969 125.171875 94.71875 123.726562 102.230469 C 122.28125 109.785156 120.726562 115.582031 119.070312 119.625 C 118.09375 122.078125 116.753906 124.140625 115.054688 125.8125 C 113.375 127.484375 111.410156 128.710938 109.15625 129.496094 C 107.265625 130.152344 105.214844 130.480469 103.003906 130.480469 C 97.710938 130.480469 91.78125 128.660156 85.214844 125.019531 L 86.9375 123.78125 C 92.910156 126.976562 98.253906 128.574219 102.972656 128.574219 C 105.011719 128.574219 106.859375 128.277344 108.519531 127.6875 C 112.558594 126.3125 115.488281 123.390625 117.316406 118.925781 C 120.929688 109.976562 123.566406 96.179688 125.222656 77.539062 C 125.925781 69.390625 126.179688 62.386719 125.988281 56.527344 C 125.777344 50.222656 125.054688 46.308594 123.820312 44.785156 C 122.949219 43.726562 122.089844 43.195312 121.238281 43.195312 L 120.886719 43.230469 C 119.847656 43.375 118.730469 44.234375 117.539062 45.800781 C 116.625 46.964844 115.753906 48.402344 114.925781 50.117188 "/>
</g>
</svg>
