<?xml version="1.0" encoding="UTF-8"?>
<svg xmlns="http://www.w3.org/2000/svg" xmlns:xlink="http://www.w3.org/1999/xlink" width="128pt" height="325pt" viewBox="0 0 128 325" version="1.1">
<g id="surface1">
<path style=" stroke:none;fill-rule:nonzero;fill:rgb(100%,100%,100%);fill-opacity:1;" d="M 24.4375 216.355469 C 24.769531 216.640625 24.960938 217.097656 25.011719 217.71875 C 25.011719 218.4375 24.820312 218.988281 24.4375 219.371094 C 23.238281 220.472656 20.9375 220.234375 17.535156 218.652344 L 15.8125 217.792969 L 14.375 216.714844 C 11.835938 214.703125 9.582031 212.476562 7.617188 210.03125 C 4.648438 206.34375 2.730469 202.628906 1.867188 198.894531 C 0.621094 193.625 1.339844 186.511719 4.023438 177.554688 C 6.804688 182.773438 10.539062 185.960938 15.238281 187.109375 L 17.609375 187.613281 C 18.136719 189.722656 17.96875 191.515625 17.105469 193.003906 L 15.738281 194.511719 L 14.660156 195.15625 L 17.96875 203.0625 C 20.074219 207.421875 20.867188 209.910156 20.339844 210.535156 L 17.464844 210.175781 C 14.0625 209.121094 11.378906 206.007812 9.414062 200.835938 C 8.695312 198.964844 7.976562 196.117188 7.257812 192.285156 C 7.113281 191.613281 6.636719 191.347656 5.820312 191.492188 C 5.007812 191.636719 4.527344 192.019531 4.382812 192.644531 C 4.097656 194.414062 4.863281 197.578125 6.683594 202.128906 C 9.078125 208.019531 12.386719 211.636719 16.601562 212.976562 C 18.757812 213.695312 20.457031 213.71875 21.703125 213.050781 L 24.4375 216.355469 M 20.195312 187.972656 L 24.4375 187.757812 C 24.386719 192.5 24.53125 198.320312 24.867188 205.21875 L 24.21875 204.859375 L 23.933594 204.929688 L 23.859375 205 C 23.8125 205.289062 24.195312 205.886719 25.011719 206.796875 L 25.585938 214.414062 L 22.351562 212.546875 L 22.496094 212.402344 C 23.40625 211.398438 23.574219 209.839844 23 207.730469 L 20.625 201.839844 L 18.253906 196.308594 C 20.265625 194.773438 20.914062 191.996094 20.195312 187.972656 M 28.964844 107.496094 L 29.035156 109.507812 C 29.753906 113.195312 33.300781 116.164062 39.671875 118.417969 C 39.816406 119.375 39.335938 122.585938 38.234375 128.046875 C 36.894531 134.5625 36.222656 139.039062 36.222656 141.484375 C 36.175781 148.667969 36.675781 157.242188 37.730469 167.207031 C 38.304688 173.578125 38.523438 177.21875 38.378906 178.128906 C 33.683594 177.9375 30.136719 176.546875 27.742188 173.960938 L 27.667969 170.726562 C 27.429688 167.421875 26.472656 162.128906 24.796875 154.847656 L 20.484375 134.726562 C 19.523438 127.207031 20.316406 120.523438 22.855469 114.679688 C 24.148438 112.332031 26.183594 109.9375 28.964844 107.496094 M 9.414062 155.496094 C 11.714844 147.972656 14.421875 140.738281 17.535156 133.792969 C 17.96875 137.722656 19.070312 143.183594 20.84375 150.175781 C 22.757812 157.792969 23.957031 163.230469 24.4375 166.488281 C 25.058594 170.414062 25.203125 174.75 24.867188 179.492188 L 24.578125 181.863281 L 24.292969 184.667969 C 22.421875 185.242188 19.476562 185.027344 15.453125 184.019531 C 12.578125 183.351562 10.132812 181.433594 8.121094 178.273438 C 6.972656 176.5 6.085938 174.558594 5.460938 172.453125 C 5.269531 171.828125 5.367188 170.773438 5.75 169.289062 L 5.894531 168.714844 C 6.753906 164.789062 7.929688 160.378906 9.414062 155.496094 M 38.953125 89.605469 L 39.527344 90.105469 L 41.972656 91.398438 L 43.839844 91.757812 L 46.285156 91.328125 L 47.289062 90.679688 C 47.578125 90.347656 47.671875 89.988281 47.578125 89.605469 C 47.386719 88.835938 46.882812 88.453125 46.070312 88.453125 L 45.78125 88.527344 L 39.671875 89.246094 C 39.242188 89.292969 39 89.410156 38.953125 89.605469 M 29.609375 77.386719 L 29.824219 77.386719 L 33.777344 78.105469 L 41.828125 78.753906 L 43.839844 78.683594 C 47.625 78.394531 52.488281 77.027344 58.429688 74.585938 L 60.15625 74.226562 C 60.777344 74.226562 61.402344 74.464844 62.023438 74.945312 C 62.644531 75.425781 62.765625 75.953125 62.382812 76.527344 L 61.234375 77.53125 C 55.960938 80.359375 52.320312 82.105469 50.308594 82.777344 L 43.195312 83.710938 L 38.59375 83.207031 L 29.753906 80.117188 C 29.035156 79.976562 28.582031 79.449219 28.386719 78.539062 C 28.148438 77.773438 28.554688 77.386719 29.609375 77.386719 M 33.707031 76.742188 L 29.898438 75.953125 C 29.515625 75.902344 29.179688 75.734375 28.890625 75.449219 C 28.605469 75.113281 28.484375 74.753906 28.53125 74.371094 L 28.605469 73.363281 C 28.605469 72.886719 28.507812 72.644531 28.316406 72.644531 C 28.171875 72.644531 27.980469 72.765625 27.742188 73.003906 L 25.082031 76.238281 C 24.460938 77.003906 24.410156 77.773438 24.9375 78.539062 L 28.027344 83.351562 L 28.53125 83.785156 C 28.773438 83.785156 28.84375 83.566406 28.746094 83.136719 L 28.746094 82.417969 C 28.746094 81.652344 29.082031 81.269531 29.753906 81.269531 L 30.113281 81.339844 L 34.640625 84 C 38.28125 85.769531 41.566406 86.679688 44.488281 86.730469 L 44.558594 86.730469 C 47.53125 86.730469 51.410156 85.339844 56.203125 82.5625 L 62.527344 78.394531 L 63.171875 78.25 C 63.796875 78.25 64.300781 78.515625 64.683594 79.042969 L 64.683594 82.347656 L 65.328125 82.777344 L 65.761719 82.058594 L 67.125 75.59375 C 67.316406 74.683594 66.984375 73.964844 66.121094 73.4375 L 58.933594 68.335938 L 58.429688 68.121094 C 58.09375 68.121094 58.046875 68.382812 58.285156 68.910156 L 59.148438 71.207031 C 59.292969 71.542969 59.195312 71.925781 58.859375 72.359375 L 57.785156 73.078125 C 51.21875 75.566406 46.332031 76.980469 43.121094 77.316406 L 41.179688 77.460938 L 33.707031 76.742188 M 46.714844 47.210938 C 46.285156 47.210938 45.851562 47.59375 45.421875 48.359375 L 42.546875 54.179688 L 39.242188 58.777344 L 36.941406 61.652344 C 36.316406 62.417969 36.269531 63.183594 36.796875 63.953125 L 40.03125 68.695312 C 40.511719 69.269531 41.132812 69.554688 41.898438 69.554688 L 43.480469 69.195312 L 44.199219 68.621094 C 44.34375 68.335938 44.296875 68.023438 44.054688 67.6875 L 41.398438 64.09375 L 40.964844 62.945312 C 40.917969 62.464844 40.988281 62.058594 41.179688 61.722656 L 44.199219 55.976562 C 45.398438 53.675781 46.378906 51.257812 47.148438 48.71875 C 47.386719 47.808594 47.265625 47.304688 46.789062 47.210938 L 46.714844 47.210938 M 32.199219 48.144531 C 32.582031 47.953125 32.582031 47.617188 32.199219 47.136719 C 31.910156 46.707031 31.453125 46.5625 30.832031 46.707031 C 30.210938 46.800781 29.5625 47.1875 28.890625 47.855469 C 28.316406 48.429688 27.980469 49.390625 27.886719 50.730469 L 27.957031 52.597656 L 25.585938 52.886719 C 24.4375 53.171875 23.933594 53.558594 24.078125 54.035156 L 24.652344 54.683594 C 25.65625 54.394531 26.496094 54.394531 27.167969 54.683594 L 27.453125 57.269531 C 27.835938 58.992188 28.414062 59.976562 29.179688 60.214844 C 30.375 60.597656 31.671875 60.070312 33.058594 58.632812 L 34.714844 56.335938 C 34.1875 55.425781 33.515625 54.683594 32.699219 54.109375 L 30.902344 53.246094 L 29.898438 52.886719 L 29.609375 51.738281 C 29.515625 50.777344 29.609375 49.941406 29.898438 49.222656 C 30.234375 48.503906 30.710938 48.121094 31.335938 48.070312 L 32.199219 48.144531 M 20.984375 33.773438 C 21.945312 34.730469 23.070312 35.378906 24.363281 35.710938 C 22.878906 38.109375 21.511719 40.765625 20.265625 43.6875 C 19.023438 41.53125 18.304688 39.90625 18.109375 38.800781 C 17.917969 37.316406 17.992188 36 18.328125 34.851562 C 18.613281 33.75 19.09375 33.199219 19.765625 33.199219 C 20.097656 33.199219 20.507812 33.390625 20.984375 33.773438 M 35.792969 37.726562 L 35.574219 36.289062 C 35.433594 35.617188 35.074219 35.28125 34.496094 35.28125 L 33.777344 35.496094 L 28.316406 38.945312 L 27.742188 39.59375 L 28.386719 39.808594 L 34.28125 39.59375 L 35.503906 39.019531 C 35.792969 38.683594 35.886719 38.25 35.792969 37.726562 M 62.382812 47.640625 C 62.765625 47.449219 62.765625 47.089844 62.382812 46.5625 C 62.09375 46.179688 61.640625 46.035156 61.015625 46.132812 C 60.394531 46.226562 59.746094 46.609375 59.078125 47.28125 C 58.503906 47.855469 58.167969 48.8125 58.070312 50.15625 L 58.144531 52.023438 L 55.769531 52.3125 C 54.621094 52.597656 54.117188 52.980469 54.261719 53.460938 L 54.835938 54.109375 C 55.84375 53.820312 56.65625 53.820312 57.28125 54.109375 L 57.640625 56.695312 C 58.023438 58.417969 58.597656 59.402344 59.363281 59.640625 C 60.5625 60.023438 61.785156 59.570312 63.03125 58.273438 L 64.46875 56.261719 L 62.886719 53.53125 L 61.160156 52.597656 L 60.082031 52.3125 L 59.796875 51.160156 C 59.699219 50.25 59.796875 49.414062 60.082031 48.648438 C 60.417969 47.929688 60.898438 47.542969 61.519531 47.496094 L 62.382812 47.640625 M 64.035156 39.519531 L 67.054688 41.246094 L 69.210938 42.25 L 69.28125 42.25 C 69.570312 41.054688 68.707031 39.328125 66.695312 37.078125 L 63.605469 34.058594 L 62.8125 33.84375 C 62.285156 33.84375 61.929688 34.085938 61.734375 34.5625 L 60.730469 35.929688 C 60.058594 36.886719 59.820312 37.507812 60.011719 37.796875 C 60.058594 37.890625 60.492188 38.085938 61.304688 38.371094 L 64.035156 39.519531 M 81.570312 298.554688 L 83.226562 301.933594 C 84.472656 305.765625 83.558594 308.566406 80.492188 310.339844 L 77.761719 311.417969 C 76.375 311.753906 75.558594 311.5625 75.320312 310.84375 C 75.175781 310.363281 74.839844 309.933594 74.3125 309.550781 C 73.738281 309.167969 73.257812 309.167969 72.875 309.550781 L 66.191406 316.375 C 63.652344 318.578125 60.992188 320.230469 58.214844 321.335938 C 53.804688 323.011719 48.992188 323.992188 43.769531 324.28125 C 39.359375 324.617188 36.820312 324.039062 36.152344 322.554688 C 35.433594 321.023438 36.460938 318.84375 39.242188 316.015625 L 45.351562 310.914062 C 48.03125 308.808594 50.835938 306.84375 53.757812 305.023438 C 58.453125 307.371094 63.414062 307.847656 68.636719 306.460938 C 73.523438 305.167969 77.835938 302.53125 81.570312 298.554688 M 111.039062 248.976562 C 111.183594 249.933594 110.273438 250.703125 108.308594 251.277344 C 106.390625 251.804688 105.550781 252.640625 105.792969 253.792969 C 106.03125 255.226562 106.65625 256.714844 107.660156 258.246094 L 109.601562 261.046875 C 110.222656 262.007812 110.609375 263.109375 110.75 264.355469 L 110.679688 267.875 C 110.152344 278.75 107.207031 285.980469 101.839844 289.574219 C 99.875 290.914062 97.503906 288.785156 94.722656 283.179688 C 92.855469 279.394531 91.226562 275.058594 89.835938 270.175781 C 92.664062 270.03125 95.035156 269.191406 96.953125 267.660156 C 100.640625 264.785156 103.085938 260.425781 104.28125 254.582031 C 105.335938 249.40625 105.265625 244.304688 104.066406 239.277344 L 104.929688 239.0625 C 106.605469 237.480469 108.09375 238.484375 109.386719 242.078125 L 111.039062 248.976562 M 105.074219 212.761719 L 105.074219 211.972656 L 101.984375 212.476562 L 96.738281 213.625 L 91.847656 213.191406 C 90.507812 212.667969 90.125 211.972656 90.699219 211.109375 L 91.347656 210.535156 L 92.785156 209.960938 C 95.035156 209.144531 97 208.210938 98.675781 207.15625 L 102.34375 203.492188 C 104.640625 205.074219 108.332031 205.671875 113.410156 205.289062 C 118.679688 204.953125 123.257812 201.9375 127.136719 196.234375 C 127.710938 199.109375 127.902344 201.601562 127.710938 203.707031 C 127.28125 210.320312 125.796875 216.164062 123.257812 221.242188 C 122.488281 222.726562 121.554688 223.683594 120.453125 224.113281 L 118.871094 224.332031 L 120.667969 219.300781 C 121.964844 215.804688 122.324219 213.625 121.746094 212.761719 L 118.226562 220.667969 C 115.542969 226.558594 112.835938 229.695312 110.105469 230.078125 L 109.3125 229.933594 L 109.027344 229.792969 L 111.828125 222.246094 C 113.648438 217.265625 114.082031 214.511719 113.121094 213.984375 L 110.105469 220.738281 L 106.007812 230.078125 C 103.132812 234.679688 101.074219 236.59375 99.828125 235.828125 C 99.109375 235.445312 99.179688 233.601562 100.042969 230.292969 L 100.332031 229.433594 L 101.40625 225.839844 L 105.074219 212.761719 M 97.527344 192.140625 L 98.460938 191.566406 L 100.832031 200.617188 C 99.585938 202.535156 98.339844 203.925781 97.097656 204.785156 C 95.5625 205.746094 93.789062 206.582031 91.777344 207.300781 L 89.261719 208.378906 C 88.496094 208.90625 88.015625 209.625 87.824219 210.535156 C 87.585938 211.636719 87.898438 212.640625 88.757812 213.550781 C 90.4375 215.46875 93.597656 216.117188 98.246094 215.492188 L 99.828125 215.277344 C 98.675781 220.210938 96.710938 224.808594 93.933594 229.074219 L 87.539062 235.898438 L 82.792969 240.425781 L 82.074219 245.457031 L 82.578125 245.3125 L 87.539062 241.503906 C 91.035156 238.484375 94.03125 235.0625 96.519531 231.230469 L 97.023438 230.652344 C 96.066406 234.679688 96.519531 237.214844 98.390625 238.269531 C 99.203125 238.84375 100.164062 239.011719 101.265625 238.773438 C 102.414062 243.46875 102.4375 248.28125 101.335938 253.214844 C 100.089844 258.628906 97.71875 262.699219 94.222656 265.429688 C 90.628906 268.257812 84.496094 267.800781 75.824219 264.066406 L 75.535156 263.996094 L 74.3125 263.492188 C 72.636719 262.773438 71.078125 261.839844 69.640625 260.6875 C 66.335938 258.199219 63.582031 254.726562 61.375 250.269531 C 59.554688 246.628906 57.496094 240.617188 55.195312 232.234375 L 53.328125 224.472656 C 52.128906 219.011719 51.339844 213.816406 50.957031 208.882812 C 50.859375 208.066406 50.332031 207.492188 49.375 207.15625 C 48.417969 206.820312 47.984375 207.15625 48.082031 208.164062 C 48.511719 213.289062 49.351562 218.726562 50.597656 224.472656 C 51.507812 228.785156 52.679688 233.265625 54.117188 237.910156 C 56.226562 245 58.621094 250.582031 61.304688 254.652344 C 62.742188 256.90625 64.371094 258.917969 66.191406 260.6875 C 68.636719 263.035156 71.390625 264.929688 74.457031 266.367188 C 77.761719 273.742188 79.726562 283.226562 80.351562 294.820312 C 76.851562 298.890625 72.828125 301.671875 68.277344 303.15625 C 63.246094 304.832031 58.503906 304.519531 54.046875 302.222656 C 49.6875 295.226562 45.230469 285.289062 40.679688 272.402344 L 36.941406 260.6875 L 33.636719 248.042969 C 29.371094 229.457031 27.261719 210.007812 27.308594 189.695312 C 30.183594 191.902344 33.898438 194.054688 38.449219 196.164062 C 47.410156 200.285156 57.425781 201.984375 68.492188 201.265625 C 79.558594 200.5 89.238281 197.457031 97.527344 192.140625 M 79.777344 152.90625 L 78.480469 154.058594 C 83.992188 161.050781 88.257812 167.519531 91.273438 173.457031 L 91.347656 173.601562 C 89.335938 174.941406 86.722656 176.164062 83.511719 177.265625 C 78.003906 179.132812 71.726562 180.261719 64.683594 180.644531 C 63.199219 177.671875 62.144531 168.90625 61.519531 154.34375 C 60.851562 138.824219 61.519531 128.667969 63.53125 123.878906 C 64.011719 122.777344 64.46875 122.152344 64.898438 122.011719 C 69.066406 121.722656 73.378906 120.308594 77.835938 117.769531 C 82.195312 115.28125 85.5 112.359375 87.753906 109.003906 C 89.667969 106.082031 90.507812 103.183594 90.269531 100.308594 C 94.964844 104.476562 98.964844 108.667969 102.269531 112.882812 C 107.542969 119.640625 112.070312 128.308594 115.855469 138.894531 C 119.253906 148.476562 121.84375 158.800781 123.617188 169.863281 C 124.71875 176.714844 125.414062 182.964844 125.699219 188.617188 L 125.699219 189.265625 C 125.890625 190.703125 125.820312 191.757812 125.484375 192.425781 C 124.476562 194.390625 123.28125 196.164062 121.890625 197.746094 C 119.351562 200.523438 116.621094 202.007812 113.699219 202.199219 C 109.097656 202.535156 106.054688 202.175781 104.570312 201.121094 C 103.898438 197.242188 103.132812 193.863281 102.269531 190.992188 C 99.300781 181.027344 94.820312 171.878906 88.832031 163.542969 C 86.195312 159.851562 83.175781 156.308594 79.777344 152.90625 M 87.035156 102.609375 C 86.746094 104.574219 86.171875 106.179688 85.308594 107.421875 C 83.394531 110.394531 80.398438 113.027344 76.324219 115.328125 C 72.300781 117.625 68.421875 118.894531 64.683594 119.136719 C 61.042969 119.519531 58.980469 126.082031 58.503906 138.824219 C 58.214844 146.152344 58.429688 154.296875 59.148438 163.253906 C 59.867188 171.78125 60.707031 177.578125 61.664062 180.644531 C 62.285156 182.605469 63.078125 183.589844 64.035156 183.589844 L 64.25 183.589844 C 71.535156 183.207031 78.027344 182.082031 83.726562 180.210938 C 87.371094 179.015625 90.339844 177.671875 92.640625 176.1875 C 94.316406 179.828125 95.875 183.78125 97.3125 188.042969 L 94.292969 190.128906 C 90.269531 192.714844 84.757812 194.796875 77.761719 196.378906 C 65.019531 199.253906 53.304688 198.796875 42.617188 195.015625 C 36.675781 192.953125 31.597656 190.128906 27.382812 186.535156 L 27.742188 177.695312 C 30.902344 179.851562 34.640625 180.953125 38.953125 181.003906 C 39.527344 181.003906 40.03125 180.785156 40.460938 180.355469 C 41.039062 179.683594 41.324219 178.390625 41.324219 176.476562 L 40.605469 166.917969 C 39.550781 157.050781 39.050781 148.570312 39.097656 141.484375 C 39.097656 138.992188 39.742188 134.703125 41.039062 128.621094 L 42.546875 119.640625 C 42.644531 117.675781 42.210938 116.429688 41.253906 115.902344 L 41.039062 115.832031 C 35.480469 113.914062 32.414062 111.613281 31.839844 108.933594 C 31.503906 107.0625 32.222656 105.171875 33.996094 103.257812 L 35.289062 102.179688 C 37.347656 103.375 39.648438 104.429688 42.1875 105.339844 C 43.480469 107.972656 45.445312 109.960938 48.082031 111.304688 C 50.429688 112.550781 53.160156 113.171875 56.273438 113.171875 C 62.3125 113.171875 67.820312 111.253906 72.804688 107.421875 C 78.074219 103.304688 80.6875 98.394531 80.636719 92.695312 L 86.960938 97.507812 C 87.25 99.136719 87.273438 100.835938 87.035156 102.609375 M 86.601562 64.597656 C 87.179688 64.597656 87.441406 64.214844 87.394531 63.449219 C 87.34375 62.730469 86.988281 62.011719 86.316406 61.292969 C 85.742188 60.621094 85.164062 60.167969 84.589844 59.929688 L 84.160156 59.785156 C 83.777344 59.785156 83.511719 60 83.367188 60.429688 C 83.226562 60.863281 83.34375 61.171875 83.726562 61.363281 L 84.664062 62.226562 C 85.285156 62.851562 85.621094 63.375 85.667969 63.808594 C 85.765625 64.335938 86.074219 64.597656 86.601562 64.597656 M 83.226562 54.898438 C 83.035156 55.378906 83.226562 55.808594 83.800781 56.191406 L 84.804688 56.765625 L 86.601562 57.988281 L 88.542969 60.144531 C 89.308594 61.054688 89.8125 61.507812 90.054688 61.507812 L 90.339844 61.222656 C 90.386719 60.839844 90.148438 60.167969 89.621094 59.210938 L 87.753906 56.765625 C 86.652344 55.570312 85.476562 54.753906 84.230469 54.324219 L 84.015625 54.25 C 83.632812 54.25 83.367188 54.46875 83.226562 54.898438 M 81.789062 26.730469 L 82.21875 26.660156 C 84.855469 26.660156 86.628906 28.074219 87.539062 30.898438 C 88.496094 33.917969 87.035156 36.503906 83.152344 38.660156 L 82.578125 39.304688 C 82.289062 39.832031 82.457031 40.261719 83.082031 40.597656 C 86.050781 42.277344 88.328125 43.878906 89.910156 45.414062 C 93.695312 49.007812 95.539062 53.054688 95.441406 57.554688 C 94.101562 54.203125 92.207031 51.066406 89.765625 48.144531 C 86.890625 45.125 84.949219 43.425781 83.945312 43.042969 L 83.367188 42.96875 C 82.890625 42.96875 82.601562 43.160156 82.507812 43.546875 C 82.363281 43.929688 82.507812 44.238281 82.9375 44.480469 L 84.734375 45.917969 L 88.472656 49.363281 C 90.628906 51.425781 92.902344 54.851562 95.300781 59.640625 L 95.011719 61.292969 C 93.09375 57.316406 91.058594 54.273438 88.902344 52.167969 C 86.9375 50.300781 85.332031 49.148438 84.085938 48.71875 L 83.800781 48.648438 C 83.367188 48.648438 83.128906 48.910156 83.082031 49.4375 C 83.082031 50.011719 83.417969 50.492188 84.085938 50.875 L 87.679688 53.53125 C 89.070312 54.96875 91.203125 57.796875 94.078125 62.011719 L 93.863281 62.585938 L 92.640625 62.875 C 91.96875 63.257812 91.898438 63.832031 92.425781 64.597656 C 95.828125 67.183594 96.710938 70.417969 95.082031 74.296875 C 93.453125 78.132812 90.605469 80.046875 86.53125 80.046875 L 85.453125 79.976562 C 81.1875 87.589844 75.917969 93.507812 69.640625 97.722656 C 69.019531 98.105469 68.730469 98.417969 68.78125 98.65625 C 68.828125 98.898438 69.140625 99.015625 69.714844 99.015625 C 71.773438 99.015625 74.097656 98.105469 76.683594 96.285156 C 76.300781 99.832031 73.835938 103.039062 69.28125 105.914062 C 65.113281 108.597656 61.015625 109.9375 56.992188 109.9375 C 55.21875 109.9375 53.757812 109.578125 52.609375 108.859375 L 52.96875 108.933594 L 57.710938 107.925781 C 59.867188 107.207031 60.875 106.679688 60.730469 106.347656 C 60.730469 106.25 60.632812 106.203125 60.441406 106.203125 L 55.769531 106.632812 C 51.746094 106.632812 47.289062 105.554688 42.402344 103.398438 C 33.585938 99.566406 27.046875 92.789062 22.78125 83.066406 C 18.710938 73.773438 17.679688 64.191406 19.691406 54.324219 C 20.890625 48.191406 23.359375 42.035156 27.09375 35.855469 C 28.773438 35.570312 30.664062 34.585938 32.773438 32.910156 L 36.292969 28.457031 C 38.5 25.726562 39.960938 24.144531 40.679688 23.714844 L 42.117188 23.355469 C 43.503906 23.355469 45.15625 23.929688 47.074219 25.078125 L 49.804688 25.726562 C 51.339844 25.726562 53.375 25.03125 55.914062 23.640625 C 56.921875 23.066406 58.09375 22.777344 59.4375 22.777344 C 62.644531 22.777344 65.640625 24.335938 68.421875 27.449219 C 69.234375 28.457031 70.3125 28.957031 71.652344 28.957031 L 75.464844 28.023438 L 81.789062 26.730469 M 88.472656 16.957031 C 90.339844 17.773438 92.28125 19.617188 94.292969 22.492188 C 95.777344 24.597656 97.046875 26.851562 98.101562 29.246094 C 99.972656 33.460938 100.332031 38.996094 99.179688 45.84375 C 98.605469 49.246094 97.839844 52.238281 96.878906 54.824219 C 96.019531 50.753906 94.148438 47.304688 91.273438 44.480469 L 88.039062 41.675781 L 85.667969 39.878906 L 89.621094 36.144531 C 91.058594 34.324219 91.65625 32.742188 91.417969 31.402344 C 91.179688 29.535156 90.53125 27.929688 89.476562 26.585938 C 87.992188 24.765625 85.980469 23.855469 83.441406 23.855469 L 81.859375 24 C 80.902344 24.144531 79.25 24.71875 76.902344 25.726562 L 72.515625 27.234375 L 72.085938 27.164062 C 71.75 27.066406 70.144531 25.460938 67.269531 22.347656 C 64.492188 19.332031 62.261719 17.820312 60.585938 17.820312 L 59.363281 18.109375 L 54.550781 21.125 L 51.53125 22.921875 L 49.375 23.714844 L 48.441406 23.496094 L 46.5 22.492188 L 44.558594 21.628906 L 42.691406 21.199219 C 41.730469 21.199219 40.628906 21.558594 39.382812 22.277344 C 38.425781 22.804688 36.84375 24.457031 34.640625 27.234375 L 31.191406 31.546875 C 29.179688 33.222656 27.238281 34.058594 25.371094 34.058594 C 24.078125 34.058594 22.972656 33.605469 22.0625 32.695312 C 20.292969 31.066406 19.070312 28.863281 18.398438 26.085938 C 17.777344 23.449219 17.847656 21.101562 18.613281 19.042969 C 19.238281 17.316406 20.148438 15.90625 21.34375 14.804688 C 21.25 16.574219 21.753906 17.941406 22.855469 18.898438 C 24.195312 19.953125 25.707031 20.480469 27.382812 20.480469 C 29.824219 20.480469 31.910156 19.472656 33.636719 17.460938 L 37.804688 12.933594 C 39.863281 10.921875 41.445312 9.773438 42.546875 9.484375 L 44.273438 9.269531 L 47.722656 9.917969 L 50.523438 10.636719 C 51.292969 10.636719 51.9375 10.371094 52.464844 9.84375 L 54.980469 6.324219 C 57.375 2.445312 59.171875 0.410156 60.371094 0.21875 L 60.875 0.21875 C 62.261719 0.21875 63.964844 0.910156 65.976562 2.300781 L 67.917969 3.808594 C 68.683594 4.382812 69.425781 4.792969 70.144531 5.03125 L 76.46875 6.683594 C 79.296875 7.066406 81.882812 8.765625 84.230469 11.785156 L 88.472656 16.957031 "/>
</g>
</svg>
