<?xml version="1.0" encoding="UTF-8"?>
<svg xmlns="http://www.w3.org/2000/svg" xmlns:xlink="http://www.w3.org/1999/xlink" width="128pt" height="128pt" viewBox="0 0 128 128" version="1.1">
<g id="surface1">
<path style=" stroke:none;fill-rule:nonzero;fill:rgb(100%,100%,100%);fill-opacity:1;" d="M 91.15625 54.1875 L 91.332031 54.574219 L 91.035156 55.046875 C 90.121094 56.535156 89.214844 57.644531 88.316406 58.378906 L 85.300781 57.933594 C 86.058594 56.167969 86.6875 54.414062 87.183594 52.667969 C 87.921875 50.070312 88.207031 47.941406 88.050781 46.273438 C 87.832031 43.957031 86.945312 41.230469 85.390625 38.097656 C 86.785156 39.1875 87.96875 40.375 88.945312 41.664062 C 90.359375 43.488281 91.144531 46.078125 91.304688 49.425781 C 91.382812 51.113281 91.324219 52.628906 91.125 53.976562 L 91.15625 54.1875 M 92.257812 48.742188 C 92.019531 45.511719 91.183594 42.953125 89.75 41.070312 C 88.496094 39.464844 87.132812 38.125 85.660156 37.054688 C 84.765625 36.402344 83.671875 35.777344 82.375 35.183594 C 84.625 33.914062 86.914062 33.210938 89.242188 33.070312 C 93.203125 32.832031 97.054688 34.121094 100.796875 36.9375 C 105.65625 40.566406 108.320312 45.007812 108.800781 50.261719 C 108.859375 50.933594 109 51.480469 109.21875 51.894531 C 109.476562 52.410156 109.792969 52.660156 110.171875 52.640625 C 110.492188 52.621094 110.660156 52.492188 110.679688 52.253906 C 110.800781 51.65625 111.15625 51.261719 111.753906 51.0625 L 112.800781 51.121094 C 113.515625 51.996094 113.945312 52.609375 114.085938 52.964844 C 114.222656 53.222656 114.304688 53.589844 114.324219 54.066406 C 114.324219 54.382812 114.460938 54.5625 114.742188 54.601562 L 115.277344 54.722656 L 116.234375 55.820312 L 117.160156 56.683594 C 117.457031 56.527344 117.527344 56.308594 117.367188 56.03125 L 116.832031 54.574219 C 116.511719 53.5625 116.414062 52.957031 116.53125 52.757812 C 116.570312 52.640625 116.703125 52.578125 116.921875 52.578125 C 117.675781 52.621094 118.882812 52.9375 120.53125 53.53125 L 120.652344 53.589844 L 120.621094 53.589844 L 120.980469 53.710938 L 123.429688 54.660156 L 124.5625 57.398438 C 125.082031 59.28125 125.109375 61.3125 124.652344 63.496094 C 124.15625 65.8125 123.308594 67.738281 122.117188 69.265625 L 120.203125 71.285156 C 117.957031 71.542969 115.785156 71.582031 113.695312 71.40625 C 109.375 71.007812 105.625 69.699219 102.441406 67.480469 C 99.253906 65.257812 96.636719 62.464844 94.585938 59.09375 C 94.089844 58.28125 93.253906 56.574219 92.078125 53.976562 C 92.320312 52.3125 92.378906 50.566406 92.257812 48.742188 M 91.871094 62.78125 L 90.289062 59.300781 L 91.691406 55.316406 L 94.050781 60.191406 C 96.578125 64.515625 99.445312 67.894531 102.648438 70.335938 L 100.289062 69.710938 L 97.722656 68.878906 C 95.472656 67.6875 93.523438 65.65625 91.871094 62.78125 M 120.742188 48.890625 L 121.28125 49.695312 L 122.414062 51.925781 L 121.578125 52.699219 L 121.367188 52.640625 L 120.265625 51.003906 C 119.410156 49.953125 118.464844 49 117.429688 48.148438 L 117.128906 47.941406 L 119.367188 48.296875 L 120.742188 48.890625 M 115.578125 52.578125 C 114.679688 51.011719 113.90625 49.8125 113.25 48.980469 C 114.402344 48.1875 115.515625 48.238281 116.59375 49.128906 C 117.746094 50.0625 118.523438 51.003906 118.921875 51.957031 L 116.949219 51.65625 C 116.375 51.636719 115.964844 51.828125 115.726562 52.222656 L 115.578125 52.578125 M 125.757812 56.207031 C 126.234375 56.445312 126.722656 56.804688 127.222656 57.277344 L 127.9375 57.902344 L 127.996094 60.609375 L 126.683594 61.027344 C 126.304688 61.144531 126.066406 61.242188 125.96875 61.324219 C 126.164062 59.378906 126.097656 57.675781 125.757812 56.207031 M 126.863281 74.734375 C 126.386719 76.738281 125.570312 77.789062 124.414062 77.886719 C 123.320312 78.027344 122.503906 77.691406 121.964844 76.878906 C 121.269531 75.867188 120.882812 74.390625 120.800781 72.445312 C 121.617188 72.804688 122.433594 72.257812 123.25 70.808594 C 124.085938 69.304688 124.863281 66.933594 125.578125 63.703125 L 125.90625 61.828125 L 126.863281 67.777344 C 127.339844 70.453125 127.339844 72.773438 126.863281 74.734375 M 55.535156 2.972656 C 56.710938 3.171875 57.753906 3.914062 58.671875 5.203125 L 60.371094 7.433594 C 61.128906 7.792969 61.90625 8.585938 62.703125 9.8125 C 63.277344 10.726562 63.757812 11.667969 64.132812 12.640625 C 64.871094 14.421875 64.941406 16.703125 64.34375 19.480469 C 64.066406 20.90625 63.707031 22.144531 63.269531 23.195312 C 62.96875 21.453125 62.242188 20.003906 61.089844 18.855469 L 59.773438 17.636719 L 58.820312 16.890625 L 60.523438 15.375 C 61.160156 14.640625 61.4375 13.996094 61.359375 13.441406 C 61.277344 12.550781 60.980469 11.816406 60.460938 11.242188 C 59.785156 10.449219 58.800781 10.113281 57.507812 10.230469 C 57.089844 10.269531 56.34375 10.5 55.265625 10.914062 C 54.332031 11.3125 53.703125 11.460938 53.386719 11.359375 L 51.207031 9.039062 C 49.992188 7.671875 49.007812 7.136719 48.25 7.433594 L 46.191406 8.652344 L 44.726562 9.425781 L 43.621094 9.515625 L 42.816406 9.101562 L 41.53125 8.535156 C 41.09375 8.4375 40.546875 8.554688 39.890625 8.890625 C 39.492188 9.089844 38.816406 9.746094 37.859375 10.855469 L 36.339844 12.578125 C 35.699219 13.09375 35.054688 13.402344 34.398438 13.5 C 33.640625 13.621094 33.023438 13.433594 32.546875 12.9375 C 31.828125 12.203125 31.363281 11.269531 31.144531 10.140625 C 30.925781 9.03125 30.992188 8.058594 31.351562 7.226562 C 31.589844 6.59375 31.988281 6.015625 32.546875 5.5 C 32.445312 6.253906 32.636719 6.832031 33.113281 7.226562 C 33.75 7.78125 34.496094 8.03125 35.351562 7.96875 C 36.1875 7.871094 36.933594 7.484375 37.59375 6.808594 C 39.484375 4.847656 40.757812 3.777344 41.414062 3.597656 C 41.992188 3.5 42.765625 3.617188 43.742188 3.957031 L 45.503906 3.894531 L 46.578125 2.5 C 47.671875 0.933594 48.46875 0.117188 48.96875 0.0585938 C 49.542969 0.0195312 50.300781 0.335938 51.238281 1.011719 L 52.011719 1.664062 C 52.3125 1.921875 52.609375 2.101562 52.910156 2.199219 L 55.535156 2.972656 M 32.097656 13.382812 C 32.496094 13.78125 32.925781 14.058594 33.382812 14.214844 L 31.679688 17.457031 L 31.5625 17.191406 C 31.144531 16.417969 30.902344 15.820312 30.84375 15.40625 C 30.746094 14.59375 30.824219 13.949219 31.082031 13.472656 C 31.363281 12.996094 31.699219 12.964844 32.097656 13.382812 M 38.515625 11.390625 C 39.472656 10.28125 40.101562 9.636719 40.398438 9.457031 C 41.035156 9.179688 41.910156 9.417969 43.027344 10.171875 C 43.601562 10.429688 44.230469 10.5 44.90625 10.378906 L 46.726562 9.695312 L 49.234375 9.578125 C 50.191406 9.894531 51.066406 10.519531 51.863281 11.449219 C 52.222656 11.90625 52.699219 12.125 53.296875 12.105469 L 54.789062 11.777344 L 57.386719 11.332031 C 58.5 11.230469 59.277344 11.796875 59.714844 13.027344 C 60.152344 14.355469 59.527344 15.445312 57.835938 16.296875 L 57.535156 16.59375 C 57.417969 16.773438 57.496094 16.941406 57.773438 17.101562 C 58.890625 17.792969 59.804688 18.488281 60.523438 19.183594 C 62.035156 20.730469 62.75 22.445312 62.671875 24.328125 C 62.132812 22.878906 61.386719 21.542969 60.433594 20.3125 C 59.257812 19.003906 58.472656 18.28125 58.074219 18.140625 C 57.816406 18.023438 57.625 18.050781 57.507812 18.230469 C 57.386719 18.410156 57.425781 18.558594 57.625 18.675781 L 58.371094 19.332031 L 59.863281 20.816406 C 60.761719 21.710938 61.625 23.097656 62.460938 24.980469 L 62.285156 25.515625 L 61.535156 24.089844 L 60.015625 21.949219 C 59.296875 21.214844 58.652344 20.71875 58.074219 20.460938 C 57.835938 20.363281 57.695312 20.441406 57.65625 20.699219 C 57.597656 20.957031 57.714844 21.175781 58.015625 21.351562 C 58.628906 21.730469 59.109375 22.117188 59.445312 22.511719 C 60.222656 23.386719 61.089844 24.585938 62.042969 26.113281 L 61.925781 26.347656 L 61.417969 26.4375 C 61.117188 26.578125 61.078125 26.816406 61.296875 27.152344 C 62.730469 28.34375 63.019531 29.769531 62.164062 31.433594 C 61.289062 33.039062 59.953125 33.707031 58.164062 33.425781 C 56.210938 36.601562 53.933594 38.960938 51.324219 40.503906 C 50.609375 40.921875 50.667969 41.101562 51.503906 41.039062 C 52.320312 41.019531 53.238281 40.683594 54.25 40.03125 C 53.972656 43.976562 52.269531 46.246094 49.144531 46.839844 C 47.972656 47.058594 46.867188 46.960938 45.832031 46.542969 C 44.816406 46.144531 44.238281 45.601562 44.101562 44.90625 L 46.070312 44.609375 C 47.085938 44.351562 47.554688 44.132812 47.472656 43.957031 L 45.652344 44.015625 C 43.941406 43.996094 42.039062 43.480469 39.949219 42.46875 C 36.328125 40.742188 33.710938 37.847656 32.097656 33.785156 C 30.566406 29.898438 30.277344 25.914062 31.234375 21.828125 C 31.871094 19.132812 32.953125 16.632812 34.488281 14.335938 C 35.242188 14.253906 36.078125 13.878906 36.996094 13.203125 L 38.515625 11.390625 M 37.382812 14.273438 L 35.023438 15.613281 C 34.863281 15.710938 34.785156 15.800781 34.785156 15.882812 L 35.113281 15.96875 L 37.53125 15.96875 C 37.75 15.96875 37.910156 15.902344 38.011719 15.761719 C 38.148438 15.601562 38.210938 15.425781 38.1875 15.226562 L 38.097656 14.632812 C 38.097656 14.433594 38.019531 14.304688 37.859375 14.246094 L 37.382812 14.273438 M 15.109375 32 C 14.3125 32.675781 13.707031 33.773438 13.289062 35.300781 C 12.890625 36.730469 12.871094 38.355469 13.230469 40.179688 L 13.558594 41.515625 L 12.660156 42.261719 C 11.347656 43.191406 10.015625 43.785156 8.660156 44.042969 L 6.152344 44.3125 C 5.4375 44.3125 5.019531 44.214844 4.898438 44.015625 C 4.761719 43.71875 4.96875 43.269531 5.527344 42.675781 L 7.378906 41.101562 L 8.632812 40.089844 C 8.96875 39.710938 9.140625 39.335938 9.140625 38.960938 C 9.140625 38.304688 8.679688 37.640625 7.765625 36.964844 L 4.929688 35.003906 C 1.644531 32.902344 0.140625 31.574219 0.421875 31.019531 C 0.621094 30.660156 1.367188 30.542969 2.660156 30.660156 C 3.914062 30.78125 5.246094 31.078125 6.660156 31.554688 C 6.898438 31.613281 7.089844 31.535156 7.226562 31.316406 C 7.328125 31.078125 7.289062 30.871094 7.109375 30.691406 C 6.09375 29.957031 5.1875 29.136719 4.390625 28.222656 C 3.375 27.132812 2.867188 26.308594 2.867188 25.753906 C 2.847656 25.578125 2.910156 25.417969 3.046875 25.277344 C 3.585938 24.84375 4.589844 25.089844 6.0625 26.023438 C 7.199219 26.777344 8.273438 27.6875 9.289062 28.757812 C 9.507812 28.957031 9.714844 28.957031 9.914062 28.757812 C 10.132812 28.578125 10.164062 28.363281 10.003906 28.105469 L 8.808594 26.171875 C 8.332031 25.21875 8.152344 24.476562 8.273438 23.941406 C 8.332031 23.664062 8.511719 23.453125 8.808594 23.316406 C 9.386719 23.039062 10.472656 23.8125 12.066406 25.636719 C 13.4375 27.242188 14.820312 29.195312 16.214844 31.496094 C 16.035156 31.554688 15.667969 31.722656 15.109375 32 M 16.753906 32.773438 L 21.617188 33.515625 C 25.160156 33.914062 27.710938 33.84375 29.261719 33.308594 L 30.277344 32.980469 L 30.664062 34.082031 C 31.421875 35.964844 32.40625 37.609375 33.621094 39.019531 C 33.363281 40.527344 33.570312 42.191406 34.25 44.015625 L 34.367188 44.191406 C 31.261719 44.589844 28.117188 44.53125 24.933594 44.015625 C 22.066406 43.539062 19.648438 42.875 17.679688 42.023438 L 15.558594 40.953125 C 15.300781 40.652344 15.101562 40.226562 14.960938 39.671875 C 14.601562 38.542969 14.59375 37.324219 14.929688 36.015625 C 15.269531 34.804688 15.667969 33.902344 16.125 33.308594 L 16.753906 32.773438 M 36.84375 19.628906 C 36.667969 19.210938 36.425781 18.992188 36.128906 18.972656 C 35.8125 18.972656 35.542969 19.164062 35.324219 19.539062 C 35.0625 19.914062 34.914062 20.382812 34.875 20.9375 C 34.855469 21.492188 34.933594 21.976562 35.113281 22.394531 C 35.3125 22.808594 35.5625 23.019531 35.859375 23.019531 C 36.160156 23.039062 36.417969 22.859375 36.636719 22.484375 C 36.894531 22.085938 37.042969 21.609375 37.085938 21.054688 C 37.105469 20.5 37.023438 20.023438 36.84375 19.628906 M 38.128906 25.578125 L 38.21875 26.082031 L 39.472656 28.105469 C 39.832031 28.558594 40.300781 28.640625 40.875 28.34375 L 41.175781 28.105469 C 41.234375 27.984375 41.214844 27.867188 41.113281 27.746094 L 40.101562 26.199219 C 39.882812 25.863281 39.871094 25.527344 40.070312 25.191406 L 41.382812 22.898438 L 42.367188 20.878906 L 42.699219 19.894531 C 42.816406 19.519531 42.777344 19.320312 42.578125 19.300781 C 42.378906 19.242188 42.191406 19.390625 42.011719 19.746094 L 40.726562 22.125 C 40.347656 22.761719 39.542969 23.761719 38.308594 25.128906 C 38.1875 25.25 38.128906 25.398438 38.128906 25.578125 M 33.082031 31.910156 L 34.25 33.933594 C 34.46875 34.25 34.578125 34.230469 34.578125 33.875 L 34.578125 33.578125 C 34.578125 33.417969 34.644531 33.296875 34.785156 33.21875 L 35.171875 33.160156 L 37.023438 34.320312 C 38.496094 35.113281 39.839844 35.539062 41.054688 35.597656 C 42.269531 35.65625 43.910156 35.140625 45.980469 34.050781 L 48.640625 32.417969 C 48.796875 32.335938 48.96875 32.335938 49.144531 32.417969 L 49.535156 32.714844 L 49.503906 34.082031 C 49.703125 34.398438 49.851562 34.371094 49.953125 33.992188 L 50.609375 31.347656 C 50.6875 30.949219 50.570312 30.652344 50.25 30.453125 L 47.324219 28.222656 L 47.054688 28.164062 C 46.996094 28.222656 46.996094 28.320312 47.054688 28.460938 L 47.386719 29.382812 C 47.445312 29.542969 47.40625 29.699219 47.265625 29.859375 C 47.125 30.039062 46.96875 30.144531 46.789062 30.1875 C 44.019531 31.078125 41.960938 31.574219 40.609375 31.671875 L 37.113281 31.375 L 35.144531 30.929688 L 34.753906 30.691406 C 34.636719 30.53125 34.585938 30.382812 34.605469 30.246094 L 34.636719 29.828125 C 34.65625 29.671875 34.636719 29.582031 34.578125 29.5625 C 34.496094 29.523438 34.40625 29.5625 34.308594 29.679688 L 33.171875 30.960938 C 32.914062 31.257812 32.882812 31.574219 33.082031 31.910156 M 34.457031 31.96875 C 34.398438 31.613281 34.617188 31.453125 35.113281 31.496094 L 37.113281 31.910156 L 40.875 32.269531 C 42.46875 32.1875 44.527344 31.703125 47.054688 30.808594 L 47.683594 30.722656 C 47.960938 30.703125 48.230469 30.789062 48.488281 30.988281 C 48.75 31.1875 48.796875 31.414062 48.640625 31.671875 L 48.101562 32.03125 C 45.890625 33.140625 44.371094 33.8125 43.535156 34.050781 L 41.054688 34.347656 L 38.667969 34.050781 L 35.023438 32.652344 C 34.746094 32.574219 34.554688 32.347656 34.457031 31.96875 M 38.964844 36.964844 L 39.921875 37.5 L 41.742188 37.5625 C 41.921875 37.523438 42.058594 37.433594 42.160156 37.292969 L 42.28125 36.847656 L 42.039062 36.492188 L 41.53125 36.371094 L 39.054688 36.578125 C 38.65625 36.601562 38.628906 36.730469 38.964844 36.964844 M 38.964844 44.191406 C 40.257812 47.109375 42.328125 49.546875 45.175781 51.507812 C 46.550781 52.460938 47.804688 53.105469 48.9375 53.441406 L 50.996094 55.582031 C 52.589844 57.089844 54.191406 58.300781 55.804688 59.210938 C 50.867188 58.972656 46.042969 56.4375 41.324219 51.597656 C 39.851562 50.089844 38.488281 48.4375 37.234375 46.632812 L 35.742188 44.371094 C 35.261719 43.0625 35.085938 41.804688 35.203125 40.59375 C 36.140625 41.386719 37.195312 42.082031 38.367188 42.675781 L 38.964844 44.191406 M 49.742188 14.097656 L 49.324219 14.007812 L 48.996094 14.273438 L 48.550781 14.839844 C 48.269531 15.238281 48.171875 15.484375 48.25 15.582031 L 48.789062 15.882812 C 49.207031 16.058594 49.5625 16.226562 49.863281 16.386719 L 51.148438 17.191406 L 52.011719 17.578125 C 52.152344 17.082031 51.824219 16.355469 51.027344 15.40625 L 49.742188 14.097656 M 50.730469 23.851562 L 52.339844 22.484375 C 51.84375 21.808594 51.195312 21.242188 50.402344 20.789062 C 48.808594 19.875 47.296875 19.976562 45.863281 21.085938 C 47.554688 21.046875 48.867188 21.492188 49.804688 22.421875 C 50.28125 22.898438 50.589844 23.375 50.730469 23.851562 M 57.835938 23.554688 L 58.96875 24.386719 L 59.894531 25.425781 C 60.214844 25.824219 60.402344 25.921875 60.460938 25.726562 L 60.191406 24.921875 L 59.476562 23.882812 C 59.058594 23.40625 58.582031 23.046875 58.042969 22.808594 C 57.863281 22.730469 57.714844 22.789062 57.597656 22.988281 C 57.476562 23.1875 57.554688 23.375 57.835938 23.554688 M 58.074219 25.101562 C 57.894531 25.019531 57.734375 25.0625 57.597656 25.21875 C 57.476562 25.4375 57.507812 25.597656 57.683594 25.695312 L 58.074219 26.082031 C 58.351562 26.339844 58.492188 26.558594 58.492188 26.734375 C 58.53125 26.953125 58.660156 27.0625 58.878906 27.0625 C 59.117188 27.0625 59.226562 26.914062 59.207031 26.617188 C 59.1875 26.339844 59.046875 26.03125 58.789062 25.695312 C 58.550781 25.398438 58.3125 25.199219 58.074219 25.101562 M 62.492188 33.457031 C 61.636719 35.261719 60.988281 36.957031 60.550781 38.542969 L 60.371094 39.019531 C 59.636719 42.328125 58.582031 45.054688 57.207031 47.195312 L 55.328125 50.140625 C 55.1875 51.230469 57.308594 53.363281 61.6875 56.535156 L 63.597656 58.023438 L 65.539062 59.183594 L 58.015625 59.507812 C 55.664062 58.417969 53.40625 56.773438 51.238281 54.574219 L 48.578125 51.570312 L 48.371094 51.421875 C 45.066406 50.507812 42.191406 47.941406 39.742188 43.71875 L 39.441406 43.152344 L 39.800781 43.300781 C 40.578125 44.964844 41.78125 46.304688 43.414062 47.316406 C 45.066406 48.328125 46.746094 48.761719 48.460938 48.625 C 52.738281 48.269531 55.238281 44.898438 55.953125 38.511719 C 57.664062 36.789062 58.839844 35.441406 59.476562 34.46875 C 60.609375 34.628906 61.617188 34.289062 62.492188 33.457031 M 61.449219 38.808594 C 61.90625 36.171875 62.851562 34.457031 64.285156 33.664062 L 64.878906 33.398438 C 65.199219 33.617188 65.296875 33.921875 65.179688 34.320312 L 64.460938 35.867188 C 63.429688 37.828125 62.941406 39.8125 63 41.8125 C 63.058594 44.570312 63.695312 47.59375 64.910156 50.882812 C 65.429688 52.371094 65.945312 54.175781 66.464844 56.296875 L 66.792969 57.902344 C 64.980469 57.386719 63.46875 56.683594 62.253906 55.792969 C 60.800781 54.703125 59.597656 53.691406 58.640625 52.757812 C 57.566406 51.707031 57.007812 50.925781 56.96875 50.410156 C 56.949219 50.308594 57.574219 49.089844 58.851562 46.75 C 60.242188 44.191406 61.070312 41.695312 61.328125 39.257812 L 61.449219 38.808594 M 79.0625 45.472656 C 79.242188 46.582031 79.640625 48.140625 80.257812 50.140625 C 80.875 52.242188 81.273438 53.96875 81.449219 55.316406 C 81.628906 56.804688 81.640625 58.546875 81.480469 60.550781 C 81.300781 63.285156 80.59375 68.003906 79.359375 74.707031 C 79.242188 75.023438 78.914062 75.292969 78.375 75.507812 L 73.6875 75.71875 C 71.636719 75.359375 69.964844 74.90625 68.671875 74.347656 L 67.390625 73.726562 C 68.601562 68.511719 69.269531 64.652344 69.390625 62.15625 C 69.429688 61.203125 69.082031 59.398438 68.34375 56.742188 C 67.746094 54.523438 67.058594 52.351562 66.285156 50.230469 C 65.785156 48.84375 65.367188 47.355469 65.03125 45.769531 L 64.34375 41.695312 C 64.023438 39.453125 64.433594 37.542969 65.566406 35.957031 C 66.441406 34.765625 67.46875 33.992188 68.644531 33.636719 C 69.160156 33.476562 70.175781 33.46875 71.6875 33.605469 L 73.867188 34.113281 C 76.554688 34.746094 78.605469 35.121094 80.019531 35.242188 L 80.675781 35.300781 L 83.300781 36.640625 L 83.511719 36.757812 C 84.644531 39.15625 85.492188 41.507812 86.050781 43.808594 C 86.664062 46.464844 86.007812 51.171875 84.078125 57.933594 L 83.210938 57.8125 C 83.113281 56.128906 82.882812 54.503906 82.527344 52.9375 L 81.691406 49.960938 L 80.375 45.414062 C 80.019531 44.222656 79.886719 43.390625 79.988281 42.914062 L 79.0625 42.675781 C 78.882812 43.390625 78.882812 44.320312 79.0625 45.472656 M 73.300781 77.234375 L 77.539062 77.589844 C 78.175781 79.496094 78.105469 81.011719 77.332031 82.140625 C 76.632812 83.132812 76.375 84.023438 76.554688 84.816406 C 76.632812 85.074219 76.8125 85.183594 77.09375 85.144531 C 77.351562 85.105469 77.480469 84.945312 77.480469 84.667969 C 77.5 83.976562 77.820312 83.398438 78.4375 82.945312 L 78.734375 83.035156 C 79.113281 83.269531 79.371094 83.679688 79.511719 84.253906 C 79.667969 84.925781 79.480469 85.492188 78.941406 85.949219 L 77.71875 86.660156 L 76.496094 86.722656 L 75.507812 85.949219 C 75.03125 85.332031 74.605469 84.570312 74.226562 83.65625 C 74.125 83.378906 73.925781 83.292969 73.628906 83.390625 C 73.332031 83.488281 73.230469 83.6875 73.332031 83.984375 L 73.6875 84.847656 C 73.988281 85.5 74.335938 86.058594 74.734375 86.511719 C 75.132812 86.988281 75.480469 87.347656 75.777344 87.582031 L 74.734375 88.386719 L 73.089844 88.417969 C 72.554688 88.238281 72.015625 87.832031 71.480469 87.195312 C 71.0625 86.722656 70.753906 86.273438 70.554688 85.859375 C 70.414062 85.582031 70.207031 85.511719 69.925781 85.652344 C 69.648438 85.75 69.558594 85.949219 69.65625 86.246094 L 70.195312 87.910156 C 70.535156 89.121094 70.671875 90.082031 70.613281 90.796875 C 70.59375 91.3125 70.382812 91.875 69.984375 92.492188 C 69.589844 93.066406 69.128906 93.53125 68.613281 93.886719 C 68.09375 94.207031 67.667969 94.292969 67.328125 94.15625 C 67.050781 94.058594 66.902344 93.910156 66.882812 93.710938 C 66.839844 93.472656 66.941406 93.027344 67.179688 92.371094 C 67.65625 91.101562 68.054688 89.554688 68.375 87.730469 C 68.773438 85.433594 68.882812 83.359375 68.703125 81.515625 C 68.5625 80.050781 68.59375 78.75 68.792969 77.621094 C 68.890625 77.066406 69.019531 76.621094 69.179688 76.28125 L 73.300781 77.234375 M 70.464844 97.578125 L 68.644531 99.390625 C 68.523438 99.589844 68.542969 99.785156 68.703125 99.984375 L 69.628906 100.550781 C 70.265625 101.105469 70.601562 101.886719 70.644531 102.898438 L 70.671875 107.421875 C 70.671875 107.679688 70.800781 107.828125 71.0625 107.867188 C 71.359375 107.867188 71.738281 108.042969 72.195312 108.402344 C 72.953125 109.015625 73.460938 109.9375 73.71875 111.167969 L 73.925781 113.398438 C 72.15625 114.308594 70.761719 114.765625 69.746094 114.765625 L 67.121094 114.289062 L 65.296875 114.347656 C 65.121094 114.667969 65.121094 116.628906 65.296875 120.238281 L 65.628906 125.589844 L 66.851562 126.097656 L 70.285156 126.304688 C 71.796875 126.085938 72.953125 125.769531 73.75 125.351562 L 73.6875 126.304688 C 73.667969 126.679688 73.371094 127.019531 72.792969 127.316406 C 71.898438 127.773438 70.464844 128 68.492188 128 C 65.984375 128 64.085938 127.355469 62.789062 126.066406 L 62.613281 125.769531 L 62.582031 125.652344 L 62.582031 125.589844 C 62.125 118.136719 62.125 113.328125 62.582031 111.167969 C 62.839844 109.9375 63.539062 109.035156 64.671875 108.460938 L 66.3125 107.957031 L 66.550781 107.835938 L 66.703125 107.480469 C 66.203125 106.210938 65.984375 104.714844 66.046875 102.988281 C 66.085938 101.976562 66.265625 100.976562 66.582031 99.984375 L 67.058594 98.765625 C 67.21875 98.605469 67.25 98.4375 67.148438 98.261719 L 66.613281 98.320312 L 66.132812 98.289062 C 66.113281 97.933594 66.285156 97.488281 66.640625 96.953125 L 67.148438 96.117188 C 67.089844 95.859375 66.929688 95.730469 66.671875 95.730469 C 66.3125 95.730469 66.066406 95.652344 65.925781 95.496094 L 65.835938 95.046875 C 65.875 94.769531 65.964844 94.613281 66.105469 94.574219 L 66.222656 94.542969 L 67 95.078125 C 67.957031 95.394531 68.773438 95.347656 69.449219 94.929688 L 69.925781 94.542969 L 70.015625 94.574219 C 70.273438 94.632812 70.425781 94.789062 70.464844 95.046875 L 70.375 95.496094 C 70.214844 95.652344 69.957031 95.730469 69.597656 95.730469 C 69.339844 95.730469 69.191406 95.859375 69.148438 96.117188 C 69.109375 96.375 69.21875 96.535156 69.480469 96.59375 L 70.015625 96.742188 C 70.335938 96.921875 70.484375 97.199219 70.464844 97.578125 M 69.746094 107.777344 L 68.730469 107.808594 L 67.71875 107.777344 C 67.417969 107.777344 67.269531 107.847656 67.269531 107.984375 C 67.269531 108.144531 67.417969 108.300781 67.71875 108.460938 L 68.730469 108.730469 C 69.109375 108.730469 69.449219 108.640625 69.746094 108.460938 C 70.027344 108.300781 70.164062 108.144531 70.164062 107.984375 C 70.164062 107.847656 70.027344 107.777344 69.746094 107.777344 M 66.195312 115.480469 L 67.269531 115.449219 L 69.867188 115.421875 L 73.988281 114.675781 L 73.835938 123.449219 C 72.5625 124.023438 71.410156 124.371094 70.375 124.492188 L 67.894531 124.578125 C 67.101562 124.558594 66.683594 124.472656 66.640625 124.3125 L 66.285156 119.851562 C 66.105469 117.035156 66.074219 115.578125 66.195312 115.480469 "/>
</g>
</svg>
