<?xml version="1.0" encoding="UTF-8"?>
<svg xmlns="http://www.w3.org/2000/svg" xmlns:xlink="http://www.w3.org/1999/xlink" width="128pt" height="108pt" viewBox="0 0 128 108" version="1.1">
<g id="surface1">
<path style=" stroke:none;fill-rule:nonzero;fill:rgb(100%,100%,100%);fill-opacity:1;" d="M 104.5625 89.394531 L 104.695312 89.796875 C 104.964844 90.644531 105.585938 91.425781 106.566406 92.136719 C 107.457031 92.761719 108.28125 93.074219 109.035156 93.074219 L 109.4375 93.074219 L 109.636719 93.007812 L 109.703125 92.808594 C 109.972656 91.601562 109.726562 90.511719 108.96875 89.527344 L 108.703125 89.195312 L 107.5 90.734375 L 106.097656 89.128906 L 105.898438 88.992188 L 105.699219 89.128906 L 105.03125 89.394531 L 104.5625 89.394531 M 107.035156 76.214844 L 107.035156 76.082031 L 106.898438 75.945312 C 101.46875 71.441406 97.996094 69.097656 96.484375 68.921875 L 96.21875 68.855469 L 96.082031 69.121094 C 94.390625 72.691406 94.058594 76.546875 95.082031 80.695312 L 95.550781 81.03125 C 95.773438 81.03125 95.882812 80.875 95.882812 80.5625 C 96.015625 77.261719 96.574219 74.429688 97.550781 72.066406 C 98.710938 72.867188 100.355469 73.828125 102.492188 74.941406 L 106.164062 77.152344 L 106.433594 77.417969 L 106.632812 77.082031 L 107.035156 76.214844 M 116.582031 93.074219 L 116.847656 93.074219 C 117.605469 93.074219 118.519531 92.652344 119.585938 91.804688 C 120.433594 91.089844 121.011719 90.308594 121.324219 89.460938 L 121.390625 89.195312 L 119.921875 88.457031 L 119.789062 88.660156 L 118.585938 90.398438 L 117.25 88.992188 L 117.050781 89.394531 C 116.472656 90.421875 116.292969 91.558594 116.515625 92.808594 L 116.582031 93.074219 M 115.648438 73.871094 C 118.050781 71.507812 119.789062 70.011719 120.855469 69.390625 C 122.058594 68.71875 122.769531 69.167969 122.992188 70.726562 C 123.660156 76.257812 123.214844 80.808594 121.65625 84.375 C 122.859375 88.214844 122.480469 91.378906 120.523438 93.878906 L 120.453125 94.078125 L 124.128906 95.550781 C 125.417969 96.042969 126.375 96.664062 127 97.425781 C 127.667969 98.316406 127.6875 99.140625 127.066406 99.898438 C 125.773438 101.550781 123.925781 102.195312 121.523438 101.839844 C 119.476562 101.527344 117.804688 100.703125 116.515625 99.363281 C 114.511719 100.835938 112.84375 101.574219 111.507812 101.574219 C 110.214844 101.574219 108.792969 100.792969 107.234375 99.230469 C 106.433594 98.382812 105.429688 97.714844 104.230469 97.222656 C 101.425781 96.242188 99.488281 95.328125 98.421875 94.480469 C 97.398438 93.589844 96.171875 92.003906 94.746094 89.730469 C 92.34375 89.863281 90.007812 89.574219 87.738281 88.859375 C 87.515625 88.859375 87.46875 88.992188 87.605469 89.261719 L 91.742188 96.421875 C 92.097656 97.046875 93.65625 98.382812 96.417969 100.433594 C 98.554688 102.039062 99.578125 103.691406 99.488281 105.386719 C 99.488281 107.125 98.042969 107.996094 95.148438 107.996094 C 93.992188 107.996094 91.65625 106.078125 88.136719 102.242188 C 84.710938 98.449219 82.375 95.328125 81.125 92.875 L 76.851562 87.253906 C 74.050781 83.550781 72.179688 80.585938 71.246094 78.355469 C 70.621094 76.792969 70.734375 75.699219 71.578125 75.078125 C 72.066406 74.71875 72.3125 74.363281 72.3125 74.007812 L 72.113281 73.402344 C 70.910156 72.734375 68.261719 70.480469 64.167969 66.644531 L 56.820312 59.351562 C 55.042969 61.804688 52.105469 62.273438 48.007812 60.757812 C 45.335938 59.730469 42.667969 58.082031 39.996094 55.804688 L 35.855469 51.792969 C 33.40625 49.117188 31.695312 48.289062 30.714844 49.316406 C 29.914062 51.101562 29.046875 52.082031 28.109375 52.261719 C 26.863281 52.484375 25.886719 51.324219 25.171875 48.78125 C 24.460938 45.972656 25.664062 43.472656 28.777344 41.289062 C 30.292969 40.261719 32.917969 40.820312 36.65625 42.960938 L 42.332031 46.105469 C 42.867188 45.746094 43.511719 44.898438 44.269531 43.5625 C 46.050781 40.214844 47.832031 37.964844 49.609375 36.804688 L 53.015625 34.996094 C 51.546875 33.792969 48.765625 32.945312 44.667969 32.457031 L 33.253906 33.058594 C 28.132812 34.351562 23.636719 34.730469 19.765625 34.195312 C 16.648438 33.703125 13.933594 32.632812 11.617188 30.984375 C 8.011719 28.394531 5.273438 24.804688 3.40625 20.210938 C 1.136719 14.722656 0.710938 8.925781 2.136719 2.8125 C 2.492188 1.296875 3.496094 0.449219 5.140625 0.273438 C 6.789062 0.09375 7.589844 1.121094 7.546875 3.347656 C 7.546875 7.898438 7.789062 11.46875 8.28125 14.054688 C 9.4375 20.566406 11.863281 24.761719 15.558594 26.632812 C 16.804688 27.304688 18.207031 27.773438 19.765625 28.039062 L 30.78125 27.503906 C 38.882812 25.765625 45.226562 25.140625 49.8125 25.628906 C 51.324219 25.808594 53.640625 26.5 56.753906 27.703125 L 62.429688 29.644531 C 78.457031 31.5625 90.097656 40.148438 97.351562 55.40625 C 100.914062 57.011719 103.40625 58.972656 104.832031 61.292969 C 105.988281 63.167969 106.832031 66.089844 107.367188 70.058594 C 110.972656 70.996094 113.734375 72.265625 115.648438 73.871094 "/>
</g>
</svg>
