<?xml version="1.0" encoding="UTF-8"?>
<svg xmlns="http://www.w3.org/2000/svg" xmlns:xlink="http://www.w3.org/1999/xlink" width="128pt" height="165pt" viewBox="0 0 128 165" version="1.1">
<g id="surface1">
<path style=" stroke:none;fill-rule:nonzero;fill:rgb(100%,100%,100%);fill-opacity:1;" d="M 94.308594 151.15625 C 94.285156 151.824219 94.1875 152.210938 94.015625 152.316406 L 92.980469 152.511719 C 92.503906 152.597656 92.246094 152.992188 92.203125 153.703125 L 92.265625 155.25 C 92.351562 156.515625 91.195312 158.4375 88.800781 161.015625 C 87.160156 162.84375 85.171875 164.042969 82.839844 164.625 L 79.824219 164.945312 C 78.507812 164.839844 77.816406 164.34375 77.753906 163.464844 C 77.730469 162.84375 77.882812 162.113281 78.207031 161.273438 L 79.210938 159.246094 C 79.707031 158.277344 80.367188 157.203125 81.1875 156.023438 L 81.703125 155.347656 C 82.980469 156.011719 84.4375 156.171875 86.078125 155.828125 C 87.632812 155.507812 88.960938 154.839844 90.0625 153.832031 C 91.488281 152.5 92.558594 150.523438 93.269531 147.902344 C 94.003906 149.019531 94.351562 150.105469 94.308594 151.15625 M 67.773438 152.769531 C 67.191406 152.082031 66.609375 150.792969 66.023438 148.902344 C 65.527344 147.335938 65.128906 145.617188 64.824219 143.746094 C 66.53125 144.476562 68.335938 144.347656 70.238281 143.359375 C 71.75 142.585938 73.195312 141.332031 74.578125 139.589844 L 75.160156 140.910156 C 75.355469 146.96875 74.101562 150.996094 71.402344 152.992188 C 69.957031 154.046875 68.746094 153.972656 67.773438 152.769531 M 75.613281 113.398438 C 78.574219 113.398438 81.941406 112.96875 85.722656 112.109375 C 88.183594 111.527344 90.570312 110.839844 92.882812 110.046875 C 93.164062 115.632812 92.988281 120.183594 92.363281 123.707031 C 91.414062 128.796875 89.449219 132.78125 86.46875 135.660156 C 86.207031 135.917969 86.25 136.242188 86.597656 136.625 C 86.921875 137.011719 87.210938 137.078125 87.472656 136.820312 L 89.414062 134.984375 C 90.410156 133.972656 91.132812 133.070312 91.585938 132.277344 C 92.148438 134.296875 92.527344 136.648438 92.71875 139.332031 C 92.804688 140.730469 92.761719 142.234375 92.589844 143.84375 L 92.363281 144.90625 C 92.253906 145.378906 92.210938 145.753906 92.234375 146.035156 C 91.886719 147.925781 91.152344 149.730469 90.03125 151.449219 C 89.210938 152.714844 87.988281 153.660156 86.371094 154.28125 C 84.597656 154.96875 83.085938 154.917969 81.835938 154.121094 L 76.457031 141.167969 L 76.261719 140.71875 L 75.324219 138.496094 C 75.324219 138.300781 75.234375 138.121094 75.0625 137.949219 C 73.722656 134.746094 72.710938 131.988281 72.019531 129.667969 C 70.808594 125.480469 70.054688 121.570312 69.75 117.941406 C 69.730469 117.574219 69.503906 117.316406 69.070312 117.167969 C 68.636719 117.015625 68.433594 117.167969 68.453125 117.617188 C 68.734375 120.949219 69.382812 124.417969 70.398438 128.023438 C 71.242188 130.96875 72.417969 134.273438 73.929688 137.949219 C 71.703125 141.019531 69.40625 142.640625 67.027344 142.8125 L 65.375 142.621094 C 64.773438 142.46875 64.351562 142.277344 64.113281 142.039062 C 61.089844 138.988281 58.996094 134.414062 57.828125 128.316406 C 56.617188 122.300781 56.402344 116.125 57.179688 109.789062 C 59.101562 110.625 61.292969 111.347656 63.757812 111.949219 C 67.6875 112.914062 71.640625 113.398438 75.613281 113.398438 M 63.953125 64.136719 L 65.539062 65.070312 C 66.101562 66.808594 67.125 68.183594 68.617188 69.195312 C 70.042969 70.183594 71.652344 70.675781 73.445312 70.675781 C 77.65625 70.65625 80.777344 68.410156 82.804688 63.941406 C 84.296875 64.609375 85.917969 65.476562 87.664062 66.550781 C 86.628906 67.605469 85.160156 68.507812 83.261719 69.257812 C 81.835938 69.816406 80.699219 70.140625 79.859375 70.226562 C 79.167969 70.3125 78.628906 70.535156 78.238281 70.902344 C 77.871094 71.246094 77.613281 71.78125 77.460938 72.511719 C 76.8125 75.367188 76.316406 78.496094 75.96875 81.886719 C 75.796875 83.691406 75.691406 86.441406 75.648438 90.136719 C 75.625 93.765625 75.679688 96.269531 75.808594 97.644531 C 75.851562 97.984375 76.023438 98.308594 76.328125 98.609375 C 76.652344 98.910156 76.996094 99.082031 77.363281 99.125 L 84.945312 98.898438 L 91.8125 98.09375 C 91.640625 101.488281 91.671875 105 91.910156 108.628906 C 89.859375 109.507812 87.296875 110.292969 84.230469 110.980469 C 81.035156 111.710938 78.207031 112.121094 75.742188 112.207031 C 73.324219 112.292969 69.609375 111.765625 64.597656 110.625 L 57.828125 108.855469 C 57.503906 105.054688 57.210938 101.113281 56.953125 97.03125 C 57.625 97.289062 59.277344 97.632812 61.910156 98.0625 C 62.34375 98.125 62.667969 98.050781 62.882812 97.835938 C 63.140625 97.601562 63.25 97.042969 63.207031 96.160156 L 63.207031 96.0625 L 63.140625 91.132812 C 63.183594 87.871094 63.347656 85.109375 63.628906 82.855469 C 63.910156 80.578125 64.40625 77.96875 65.117188 75.023438 C 65.59375 73.027344 65.972656 71.578125 66.25 70.675781 C 66.425781 70.226562 66.433594 69.785156 66.285156 69.355469 C 66.132812 68.925781 65.863281 68.625 65.472656 68.453125 L 65.054688 68.292969 L 65.019531 68.292969 C 64.566406 68.121094 63.910156 67.820312 63.042969 67.390625 C 61.984375 66.832031 61.304688 66.402344 61.003906 66.101562 C 61.714844 65.390625 62.699219 64.738281 63.953125 64.136719 M 69.039062 58.433594 L 68.8125 58.015625 C 68.660156 57.886719 68.488281 57.820312 68.292969 57.820312 L 67.710938 57.851562 L 65.539062 57.757812 C 65.34375 57.734375 65.238281 57.765625 65.214844 57.851562 L 65.410156 58.109375 L 66.382812 58.851562 C 66.921875 59.175781 67.570312 59.269531 68.324219 59.140625 C 68.800781 59.054688 69.039062 58.820312 69.039062 58.433594 M 71.660156 40.292969 L 71.757812 39.84375 C 71.757812 39.714844 71.714844 39.640625 71.628906 39.617188 C 71.414062 39.554688 71.1875 39.691406 70.949219 40.035156 L 69.265625 42.386719 L 67.449219 44.222656 L 66.21875 45.351562 L 65.960938 45.804688 C 65.917969 46.019531 65.9375 46.199219 66.023438 46.351562 L 67.125 48.671875 C 67.449219 49.207031 67.945312 49.359375 68.617188 49.121094 L 69.003906 48.894531 L 68.972656 48.476562 L 68.035156 46.738281 C 67.839844 46.351562 67.871094 45.984375 68.128906 45.640625 L 69.878906 43.324219 C 70.550781 42.378906 71.144531 41.367188 71.660156 40.292969 M 65.148438 40.195312 C 65.796875 40.367188 66.328125 40.617188 66.738281 40.9375 L 66.867188 39.070312 C 66.066406 38.746094 65.246094 38.574219 64.40625 38.554688 C 62.71875 38.554688 61.800781 39.339844 61.652344 40.90625 C 62.710938 40.109375 63.875 39.875 65.148438 40.195312 M 64.015625 35.074219 L 66.609375 35.363281 L 67.160156 35.203125 C 67.308594 35.074219 67.386719 34.890625 67.386719 34.65625 L 67.386719 34.011719 C 67.386719 33.796875 67.308594 33.636719 67.160156 33.527344 C 67.027344 33.441406 66.855469 33.441406 66.640625 33.527344 L 63.953125 34.6875 C 63.757812 34.773438 63.660156 34.859375 63.660156 34.945312 L 64.015625 35.074219 M 61.066406 31.886719 C 61.433594 32.355469 61.890625 32.722656 62.429688 32.980469 C 61.824219 33.6875 61.21875 34.496094 60.613281 35.398438 L 60.0625 36.203125 L 59.773438 35.398438 C 59.554688 34.796875 59.449219 34.300781 59.449219 33.914062 C 59.449219 33.011719 59.621094 32.335938 59.964844 31.886719 C 60.3125 31.390625 60.679688 31.390625 61.066406 31.886719 M 87.082031 48.445312 L 87.4375 48.863281 L 87.796875 49.667969 C 87.773438 49.90625 87.894531 50.035156 88.152344 50.054688 C 88.410156 50.078125 88.550781 49.925781 88.574219 49.605469 C 88.59375 49.324219 88.488281 48.980469 88.25 48.574219 L 87.570312 47.832031 C 87.351562 47.683594 87.179688 47.714844 87.050781 47.929688 C 86.898438 48.121094 86.910156 48.292969 87.082031 48.445312 M 87.796875 45.351562 C 87.621094 45.246094 87.460938 45.289062 87.308594 45.480469 C 87.179688 45.675781 87.246094 45.890625 87.503906 46.125 L 87.535156 46.191406 L 87.601562 46.222656 L 88.605469 47.15625 L 89.449219 48.414062 C 89.75 48.90625 89.945312 49.035156 90.03125 48.800781 C 90.09375 48.648438 90.03125 48.347656 89.835938 47.898438 L 89.222656 46.707031 C 88.789062 46.082031 88.3125 45.632812 87.796875 45.351562 M 75.613281 52.503906 C 75.9375 52.527344 76.21875 52.664062 76.457031 52.921875 C 76.695312 53.179688 76.726562 53.429688 76.554688 53.664062 C 76.402344 53.859375 76.199219 53.988281 75.9375 54.050781 C 73.390625 54.933594 71.652344 55.449219 70.722656 55.597656 C 70.03125 55.726562 69.125 55.726562 68 55.597656 C 66.898438 55.46875 66.058594 55.265625 65.472656 54.984375 L 61.75 53.019531 C 61.425781 52.914062 61.25 52.644531 61.230469 52.214844 C 61.207031 52 61.285156 51.859375 61.457031 51.796875 C 61.585938 51.730469 61.757812 51.730469 61.976562 51.796875 L 64.082031 52.503906 L 68.097656 53.34375 C 69.804688 53.472656 72.070312 53.203125 74.902344 52.535156 L 75.613281 52.503906 M 75.226562 50.023438 L 75.453125 51.085938 C 75.496094 51.257812 75.429688 51.421875 75.257812 51.570312 L 74.707031 51.859375 C 71.617188 52.484375 69.351562 52.761719 67.902344 52.699219 C 66.996094 52.65625 65.753906 52.386719 64.179688 51.890625 L 62.105469 51.183594 C 61.933594 51.140625 61.792969 51.042969 61.683594 50.894531 L 61.585938 50.378906 L 61.683594 49.925781 L 61.652344 49.605469 L 61.328125 49.734375 L 59.933594 50.992188 L 59.675781 51.441406 L 59.707031 51.988281 L 60.742188 54.308594 L 60.972656 54.535156 L 61.101562 54.277344 L 61.132812 53.953125 L 61.390625 53.566406 C 61.523438 53.503906 61.660156 53.503906 61.8125 53.566406 L 63.660156 55.082031 C 65.148438 56.113281 66.554688 56.734375 67.871094 56.949219 C 69.1875 57.164062 71.015625 56.820312 73.347656 55.917969 L 76.457031 54.503906 C 76.867188 54.4375 77.167969 54.589844 77.363281 54.953125 L 77.167969 56.402344 L 77.429688 56.628906 L 77.65625 56.371094 L 78.691406 53.601562 C 78.84375 53.191406 78.746094 52.847656 78.402344 52.570312 L 75.582031 49.796875 C 75.429688 49.691406 75.324219 49.660156 75.257812 49.703125 C 75.191406 49.746094 75.183594 49.851562 75.226562 50.023438 M 79.824219 42.195312 C 78.226562 41.011719 76.585938 40.925781 74.902344 41.9375 C 76.714844 42.109375 78.078125 42.753906 78.984375 43.871094 C 79.4375 44.449219 79.707031 44.996094 79.792969 45.511719 L 81.703125 44.289062 C 81.25 43.496094 80.625 42.796875 79.824219 42.195312 M 79.144531 35.042969 L 78.757812 35.398438 L 78.59375 35.558594 C 78.25 35.945312 78.097656 36.203125 78.140625 36.332031 L 78.691406 36.683594 C 79.144531 36.941406 79.523438 37.179688 79.824219 37.394531 L 81.089844 38.394531 L 81.964844 38.972656 C 82.203125 38.457031 81.941406 37.628906 81.1875 36.492188 L 80.019531 34.945312 L 79.566406 34.816406 C 79.394531 34.816406 79.253906 34.890625 79.144531 35.042969 M 88.085938 38.585938 C 87.9375 38.78125 87.988281 38.972656 88.25 39.167969 C 89.5 40.238281 90.398438 41.109375 90.9375 41.777344 C 92.34375 43.625 92.894531 45.554688 92.589844 47.574219 C 92.160156 45.898438 91.519531 44.375 90.679688 43 C 89.621094 41.453125 88.875 40.574219 88.445312 40.359375 L 87.828125 40.390625 C 87.675781 40.5625 87.710938 40.734375 87.925781 40.90625 L 88.636719 41.648438 L 90.03125 43.453125 C 90.613281 44.203125 91.132812 45.136719 91.585938 46.253906 L 92.363281 48.476562 L 92.105469 49.1875 C 91.652344 47.46875 90.960938 45.976562 90.03125 44.707031 C 89.339844 43.804688 88.703125 43.183594 88.121094 42.839844 C 87.882812 42.710938 87.730469 42.773438 87.664062 43.03125 C 87.578125 43.3125 87.6875 43.570312 87.988281 43.804688 L 89.382812 45.222656 C 89.988281 46.082031 90.753906 47.511719 91.683594 49.507812 L 91.617188 49.476562 L 91.519531 49.667969 L 90.96875 49.734375 C 90.625 49.863281 90.550781 50.109375 90.742188 50.476562 C 92.148438 51.933594 92.277344 53.492188 91.132812 55.148438 C 89.988281 56.777344 88.464844 57.335938 86.5625 56.820312 C 84.082031 59.957031 81.316406 62.203125 78.269531 63.554688 C 77.449219 63.921875 77.492188 64.136719 78.402344 64.199219 C 79.285156 64.265625 80.324219 64.007812 81.511719 63.425781 C 80.710938 66.027344 78.59375 67.753906 75.160156 68.613281 L 71.597656 68.808594 C 70.539062 68.570312 69.988281 68.078125 69.945312 67.324219 C 70.246094 67.453125 70.960938 67.441406 72.082031 67.292969 C 73.207031 67.140625 73.757812 66.972656 73.734375 66.777344 L 71.695312 66.585938 C 69.859375 66.347656 67.882812 65.554688 65.765625 64.199219 C 62.09375 61.878906 59.652344 58.421875 58.445312 53.824219 C 57.816406 51.441406 57.589844 49.078125 57.761719 46.738281 C 57.894531 44.761719 58.3125 42.808594 59.027344 40.875 C 59.761719 38.984375 60.734375 37.15625 61.941406 35.398438 L 63.628906 33.207031 C 64.46875 33.207031 65.375 32.90625 66.347656 32.304688 L 68.261719 30.597656 C 69.425781 29.5 70.183594 28.886719 70.527344 28.757812 C 70.980469 28.609375 71.554688 28.726562 72.246094 29.113281 L 73.28125 29.824219 C 73.863281 30.210938 74.511719 30.371094 75.226562 30.304688 C 75.742188 30.285156 76.433594 30.113281 77.300781 29.789062 C 78.164062 29.488281 79.070312 29.554688 80.019531 29.984375 C 81.035156 30.457031 81.898438 31.25 82.613281 32.367188 C 82.9375 32.882812 83.421875 33.183594 84.070312 33.269531 L 85.722656 33.109375 L 88.605469 32.949219 C 89.816406 32.96875 90.558594 33.679688 90.839844 35.074219 C 91.164062 36.554688 90.355469 37.652344 88.410156 38.359375 L 88.085938 38.585938 M 30.90625 80.082031 C 30.90625 78.410156 31.371094 77.085938 32.300781 76.121094 C 33.746094 74.660156 34.878906 73.875 35.703125 73.769531 L 36.867188 75.507812 C 37.816406 76.476562 39.308594 76.980469 41.339844 77.023438 C 41.207031 78.074219 41.597656 79.386719 42.503906 80.953125 L 43.347656 78.761719 C 44.039062 77.128906 44.71875 75.949219 45.386719 75.21875 C 46.964844 73.5 49.242188 71.804688 52.222656 70.128906 C 54.878906 68.625 57.40625 67.507812 59.804688 66.777344 C 60.691406 67.097656 61.175781 67.324219 61.261719 67.453125 C 61.84375 68.140625 62.96875 68.773438 64.632812 69.355469 L 64.730469 69.417969 L 64.988281 69.515625 C 65.246094 69.625 65.3125 69.890625 65.183594 70.320312 C 64.902344 71.074219 64.492188 72.609375 63.953125 74.929688 C 63.261719 77.851562 62.761719 80.449219 62.460938 82.726562 C 62.179688 84.960938 62.027344 87.75 62.007812 91.101562 C 61.984375 93.121094 61.996094 94.796875 62.039062 96.128906 L 62.074219 96.933594 C 58.898438 96.375 57.117188 96 56.726562 95.804688 L 55.691406 79.859375 L 55.203125 79.953125 L 54.976562 83.015625 L 54.621094 89.78125 L 53.097656 90.167969 C 48.585938 91.132812 44.058594 90.660156 39.523438 88.75 C 36.480469 87.484375 34.09375 85.980469 32.363281 84.238281 L 32.171875 84.046875 C 31.671875 83.617188 31.382812 83.242188 31.296875 82.917969 C 31.015625 82.039062 30.886719 81.09375 30.90625 80.082031 M 33.953125 72.996094 L 33.660156 71.867188 L 34.792969 72.578125 L 33.953125 72.996094 M 25.691406 70.226562 C 26.273438 70.398438 26.847656 70.675781 27.40625 71.0625 C 28.097656 71.554688 28.585938 72.082031 28.867188 72.640625 L 28.898438 72.671875 C 29.070312 72.867188 29.234375 72.929688 29.382812 72.867188 L 29.742188 72.511719 L 29.742188 72.449219 C 29.742188 72.039062 29.492188 71.566406 28.996094 71.03125 L 28.671875 70.578125 C 29.253906 70.578125 29.890625 70.730469 30.582031 71.03125 C 31.316406 71.375 31.890625 71.769531 32.300781 72.222656 C 32.601562 72.542969 32.882812 72.984375 33.140625 73.542969 C 32.492188 74.015625 31.941406 74.511719 31.488281 75.023438 C 30 76.550781 29.339844 78.589844 29.511719 81.148438 C 27.613281 81.039062 26.296875 80.761719 25.5625 80.308594 L 23.875 79.148438 C 23.183594 78.503906 22.773438 77.925781 22.644531 77.410156 C 22.40625 76.464844 22.40625 75.746094 22.644531 75.25 C 22.796875 74.949219 23.183594 74.5625 23.8125 74.089844 L 23.875 74.058594 L 24.167969 73.996094 L 24.460938 74.058594 C 24.957031 74.511719 25.246094 74.992188 25.335938 75.507812 C 25.335938 76.109375 25.429688 76.453125 25.625 76.539062 L 25.917969 76.539062 C 26.175781 76.390625 26.285156 76.003906 26.242188 75.378906 C 26.175781 74.371094 25.949219 73.683594 25.5625 73.316406 L 25.300781 72.929688 C 25.257812 72.351562 25.085938 71.824219 24.785156 71.351562 L 24.785156 71.03125 C 24.785156 70.621094 24.878906 70.332031 25.074219 70.160156 L 25.691406 70.226562 M 14.058594 70.707031 C 14.945312 69.742188 15.507812 68.625 15.746094 67.355469 L 15.777344 67.292969 L 22.871094 71.417969 C 22.808594 72.0625 22.839844 72.664062 22.96875 73.222656 C 22.277344 73.5 21.738281 73.953125 21.347656 74.574219 L 14.058594 70.707031 M 18.691406 7.464844 C 19.058594 7.871094 19.039062 8.246094 18.628906 8.589844 C 16.964844 9.835938 15.550781 11.414062 14.382812 13.328125 C 13.476562 14.894531 12.65625 16.851562 11.921875 19.191406 C 11.769531 19.707031 11.4375 19.867188 10.917969 19.675781 C 10.421875 19.480469 10.25 19.148438 10.398438 18.675781 C 11.175781 16.183594 12.074219 14.089844 13.089844 12.394531 C 14.320312 10.332031 15.808594 8.644531 17.558594 7.335938 C 17.992188 7.054688 18.367188 7.097656 18.691406 7.464844 M 18.464844 3.210938 C 18.703125 3.726562 18.585938 4.070312 18.109375 4.242188 C 15.386719 5.121094 12.863281 6.796875 10.527344 9.265625 C 8.886719 10.984375 7.085938 13.421875 5.117188 16.582031 C 4.839844 17.03125 4.472656 17.117188 4.015625 16.839844 C 3.542969 16.472656 3.457031 16.078125 3.757812 15.648438 C 5.789062 12.339844 7.699219 9.773438 9.492188 7.945312 C 11.953125 5.410156 14.578125 3.671875 17.363281 2.726562 C 17.839844 2.554688 18.207031 2.714844 18.464844 3.210938 M 61.035156 25.183594 C 61.402344 24.476562 61.910156 23.90625 62.558594 23.476562 C 62.34375 24.269531 62.472656 24.914062 62.945312 25.410156 C 63.574219 26.097656 64.351562 26.449219 65.28125 26.472656 C 66.207031 26.492188 67.0625 26.183594 67.839844 25.539062 C 70.042969 23.648438 71.542969 22.671875 72.34375 22.605469 C 72.988281 22.542969 73.832031 22.765625 74.871094 23.28125 C 75.691406 23.691406 76.316406 23.746094 76.75 23.445312 L 78.109375 22.058594 C 79.449219 20.511719 80.398438 19.738281 80.960938 19.738281 C 81.566406 19.738281 82.34375 20.167969 83.292969 21.027344 L 84.039062 21.832031 L 84.945312 22.542969 C 86.089844 23.121094 86.996094 23.507812 87.664062 23.703125 C 88.898438 24.066406 89.921875 25 90.742188 26.503906 C 91.652344 28.160156 92.160156 29.015625 92.265625 29.082031 C 93.042969 29.554688 93.789062 30.511719 94.5 31.949219 C 95 32.957031 95.410156 34.042969 95.734375 35.203125 C 96.25 37.199219 96.023438 39.671875 95.050781 42.613281 C 94.554688 44.09375 94.003906 45.375 93.398438 46.449219 C 93.3125 44.578125 92.71875 42.925781 91.617188 41.484375 L 89.414062 39.070312 L 91.457031 37.683594 C 92.210938 36.976562 92.589844 36.320312 92.589844 35.71875 C 92.613281 34.753906 92.394531 33.925781 91.941406 33.238281 C 91.292969 32.273438 90.269531 31.777344 88.863281 31.757812 C 88.433594 31.757812 87.601562 31.917969 86.371094 32.238281 L 84.296875 32.464844 C 84.230469 32.441406 83.550781 31.519531 82.253906 29.695312 C 81.089844 28.0625 80.085938 27.363281 79.242188 27.601562 L 76.878906 28.566406 L 75.191406 29.273438 L 73.996094 29.242188 L 73.21875 28.664062 L 71.886719 27.859375 L 70.042969 28.050781 C 69.589844 28.222656 68.769531 28.84375 67.578125 29.917969 L 65.765625 31.59375 C 64.964844 32.066406 64.222656 32.316406 63.53125 32.335938 C 62.710938 32.355469 62.074219 32.066406 61.617188 31.464844 C 60.949219 30.628906 60.558594 29.574219 60.453125 28.308594 C 60.367188 27.085938 60.558594 26.042969 61.035156 25.183594 M 116.078125 39.941406 C 123.527344 49.28125 126.910156 57.765625 126.21875 65.390625 L 124.308594 64.875 C 124.738281 58.347656 121.972656 51.035156 116.011719 42.9375 C 110.007812 34.796875 101.660156 27.0625 90.96875 19.738281 C 83.304688 14.496094 75.496094 10.289062 67.546875 7.109375 C 58.886719 3.652344 51.199219 1.921875 44.480469 1.921875 C 39.277344 1.921875 34.921875 2.996094 31.425781 5.144531 C 23.605469 9.933594 20.746094 19.769531 22.839844 34.65625 C 23.335938 38.199219 23.464844 41.003906 23.230469 43.066406 C 22.992188 45.148438 22.375 46.652344 21.382812 47.574219 C 20.519531 48.371094 19.351562 48.765625 17.882812 48.765625 L 13.867188 48.21875 L 9.558594 47.640625 C 7.269531 47.640625 5.539062 48.59375 4.375 50.507812 C 2.882812 52.976562 2.527344 55.425781 3.304688 57.851562 C 3.972656 59.957031 5.484375 62.042969 7.839844 64.101562 C 9.632812 65.691406 11.71875 67.109375 14.09375 68.355469 C 13.8125 68.9375 13.488281 69.429688 13.121094 69.839844 L 12.992188 69.96875 C 10.570312 68.65625 8.457031 67.226562 6.640625 65.683594 C 3.984375 63.363281 2.257812 60.957031 1.457031 58.464844 C 0.484375 55.4375 0.90625 52.449219 2.722656 49.507812 C 4.253906 46.972656 6.523438 45.707031 9.523438 45.707031 L 14.253906 46.351562 L 17.882812 46.867188 C 18.832031 46.867188 19.558594 46.628906 20.054688 46.15625 C 21.5 44.824219 21.78125 41.078125 20.894531 34.914062 C 18.714844 19.210938 21.890625 8.742188 30.421875 3.5 C 34.179688 1.203125 38.832031 0.0546875 44.382812 0.0546875 C 51.339844 0.0546875 59.253906 1.804688 68.128906 5.304688 C 76.273438 8.527344 84.253906 12.8125 92.070312 18.160156 C 101.835938 24.839844 109.835938 32.101562 116.078125 39.941406 M 124.761719 85.238281 L 124.144531 88.492188 L 120.386719 87.816406 L 120.90625 84.980469 L 121.292969 85.046875 L 124.761719 85.238281 M 124.824219 83.949219 L 124.824219 83.917969 L 123.140625 84.175781 C 122.535156 84.175781 122.082031 84.066406 121.78125 83.851562 L 121.554688 83.5 C 121.554688 83.21875 121.671875 83.015625 121.910156 82.886719 L 123.140625 82.4375 L 124.695312 81.921875 C 125.34375 81.792969 125.914062 81.578125 126.414062 81.277344 L 127.191406 80.921875 L 126.445312 82.402344 C 125.992188 83.070312 125.453125 83.585938 124.824219 83.949219 M 122.167969 80.890625 C 121.628906 80.695312 121.328125 80.394531 121.261719 79.988281 C 121.175781 79.492188 121.25 79.160156 121.488281 78.988281 C 121.683594 78.835938 122.136719 78.6875 122.847656 78.539062 L 123.660156 78.34375 L 124.46875 78.023438 C 124.964844 77.871094 125.558594 77.558594 126.25 77.085938 L 127.449219 76.21875 L 127.839844 75.832031 C 127.945312 76.367188 127.882812 77.023438 127.644531 77.796875 C 127.253906 78.933594 126.648438 79.792969 125.828125 80.375 L 124.402344 80.984375 L 122.167969 80.890625 M 122.75 74.058594 C 123.746094 73.867188 124.402344 73.554688 124.726562 73.125 C 124.921875 72.886719 125.234375 72.664062 125.667969 72.449219 C 126.097656 72.234375 126.507812 72.105469 126.898438 72.0625 C 127.332031 72.019531 127.632812 72.070312 127.804688 72.222656 L 127.804688 72.867188 L 127.289062 74.445312 C 126.984375 75.109375 126.617188 75.636719 126.1875 76.023438 L 126.121094 75.960938 L 125.503906 76.378906 L 124.175781 77.085938 C 123.269531 77.429688 122.472656 77.441406 121.78125 77.121094 C 121.023438 76.753906 120.644531 76.261719 120.644531 75.636719 C 120.625 75.101562 121.164062 74.585938 122.265625 74.089844 L 122.75 74.058594 M 101.046875 84.59375 C 101.542969 83.605469 103.378906 82.242188 106.554688 80.503906 C 109.230469 79.019531 111.316406 78.042969 112.804688 77.570312 L 113 79.214844 C 113.152344 80.546875 113.519531 81.714844 114.101562 82.726562 C 114.792969 83.949219 115.871094 84.839844 117.339844 85.398438 C 118.574219 85.871094 119.167969 86.171875 119.125 86.300781 C 118.714844 87.503906 117.382812 88.976562 115.136719 90.714844 C 111.597656 93.445312 107.40625 94.722656 102.570312 94.550781 C 101.511719 94.507812 99.394531 94.011719 96.21875 93.066406 L 91.8125 91.683594 L 90.515625 92.90625 L 92.296875 93.777344 L 91.910156 96.902344 L 84.847656 97.773438 C 81.304688 98.050781 78.84375 98.113281 77.460938 97.964844 L 77.136719 97.804688 L 76.941406 97.546875 C 76.835938 96.171875 76.792969 93.703125 76.8125 90.136719 C 76.855469 86.460938 76.964844 83.746094 77.136719 81.984375 C 77.4375 78.71875 77.925781 75.636719 78.59375 72.738281 C 78.703125 72.265625 78.855469 71.933594 79.046875 71.738281 C 79.242188 71.546875 79.546875 71.425781 79.957031 71.382812 C 80.90625 71.277344 82.148438 70.921875 83.679688 70.320312 C 85.90625 69.441406 87.601562 68.34375 88.765625 67.035156 C 91.53125 68.257812 94.835938 70.6875 98.679688 74.316406 C 100.625 76.121094 102.277344 77.808594 103.636719 79.375 C 103.207031 79.609375 102.773438 79.996094 102.339844 80.535156 C 101.5 81.652344 101.066406 83.003906 101.046875 84.59375 M 123.820312 71.09375 C 123.949219 71.652344 123.765625 72.210938 123.269531 72.769531 C 122.515625 72.964844 121.855469 73.210938 121.292969 73.511719 C 120.171875 74.113281 119.628906 74.832031 119.675781 75.667969 L 119.835938 76.410156 C 119.769531 77.980469 119.351562 78.945312 118.574219 79.308594 L 118.636719 80.179688 L 119.1875 79.890625 L 120.320312 79.117188 C 120.234375 79.460938 120.226562 79.816406 120.289062 80.179688 C 120.398438 80.675781 120.667969 81.09375 121.097656 81.4375 L 121.328125 81.792969 L 121.230469 82.179688 C 120.796875 82.457031 120.582031 82.898438 120.582031 83.5 L 120.613281 83.820312 L 120.484375 83.820312 L 120.453125 84.238281 L 118.117188 83.335938 C 117.105469 82.886719 116.28125 82.328125 115.65625 81.664062 C 114.210938 80.136719 113.84375 78.238281 114.554688 75.960938 L 115.59375 74.414062 L 117.015625 71.738281 C 117.644531 70.921875 118.636719 70.503906 119.996094 70.484375 L 123.042969 70.449219 C 123.476562 70.492188 123.734375 70.707031 123.820312 71.09375 M 123.496094 65.972656 L 123.660156 66.003906 C 124.761719 66.433594 125.949219 66.703125 127.222656 66.808594 L 126.574219 70.320312 L 125.214844 70.675781 C 125.214844 69.988281 125.007812 69.539062 124.597656 69.324219 L 122.914062 69.097656 L 123.496094 65.972656 "/>
</g>
</svg>
