<?xml version="1.0" encoding="UTF-8"?>
<svg xmlns="http://www.w3.org/2000/svg" xmlns:xlink="http://www.w3.org/1999/xlink" width="128pt" height="286pt" viewBox="0 0 128 286" version="1.1">
<g id="surface1">
<path style=" stroke:none;fill-rule:nonzero;fill:rgb(100%,100%,100%);fill-opacity:1;" d="M 14.972656 164.574219 C 16.886719 163.496094 17.800781 161.195312 17.714844 157.671875 L 21.394531 158.109375 L 21.269531 160.222656 C 21.226562 161.132812 20.957031 162.191406 20.457031 163.394531 L 19.023438 165.941406 L 23.015625 171.101562 C 25.300781 174.210938 26.171875 176.035156 25.632812 176.574219 C 24.800781 177.402344 23.554688 177.070312 21.890625 175.578125 L 18.960938 172.71875 C 18.796875 172.636719 18.734375 172.65625 18.777344 172.78125 L 18.589844 172.78125 C 18.546875 173.03125 19.335938 174.355469 20.957031 176.761719 C 22.453125 178.914062 22.808594 180.386719 22.015625 181.175781 C 21.3125 181.878906 20.335938 181.878906 19.085938 181.175781 L 16.34375 179.0625 L 16.46875 178.9375 C 17.382812 178.191406 17.738281 176.886719 17.527344 175.019531 L 16.28125 169.671875 L 14.972656 164.574219 M 3.566406 159.664062 C 3.066406 161.113281 3.316406 163.910156 4.3125 168.054688 C 5.601562 173.402344 7.949219 176.925781 11.359375 178.625 C 13.1875 179.539062 14.640625 179.785156 15.722656 179.371094 L 15.96875 179.867188 L 17.589844 182.542969 C 17.882812 182.832031 17.984375 183.269531 17.902344 183.847656 C 17.863281 184.429688 17.632812 184.863281 17.21875 185.152344 L 14.535156 185.214844 C 13.539062 184.882812 12.5 184.34375 11.421875 183.597656 L 10.046875 182.667969 L 8.925781 181.484375 C 3.773438 175.808594 0.988281 170.191406 0.574219 164.636719 C 0.199219 159.953125 1.757812 153.964844 5.25 146.667969 C 6.910156 151.519531 9.695312 154.75 13.601562 156.367188 L 15.535156 157.050781 C 15.699219 158.957031 15.347656 160.472656 14.472656 161.589844 L 13.039062 162.710938 L 12.042969 163.144531 L 13.851562 170.355469 C 15.015625 174.417969 15.367188 176.636719 14.910156 177.007812 C 14.578125 177.214844 13.746094 177.007812 12.417969 176.386719 C 9.632812 175.019531 7.761719 171.992188 6.808594 167.308594 C 6.476562 165.816406 6.226562 163.289062 6.058594 159.726562 C 6.019531 159.101562 5.644531 158.792969 4.9375 158.792969 C 4.230469 158.832031 3.773438 159.125 3.566406 159.664062 M 7.992188 139.332031 C 9.777344 134.6875 12.042969 129.734375 14.785156 124.472656 C 19.273438 115.851562 24.199219 108.058594 29.558594 101.09375 L 34.921875 94.816406 L 35.171875 96.433594 C 36 99.746094 39.136719 102.339844 44.582031 104.203125 C 44.707031 104.949219 44.3125 107.726562 43.398438 112.535156 C 42.316406 118.296875 41.777344 122.191406 41.777344 124.222656 C 41.777344 129.695312 42.277344 137.15625 43.273438 146.605469 L 43.898438 155.871094 C 40.03125 155.746094 36.605469 154.191406 33.613281 151.207031 L 33.550781 149.527344 C 33.339844 146.542969 32.511719 141.964844 31.054688 135.789062 L 28.3125 124.160156 L 25.382812 122.046875 L 27.753906 132.367188 L 30.183594 142.6875 C 27.066406 146.75 24.34375 150.957031 22.015625 155.308594 C 20.644531 155.847656 18.046875 155.332031 14.226562 153.757812 C 10.484375 152.222656 8.117188 148.472656 7.117188 142.503906 C 7.078125 141.882812 7.304688 140.988281 7.804688 139.828125 L 7.992188 139.332031 M 44.519531 77.035156 C 43.648438 77.15625 43.585938 77.425781 44.332031 77.839844 L 46.453125 78.898438 L 48.074219 79.210938 L 50.191406 78.898438 L 51.066406 78.339844 C 51.316406 78.007812 51.398438 77.675781 51.316406 77.34375 C 51.191406 76.722656 50.753906 76.410156 50.003906 76.410156 L 49.757812 76.410156 L 45.890625 76.972656 L 44.519531 77.035156 M 34.671875 67.832031 C 34.464844 67.128906 34.816406 66.773438 35.730469 66.773438 L 35.917969 66.773438 L 39.347656 67.398438 L 46.328125 68.019531 L 48.074219 67.957031 C 51.355469 67.664062 55.574219 66.464844 60.726562 64.351562 L 62.222656 64.101562 C 62.804688 64.101562 63.34375 64.289062 63.84375 64.660156 C 64.382812 65.074219 64.488281 65.53125 64.15625 66.027344 L 63.160156 66.960938 C 58.585938 69.367188 55.429688 70.859375 53.683594 71.4375 L 47.511719 72.246094 L 43.523438 71.8125 L 35.855469 69.199219 C 35.230469 69.074219 34.835938 68.621094 34.671875 67.832031 M 34.609375 62.671875 C 34.484375 62.671875 34.316406 62.796875 34.109375 63.042969 L 31.804688 65.84375 L 31.492188 66.835938 L 31.679688 67.832031 L 34.359375 71.933594 L 34.796875 72.308594 C 35.003906 72.308594 35.066406 72.121094 34.984375 71.75 L 34.984375 71.128906 C 34.984375 70.503906 35.273438 70.195312 35.855469 70.195312 L 36.167969 70.257812 L 40.09375 72.558594 C 43.253906 74.050781 46.097656 74.816406 48.632812 74.855469 L 48.695312 74.855469 C 51.273438 74.855469 54.640625 73.65625 58.796875 71.25 C 60.871094 70.050781 62.703125 68.847656 64.28125 67.644531 L 64.839844 67.582031 C 65.382812 67.582031 65.816406 67.8125 66.152344 68.265625 L 66.152344 71.066406 L 66.648438 71.4375 L 67.085938 70.878906 L 68.269531 65.21875 C 68.4375 64.433594 68.144531 63.8125 67.398438 63.355469 L 61.164062 58.941406 L 60.726562 58.816406 C 60.4375 58.816406 60.394531 59.042969 60.601562 59.5 L 61.351562 61.429688 C 61.476562 61.71875 61.390625 62.050781 61.101562 62.421875 C 60.851562 62.796875 60.539062 63.023438 60.167969 63.105469 C 54.472656 65.21875 50.234375 66.441406 47.449219 66.773438 L 45.765625 66.835938 L 39.285156 66.214844 L 35.980469 65.59375 C 35.191406 65.46875 34.796875 64.992188 34.796875 64.164062 L 34.859375 63.292969 C 34.859375 62.878906 34.773438 62.671875 34.609375 62.671875 M 49.445312 41.71875 L 46.953125 46.691406 L 44.082031 50.734375 L 42.089844 53.222656 L 41.714844 54.214844 L 41.964844 55.210938 L 44.769531 59.3125 C 45.226562 59.8125 45.765625 60.058594 46.390625 60.058594 L 47.761719 59.75 L 48.386719 59.191406 C 48.507812 58.941406 48.46875 58.671875 48.261719 58.382812 L 45.953125 55.335938 C 45.457031 54.671875 45.394531 53.96875 45.765625 53.222656 L 48.386719 48.246094 C 49.425781 46.257812 50.277344 44.164062 50.941406 41.96875 C 51.191406 41.179688 51.085938 40.746094 50.628906 40.660156 L 50.566406 40.660156 C 50.191406 40.660156 49.820312 41.015625 49.445312 41.71875 M 34.671875 44.640625 C 34.628906 45.84375 34.816406 46.859375 35.230469 47.6875 C 35.648438 48.515625 36.1875 48.929688 36.851562 48.929688 C 37.476562 48.929688 38.015625 48.535156 38.472656 47.75 C 38.929688 46.960938 39.179688 45.988281 39.222656 44.828125 C 39.261719 43.667969 39.078125 42.652344 38.660156 41.78125 C 38.246094 40.953125 37.726562 40.515625 37.101562 40.476562 L 37.039062 40.476562 C 36.417969 40.476562 35.875 40.890625 35.417969 41.71875 C 34.960938 42.507812 34.710938 43.480469 34.671875 44.640625 M 28.25 29.097656 C 29.207031 30.007812 30.183594 30.546875 31.179688 30.714844 C 29.808594 33.035156 28.625 35.335938 27.628906 37.613281 C 26.589844 35.875 25.964844 34.464844 25.757812 33.386719 C 25.589844 32.101562 25.652344 30.984375 25.945312 30.03125 C 26.234375 29.035156 26.652344 28.539062 27.191406 28.539062 C 27.523438 28.539062 27.875 28.722656 28.25 29.097656 M 40.90625 31.273438 C 40.78125 30.652344 40.46875 30.339844 39.96875 30.339844 L 39.347656 30.589844 L 34.609375 33.574219 L 34.109375 34.070312 C 34.152344 34.238281 34.339844 34.320312 34.671875 34.320312 L 39.84375 34.070312 C 40.261719 34.070312 40.59375 33.90625 40.84375 33.574219 C 41.089844 33.285156 41.175781 32.929688 41.089844 32.515625 L 40.90625 31.273438 M 61.039062 44.515625 C 60.996094 45.71875 61.183594 46.734375 61.601562 47.5625 C 62.015625 48.390625 62.535156 48.804688 63.160156 48.804688 L 63.222656 48.804688 C 63.84375 48.804688 64.382812 48.414062 64.839844 47.625 C 65.296875 46.796875 65.546875 45.800781 65.589844 44.640625 C 65.632812 43.480469 65.445312 42.484375 65.027344 41.65625 C 64.613281 40.828125 64.074219 40.390625 63.40625 40.351562 C 62.785156 40.351562 62.246094 40.765625 61.785156 41.59375 C 61.328125 42.382812 61.082031 43.355469 61.039062 44.515625 M 67.894531 31.894531 L 65.214844 29.285156 L 64.53125 29.097656 C 64.113281 29.097656 63.800781 29.304688 63.59375 29.71875 L 62.722656 30.902344 C 62.140625 31.730469 61.933594 32.269531 62.097656 32.515625 L 63.222656 33.015625 L 65.589844 34.007812 L 68.207031 35.5625 L 70.078125 36.371094 L 70.140625 36.371094 C 70.390625 35.335938 69.640625 33.84375 67.894531 31.894531 M 81.109375 270.019531 C 81.027344 271.183594 79.886719 272.425781 77.683594 273.75 C 75.4375 275.078125 74.148438 275.140625 73.816406 273.9375 C 73.691406 273.566406 73.402344 273.214844 72.945312 272.882812 L 71.636719 272.820312 L 65.902344 278.726562 C 63.699219 280.632812 61.371094 282.0625 58.917969 283.015625 C 55.261719 284.425781 51.085938 285.273438 46.390625 285.566406 C 42.609375 285.855469 40.40625 285.378906 39.78125 284.136719 C 39.160156 282.765625 40.074219 280.882812 42.527344 278.476562 C 43.648438 277.359375 45.414062 275.886719 47.824219 274.0625 C 49.695312 272.527344 52.019531 270.871094 54.804688 269.089844 L 55.054688 268.902344 L 55.429688 269.089844 C 59.417969 270.996094 63.65625 271.347656 68.144531 270.144531 L 71.199219 269.089844 C 74.234375 267.761719 76.976562 265.773438 79.429688 263.121094 C 80.507812 265.316406 81.089844 267.304688 81.171875 269.089844 L 81.109375 270.019531 M 97.691406 211.144531 L 99.125 214.3125 C 100.332031 218.167969 100.664062 220.21875 100.125 220.46875 L 96.757812 221.585938 C 95.800781 222.167969 95.488281 223.078125 95.820312 224.324219 C 95.988281 224.988281 96.464844 225.960938 97.257812 227.246094 L 98.875 229.484375 C 99.5 230.394531 99.875 231.203125 100 231.910156 C 100.164062 233.070312 100.1875 234.519531 100.0625 236.261719 L 99.6875 240.550781 C 99.3125 244.820312 98.542969 248.40625 97.378906 251.308594 C 96.507812 253.546875 95.449219 254.976562 94.203125 255.597656 C 91.542969 256.921875 88.984375 252.921875 86.535156 243.597656 C 90.023438 232.28125 92.851562 221.257812 95.011719 210.519531 C 95.96875 209.734375 96.859375 209.941406 97.691406 211.144531 M 97.566406 184.90625 C 96.363281 184.574219 95.988281 183.992188 96.445312 183.164062 L 96.945312 182.605469 C 97.109375 182.480469 97.503906 182.273438 98.128906 181.984375 C 100 181.113281 101.597656 180.117188 102.929688 179 C 104.007812 178.128906 104.945312 176.945312 105.734375 175.453125 C 107.894531 176.617188 111.136719 176.78125 115.457031 175.953125 C 117.910156 175.496094 120.152344 174.335938 122.191406 172.46875 C 123.851562 170.9375 125.246094 169.070312 126.367188 166.875 C 127.15625 169.195312 127.570312 171.308594 127.613281 173.214844 C 127.863281 179.0625 127.136719 184.222656 125.429688 188.699219 C 124.683594 190.769531 123.539062 191.804688 122.003906 191.804688 L 123.0625 187.328125 C 123.8125 184.179688 123.894531 182.253906 123.3125 181.546875 C 123.105469 181.257812 122.355469 183.640625 121.066406 188.699219 C 119.363281 194.042969 117.328125 197.007812 114.960938 197.589844 L 114.273438 197.589844 L 114.023438 197.464844 L 115.707031 190.6875 C 116.789062 186.253906 116.890625 183.847656 116.019531 183.476562 C 115.894531 183.433594 115.269531 185.464844 114.148438 189.566406 L 111.46875 197.960938 C 109.472656 202.191406 107.875 204.035156 106.667969 203.496094 C 106.167969 203.289062 106.003906 202.273438 106.167969 200.449219 L 106.855469 195.910156 L 107.105469 194.789062 L 108.976562 183.164062 L 108.914062 182.542969 C 108.828125 182.335938 107.976562 182.542969 106.355469 183.164062 L 101.867188 184.71875 L 97.566406 184.90625 M 94.140625 168.054688 L 97.007812 166.066406 C 97.007812 170.957031 96.859375 175.515625 96.570312 179.746094 L 96.570312 179.992188 C 94.90625 180.78125 94.035156 181.777344 93.953125 182.976562 C 93.828125 183.929688 94.179688 184.761719 95.011719 185.464844 L 96.007812 186.085938 C 94.179688 203.867188 90.109375 222.933594 83.792969 243.285156 L 79.613281 255.96875 L 78.867188 257.960938 C 78.574219 258.707031 78.410156 259.328125 78.367188 259.824219 C 75.417969 263.347656 71.988281 265.8125 68.082031 267.222656 C 63.761719 268.714844 59.667969 268.570312 55.804688 266.789062 C 53.515625 236.53125 54.410156 209.195312 58.484375 184.78125 C 58.566406 184.117188 58.214844 183.539062 57.421875 183.039062 C 56.59375 182.585938 56.113281 182.75 55.988281 183.539062 C 54.078125 194.894531 52.914062 207.558594 52.5 221.527344 C 45.976562 214.726562 41.007812 206.085938 37.601562 195.597656 C 34.527344 186.066406 33.070312 176.160156 33.238281 165.878906 C 35.6875 167.828125 38.910156 169.714844 42.898438 171.539062 C 50.671875 175.101562 59.335938 176.574219 68.894531 175.953125 C 78.492188 175.289062 86.910156 172.65625 94.140625 168.054688 M 85.785156 85.863281 C 85.953125 87.355469 85.808594 89.074219 85.351562 91.023438 C 84.894531 92.761719 84.351562 94.089844 83.730469 95 C 81.941406 97.53125 79.386719 99.707031 76.0625 101.53125 C 72.738281 103.355469 69.476562 104.410156 66.273438 104.699219 C 63.074219 105.074219 61.328125 110.855469 61.039062 122.046875 C 60.871094 128.597656 61.164062 135.726562 61.910156 143.433594 C 62.535156 150.480469 63.28125 155.308594 64.15625 157.921875 C 64.738281 159.578125 65.421875 160.410156 66.214844 160.410156 L 66.460938 160.410156 C 73.570312 159.953125 79.886719 158.8125 85.414062 156.988281 C 89.070312 155.828125 92.144531 154.441406 94.636719 152.824219 L 96.132812 155.308594 C 96.175781 156.800781 96.339844 158.441406 96.632812 160.222656 C 96.882812 161.632812 96.132812 163.019531 94.386719 164.386719 L 89.714844 167.246094 C 86.222656 169.15625 81.589844 170.707031 75.8125 171.910156 C 64.46875 174.230469 54.183594 173.570312 44.957031 169.921875 C 40.425781 168.140625 36.542969 165.902344 33.300781 163.207031 L 33.613281 154.75 C 36.605469 157.15625 40.21875 158.378906 44.457031 158.417969 C 44.914062 158.417969 45.332031 158.234375 45.703125 157.859375 C 46.203125 157.320312 46.433594 156.222656 46.390625 154.5625 L 45.703125 146.355469 C 44.75 137.40625 44.269531 130.027344 44.269531 124.222656 C 44.269531 122.109375 44.789062 118.378906 45.828125 113.03125 L 47.074219 105.261719 C 47.160156 103.601562 46.785156 102.546875 45.953125 102.089844 L 45.765625 101.964844 C 40.90625 100.390625 38.160156 98.359375 37.539062 95.871094 C 37.207031 94.339844 37.621094 92.679688 38.785156 90.898438 L 41.277344 88.597656 C 42.941406 89.507812 44.726562 90.316406 46.640625 91.023438 C 47.761719 93.261719 49.464844 94.960938 51.75 96.121094 C 53.789062 97.199219 56.15625 97.738281 58.855469 97.738281 C 63.84375 97.738281 68.457031 96.203125 72.695312 93.136719 C 77.183594 89.820312 79.59375 85.839844 79.925781 81.199219 C 81.421875 82.277344 83.375 83.832031 85.785156 85.863281 M 77.308594 103.707031 C 80.925781 101.675781 83.730469 99.25 85.722656 96.433594 C 87.675781 93.738281 88.527344 90.941406 88.28125 88.039062 C 91.644531 90.941406 94.410156 93.71875 96.570312 96.371094 C 102.636719 103.746094 107.5 111.167969 111.15625 118.628906 C 115.019531 126.542969 118.261719 135.167969 120.882812 144.492188 C 122.5 150.378906 123.6875 155.703125 124.433594 160.472656 L 124.558594 160.96875 L 124.621094 163.765625 C 123.996094 165.546875 123.144531 167.164062 122.066406 168.617188 C 120.152344 171.269531 117.929688 172.824219 115.394531 173.277344 C 111.40625 174.066406 108.746094 174.066406 107.417969 173.277344 C 106.917969 171.164062 105.941406 168.324219 104.488281 164.761719 C 102.867188 160.699219 99.976562 155.496094 95.820312 149.15625 C 93.578125 145.714844 88.464844 140.304688 80.488281 132.929688 L 79.242188 134.109375 L 80.113281 134.980469 C 85.683594 140.574219 90.066406 145.820312 93.265625 150.710938 C 91.023438 152.160156 88.175781 153.445312 84.726562 154.5625 C 79.492188 156.304688 73.507812 157.402344 66.773438 157.859375 C 65.445312 155.289062 64.46875 147.703125 63.84375 135.105469 C 63.136719 121.714844 63.636719 112.929688 65.339844 108.742188 C 65.796875 107.746094 66.191406 107.207031 66.523438 107.125 C 70.097656 106.835938 73.691406 105.695312 77.308594 103.707031 M 83.417969 51.667969 L 83.042969 51.605469 C 82.667969 51.605469 82.441406 51.769531 82.359375 52.101562 C 82.234375 52.476562 82.335938 52.765625 82.667969 52.972656 L 83.480469 53.65625 C 84.019531 54.195312 84.3125 54.652344 84.351562 55.023438 C 84.4375 55.480469 84.707031 55.707031 85.164062 55.707031 C 85.660156 55.707031 85.890625 55.375 85.847656 54.714844 C 85.808594 54.089844 85.496094 53.46875 84.914062 52.847656 L 83.417969 51.667969 M 83.105469 46.878906 L 82.917969 46.816406 C 82.585938 46.816406 82.359375 47.003906 82.234375 47.375 C 82.109375 47.75 82.273438 48.101562 82.730469 48.433594 L 85.164062 50.050781 L 86.847656 51.851562 L 88.15625 53.035156 L 88.402344 52.785156 C 88.445312 52.453125 88.238281 51.894531 87.78125 51.105469 L 86.160156 48.992188 C 85.289062 48 84.269531 47.292969 83.105469 46.878906 M 80.988281 22.941406 L 81.359375 22.941406 C 83.644531 22.941406 85.183594 24.144531 85.972656 26.546875 C 86.804688 29.199219 85.558594 31.460938 82.234375 33.324219 C 82.066406 33.324219 81.878906 33.511719 81.671875 33.886719 C 81.421875 34.257812 81.566406 34.609375 82.109375 34.941406 C 84.851562 36.601562 86.824219 37.988281 88.03125 39.105469 C 91.3125 42.214844 92.914062 45.71875 92.828125 49.613281 C 91.667969 46.671875 90.023438 43.976562 87.90625 41.53125 C 85.371094 38.839844 83.6875 37.367188 82.855469 37.117188 L 82.421875 36.992188 C 82.003906 36.992188 81.734375 37.160156 81.609375 37.492188 C 81.527344 37.824219 81.652344 38.09375 81.984375 38.300781 L 83.542969 39.605469 L 86.785156 42.527344 C 88.652344 44.308594 90.628906 47.273438 92.707031 51.417969 L 92.457031 52.910156 L 90.460938 49.242188 C 89.378906 47.5 88.28125 46.070312 87.15625 44.953125 C 85.621094 43.460938 84.226562 42.464844 82.980469 41.96875 L 82.730469 41.90625 C 82.359375 41.90625 82.148438 42.132812 82.109375 42.589844 C 82.109375 43.085938 82.398438 43.5 82.980469 43.832031 L 86.097656 46.132812 L 89.839844 50.859375 L 92.082031 54.152344 L 92.019531 54.589844 L 90.273438 54.339844 C 89.859375 54.714844 89.839844 55.191406 90.210938 55.769531 C 93.164062 58.007812 93.929688 60.804688 92.519531 64.164062 C 91.105469 67.480469 88.632812 69.136719 85.101562 69.136719 L 84.164062 69.074219 C 80.425781 75.75 75.855469 80.847656 70.453125 84.371094 C 69.910156 84.703125 69.664062 84.992188 69.703125 85.242188 C 69.746094 85.449219 70.015625 85.550781 70.515625 85.550781 C 72.21875 85.550781 74.234375 84.742188 76.5625 83.125 C 76.226562 86.234375 74.089844 89.03125 70.140625 91.519531 C 66.484375 93.839844 62.929688 95 59.480469 95 C 57.941406 95 56.675781 94.691406 55.679688 94.070312 L 55.988281 94.070312 L 60.105469 93.199219 C 61.972656 92.617188 62.847656 92.164062 62.722656 91.832031 L 62.472656 91.707031 L 61.039062 91.894531 L 58.421875 92.140625 C 55.054688 92.140625 51.191406 91.210938 46.828125 89.34375 C 39.136719 85.988281 33.464844 80.121094 29.808594 71.75 C 26.277344 63.707031 25.382812 55.398438 27.128906 46.816406 C 28.167969 41.511719 30.308594 36.183594 33.550781 30.839844 C 35.085938 30.589844 36.726562 29.761719 38.472656 28.351562 L 41.527344 24.433594 C 43.398438 22.070312 44.664062 20.703125 45.332031 20.332031 L 46.578125 20.019531 C 47.78125 20.019531 49.214844 20.539062 50.878906 21.574219 L 53.246094 22.070312 C 54.578125 22.070312 56.34375 21.472656 58.546875 20.269531 C 59.417969 19.769531 60.4375 19.523438 61.601562 19.523438 C 64.425781 19.523438 67.023438 20.890625 69.390625 23.625 C 70.097656 24.453125 71.035156 24.871094 72.195312 24.871094 C 73.070312 24.871094 74.171875 24.621094 75.5 24.125 L 80.988281 22.941406 M 83.105469 10.011719 L 86.785156 14.546875 C 88.402344 15.210938 90.085938 16.808594 91.832031 19.335938 C 93.078125 21.117188 94.179688 23.066406 95.136719 25.179688 C 96.757812 28.828125 97.070312 33.59375 96.070312 39.480469 C 95.574219 42.421875 94.90625 45.015625 94.078125 47.253906 C 93.328125 43.769531 91.707031 40.808594 89.214844 38.359375 L 86.410156 35.9375 L 84.351562 34.382812 L 87.78125 31.148438 C 89.027344 29.574219 89.546875 28.207031 89.339844 27.046875 C 89.132812 25.429688 88.570312 24.019531 87.65625 22.816406 C 86.367188 21.242188 84.621094 20.457031 82.421875 20.457031 L 81.046875 20.578125 C 80.21875 20.703125 78.785156 21.222656 76.746094 22.132812 C 74.878906 22.964844 73.609375 23.378906 72.945312 23.378906 L 72.570312 23.316406 C 72.28125 23.273438 70.886719 21.90625 68.394531 19.210938 C 65.984375 16.601562 64.050781 15.292969 62.597656 15.292969 L 61.539062 15.480469 L 57.359375 18.09375 L 54.742188 19.648438 C 53.953125 20.144531 53.332031 20.394531 52.875 20.394531 L 52.0625 20.207031 L 50.378906 19.335938 C 48.800781 18.546875 47.699219 18.15625 47.074219 18.15625 C 46.246094 18.15625 45.289062 18.464844 44.207031 19.085938 C 43.378906 19.585938 42.007812 21.015625 40.09375 23.378906 L 37.101562 27.109375 C 35.441406 28.558594 33.757812 29.285156 32.054688 29.285156 C 30.890625 29.285156 29.933594 28.910156 29.1875 28.164062 C 27.648438 26.714844 26.589844 24.808594 26.007812 22.445312 C 25.507812 20.125 25.570312 18.070312 26.195312 16.289062 C 26.691406 14.921875 27.480469 13.699219 28.5625 12.621094 C 28.480469 14.195312 28.914062 15.378906 29.871094 16.164062 C 31.035156 17.078125 32.34375 17.53125 33.796875 17.53125 C 35.917969 17.53125 37.726562 16.683594 39.222656 14.984375 C 42.960938 10.714844 45.539062 8.394531 46.953125 8.019531 L 48.449219 7.832031 L 51.4375 8.457031 L 53.871094 9.015625 C 54.535156 9.015625 55.097656 8.789062 55.554688 8.332031 L 57.734375 5.347656 C 59.8125 1.949219 61.371094 0.1875 62.410156 0.0625 L 62.847656 0 C 64.050781 0 65.527344 0.601562 67.273438 1.804688 L 68.957031 3.109375 C 69.621094 3.605469 70.265625 3.957031 70.886719 4.164062 L 76.375 5.59375 C 78.824219 5.925781 81.070312 7.398438 83.105469 10.011719 "/>
</g>
</svg>
