<?xml version="1.0" encoding="UTF-8"?>
<svg xmlns="http://www.w3.org/2000/svg" xmlns:xlink="http://www.w3.org/1999/xlink" width="128pt" height="103pt" viewBox="0 0 128 103" version="1.1">
<g id="surface1">
<path style=" stroke:none;fill-rule:nonzero;fill:rgb(100%,100%,100%);fill-opacity:1;" d="M 12.683594 85.230469 C 12.738281 85.039062 12.835938 84.921875 12.96875 84.886719 C 13.21875 84.808594 13.402344 84.867188 13.519531 85.058594 L 14.785156 86.707031 C 16.015625 87.957031 17.589844 88.96875 19.511719 89.738281 L 19.65625 89.941406 L 19.773438 90.316406 C 19.734375 90.507812 19.523438 90.625 19.136719 90.664062 C 17.082031 89.835938 15.390625 88.738281 14.066406 87.371094 L 12.625 85.492188 L 12.683594 85.230469 M 7.003906 76.882812 C 7.023438 77.382812 7.128906 77.730469 7.320312 77.921875 C 7.722656 78.328125 8.695312 78.671875 10.230469 78.960938 C 11 79.019531 11.894531 79.367188 12.914062 80.003906 L 15.1875 81.621094 C 15.863281 82.21875 16.4375 82.652344 16.917969 82.921875 C 17.359375 82.941406 17.601562 83.246094 17.640625 83.84375 C 17.660156 84.421875 17.359375 84.617188 16.746094 84.421875 C 16.285156 84.289062 15.660156 83.875 14.871094 83.179688 C 14.160156 82.546875 13.679688 82.21875 13.429688 82.199219 L 11.789062 83.441406 C 11.152344 83.941406 10.558594 84.289062 10 84.480469 L 6.140625 86.417969 C 4.582031 87.1875 3.304688 87.84375 2.304688 88.382812 C 1.441406 88.765625 1.191406 89.238281 1.554688 89.796875 L 3.316406 89.855469 L 5.359375 89.046875 L 7.40625 88.179688 L 11.585938 86.445312 L 11.875 86.472656 L 11.933594 86.445312 L 12.019531 86.503906 C 12.574219 86.714844 12.882812 87.070312 12.941406 87.570312 L 13.054688 87.6875 L 12.941406 87.773438 L 12.882812 87.976562 L 11.125 89.480469 L 7.550781 92.484375 C 6.070312 93.699219 4.96875 94.785156 4.238281 95.75 C 4.910156 96.75 5.957031 96.742188 7.378906 95.71875 L 9.195312 94.074219 L 11.414062 91.820312 C 12.257812 91.03125 12.941406 90.507812 13.460938 90.257812 L 14.527344 89.304688 L 15.738281 90.257812 L 15.332031 90.894531 L 15.390625 90.953125 L 10.867188 97.886719 C 10.386719 98.523438 10.078125 99.148438 9.945312 99.765625 C 9.769531 100.574219 10.070312 101.007812 10.835938 101.066406 C 11.355469 100.890625 11.855469 100.449219 12.335938 99.734375 L 13.488281 97.945312 L 17.8125 91.300781 L 17.871094 91.183594 L 18.070312 91.183594 L 18.359375 91.328125 C 18.667969 91.367188 18.90625 91.472656 19.082031 91.644531 L 19.339844 91.761719 L 19.253906 91.992188 C 19.3125 92.222656 19.242188 92.503906 19.050781 92.832031 L 17.0625 99.359375 L 16.917969 100.167969 C 16.859375 100.226562 16.832031 100.304688 16.832031 100.402344 L 16.773438 100.660156 L 16.773438 100.832031 C 16.832031 101.199219 16.996094 101.449219 17.265625 101.585938 C 17.554688 101.757812 17.839844 101.691406 18.128906 101.382812 L 18.761719 100.226562 L 19.195312 98.957031 L 20.925781 93.699219 L 21.183594 92.976562 L 21.386719 92.3125 L 21.730469 92.050781 L 22.164062 91.734375 L 23.488281 90.722656 C 25.238281 88.621094 26.46875 86.617188 27.179688 84.710938 L 27.640625 82.023438 L 28.878906 80.898438 C 28.304688 79.570312 27.59375 78.441406 26.746094 77.519531 C 26.226562 76.941406 25.625 76.429688 24.929688 75.988281 L 24.066406 75.496094 L 23.75 75.785156 L 23.808594 75.785156 L 23.316406 76.246094 L 22.914062 76.535156 C 22.164062 77.152344 21.597656 77.429688 21.214844 77.375 C 20.945312 77.007812 20.453125 76.804688 19.742188 76.765625 L 17.351562 76.707031 C 16.734375 76.671875 15.101562 76.699219 12.453125 76.796875 L 7.003906 76.882812 M 5.332031 75.582031 L 5.359375 75.523438 L 5.359375 75.582031 L 10.230469 75.753906 L 15.449219 75.609375 L 19.597656 75.785156 L 20.40625 75.898438 L 21.703125 76.1875 L 21.644531 76.1875 L 21.875 76.21875 L 24.09375 74.167969 L 24.5 74.453125 L 24.816406 74.597656 C 27.890625 76.390625 29.65625 78.652344 30.121094 81.390625 C 29.464844 81.753906 28.996094 82.402344 28.707031 83.324219 L 28.332031 85.175781 L 27.582031 86.90625 L 26.457031 88.785156 C 25.902344 89.980469 25 91.097656 23.75 92.136719 L 22.078125 93.320312 L 21.097656 97.25 C 20.273438 100.003906 19.40625 101.691406 18.503906 102.308594 L 18.476562 102.308594 L 17.726562 102.710938 C 16.898438 102.867188 16.304688 102.527344 15.9375 101.699219 C 15.59375 100.949219 15.574219 100.226562 15.882812 99.535156 L 16.429688 97.539062 L 17.035156 95.519531 L 17.695312 93.554688 C 17.695312 93.457031 17.542969 93.6875 17.234375 94.246094 C 16.160156 96.210938 15.390625 97.425781 14.929688 97.886719 L 13.71875 99.707031 L 12.394531 101.46875 C 11.894531 102.164062 11.203125 102.394531 10.320312 102.164062 C 9.394531 101.949219 8.898438 101.410156 8.820312 100.546875 L 8.878906 100.113281 C 8.914062 99.707031 9.019531 99.3125 9.195312 98.925781 C 9.5 98.078125 10.097656 97.011719 10.980469 95.71875 L 12.96875 92.570312 L 13.691406 91.445312 L 9.484375 95.171875 C 8.003906 96.597656 6.90625 97.492188 6.195312 97.859375 L 5.1875 98.203125 L 4.84375 98.203125 L 4.699219 98.175781 C 4.007812 98.078125 3.457031 97.609375 3.054688 96.761719 L 3.054688 96.5 C 2.996094 96.019531 3.121094 95.527344 3.429688 95.027344 C 3.777344 94.332031 4.46875 93.582031 5.503906 92.773438 L 7.867188 90.78125 L 10.921875 88.148438 C 11.019531 88.113281 10.953125 88.082031 10.722656 88.0625 L 8.847656 88.871094 L 4.238281 90.808594 L 2.21875 91.300781 L 1.730469 91.300781 L 1.527344 91.269531 L 1.09375 91.125 L 0.949219 91.066406 L 0.578125 90.75 L 0.402344 90.546875 L 0.375 90.492188 L 0.289062 90.375 L 0.117188 90.058594 L 0.0585938 89.824219 L 0.0273438 89.769531 L 0 89.421875 L 0.230469 88.757812 L 0.664062 88.292969 L 1.613281 87.542969 L 2.679688 86.90625 L 2.59375 86.964844 L 10.347656 82.921875 L 10.492188 82.863281 L 10.808594 82.6875 L 11.355469 82.167969 C 11.664062 81.6875 11.796875 81.292969 11.757812 80.984375 C 11.742188 80.8125 11.617188 80.648438 11.386719 80.492188 L 11.066406 80.320312 L 10.261719 80.203125 L 10.175781 80.203125 L 9.855469 80.234375 L 8.070312 80.148438 C 7.300781 79.933594 6.667969 79.550781 6.167969 78.992188 C 5.804688 78.605469 5.5625 77.988281 5.449219 77.140625 L 5.417969 77.054688 L 5.417969 76.824219 L 5.390625 76.449219 L 5.332031 75.640625 L 5.304688 75.667969 L 5.304688 75.582031 L 5.332031 75.523438 L 5.332031 75.582031 M 1.5 71.941406 C 1.019531 72.230469 0.652344 72.113281 0.402344 71.59375 C 0.152344 71.074219 0.269531 70.671875 0.75 70.382812 C 4.957031 67.878906 9.550781 66.5 14.527344 66.25 C 19.773438 65.980469 24.414062 67.039062 28.449219 69.429688 C 28.929688 69.699219 29.003906 70.074219 28.679688 70.554688 C 28.351562 71.015625 27.949219 71.113281 27.46875 70.84375 C 23.703125 68.609375 19.339844 67.65625 14.382812 67.984375 C 9.730469 68.273438 5.4375 69.589844 1.5 71.941406 M 11.269531 62.753906 L 17.148438 62.957031 L 22.941406 63.765625 C 25.035156 64.226562 26.871094 64.871094 28.449219 65.699219 C 28.929688 65.949219 29.003906 66.316406 28.679688 66.796875 C 28.351562 67.28125 27.949219 67.386719 27.46875 67.117188 C 25.929688 66.328125 24.105469 65.71875 21.992188 65.296875 L 16.226562 64.632812 L 11.210938 64.488281 C 9.269531 64.582031 7.628906 64.902344 6.285156 65.441406 C 5.785156 65.652344 5.410156 65.5 5.160156 64.976562 C 4.910156 64.4375 5.042969 64.074219 5.5625 63.878906 C 7.136719 63.226562 9.039062 62.851562 11.269531 62.753906 M 22.886719 34.265625 C 23.019531 32.183594 23.105469 31.097656 23.144531 31 L 24.84375 31.175781 L 24.613281 34.382812 C 24.441406 36.90625 24.355469 39.195312 24.355469 41.257812 C 24.355469 43.03125 24.710938 45.265625 25.421875 47.960938 C 25.515625 47.902344 25.613281 47.875 25.710938 47.875 L 27.988281 48.191406 C 29.523438 48.671875 30.5625 49.609375 31.097656 50.996094 C 31.597656 52.265625 31.734375 53.699219 31.503906 55.300781 L 30.984375 57.4375 C 30.886719 57.726562 30.695312 57.898438 30.40625 57.957031 C 30.101562 58.015625 29.839844 57.957031 29.628906 57.785156 C 29.300781 57.515625 28.890625 57.320312 28.390625 57.207031 C 28.3125 57.570312 28.023438 57.878906 27.523438 58.128906 C 27.027344 58.382812 26.441406 58.507812 25.765625 58.507812 L 24.414062 58.273438 C 23.011719 59.179688 21.464844 59.671875 19.773438 59.75 L 19.28125 59.75 C 17.6875 59.671875 16.1875 59.21875 14.785156 58.390625 L 13.777344 58.507812 C 13.066406 58.507812 12.460938 58.371094 11.960938 58.101562 C 11.460938 57.832031 11.191406 57.503906 11.152344 57.121094 C 10.710938 57.175781 10.300781 57.300781 9.914062 57.496094 C 9.664062 57.609375 9.5 57.707031 9.425781 57.785156 C 9.214844 57.957031 8.953125 58.015625 8.648438 57.957031 C 8.359375 57.898438 8.167969 57.726562 8.070312 57.4375 C 7.839844 56.820312 7.667969 56.109375 7.550781 55.300781 C 7.320312 53.699219 7.457031 52.265625 7.953125 50.996094 C 8.492188 49.609375 9.53125 48.671875 11.066406 48.191406 C 11.855469 47.941406 12.613281 47.835938 13.34375 47.875 L 13.632812 47.960938 C 14.34375 45.265625 14.699219 43.03125 14.699219 41.257812 C 14.699219 39.195312 14.621094 36.90625 14.46875 34.382812 L 14.210938 31.175781 L 15.9375 31 L 16.199219 34.265625 C 16.351562 36.847656 16.429688 39.175781 16.429688 41.257812 C 16.429688 43.394531 16.007812 45.976562 15.160156 49 L 13.804688 53.105469 C 13.613281 53.546875 13.277344 53.71875 12.796875 53.625 C 12.605469 53.585938 12.441406 53.480469 12.308594 53.304688 C 12.171875 53.132812 12.113281 52.941406 12.132812 52.726562 L 12.363281 49.664062 C 10.921875 49.894531 9.992188 50.550781 9.570312 51.628906 C 9.109375 52.84375 9.050781 54.238281 9.394531 55.820312 C 10.453125 55.335938 11.585938 55.222656 12.796875 55.472656 L 13.144531 55.589844 L 13.777344 55.53125 C 14.507812 55.53125 15.132812 55.675781 15.652344 55.964844 C 16.167969 56.253906 16.429688 56.609375 16.429688 57.03125 L 16.398438 57.292969 C 17.339844 57.753906 18.386719 57.996094 19.542969 58.015625 C 20.867188 57.996094 22.066406 57.667969 23.144531 57.03125 L 23.117188 57.03125 C 23.117188 56.609375 23.375 56.253906 23.894531 55.964844 C 24.414062 55.675781 25.035156 55.53125 25.765625 55.53125 L 26.027344 55.558594 L 26.257812 55.472656 C 27.46875 55.222656 28.601562 55.335938 29.65625 55.820312 C 30.003906 54.238281 29.945312 52.84375 29.484375 51.628906 C 29.0625 50.550781 28.128906 49.894531 26.691406 49.664062 L 26.921875 52.726562 C 26.9375 52.941406 26.882812 53.132812 26.746094 53.304688 L 26.257812 53.625 C 25.777344 53.71875 25.441406 53.546875 25.25 53.105469 C 24.769531 51.890625 24.316406 50.523438 23.894531 49 C 23.046875 45.976562 22.625 43.394531 22.625 41.257812 C 22.625 39.140625 22.710938 36.808594 22.886719 34.265625 M 30.292969 14.589844 C 28.929688 13.972656 27.648438 13.675781 26.457031 13.695312 C 26.015625 13.714844 25.824219 13.445312 25.882812 12.886719 C 25.941406 12.347656 26.191406 12.066406 26.632812 12.046875 C 28.035156 12.027344 29.535156 12.375 31.128906 13.085938 C 32.242188 13.570312 33.578125 14.3125 35.132812 15.3125 C 36.652344 16.3125 37.882812 17.238281 38.824219 18.085938 C 40.09375 19.242188 41.082031 20.464844 41.792969 21.753906 C 42.023438 22.140625 41.917969 22.488281 41.476562 22.796875 C 41.015625 23.105469 40.679688 23.054688 40.464844 22.652344 C 39.257812 20.53125 37.015625 18.472656 33.75 16.46875 C 32.234375 15.5625 31.082031 14.9375 30.292969 14.589844 M 30.957031 18.777344 C 27.574219 17.410156 23.980469 17.085938 20.175781 17.796875 C 19.714844 17.894531 19.511719 17.660156 19.570312 17.105469 C 19.648438 16.5625 19.90625 16.246094 20.347656 16.148438 C 24.402344 15.398438 28.226562 15.785156 31.820312 17.304688 C 35.605469 18.90625 38.371094 21.484375 40.121094 25.050781 C 40.3125 25.472656 40.199219 25.839844 39.773438 26.148438 C 39.332031 26.453125 39.007812 26.398438 38.792969 25.972656 C 37.179688 22.640625 34.566406 20.242188 30.957031 18.777344 M 82.546875 16.46875 C 81.027344 17.410156 79.800781 18.289062 78.859375 19.097656 C 77.550781 20.234375 76.542969 21.417969 75.832031 22.652344 C 75.621094 23.054688 75.292969 23.105469 74.851562 22.796875 C 74.410156 22.488281 74.292969 22.140625 74.503906 21.753906 C 75.234375 20.445312 76.234375 19.222656 77.503906 18.085938 C 78.445312 17.21875 79.664062 16.292969 81.164062 15.3125 C 82.71875 14.3125 84.054688 13.570312 85.171875 13.085938 C 86.765625 12.375 88.261719 12.027344 89.667969 12.046875 C 90.109375 12.066406 90.367188 12.347656 90.445312 12.886719 C 90.503906 13.445312 90.300781 13.714844 89.839844 13.695312 C 88.667969 13.675781 87.390625 13.972656 86.003906 14.589844 C 85.21875 14.9375 84.066406 15.5625 82.546875 16.46875 M 54.761719 12.972656 C 53.957031 11.835938 53.550781 10.5625 53.550781 9.15625 C 53.550781 7.753906 53.957031 6.480469 54.761719 5.34375 C 55.550781 4.226562 56.578125 3.429688 57.847656 2.945312 C 55.984375 3.292969 54.273438 4.003906 52.714844 5.085938 C 51.140625 6.164062 49.863281 7.519531 48.882812 9.15625 C 49.863281 10.796875 51.140625 12.152344 52.714844 13.230469 C 54.273438 14.3125 55.984375 15.011719 57.847656 15.339844 C 56.578125 14.859375 55.550781 14.070312 54.761719 12.972656 M 52.023438 15.976562 C 49.507812 14.453125 47.546875 12.394531 46.144531 9.792969 L 45.828125 9.15625 L 46.144531 8.550781 C 47.546875 5.933594 49.507812 3.859375 52.023438 2.339844 C 54.542969 0.816406 57.269531 0.0585938 60.210938 0.0585938 C 63.167969 0.0585938 65.90625 0.816406 68.425781 2.339844 C 70.941406 3.859375 72.902344 5.933594 74.304688 8.550781 L 74.621094 9.15625 L 74.304688 9.792969 C 72.902344 12.394531 70.941406 14.453125 68.425781 15.976562 C 65.90625 17.480469 63.167969 18.230469 60.210938 18.230469 C 57.269531 18.230469 54.542969 17.480469 52.023438 15.976562 M 62.257812 4.941406 C 61.527344 4.941406 60.890625 5.210938 60.355469 5.75 C 59.835938 6.269531 59.574219 6.90625 59.574219 7.65625 C 59.574219 8.40625 59.835938 9.050781 60.355469 9.589844 C 60.890625 10.113281 61.527344 10.371094 62.257812 10.371094 C 63.003906 10.371094 63.648438 10.113281 64.1875 9.589844 C 64.707031 9.050781 64.964844 8.40625 64.964844 7.65625 C 64.964844 6.90625 64.707031 6.269531 64.1875 5.75 C 63.648438 5.210938 63.003906 4.941406 62.257812 4.941406 M 62.601562 2.945312 C 63.871094 3.429688 64.898438 4.226562 65.6875 5.34375 C 66.492188 6.480469 66.898438 7.753906 66.898438 9.15625 C 66.898438 10.5625 66.492188 11.835938 65.6875 12.972656 C 64.898438 14.070312 63.871094 14.859375 62.601562 15.339844 C 64.464844 15.011719 66.175781 14.3125 67.734375 13.230469 C 69.289062 12.152344 70.566406 10.796875 71.566406 9.15625 C 70.566406 7.519531 69.289062 6.164062 67.734375 5.085938 C 66.175781 4.003906 64.464844 3.292969 62.601562 2.945312 M 119.726562 88.265625 L 120.910156 85.320312 C 121.179688 84.644531 121.292969 83.980469 121.253906 83.324219 C 121.238281 82.382812 120.9375 81.523438 120.363281 80.753906 C 119.882812 80.058594 119.246094 79.480469 118.460938 79.019531 C 117.75 78.617188 117.09375 78.414062 116.5 78.414062 C 115.519531 78.414062 114.347656 78.703125 112.984375 79.28125 L 112.695312 81.300781 C 112.523438 82.496094 112.367188 83.09375 112.234375 83.09375 L 111.65625 83.09375 C 111.523438 83.09375 111.371094 82.496094 111.195312 81.300781 L 110.910156 79.28125 C 109.542969 78.703125 108.371094 78.414062 107.390625 78.414062 C 106.816406 78.414062 106.164062 78.617188 105.433594 79.019531 C 104.664062 79.480469 104.03125 80.058594 103.53125 80.753906 C 102.972656 81.523438 102.675781 82.371094 102.636719 83.296875 C 102.636719 83.988281 102.75 84.664062 102.980469 85.320312 C 103.308594 86.28125 103.703125 87.265625 104.164062 88.265625 L 104.222656 88.613281 C 106.335938 92.964844 108.8125 95.140625 111.65625 95.140625 L 112.234375 95.140625 C 115.078125 95.140625 117.558594 92.964844 119.671875 88.613281 L 119.726562 88.265625 M 116.472656 68.617188 C 116.335938 69.175781 116.011719 69.359375 115.492188 69.167969 C 111.148438 67.664062 106.671875 67.25 102.058594 67.925781 C 97.121094 68.617188 93.039062 70.449219 89.808594 73.414062 L 88.570312 73.386719 C 88.148438 72.980469 88.148438 72.597656 88.570312 72.230469 C 92.03125 69.050781 96.363281 67.058594 101.570312 66.25 C 106.488281 65.5 111.265625 65.914062 115.894531 67.492188 C 116.414062 67.683594 116.605469 68.058594 116.472656 68.617188 M 108.402344 76.160156 C 106.691406 76.3125 105.394531 76.640625 104.511719 77.140625 C 103.105469 77.914062 101.511719 78.953125 99.726562 80.261719 L 101.453125 81.300781 C 101.664062 80.761719 101.933594 80.273438 102.261719 79.828125 C 102.914062 78.90625 103.761719 78.164062 104.796875 77.605469 C 105.71875 77.105469 106.585938 76.851562 107.390625 76.851562 C 108.679688 76.851562 110.199219 77.238281 111.945312 78.007812 C 113.734375 77.238281 115.25 76.851562 116.5 76.851562 C 117.324219 76.851562 118.199219 77.105469 119.121094 77.605469 C 120.160156 78.164062 121.003906 78.90625 121.660156 79.828125 C 121.984375 80.292969 122.246094 80.78125 122.4375 81.300781 L 124.195312 80.261719 C 122.464844 79.011719 120.871094 77.96875 119.410156 77.140625 C 118.507812 76.640625 117.203125 76.3125 115.492188 76.160156 C 114.339844 76.0625 113.148438 76.042969 111.917969 76.101562 C 110.707031 76.042969 109.535156 76.0625 108.402344 76.160156 M 97.996094 78.585938 L 99.496094 76.738281 L 101.398438 74.398438 C 102.183594 73.53125 102.964844 72.867188 103.730469 72.402344 C 104.980469 71.632812 106.519531 71.324219 108.34375 71.480469 C 109.535156 71.59375 110.734375 71.882812 111.945312 72.347656 C 113.175781 71.882812 114.386719 71.59375 115.578125 71.480469 C 117.382812 71.324219 118.921875 71.632812 120.1875 72.402344 C 120.957031 72.867188 121.734375 73.53125 122.523438 74.398438 L 124.425781 76.738281 C 125.734375 78.507812 126.675781 79.445312 127.25 79.539062 C 127.519531 79.597656 127.722656 79.769531 127.855469 80.058594 C 127.953125 80.328125 127.902344 80.589844 127.710938 80.839844 L 125.867188 83.152344 C 125.003906 84.308594 124.4375 85.195312 124.167969 85.808594 C 123.628906 87.0625 122.628906 88.148438 121.167969 89.074219 C 119.996094 91.578125 118.652344 93.476562 117.132812 94.765625 C 115.636719 96.058594 114 96.703125 112.234375 96.703125 L 111.65625 96.703125 C 109.910156 96.703125 108.277344 96.058594 106.757812 94.765625 C 105.238281 93.476562 103.894531 91.578125 102.722656 89.074219 C 101.300781 88.148438 100.3125 87.0625 99.753906 85.808594 C 99.292969 84.789062 98.109375 83.132812 96.207031 80.839844 C 95.996094 80.589844 95.949219 80.328125 96.066406 80.058594 C 96.160156 79.769531 96.351562 79.597656 96.640625 79.539062 C 97.007812 79.480469 97.457031 79.164062 97.996094 78.585938 M 109.4375 63.765625 C 108.015625 63.515625 106.355469 63.542969 104.453125 63.851562 C 103.320312 64.042969 101.683594 64.4375 99.550781 65.035156 C 94.824219 66.328125 91.328125 67.90625 89.0625 69.773438 L 87.792969 69.714844 C 87.390625 69.3125 87.398438 68.9375 87.820312 68.589844 C 89.1875 67.453125 90.859375 66.453125 92.835938 65.585938 C 94.277344 64.929688 96.113281 64.265625 98.34375 63.589844 C 100.550781 62.917969 102.445312 62.445312 104.019531 62.175781 C 106.230469 61.808594 108.179688 61.78125 109.871094 62.089844 C 110.410156 62.183594 110.609375 62.511719 110.476562 63.070312 C 110.324219 63.628906 109.976562 63.859375 109.4375 63.765625 M 97.21875 34.726562 C 98.582031 33.859375 99.78125 33.429688 100.820312 33.429688 C 101.972656 33.429688 103.011719 34.023438 103.933594 35.21875 C 104.855469 36.433594 105.578125 38.128906 106.09375 40.304688 C 106.5 41.980469 106 44.183594 104.597656 46.921875 C 103.867188 48.347656 102.992188 49.734375 101.972656 51.082031 C 101.511719 51.523438 101.03125 51.589844 100.53125 51.285156 C 100.226562 51.109375 100.148438 50.851562 100.300781 50.503906 L 100.589844 50.039062 C 101.589844 48.730469 102.472656 47.296875 103.242188 45.734375 C 104.296875 43.558594 104.691406 41.882812 104.421875 40.707031 C 104.039062 39.109375 103.492188 37.886719 102.78125 37.039062 C 102.128906 36.289062 101.425781 35.914062 100.675781 35.914062 C 99.945312 35.914062 99.207031 36.144531 98.457031 36.605469 C 97.84375 37.011719 97.449219 37.386719 97.273438 37.734375 C 96.871094 38.617188 96.8125 39.753906 97.101562 41.140625 C 97.410156 42.566406 97.523438 43.367188 97.449219 43.539062 C 97.21875 44.039062 96.8125 44.386719 96.238281 44.582031 C 95.777344 44.734375 95.480469 44.917969 95.34375 45.128906 C 95.152344 45.4375 95.054688 46.0625 95.054688 47.007812 C 95.054688 47.835938 95.660156 48.171875 96.871094 48.019531 C 97.929688 47.902344 98.648438 47.652344 99.035156 47.265625 C 99.707031 46.613281 100.292969 45.84375 100.792969 44.957031 C 101.328125 43.972656 101.597656 43.125 101.597656 42.414062 C 101.597656 41.855469 101.445312 41.246094 101.136719 40.59375 C 100.792969 39.898438 100.398438 39.429688 99.957031 39.175781 C 99.839844 39.101562 99.667969 39.148438 99.4375 39.320312 C 99.265625 39.476562 98.746094 39.226562 97.878906 38.570312 L 99.378906 37.703125 L 100.820312 37.675781 C 101.570312 38.097656 102.183594 38.800781 102.664062 39.785156 C 103.105469 40.6875 103.328125 41.566406 103.328125 42.414062 C 103.328125 43.472656 102.953125 44.65625 102.203125 45.96875 C 101.648438 46.910156 101.003906 47.757812 100.273438 48.507812 L 98.773438 50.417969 L 96.929688 52.699219 C 96.429688 53.21875 95.960938 53.480469 95.515625 53.480469 C 94.652344 53.480469 94.039062 52.59375 93.671875 50.820312 C 93.441406 49.722656 93.328125 48.453125 93.328125 47.007812 C 93.328125 45.773438 93.5 44.859375 93.84375 44.261719 C 94.171875 43.683594 94.785156 43.242188 95.691406 42.933594 L 95.835938 42.875 C 95.890625 42.625 95.699219 42.113281 95.257812 41.34375 L 95.199219 41.171875 C 94.835938 40.457031 94.625 39.699219 94.566406 38.886719 C 94.507812 38.097656 94.625 37.425781 94.910156 36.867188 C 95.21875 36.230469 95.988281 35.519531 97.21875 34.726562 M 93.585938 34.929688 L 93.988281 34.09375 C 94.929688 32.148438 95.804688 30.816406 96.613281 30.105469 C 98.226562 28.679688 100.3125 28.382812 102.867188 29.210938 C 105.902344 30.191406 108.046875 32.445312 109.292969 35.96875 C 110.082031 38.167969 110.429688 40.273438 110.332031 42.296875 C 110.273438 43.320312 109.648438 44.726562 108.457031 46.515625 L 105.085938 50.964844 L 103.183594 53.535156 C 102.183594 55.117188 101.078125 56.367188 99.871094 57.292969 C 98.429688 58.390625 97.035156 58.84375 95.691406 58.652344 C 93.769531 58.382812 92.308594 57.050781 91.308594 54.664062 L 90.386719 50.9375 L 89.464844 48.191406 L 90.558594 48.828125 C 91.328125 49.386719 91.847656 50.03125 92.117188 50.761719 L 93.039062 54.347656 C 93.613281 55.867188 94.585938 56.734375 95.949219 56.945312 C 96.851562 57.082031 97.871094 56.695312 99.003906 55.789062 C 100.003906 54.960938 100.90625 53.902344 101.714844 52.613281 L 103.730469 49.894531 L 106.441406 46.199219 C 107.402344 44.734375 107.902344 43.609375 107.941406 42.816406 C 108.015625 40.890625 107.804688 39.089844 107.304688 37.414062 C 106.402344 34.429688 104.691406 32.53125 102.175781 31.722656 C 100.195312 31.066406 98.667969 31.125 97.59375 31.894531 C 96.957031 32.339844 96.277344 33.3125 95.546875 34.816406 L 95.113281 35.738281 C 94.554688 36.796875 93.738281 37.839844 92.664062 38.859375 C 91.816406 39.667969 91.117188 40.207031 90.558594 40.476562 L 89.292969 40.707031 L 88.601562 40.652344 L 90.472656 39.320312 C 91.835938 37.722656 92.875 36.257812 93.585938 34.929688 M 95.949219 16.148438 C 96.410156 16.246094 96.671875 16.5625 96.726562 17.105469 C 96.785156 17.660156 96.582031 17.894531 96.121094 17.796875 C 92.316406 17.085938 88.726562 17.410156 85.34375 18.777344 C 81.75 20.242188 79.136719 22.640625 77.503906 25.972656 C 77.292969 26.398438 76.976562 26.453125 76.550781 26.148438 C 76.109375 25.839844 75.984375 25.472656 76.175781 25.050781 C 77.925781 21.484375 80.691406 18.90625 84.476562 17.304688 C 88.070312 15.785156 91.894531 15.398438 95.949219 16.148438 "/>
</g>
</svg>
