<?xml version="1.0" encoding="UTF-8"?>
<svg xmlns="http://www.w3.org/2000/svg" xmlns:xlink="http://www.w3.org/1999/xlink" width="128pt" height="168pt" viewBox="0 0 128 168" version="1.1">
<g id="surface1">
<path style=" stroke:none;fill-rule:nonzero;fill:rgb(100%,100%,100%);fill-opacity:1;" d="M 124.59375 50.324219 C 123.34375 53.691406 122.46875 57.5625 121.964844 61.9375 C 121.570312 65.261719 121.363281 69.230469 121.339844 73.847656 C 121.339844 73.957031 121.417969 74.066406 121.570312 74.175781 C 120.011719 74.128906 118.378906 74.359375 116.671875 74.863281 C 115.398438 75.257812 113.867188 75.878906 112.066406 76.734375 C 110.578125 77.457031 108.957031 78.132812 107.203125 78.765625 C 107.75 74.480469 109.042969 69.769531 111.082031 64.628906 L 113.480469 59.445312 C 114.46875 57.367188 115.113281 55.59375 115.421875 54.128906 C 115.96875 49.734375 116.570312 46.476562 117.230469 44.355469 C 118.390625 40.570312 120.550781 38.460938 123.707031 38.023438 C 126.535156 37.628906 127.652344 39.179688 127.058594 42.679688 C 126.863281 43.863281 126.042969 46.410156 124.59375 50.324219 M 115.257812 50.027344 C 114.949219 51.933594 114.378906 53.964844 113.546875 56.132812 L 111.082031 62.035156 C 108.363281 68.683594 106.699219 74.382812 106.085938 79.128906 L 102.894531 80.078125 C 102.960938 75.507812 101.800781 71.078125 99.410156 66.792969 C 97.21875 62.855469 94.203125 59.355469 90.367188 56.296875 C 85.128906 52.140625 80.21875 49.613281 75.640625 48.71875 C 76.492188 47.558594 77.183594 46.453125 77.710938 45.402344 L 78.039062 45.371094 C 79.726562 45.21875 80.976562 44.136719 81.785156 42.121094 C 82.621094 40.046875 82.335938 38.339844 80.933594 37.003906 L 80.472656 36.941406 L 80.832031 36.414062 L 81.226562 35.429688 C 84.011719 35.628906 86.457031 35.417969 88.558594 34.808594 C 90.402344 34.261719 91.871094 33.429688 92.964844 32.3125 L 108.15625 34.050781 C 113.589844 34.863281 118.554688 35.902344 123.050781 37.167969 C 120.527344 37.476562 118.609375 39.0625 117.296875 41.925781 C 116.527344 43.632812 115.847656 46.332031 115.257812 50.027344 M 116.175781 75.980469 C 118.195312 75.257812 120.078125 74.929688 121.832031 74.996094 L 121.867188 74.996094 C 125.023438 75.628906 126.578125 77.191406 126.535156 79.6875 C 123.816406 81.085938 120.113281 82.539062 115.421875 84.050781 C 109.21875 86.039062 105.4375 87.296875 104.078125 87.820312 L 85.238281 94.742188 L 85.074219 94.480469 C 83.871094 92.839844 82.554688 91.417969 81.128906 90.214844 C 82.355469 90.632812 83.640625 90.90625 84.976562 91.035156 C 89.207031 91.496094 92.988281 90.972656 96.320312 89.460938 C 100.242188 87.667969 102.414062 84.878906 102.828125 81.097656 C 105.898438 80.375 108.570312 79.457031 110.851562 78.339844 C 113.394531 77.136719 115.167969 76.351562 116.175781 75.980469 M 101.746094 78.929688 C 101.699219 82.082031 100.691406 84.617188 98.71875 86.542969 C 96.964844 88.269531 94.585938 89.375 91.585938 89.855469 C 88.800781 90.316406 85.875 90.183594 82.804688 89.460938 C 79.757812 88.761719 77.109375 87.613281 74.851562 86.015625 C 76.472656 86.0625 78.027344 85.558594 79.519531 84.507812 C 80.921875 83.523438 81.960938 82.253906 82.640625 80.703125 C 83.367188 79.019531 83.464844 77.324219 82.9375 75.617188 C 82.457031 74.066406 81.492188 72.644531 80.042969 71.351562 C 82.960938 71.332031 85.371094 71.691406 87.277344 72.4375 C 89.886719 73.421875 91.332031 75.039062 91.617188 77.292969 C 91.640625 77.464844 91.824219 77.652344 92.175781 77.847656 C 92.550781 78.046875 92.722656 78.078125 92.703125 77.949219 C 92.417969 75.957031 91.398438 74.328125 89.644531 73.058594 C 90.808594 73.234375 91.683594 73.804688 92.273438 74.765625 C 92.429688 75.027344 92.679688 75.214844 93.03125 75.324219 L 93.292969 75.257812 L 93.261719 74.996094 C 92.714844 74.140625 92 73.453125 91.125 72.929688 C 90.203125 72.382812 89.261719 72.117188 88.296875 72.140625 L 88.164062 72.207031 C 85.535156 70.9375 82.28125 70.367188 78.402344 70.5 C 77.390625 68.96875 76.199219 67.765625 74.816406 66.890625 L 76.199219 66.988281 L 76.363281 66.957031 C 80.265625 60.722656 81.851562 55.53125 81.128906 51.375 C 83.78125 52.578125 86.324219 54.140625 88.757812 56.066406 C 87.15625 56.503906 85.808594 57.5 84.714844 59.050781 C 83.75 60.429688 83.136719 62.015625 82.871094 63.808594 C 82.828125 64.003906 82.992188 64.210938 83.367188 64.429688 L 83.957031 64.464844 C 84.242188 62.691406 84.855469 61.140625 85.796875 59.804688 C 86.894531 58.273438 88.230469 57.3125 89.808594 56.917969 C 93.425781 59.914062 96.253906 63.152344 98.292969 66.628906 C 100.660156 70.652344 101.808594 74.753906 101.746094 78.929688 M 123.214844 88.640625 C 120.800781 93.5625 119.289062 98.441406 118.675781 103.273438 L 118.378906 103.273438 C 117.132812 104.828125 115.445312 106.191406 113.316406 107.375 C 111.847656 108.183594 109.832031 109.070312 107.269531 110.03125 C 101.613281 112.195312 97.632812 113.847656 95.332031 114.984375 C 89.917969 117.609375 85.449219 120.148438 81.917969 122.597656 L 78.269531 125.15625 C 76.777344 126.117188 75.429688 126.761719 74.226562 127.089844 C 74.816406 123.941406 76.296875 120.015625 78.664062 115.3125 C 81.578125 109.472656 83.355469 105.636719 83.988281 103.796875 L 85.339844 99.863281 C 85.820312 98.066406 85.90625 96.625 85.601562 95.53125 C 94.5 92.382812 101.140625 89.933594 105.523438 88.183594 C 107.234375 87.503906 110.753906 86.335938 116.078125 84.671875 C 120.484375 83.273438 123.9375 81.972656 126.4375 80.769531 C 126.261719 81.863281 125.820312 83.195312 125.121094 84.769531 L 123.214844 88.640625 M 105.691406 116.265625 L 109.699219 114.625 L 112.167969 113.542969 C 112.78125 115.378906 113.644531 117.664062 114.765625 120.398438 L 117.558594 127.15625 L 120.945312 136.046875 L 121.964844 138.769531 C 122.359375 140.039062 122.46875 140.988281 122.292969 141.625 C 122.226562 141.820312 121.625 141.207031 120.484375 139.785156 L 118.480469 137.226562 L 113.746094 129.78125 L 105.820312 116.394531 L 105.691406 116.265625 M 102.863281 112.722656 L 109.699219 110 C 111.671875 109.167969 113.25 108.414062 114.433594 107.734375 C 116.078125 106.792969 117.449219 105.746094 118.546875 104.585938 C 118.414062 105.703125 118.347656 106.828125 118.347656 107.964844 C 117.097656 109.496094 115.410156 110.851562 113.285156 112.03125 C 111.816406 112.820312 109.808594 113.695312 107.269531 114.65625 C 101.613281 116.824219 97.632812 118.472656 95.332031 119.609375 C 89.917969 122.234375 85.449219 124.773438 81.917969 127.222656 L 77.183594 130.4375 L 76.988281 130.4375 L 76.988281 130.566406 C 74.773438 131.769531 72.734375 132.230469 70.871094 131.945312 C 68.351562 131.550781 65.546875 130.457031 62.453125 128.664062 L 54.792969 123.746094 L 54.628906 123.644531 L 56.570312 120.757812 L 59.460938 122.597656 L 64.757812 125.777344 C 66.882812 126.894531 68.800781 127.582031 70.511719 127.84375 C 72.308594 128.128906 74.0625 127.964844 75.769531 127.351562 C 77.171875 126.871094 78.742188 126.007812 80.472656 124.761719 C 85.46875 121.21875 90.652344 118.179688 96.023438 115.640625 C 97.777344 114.808594 100.054688 113.835938 102.863281 112.722656 M 65.316406 2.199219 L 67.058594 3.773438 C 69.140625 7.492188 70.851562 9.832031 72.1875 10.792969 C 73.128906 11.472656 73.941406 11.613281 74.621094 11.21875 L 75.34375 10.398438 L 70.28125 5.316406 C 71.902344 5.90625 73.730469 6.40625 75.769531 6.824219 L 77.050781 7.085938 C 79.332031 7.546875 81.699219 10.070312 84.15625 14.664062 L 83.265625 20.929688 C 80.109375 18.128906 76.800781 16.171875 73.335938 15.058594 C 70.226562 14.074219 64.527344 12.554688 56.242188 10.496094 C 56 10.433594 56.230469 9.886719 56.929688 8.859375 C 57.589844 7.894531 58.125 7.226562 58.542969 6.855469 C 59.945312 5.523438 60.722656 4.394531 60.875 3.476562 L 61.207031 1.378906 C 61.378906 0.679688 61.65625 0.273438 62.027344 0.164062 C 62.464844 0.0546875 63.003906 0.230469 63.636719 0.6875 C 64.011719 0.953125 64.570312 1.453125 65.316406 2.199219 M 51.539062 16.601562 L 62.390625 18.304688 C 64.691406 18.65625 67.34375 19.246094 70.34375 20.078125 L 78.925781 22.570312 C 83.089844 23.839844 84.8125 24.515625 84.089844 24.605469 C 79.769531 25.0625 72.953125 24.734375 63.636719 23.621094 C 55.660156 22.65625 50.476562 21.804688 48.085938 21.0625 L 44.996094 19.980469 C 41.816406 18.886719 39.339844 18.085938 37.566406 17.585938 L 43.78125 17.027344 L 51.539062 16.601562 M 53.445312 13.484375 C 54.105469 12.476562 54.738281 11.765625 55.351562 11.351562 C 61.492188 12.75 66.410156 13.988281 70.117188 15.058594 L 71.628906 16.109375 L 69.457031 15.8125 L 71.757812 17.191406 L 69.292969 17.058594 L 71.464844 18.402344 L 69.195312 18.371094 L 71.429688 19.453125 C 67.988281 18.46875 65.019531 17.78125 62.519531 17.386719 L 52.164062 15.78125 C 52.472656 15.058594 52.898438 14.292969 53.445312 13.484375 M 75.804688 17.058594 C 78.390625 18.261719 80.824219 19.914062 83.101562 22.011719 L 82.9375 22.832031 L 81.195312 22.570312 L 81.195312 22.503906 L 76.132812 20.832031 L 74.324219 19.980469 L 76.625 20.011719 L 74.457031 18.667969 L 76.886719 18.796875 L 74.621094 17.421875 L 76.789062 17.714844 L 75.804688 17.058594 M 16.65625 40.710938 C 15.363281 43.03125 12.949219 44.957031 9.421875 46.484375 C 12.886719 44.167969 14.574219 41.269531 14.484375 37.792969 L 16.65625 40.710938 M 21.851562 47.40625 L 15.800781 47.796875 L 7.316406 48.191406 C 10.101562 47.296875 12.425781 46.148438 14.289062 44.746094 C 16.613281 42.996094 17.992188 40.976562 18.429688 38.679688 L 21.851562 47.40625 M 25.53125 47.796875 C 28.25 47.273438 30.550781 46.539062 32.4375 45.601562 L 32.46875 45.699219 L 37.5 54.65625 L 31.945312 51.636719 L 29.742188 50.355469 C 28.84375 49.832031 28.074219 49.472656 27.4375 49.273438 L 26.027344 49.242188 L 24.546875 49.375 L 7.582031 49.800781 L 3.996094 49.800781 L 0.414062 49.601562 C 0.171875 49.582031 0.140625 49.515625 0.316406 49.40625 L 1.203125 48.980469 L 3.570312 47.734375 L 7.546875 45.632812 C 9.390625 44.472656 10.464844 43.347656 10.769531 42.253906 L 11.296875 43.269531 L 11.429688 43.46875 C 10.441406 44.628906 9.160156 45.644531 7.582031 46.519531 C 6.15625 47.328125 4.621094 47.953125 2.976562 48.390625 C 2.714844 48.453125 2.683594 48.597656 2.878906 48.816406 C 3.078125 49.035156 3.273438 49.144531 3.472656 49.144531 L 14.550781 48.914062 C 18.914062 48.761719 22.574219 48.390625 25.53125 47.796875 M 27.636719 50.160156 L 28.6875 55.867188 C 28.710938 56.042969 28.84375 56.21875 29.082031 56.394531 L 29.707031 56.625 C 32.054688 56.339844 34.210938 56.339844 36.183594 56.625 C 38.640625 56.996094 40.589844 57.804688 42.039062 59.050781 L 42.167969 59.117188 L 43.679688 62.003906 L 41.808594 62.59375 C 41.105469 62.945312 40.699219 63.382812 40.589844 63.90625 L 40.589844 64.265625 L 40.394531 64.234375 L 32.339844 64.5625 C 32.230469 64.5625 32.195312 64.640625 32.238281 64.792969 L 36.085938 74.074219 L 36.449219 74.371094 L 42.464844 74.566406 L 43.515625 76.898438 L 32.140625 77.226562 L 32.207031 76.503906 C 32.117188 75.496094 30.96875 74.785156 28.753906 74.371094 L 28.230469 74.273438 L 33.160156 74.273438 C 33.402344 74.273438 33.457031 74.164062 33.324219 73.945312 L 29.609375 66.167969 L 29.414062 66.003906 L 29.28125 65.941406 L 17.9375 66.167969 L 17.742188 66.332031 L 17.839844 66.5625 L 20.996094 70.597656 C 21.980469 72.128906 22.78125 73.191406 23.394531 73.78125 L 19.84375 73.75 L 18.859375 72.535156 L 13.269531 65.414062 L 5.148438 55.441406 L 0.675781 50.421875 L 8.171875 50.882812 L 15.703125 50.554688 L 27.636719 50.160156 M 9.058594 42.515625 L 4.324219 36.382812 L 5.34375 36.578125 C 6.398438 36.6875 7.40625 37.179688 8.371094 38.054688 C 9.445312 39.015625 9.894531 40 9.71875 41.007812 C 9.652344 41.488281 9.433594 41.992188 9.058594 42.515625 M 12.414062 74.566406 C 13.09375 72.644531 14.464844 71.253906 16.523438 70.402344 L 16.886719 70.859375 C 13.289062 73.246094 12.359375 76.929688 14.089844 81.917969 C 14.8125 83.972656 15.910156 85.789062 17.378906 87.363281 C 18.871094 88.980469 20.4375 89.988281 22.082031 90.378906 L 22.046875 90.644531 C 21.347656 93.332031 21.71875 96.339844 23.164062 99.664062 C 24.28125 102.246094 25.992188 104.902344 28.292969 107.636719 C 22.96875 105.539062 18.574219 103.359375 15.109375 101.109375 C 14.847656 100.933594 14.726562 100.933594 14.75 101.109375 C 14.792969 101.285156 14.914062 101.4375 15.109375 101.566406 C 18.640625 103.820312 23.230469 106.0625 28.886719 108.292969 L 30.792969 110.261719 L 30.761719 110.359375 L 30.859375 113.246094 C 24.523438 110.863281 19.394531 108.433594 15.472656 105.964844 L 15.472656 105.929688 C 14.878906 104.445312 14.640625 102.332031 14.75 99.597656 C 14.878906 96.429688 14.824219 94.25 14.585938 93.070312 L 13.53125 88.445312 L 12.511719 83.785156 C 12.140625 81.753906 11.921875 80.210938 11.855469 79.160156 C 11.765625 77.367188 11.953125 75.835938 12.414062 74.566406 M 6.332031 54.097656 L 6.398438 54.359375 L 13.761719 62.5625 C 14.199219 63.0625 14.890625 63.328125 15.832031 63.347656 L 18.234375 63.21875 L 39.835938 63.117188 L 40 63.019531 L 40 62.789062 L 37.992188 59.183594 C 37.925781 59.027344 37.808594 58.964844 37.632812 58.984375 C 37.457031 59.007812 37.414062 59.105469 37.5 59.28125 L 39.308594 62.5625 L 15.109375 62.691406 L 14.519531 62.726562 L 14.355469 62.527344 L 7.152344 54.492188 L 26.648438 54.03125 L 26.847656 53.800781 C 26.738281 53.582031 26.605469 53.484375 26.453125 53.507812 L 6.527344 53.964844 C 6.417969 53.964844 6.355469 54.007812 6.332031 54.097656 M 39.503906 56.558594 C 40.121094 56.996094 40.6875 57.464844 41.214844 57.96875 C 38.234375 56.023438 34.367188 55.265625 29.609375 55.703125 L 28.625 50.257812 C 29.171875 50.476562 30.101562 50.992188 31.417969 51.800781 L 34.015625 53.410156 L 39.503906 56.558594 M 39.933594 56.261719 C 41.050781 55.191406 42.265625 54.226562 43.582031 53.375 C 45.140625 52.347656 46.519531 51.691406 47.726562 51.40625 L 48.085938 51.867188 C 48.128906 53.988281 48.285156 55.933594 48.546875 57.707031 L 48.679688 58.691406 C 48.746094 59.105469 48.875 59.402344 49.074219 59.574219 C 49.554688 60.035156 50.289062 60.539062 51.277344 61.085938 C 48.710938 61.128906 46.433594 61.378906 44.4375 61.839844 L 43.386719 59.839844 C 42.640625 58.613281 41.511719 57.445312 40 56.328125 L 39.933594 56.261719 M 32.734375 65.054688 L 37.367188 64.859375 L 40 64.726562 L 40.394531 64.726562 L 40.625 65.25 C 40.753906 68.445312 41.3125 71.398438 42.300781 74.109375 L 36.515625 73.878906 L 33.09375 65.613281 L 32.898438 65.152344 L 32.734375 65.054688 M 26.816406 74.863281 C 28.523438 74.996094 29.816406 75.324219 30.695312 75.847656 C 31.460938 76.285156 31.273438 76.746094 30.136719 77.226562 C 29.28125 77.554688 28.546875 77.75 27.933594 77.816406 L 24.414062 77.980469 C 22.902344 78.066406 22.234375 78.394531 22.410156 78.964844 C 22.605469 79.511719 23.363281 79.914062 24.675781 80.179688 L 28.164062 80.867188 C 29.28125 81.128906 30.265625 81.609375 31.121094 82.308594 C 32.195312 83.207031 32.0625 83.917969 30.726562 84.441406 C 29.542969 84.902344 28.164062 85.097656 26.585938 85.035156 C 25.09375 84.96875 23.722656 84.683594 22.476562 84.179688 C 22.101562 84.027344 21.972656 84.113281 22.082031 84.441406 C 22.191406 84.75 22.375 84.957031 22.640625 85.066406 L 25.171875 85.527344 L 29.082031 85.625 C 28.601562 86.453125 27.878906 87.035156 26.914062 87.363281 L 24.054688 87.527344 C 23.722656 87.460938 23.660156 87.59375 23.855469 87.921875 C 24.054688 88.25 24.273438 88.433594 24.511719 88.476562 L 25.664062 88.609375 C 24.0625 89.769531 22.34375 89.855469 20.503906 88.871094 C 18.8125 87.976562 17.390625 86.445312 16.226562 84.277344 C 15.066406 82.089844 14.527344 79.90625 14.617188 77.71875 C 14.703125 75.289062 15.625 73.410156 17.378906 72.074219 L 18.363281 73.550781 C 18.78125 74.074219 19.1875 74.4375 19.582031 74.632812 L 21.160156 74.832031 L 22.769531 74.730469 L 26.816406 74.863281 M 26.253906 78.929688 L 28.03125 78.832031 L 30.035156 78.570312 C 30.914062 78.394531 31.527344 78.101562 31.878906 77.683594 L 43.746094 77.324219 C 44.515625 78.722656 45.324219 79.90625 46.179688 80.867188 C 46.464844 81.21875 46.859375 81.523438 47.363281 81.785156 L 49.304688 91.101562 C 49.347656 91.34375 49.226562 91.441406 48.941406 91.398438 L 48.054688 91.265625 L 26.816406 89.460938 L 26.683594 89.460938 L 27.636719 88.609375 L 27.667969 88.3125 C 29.027344 87.875 29.949219 87.011719 30.429688 85.722656 L 30.398438 85.492188 C 33.136719 85.078125 33.882812 84.039062 32.632812 82.375 C 32.0625 81.609375 31.230469 81.007812 30.136719 80.570312 C 29.390625 80.289062 28.382812 80.023438 27.109375 79.785156 L 26.289062 79.621094 L 26.253906 78.929688 M 24.742188 79.324219 L 23.757812 79.160156 C 23.515625 79.117188 23.648438 79.074219 24.152344 79.03125 L 25.730469 78.929688 L 25.730469 79.523438 L 24.742188 79.324219 M 32.734375 73.75 L 24.085938 73.75 L 18.53125 66.695312 L 29.214844 66.496094 L 32.503906 73.386719 L 32.734375 73.75 M 84.8125 33.199219 C 85.183594 33.441406 86.203125 33.296875 87.871094 32.773438 C 89.6875 32.203125 90.960938 31.492188 91.683594 30.640625 C 92.429688 29.789062 92.558594 28.957031 92.078125 28.148438 C 91.640625 27.359375 91.136719 27.085938 90.566406 27.328125 C 90.28125 27.4375 90.183594 27.972656 90.269531 28.933594 C 90.378906 29.984375 90.226562 30.695312 89.808594 31.066406 C 89.394531 31.417969 88.328125 31.855469 86.621094 32.378906 C 85.21875 32.816406 84.613281 33.089844 84.8125 33.199219 M 82.445312 29.460938 C 82.578125 28.433594 82.585938 27.21875 82.476562 25.820312 L 88.953125 26.113281 C 91.300781 26.417969 92.800781 26.976562 93.457031 27.785156 C 93.789062 28.179688 93.917969 28.5625 93.851562 28.933594 C 93.546875 30.792969 92.273438 32.226562 90.039062 33.234375 C 87.78125 34.238281 84.933594 34.652344 81.492188 34.480469 C 81.953125 32.882812 82.269531 31.210938 82.445312 29.460938 M 75.046875 25.6875 L 80.933594 25.785156 C 81.042969 28.105469 80.8125 30.34375 80.242188 32.511719 C 79.695312 30.71875 78.695312 29.242188 77.25 28.082031 C 76.460938 27.449219 75.539062 26.824219 74.488281 26.210938 L 75.046875 25.6875 M 73.4375 25.65625 L 73.304688 25.753906 L 73.042969 26.082031 C 72.933594 26.320312 73.03125 26.507812 73.335938 26.636719 C 74.652344 27.230469 75.757812 27.863281 76.65625 28.542969 C 78.519531 30.027344 79.539062 31.789062 79.714844 33.824219 C 78.816406 32.203125 77.808594 30.859375 76.691406 29.789062 C 75.246094 28.542969 74.289062 27.851562 73.832031 27.722656 L 73.601562 27.722656 C 73.382812 27.742188 73.25 27.839844 73.207031 28.015625 C 73.160156 28.191406 73.238281 28.324219 73.4375 28.410156 C 74.421875 29 75.332031 29.65625 76.164062 30.378906 C 77.238281 31.230469 78.421875 32.695312 79.714844 34.773438 L 79.648438 35.5625 L 78.433594 33.726562 C 77.777344 32.871094 77.128906 32.183594 76.492188 31.65625 C 75.550781 30.914062 74.773438 30.453125 74.160156 30.28125 L 74.027344 30.28125 C 73.808594 30.300781 73.710938 30.433594 73.730469 30.671875 C 73.753906 30.914062 73.917969 31.109375 74.226562 31.265625 C 74.96875 31.613281 75.550781 31.964844 75.96875 32.3125 L 78.203125 34.609375 L 79.550781 36.21875 L 79.550781 36.25 C 79.484375 36.46875 79.496094 36.675781 79.585938 36.875 L 78.433594 36.742188 L 78.628906 37.167969 C 80.296875 38.195312 80.84375 39.628906 80.273438 41.46875 C 79.703125 43.28125 78.488281 44.277344 76.625 44.453125 L 76.097656 44.453125 C 74.476562 48.171875 72.339844 51.078125 69.6875 53.179688 C 69.425781 53.375 69.304688 53.539062 69.328125 53.671875 C 69.347656 53.78125 69.5 53.824219 69.785156 53.800781 C 70.664062 53.714844 71.671875 53.191406 72.8125 52.226562 C 72.789062 53.867188 71.804688 55.441406 69.851562 56.953125 C 68.054688 58.351562 66.246094 59.128906 64.425781 59.28125 C 63.617188 59.390625 62.949219 59.292969 62.421875 58.984375 L 62.554688 58.984375 C 63.011719 58.941406 63.714844 58.722656 64.65625 58.328125 C 65.621094 57.914062 66.070312 57.628906 66.003906 57.476562 L 65.839844 57.445312 L 65.117188 57.609375 L 63.738281 57.835938 C 61.941406 58.011719 59.867188 57.71875 57.523438 56.953125 C 53.335938 55.574219 50.070312 52.773438 47.726562 48.554688 C 45.46875 44.507812 44.570312 40.1875 45.027344 35.59375 C 45.335938 32.796875 46.203125 29.886719 47.625 26.867188 C 48.460938 26.648438 49.28125 26.136719 50.09375 25.328125 L 51.671875 22.867188 C 55.703125 23.71875 59.582031 24.386719 63.308594 24.867188 C 62.738281 25.675781 62.53125 26.167969 62.683594 26.34375 L 63.34375 26.574219 L 64.625 26.964844 L 66.070312 27.621094 L 67.089844 27.984375 L 67.125 27.984375 C 67.253906 27.285156 66.519531 26.308594 64.921875 25.0625 L 73.140625 25.65625 L 73.4375 25.65625 M 74.457031 32.839844 L 74.355469 32.839844 C 74.179688 32.859375 74.0625 32.96875 73.996094 33.167969 C 73.949219 33.363281 74.070312 33.539062 74.355469 33.691406 L 74.488281 33.757812 L 75.703125 34.414062 L 76.65625 35.300781 C 77.050781 35.691406 77.304688 35.878906 77.414062 35.855469 L 77.511719 35.691406 L 77.117188 34.839844 L 76.164062 33.824219 C 75.640625 33.320312 75.070312 32.992188 74.457031 32.839844 M 74.652344 35.332031 C 74.476562 35.355469 74.367188 35.464844 74.324219 35.660156 C 74.28125 35.855469 74.34375 36 74.519531 36.085938 L 74.980469 36.414062 L 75.539062 37.070312 C 75.585938 37.332031 75.726562 37.441406 75.96875 37.398438 C 76.253906 37.355469 76.363281 37.167969 76.296875 36.839844 L 75.703125 35.921875 C 75.417969 35.683594 75.132812 35.496094 74.851562 35.363281 L 74.652344 35.332031 M 67.453125 42.679688 L 67.023438 42.285156 L 63.539062 40.285156 L 63.308594 40.21875 C 63.15625 40.265625 63.144531 40.382812 63.277344 40.582031 L 63.769531 41.566406 C 63.859375 41.71875 63.824219 41.90625 63.671875 42.121094 L 63.210938 42.515625 L 60.777344 43.632812 C 58.980469 44.398438 57.632812 44.867188 56.734375 45.042969 L 55.8125 45.175781 L 50.652344 45.011719 C 50.476562 45.011719 50.3125 44.945312 50.160156 44.8125 C 50.027344 44.660156 49.960938 44.496094 49.960938 44.320312 L 49.929688 43.863281 L 49.765625 43.566406 L 49.535156 43.761719 L 48.449219 45.339844 C 48.339844 45.492188 48.296875 45.667969 48.316406 45.863281 L 48.515625 46.386719 L 50.09375 48.421875 L 50.355469 48.617188 L 50.421875 48.289062 L 50.386719 47.960938 C 50.34375 47.65625 50.476562 47.480469 50.78125 47.4375 L 50.949219 47.4375 L 53.148438 48.453125 C 54.882812 49.109375 56.417969 49.375 57.753906 49.242188 L 57.785156 49.242188 C 59.125 49.109375 60.832031 48.324219 62.914062 46.878906 L 65.609375 44.714844 L 65.875 44.617188 C 66.179688 44.617188 66.421875 44.714844 66.597656 44.910156 L 66.761719 46.386719 L 67.058594 46.585938 C 67.167969 46.5625 67.234375 46.453125 67.253906 46.257812 L 67.582031 43.238281 L 67.453125 42.679688 M 80.078125 50.949219 C 80.429688 53.027344 80.164062 55.367188 79.289062 57.96875 C 78.675781 59.804688 77.667969 61.980469 76.261719 64.496094 L 75.507812 65.808594 C 75.289062 66.003906 74.859375 66.070312 74.226562 66.003906 L 72.253906 65.875 L 71.363281 65.808594 L 70.015625 65.710938 L 69.886719 65.742188 L 69.886719 65.84375 C 69.183594 65.449219 68.582031 65.175781 68.078125 65.023438 C 71.34375 62.351562 73.535156 60.253906 74.652344 58.722656 C 76.558594 56.078125 77.304688 53.15625 76.886719 49.964844 L 76.886719 49.898438 C 77.917969 50.160156 78.980469 50.511719 80.078125 50.949219 M 75.835938 49.667969 C 76.144531 52.773438 75.308594 55.617188 73.335938 58.199219 C 72.261719 59.621094 70.105469 61.632812 66.859375 64.234375 C 66.773438 63.46875 66.203125 62.835938 65.152344 62.332031 L 63.40625 60.824219 L 64.261719 60.789062 C 67.023438 60.527344 69.457031 59.402344 71.5625 57.410156 C 73.820312 55.265625 74.785156 52.894531 74.457031 50.292969 L 75.046875 49.539062 L 75.835938 49.667969 M 57.0625 31.199219 C 56.820312 31.242188 56.644531 31.4375 56.535156 31.789062 L 56.207031 32.742188 L 55.484375 34.542969 L 53.214844 38.21875 C 52.976562 38.570312 52.996094 38.917969 53.28125 39.269531 L 54.925781 41.269531 C 55.144531 41.488281 55.453125 41.597656 55.847656 41.597656 L 56.535156 41.335938 L 56.832031 41.039062 C 56.875 40.910156 56.832031 40.777344 56.699219 40.648438 L 55.351562 39.136719 C 55.066406 38.765625 55.011719 38.394531 55.1875 38.023438 L 56.304688 35.300781 L 57.0625 32.96875 L 57.324219 31.855469 L 57.292969 31.394531 L 57.09375 31.199219 L 57.0625 31.199219 M 63.800781 30.410156 L 63.769531 30.410156 C 63.441406 30.453125 63.179688 30.695312 62.980469 31.132812 C 62.785156 31.59375 62.707031 32.117188 62.75 32.707031 C 62.773438 33.34375 62.914062 33.867188 63.179688 34.28125 C 63.441406 34.699219 63.746094 34.894531 64.097656 34.871094 C 64.425781 34.851562 64.691406 34.609375 64.886719 34.152344 C 65.085938 33.714844 65.171875 33.179688 65.152344 32.542969 C 65.105469 31.929688 64.953125 31.417969 64.691406 31 C 64.425781 30.585938 64.132812 30.390625 63.800781 30.410156 M 50.683594 26.441406 L 48.316406 28.246094 L 48.085938 28.542969 L 48.414062 28.640625 L 48.480469 28.640625 L 51.078125 28.277344 L 51.605469 27.984375 L 51.703125 27.394531 L 51.507812 26.738281 C 51.441406 26.410156 51.277344 26.265625 51.011719 26.308594 L 50.683594 26.441406 M 49.304688 24.734375 C 48.492188 25.589844 47.648438 26.058594 46.773438 26.144531 C 46.15625 26.191406 45.632812 26.035156 45.195312 25.6875 C 44.40625 25.074219 43.800781 24.234375 43.386719 23.160156 C 42.992188 22.15625 42.847656 21.171875 42.957031 20.207031 L 44.667969 20.832031 L 47.792969 21.914062 L 50.683594 22.667969 L 49.304688 24.734375 M 42.433594 26.082031 C 39.957031 25.03125 37.851562 23.785156 36.121094 22.339844 C 34.125 20.679688 33.269531 19.222656 33.554688 17.976562 C 33.796875 17.300781 36.578125 17.921875 41.90625 19.847656 C 41.644531 21.402344 42.027344 22.910156 43.054688 24.375 C 42.773438 24.8125 42.5625 25.382812 42.433594 26.082031 M 46.378906 26.933594 C 45.808594 28.179688 45.304688 29.449219 44.863281 30.738281 C 44.207031 29.84375 43.8125 29.132812 43.679688 28.605469 C 43.507812 27.929688 43.472656 27.328125 43.582031 26.800781 C 43.691406 26.300781 43.902344 26.027344 44.207031 25.984375 C 44.359375 25.984375 44.546875 26.058594 44.765625 26.210938 C 45.3125 26.628906 45.851562 26.867188 46.378906 26.933594 M 49.171875 32.511719 C 48.953125 32.949219 48.863281 33.472656 48.910156 34.085938 C 48.953125 34.699219 49.105469 35.210938 49.371094 35.628906 C 49.632812 36.066406 49.929688 36.261719 50.257812 36.21875 L 50.289062 36.21875 C 50.617188 36.195312 50.882812 35.964844 51.078125 35.527344 C 51.277344 35.070312 51.351562 34.535156 51.308594 33.921875 C 51.265625 33.308594 51.121094 32.796875 50.882812 32.378906 C 50.617188 31.964844 50.3125 31.765625 49.960938 31.789062 C 49.632812 31.832031 49.371094 32.074219 49.171875 32.511719 M 50.652344 45.632812 C 52.691406 45.875 54.53125 45.917969 56.175781 45.765625 L 57.09375 45.632812 C 58.167969 45.457031 59.574219 44.988281 61.304688 44.222656 L 63.574219 43.140625 L 64.328125 42.941406 C 64.636719 42.898438 64.929688 42.964844 65.214844 43.140625 C 65.523438 43.335938 65.609375 43.578125 65.480469 43.863281 L 64.988281 44.386719 L 63.113281 45.601562 L 60.25 47.207031 C 59.484375 47.558594 58.398438 47.808594 56.996094 47.960938 L 54.925781 47.929688 L 50.75 46.914062 C 50.441406 46.890625 50.214844 46.671875 50.058594 46.257812 C 49.90625 45.886719 50.070312 45.675781 50.554688 45.632812 L 50.652344 45.632812 M 56.800781 51.503906 L 57.6875 51.570312 L 58.773438 51.308594 C 59.210938 51.113281 59.375 50.828125 59.265625 50.457031 C 59.179688 50.105469 58.9375 49.953125 58.542969 49.996094 L 55.683594 50.621094 L 55.351562 50.785156 L 55.617188 51.011719 L 56.800781 51.503906 M 57.488281 57.835938 C 58.058594 58.753906 58.847656 59.476562 59.855469 60.003906 C 59.15625 60.199219 58.398438 60.558594 57.589844 61.085938 L 56.078125 61.050781 L 54.957031 57.015625 L 57.488281 57.835938 M 59.757812 67.152344 C 63.132812 66.890625 65.316406 66.332031 66.300781 65.480469 L 66.433594 65.515625 C 67.921875 65.753906 69.140625 66.246094 70.082031 66.988281 C 71.222656 67.863281 71.824219 68.980469 71.890625 70.335938 L 70.675781 70.597656 C 70.457031 69.59375 69.875 68.75 68.933594 68.074219 C 68.097656 67.480469 67.089844 67.078125 65.90625 66.859375 C 65.6875 66.816406 65.554688 66.890625 65.511719 67.089844 L 65.480469 67.285156 C 64.929688 67.351562 64.472656 67.480469 64.097656 67.679688 C 63.113281 68.183594 62.421875 68.859375 62.027344 69.714844 C 61.632812 70.609375 61.644531 71.539062 62.058594 72.5 C 61.007812 72.699219 60.308594 73.234375 59.957031 74.109375 C 59.582031 75.003906 59.746094 75.871094 60.449219 76.699219 L 60.976562 77.292969 L 60.910156 77.324219 C 60.273438 78.132812 60.140625 79.085938 60.515625 80.179688 L 60.417969 80.179688 C 57.71875 81.6875 54.9375 82.320312 52.066406 82.082031 C 48.820312 81.796875 46.488281 80.375 45.0625 77.816406 C 43.113281 74.339844 42.027344 70.304688 41.808594 65.710938 C 43.035156 66.519531 45.160156 67.035156 48.1875 67.253906 L 53.875 67.316406 L 59.757812 67.152344 M 61.335938 65.679688 C 56.164062 64.890625 50.949219 64.878906 45.6875 65.644531 L 43.449219 65.25 C 42.53125 65.011719 41.984375 64.703125 41.808594 64.332031 C 42.179688 63.261719 44.074219 62.570312 47.496094 62.265625 L 53.875 62.132812 L 61.335938 62.660156 C 61.820312 62.703125 62.652344 62.921875 63.835938 63.316406 C 65.261719 63.796875 65.753906 64.167969 65.316406 64.429688 C 64.261719 65.042969 62.992188 65.492188 61.5 65.777344 L 61.335938 65.679688 M 55.222656 61.050781 L 52.65625 61.050781 L 49.863281 59.476562 L 49.433594 56.753906 C 49.324219 55.683594 49.25 54.46875 49.203125 53.113281 C 50.609375 54.554688 52.1875 55.703125 53.9375 56.558594 L 55.222656 61.050781 M 50.027344 82.738281 L 53.378906 96.417969 L 52.066406 96.023438 L 47.757812 94.84375 C 42.914062 93.660156 38.945312 92.894531 35.855469 92.546875 L 23.132812 91.496094 L 23.164062 90.542969 C 24.21875 90.609375 25.238281 90.347656 26.222656 89.757812 L 26.386719 89.824219 L 49.828125 91.792969 L 49.929688 91.757812 L 47.890625 82.046875 L 50.027344 82.738281 M 52.789062 83.128906 L 53.742188 83.128906 L 53.808594 86.96875 L 53.808594 87.066406 C 53.457031 88.421875 53.226562 89.855469 53.117188 91.363281 L 50.980469 82.933594 L 52.789062 83.128906 M 63.144531 70.238281 C 63.519531 69.625 64.066406 69.101562 64.789062 68.664062 C 65.601562 68.160156 66.335938 67.984375 66.992188 68.136719 C 68.109375 68.792969 68.316406 69.253906 67.617188 69.515625 L 67.058594 69.746094 C 66.792969 69.8125 66.652344 69.921875 66.628906 70.074219 C 66.433594 71.058594 67.363281 71.636719 69.425781 71.8125 C 71.484375 71.964844 72.679688 71.671875 73.007812 70.925781 L 73.042969 70.695312 C 72.976562 69.167969 72.363281 67.875 71.199219 66.824219 C 73.085938 66.453125 74.859375 67.261719 76.527344 69.253906 C 78.125 71.132812 78.816406 73.003906 78.597656 74.863281 C 78.292969 77.269531 77.4375 79.183594 76.035156 80.605469 C 73.777344 82.855469 70.695312 83.765625 66.792969 83.328125 C 65.214844 83.152344 63.824219 82.648438 62.617188 81.820312 C 61.085938 80.746094 60.855469 79.523438 61.929688 78.144531 C 62.914062 78.929688 64.175781 79.695312 65.710938 80.441406 C 66.058594 80.617188 66.171875 80.5625 66.039062 80.277344 C 65.886719 79.96875 65.699219 79.773438 65.480469 79.6875 C 63.351562 78.65625 61.949219 77.675781 61.269531 76.734375 C 60.765625 76.078125 60.691406 75.410156 61.039062 74.730469 C 61.347656 74.121094 61.875 73.695312 62.617188 73.453125 C 63.757812 75.160156 65.5 76.449219 67.847656 77.324219 C 68.21875 77.457031 68.351562 77.367188 68.242188 77.0625 C 68.132812 76.734375 67.945312 76.515625 67.683594 76.40625 C 66.28125 75.878906 65.074219 75.105469 64.066406 74.074219 C 62.75 72.742188 62.445312 71.460938 63.144531 70.238281 M 54.957031 83.066406 L 54.792969 83.523438 L 54.761719 83.097656 L 54.957031 83.066406 M 63.769531 83.523438 C 64.929688 84.003906 66.203125 84.3125 67.582031 84.441406 L 71.695312 84.277344 C 72.8125 85.503906 74.050781 86.5625 75.410156 87.460938 L 74.816406 87.886719 L 74.355469 88.019531 C 74.226562 88.085938 74.214844 88.195312 74.324219 88.347656 C 72.746094 89.8125 71.550781 91.890625 70.738281 94.578125 C 70.257812 96.15625 69.675781 98.625 68.996094 101.996094 L 67.417969 108.097656 C 66.300781 104.53125 64.679688 101.511719 62.554688 99.042969 C 60.097656 96.175781 57.269531 94.46875 54.070312 93.925781 C 54.136719 91.5625 54.433594 89.40625 54.957031 87.460938 C 55.570312 85.863281 56.492188 84.234375 57.71875 82.574219 C 58.882812 82.265625 60 81.828125 61.074219 81.261719 C 61.796875 82.332031 62.695312 83.085938 63.769531 83.523438 M 79.386719 71.351562 C 81.117188 72.882812 82.039062 74.699219 82.148438 76.800781 C 82.28125 78.941406 81.523438 80.84375 79.878906 82.507812 C 79.023438 83.359375 78.09375 84.027344 77.085938 84.507812 C 75.96875 85.035156 74.851562 85.253906 73.730469 85.164062 L 72.613281 84.082031 C 74.234375 83.621094 75.550781 82.890625 76.558594 81.882812 C 77.851562 80.59375 78.773438 79.105469 79.320312 77.421875 C 79.957031 75.542969 79.957031 73.824219 79.320312 72.273438 L 78.894531 71.386719 L 79.386719 71.351562 M 69.621094 70.695312 L 67.75 70.730469 L 68.601562 70.402344 L 69.359375 69.777344 L 69.621094 70.695312 M 84.253906 99.796875 C 83.484375 102.660156 82.171875 106.09375 80.308594 110.097656 L 76.199219 118.332031 C 74.707031 121.546875 73.730469 124.445312 73.273438 127.023438 L 73.371094 127.289062 C 72.492188 127.441406 71.660156 127.453125 70.871094 127.320312 C 68.921875 127.035156 66.828125 126.324219 64.59375 125.1875 L 64.625 125.15625 L 65.578125 120.957031 C 65.886719 119.074219 66.136719 117.664062 66.335938 116.722656 L 67.914062 110.164062 L 69.554688 103.632812 C 70.234375 100.046875 70.828125 97.359375 71.332031 95.5625 C 72.230469 92.4375 73.554688 90.128906 75.308594 88.640625 C 76.757812 88.3125 78.652344 89.035156 80.996094 90.808594 C 83.34375 92.558594 84.582031 94.164062 84.714844 95.628906 C 84.84375 96.765625 84.691406 98.15625 84.253906 99.796875 M 68.570312 91.464844 C 65.128906 90.214844 62.957031 89.496094 62.058594 89.296875 C 59.5625 88.730469 57.324219 88.785156 55.351562 89.460938 C 55.15625 89.527344 55.175781 89.691406 55.417969 89.953125 L 55.910156 90.347656 C 56.546875 90.589844 57.601562 90.742188 59.066406 90.808594 C 60.425781 90.894531 61.492188 91.113281 62.257812 91.464844 C 65.195312 92.863281 67.289062 94.753906 68.539062 97.140625 L 69.226562 97.632812 C 69.601562 97.742188 69.710938 97.652344 69.554688 97.367188 C 68.371094 95.136719 66.519531 93.246094 64 91.691406 C 62.617188 90.863281 61.402344 90.304688 60.351562 90.019531 L 58.9375 89.855469 C 60.382812 89.769531 62.039062 90.007812 63.902344 90.578125 L 68.765625 92.285156 C 69.140625 92.414062 69.261719 92.339844 69.128906 92.054688 C 68.996094 91.746094 68.8125 91.550781 68.570312 91.464844 M 54.5 97.171875 L 53.90625 94.644531 L 53.9375 94.644531 C 57.25 94.953125 60.109375 96.65625 62.519531 99.761719 C 64.492188 102.34375 65.941406 105.492188 66.859375 109.210938 L 67.058594 109.507812 L 65.808594 114.65625 L 65.609375 114.65625 C 63.574219 115.246094 61.5 115.609375 59.398438 115.738281 C 60.121094 113.882812 60.285156 112.316406 59.890625 111.046875 C 59.671875 110.328125 59.289062 109.867188 58.738281 109.671875 L 58.707031 109.605469 C 56.753906 106.894531 54.597656 104.160156 52.230469 101.402344 L 49.238281 97.992188 C 47.988281 96.65625 46.804688 95.664062 45.6875 95.007812 C 48.976562 95.792969 51.824219 96.582031 54.234375 97.367188 C 54.433594 97.414062 54.519531 97.347656 54.5 97.171875 M 47.855469 97.597656 L 50.980469 101.042969 C 52.820312 103.121094 54.75 105.503906 56.765625 108.195312 L 57.425781 109.113281 L 57.03125 109.113281 L 54.792969 109.308594 C 52.84375 109.703125 51.101562 110.390625 49.566406 111.375 C 48.121094 112.339844 46.761719 113.628906 45.488281 115.246094 L 44.339844 116.660156 C 43.878906 117.316406 43.769531 117.699219 44.011719 117.808594 L 40.984375 116.363281 L 36.25 113.773438 C 34.5625 112.742188 33.136719 111.671875 31.976562 110.554688 C 31.910156 110.273438 31.714844 110.085938 31.386719 110 L 30.992188 109.605469 C 28.425781 106.871094 26.453125 104.226562 25.070312 101.667969 C 23.210938 98.253906 22.496094 95.160156 22.933594 92.382812 L 22.96875 92.382812 C 29.742188 92.425781 36.578125 93.148438 43.484375 94.546875 C 43.59375 94.832031 43.78125 95.007812 44.042969 95.070312 C 45.226562 95.445312 46.496094 96.285156 47.855469 97.597656 M 57.949219 115.445312 L 57.09375 117.214844 L 53.480469 113.835938 C 54.488281 112.789062 55.496094 111.945312 56.503906 111.3125 C 57.972656 110.371094 58.738281 110.554688 58.804688 111.867188 C 58.847656 112.898438 58.5625 114.089844 57.949219 115.445312 M 65.480469 116.296875 L 64.691406 120.53125 L 63.738281 124.730469 L 63.738281 124.761719 C 62.730469 124.214844 61.554688 123.503906 60.21875 122.628906 L 56.800781 120.398438 C 57.71875 119.042969 58.445312 117.796875 58.96875 116.660156 C 61.335938 116.59375 63.539062 116.308594 65.578125 115.804688 L 65.480469 116.296875 M 44.667969 118.660156 C 47.910156 113.519531 51.738281 110.6875 56.140625 110.164062 C 53.425781 111.605469 50.398438 114.679688 47.066406 119.382812 C 43.714844 124.148438 42.101562 127.679688 42.234375 129.976562 C 41.554688 128.949219 41.632812 127.015625 42.464844 124.171875 C 43.078125 122.070312 43.8125 120.234375 44.667969 118.660156 M 44.074219 127.351562 C 45.5 124.3125 47.339844 121.339844 49.597656 118.429688 L 53.183594 114.164062 L 56.867188 117.675781 C 53.269531 124.695312 49.535156 128.917969 45.652344 130.339844 C 44.691406 130.6875 43.890625 130.796875 43.253906 130.667969 C 43.253906 130.402344 43.375 129.8125 43.617188 128.894531 L 44.074219 127.351562 M 44.46875 131.78125 C 47.277344 131.367188 50.003906 129.539062 52.65625 126.304688 L 51.835938 142.640625 L 51.800781 142.640625 L 50.257812 143.394531 C 48.242188 143.984375 46.082031 144.160156 43.78125 143.921875 L 39.800781 143.230469 L 39.277344 143.101562 L 38.617188 141.625 C 36.6875 137.164062 35.242188 133.09375 34.277344 129.421875 C 32.941406 124.148438 32.183594 118.132812 32.007812 111.375 C 34.925781 113.890625 38.714844 116.210938 43.386719 118.332031 C 41.917969 121.261719 41.007812 124.050781 40.65625 126.695312 C 40.175781 130.523438 41.445312 132.21875 44.46875 131.78125 M 44.863281 147.988281 C 41.839844 149.714844 39.789062 150.808594 38.714844 151.269531 C 36.152344 152.363281 33.917969 152.757812 32.007812 152.449219 C 30.714844 152.253906 30.34375 151.5 30.890625 150.1875 C 31.308594 149.179688 31.976562 148.292969 32.898438 147.527344 C 34.714844 146 36.742188 144.871094 38.980469 144.148438 C 39.460938 144.433594 40.164062 144.632812 41.082031 144.742188 L 43.121094 144.90625 C 47.023438 145.386719 49.929688 145.125 51.835938 144.117188 C 51.726562 145.277344 51.308594 146.117188 50.585938 146.644531 L 48.21875 148.054688 C 46.882812 148.710938 46.046875 148.851562 45.71875 148.480469 C 45.367188 148.042969 45.085938 147.878906 44.863281 147.988281 M 77.050781 131.453125 C 77.316406 135.609375 77.273438 141.527344 76.921875 149.203125 C 76.769531 153.796875 76.503906 157.613281 76.132812 160.652344 L 75.769531 164.128906 C 75.550781 165.574219 75.179688 166.664062 74.652344 167.410156 C 74.390625 167.804688 74.203125 167.878906 74.09375 167.640625 L 73.765625 166.390625 C 73.480469 165.386719 73.226562 164.171875 73.007812 162.75 C 72.59375 160.082031 72.175781 156.574219 71.757812 152.21875 C 70.949219 143.757812 70.53125 137.171875 70.511719 132.472656 C 72.703125 132.820312 74.882812 132.480469 77.050781 131.453125 M 20.074219 109.046875 C 18.738281 113.007812 16.390625 118.582031 13.039062 125.777344 C 10.933594 130.261719 9.289062 133.5 8.105469 135.488281 L 6.167969 138.410156 C 5.378906 139.328125 4.960938 139.632812 4.917969 139.328125 C 4.808594 138.34375 4.929688 137.140625 5.28125 135.71875 L 6.332031 132.175781 C 7.296875 129.003906 8.402344 125.660156 9.652344 122.136719 L 12.613281 114.296875 L 15.4375 106.390625 L 20.074219 109.046875 "/>
</g>
</svg>
