<?xml version="1.0" encoding="UTF-8"?>
<svg xmlns="http://www.w3.org/2000/svg" xmlns:xlink="http://www.w3.org/1999/xlink" width="128pt" height="304pt" viewBox="0 0 128 304" version="1.1">
<g id="surface1">
<path style=" stroke:none;fill-rule:nonzero;fill:rgb(100%,100%,100%);fill-opacity:1;" d="M 34.011719 289.738281 L 34.222656 289.527344 C 36.386719 293.808594 37.210938 297.242188 36.691406 299.828125 L 35.773438 301.945312 L 35.703125 302.15625 L 34.152344 302.792969 C 32.175781 303.496094 29.894531 303.214844 27.308594 301.945312 C 26.273438 301.472656 25.097656 300.769531 23.78125 299.828125 L 21.308594 297.992188 L 19.335938 296.441406 L 34.011719 289.738281 M 37.1875 290.300781 L 32.671875 282.398438 C 29.894531 277.742188 26.765625 273.203125 23.285156 268.78125 C 28.082031 270.378906 32.648438 273.648438 36.976562 278.589844 C 40.410156 282.539062 43.488281 287.292969 46.21875 292.84375 C 43.867188 295.804688 41.679688 298.0625 39.65625 299.617188 C 39.75 297.074219 38.925781 293.972656 37.1875 290.300781 M 19.050781 267.226562 C 22.390625 271.273438 25.683594 275.835938 28.929688 280.917969 L 32.671875 286.773438 L 32.316406 286.84375 L 16.652344 294.042969 C 12.796875 290.417969 9.527344 286.515625 6.84375 282.328125 C 3.832031 277.71875 1.859375 273.226562 0.917969 268.851562 C 0.304688 266.027344 0.707031 263.699219 2.117188 261.867188 C 3.621094 259.9375 5.832031 259.371094 8.75 260.171875 C 11.855469 261.019531 15.289062 263.371094 19.050781 267.226562 M 54.757812 199.207031 C 53.816406 199.253906 53.039062 199.605469 52.429688 200.265625 C 51.628906 201.0625 51.347656 202.050781 51.582031 203.226562 C 52.097656 205.628906 54.425781 207.792969 58.566406 209.71875 L 61.53125 210.988281 L 54.050781 217.835938 L 53.0625 218.679688 C 50.476562 220.988281 48.78125 222.679688 47.980469 223.761719 C 46.523438 225.691406 46.171875 227.382812 46.925781 228.84375 C 48.429688 231.757812 52.191406 231.921875 58.214844 229.335938 L 59.414062 230.394531 L 69.574219 230.042969 L 69.925781 230.253906 C 70.820312 233.6875 71.832031 236.957031 72.960938 240.0625 C 72.773438 240.15625 72.65625 240.296875 72.609375 240.484375 C 69.082031 250.363281 65.574219 258.996094 62.09375 266.382812 C 57.765625 275.460938 53.0625 283.480469 47.980469 290.441406 L 47.839844 290.65625 C 44.878906 284.820312 41.421875 279.8125 37.46875 275.625 C 32.765625 270.589844 27.800781 267.273438 22.578125 265.675781 C 23.945312 263.605469 25.191406 261.066406 26.320312 258.054688 L 28.789062 249.941406 C 30.671875 242.976562 32.433594 233.992188 34.082031 222.984375 C 35.773438 211.648438 37.046875 200.242188 37.890625 188.761719 C 40.855469 191.019531 44.546875 193.183594 48.96875 195.253906 C 53.816406 197.511719 59.25 199.042969 65.269531 199.839844 L 63.152344 200.125 L 57.4375 199.558594 L 54.757812 199.207031 M 33.660156 115.238281 C 34.738281 113.214844 36.667969 110.910156 39.445312 108.320312 C 40.949219 110.816406 43.796875 113.003906 47.980469 114.882812 C 48.078125 115.777344 47.347656 118.882812 45.796875 124.199219 C 44.007812 130.3125 42.996094 134.640625 42.761719 137.183594 C 42.195312 143.25 41.960938 151.742188 42.054688 162.65625 C 42.148438 168.488281 42.054688 172.015625 41.773438 173.238281 L 38.457031 172.464844 L 38.386719 170.277344 C 38.152344 166.746094 37.234375 161.550781 35.632812 154.679688 C 32.953125 143.25 31.519531 136.6875 31.328125 134.996094 C 30.390625 127.609375 31.164062 121.023438 33.660156 115.238281 M 56.167969 87.929688 C 55.980469 87.175781 55.460938 86.800781 54.613281 86.800781 L 54.332031 86.871094 L 48.40625 87.578125 C 47.980469 87.625 47.746094 87.742188 47.699219 87.929688 L 48.265625 88.421875 L 50.664062 89.695312 L 52.5 90.046875 L 54.898438 89.621094 L 55.886719 88.988281 C 56.167969 88.660156 56.261719 88.304688 56.167969 87.929688 M 27.378906 34.160156 C 27.707031 33.078125 28.203125 32.539062 28.859375 32.539062 C 29.285156 32.539062 29.660156 32.726562 29.988281 33.101562 C 31.023438 34.042969 32.128906 34.679688 33.304688 35.007812 C 31.847656 37.5 30.53125 40.113281 29.355469 42.839844 C 28.128906 40.722656 27.425781 39.125 27.238281 38.042969 C 27 36.582031 27.050781 35.289062 27.378906 34.160156 M 38.457031 75.863281 L 42.621094 76.640625 L 50.523438 77.273438 L 52.429688 77.203125 C 56.191406 76.921875 60.988281 75.582031 66.824219 73.183594 L 68.445312 72.828125 C 69.105469 72.828125 69.714844 73.039062 70.28125 73.464844 C 70.890625 73.980469 71.03125 74.523438 70.703125 75.085938 L 69.574219 76.074219 C 64.398438 78.851562 60.824219 80.566406 58.847656 81.226562 L 51.792969 82.144531 L 47.347656 81.648438 L 38.667969 78.613281 C 38.007812 78.472656 37.539062 77.957031 37.257812 77.0625 C 37.070312 76.261719 37.46875 75.863281 38.457031 75.863281 M 37.1875 71.277344 L 36.691406 71.628906 L 34.082031 74.804688 C 33.46875 75.558594 33.421875 76.308594 33.941406 77.0625 L 36.976562 81.789062 L 37.46875 82.214844 L 37.679688 81.578125 L 37.679688 80.875 C 37.679688 80.121094 38.007812 79.746094 38.667969 79.746094 L 39.019531 79.816406 L 43.464844 82.425781 C 47.042969 84.167969 50.265625 85.058594 53.132812 85.105469 L 53.203125 85.105469 C 56.074219 85.105469 59.882812 83.742188 64.636719 81.015625 C 66.988281 79.648438 69.058594 78.285156 70.84375 76.921875 L 71.410156 76.78125 C 72.066406 76.78125 72.585938 77.039062 72.960938 77.558594 L 72.960938 80.730469 L 73.527344 81.226562 L 74.019531 80.519531 L 75.359375 74.167969 C 75.5 73.324219 75.171875 72.617188 74.371094 72.054688 L 67.316406 67.042969 L 66.824219 66.832031 C 66.492188 66.832031 66.445312 67.089844 66.679688 67.609375 L 67.527344 69.867188 C 67.667969 70.195312 67.574219 70.570312 67.246094 70.996094 L 66.1875 71.699219 C 59.742188 74.144531 54.945312 75.535156 51.792969 75.863281 L 49.886719 76.003906 L 42.550781 75.296875 L 38.808594 74.523438 C 38.433594 74.476562 38.105469 74.3125 37.820312 74.027344 C 37.539062 73.699219 37.421875 73.347656 37.46875 72.96875 L 37.539062 71.980469 L 37.1875 71.277344 M 55.746094 47.78125 C 55.980469 46.886719 55.863281 46.390625 55.390625 46.296875 L 55.320312 46.296875 C 54.804688 46.296875 54.378906 46.675781 54.050781 47.425781 L 51.226562 53.140625 L 47.980469 57.660156 L 45.722656 60.480469 C 45.113281 61.234375 45.066406 61.984375 45.582031 62.738281 L 48.757812 67.394531 C 49.230469 67.960938 49.839844 68.242188 50.59375 68.242188 L 52.144531 67.890625 L 52.851562 67.324219 L 52.640625 66.40625 L 50.097656 62.878906 L 49.675781 61.75 C 49.628906 61.28125 49.699219 60.878906 49.886719 60.550781 L 52.851562 54.90625 L 55.746094 47.78125 M 40.714844 45.804688 C 40.480469 45.378906 40.054688 45.238281 39.445312 45.378906 C 38.785156 45.472656 38.152344 45.851562 37.539062 46.507812 C 36.976562 47.074219 36.644531 48.015625 36.550781 49.332031 L 36.550781 51.167969 L 34.222656 51.449219 C 33.09375 51.730469 32.601562 52.105469 32.742188 52.578125 L 33.375 53.210938 C 34.316406 52.929688 35.117188 52.929688 35.773438 53.210938 L 36.058594 55.753906 C 36.433594 57.445312 37 58.410156 37.75 58.644531 C 38.925781 59.023438 40.195312 58.503906 41.5625 57.09375 L 43.183594 54.835938 C 42.667969 53.941406 42.007812 53.210938 41.207031 52.648438 C 40.785156 52.367188 40.195312 52.082031 39.445312 51.800781 L 38.457031 51.449219 L 38.175781 50.320312 C 38.082031 49.425781 38.199219 48.601562 38.527344 47.851562 C 38.808594 47.144531 39.28125 46.769531 39.9375 46.722656 L 40.785156 46.792969 C 41.113281 46.601562 41.089844 46.273438 40.714844 45.804688 M 44.382812 35.570312 C 44.242188 34.914062 43.890625 34.585938 43.324219 34.585938 L 42.621094 34.796875 L 37.1875 38.183594 L 36.621094 38.816406 L 37.328125 39.03125 L 43.113281 38.816406 C 43.632812 38.769531 44.03125 38.582031 44.3125 38.253906 C 44.59375 37.925781 44.6875 37.5 44.59375 36.984375 L 44.382812 35.570312 M 68.164062 47.355469 C 68.445312 46.601562 68.890625 46.203125 69.503906 46.15625 L 70.351562 46.296875 C 70.726562 46.109375 70.726562 45.757812 70.351562 45.238281 C 70.066406 44.863281 69.621094 44.722656 69.011719 44.816406 L 67.105469 45.945312 C 66.539062 46.507812 66.210938 47.449219 66.117188 48.765625 L 66.1875 50.601562 L 63.859375 50.953125 C 62.730469 51.238281 62.234375 51.613281 62.378906 52.082031 L 63.011719 52.71875 C 63.953125 52.4375 64.753906 52.4375 65.410156 52.71875 L 65.695312 55.1875 C 66.070312 56.929688 66.632812 57.894531 67.386719 58.082031 C 68.5625 58.457031 69.761719 58.011719 70.984375 56.742188 L 72.398438 54.765625 L 70.84375 52.15625 C 70.515625 51.777344 69.949219 51.449219 69.152344 51.167969 L 68.09375 50.882812 L 67.808594 49.753906 C 67.714844 48.863281 67.832031 48.0625 68.164062 47.355469 M 71.832031 33.386719 L 71.125 33.171875 C 70.65625 33.171875 70.28125 33.410156 69.996094 33.878906 L 69.011719 35.21875 C 68.351562 36.160156 68.117188 36.773438 68.304688 37.054688 L 69.644531 37.617188 L 72.328125 38.746094 L 75.289062 40.441406 L 77.40625 41.429688 L 77.476562 41.429688 C 77.757812 40.253906 76.914062 38.558594 74.9375 36.347656 L 71.832031 33.386719 M 99.703125 279.222656 C 102.246094 280.824219 105.277344 281.386719 108.808594 280.917969 C 112.007812 280.492188 114.875 279.363281 117.414062 277.53125 C 121.132812 274.894531 123.953125 270.472656 125.882812 264.265625 C 127.292969 266.851562 127.859375 269.367188 127.578125 271.816406 L 127.152344 274.074219 C 126.917969 274.402344 126.355469 274.542969 125.460938 274.496094 C 124.847656 274.449219 124.308594 274.589844 123.835938 274.917969 C 123.320312 275.25 122.988281 275.71875 122.847656 276.332031 L 122.496094 280.070312 C 122.402344 281.527344 122.050781 282.777344 121.4375 283.808594 C 119.039062 287.667969 116.285156 290.960938 113.183594 293.6875 C 110.5 296.136719 107.253906 297.945312 103.445312 299.121094 L 100.691406 299.828125 L 96.953125 300.179688 L 93.496094 299.828125 C 92.367188 299.59375 91.425781 299.191406 90.671875 298.628906 C 88.695312 297.21875 90.039062 293.03125 94.695312 286.066406 C 96.058594 283.855469 97.730469 281.574219 99.703125 279.222656 M 92.578125 208.519531 C 91.683594 211.109375 90.578125 213.296875 89.261719 215.082031 C 85.449219 220.445312 81.195312 224.539062 76.488281 227.359375 C 75.078125 228.207031 73.832031 228.558594 72.75 228.417969 C 72.089844 228.277344 71.597656 228.042969 71.269531 227.714844 L 75.289062 224.46875 C 78.207031 222.164062 79.640625 220.515625 79.59375 219.527344 L 72.609375 224.328125 C 67.339844 227.855469 63.460938 229.078125 60.964844 227.996094 L 60.332031 227.5 L 60.191406 227.21875 C 60.191406 227.078125 62.28125 225.457031 66.46875 222.351562 C 70.5625 219.105469 72.328125 217.011719 71.761719 216.070312 C 71.714844 215.976562 69.738281 217.363281 65.835938 220.234375 C 61.507812 223.433594 58.753906 225.3125 57.578125 225.878906 C 52.828125 228.277344 50.097656 228.820312 49.394531 227.5 C 49.113281 226.9375 49.675781 225.902344 51.085938 224.398438 L 54.898438 220.796875 L 55.886719 220.023438 L 65.695312 210.917969 L 66.046875 210.285156 C 66.140625 210.097656 65.222656 209.695312 63.292969 209.085938 C 60.753906 208.332031 59.085938 207.769531 58.285156 207.390625 C 56.496094 206.542969 55.203125 205.582031 54.402344 204.5 C 53.507812 203.371094 53.535156 202.59375 54.472656 202.167969 L 55.390625 202.027344 L 56.800781 202.3125 L 63.222656 202.945312 C 64.824219 202.898438 66.46875 202.5 68.164062 201.746094 C 69.292969 204.332031 72.066406 206.757812 76.488281 209.015625 C 81.195312 211.414062 86.554688 211.25 92.578125 208.519531 M 103.9375 193.066406 L 106.972656 191.304688 L 111.207031 188.199219 C 113.933594 198.828125 115.085938 207.910156 114.664062 215.433594 C 114.097656 225.21875 110.925781 233.429688 105.136719 240.0625 L 104.148438 245.355469 L 104.996094 245.140625 L 110.21875 239.992188 C 112.851562 237.074219 114.429688 234.652344 114.945312 232.722656 C 118.285156 235.78125 120.800781 239.402344 122.496094 243.589844 C 124.332031 247.917969 125.011719 252.246094 124.542969 256.574219 L 123.976562 259.820312 L 123.835938 260.171875 C 122.707031 264.78125 120.730469 268.851562 117.910156 272.378906 C 115.839844 274.964844 112.992188 276.753906 109.371094 277.742188 C 105.421875 278.824219 102.175781 278.328125 99.632812 276.261719 C 93.09375 270.191406 87.519531 263.277344 82.910156 255.515625 C 78.394531 247.847656 75.03125 239.707031 72.820312 231.101562 C 74.5625 231.289062 76.277344 230.839844 77.972656 229.757812 C 82.910156 226.75 87.449219 222.398438 91.589844 216.707031 C 93.660156 213.742188 95.1875 210.332031 96.175781 206.472656 L 96.246094 206.472656 L 97.660156 204.992188 L 98.714844 203.511719 L 103.9375 193.066406 M 109.511719 180.578125 L 110.148438 184.035156 C 110.242188 184.695312 108.949219 185.917969 106.265625 187.703125 L 109.441406 179.730469 L 109.511719 180.578125 M 121.296875 172.605469 C 121.71875 173.875 120.730469 174.933594 118.332031 175.78125 L 113.886719 177.191406 C 114.074219 177.332031 114.027344 177.449219 113.746094 177.542969 L 119.109375 177.332031 C 122.074219 177.050781 123.695312 177.496094 123.976562 178.671875 C 124.355469 180.226562 123.203125 181.472656 120.519531 182.414062 L 114.945312 183.894531 L 115.015625 184.671875 L 119.460938 183.964844 L 121.648438 183.964844 L 122.988281 183.824219 C 123.414062 183.730469 123.882812 183.847656 124.402344 184.175781 C 125.011719 184.554688 125.34375 185.023438 125.390625 185.585938 C 125.578125 187.1875 124.023438 188.855469 120.730469 190.597656 L 119.109375 191.445312 L 114.875 192.433594 L 112.195312 178.882812 C 112.054688 177.097656 112.03125 175.050781 112.125 172.746094 L 112.125 172.605469 C 117.957031 171.664062 121.015625 171.664062 121.296875 172.605469 M 112.476562 112.625 C 113.511719 115.589844 114.289062 120.058594 114.804688 126.03125 C 115.605469 134.925781 114.921875 144.496094 112.757812 154.75 C 110.6875 164.535156 107.535156 174.507812 103.304688 184.671875 C 100.714844 190.925781 98.058594 196.5 95.328125 201.394531 L 95.046875 201.957031 L 93.210938 204.5 C 91.332031 205.628906 89.425781 206.472656 87.496094 207.039062 C 83.96875 208.074219 80.910156 207.933594 78.324219 206.613281 C 74.230469 204.453125 71.878906 202.570312 71.269531 200.96875 C 72.726562 197.628906 73.832031 194.429688 74.585938 191.375 C 76.652344 183.09375 77.808594 174.554688 78.042969 165.757812 C 78.183594 158.84375 77.757812 152.515625 76.773438 146.777344 C 76.726562 146.308594 76.558594 146.144531 76.277344 146.285156 C 75.996094 146.425781 75.832031 146.847656 75.785156 147.554688 C 76.160156 154.65625 76.019531 161.386719 75.359375 167.734375 C 74.890625 172.34375 74.300781 175.707031 73.597656 177.824219 L 67.386719 177.894531 C 66.164062 174.792969 65.835938 166.113281 66.398438 151.859375 C 67.011719 136.617188 68.515625 126.738281 70.914062 122.222656 C 71.527344 121.09375 72.042969 120.527344 72.46875 120.527344 L 72.75 120.527344 C 76.84375 120.527344 81.097656 119.496094 85.523438 117.425781 C 89.992188 115.308594 93.425781 112.71875 95.824219 109.664062 C 97.140625 107.96875 98.035156 105.96875 98.503906 103.664062 C 99.023438 101.125 98.882812 98.5625 98.082031 95.972656 C 105.609375 100.960938 110.40625 106.511719 112.476562 112.625 M 94.835938 93.925781 C 95.917969 96.65625 96.292969 99.359375 95.964844 102.042969 C 95.636719 104.347656 94.859375 106.300781 93.636719 107.898438 C 91.472656 110.628906 88.367188 112.933594 84.320312 114.8125 C 80.230469 116.742188 76.347656 117.707031 72.679688 117.707031 L 72.398438 117.707031 C 68.820312 117.800781 66.257812 124.058594 64.707031 136.476562 C 63.90625 143.203125 63.460938 151.175781 63.363281 160.398438 C 63.316406 169.195312 63.695312 175.097656 64.492188 178.109375 C 64.964844 179.800781 65.695312 180.648438 66.679688 180.648438 L 73.101562 180.648438 C 72.019531 186.574219 70.609375 192.078125 68.867188 197.160156 C 63.269531 196.972656 57.835938 195.9375 52.570312 194.054688 C 46.972656 192.03125 42.148438 189.28125 38.105469 185.800781 L 38.527344 175.425781 L 42.125 176.0625 L 42.335938 176.132812 C 42.808594 176.132812 43.230469 175.945312 43.609375 175.566406 C 44.21875 175.003906 44.617188 173.78125 44.808594 171.898438 L 44.878906 162.585938 C 44.785156 151.8125 45.019531 143.4375 45.582031 137.464844 C 45.769531 135.066406 46.757812 130.902344 48.546875 124.976562 L 50.734375 116.296875 C 50.96875 114.414062 50.664062 113.191406 49.816406 112.625 L 49.605469 112.484375 C 45.324219 110.601562 42.667969 108.582031 41.632812 106.417969 L 47.066406 101.902344 L 50.875 103.382812 C 52.144531 105.96875 54.050781 107.921875 56.589844 109.238281 C 58.941406 110.460938 61.648438 111.074219 64.707031 111.074219 C 70.679688 111.074219 76.113281 109.167969 81.003906 105.359375 C 86.273438 101.21875 88.8125 96.328125 88.625 90.679688 L 88.695312 90.609375 L 94.835938 93.925781 M 92.4375 58.714844 L 92.082031 58.644531 C 91.707031 58.644531 91.449219 58.859375 91.308594 59.28125 C 91.167969 59.703125 91.261719 60.011719 91.589844 60.199219 L 92.578125 61.046875 L 93.566406 62.597656 C 93.660156 63.113281 93.941406 63.375 94.414062 63.375 C 95.023438 63.375 95.304688 62.996094 95.257812 62.246094 C 95.210938 61.679688 94.859375 60.976562 94.199219 60.128906 L 92.4375 58.714844 M 92.71875 55.683594 L 94.484375 56.882812 L 96.386719 59 L 97.871094 60.339844 L 98.082031 60.058594 C 98.175781 59.679688 97.941406 59.023438 97.375 58.082031 L 95.613281 55.683594 C 94.53125 54.507812 93.378906 53.707031 92.15625 53.285156 L 91.941406 53.210938 C 91.519531 53.210938 91.238281 53.425781 91.097656 53.847656 C 90.953125 54.316406 91.167969 54.742188 91.730469 55.117188 L 92.71875 55.683594 M 91.378906 23.363281 L 89.824219 23.507812 C 88.839844 23.648438 87.214844 24.210938 84.957031 25.199219 L 80.652344 26.679688 L 80.230469 26.609375 C 79.898438 26.515625 78.324219 24.941406 75.5 21.882812 C 72.773438 18.917969 70.585938 17.4375 68.9375 17.4375 L 67.738281 17.71875 L 62.941406 20.683594 L 60.046875 22.449219 C 59.15625 22.964844 58.425781 23.222656 57.859375 23.222656 L 57.015625 23.011719 L 55.109375 22.023438 L 53.132812 21.175781 L 51.371094 20.753906 C 50.429688 20.753906 49.347656 21.105469 48.125 21.8125 C 47.183594 22.328125 45.628906 23.953125 43.464844 26.679688 L 40.078125 30.914062 C 38.007812 32.5625 36.105469 33.386719 34.363281 33.386719 C 33.09375 33.386719 31.988281 32.9375 31.046875 32.042969 C 29.355469 30.445312 28.179688 28.28125 27.519531 25.550781 C 26.953125 22.917969 27.023438 20.589844 27.730469 18.566406 C 28.34375 16.921875 29.234375 15.554688 30.414062 14.472656 C 30.222656 16.167969 30.71875 17.507812 31.894531 18.496094 C 33.210938 19.53125 34.691406 20.046875 36.339844 20.046875 C 38.738281 20.046875 40.785156 19.0625 42.476562 17.085938 L 46.570312 12.640625 C 48.59375 10.664062 50.144531 9.535156 51.226562 9.253906 L 52.921875 9.039062 L 56.308594 9.675781 L 59.0625 10.382812 C 59.765625 10.382812 60.378906 10.121094 60.894531 9.605469 L 63.363281 6.148438 C 65.859375 2.335938 67.644531 0.339844 68.726562 0.148438 L 69.152344 0.148438 C 70.5625 0.148438 72.253906 0.832031 74.230469 2.195312 L 76.136719 3.679688 C 76.890625 4.242188 77.617188 4.640625 78.324219 4.878906 C 80.628906 5.675781 82.699219 6.21875 84.535156 6.5 C 87.308594 6.828125 89.824219 8.476562 92.082031 11.441406 L 96.316406 16.589844 C 98.105469 17.390625 100.011719 19.203125 102.03125 22.023438 C 103.492188 24.140625 104.738281 26.351562 105.773438 28.65625 C 107.609375 32.796875 107.960938 38.230469 106.832031 44.957031 C 106.265625 48.296875 105.515625 51.238281 104.574219 53.777344 C 103.726562 49.777344 101.890625 46.390625 99.070312 43.617188 L 93.496094 39.101562 L 97.375 35.429688 C 98.789062 33.644531 99.398438 32.089844 99.210938 30.773438 C 98.976562 28.9375 98.339844 27.363281 97.304688 26.046875 C 95.847656 24.257812 93.871094 23.363281 91.378906 23.363281 M 90.179688 26.117188 C 92.765625 26.117188 94.507812 27.503906 95.398438 30.28125 C 96.339844 33.242188 94.90625 35.785156 91.097656 37.902344 L 90.53125 38.535156 C 90.25 39.007812 90.414062 39.429688 91.023438 39.804688 C 93.800781 41.40625 96.011719 42.980469 97.660156 44.535156 C 101.328125 47.96875 103.160156 51.941406 103.160156 56.457031 C 101.609375 52.882812 99.726562 49.800781 97.515625 47.214844 C 94.835938 44.296875 92.953125 42.628906 91.871094 42.203125 L 91.308594 42.132812 C 90.835938 42.132812 90.554688 42.324219 90.460938 42.699219 C 90.320312 43.074219 90.460938 43.382812 90.882812 43.617188 L 92.648438 45.027344 L 96.316406 48.414062 C 97.824219 49.824219 99.257812 51.683594 100.621094 53.988281 L 103.019531 58.503906 L 102.738281 60.128906 C 100.855469 56.222656 98.835938 53.234375 96.671875 51.167969 C 94.835938 49.332031 93.285156 48.203125 92.011719 47.78125 L 91.730469 47.707031 C 91.308594 47.707031 91.074219 47.96875 91.023438 48.484375 C 91.023438 49.050781 91.355469 49.519531 92.011719 49.894531 L 95.472656 52.507812 C 97.539062 54.578125 99.820312 57.585938 102.316406 61.539062 L 102.316406 61.609375 L 102.175781 62.175781 L 100.691406 61.609375 C 99.796875 61.890625 99.632812 62.480469 100.199219 63.375 C 103.539062 65.914062 104.410156 69.089844 102.808594 72.898438 C 101.210938 76.664062 98.410156 78.542969 94.414062 78.542969 L 93.355469 78.472656 C 89.167969 85.953125 83.992188 91.761719 77.832031 95.902344 C 77.21875 96.28125 76.9375 96.585938 76.984375 96.820312 C 77.03125 97.054688 77.335938 97.171875 77.902344 97.171875 C 79.921875 97.171875 82.203125 96.28125 84.746094 94.492188 C 84.367188 97.972656 81.945312 101.125 77.476562 103.945312 C 73.335938 106.582031 69.316406 107.898438 65.410156 107.898438 C 63.625 107.898438 62.1875 107.546875 61.105469 106.839844 L 61.460938 106.910156 L 66.117188 105.921875 C 68.234375 105.21875 69.222656 104.699219 69.082031 104.371094 L 68.726562 104.230469 L 64.140625 104.652344 C 60.191406 104.652344 55.839844 103.59375 51.085938 101.476562 C 42.429688 97.714844 36.011719 91.058594 31.824219 81.507812 C 27.824219 72.382812 26.789062 62.972656 28.71875 53.285156 C 29.988281 47.214844 32.433594 41.171875 36.058594 35.148438 C 37.84375 34.867188 39.679688 33.902344 41.5625 32.253906 L 45.089844 27.882812 C 47.253906 25.152344 48.6875 23.601562 49.394531 23.222656 L 50.804688 22.871094 C 52.167969 22.871094 53.769531 23.433594 55.601562 24.566406 L 58.285156 25.128906 C 59.835938 25.128906 61.835938 24.46875 64.28125 23.152344 C 65.363281 22.589844 66.515625 22.304688 67.738281 22.304688 C 70.984375 22.304688 73.925781 23.835938 76.558594 26.894531 C 77.40625 27.882812 78.488281 28.375 79.804688 28.375 L 83.546875 27.457031 C 84.910156 26.941406 86.957031 26.515625 89.683594 26.1875 L 90.179688 26.117188 "/>
</g>
</svg>
