<?xml version="1.0" encoding="UTF-8"?>
<svg xmlns="http://www.w3.org/2000/svg" xmlns:xlink="http://www.w3.org/1999/xlink" width="127pt" height="126pt" viewBox="0 0 127 126" version="1.1">
<g id="surface1">
<path style=" stroke:none;fill-rule:nonzero;fill:rgb(100%,100%,100%);fill-opacity:1;" d="M 90.976562 45.785156 C 90.976562 47.476562 90.847656 48.976562 90.59375 50.285156 L 90.5625 50.375 L 90.121094 51.390625 C 89.351562 52.960938 88.542969 54.152344 87.695312 54.964844 L 84.707031 54.789062 C 85.296875 52.941406 85.761719 51.132812 86.097656 49.363281 C 86.589844 46.699219 86.6875 44.542969 86.394531 42.894531 C 85.839844 39.855469 84.105469 36.238281 81.1875 32.042969 L 82.046875 31.804688 L 83.523438 32.640625 C 85.8125 34.230469 87.617188 35.96875 88.9375 37.855469 C 90.277344 39.765625 90.957031 42.40625 90.976562 45.785156 M 89.734375 37.320312 C 88.570312 35.691406 87.28125 34.300781 85.859375 33.148438 C 84.972656 32.472656 83.917969 31.804688 82.695312 31.148438 C 84.964844 29.976562 87.261719 29.359375 89.585938 29.300781 C 93.511719 29.222656 97.265625 30.664062 100.855469 33.625 C 105.507812 37.460938 107.972656 42.03125 108.25 47.335938 C 108.289062 47.972656 108.410156 48.507812 108.605469 48.945312 C 108.84375 49.480469 109.148438 49.75 109.523438 49.75 C 109.835938 49.730469 110.015625 49.601562 110.054688 49.363281 C 110.191406 48.765625 110.546875 48.390625 111.121094 48.230469 C 111.671875 48.089844 112.027344 48.128906 112.183594 48.347656 C 112.855469 49.242188 113.257812 49.859375 113.398438 50.199219 L 113.574219 51.300781 C 113.59375 51.636719 113.730469 51.835938 113.988281 51.894531 L 114.492188 52.015625 L 115.378906 53.148438 L 116.265625 54.074219 C 116.582031 53.914062 116.671875 53.695312 116.53125 53.417969 L 116.058594 51.925781 C 115.78125 50.894531 115.703125 50.277344 115.824219 50.078125 C 115.882812 49.980469 116.007812 49.929688 116.207031 49.929688 C 116.957031 49.988281 118.140625 50.355469 119.757812 51.03125 L 119.875 51.089844 L 119.84375 51.121094 L 120.496094 51.390625 L 122.566406 52.285156 L 123.601562 55.054688 C 124.054688 56.984375 123.996094 59.039062 123.421875 61.226562 C 122.832031 63.492188 121.925781 65.378906 120.703125 66.890625 L 118.722656 68.796875 C 116.472656 68.976562 114.332031 68.945312 112.300781 68.707031 C 108.023438 68.113281 104.347656 66.652344 101.269531 64.328125 C 98.214844 61.960938 95.71875 59.050781 93.789062 55.59375 C 93.332031 54.757812 92.59375 53.007812 91.570312 50.347656 C 91.863281 48.695312 91.972656 46.957031 91.894531 45.128906 C 91.796875 41.890625 91.074219 39.289062 89.734375 37.320312 M 91.007812 59.199219 L 89.585938 55.621094 L 91.09375 51.65625 L 93.285156 56.664062 C 95.589844 61.117188 98.28125 64.625 101.359375 67.1875 L 99.023438 66.472656 C 97.859375 66.113281 97.039062 65.796875 96.566406 65.519531 C 94.378906 64.226562 92.523438 62.121094 91.007812 59.199219 M 118.808594 45.753906 L 120.140625 46.382812 L 120.523438 46.976562 L 121.648438 49.480469 L 120.851562 50.226562 L 120.644531 50.136719 L 119.578125 48.5 C 118.769531 47.40625 117.863281 46.421875 116.859375 45.546875 L 116.621094 45.308594 C 117.25 45.269531 117.980469 45.417969 118.808594 45.753906 M 116.296875 49.003906 C 115.722656 48.964844 115.300781 49.144531 115.023438 49.542969 L 114.875 49.898438 C 114.066406 48.269531 113.347656 47.039062 112.714844 46.203125 C 113.878906 45.429688 114.984375 45.515625 116.03125 46.472656 C 117.132812 47.445312 117.863281 48.429688 118.21875 49.421875 L 116.296875 49.003906 M 124.8125 53.953125 C 125.285156 54.210938 125.761719 54.570312 126.234375 55.027344 L 126.941406 55.742188 L 126.882812 58.394531 L 125.554688 58.753906 L 125.019531 58.992188 L 124.933594 58.992188 L 124.933594 59.019531 L 124.8125 59.082031 C 125.089844 57.113281 125.089844 55.402344 124.8125 53.953125 M 124.339844 61.433594 L 124.753906 59.585938 L 125.492188 65.546875 C 125.847656 68.25 125.75 70.585938 125.199219 72.554688 C 124.644531 74.519531 123.796875 75.535156 122.65625 75.59375 C 121.550781 75.671875 120.75 75.304688 120.257812 74.492188 C 119.609375 73.457031 119.28125 71.96875 119.28125 70.019531 C 120.070312 70.398438 120.898438 69.871094 121.765625 68.441406 C 122.65625 66.96875 123.511719 64.632812 124.339844 61.433594 M 46.136719 0.894531 L 46.964844 1.460938 L 47.882812 1.9375 L 50.546875 2.472656 C 51.707031 2.574219 52.804688 3.230469 53.828125 4.441406 L 55.691406 6.5 C 56.480469 6.796875 57.316406 7.523438 58.207031 8.675781 C 58.855469 9.527344 59.417969 10.433594 59.890625 11.386719 C 60.757812 13.097656 61.023438 15.371094 60.691406 18.214844 C 60.53125 19.644531 60.285156 20.90625 59.949219 22 C 59.476562 20.289062 58.628906 18.910156 57.40625 17.855469 L 56.015625 16.753906 C 55.523438 16.414062 55.1875 16.1875 55.011719 16.066406 L 56.550781 14.425781 C 57.101562 13.632812 57.316406 12.964844 57.199219 12.429688 C 57.042969 11.554688 56.6875 10.851562 56.136719 10.3125 C 55.386719 9.558594 54.378906 9.300781 53.117188 9.539062 C 52.722656 9.617188 52.003906 9.917969 50.960938 10.433594 C 50.070312 10.910156 49.46875 11.117188 49.15625 11.058594 L 46.820312 8.914062 C 45.476562 7.660156 44.453125 7.214844 43.742188 7.570312 L 41.820312 8.941406 L 40.429688 9.867188 C 40.035156 10.125 39.679688 10.195312 39.363281 10.074219 L 38.535156 9.6875 C 37.847656 9.390625 37.402344 9.242188 37.207031 9.242188 C 36.753906 9.179688 36.21875 9.351562 35.609375 9.746094 C 35.234375 9.984375 34.621094 10.703125 33.773438 11.894531 L 32.445312 13.742188 C 31.851562 14.316406 31.230469 14.6875 30.582031 14.84375 C 29.851562 15.023438 29.230469 14.882812 28.71875 14.425781 C 27.949219 13.769531 27.40625 12.886719 27.089844 11.773438 C 26.773438 10.679688 26.753906 9.699219 27.03125 8.824219 C 27.207031 8.167969 27.554688 7.5625 28.066406 7.003906 C 28.027344 7.761719 28.261719 8.316406 28.777344 8.675781 C 29.445312 9.171875 30.207031 9.351562 31.054688 9.210938 C 31.882812 9.050781 32.582031 8.605469 33.152344 7.871094 C 34.847656 5.742188 36.011719 4.570312 36.644531 4.351562 L 39.011719 4.5 C 39.820312 4.71875 40.390625 4.648438 40.726562 4.292969 L 41.671875 2.800781 C 42.597656 1.132812 43.308594 0.25 43.800781 0.148438 C 44.355469 0.0507812 45.132812 0.296875 46.136719 0.894531 M 29.632812 15.679688 L 28.242188 19.019531 L 28.097656 18.777344 C 27.621094 18.042969 27.335938 17.457031 27.238281 17.019531 C 27.082031 16.226562 27.109375 15.578125 27.328125 15.082031 C 27.542969 14.585938 27.871094 14.527344 28.304688 14.902344 C 28.738281 15.261719 29.179688 15.5 29.632812 15.621094 L 29.632812 15.679688 M 33.125 14.308594 L 34.484375 12.371094 C 35.3125 11.179688 35.875 10.484375 36.171875 10.285156 C 36.761719 9.925781 37.648438 10.085938 38.832031 10.761719 L 40.695312 10.820312 C 41.148438 10.679688 41.730469 10.394531 42.441406 9.957031 C 43.152344 9.519531 43.96875 9.398438 44.894531 9.597656 C 45.882812 9.835938 46.796875 10.394531 47.648438 11.265625 C 48.039062 11.683594 48.535156 11.863281 49.125 11.804688 L 50.574219 11.355469 C 51.105469 11.136719 51.953125 10.910156 53.117188 10.671875 C 54.203125 10.472656 55.011719 10.96875 55.542969 12.160156 C 56.097656 13.433594 55.574219 14.578125 53.976562 15.589844 L 53.710938 15.886719 C 53.609375 16.085938 53.699219 16.253906 53.976562 16.394531 C 55.140625 16.992188 56.105469 17.605469 56.875 18.242188 C 58.492188 19.652344 59.339844 21.292969 59.417969 23.160156 C 58.769531 21.769531 57.917969 20.507812 56.875 19.375 C 55.613281 18.183594 54.773438 17.527344 54.359375 17.40625 C 54.105469 17.328125 53.925781 17.378906 53.828125 17.558594 C 53.730469 17.734375 53.777344 17.886719 53.976562 18.003906 L 54.773438 18.570312 C 55.386719 19.007812 55.917969 19.453125 56.371094 19.910156 C 57.296875 20.726562 58.273438 22.039062 59.300781 23.847656 L 59.152344 24.382812 L 58.292969 23.042969 C 57.722656 22.207031 57.160156 21.542969 56.609375 21.042969 C 55.839844 20.367188 55.160156 19.933594 54.566406 19.734375 C 54.332031 19.652344 54.203125 19.742188 54.183594 20 C 54.144531 20.257812 54.28125 20.46875 54.597656 20.628906 C 55.226562 20.945312 55.730469 21.28125 56.105469 21.640625 C 56.953125 22.4375 57.898438 23.558594 58.945312 25.007812 L 58.855469 25.277344 C 58.679688 25.296875 58.519531 25.347656 58.382812 25.425781 C 58.105469 25.585938 58.085938 25.824219 58.324219 26.140625 C 59.863281 27.195312 60.265625 28.585938 59.535156 30.316406 C 58.828125 32.003906 57.574219 32.789062 55.78125 32.671875 C 54.144531 35.988281 52.101562 38.542969 49.65625 40.332031 C 48.988281 40.808594 49.054688 40.988281 49.863281 40.867188 C 50.671875 40.769531 51.5625 40.351562 52.527344 39.617188 C 52.585938 43.570312 51.097656 45.984375 48.0625 46.859375 C 46.917969 47.175781 45.8125 47.175781 44.746094 46.859375 C 43.703125 46.539062 43.082031 46.035156 42.882812 45.339844 C 43.199219 45.378906 43.839844 45.230469 44.808594 44.890625 C 45.792969 44.535156 46.246094 44.273438 46.167969 44.117188 L 44.332031 44.324219 C 42.65625 44.445312 40.746094 44.097656 38.597656 43.28125 C 34.871094 41.871094 32.03125 39.207031 30.078125 35.292969 C 28.222656 31.539062 27.59375 27.582031 28.183594 23.429688 C 28.578125 20.6875 29.4375 18.09375 30.757812 15.648438 C 31.488281 15.492188 32.277344 15.042969 33.125 14.308594 M 34.070312 15.261719 L 33.597656 15.351562 L 31.410156 16.871094 C 31.25 16.992188 31.183594 17.089844 31.203125 17.167969 L 31.527344 17.230469 L 33.894531 17.019531 L 34.367188 16.753906 C 34.484375 16.59375 34.523438 16.414062 34.484375 16.214844 L 34.335938 15.648438 C 34.316406 15.449219 34.226562 15.320312 34.070312 15.261719 M 39.363281 20.507812 C 39.445312 20.109375 39.382812 19.910156 39.1875 19.910156 C 38.992188 19.871094 38.8125 20.042969 38.65625 20.417969 L 37.589844 22.894531 C 37.253906 23.546875 36.546875 24.621094 35.460938 26.113281 C 35.363281 26.25 35.3125 26.410156 35.3125 26.589844 L 35.460938 27.066406 L 36.851562 28.972656 C 37.246094 29.390625 37.726562 29.429688 38.300781 29.09375 L 38.566406 28.824219 L 38.476562 28.46875 L 37.324219 27.035156 C 37.066406 26.71875 37.027344 26.378906 37.207031 26.023438 L 38.328125 23.609375 L 39.097656 21.492188 L 39.363281 20.507812 M 31.734375 22.207031 C 31.753906 22.761719 31.871094 23.242188 32.089844 23.636719 C 32.304688 24.035156 32.5625 24.222656 32.859375 24.203125 C 33.152344 24.203125 33.398438 24.003906 33.597656 23.609375 C 33.8125 23.191406 33.914062 22.703125 33.894531 22.148438 C 33.875 21.589844 33.753906 21.125 33.539062 20.746094 C 33.320312 20.347656 33.066406 20.152344 32.769531 20.152344 C 32.472656 20.171875 32.226562 20.378906 32.03125 20.777344 C 31.8125 21.175781 31.714844 21.652344 31.734375 22.207031 M 32.175781 30.851562 C 32.097656 30.8125 32.011719 30.863281 31.910156 31 L 30.875 32.402344 C 30.660156 32.71875 30.660156 33.039062 30.875 33.355469 L 32.238281 35.261719 C 32.472656 35.5625 32.570312 35.53125 32.53125 35.175781 L 32.53125 34.875 C 32.511719 34.71875 32.5625 34.585938 32.679688 34.488281 L 33.066406 34.398438 L 34.988281 35.414062 C 36.503906 36.066406 37.875 36.367188 39.097656 36.304688 C 40.300781 36.265625 41.867188 35.621094 43.800781 34.367188 L 46.316406 32.492188 L 46.820312 32.460938 C 46.976562 32.5 47.105469 32.589844 47.203125 32.730469 L 47.292969 34.070312 C 47.527344 34.367188 47.675781 34.328125 47.734375 33.953125 L 48.148438 31.238281 C 48.1875 30.839844 48.039062 30.554688 47.707031 30.375 L 44.628906 28.40625 L 44.363281 28.378906 C 44.304688 28.4375 44.304688 28.535156 44.363281 28.675781 L 44.777344 29.570312 C 44.855469 29.710938 44.828125 29.867188 44.6875 30.046875 L 44.273438 30.40625 C 41.632812 31.558594 39.652344 32.242188 38.328125 32.460938 C 37.5 32.601562 36.339844 32.601562 34.839844 32.460938 L 32.859375 32.191406 C 32.699219 32.171875 32.5625 32.105469 32.445312 31.984375 C 32.324219 31.84375 32.265625 31.695312 32.265625 31.539062 L 32.265625 31.121094 L 32.175781 30.851562 M 2.867188 23.785156 C 4.050781 24.125 5.292969 24.660156 6.59375 25.398438 C 6.808594 25.515625 7.007812 25.464844 7.183594 25.246094 C 7.324219 25.050781 7.324219 24.839844 7.183594 24.621094 C 6.335938 23.707031 5.597656 22.742188 4.964844 21.730469 C 4.179688 20.457031 3.84375 19.535156 3.960938 18.957031 C 3.980469 18.777344 4.070312 18.640625 4.226562 18.539062 C 4.839844 18.203125 5.773438 18.640625 7.035156 19.851562 C 8.003906 20.804688 8.878906 21.890625 9.667969 23.101562 C 9.847656 23.359375 10.054688 23.410156 10.289062 23.25 C 10.546875 23.113281 10.617188 22.902344 10.496094 22.625 L 9.699219 20.507812 C 9.402344 19.476562 9.363281 18.710938 9.582031 18.214844 C 9.679688 17.933594 9.894531 17.753906 10.230469 17.675781 C 10.863281 17.515625 11.757812 18.480469 12.921875 20.566406 C 13.988281 22.414062 14.984375 24.59375 15.910156 27.097656 L 14.757812 27.421875 C 13.828125 27.941406 13.019531 28.914062 12.332031 30.34375 C 11.679688 31.675781 11.363281 33.265625 11.382812 35.113281 L 11.445312 36.515625 L 10.4375 37.082031 C 8.980469 37.738281 7.578125 38.074219 6.238281 38.09375 L 3.722656 37.886719 C 3.015625 37.746094 2.621094 37.558594 2.542969 37.320312 C 2.460938 37.042969 2.75 36.664062 3.398438 36.1875 C 3.832031 35.871094 4.542969 35.453125 5.527344 34.933594 L 6.949219 34.191406 C 7.34375 33.871094 7.578125 33.535156 7.65625 33.175781 C 7.757812 32.539062 7.421875 31.785156 6.652344 30.910156 L 4.257812 28.496094 C 1.457031 25.792969 0.242188 24.203125 0.617188 23.726562 L 2.867188 23.785156 M 16.175781 28.496094 L 20.789062 30.136719 C 23.453125 30.972656 25.570312 31.398438 27.148438 31.417969 C 27.484375 32.867188 27.996094 34.300781 28.6875 35.710938 C 29.59375 37.539062 30.707031 39.097656 32.03125 40.390625 C 31.96875 41.246094 32.058594 42.140625 32.296875 43.074219 C 28.824219 42.992188 25.425781 42.328125 22.089844 41.074219 C 19.371094 40.082031 17.140625 38.988281 15.40625 37.796875 L 13.515625 36.335938 C 13.335938 36 13.21875 35.53125 13.160156 34.933594 C 13.019531 33.761719 13.25 32.5625 13.839844 31.328125 C 14.390625 30.214844 14.945312 29.410156 15.496094 28.914062 L 16.175781 28.496094 M 37.117188 37.855469 L 38.152344 38.304688 L 39.925781 38.214844 L 40.339844 37.917969 L 40.398438 37.46875 C 40.378906 37.308594 40.292969 37.191406 40.132812 37.113281 L 39.632812 37.050781 L 37.175781 37.46875 C 36.78125 37.527344 36.761719 37.65625 37.117188 37.855469 M 38.625 33.027344 C 40.183594 32.808594 42.164062 32.132812 44.570312 31 L 45.191406 30.851562 C 45.488281 30.8125 45.761719 30.882812 46.019531 31.058594 C 46.296875 31.238281 46.363281 31.457031 46.226562 31.714844 C 46.128906 31.894531 45.96875 32.042969 45.753906 32.164062 C 43.644531 33.453125 42.195312 34.257812 41.40625 34.578125 C 40.792969 34.816406 39.984375 34.984375 38.980469 35.085938 L 36.585938 34.996094 L 32.886719 33.921875 C 32.613281 33.863281 32.40625 33.652344 32.265625 33.296875 C 32.167969 32.9375 32.363281 32.757812 32.859375 32.757812 L 34.871094 32.996094 C 36.40625 33.136719 37.660156 33.148438 38.625 33.027344 M 38.535156 44.117188 C 39.445312 45.726562 40.746094 46.96875 42.441406 47.84375 C 44.136719 48.695312 45.832031 48.984375 47.527344 48.707031 C 51.726562 47.972656 53.90625 44.375 54.066406 37.917969 C 55.582031 36.066406 56.617188 34.628906 57.171875 33.59375 C 58.292969 33.652344 59.25 33.238281 60.039062 32.34375 C 59.347656 34.191406 58.855469 35.929688 58.5625 37.558594 L 58.441406 38.035156 C 58.007812 41.414062 57.210938 44.234375 56.046875 46.5 L 54.449219 49.601562 C 54.410156 50.695312 56.6875 52.640625 61.28125 55.445312 L 63.292969 56.753906 C 64.140625 57.273438 64.8125 57.601562 65.304688 57.738281 C 62.859375 58.453125 60.382812 58.78125 57.878906 58.722656 C 55.496094 57.847656 53.128906 56.40625 50.78125 54.398438 L 47.914062 51.597656 L 47.675781 51.480469 C 44.34375 50.863281 41.289062 48.546875 38.507812 44.535156 L 38.183594 43.996094 L 38.535156 44.117188 M 37.738281 45.070312 C 39.296875 47.890625 41.554688 50.148438 44.511719 51.835938 C 45.96875 52.671875 47.273438 53.21875 48.414062 53.476562 L 50.632812 55.414062 C 52.347656 56.785156 54.035156 57.847656 55.691406 58.601562 C 50.800781 58.800781 45.824219 56.695312 40.753906 52.285156 C 39.175781 50.914062 37.679688 49.382812 36.257812 47.695312 L 34.601562 45.546875 C 34.011719 44.273438 33.726562 43.035156 33.746094 41.820312 C 34.730469 42.535156 35.816406 43.121094 37 43.578125 L 37.738281 45.070312 M 46.109375 16.363281 L 47.441406 17.050781 L 48.328125 17.378906 C 48.425781 16.863281 48.039062 16.167969 47.171875 15.292969 L 45.8125 14.097656 L 45.398438 14.039062 L 45.042969 14.335938 L 44.660156 14.933594 C 44.421875 15.351562 44.34375 15.609375 44.421875 15.710938 C 44.441406 15.75 44.628906 15.828125 44.984375 15.949219 L 46.109375 16.363281 M 47.027344 20.71875 C 45.367188 19.941406 43.878906 20.171875 42.558594 21.402344 C 44.214844 21.222656 45.554688 21.550781 46.582031 22.386719 C 47.09375 22.824219 47.441406 23.269531 47.617188 23.726562 L 49.097656 22.238281 C 48.542969 21.601562 47.855469 21.09375 47.027344 20.71875 M 54.332031 22.265625 C 54.234375 22.484375 54.320312 22.675781 54.597656 22.832031 L 55.78125 23.546875 L 56.785156 24.53125 C 57.140625 24.910156 57.339844 24.988281 57.378906 24.769531 L 57.050781 23.964844 L 56.253906 23.011719 C 55.800781 22.574219 55.296875 22.257812 54.746094 22.058594 C 54.566406 22 54.429688 22.066406 54.332031 22.265625 M 55.722656 24.890625 L 54.980469 24.351562 C 54.785156 24.273438 54.625 24.332031 54.507812 24.53125 C 54.410156 24.75 54.460938 24.910156 54.65625 25.007812 L 55.070312 25.335938 C 55.367188 25.574219 55.523438 25.785156 55.542969 25.964844 C 55.582031 26.183594 55.710938 26.28125 55.929688 26.261719 C 56.164062 26.242188 56.261719 26.082031 56.222656 25.785156 C 56.183594 25.507812 56.015625 25.207031 55.722656 24.890625 M 59.476562 37.738281 C 59.714844 35.074219 60.503906 33.285156 61.84375 32.371094 L 62.375 32.074219 C 62.730469 32.253906 62.867188 32.550781 62.789062 32.96875 L 62.226562 34.546875 C 61.378906 36.59375 61.066406 38.621094 61.28125 40.628906 C 61.597656 43.371094 62.484375 46.332031 63.945312 49.511719 C 64.59375 50.941406 65.265625 52.703125 65.953125 54.789062 L 66.429688 56.367188 C 64.59375 56.011719 63.046875 55.433594 61.785156 54.640625 L 57.941406 51.925781 C 56.777344 50.972656 56.15625 50.238281 56.074219 49.71875 C 56.054688 49.621094 56.570312 48.347656 57.613281 45.90625 C 58.757812 43.242188 59.347656 40.679688 59.390625 38.214844 L 59.476562 37.738281 M 62.613281 40.390625 C 62.101562 38.164062 62.335938 36.21875 63.324219 34.546875 C 64.070312 33.296875 65.007812 32.441406 66.132812 31.984375 C 66.664062 31.765625 67.679688 31.65625 69.179688 31.65625 L 71.339844 31.984375 L 77.519531 32.582031 L 80.152344 32.28125 C 81.945312 35.085938 83.296875 37.855469 84.203125 40.597656 C 85.050781 43.203125 84.816406 47.960938 83.496094 54.878906 L 82.636719 54.847656 C 82.398438 53.179688 82.035156 51.570312 81.542969 50.019531 L 80.449219 47.128906 L 78.730469 42.6875 C 78.277344 41.53125 78.082031 40.71875 78.140625 40.242188 L 77.222656 40.09375 C 77.105469 40.808594 77.183594 41.730469 77.460938 42.863281 C 77.738281 43.957031 78.257812 45.488281 79.027344 47.453125 C 79.816406 49.480469 80.359375 51.160156 80.65625 52.492188 C 80.96875 53.964844 81.148438 55.703125 81.1875 57.710938 C 81.246094 60.472656 80.949219 65.25 80.300781 72.046875 C 80.203125 72.363281 79.894531 72.664062 79.382812 72.941406 C 78.359375 73.496094 76.828125 73.695312 74.796875 73.539062 C 72.726562 73.359375 71.03125 73.050781 69.710938 72.613281 L 68.410156 72.105469 C 69.140625 66.800781 69.453125 62.886719 69.355469 60.363281 C 69.316406 59.40625 68.824219 57.640625 67.878906 55.054688 C 67.070312 52.890625 66.191406 50.785156 65.246094 48.738281 C 64.632812 47.40625 64.089844 45.953125 63.617188 44.382812 L 62.613281 40.390625 M 74.53125 75.085938 C 75.953125 75.1875 77.183594 75.207031 78.230469 75.148438 C 78.980469 77.214844 78.949219 78.84375 78.140625 80.035156 C 77.449219 81.027344 77.195312 81.921875 77.371094 82.71875 C 77.449219 82.976562 77.628906 83.085938 77.902344 83.046875 C 78.160156 83.007812 78.289062 82.847656 78.289062 82.570312 C 78.308594 81.875 78.625 81.296875 79.234375 80.839844 L 79.53125 80.929688 C 79.90625 81.167969 80.160156 81.574219 80.300781 82.152344 C 80.457031 82.828125 80.269531 83.394531 79.738281 83.851562 L 78.523438 84.566406 L 77.3125 84.625 L 76.335938 83.851562 C 75.863281 83.234375 75.4375 82.46875 75.066406 81.554688 C 74.964844 81.277344 74.769531 81.1875 74.472656 81.289062 C 74.175781 81.386719 74.078125 81.585938 74.175781 81.882812 L 74.53125 82.75 C 74.828125 83.402344 75.171875 83.960938 75.566406 84.417969 C 75.960938 84.894531 76.308594 85.25 76.601562 85.492188 L 75.566406 86.296875 L 73.941406 86.324219 C 73.410156 86.144531 72.875 85.738281 72.34375 85.101562 C 71.929688 84.625 71.625 84.179688 71.425781 83.761719 C 71.289062 83.484375 71.082031 83.414062 70.804688 83.554688 C 70.53125 83.652344 70.441406 83.851562 70.539062 84.148438 L 71.070312 85.816406 C 71.40625 87.03125 71.546875 87.996094 71.484375 88.710938 C 71.464844 89.226562 71.257812 89.792969 70.863281 90.410156 C 70.46875 90.984375 70.015625 91.453125 69.503906 91.808594 C 68.992188 92.128906 68.566406 92.21875 68.230469 92.078125 C 67.957031 91.980469 67.808594 91.828125 67.789062 91.632812 C 67.75 91.390625 67.847656 90.945312 68.085938 90.289062 C 68.558594 89.019531 68.953125 87.46875 69.265625 85.640625 C 69.660156 83.335938 69.769531 81.257812 69.59375 79.410156 C 69.453125 77.9375 69.484375 76.636719 69.683594 75.503906 L 69.976562 74.371094 L 74.53125 75.085938 M 71.339844 95.507812 L 69.535156 97.324219 C 69.414062 97.523438 69.433594 97.722656 69.59375 97.921875 L 70.511719 98.488281 C 71.140625 99.042969 71.476562 99.828125 71.515625 100.839844 L 71.546875 105.371094 C 71.546875 105.632812 71.671875 105.78125 71.929688 105.820312 C 72.226562 105.820312 72.601562 106 73.054688 106.355469 C 73.804688 106.972656 74.304688 107.894531 74.5625 109.128906 L 74.769531 111.363281 C 73.015625 112.277344 71.632812 112.734375 70.628906 112.734375 L 68.023438 112.257812 L 66.222656 112.316406 C 66.042969 112.636719 66.042969 114.601562 66.222656 118.21875 L 66.546875 123.585938 L 67.757812 124.09375 L 71.160156 124.300781 C 72.660156 124.082031 73.804688 123.765625 74.589844 123.347656 L 74.53125 124.300781 C 74.511719 124.679688 74.21875 125.015625 73.644531 125.3125 C 72.757812 125.769531 71.339844 126 69.386719 126 C 66.902344 126 65.019531 125.355469 63.738281 124.0625 L 63.558594 123.765625 L 63.53125 123.644531 L 63.53125 123.585938 C 63.074219 116.113281 63.074219 111.292969 63.53125 109.128906 C 63.785156 107.894531 64.476562 106.992188 65.601562 106.414062 L 67.226562 105.910156 L 67.464844 105.789062 L 67.609375 105.433594 C 67.117188 104.160156 66.902344 102.660156 66.960938 100.929688 C 67 99.917969 67.175781 98.914062 67.492188 97.921875 L 67.964844 96.699219 C 68.125 96.539062 68.152344 96.371094 68.054688 96.191406 L 67.523438 96.25 L 67.050781 96.222656 C 67.03125 95.863281 67.195312 95.417969 67.550781 94.878906 L 68.054688 94.046875 C 67.996094 93.785156 67.839844 93.65625 67.582031 93.65625 C 67.226562 93.65625 66.980469 93.578125 66.84375 93.417969 L 66.753906 92.972656 C 66.792969 92.695312 66.882812 92.535156 67.019531 92.496094 L 67.136719 92.464844 L 67.90625 93.003906 C 68.851562 93.320312 69.660156 93.269531 70.332031 92.851562 L 70.804688 92.464844 L 70.894531 92.496094 C 71.152344 92.554688 71.296875 92.714844 71.339844 92.972656 L 71.25 93.417969 C 71.089844 93.578125 70.835938 93.65625 70.480469 93.65625 C 70.222656 93.65625 70.074219 93.785156 70.035156 94.046875 C 69.996094 94.304688 70.105469 94.460938 70.363281 94.523438 L 70.894531 94.671875 C 71.210938 94.851562 71.359375 95.128906 71.339844 95.507812 M 70.628906 105.730469 L 69.621094 105.761719 L 68.617188 105.730469 C 68.320312 105.730469 68.171875 105.800781 68.171875 105.9375 C 68.171875 106.097656 68.320312 106.257812 68.617188 106.414062 L 69.621094 106.683594 C 69.996094 106.683594 70.332031 106.59375 70.628906 106.414062 C 70.902344 106.257812 71.042969 106.097656 71.042969 105.9375 C 71.042969 105.800781 70.902344 105.730469 70.628906 105.730469 M 68.171875 113.421875 L 70.746094 113.390625 L 74.828125 112.644531 L 74.679688 121.4375 C 73.417969 122.015625 72.273438 122.363281 71.25 122.484375 L 68.792969 122.570312 C 68.003906 122.550781 67.589844 122.460938 67.550781 122.304688 L 67.195312 117.832031 C 67.019531 115.011719 66.988281 113.550781 67.109375 113.449219 L 68.171875 113.421875 "/>
</g>
</svg>
