<?xml version="1.0" encoding="UTF-8"?>
<svg xmlns="http://www.w3.org/2000/svg" xmlns:xlink="http://www.w3.org/1999/xlink" width="127pt" height="124pt" viewBox="0 0 127 124" version="1.1">
<g id="surface1">
<path style=" stroke:none;fill-rule:nonzero;fill:rgb(100%,100%,100%);fill-opacity:1;" d="M 91.5 45.058594 C 91.5 46.722656 91.375 48.199219 91.121094 49.488281 L 91.089844 49.578125 L 90.652344 50.574219 C 89.894531 52.117188 89.097656 53.292969 88.261719 54.09375 L 85.316406 53.917969 C 85.898438 52.097656 86.355469 50.320312 86.6875 48.578125 C 87.171875 45.957031 87.269531 43.835938 86.980469 42.214844 C 86.433594 39.222656 84.722656 35.660156 81.84375 31.535156 L 82.691406 31.300781 L 84.148438 32.121094 C 86.40625 33.6875 88.183594 35.398438 89.488281 37.253906 C 90.808594 39.132812 91.480469 41.734375 91.5 45.058594 M 90.273438 36.726562 C 89.128906 35.125 87.855469 33.753906 86.453125 32.621094 C 85.578125 31.957031 84.539062 31.300781 83.332031 30.65625 C 85.570312 29.5 87.835938 28.894531 90.128906 28.835938 C 94 28.757812 97.703125 30.175781 101.242188 33.089844 C 105.832031 36.863281 108.261719 41.363281 108.53125 46.585938 C 108.570312 47.210938 108.6875 47.738281 108.882812 48.167969 C 109.117188 48.695312 109.417969 48.960938 109.789062 48.960938 C 110.097656 48.941406 110.273438 48.8125 110.3125 48.578125 C 110.449219 47.992188 110.796875 47.621094 111.363281 47.464844 C 111.90625 47.328125 112.257812 47.367188 112.414062 47.582031 C 113.074219 48.460938 113.472656 49.066406 113.609375 49.402344 L 113.78125 50.484375 C 113.800781 50.820312 113.9375 51.015625 114.191406 51.074219 L 114.6875 51.191406 L 115.5625 52.304688 L 116.4375 53.214844 C 116.75 53.058594 116.835938 52.84375 116.699219 52.570312 L 116.234375 51.101562 C 115.960938 50.085938 115.882812 49.480469 116 49.28125 C 116.058594 49.183594 116.183594 49.136719 116.378906 49.136719 C 117.117188 49.195312 118.285156 49.558594 119.878906 50.222656 L 119.996094 50.28125 L 119.964844 50.308594 L 120.609375 50.574219 L 122.648438 51.453125 L 123.671875 54.183594 C 124.117188 56.078125 124.058594 58.101562 123.496094 60.253906 C 122.910156 62.484375 122.019531 64.34375 120.8125 65.828125 L 118.859375 67.707031 C 116.640625 67.882812 114.53125 67.851562 112.527344 67.617188 C 108.308594 67.03125 104.683594 65.59375 101.648438 63.304688 C 98.636719 60.976562 96.175781 58.113281 94.269531 54.710938 C 93.824219 53.890625 93.09375 52.167969 92.082031 49.546875 C 92.375 47.925781 92.480469 46.210938 92.402344 44.414062 C 92.308594 41.226562 91.597656 38.664062 90.273438 36.726562 M 91.527344 58.257812 L 90.128906 54.738281 L 91.617188 50.839844 L 93.773438 55.765625 C 96.050781 60.148438 98.703125 63.597656 101.738281 66.121094 L 99.433594 65.417969 C 98.285156 65.066406 97.480469 64.753906 97.011719 64.480469 C 94.855469 63.207031 93.027344 61.132812 91.527344 58.257812 M 116.785156 44.589844 C 117.410156 44.550781 118.128906 44.695312 118.945312 45.03125 L 120.257812 45.644531 L 120.636719 46.230469 L 121.746094 48.695312 L 120.957031 49.429688 L 120.753906 49.34375 L 119.703125 47.726562 C 118.90625 46.652344 118.011719 45.683594 117.019531 44.824219 L 116.785156 44.589844 M 116.464844 48.226562 C 115.902344 48.1875 115.484375 48.363281 115.210938 48.753906 L 115.066406 49.105469 C 114.269531 47.503906 113.558594 46.289062 112.9375 45.46875 C 114.085938 44.707031 115.171875 44.792969 116.203125 45.734375 C 117.292969 46.691406 118.011719 47.660156 118.363281 48.636719 L 116.464844 48.226562 M 124.867188 53.097656 C 125.332031 53.351562 125.800781 53.703125 126.265625 54.152344 L 126.964844 54.855469 L 126.90625 57.46875 L 125.59375 57.820312 L 125.070312 58.054688 L 124.984375 58.054688 L 124.984375 58.082031 L 124.867188 58.140625 C 125.136719 56.207031 125.136719 54.523438 124.867188 53.097656 M 124.398438 60.460938 L 124.808594 58.640625 L 125.535156 64.507812 C 125.886719 67.167969 125.789062 69.464844 125.246094 71.402344 C 124.699219 73.339844 123.863281 74.335938 122.738281 74.394531 C 121.648438 74.472656 120.859375 74.109375 120.375 73.308594 C 119.734375 72.292969 119.410156 70.824219 119.410156 68.910156 C 120.191406 69.28125 121.007812 68.761719 121.863281 67.355469 C 122.738281 65.90625 123.582031 63.609375 124.398438 60.460938 M 47.285156 0.878906 L 48.101562 1.4375 L 49.003906 1.90625 L 51.628906 2.433594 C 52.679688 2.53125 53.671875 3.082031 54.605469 4.078125 L 54.867188 4.371094 L 56.703125 6.394531 C 57.480469 6.6875 58.308594 7.402344 59.183594 8.535156 C 59.824219 9.378906 60.378906 10.265625 60.847656 11.207031 C 61.703125 12.886719 61.964844 15.128906 61.632812 17.921875 C 61.476562 19.332031 61.234375 20.574219 60.902344 21.648438 C 60.4375 19.96875 59.601562 18.609375 58.394531 17.570312 L 57.023438 16.488281 C 56.539062 16.152344 56.207031 15.929688 56.035156 15.8125 L 57.550781 14.199219 C 58.09375 13.414062 58.308594 12.761719 58.191406 12.234375 C 58.035156 11.371094 57.6875 10.679688 57.140625 10.148438 C 56.402344 9.40625 55.410156 9.152344 54.167969 9.386719 C 53.777344 9.464844 53.066406 9.757812 52.039062 10.265625 C 51.164062 10.738281 50.570312 10.941406 50.257812 10.882812 L 47.953125 8.769531 C 46.632812 7.539062 45.621094 7.097656 44.921875 7.449219 L 43.023438 8.800781 L 41.65625 9.710938 C 41.265625 9.964844 40.914062 10.03125 40.605469 9.914062 L 39.789062 9.535156 C 39.105469 9.242188 38.667969 9.09375 38.476562 9.09375 C 38.027344 9.035156 37.503906 9.203125 36.898438 9.59375 C 36.53125 9.828125 35.929688 10.53125 35.09375 11.703125 L 33.78125 13.523438 C 33.195312 14.089844 32.582031 14.453125 31.941406 14.609375 C 31.222656 14.785156 30.609375 14.648438 30.105469 14.199219 C 29.347656 13.554688 28.8125 12.683594 28.5 11.585938 C 28.1875 10.511719 28.167969 9.542969 28.441406 8.683594 C 28.617188 8.039062 28.957031 7.441406 29.460938 6.894531 C 29.425781 7.636719 29.65625 8.183594 30.164062 8.535156 C 30.824219 9.027344 31.574219 9.203125 32.410156 9.066406 C 33.226562 8.90625 33.914062 8.46875 34.480469 7.746094 C 36.152344 5.652344 37.296875 4.5 37.921875 4.28125 L 40.253906 4.429688 C 41.050781 4.644531 41.617188 4.578125 41.945312 4.222656 L 42.0625 4.078125 L 42.878906 2.757812 C 43.792969 1.113281 44.492188 0.246094 44.980469 0.148438 C 45.523438 0.0507812 46.292969 0.292969 47.285156 0.878906 M 31.007812 15.429688 L 29.636719 18.714844 L 29.492188 18.480469 C 29.023438 17.757812 28.742188 17.179688 28.644531 16.75 C 28.492188 15.96875 28.519531 15.332031 28.734375 14.84375 C 28.949219 14.355469 29.269531 14.296875 29.695312 14.667969 C 30.125 15.039062 30.570312 15.273438 31.039062 15.371094 L 31.007812 15.429688 M 34.449219 14.082031 L 35.792969 12.175781 C 36.609375 11 37.164062 10.316406 37.453125 10.121094 C 38.039062 9.769531 38.914062 9.925781 40.078125 10.589844 L 41.917969 10.648438 C 42.363281 10.511719 42.9375 10.226562 43.636719 9.796875 C 44.335938 9.367188 45.144531 9.25 46.058594 9.445312 C 47.03125 9.679688 47.933594 10.226562 48.769531 11.089844 C 49.160156 11.5 49.644531 11.675781 50.230469 11.617188 L 51.660156 11.175781 C 52.183594 10.960938 53.019531 10.738281 54.167969 10.503906 C 55.234375 10.304688 56.035156 10.796875 56.558594 11.96875 C 57.101562 13.21875 56.585938 14.34375 55.011719 15.34375 L 54.75 15.636719 C 54.652344 15.832031 54.742188 15.996094 55.011719 16.132812 C 56.160156 16.722656 57.113281 17.328125 57.871094 17.953125 C 59.464844 19.339844 60.300781 20.957031 60.378906 22.792969 C 59.738281 21.425781 58.902344 20.183594 57.871094 19.066406 C 56.625 17.894531 55.800781 17.25 55.390625 17.132812 C 55.140625 17.054688 54.964844 17.101562 54.867188 17.277344 C 54.769531 17.453125 54.816406 17.601562 55.011719 17.71875 L 55.800781 18.277344 C 56.402344 18.707031 56.929688 19.144531 57.375 19.597656 C 58.289062 20.398438 59.25 21.6875 60.261719 23.46875 L 60.117188 23.996094 L 59.269531 22.675781 C 58.707031 21.855469 58.152344 21.199219 57.609375 20.710938 C 56.851562 20.046875 56.179688 19.617188 55.597656 19.417969 C 55.363281 19.339844 55.234375 19.429688 55.214844 19.683594 C 55.179688 19.9375 55.3125 20.144531 55.625 20.300781 C 56.246094 20.613281 56.742188 20.945312 57.113281 21.296875 C 57.949219 22.078125 58.882812 23.183594 59.914062 24.613281 L 59.824219 24.875 C 59.648438 24.894531 59.496094 24.945312 59.359375 25.023438 C 59.085938 25.179688 59.066406 25.414062 59.300781 25.726562 C 60.816406 26.761719 61.214844 28.132812 60.496094 29.832031 C 59.796875 31.496094 58.5625 32.269531 56.792969 32.152344 C 55.179688 35.417969 53.164062 37.929688 50.753906 39.691406 C 50.09375 40.160156 50.160156 40.335938 50.957031 40.21875 C 51.753906 40.121094 52.628906 39.710938 53.582031 38.988281 C 53.640625 42.878906 52.171875 45.253906 49.179688 46.113281 C 48.050781 46.429688 46.960938 46.429688 45.914062 46.113281 C 44.882812 45.800781 44.269531 45.304688 44.074219 44.617188 C 44.386719 44.65625 45.019531 44.511719 45.972656 44.179688 C 46.941406 43.828125 47.390625 43.574219 47.3125 43.417969 L 45.503906 43.621094 C 43.851562 43.738281 41.964844 43.398438 39.847656 42.59375 C 36.171875 41.207031 33.371094 38.585938 31.445312 34.734375 C 29.617188 31.035156 28.996094 27.144531 29.578125 23.058594 C 29.96875 20.359375 30.8125 17.804688 32.117188 15.402344 C 32.835938 15.246094 33.613281 14.804688 34.449219 14.082031 M 35.382812 15.019531 L 34.917969 15.109375 L 32.757812 16.605469 C 32.601562 16.722656 32.535156 16.820312 32.554688 16.898438 L 32.875 16.957031 L 35.207031 16.75 L 35.675781 16.488281 C 35.792969 16.328125 35.832031 16.152344 35.792969 15.957031 L 35.644531 15.402344 C 35.625 15.207031 35.539062 15.078125 35.382812 15.019531 M 40.605469 20.183594 C 40.683594 19.792969 40.625 19.597656 40.429688 19.597656 C 40.234375 19.558594 40.058594 19.722656 39.90625 20.09375 L 38.855469 22.53125 C 38.523438 23.175781 37.824219 24.230469 36.753906 25.699219 C 36.65625 25.835938 36.609375 25.992188 36.609375 26.167969 L 36.753906 26.636719 L 38.125 28.515625 C 38.515625 28.925781 38.992188 28.964844 39.554688 28.632812 L 39.816406 28.367188 L 39.730469 28.015625 L 38.59375 26.605469 C 38.339844 26.292969 38.300781 25.960938 38.476562 25.609375 L 39.582031 23.234375 L 40.34375 21.152344 L 40.605469 20.183594 M 33.078125 21.855469 C 33.097656 22.402344 33.214844 22.871094 33.429688 23.261719 C 33.644531 23.652344 33.894531 23.839844 34.1875 23.820312 C 34.480469 23.820312 34.722656 23.625 34.917969 23.234375 C 35.128906 22.824219 35.226562 22.34375 35.207031 21.796875 C 35.1875 21.25 35.074219 20.789062 34.859375 20.417969 C 34.644531 20.027344 34.390625 19.832031 34.101562 19.832031 C 33.808594 19.851562 33.566406 20.054688 33.371094 20.445312 C 33.15625 20.835938 33.058594 21.308594 33.078125 21.855469 M 33.515625 30.363281 C 33.4375 30.324219 33.351562 30.371094 33.253906 30.507812 L 32.234375 31.886719 C 32.019531 32.199219 32.019531 32.511719 32.234375 32.824219 L 33.574219 34.703125 C 33.808594 34.996094 33.90625 34.96875 33.867188 34.617188 L 33.867188 34.320312 C 33.847656 34.164062 33.894531 34.039062 34.011719 33.941406 L 34.390625 33.851562 L 36.289062 34.851562 C 37.785156 35.496094 39.136719 35.789062 40.34375 35.730469 C 41.527344 35.691406 43.074219 35.054688 44.980469 33.824219 L 47.457031 31.976562 L 47.953125 31.945312 C 48.109375 31.984375 48.234375 32.074219 48.332031 32.210938 L 48.421875 33.53125 C 48.652344 33.824219 48.800781 33.785156 48.859375 33.414062 L 49.265625 30.742188 C 49.304688 30.351562 49.160156 30.070312 48.828125 29.894531 L 45.796875 27.957031 L 45.535156 27.925781 C 45.476562 27.984375 45.476562 28.082031 45.535156 28.21875 L 45.941406 29.101562 C 46.019531 29.238281 45.992188 29.394531 45.855469 29.570312 L 45.445312 29.921875 C 42.839844 31.054688 40.886719 31.730469 39.582031 31.945312 C 38.765625 32.082031 37.621094 32.082031 36.140625 31.945312 L 34.1875 31.683594 C 34.03125 31.664062 33.894531 31.59375 33.78125 31.476562 C 33.664062 31.339844 33.605469 31.191406 33.605469 31.035156 L 33.605469 30.625 L 33.515625 30.363281 M 11.320312 28.015625 C 12.800781 29.5 14.285156 31.320312 15.785156 33.472656 L 14.761719 34.058594 C 14.023438 34.800781 13.519531 35.925781 13.246094 37.433594 C 12.933594 38.878906 13.03125 40.484375 13.539062 42.242188 L 13.945312 43.535156 L 13.128906 44.324219 C 11.886719 45.363281 10.632812 46.054688 9.367188 46.410156 L 6.917969 46.847656 C 6.21875 46.90625 5.800781 46.828125 5.664062 46.613281 C 5.527344 46.339844 5.703125 45.898438 6.1875 45.292969 L 7.878906 43.5625 L 9.015625 42.507812 C 9.328125 42.097656 9.472656 41.714844 9.453125 41.363281 C 9.394531 40.71875 8.902344 40.089844 7.96875 39.484375 C 7.167969 38.976562 6.199219 38.410156 5.050781 37.785156 C 1.707031 35.945312 0.140625 34.742188 0.355469 34.175781 C 0.511719 33.824219 1.230469 33.648438 2.511719 33.648438 C 3.738281 33.667969 5.058594 33.863281 6.480469 34.234375 C 6.730469 34.292969 6.917969 34.195312 7.035156 33.941406 C 7.113281 33.707031 7.054688 33.511719 6.859375 33.355469 C 5.828125 32.6875 4.886719 31.945312 4.03125 31.125 C 2.960938 30.128906 2.40625 29.34375 2.367188 28.777344 C 2.328125 28.601562 2.375 28.445312 2.511719 28.308594 C 3 27.839844 4 28.015625 5.515625 28.835938 C 6.683594 29.5 7.78125 30.3125 8.8125 31.269531 L 9.453125 31.242188 C 9.667969 31.046875 9.679688 30.832031 9.484375 30.597656 L 8.171875 28.808594 C 7.644531 27.867188 7.433594 27.144531 7.53125 26.636719 C 7.550781 26.34375 7.695312 26.117188 7.96875 25.960938 C 8.53125 25.648438 9.648438 26.332031 11.320312 28.015625 M 16.394531 34.734375 L 21.207031 35.085938 C 24.6875 35.203125 27.179688 34.949219 28.675781 34.320312 L 29.550781 33.96875 L 30.074219 35.144531 C 30.96875 36.941406 32.066406 38.476562 33.371094 39.75 C 33.273438 41.234375 33.625 42.847656 34.421875 44.589844 L 34.480469 44.675781 C 31.464844 45.304688 28.382812 45.46875 25.234375 45.175781 C 22.394531 44.902344 19.984375 44.421875 18 43.738281 L 15.871094 42.828125 C 15.597656 42.554688 15.367188 42.15625 15.171875 41.625 C 14.722656 40.550781 14.636719 39.359375 14.910156 38.046875 C 15.121094 36.816406 15.445312 35.898438 15.871094 35.289062 L 16.394531 34.734375 M 38.386719 37.253906 L 39.410156 37.695312 L 41.160156 37.609375 L 41.566406 37.3125 L 41.625 36.875 C 41.605469 36.71875 41.519531 36.601562 41.363281 36.523438 L 40.867188 36.464844 L 38.445312 36.875 C 38.058594 36.933594 38.039062 37.058594 38.386719 37.253906 M 39.875 32.503906 C 41.410156 32.289062 43.367188 31.625 45.738281 30.507812 L 46.351562 30.363281 C 46.640625 30.324219 46.914062 30.390625 47.167969 30.566406 C 47.4375 30.742188 47.507812 30.957031 47.371094 31.210938 C 47.273438 31.390625 47.117188 31.535156 46.902344 31.652344 C 44.824219 32.925781 43.394531 33.714844 42.617188 34.027344 C 42.015625 34.261719 41.21875 34.429688 40.226562 34.527344 L 37.863281 34.441406 L 34.21875 33.382812 C 33.945312 33.324219 33.742188 33.121094 33.605469 32.765625 C 33.507812 32.414062 33.703125 32.238281 34.1875 32.238281 L 36.171875 32.472656 C 37.6875 32.609375 38.921875 32.621094 39.875 32.503906 M 39 44.355469 C 40.535156 47.132812 42.761719 49.351562 45.679688 51.015625 C 47.117188 51.835938 48.402344 52.375 49.527344 52.628906 L 51.714844 54.535156 C 53.410156 55.882812 55.070312 56.929688 56.703125 57.671875 C 51.882812 57.867188 46.972656 55.796875 41.976562 51.453125 C 40.417969 50.105469 38.941406 48.597656 37.542969 46.9375 L 35.910156 44.824219 C 35.324219 43.574219 35.042969 42.351562 35.0625 41.15625 C 36.035156 41.84375 37.105469 42.417969 38.269531 42.886719 L 39 44.355469 M 39.4375 43.296875 L 39.789062 43.417969 C 40.683594 45 41.964844 46.222656 43.636719 47.082031 C 45.308594 47.925781 46.980469 48.207031 48.652344 47.933594 C 52.796875 47.210938 54.945312 43.671875 55.101562 37.3125 C 56.597656 35.496094 57.617188 34.078125 58.164062 33.0625 C 59.269531 33.121094 60.214844 32.707031 60.992188 31.828125 C 60.3125 33.648438 59.824219 35.359375 59.535156 36.960938 L 59.417969 37.433594 C 58.988281 40.757812 58.203125 43.535156 57.054688 45.761719 L 55.480469 48.8125 C 55.441406 49.890625 57.6875 51.804688 62.214844 54.5625 L 64.199219 55.855469 C 65.035156 56.363281 65.695312 56.683594 66.183594 56.824219 C 63.773438 57.527344 61.332031 57.847656 58.863281 57.789062 C 56.511719 56.929688 54.175781 55.511719 51.863281 53.535156 L 49.035156 50.777344 L 48.800781 50.660156 C 45.515625 50.054688 42.5 47.777344 39.757812 43.828125 L 39.4375 43.296875 M 45.59375 15.460938 C 45.609375 15.5 45.796875 15.578125 46.144531 15.695312 L 47.253906 16.105469 L 48.566406 16.78125 L 49.441406 17.101562 C 49.539062 16.59375 49.160156 15.910156 48.304688 15.050781 L 46.960938 13.875 L 46.554688 13.816406 L 46.203125 14.109375 L 45.824219 14.695312 C 45.59375 15.109375 45.515625 15.363281 45.59375 15.460938 M 48.160156 20.386719 C 46.523438 19.625 45.058594 19.851562 43.753906 21.0625 C 45.386719 20.886719 46.710938 21.210938 47.722656 22.03125 C 48.226562 22.460938 48.566406 22.902344 48.742188 23.351562 L 50.199219 21.882812 C 49.65625 21.257812 48.976562 20.757812 48.160156 20.386719 M 55.363281 21.914062 C 55.265625 22.128906 55.351562 22.3125 55.625 22.472656 L 56.792969 23.175781 L 57.785156 24.144531 C 58.132812 24.515625 58.328125 24.59375 58.367188 24.378906 L 58.046875 23.585938 L 57.257812 22.648438 C 56.8125 22.214844 56.316406 21.902344 55.769531 21.707031 C 55.597656 21.648438 55.460938 21.71875 55.363281 21.914062 M 56.734375 24.496094 L 56.003906 23.96875 C 55.808594 23.886719 55.652344 23.949219 55.539062 24.144531 C 55.441406 24.359375 55.488281 24.515625 55.683594 24.613281 L 56.089844 24.933594 C 56.382812 25.167969 56.539062 25.375 56.558594 25.550781 C 56.597656 25.765625 56.722656 25.863281 56.9375 25.84375 C 57.171875 25.824219 57.269531 25.667969 57.230469 25.375 C 57.191406 25.101562 57.023438 24.808594 56.734375 24.496094 M 62.769531 31.859375 L 63.296875 31.566406 C 63.644531 31.742188 63.78125 32.035156 63.703125 32.445312 L 63.148438 34 C 62.3125 36.015625 62.003906 38.007812 62.214844 39.984375 C 62.527344 42.683594 63.402344 45.597656 64.839844 48.726562 C 65.484375 50.132812 66.144531 51.863281 66.824219 53.917969 L 67.292969 55.472656 C 65.484375 55.121094 63.957031 54.554688 62.710938 53.769531 L 58.921875 51.101562 C 57.773438 50.164062 57.160156 49.441406 57.082031 48.929688 C 57.0625 48.832031 57.570312 47.582031 58.601562 45.175781 C 59.726562 42.554688 60.3125 40.03125 60.351562 37.609375 L 60.4375 37.136719 C 60.671875 34.519531 61.449219 32.757812 62.769531 31.859375 M 63.527344 39.75 C 63.023438 37.558594 63.257812 35.640625 64.230469 34 C 64.96875 32.765625 65.890625 31.925781 67 31.476562 C 67.523438 31.261719 68.527344 31.152344 70.003906 31.152344 L 72.132812 31.476562 L 78.230469 32.0625 L 80.824219 31.769531 C 82.59375 34.527344 83.925781 37.253906 84.820312 39.953125 C 85.65625 42.515625 85.421875 47.199219 84.121094 54.007812 L 83.273438 53.976562 C 83.042969 52.335938 82.683594 50.75 82.195312 49.222656 L 81.117188 46.378906 L 79.425781 42.007812 C 78.976562 40.875 78.785156 40.070312 78.839844 39.601562 L 77.9375 39.457031 C 77.820312 40.160156 77.898438 41.070312 78.171875 42.183594 C 78.441406 43.257812 78.957031 44.765625 79.714844 46.703125 C 80.496094 48.695312 81.027344 50.347656 81.320312 51.660156 C 81.632812 53.105469 81.808594 54.816406 81.84375 56.792969 C 81.902344 59.511719 81.613281 64.214844 80.96875 70.902344 C 80.875 71.214844 80.570312 71.507812 80.066406 71.785156 C 79.054688 72.332031 77.546875 72.527344 75.546875 72.371094 C 73.503906 72.195312 71.832031 71.890625 70.527344 71.460938 L 69.246094 70.960938 C 69.964844 65.742188 70.277344 61.886719 70.179688 59.402344 C 70.140625 58.464844 69.652344 56.722656 68.722656 54.183594 C 67.921875 52.050781 67.058594 49.976562 66.125 47.964844 C 65.523438 46.652344 64.988281 45.226562 64.519531 43.679688 L 63.527344 39.75 M 75.285156 73.894531 C 76.683594 73.992188 77.898438 74.011719 78.929688 73.953125 C 79.667969 75.988281 79.640625 77.589844 78.839844 78.765625 C 78.160156 79.742188 77.910156 80.621094 78.082031 81.40625 C 78.160156 81.660156 78.335938 81.765625 78.609375 81.726562 C 78.859375 81.6875 78.988281 81.53125 78.988281 81.257812 C 79.007812 80.574219 79.316406 80.007812 79.921875 79.558594 L 80.210938 79.644531 C 80.582031 79.878906 80.835938 80.28125 80.96875 80.847656 C 81.125 81.511719 80.941406 82.070312 80.417969 82.519531 L 79.222656 83.222656 L 78.023438 83.28125 L 77.0625 82.519531 C 76.597656 81.914062 76.175781 81.160156 75.808594 80.261719 C 75.710938 79.988281 75.515625 79.898438 75.226562 79.996094 C 74.933594 80.09375 74.835938 80.289062 74.933594 80.582031 L 75.285156 81.433594 C 75.574219 82.078125 75.914062 82.628906 76.304688 83.078125 C 76.691406 83.546875 77.035156 83.898438 77.324219 84.132812 L 76.304688 84.925781 L 74.699219 84.953125 C 74.175781 84.777344 73.648438 84.378906 73.125 83.753906 C 72.714844 83.28125 72.414062 82.84375 72.222656 82.433594 C 72.085938 82.15625 71.878906 82.089844 71.609375 82.226562 C 71.335938 82.324219 71.25 82.519531 71.347656 82.8125 L 71.871094 84.457031 C 72.203125 85.648438 72.335938 86.597656 72.277344 87.300781 L 72.25 87.625 C 72.171875 88.035156 71.976562 88.484375 71.667969 88.972656 C 71.277344 89.539062 70.832031 90 70.324219 90.351562 C 69.820312 90.664062 69.402344 90.753906 69.070312 90.617188 C 68.796875 90.519531 68.652344 90.371094 68.632812 90.175781 C 68.59375 89.941406 68.691406 89.5 68.925781 88.855469 L 69.332031 87.625 C 69.625 86.644531 69.878906 85.53125 70.089844 84.28125 C 70.480469 82.011719 70.585938 79.96875 70.414062 78.148438 C 70.277344 76.703125 70.304688 75.421875 70.5 74.304688 L 70.792969 73.191406 L 75.285156 73.894531 M 72.132812 93.988281 L 70.355469 95.78125 C 70.238281 95.976562 70.257812 96.171875 70.414062 96.367188 L 71.316406 96.921875 C 71.9375 97.472656 72.269531 98.242188 72.308594 99.242188 L 72.335938 103.699219 C 72.335938 103.953125 72.464844 104.101562 72.714844 104.140625 C 73.007812 104.140625 73.378906 104.316406 73.824219 104.667969 C 74.5625 105.273438 75.058594 106.183594 75.3125 107.394531 L 75.515625 109.597656 C 73.785156 110.496094 72.425781 110.945312 71.433594 110.945312 L 68.867188 110.476562 L 67.085938 110.535156 C 66.914062 110.847656 66.914062 112.785156 67.085938 116.34375 L 67.410156 121.625 L 68.605469 122.121094 L 71.957031 122.328125 C 73.4375 122.113281 74.5625 121.800781 75.339844 121.390625 L 75.285156 122.328125 C 75.265625 122.699219 74.972656 123.03125 74.410156 123.324219 C 73.535156 123.773438 72.132812 124 70.207031 124 C 67.757812 124 65.902344 123.363281 64.636719 122.09375 L 64.460938 121.800781 L 64.433594 121.683594 L 64.433594 121.625 C 63.984375 114.269531 63.984375 109.527344 64.433594 107.394531 C 64.6875 106.183594 65.367188 105.292969 66.476562 104.726562 L 68.078125 104.226562 L 68.3125 104.109375 L 68.457031 103.757812 C 67.972656 102.507812 67.757812 101.03125 67.816406 99.328125 C 67.855469 98.332031 68.03125 97.34375 68.339844 96.367188 L 68.808594 95.164062 C 68.964844 95.007812 68.992188 94.839844 68.894531 94.664062 L 68.371094 94.722656 L 67.902344 94.695312 C 67.882812 94.34375 68.050781 93.902344 68.398438 93.375 L 68.894531 92.550781 C 68.835938 92.296875 68.683594 92.171875 68.429688 92.171875 C 68.078125 92.171875 67.835938 92.09375 67.699219 91.9375 L 67.613281 91.496094 C 67.652344 91.222656 67.738281 91.066406 67.875 91.027344 L 67.992188 90.996094 L 68.75 91.527344 C 69.683594 91.839844 70.480469 91.789062 71.140625 91.378906 L 71.609375 90.996094 L 71.695312 91.027344 C 71.949219 91.085938 72.09375 91.242188 72.132812 91.496094 L 72.046875 91.9375 C 71.890625 92.09375 71.636719 92.171875 71.289062 92.171875 C 71.035156 92.171875 70.890625 92.296875 70.851562 92.550781 C 70.8125 92.808594 70.917969 92.964844 71.171875 93.023438 L 71.695312 93.167969 C 72.007812 93.34375 72.152344 93.617188 72.132812 93.988281 M 71.433594 104.050781 L 70.441406 104.082031 L 69.449219 104.050781 C 69.160156 104.050781 69.011719 104.121094 69.011719 104.257812 C 69.011719 104.414062 69.160156 104.570312 69.449219 104.726562 L 70.441406 104.992188 C 70.8125 104.992188 71.140625 104.902344 71.433594 104.726562 C 71.707031 104.570312 71.839844 104.414062 71.839844 104.257812 C 71.839844 104.121094 71.707031 104.050781 71.433594 104.050781 M 67.960938 111.648438 L 69.011719 111.621094 L 71.550781 111.589844 L 75.574219 110.859375 L 75.429688 119.511719 C 74.183594 120.078125 73.058594 120.421875 72.046875 120.539062 L 69.625 120.625 C 68.847656 120.605469 68.4375 120.519531 68.398438 120.363281 L 68.050781 115.960938 C 67.875 113.183594 67.847656 111.746094 67.960938 111.648438 "/>
</g>
</svg>
