<?xml version="1.0" encoding="UTF-8"?>
<svg xmlns="http://www.w3.org/2000/svg" xmlns:xlink="http://www.w3.org/1999/xlink" width="128pt" height="152pt" viewBox="0 0 128 152" version="1.1">
<g id="surface1">
<path style=" stroke:none;fill-rule:nonzero;fill:rgb(100%,100%,100%);fill-opacity:1;" d="M 119.132812 130.71875 L 119.449219 130.71875 C 120.460938 130.71875 121.554688 130.214844 122.726562 129.207031 C 123.738281 128.355469 124.429688 127.425781 124.804688 126.417969 L 124.882812 126.097656 L 124.644531 125.941406 L 123.125 125.222656 L 122.964844 125.460938 L 121.527344 127.53125 L 119.929688 125.859375 L 119.691406 126.339844 C 118.996094 127.558594 118.785156 128.914062 119.050781 130.398438 L 119.132812 130.71875 M 106.105469 126.019531 L 105.308594 126.339844 L 104.828125 126.339844 L 104.988281 126.816406 C 105.203125 127.824219 105.949219 128.753906 107.226562 129.605469 C 108.292969 130.347656 109.25 130.71875 110.101562 130.71875 L 110.582031 130.71875 L 110.820312 130.640625 L 110.902344 130.398438 C 111.222656 128.964844 110.929688 127.664062 110.023438 126.496094 L 109.703125 126.097656 L 108.34375 127.929688 L 106.585938 126.019531 L 106.347656 125.859375 L 106.105469 126.019531 M 95.082031 101.964844 L 94.761719 101.886719 L 94.601562 102.203125 C 92.578125 106.503906 92.203125 111.097656 93.484375 115.984375 L 93.960938 116.382812 C 94.28125 116.382812 94.441406 116.195312 94.441406 115.824219 C 94.601562 111.734375 95.242188 108.363281 96.359375 105.710938 C 97.746094 106.664062 99.714844 107.804688 102.273438 109.132812 C 104.402344 110.195312 105.867188 111.070312 106.667969 111.761719 L 106.984375 112.082031 L 107.226562 111.683594 C 107.546875 111.3125 107.707031 110.964844 107.707031 110.648438 L 107.707031 110.488281 L 107.546875 110.328125 C 101.152344 105.019531 97 102.230469 95.082031 101.964844 M 19.976562 1.609375 C 21.574219 0.597656 23.144531 0.730469 24.6875 2.007812 C 26.234375 3.332031 26.019531 4.875 24.050781 6.625 C 20.375 9.386719 17.230469 12.414062 14.621094 15.707031 C 9.5625 22.238281 8.148438 28.609375 10.386719 34.820312 C 13.742188 44.007812 21.867188 50.113281 34.757812 53.140625 C 41.308594 54.679688 47.832031 55.371094 54.332031 55.210938 C 72.125 58.078125 84.933594 67.714844 92.765625 84.125 C 101.765625 88.160156 106.878906 94.558594 108.105469 103.320312 C 112.367188 104.433594 115.695312 105.949219 118.09375 107.859375 L 124.246094 102.523438 C 125.683594 101.726562 126.535156 102.257812 126.800781 104.117188 C 127.601562 110.804688 127.066406 116.222656 125.203125 120.363281 C 126.695312 124.878906 126.242188 128.648438 123.84375 131.675781 L 120.730469 136.375 C 118.226562 139.347656 115.667969 140.835938 113.058594 140.835938 C 111.515625 140.835938 109.808594 139.90625 107.945312 138.046875 C 106.984375 137.039062 105.789062 136.242188 104.347656 135.65625 C 100.992188 134.488281 98.675781 133.398438 97.398438 132.390625 C 96.171875 131.328125 94.707031 129.445312 93.003906 126.738281 L 89.886719 126.65625 L 95.082031 131.753906 C 96.679688 133.453125 97.558594 134.648438 97.71875 135.339844 C 98.144531 136.984375 99.316406 138.710938 101.234375 140.515625 L 103.949219 142.746094 C 105.867188 144.339844 106.984375 145.691406 107.304688 146.808594 C 107.785156 148.878906 106.375 150.339844 103.070312 151.1875 C 101.367188 151.667969 99.503906 151.453125 97.476562 150.550781 C 94.976562 149.488281 93.351562 147.683594 92.605469 145.136719 C 92.019531 142.957031 89.703125 140.144531 85.652344 136.691406 C 80.699219 132.445312 77.714844 129.628906 76.703125 128.25 C 73.453125 123.894531 70.710938 120.789062 68.472656 118.929688 C 65.066406 117.867188 60.882812 113.117188 55.929688 104.671875 C 53.746094 105.894531 49.992188 104.804688 44.664062 101.40625 C 40.03125 98.007812 37.847656 96.601562 38.113281 97.1875 C 42.105469 100.851562 44.105469 103.480469 44.105469 105.070312 C 44.105469 106.027344 43.652344 106.824219 42.746094 107.460938 C 40.347656 109.214844 37.953125 109.082031 35.554688 107.0625 C 34.117188 105.789062 29.882812 99.574219 22.851562 88.425781 C 21.945312 86.9375 21.308594 85.476562 20.933594 84.042969 C 20.292969 81.761719 20.535156 80.167969 21.652344 79.265625 C 22.664062 78.417969 25.410156 78.921875 29.882812 80.777344 C 34.089844 82.53125 36.195312 83.273438 36.195312 83.007812 C 35.289062 80.300781 34.890625 77.488281 34.996094 74.566406 C 35.15625 68.777344 37.847656 64.449219 43.066406 61.582031 C 38.003906 61.316406 32.839844 60.390625 27.566406 58.796875 C 17.070312 55.664062 9.5625 49.421875 5.035156 40.078125 C 1.679688 31.476562 2.421875 23.035156 7.269531 14.75 C 10.679688 8.960938 14.914062 4.582031 19.976562 1.609375 "/>
</g>
</svg>
