<?xml version="1.0" encoding="UTF-8"?>
<svg xmlns="http://www.w3.org/2000/svg" xmlns:xlink="http://www.w3.org/1999/xlink" width="128pt" height="270pt" viewBox="0 0 128 270" version="1.1">
<g id="surface1">
<path style=" stroke:none;fill-rule:nonzero;fill:rgb(100%,100%,100%);fill-opacity:1;" d="M 21.449219 158.410156 L 21.324219 160.523438 L 20.457031 163.6875 L 19.027344 166.234375 L 23.003906 171.390625 C 25.285156 174.492188 26.175781 176.316406 25.675781 176.855469 C 24.847656 177.683594 23.605469 177.351562 21.949219 175.859375 L 19.027344 173.003906 L 18.777344 173.066406 L 18.652344 173.066406 L 21.015625 177.039062 C 22.507812 179.234375 22.859375 180.703125 22.070312 181.449219 C 21.324219 182.152344 20.332031 182.152344 19.085938 181.449219 L 16.351562 179.335938 L 16.539062 179.214844 C 17.410156 178.46875 17.742188 177.164062 17.535156 175.300781 L 16.289062 169.960938 L 14.984375 164.867188 C 16.933594 163.832031 17.867188 161.558594 17.78125 158.039062 L 21.449219 158.410156 M 3.671875 159.964844 C 3.175781 161.414062 3.402344 164.207031 4.355469 168.347656 C 5.640625 173.6875 7.980469 177.207031 11.378906 178.902344 C 13.203125 179.8125 14.675781 180.0625 15.792969 179.648438 L 16.042969 180.144531 L 17.65625 182.816406 C 17.90625 183.144531 18.011719 183.582031 17.96875 184.117188 C 17.925781 184.699219 17.699219 185.132812 17.285156 185.421875 C 16.167969 186.25 14.21875 185.734375 11.441406 183.871094 L 10.136719 182.9375 L 9.019531 181.757812 C 7.152344 179.730469 5.535156 177.558594 4.167969 175.238281 C 2.097656 171.679688 0.914062 168.242188 0.625 164.929688 C 0.292969 160.378906 1.847656 154.414062 5.289062 147.046875 C 7.070312 151.847656 9.847656 155.058594 13.617188 156.671875 L 15.605469 157.417969 C 15.773438 159.28125 15.398438 160.769531 14.488281 161.886719 L 13.121094 163.007812 L 12.125 163.441406 L 13.308594 168.410156 L 13.929688 170.644531 C 15.089844 174.660156 15.421875 176.875 14.921875 177.289062 C 14.589844 177.496094 13.785156 177.289062 12.5 176.667969 C 9.722656 175.300781 7.855469 172.277344 6.902344 167.601562 C 6.574219 166.109375 6.324219 163.585938 6.15625 160.023438 C 6.117188 159.40625 5.742188 159.09375 5.039062 159.09375 C 4.335938 159.136719 3.878906 159.425781 3.671875 159.964844 M 8.085938 139.65625 C 9.910156 134.980469 12.167969 130.03125 14.859375 124.816406 C 19.296875 116.164062 24.207031 108.382812 29.59375 101.46875 L 34.253906 95.941406 L 34.378906 96.808594 C 35.207031 100.121094 38.335938 102.710938 43.765625 104.570312 C 43.933594 105.316406 43.558594 108.089844 42.648438 112.894531 C 41.570312 118.648438 41.03125 122.539062 41.03125 124.566406 C 41.03125 130.941406 41.527344 138.375 42.523438 146.859375 C 43.0625 152.324219 43.269531 155.429688 43.144531 156.175781 C 40.65625 156.132812 38.460938 155.636719 36.554688 154.683594 C 35.4375 154.148438 34.546875 153.503906 33.882812 152.761719 L 33.757812 148.660156 C 33.550781 145.804688 32.722656 141.230469 31.273438 134.9375 L 28.472656 123.203125 C 27.519531 118.6875 27.085938 114.796875 27.167969 111.527344 L 25.054688 117.363281 C 25.429688 120.511719 26.277344 124.710938 27.605469 129.96875 L 30.527344 142.574219 C 26.878906 147.296875 24.0625 151.640625 22.070312 155.617188 C 20.664062 156.15625 18.050781 155.636719 14.238281 154.0625 C 11.878906 153.070312 10.03125 151.105469 8.707031 148.164062 C 7.917969 146.382812 7.421875 144.605469 7.214844 142.824219 C 7.132812 142.410156 7.339844 141.519531 7.835938 140.152344 L 8.085938 139.65625 M 43.457031 77.1875 L 43.890625 77.683594 L 46.003906 78.800781 L 47.683594 79.050781 L 49.796875 78.738281 L 50.605469 78.179688 C 50.851562 77.847656 50.9375 77.539062 50.851562 77.25 L 50.417969 76.566406 L 49.546875 76.253906 L 49.296875 76.316406 L 44.078125 76.9375 C 43.703125 76.980469 43.496094 77.0625 43.457031 77.1875 M 35.4375 69.050781 C 34.898438 68.96875 34.503906 68.515625 34.253906 67.6875 C 34.089844 66.984375 34.441406 66.628906 35.3125 66.628906 L 35.5 66.628906 L 38.917969 67.25 L 45.878906 67.871094 L 47.621094 67.808594 C 50.894531 67.5625 55.121094 66.382812 60.300781 64.269531 L 61.730469 63.960938 C 62.3125 63.960938 62.851562 64.148438 63.347656 64.519531 C 63.886719 64.976562 64.011719 65.449219 63.71875 65.949219 L 62.664062 66.816406 C 58.105469 69.257812 54.976562 70.769531 53.277344 71.351562 L 47.0625 72.15625 L 43.144531 71.722656 L 35.4375 69.050781 M 34.191406 62.59375 C 34.027344 62.59375 33.863281 62.699219 33.695312 62.90625 L 31.457031 65.699219 L 31.085938 66.691406 L 31.332031 67.6875 L 34.007812 71.847656 L 34.378906 72.21875 L 34.628906 71.597656 L 34.628906 70.976562 C 34.546875 70.355469 34.816406 70.046875 35.4375 70.046875 L 35.746094 70.109375 L 39.664062 72.40625 C 42.8125 73.9375 45.671875 74.703125 48.242188 74.703125 L 48.304688 74.703125 C 50.832031 74.703125 54.1875 73.523438 58.375 71.164062 L 63.84375 67.5625 L 64.34375 67.4375 C 64.964844 67.4375 65.398438 67.664062 65.648438 68.121094 L 65.710938 70.914062 L 66.207031 71.289062 L 66.640625 70.730469 L 67.761719 65.140625 L 67.636719 64.085938 L 66.953125 63.277344 L 60.738281 58.867188 L 60.238281 58.683594 C 59.949219 58.683594 59.90625 58.910156 60.113281 59.363281 L 60.921875 61.289062 C 61.046875 61.621094 60.964844 61.972656 60.675781 62.347656 L 59.742188 62.96875 C 54.0625 65.078125 49.816406 66.300781 47 66.628906 L 45.320312 66.691406 L 38.855469 66.070312 L 35.5625 65.449219 C 35.230469 65.410156 34.9375 65.265625 34.691406 65.015625 L 34.378906 64.085938 L 34.441406 63.152344 C 34.441406 62.78125 34.359375 62.59375 34.191406 62.59375 M 49.050781 41.605469 L 46.5625 46.636719 L 43.640625 50.609375 L 41.652344 53.09375 C 41.15625 53.714844 41.132812 54.375 41.589844 55.082031 L 44.324219 59.179688 C 44.78125 59.675781 45.339844 59.925781 46.003906 59.925781 L 47.308594 59.613281 L 47.929688 59.117188 C 48.054688 58.867188 48.015625 58.597656 47.808594 58.308594 L 45.507812 55.203125 C 45.050781 54.542969 45.007812 53.839844 45.382812 53.09375 L 47.992188 48.1875 C 48.988281 46.199219 49.816406 44.089844 50.480469 41.855469 C 50.726562 41.066406 50.625 40.632812 50.167969 40.550781 L 50.105469 40.550781 C 49.734375 40.550781 49.382812 40.902344 49.050781 41.605469 M 36.679688 40.425781 C 36.058594 40.425781 35.519531 40.839844 35.0625 41.667969 C 34.609375 42.453125 34.359375 43.425781 34.316406 44.585938 C 34.277344 45.746094 34.460938 46.738281 34.878906 47.566406 C 35.292969 48.394531 35.808594 48.828125 36.429688 48.871094 L 36.492188 48.871094 C 37.113281 48.871094 37.652344 48.457031 38.109375 47.628906 C 38.566406 46.84375 38.8125 45.871094 38.855469 44.710938 C 38.898438 43.550781 38.691406 42.535156 38.234375 41.667969 C 37.820312 40.839844 37.300781 40.425781 36.679688 40.425781 M 27.851562 29 C 28.765625 29.828125 29.738281 30.386719 30.773438 30.675781 C 29.40625 33.035156 28.246094 35.332031 27.292969 37.570312 C 26.175781 35.625 25.550781 34.214844 25.429688 33.347656 C 25.222656 32.0625 25.261719 30.925781 25.550781 29.929688 C 25.84375 28.980469 26.277344 28.503906 26.859375 28.503906 C 27.191406 28.503906 27.519531 28.667969 27.851562 29 M 39.601562 30.304688 L 38.980469 30.488281 L 34.191406 33.46875 L 33.695312 34.03125 C 33.738281 34.152344 33.945312 34.214844 34.316406 34.214844 L 39.414062 33.96875 C 39.828125 33.96875 40.160156 33.800781 40.410156 33.46875 C 40.699219 33.179688 40.804688 32.828125 40.71875 32.414062 L 40.472656 31.171875 C 40.390625 30.59375 40.097656 30.304688 39.601562 30.304688 M 61.296875 41.480469 C 60.839844 42.308594 60.589844 43.300781 60.550781 44.460938 C 60.507812 45.621094 60.695312 46.613281 61.109375 47.441406 C 61.523438 48.269531 62.0625 48.707031 62.726562 48.746094 C 63.347656 48.746094 63.886719 48.332031 64.34375 47.503906 C 64.796875 46.71875 65.046875 45.746094 65.085938 44.585938 C 65.128906 43.386719 64.941406 42.371094 64.527344 41.542969 C 64.113281 40.714844 63.597656 40.300781 62.972656 40.300781 L 62.914062 40.300781 C 62.289062 40.300781 61.75 40.695312 61.296875 41.480469 M 67.449219 31.855469 L 64.714844 29.246094 C 64.550781 29.125 64.34375 29.0625 64.09375 29.0625 C 63.636719 29.0625 63.304688 29.246094 63.097656 29.621094 L 62.226562 30.800781 C 61.648438 31.628906 61.441406 32.167969 61.605469 32.414062 C 61.730469 32.621094 62.914062 33.140625 65.148438 33.96875 L 67.761719 35.457031 L 69.5625 36.328125 L 69.625 36.328125 C 69.914062 35.25 69.191406 33.761719 67.449219 31.855469 M 88.523438 260.4375 C 86.242188 261.511719 85 261.597656 84.792969 260.683594 C 84.667969 260.1875 84.378906 259.734375 83.921875 259.320312 L 82.554688 259.195312 L 77.148438 264.226562 C 74.828125 266.292969 71.675781 267.847656 67.699219 268.882812 L 65.585938 269.378906 L 53.464844 270 C 50.726562 269.542969 49.859375 268.324219 50.851562 266.335938 C 51.515625 264.929688 53.070312 263.230469 55.515625 261.246094 C 55.722656 263.191406 56.46875 264.679688 57.753906 265.714844 C 59.203125 266.914062 61.421875 267.269531 64.402344 266.769531 L 67.699219 265.964844 L 70.992188 264.660156 C 74.472656 263.085938 77.625 260.25 80.441406 256.152344 C 84.253906 255.242188 87.777344 253.191406 91.007812 250.003906 C 92.085938 252.777344 92.480469 255.117188 92.191406 257.023438 C 92.023438 258.222656 90.800781 259.359375 88.523438 260.4375 M 84.917969 236.714844 C 83.921875 236.757812 83.28125 237.046875 82.992188 237.585938 C 82.617188 238.332031 82.535156 239.34375 82.742188 240.628906 L 82.929688 243.917969 L 81.996094 247.148438 C 79.964844 252.324219 77.0625 256.503906 73.292969 259.691406 C 71.636719 261.097656 69.769531 262.195312 67.699219 262.984375 L 66.703125 263.355469 C 64.050781 264.226562 61.585938 264.433594 59.308594 263.976562 C 58.023438 263.726562 57.628906 262.132812 58.125 259.195312 L 58.3125 258.449219 L 58.621094 257.269531 L 58.933594 256.027344 C 60.011719 252.21875 61.8125 248.015625 64.34375 243.421875 L 66.269531 244.292969 C 70.453125 245.78125 74.082031 244.355469 77.148438 240.007812 C 79.054688 237.273438 80.835938 233.09375 82.492188 227.464844 C 84.605469 229.863281 85.746094 232.410156 85.914062 235.101562 C 85.996094 236.136719 85.664062 236.675781 84.917969 236.714844 M 78.703125 206.660156 L 82.246094 203.992188 C 87.878906 215.375 90.492188 228.683594 90.078125 243.917969 L 90.015625 246.714844 L 86.535156 250.191406 C 85.332031 251.183594 84.046875 251.972656 82.679688 252.550781 C 83.757812 250.4375 84.691406 248.183594 85.476562 245.78125 C 85.644531 245.285156 85.558594 244.148438 85.226562 242.367188 C 84.9375 240.792969 84.980469 239.820312 85.351562 239.449219 L 86.347656 239.261719 L 87.527344 239.011719 C 88.027344 238.597656 88.316406 237.957031 88.398438 237.089844 L 88.335938 234.851562 C 88.210938 232.988281 87.632812 231.1875 86.597656 229.449219 C 85.808594 228.085938 84.605469 226.59375 82.992188 224.980469 C 83.15625 216.90625 81.726562 210.800781 78.703125 206.660156 M 97.535156 185.175781 C 96.335938 184.84375 95.960938 184.265625 96.417969 183.4375 L 96.914062 182.878906 L 98.097656 182.257812 C 99.960938 181.386719 101.554688 180.394531 102.882812 179.277344 C 103.960938 178.40625 104.890625 177.226562 105.679688 175.734375 C 107.835938 176.894531 111.066406 177.0625 115.378906 176.234375 C 117.820312 175.777344 120.058594 174.617188 122.089844 172.753906 C 123.75 171.222656 125.136719 169.359375 126.253906 167.167969 C 127.042969 169.484375 127.457031 171.597656 127.5 173.5 C 127.746094 179.335938 127.023438 184.492188 125.324219 188.960938 C 124.578125 191.03125 123.4375 192.066406 121.902344 192.066406 L 122.960938 187.597656 C 123.707031 184.449219 123.789062 182.523438 123.210938 181.820312 C 123.003906 181.53125 122.257812 183.914062 120.972656 188.960938 C 119.273438 194.304688 117.242188 197.261719 114.878906 197.84375 L 114.195312 197.84375 L 113.949219 197.71875 L 115.625 190.949219 C 116.703125 186.519531 116.808594 184.117188 115.9375 183.746094 L 114.070312 189.832031 L 111.398438 198.214844 C 109.410156 202.4375 107.8125 204.28125 106.613281 203.742188 C 106.113281 203.535156 105.949219 202.519531 106.113281 200.699219 L 106.796875 196.167969 L 107.046875 195.046875 L 108.914062 183.4375 L 108.851562 182.816406 C 108.765625 182.609375 107.917969 182.816406 106.300781 183.4375 L 101.824219 184.988281 L 97.535156 185.175781 M 101.265625 177.351562 L 98.71875 179.152344 C 100.210938 172.898438 100.519531 167.332031 99.648438 162.445312 C 101.515625 166.421875 103.007812 170.085938 104.125 173.4375 C 103.214844 175.261719 102.261719 176.5625 101.265625 177.351562 M 94.179688 167.167969 L 97.472656 164.808594 C 97.847656 169.402344 97.203125 174.554688 95.546875 180.269531 L 95.546875 180.765625 C 94.59375 181.386719 94.054688 182.214844 93.929688 183.25 L 94.054688 184.367188 L 93.992188 184.429688 C 89.515625 194.613281 81.3125 202.726562 69.378906 208.773438 L 67.824219 211.753906 C 68.320312 212.167969 68.777344 212.289062 69.191406 212.125 L 77.457031 208.460938 C 79.738281 212.0625 80.753906 217.425781 80.503906 224.542969 C 78.761719 230.421875 77.0625 234.644531 75.40625 237.210938 C 72.382812 241.847656 68.734375 243.132812 64.464844 241.0625 L 60.300781 237.710938 C 56.984375 234.730469 53.753906 231.457031 50.605469 227.898438 C 46.5 223.136719 43.703125 218.605469 42.210938 214.296875 C 40.554688 209.578125 41.300781 204.320312 44.449219 198.527344 C 47.640625 192.5625 52.59375 187.058594 59.308594 182.007812 C 59.886719 181.59375 59.84375 181.015625 59.183594 180.269531 C 58.519531 179.523438 57.917969 179.359375 57.378906 179.773438 C 50.335938 185.03125 45.132812 190.910156 41.777344 197.40625 C 39.25 193.640625 37.46875 190.453125 36.429688 187.84375 C 34.152344 182.007812 33.136719 174.390625 33.386719 164.992188 C 35.914062 166.9375 39.144531 168.824219 43.082031 170.644531 C 50.832031 174.203125 59.492188 175.675781 69.066406 175.054688 C 78.640625 174.390625 87.011719 171.761719 94.179688 167.167969 M 96.605469 96.5625 C 102.738281 104.304688 107.566406 111.777344 111.085938 118.980469 C 114.941406 126.84375 118.152344 135.457031 120.722656 144.8125 C 122.257812 150.359375 123.457031 155.679688 124.328125 160.769531 L 124.453125 161.265625 L 124.515625 164.0625 C 123.894531 165.839844 123.042969 167.457031 121.964844 168.90625 C 120.058594 171.554688 117.84375 173.105469 115.316406 173.5625 C 111.335938 174.347656 108.683594 174.347656 107.359375 173.5625 C 106.695312 170.789062 105.722656 167.953125 104.4375 165.054688 C 100.832031 156.898438 94.574219 147.9375 85.664062 138.167969 C 81.1875 133.324219 77.0625 129.265625 73.292969 125.996094 L 72.796875 127.796875 L 80.070312 134.628906 C 84.628906 139.097656 88.9375 144.417969 93 150.585938 C 91.007812 151.992188 88.316406 153.296875 84.917969 154.5 C 79.449219 156.445312 73.128906 157.664062 65.957031 158.164062 C 64.632812 155.59375 63.636719 148.019531 62.972656 135.433594 C 62.269531 122.0625 62.789062 113.285156 64.527344 109.105469 C 64.902344 108.113281 65.296875 107.574219 65.710938 107.492188 C 69.273438 107.199219 72.859375 106.0625 76.464844 104.074219 C 80.070312 102.046875 82.867188 99.625 84.855469 96.808594 C 85.933594 95.277344 86.699219 93.601562 87.15625 91.78125 C 87.609375 90 87.671875 88.324219 87.34375 86.75 C 91.195312 90.433594 94.285156 93.707031 96.605469 96.5625 M 84.605469 91.40625 C 84.191406 92.980469 83.589844 94.304688 82.804688 95.382812 C 81.023438 97.867188 78.472656 100.039062 75.15625 101.902344 C 71.882812 103.722656 68.652344 104.777344 65.460938 105.070312 C 62.269531 105.441406 60.527344 111.214844 60.238281 122.394531 C 60.074219 128.5625 60.34375 135.683594 61.046875 143.753906 C 61.710938 150.792969 62.476562 155.617188 63.347656 158.222656 C 63.925781 159.878906 64.609375 160.707031 65.398438 160.707031 L 65.585938 160.707031 C 73.128906 160.210938 79.757812 158.96875 85.476562 156.984375 C 89.039062 155.742188 92.003906 154.3125 94.367188 152.699219 L 96.292969 155.988281 L 96.605469 158.84375 L 96.851562 160.460938 C 96.8125 160.875 96.542969 161.328125 96.042969 161.824219 C 94.550781 163.398438 92.480469 164.910156 89.828125 166.359375 C 82.121094 170.539062 72.359375 172.527344 60.550781 172.320312 C 55.785156 172.277344 51.019531 171.367188 46.253906 169.589844 C 41.363281 167.808594 37.113281 165.386719 33.507812 162.324219 L 33.820312 155.925781 C 36.429688 157.75 39.726562 158.679688 43.703125 158.722656 C 44.160156 158.722656 44.574219 158.535156 44.949219 158.164062 C 45.445312 157.625 45.671875 156.507812 45.632812 154.808594 L 44.949219 146.613281 C 43.996094 137.753906 43.515625 130.40625 43.515625 124.566406 C 43.515625 122.457031 44.035156 118.730469 45.070312 113.390625 L 46.316406 105.628906 C 46.398438 103.972656 46.023438 102.917969 45.195312 102.460938 L 44.949219 102.335938 C 40.140625 100.761719 37.425781 98.734375 36.804688 96.25 C 36.515625 95.214844 36.636719 94.097656 37.175781 92.898438 L 41.464844 88.800781 L 46.191406 90.847656 C 47.351562 93.125 49.050781 94.84375 51.289062 96.003906 C 53.359375 97.039062 55.742188 97.554688 58.4375 97.554688 C 63.492188 97.554688 68.15625 95.960938 72.421875 92.773438 C 76.941406 89.378906 79.28125 85.300781 79.449219 80.539062 L 84.792969 85.074219 C 85.25 87.183594 85.1875 89.296875 84.605469 91.40625 M 82.992188 53.589844 L 83.859375 54.957031 C 83.859375 55.410156 84.109375 55.640625 84.605469 55.640625 C 85.105469 55.640625 85.332031 55.308594 85.289062 54.644531 C 85.25 53.984375 84.9375 53.363281 84.359375 52.78125 C 83.902344 52.246094 83.40625 51.832031 82.867188 51.539062 L 82.492188 51.480469 C 82.160156 51.480469 81.933594 51.664062 81.808594 52.039062 C 81.683594 52.410156 81.789062 52.679688 82.121094 52.84375 L 82.992188 53.589844 M 81.683594 47.257812 C 81.5625 47.671875 81.746094 48.023438 82.246094 48.3125 L 84.667969 49.925781 L 86.347656 51.726562 C 86.96875 52.554688 87.382812 52.96875 87.589844 52.96875 L 87.839844 52.660156 C 87.921875 52.367188 87.714844 51.808594 87.21875 50.980469 L 85.664062 48.871094 C 84.710938 47.835938 83.695312 47.132812 82.617188 46.757812 L 82.367188 46.699219 C 82.039062 46.699219 81.808594 46.882812 81.683594 47.257812 M 80.441406 22.851562 L 80.878906 22.851562 C 83.113281 22.851562 84.628906 24.074219 85.414062 26.515625 C 86.242188 29.125 85 31.359375 81.683594 33.222656 C 81.519531 33.222656 81.332031 33.410156 81.125 33.78125 C 80.878906 34.152344 81.023438 34.503906 81.5625 34.835938 C 84.128906 36.328125 86.097656 37.734375 87.464844 39.058594 C 90.699219 42.121094 92.316406 45.621094 92.316406 49.554688 C 91.03125 46.492188 89.371094 43.777344 87.34375 41.417969 C 84.855469 38.8125 83.175781 37.339844 82.308594 37.011719 L 81.871094 36.949219 C 81.457031 36.949219 81.207031 37.113281 81.125 37.445312 C 81 37.777344 81.105469 38.046875 81.4375 38.253906 L 83.050781 39.492188 L 86.222656 42.414062 C 87.550781 43.695312 88.8125 45.351562 90.015625 47.378906 L 92.191406 51.355469 L 91.878906 52.78125 C 90.472656 49.59375 88.710938 46.945312 86.597656 44.835938 C 85.0625 43.386719 83.695312 42.390625 82.492188 41.855469 L 82.246094 41.855469 C 81.832031 41.855469 81.621094 42.082031 81.621094 42.535156 C 81.621094 42.992188 81.890625 43.386719 82.429688 43.714844 L 85.539062 46.078125 L 89.019531 50.300781 L 91.320312 53.652344 L 91.007812 53.589844 L 90.886719 53.839844 L 89.890625 54.148438 C 89.308594 54.480469 89.25 54.976562 89.703125 55.640625 C 92.644531 57.875 93.414062 60.667969 92.003906 64.023438 C 90.59375 67.335938 88.128906 68.992188 84.605469 68.992188 L 83.613281 68.929688 C 79.925781 75.59375 75.367188 80.683594 69.9375 84.203125 C 69.398438 84.578125 69.148438 84.867188 69.191406 85.074219 C 69.230469 85.28125 69.523438 85.382812 70.0625 85.382812 C 71.761719 85.382812 73.75 84.597656 76.027344 83.023438 C 75.695312 86.085938 73.5625 88.863281 69.625 91.34375 C 65.980469 93.664062 62.4375 94.824219 58.996094 94.824219 C 57.460938 94.824219 56.21875 94.511719 55.265625 93.890625 L 55.578125 93.890625 L 59.617188 93.023438 C 61.484375 92.441406 62.375 92.007812 62.289062 91.71875 L 61.980469 91.59375 L 57.9375 91.964844 C 54.582031 91.964844 50.75 91.035156 46.4375 89.171875 C 38.8125 85.859375 33.15625 80.003906 29.46875 71.597656 C 25.945312 63.566406 25.035156 55.289062 26.734375 46.757812 C 27.726562 41.585938 29.863281 36.246094 33.136719 30.738281 C 34.753906 30.488281 36.390625 29.660156 38.046875 28.253906 L 41.09375 24.40625 C 43 22.003906 44.261719 20.636719 44.886719 20.304688 C 45.214844 20.097656 45.652344 19.996094 46.191406 19.996094 C 47.390625 19.996094 48.800781 20.492188 50.417969 21.484375 C 51.121094 21.816406 51.910156 21.984375 52.78125 21.984375 C 54.0625 21.984375 55.824219 21.402344 58.0625 20.242188 C 58.933594 19.746094 59.949219 19.5 61.109375 19.5 C 63.886719 19.5 66.476562 20.84375 68.878906 23.535156 C 69.625 24.40625 70.578125 24.839844 71.738281 24.839844 L 75.035156 24.03125 C 76.109375 23.617188 77.914062 23.222656 80.441406 22.851562 M 82.554688 9.9375 L 86.222656 14.46875 C 87.839844 15.171875 89.539062 16.765625 91.320312 19.25 C 92.605469 21.15625 93.683594 23.101562 94.550781 25.085938 C 96.167969 28.730469 96.480469 33.511719 95.484375 39.433594 C 95.027344 42.371094 94.386719 44.957031 93.558594 47.195312 C 92.855469 43.757812 91.238281 40.777344 88.710938 38.253906 L 83.796875 34.277344 C 85.125 33.324219 86.265625 32.25 87.21875 31.046875 C 88.460938 29.476562 89 28.109375 88.832031 26.949219 C 88.585938 25.292969 88.003906 23.90625 87.09375 22.789062 C 85.851562 21.214844 84.128906 20.429688 81.933594 20.429688 L 80.566406 20.492188 C 79.695312 20.617188 78.265625 21.132812 76.277344 22.042969 C 74.371094 22.871094 73.105469 23.285156 72.484375 23.285156 L 72.113281 23.285156 L 67.886719 19.125 C 65.480469 16.519531 63.554688 15.214844 62.105469 15.214844 L 61.109375 15.460938 L 58.933594 16.703125 L 56.882812 18.007812 L 54.332031 19.621094 C 53.546875 20.078125 52.902344 20.304688 52.40625 20.304688 L 51.660156 20.121094 L 49.921875 19.25 L 48.242188 18.441406 L 46.625 18.070312 C 45.921875 18.070312 44.96875 18.402344 43.765625 19.0625 C 42.980469 19.519531 41.609375 20.925781 39.664062 23.285156 L 36.679688 27.074219 C 34.9375 28.523438 33.261719 29.246094 31.644531 29.246094 C 30.566406 29.246094 29.613281 28.855469 28.785156 28.066406 C 27.25 26.617188 26.214844 24.714844 25.675781 22.355469 C 25.136719 20.035156 25.199219 17.988281 25.863281 16.207031 C 26.320312 14.800781 27.105469 13.578125 28.226562 12.542969 C 28.058594 14.117188 28.496094 15.296875 29.53125 16.082031 C 30.691406 17.035156 31.996094 17.511719 33.449219 17.511719 C 35.519531 17.511719 37.320312 16.640625 38.855469 14.902344 C 42.542969 10.679688 45.09375 8.382812 46.5 8.011719 L 47.992188 7.824219 L 50.976562 8.382812 L 53.464844 8.941406 C 54.085938 8.941406 54.625 8.714844 55.078125 8.257812 L 57.253906 5.277344 C 59.410156 1.882812 60.984375 0.125 61.980469 0 L 62.351562 0 C 63.554688 0 65.027344 0.601562 66.765625 1.800781 L 68.445312 3.105469 C 69.109375 3.601562 69.75 3.953125 70.371094 4.160156 L 75.84375 5.527344 C 78.285156 5.859375 80.523438 7.328125 82.554688 9.9375 "/>
</g>
</svg>
