<?xml version="1.0" encoding="UTF-8"?>
<svg xmlns="http://www.w3.org/2000/svg" xmlns:xlink="http://www.w3.org/1999/xlink" width="128pt" height="171pt" viewBox="0 0 128 171" version="1.1">
<g id="surface1">
<path style=" stroke:none;fill-rule:nonzero;fill:rgb(100%,100%,100%);fill-opacity:1;" d="M 94.472656 164.847656 C 95.5625 164.78125 96.621094 164.527344 97.644531 164.082031 C 98.445312 165.589844 98.824219 166.617188 98.78125 167.171875 C 98.667969 169.144531 97.433594 170.292969 95.074219 170.628906 C 93.648438 170.828125 92.046875 170.359375 90.265625 169.230469 C 88.796875 168.324219 87.816406 167.460938 87.324219 166.640625 C 87.035156 166.109375 86.96875 165.410156 87.125 164.546875 L 94.472656 164.847656 M 50.023438 163.585938 C 47.0625 163.785156 44.167969 163.539062 41.34375 162.851562 L 41.007812 162.753906 L 40.339844 162.386719 C 40.296875 162.144531 40.742188 161.789062 41.675781 161.324219 C 42.5 160.90625 44.347656 160.316406 47.21875 159.566406 C 50.15625 160.605469 52.730469 161.203125 54.933594 161.359375 L 61.710938 161.027344 C 61.644531 161.847656 61.367188 162.433594 60.878906 162.785156 C 60.386719 163.121094 59.386719 163.285156 57.871094 163.285156 L 57.003906 162.289062 L 56.9375 162.222656 L 56.835938 162.253906 C 54.230469 162.941406 51.960938 163.386719 50.023438 163.585938 M 36.164062 116.875 L 36.367188 116.644531 L 37.570312 115.449219 C 38.238281 116.667969 39.027344 117.695312 39.941406 118.539062 C 41.097656 119.578125 42.367188 120.210938 43.746094 120.429688 L 48.222656 120.296875 C 48.644531 121.160156 48.824219 121.847656 48.753906 122.359375 C 48.644531 123.355469 48.386719 124.050781 47.988281 124.449219 C 47.71875 124.695312 47.195312 124.914062 46.417969 125.113281 L 46.351562 125.148438 L 46.050781 125.082031 L 45.75 124.914062 C 45.4375 124.273438 45.339844 123.707031 45.449219 123.222656 C 45.695312 122.691406 45.726562 122.3125 45.550781 122.09375 L 45.28125 121.992188 C 44.972656 122.058594 44.726562 122.402344 44.546875 123.023438 C 44.214844 123.953125 44.167969 124.695312 44.414062 125.25 C 44.546875 125.535156 44.605469 125.933594 44.582031 126.445312 C 44.582031 126.929688 44.503906 127.363281 44.347656 127.738281 C 44.214844 128.117188 44.023438 128.359375 43.78125 128.46875 C 43.644531 128.46875 43.445312 128.371094 43.179688 128.171875 C 42.6875 127.816406 42.242188 127.339844 41.84375 126.742188 C 41.351562 126.035156 41.074219 125.347656 41.007812 124.683594 L 40.976562 124.648438 L 40.605469 124.285156 C 40.496094 124.261719 40.382812 124.296875 40.273438 124.382812 L 40.105469 124.550781 C 39.949219 124.925781 40.015625 125.480469 40.308594 126.210938 L 40.441406 126.777344 C 39.839844 126.53125 39.28125 126.144531 38.769531 125.613281 C 38.167969 125.015625 37.757812 124.429688 37.535156 123.851562 C 37.378906 123.453125 37.269531 122.902344 37.199219 122.191406 L 37.199219 122.160156 C 37.15625 121.894531 37.054688 121.761719 36.902344 121.761719 C 36.699219 121.714844 36.5 121.847656 36.300781 122.160156 L 36.300781 122.257812 L 36.265625 122.390625 C 36.132812 122.921875 36.078125 123.367188 36.097656 123.71875 C 35.675781 123.277344 35.320312 122.769531 35.03125 122.191406 C 34.609375 121.351562 34.429688 120.53125 34.496094 119.734375 C 34.519531 119.203125 35.074219 118.25 36.164062 116.875 M 80.078125 120.53125 C 84.199219 119.886719 87.257812 119.15625 89.261719 118.339844 C 89.707031 119.335938 90.742188 122.5 92.367188 127.839844 C 94.238281 133.90625 95.507812 138.535156 96.175781 141.726562 C 96.867188 145.046875 97.457031 149.332031 97.945312 154.582031 C 98.390625 159.34375 98.535156 161.921875 98.378906 162.320312 C 98.289062 162.542969 97.746094 162.777344 96.742188 163.019531 L 93.835938 163.453125 C 92.792969 163.519531 91.464844 163.496094 89.863281 163.386719 C 87.882812 163.253906 86.589844 163.007812 85.988281 162.652344 C 85.8125 162.476562 85.132812 160.640625 83.953125 157.140625 L 80.679688 148.136719 C 78.921875 143.863281 76.585938 139.078125 73.667969 133.785156 L 69.761719 127.042969 L 69.460938 127.175781 L 70.863281 130.960938 L 69.058594 135.246094 C 67.835938 138.238281 66.855469 140.917969 66.121094 143.285156 C 64.941406 147.007812 63.59375 152.457031 62.078125 159.632812 L 61.8125 159.832031 L 55.535156 160.128906 L 51.660156 159.632812 C 50.390625 159.277344 49.34375 158.699219 48.523438 157.902344 C 49.925781 148.425781 50.949219 141.746094 51.59375 137.871094 C 51.996094 135.457031 52.773438 131.769531 53.933594 126.808594 L 55.800781 118.902344 L 59.273438 119.566406 C 63.347656 120.785156 67.625 121.394531 72.097656 121.394531 C 74.457031 121.394531 77.117188 121.105469 80.078125 120.53125 M 58.304688 73.324219 L 59.140625 72.496094 C 60.253906 73.136719 61.378906 73.644531 62.515625 74.023438 C 64.160156 77.167969 67.1875 78.230469 71.597656 77.210938 C 73.46875 76.769531 75.148438 75.972656 76.640625 74.820312 C 78.242188 73.578125 79.324219 72.152344 79.878906 70.535156 C 81.460938 71.265625 83.007812 72.105469 84.519531 73.058594 C 83.453125 74.144531 81.9375 75.074219 79.980469 75.847656 C 78.511719 76.425781 77.339844 76.757812 76.472656 76.847656 C 75.761719 76.933594 75.203125 77.167969 74.804688 77.542969 C 74.425781 77.898438 74.15625 78.453125 74 79.203125 C 73.332031 82.148438 72.820312 85.371094 72.464844 88.871094 C 72.289062 90.730469 72.175781 93.566406 72.132812 97.375 C 72.109375 101.117188 72.164062 103.699219 72.296875 105.117188 C 72.34375 105.472656 72.519531 105.804688 72.832031 106.113281 C 73.167969 106.445312 73.523438 106.621094 73.902344 106.644531 C 75.125 106.753906 77.730469 106.6875 81.714844 106.445312 L 88.796875 105.582031 C 88.617188 109.214844 88.660156 113.132812 88.929688 117.339844 C 87.035156 118.160156 84.386719 118.824219 80.980469 119.335938 L 72.230469 120.132812 L 71.628906 120.132812 C 69.046875 120.019531 65.5625 119.511719 61.179688 118.605469 L 55.933594 117.109375 C 56.070312 113.121094 55.925781 109.027344 55.5 104.816406 C 56.523438 105.238281 57.347656 105.480469 57.972656 105.546875 C 58.417969 105.613281 58.75 105.539062 58.972656 105.316406 C 59.242188 105.074219 59.351562 104.496094 59.308594 103.589844 L 59.308594 103.488281 L 59.242188 98.40625 C 59.285156 95.039062 59.453125 92.195312 59.742188 89.867188 C 60.03125 87.519531 60.542969 84.828125 61.277344 81.796875 L 62.445312 77.34375 C 62.625 76.855469 62.636719 76.390625 62.480469 75.949219 C 62.324219 75.507812 62.046875 75.195312 61.644531 75.019531 L 61.210938 74.886719 L 61.179688 74.851562 C 59.730469 74.320312 58.773438 73.8125 58.304688 73.324219 M 57.070312 73.65625 L 57.304688 73.988281 C 57.90625 74.699219 59.0625 75.351562 60.777344 75.949219 L 60.878906 76.015625 L 61.144531 76.117188 C 61.410156 76.226562 61.480469 76.503906 61.34375 76.945312 C 61.054688 77.722656 60.632812 79.304688 60.078125 81.695312 C 59.363281 84.707031 58.851562 87.386719 58.539062 89.734375 C 58.25 92.039062 58.09375 94.917969 58.074219 98.371094 C 58.050781 100.453125 58.0625 102.183594 58.105469 103.554688 L 58.140625 104.386719 C 57.113281 104.207031 56.179688 103.898438 55.335938 103.457031 L 55.167969 102.058594 C 54.746094 98.316406 54.277344 95.550781 53.765625 93.753906 L 51.5625 86.777344 L 51.058594 86.878906 L 52.929688 96.046875 C 53.332031 98.039062 53.6875 100.585938 54 103.6875 L 54.066406 104.785156 L 53.5625 105.582031 C 51.960938 108.21875 50.582031 111.105469 49.421875 114.253906 C 48.800781 115.957031 48.320312 117.484375 47.988281 118.835938 L 43.714844 119.003906 C 42.355469 118.78125 41.140625 117.984375 40.074219 116.609375 C 39.425781 115.769531 38.949219 114.917969 38.636719 114.054688 C 38.503906 113.742188 38.503906 113.253906 38.636719 112.589844 L 38.671875 112.292969 C 39.027344 109.613281 39.570312 106.753906 40.308594 103.722656 C 41.554688 98.671875 43.132812 94 45.046875 89.703125 C 47.050781 85.25 49.46875 81.429688 52.296875 78.242188 C 53.832031 76.449219 55.421875 74.917969 57.070312 73.65625 M 64.617188 66.28125 L 64.050781 66.183594 L 63.449219 66.316406 L 61.246094 66.582031 C 61.042969 66.601562 60.933594 66.660156 60.910156 66.746094 L 61.179688 66.980469 L 62.3125 67.542969 L 64.316406 67.511719 L 64.785156 67.179688 C 64.917969 67.023438 64.960938 66.859375 64.917969 66.679688 L 64.617188 66.28125 M 70.59375 59.503906 C 70.929688 59.484375 71.242188 59.582031 71.53125 59.804688 C 71.820312 60.027344 71.875 60.269531 71.699219 60.535156 L 71.164062 61.035156 C 68.738281 62.363281 67.066406 63.191406 66.152344 63.523438 L 63.382812 63.957031 L 60.710938 63.789062 L 56.570312 62.429688 C 56.257812 62.363281 56.035156 62.117188 55.902344 61.699219 C 55.789062 61.320312 56.011719 61.132812 56.570312 61.132812 L 58.839844 61.5 L 63.082031 61.664062 C 64.839844 61.507812 67.101562 60.84375 69.859375 59.671875 L 70.59375 59.503906 M 69.726562 56.714844 C 69.660156 56.78125 69.671875 56.890625 69.761719 57.046875 L 70.160156 58.109375 C 70.25 58.265625 70.21875 58.441406 70.0625 58.640625 L 69.558594 59.007812 C 66.53125 60.179688 64.261719 60.855469 62.746094 61.035156 L 58.839844 60.867188 L 56.601562 60.5 C 56.425781 60.480469 56.269531 60.402344 56.136719 60.269531 L 55.96875 59.769531 L 55.96875 59.304688 L 55.902344 58.972656 C 55.8125 58.953125 55.710938 59.007812 55.601562 59.140625 L 54.398438 60.667969 L 54.199219 61.199219 L 54.332031 61.730469 L 55.800781 63.921875 C 56.023438 64.253906 56.136719 64.210938 56.136719 63.789062 L 56.136719 63.492188 C 56.113281 63.3125 56.167969 63.171875 56.300781 63.058594 L 56.738281 62.992188 L 58.875 64.1875 C 60.566406 64.988281 62.101562 65.375 63.480469 65.351562 C 64.839844 65.351562 66.632812 64.699219 68.859375 63.390625 L 71.796875 61.398438 C 72.199219 61.242188 72.53125 61.34375 72.800781 61.699219 L 72.832031 63.226562 L 73.132812 63.425781 L 73.332031 63.09375 L 73.902344 60.070312 L 73.800781 59.539062 L 73.433594 59.105469 L 70.0625 56.78125 L 69.726562 56.714844 M 72.164062 47.710938 C 72.03125 47.378906 71.6875 47.09375 71.128906 46.847656 L 69.292969 46.582031 L 68.222656 46.78125 L 69.292969 47.046875 C 70.027344 47.203125 70.371094 47.3125 70.328125 47.378906 L 70.261719 47.480469 C 70.015625 47.921875 69.882812 48.453125 69.859375 49.074219 C 69.859375 49.980469 70.0625 50.65625 70.460938 51.101562 C 70.640625 51.277344 70.839844 51.367188 71.0625 51.367188 C 71.398438 51.367188 71.6875 51.144531 71.929688 50.703125 C 72.175781 50.257812 72.296875 49.726562 72.296875 49.105469 L 72.164062 47.710938 M 70.960938 42.929688 L 72.230469 43.425781 L 73.699219 44.222656 C 74.214844 44.535156 74.535156 44.679688 74.667969 44.65625 C 74.824219 44.101562 74.425781 43.316406 73.46875 42.296875 L 71.996094 40.902344 C 71.621094 40.679688 71.328125 40.757812 71.128906 41.132812 L 70.664062 41.796875 C 70.351562 42.242188 70.238281 42.53125 70.328125 42.664062 L 70.960938 42.929688 M 59.609375 54.390625 C 59.585938 54.589844 59.632812 54.765625 59.742188 54.921875 L 61.277344 57.078125 C 61.546875 57.390625 61.890625 57.511719 62.3125 57.445312 L 62.882812 57.28125 L 63.214844 57.011719 C 63.257812 56.878906 63.226562 56.738281 63.113281 56.582031 L 61.878906 54.953125 C 61.613281 54.597656 61.578125 54.222656 61.777344 53.824219 L 63.148438 51.167969 C 63.683594 50.082031 64.117188 48.953125 64.449219 47.777344 L 64.484375 47.3125 L 64.285156 47.082031 C 64.0625 47.035156 63.851562 47.226562 63.648438 47.644531 L 62.347656 50.335938 L 59.777344 53.859375 C 59.664062 53.992188 59.609375 54.167969 59.609375 54.390625 M 57.871094 47.777344 C 57.695312 47.535156 57.394531 47.324219 56.96875 47.148438 L 56.902344 47.113281 C 56.390625 46.914062 55.800781 46.835938 55.132812 46.882812 L 54.066406 47.082031 L 55.132812 47.347656 C 55.867188 47.5 56.214844 47.613281 56.167969 47.679688 L 56.101562 47.777344 C 55.855469 48.222656 55.722656 48.753906 55.703125 49.371094 C 55.703125 50.28125 55.902344 50.957031 56.300781 51.398438 C 56.480469 51.578125 56.679688 51.664062 56.902344 51.664062 C 57.148438 51.664062 57.359375 51.554688 57.539062 51.332031 L 57.773438 51 C 58.015625 50.558594 58.140625 50.027344 58.140625 49.40625 L 58.140625 48.476562 L 58.003906 48.011719 L 57.871094 47.777344 M 58.441406 43.660156 C 58.664062 43.636719 58.839844 43.546875 58.972656 43.394531 C 59.109375 43.214844 59.152344 43.015625 59.109375 42.796875 L 59.007812 42.132812 C 58.964844 41.910156 58.851562 41.765625 58.671875 41.699219 L 58.140625 41.765625 L 55.632812 43.394531 L 55.367188 43.691406 L 55.769531 43.792969 L 58.441406 43.660156 M 82.71875 53.359375 L 81.914062 52.726562 C 81.671875 52.617188 81.492188 52.671875 81.382812 52.894531 C 81.25 53.136719 81.292969 53.316406 81.515625 53.425781 L 81.984375 53.792969 C 82.273438 54.078125 82.429688 54.324219 82.449219 54.523438 C 82.496094 54.765625 82.652344 54.886719 82.917969 54.886719 C 83.164062 54.867188 83.273438 54.6875 83.25 54.355469 C 83.183594 53.980469 83.007812 53.648438 82.71875 53.359375 M 81.25 50.371094 C 81.136719 50.589844 81.238281 50.800781 81.546875 51 L 82.851562 51.832031 L 83.917969 52.992188 C 84.320312 53.414062 84.542969 53.515625 84.585938 53.292969 C 84.609375 53.117188 84.5 52.816406 84.253906 52.394531 L 83.386719 51.265625 C 82.960938 50.824219 82.40625 50.445312 81.714844 50.136719 C 81.515625 50.046875 81.359375 50.125 81.25 50.371094 M 80.378906 37.378906 C 81.625 37.203125 82.515625 37.800781 83.050781 39.175781 C 83.609375 40.613281 82.960938 41.863281 81.113281 42.929688 L 80.847656 43.226562 C 80.714844 43.449219 80.792969 43.636719 81.082031 43.792969 C 82.507812 44.613281 83.574219 45.34375 84.285156 45.984375 C 86.066406 47.625 86.957031 49.484375 86.957031 51.566406 C 86.269531 49.972656 85.355469 48.53125 84.21875 47.246094 C 82.863281 45.875 81.960938 45.109375 81.515625 44.953125 C 81.203125 44.84375 80.992188 44.886719 80.878906 45.085938 C 80.746094 45.285156 80.804688 45.453125 81.046875 45.585938 L 81.914062 46.25 L 83.652344 47.8125 C 84.722656 48.785156 85.800781 50.359375 86.890625 52.527344 L 86.757812 53.292969 C 85.914062 51.519531 84.945312 50.125 83.851562 49.105469 C 82.984375 48.265625 82.238281 47.746094 81.617188 47.546875 C 81.347656 47.457031 81.203125 47.546875 81.179688 47.8125 C 81.136719 48.097656 81.28125 48.34375 81.617188 48.542969 C 82.261719 48.898438 82.816406 49.296875 83.285156 49.738281 C 84.085938 50.535156 85.132812 51.875 86.425781 53.757812 L 86.289062 53.792969 L 86.222656 53.890625 C 86.023438 53.914062 85.84375 53.96875 85.691406 54.058594 C 85.378906 54.234375 85.34375 54.5 85.589844 54.855469 C 87.28125 56.074219 87.683594 57.632812 86.792969 59.539062 C 85.921875 61.398438 84.476562 62.21875 82.449219 61.996094 C 80.535156 65.585938 78.121094 68.351562 75.203125 70.300781 C 74.445312 70.789062 74.523438 70.988281 75.4375 70.898438 C 76.371094 70.8125 77.386719 70.378906 78.476562 69.605469 C 78.277344 71.664062 76.71875 73.414062 73.800781 74.851562 C 70.953125 76.25 68.8125 76.492188 67.390625 75.582031 L 69.558594 75.152344 C 70.671875 74.796875 71.195312 74.53125 71.128906 74.355469 L 69.027344 74.519531 C 67.132812 74.585938 64.996094 74.121094 62.613281 73.125 C 61.367188 72.617188 60.121094 71.886719 58.875 70.933594 L 58.671875 70.734375 L 58.640625 70.765625 C 55.8125 68.484375 53.777344 65.460938 52.527344 61.699219 C 51.304688 58.019531 51.039062 54.3125 51.726562 50.570312 C 52.238281 47.777344 53.339844 44.910156 55.035156 41.964844 C 55.925781 41.808594 56.792969 41.34375 57.636719 40.570312 L 59.273438 38.511719 C 60.277344 37.203125 60.945312 36.449219 61.277344 36.25 L 63.082031 36.316406 L 64.25 36.882812 L 66.320312 37.015625 C 66.855469 36.902344 67.535156 36.617188 68.359375 36.152344 C 69.183594 35.6875 70.117188 35.585938 71.164062 35.851562 C 72.253906 36.164062 73.253906 36.828125 74.167969 37.84375 C 74.589844 38.3125 75.136719 38.519531 75.804688 38.476562 L 77.472656 38.078125 C 78.007812 37.855469 78.976562 37.625 80.378906 37.378906 M 81.414062 30.46875 C 82.640625 32.019531 83.320312 32.816406 83.453125 32.863281 C 84.320312 33.21875 85.234375 34.058594 86.191406 35.386719 C 86.902344 36.363281 87.503906 37.390625 87.992188 38.476562 C 88.882812 40.402344 89.085938 42.949219 88.59375 46.117188 C 88.351562 47.710938 88.015625 49.105469 87.59375 50.304688 C 87.191406 48.464844 86.300781 46.882812 84.921875 45.550781 L 82.285156 43.492188 C 82.996094 42.960938 83.597656 42.375 84.085938 41.730469 C 84.753906 40.867188 85.03125 40.125 84.921875 39.507812 C 84.765625 38.53125 84.386719 37.734375 83.785156 37.113281 C 82.984375 36.25 81.871094 35.917969 80.445312 36.117188 C 80 36.183594 79.175781 36.496094 77.976562 37.046875 C 76.929688 37.535156 76.238281 37.746094 75.90625 37.679688 L 73.332031 35.1875 C 71.886719 33.726562 70.75 33.183594 69.925781 33.558594 L 68.792969 34.289062 L 67.691406 34.988281 L 66.085938 35.984375 L 64.886719 36.152344 L 63.984375 35.6875 C 63.226562 35.332031 62.738281 35.144531 62.515625 35.121094 C 62 35.03125 61.390625 35.199219 60.675781 35.621094 C 60.253906 35.863281 59.53125 36.636719 58.507812 37.945312 L 56.902344 39.9375 C 56.214844 40.558594 55.5 40.945312 54.765625 41.101562 C 53.941406 41.257812 53.253906 41.078125 52.695312 40.570312 C 51.871094 39.816406 51.292969 38.796875 50.960938 37.511719 C 50.648438 36.296875 50.660156 35.199219 50.992188 34.222656 C 51.28125 33.472656 51.707031 32.816406 52.261719 32.265625 C 52.171875 33.082031 52.417969 33.714844 52.996094 34.15625 L 53.363281 34.421875 C 53.941406 34.757812 54.566406 34.898438 55.234375 34.855469 L 55.535156 34.824219 C 56.492188 34.691406 57.304688 34.222656 57.972656 33.425781 L 59.875 31.300781 C 60.8125 30.347656 61.535156 29.804688 62.046875 29.671875 C 62.691406 29.519531 63.582031 29.605469 64.71875 29.9375 C 65.628906 30.226562 66.277344 30.171875 66.65625 29.773438 L 67.789062 28.144531 C 68.949219 26.328125 69.78125 25.375 70.292969 25.289062 C 70.984375 25.199219 71.851562 25.507812 72.898438 26.21875 L 73.800781 26.882812 C 74.15625 27.148438 74.503906 27.335938 74.835938 27.449219 C 76.015625 27.847656 77.007812 28.089844 77.808594 28.179688 C 79.121094 28.332031 80.324219 29.097656 81.414062 30.46875 M 109.832031 118.207031 L 111.234375 119.566406 L 111.4375 119.800781 C 112.527344 121.128906 113.082031 122.070312 113.105469 122.625 C 113.171875 123.421875 112.996094 124.242188 112.570312 125.082031 C 112.261719 125.703125 111.902344 126.210938 111.503906 126.609375 L 111.335938 125.28125 L 111.304688 125.148438 L 111.304688 125.113281 L 111.269531 125.082031 C 111.070312 124.773438 110.878906 124.628906 110.703125 124.648438 C 110.523438 124.695312 110.421875 124.839844 110.402344 125.082031 L 110.367188 125.082031 L 110.066406 126.742188 C 109.84375 127.320312 109.433594 127.917969 108.832031 128.535156 C 108.320312 129.046875 107.761719 129.421875 107.160156 129.667969 L 107.296875 129.101562 C 107.5625 128.414062 107.628906 127.871094 107.496094 127.472656 L 107.496094 127.441406 L 107.460938 127.441406 L 107.328125 127.308594 L 106.996094 127.207031 C 106.839844 127.207031 106.707031 127.320312 106.59375 127.539062 L 106.59375 127.605469 C 106.527344 128.269531 106.25 128.957031 105.757812 129.667969 L 104.390625 131.0625 L 103.824219 131.394531 C 103.578125 131.261719 103.378906 131.007812 103.222656 130.628906 C 103.066406 130.253906 102.988281 129.820312 102.988281 129.335938 C 102.988281 128.847656 103.042969 128.460938 103.15625 128.171875 C 103.378906 127.726562 103.34375 126.976562 103.054688 125.914062 C 102.875 125.292969 102.632812 124.960938 102.320312 124.914062 L 102.019531 125.015625 C 101.886719 125.214844 101.929688 125.589844 102.152344 126.144531 C 102.242188 126.699219 102.128906 127.261719 101.820312 127.839844 L 101.550781 128.003906 L 101.25 128.039062 L 101.183594 128.039062 C 100.40625 127.816406 99.882812 127.585938 99.613281 127.339844 C 99.214844 126.964844 98.957031 126.265625 98.847656 125.25 C 98.78125 124.671875 98.992188 123.917969 99.480469 122.988281 C 100.617188 123.277344 102.042969 123.300781 103.753906 123.054688 C 105.113281 122.835938 106.359375 122.226562 107.496094 121.226562 C 108.410156 120.410156 109.1875 119.402344 109.832031 118.207031 M 107.160156 106.347656 C 107.941406 109.511719 108.488281 112.371094 108.796875 114.917969 L 108.863281 115.214844 C 108.953125 115.902344 108.953125 116.390625 108.863281 116.675781 C 108.488281 117.605469 107.996094 118.460938 107.394531 119.234375 C 106.328125 120.609375 105.113281 121.40625 103.753906 121.628906 L 99.480469 121.460938 L 98.046875 116.875 C 96.910156 113.730469 95.53125 110.839844 93.90625 108.207031 C 92.210938 105.414062 90.285156 102.96875 88.128906 100.863281 L 85.390625 98.472656 L 85.054688 98.839844 L 86.15625 100.199219 L 88.929688 103.988281 L 88.894531 104.351562 L 81.617188 105.25 C 77.964844 105.539062 75.425781 105.605469 74 105.449219 L 73.667969 105.28125 L 73.46875 105.015625 C 73.355469 103.597656 73.3125 101.050781 73.332031 97.375 C 73.378906 93.589844 73.488281 90.789062 73.667969 88.972656 C 73.980469 85.605469 74.480469 82.425781 75.171875 79.4375 C 75.28125 78.949219 75.4375 78.605469 75.636719 78.40625 C 75.839844 78.207031 76.148438 78.085938 76.574219 78.042969 C 77.550781 77.929688 78.832031 77.566406 80.414062 76.945312 C 82.707031 76.039062 84.453125 74.917969 85.65625 73.589844 C 86.949219 74.078125 87.960938 74.574219 88.695312 75.085938 L 89.027344 75.316406 L 89.097656 75.351562 C 91.011719 76.589844 93.046875 78.429688 95.207031 80.867188 C 98.035156 84.144531 100.4375 87.976562 102.421875 92.359375 C 104.355469 96.65625 105.9375 101.320312 107.160156 106.347656 "/>
<path style=" stroke:none;fill-rule:nonzero;fill:rgb(100%,100%,100%);fill-opacity:1;" d="M 14.695312 98.007812 C 14.761719 97.785156 14.871094 97.652344 15.027344 97.609375 C 15.316406 97.519531 15.527344 97.585938 15.660156 97.808594 L 17.132812 99.703125 C 18.554688 101.140625 20.382812 102.304688 22.609375 103.191406 L 22.773438 103.421875 L 22.910156 103.855469 C 22.863281 104.074219 22.617188 104.207031 22.171875 104.253906 C 19.792969 103.300781 17.832031 102.039062 16.296875 100.464844 L 14.625 98.304688 L 14.695312 98.007812 M 8.113281 88.40625 C 8.136719 88.984375 8.257812 89.382812 8.480469 89.601562 C 8.949219 90.066406 10.074219 90.464844 11.855469 90.796875 C 12.746094 90.863281 13.78125 91.265625 14.960938 91.996094 L 17.597656 93.855469 C 18.378906 94.542969 19.046875 95.039062 19.601562 95.351562 C 20.113281 95.371094 20.394531 95.726562 20.4375 96.414062 C 20.460938 97.078125 20.113281 97.296875 19.402344 97.078125 C 18.867188 96.921875 18.144531 96.445312 17.230469 95.648438 C 16.40625 94.917969 15.851562 94.542969 15.5625 94.519531 L 13.660156 95.949219 C 12.921875 96.523438 12.234375 96.921875 11.585938 97.144531 L 7.113281 99.371094 C 5.308594 100.253906 3.828125 101.007812 2.671875 101.628906 C 1.667969 102.070312 1.378906 102.613281 1.804688 103.257812 L 3.839844 103.324219 L 6.210938 102.390625 L 8.582031 101.394531 L 13.425781 99.402344 L 13.757812 99.4375 L 13.824219 99.402344 L 13.925781 99.46875 C 14.570312 99.710938 14.925781 100.121094 14.992188 100.699219 L 15.128906 100.832031 L 14.992188 100.929688 L 14.925781 101.164062 L 12.890625 102.890625 L 8.75 106.347656 C 7.035156 107.742188 5.753906 108.992188 4.910156 110.101562 C 5.6875 111.25 6.902344 111.238281 8.550781 110.066406 L 10.652344 108.171875 L 13.222656 105.582031 C 14.203125 104.671875 14.992188 104.074219 15.59375 103.789062 L 16.832031 102.691406 L 18.234375 103.789062 L 17.765625 104.519531 L 17.832031 104.585938 L 12.589844 112.558594 C 12.03125 113.289062 11.675781 114.007812 11.519531 114.71875 C 11.320312 115.648438 11.664062 116.144531 12.554688 116.210938 C 13.15625 116.011719 13.734375 115.503906 14.292969 114.683594 L 15.628906 112.625 L 20.636719 104.984375 L 20.703125 104.851562 L 20.9375 104.851562 L 21.273438 105.015625 C 21.628906 105.0625 21.90625 105.183594 22.105469 105.382812 L 22.40625 105.515625 L 22.308594 105.78125 C 22.375 106.046875 22.296875 106.367188 22.074219 106.746094 L 19.769531 114.253906 L 19.601562 115.183594 C 19.535156 115.25 19.503906 115.335938 19.503906 115.449219 L 19.433594 115.746094 L 19.433594 115.945312 C 19.503906 116.367188 19.691406 116.65625 20.003906 116.808594 C 20.335938 117.007812 20.671875 116.933594 21.003906 116.578125 L 21.738281 115.25 L 22.242188 113.785156 L 24.246094 107.742188 L 24.542969 106.910156 L 24.777344 106.144531 L 25.179688 105.847656 L 25.679688 105.480469 L 27.214844 104.320312 C 29.242188 101.90625 30.667969 99.601562 31.492188 97.410156 L 32.023438 94.320312 L 33.460938 93.023438 C 32.792969 91.496094 31.96875 90.199219 30.988281 89.136719 C 30.390625 88.472656 29.6875 87.886719 28.886719 87.375 L 27.882812 86.8125 L 27.515625 87.144531 L 27.582031 87.144531 L 27.015625 87.675781 L 26.546875 88.007812 C 25.679688 88.71875 25.023438 89.039062 24.578125 88.972656 C 24.265625 88.550781 23.699219 88.316406 22.875 88.273438 L 20.101562 88.207031 C 19.390625 88.164062 17.5 88.195312 14.425781 88.308594 L 8.113281 88.40625 M 6.179688 86.84375 L 6.179688 86.910156 L 6.210938 86.84375 L 6.210938 86.910156 L 11.855469 87.109375 L 17.898438 86.945312 L 22.707031 87.144531 L 23.644531 87.277344 L 25.144531 87.609375 L 25.078125 87.609375 L 25.347656 87.644531 L 27.917969 85.285156 L 28.386719 85.617188 L 28.753906 85.78125 C 32.316406 87.84375 34.363281 90.445312 34.898438 93.589844 C 34.140625 94.011719 33.59375 94.75 33.261719 95.816406 L 32.828125 97.941406 L 31.957031 99.933594 L 30.65625 102.09375 C 30.011719 103.464844 28.964844 104.75 27.515625 105.945312 L 25.578125 107.308594 L 24.445312 111.828125 C 23.488281 114.992188 22.484375 116.933594 21.4375 117.640625 L 21.40625 117.640625 L 20.539062 118.105469 C 19.582031 118.28125 18.890625 117.894531 18.46875 116.941406 C 18.066406 116.078125 18.042969 115.25 18.398438 114.453125 L 19.035156 112.160156 L 19.734375 109.832031 L 20.503906 107.574219 C 20.503906 107.464844 20.324219 107.730469 19.96875 108.371094 C 18.722656 110.632812 17.832031 112.027344 17.296875 112.558594 L 15.894531 114.652344 L 14.359375 116.675781 C 13.78125 117.472656 12.980469 117.742188 11.957031 117.472656 C 10.886719 117.230469 10.308594 116.609375 10.21875 115.613281 L 10.285156 115.117188 C 10.328125 114.652344 10.453125 114.195312 10.652344 113.753906 C 11.007812 112.78125 11.699219 111.550781 12.722656 110.066406 L 15.027344 106.445312 L 15.863281 105.148438 L 10.988281 109.433594 C 9.273438 111.074219 8.003906 112.105469 7.179688 112.523438 L 6.011719 112.921875 L 5.609375 112.921875 L 5.441406 112.890625 C 4.640625 112.78125 4.007812 112.238281 3.539062 111.261719 L 3.539062 110.964844 C 3.472656 110.410156 3.617188 109.84375 3.972656 109.269531 C 4.375 108.472656 5.175781 107.609375 6.378906 106.679688 L 9.117188 104.386719 L 12.65625 101.363281 C 12.769531 101.320312 12.691406 101.285156 12.421875 101.261719 L 10.253906 102.191406 L 4.910156 104.417969 L 2.570312 104.984375 L 2.003906 104.984375 L 1.769531 104.949219 L 1.269531 104.785156 L 1.101562 104.71875 L 0.667969 104.351562 L 0.46875 104.121094 L 0.433594 104.054688 L 0.332031 103.921875 L 0.132812 103.554688 L 0.0664062 103.289062 L 0.0351562 103.222656 L 0 102.824219 L 0.265625 102.058594 L 0.769531 101.527344 L 1.871094 100.664062 L 3.105469 99.933594 L 3.003906 100 L 11.988281 95.351562 L 12.15625 95.285156 L 12.523438 95.085938 L 13.15625 94.484375 C 13.511719 93.933594 13.667969 93.476562 13.625 93.125 C 13.601562 92.925781 13.457031 92.738281 13.191406 92.558594 L 12.824219 92.359375 L 11.886719 92.226562 L 11.789062 92.226562 L 11.421875 92.261719 L 9.351562 92.160156 C 8.460938 91.917969 7.726562 91.472656 7.144531 90.832031 C 6.722656 90.390625 6.445312 89.679688 6.3125 88.707031 L 6.277344 88.605469 L 6.277344 88.339844 L 6.246094 87.910156 L 6.179688 86.976562 L 6.144531 87.011719 L 6.144531 86.910156 L 6.179688 86.84375 M 1.738281 82.726562 C 1.179688 83.058594 0.757812 82.925781 0.46875 82.328125 C 0.179688 81.730469 0.3125 81.265625 0.867188 80.933594 C 5.742188 78.054688 11.066406 76.46875 16.832031 76.183594 C 22.910156 75.871094 28.285156 77.089844 32.960938 79.835938 C 33.515625 80.144531 33.605469 80.578125 33.226562 81.132812 C 32.847656 81.664062 32.382812 81.773438 31.824219 81.464844 C 27.460938 78.894531 22.40625 77.796875 16.664062 78.175781 C 11.277344 78.507812 6.300781 80.023438 1.738281 82.726562 M 13.058594 72.160156 L 19.871094 72.394531 L 26.582031 73.324219 C 29.007812 73.855469 31.132812 74.597656 32.960938 75.550781 C 33.515625 75.839844 33.605469 76.257812 33.226562 76.8125 C 32.847656 77.367188 32.382812 77.488281 31.824219 77.179688 C 30.042969 76.269531 27.929688 75.574219 25.480469 75.085938 L 18.800781 74.320312 L 12.992188 74.15625 C 10.742188 74.265625 8.839844 74.632812 7.28125 75.25 C 6.699219 75.496094 6.265625 75.316406 5.976562 74.71875 C 5.6875 74.101562 5.84375 73.679688 6.445312 73.457031 C 8.269531 72.703125 10.476562 72.273438 13.058594 72.160156 M 26.515625 39.40625 C 26.671875 37.015625 26.769531 35.765625 26.816406 35.652344 L 28.785156 35.851562 L 28.519531 39.539062 C 28.316406 42.441406 28.21875 45.078125 28.21875 47.445312 C 28.21875 49.484375 28.628906 52.050781 29.453125 55.152344 C 29.566406 55.085938 29.675781 55.054688 29.789062 55.054688 L 32.425781 55.417969 C 34.207031 55.972656 35.410156 57.046875 36.03125 58.640625 C 36.609375 60.101562 36.765625 61.753906 36.5 63.589844 L 35.898438 66.050781 C 35.789062 66.382812 35.566406 66.582031 35.230469 66.648438 C 34.875 66.714844 34.574219 66.648438 34.328125 66.449219 C 33.949219 66.136719 33.472656 65.917969 32.894531 65.785156 C 32.804688 66.203125 32.46875 66.558594 31.890625 66.847656 C 31.3125 67.132812 30.632812 67.277344 29.855469 67.277344 L 28.285156 67.011719 C 26.660156 68.054688 24.867188 68.617188 22.910156 68.707031 L 22.339844 68.707031 C 20.492188 68.617188 18.757812 68.097656 17.132812 67.144531 L 15.960938 67.277344 C 15.140625 67.277344 14.4375 67.125 13.859375 66.8125 C 13.28125 66.503906 12.96875 66.128906 12.921875 65.683594 C 12.410156 65.75 11.933594 65.894531 11.488281 66.117188 C 11.199219 66.25 11.007812 66.359375 10.917969 66.449219 C 10.675781 66.648438 10.375 66.714844 10.019531 66.648438 C 9.683594 66.582031 9.460938 66.382812 9.351562 66.050781 C 9.082031 65.339844 8.882812 64.519531 8.75 63.589844 C 8.480469 61.753906 8.636719 60.101562 9.21875 58.640625 C 9.839844 57.046875 11.042969 55.972656 12.824219 55.417969 C 13.734375 55.132812 14.617188 55.007812 15.460938 55.054688 L 15.796875 55.152344 C 16.621094 52.050781 17.03125 49.484375 17.03125 47.445312 C 17.03125 45.078125 16.941406 42.441406 16.765625 39.539062 L 16.464844 35.851562 L 18.46875 35.652344 L 18.765625 39.40625 C 18.945312 42.375 19.035156 45.054688 19.035156 47.445312 C 19.035156 49.90625 18.542969 52.871094 17.566406 56.347656 L 15.996094 61.066406 C 15.773438 61.574219 15.382812 61.773438 14.828125 61.664062 C 14.605469 61.621094 14.414062 61.5 14.257812 61.300781 C 14.101562 61.101562 14.035156 60.878906 14.058594 60.632812 L 14.324219 57.113281 C 12.65625 57.378906 11.578125 58.132812 11.085938 59.371094 C 10.550781 60.765625 10.484375 62.375 10.886719 64.1875 C 12.109375 63.636719 13.425781 63.503906 14.828125 63.789062 L 15.226562 63.921875 L 15.960938 63.855469 C 16.808594 63.855469 17.53125 64.023438 18.132812 64.355469 C 18.734375 64.6875 19.035156 65.097656 19.035156 65.585938 L 19 65.882812 C 20.09375 66.414062 21.304688 66.691406 22.640625 66.714844 C 24.175781 66.691406 25.570312 66.316406 26.816406 65.585938 L 26.78125 65.585938 C 26.78125 65.097656 27.082031 64.6875 27.683594 64.355469 C 28.285156 64.023438 29.007812 63.855469 29.855469 63.855469 L 30.15625 63.890625 L 30.421875 63.789062 C 31.824219 63.503906 33.136719 63.636719 34.363281 64.1875 C 34.761719 62.375 34.695312 60.765625 34.164062 59.371094 C 33.671875 58.132812 32.59375 57.378906 30.921875 57.113281 L 31.191406 60.632812 C 31.210938 60.878906 31.144531 61.101562 30.988281 61.300781 L 30.421875 61.664062 C 29.867188 61.773438 29.476562 61.574219 29.253906 61.066406 C 28.695312 59.671875 28.171875 58.097656 27.683594 56.347656 C 26.703125 52.871094 26.214844 49.90625 26.214844 47.445312 C 26.214844 45.011719 26.316406 42.332031 26.515625 39.40625 M 35.097656 16.785156 C 33.515625 16.074219 32.035156 15.730469 30.65625 15.753906 C 30.144531 15.777344 29.921875 15.464844 29.988281 14.824219 C 30.054688 14.203125 30.34375 13.882812 30.855469 13.859375 C 32.480469 13.839844 34.21875 14.238281 36.066406 15.054688 C 37.355469 15.609375 38.902344 16.460938 40.707031 17.613281 C 42.464844 18.765625 43.890625 19.828125 44.980469 20.804688 C 46.453125 22.132812 47.597656 23.539062 48.421875 25.023438 C 48.6875 25.464844 48.566406 25.863281 48.054688 26.21875 C 47.519531 26.574219 47.128906 26.515625 46.886719 26.050781 C 45.484375 23.617188 42.890625 21.246094 39.105469 18.941406 C 37.347656 17.902344 36.011719 17.183594 35.097656 16.785156 M 35.867188 21.601562 C 31.945312 20.027344 27.785156 19.652344 23.375 20.472656 C 22.839844 20.582031 22.609375 20.316406 22.675781 19.675781 C 22.765625 19.054688 23.0625 18.6875 23.578125 18.578125 C 28.273438 17.714844 32.703125 18.15625 36.867188 19.90625 C 41.253906 21.746094 44.457031 24.710938 46.484375 28.808594 C 46.707031 29.296875 46.574219 29.71875 46.085938 30.070312 C 45.570312 30.425781 45.195312 30.359375 44.949219 29.871094 C 43.078125 26.042969 40.050781 23.285156 35.867188 21.601562 M 95.640625 18.941406 C 93.882812 20.027344 92.457031 21.035156 91.367188 21.964844 C 89.851562 23.273438 88.683594 24.636719 87.859375 26.050781 C 87.617188 26.515625 87.238281 26.574219 86.726562 26.21875 C 86.210938 25.863281 86.078125 25.464844 86.324219 25.023438 C 87.171875 23.515625 88.328125 22.109375 89.796875 20.804688 C 90.886719 19.808594 92.300781 18.742188 94.039062 17.613281 C 95.839844 16.460938 97.386719 15.609375 98.679688 15.054688 C 100.527344 14.238281 102.265625 13.839844 103.890625 13.859375 C 104.402344 13.882812 104.703125 14.203125 104.792969 14.824219 C 104.859375 15.464844 104.625 15.777344 104.089844 15.753906 C 102.730469 15.730469 101.25 16.074219 99.648438 16.785156 C 98.734375 17.183594 97.398438 17.902344 95.640625 18.941406 M 63.449219 14.921875 C 62.515625 13.617188 62.046875 12.15625 62.046875 10.539062 C 62.046875 8.921875 62.515625 7.460938 63.449219 6.152344 C 64.363281 4.867188 65.554688 3.949219 67.023438 3.394531 C 64.863281 3.792969 62.882812 4.613281 61.078125 5.855469 C 59.253906 7.09375 57.773438 8.65625 56.636719 10.539062 C 57.773438 12.421875 59.253906 13.980469 61.078125 15.222656 C 62.882812 16.460938 64.863281 17.269531 67.023438 17.648438 C 65.554688 17.09375 64.363281 16.1875 63.449219 14.921875 M 60.277344 18.378906 C 57.359375 16.628906 55.089844 14.257812 53.464844 11.269531 L 53.097656 10.539062 L 53.464844 9.839844 C 55.089844 6.828125 57.359375 4.449219 60.277344 2.699219 C 63.191406 0.949219 66.355469 0.0742188 69.761719 0.0742188 C 73.1875 0.0742188 76.363281 0.949219 79.277344 2.699219 C 82.195312 4.449219 84.464844 6.828125 86.089844 9.839844 L 86.457031 10.539062 L 86.089844 11.269531 C 84.464844 14.257812 82.195312 16.628906 79.277344 18.378906 C 76.363281 20.105469 73.1875 20.96875 69.761719 20.96875 C 66.355469 20.96875 63.191406 20.105469 60.277344 18.378906 M 72.132812 5.6875 C 71.285156 5.6875 70.550781 6 69.925781 6.617188 C 69.328125 7.214844 69.027344 7.945312 69.027344 8.8125 C 69.027344 9.675781 69.328125 10.417969 69.925781 11.035156 C 70.550781 11.632812 71.285156 11.933594 72.132812 11.933594 C 73 11.933594 73.746094 11.632812 74.367188 11.035156 C 74.96875 10.417969 75.269531 9.675781 75.269531 8.8125 C 75.269531 7.945312 74.96875 7.214844 74.367188 6.617188 C 73.746094 6 73 5.6875 72.132812 5.6875 M 72.53125 3.394531 C 74 3.949219 75.191406 4.867188 76.105469 6.152344 C 77.039062 7.460938 77.507812 8.921875 77.507812 10.539062 C 77.507812 12.15625 77.039062 13.617188 76.105469 14.921875 C 75.191406 16.1875 74 17.09375 72.53125 17.648438 C 74.691406 17.269531 76.671875 16.460938 78.476562 15.222656 C 80.28125 13.980469 81.761719 12.421875 82.917969 10.539062 C 81.761719 8.65625 80.28125 7.09375 78.476562 5.855469 C 76.671875 4.613281 74.691406 3.792969 72.53125 3.394531 M 112.636719 39.9375 C 114.21875 38.941406 115.609375 38.445312 116.8125 38.445312 C 118.148438 38.445312 119.351562 39.128906 120.417969 40.503906 C 121.488281 41.898438 122.324219 43.847656 122.925781 46.351562 C 123.390625 48.277344 122.8125 50.8125 121.1875 53.957031 C 120.339844 55.597656 119.328125 57.191406 118.148438 58.742188 C 117.613281 59.25 117.058594 59.328125 116.480469 58.972656 C 116.121094 58.773438 116.035156 58.476562 116.210938 58.078125 L 116.546875 57.546875 C 117.703125 56.039062 118.726562 54.390625 119.617188 52.59375 C 120.84375 50.09375 121.300781 48.164062 120.988281 46.816406 C 120.542969 44.976562 119.90625 43.570312 119.082031 42.597656 C 118.328125 41.730469 117.515625 41.300781 116.644531 41.300781 C 115.800781 41.300781 114.941406 41.566406 114.074219 42.097656 C 113.363281 42.5625 112.90625 42.996094 112.707031 43.394531 C 112.238281 44.410156 112.171875 45.71875 112.503906 47.3125 C 112.859375 48.953125 112.996094 49.871094 112.90625 50.070312 C 112.636719 50.644531 112.171875 51.046875 111.503906 51.265625 C 110.96875 51.445312 110.625 51.652344 110.46875 51.898438 C 110.246094 52.253906 110.132812 52.972656 110.132812 54.058594 C 110.132812 55.007812 110.835938 55.398438 112.238281 55.21875 C 113.460938 55.085938 114.296875 54.800781 114.742188 54.355469 C 115.523438 53.601562 116.199219 52.71875 116.78125 51.699219 C 117.402344 50.570312 117.714844 49.59375 117.714844 48.773438 C 117.714844 48.132812 117.535156 47.433594 117.179688 46.683594 C 116.78125 45.886719 116.324219 45.34375 115.8125 45.054688 C 115.675781 44.964844 115.476562 45.019531 115.210938 45.21875 C 115.007812 45.398438 114.410156 45.109375 113.40625 44.355469 L 115.144531 43.359375 L 116.8125 43.328125 C 117.679688 43.8125 118.394531 44.621094 118.949219 45.75 C 119.460938 46.792969 119.71875 47.800781 119.71875 48.773438 C 119.71875 49.992188 119.285156 51.355469 118.414062 52.859375 C 117.769531 53.945312 117.023438 54.921875 116.179688 55.785156 L 114.441406 57.976562 L 112.304688 60.601562 C 111.726562 61.199219 111.179688 61.5 110.667969 61.5 C 109.667969 61.5 108.953125 60.480469 108.53125 58.441406 C 108.265625 57.179688 108.128906 55.71875 108.128906 54.058594 C 108.128906 52.640625 108.332031 51.585938 108.730469 50.902344 C 109.109375 50.238281 109.824219 49.726562 110.867188 49.371094 L 111.035156 49.304688 C 111.101562 49.019531 110.878906 48.433594 110.367188 47.546875 L 110.300781 47.347656 C 109.878906 46.527344 109.632812 45.652344 109.566406 44.722656 C 109.5 43.8125 109.632812 43.039062 109.96875 42.398438 C 110.324219 41.664062 111.214844 40.847656 112.636719 39.9375 M 108.429688 40.171875 L 108.898438 39.207031 C 109.988281 36.972656 111.003906 35.441406 111.9375 34.625 C 113.808594 32.984375 116.222656 32.640625 119.183594 33.59375 C 122.703125 34.722656 125.183594 37.3125 126.628906 41.367188 C 127.542969 43.890625 127.945312 46.316406 127.832031 48.640625 C 127.765625 49.816406 127.042969 51.433594 125.664062 53.492188 L 121.753906 58.609375 L 119.550781 61.566406 C 118.394531 63.378906 117.113281 64.820312 115.710938 65.882812 C 114.042969 67.144531 112.425781 67.667969 110.867188 67.445312 C 108.640625 67.132812 106.949219 65.605469 105.792969 62.859375 L 104.722656 58.574219 L 103.65625 55.417969 L 104.925781 56.148438 C 105.816406 56.792969 106.417969 57.535156 106.726562 58.375 L 107.796875 62.496094 C 108.464844 64.246094 109.589844 65.242188 111.167969 65.484375 C 112.214844 65.640625 113.394531 65.195312 114.710938 64.15625 C 115.867188 63.203125 116.914062 61.984375 117.847656 60.5 L 120.1875 57.378906 L 123.324219 53.125 C 124.4375 51.445312 125.015625 50.148438 125.0625 49.238281 C 125.148438 47.023438 124.90625 44.953125 124.328125 43.027344 C 123.28125 39.59375 121.300781 37.414062 118.382812 36.484375 C 116.089844 35.730469 114.320312 35.796875 113.074219 36.683594 C 112.339844 37.191406 111.546875 38.3125 110.703125 40.039062 L 110.199219 41.101562 C 109.554688 42.320312 108.609375 43.515625 107.363281 44.6875 C 106.382812 45.617188 105.570312 46.238281 104.925781 46.550781 L 103.457031 46.816406 L 102.652344 46.75 L 104.824219 45.21875 C 106.40625 43.382812 107.605469 41.699219 108.429688 40.171875 M 111.167969 18.578125 C 111.703125 18.6875 112.003906 19.054688 112.070312 19.675781 C 112.136719 20.316406 111.902344 20.582031 111.371094 20.472656 C 106.960938 19.652344 102.796875 20.027344 98.878906 21.601562 C 94.71875 23.285156 91.6875 26.042969 89.796875 29.871094 C 89.550781 30.359375 89.183594 30.425781 88.695312 30.070312 C 88.183594 29.71875 88.039062 29.296875 88.261719 28.808594 C 90.285156 24.710938 93.492188 21.746094 97.878906 19.90625 C 102.042969 18.15625 106.472656 17.714844 111.167969 18.578125 "/>
</g>
</svg>
