<?xml version="1.0" encoding="UTF-8"?>
<svg xmlns="http://www.w3.org/2000/svg" xmlns:xlink="http://www.w3.org/1999/xlink" width="128pt" height="329pt" viewBox="0 0 128 329" version="1.1">
<g id="surface1">
<path style=" stroke:none;fill-rule:nonzero;fill:rgb(100%,100%,100%);fill-opacity:1;" d="M 21.832031 211.007812 L 21.683594 217.828125 C 20.421875 217.683594 19.113281 217.269531 17.753906 216.59375 L 16.007812 215.722656 L 14.554688 214.636719 C 11.984375 212.605469 9.703125 210.355469 7.714844 207.886719 C 4.65625 204.164062 2.691406 200.414062 1.820312 196.640625 C 0.605469 191.371094 1.359375 184.1875 4.074219 175.09375 C 6.890625 180.367188 10.671875 183.582031 15.425781 184.742188 L 17.828125 185.25 C 18.363281 187.378906 18.191406 189.191406 17.320312 190.691406 L 15.9375 192.214844 L 14.84375 192.867188 L 18.191406 200.851562 C 20.328125 205.25 21.128906 207.765625 20.59375 208.394531 L 17.683594 208.03125 C 14.238281 206.96875 11.523438 203.824219 9.53125 198.601562 C 8.804688 196.714844 8.078125 193.835938 7.351562 189.964844 C 7.203125 189.289062 6.71875 189.023438 5.894531 189.167969 C 5.070312 189.3125 4.585938 189.699219 4.4375 190.328125 C 4.148438 192.121094 4.925781 195.3125 6.765625 199.90625 C 9.191406 205.855469 12.539062 209.507812 16.808594 210.863281 L 21.832031 211.007812 M 25.03125 188.226562 C 23.867188 193.449219 23.019531 198.480469 22.484375 203.316406 L 18.484375 194.03125 C 20.519531 192.480469 21.175781 189.675781 20.449219 185.613281 L 24.960938 185.324219 C 24.863281 186.484375 24.886719 187.453125 25.03125 188.226562 M 5.820312 166.75 L 5.96875 166.167969 C 7.082031 160.800781 8.757812 154.824219 10.988281 148.246094 C 14.480469 137.847656 18.628906 128.222656 23.429688 119.371094 C 24.984375 116.46875 26.996094 113.398438 29.472656 110.15625 L 29.617188 110.738281 C 30.34375 114.511719 33.910156 117.507812 40.3125 119.734375 C 40.460938 120.699219 39.972656 123.941406 38.859375 129.457031 C 37.546875 135.742188 36.871094 140.265625 36.820312 143.023438 C 36.773438 149.359375 37.28125 158.066406 38.347656 169.144531 C 38.929688 175.285156 39.148438 178.914062 39.003906 180.027344 C 34.296875 179.785156 30.78125 178.429688 28.453125 175.964844 L 28.308594 172.554688 C 28.113281 169.167969 27.167969 163.824219 25.46875 156.519531 L 23.214844 147.449219 L 21.320312 138.527344 L 19.648438 144.402344 L 22.558594 156.375 C 23.769531 161.210938 24.597656 165.175781 25.03125 168.273438 C 25.613281 172.09375 25.785156 176.472656 25.542969 181.40625 L 25.542969 180.535156 L 24.960938 182.128906 C 23.164062 182.90625 20.058594 182.734375 15.644531 181.621094 C 12.734375 180.945312 10.261719 179.011719 8.222656 175.820312 C 7.058594 174.027344 6.160156 172.070312 5.53125 169.941406 C 5.335938 169.3125 5.433594 168.25 5.820312 166.75 M 40.96875 90.058594 C 40.53125 90.105469 40.289062 90.226562 40.242188 90.421875 L 40.824219 90.929688 L 43.222656 92.234375 L 45.1875 92.597656 L 47.664062 92.234375 L 48.683594 91.511719 C 48.972656 91.171875 49.070312 90.808594 48.972656 90.421875 C 48.828125 89.695312 48.292969 89.332031 47.371094 89.332031 L 47.082031 89.332031 L 40.96875 90.058594 M 29.472656 79.320312 C 29.277344 78.5 29.691406 78.085938 30.707031 78.085938 L 30.925781 78.085938 L 34.929688 78.8125 L 43.078125 79.464844 L 45.117188 79.394531 C 48.949219 79.101562 53.898438 77.722656 59.960938 75.257812 L 61.636719 74.96875 C 62.3125 74.96875 62.945312 75.183594 63.527344 75.621094 C 64.15625 76.105469 64.304688 76.636719 63.964844 77.214844 L 62.726562 78.230469 C 57.390625 81.085938 53.726562 82.851562 51.738281 83.527344 L 44.460938 84.472656 L 39.878906 83.964844 L 30.855469 80.84375 C 30.222656 80.796875 29.761719 80.289062 29.472656 79.320312 M 34.855469 77.433594 L 31 76.707031 L 30.054688 76.128906 C 29.761719 75.789062 29.640625 75.425781 29.691406 75.039062 L 29.691406 74.023438 C 29.785156 73.539062 29.691406 73.296875 29.398438 73.296875 L 28.890625 73.660156 L 26.195312 76.925781 C 25.613281 77.699219 25.566406 78.5 26.050781 79.320312 L 29.179688 84.109375 L 29.617188 84.542969 L 29.90625 83.890625 L 29.90625 83.167969 C 29.8125 82.441406 30.125 82.078125 30.855469 82.078125 L 31.21875 82.078125 L 35.875 84.761719 C 39.5625 86.550781 42.886719 87.472656 45.84375 87.519531 L 45.917969 87.519531 C 48.875 87.519531 52.804688 86.117188 57.707031 83.3125 L 64.109375 79.101562 L 64.691406 79.03125 C 65.371094 79.03125 65.878906 79.273438 66.21875 79.757812 L 66.292969 83.09375 L 66.875 83.527344 L 67.382812 82.875 L 68.695312 76.273438 C 68.839844 75.355469 68.523438 74.628906 67.746094 74.097656 L 60.472656 68.945312 L 59.960938 68.800781 C 59.671875 68.800781 59.597656 69.042969 59.742188 69.527344 L 60.6875 71.847656 C 60.835938 72.1875 60.738281 72.574219 60.398438 73.007812 L 59.304688 73.804688 C 52.660156 76.273438 47.710938 77.675781 44.460938 78.015625 L 42.425781 78.160156 L 34.855469 77.433594 M 43.878906 54.652344 L 40.460938 59.367188 L 38.128906 62.269531 C 37.546875 62.949219 37.523438 63.722656 38.058594 64.59375 L 41.261719 69.378906 C 41.792969 69.960938 42.449219 70.25 43.222656 70.25 L 44.824219 69.816406 L 45.554688 69.234375 C 45.648438 68.945312 45.578125 68.632812 45.335938 68.292969 L 42.640625 64.738281 C 42.109375 63.964844 42.058594 63.140625 42.496094 62.269531 L 45.554688 56.464844 C 46.765625 54.144531 47.734375 51.703125 48.464844 49.136719 C 48.707031 48.21875 48.609375 47.710938 48.171875 47.613281 L 48.027344 47.613281 C 47.542969 47.613281 47.128906 48.027344 46.789062 48.847656 L 43.878906 54.652344 M 32.308594 47.398438 C 31.582031 47.398438 30.949219 47.878906 30.417969 48.847656 C 29.882812 49.765625 29.59375 50.902344 29.542969 52.257812 C 29.496094 53.660156 29.714844 54.84375 30.199219 55.8125 C 30.683594 56.78125 31.289062 57.265625 32.019531 57.265625 L 32.089844 57.265625 C 32.820312 57.265625 33.449219 56.804688 33.984375 55.886719 C 34.515625 54.917969 34.808594 53.757812 34.855469 52.402344 C 34.90625 51.046875 34.6875 49.886719 34.203125 48.921875 C 33.714844 47.953125 33.085938 47.445312 32.308594 47.398438 M 21.976562 34.046875 C 23.042969 35.015625 24.183594 35.667969 25.394531 36.003906 C 23.746094 38.859375 22.386719 41.542969 21.320312 44.058594 C 20.011719 41.929688 19.285156 40.285156 19.136719 39.125 C 18.894531 37.625 18.945312 36.296875 19.285156 35.136719 C 19.625 34.023438 20.132812 33.464844 20.8125 33.464844 C 21.101562 33.464844 21.492188 33.660156 21.976562 34.046875 M 37.039062 38.109375 L 36.820312 36.660156 C 36.675781 35.933594 36.3125 35.570312 35.730469 35.570312 L 35 35.789062 L 29.398438 39.269531 L 28.816406 39.921875 L 29.542969 40.140625 L 35.511719 39.921875 C 35.996094 39.875 36.410156 39.683594 36.75 39.34375 C 37.039062 39.003906 37.136719 38.59375 37.039062 38.109375 M 62.800781 57.117188 C 63.527344 57.117188 64.15625 56.636719 64.691406 55.667969 C 65.226562 54.75 65.515625 53.613281 65.566406 52.257812 C 65.660156 50.953125 65.441406 49.789062 64.910156 48.773438 C 64.425781 47.808594 63.816406 47.300781 63.089844 47.25 L 63.019531 47.25 C 62.289062 47.25 61.660156 47.734375 61.125 48.703125 C 60.59375 49.621094 60.300781 50.757812 60.253906 52.113281 C 60.203125 53.46875 60.445312 54.628906 60.980469 55.59375 C 61.464844 56.5625 62.070312 57.070312 62.800781 57.117188 M 65.636719 39.851562 L 68.695312 41.59375 L 70.875 42.609375 C 71.214844 41.398438 70.367188 39.65625 68.328125 37.382812 L 65.128906 34.335938 L 64.398438 34.117188 C 63.867188 34.117188 63.476562 34.359375 63.234375 34.84375 L 62.21875 36.222656 C 61.539062 37.191406 61.296875 37.820312 61.488281 38.109375 L 62.871094 38.691406 L 65.636719 39.851562 M 95.910156 302.136719 L 96.78125 304.167969 C 98.433594 308.230469 98.285156 311.230469 96.34375 313.164062 C 95.714844 313.792969 94.550781 314.421875 92.851562 315.050781 C 90.816406 315.824219 89.652344 315.726562 89.359375 314.761719 L 88.339844 313.527344 L 86.8125 313.453125 L 82.738281 317.808594 L 80.117188 320.347656 C 77.546875 322.574219 74.832031 324.242188 71.96875 325.355469 C 67.796875 327 62.945312 327.988281 57.414062 328.328125 C 52.953125 328.667969 50.378906 328.109375 49.699219 326.660156 C 48.972656 325.0625 50.015625 322.839844 52.828125 319.984375 L 55.375 317.808594 L 59.015625 314.832031 L 67.527344 308.882812 C 72.332031 311.300781 77.402344 311.785156 82.738281 310.335938 C 87.734375 308.980469 92.125 306.246094 95.910156 302.136719 M 105.949219 276.816406 C 106.097656 282.617188 104.230469 285.085938 100.347656 284.214844 L 103.257812 262.230469 C 104.957031 268.132812 105.855469 272.992188 105.949219 276.816406 M 104.785156 214.199219 C 104.738281 214.007812 103.71875 214.175781 101.730469 214.707031 L 96.34375 215.867188 L 91.398438 215.433594 C 90.039062 214.902344 89.652344 214.199219 90.234375 213.328125 L 90.960938 212.75 L 92.34375 212.167969 C 94.625 211.347656 96.613281 210.402344 98.308594 209.339844 L 102.023438 205.636719 C 104.351562 207.234375 108.085938 207.839844 113.226562 207.453125 C 118.660156 207.066406 123.292969 204.019531 127.125 198.308594 C 127.707031 201.210938 127.902344 203.726562 127.707031 205.855469 C 127.273438 212.53125 125.769531 218.433594 123.199219 223.558594 C 122.421875 225.058594 121.5 226.027344 120.433594 226.460938 L 118.757812 226.679688 L 120.578125 221.601562 C 121.886719 218.070312 122.25 215.867188 121.667969 215 L 118.101562 222.980469 C 115.386719 228.929688 112.644531 232.097656 109.878906 232.484375 L 109.082031 232.339844 L 108.789062 232.195312 L 111.628906 224.574219 C 113.46875 219.542969 113.90625 216.761719 112.9375 216.230469 L 109.878906 223.050781 C 107.792969 228.226562 106.410156 231.371094 105.734375 232.484375 L 102.675781 236.621094 C 102.386719 236.667969 102.214844 236.886719 102.167969 237.273438 C 101.050781 238.335938 100.152344 238.675781 99.476562 238.289062 C 98.648438 237.757812 99.0625 234.804688 100.710938 229.4375 L 101.074219 228.203125 L 103.476562 220.003906 L 104.785156 215 L 104.785156 214.199219 M 98.382812 194.539062 L 100.492188 202.738281 C 99.378906 204.574219 98.117188 205.976562 96.710938 206.945312 C 95.15625 207.910156 93.363281 208.757812 91.324219 209.484375 L 88.851562 210.570312 C 88.027344 211.105469 87.539062 211.828125 87.394531 212.75 C 87.152344 213.910156 87.445312 214.925781 88.269531 215.796875 C 89.964844 217.730469 93.191406 218.382812 97.945312 217.753906 L 101.148438 217.246094 L 98.308594 227.332031 L 97.945312 228.566406 C 96.878906 231.855469 96.273438 234.25 96.128906 235.75 C 95.933594 238.265625 96.5625 239.933594 98.019531 240.753906 L 101.875 240.972656 C 100.90625 257.707031 98.988281 274.179688 96.128906 290.382812 L 95.035156 294.300781 C 94.503906 296.1875 94.285156 297.636719 94.382812 298.652344 C 90.886719 302.714844 86.886719 305.496094 82.375 306.996094 C 77.328125 308.691406 72.550781 308.449219 68.039062 306.273438 C 65.128906 297.515625 62.410156 286.925781 59.886719 274.492188 C 54.746094 248.953125 53.679688 226.871094 56.6875 208.25 C 56.785156 207.476562 56.371094 206.800781 55.449219 206.21875 C 54.480469 205.6875 53.921875 205.878906 53.777344 206.800781 C 51.253906 222.324219 51.570312 240.320312 54.722656 260.78125 C 39.441406 260.828125 29.933594 252.363281 26.195312 235.386719 C 23.429688 222.90625 23.890625 208.226562 27.578125 191.34375 C 30.34375 193.570312 34.226562 195.867188 39.222656 198.238281 C 48.148438 202.347656 58.140625 204.066406 69.203125 203.390625 C 80.214844 202.664062 89.941406 199.714844 98.382812 194.539062 M 101.949219 114.148438 C 107.578125 121.789062 112.160156 130.542969 115.703125 140.410156 C 119.148438 150.085938 121.765625 160.507812 123.5625 171.683594 C 124.675781 178.601562 125.378906 184.910156 125.671875 190.621094 L 125.746094 191.273438 C 125.839844 192.820312 125.746094 193.882812 125.453125 194.464844 C 124.628906 196.304688 123.414062 198.09375 121.816406 199.835938 C 119.242188 202.640625 116.476562 204.140625 113.519531 204.332031 C 108.910156 204.71875 105.828125 204.355469 104.277344 203.246094 C 103.792969 200.246094 103.015625 196.835938 101.949219 193.015625 C 96.710938 179.082031 89.480469 166.578125 80.265625 155.503906 L 78.734375 156.808594 C 83.78125 163.242188 87.808594 169.410156 90.816406 175.3125 L 91.324219 176.253906 C 85.113281 179.832031 76.578125 181.9375 65.710938 182.566406 C 64.15625 179.566406 63.066406 170.714844 62.433594 156.011719 C 61.804688 140.386719 62.507812 130.132812 64.546875 125.246094 C 65.078125 124.085938 65.539062 123.457031 65.929688 123.363281 C 70.148438 123.070312 74.492188 121.644531 78.953125 119.082031 C 83.417969 116.566406 86.765625 113.613281 88.996094 110.230469 C 90.742188 107.570312 91.617188 104.882812 91.617188 102.175781 C 96.03125 106.722656 99.476562 110.710938 101.949219 114.148438 M 87.324219 97.96875 C 89.214844 101.449219 88.972656 105.003906 86.59375 108.632812 C 84.605469 111.632812 81.550781 114.292969 77.425781 116.613281 C 73.351562 118.9375 69.421875 120.21875 65.636719 120.460938 C 61.949219 120.847656 59.863281 127.472656 59.378906 140.339844 C 59.089844 147.738281 59.304688 155.960938 60.035156 165.007812 C 60.761719 173.570312 61.636719 179.421875 62.652344 182.566406 C 63.285156 184.550781 64.0625 185.539062 64.980469 185.539062 L 65.199219 185.539062 C 76.84375 184.960938 85.964844 182.734375 92.5625 178.867188 C 94.308594 182.734375 95.910156 186.847656 97.363281 191.199219 C 90.332031 196.230469 80.140625 199.179688 66.800781 200.050781 C 59.765625 200.535156 52.925781 199.859375 46.28125 198.019531 C 39.199219 195.988281 33.109375 192.820312 28.015625 188.515625 L 28.453125 179.882812 C 31.265625 181.863281 34.976562 182.878906 39.585938 182.929688 L 39.660156 182.929688 C 40.191406 182.929688 40.675781 182.710938 41.113281 182.277344 C 41.695312 181.648438 41.964844 180.367188 41.914062 178.429688 L 41.1875 168.851562 C 40.167969 158.355469 39.683594 149.746094 39.730469 143.023438 C 39.78125 140.75 40.433594 136.421875 41.695312 130.035156 L 43.222656 120.96875 C 43.371094 118.984375 42.957031 117.726562 41.988281 117.195312 L 41.695312 117.121094 C 36.070312 115.1875 32.988281 112.863281 32.453125 110.15625 C 32.113281 108.558594 32.648438 106.84375 34.054688 105.003906 L 36.238281 102.972656 C 38.324219 104.28125 40.75 105.417969 43.515625 106.382812 C 44.824219 108.996094 46.789062 110.980469 49.410156 112.332031 C 51.835938 113.589844 54.625 114.21875 57.777344 114.21875 C 63.890625 114.21875 69.445312 112.285156 74.441406 108.414062 C 79.828125 104.253906 82.472656 99.296875 82.375 93.542969 L 87.324219 97.96875 M 89.214844 64.011719 C 89.164062 63.285156 88.800781 62.5625 88.121094 61.835938 L 86.375 60.457031 L 85.941406 60.3125 C 85.550781 60.3125 85.308594 60.527344 85.210938 60.964844 C 85.066406 61.398438 85.164062 61.738281 85.503906 61.980469 L 86.523438 62.777344 L 87.539062 64.375 C 87.636719 64.90625 87.929688 65.171875 88.414062 65.171875 C 88.996094 65.171875 89.261719 64.785156 89.214844 64.011719 M 86.085938 54.796875 L 85.867188 54.796875 C 85.429688 54.796875 85.140625 55.015625 84.992188 55.449219 C 84.847656 55.886719 85.066406 56.296875 85.648438 56.683594 L 88.488281 58.570312 L 90.453125 60.675781 L 91.90625 62.050781 L 92.199219 61.761719 C 92.292969 61.375 92.050781 60.722656 91.46875 59.804688 L 89.652344 57.335938 C 88.730469 56.320312 87.539062 55.472656 86.085938 54.796875 M 83.539062 26.9375 L 84.046875 26.863281 C 86.667969 26.863281 88.4375 28.289062 89.359375 31.144531 C 90.332031 34.191406 88.875 36.804688 84.992188 38.980469 L 84.339844 39.632812 C 84.097656 40.164062 84.289062 40.601562 84.921875 40.9375 C 87.976562 42.824219 90.257812 44.445312 91.761719 45.800781 C 95.546875 49.332031 97.4375 53.417969 97.4375 58.0625 C 95.835938 54.386719 93.894531 51.21875 91.617188 48.558594 C 88.800781 45.511719 86.863281 43.816406 85.792969 43.480469 L 85.210938 43.332031 C 84.726562 43.332031 84.4375 43.527344 84.339844 43.914062 C 84.191406 44.300781 84.339844 44.617188 84.777344 44.855469 L 86.59375 46.308594 L 90.378906 49.789062 C 92.5625 51.871094 94.867188 55.328125 97.292969 60.167969 L 96.929688 61.835938 C 95.277344 58.109375 93.214844 55.039062 90.742188 52.621094 C 88.898438 50.78125 87.296875 49.621094 85.941406 49.136719 L 85.648438 49.066406 C 85.164062 49.066406 84.921875 49.332031 84.921875 49.863281 C 84.921875 50.445312 85.261719 50.925781 85.941406 51.316406 L 89.503906 54 C 91.640625 56.175781 93.992188 59.269531 96.5625 63.285156 L 96.5625 63.359375 C 96.417969 63.84375 96.394531 64.300781 96.492188 64.738281 L 94.015625 64.230469 L 94.382812 65.171875 C 97.824219 67.785156 98.722656 71.074219 97.074219 75.039062 C 95.425781 78.910156 92.539062 80.84375 88.414062 80.84375 L 87.25 80.773438 C 82.980469 88.511719 77.667969 94.460938 71.3125 98.621094 C 70.632812 99.007812 70.320312 99.347656 70.367188 99.636719 C 70.414062 99.878906 70.753906 100 71.386719 100 C 73.375 100 75.726562 99.054688 78.445312 97.167969 C 78.054688 100.75 75.558594 103.988281 70.949219 106.890625 C 66.679688 109.601562 62.507812 110.953125 58.433594 110.953125 C 56.492188 110.953125 55.039062 110.59375 54.066406 109.867188 L 54.429688 109.9375 L 59.234375 108.921875 C 61.417969 108.246094 62.433594 107.714844 62.289062 107.328125 L 61.925781 107.183594 L 57.195312 107.617188 C 53.121094 107.617188 48.632812 106.554688 43.734375 104.425781 C 34.808594 100.507812 28.1875 93.636719 23.867188 83.820312 C 19.746094 74.433594 18.675781 64.761719 20.667969 54.796875 C 21.925781 48.605469 24.425781 42.390625 28.160156 36.152344 C 30.246094 35.8125 32.164062 34.820312 33.910156 33.175781 L 37.546875 28.675781 C 39.730469 25.921875 41.210938 24.324219 41.988281 23.890625 L 43.441406 23.527344 C 44.851562 23.527344 46.5 24.128906 48.390625 25.339844 L 51.15625 25.921875 C 52.707031 25.921875 54.769531 25.21875 57.339844 23.816406 C 58.457031 23.234375 59.644531 22.945312 60.90625 22.945312 C 64.207031 22.945312 67.238281 24.542969 70.003906 27.734375 C 70.828125 28.703125 71.945312 29.183594 73.351562 29.183594 C 74.371094 29.183594 75.65625 28.894531 77.207031 28.316406 C 78.808594 27.734375 80.917969 27.273438 83.539062 26.9375 M 90.304688 17.070312 C 92.199219 17.890625 94.1875 19.777344 96.273438 22.726562 C 97.777344 24.855469 99.0625 27.128906 100.128906 29.546875 C 102.023438 33.804688 102.386719 39.367188 101.222656 46.234375 C 100.640625 49.671875 99.863281 52.691406 98.890625 55.304688 C 98.019531 51.144531 96.128906 47.6875 93.214844 44.929688 C 91.710938 43.480469 89.796875 41.929688 87.46875 40.285156 L 91.46875 36.511719 C 92.925781 34.675781 93.554688 33.078125 93.363281 31.726562 C 93.070312 29.789062 92.390625 28.144531 91.324219 26.792969 C 89.871094 24.953125 87.855469 24.035156 85.285156 24.035156 L 83.683594 24.179688 C 82.664062 24.324219 80.992188 24.929688 78.664062 25.992188 C 76.429688 26.960938 74.953125 27.445312 74.222656 27.445312 L 73.789062 27.371094 C 73.449219 27.324219 71.824219 25.703125 68.910156 22.511719 C 66.097656 19.511719 63.816406 18.011719 62.070312 18.011719 L 60.90625 18.230469 L 55.960938 21.277344 L 52.976562 23.089844 C 52.054688 23.621094 51.300781 23.890625 50.71875 23.890625 L 49.847656 23.742188 L 47.882812 22.726562 C 46.960938 22.246094 46.28125 21.929688 45.84375 21.785156 L 44.023438 21.347656 C 43.054688 21.347656 41.9375 21.710938 40.675781 22.4375 C 39.707031 22.96875 38.105469 24.636719 35.875 27.445312 L 32.308594 31.796875 C 30.367188 33.492188 28.429688 34.335938 26.488281 34.335938 C 25.128906 34.335938 23.988281 33.902344 23.066406 33.03125 C 21.273438 31.335938 20.058594 29.113281 19.429688 26.355469 C 18.796875 23.648438 18.871094 21.253906 19.648438 19.171875 C 20.230469 17.578125 21.152344 16.148438 22.414062 14.890625 C 22.21875 16.730469 22.726562 18.109375 23.941406 19.027344 C 25.300781 20.09375 26.828125 20.625 28.523438 20.625 C 31 20.625 33.109375 19.632812 34.855469 17.648438 C 39.222656 12.617188 42.230469 9.910156 43.878906 9.523438 L 45.554688 9.304688 L 49.046875 9.957031 L 51.957031 10.683594 C 52.683594 10.683594 53.316406 10.417969 53.847656 9.886719 L 56.394531 6.332031 C 58.96875 2.414062 60.808594 0.355469 61.925781 0.164062 L 62.363281 0.164062 C 63.769531 0.164062 65.515625 0.863281 67.601562 2.269531 L 69.566406 3.792969 L 71.75 5.023438 L 78.226562 6.695312 C 81.089844 7.082031 83.683594 8.796875 86.011719 11.84375 C 88.582031 15.230469 90.015625 16.972656 90.304688 17.070312 "/>
</g>
</svg>
