<?xml version="1.0" encoding="UTF-8"?>
<svg xmlns="http://www.w3.org/2000/svg" xmlns:xlink="http://www.w3.org/1999/xlink" width="128pt" height="165pt" viewBox="0 0 128 165" version="1.1">
<g id="surface1">
<path style=" stroke:none;fill-rule:nonzero;fill:rgb(100%,100%,100%);fill-opacity:1;" d="M 106.746094 158.117188 C 107.976562 158.042969 109.167969 157.753906 110.324219 157.253906 C 111.230469 158.957031 111.65625 160.125 111.605469 160.75 C 111.480469 162.980469 110.085938 164.285156 107.421875 164.660156 C 105.816406 164.886719 104.003906 164.359375 101.996094 163.082031 C 100.335938 162.054688 99.230469 161.078125 98.679688 160.148438 C 98.351562 159.546875 98.277344 158.757812 98.453125 157.78125 L 106.746094 158.117188 M 56.574219 156.691406 C 53.230469 156.914062 49.964844 156.640625 46.773438 155.863281 L 46.398438 155.75 L 45.644531 155.335938 C 45.59375 155.058594 46.09375 154.660156 47.152344 154.132812 C 48.082031 153.65625 50.167969 152.992188 53.40625 152.140625 C 56.726562 153.316406 59.628906 153.996094 62.117188 154.171875 L 69.765625 153.792969 C 69.691406 154.722656 69.378906 155.386719 68.824219 155.789062 C 68.273438 156.164062 67.140625 156.351562 65.433594 156.351562 L 64.453125 155.222656 L 64.375 155.148438 L 64.265625 155.1875 C 61.324219 155.960938 58.761719 156.464844 56.574219 156.691406 M 40.929688 103.820312 L 41.15625 103.558594 L 42.515625 102.203125 C 43.269531 103.582031 44.160156 104.75 45.191406 105.699219 C 46.496094 106.878906 47.929688 107.59375 49.488281 107.84375 L 54.539062 107.695312 C 55.015625 108.671875 55.21875 109.449219 55.140625 110.023438 C 55.015625 111.152344 54.726562 111.941406 54.273438 112.394531 C 53.972656 112.667969 53.382812 112.921875 52.503906 113.144531 L 52.429688 113.183594 L 52.089844 113.109375 L 51.75 112.921875 C 51.398438 112.195312 51.285156 111.554688 51.410156 111.003906 C 51.6875 110.402344 51.722656 109.976562 51.523438 109.722656 L 51.222656 109.613281 C 50.871094 109.6875 50.59375 110.074219 50.390625 110.777344 C 50.015625 111.828125 49.964844 112.667969 50.242188 113.296875 C 50.390625 113.621094 50.457031 114.074219 50.429688 114.648438 C 50.429688 115.203125 50.34375 115.691406 50.167969 116.117188 C 50.015625 116.542969 49.800781 116.820312 49.527344 116.945312 C 49.375 116.945312 49.148438 116.832031 48.847656 116.605469 C 48.292969 116.203125 47.792969 115.664062 47.339844 114.988281 C 46.785156 114.1875 46.472656 113.410156 46.398438 112.65625 L 46.359375 112.621094 L 45.945312 112.207031 C 45.820312 112.179688 45.695312 112.21875 45.566406 112.320312 L 45.378906 112.507812 C 45.203125 112.933594 45.277344 113.558594 45.605469 114.386719 L 45.757812 115.027344 C 45.078125 114.75 44.449219 114.3125 43.871094 113.710938 C 43.191406 113.035156 42.726562 112.367188 42.476562 111.71875 C 42.300781 111.265625 42.175781 110.640625 42.101562 109.835938 L 42.101562 109.800781 C 42.050781 109.5 41.9375 109.347656 41.761719 109.347656 C 41.535156 109.296875 41.308594 109.449219 41.082031 109.800781 L 41.082031 109.914062 L 41.042969 110.0625 C 40.894531 110.664062 40.832031 111.164062 40.855469 111.566406 C 40.378906 111.066406 39.976562 110.488281 39.648438 109.835938 C 39.171875 108.882812 38.972656 107.957031 39.046875 107.054688 C 39.070312 106.453125 39.699219 105.375 40.929688 103.820312 M 90.5 107.957031 C 95.148438 107.230469 98.601562 106.402344 100.863281 105.476562 C 101.367188 106.601562 102.535156 110.1875 104.371094 116.230469 C 106.480469 123.097656 107.914062 128.335938 108.667969 131.949219 C 109.445312 135.707031 110.113281 140.558594 110.664062 146.5 C 111.167969 151.890625 111.332031 154.808594 111.15625 155.261719 C 111.054688 155.511719 110.4375 155.773438 109.308594 156.050781 L 106.027344 156.539062 C 104.847656 156.613281 103.351562 156.589844 101.542969 156.464844 C 99.304688 156.3125 97.847656 156.039062 97.171875 155.636719 C 96.96875 155.4375 96.203125 153.355469 94.871094 149.394531 L 91.175781 139.203125 C 89.191406 134.367188 86.554688 128.953125 83.261719 122.960938 L 78.851562 115.328125 L 78.511719 115.476562 L 80.09375 119.765625 L 78.058594 124.613281 C 76.675781 128 75.570312 131.03125 74.742188 133.714844 C 73.410156 137.925781 71.890625 144.09375 70.183594 152.214844 L 69.878906 152.441406 L 62.792969 152.777344 L 58.421875 152.214844 C 56.988281 151.8125 55.808594 151.164062 54.878906 150.261719 C 56.460938 139.53125 57.617188 131.972656 58.347656 127.585938 C 58.796875 124.851562 59.679688 120.679688 60.984375 115.0625 L 63.09375 106.113281 L 67.015625 106.867188 C 71.613281 108.246094 76.4375 108.933594 81.488281 108.933594 C 84.152344 108.933594 87.15625 108.609375 90.5 107.957031 M 65.921875 54.523438 L 66.863281 53.582031 C 68.121094 54.3125 69.390625 54.886719 70.671875 55.3125 C 72.53125 58.875 75.949219 60.078125 80.925781 58.921875 C 83.035156 58.421875 84.933594 57.519531 86.617188 56.214844 C 88.425781 54.8125 89.644531 53.195312 90.273438 51.363281 C 92.058594 52.191406 93.804688 53.144531 95.511719 54.222656 C 94.304688 55.453125 92.597656 56.503906 90.386719 57.382812 C 88.726562 58.035156 87.40625 58.410156 86.429688 58.507812 C 85.625 58.609375 84.996094 58.875 84.542969 59.300781 C 84.117188 59.699219 83.8125 60.328125 83.636719 61.179688 C 82.882812 64.511719 82.304688 68.160156 81.90625 72.121094 C 81.703125 74.226562 81.578125 77.4375 81.527344 81.746094 C 81.503906 85.984375 81.566406 88.90625 81.714844 90.507812 C 81.765625 90.910156 81.96875 91.285156 82.320312 91.636719 C 82.695312 92.011719 83.097656 92.214844 83.527344 92.238281 C 84.90625 92.363281 87.847656 92.289062 92.347656 92.011719 L 100.335938 91.035156 C 100.136719 95.148438 100.1875 99.585938 100.488281 104.347656 C 98.351562 105.273438 95.359375 106.027344 91.515625 106.601562 L 81.640625 107.503906 L 80.960938 107.503906 C 78.046875 107.378906 74.113281 106.804688 69.164062 105.777344 L 63.246094 104.082031 C 63.398438 99.570312 63.234375 94.933594 62.757812 90.171875 C 63.910156 90.648438 64.84375 90.921875 65.546875 91 C 66.046875 91.074219 66.425781 90.984375 66.675781 90.734375 C 66.976562 90.460938 67.101562 89.808594 67.054688 88.78125 L 67.054688 88.667969 L 66.976562 82.914062 C 67.027344 79.101562 67.214844 75.882812 67.542969 73.25 C 67.871094 70.59375 68.449219 67.546875 69.277344 64.113281 L 70.597656 59.074219 C 70.796875 58.523438 70.808594 57.996094 70.632812 57.496094 C 70.457031 56.992188 70.144531 56.640625 69.691406 56.441406 L 69.203125 56.292969 L 69.164062 56.253906 C 67.53125 55.652344 66.449219 55.074219 65.921875 54.523438 M 64.527344 54.898438 L 64.792969 55.277344 C 65.46875 56.078125 66.777344 56.816406 68.710938 57.496094 L 68.824219 57.570312 L 69.125 57.683594 C 69.429688 57.808594 69.503906 58.121094 69.351562 58.621094 C 69.027344 59.5 68.546875 61.292969 67.921875 64 C 67.117188 67.410156 66.539062 70.441406 66.1875 73.097656 C 65.859375 75.707031 65.683594 78.964844 65.660156 82.875 C 65.632812 85.234375 65.644531 87.1875 65.695312 88.742188 L 65.734375 89.683594 C 64.578125 89.480469 63.523438 89.128906 62.566406 88.628906 L 62.378906 87.050781 C 61.902344 82.8125 61.375 79.679688 60.796875 77.648438 L 58.308594 69.753906 L 57.742188 69.867188 L 59.855469 80.242188 C 60.304688 82.5 60.707031 85.382812 61.058594 88.890625 L 61.136719 90.132812 L 60.570312 91.035156 C 58.761719 94.019531 57.203125 97.289062 55.894531 100.851562 C 55.191406 102.78125 54.652344 104.511719 54.273438 106.039062 L 49.449219 106.226562 C 47.917969 105.976562 46.546875 105.074219 45.339844 103.519531 C 44.613281 102.566406 44.074219 101.601562 43.722656 100.625 C 43.570312 100.273438 43.570312 99.722656 43.722656 98.96875 L 43.757812 98.632812 C 44.160156 95.597656 44.777344 92.363281 45.605469 88.929688 C 47.011719 83.214844 48.796875 77.925781 50.957031 73.0625 C 53.21875 68.023438 55.945312 63.699219 59.136719 60.089844 C 60.871094 58.058594 62.667969 56.328125 64.527344 54.898438 M 73.046875 46.550781 L 72.40625 46.4375 L 71.726562 46.589844 L 69.238281 46.890625 C 69.011719 46.914062 68.886719 46.976562 68.863281 47.078125 L 69.164062 47.339844 L 70.445312 47.980469 L 72.707031 47.941406 L 73.234375 47.566406 C 73.386719 47.390625 73.4375 47.203125 73.386719 47.003906 L 73.046875 46.550781 M 79.792969 38.882812 C 80.171875 38.855469 80.523438 38.96875 80.847656 39.21875 C 81.175781 39.46875 81.238281 39.746094 81.039062 40.046875 L 80.433594 40.609375 C 77.695312 42.113281 75.8125 43.054688 74.78125 43.429688 L 71.652344 43.917969 L 68.636719 43.730469 L 63.960938 42.191406 C 63.609375 42.113281 63.359375 41.839844 63.207031 41.363281 C 63.082031 40.9375 63.335938 40.722656 63.960938 40.722656 L 66.527344 41.136719 L 71.3125 41.324219 C 73.296875 41.148438 75.847656 40.398438 78.964844 39.070312 L 79.792969 38.882812 M 78.8125 35.722656 C 78.738281 35.796875 78.75 35.921875 78.851562 36.097656 L 79.304688 37.300781 C 79.402344 37.476562 79.367188 37.679688 79.191406 37.902344 L 78.625 38.316406 C 75.207031 39.644531 72.644531 40.410156 70.9375 40.609375 L 66.527344 40.421875 L 64 40.007812 C 63.800781 39.984375 63.625 39.894531 63.472656 39.746094 L 63.285156 39.183594 L 63.285156 38.65625 L 63.207031 38.28125 C 63.109375 38.253906 62.996094 38.316406 62.871094 38.46875 L 61.511719 40.195312 L 61.285156 40.796875 L 61.4375 41.402344 L 63.09375 43.882812 C 63.347656 44.257812 63.472656 44.207031 63.472656 43.730469 L 63.472656 43.394531 C 63.445312 43.191406 63.511719 43.03125 63.660156 42.90625 L 64.152344 42.828125 L 66.5625 44.183594 C 68.472656 45.085938 70.207031 45.523438 71.765625 45.5 C 73.296875 45.5 75.320312 44.757812 77.832031 43.28125 L 81.152344 41.023438 C 81.601562 40.847656 81.980469 40.960938 82.28125 41.363281 L 82.320312 43.09375 L 82.660156 43.316406 L 82.882812 42.941406 L 83.527344 39.519531 L 83.414062 38.917969 L 82.996094 38.429688 L 79.191406 35.796875 L 78.8125 35.722656 M 81.339844 25.304688 C 81.085938 24.804688 80.773438 24.554688 80.398438 24.554688 C 80.019531 24.53125 79.691406 24.765625 79.417969 25.269531 C 79.140625 25.769531 78.988281 26.371094 78.964844 27.074219 C 78.964844 27.800781 79.089844 28.402344 79.339844 28.878906 C 79.59375 29.378906 79.917969 29.644531 80.320312 29.667969 C 80.699219 29.667969 81.023438 29.417969 81.300781 28.917969 C 81.578125 28.414062 81.714844 27.8125 81.714844 27.113281 C 81.742188 26.410156 81.617188 25.808594 81.339844 25.304688 M 80.207031 20.117188 L 81.640625 20.679688 L 83.300781 21.582031 C 83.878906 21.933594 84.242188 22.097656 84.390625 22.074219 C 84.566406 21.445312 84.117188 20.554688 83.035156 19.402344 L 81.375 17.824219 C 80.949219 17.574219 80.621094 17.660156 80.398438 18.085938 L 79.867188 18.839844 C 79.515625 19.339844 79.390625 19.667969 79.492188 19.816406 L 80.207031 20.117188 M 67.390625 33.089844 C 67.367188 33.316406 67.417969 33.515625 67.542969 33.691406 L 69.277344 36.136719 C 69.578125 36.488281 69.96875 36.625 70.445312 36.550781 L 71.085938 36.363281 L 71.464844 36.0625 C 71.511719 35.910156 71.476562 35.746094 71.351562 35.570312 L 69.957031 33.730469 C 69.652344 33.328125 69.617188 32.902344 69.84375 32.449219 L 71.386719 29.441406 C 71.992188 28.214844 72.480469 26.9375 72.859375 25.605469 L 72.894531 25.082031 L 72.667969 24.816406 C 72.417969 24.765625 72.179688 24.980469 71.953125 25.457031 L 70.484375 28.503906 L 67.582031 32.488281 C 67.457031 32.640625 67.390625 32.839844 67.390625 33.089844 M 65.433594 25.605469 C 65.179688 25.105469 64.855469 24.855469 64.453125 24.855469 C 64.074219 24.832031 63.75 25.070312 63.472656 25.570312 C 63.195312 26.070312 63.058594 26.671875 63.058594 27.375 C 63.03125 28.078125 63.15625 28.679688 63.433594 29.179688 C 63.6875 29.679688 64 29.929688 64.375 29.929688 C 64.753906 29.957031 65.082031 29.71875 65.355469 29.21875 C 65.632812 28.742188 65.785156 28.140625 65.808594 27.414062 C 65.808594 26.710938 65.683594 26.109375 65.433594 25.605469 M 66.074219 20.945312 C 66.324219 20.917969 66.527344 20.820312 66.675781 20.644531 C 66.828125 20.441406 66.878906 20.21875 66.828125 19.96875 L 66.714844 19.214844 C 66.664062 18.964844 66.539062 18.800781 66.335938 18.726562 L 65.734375 18.800781 L 62.90625 20.644531 L 62.605469 20.980469 L 63.058594 21.09375 L 66.074219 20.945312 M 93.476562 31.925781 L 92.570312 31.210938 C 92.296875 31.085938 92.09375 31.148438 91.96875 31.398438 C 91.816406 31.675781 91.867188 31.875 92.121094 32 L 92.648438 32.414062 C 92.972656 32.738281 93.148438 33.015625 93.175781 33.242188 C 93.226562 33.515625 93.402344 33.652344 93.703125 33.652344 C 93.980469 33.628906 94.105469 33.429688 94.078125 33.050781 C 94.003906 32.625 93.804688 32.25 93.476562 31.925781 M 91.816406 28.539062 C 91.691406 28.792969 91.804688 29.027344 92.15625 29.253906 L 93.628906 30.195312 L 94.832031 31.511719 C 95.285156 31.988281 95.539062 32.101562 95.585938 31.847656 C 95.613281 31.648438 95.488281 31.308594 95.210938 30.835938 L 94.230469 29.554688 C 93.753906 29.054688 93.125 28.628906 92.347656 28.277344 C 92.121094 28.175781 91.945312 28.265625 91.816406 28.539062 M 90.839844 13.835938 C 92.246094 13.636719 93.25 14.3125 93.851562 15.867188 C 94.480469 17.496094 93.753906 18.914062 91.667969 20.117188 L 91.367188 20.457031 C 91.214844 20.707031 91.304688 20.917969 91.628906 21.09375 C 93.238281 22.023438 94.445312 22.851562 95.25 23.578125 C 97.257812 25.433594 98.265625 27.539062 98.265625 29.894531 C 97.484375 28.089844 96.453125 26.460938 95.171875 25.003906 C 93.640625 23.453125 92.621094 22.585938 92.121094 22.410156 C 91.769531 22.285156 91.527344 22.335938 91.402344 22.5625 C 91.253906 22.789062 91.316406 22.976562 91.59375 23.125 L 92.570312 23.878906 L 94.53125 25.644531 C 95.738281 26.746094 96.957031 28.527344 98.1875 30.984375 L 98.039062 31.847656 C 97.082031 29.84375 95.988281 28.265625 94.757812 27.113281 C 93.777344 26.160156 92.9375 25.570312 92.234375 25.34375 C 91.929688 25.242188 91.769531 25.34375 91.742188 25.644531 C 91.691406 25.972656 91.855469 26.246094 92.234375 26.472656 C 92.960938 26.875 93.589844 27.324219 94.117188 27.824219 C 95.023438 28.726562 96.203125 30.246094 97.660156 32.375 L 97.511719 32.414062 L 97.433594 32.527344 C 97.207031 32.550781 97.007812 32.613281 96.832031 32.714844 C 96.480469 32.914062 96.441406 33.214844 96.71875 33.617188 C 98.628906 34.996094 99.082031 36.761719 98.074219 38.917969 C 97.09375 41.023438 95.460938 41.953125 93.175781 41.703125 C 91.015625 45.761719 88.289062 48.894531 84.996094 51.101562 C 84.140625 51.652344 84.230469 51.878906 85.257812 51.777344 C 86.316406 51.679688 87.457031 51.191406 88.691406 50.3125 C 88.464844 52.644531 86.703125 54.625 83.414062 56.253906 C 80.195312 57.832031 77.785156 58.109375 76.175781 57.082031 L 78.625 56.59375 C 79.882812 56.191406 80.472656 55.890625 80.398438 55.6875 L 78.023438 55.878906 C 75.886719 55.953125 73.472656 55.425781 70.785156 54.296875 C 69.378906 53.722656 67.96875 52.894531 66.5625 51.816406 L 66.335938 51.589844 L 66.300781 51.628906 C 63.109375 49.046875 60.808594 45.625 59.402344 41.363281 C 58.019531 37.203125 57.71875 33.003906 58.496094 28.765625 C 59.074219 25.605469 60.320312 22.359375 62.226562 19.027344 C 63.234375 18.851562 64.214844 18.324219 65.167969 17.449219 L 67.015625 15.117188 C 68.144531 13.636719 68.898438 12.785156 69.277344 12.558594 L 71.3125 12.632812 L 72.632812 13.273438 L 74.96875 13.425781 C 75.570312 13.296875 76.339844 12.972656 77.269531 12.445312 C 78.199219 11.921875 79.253906 11.808594 80.433594 12.109375 C 81.664062 12.457031 82.796875 13.210938 83.828125 14.363281 C 84.304688 14.890625 84.921875 15.128906 85.675781 15.078125 L 87.558594 14.628906 C 88.160156 14.375 89.253906 14.113281 90.839844 13.835938 M 92.007812 6.015625 C 93.386719 7.769531 94.15625 8.671875 94.304688 8.722656 C 95.285156 9.125 96.316406 10.078125 97.398438 11.582031 C 98.199219 12.683594 98.878906 13.851562 99.433594 15.078125 C 100.4375 17.257812 100.664062 20.140625 100.109375 23.726562 C 99.835938 25.53125 99.457031 27.113281 98.980469 28.464844 C 98.527344 26.382812 97.523438 24.59375 95.964844 23.089844 L 92.988281 20.757812 C 93.789062 20.15625 94.46875 19.492188 95.023438 18.765625 C 95.777344 17.785156 96.089844 16.945312 95.964844 16.246094 C 95.789062 15.140625 95.359375 14.238281 94.683594 13.535156 C 93.777344 12.558594 92.523438 12.183594 90.914062 12.410156 C 90.410156 12.484375 89.480469 12.835938 88.125 13.460938 C 86.941406 14.011719 86.164062 14.25 85.785156 14.175781 L 82.882812 11.355469 C 81.25 9.703125 79.96875 9.085938 79.039062 9.511719 L 77.757812 10.339844 L 76.515625 11.128906 L 74.703125 12.257812 L 73.347656 12.445312 L 72.332031 11.921875 C 71.476562 11.519531 70.921875 11.304688 70.671875 11.28125 C 70.09375 11.179688 69.402344 11.367188 68.597656 11.84375 C 68.121094 12.121094 67.304688 12.996094 66.148438 14.476562 L 64.339844 16.734375 C 63.558594 17.433594 62.757812 17.875 61.925781 18.050781 C 60.996094 18.226562 60.21875 18.023438 59.589844 17.449219 C 58.660156 16.59375 58.007812 15.441406 57.628906 13.988281 C 57.277344 12.609375 57.289062 11.367188 57.667969 10.265625 C 57.992188 9.414062 58.472656 8.671875 59.101562 8.046875 C 59 8.972656 59.277344 9.6875 59.929688 10.191406 L 60.34375 10.492188 C 60.996094 10.867188 61.699219 11.03125 62.453125 10.980469 L 62.792969 10.941406 C 63.875 10.792969 64.792969 10.265625 65.546875 9.363281 L 67.695312 6.957031 C 68.75 5.878906 69.566406 5.265625 70.144531 5.113281 C 70.871094 4.9375 71.878906 5.039062 73.160156 5.414062 C 74.191406 5.742188 74.917969 5.679688 75.347656 5.226562 L 76.628906 3.382812 C 77.933594 1.328125 78.875 0.25 79.453125 0.152344 C 80.234375 0.0507812 81.214844 0.402344 82.394531 1.203125 L 83.414062 1.957031 C 83.8125 2.257812 84.203125 2.46875 84.582031 2.59375 C 85.914062 3.046875 87.03125 3.320312 87.9375 3.421875 C 89.417969 3.597656 90.773438 4.460938 92.007812 6.015625 M 124.082031 105.324219 L 125.667969 106.867188 L 125.894531 107.128906 C 127.125 108.632812 127.753906 109.699219 127.777344 110.324219 C 127.851562 111.226562 127.652344 112.15625 127.175781 113.109375 C 126.824219 113.808594 126.421875 114.386719 125.96875 114.839844 L 125.78125 113.335938 L 125.742188 113.183594 L 125.742188 113.144531 L 125.703125 113.109375 C 125.480469 112.757812 125.265625 112.59375 125.0625 112.621094 C 124.863281 112.667969 124.75 112.832031 124.726562 113.109375 L 124.6875 113.109375 L 124.347656 114.988281 C 124.097656 115.640625 123.632812 116.316406 122.953125 117.019531 C 122.375 117.597656 121.746094 118.023438 121.070312 118.296875 L 121.21875 117.660156 C 121.519531 116.882812 121.597656 116.265625 121.445312 115.816406 L 121.445312 115.777344 L 121.40625 115.777344 L 121.257812 115.628906 L 120.878906 115.515625 C 120.703125 115.515625 120.554688 115.640625 120.425781 115.890625 L 120.425781 115.964844 C 120.351562 116.71875 120.039062 117.496094 119.484375 118.296875 L 117.941406 119.875 L 117.300781 120.253906 C 117.023438 120.101562 116.796875 119.8125 116.621094 119.386719 C 116.445312 118.960938 116.355469 118.472656 116.355469 117.921875 C 116.355469 117.371094 116.417969 116.929688 116.546875 116.605469 C 116.796875 116.105469 116.757812 115.25 116.433594 114.046875 C 116.230469 113.347656 115.953125 112.96875 115.601562 112.921875 L 115.261719 113.035156 C 115.113281 113.257812 115.164062 113.683594 115.414062 114.3125 C 115.515625 114.9375 115.390625 115.578125 115.039062 116.230469 L 114.734375 116.417969 L 114.398438 116.457031 L 114.320312 116.457031 C 113.441406 116.203125 112.851562 115.941406 112.550781 115.664062 C 112.097656 115.238281 111.808594 114.449219 111.683594 113.296875 C 111.605469 112.644531 111.847656 111.792969 112.398438 110.738281 C 113.679688 111.066406 115.289062 111.089844 117.222656 110.816406 C 118.757812 110.5625 120.164062 109.875 121.445312 108.746094 C 122.476562 107.820312 123.355469 106.679688 124.082031 105.324219 M 121.070312 91.902344 C 121.949219 95.484375 122.5625 98.71875 122.914062 101.601562 L 122.992188 101.941406 C 123.089844 102.71875 123.089844 103.269531 122.992188 103.59375 C 122.5625 104.648438 122.011719 105.613281 121.332031 106.492188 C 120.125 108.042969 118.757812 108.945312 117.222656 109.199219 L 112.398438 109.011719 L 110.777344 103.820312 C 109.496094 100.261719 107.9375 96.988281 106.105469 94.007812 C 104.195312 90.847656 102.019531 88.078125 99.582031 85.695312 L 96.492188 82.988281 L 96.113281 83.402344 L 97.359375 84.945312 L 100.488281 89.230469 L 100.449219 89.644531 L 92.234375 90.660156 C 88.113281 90.984375 85.246094 91.0625 83.636719 90.886719 L 83.261719 90.699219 L 83.035156 90.398438 C 82.910156 88.792969 82.859375 85.910156 82.882812 81.746094 C 82.933594 77.460938 83.058594 74.289062 83.261719 72.234375 C 83.613281 68.425781 84.179688 64.828125 84.957031 61.441406 C 85.082031 60.890625 85.257812 60.503906 85.484375 60.277344 C 85.710938 60.050781 86.0625 59.914062 86.539062 59.863281 C 87.648438 59.738281 89.089844 59.324219 90.875 58.621094 C 93.464844 57.59375 95.4375 56.328125 96.792969 54.824219 C 98.25 55.375 99.394531 55.941406 100.222656 56.515625 L 100.601562 56.78125 L 100.675781 56.816406 C 102.835938 58.222656 105.136719 60.300781 107.574219 63.058594 C 110.765625 66.769531 113.480469 71.105469 115.714844 76.070312 C 117.902344 80.933594 119.6875 86.210938 121.070312 91.902344 "/>
<path style=" stroke:none;fill-rule:nonzero;fill:rgb(100%,100%,100%);fill-opacity:1;" d="M 16.695312 82.460938 C 16.769531 82.210938 16.894531 82.0625 17.070312 82.011719 C 17.398438 81.910156 17.636719 81.984375 17.789062 82.238281 L 19.445312 84.378906 C 21.054688 86.007812 23.113281 87.324219 25.628906 88.328125 L 25.816406 88.589844 L 25.96875 89.082031 C 25.917969 89.332031 25.640625 89.480469 25.136719 89.53125 C 22.449219 88.453125 20.238281 87.023438 18.503906 85.246094 L 16.617188 82.800781 L 16.695312 82.460938 M 9.269531 71.59375 C 9.292969 72.246094 9.433594 72.699219 9.683594 72.949219 C 10.210938 73.476562 11.480469 73.925781 13.492188 74.300781 C 14.496094 74.378906 15.664062 74.828125 16.996094 75.65625 L 19.972656 77.761719 C 20.851562 78.539062 21.605469 79.101562 22.234375 79.453125 C 22.8125 79.480469 23.128906 79.878906 23.175781 80.65625 C 23.203125 81.410156 22.8125 81.660156 22.007812 81.410156 C 21.40625 81.234375 20.589844 80.695312 19.558594 79.792969 C 18.628906 78.964844 18 78.539062 17.675781 78.515625 L 15.527344 80.132812 C 14.695312 80.78125 13.917969 81.234375 13.1875 81.484375 L 8.136719 84.003906 C 6.101562 85.007812 4.429688 85.859375 3.125 86.5625 C 1.992188 87.0625 1.667969 87.675781 2.144531 88.402344 L 4.445312 88.480469 L 7.121094 87.425781 L 9.796875 86.296875 L 15.261719 84.042969 L 15.640625 84.078125 L 15.714844 84.042969 L 15.828125 84.117188 C 16.554688 84.394531 16.957031 84.855469 17.035156 85.507812 L 17.183594 85.660156 L 17.035156 85.769531 L 16.957031 86.035156 L 14.660156 87.988281 L 9.984375 91.902344 C 8.050781 93.480469 6.605469 94.894531 5.648438 96.148438 C 6.53125 97.453125 7.898438 97.441406 9.757812 96.113281 L 12.132812 93.96875 L 15.035156 91.035156 C 16.140625 90.007812 17.035156 89.332031 17.710938 89.003906 L 19.105469 87.765625 L 20.691406 89.003906 L 20.160156 89.832031 L 20.238281 89.90625 L 14.320312 98.933594 C 13.691406 99.757812 13.289062 100.574219 13.113281 101.375 C 12.886719 102.429688 13.277344 102.992188 14.28125 103.070312 C 14.960938 102.84375 15.613281 102.265625 16.242188 101.339844 L 17.75 99.007812 L 23.402344 90.359375 L 23.480469 90.207031 L 23.742188 90.207031 L 24.121094 90.398438 C 24.523438 90.445312 24.835938 90.585938 25.0625 90.808594 L 25.402344 90.960938 L 25.289062 91.261719 C 25.363281 91.5625 25.277344 91.925781 25.023438 92.351562 L 22.421875 100.851562 L 22.234375 101.902344 C 22.160156 101.976562 22.121094 102.078125 22.121094 102.203125 L 22.046875 102.542969 L 22.046875 102.769531 C 22.121094 103.242188 22.335938 103.570312 22.6875 103.746094 C 23.066406 103.972656 23.441406 103.882812 23.820312 103.480469 L 24.648438 101.976562 L 25.214844 100.324219 L 27.476562 93.480469 L 27.8125 92.539062 L 28.078125 91.675781 L 28.53125 91.335938 L 29.09375 90.921875 L 30.828125 89.605469 C 33.117188 86.875 34.722656 84.265625 35.652344 81.785156 L 36.257812 78.289062 L 37.878906 76.820312 C 37.125 75.09375 36.195312 73.625 35.089844 72.421875 C 34.410156 71.671875 33.617188 71.007812 32.714844 70.429688 L 31.582031 69.789062 L 31.167969 70.167969 L 31.242188 70.167969 L 30.601562 70.769531 L 30.074219 71.144531 C 29.09375 71.945312 28.355469 72.308594 27.851562 72.234375 C 27.5 71.757812 26.859375 71.496094 25.929688 71.445312 L 22.800781 71.371094 C 21.996094 71.320312 19.859375 71.355469 16.394531 71.484375 L 9.269531 71.59375 M 7.082031 69.828125 L 7.082031 69.902344 L 7.121094 69.828125 L 7.121094 69.902344 L 13.492188 70.128906 L 20.3125 69.941406 L 25.742188 70.167969 L 26.796875 70.316406 L 28.492188 70.691406 L 28.417969 70.691406 L 28.71875 70.730469 L 31.621094 68.0625 L 32.148438 68.4375 L 32.5625 68.625 C 36.585938 70.957031 38.894531 73.902344 39.5 77.460938 C 38.644531 77.9375 38.027344 78.777344 37.652344 79.980469 L 37.160156 82.386719 L 36.183594 84.644531 L 34.710938 87.085938 C 33.984375 88.640625 32.800781 90.097656 31.167969 91.449219 L 28.984375 92.992188 L 27.699219 98.105469 C 26.621094 101.691406 25.488281 103.882812 24.308594 104.683594 L 24.269531 104.683594 L 23.289062 105.210938 C 22.210938 105.414062 21.429688 104.972656 20.953125 103.894531 C 20.5 102.917969 20.476562 101.976562 20.878906 101.074219 L 21.59375 98.480469 L 22.386719 95.847656 L 23.253906 93.292969 C 23.253906 93.167969 23.050781 93.46875 22.648438 94.195312 C 21.242188 96.75 20.238281 98.332031 19.632812 98.933594 L 18.050781 101.300781 L 16.316406 103.59375 C 15.664062 104.496094 14.757812 104.796875 13.601562 104.496094 C 12.398438 104.222656 11.742188 103.519531 11.644531 102.390625 L 11.71875 101.828125 C 11.769531 101.300781 11.90625 100.789062 12.132812 100.285156 C 12.535156 99.183594 13.3125 97.792969 14.46875 96.113281 L 17.070312 92.011719 L 18.011719 90.546875 L 12.511719 95.398438 C 10.574219 97.253906 9.144531 98.417969 8.214844 98.894531 L 6.894531 99.347656 L 6.441406 99.347656 L 6.253906 99.308594 C 5.347656 99.183594 4.632812 98.570312 4.105469 97.464844 L 4.105469 97.128906 C 4.027344 96.5 4.191406 95.863281 4.59375 95.210938 C 5.046875 94.308594 5.953125 93.328125 7.308594 92.277344 L 10.398438 89.683594 L 14.394531 86.261719 C 14.519531 86.210938 14.433594 86.171875 14.132812 86.148438 L 11.679688 87.199219 L 5.648438 89.71875 L 3.011719 90.359375 L 2.371094 90.359375 L 2.105469 90.320312 L 1.542969 90.132812 L 1.351562 90.058594 L 0.863281 89.644531 L 0.636719 89.382812 L 0.597656 89.304688 L 0.484375 89.15625 L 0.257812 88.742188 L 0.183594 88.441406 L 0.148438 88.367188 L 0.109375 87.914062 L 0.410156 87.050781 L 0.976562 86.449219 L 2.21875 85.46875 L 3.613281 84.644531 L 3.5 84.71875 L 13.640625 79.453125 L 13.828125 79.378906 L 14.246094 79.152344 L 14.960938 78.476562 C 15.363281 77.851562 15.539062 77.335938 15.488281 76.933594 C 15.464844 76.710938 15.300781 76.496094 14.996094 76.296875 L 14.582031 76.070312 L 13.527344 75.917969 L 13.414062 75.917969 L 13 75.957031 L 10.664062 75.84375 C 9.65625 75.570312 8.828125 75.066406 8.175781 74.339844 C 7.699219 73.839844 7.382812 73.035156 7.234375 71.933594 L 7.195312 71.820312 L 7.195312 71.519531 L 7.15625 71.03125 L 7.082031 69.976562 L 7.042969 70.015625 L 7.042969 69.902344 L 7.082031 69.828125 M 2.070312 65.164062 C 1.441406 65.542969 0.964844 65.390625 0.636719 64.714844 C 0.308594 64.039062 0.460938 63.511719 1.089844 63.132812 C 6.59375 59.875 12.597656 58.082031 19.105469 57.757812 C 25.96875 57.40625 32.035156 58.785156 37.3125 61.894531 C 37.941406 62.246094 38.042969 62.734375 37.613281 63.359375 C 37.1875 63.960938 36.660156 64.085938 36.03125 63.734375 C 31.105469 60.828125 25.402344 59.585938 18.917969 60.015625 C 12.835938 60.390625 7.21875 62.105469 2.070312 65.164062 M 14.847656 53.207031 L 22.535156 53.472656 L 30.113281 54.523438 C 32.851562 55.125 35.253906 55.964844 37.3125 57.042969 C 37.941406 57.367188 38.042969 57.84375 37.613281 58.472656 C 37.1875 59.097656 36.660156 59.238281 36.03125 58.886719 C 34.019531 57.859375 31.632812 57.066406 28.871094 56.515625 L 21.332031 55.652344 L 14.773438 55.464844 C 12.234375 55.589844 10.085938 56.003906 8.328125 56.703125 C 7.671875 56.980469 7.183594 56.78125 6.855469 56.101562 C 6.53125 55.402344 6.707031 54.925781 7.382812 54.675781 C 9.445312 53.820312 11.933594 53.332031 14.847656 53.207031 M 30.039062 16.132812 C 30.214844 13.425781 30.328125 12.007812 30.378906 11.882812 L 32.601562 12.109375 L 32.300781 16.28125 C 32.074219 19.566406 31.960938 22.550781 31.960938 25.230469 C 31.960938 27.539062 32.425781 30.445312 33.355469 33.957031 C 33.480469 33.878906 33.605469 33.84375 33.730469 33.84375 L 36.710938 34.257812 C 38.71875 34.882812 40.078125 36.097656 40.78125 37.902344 C 41.433594 39.558594 41.609375 41.425781 41.308594 43.507812 L 40.628906 46.289062 C 40.503906 46.664062 40.253906 46.890625 39.875 46.964844 C 39.472656 47.039062 39.132812 46.964844 38.859375 46.738281 C 38.429688 46.390625 37.890625 46.136719 37.238281 45.988281 C 37.136719 46.464844 36.761719 46.867188 36.105469 47.191406 C 35.453125 47.515625 34.6875 47.679688 33.808594 47.679688 L 32.035156 47.378906 C 30.203125 48.558594 28.179688 49.195312 25.96875 49.296875 L 25.324219 49.296875 C 23.242188 49.195312 21.28125 48.609375 19.445312 47.53125 L 18.125 47.679688 C 17.195312 47.679688 16.40625 47.503906 15.75 47.152344 C 15.097656 46.800781 14.746094 46.375 14.695312 45.875 C 14.117188 45.949219 13.578125 46.113281 13.074219 46.363281 C 12.75 46.515625 12.535156 46.640625 12.433594 46.738281 C 12.160156 46.964844 11.820312 47.039062 11.417969 46.964844 C 11.039062 46.890625 10.789062 46.664062 10.664062 46.289062 C 10.363281 45.488281 10.136719 44.558594 9.984375 43.507812 C 9.683594 41.425781 9.859375 39.558594 10.511719 37.902344 C 11.214844 36.097656 12.574219 34.882812 14.582031 34.257812 C 15.613281 33.929688 16.605469 33.792969 17.5625 33.84375 L 17.9375 33.957031 C 18.867188 30.445312 19.332031 27.539062 19.332031 25.230469 C 19.332031 22.550781 19.230469 19.566406 19.03125 16.28125 L 18.691406 12.109375 L 20.953125 11.882812 L 21.292969 16.132812 C 21.492188 19.492188 21.59375 22.523438 21.59375 25.230469 C 21.59375 28.015625 21.042969 31.375 19.9375 35.308594 L 18.164062 40.648438 C 17.914062 41.226562 17.472656 41.449219 16.84375 41.324219 C 16.59375 41.273438 16.378906 41.136719 16.203125 40.910156 C 16.027344 40.6875 15.953125 40.433594 15.976562 40.160156 L 16.28125 36.171875 C 14.394531 36.472656 13.175781 37.328125 12.625 38.730469 C 12.019531 40.308594 11.945312 42.128906 12.398438 44.183594 C 13.777344 43.554688 15.261719 43.40625 16.84375 43.730469 L 17.296875 43.882812 L 18.125 43.808594 C 19.082031 43.808594 19.898438 43.996094 20.578125 44.371094 C 21.253906 44.746094 21.59375 45.210938 21.59375 45.761719 L 21.558594 46.101562 C 22.789062 46.703125 24.15625 47.015625 25.664062 47.039062 C 27.398438 47.015625 28.96875 46.589844 30.378906 45.761719 L 30.339844 45.761719 C 30.339844 45.210938 30.679688 44.746094 31.355469 44.371094 C 32.035156 43.996094 32.851562 43.808594 33.808594 43.808594 L 34.148438 43.84375 L 34.449219 43.730469 C 36.03125 43.40625 37.515625 43.554688 38.894531 44.183594 C 39.347656 42.128906 39.273438 40.308594 38.667969 38.730469 C 38.117188 37.328125 36.898438 36.472656 35.011719 36.171875 L 35.316406 40.160156 C 35.339844 40.433594 35.265625 40.6875 35.089844 40.910156 L 34.449219 41.324219 C 33.820312 41.449219 33.378906 41.226562 33.128906 40.648438 C 32.5 39.070312 31.910156 37.289062 31.355469 35.308594 C 30.25 31.375 29.699219 28.015625 29.699219 25.230469 C 29.699219 22.472656 29.8125 19.441406 30.039062 16.132812 "/>
</g>
</svg>
