<?xml version="1.0" encoding="UTF-8"?>
<svg xmlns="http://www.w3.org/2000/svg" xmlns:xlink="http://www.w3.org/1999/xlink" width="128pt" height="168pt" viewBox="0 0 128 168" version="1.1">
<g id="surface1">
<path style=" stroke:none;fill-rule:nonzero;fill:rgb(100%,100%,100%);fill-opacity:1;" d="M 124.558594 50.394531 C 123.308594 53.757812 122.433594 57.628906 121.929688 62 C 121.535156 65.277344 121.316406 69.246094 121.273438 73.902344 C 121.273438 74.011719 121.351562 74.121094 121.503906 74.230469 C 119.949219 74.1875 118.316406 74.414062 116.605469 74.917969 C 115.316406 75.3125 113.78125 75.933594 112.007812 76.785156 C 110.40625 77.550781 108.785156 78.230469 107.144531 78.820312 C 107.734375 74.425781 109.027344 69.714844 111.019531 64.6875 L 113.453125 59.507812 C 114.4375 57.433594 115.085938 55.660156 115.390625 54.195312 C 115.917969 49.804688 116.507812 46.546875 117.164062 44.425781 C 118.328125 40.644531 120.496094 38.535156 123.671875 38.097656 C 126.496094 37.703125 127.613281 39.257812 127.023438 42.753906 C 126.828125 43.933594 126.003906 46.480469 124.558594 50.394531 M 115.195312 50.097656 C 114.886719 52 114.316406 54.03125 113.484375 56.195312 L 111.054688 62.097656 C 108.359375 68.589844 106.695312 74.285156 106.058594 79.179688 L 103.234375 80.03125 L 102.972656 77.703125 C 102.226562 73.070312 100.617188 68.820312 98.140625 64.949219 C 95.753906 61.214844 92.609375 57.933594 88.710938 55.113281 C 83.976562 51.703125 79.617188 49.59375 75.632812 48.785156 C 76.574219 47.476562 77.253906 46.371094 77.667969 45.476562 L 77.996094 45.441406 C 79.683594 45.289062 80.933594 44.207031 81.742188 42.195312 C 82.578125 40.121094 82.300781 38.414062 80.921875 37.082031 L 80.429688 37.015625 L 80.789062 36.492188 L 81.183594 35.507812 C 83.96875 35.703125 86.410156 35.496094 88.511719 34.886719 C 90.351562 34.339844 91.832031 33.507812 92.949219 32.394531 L 108.097656 34.132812 C 113.53125 34.941406 118.492188 35.976562 122.980469 37.246094 C 120.460938 37.550781 118.546875 39.136719 117.230469 42 C 116.464844 43.703125 115.785156 46.40625 115.195312 50.097656 M 95.183594 77.441406 C 95.117188 77.222656 94.886719 77.015625 94.492188 76.820312 C 93.683594 76.425781 92.839844 76.242188 91.964844 76.261719 C 91.019531 76.261719 90.1875 76.492188 89.464844 76.949219 C 89.378906 77.015625 89.355469 77.105469 89.398438 77.214844 C 86.488281 77.367188 83.300781 78.613281 79.839844 80.949219 C 78.414062 80.273438 77.078125 80.097656 75.828125 80.425781 C 74.886719 79.835938 73.804688 79.398438 72.578125 79.113281 L 72.578125 79.082031 L 72.609375 78.785156 C 72.566406 77.039062 70.113281 76 65.25 75.671875 C 67.855469 73.859375 70.726562 72.195312 73.859375 70.6875 C 73.945312 70.644531 73.945312 70.546875 73.859375 70.394531 L 72.378906 68.359375 C 71.546875 67.246094 71.042969 66.675781 70.867188 66.65625 L 76.15625 67.050781 L 76.320312 67.015625 C 80.242188 60.765625 81.832031 55.585938 81.085938 51.476562 C 83.429688 52.503906 85.808594 53.921875 88.21875 55.738281 L 88.710938 56.132812 C 87.109375 56.566406 85.761719 57.5625 84.667969 59.113281 C 83.726562 60.492188 83.113281 62.078125 82.828125 63.867188 C 82.785156 64.066406 82.949219 64.273438 83.320312 64.492188 L 83.945312 64.523438 C 84.207031 62.753906 84.8125 61.203125 85.753906 59.867188 C 86.824219 58.339844 88.164062 57.378906 89.761719 56.984375 C 93.332031 59.933594 96.148438 63.191406 98.207031 66.753906 C 100.441406 70.601562 101.722656 74.699219 102.050781 79.050781 C 102.355469 83.09375 101.722656 86.492188 100.144531 89.246094 C 98.457031 92.175781 95.730469 94.261719 91.964844 95.507812 C 90.1875 96.121094 88.207031 96.601562 86.015625 96.949219 C 86.933594 95.878906 87.539062 94.449219 87.824219 92.65625 C 88.0625 91.082031 88.019531 89.550781 87.691406 88.066406 C 87.339844 86.558594 86.683594 85.179688 85.71875 83.933594 C 84.757812 82.710938 83.582031 81.703125 82.203125 80.917969 C 84.65625 79.453125 86.902344 78.523438 88.941406 78.132812 C 91.699219 77.605469 93.769531 78.164062 95.148438 79.804688 L 95.839844 80.195312 C 96.148438 80.285156 96.179688 80.175781 95.9375 79.867188 C 94.757812 78.492188 93.300781 77.640625 91.570312 77.3125 C 92.664062 77.003906 93.726562 77.09375 94.757812 77.574219 L 95.050781 77.640625 L 95.183594 77.441406 M 116.113281 76.03125 C 118.152344 75.3125 120.046875 74.984375 121.800781 75.050781 L 121.832031 75.050781 C 124.941406 75.683594 126.496094 77.246094 126.496094 79.738281 C 123.78125 81.136719 120.078125 82.589844 115.390625 84.097656 C 109.148438 86.085938 105.359375 87.34375 104.023438 87.867188 L 101.886719 88.6875 C 102.894531 86.480469 103.363281 83.921875 103.300781 81.015625 C 106.101562 80.339844 108.613281 79.464844 110.824219 78.394531 C 113.386719 77.167969 115.152344 76.382812 116.113281 76.03125 M 123.179688 88.6875 C 120.8125 93.496094 119.289062 98.371094 118.613281 103.3125 L 118.316406 103.3125 C 117.066406 104.863281 115.378906 106.230469 113.253906 107.410156 C 111.789062 108.242188 109.785156 109.125 107.242188 110.066406 C 101.742188 112.164062 97.757812 113.8125 95.28125 115.015625 C 89.957031 117.59375 85.5 120.132812 81.90625 122.621094 L 78.226562 125.179688 C 76.738281 126.140625 75.390625 126.785156 74.1875 127.113281 C 74.777344 123.96875 76.257812 120.042969 78.621094 115.34375 C 81.558594 109.464844 83.34375 105.628906 83.976562 103.835938 L 84.898438 101.246094 L 85.652344 98.132812 C 88.941406 97.738281 91.796875 96.996094 94.230469 95.902344 C 97.382812 94.546875 99.738281 92.535156 101.292969 89.867188 L 105.5 88.230469 C 107.230469 87.53125 110.738281 86.359375 116.015625 84.722656 C 120.460938 83.324219 123.921875 82.023438 126.398438 80.820312 C 126.222656 81.914062 125.773438 83.246094 125.050781 84.820312 L 123.179688 88.6875 M 105.632812 116.296875 L 112.136719 113.574219 C 112.75 115.433594 113.617188 117.714844 114.734375 120.425781 L 117.527344 127.179688 L 120.878906 136.066406 L 121.898438 138.785156 C 122.292969 140.054688 122.402344 141.003906 122.226562 141.640625 C 122.160156 141.835938 121.558594 141.222656 120.417969 139.804688 L 118.414062 137.246094 L 113.714844 129.804688 L 105.765625 116.425781 L 105.632812 116.296875 M 102.804688 112.753906 L 109.675781 110.03125 C 111.625 109.222656 113.191406 108.46875 114.371094 107.769531 C 116.015625 106.832031 117.386719 105.78125 118.480469 104.621094 L 118.28125 108 C 117.054688 109.53125 115.371094 110.886719 113.222656 112.066406 C 111.796875 112.851562 109.804688 113.726562 107.242188 114.6875 C 101.742188 116.785156 97.757812 118.4375 95.28125 119.640625 C 89.957031 122.21875 85.5 124.753906 81.90625 127.246094 L 79.574219 128.886719 L 77.144531 130.460938 L 76.945312 130.460938 L 76.945312 130.589844 C 74.753906 131.792969 72.730469 132.25 70.867188 131.96875 C 68.328125 131.574219 65.523438 130.480469 62.457031 128.6875 L 54.765625 123.769531 L 54.601562 123.671875 L 56.542969 120.785156 L 59.464844 122.621094 L 64.722656 125.804688 C 66.871094 126.917969 68.796875 127.605469 70.507812 127.867188 C 72.300781 128.152344 74.054688 127.988281 75.761719 127.378906 C 77.121094 126.894531 78.675781 126.03125 80.429688 124.785156 C 85.535156 121.179688 90.726562 118.140625 96.003906 115.671875 C 97.777344 114.839844 100.046875 113.867188 102.804688 112.753906 M 65.28125 2.296875 L 67.023438 3.867188 C 69.105469 7.585938 70.8125 9.921875 72.148438 10.886719 C 73.089844 11.5625 73.902344 11.703125 74.582031 11.3125 L 75.335938 10.492188 L 70.242188 5.410156 C 71.863281 6 73.695312 6.503906 75.730469 6.917969 L 77.011719 7.179688 C 79.289062 7.640625 81.65625 10.164062 84.109375 14.753906 L 83.253906 21.015625 C 79.992188 18.195312 76.671875 16.242188 73.300781 15.148438 C 70.277344 14.1875 64.582031 12.667969 56.210938 10.589844 C 55.972656 10.523438 56.203125 9.976562 56.902344 8.949219 C 57.558594 7.988281 58.097656 7.324219 58.511719 6.949219 C 59.914062 5.683594 60.691406 4.558594 60.84375 3.574219 L 61.175781 1.476562 C 61.371094 0.777344 61.65625 0.371094 62.027344 0.261719 C 62.707031 0.0859375 63.792969 0.765625 65.28125 2.296875 M 51.511719 16.6875 L 62.355469 18.394531 C 64.65625 18.742188 67.308594 19.332031 70.308594 20.164062 L 78.917969 22.65625 C 83.082031 23.921875 84.789062 24.601562 84.042969 24.6875 C 79.726562 25.148438 72.914062 24.820312 63.605469 23.703125 C 55.632812 22.742188 50.449219 21.890625 48.0625 21.148438 L 44.976562 20.066406 L 37.582031 17.671875 L 43.757812 17.113281 L 51.511719 16.6875 M 53.417969 13.574219 C 54.078125 12.566406 54.710938 11.859375 55.324219 11.441406 C 61.457031 12.839844 66.375 14.078125 70.078125 15.148438 L 71.589844 16.195312 L 69.421875 15.902344 L 71.722656 17.277344 L 69.257812 17.148438 L 71.457031 18.492188 L 69.160156 18.460938 L 71.425781 19.539062 C 67.921875 18.558594 64.953125 17.867188 62.519531 17.476562 L 52.171875 15.867188 C 52.457031 15.148438 52.871094 14.382812 53.417969 13.574219 M 75.796875 17.148438 C 77.375 17.890625 78.941406 18.839844 80.496094 20 L 83.058594 22.097656 L 82.925781 22.917969 L 81.152344 22.65625 L 81.152344 22.589844 L 76.09375 20.917969 L 74.285156 20.066406 L 76.585938 20.097656 L 74.417969 18.753906 L 76.878906 18.886719 L 74.582031 17.507812 L 76.75 17.804688 L 75.796875 17.148438 M 16.648438 40.785156 L 16.683594 40.785156 C 15.347656 43.105469 12.925781 45.027344 9.421875 46.558594 C 12.882812 44.242188 14.570312 41.34375 14.480469 37.867188 L 16.648438 40.785156 M 21.84375 47.476562 L 15.828125 47.867188 L 7.316406 48.261719 C 10.121094 47.367188 12.445312 46.21875 14.285156 44.820312 C 16.628906 43.070312 18.007812 41.050781 18.425781 38.753906 L 21.84375 47.476562 M 25.523438 47.867188 C 28.238281 47.34375 30.539062 46.613281 32.421875 45.671875 L 32.457031 45.769531 L 37.515625 54.722656 C 36.246094 53.976562 34.382812 52.972656 31.929688 51.703125 L 29.726562 50.425781 C 28.828125 49.902344 28.074219 49.539062 27.460938 49.34375 L 26.015625 49.3125 L 24.570312 49.441406 L 7.582031 49.867188 L 4 49.867188 L 0.417969 49.671875 C 0.199219 49.648438 0.175781 49.585938 0.351562 49.476562 L 1.238281 49.050781 L 3.605469 47.804688 L 7.582031 45.703125 C 9.421875 44.546875 10.496094 43.421875 10.800781 42.328125 L 11.292969 43.34375 L 11.425781 43.539062 C 10.441406 44.699219 9.167969 45.714844 7.613281 46.589844 C 6.191406 47.398438 4.644531 48.023438 2.980469 48.460938 C 2.738281 48.523438 2.71875 48.667969 2.914062 48.886719 C 3.089844 49.105469 3.277344 49.214844 3.472656 49.214844 L 14.546875 48.984375 C 18.90625 48.832031 22.566406 48.460938 25.523438 47.867188 M 27.625 50.230469 L 28.675781 55.933594 C 28.699219 56.109375 28.828125 56.285156 29.070312 56.460938 L 29.695312 56.6875 C 32.039062 56.40625 34.195312 56.40625 36.167969 56.6875 C 38.621094 57.058594 40.582031 57.867188 42.050781 59.113281 L 42.148438 59.179688 C 43.15625 60.753906 44.078125 62.753906 44.910156 65.179688 L 46.847656 71.507812 L 48.359375 76.753906 C 47.746094 76.949219 47.265625 77.191406 46.914062 77.476562 L 46.878906 77.246094 L 46.617188 77.015625 L 46.355469 76.886719 L 32.125 77.277344 L 32.191406 76.558594 C 32.082031 75.550781 30.933594 74.839844 28.742188 74.425781 L 28.214844 74.328125 L 33.179688 74.328125 C 33.375 74.328125 33.429688 74.21875 33.34375 74 L 29.597656 66.230469 L 29.398438 66.066406 L 29.269531 66 L 17.964844 66.230469 L 17.765625 66.394531 L 17.832031 66.621094 L 20.988281 70.65625 C 21.996094 72.1875 22.804688 73.246094 23.417969 73.835938 L 19.871094 73.804688 L 18.882812 72.589844 C 14.570312 66.753906 9.992188 61.058594 5.148438 55.507812 L 0.679688 50.492188 L 8.171875 50.949219 L 15.699219 50.621094 L 27.625 50.230469 M 9.058594 42.589844 L 4.359375 36.460938 L 5.378906 36.65625 C 6.429688 36.765625 7.4375 37.257812 8.402344 38.132812 C 9.476562 39.09375 9.925781 40.078125 9.75 41.082031 L 9.058594 42.589844 M 12.410156 74.621094 C 13.113281 72.675781 14.492188 71.300781 16.550781 70.492188 L 16.878906 70.917969 C 13.289062 73.300781 12.355469 76.984375 14.085938 81.96875 C 14.808594 84.023438 15.90625 85.835938 17.375 87.410156 C 18.863281 89.027344 20.429688 90.03125 22.070312 90.425781 L 22.070312 90.6875 C 21.347656 93.378906 21.710938 96.382812 23.15625 99.703125 C 24.273438 102.285156 25.980469 104.941406 28.28125 107.671875 C 22.980469 105.550781 18.589844 103.378906 15.105469 101.148438 C 14.84375 100.972656 14.722656 100.972656 14.746094 101.148438 C 14.789062 101.324219 14.910156 101.476562 15.105469 101.605469 C 18.632812 103.859375 23.222656 106.097656 28.875 108.328125 L 30.78125 110.296875 L 30.78125 110.394531 L 30.878906 113.277344 C 24.546875 110.894531 19.421875 108.46875 15.5 106 L 15.46875 105.96875 C 14.875 104.480469 14.636719 102.371094 14.746094 99.640625 C 14.875 96.46875 14.820312 94.296875 14.582031 93.113281 L 13.527344 88.492188 L 12.511719 83.835938 C 12.136719 81.804688 11.917969 80.261719 11.851562 79.214844 C 11.765625 77.421875 11.953125 75.890625 12.410156 74.621094 M 6.332031 54.164062 L 6.398438 54.425781 L 13.757812 62.621094 C 14.21875 63.125 14.910156 63.386719 15.828125 63.410156 L 18.226562 63.277344 L 39.816406 63.179688 L 40.011719 63.082031 L 39.980469 62.851562 L 38.007812 59.246094 C 37.921875 59.09375 37.789062 59.027344 37.613281 59.050781 C 37.4375 59.070312 37.394531 59.167969 37.484375 59.34375 L 39.289062 62.621094 L 15.105469 62.753906 L 14.515625 62.785156 L 14.382812 62.589844 L 7.1875 54.558594 L 26.640625 54.097656 C 26.816406 54.097656 26.878906 54.023438 26.835938 53.867188 C 26.769531 53.628906 26.648438 53.53125 26.476562 53.574219 L 6.53125 54.03125 C 6.421875 54.03125 6.355469 54.078125 6.332031 54.164062 M 39.488281 56.621094 L 41.230469 58.03125 C 38.226562 56.085938 34.351562 55.332031 29.597656 55.769531 L 28.609375 50.328125 C 29.160156 50.546875 30.089844 51.058594 31.402344 51.867188 L 34 53.476562 L 36.726562 54.984375 C 37.976562 55.683594 38.894531 56.230469 39.488281 56.621094 M 39.945312 56.328125 C 41.085938 55.257812 42.300781 54.296875 43.59375 53.441406 C 45.128906 52.414062 46.496094 51.757812 47.703125 51.476562 L 48.0625 51.933594 C 48.085938 53.878906 48.25 55.824219 48.554688 57.769531 L 48.65625 58.753906 C 48.71875 59.167969 48.851562 59.464844 49.050781 59.640625 L 51.183594 61.082031 L 53.550781 62.296875 L 49.835938 63.605469 C 49.75 63.628906 49.726562 63.695312 49.773438 63.804688 C 51.152344 68.042969 52.183594 72.054688 52.859375 75.835938 L 49.902344 76.359375 L 49.214844 76.523438 L 47.898438 72 L 45.992188 65.804688 C 45.183594 63.441406 44.304688 61.476562 43.363281 59.902344 C 42.621094 58.675781 41.492188 57.507812 39.980469 56.394531 L 39.945312 56.328125 M 32.882812 65.214844 L 32.71875 65.113281 L 40.40625 64.785156 L 43.660156 72.753906 C 43.703125 72.929688 43.847656 73.015625 44.085938 73.015625 L 44.1875 72.820312 L 40.800781 64.558594 C 40.691406 64.339844 40.550781 64.25 40.375 64.296875 L 32.324219 64.621094 C 32.214844 64.621094 32.179688 64.699219 32.226562 64.851562 L 36.070312 74.132812 L 36.464844 74.425781 L 43.101562 74.65625 L 43.234375 74.523438 L 43.070312 74.261719 L 42.871094 74.164062 L 36.496094 73.933594 L 36.167969 73.214844 L 34 67.96875 L 33.078125 65.671875 L 32.882812 65.214844 M 26.835938 74.917969 C 28.523438 75.050781 29.816406 75.378906 30.714844 75.902344 C 31.457031 76.339844 31.261719 76.796875 30.121094 77.277344 C 29.269531 77.605469 28.535156 77.804688 27.921875 77.867188 L 24.40625 78.03125 C 22.894531 78.121094 22.226562 78.449219 22.402344 79.015625 C 22.597656 79.5625 23.351562 79.96875 24.667969 80.230469 L 28.152344 80.917969 C 29.269531 81.179688 30.253906 81.660156 31.109375 82.359375 C 32.179688 83.257812 32.050781 83.96875 30.714844 84.492188 C 29.53125 84.949219 28.160156 85.148438 26.605469 85.082031 C 25.117188 85.015625 23.746094 84.730469 22.5 84.230469 C 22.125 84.078125 21.984375 84.164062 22.070312 84.492188 C 22.179688 84.796875 22.367188 85.003906 22.628906 85.113281 L 25.160156 85.574219 L 29.070312 85.671875 C 28.589844 86.503906 27.867188 87.082031 26.902344 87.410156 L 24.042969 87.574219 C 23.714844 87.507812 23.648438 87.640625 23.847656 87.96875 C 24.042969 88.296875 24.261719 88.480469 24.503906 88.523438 L 25.652344 88.65625 C 24.078125 89.8125 22.355469 89.902344 20.496094 88.917969 C 18.808594 88.023438 17.382812 86.492188 16.222656 84.328125 C 15.0625 82.121094 14.523438 79.933594 14.613281 77.769531 C 14.699219 75.34375 15.621094 73.464844 17.375 72.132812 L 18.390625 73.605469 C 18.808594 74.132812 19.203125 74.492188 19.574219 74.6875 L 21.152344 74.886719 L 22.761719 74.785156 L 26.835938 74.917969 M 26.277344 78.984375 L 28.019531 78.886719 L 30.023438 78.621094 C 30.898438 78.449219 31.511719 78.152344 31.863281 77.738281 L 46.421875 77.3125 L 46.550781 77.902344 L 46.355469 78.359375 L 46.355469 78.558594 C 46.421875 83.496094 47.394531 87.757812 49.277344 91.34375 L 48.785156 91.441406 L 48.0625 91.3125 L 26.804688 89.507812 L 26.671875 89.507812 L 27.625 88.65625 L 27.691406 88.359375 C 29.027344 87.921875 29.945312 87.058594 30.449219 85.769531 L 30.417969 85.539062 C 33.132812 85.148438 33.867188 84.109375 32.621094 82.425781 C 32.070312 81.660156 31.238281 81.058594 30.121094 80.621094 C 29.398438 80.339844 28.390625 80.078125 27.097656 79.835938 L 26.277344 79.671875 L 26.277344 78.984375 M 24.734375 79.378906 L 23.746094 79.214844 C 23.507812 79.167969 23.636719 79.125 24.140625 79.082031 L 25.71875 78.984375 L 25.753906 79.574219 L 24.734375 79.378906 M 32.71875 73.804688 L 24.078125 73.804688 L 18.523438 66.753906 L 29.203125 66.558594 L 32.519531 73.441406 L 32.71875 73.804688 M 84.765625 33.277344 C 85.140625 33.519531 86.15625 33.378906 87.824219 32.851562 C 89.640625 32.285156 90.921875 31.574219 91.667969 30.722656 C 92.390625 29.867188 92.511719 29.039062 92.027344 28.230469 C 91.589844 27.441406 91.085938 27.167969 90.515625 27.410156 C 90.230469 27.519531 90.144531 28.054688 90.253906 29.015625 C 90.363281 30.066406 90.210938 30.777344 89.792969 31.148438 C 89.378906 31.496094 88.304688 31.933594 86.574219 32.460938 C 85.171875 32.894531 84.570312 33.167969 84.765625 33.277344 M 82.402344 29.539062 C 82.53125 28.40625 82.554688 27.191406 82.464844 25.902344 L 88.941406 26.195312 C 91.261719 26.503906 92.761719 27.058594 93.441406 27.867188 C 93.75 28.261719 93.867188 28.644531 93.804688 29.015625 C 93.519531 30.875 92.246094 32.304688 89.992188 33.3125 C 87.734375 34.316406 84.898438 34.730469 81.480469 34.558594 C 81.941406 32.875 82.246094 31.203125 82.402344 29.539062 M 75.007812 25.769531 L 80.890625 25.867188 C 81 28.1875 80.769531 30.425781 80.199219 32.589844 C 79.652344 30.796875 78.65625 29.324219 77.210938 28.164062 L 75.632812 27.015625 L 74.449219 26.296875 L 75.007812 25.769531 M 73.429688 25.738281 L 73.265625 25.835938 L 73.035156 26.164062 C 72.925781 26.40625 73.015625 26.589844 73.300781 26.722656 C 74.613281 27.3125 75.71875 27.945312 76.617188 28.621094 C 78.480469 30.085938 79.5 31.847656 79.671875 33.902344 C 78.886719 32.394531 77.878906 31.050781 76.652344 29.867188 C 75.203125 28.601562 74.261719 27.914062 73.824219 27.804688 L 73.5625 27.804688 C 73.34375 27.824219 73.210938 27.921875 73.167969 28.097656 C 73.125 28.273438 73.210938 28.40625 73.429688 28.492188 L 76.15625 30.460938 C 76.902344 31.050781 77.648438 31.847656 78.390625 32.851562 L 79.707031 34.851562 L 79.609375 35.640625 L 78.425781 33.804688 C 77.746094 32.929688 77.089844 32.242188 76.453125 31.738281 C 75.511719 30.996094 74.734375 30.535156 74.121094 30.359375 L 73.988281 30.359375 C 73.792969 30.382812 73.695312 30.511719 73.695312 30.753906 C 73.714844 30.996094 73.890625 31.191406 74.21875 31.34375 L 75.960938 32.394531 C 77.011719 33.289062 78.195312 34.589844 79.507812 36.296875 L 79.507812 36.328125 C 79.445312 36.546875 79.453125 36.753906 79.542969 36.949219 L 78.390625 36.820312 C 78.390625 36.949219 78.46875 37.09375 78.621094 37.246094 C 80.265625 38.273438 80.800781 39.703125 80.230469 41.539062 C 79.664062 43.355469 78.445312 44.351562 76.585938 44.523438 L 76.09375 44.523438 C 75.433594 46.011719 74.699219 47.34375 73.890625 48.523438 C 73.671875 48.566406 73.59375 48.675781 73.660156 48.851562 C 72.457031 50.601562 71.121094 52.066406 69.652344 53.246094 C 69.390625 53.441406 69.269531 53.605469 69.289062 53.738281 C 69.3125 53.847656 69.464844 53.890625 69.75 53.867188 C 70.605469 53.78125 71.625 53.257812 72.804688 52.296875 C 72.761719 53.933594 71.765625 55.507812 69.816406 57.015625 C 68.019531 58.414062 66.210938 59.191406 64.394531 59.34375 C 63.582031 59.453125 62.914062 59.355469 62.390625 59.050781 L 62.554688 59.050781 C 63.015625 59.003906 63.714844 58.785156 64.65625 58.394531 C 65.621094 57.976562 66.058594 57.695312 65.972656 57.539062 L 65.808594 57.507812 L 65.085938 57.671875 L 63.703125 57.902344 C 61.90625 58.078125 59.835938 57.78125 57.492188 57.015625 C 53.308594 55.640625 50.046875 52.839844 47.703125 48.621094 C 45.445312 44.578125 44.558594 40.261719 45.039062 35.671875 C 45.347656 32.785156 46.210938 29.878906 47.636719 26.949219 C 48.445312 26.730469 49.257812 26.21875 50.066406 25.410156 L 51.679688 22.949219 C 55.644531 23.804688 59.507812 24.46875 63.277344 24.949219 C 62.707031 25.738281 62.511719 26.230469 62.6875 26.425781 L 63.308594 26.65625 L 64.589844 27.050781 L 66.039062 27.703125 L 67.054688 28.066406 L 67.089844 28.066406 C 67.21875 27.367188 66.484375 26.394531 64.886719 25.148438 L 73.101562 25.738281 L 73.429688 25.738281 M 73.957031 33.246094 C 73.914062 33.441406 74.03125 33.617188 74.316406 33.769531 L 74.417969 33.804688 L 74.449219 33.835938 C 74.886719 34.011719 75.292969 34.230469 75.664062 34.492188 L 76.652344 35.378906 L 77.375 35.933594 L 77.472656 35.769531 L 77.078125 34.917969 L 76.15625 33.902344 C 75.652344 33.421875 75.085938 33.09375 74.449219 32.917969 L 74.316406 32.917969 C 74.140625 32.941406 74.023438 33.050781 73.957031 33.246094 M 74.613281 35.410156 C 74.4375 35.433594 74.328125 35.539062 74.285156 35.738281 C 74.242188 35.933594 74.308594 36.078125 74.480469 36.164062 L 74.976562 36.492188 C 75.28125 36.730469 75.457031 36.949219 75.5 37.148438 C 75.542969 37.410156 75.6875 37.519531 75.929688 37.476562 C 76.210938 37.433594 76.320312 37.246094 76.257812 36.917969 C 76.191406 36.589844 75.992188 36.285156 75.664062 36 C 75.378906 35.757812 75.09375 35.574219 74.8125 35.441406 L 74.613281 35.410156 M 67.023438 42.359375 L 63.507812 40.359375 L 63.277344 40.296875 C 63.125 40.339844 63.113281 40.460938 63.246094 40.65625 L 63.738281 41.640625 C 63.824219 41.792969 63.804688 41.976562 63.671875 42.195312 L 63.210938 42.589844 L 60.78125 43.703125 C 58.960938 44.46875 57.601562 44.941406 56.707031 45.113281 L 55.816406 45.246094 L 50.625 45.082031 C 50.449219 45.082031 50.285156 45.015625 50.132812 44.886719 C 50.003906 44.730469 49.9375 44.566406 49.9375 44.394531 L 49.902344 43.933594 L 49.738281 43.640625 L 49.507812 43.835938 L 48.457031 45.410156 C 48.347656 45.5625 48.304688 45.738281 48.328125 45.933594 C 48.328125 46.152344 48.382812 46.328125 48.492188 46.460938 L 50.101562 48.492188 L 50.332031 48.6875 L 50.429688 48.359375 L 50.363281 48.03125 C 50.363281 47.726562 50.507812 47.550781 50.789062 47.507812 L 50.953125 47.507812 L 53.125 48.523438 C 54.855469 49.179688 56.386719 49.441406 57.722656 49.3125 L 57.757812 49.3125 C 59.09375 49.179688 60.800781 48.394531 62.882812 46.949219 L 65.578125 44.785156 L 65.871094 44.6875 C 66.15625 44.6875 66.398438 44.785156 66.597656 44.984375 L 66.726562 46.460938 L 67.023438 46.65625 C 67.132812 46.632812 67.199219 46.523438 67.21875 46.328125 L 67.546875 43.3125 C 67.59375 42.875 67.417969 42.558594 67.023438 42.359375 M 75.796875 49.738281 C 76.101562 52.929688 75.28125 55.792969 73.332031 58.328125 C 72.347656 59.59375 70.15625 61.605469 66.761719 64.359375 C 65.554688 62.785156 64.4375 61.628906 63.410156 60.886719 L 64.230469 60.851562 C 66.988281 60.589844 69.421875 59.464844 71.523438 57.476562 C 73.78125 55.332031 74.746094 52.960938 74.417969 50.359375 L 75.007812 49.605469 L 75.796875 49.738281 M 76.847656 49.96875 C 77.832031 50.207031 78.894531 50.558594 80.035156 51.015625 C 80.386719 53.09375 80.121094 55.433594 79.246094 58.03125 C 78.632812 59.914062 77.625 62.085938 76.222656 64.558594 L 75.46875 65.867188 C 75.269531 66.066406 74.84375 66.132812 74.1875 66.066406 L 70.011719 65.769531 C 69.925781 65.75 69.871094 65.78125 69.847656 65.867188 L 69.914062 66.066406 L 72.742188 69.902344 L 72.707031 69.933594 C 70.890625 70.832031 69.070312 71.859375 67.253906 73.015625 C 66.003906 73.804688 64.753906 74.65625 63.507812 75.574219 L 60.515625 75.539062 L 59.167969 75.507812 C 60.460938 72.90625 61.90625 70.777344 63.507812 69.113281 C 64.472656 68.109375 66.015625 66.742188 68.140625 65.015625 L 72.742188 60.949219 C 75.984375 57.648438 77.351562 54.011719 76.847656 50.03125 L 76.847656 49.96875 M 56.179688 32.820312 L 55.457031 34.621094 C 55.105469 35.367188 54.363281 36.589844 53.222656 38.296875 C 52.960938 38.621094 52.96875 38.972656 53.253906 39.34375 L 54.929688 41.34375 C 55.128906 41.5625 55.421875 41.671875 55.816406 41.671875 L 56.507812 41.410156 L 56.835938 41.113281 L 56.707031 40.722656 L 55.359375 39.214844 C 55.050781 38.886719 54.984375 38.511719 55.160156 38.097656 L 56.277344 35.378906 L 57.035156 33.050781 L 57.296875 31.933594 L 57.265625 31.476562 L 57.066406 31.277344 L 57.035156 31.277344 C 56.835938 31.324219 56.660156 31.519531 56.507812 31.867188 L 56.179688 32.820312 M 64.066406 34.949219 L 64.097656 34.949219 C 64.40625 34.929688 64.667969 34.6875 64.886719 34.230469 C 65.085938 33.769531 65.160156 33.234375 65.117188 32.621094 C 65.074219 32.011719 64.65625 31.738281 63.867188 31.804688 C 63.058594 31.847656 62.675781 32.175781 62.71875 32.785156 C 62.742188 33.398438 62.894531 33.921875 63.179688 34.359375 C 63.441406 34.777344 63.738281 34.972656 64.066406 34.949219 M 50.660156 26.523438 L 48.292969 28.328125 L 48.0625 28.621094 L 48.390625 28.722656 L 48.457031 28.722656 L 51.085938 28.359375 C 51.304688 28.339844 51.46875 28.242188 51.578125 28.066406 L 51.679688 27.476562 L 51.511719 26.820312 C 51.402344 26.492188 51.230469 26.351562 50.988281 26.394531 L 50.660156 26.523438 M 49.277344 24.820312 C 48.46875 25.671875 47.625 26.140625 46.75 26.230469 C 46.113281 26.273438 45.597656 26.121094 45.203125 25.769531 C 44.417969 25.160156 43.8125 24.316406 43.398438 23.246094 C 42.980469 22.21875 42.828125 21.234375 42.9375 20.296875 L 44.679688 20.917969 L 47.800781 22 L 50.660156 22.753906 L 49.277344 24.820312 M 42.410156 26.164062 C 39.9375 25.113281 37.832031 23.867188 36.101562 22.425781 C 34.132812 20.742188 33.289062 19.289062 33.574219 18.066406 C 33.792969 17.410156 36.574219 18.03125 41.917969 19.933594 C 41.613281 21.488281 41.984375 22.996094 43.035156 24.460938 C 42.75 24.894531 42.542969 25.464844 42.410156 26.164062 M 46.355469 27.015625 C 45.785156 28.261719 45.28125 29.53125 44.84375 30.820312 C 44.1875 29.859375 43.792969 29.148438 43.660156 28.6875 C 43.484375 28.011719 43.453125 27.410156 43.5625 26.886719 C 43.671875 26.382812 43.878906 26.109375 44.1875 26.066406 C 44.382812 26.066406 44.570312 26.140625 44.746094 26.296875 C 45.292969 26.710938 45.828125 26.949219 46.355469 27.015625 M 48.886719 34.164062 C 48.929688 34.777344 49.082031 35.289062 49.34375 35.703125 C 49.609375 36.140625 49.914062 36.339844 50.265625 36.296875 C 50.59375 36.273438 50.855469 36.042969 51.054688 35.605469 C 51.25 35.148438 51.339844 34.613281 51.316406 34 C 51.273438 33.386719 50.84375 33.113281 50.035156 33.179688 C 49.222656 33.222656 48.839844 33.550781 48.886719 34.164062 M 50.625 45.703125 C 52.664062 45.945312 54.515625 45.988281 56.179688 45.835938 L 57.066406 45.703125 C 58.140625 45.53125 59.542969 45.058594 61.273438 44.296875 L 63.574219 43.214844 L 64.328125 43.015625 C 64.636719 42.972656 64.921875 43.039062 65.183594 43.214844 C 65.488281 43.410156 65.578125 43.648438 65.445312 43.933594 L 64.953125 44.460938 L 63.078125 45.671875 L 60.222656 47.277344 C 59.476562 47.628906 58.402344 47.878906 57 48.03125 C 56.101562 48.097656 55.402344 48.085938 54.898438 48 L 50.726562 46.984375 C 50.417969 46.960938 50.1875 46.742188 50.035156 46.328125 C 49.882812 45.957031 50.046875 45.75 50.527344 45.703125 L 50.625 45.703125 M 56.769531 51.574219 L 57.660156 51.640625 L 58.742188 51.378906 C 59.203125 51.179688 59.378906 50.894531 59.269531 50.523438 C 59.160156 50.175781 58.90625 50.023438 58.511719 50.066406 L 55.652344 50.6875 L 55.324219 50.851562 L 55.621094 51.082031 L 56.769531 51.574219 M 57.492188 57.902344 C 58.042969 58.796875 58.820312 59.519531 59.828125 60.066406 C 58.886719 60.328125 57.714844 60.996094 56.3125 62.066406 L 54.929688 57.082031 L 57.492188 57.902344 M 54.996094 62.558594 L 54.601562 62.230469 L 49.871094 59.539062 L 49.738281 59.050781 L 49.445312 56.820312 L 49.179688 53.179688 C 50.625 54.621094 52.203125 55.769531 53.914062 56.621094 L 55.652344 62.65625 C 55.523438 62.875 55.589844 63.113281 55.851562 63.378906 C 56.902344 67.136719 57.285156 70.371094 57 73.082031 L 56.671875 75.539062 L 53.746094 75.738281 C 53.355469 73.574219 52.816406 71.269531 52.136719 68.820312 L 50.824219 64.328125 L 52.761719 63.804688 L 55.0625 62.949219 C 55.195312 62.886719 55.171875 62.753906 54.996094 62.558594 M 59.53125 63.933594 L 57.886719 68.621094 C 57.667969 67.09375 57.273438 65.355469 56.707031 63.410156 C 57.558594 62.6875 58.390625 62.109375 59.203125 61.671875 L 59.53125 63.933594 M 62.71875 61.640625 C 63.859375 62.535156 64.929688 63.660156 65.9375 65.015625 C 63.726562 66.851562 62.117188 68.503906 61.109375 69.96875 L 60.484375 70.949219 L 60.976562 64.589844 L 62.71875 61.640625 M 53.253906 76.722656 L 59.628906 76.589844 L 67.089844 77.113281 C 67.855469 77.269531 68.6875 77.496094 69.585938 77.804688 C 71.011719 78.261719 71.503906 78.621094 71.066406 78.886719 C 70.058594 79.496094 68.785156 79.945312 67.253906 80.230469 L 67.089844 80.164062 C 61.941406 79.355469 56.726562 79.332031 51.449219 80.097656 C 49.125 79.835938 47.832031 79.398438 47.570312 78.785156 C 47.941406 77.714844 49.835938 77.027344 53.253906 76.722656 M 65.542969 81.605469 C 68.917969 81.367188 71.085938 80.820312 72.050781 79.96875 L 72.183594 80 C 73.648438 80.21875 74.867188 80.699219 75.828125 81.441406 C 76.96875 82.316406 77.570312 83.433594 77.636719 84.785156 L 76.421875 85.050781 C 76.222656 84.042969 75.644531 83.214844 74.679688 82.558594 C 73.867188 81.96875 72.859375 81.550781 71.65625 81.3125 C 71.414062 81.3125 71.285156 81.386719 71.261719 81.539062 L 71.230469 81.738281 L 69.847656 82.132812 C 68.863281 82.632812 68.183594 83.3125 67.8125 84.164062 C 67.394531 85.058594 67.40625 85.988281 67.84375 86.949219 C 66.769531 87.167969 66.058594 87.714844 65.707031 88.589844 C 65.335938 89.488281 65.5 90.351562 66.203125 91.179688 L 66.726562 91.738281 L 66.695312 91.769531 C 66.039062 92.578125 65.894531 93.53125 66.265625 94.621094 L 66.167969 94.621094 C 63.472656 96.132812 60.691406 96.765625 57.824219 96.523438 C 54.582031 96.261719 52.246094 94.851562 50.824219 92.296875 C 48.894531 88.863281 47.8125 84.832031 47.570312 80.195312 C 48.820312 81.003906 50.945312 81.507812 53.945312 81.703125 L 59.628906 81.769531 L 65.542969 81.605469 M 72.742188 82.589844 C 73.859375 83.289062 74.066406 83.75 73.363281 83.96875 L 72.804688 84.195312 L 72.378906 84.523438 C 72.183594 85.53125 73.113281 86.109375 75.171875 86.261719 C 77.230469 86.414062 78.425781 86.121094 78.753906 85.378906 L 78.785156 85.148438 C 78.722656 83.617188 78.109375 82.328125 76.945312 81.277344 C 78.832031 80.90625 80.605469 81.714844 82.269531 83.703125 C 83.867188 85.605469 84.558594 87.476562 84.339844 89.3125 C 84.03125 91.738281 83.179688 93.648438 81.777344 95.050781 C 79.519531 97.300781 76.441406 98.207031 72.542969 97.769531 C 70.964844 97.59375 69.574219 97.105469 68.371094 96.296875 C 66.835938 95.203125 66.605469 93.976562 67.679688 92.621094 C 68.511719 93.300781 69.773438 94.066406 71.457031 94.917969 C 71.808594 95.09375 71.917969 95.027344 71.789062 94.722656 L 71.230469 94.132812 C 69.125 93.148438 67.722656 92.164062 67.023438 91.179688 C 66.519531 90.523438 66.441406 89.867188 66.792969 89.214844 C 67.101562 88.601562 67.625 88.175781 68.371094 87.933594 C 69.507812 89.59375 71.25 90.886719 73.59375 91.804688 C 73.96875 91.933594 74.097656 91.835938 73.988281 91.507812 C 73.878906 91.179688 73.695312 90.960938 73.429688 90.851562 C 72.027344 90.328125 70.824219 89.550781 69.816406 88.523438 C 68.5 87.191406 68.207031 85.914062 68.929688 84.6875 C 69.257812 84.078125 69.792969 83.550781 70.539062 83.113281 C 71.347656 82.632812 72.082031 82.460938 72.742188 82.589844 M 81.019531 81.671875 L 81.742188 81.179688 C 84.4375 82.492188 86.125 85.070312 86.804688 88.917969 C 87.527344 92.894531 86.496094 95.671875 83.714844 97.246094 L 80.988281 97.410156 L 82.300781 96.359375 C 83.59375 95.050781 84.515625 93.5625 85.0625 91.902344 C 85.699219 90.023438 85.699219 88.296875 85.0625 86.722656 C 84.691406 85.78125 84.152344 84.875 83.453125 84 C 82.730469 83.058594 81.917969 82.285156 81.019531 81.671875 M 84.242188 99.835938 C 83.453125 102.785156 82.128906 106.21875 80.265625 110.132812 L 76.191406 118.359375 C 74.699219 121.574219 73.726562 124.46875 73.265625 127.050781 L 73.332031 127.3125 C 72.476562 127.464844 71.65625 127.476562 70.867188 127.34375 C 68.894531 127.058594 66.792969 126.351562 64.558594 125.214844 L 64.589844 125.179688 L 65.542969 120.984375 L 66.332031 116.753906 L 67.878906 110.195312 L 69.554688 103.671875 L 70.636719 98.359375 C 71.953125 98.777344 73.308594 98.984375 74.710938 98.984375 C 76.222656 99.003906 77.613281 98.796875 78.886719 98.359375 L 78.949219 98.394531 C 80.878906 98.460938 82.75 98.414062 84.570312 98.261719 L 84.242188 99.835938 M 75.105469 84.261719 L 75.371094 85.148438 L 73.527344 85.214844 L 74.351562 84.851562 C 74.722656 84.65625 74.976562 84.460938 75.105469 84.261719 M 69.847656 98.097656 L 67.320312 108.359375 C 65.960938 103.8125 63.8125 100.195312 60.878906 97.507812 C 62.914062 97.3125 64.898438 96.710938 66.824219 95.703125 C 67.527344 96.753906 68.425781 97.519531 69.519531 98 L 69.847656 98.097656 M 54.472656 97.214844 L 54.371094 96.753906 C 55.753906 97.257812 57.144531 97.53125 58.546875 97.574219 L 60.222656 97.539062 C 61.796875 98.917969 63.167969 100.710938 64.328125 102.917969 C 65.359375 104.863281 66.148438 106.972656 66.695312 109.246094 L 67.023438 109.605469 L 65.808594 114.6875 L 65.609375 114.6875 C 63.59375 115.277344 61.515625 115.640625 59.367188 115.769531 C 60.113281 113.957031 60.277344 112.394531 59.859375 111.082031 C 59.640625 110.359375 59.257812 109.902344 58.710938 109.703125 L 58.675781 109.640625 C 56.816406 106.972656 54.667969 104.242188 52.238281 101.441406 L 49.246094 98.03125 C 47.976562 96.699219 46.78125 95.703125 45.664062 95.050781 C 48.949219 95.835938 51.796875 96.621094 54.207031 97.410156 C 54.40625 97.453125 54.492188 97.386719 54.472656 97.214844 M 44.023438 95.113281 C 45.226562 95.488281 46.507812 96.328125 47.867188 97.640625 L 50.988281 101.082031 C 52.851562 103.222656 54.765625 105.605469 56.738281 108.230469 L 57.394531 109.148438 L 57.035156 109.148438 L 54.800781 109.34375 C 52.851562 109.738281 51.109375 110.425781 49.574219 111.410156 C 48.128906 112.351562 46.769531 113.640625 45.5 115.277344 L 44.351562 116.6875 C 43.867188 117.34375 43.746094 117.726562 43.988281 117.835938 L 40.964844 116.394531 C 38.996094 115.386719 37.429688 114.523438 36.265625 113.804688 C 34.582031 112.777344 33.144531 111.703125 31.960938 110.589844 C 31.898438 110.304688 31.699219 110.121094 31.371094 110.03125 L 30.976562 109.640625 C 28.414062 106.90625 26.441406 104.261719 25.0625 101.703125 C 23.199219 98.296875 22.488281 95.203125 22.925781 92.425781 L 22.960938 92.425781 C 29.726562 92.46875 36.574219 93.191406 43.496094 94.589844 C 43.605469 94.851562 43.78125 95.027344 44.023438 95.113281 M 47.734375 94.886719 C 42.894531 93.703125 38.929688 92.941406 35.839844 92.589844 L 23.15625 91.539062 L 23.15625 90.589844 C 24.230469 90.65625 25.257812 90.394531 26.246094 89.804688 L 26.410156 89.867188 L 49.542969 91.804688 C 50.222656 93.113281 51.019531 94.285156 51.941406 95.3125 C 52.269531 95.726562 52.730469 96.066406 53.320312 96.328125 L 53.355469 96.460938 L 52.039062 96.066406 L 47.734375 94.886719 M 57.921875 115.476562 L 57.066406 117.246094 L 53.683594 114.03125 L 53.453125 113.867188 C 54.460938 112.820312 55.46875 111.976562 56.476562 111.34375 C 57.941406 110.40625 58.710938 110.589844 58.777344 111.902344 C 58.839844 112.949219 58.554688 114.140625 57.921875 115.476562 M 65.445312 116.328125 L 64.691406 120.558594 L 63.738281 124.753906 L 63.738281 124.785156 L 56.769531 120.425781 C 57.757812 118.984375 58.492188 117.738281 58.972656 116.6875 C 61.316406 116.621094 63.519531 116.339844 65.578125 115.835938 L 65.445312 116.328125 M 44.679688 118.6875 C 47.921875 113.550781 51.734375 110.722656 56.113281 110.195312 C 53.398438 111.640625 50.375 114.710938 47.042969 119.410156 C 43.691406 124.175781 42.082031 127.703125 42.214844 130 C 41.535156 128.972656 41.613281 127.039062 42.445312 124.195312 C 43.078125 122.03125 43.824219 120.195312 44.679688 118.6875 M 44.085938 127.378906 C 45.445312 124.425781 47.285156 121.453125 49.609375 118.460938 C 51.230469 116.382812 52.410156 114.960938 53.15625 114.195312 L 56.871094 117.703125 C 53.234375 124.742188 49.488281 128.960938 45.632812 130.359375 C 44.691406 130.730469 43.902344 130.839844 43.265625 130.6875 C 43.242188 130.40625 43.355469 129.8125 43.59375 128.917969 C 43.8125 128.109375 43.976562 127.59375 44.085938 127.378906 M 44.480469 131.804688 C 47.265625 131.386719 49.980469 129.5625 52.628906 126.328125 L 51.808594 142.65625 L 51.777344 142.65625 C 51.273438 142.984375 50.769531 143.234375 50.265625 143.410156 C 48.273438 144 46.101562 144.175781 43.757812 143.933594 L 39.78125 143.246094 L 39.289062 143.113281 L 38.601562 141.640625 C 36.652344 137.160156 35.214844 133.09375 34.296875 129.441406 C 32.9375 124.195312 32.171875 118.1875 31.996094 111.410156 C 34.972656 113.945312 38.765625 116.261719 43.363281 118.359375 C 41.898438 121.3125 41 124.097656 40.671875 126.722656 C 40.1875 130.546875 41.457031 132.242188 44.480469 131.804688 M 43.101562 144.917969 L 47.503906 145.148438 C 49.257812 145.082031 50.703125 144.742188 51.84375 144.132812 C 51.734375 145.269531 51.316406 146.109375 50.59375 146.65625 L 48.195312 148.066406 C 46.878906 148.722656 46.058594 148.863281 45.730469 148.492188 L 45.335938 148.132812 C 45.140625 147.976562 44.984375 147.933594 44.875 148 L 38.730469 151.277344 C 36.148438 152.371094 33.914062 152.765625 32.027344 152.460938 C 30.714844 152.261719 30.332031 151.507812 30.878906 150.195312 C 31.292969 149.191406 31.960938 148.304688 32.882812 147.539062 C 34.699219 146.011719 36.738281 144.886719 38.996094 144.164062 C 39.476562 144.449219 40.175781 144.644531 41.097656 144.753906 L 43.101562 144.917969 M 70.507812 132.492188 C 72.695312 132.839844 74.867188 132.503906 77.011719 131.476562 C 77.1875 134.054688 77.253906 137.015625 77.210938 140.359375 L 76.914062 149.214844 C 76.714844 154 76.453125 157.8125 76.125 160.65625 L 75.730469 164.132812 C 75.511719 165.59375 75.140625 166.6875 74.613281 167.410156 C 74.351562 167.804688 74.164062 167.878906 74.054688 167.640625 L 73.726562 166.394531 L 73.003906 162.753906 C 72.519531 159.738281 72.09375 156.230469 71.722656 152.230469 C 70.910156 143.769531 70.496094 137.191406 70.472656 132.492188 L 70.507812 132.492188 M 20.101562 109.082031 C 18.71875 113.039062 16.367188 118.613281 13.035156 125.804688 C 11.042969 130.109375 9.410156 133.34375 8.140625 135.507812 L 6.199219 138.425781 L 5.445312 139.246094 C 5.140625 139.53125 4.972656 139.5625 4.953125 139.34375 C 4.84375 138.359375 4.964844 137.160156 5.3125 135.738281 L 6.332031 132.195312 C 7.164062 129.421875 8.28125 126.078125 9.683594 122.164062 L 12.609375 114.328125 L 15.46875 106.425781 C 16.738281 107.257812 18.28125 108.140625 20.101562 109.082031 "/>
</g>
</svg>
