<?xml version="1.0" encoding="UTF-8"?>
<svg xmlns="http://www.w3.org/2000/svg" xmlns:xlink="http://www.w3.org/1999/xlink" width="128pt" height="194pt" viewBox="0 0 128 194" version="1.1">
<g id="surface1">
<path style=" stroke:none;fill-rule:nonzero;fill:rgb(100%,100%,100%);fill-opacity:1;" d="M 106.816406 187.058594 C 108.050781 186.984375 109.246094 186.695312 110.40625 186.191406 C 111.3125 187.902344 111.738281 189.070312 111.6875 189.699219 C 111.5625 191.933594 110.164062 193.242188 107.496094 193.621094 C 105.886719 193.847656 104.074219 193.316406 102.058594 192.035156 C 100.398438 191.003906 99.292969 190.023438 98.738281 189.09375 C 98.410156 188.492188 98.335938 187.699219 98.511719 186.71875 L 106.816406 187.058594 M 56.5625 185.625 C 53.214844 185.851562 49.941406 185.574219 46.746094 184.796875 L 46.367188 184.683594 L 45.613281 184.269531 C 45.5625 183.992188 46.066406 183.589844 47.121094 183.0625 C 48.054688 182.585938 50.144531 181.917969 53.390625 181.0625 C 56.710938 182.246094 59.621094 182.925781 62.113281 183.101562 L 69.777344 182.722656 C 69.703125 183.652344 69.386719 184.320312 68.832031 184.722656 C 68.277344 185.097656 67.148438 185.285156 65.433594 185.285156 L 64.453125 184.15625 L 64.378906 184.082031 L 64.265625 184.117188 C 61.320312 184.898438 58.75 185.398438 56.5625 185.625 M 40.890625 132.613281 L 41.117188 132.347656 L 42.476562 130.992188 C 43.234375 132.375 44.125 133.542969 45.160156 134.496094 C 46.46875 135.679688 47.902344 136.394531 49.464844 136.648438 L 54.523438 136.496094 C 55 137.476562 55.203125 138.253906 55.125 138.832031 C 55 139.964844 54.710938 140.757812 54.257812 141.210938 C 53.957031 141.484375 53.363281 141.738281 52.484375 141.964844 L 52.410156 142 L 52.070312 141.925781 L 51.730469 141.738281 C 51.375 141.007812 51.261719 140.367188 51.390625 139.8125 C 51.664062 139.210938 51.703125 138.785156 51.503906 138.53125 L 51.199219 138.417969 C 50.847656 138.496094 50.570312 138.882812 50.371094 139.589844 C 49.992188 140.644531 49.941406 141.484375 50.21875 142.113281 C 50.371094 142.441406 50.433594 142.894531 50.40625 143.472656 C 50.40625 144.023438 50.320312 144.515625 50.144531 144.941406 C 49.992188 145.371094 49.777344 145.644531 49.5 145.773438 C 49.351562 145.773438 49.125 145.660156 48.820312 145.433594 C 48.265625 145.03125 47.765625 144.488281 47.3125 143.8125 C 46.757812 143.007812 46.441406 142.226562 46.367188 141.472656 L 46.328125 141.4375 L 45.914062 141.019531 C 45.789062 140.996094 45.664062 141.035156 45.535156 141.132812 L 45.386719 141.285156 L 45.347656 141.324219 C 45.171875 141.75 45.246094 142.378906 45.574219 143.207031 L 45.726562 143.847656 C 45.046875 143.570312 44.417969 143.132812 43.835938 142.527344 C 43.15625 141.851562 42.691406 141.183594 42.441406 140.53125 C 42.265625 140.078125 42.136719 139.449219 42.0625 138.644531 L 42.0625 138.609375 C 42.011719 138.304688 41.898438 138.15625 41.722656 138.15625 C 41.496094 138.105469 41.269531 138.253906 41.042969 138.609375 L 41.042969 138.722656 L 41.003906 138.871094 C 40.855469 139.476562 40.792969 139.976562 40.816406 140.378906 C 40.339844 139.878906 39.933594 139.300781 39.609375 138.644531 C 39.128906 137.691406 38.929688 136.761719 39.003906 135.855469 C 39.03125 135.25 39.660156 134.171875 40.890625 132.613281 M 90.542969 136.761719 C 95.199219 136.03125 98.660156 135.203125 100.925781 134.273438 C 101.429688 135.402344 102.601562 138.996094 104.4375 145.054688 C 106.554688 151.941406 107.988281 157.195312 108.742188 160.816406 C 109.523438 164.585938 110.191406 169.449219 110.746094 175.40625 C 111.246094 180.8125 111.410156 183.742188 111.234375 184.191406 C 111.132812 184.445312 110.519531 184.707031 109.386719 184.984375 L 106.101562 185.476562 C 104.917969 185.550781 103.417969 185.527344 101.605469 185.398438 C 99.367188 185.25 97.90625 184.972656 97.226562 184.570312 C 97.027344 184.371094 96.257812 182.28125 94.925781 178.3125 L 91.222656 168.09375 C 89.234375 163.242188 86.59375 157.8125 83.292969 151.804688 L 78.875 144.148438 L 78.535156 144.300781 L 80.121094 148.597656 L 78.082031 153.464844 C 76.699219 156.855469 75.589844 159.898438 74.761719 162.589844 C 73.425781 166.8125 71.902344 172.996094 70.191406 181.140625 L 69.890625 181.367188 L 62.792969 181.703125 L 58.410156 181.140625 C 56.976562 180.738281 55.792969 180.082031 54.863281 179.179688 C 56.449219 168.421875 57.605469 160.839844 58.335938 156.441406 C 58.789062 153.703125 59.671875 149.515625 60.980469 143.886719 L 63.09375 134.914062 L 67.019531 135.667969 C 71.628906 137.050781 76.460938 137.742188 81.519531 137.742188 C 84.1875 137.742188 87.195312 137.414062 90.542969 136.761719 M 65.925781 83.179688 L 66.871094 82.238281 C 68.128906 82.96875 69.398438 83.546875 70.683594 83.972656 C 72.546875 87.542969 75.96875 88.75 80.953125 87.59375 C 83.066406 87.089844 84.96875 86.183594 86.65625 84.878906 C 88.46875 83.46875 89.6875 81.847656 90.316406 80.015625 C 92.105469 80.84375 93.855469 81.796875 95.566406 82.878906 C 94.359375 84.109375 92.644531 85.167969 90.429688 86.046875 C 88.769531 86.699219 87.449219 87.078125 86.464844 87.179688 C 85.660156 87.277344 85.03125 87.542969 84.578125 87.96875 C 84.148438 88.371094 83.847656 89 83.671875 89.855469 C 82.917969 93.199219 82.335938 96.855469 81.933594 100.828125 C 81.734375 102.9375 81.609375 106.15625 81.558594 110.480469 C 81.53125 114.726562 81.59375 117.65625 81.746094 119.265625 C 81.796875 119.667969 81.996094 120.042969 82.351562 120.394531 C 82.726562 120.773438 83.128906 120.972656 83.558594 121 C 84.941406 121.125 87.886719 121.050781 92.394531 120.773438 L 100.398438 119.792969 C 100.199219 123.914062 100.246094 128.363281 100.550781 133.140625 C 98.410156 134.070312 95.414062 134.824219 91.5625 135.402344 L 81.671875 136.308594 L 80.992188 136.308594 C 78.070312 136.183594 74.132812 135.605469 69.171875 134.574219 L 63.246094 132.875 C 63.394531 128.351562 63.230469 123.703125 62.753906 118.925781 C 63.910156 119.402344 64.84375 119.679688 65.546875 119.753906 C 66.050781 119.832031 66.429688 119.742188 66.679688 119.492188 C 66.984375 119.214844 67.109375 118.5625 67.058594 117.53125 L 67.058594 117.417969 L 66.984375 111.648438 C 67.035156 107.828125 67.222656 104.597656 67.550781 101.957031 C 67.875 99.292969 68.457031 96.238281 69.285156 92.796875 L 70.609375 87.742188 C 70.808594 87.191406 70.820312 86.664062 70.644531 86.160156 C 70.46875 85.65625 70.15625 85.304688 69.703125 85.105469 L 69.210938 84.953125 L 69.171875 84.914062 C 67.535156 84.3125 66.453125 83.734375 65.925781 83.179688 M 64.527344 83.558594 L 64.792969 83.933594 C 65.472656 84.738281 66.78125 85.480469 68.71875 86.160156 L 68.832031 86.234375 L 69.136719 86.347656 C 69.4375 86.472656 69.511719 86.789062 69.363281 87.289062 C 69.035156 88.171875 68.554688 89.96875 67.925781 92.683594 C 67.121094 96.101562 66.542969 99.144531 66.191406 101.808594 C 65.863281 104.421875 65.6875 107.6875 65.660156 111.609375 C 65.636719 113.972656 65.648438 115.933594 65.699219 117.492188 L 65.738281 118.433594 C 64.578125 118.234375 63.523438 117.882812 62.566406 117.378906 L 62.375 115.796875 C 61.898438 111.546875 61.371094 108.40625 60.789062 106.371094 L 58.296875 98.453125 L 57.730469 98.566406 L 59.847656 108.972656 C 60.300781 111.234375 60.703125 114.125 61.054688 117.644531 L 61.128906 118.886719 L 60.5625 119.792969 C 58.75 122.785156 57.191406 126.0625 55.882812 129.632812 C 55.175781 131.570312 54.636719 133.304688 54.257812 134.835938 L 49.425781 135.027344 C 47.890625 134.773438 46.519531 133.871094 45.308594 132.3125 C 44.578125 131.355469 44.039062 130.386719 43.6875 129.40625 C 43.535156 129.054688 43.535156 128.503906 43.6875 127.75 L 43.722656 127.410156 C 44.125 124.367188 44.742188 121.125 45.574219 117.679688 C 46.984375 111.949219 48.769531 106.644531 50.9375 101.769531 C 53.203125 96.71875 55.933594 92.382812 59.128906 88.761719 C 60.867188 86.726562 62.664062 84.992188 64.527344 83.558594 M 73.0625 75.1875 L 72.421875 75.074219 L 71.742188 75.226562 L 69.25 75.527344 C 69.023438 75.550781 68.894531 75.613281 68.871094 75.714844 L 69.171875 75.980469 L 70.457031 76.621094 L 72.722656 76.582031 L 73.25 76.207031 C 73.402344 76.03125 73.453125 75.839844 73.402344 75.640625 L 73.0625 75.1875 M 79.820312 67.496094 C 80.199219 67.46875 80.550781 67.582031 80.878906 67.835938 C 81.207031 68.085938 81.269531 68.363281 81.066406 68.664062 L 80.460938 69.230469 C 77.71875 70.738281 75.832031 71.679688 74.796875 72.058594 L 71.664062 72.546875 L 68.644531 72.359375 L 63.960938 70.8125 C 63.609375 70.738281 63.359375 70.460938 63.207031 69.984375 C 63.082031 69.558594 63.332031 69.34375 63.960938 69.34375 L 66.53125 69.757812 L 71.324219 69.945312 C 73.3125 69.769531 75.867188 69.015625 78.988281 67.683594 L 79.820312 67.496094 M 78.839844 64.328125 C 78.761719 64.402344 78.777344 64.53125 78.875 64.707031 L 79.328125 65.910156 C 79.429688 66.089844 79.394531 66.289062 79.214844 66.515625 L 78.648438 66.929688 C 75.226562 68.261719 72.660156 69.027344 70.949219 69.230469 L 66.53125 69.042969 L 64 68.625 C 63.796875 68.601562 63.621094 68.515625 63.472656 68.363281 L 63.28125 67.796875 L 63.28125 67.269531 L 63.207031 66.890625 C 63.105469 66.867188 62.992188 66.929688 62.867188 67.082031 L 61.507812 68.816406 L 61.28125 69.417969 L 61.433594 70.023438 L 63.09375 72.511719 C 63.34375 72.886719 63.472656 72.835938 63.472656 72.359375 L 63.472656 72.019531 C 63.445312 71.820312 63.507812 71.65625 63.660156 71.53125 L 64.152344 71.453125 L 66.566406 72.8125 C 68.480469 73.71875 70.21875 74.15625 71.777344 74.132812 C 73.3125 74.132812 75.339844 73.390625 77.855469 71.90625 L 81.179688 69.644531 C 81.632812 69.46875 82.011719 69.582031 82.3125 69.984375 L 82.351562 71.71875 L 82.691406 71.945312 L 82.917969 71.566406 L 83.558594 68.136719 L 83.445312 67.535156 L 83.03125 67.042969 L 79.214844 64.402344 L 78.839844 64.328125 M 82.539062 53.847656 C 82.414062 53.496094 82.0625 53.292969 81.480469 53.242188 L 80.839844 53.242188 L 79.667969 53.542969 L 79.632812 53.582031 C 78.976562 53.859375 78.488281 54.210938 78.160156 54.636719 C 77.808594 55.066406 77.695312 55.46875 77.820312 55.84375 C 77.96875 56.195312 78.324219 56.398438 78.875 56.449219 L 79.066406 56.484375 C 79.59375 56.484375 80.148438 56.347656 80.726562 56.070312 L 81.746094 55.503906 L 82.238281 55.015625 C 82.589844 54.589844 82.691406 54.199219 82.539062 53.847656 M 81.671875 49.246094 L 83.332031 50.152344 C 83.910156 50.503906 84.277344 50.667969 84.425781 50.640625 C 84.601562 50.011719 84.148438 49.121094 83.066406 47.964844 L 81.40625 46.378906 C 80.980469 46.128906 80.652344 46.21875 80.425781 46.644531 L 79.894531 47.398438 C 79.542969 47.902344 79.417969 48.226562 79.519531 48.378906 L 80.234375 48.679688 L 81.671875 49.246094 M 67.398438 61.6875 C 67.375 61.914062 67.421875 62.117188 67.550781 62.292969 L 69.285156 64.742188 C 69.589844 65.09375 69.976562 65.234375 70.457031 65.15625 L 71.097656 64.96875 L 71.476562 64.667969 C 71.527344 64.515625 71.488281 64.355469 71.363281 64.175781 L 69.964844 62.328125 C 69.664062 61.929688 69.625 61.5 69.851562 61.046875 L 71.402344 58.03125 C 72.003906 56.800781 72.496094 55.519531 72.875 54.1875 L 72.910156 53.65625 L 72.683594 53.394531 C 72.433594 53.34375 72.195312 53.558594 71.96875 54.035156 L 70.496094 57.089844 L 67.585938 61.085938 C 67.460938 61.238281 67.398438 61.4375 67.398438 61.6875 M 66.339844 53.242188 C 66.140625 53.042969 65.824219 52.980469 65.398438 53.054688 L 65.132812 53.09375 C 64.855469 53.167969 64.605469 53.28125 64.378906 53.429688 L 63.546875 54.074219 L 63.472656 54.148438 L 63.207031 54.449219 C 62.878906 54.828125 62.652344 55.214844 62.527344 55.617188 C 62.425781 55.921875 62.402344 56.183594 62.453125 56.410156 L 62.679688 56.824219 C 62.90625 57.101562 63.230469 57.191406 63.660156 57.089844 L 63.847656 57.011719 C 64.402344 56.863281 64.945312 56.546875 65.472656 56.070312 L 65.886719 55.617188 L 66.492188 54.601562 L 66.492188 54.523438 C 66.695312 53.972656 66.644531 53.542969 66.339844 53.242188 M 66.71875 47.777344 C 66.667969 47.523438 66.542969 47.359375 66.339844 47.285156 L 65.738281 47.359375 L 62.90625 49.207031 L 62.601562 49.546875 L 63.054688 49.660156 L 66.078125 49.511719 C 66.328125 49.484375 66.53125 49.382812 66.679688 49.207031 C 66.832031 49.007812 66.882812 48.78125 66.832031 48.53125 L 66.71875 47.777344 M 93.527344 60.519531 L 92.621094 59.804688 C 92.34375 59.679688 92.140625 59.742188 92.015625 59.992188 C 91.867188 60.269531 91.914062 60.46875 92.167969 60.59375 L 92.695312 61.011719 C 93.023438 61.335938 93.199219 61.613281 93.226562 61.839844 C 93.273438 62.117188 93.453125 62.253906 93.753906 62.253906 C 94.03125 62.230469 94.15625 62.027344 94.132812 61.652344 C 94.054688 61.222656 93.855469 60.847656 93.527344 60.519531 M 91.867188 57.125 C 91.738281 57.378906 91.851562 57.617188 92.207031 57.84375 L 93.679688 58.785156 L 94.886719 60.105469 C 95.339844 60.582031 95.589844 60.695312 95.640625 60.445312 C 95.667969 60.242188 95.539062 59.90625 95.265625 59.425781 L 94.28125 58.144531 C 93.804688 57.640625 93.175781 57.214844 92.394531 56.863281 C 92.167969 56.761719 91.992188 56.851562 91.867188 57.125 M 90.882812 42.382812 C 92.292969 42.183594 93.300781 42.863281 93.90625 44.421875 C 94.535156 46.054688 93.804688 47.472656 91.714844 48.679688 L 91.414062 49.019531 C 91.261719 49.273438 91.347656 49.484375 91.675781 49.660156 C 93.289062 50.589844 94.496094 51.421875 95.300781 52.148438 C 97.316406 54.011719 98.320312 56.121094 98.320312 58.484375 C 97.542969 56.675781 96.507812 55.039062 95.226562 53.582031 C 93.691406 52.023438 92.671875 51.15625 92.167969 50.980469 C 91.816406 50.855469 91.574219 50.90625 91.449219 51.132812 C 91.300781 51.359375 91.363281 51.546875 91.640625 51.695312 L 92.621094 52.453125 L 94.585938 54.222656 C 95.792969 55.328125 97.011719 57.113281 98.246094 59.578125 L 98.09375 60.445312 C 97.140625 58.433594 96.042969 56.851562 94.8125 55.695312 C 93.828125 54.738281 92.984375 54.148438 92.28125 53.921875 C 91.980469 53.820312 91.816406 53.921875 91.789062 54.222656 C 91.738281 54.550781 91.902344 54.828125 92.28125 55.054688 C 93.011719 55.457031 93.640625 55.90625 94.167969 56.410156 C 95.074219 57.316406 96.257812 58.835938 97.71875 60.972656 L 97.566406 61.011719 L 97.492188 61.125 C 97.265625 61.148438 97.0625 61.210938 96.886719 61.3125 C 96.535156 61.511719 96.496094 61.816406 96.773438 62.21875 C 98.6875 63.597656 99.140625 65.371094 98.132812 67.535156 C 97.152344 69.644531 95.515625 70.574219 93.226562 70.324219 C 91.058594 74.394531 88.328125 77.539062 85.03125 79.75 C 84.175781 80.304688 84.261719 80.527344 85.296875 80.429688 C 86.351562 80.328125 87.5 79.835938 88.730469 78.957031 C 88.503906 81.296875 86.742188 83.28125 83.445312 84.914062 C 80.222656 86.5 77.808594 86.777344 76.195312 85.746094 L 78.648438 85.253906 C 79.910156 84.851562 80.5 84.550781 80.425781 84.351562 L 78.046875 84.539062 C 75.90625 84.613281 73.488281 84.085938 70.796875 82.953125 C 69.386719 82.375 67.976562 81.546875 66.566406 80.464844 L 66.339844 80.238281 L 66.304688 80.277344 C 63.105469 77.6875 60.804688 74.257812 59.394531 69.984375 C 58.007812 65.8125 57.707031 61.601562 58.488281 57.351562 C 59.066406 54.1875 60.3125 50.929688 62.226562 47.585938 C 63.230469 47.410156 64.214844 46.882812 65.171875 46.003906 L 67.019531 43.664062 C 68.152344 42.183594 68.910156 41.328125 69.285156 41.101562 L 71.324219 41.175781 L 72.648438 41.820312 L 74.988281 41.96875 C 75.589844 41.84375 76.359375 41.515625 77.289062 40.988281 C 78.222656 40.460938 79.28125 40.347656 80.460938 40.648438 C 81.695312 41 82.828125 41.753906 83.859375 42.910156 C 84.339844 43.441406 84.957031 43.679688 85.710938 43.628906 L 87.597656 43.175781 C 88.203125 42.925781 89.296875 42.660156 90.882812 42.382812 M 92.054688 34.542969 C 93.4375 36.300781 94.207031 37.207031 94.359375 37.257812 C 95.339844 37.660156 96.371094 38.613281 97.453125 40.121094 C 98.257812 41.226562 98.9375 42.398438 99.492188 43.628906 C 100.5 45.816406 100.726562 48.707031 100.171875 52.300781 C 99.894531 54.109375 99.519531 55.695312 99.039062 57.050781 C 98.585938 54.964844 97.578125 53.167969 96.019531 51.660156 L 93.035156 49.320312 C 93.839844 48.71875 94.519531 48.050781 95.074219 47.324219 C 95.832031 46.34375 96.144531 45.5 96.019531 44.796875 C 95.84375 43.691406 95.414062 42.785156 94.734375 42.082031 C 93.828125 41.101562 92.570312 40.726562 90.960938 40.953125 C 90.457031 41.027344 89.523438 41.378906 88.164062 42.007812 C 86.980469 42.558594 86.203125 42.796875 85.824219 42.722656 L 82.917969 39.894531 C 81.28125 38.238281 79.996094 37.621094 79.066406 38.046875 L 77.78125 38.878906 L 76.535156 39.667969 L 74.722656 40.800781 L 73.363281 40.988281 L 72.34375 40.460938 C 71.488281 40.058594 70.933594 39.84375 70.683594 39.820312 C 70.105469 39.71875 69.410156 39.90625 68.605469 40.386719 C 68.128906 40.664062 67.308594 41.542969 66.152344 43.023438 L 64.339844 45.289062 C 63.558594 45.992188 62.753906 46.429688 61.921875 46.605469 C 60.992188 46.78125 60.210938 46.582031 59.582031 46.003906 C 58.652344 45.148438 57.996094 43.992188 57.617188 42.535156 C 57.265625 41.152344 57.277344 39.90625 57.65625 38.800781 C 57.984375 37.949219 58.460938 37.207031 59.089844 36.578125 C 58.992188 37.507812 59.269531 38.222656 59.921875 38.726562 L 60.335938 39.027344 C 60.992188 39.40625 61.695312 39.570312 62.453125 39.519531 L 62.792969 39.480469 C 63.875 39.328125 64.792969 38.800781 65.546875 37.898438 L 67.699219 35.484375 C 68.757812 34.402344 69.574219 33.789062 70.15625 33.636719 C 70.882812 33.460938 71.890625 33.5625 73.175781 33.9375 C 74.207031 34.265625 74.9375 34.203125 75.363281 33.75 L 76.648438 31.902344 C 77.957031 29.839844 78.902344 28.761719 79.480469 28.660156 C 80.261719 28.558594 81.242188 28.910156 82.425781 29.714844 L 83.445312 30.46875 C 83.847656 30.769531 84.238281 30.984375 84.617188 31.109375 C 85.949219 31.5625 87.070312 31.839844 87.976562 31.941406 C 89.460938 32.117188 90.820312 32.984375 92.054688 34.542969 M 124.1875 134.121094 L 125.773438 135.667969 L 126 135.929688 C 127.230469 137.4375 127.863281 138.507812 127.886719 139.136719 C 127.960938 140.039062 127.761719 140.96875 127.28125 141.925781 C 126.929688 142.628906 126.527344 143.207031 126.074219 143.660156 L 125.886719 142.152344 L 125.847656 142 L 125.847656 141.964844 L 125.808594 141.925781 C 125.582031 141.574219 125.371094 141.410156 125.167969 141.4375 C 124.964844 141.484375 124.851562 141.648438 124.828125 141.925781 L 124.789062 141.925781 L 124.449219 143.8125 C 124.199219 144.464844 123.734375 145.144531 123.054688 145.847656 C 122.476562 146.425781 121.84375 146.851562 121.164062 147.128906 L 121.316406 146.488281 C 121.617188 145.707031 121.695312 145.09375 121.542969 144.640625 L 121.542969 144.601562 L 121.503906 144.601562 L 121.355469 144.453125 L 120.976562 144.339844 C 120.800781 144.339844 120.648438 144.464844 120.523438 144.714844 L 120.523438 144.792969 C 120.449219 145.546875 120.132812 146.324219 119.578125 147.128906 L 118.03125 148.710938 L 117.390625 149.089844 C 117.113281 148.9375 116.886719 148.648438 116.710938 148.222656 C 116.535156 147.796875 116.445312 147.304688 116.445312 146.753906 C 116.445312 146.199219 116.507812 145.757812 116.636719 145.433594 C 116.886719 144.929688 116.847656 144.074219 116.523438 142.867188 C 116.320312 142.164062 116.042969 141.789062 115.691406 141.738281 L 115.351562 141.851562 C 115.199219 142.078125 115.25 142.503906 115.503906 143.132812 C 115.601562 143.761719 115.476562 144.402344 115.125 145.054688 L 114.824219 145.242188 L 114.484375 145.28125 L 114.40625 145.28125 C 113.527344 145.03125 112.933594 144.765625 112.632812 144.488281 C 112.179688 144.0625 111.890625 143.269531 111.765625 142.113281 C 111.6875 141.460938 111.925781 140.605469 112.480469 139.550781 C 113.765625 139.878906 115.375 139.902344 117.316406 139.625 C 118.851562 139.375 120.257812 138.683594 121.542969 137.550781 C 122.574219 136.621094 123.457031 135.476562 124.1875 134.121094 M 121.164062 120.660156 C 122.046875 124.253906 122.664062 127.496094 123.015625 130.386719 L 123.089844 130.726562 C 123.191406 131.507812 123.191406 132.058594 123.089844 132.386719 C 122.664062 133.441406 122.109375 134.410156 121.429688 135.289062 C 120.222656 136.847656 118.851562 137.753906 117.316406 138.003906 L 112.480469 137.816406 L 110.859375 132.613281 C 109.574219 129.042969 108.011719 125.761719 106.175781 122.773438 C 104.261719 119.605469 102.085938 116.828125 99.644531 114.4375 L 96.546875 111.722656 L 96.167969 112.136719 L 97.414062 113.683594 L 100.550781 117.984375 L 100.511719 118.398438 L 92.28125 119.414062 C 88.152344 119.742188 85.28125 119.816406 83.671875 119.640625 L 83.292969 119.453125 L 83.066406 119.152344 C 82.941406 117.542969 82.890625 114.652344 82.917969 110.480469 C 82.96875 106.179688 83.09375 103 83.292969 100.941406 C 83.648438 97.121094 84.214844 93.511719 84.992188 90.117188 C 85.121094 89.566406 85.296875 89.175781 85.523438 88.949219 C 85.75 88.722656 86.101562 88.585938 86.578125 88.535156 C 87.6875 88.410156 89.132812 87.996094 90.921875 87.289062 C 93.515625 86.261719 95.492188 84.992188 96.847656 83.484375 C 98.308594 84.035156 99.453125 84.601562 100.285156 85.179688 L 100.664062 85.441406 L 100.738281 85.480469 C 102.902344 86.890625 105.207031 88.976562 107.648438 91.738281 C 110.84375 95.460938 113.5625 99.808594 115.804688 104.785156 C 117.992188 109.664062 119.78125 114.953125 121.164062 120.660156 "/>
<path style=" stroke:none;fill-rule:nonzero;fill:rgb(100%,100%,100%);fill-opacity:1;" d="M 16.613281 111.195312 C 16.6875 110.945312 16.816406 110.792969 16.992188 110.742188 C 17.320312 110.644531 17.558594 110.71875 17.707031 110.96875 L 19.371094 113.117188 C 20.980469 114.753906 23.046875 116.074219 25.5625 117.078125 L 25.75 117.34375 L 25.902344 117.832031 C 25.851562 118.082031 25.574219 118.234375 25.070312 118.285156 C 22.378906 117.203125 20.164062 115.769531 18.425781 113.984375 L 16.539062 111.535156 L 16.613281 111.195312 M 9.175781 100.300781 C 9.199219 100.953125 9.339844 101.40625 9.589844 101.65625 C 10.121094 102.183594 11.390625 102.636719 13.402344 103.015625 C 14.410156 103.089844 15.582031 103.542969 16.914062 104.371094 L 19.898438 106.484375 C 20.78125 107.261719 21.535156 107.828125 22.164062 108.179688 C 22.742188 108.203125 23.058594 108.605469 23.109375 109.386719 C 23.132812 110.140625 22.742188 110.390625 21.9375 110.140625 C 21.332031 109.964844 20.515625 109.425781 19.484375 108.519531 C 18.550781 107.6875 17.921875 107.261719 17.59375 107.238281 L 15.441406 108.859375 C 14.613281 109.511719 13.832031 109.964844 13.101562 110.214844 L 8.042969 112.742188 C 6.003906 113.746094 4.328125 114.601562 3.019531 115.304688 C 1.886719 115.808594 1.5625 116.425781 2.039062 117.152344 L 4.34375 117.230469 L 7.023438 116.171875 L 9.703125 115.042969 L 15.179688 112.78125 L 15.554688 112.816406 L 15.632812 112.78125 L 15.746094 112.855469 C 16.476562 113.132812 16.878906 113.597656 16.953125 114.25 L 17.105469 114.402344 L 16.953125 114.515625 L 16.878906 114.777344 L 14.574219 116.738281 L 9.894531 120.660156 C 7.953125 122.242188 6.507812 123.664062 5.550781 124.921875 C 6.429688 126.226562 7.804688 126.214844 9.667969 124.882812 L 12.042969 122.734375 L 14.953125 119.792969 C 16.058594 118.761719 16.953125 118.082031 17.632812 117.757812 L 19.03125 116.511719 L 20.617188 117.757812 L 20.085938 118.585938 L 20.164062 118.660156 L 14.234375 127.710938 C 13.605469 128.539062 13.203125 129.355469 13.027344 130.160156 C 12.800781 131.21875 13.191406 131.78125 14.195312 131.859375 C 14.875 131.632812 15.53125 131.054688 16.160156 130.125 L 17.671875 127.785156 L 23.335938 119.113281 L 23.410156 118.964844 L 23.675781 118.964844 L 24.050781 119.152344 C 24.453125 119.203125 24.769531 119.339844 24.996094 119.566406 L 25.335938 119.71875 L 25.222656 120.019531 C 25.296875 120.320312 25.210938 120.683594 24.957031 121.113281 L 22.351562 129.632812 L 22.164062 130.691406 C 22.089844 130.765625 22.050781 130.867188 22.050781 130.992188 L 21.976562 131.332031 L 21.976562 131.558594 C 22.050781 132.035156 22.265625 132.359375 22.617188 132.539062 C 22.996094 132.761719 23.371094 132.675781 23.75 132.273438 L 24.582031 130.765625 L 25.148438 129.105469 L 27.414062 122.242188 L 27.753906 121.300781 L 28.015625 120.433594 L 28.46875 120.09375 L 29.035156 119.679688 L 30.773438 118.359375 C 33.0625 115.621094 34.675781 113.007812 35.605469 110.515625 L 36.210938 107.011719 L 37.832031 105.539062 C 37.078125 103.804688 36.148438 102.335938 35.039062 101.128906 C 34.359375 100.375 33.566406 99.707031 32.660156 99.128906 L 31.527344 98.488281 L 31.113281 98.867188 L 31.1875 98.867188 L 30.546875 99.46875 L 30.019531 99.847656 C 29.035156 100.652344 28.292969 101.015625 27.789062 100.941406 C 27.4375 100.460938 26.796875 100.199219 25.863281 100.148438 L 22.730469 100.074219 C 21.925781 100.023438 19.785156 100.058594 16.3125 100.1875 L 9.175781 100.300781 M 6.984375 98.601562 L 7.023438 98.527344 L 7.023438 98.601562 L 13.402344 98.828125 L 20.238281 98.640625 L 25.675781 98.867188 L 26.734375 99.015625 L 28.433594 99.394531 L 28.355469 99.394531 L 28.660156 99.433594 L 31.566406 96.753906 L 32.09375 97.132812 L 32.507812 97.320312 C 36.539062 99.660156 38.851562 102.613281 39.457031 106.179688 C 38.601562 106.660156 37.984375 107.5 37.605469 108.707031 L 37.117188 111.121094 L 36.132812 113.382812 L 34.660156 115.832031 C 33.933594 117.390625 32.75 118.851562 31.113281 120.207031 L 28.921875 121.753906 L 27.640625 126.882812 C 26.554688 130.476562 25.421875 132.675781 24.242188 133.480469 L 24.203125 133.480469 L 23.222656 134.007812 C 22.140625 134.207031 21.359375 133.769531 20.878906 132.6875 C 20.425781 131.707031 20.402344 130.765625 20.804688 129.859375 L 21.523438 127.257812 L 22.316406 124.617188 L 23.183594 122.054688 C 23.183594 121.929688 22.980469 122.230469 22.578125 122.960938 C 21.167969 125.523438 20.164062 127.109375 19.558594 127.710938 L 17.972656 130.085938 L 16.234375 132.386719 C 15.582031 133.292969 14.675781 133.59375 13.515625 133.292969 C 12.308594 133.015625 11.65625 132.3125 11.554688 131.179688 L 11.628906 130.613281 C 11.679688 130.085938 11.816406 129.570312 12.042969 129.066406 C 12.449219 127.960938 13.226562 126.566406 14.386719 124.882812 L 16.992188 120.773438 L 17.933594 119.300781 L 12.421875 124.167969 C 10.484375 126.027344 9.050781 127.195312 8.117188 127.671875 L 6.796875 128.125 L 6.34375 128.125 L 6.15625 128.089844 C 5.25 127.960938 4.53125 127.347656 4.003906 126.242188 L 4.003906 125.902344 C 3.925781 125.273438 4.089844 124.632812 4.492188 123.976562 C 4.945312 123.074219 5.851562 122.09375 7.210938 121.035156 L 10.308594 118.433594 L 14.308594 115.003906 C 14.4375 114.953125 14.347656 114.917969 14.046875 114.890625 L 11.589844 115.945312 L 5.550781 118.472656 L 2.90625 119.113281 L 2.265625 119.113281 L 2 119.078125 L 1.433594 118.886719 L 1.246094 118.8125 L 0.753906 118.398438 L 0.527344 118.132812 L 0.492188 118.058594 L 0.378906 117.90625 L 0.152344 117.492188 L 0.0742188 117.191406 L 0.0390625 117.117188 L 0 116.664062 L 0.300781 115.796875 L 0.867188 115.191406 L 2.113281 114.210938 L 3.511719 113.382812 L 3.398438 113.457031 L 13.554688 108.179688 L 13.742188 108.105469 L 14.160156 107.878906 L 14.875 107.199219 C 15.28125 106.570312 15.457031 106.054688 15.40625 105.652344 C 15.378906 105.425781 15.214844 105.214844 14.914062 105.011719 L 14.5 104.785156 L 13.441406 104.636719 L 13.328125 104.636719 L 12.914062 104.671875 L 10.574219 104.558594 C 9.566406 104.285156 8.734375 103.78125 8.082031 103.050781 C 7.601562 102.550781 7.289062 101.746094 7.136719 100.636719 L 7.097656 100.527344 L 7.097656 100.222656 L 7.0625 99.734375 L 6.984375 98.679688 L 6.949219 98.714844 L 6.949219 98.601562 L 6.984375 98.527344 L 6.984375 98.601562 M 1.964844 93.851562 C 1.335938 94.230469 0.855469 94.078125 0.527344 93.398438 C 0.203125 92.71875 0.351562 92.191406 0.980469 91.816406 C 6.496094 88.546875 12.511719 86.75 19.03125 86.421875 C 25.902344 86.070312 31.980469 87.453125 37.265625 90.570312 C 37.898438 90.921875 37.996094 91.414062 37.570312 92.042969 C 37.140625 92.644531 36.613281 92.769531 35.984375 92.417969 C 31.050781 89.503906 25.335938 88.257812 18.839844 88.6875 C 12.75 89.0625 7.125 90.785156 1.964844 93.851562 M 14.761719 81.863281 L 22.464844 82.125 L 30.054688 83.179688 C 32.800781 83.785156 35.203125 84.625 37.265625 85.707031 C 37.898438 86.035156 37.996094 86.511719 37.570312 87.140625 C 37.140625 87.769531 36.613281 87.90625 35.984375 87.554688 C 33.96875 86.523438 31.578125 85.734375 28.808594 85.179688 L 21.257812 84.3125 L 14.6875 84.125 C 12.144531 84.25 9.992188 84.664062 8.230469 85.367188 C 7.578125 85.644531 7.085938 85.441406 6.757812 84.765625 C 6.429688 84.0625 6.609375 83.582031 7.289062 83.332031 C 9.351562 82.476562 11.84375 81.988281 14.761719 81.863281 M 29.980469 44.683594 C 30.15625 41.96875 30.269531 40.550781 30.320312 40.421875 L 32.546875 40.648438 L 32.246094 44.835938 C 32.019531 48.128906 31.90625 51.117188 31.90625 53.808594 C 31.90625 56.121094 32.371094 59.039062 33.300781 62.554688 C 33.429688 62.480469 33.554688 62.441406 33.679688 62.441406 L 36.664062 62.859375 C 38.675781 63.488281 40.035156 64.707031 40.742188 66.515625 C 41.394531 68.175781 41.570312 70.046875 41.269531 72.132812 L 40.589844 74.921875 C 40.464844 75.300781 40.210938 75.527344 39.835938 75.601562 C 39.433594 75.675781 39.09375 75.601562 38.816406 75.375 C 38.386719 75.023438 37.847656 74.773438 37.191406 74.621094 C 37.089844 75.097656 36.714844 75.5 36.058594 75.828125 C 35.40625 76.15625 34.636719 76.320312 33.753906 76.320312 L 31.980469 76.015625 C 30.144531 77.199219 28.117188 77.839844 25.902344 77.941406 L 25.261719 77.941406 C 23.171875 77.839844 21.207031 77.25 19.371094 76.167969 L 18.046875 76.320312 C 17.117188 76.320312 16.324219 76.144531 15.667969 75.789062 C 15.015625 75.4375 14.664062 75.011719 14.613281 74.507812 C 14.035156 74.585938 13.492188 74.746094 12.988281 75 C 12.660156 75.148438 12.449219 75.277344 12.347656 75.375 C 12.070312 75.601562 11.730469 75.675781 11.328125 75.601562 C 10.949219 75.527344 10.699219 75.300781 10.574219 74.921875 C 10.269531 74.121094 10.042969 73.1875 9.894531 72.132812 C 9.589844 70.046875 9.765625 68.175781 10.421875 66.515625 C 11.125 64.707031 12.484375 63.488281 14.5 62.859375 C 15.53125 62.53125 16.527344 62.394531 17.480469 62.441406 L 17.859375 62.554688 C 18.789062 59.039062 19.257812 56.121094 19.257812 53.808594 C 19.257812 51.117188 19.15625 48.128906 18.953125 44.835938 L 18.613281 40.648438 L 20.878906 40.421875 L 21.21875 44.683594 C 21.421875 48.050781 21.523438 51.09375 21.523438 53.808594 C 21.523438 56.597656 20.96875 59.96875 19.859375 63.914062 L 18.085938 69.269531 C 17.835938 69.847656 17.394531 70.070312 16.765625 69.945312 C 16.511719 69.894531 16.300781 69.757812 16.121094 69.53125 C 15.945312 69.304688 15.871094 69.054688 15.894531 68.777344 L 16.199219 64.78125 C 14.308594 65.082031 13.089844 65.9375 12.535156 67.34375 C 11.929688 68.929688 11.855469 70.75 12.308594 72.8125 C 13.695312 72.183594 15.179688 72.03125 16.765625 72.359375 L 17.21875 72.511719 L 18.046875 72.433594 C 19.003906 72.433594 19.824219 72.625 20.503906 73 C 21.183594 73.378906 21.523438 73.84375 21.523438 74.394531 L 21.484375 74.734375 C 22.71875 75.339844 24.089844 75.652344 25.601562 75.675781 C 27.335938 75.652344 28.910156 75.226562 30.320312 74.394531 L 30.28125 74.394531 C 30.28125 73.84375 30.621094 73.378906 31.300781 73 C 31.980469 72.625 32.800781 72.433594 33.753906 72.433594 L 34.09375 72.472656 L 34.398438 72.359375 C 35.984375 72.03125 37.46875 72.183594 38.851562 72.8125 C 39.304688 70.75 39.230469 68.929688 38.625 67.34375 C 38.074219 65.9375 36.851562 65.082031 34.964844 64.78125 L 35.265625 68.777344 C 35.292969 69.054688 35.214844 69.304688 35.039062 69.53125 L 34.398438 69.945312 C 33.769531 70.070312 33.328125 69.847656 33.074219 69.269531 C 32.445312 67.683594 31.855469 65.898438 31.300781 63.914062 C 30.195312 59.96875 29.640625 56.597656 29.640625 53.808594 C 29.640625 51.042969 29.753906 48.003906 29.980469 44.683594 M 39.683594 19.007812 C 37.898438 18.203125 36.222656 17.8125 34.660156 17.839844 C 34.082031 17.863281 33.832031 17.511719 33.90625 16.78125 C 33.980469 16.078125 34.308594 15.714844 34.886719 15.6875 C 36.726562 15.664062 38.691406 16.117188 40.777344 17.046875 C 42.238281 17.675781 43.988281 18.640625 46.027344 19.949219 C 48.015625 21.257812 49.625 22.464844 50.859375 23.570312 C 52.523438 25.078125 53.816406 26.671875 54.75 28.359375 C 55.050781 28.859375 54.914062 29.3125 54.332031 29.714844 C 53.730469 30.117188 53.289062 30.054688 53.011719 29.527344 C 51.425781 26.761719 48.492188 24.070312 44.214844 21.457031 C 42.226562 20.277344 40.714844 19.460938 39.683594 19.007812 M 40.550781 24.472656 C 36.121094 22.6875 31.414062 22.261719 26.429688 23.191406 C 25.828125 23.316406 25.5625 23.015625 25.636719 22.289062 C 25.738281 21.582031 26.078125 21.167969 26.65625 21.042969 C 31.96875 20.0625 36.976562 20.566406 41.683594 22.550781 C 46.644531 24.636719 50.269531 28.003906 52.558594 32.65625 C 52.8125 33.210938 52.660156 33.6875 52.105469 34.089844 C 51.527344 34.492188 51.097656 34.414062 50.824219 33.863281 C 48.707031 29.515625 45.285156 26.382812 40.550781 24.472656 M 71.742188 16.894531 C 70.683594 15.414062 70.15625 13.753906 70.15625 11.917969 C 70.15625 10.082031 70.683594 8.425781 71.742188 6.941406 C 72.773438 5.484375 74.121094 4.441406 75.78125 3.8125 C 73.339844 4.265625 71.097656 5.195312 69.058594 6.601562 C 66.996094 8.007812 65.320312 9.78125 64.039062 11.917969 C 65.320312 14.054688 66.996094 15.828125 69.058594 17.234375 C 71.097656 18.640625 73.339844 19.558594 75.78125 19.988281 C 74.121094 19.359375 72.773438 18.328125 71.742188 16.894531 M 68.152344 20.816406 C 64.855469 18.832031 62.289062 16.140625 60.449219 12.746094 L 60.035156 11.917969 L 60.449219 11.125 C 62.289062 7.707031 64.855469 5.003906 68.152344 3.019531 C 71.449219 1.035156 75.023438 0.0429688 78.875 0.0429688 C 82.753906 0.0429688 86.339844 1.035156 89.636719 3.019531 C 92.933594 5.003906 95.503906 7.707031 97.339844 11.125 L 97.753906 11.917969 L 97.339844 12.746094 C 95.503906 16.140625 92.933594 18.832031 89.636719 20.816406 C 86.339844 22.777344 82.753906 23.757812 78.875 23.757812 C 75.023438 23.757812 71.449219 22.777344 68.152344 20.816406 M 81.558594 6.414062 C 80.601562 6.414062 79.769531 6.765625 79.066406 7.46875 C 78.386719 8.148438 78.046875 8.976562 78.046875 9.957031 C 78.046875 10.9375 78.386719 11.78125 79.066406 12.484375 C 79.769531 13.164062 80.601562 13.5 81.558594 13.5 C 82.539062 13.5 83.382812 13.164062 84.085938 12.484375 C 84.765625 11.78125 85.105469 10.9375 85.105469 9.957031 C 85.105469 8.976562 84.765625 8.148438 84.085938 7.46875 C 83.382812 6.765625 82.539062 6.414062 81.558594 6.414062 M 82.011719 3.8125 C 83.671875 4.441406 85.019531 5.484375 86.050781 6.941406 C 87.109375 8.425781 87.636719 10.082031 87.636719 11.917969 C 87.636719 13.753906 87.109375 15.414062 86.050781 16.894531 C 85.019531 18.328125 83.671875 19.359375 82.011719 19.988281 C 84.453125 19.558594 86.691406 18.640625 88.730469 17.234375 C 90.769531 15.828125 92.445312 14.054688 93.753906 11.917969 C 92.445312 9.78125 90.769531 8.007812 88.730469 6.601562 C 86.691406 5.195312 84.453125 4.265625 82.011719 3.8125 "/>
</g>
</svg>
