<?xml version="1.0" encoding="UTF-8"?>
<svg xmlns="http://www.w3.org/2000/svg" xmlns:xlink="http://www.w3.org/1999/xlink" width="128pt" height="137pt" viewBox="0 0 128 137" version="1.1">
<g id="surface1">
<path style=" stroke:none;fill-rule:nonzero;fill:rgb(100%,100%,100%);fill-opacity:1;" d="M 79.488281 127.441406 C 79.445312 128.019531 78.875 128.636719 77.777344 129.296875 C 76.675781 129.953125 76.035156 129.984375 75.847656 129.386719 C 75.785156 129.203125 75.640625 129.027344 75.414062 128.863281 C 75.144531 128.675781 74.9375 128.675781 74.792969 128.863281 L 71.898438 131.765625 C 70.820312 132.734375 69.671875 133.445312 68.445312 133.898438 C 66.664062 134.597656 64.582031 135.03125 62.195312 135.195312 L 60.421875 135.195312 C 59.574219 135.089844 59.066406 134.84375 58.898438 134.453125 C 58.589844 133.773438 59.046875 132.835938 60.269531 131.640625 L 62.878906 129.449219 C 63.773438 128.730469 64.984375 127.875 66.519531 126.886719 C 68.570312 127.914062 70.75 128.121094 73.050781 127.503906 C 75.164062 126.925781 77.03125 125.765625 78.648438 124.015625 C 79.3125 125.269531 79.589844 126.414062 79.488281 127.441406 M 94.039062 130.40625 L 91.179688 133.339844 C 90.082031 134.289062 88.921875 135 87.695312 135.472656 C 85.789062 136.191406 83.707031 136.613281 81.445312 136.738281 C 79.558594 136.882812 78.460938 136.636719 78.148438 135.996094 C 77.839844 135.339844 78.292969 134.402344 79.519531 133.1875 C 79.972656 132.734375 80.855469 132.003906 82.160156 130.992188 C 83.40625 130.027344 84.609375 129.183594 85.769531 128.460938 C 87.820312 129.492188 90 129.695312 92.300781 129.078125 C 94.433594 128.503906 96.3125 127.339844 97.929688 125.589844 C 98.300781 126.390625 98.550781 127.101562 98.675781 127.71875 C 99.007812 129.039062 98.558594 130.046875 97.335938 130.746094 C 96.984375 130.953125 96.589844 131.105469 96.15625 131.210938 C 95.554688 131.375 95.210938 131.292969 95.128906 130.964844 L 94.695312 130.40625 C 94.425781 130.242188 94.207031 130.242188 94.039062 130.40625 M 41.265625 106.964844 C 41.597656 106.945312 41.796875 107.046875 41.859375 107.273438 L 41.890625 107.738281 C 41.867188 108.273438 41.609375 108.53125 41.113281 108.511719 L 38.125 108.292969 L 35.824219 107.921875 L 34.582031 107.644531 C 32.363281 107.007812 30.425781 106.03125 28.765625 104.710938 C 28.371094 104.402344 28.320312 104.042969 28.609375 103.628906 C 28.902344 103.199219 29.253906 103.125 29.667969 103.414062 C 31.222656 104.671875 33.058594 105.585938 35.171875 106.164062 L 35.359375 106.195312 C 36.976562 106.605469 38.945312 106.863281 41.265625 106.964844 M 24.503906 106.039062 C 24.234375 105.628906 24.296875 105.246094 24.691406 104.898438 C 25.085938 104.566406 25.429688 104.609375 25.71875 105.019531 C 27.210938 107.265625 29.398438 109.167969 32.28125 110.734375 C 34.269531 111.785156 36.996094 112.835938 40.457031 113.882812 C 40.957031 114.089844 41.121094 114.410156 40.957031 114.839844 C 40.75 115.355469 40.417969 115.542969 39.960938 115.398438 C 36.375 114.328125 33.503906 113.195312 31.347656 112 C 28.363281 110.394531 26.082031 108.40625 24.503906 106.039062 M 60.421875 86.675781 L 62.320312 87.386719 L 60.144531 88.929688 L 60.421875 86.675781 M 77.339844 89.824219 C 80.203125 89.824219 83.457031 89.414062 87.105469 88.589844 L 93.980469 86.613281 C 94.910156 98.597656 95.835938 109.332031 96.746094 118.824219 L 97.273438 124.074219 C 95.761719 125.847656 94.007812 127.050781 92.019531 127.6875 C 89.820312 128.410156 87.75 128.253906 85.800781 127.226562 C 84.992188 126.382812 84.191406 125.3125 83.40625 124.015625 L 81.570312 120.460938 L 80.109375 117.003906 L 79.953125 116.601562 C 77.714844 110.652344 76.191406 103.332031 75.382812 94.644531 C 75.339844 94.292969 75.113281 94.046875 74.699219 93.902344 C 74.28125 93.757812 74.097656 93.902344 74.136719 94.335938 C 74.925781 103.105469 76.5 110.578125 78.863281 116.757812 C 78.824219 118.917969 78.605469 120.6875 78.210938 122.070312 L 78.148438 122.378906 C 76.65625 124.148438 74.925781 125.375 72.957031 126.050781 C 70.757812 126.8125 68.675781 126.710938 66.707031 125.742188 C 65.296875 122.367188 63.9375 118.199219 62.632812 113.234375 C 60.847656 106.316406 59.945312 99.976562 59.925781 94.210938 C 62.476562 92.707031 64.972656 90.894531 67.421875 88.777344 C 70.757812 89.476562 74.066406 89.824219 77.339844 89.824219 M 79.050781 76.144531 L 86.328125 75.925781 L 92.921875 75.15625 C 92.753906 78.410156 92.785156 81.773438 93.015625 85.253906 C 91.046875 86.097656 88.589844 86.851562 85.644531 87.507812 C 82.574219 88.210938 79.859375 88.601562 77.496094 88.683594 C 75.464844 88.765625 72.542969 88.394531 68.726562 87.570312 C 72.128906 84.421875 75.476562 80.589844 78.773438 76.082031 L 79.050781 76.144531 M 90 45.382812 L 90.777344 45.722656 C 86.816406 54.617188 82.730469 62.316406 78.523438 68.824219 C 78.523438 64.664062 78.625 61.628906 78.832031 59.714844 C 79.101562 56.953125 79.558594 54 80.203125 50.851562 C 80.304688 50.375 80.449219 50.058594 80.636719 49.890625 C 80.84375 49.707031 81.144531 49.59375 81.539062 49.550781 C 82.453125 49.449219 83.644531 49.109375 85.117188 48.535156 C 87.25 47.6875 88.878906 46.640625 90 45.382812 M 63.347656 44.488281 C 64.03125 43.808594 64.972656 43.179688 66.175781 42.605469 L 67.667969 43.5 C 68.207031 45.167969 69.195312 46.484375 70.625 47.453125 C 72.011719 48.398438 73.566406 48.875 75.289062 48.875 C 79.332031 48.851562 82.328125 46.699219 84.277344 42.417969 C 85.707031 43.058594 87.261719 43.890625 88.941406 44.921875 C 87.945312 45.929688 86.535156 46.792969 84.710938 47.515625 C 83.324219 48.050781 82.222656 48.359375 81.414062 48.441406 C 80.171875 48.585938 79.414062 49.316406 79.144531 50.632812 C 78.523438 53.371094 78.046875 56.367188 77.714844 59.621094 C 77.464844 62.277344 77.363281 65.902344 77.402344 70.492188 C 72.945312 77.140625 68.332031 82.433594 63.566406 86.367188 L 60.515625 85.53125 L 60.269531 85.191406 L 59.460938 74.136719 C 60.082031 74.382812 61.667969 74.710938 64.21875 75.125 L 65.152344 74.910156 C 65.398438 74.683594 65.503906 74.148438 65.460938 73.300781 L 65.429688 73.210938 C 65.390625 71.933594 65.378906 70.359375 65.398438 68.484375 C 65.421875 65.335938 65.566406 62.6875 65.835938 60.546875 C 66.125 58.324219 66.601562 55.820312 67.265625 53.042969 C 67.785156 50.902344 68.15625 49.511719 68.386719 48.875 C 68.550781 48.441406 68.5625 48.019531 68.414062 47.605469 C 68.269531 47.195312 68.011719 46.90625 67.636719 46.742188 L 67.234375 46.585938 L 67.203125 46.585938 C 66.769531 46.421875 66.136719 46.136719 65.304688 45.722656 C 64.289062 45.1875 63.636719 44.777344 63.347656 44.488281 M 70.375 37.816406 L 70.839844 37.570312 C 70.988281 37.445312 71.050781 37.300781 71.027344 37.136719 C 71.027344 36.972656 70.957031 36.839844 70.808594 36.734375 C 70.6875 36.613281 70.519531 36.550781 70.3125 36.550781 L 69.753906 36.582031 L 67.699219 36.488281 C 67.515625 36.46875 67.410156 36.5 67.390625 36.582031 L 67.578125 36.828125 L 68.507812 37.539062 C 69.027344 37.847656 69.648438 37.941406 70.375 37.816406 M 68.601562 20.921875 L 68.726562 19.132812 C 67.960938 18.824219 67.171875 18.660156 66.363281 18.636719 C 64.746094 18.636719 63.867188 19.390625 63.71875 20.890625 C 64.734375 20.128906 65.855469 19.902344 67.078125 20.210938 C 67.699219 20.378906 68.207031 20.613281 68.601562 20.921875 M 73.515625 19.101562 C 73.328125 19.019531 73.121094 19.152344 72.894531 19.503906 L 71.277344 21.757812 L 69.535156 23.515625 L 68.355469 24.597656 L 68.105469 25.03125 C 68.0625 25.238281 68.085938 25.410156 68.167969 25.554688 L 69.195312 27.78125 C 69.523438 28.292969 70.011719 28.4375 70.65625 28.210938 L 70.996094 27.996094 C 71.058594 27.871094 71.050781 27.738281 70.964844 27.59375 L 70.09375 25.925781 C 69.910156 25.554688 69.941406 25.207031 70.1875 24.875 L 71.867188 22.652344 C 72.511719 21.746094 73.082031 20.777344 73.578125 19.75 L 73.671875 19.316406 L 73.515625 19.101562 M 63.378906 11.6875 C 63.730469 12.140625 64.175781 12.492188 64.714844 12.738281 C 63.824219 13.789062 63.066406 14.828125 62.445312 15.859375 C 62.050781 14.847656 61.855469 14.109375 61.855469 13.632812 C 61.832031 12.789062 62 12.140625 62.351562 11.6875 C 62.683594 11.214844 63.027344 11.214844 63.378906 11.6875 M 69.253906 14.871094 L 69.472656 14.34375 L 69.472656 13.726562 C 69.472656 13.519531 69.402344 13.367188 69.253906 13.265625 C 69.109375 13.179688 68.945312 13.179688 68.757812 13.265625 L 66.175781 14.375 C 65.96875 14.457031 65.875 14.539062 65.898438 14.621094 L 66.238281 14.746094 L 68.695312 15.023438 L 69.253906 14.871094 M 90.402344 25.894531 C 90.050781 25.359375 89.605469 24.925781 89.066406 24.597656 C 88.898438 24.496094 88.742188 24.535156 88.597656 24.722656 C 88.453125 24.90625 88.503906 25.113281 88.753906 25.339844 L 88.847656 25.433594 L 89.84375 26.328125 L 90.652344 27.53125 C 90.941406 28.003906 91.128906 28.128906 91.210938 27.902344 C 91.273438 27.757812 91.210938 27.46875 91.023438 27.039062 C 90.859375 26.625 90.652344 26.246094 90.402344 25.894531 M 88.320312 27.070312 C 88.171875 27.253906 88.195312 27.417969 88.382812 27.5625 L 88.722656 27.964844 C 88.972656 28.292969 89.085938 28.550781 89.066406 28.738281 C 89.042969 28.964844 89.160156 29.085938 89.40625 29.105469 C 89.65625 29.128906 89.789062 28.984375 89.8125 28.675781 C 89.8125 28.34375 89.699219 28.015625 89.46875 27.6875 L 88.816406 26.976562 C 88.628906 26.832031 88.464844 26.863281 88.320312 27.070312 M 78.242188 32.566406 L 77.683594 32.9375 C 75.238281 33.78125 73.566406 34.273438 72.675781 34.417969 C 72.011719 34.542969 71.140625 34.542969 70.0625 34.417969 C 68.984375 34.296875 68.175781 34.101562 67.636719 33.832031 L 64.0625 31.949219 C 63.75 31.847656 63.585938 31.589844 63.566406 31.175781 C 63.542969 30.96875 63.617188 30.835938 63.78125 30.773438 C 63.90625 30.714844 64.0625 30.714844 64.25 30.773438 L 66.269531 31.453125 C 67.847656 31.90625 69.140625 32.175781 70.15625 32.257812 C 71.796875 32.382812 73.972656 32.125 76.6875 31.484375 L 77.371094 31.453125 C 77.683594 31.476562 77.953125 31.609375 78.179688 31.855469 C 78.410156 32.101562 78.429688 32.339844 78.242188 32.566406 M 77.03125 28.769531 C 76.96875 28.808594 76.957031 28.910156 77 29.078125 L 77.214844 30.09375 C 77.257812 30.261719 77.195312 30.414062 77.03125 30.558594 L 76.5 30.835938 C 73.535156 31.433594 71.347656 31.703125 69.941406 31.640625 L 66.363281 30.867188 L 64.375 30.1875 L 64 29.910156 C 63.917969 29.746094 63.886719 29.582031 63.90625 29.417969 L 64 28.984375 C 64.0625 28.59375 63.949219 28.53125 63.65625 28.796875 L 62.320312 30.003906 C 62.03125 30.269531 61.957031 30.589844 62.101562 30.960938 L 63.097656 33.183594 C 63.265625 33.511719 63.378906 33.503906 63.441406 33.152344 L 63.472656 32.84375 C 63.492188 32.679688 63.566406 32.554688 63.6875 32.472656 C 63.8125 32.410156 63.957031 32.410156 64.125 32.472656 L 65.898438 33.925781 C 67.308594 34.914062 68.644531 35.511719 69.910156 35.714844 C 71.171875 35.921875 72.933594 35.59375 75.195312 34.726562 L 78.179688 33.371094 C 78.574219 33.308594 78.863281 33.453125 79.050781 33.800781 L 78.863281 35.191406 L 79.113281 35.40625 L 79.332031 35.160156 L 80.328125 32.503906 C 80.472656 32.113281 80.378906 31.785156 80.046875 31.515625 L 77.308594 28.859375 C 77.1875 28.757812 77.09375 28.726562 77.03125 28.769531 M 76.6875 21.324219 C 78.429688 21.488281 79.734375 22.105469 80.605469 23.175781 C 81.042969 23.734375 81.300781 24.257812 81.382812 24.753906 L 83.21875 23.578125 C 82.785156 22.816406 82.183594 22.148438 81.414062 21.570312 C 79.878906 20.4375 78.304688 20.355469 76.6875 21.324219 M 81.601562 14.621094 L 81.136719 14.5 L 80.761719 14.714844 L 80.234375 15.210938 C 79.902344 15.582031 79.757812 15.828125 79.796875 15.949219 L 80.328125 16.289062 L 81.414062 16.96875 L 82.628906 17.925781 L 83.46875 18.484375 C 83.695312 17.988281 83.445312 17.195312 82.722656 16.105469 L 81.601562 14.621094 M 89.34375 18.113281 C 89.199219 18.296875 89.25 18.484375 89.5 18.667969 L 92.082031 21.171875 C 93.449219 22.960938 93.96875 24.816406 93.636719 26.730469 C 93.304688 25.183594 92.703125 23.722656 91.832031 22.34375 C 90.835938 20.882812 90.121094 20.039062 89.6875 19.8125 L 89.097656 19.84375 C 88.949219 20.007812 88.972656 20.171875 89.160156 20.335938 L 89.875 21.046875 L 91.210938 22.777344 C 91.769531 23.496094 92.269531 24.390625 92.703125 25.464844 L 93.449219 27.59375 L 93.199219 28.273438 C 92.765625 26.625 92.101562 25.195312 91.210938 23.980469 C 90.546875 23.117188 89.9375 22.519531 89.375 22.1875 C 89.148438 22.066406 89.003906 22.128906 88.941406 22.375 C 88.859375 22.640625 88.949219 22.890625 89.21875 23.117188 L 90.589844 24.476562 C 91.046875 25.132812 91.769531 26.480469 92.765625 28.519531 L 92.640625 28.738281 L 92.113281 28.796875 C 91.78125 28.921875 91.707031 29.160156 91.894531 29.507812 C 93.242188 30.910156 93.367188 32.402344 92.269531 33.988281 C 91.167969 35.550781 89.707031 36.085938 87.882812 35.59375 C 85.457031 38.621094 82.804688 40.769531 79.921875 42.046875 C 79.132812 42.398438 79.175781 42.605469 80.046875 42.664062 C 80.898438 42.726562 81.890625 42.480469 83.03125 41.925781 C 82.265625 44.414062 80.234375 46.074219 76.9375 46.898438 L 73.484375 47.082031 C 72.488281 46.855469 71.960938 46.382812 71.898438 45.660156 C 72.210938 45.785156 72.90625 45.773438 73.984375 45.628906 C 75.0625 45.484375 75.578125 45.320312 75.539062 45.136719 L 73.609375 44.949219 C 71.847656 44.722656 69.949219 43.960938 67.917969 42.664062 C 64.394531 40.441406 62.050781 37.125 60.890625 32.722656 C 59.769531 28.519531 59.957031 24.382812 61.449219 20.304688 C 62.382812 17.792969 63.855469 15.34375 65.867188 12.953125 C 66.675781 12.953125 67.546875 12.667969 68.476562 12.089844 L 70.3125 10.453125 C 71.410156 9.425781 72.136719 8.835938 72.488281 8.691406 C 72.925781 8.550781 73.472656 8.660156 74.136719 9.03125 L 75.101562 9.710938 C 75.660156 10.082031 76.292969 10.238281 77 10.175781 C 77.496094 10.15625 78.160156 9.988281 78.988281 9.679688 C 79.820312 9.394531 80.6875 9.453125 81.601562 9.867188 C 82.574219 10.320312 83.40625 11.082031 84.089844 12.152344 C 84.398438 12.644531 84.855469 12.933594 85.457031 13.015625 L 87.074219 12.863281 L 89.84375 12.707031 C 91.003906 12.726562 91.71875 13.40625 91.988281 14.746094 C 92.300781 16.167969 91.523438 17.21875 89.65625 17.894531 L 89.34375 18.113281 M 38.3125 47.296875 L 39.152344 49.121094 C 39.898438 50.171875 41.226562 50.878906 43.132812 51.25 C 42.96875 51.847656 43.007812 52.683594 43.257812 53.753906 L 43.660156 55.144531 L 44.78125 53.195312 C 45.695312 51.753906 46.523438 50.738281 47.269531 50.140625 C 48.929688 48.820312 51.207031 47.617188 54.109375 46.527344 C 56.679688 45.558594 59.160156 44.878906 61.542969 44.488281 L 63.597656 45.785156 C 64.902344 46.710938 65.980469 47.320312 66.828125 47.605469 L 66.921875 47.667969 L 67.171875 47.761719 C 67.421875 47.863281 67.484375 48.121094 67.359375 48.535156 C 67.089844 49.253906 66.695312 50.726562 66.175781 52.949219 C 65.511719 55.75 65.035156 58.242188 64.746094 60.421875 C 64.476562 62.585938 64.320312 65.261719 64.28125 68.453125 L 64.34375 73.273438 L 64.375 74.042969 C 61.324219 73.507812 59.613281 73.148438 59.242188 72.960938 L 58.246094 57.675781 L 57.78125 57.769531 L 57.3125 64.6875 C 55.34375 65.160156 53.65625 65.425781 52.246094 65.488281 C 47.828125 65.695312 43.621094 64.5625 39.617188 62.089844 C 36.945312 60.421875 34.914062 58.632812 33.523438 56.71875 L 33.367188 56.5 C 32.972656 55.988281 32.757812 55.585938 32.714844 55.296875 C 32.464844 52.3125 33.140625 50.222656 34.738281 49.027344 C 36.292969 47.875 37.484375 47.296875 38.3125 47.296875 M 25.28125 50.230469 C 24.992188 49.347656 24.949219 48.667969 25.160156 48.195312 C 25.28125 47.863281 25.636719 47.460938 26.214844 46.988281 L 26.246094 46.957031 L 26.558594 46.898438 L 26.835938 46.925781 C 27.335938 47.339844 27.636719 47.78125 27.738281 48.253906 C 27.738281 48.8125 27.855469 49.140625 28.082031 49.242188 L 28.363281 49.210938 C 28.589844 49.070312 28.671875 48.699219 28.609375 48.101562 C 28.484375 47.152344 28.226562 46.503906 27.832031 46.15625 L 27.242188 45.230469 L 26.929688 44.023438 C 26.929688 43.613281 27.003906 43.324219 27.148438 43.160156 L 27.769531 43.191406 C 28.332031 43.3125 28.890625 43.550781 29.449219 43.902344 C 30.15625 44.3125 30.664062 44.785156 30.972656 45.320312 L 30.972656 45.351562 L 31.003906 45.351562 C 31.171875 45.515625 31.328125 45.570312 31.472656 45.507812 C 31.617188 45.464844 31.71875 45.34375 31.78125 45.136719 L 31.78125 45.105469 C 31.761719 44.695312 31.492188 44.25 30.972656 43.777344 L 30.632812 43.34375 C 31.296875 43.34375 31.917969 43.457031 32.496094 43.683594 C 33.242188 43.972656 33.824219 44.324219 34.238281 44.734375 L 35.140625 46.03125 C 35.308594 46.21875 35.453125 46.300781 35.578125 46.277344 C 35.722656 46.238281 35.835938 46.042969 35.917969 45.691406 L 35.917969 45.628906 L 35.886719 45.597656 L 35.886719 45.507812 L 35.515625 44.300781 C 36.324219 44.609375 37.058594 45.15625 37.722656 45.9375 C 36.683594 46.207031 35.484375 46.84375 34.113281 47.855469 C 32.519531 49.046875 31.574219 50.902344 31.285156 53.414062 C 29.855469 53.351562 28.839844 53.167969 28.238281 52.855469 C 27.699219 52.628906 27.136719 52.289062 26.558594 51.839844 C 25.851562 51.261719 25.429688 50.726562 25.28125 50.230469 M 20.492188 38.929688 L 25.191406 43.871094 C 25.066406 44.695312 25.117188 45.476562 25.34375 46.21875 C 24.785156 46.464844 24.328125 46.875 23.976562 47.453125 L 18.003906 41.617188 C 19.105469 40.9375 19.914062 40.050781 20.429688 38.960938 L 20.492188 38.929688 M 79.765625 2.269531 C 81.050781 0.785156 81.953125 0.046875 82.472656 0.046875 C 83.074219 0.046875 83.832031 0.457031 84.742188 1.28125 L 85.457031 2.054688 L 86.328125 2.730469 C 87.34375 3.269531 88.214844 3.636719 88.941406 3.84375 C 90.101562 4.195312 91.085938 5.089844 91.894531 6.53125 L 93.355469 9 C 94.101562 9.453125 94.816406 10.371094 95.503906 11.75 C 95.980469 12.71875 96.375 13.757812 96.683594 14.871094 C 97.183594 16.785156 96.964844 19.152344 96.03125 21.972656 C 95.554688 23.394531 95.027344 24.617188 94.445312 25.648438 C 94.339844 23.855469 93.769531 22.273438 92.734375 20.890625 L 90.621094 18.574219 C 91.34375 18.207031 91.988281 17.761719 92.546875 17.246094 C 93.292969 16.570312 93.667969 15.941406 93.667969 15.363281 C 93.6875 14.4375 93.480469 13.644531 93.046875 12.984375 C 92.421875 12.058594 91.4375 11.585938 90.089844 11.566406 L 87.664062 12.027344 L 85.675781 12.246094 L 83.746094 9.589844 C 82.628906 8.023438 81.664062 7.355469 80.855469 7.582031 L 78.585938 8.507812 L 76.96875 9.1875 L 75.816406 9.15625 L 75.070312 8.601562 L 73.796875 7.828125 L 72.023438 8.011719 C 71.589844 8.179688 70.800781 8.773438 69.660156 9.804688 L 67.886719 11.410156 C 67.140625 11.863281 66.4375 12.101562 65.773438 12.121094 C 64.984375 12.140625 64.363281 11.863281 63.90625 11.289062 C 63.265625 10.464844 62.902344 9.453125 62.816406 8.261719 C 62.734375 7.085938 62.921875 6.089844 63.378906 5.265625 C 63.730469 4.585938 64.21875 4.039062 64.839844 3.628906 C 64.632812 4.390625 64.757812 5.007812 65.210938 5.480469 C 65.8125 6.140625 66.558594 6.480469 67.453125 6.5 C 68.34375 6.519531 69.164062 6.222656 69.910156 5.605469 C 72.023438 3.792969 73.464844 2.855469 74.230469 2.792969 C 74.851562 2.730469 75.660156 2.949219 76.65625 3.441406 C 77.445312 3.832031 78.035156 3.886719 78.429688 3.597656 L 79.765625 2.269531 M 123.675781 58.417969 L 125.171875 57.828125 C 125.75 57.664062 126.277344 57.429688 126.757812 57.121094 L 127.503906 56.75 C 127.128906 58.109375 126.425781 59.117188 125.386719 59.773438 L 125.386719 59.746094 C 124.992188 59.929688 124.601562 60.03125 124.207031 60.054688 L 122.308594 59.714844 L 122.246094 59.527344 C 122.226562 59.261719 122.328125 59.054688 122.558594 58.910156 L 123.675781 58.417969 M 121.75 56.191406 C 121.644531 55.738281 121.707031 55.410156 121.9375 55.203125 C 122.121094 55.039062 122.546875 54.875 123.210938 54.710938 L 123.957031 54.492188 L 124.734375 54.125 L 126.351562 53.136719 C 126.664062 53.054688 127.027344 52.753906 127.441406 52.238281 L 127.8125 51.839844 C 127.9375 52.476562 127.90625 53.105469 127.71875 53.722656 C 127.449219 54.832031 126.933594 55.6875 126.164062 56.285156 L 124.828125 56.964844 C 124 57.171875 123.273438 57.179688 122.652344 56.996094 C 122.132812 56.832031 121.832031 56.5625 121.75 56.191406 M 126.226562 52.117188 L 126.195312 52.054688 L 124.394531 53.257812 L 122.089844 53.414062 C 121.367188 53.144531 120.972656 52.691406 120.910156 52.054688 C 120.847656 51.519531 121.34375 51.003906 122.402344 50.511719 L 122.835938 50.417969 C 123.792969 50.171875 124.414062 49.839844 124.703125 49.429688 C 124.847656 49.183594 125.128906 48.945312 125.542969 48.71875 C 125.9375 48.492188 126.320312 48.347656 126.695312 48.285156 L 127.566406 48.378906 L 127.625 48.996094 L 127.222656 50.539062 C 126.953125 51.199219 126.621094 51.726562 126.226562 52.117188 M 107.691406 57.488281 C 110.203125 55.925781 112.148438 54.886719 113.539062 54.371094 L 113.820312 55.914062 C 114.027344 57.191406 114.429688 58.292969 115.03125 59.21875 C 115.738281 60.289062 116.742188 61.050781 118.046875 61.503906 L 120.039062 62.183594 L 119.945312 62.585938 C 119.117188 64.253906 117.757812 65.839844 115.871094 67.34375 C 112.742188 69.8125 109.007812 71.089844 104.675781 71.171875 C 103.660156 71.191406 101.609375 70.851562 98.519531 70.152344 L 94.226562 69.070312 L 93.046875 70.308594 L 93.511719 70.492188 L 93.109375 72.777344 L 92.984375 74.011719 L 86.234375 74.847656 L 79.488281 75.0625 C 84.667969 67.734375 89.71875 58.644531 94.632812 47.792969 C 97.492188 49.6875 100.054688 51.726562 102.3125 53.90625 L 104.832031 56.59375 C 104.4375 56.839844 104.042969 57.242188 103.648438 57.796875 C 102.902344 58.910156 102.570312 60.226562 102.65625 61.75 C 103.070312 60.761719 104.75 59.34375 107.691406 57.488281 M 120.007812 47.175781 L 122.929688 46.957031 C 123.34375 46.980469 123.605469 47.175781 123.707031 47.546875 C 123.855469 48.058594 123.699219 48.605469 123.242188 49.183594 C 122.597656 49.347656 121.988281 49.613281 121.40625 49.984375 C 120.371094 50.625 119.894531 51.34375 119.976562 52.148438 C 120.019531 52.414062 120.089844 52.640625 120.195312 52.828125 C 120.195312 54.371094 119.84375 55.316406 119.136719 55.667969 L 119.261719 56.53125 L 119.789062 56.222656 L 120.816406 55.421875 C 120.753906 55.730469 120.765625 56.058594 120.847656 56.410156 C 120.972656 56.882812 121.25 57.273438 121.6875 57.582031 L 121.90625 57.921875 L 121.84375 58.261719 C 121.46875 58.613281 121.292969 59.035156 121.3125 59.527344 L 121.160156 59.496094 L 121.003906 60.238281 L 118.824219 59.527344 C 117.871094 59.15625 117.085938 58.683594 116.460938 58.109375 C 115.15625 56.894531 114.648438 55.328125 114.9375 53.414062 L 116.027344 51.160156 L 117.238281 48.535156 C 117.777344 47.730469 118.703125 47.277344 120.007812 47.175781 M 124.019531 42.511719 L 124.175781 42.542969 C 125.230469 42.953125 126.382812 43.210938 127.625 43.3125 L 127.003906 46.585938 C 126.425781 46.566406 125.761719 46.730469 125.015625 47.082031 C 124.992188 46.503906 124.847656 46.113281 124.578125 45.910156 C 124.351562 45.722656 123.976562 45.628906 123.460938 45.628906 L 124.019531 42.511719 M 113.726562 1.621094 C 114.285156 1.621094 114.8125 1.722656 115.3125 1.929688 C 117.449219 2.792969 119.40625 5.441406 121.191406 9.867188 C 122.414062 12.933594 123.480469 16.652344 124.394531 21.015625 C 125.222656 24.925781 125.800781 28.789062 126.132812 32.597656 C 126.445312 36.324219 126.457031 39.414062 126.164062 41.863281 L 124.640625 41.398438 L 124.394531 41.335938 L 124.363281 41.335938 C 124.941406 35.632812 124.207031 28.355469 122.152344 19.503906 C 119.957031 10.09375 117.4375 4.8125 114.597656 3.660156 L 113.757812 3.472656 C 112.410156 3.472656 110.988281 4.738281 109.496094 7.273438 C 108.707031 8.589844 107.019531 12.789062 104.425781 19.871094 C 97.398438 38.878906 91.085938 53.339844 85.488281 63.265625 C 75.390625 81.117188 64.488281 92.089844 52.773438 96.1875 C 49.289062 97.382812 45.796875 97.980469 42.292969 97.980469 L 42.261719 97.980469 C 39.816406 98 37.152344 97.671875 34.269531 96.992188 C 32.195312 96.496094 30.363281 95.910156 28.765625 95.230469 C 26.132812 94.117188 23.832031 92.976562 21.863281 91.800781 L 21.332031 91.492188 C 16.75 88.734375 12.8125 84.800781 9.515625 79.695312 C 6.21875 74.570312 3.773438 68.578125 2.175781 61.722656 C 0.726562 55.523438 0.113281 49.429688 0.34375 43.4375 C 0.570312 37.425781 1.574219 33.039062 3.359375 30.28125 C 4.746094 28.160156 6.332031 27.101562 8.117188 27.101562 L 8.304688 27.128906 C 10.167969 27.191406 12.109375 28.40625 14.117188 30.773438 C 15.632812 32.566406 17.320312 35.191406 19.1875 38.652344 C 18.792969 39.308594 18.359375 39.8125 17.882812 40.164062 C 14.023438 32.8125 10.800781 29.078125 8.210938 28.953125 L 8.148438 28.953125 C 7.007812 28.953125 5.941406 29.726562 4.945312 31.269531 C 3.410156 33.65625 2.507812 37.578125 2.238281 43.035156 C 1.949219 48.964844 2.539062 55.050781 4.011719 61.289062 C 5.546875 67.898438 7.886719 73.664062 11.039062 78.582031 C 14.191406 83.503906 17.945312 87.28125 22.296875 89.917969 L 25.6875 91.800781 C 29.128906 93.550781 32.726562 94.820312 36.476562 95.601562 C 38.757812 96.074219 42.167969 96.136719 46.710938 95.785156 C 48.535156 95.519531 50.347656 95.066406 52.152344 94.425781 C 63.511719 90.472656 74.136719 79.683594 84.027344 62.0625 C 89.542969 52.238281 95.75 37.960938 102.65625 19.222656 L 105.671875 11.195312 C 106.582031 8.867188 107.320312 7.242188 107.878906 6.316406 C 109.746094 3.183594 111.695312 1.621094 113.726562 1.621094 "/>
</g>
</svg>
