<?xml version="1.0" encoding="UTF-8"?>
<svg xmlns="http://www.w3.org/2000/svg" xmlns:xlink="http://www.w3.org/1999/xlink" width="128pt" height="94pt" viewBox="0 0 128 94" version="1.1">
<g id="surface1">
<path style=" stroke:none;fill-rule:nonzero;fill:rgb(100%,100%,100%);fill-opacity:1;" d="M 2.621094 14.113281 L 2.347656 2.878906 C 2.347656 2.054688 2.621094 1.371094 3.167969 0.820312 C 3.621094 0.273438 4.257812 0 5.078125 0 C 5.804688 0 6.441406 0.273438 6.988281 0.820312 L 7.804688 2.742188 L 8.078125 14.113281 C 7.894531 28.636719 7.03125 38.367188 5.488281 43.300781 L 4.257812 44.945312 L 2.078125 45.082031 L 0.574219 43.847656 C 0.210938 43.117188 0.121094 42.386719 0.304688 41.65625 C 1.667969 36.996094 2.441406 27.816406 2.621094 14.113281 M 81.320312 91.257812 C 80.867188 91.808594 80.277344 92.171875 79.550781 92.355469 C 73.183594 93.453125 66.136719 93.542969 58.40625 92.628906 L 58.269531 92.628906 L 48.996094 90.984375 C 48.179688 90.800781 47.585938 90.4375 47.222656 89.890625 C 46.769531 89.25 46.632812 88.566406 46.8125 87.832031 C 46.90625 87.011719 47.269531 86.417969 47.90625 86.050781 C 48.449219 85.597656 49.132812 85.457031 49.953125 85.640625 L 59.226562 87.285156 L 59.089844 87.148438 C 66.183594 88.0625 72.683594 88.015625 78.59375 87.011719 L 80.640625 87.421875 C 81.1875 87.789062 81.550781 88.382812 81.730469 89.203125 L 81.320312 91.257812 M 127.96875 28.226562 L 127.425781 30.28125 L 125.652344 31.242188 L 123.605469 30.695312 L 122.511719 28.914062 C 122.148438 26.171875 121.421875 23.292969 120.332031 20.28125 C 118.148438 14.617188 115.195312 11.097656 111.464844 9.730469 C 110.738281 9.453125 110.191406 9 109.828125 8.359375 C 109.464844 7.71875 109.417969 7.035156 109.691406 6.304688 L 111.054688 4.660156 L 113.101562 4.523438 C 118.285156 6.074219 122.378906 10.640625 125.378906 18.222656 C 126.742188 21.695312 127.605469 25.03125 127.96875 28.226562 "/>
</g>
</svg>
