<?xml version="1.0" encoding="UTF-8"?>
<svg xmlns="http://www.w3.org/2000/svg" xmlns:xlink="http://www.w3.org/1999/xlink" width="128pt" height="247pt" viewBox="0 0 128 247" version="1.1">
<g id="surface1">
<path style=" stroke:none;fill-rule:nonzero;fill:rgb(100%,100%,100%);fill-opacity:1;" d="M 53.035156 235.761719 C 55.320312 240.171875 55.75 243.460938 54.328125 245.625 L 54.214844 245.90625 L 52.132812 246.46875 C 50.445312 246.730469 48.515625 246.226562 46.339844 244.953125 C 45.027344 244.242188 43.324219 243.011719 41.222656 241.253906 L 52.863281 235.871094 L 53.035156 235.761719 M 51.796875 230.042969 C 49.398438 226.117188 46.921875 222.53125 44.371094 219.277344 C 48.234375 220.585938 51.890625 223.222656 55.339844 227.183594 C 58.113281 230.359375 60.570312 234.152344 62.707031 238.5625 L 61.414062 240.078125 L 57.421875 243.945312 C 57.53125 241.925781 56.875 239.441406 55.453125 236.488281 C 54.8125 235.105469 53.597656 232.957031 51.796875 230.042969 M 24.800781 221.6875 C 23.339844 218.8125 23.019531 216.605469 23.84375 215.074219 C 24.632812 213.652344 26.375 213.019531 29.074219 213.167969 C 31.0625 213.28125 32.992188 213.710938 34.867188 214.457031 C 37.082031 215.355469 39.160156 216.585938 41.109375 218.15625 C 43.660156 221.335938 46.246094 224.921875 48.871094 228.921875 L 51.796875 233.519531 L 39.03125 239.347656 C 35.28125 235.984375 31.8125 232.097656 28.625 227.6875 C 26.636719 224.847656 25.363281 222.847656 24.800781 221.6875 M 11.417969 146.175781 L 10.460938 146.511719 L 11.640625 153.070312 C 12.390625 156.847656 12.542969 158.882812 12.089844 159.183594 C 11.792969 159.332031 11.078125 159.070312 9.953125 158.398438 C 7.554688 156.976562 6.054688 154.136719 5.457031 149.875 C 5.230469 148.195312 5.191406 145.914062 5.34375 143.035156 C 5.34375 142.476562 5.023438 142.175781 4.386719 142.140625 C 3.710938 142.101562 3.28125 142.328125 3.09375 142.8125 C 2.53125 144.082031 2.550781 146.605469 3.148438 150.378906 C 3.9375 155.3125 5.8125 158.640625 8.773438 160.359375 C 10.386719 161.292969 11.699219 161.613281 12.710938 161.3125 L 12.878906 161.816406 L 14.171875 164.285156 C 14.398438 164.582031 14.472656 164.976562 14.398438 165.460938 C 14.320312 166.023438 14.078125 166.414062 13.667969 166.636719 C 12.578125 167.273438 10.855469 166.675781 8.492188 164.84375 L 7.367188 163.949219 L 6.410156 162.824219 C 4.875 160.84375 3.5625 158.753906 2.472656 156.546875 C 0.863281 153.222656 0.0546875 150.0625 0.0546875 147.074219 C 0.0195312 142.851562 1.820312 137.582031 5.457031 131.265625 C 6.691406 135.75 8.980469 138.832031 12.316406 140.515625 L 14.058594 141.300781 C 14.058594 143.019531 13.628906 144.34375 12.765625 145.28125 L 11.417969 146.175781 M 12.992188 147.96875 C 14.789062 147.109375 15.785156 145.109375 15.972656 141.972656 C 17.171875 142.382812 18.257812 142.589844 19.234375 142.589844 L 19.007812 144.496094 L 17.996094 147.242188 L 16.535156 149.484375 L 19.796875 154.359375 C 21.632812 157.3125 22.289062 159.015625 21.765625 159.460938 C 20.976562 160.136719 19.890625 159.742188 18.503906 158.285156 L 16.085938 155.59375 L 15.746094 155.59375 C 15.671875 155.855469 16.289062 157.109375 17.601562 159.351562 C 18.765625 161.40625 18.972656 162.75 18.222656 163.386719 C 17.132812 164.285156 15.484375 163.515625 13.273438 161.089844 L 13.441406 160.976562 C 14.265625 160.378906 14.640625 159.238281 14.566406 157.554688 L 13.835938 152.625 L 12.992188 147.96875 M 37.003906 85.40625 L 37.175781 86.863281 C 37.960938 89.855469 40.8125 92.171875 45.722656 93.816406 C 45.871094 94.527344 45.554688 97.03125 44.765625 101.328125 C 43.867188 106.449219 43.417969 109.941406 43.417969 111.8125 C 43.492188 116.894531 44.015625 123.640625 44.992188 132.050781 C 45.554688 136.871094 45.777344 139.65625 45.667969 140.402344 C 41.917969 140.289062 38.597656 138.703125 35.710938 135.636719 L 35.65625 134.234375 C 35.503906 131.542969 34.773438 127.414062 33.460938 121.847656 L 31.886719 115.511719 L 30.539062 109.234375 C 29.902344 108.410156 28.945312 106.878906 27.667969 104.636719 C 27.933594 107.476562 28.550781 110.914062 29.527344 114.949219 L 32.054688 125.210938 C 27.105469 130.070312 23.078125 135.039062 19.964844 140.121094 C 18.578125 140.457031 16.273438 139.824219 13.046875 138.214844 C 10.984375 137.167969 9.46875 135.261719 8.492188 132.496094 C 7.929688 131.003906 7.574219 129.378906 7.421875 127.621094 C 7.421875 127.097656 7.6875 126.3125 8.210938 125.265625 L 8.4375 124.816406 C 10.386719 120.742188 12.765625 116.425781 15.578125 111.867188 C 20.152344 104.429688 25.101562 97.757812 30.425781 91.855469 C 32.414062 89.6875 34.605469 87.539062 37.003906 85.40625 M 51.628906 71.28125 C 52.414062 71.019531 52.753906 70.550781 52.640625 69.878906 C 52.527344 69.316406 52.113281 69.039062 51.402344 69.039062 L 51.175781 69.039062 L 46.453125 69.597656 C 46.117188 69.636719 45.929688 69.730469 45.890625 69.878906 L 46.285156 70.269531 L 48.195312 71.28125 L 49.714844 71.558594 L 51.628906 71.28125 M 38.523438 60.347656 L 38.691406 60.347656 L 41.785156 60.910156 L 48.085938 61.414062 L 49.660156 61.359375 C 52.621094 61.132812 56.445312 60.066406 61.132812 58.160156 L 62.425781 57.9375 C 62.949219 57.9375 63.4375 58.105469 63.886719 58.441406 C 64.375 58.816406 64.488281 59.226562 64.226562 59.675781 L 63.269531 60.460938 C 59.144531 62.664062 56.3125 64.03125 54.777344 64.554688 L 49.152344 65.28125 L 45.609375 64.890625 L 38.636719 62.535156 C 38.148438 62.421875 37.792969 62.011719 37.566406 61.300781 C 37.417969 60.667969 37.738281 60.347656 38.523438 60.347656 M 37.511719 56.648438 C 37.4375 56.648438 37.304688 56.742188 37.117188 56.929688 L 35.035156 59.453125 C 34.585938 60.050781 34.550781 60.667969 34.925781 61.300781 L 37.34375 65 L 37.679688 65.335938 C 37.832031 65.335938 37.90625 65.167969 37.90625 64.832031 L 37.90625 64.273438 C 37.832031 63.710938 38.074219 63.433594 38.636719 63.433594 L 38.917969 63.433594 L 42.460938 65.507812 C 45.308594 66.890625 47.898438 67.597656 50.222656 67.636719 L 50.277344 67.636719 C 52.566406 67.636719 55.601562 66.550781 59.386719 64.382812 C 61.261719 63.300781 62.914062 62.21875 64.335938 61.132812 L 64.789062 61.078125 C 65.3125 61.078125 65.707031 61.265625 65.96875 61.636719 L 66.023438 64.214844 L 66.472656 64.554688 L 66.867188 64.046875 L 67.878906 58.945312 C 67.992188 58.238281 67.75 57.675781 67.148438 57.265625 L 61.527344 53.285156 L 61.132812 53.171875 C 60.832031 53.171875 60.777344 53.359375 60.964844 53.734375 L 61.695312 55.527344 C 61.808594 55.789062 61.730469 56.085938 61.46875 56.425781 L 60.625 57.039062 C 55.488281 58.945312 51.664062 60.050781 49.152344 60.347656 L 47.578125 60.40625 L 41.730469 59.84375 L 38.75 59.285156 L 38.015625 58.835938 C 37.792969 58.574219 37.699219 58.292969 37.738281 57.992188 L 37.738281 57.210938 C 37.8125 56.835938 37.738281 56.648438 37.511719 56.648438 M 39.761719 36.636719 C 39.199219 36.636719 38.710938 37.007812 38.296875 37.757812 C 37.886719 38.464844 37.660156 39.34375 37.625 40.390625 C 37.585938 41.4375 37.753906 42.351562 38.128906 43.136719 C 38.503906 43.886719 38.972656 44.257812 39.535156 44.257812 L 39.59375 44.257812 C 40.15625 44.257812 40.640625 43.902344 41.054688 43.195312 C 41.46875 42.445312 41.691406 41.550781 41.730469 40.503906 C 41.765625 39.457031 41.578125 38.558594 41.167969 37.8125 C 40.792969 37.066406 40.324219 36.671875 39.761719 36.636719 M 30.875 25.871094 L 31.773438 26.320312 C 32.601562 27.066406 33.480469 27.570312 34.417969 27.832031 C 33.144531 30.039062 32.09375 32.113281 31.269531 34.054688 C 30.257812 32.410156 29.695312 31.140625 29.582031 30.246094 C 29.394531 29.085938 29.433594 28.058594 29.695312 27.160156 C 29.957031 26.300781 30.351562 25.871094 30.875 25.871094 M 37.0625 30.859375 L 37.625 31.027344 L 42.234375 30.859375 L 43.191406 30.414062 C 43.417969 30.152344 43.492188 29.832031 43.417969 29.460938 L 43.191406 28.339844 C 43.152344 27.777344 42.890625 27.496094 42.402344 27.496094 L 41.84375 27.664062 L 37.511719 30.355469 C 37.210938 30.542969 37.0625 30.710938 37.0625 30.859375 M 63.550781 36.523438 L 63.492188 36.523438 C 62.929688 36.523438 62.445312 36.898438 62.03125 37.644531 C 61.621094 38.355469 61.394531 39.234375 61.355469 40.277344 C 61.320312 41.324219 61.507812 42.242188 61.917969 43.027344 C 62.292969 43.773438 62.761719 44.148438 63.324219 44.148438 C 63.886719 44.148438 64.375 43.773438 64.789062 43.027344 C 65.199219 42.316406 65.425781 41.4375 65.460938 40.390625 C 65.539062 39.382812 65.367188 38.484375 64.957031 37.699219 C 64.582031 36.953125 64.113281 36.558594 63.550781 36.523438 M 64.5625 26.375 C 64.148438 26.375 63.851562 26.5625 63.664062 26.9375 L 62.875 28 C 62.351562 28.75 62.164062 29.234375 62.3125 29.460938 L 63.382812 29.90625 L 65.519531 30.804688 L 67.878906 32.148438 C 68.742188 32.671875 69.304688 32.933594 69.566406 32.933594 C 69.832031 32 69.175781 30.65625 67.597656 28.898438 L 65.125 26.542969 L 64.5625 26.375 M 51.964844 36.804688 L 51.910156 36.804688 C 51.535156 36.804688 51.214844 37.121094 50.953125 37.757812 L 48.703125 42.242188 L 44.261719 48.128906 C 43.808594 48.652344 43.792969 49.25 44.203125 49.921875 L 46.679688 53.621094 C 47.089844 54.070312 47.597656 54.292969 48.195312 54.292969 L 49.433594 53.957031 L 49.996094 53.507812 C 50.070312 53.285156 50.015625 53.042969 49.828125 52.78125 L 47.746094 50.035156 C 47.335938 49.433594 47.296875 48.800781 47.632812 48.128906 L 49.996094 43.640625 C 50.933594 41.847656 51.683594 39.960938 52.246094 37.980469 C 52.433594 37.269531 52.339844 36.878906 51.964844 36.804688 M 82.390625 227.96875 L 84.863281 224.210938 C 89.328125 226.265625 93.714844 226.003906 98.023438 223.425781 C 101.960938 221.074219 104.773438 217.539062 106.460938 212.832031 L 107.191406 215.410156 C 107.378906 217.203125 106.984375 219.316406 106.011719 221.746094 C 105.410156 223.277344 104.4375 225.222656 103.085938 227.574219 C 100.347656 232.472656 96.5625 236.285156 91.726562 239.011719 C 85.839844 242.226562 81.734375 242.691406 79.410156 240.414062 C 78.210938 239.21875 77.910156 237.574219 78.507812 235.480469 C 78.808594 234.472656 79.597656 232.808594 80.871094 230.492188 C 83.269531 229.96875 86.121094 230.527344 89.421875 232.171875 C 90.207031 232.546875 90.621094 232.359375 90.65625 231.613281 C 90.695312 230.902344 90.394531 230.378906 89.757812 230.042969 C 87.09375 228.769531 84.640625 228.078125 82.390625 227.96875 M 84.695312 221.855469 L 79.523438 215.632812 C 83.308594 207.5625 86.625 198.722656 89.476562 189.117188 C 92.324219 191.359375 95.082031 194.332031 97.742188 198.03125 C 99.691406 200.761719 101.832031 204.234375 104.15625 208.457031 L 104.886719 209.691406 L 104.773438 209.972656 C 103.535156 214.605469 101.042969 218.214844 97.292969 220.792969 C 93.167969 223.632812 88.96875 223.988281 84.695312 221.855469 M 93.074219 149.035156 C 93.414062 154.789062 93.039062 161.050781 91.949219 167.816406 C 91.089844 173.160156 89.683594 179.269531 87.734375 186.148438 C 83.722656 200.460938 78.210938 213.785156 71.199219 226.117188 C 68.800781 230.339844 66.417969 233.949219 64.054688 236.9375 C 61.65625 232.226562 58.902344 228.191406 55.789062 224.828125 C 52.003906 220.753906 47.992188 218.082031 43.753906 216.8125 C 45.480469 214.160156 47.015625 210.382812 48.367188 205.488281 C 49.753906 200.367188 50.914062 194.050781 51.851562 186.539062 C 52.976562 177.757812 53.652344 169.421875 53.878906 161.535156 C 53.914062 160.9375 53.558594 160.414062 52.808594 159.96875 C 52.058594 159.554688 51.664062 159.707031 51.628906 160.414062 C 51.441406 166.28125 51.046875 172.132812 50.445312 177.960938 C 46.472656 174 43.210938 169.589844 40.660156 164.730469 C 37.847656 159.5 36.160156 154.304688 35.597656 149.148438 C 37.886719 150.902344 40.71875 152.546875 44.089844 154.082031 C 51.101562 157.292969 58.9375 158.621094 67.597656 158.0625 C 76.261719 157.464844 83.851562 155.089844 90.375 150.941406 L 93.074219 149.035156 M 123.839844 159.800781 C 123.613281 159.574219 123.125 161.761719 122.375 166.359375 C 121.25 171.292969 119.675781 174.113281 117.652344 174.824219 L 116.976562 174.933594 L 116.753906 174.824219 L 117.765625 168.601562 C 118.363281 164.488281 118.25 162.320312 117.425781 162.097656 C 117.316406 162.058594 116.921875 163.929688 116.246094 167.703125 L 114.503906 175.441406 C 113.039062 179.402344 111.765625 181.195312 110.679688 180.820312 C 109.929688 180.597656 109.777344 178.316406 110.226562 173.980469 L 110.339844 172.972656 L 111.070312 162.378906 L 110.960938 161.816406 C 110.882812 161.667969 110.132812 161.929688 108.710938 162.601562 L 104.828125 164.339844 L 101.003906 164.789062 C 99.878906 164.640625 99.46875 164.171875 99.769531 163.386719 L 100.21875 162.824219 L 101.175781 162.210938 L 105.28125 159.125 C 106.066406 158.339844 106.816406 157.203125 107.527344 155.707031 L 116.300781 155.371094 C 120.3125 154.210938 123.332031 151.203125 125.355469 146.34375 C 126.257812 148.324219 126.820312 150.195312 127.042969 151.949219 C 127.679688 157.183594 127.4375 161.875 126.3125 166.023438 C 125.789062 168.039062 124.832031 169.046875 123.445312 169.046875 L 124.0625 164.957031 C 124.511719 162.078125 124.4375 160.359375 123.839844 159.800781 M 76.597656 115.230469 L 75.585938 116.183594 C 84.171875 123.398438 89.757812 128.722656 92.34375 132.160156 L 92.230469 133.785156 C 90.09375 135.320312 87.46875 136.703125 84.359375 137.933594 C 78.960938 140.066406 72.941406 141.410156 66.304688 141.972656 C 65.105469 139.617188 64.148438 132.796875 63.4375 121.511719 C 62.6875 109.4375 63.0625 101.496094 64.5625 97.683594 C 64.898438 96.824219 65.238281 96.339844 65.574219 96.226562 C 68.648438 95.964844 71.6875 94.957031 74.683594 93.199219 C 77.722656 91.480469 80.101562 89.367188 81.828125 86.863281 C 83.777344 84.0625 84.527344 81.277344 84.078125 78.511719 C 87.789062 81.425781 90.84375 84.082031 93.246094 86.472656 C 99.429688 92.5625 104.265625 98.488281 107.753906 104.242188 C 111.878906 111.046875 115.476562 118.539062 118.550781 126.722656 C 120.464844 131.730469 121.984375 136.402344 123.105469 140.738281 L 123.21875 141.1875 C 123.558594 142.421875 123.667969 143.242188 123.558594 143.652344 C 123.144531 145.261719 122.507812 146.792969 121.644531 148.25 C 120.109375 150.792969 118.234375 152.378906 116.019531 153.015625 C 113.921875 153.613281 112.179688 153.914062 110.789062 153.914062 L 108.878906 153.578125 L 105.5625 146.175781 C 102.261719 140.085938 96.617188 133.226562 88.632812 125.601562 C 83.160156 120.371094 79.148438 116.914062 76.597656 115.230469 M 81.378906 76.4375 C 81.601562 77.96875 81.566406 79.671875 81.265625 81.539062 C 80.964844 83.40625 80.535156 84.753906 79.972656 85.574219 C 78.472656 87.78125 76.335938 89.667969 73.5625 91.238281 C 70.824219 92.808594 68.085938 93.722656 65.351562 93.984375 C 62.460938 94.359375 60.945312 99.589844 60.792969 109.679688 C 60.71875 115.175781 61.039062 121.601562 61.75 128.964844 C 62.425781 135.320312 63.15625 139.671875 63.945312 142.027344 C 64.46875 143.523438 65.085938 144.269531 65.800781 144.269531 L 66.023438 144.214844 C 76.671875 143.390625 85.351562 140.851562 92.0625 136.589844 C 92.0625 139.167969 92.230469 141.449219 92.570312 143.429688 L 92.738281 144.886719 C 92.699219 145.222656 92.457031 145.632812 92.007812 146.121094 C 91.03125 147.128906 89.625 148.214844 87.789062 149.371094 C 84.527344 151.425781 80.234375 153.035156 74.910156 154.191406 C 64.976562 156.472656 55.789062 156.136719 47.351562 153.183594 C 42.742188 151.578125 38.765625 149.371094 35.429688 146.570312 L 35.769531 138.777344 C 38.878906 141.355469 42.308594 142.644531 46.058594 142.644531 C 46.621094 142.644531 47.035156 142.476562 47.296875 142.140625 C 47.746094 141.652344 47.953125 140.664062 47.914062 139.167969 L 47.242188 131.769531 C 46.265625 123.472656 45.742188 116.820312 45.667969 111.8125 C 45.667969 109.71875 46.117188 106.355469 47.015625 101.71875 L 48.027344 94.714844 C 48.066406 93.179688 47.710938 92.226562 46.960938 91.855469 L 46.789062 91.796875 C 42.402344 90.339844 39.929688 88.507812 39.367188 86.304688 C 39.066406 85.296875 39.199219 84.210938 39.761719 83.050781 L 43.640625 80.082031 C 44.878906 80.792969 46.472656 81.5 48.421875 82.210938 C 49.433594 84.230469 50.953125 85.761719 52.976562 86.808594 C 54.851562 87.78125 57.007812 88.265625 59.445312 88.265625 C 63.757812 88.265625 67.785156 86.957031 71.535156 84.34375 C 75.511719 81.578125 77.777344 78.210938 78.339844 74.25 L 81.378906 76.4375 M 80.871094 47.902344 L 81.660156 48.519531 C 82.144531 49.003906 82.410156 49.417969 82.445312 49.753906 C 82.445312 50.164062 82.671875 50.371094 83.121094 50.371094 C 83.570312 50.371094 83.777344 50.070312 83.738281 49.472656 C 83.703125 48.914062 83.421875 48.351562 82.894531 47.789062 L 81.546875 46.726562 L 81.210938 46.613281 C 80.910156 46.613281 80.722656 46.78125 80.648438 47.117188 C 80.535156 47.453125 80.609375 47.714844 80.871094 47.902344 M 85.820312 47.960938 L 86.046875 47.734375 C 86.121094 47.4375 85.933594 46.929688 85.484375 46.222656 L 84.078125 44.316406 C 83.289062 43.492188 82.371094 42.839844 81.320312 42.351562 L 81.152344 42.351562 C 80.816406 42.351562 80.589844 42.519531 80.476562 42.859375 C 80.367188 43.195312 80.535156 43.511719 80.984375 43.8125 L 83.175781 45.269531 L 84.695312 46.894531 C 85.257812 47.605469 85.632812 47.960938 85.820312 47.960938 M 79.746094 20.824219 C 81.773438 20.824219 83.140625 21.910156 83.851562 24.078125 C 84.601562 26.433594 83.476562 28.449219 80.476562 30.132812 L 79.972656 30.636719 C 79.785156 31.046875 79.933594 31.382812 80.421875 31.644531 C 82.785156 33.101562 84.546875 34.355469 85.707031 35.402344 C 88.632812 38.128906 90.09375 41.289062 90.09375 44.875 C 88.859375 42.035156 87.359375 39.585938 85.597656 37.53125 C 83.421875 35.175781 81.921875 33.871094 81.097656 33.609375 L 80.648438 33.496094 C 80.273438 33.496094 80.046875 33.644531 79.972656 33.945312 C 79.859375 34.242188 79.972656 34.484375 80.308594 34.671875 L 81.714844 35.792969 C 82.839844 36.726562 83.816406 37.625 84.640625 38.484375 C 86.328125 40.09375 88.109375 42.765625 89.984375 46.5 L 89.757812 47.734375 L 89.644531 47.679688 C 88.296875 44.765625 86.71875 42.429688 84.921875 40.671875 C 83.496094 39.25 82.257812 38.355469 81.210938 37.980469 L 80.984375 37.925781 C 80.609375 37.925781 80.421875 38.128906 80.421875 38.542969 C 80.421875 38.988281 80.683594 39.363281 81.210938 39.664062 L 83.964844 41.738281 C 85.351562 43.121094 87.019531 45.324219 88.96875 48.351562 L 88.800781 48.800781 C 88.464844 48.835938 88.164062 48.929688 87.902344 49.082031 C 87.375 49.34375 87.320312 49.773438 87.734375 50.371094 C 90.394531 52.386719 91.089844 54.929688 89.8125 57.992188 C 88.539062 60.984375 86.308594 62.480469 83.121094 62.480469 L 82.222656 62.421875 C 78.921875 68.402344 74.816406 73 69.90625 76.214844 C 69.378906 76.511719 69.136719 76.773438 69.175781 77 C 69.210938 77.183594 69.472656 77.277344 69.960938 77.277344 C 71.5 77.277344 73.316406 76.550781 75.417969 75.09375 C 75.078125 77.894531 73.128906 80.398438 69.566406 82.605469 C 66.269531 84.695312 63.0625 85.742188 59.949219 85.742188 C 58.488281 85.742188 57.363281 85.480469 56.578125 84.957031 L 56.859375 84.957031 L 60.570312 84.175781 C 62.257812 83.652344 63.042969 83.238281 62.929688 82.941406 L 62.648438 82.828125 L 58.996094 83.164062 C 55.84375 83.164062 52.378906 82.34375 48.589844 80.699219 C 41.691406 77.671875 36.574219 72.363281 33.238281 64.777344 C 30.050781 57.527344 29.226562 50.050781 30.761719 42.351562 C 31.738281 37.570312 33.667969 32.765625 36.554688 27.945312 C 38.054688 27.683594 39.535156 26.9375 41 25.703125 L 43.808594 22.171875 C 45.496094 20.042969 46.640625 18.808594 47.242188 18.472656 L 48.367188 18.191406 C 49.453125 18.191406 50.726562 18.660156 52.191406 19.59375 L 54.328125 20.042969 C 55.527344 20.042969 57.121094 19.5 59.105469 18.414062 C 59.96875 17.96875 60.886719 17.742188 61.863281 17.742188 C 64.414062 17.742188 66.753906 18.976562 68.894531 21.441406 C 69.53125 22.191406 70.390625 22.5625 71.480469 22.5625 C 72.265625 22.5625 73.261719 22.339844 74.460938 21.890625 L 79.351562 20.824219 L 79.746094 20.824219 M 75.246094 5.183594 C 77.421875 5.484375 79.429688 6.8125 81.265625 9.164062 C 83.253906 11.78125 84.359375 13.128906 84.582031 13.203125 C 86.046875 13.835938 87.582031 15.292969 89.195312 17.574219 C 90.355469 19.21875 91.351562 20.976562 92.175781 22.84375 C 93.636719 26.132812 93.917969 30.429688 93.019531 35.738281 C 92.570312 38.390625 91.96875 40.726562 91.21875 42.746094 C 90.542969 39.605469 89.082031 36.933594 86.832031 34.730469 L 82.390625 31.140625 L 85.484375 28.226562 C 86.609375 26.804688 87.09375 25.574219 86.945312 24.527344 C 86.71875 23.03125 86.195312 21.761719 85.371094 20.714844 C 84.246094 19.292969 82.691406 18.582031 80.703125 18.582031 L 79.464844 18.695312 C 78.679688 18.808594 77.386719 19.273438 75.585938 20.097656 C 73.859375 20.84375 72.71875 21.21875 72.15625 21.21875 L 71.816406 21.164062 C 71.554688 21.125 70.296875 19.875 68.050781 17.40625 C 65.875 15.089844 64.113281 13.929688 62.761719 13.929688 L 61.863281 14.097656 L 58.039062 16.453125 L 55.734375 17.855469 L 53.988281 18.472656 L 53.316406 18.359375 L 51.738281 17.574219 C 50.316406 16.863281 49.339844 16.507812 48.816406 16.507812 C 48.066406 16.507812 47.183594 16.789062 46.171875 17.351562 C 45.460938 17.761719 44.222656 19.050781 42.460938 21.21875 L 39.761719 24.582031 C 38.261719 25.890625 36.761719 26.542969 35.261719 26.542969 C 34.210938 26.542969 33.332031 26.207031 32.617188 25.535156 C 31.230469 24.226562 30.292969 22.507812 29.808594 20.378906 C 29.320312 18.285156 29.375 16.433594 29.976562 14.828125 C 30.460938 13.519531 31.175781 12.417969 32.113281 11.519531 C 31.960938 12.941406 32.355469 14.003906 33.292969 14.714844 C 34.34375 15.539062 35.523438 15.949219 36.835938 15.949219 C 38.75 15.949219 40.378906 15.183594 41.730469 13.652344 C 45.105469 9.761719 47.429688 7.671875 48.703125 7.371094 L 49.996094 7.203125 L 52.695312 7.707031 L 54.945312 8.269531 C 55.507812 8.269531 55.996094 8.0625 56.40625 7.652344 L 58.375 4.90625 C 60.363281 1.878906 61.789062 0.308594 62.648438 0.195312 L 62.988281 0.140625 C 64.074219 0.140625 65.425781 0.683594 67.035156 1.765625 L 68.554688 2.941406 C 69.15625 3.390625 69.71875 3.710938 70.242188 3.894531 L 75.246094 5.183594 "/>
</g>
</svg>
