<?xml version="1.0" encoding="UTF-8"?>
<svg xmlns="http://www.w3.org/2000/svg" xmlns:xlink="http://www.w3.org/1999/xlink" width="128pt" height="228pt" viewBox="0 0 128 228" version="1.1">
<g id="surface1">
<path style=" stroke:none;fill-rule:nonzero;fill:rgb(100%,100%,100%);fill-opacity:1;" d="M 19.183594 209.882812 L 23.582031 211.3125 C 26.546875 212.125 29.179688 212.601562 31.472656 212.742188 L 42.226562 212.265625 C 42.121094 213.609375 41.664062 214.527344 40.851562 215.019531 C 40.144531 215.550781 38.574219 215.816406 36.136719 215.816406 L 34.757812 214.28125 L 34.652344 214.121094 L 34.441406 214.171875 C 30.34375 215.304688 26.742188 216.011719 23.632812 216.292969 C 19.007812 216.644531 14.433594 216.257812 9.914062 215.128906 L 9.332031 215.019531 C 8.660156 214.84375 8.324219 214.652344 8.324219 214.4375 C 8.253906 214.015625 8.941406 213.449219 10.390625 212.742188 C 11.484375 212.214844 14.417969 211.261719 19.183594 209.882812 M 18.230469 146.15625 C 18.265625 146.933594 18.125 147.851562 17.808594 148.910156 L 16.851562 151.242188 L 20.773438 155.160156 C 23 157.5625 23.917969 159.011719 23.527344 159.503906 C 22.890625 160.316406 21.796875 160.175781 20.242188 159.082031 C 18.726562 157.773438 17.824219 157.066406 17.542969 156.960938 L 17.328125 157.015625 L 17.222656 157.015625 C 17.1875 157.261719 17.984375 158.320312 19.609375 160.191406 C 21.089844 161.886719 21.550781 163.089844 20.984375 163.796875 C 20.421875 164.464844 19.589844 164.574219 18.496094 164.113281 C 17.894531 163.867188 17.046875 163.355469 15.953125 162.578125 L 16.058594 162.472656 C 16.730469 161.765625 16.886719 160.617188 16.535156 159.027344 L 14.945312 154.632812 L 13.304688 150.445312 C 14.859375 149.386719 15.40625 147.355469 14.945312 144.355469 C 16.039062 144.496094 17.101562 144.496094 18.125 144.355469 L 18.230469 146.15625 M 11.34375 143.613281 L 13.09375 144.035156 C 13.410156 145.625 13.25 146.949219 12.617188 148.007812 L 11.554688 149.070312 L 10.707031 149.546875 L 12.984375 155.425781 C 14.363281 158.78125 14.875 160.632812 14.523438 160.988281 L 12.402344 160.671875 C 9.894531 159.789062 8.007812 157.421875 6.734375 153.570312 C 6.207031 152.054688 5.746094 149.933594 5.359375 147.214844 C 5.25 146.71875 4.898438 146.507812 4.296875 146.578125 C 3.699219 146.683594 3.34375 146.96875 3.238281 147.425781 C 2.957031 148.699219 3.433594 151.046875 4.667969 154.472656 C 6.292969 158.851562 8.625 161.589844 11.660156 162.683594 L 15.476562 162.894531 L 17.382812 165.382812 C 17.628906 165.632812 17.753906 165.984375 17.753906 166.445312 C 17.753906 166.9375 17.613281 167.328125 17.328125 167.609375 C 16.445312 168.421875 14.75 168.191406 12.246094 166.921875 L 11.027344 166.285156 L 9.964844 165.382812 C 8.199219 163.902344 6.613281 162.207031 5.199219 160.300781 C 3.078125 157.507812 1.738281 154.71875 1.171875 151.929688 C 0.394531 148.078125 1.121094 142.871094 3.34375 136.300781 C 5.289062 140.257812 7.953125 142.695312 11.34375 143.613281 M 33.75 77.765625 L 34.652344 79.195312 C 35.640625 80.398438 37.476562 81.457031 40.160156 82.375 L 40.320312 82.425781 L 40.796875 82.640625 L 41.167969 83.167969 L 41.0625 83.910156 C 40.601562 85.253906 39.933594 87.777344 39.050781 91.484375 C 37.917969 96.324219 37.125 100.597656 36.664062 104.304688 C 36.207031 108.015625 35.941406 112.621094 35.871094 118.132812 C 35.835938 121.417969 35.851562 124.171875 35.921875 126.394531 L 35.976562 126.554688 L 35.976562 127.667969 C 34.210938 127.347656 32.726562 126.871094 31.527344 126.238281 L 31.261719 123.960938 C 30.660156 118.238281 29.9375 113.824219 29.089844 110.714844 L 25.539062 99.589844 L 24.746094 99.804688 L 27.710938 114.421875 C 28.207031 116.894531 28.632812 119.722656 28.984375 122.898438 C 24.570312 128.761719 21.019531 135.101562 18.335938 141.917969 L 16.589844 142.234375 L 11.609375 141.386719 C 9.523438 140.789062 7.757812 139.304688 6.3125 136.9375 C 5.5 135.558594 4.898438 134.113281 4.511719 132.59375 C 4.402344 132.132812 4.511719 131.359375 4.828125 130.261719 L 4.933594 129.785156 C 6.027344 125.582031 7.441406 121.167969 9.171875 116.542969 C 12.101562 108.773438 15.492188 101.691406 19.34375 95.300781 C 23.191406 88.800781 27.710938 83.1875 32.902344 78.453125 L 33.75 77.765625 M 38.097656 74.324219 C 39.613281 75.242188 40.992188 75.945312 42.226562 76.441406 C 43.074219 78.417969 44.417969 79.972656 46.253906 81.101562 C 47.949219 82.128906 49.945312 82.710938 52.238281 82.851562 C 56.054688 83.132812 59.746094 82.269531 63.3125 80.253906 C 67.054688 78.171875 69.472656 75.433594 70.570312 72.042969 C 73.464844 73.316406 76.359375 74.78125 79.257812 76.441406 C 77.207031 80.644531 72.476562 83.097656 65.058594 83.804688 C 63.929688 83.910156 63.046875 84.265625 62.410156 84.863281 C 61.808594 85.429688 61.386719 86.3125 61.140625 87.511719 C 59.972656 93.445312 59.179688 98.601562 58.753906 102.980469 C 58.4375 105.914062 58.261719 110.433594 58.226562 116.542969 C 58.15625 122.476562 58.226562 126.589844 58.4375 128.886719 C 58.507812 129.449219 58.789062 129.980469 59.285156 130.476562 C 59.816406 130.96875 60.378906 131.234375 60.980469 131.269531 C 63.171875 131.515625 67.300781 131.410156 73.375 130.953125 L 85.71875 129.257812 L 86.515625 138.6875 C 83.160156 141.652344 78.972656 143.984375 73.960938 145.679688 C 67.742188 147.761719 61.050781 148.558594 53.882812 148.0625 C 49.46875 147.746094 44.839844 146.527344 40.003906 144.40625 C 35.625 142.464844 32.902344 140.664062 31.84375 139.003906 C 31.457031 137.730469 31.4375 134.199219 31.792969 128.410156 L 35.710938 129.574219 C 36.382812 129.679688 36.914062 129.558594 37.300781 129.203125 C 37.617188 128.957031 37.796875 128.585938 37.832031 128.089844 L 37.832031 126.289062 L 37.726562 118.183594 C 37.796875 112.816406 38.058594 108.277344 38.519531 104.570312 C 39.015625 100.792969 39.828125 96.5 40.957031 91.699219 C 41.804688 88.058594 42.441406 85.675781 42.863281 84.546875 C 43.144531 83.804688 43.144531 83.082031 42.863281 82.375 C 42.617188 81.667969 42.175781 81.171875 41.539062 80.890625 L 40.851562 80.625 L 40.796875 80.625 L 38.042969 79.566406 C 36.59375 78.824219 35.625 77.835938 35.128906 76.601562 L 38.097656 74.324219 M 46.996094 65.105469 C 46.890625 64.574219 46.519531 64.273438 45.882812 64.203125 L 41.222656 64.46875 L 40.636719 64.679688 L 41.007812 65.105469 L 42.757812 66.164062 L 44.132812 66.480469 L 45.9375 66.324219 C 46.253906 66.289062 46.519531 66.148438 46.730469 65.898438 L 46.996094 65.105469 M 32.535156 24.316406 C 31.367188 26.011719 30.238281 27.898438 29.144531 29.984375 C 28.332031 28.289062 27.890625 27.050781 27.820312 26.273438 C 27.710938 25.179688 27.800781 24.226562 28.082031 23.414062 C 28.402344 22.601562 28.808594 22.214844 29.300781 22.25 C 29.65625 22.320312 29.9375 22.480469 30.148438 22.726562 C 30.855469 23.503906 31.652344 24.03125 32.535156 24.316406 M 48.480469 33.902344 L 48.425781 33.851562 C 48.074219 33.851562 47.738281 34.132812 47.417969 34.699219 L 45.035156 38.828125 L 40.53125 44.074219 C 40.039062 44.570312 39.96875 45.117188 40.320312 45.714844 L 42.441406 49.371094 C 42.722656 49.796875 43.179688 50.042969 43.816406 50.113281 L 44.980469 49.902344 L 45.511719 49.53125 C 45.617188 49.320312 45.601562 49.089844 45.460938 48.84375 L 43.65625 46.085938 C 43.269531 45.453125 43.269531 44.851562 43.65625 44.285156 L 46.148438 40.207031 L 48.636719 35.015625 C 48.921875 34.34375 48.867188 33.972656 48.480469 33.902344 M 36.984375 32.949219 C 36.453125 32.914062 35.976562 33.230469 35.554688 33.902344 C 35.09375 34.574219 34.8125 35.402344 34.707031 36.394531 C 34.632812 37.382812 34.742188 38.246094 35.023438 38.988281 C 35.339844 39.730469 35.765625 40.117188 36.292969 40.152344 L 36.347656 40.152344 C 36.878906 40.191406 37.355469 39.871094 37.777344 39.199219 C 38.238281 38.566406 38.5 37.753906 38.574219 36.765625 C 38.679688 35.738281 38.574219 34.875 38.253906 34.167969 C 37.972656 33.425781 37.546875 33.019531 36.984375 32.949219 M 40.054688 24.527344 L 39.472656 24.632812 L 35.289062 26.910156 C 34.96875 27.050781 34.828125 27.191406 34.863281 27.335938 L 35.339844 27.546875 L 39.683594 27.652344 C 40.074219 27.6875 40.375 27.582031 40.585938 27.335938 C 40.832031 27.085938 40.921875 26.769531 40.851562 26.382812 L 40.746094 25.320312 C 40.746094 24.792969 40.515625 24.527344 40.054688 24.527344 M 55.683594 54.617188 L 56.953125 54.457031 C 57.449219 54.457031 57.890625 54.652344 58.277344 55.039062 C 58.738281 55.429688 58.808594 55.816406 58.492188 56.207031 L 57.589844 56.894531 C 53.5625 58.730469 50.808594 59.84375 49.328125 60.230469 L 44.027344 60.550781 C 42.652344 60.480469 41.539062 60.285156 40.691406 59.964844 L 34.335938 57.265625 C 33.839844 57.195312 33.523438 56.789062 33.382812 56.046875 C 33.238281 55.480469 33.558594 55.199219 34.335938 55.199219 L 34.492188 55.25 L 37.40625 55.941406 L 43.289062 56.839844 L 44.769531 56.894531 C 47.558594 56.859375 51.199219 56.097656 55.683594 54.617188 M 56 49.847656 C 55.789062 49.847656 55.734375 50.042969 55.84375 50.429688 L 56.371094 52.125 C 56.476562 52.410156 56.40625 52.691406 56.160156 52.972656 C 55.914062 53.257812 55.628906 53.433594 55.3125 53.503906 C 50.367188 54.988281 46.695312 55.78125 44.292969 55.886719 L 42.863281 55.835938 L 37.40625 54.988281 L 34.652344 54.246094 L 33.964844 53.769531 C 33.75 53.519531 33.664062 53.257812 33.699219 52.972656 L 33.804688 52.230469 L 33.644531 51.703125 C 33.503906 51.703125 33.363281 51.789062 33.222656 51.96875 L 31.101562 54.191406 C 30.644531 54.652344 30.574219 55.214844 30.890625 55.886719 L 32.902344 59.542969 L 33.273438 59.914062 L 33.488281 59.4375 L 33.488281 58.90625 C 33.488281 58.378906 33.75 58.113281 34.28125 58.113281 L 34.546875 58.164062 L 37.777344 60.335938 C 40.355469 61.855469 42.722656 62.6875 44.875 62.828125 L 44.929688 62.828125 C 47.082031 62.96875 49.996094 62.136719 53.671875 60.335938 L 58.542969 57.582031 L 58.96875 57.53125 C 59.496094 57.601562 59.867188 57.828125 60.078125 58.21875 L 59.921875 60.601562 L 60.34375 60.972656 L 60.714844 60.496094 L 62.039062 55.78125 C 62.179688 55.074219 61.96875 54.527344 61.402344 54.140625 L 56.371094 50.058594 L 56 49.847656 M 57.058594 37.769531 C 56.988281 38.757812 57.097656 39.625 57.378906 40.367188 C 57.695312 41.109375 58.121094 41.496094 58.648438 41.53125 L 58.703125 41.53125 C 59.230469 41.566406 59.710938 41.25 60.132812 40.578125 C 60.59375 39.941406 60.855469 39.128906 60.925781 38.140625 C 61.035156 37.152344 60.925781 36.289062 60.609375 35.546875 C 60.292969 34.839844 59.867188 34.449219 59.339844 34.378906 C 58.808594 34.34375 58.332031 34.644531 57.90625 35.28125 C 57.449219 35.953125 57.167969 36.78125 57.058594 37.769531 M 74.699219 45.398438 C 74.59375 45.714844 74.664062 45.964844 74.914062 46.140625 L 75.601562 46.777344 L 76.289062 48.046875 C 76.289062 48.4375 76.484375 48.628906 76.871094 48.628906 C 77.332031 48.699219 77.5625 48.4375 77.5625 47.835938 C 77.492188 47.234375 77.242188 46.6875 76.820312 46.191406 L 75.652344 45.082031 L 75.335938 44.976562 C 75.054688 44.976562 74.84375 45.117188 74.699219 45.398438 M 75.496094 40.949219 C 75.210938 40.914062 75 41.054688 74.859375 41.371094 C 74.753906 41.691406 74.894531 42.007812 75.285156 42.328125 L 77.242188 43.808594 L 78.566406 45.453125 C 79.0625 46.15625 79.398438 46.511719 79.574219 46.511719 L 79.785156 46.351562 C 79.890625 46.070312 79.75 45.558594 79.363281 44.816406 L 78.144531 42.960938 C 77.472656 42.148438 76.660156 41.496094 75.707031 41 L 75.496094 40.949219 M 61.5625 29.082031 L 63.734375 30.511719 L 65.21875 31.359375 L 65.269531 31.359375 C 65.554688 30.476562 65.007812 29.171875 63.628906 27.441406 L 61.457031 25.058594 L 60.925781 24.84375 L 60.078125 25.320312 L 59.285156 26.273438 C 58.753906 26.945312 58.542969 27.386719 58.648438 27.597656 L 59.601562 28.128906 L 61.5625 29.082031 M 76.023438 32.683594 L 75.601562 32.578125 C 75.25 32.542969 75.019531 32.667969 74.914062 32.949219 C 74.808594 33.230469 74.894531 33.460938 75.175781 33.636719 L 76.5 34.804688 L 79.042969 37.503906 C 80.105469 38.671875 81.09375 40.136719 82.011719 41.902344 L 83.546875 45.453125 L 83.28125 46.5625 L 83.175781 46.511719 C 82.152344 43.6875 80.828125 41.390625 79.203125 39.625 C 78.039062 38.28125 76.925781 37.347656 75.867188 36.816406 L 75.652344 36.765625 C 75.300781 36.730469 75.105469 36.90625 75.070312 37.292969 C 75.035156 37.71875 75.25 38.089844 75.707031 38.40625 C 76.730469 39.078125 77.5625 39.800781 78.195312 40.578125 C 79.292969 41.777344 80.738281 43.949219 82.539062 47.09375 L 82.328125 47.519531 L 81.429688 47.675781 C 80.898438 47.921875 80.828125 48.347656 81.214844 48.949219 C 83.582031 51.03125 84.078125 53.46875 82.699219 56.257812 C 81.324219 58.976562 79.132812 60.230469 76.132812 60.019531 L 75.285156 59.914062 C 71.789062 65.351562 67.621094 69.429688 62.78125 72.152344 C 62.289062 72.398438 62.058594 72.628906 62.09375 72.839844 C 62.09375 73.015625 62.324219 73.121094 62.78125 73.15625 C 64.300781 73.226562 66.046875 72.664062 68.027344 71.460938 C 67.566406 74.074219 65.605469 76.316406 62.144531 78.191406 C 58.933594 79.957031 55.84375 80.75 52.875 80.574219 C 51.5 80.46875 50.457031 80.132812 49.75 79.566406 L 50.015625 79.566406 L 53.511719 79.089844 C 55.136719 78.703125 55.914062 78.367188 55.84375 78.082031 L 55.578125 77.976562 L 54.410156 78.03125 L 52.132812 78.03125 C 49.308594 77.890625 46.09375 76.882812 42.492188 75.011719 C 36.207031 71.726562 31.738281 66.410156 29.089844 59.066406 C 26.546875 52.039062 26.246094 44.941406 28.191406 37.769531 C 29.390625 33.320312 31.507812 28.921875 34.546875 24.578125 C 35.921875 24.4375 37.355469 23.820312 38.835938 22.726562 L 41.699219 19.601562 C 43.429688 17.691406 44.578125 16.597656 45.140625 16.316406 L 46.253906 16.105469 C 47.277344 16.175781 48.441406 16.6875 49.75 17.640625 C 50.351562 17.957031 51.003906 18.152344 51.710938 18.222656 C 52.910156 18.292969 54.445312 17.886719 56.320312 17.003906 C 57.132812 16.652344 58.015625 16.492188 58.96875 16.527344 C 61.402344 16.703125 63.523438 18.011719 65.324219 20.449219 C 65.925781 21.191406 66.71875 21.597656 67.707031 21.667969 L 70.515625 21.242188 L 75.230469 20.554688 L 75.546875 20.554688 C 77.492188 20.695312 78.726562 21.808594 79.257812 23.890625 C 79.820312 26.1875 78.621094 28.023438 75.652344 29.402344 L 75.175781 29.824219 C 74.964844 30.175781 75.070312 30.511719 75.496094 30.832031 C 77.472656 32.136719 79.0625 33.425781 80.261719 34.699219 C 82.875 37.523438 84.042969 40.597656 83.757812 43.914062 C 82.945312 41.335938 81.691406 38.9375 80 36.710938 C 78.125 34.378906 76.800781 33.039062 76.023438 32.683594 M 51.019531 6.515625 L 53.035156 7.152344 C 53.5625 7.222656 54.039062 7.0625 54.464844 6.675781 L 56.53125 4.238281 C 58.472656 1.484375 59.902344 0.0703125 60.820312 0 L 61.140625 0 C 62.234375 0.105469 63.453125 0.707031 64.792969 1.800781 L 66.171875 3.019531 C 66.667969 3.480469 67.179688 3.8125 67.707031 4.027344 L 72.316406 5.507812 C 74.367188 5.933594 76.183594 7.328125 77.773438 9.695312 L 80.632812 13.71875 C 81.976562 14.390625 83.316406 15.839844 84.660156 18.0625 C 85.683594 19.757812 86.496094 21.488281 87.097656 23.253906 C 88.261719 26.433594 88.261719 30.511719 87.097656 35.492188 C 86.496094 37.964844 85.789062 40.117188 84.976562 41.957031 C 84.554688 38.953125 83.335938 36.339844 81.324219 34.117188 L 79.097656 31.890625 L 77.402344 30.460938 C 78.566406 29.753906 79.59375 28.90625 80.476562 27.917969 C 81.640625 26.644531 82.1875 25.5 82.117188 24.472656 C 82.011719 23.0625 81.605469 21.84375 80.898438 20.820312 C 79.910156 19.40625 78.480469 18.648438 76.609375 18.539062 L 75.441406 18.539062 C 74.699219 18.613281 73.445312 18.964844 71.679688 19.601562 L 68.398438 20.449219 L 68.078125 20.394531 L 64.792969 16.632812 C 62.886719 14.269531 61.316406 13.050781 60.078125 12.980469 L 59.179688 13.085938 L 55.472656 15.097656 L 53.191406 16.261719 L 51.5 16.738281 L 50.863281 16.582031 L 49.484375 15.734375 L 48.109375 14.9375 L 46.785156 14.566406 C 46.078125 14.53125 45.230469 14.746094 44.242188 15.203125 C 43.535156 15.558594 42.296875 16.6875 40.53125 18.59375 L 37.777344 21.613281 C 36.222656 22.742188 34.757812 23.253906 33.382812 23.148438 C 32.425781 23.078125 31.632812 22.707031 30.996094 22.039062 C 29.796875 20.730469 29.019531 19.054688 28.667969 17.003906 C 28.347656 14.992188 28.507812 13.242188 29.144531 11.761719 C 29.707031 10.59375 30.449219 9.605469 31.367188 8.792969 C 31.15625 10.101562 31.457031 11.125 32.269531 11.867188 C 33.222656 12.714844 34.316406 13.191406 35.554688 13.296875 C 37.320312 13.402344 38.890625 12.765625 40.269531 11.390625 C 43.65625 8 45.972656 6.179688 47.207031 5.933594 L 48.480469 5.878906 C 49.21875 5.914062 50.066406 6.128906 51.019531 6.515625 M 101.027344 222.015625 L 100.816406 223.339844 C 100.179688 225.703125 98.273438 227.097656 95.097656 227.523438 C 92.835938 227.839844 90.292969 227.097656 87.46875 225.296875 C 85.136719 223.851562 83.601562 222.472656 82.859375 221.167969 C 82.398438 220.355469 82.292969 219.257812 82.539062 217.882812 L 94.140625 218.304688 C 95.90625 218.199219 97.601562 217.792969 99.226562 217.085938 L 100.816406 220.902344 L 101.027344 222.015625 M 99.703125 201.9375 C 100.410156 209.53125 100.640625 213.660156 100.394531 214.332031 C 100.214844 214.6875 99.332031 215.039062 97.746094 215.390625 L 93.1875 216.132812 C 91.5625 216.238281 89.460938 216.203125 86.882812 216.027344 C 83.742188 215.78125 81.691406 215.390625 80.738281 214.863281 C 80.492188 214.617188 79.398438 211.667969 77.457031 206.015625 C 75.230469 199.445312 73.519531 194.679688 72.316406 191.710938 C 69.527344 184.898438 65.820312 177.25 61.191406 168.773438 L 54.996094 158.019531 L 54.519531 158.285156 L 56.691406 164.273438 L 53.828125 171.105469 C 51.921875 175.910156 50.367188 180.199219 49.167969 183.980469 C 47.332031 189.875 45.210938 198.546875 42.808594 209.988281 L 42.386719 210.359375 L 32.425781 210.835938 L 26.28125 209.988281 C 24.269531 209.421875 22.609375 208.523438 21.304688 207.289062 L 26.175781 175.289062 C 26.742188 171.828125 27.835938 166.320312 29.460938 158.761719 C 30.769531 152.476562 31.898438 147.304688 32.851562 143.242188 C 36.914062 145.925781 42.808594 147.902344 50.542969 149.175781 C 57.183594 150.304688 63.910156 150.128906 70.726562 148.644531 C 76.980469 147.304688 82.207031 145.113281 86.40625 142.078125 L 91.707031 160.988281 C 94.210938 170.277344 95.925781 177.09375 96.84375 181.4375 C 97.9375 186.734375 98.890625 193.566406 99.703125 201.9375 M 102.671875 160.457031 C 104.296875 159.433594 105.585938 158.460938 106.539062 157.542969 L 108.65625 154.3125 L 116.921875 153.996094 C 120.699219 152.902344 123.542969 150.058594 125.449219 145.464844 C 126.296875 147.269531 126.808594 149.035156 126.984375 150.765625 C 127.65625 155.671875 127.445312 160.085938 126.351562 164.007812 C 125.820312 165.949219 124.921875 166.921875 123.648438 166.921875 L 124.179688 163.054688 C 124.601562 160.300781 124.550781 158.65625 124.019531 158.128906 C 123.808594 157.914062 123.347656 160 122.640625 164.378906 C 121.582031 169.039062 120.082031 171.707031 118.140625 172.378906 L 117.558594 172.429688 L 117.34375 172.324219 L 118.296875 166.496094 C 118.863281 162.613281 118.757812 160.546875 117.980469 160.300781 C 117.875 160.265625 117.503906 162.03125 116.867188 165.597656 L 115.226562 172.960938 C 113.847656 176.703125 112.628906 178.398438 111.570312 178.046875 C 110.828125 177.796875 110.707031 175.625 111.199219 171.53125 L 111.304688 170.578125 L 111.996094 160.617188 L 111.886719 160.085938 C 111.816406 159.910156 111.09375 160.15625 109.714844 160.828125 L 106.113281 162.472656 L 102.460938 162.894531 C 101.398438 162.71875 101.027344 162.277344 101.347656 161.570312 L 101.769531 161.039062 L 102.671875 160.457031 M 102.140625 96.09375 C 104.71875 99.34375 106.945312 102.523438 108.816406 105.628906 C 112.699219 112.058594 116.109375 119.136719 119.039062 126.871094 C 120.839844 131.605469 122.269531 136.039062 123.332031 140.167969 L 123.4375 140.59375 C 123.753906 141.722656 123.84375 142.5 123.703125 142.921875 C 123.3125 144.476562 122.710938 145.925781 121.902344 147.269531 C 120.488281 149.632812 118.738281 151.117188 116.65625 151.71875 C 113.441406 152.636719 111.199219 152.828125 109.929688 152.300781 C 109.152344 150.214844 108.109375 147.886719 106.804688 145.308594 C 105 141.777344 103.007812 138.492188 100.816406 135.453125 L 98.539062 132.433594 C 95.324219 128.339844 90.839844 124.136719 85.082031 119.828125 L 77.347656 114.53125 L 76.980469 116.597656 L 79.46875 118.398438 L 85.296875 123.164062 L 84.765625 127.667969 L 73.21875 129.097656 L 67.285156 129.414062 C 64.421875 129.558594 62.394531 129.558594 61.191406 129.414062 L 60.609375 129.097656 L 60.292969 128.726562 C 60.117188 126.429688 60.042969 122.371094 60.078125 116.542969 C 60.152344 110.503906 60.328125 106.035156 60.609375 103.140625 C 61.210938 97.417969 62.003906 92.351562 62.992188 87.9375 C 63.171875 87.160156 63.417969 86.59375 63.734375 86.242188 C 64.054688 85.921875 64.566406 85.730469 65.269531 85.660156 C 67.496094 85.480469 69.757812 84.988281 72.050781 84.175781 C 76.21875 82.65625 79.1875 80.398438 80.953125 77.394531 C 86.425781 80.679688 91.050781 84.175781 94.832031 87.882812 L 100.816406 94.453125 L 102.140625 96.09375 "/>
</g>
</svg>
