<?xml version="1.0" encoding="UTF-8"?>
<svg xmlns="http://www.w3.org/2000/svg" xmlns:xlink="http://www.w3.org/1999/xlink" width="129pt" height="46pt" viewBox="0 0 129 46" version="1.1">
<g id="surface1">
<path style=" stroke:none;fill-rule:nonzero;fill:rgb(100%,100%,100%);fill-opacity:1;" d="M 58.347656 2.171875 C 59.722656 2.664062 60.535156 3.03125 60.78125 3.277344 L 56.691406 3.542969 L 51.769531 3.953125 C 49.695312 2.886719 48.007812 2.265625 46.699219 2.089844 C 47.367188 1.84375 48.128906 1.625 48.988281 1.433594 C 50.625 1.0625 52.136719 0.933594 53.523438 1.042969 C 55.011719 1.152344 56.617188 1.527344 58.347656 2.171875 M 61.679688 4.363281 C 61.09375 5.199219 60.433594 6.339844 59.695312 7.789062 C 58.648438 9.878906 57.960938 11.703125 57.632812 13.261719 C 56.105469 13.425781 54.683594 13.753906 53.363281 14.246094 C 52.761719 14.464844 52.238281 14.777344 51.789062 15.1875 L 51.707031 15.167969 L 51.234375 15.128906 C 51.425781 13.992188 51.332031 13.117188 50.949219 12.503906 C 50.664062 12.050781 50.242188 11.773438 49.683594 11.664062 C 49.179688 11.582031 48.714844 11.695312 48.292969 12.011719 C 47.777344 12.40625 47.351562 13.097656 47.027344 14.082031 C 45.976562 12.292969 44.796875 11.484375 43.492188 11.664062 C 43 11.746094 42.644531 11.992188 42.429688 12.402344 C 41.949219 13.261719 42.109375 14.875 42.898438 17.238281 L 41.691406 15.722656 C 41.175781 14.984375 40.398438 14.492188 39.363281 14.246094 C 38.203125 13.957031 37.394531 14.253906 36.929688 15.128906 C 36.65625 15.660156 36.480469 16.160156 36.398438 16.625 C 35.253906 15.925781 34.484375 15.011719 34.089844 13.875 C 33.804688 13.085938 33.660156 11.941406 33.660156 10.453125 C 33.660156 9.195312 34.484375 7.765625 36.132812 6.167969 C 37.984375 4.378906 40.0625 3.339844 42.367188 3.050781 C 44.875 2.75 47.339844 3.101562 49.765625 4.097656 L 48.3125 4.464844 C 45.546875 4.929688 43.117188 5.539062 41.019531 6.292969 L 40.710938 6.558594 C 40.644531 6.695312 40.636719 6.832031 40.691406 6.96875 C 40.730469 7.105469 40.8125 7.207031 40.9375 7.273438 L 41.324219 7.335938 L 48.4375 5.554688 C 52.46875 4.871094 56.882812 4.472656 61.679688 4.363281 M 93.417969 27.632812 C 93.582031 27.933594 93.726562 28.085938 93.847656 28.085938 C 94.011719 28.085938 94.078125 27.980469 94.050781 27.777344 L 93.949219 27.222656 C 93.949219 27.03125 93.875 26.839844 93.726562 26.648438 C 93.546875 26.445312 93.371094 26.382812 93.195312 26.464844 C 92.796875 26.628906 92.59375 26.792969 92.582031 26.957031 C 92.582031 27.09375 92.703125 27.160156 92.949219 27.160156 C 93.097656 27.160156 93.253906 27.320312 93.417969 27.632812 M 96.894531 25.460938 L 95.605469 25.417969 C 95.222656 25.351562 94.828125 24.988281 94.421875 24.332031 L 93.910156 23.472656 C 93.625 23.839844 93.683594 24.40625 94.09375 25.171875 C 94.460938 25.882812 94.808594 26.28125 95.136719 26.363281 C 95.394531 26.429688 95.871094 26.347656 96.566406 26.117188 C 97.273438 25.882812 97.601562 25.699219 97.546875 25.5625 L 96.894531 25.460938 M 93.03125 16.378906 C 92.894531 16.9375 92.792969 17.511719 92.722656 18.101562 L 91.007812 18.324219 L 91.109375 19.414062 L 92.664062 19.207031 C 92.636719 19.835938 92.695312 20.472656 92.847656 21.113281 L 93.910156 20.886719 C 93.773438 20.300781 93.71875 19.6875 93.746094 19.042969 C 95.273438 18.730469 96.226562 18.386719 96.605469 18.019531 L 95.832031 17.238281 C 95.625 17.445312 94.957031 17.664062 93.828125 17.894531 L 94.113281 16.5625 L 94.277344 16.007812 L 93.253906 15.640625 L 93.03125 16.378906 M 91.109375 11.210938 L 91.414062 12.214844 L 91.476562 13.324219 C 91.492188 13.570312 91.578125 13.683594 91.742188 13.671875 C 91.90625 13.644531 92 13.546875 92.027344 13.382812 C 92.097656 12.921875 92.0625 12.457031 91.925781 11.992188 L 91.558594 11.128906 C 91.394531 10.84375 91.257812 10.691406 91.148438 10.679688 C 90.988281 10.652344 90.972656 10.828125 91.109375 11.210938 M 96.363281 13.445312 C 96.660156 13.625 96.886719 13.734375 97.035156 13.773438 C 97.28125 13.828125 97.5 13.78125 97.691406 13.628906 L 97.648438 13.488281 C 97.648438 13.144531 97.347656 12.886719 96.75 12.707031 L 95.277344 12.542969 C 94.964844 12.558594 94.734375 12.6875 94.582031 12.933594 L 94.460938 13.300781 L 95.238281 13.261719 C 95.796875 13.261719 96.171875 13.324219 96.363281 13.445312 M 90.863281 11.949219 C 90.726562 11.636719 90.589844 11.4375 90.457031 11.355469 C 90.265625 11.246094 90.121094 11.28125 90.027344 11.457031 C 89.917969 11.636719 89.9375 11.765625 90.085938 11.847656 C 90.25 11.941406 90.359375 12.242188 90.414062 12.75 C 90.414062 12.898438 90.488281 12.976562 90.640625 12.976562 C 90.828125 12.976562 90.933594 12.871094 90.945312 12.667969 L 90.863281 11.949219 M 89.925781 5.53125 L 88.535156 8.792969 L 87.472656 8.691406 C 86.914062 8.773438 86.492188 9.050781 86.203125 9.53125 C 85.742188 10.253906 85.570312 11.054688 85.695312 11.929688 C 85.761719 12.503906 85.9375 13.042969 86.226562 13.546875 C 85.816406 14.875 85.558594 16.277344 85.449219 17.75 C 85.242188 20.253906 85.570312 22.386719 86.429688 24.148438 L 77.417969 25.171875 C 72.429688 25.609375 68.769531 25.714844 66.441406 25.480469 C 63.089844 25.152344 58.519531 24.242188 52.726562 22.753906 C 51.761719 21.195312 51.386719 19.679688 51.605469 18.203125 C 51.820312 16.738281 52.539062 15.761719 53.75 15.269531 C 55.167969 14.695312 56.769531 14.355469 58.554688 14.246094 C 59.425781 14.191406 60.863281 14.203125 62.863281 14.285156 L 64.804688 14.347656 C 65.296875 14.347656 66.054688 14.199219 67.074219 13.898438 L 70.367188 12.789062 C 71.742188 12.3125 73.574219 11.585938 75.863281 10.617188 C 77.769531 9.945312 79.507812 9.757812 81.074219 10.042969 L 84.058594 8.976562 C 82.289062 8.648438 80.003906 8.828125 77.210938 9.511719 C 75.535156 9.90625 73.132812 10.65625 69.996094 11.765625 L 66.15625 13.015625 C 67.121094 10.171875 69.023438 7.9375 71.855469 6.3125 C 73.289062 5.492188 74.628906 4.953125 75.882812 4.691406 L 77.703125 3.5625 C 75.820312 3.878906 73.933594 4.507812 72.042969 5.449219 C 68.292969 7.324219 65.929688 9.921875 64.949219 13.242188 L 64.804688 13.261719 L 62.90625 13.199219 C 61.296875 13.117188 59.921875 13.113281 58.777344 13.179688 C 59.078125 11.773438 59.472656 10.5625 59.964844 9.550781 C 60.234375 8.992188 60.734375 8.15625 61.453125 7.050781 C 62.953125 4.78125 65.480469 3.105469 69.035156 2.027344 C 72.210938 1.054688 76.667969 0.449219 82.402344 0.203125 C 85.496094 0.078125 88.839844 0.585938 92.4375 1.71875 C 91.484375 2.746094 90.644531 4.015625 89.925781 5.53125 M 110.851562 30.011719 C 110.757812 29.875 110.679688 29.613281 110.625 29.234375 C 110.574219 28.890625 110.558594 28.707031 110.585938 28.679688 L 112.199219 28.925781 L 115.960938 28.761719 L 116.082031 28.71875 L 117.699219 27.183594 L 117.882812 27.140625 L 120.089844 27.386719 C 121.667969 27.769531 122.765625 28.460938 123.378906 29.457031 L 123.195312 29.992188 L 122.746094 30.503906 C 122.636719 30.613281 122.601562 30.734375 122.644531 30.871094 L 122.992188 31.117188 C 123.6875 31.308594 124.328125 31.554688 124.914062 31.855469 C 125.605469 32.199219 125.980469 32.507812 126.035156 32.78125 C 126.035156 33.011719 125.867188 33.222656 125.527344 33.414062 C 125.046875 33.6875 124.578125 33.785156 124.117188 33.703125 C 123.449219 33.578125 122.773438 33.132812 122.09375 32.371094 L 121.683594 31.835938 C 121.519531 31.617188 121.28125 31.570312 120.96875 31.691406 C 120.84375 31.746094 120.765625 31.824219 120.722656 31.917969 C 120.683594 32.015625 120.6875 32.109375 120.742188 32.207031 L 121.132812 32.738281 C 121.566406 33.351562 121.894531 33.921875 122.113281 34.441406 C 122.359375 35.054688 122.398438 35.484375 122.234375 35.730469 C 122.179688 35.867188 122.011719 35.945312 121.722656 35.957031 C 120.921875 36.039062 120.128906 35.664062 119.355469 34.828125 C 118.796875 34.253906 118.367188 33.613281 118.066406 32.902344 C 117.96875 32.683594 117.785156 32.589844 117.515625 32.617188 C 117.226562 32.644531 117.058594 32.753906 117.003906 32.941406 C 116.933594 33.367188 116.773438 33.8125 116.511719 34.277344 C 116.171875 34.917969 115.769531 35.34375 115.308594 35.546875 L 114.164062 35.628906 C 113.835938 35.5625 113.636719 35.464844 113.570312 35.34375 C 113.433594 35.097656 113.714844 34.515625 114.40625 33.597656 L 115.125 32.511719 C 115.3125 32.144531 115.363281 31.828125 115.265625 31.570312 C 115.144531 31.214844 114.863281 30.988281 114.429688 30.894531 L 113.285156 30.851562 L 111.976562 30.789062 C 111.527344 30.679688 111.152344 30.421875 110.851562 30.011719 M 103.800781 19.472656 L 104.085938 20.230469 L 104.210938 20.96875 C 104.265625 21.242188 104.359375 21.378906 104.496094 21.378906 C 104.6875 21.378906 104.84375 21.175781 104.964844 20.765625 C 105.089844 20.328125 105.0625 19.929688 104.882812 19.578125 L 104.332031 18.59375 C 104.128906 18.359375 103.929688 18.402344 103.738281 18.714844 C 103.65625 18.878906 103.679688 19.132812 103.800781 19.472656 M 103.839844 17.8125 C 104.496094 18.796875 105.328125 19.480469 106.335938 19.863281 C 106.335938 20.054688 106.402344 20.347656 106.539062 20.746094 C 106.675781 21.15625 106.832031 21.511719 107.007812 21.8125 C 104.707031 24.707031 102.125 26.484375 99.265625 27.140625 L 96.648438 27.367188 L 95.625 27.242188 C 95.40625 27.203125 95.230469 27.269531 95.09375 27.449219 C 94.972656 27.625 94.953125 27.8125 95.035156 28.003906 L 95.175781 28.496094 L 95.136719 28.90625 L 94.339844 28.988281 C 93.03125 28.796875 92.082031 28.480469 91.496094 28.042969 L 90.988281 27.429688 C 90.988281 27.210938 90.890625 27.058594 90.699219 26.976562 C 87.417969 25.636719 85.863281 23.027344 86.039062 19.144531 C 86.09375 17.929688 86.328125 16.65625 86.734375 15.332031 L 87.328125 13.671875 C 87.382812 13.519531 87.363281 13.355469 87.265625 13.179688 C 87.078125 12.894531 86.933594 12.550781 86.839844 12.15625 C 86.632812 11.390625 86.722656 10.710938 87.105469 10.125 C 87.238281 9.90625 87.417969 9.789062 87.636719 9.777344 C 88.042969 9.722656 88.582031 9.898438 89.25 10.308594 C 89.289062 10.035156 89.515625 9.785156 89.925781 9.550781 C 90.46875 9.238281 91.015625 9.429688 91.558594 10.125 C 92.050781 10.753906 92.328125 11.492188 92.398438 12.339844 L 92.375 13.058594 C 92.390625 13.546875 92.472656 13.828125 92.621094 13.898438 C 92.867188 14.019531 93.125 13.589844 93.398438 12.605469 C 93.917969 11.746094 94.46875 10.984375 95.054688 10.328125 C 95.707031 9.605469 96.199219 9.25 96.523438 9.265625 C 97.125 9.292969 97.765625 9.667969 98.445312 10.390625 C 99.195312 11.183594 99.625 12.050781 99.734375 12.996094 C 99.871094 14.101562 100.359375 15.15625 101.207031 16.152344 C 102.0625 17.136719 102.941406 17.691406 103.839844 17.8125 M 102.351562 20.230469 L 101.265625 20.355469 C 101.347656 20.96875 101.382812 21.6875 101.367188 22.507812 L 99.039062 22.363281 L 98.875 23.429688 L 101.246094 23.613281 L 101 24.394531 L 101.941406 24.925781 C 102.132812 24.613281 102.273438 24.148438 102.371094 23.53125 C 103.039062 23.4375 103.5625 23.265625 103.945312 23.019531 L 103.351562 22.117188 L 102.453125 22.425781 C 102.464844 21.632812 102.429688 20.902344 102.351562 20.230469 M 107.992188 3.933594 C 108.890625 4.136719 109.496094 4.4375 109.808594 4.835938 C 110.109375 5.164062 110.203125 6.058594 110.09375 7.519531 C 110.066406 8.246094 110.074219 8.710938 110.117188 8.914062 C 110.183594 9.296875 110.53125 9.660156 111.160156 10 C 111.921875 10.410156 112.453125 10.820312 112.753906 11.230469 C 112.863281 11.394531 112.984375 12.03125 113.121094 13.140625 C 113.324219 14.136719 113.671875 14.546875 114.164062 14.367188 C 114.21875 15.476562 113.828125 16.40625 112.996094 17.15625 L 111.648438 17.976562 L 110.996094 18.203125 L 111.363281 18.796875 C 111.636719 19.234375 111.691406 19.664062 111.527344 20.089844 C 111.347656 20.621094 110.757812 21.046875 109.75 21.359375 L 107.886719 21.277344 C 107.628906 21.074219 107.472656 20.683594 107.417969 20.109375 L 107.886719 20.128906 C 109.101562 20.128906 110.066406 19.40625 110.789062 17.957031 C 111.160156 17.230469 111.402344 16.46875 111.527344 15.660156 C 111.566406 15.265625 111.484375 15.019531 111.28125 14.921875 C 111.160156 14.867188 110.960938 14.949219 110.6875 15.167969 L 109.871094 15.722656 C 109.339844 15.941406 108.753906 16.078125 108.113281 16.132812 L 107.316406 16.152344 C 108.023438 16.78125 108.984375 16.902344 110.199219 16.519531 C 109.667969 18.203125 108.898438 19.042969 107.886719 19.042969 C 107.003906 19.042969 106.199219 18.722656 105.476562 18.078125 L 104.640625 17.035156 L 104.476562 16.746094 L 104.148438 16.746094 C 103.523438 16.746094 102.847656 16.34375 102.125 15.539062 C 101.363281 14.691406 100.925781 13.800781 100.816406 12.871094 C 100.667969 11.613281 100.164062 10.453125 99.304688 9.386719 C 98.460938 8.335938 97.609375 7.800781 96.75 7.789062 C 95.808594 7.773438 94.972656 8.175781 94.234375 8.996094 C 93.625 9.695312 93.179688 10.546875 92.90625 11.558594 C 92.867188 10.492188 92.457031 9.667969 91.679688 9.078125 C 91.042969 8.585938 90.429688 8.394531 89.84375 8.503906 C 90.742188 6.726562 91.46875 5.390625 92.027344 4.488281 C 93.039062 2.859375 93.894531 1.902344 94.605469 1.617188 C 95.339844 1.34375 96.089844 1.144531 96.851562 1.023438 C 97.914062 0.871094 98.765625 0.933594 99.40625 1.207031 L 101.449219 0.796875 C 102.609375 0.507812 103.582031 0.667969 104.375 1.269531 L 105.292969 2.394531 C 105.742188 3.011719 106.109375 3.394531 106.394531 3.542969 L 107.195312 3.808594 L 107.992188 3.933594 M 119.292969 18.898438 L 119.167969 19.125 L 118.269531 22.117188 L 110.585938 22.222656 C 111.609375 21.8125 112.261719 21.222656 112.546875 20.457031 C 112.738281 19.953125 112.730469 19.390625 112.527344 18.777344 C 113.386719 18.351562 114.101562 17.636719 114.671875 16.625 C 115.339844 15.433594 115.476562 14.300781 115.082031 13.21875 C 115.015625 13.097656 114.753906 12.960938 114.304688 12.8125 C 113.9375 12.675781 113.609375 12.085938 113.324219 11.046875 C 113.242188 10.761719 112.828125 10.226562 112.078125 9.449219 C 111.382812 8.722656 111.027344 8.164062 111.015625 7.765625 L 110.996094 6.945312 C 113.257812 6.945312 115.421875 7.390625 117.492188 8.28125 C 119.769531 9.25 122.441406 10.957031 125.503906 13.40625 C 127.792969 15.222656 128.945312 17.273438 128.960938 19.554688 C 128.988281 21.332031 128.351562 23.203125 127.058594 25.171875 C 126.253906 26.417969 125.28125 27.570312 124.136719 28.636719 C 123.414062 27.679688 122.5 26.914062 121.398438 26.339844 C 120.210938 25.726562 119.195312 25.550781 118.351562 25.808594 C 118.433594 25.289062 118.882812 23.957031 119.699219 21.8125 L 120.925781 18.695312 C 121.050781 18.433594 120.988281 18.210938 120.742188 18.019531 L 120.375 17.9375 C 120.238281 17.949219 120.125 18.003906 120.027344 18.101562 L 119.292969 18.898438 M 50.03125 13.078125 C 50.261719 13.460938 50.296875 14.136719 50.132812 15.105469 L 47.824219 15.394531 C 48.070312 14.109375 48.441406 13.273438 48.945312 12.894531 C 49.125 12.757812 49.308594 12.707031 49.5 12.75 C 49.730469 12.789062 49.90625 12.898438 50.03125 13.078125 M 24.015625 20.3125 L 23.644531 19.964844 C 23.78125 20.390625 24.121094 21.222656 24.667969 22.46875 C 25.0625 23.628906 25.015625 24.449219 24.523438 24.925781 C 24.117188 25.335938 23.597656 25.582031 22.972656 25.664062 L 21.214844 25.644531 C 19.890625 25.5625 18.222656 25.199219 16.207031 24.558594 C 13.726562 23.75 12.09375 23.273438 11.300781 23.121094 L 11.445312 23.410156 L 11.667969 23.695312 C 12.570312 23.875 14.3125 24.429688 16.902344 25.359375 C 19.027344 26.125 20.804688 26.53125 22.234375 26.585938 L 24.199219 26.503906 C 24.988281 26.3125 25.390625 25.882812 25.402344 25.214844 C 25.417969 24.488281 25.320312 23.730469 25.117188 22.9375 L 24.441406 20.746094 L 24.015625 20.3125 M 38.136719 24.84375 C 39.183594 25.035156 39.949219 25.304688 40.425781 25.644531 C 40.832031 25.933594 40.929688 26.464844 40.710938 27.242188 L 39.996094 28.925781 L 38.15625 32.207031 L 36.195312 35.425781 C 35.882812 35.929688 35.511719 36.660156 35.089844 37.617188 L 34.046875 39.8125 C 33.136719 41.425781 31.78125 42.75 29.980469 43.789062 C 28.429688 44.691406 26.621094 45.332031 24.566406 45.714844 L 18.925781 45.980469 L 13.324219 45.386719 L 8.644531 45.058594 L 4.003906 44.527344 C 2.78125 44.292969 1.90625 44.046875 1.390625 43.789062 C 0.464844 43.308594 0.0078125 42.613281 0.0195312 41.699219 C 0.0625 39.8125 0.824219 38 2.308594 36.265625 C 3.234375 35.183594 4.164062 34.332031 5.089844 33.703125 C 5.945312 33.277344 6.527344 32.949219 6.824219 32.71875 C 8.203125 34.6875 9.476562 36.011719 10.648438 36.695312 C 11.847656 37.390625 13.238281 37.898438 14.816406 38.210938 L 19.25 38.519531 C 21.511719 38.425781 23.53125 38.097656 25.300781 37.535156 C 27.5625 36.8125 29.273438 35.746094 30.429688 34.335938 C 31.546875 32.941406 32.046875 31.625 31.921875 30.378906 C 31.894531 30.132812 31.753906 29.785156 31.492188 29.335938 L 30.921875 28.332031 L 29.921875 26.300781 L 30.164062 28.308594 C 30.246094 29.253906 30.179688 29.957031 29.960938 30.421875 C 28.667969 33.222656 26.035156 34.917969 22.070312 35.507812 C 19.578125 35.863281 16.964844 35.738281 14.222656 35.136719 C 11.144531 34.46875 8.78125 33.339844 7.132812 31.753906 C 7.296875 30.484375 7.5 29.238281 7.746094 28.023438 L 8.625 24.640625 L 8.929688 23.347656 C 9.066406 22.828125 9.230469 22.417969 9.421875 22.117188 C 9.695312 21.652344 10.28125 21.429688 11.179688 21.441406 L 13.265625 21.441406 C 13.863281 21.304688 14.511719 20.894531 15.207031 20.210938 L 16.902344 18.652344 C 17.460938 18.3125 18.222656 18.203125 19.191406 18.324219 L 21.519531 18.46875 L 22.949219 17.875 C 23.632812 17.574219 24.101562 17.449219 24.359375 17.503906 C 24.6875 17.574219 25.042969 17.875 25.425781 18.40625 L 26.179688 19.617188 L 27.917969 22.117188 C 28.652344 23.210938 29.109375 24.105469 29.285156 24.804688 L 31.71875 24.394531 C 33.515625 24.175781 34.851562 24.183594 35.722656 24.414062 L 38.136719 24.84375 M 35.886719 4.691406 C 34.757812 5.582031 33.84375 6.542969 33.148438 7.582031 C 32.46875 8.609375 32.128906 9.53125 32.128906 10.351562 L 32.128906 10.410156 C 31.269531 10.191406 30.574219 9.90625 30.042969 9.550781 C 29.253906 9.019531 28.878906 8.382812 28.917969 7.644531 C 28.945312 7 29.707031 6.402344 31.207031 5.839844 C 32.460938 5.363281 34.019531 4.980469 35.886719 4.691406 M 50.785156 16.5625 C 50.363281 17.585938 50.242188 18.796875 50.417969 20.191406 C 50.5 20.902344 50.636719 21.539062 50.828125 22.097656 L 50.910156 22.304688 L 43.777344 21.996094 C 42.890625 21.925781 41.847656 21.59375 40.648438 20.992188 C 39.234375 20.28125 38.273438 19.460938 37.769531 18.53125 C 37.292969 17.613281 37.324219 16.65625 37.871094 15.660156 C 38.128906 15.210938 38.613281 15.09375 39.320312 15.3125 C 39.960938 15.515625 40.457031 15.867188 40.8125 16.359375 L 42.140625 17.976562 C 42.671875 18.511719 43.253906 18.933594 43.878906 19.25 L 44.59375 19.515625 L 45.289062 19.597656 C 45.328125 19.554688 45.242188 19.433594 45.023438 19.226562 C 44.722656 18.96875 44.527344 18.734375 44.429688 18.53125 C 43.96875 17.628906 43.621094 16.589844 43.386719 15.414062 C 43.15625 14.183594 43.15625 13.355469 43.386719 12.933594 C 43.457031 12.824219 43.546875 12.761719 43.652344 12.75 C 44.320312 12.652344 44.988281 13.058594 45.65625 13.957031 C 46.039062 14.476562 46.371094 15.078125 46.660156 15.761719 C 46.304688 15.996094 45.910156 16.359375 45.472656 16.847656 L 44.902344 17.566406 C 44.820312 17.691406 44.851562 17.785156 45.003906 17.855469 L 45.371094 17.792969 C 46.078125 16.957031 47.210938 16.441406 48.761719 16.234375 C 50.277344 16.03125 50.949219 16.140625 50.785156 16.5625 "/>
</g>
</svg>
