<?xml version="1.0" encoding="UTF-8"?>
<svg xmlns="http://www.w3.org/2000/svg" xmlns:xlink="http://www.w3.org/1999/xlink" width="128pt" height="109pt" viewBox="0 0 128 109" version="1.1">
<g id="surface1">
<path style=" stroke:none;fill-rule:nonzero;fill:rgb(20%,20%,20%);fill-opacity:1;" d="M 121.226562 0.277344 L 121.226562 46.910156 L 124.628906 51.621094 L 116.308594 51.652344 L 115.121094 50.484375 L 113.261719 51.691406 L 108.203125 51.730469 L 113.464844 46.730469 L 113.464844 27.503906 L 82.820312 14.023438 L 87.398438 15.597656 L 82.710938 9.105469 L 88.453125 15.953125 L 113.464844 24.554688 L 113.464844 15.457031 L 106.011719 7.507812 C 105.90625 7.398438 104.277344 7.398438 101.121094 7.5 C 103.859375 6.957031 105.179688 6.628906 105.082031 6.519531 L 101.972656 3.226562 L 113.464844 13.386719 L 113.464844 0.277344 L 121.226562 0.277344 "/>
<path style=" stroke:none;fill-rule:nonzero;fill:rgb(40%,40%,40%);fill-opacity:1;" d="M 87.570312 15.644531 C 87.605469 15.695312 87.605469 15.726562 87.570312 15.734375 L 87.445312 15.726562 L 85.230469 14.972656 L 113.417969 27.367188 C 113.578125 27.4375 113.65625 27.519531 113.65625 27.613281 L 113.65625 46.824219 C 113.65625 46.9375 113.496094 47.132812 113.171875 47.410156 L 112.542969 47.921875 L 108.707031 51.558594 L 110.09375 51.550781 L 112.117188 51.542969 L 112.773438 51.542969 C 113.003906 51.53125 113.191406 51.476562 113.339844 51.378906 L 114.953125 50.328125 C 115 50.296875 115.089844 50.335938 115.222656 50.445312 L 116.246094 51.449219 L 116.292969 51.496094 L 120.601562 51.503906 L 122.847656 51.488281 L 124.367188 51.472656 L 124.382812 51.472656 L 121.335938 47.253906 L 121.160156 47.042969 C 121.074219 46.9375 121.035156 46.859375 121.035156 46.800781 L 121.035156 0.433594 L 113.65625 0.433594 L 113.65625 13.503906 C 113.65625 13.558594 113.613281 13.566406 113.519531 13.527344 L 113.355469 13.425781 L 103.523438 4.730469 L 103.734375 4.949219 L 104.695312 5.875 C 105.183594 6.394531 105.328125 6.6875 105.128906 6.761719 C 104.617188 6.953125 103.984375 7.128906 103.230469 7.28125 L 103.214844 7.289062 L 103.53125 7.28125 L 105.21875 7.28125 L 105.617188 7.289062 C 105.78125 7.300781 105.90625 7.335938 105.996094 7.390625 C 106.234375 7.542969 106.507812 7.792969 106.816406 8.148438 L 107.550781 9.003906 L 113.214844 15.042969 C 113.449219 15.289062 113.585938 15.5 113.628906 15.683594 C 113.648438 15.765625 113.65625 16.023438 113.65625 16.453125 L 113.65625 24.671875 L 113.597656 24.71875 L 113.511719 24.695312 L 88.59375 16.125 C 88.480469 16.082031 88.371094 16.011719 88.265625 15.90625 L 88.011719 15.597656 L 84.625 11.5625 L 87.570312 15.644531 M 113.261719 0.167969 C 113.261719 0.136719 113.285156 0.121094 113.324219 0.121094 L 121.097656 0.121094 C 121.160156 0.121094 121.226562 0.148438 121.304688 0.207031 C 121.386719 0.269531 121.429688 0.332031 121.429688 0.394531 L 121.429688 46.996094 L 121.546875 47.152344 L 124.800781 51.667969 L 124.816406 51.746094 L 124.761719 51.785156 L 119.839844 51.816406 L 116.546875 51.808594 C 116.316406 51.808594 116.035156 51.636719 115.710938 51.300781 L 115.191406 50.695312 L 113.527344 51.785156 C 113.414062 51.855469 113.226562 51.890625 112.96875 51.882812 L 112.386719 51.851562 L 110.363281 51.859375 C 109.558594 51.859375 108.882812 51.867188 108.335938 51.882812 C 108.289062 51.882812 108.214844 51.847656 108.109375 51.777344 C 108 51.691406 107.96875 51.628906 108.007812 51.589844 L 112.667969 47.167969 L 113.070312 46.824219 C 113.199219 46.695312 113.261719 46.5625 113.261719 46.429688 L 113.261719 27.527344 L 82.867188 14.15625 C 82.785156 14.128906 82.714844 14.066406 82.65625 13.96875 C 82.632812 13.921875 82.625 13.890625 82.640625 13.875 L 82.765625 13.882812 L 87.105469 15.378906 L 82.566406 9.097656 L 82.574219 9.097656 L 82.542969 9.058594 C 82.480469 8.96875 82.503906 8.945312 82.617188 8.980469 C 82.734375 9.015625 82.808594 9.058594 82.851562 9.105469 L 88.515625 15.859375 L 113.261719 24.375 L 113.261719 15.667969 C 113.261719 15.503906 113.242188 15.390625 113.199219 15.324219 L 106.390625 8.054688 L 106.1875 7.84375 C 106.066406 7.703125 106.019531 7.636719 106.058594 7.640625 L 105.601562 7.601562 C 105.109375 7.585938 104.5625 7.582031 103.957031 7.59375 C 103.152344 7.597656 102.25 7.621094 101.253906 7.65625 C 101.203125 7.65625 101.125 7.605469 101.019531 7.507812 C 100.917969 7.410156 100.894531 7.355469 100.949219 7.34375 L 102.726562 6.988281 L 104.484375 6.550781 C 104.703125 6.488281 104.808594 6.441406 104.808594 6.402344 L 104.539062 6.09375 L 101.828125 3.21875 C 101.738281 3.125 101.742188 3.085938 101.84375 3.09375 C 101.941406 3.105469 102.019531 3.136719 102.074219 3.1875 L 113.261719 13.089844 L 113.261719 0.167969 "/>
<path style=" stroke:none;fill-rule:nonzero;fill:rgb(40%,40%,40%);fill-opacity:1;" d="M 119.734375 10.078125 C 119.734375 10.0625 119.757812 10.050781 119.808594 10.046875 L 119.886719 10.054688 C 119.945312 10.550781 119.984375 11.152344 120.011719 11.859375 L 120.058594 13.664062 L 120.136719 16.265625 C 120.15625 17.246094 120.15625 18.113281 120.136719 18.867188 L 120.113281 19.707031 C 120.054688 20.152344 119.925781 20.273438 119.726562 20.070312 L 119.515625 19.855469 C 119.402344 19.761719 119.328125 19.761719 119.296875 19.855469 C 119.214844 20.097656 119.167969 20.402344 119.152344 20.765625 L 119.167969 21.699219 C 119.1875 22.082031 119.230469 22.390625 119.296875 22.625 C 119.421875 23.035156 119.597656 23.074219 119.816406 22.742188 L 119.902344 22.710938 L 119.972656 22.71875 C 119.960938 24.390625 119.910156 25.84375 119.808594 27.085938 L 119.65625 27.117188 C 119.734375 26.144531 119.777344 25.171875 119.792969 24.199219 L 119.816406 22.898438 L 119.710938 22.984375 C 119.582031 23.066406 119.464844 23.085938 119.367188 23.039062 C 119.203125 22.960938 119.097656 22.761719 119.050781 22.4375 L 119.011719 21.722656 L 118.972656 20.75 C 118.980469 20.304688 119.046875 19.992188 119.183594 19.816406 C 119.28125 19.683594 119.402344 19.664062 119.546875 19.753906 L 119.871094 20.039062 L 119.902344 20.0625 L 119.902344 20.03125 L 119.949219 19.707031 L 119.988281 18.554688 L 119.949219 15.246094 L 119.894531 12.660156 C 119.871094 11.648438 119.816406 10.789062 119.734375 10.078125 "/>
<path style=" stroke:none;fill-rule:nonzero;fill:rgb(40%,40%,40%);fill-opacity:1;" d="M 116.585938 3.820312 C 116.585938 3.804688 116.613281 3.792969 116.664062 3.789062 L 116.742188 3.796875 L 116.84375 6.046875 L 116.964844 10.101562 C 116.992188 11.59375 116.988281 12.945312 116.949219 14.148438 L 116.914062 15.511719 C 116.875 16.039062 116.796875 16.484375 116.671875 16.839844 C 116.601562 17.042969 116.503906 17.171875 116.386719 17.230469 C 116.25 17.292969 116.132812 17.21875 116.027344 17.011719 L 115.835938 16.523438 L 115.65625 16.023438 C 115.640625 15.835938 115.625 15.789062 115.609375 15.875 C 115.589844 15.992188 115.574219 16.167969 115.5625 16.40625 C 115.554688 17.101562 115.632812 18.140625 115.796875 19.519531 L 116.003906 21.097656 C 116.09375 21.6875 116.199219 22.203125 116.324219 22.65625 L 116.476562 23.101562 L 116.523438 23.199219 L 116.539062 23.132812 C 116.601562 22.945312 116.644531 22.714844 116.664062 22.4375 L 116.695312 21.730469 L 116.773438 21.699219 L 116.851562 21.707031 L 116.851562 29.179688 L 116.890625 30.277344 C 116.90625 30.722656 116.882812 31.085938 116.820312 31.367188 C 116.753906 31.660156 116.628906 31.605469 116.449219 31.195312 C 116.316406 30.898438 116.230469 30.648438 116.183594 30.441406 C 116.019531 29.800781 115.851562 29.050781 115.679688 28.191406 L 115.679688 36.238281 L 115.527344 36.269531 L 115.527344 27.398438 C 115.527344 27.382812 115.550781 27.371094 115.601562 27.367188 L 115.679688 27.375 C 115.890625 28.492188 116.082031 29.390625 116.246094 30.066406 L 116.410156 30.742188 C 116.476562 31.011719 116.554688 31.230469 116.648438 31.398438 L 116.664062 31.414062 L 116.640625 31.476562 C 116.6875 31.5 116.695312 31.480469 116.664062 31.414062 L 116.679688 31.25 L 116.695312 30.386719 L 116.695312 23.125 C 116.648438 23.199219 116.59375 23.246094 116.523438 23.253906 C 116.394531 23.277344 116.289062 23.148438 116.199219 22.875 L 116.082031 22.3125 C 115.886719 21.398438 115.71875 20.28125 115.578125 18.957031 L 115.425781 17.511719 C 115.382812 16.945312 115.386719 16.460938 115.441406 16.054688 C 115.460938 15.878906 115.511719 15.78125 115.59375 15.765625 C 115.671875 15.75 115.746094 15.828125 115.8125 16 L 115.976562 16.5 C 116.042969 16.695312 116.113281 16.855469 116.183594 16.980469 C 116.304688 17.195312 116.402344 17.203125 116.484375 17.003906 L 116.617188 16.460938 C 116.796875 15.457031 116.886719 14.25 116.882812 12.832031 L 116.789062 9.199219 C 116.738281 7.199219 116.667969 5.40625 116.585938 3.820312 "/>
<path style=" stroke:none;fill-rule:nonzero;fill:rgb(40%,40%,40%);fill-opacity:1;" d="M 118.886719 38.535156 C 118.621094 37.238281 118.5 36.324219 118.523438 35.796875 C 118.554688 35.09375 118.667969 34.367188 118.855469 33.609375 C 118.339844 34.792969 117.992188 36.207031 117.8125 37.859375 C 117.742188 38.476562 117.738281 39.144531 117.796875 39.867188 C 117.832031 40.316406 117.917969 40.988281 118.050781 41.875 C 118.230469 43.015625 118.332031 43.910156 118.351562 44.550781 C 118.375 45.238281 118.367188 45.789062 118.339844 46.210938 L 118.316406 46.644531 C 118.300781 46.808594 118.265625 46.933594 118.214844 47.027344 L 118.253906 46.957031 C 118.421875 46.644531 118.53125 46.230469 118.578125 45.710938 L 118.625 44.402344 C 118.652344 42.96875 118.589844 41.355469 118.445312 39.570312 C 118.441406 39.554688 118.464844 39.542969 118.515625 39.53125 L 118.601562 39.539062 L 119.089844 40.964844 C 119.152344 40.316406 119.085938 39.503906 118.886719 38.535156 M 118.988281 33.117188 L 119.144531 33.09375 C 118.734375 34.429688 118.585938 35.535156 118.695312 36.417969 C 118.765625 36.96875 118.917969 37.773438 119.144531 38.839844 C 119.308594 39.785156 119.324219 40.59375 119.191406 41.273438 L 119.113281 41.3125 L 119.035156 41.304688 L 118.648438 40.167969 C 118.71875 41.222656 118.765625 42.257812 118.78125 43.269531 C 118.789062 44.457031 118.753906 45.34375 118.671875 45.929688 L 118.5625 46.566406 C 118.496094 46.828125 118.390625 47.007812 118.246094 47.113281 L 118.167969 47.136719 L 118.097656 47.128906 C 118.273438 45.640625 118.230469 44.046875 117.972656 42.347656 L 117.695312 40.707031 C 117.589844 40.0625 117.550781 39.507812 117.570312 39.042969 C 117.605469 37.867188 117.789062 36.667969 118.113281 35.4375 L 118.453125 34.230469 C 118.605469 33.785156 118.78125 33.414062 118.988281 33.117188 "/>
</g>
</svg>
