<?xml version="1.0" encoding="UTF-8"?>
<svg xmlns="http://www.w3.org/2000/svg" xmlns:xlink="http://www.w3.org/1999/xlink" width="128pt" height="60pt" viewBox="0 0 128 60" version="1.1">
<g id="surface1">
<path style=" stroke:none;fill-rule:nonzero;fill:rgb(100%,100%,100%);fill-opacity:1;" d="M 98.527344 32.644531 C 98.527344 39.015625 95.15625 44.503906 88.414062 49.109375 C 81.570312 53.617188 73.359375 55.871094 63.78125 55.871094 C 54.199219 55.871094 45.988281 53.617188 39.148438 49.109375 C 32.402344 44.503906 29.03125 39.015625 29.03125 32.644531 C 29.03125 26.277344 32.402344 20.835938 39.148438 16.328125 C 45.988281 11.820312 54.199219 9.566406 63.78125 9.566406 C 73.359375 9.566406 81.570312 11.820312 88.414062 16.328125 C 95.15625 20.835938 98.527344 26.277344 98.527344 32.644531 "/>
<path style=" stroke:none;fill-rule:nonzero;fill:rgb(100%,100%,100%);fill-opacity:1;" d="M 106.59375 28.53125 L 109.964844 28.089844 L 112.605469 30.148438 L 125.800781 51.902344 C 127.265625 54.351562 126.730469 56.3125 124.1875 57.78125 C 121.644531 59.253906 119.644531 58.761719 118.175781 56.3125 L 107.328125 38.230469 L 95.011719 44.699219 C 92.566406 46.070312 90.613281 45.484375 89.144531 42.9375 C 87.679688 40.386719 88.167969 38.425781 90.613281 37.054688 L 106.59375 28.53125 "/>
<path style=" stroke:none;fill-rule:nonzero;fill:rgb(100%,100%,100%);fill-opacity:1;" d="M 35.628906 36.320312 C 38.171875 37.691406 38.660156 39.652344 37.09375 42.199219 C 35.628906 44.652344 33.625 45.238281 31.082031 43.964844 L 20.671875 38.230469 L 9.675781 56.3125 C 8.210938 58.761719 6.253906 59.253906 3.8125 57.78125 C 1.269531 56.3125 0.734375 54.351562 2.199219 51.902344 L 15.25 30.148438 C 15.835938 29.070312 16.714844 28.382812 17.886719 28.089844 L 21.261719 28.53125 L 35.628906 36.320312 "/>
<path style=" stroke:none;fill-rule:nonzero;fill:rgb(100%,100%,100%);fill-opacity:1;" d="M 8.503906 1.628906 L 14.074219 0.746094 L 20.527344 10.890625 L 36.800781 22.796875 L 34.164062 26.914062 L 15.6875 13.09375 L 8.796875 1.777344 L 8.503906 1.628906 "/>
<path style=" stroke:none;fill-rule:nonzero;fill:rgb(100%,100%,100%);fill-opacity:1;" d="M 118.324219 2.511719 L 111.871094 13.09375 L 93.398438 26.914062 L 90.757812 22.796875 L 107.035156 10.890625 L 113.925781 0.0117188 L 118.324219 2.511719 "/>
</g>
</svg>
