<?xml version="1.0" encoding="UTF-8"?>
<svg xmlns="http://www.w3.org/2000/svg" xmlns:xlink="http://www.w3.org/1999/xlink" width="127pt" height="96pt" viewBox="0 0 127 96" version="1.1">
<g id="surface1">
<path style=" stroke:none;fill-rule:nonzero;fill:rgb(100%,100%,100%);fill-opacity:1;" d="M 79.027344 40.882812 L 82.320312 40.625 L 88.132812 40.167969 L 93.878906 39.128906 L 92.003906 38.738281 L 87.550781 37.960938 L 79.285156 37.179688 L 79.027344 40.882812 M 51.457031 33.800781 L 39.773438 35.097656 L 33.703125 36.660156 C 30.5625 37.871094 29.378906 38.976562 30.152344 39.972656 C 30.753906 40.796875 32.324219 41.511719 34.867188 42.117188 L 41.191406 43.222656 L 54.171875 44.394531 C 64.113281 44.871094 73.175781 44.761719 81.351562 44.066406 C 86.429688 43.722656 90.691406 43.179688 94.136719 42.445312 C 99.472656 41.402344 102.164062 40.015625 102.207031 38.285156 C 102.121094 37.675781 101.5625 37.136719 100.527344 36.660156 L 97.882812 35.816406 L 91.488281 34.644531 L 79.609375 33.539062 L 79.414062 35.683594 L 90.070312 36.855469 L 93.621094 37.503906 C 94.996094 37.851562 96.007812 38.285156 96.652344 38.804688 L 96.914062 39.453125 L 96.394531 39.972656 C 94.417969 40.710938 91.960938 41.25 89.035156 41.597656 L 81.480469 42.183594 C 75.671875 42.617188 69.839844 42.746094 63.984375 42.574219 L 47.132812 41.792969 L 39.320312 40.429688 C 37.46875 39.996094 36.222656 39.519531 35.574219 39 L 35.382812 38.347656 L 35.898438 37.894531 C 38.007812 37.15625 40.613281 36.617188 43.710938 36.269531 L 51.78125 35.621094 L 51.457031 33.800781 M 51.976562 37.113281 L 43.582031 37.894531 L 38.417969 38.738281 L 41.578125 39.453125 L 49.457031 40.492188 L 52.554688 40.6875 L 51.976562 37.113281 M 47.84375 19.242188 L 48.101562 19.957031 L 52.105469 29.902344 C 53.695312 33.929688 54.707031 37.589844 55.140625 40.882812 L 62.886719 41.144531 L 61.335938 30.808594 L 59.59375 19.957031 L 59.464844 19.242188 C 58.128906 18.503906 56.925781 17.640625 55.847656 16.644531 L 53.976562 17.292969 L 54.621094 19.957031 L 56.816406 28.796875 L 58.820312 37.699219 C 58.648438 37.914062 58.429688 38.023438 58.171875 38.023438 L 58.042969 38.023438 L 57.65625 37.765625 L 52.945312 19.957031 L 52.296875 17.617188 C 50.578125 17.921875 48.855469 17.921875 47.132812 17.617188 C 47.21875 18.265625 47.457031 18.808594 47.84375 19.242188 M 77.671875 19.957031 L 74.765625 21.0625 L 71.472656 41.144531 L 76.121094 41.011719 C 76.25 38.804688 77.003906 35.488281 78.382812 31.070312 L 81.867188 19.957031 L 82.386719 18.074219 L 82.902344 16.835938 L 80.835938 18.265625 L 77.671875 19.957031 M 71.539062 21.839844 L 70.054688 22.035156 C 67.296875 22.078125 64.542969 21.539062 61.789062 20.410156 L 62.953125 28.925781 L 63.53125 34.449219 L 64.179688 41.144531 L 69.34375 41.207031 C 69.515625 37.050781 70.246094 30.59375 71.539062 21.839844 M 83.742188 6.960938 C 84.042969 5.574219 84.902344 5.246094 86.324219 5.984375 C 87.789062 6.722656 88.390625 7.675781 88.132812 8.84375 C 87.746094 10.445312 87.035156 12.007812 86 13.523438 L 88.710938 14.953125 L 89.421875 15.40625 L 89.421875 15.667969 L 90.261719 15.667969 C 91.8125 16.101562 94.09375 16.101562 97.105469 15.667969 L 107.113281 15.667969 C 104.960938 17.097656 102.660156 18.027344 100.207031 18.460938 C 96.460938 19.15625 92.199219 18.742188 87.421875 17.226562 L 87.421875 17.359375 L 86.453125 17.421875 L 85.289062 19.957031 L 83.675781 23.402344 L 79.671875 32.046875 L 94.460938 33.605469 L 100.140625 34.90625 C 102.507812 35.683594 103.820312 36.722656 104.078125 38.023438 L 104.144531 38.21875 C 104.144531 39.300781 103.605469 40.210938 102.53125 40.949219 C 101.238281 41.859375 99.539062 42.617188 97.429688 43.222656 L 91.683594 44.394531 L 78.640625 45.757812 L 78.511719 60.183594 L 78.253906 74.546875 L 83.355469 69.609375 L 84.324219 69.480469 C 84.710938 69.695312 84.882812 69.976562 84.839844 70.324219 L 83.289062 83.386719 L 120.285156 49.265625 L 121.449219 49.332031 C 121.878906 49.679688 121.921875 50.046875 121.578125 50.4375 L 116.089844 57.324219 C 113.375 60.660156 109.953125 65.101562 105.824219 70.648438 L 95.621094 83.972656 C 98.761719 82.023438 102.832031 79.683594 107.824219 76.953125 C 112.773438 74.222656 116.820312 71.863281 119.960938 69.867188 L 121.125 69.933594 C 121.511719 70.238281 121.554688 70.605469 121.253906 71.039062 C 120.003906 73.117188 118.5 75.957031 116.734375 79.550781 C 115.054688 83.105469 113.550781 85.921875 112.214844 88 L 118.800781 86.3125 L 125.386719 84.621094 C 125.859375 84.492188 126.246094 84.601562 126.546875 84.945312 C 126.847656 85.335938 126.804688 85.703125 126.417969 86.050781 L 115.183594 95.996094 L 112.539062 95.996094 L 122.15625 87.480469 L 108.019531 91.898438 C 107.585938 92.03125 107.222656 91.945312 106.921875 91.640625 C 106.660156 91.378906 106.640625 91.054688 106.855469 90.664062 L 117.703125 73.3125 L 88.195312 91.769531 L 86.96875 91.707031 C 86.582031 91.402344 86.5625 91.054688 86.90625 90.664062 L 112.539062 58.753906 L 96.71875 74.289062 L 80.835938 89.753906 L 79.867188 89.886719 C 79.480469 89.667969 79.285156 89.386719 79.285156 89.039062 L 81.03125 80.851562 L 82.707031 72.664062 L 78.058594 77.210938 L 77.089844 90.210938 L 74.636719 89.171875 L 74.960938 83.582031 L 75.414062 65.320312 C 75.585938 54.269531 75.734375 47.792969 75.863281 45.886719 L 70.957031 46.082031 C 70.742188 47.988281 70.484375 54.464844 70.183594 65.515625 L 69.472656 84.492188 C 69.34375 82.457031 69.257812 76.171875 69.214844 65.644531 L 69.214844 46.082031 L 64.4375 46.148438 L 64.953125 64.148438 C 65.082031 74.546875 65.191406 80.117188 65.277344 80.851562 C 65.058594 79.769531 64.78125 74.113281 64.4375 63.890625 C 64.046875 53.40625 63.746094 47.492188 63.53125 46.148438 L 55.847656 45.953125 C 56.238281 48.726562 56.667969 55.941406 57.140625 67.59375 L 57.914062 87.609375 L 57.65625 87.351562 L 55.203125 84.167969 L 55.140625 83.777344 L 49.457031 75.261719 L 53.460938 88.910156 C 53.460938 89.257812 53.289062 89.496094 52.945312 89.625 L 52.039062 89.5625 L 49.457031 87.351562 L 32.800781 72.726562 L 16.140625 58.039062 C 18.035156 61.03125 21.566406 66.097656 26.730469 73.25 C 31.980469 80.484375 35.53125 85.554688 37.382812 88.457031 C 37.597656 88.800781 37.554688 89.128906 37.253906 89.429688 L 36.222656 89.625 C 33.464844 88.542969 28.644531 86.269531 21.757812 82.800781 C 14.828125 79.335938 10.007812 77.039062 7.296875 75.914062 L 18.789062 83.90625 L 30.28125 91.835938 C 30.667969 92.09375 30.777344 92.441406 30.605469 92.875 C 30.476562 93.308594 30.171875 93.480469 29.699219 93.394531 L 22.535156 92.226562 L 15.300781 90.992188 L 30.863281 95.996094 L 25.246094 95.996094 L 7.359375 90.210938 C 6.84375 90.082031 6.648438 89.753906 6.78125 89.234375 C 6.910156 88.714844 7.230469 88.5 7.746094 88.585938 L 23.371094 90.015625 L 0.644531 73.25 C 0.214844 72.945312 0.128906 72.578125 0.386719 72.144531 C 0.644531 71.667969 1.011719 71.535156 1.484375 71.753906 L 15.042969 76.5625 C 20.8125 78.46875 25.308594 80.09375 28.539062 81.4375 L 11.429688 54.011719 C 11.210938 53.664062 11.300781 53.316406 11.6875 52.972656 C 12.117188 52.667969 12.484375 52.667969 12.785156 52.972656 L 47.648438 82.347656 L 47.648438 72.144531 C 47.648438 71.710938 47.886719 71.472656 48.359375 71.429688 C 48.832031 71.386719 49.175781 71.535156 49.390625 71.882812 L 54.75 79.878906 L 54.105469 63.175781 L 53.332031 45.886719 L 47.519531 45.433594 C 41.320312 44.914062 36.714844 44.21875 33.703125 43.351562 C 29.011719 42.097656 27.289062 40.363281 28.539062 38.152344 C 29.183594 36.984375 30.625 36.007812 32.863281 35.230469 L 38.417969 33.863281 L 51.199219 32.304688 C 50.769531 30.183594 50.1875 28.363281 49.457031 26.847656 L 46.488281 21.648438 C 44.507812 22.644531 42.160156 23.511719 39.449219 24.246094 C 33.984375 25.675781 29.570312 25.589844 26.214844 23.988281 C 23.632812 22.945312 21.457031 21.601562 19.691406 19.957031 L 18.402344 18.722656 C 16.078125 16.210938 15 13.609375 15.171875 10.921875 L 13.171875 9.820312 L 16.398438 9.820312 L 16.398438 8.257812 L 17.625 6.960938 C 19.648438 4.707031 21.328125 3.125 22.664062 2.214844 C 24.988281 0.742188 27.3125 0.265625 29.636719 0.785156 L 31.183594 1.238281 L 29.828125 1.628906 C 26.300781 2.757812 23.738281 4.316406 22.144531 6.308594 C 20.597656 8.257812 20.164062 10.46875 20.855469 12.9375 C 21.414062 14.972656 22.640625 16.835938 24.535156 18.527344 L 26.40625 19.957031 C 27.742188 20.824219 29.183594 21.453125 30.734375 21.839844 C 32.929688 22.363281 35.53125 22.035156 38.546875 20.867188 L 40.546875 19.957031 C 42.3125 19.003906 43.324219 17.921875 43.582031 16.707031 L 43.515625 16.644531 C 41.578125 15.820312 39.921875 14.84375 38.546875 13.71875 C 36.867188 12.289062 35.832031 10.75 35.445312 9.105469 C 35.316406 8.539062 36.050781 7.976562 37.640625 7.414062 L 40.09375 7.152344 C 40.699219 9.582031 42.503906 11.636719 45.519531 13.328125 L 46.230469 13.71875 L 47.066406 14.109375 C 50.125 15.539062 52.707031 16.015625 54.816406 15.539062 L 53.847656 14.109375 C 53.203125 13.113281 52.75 12.070312 52.492188 10.988281 C 52.148438 9.558594 52.707031 8.84375 54.171875 8.84375 C 55.632812 8.800781 56.515625 9.429688 56.816406 10.730469 C 57.074219 11.984375 57.765625 13.113281 58.882812 14.109375 L 61.789062 16.058594 C 64.5 17.402344 67.0625 17.921875 69.472656 17.617188 C 72.699219 17.183594 75.671875 16.035156 78.382812 14.171875 C 81.308594 12.179688 83.09375 9.773438 83.742188 6.960938 "/>
</g>
</svg>
