<?xml version="1.0" encoding="UTF-8"?>
<svg xmlns="http://www.w3.org/2000/svg" xmlns:xlink="http://www.w3.org/1999/xlink" width="128pt" height="109pt" viewBox="0 0 128 109" version="1.1">
<defs>
<linearGradient id="linear0" gradientUnits="userSpaceOnUse" x1="-819.2" y1="0" x2="819.2" y2="0" gradientTransform="matrix(0.014263,0,0,0.00670353,65.510896,73.578314)">
<stop offset="0" style="stop-color:rgb(0%,0%,0%);stop-opacity:0;"/>
<stop offset="0.258824" style="stop-color:rgb(0%,0%,0%);stop-opacity:1;"/>
<stop offset="0.784314" style="stop-color:rgb(0%,0%,0%);stop-opacity:1;"/>
<stop offset="1" style="stop-color:rgb(0%,0%,0%);stop-opacity:0;"/>
</linearGradient>
</defs>
<g id="surface1">
<path style=" stroke:none;fill-rule:nonzero;fill:url(#linear0);" d="M 77.203125 79.066406 L 53.835938 79.066406 L 53.835938 68.082031 L 77.203125 68.082031 L 77.203125 79.066406 "/>
<path style=" stroke:none;fill-rule:nonzero;fill:rgb(40%,40%,40%);fill-opacity:1;" d="M 59.699219 56.820312 L 59.203125 59.605469 C 59.007812 61.40625 59.238281 62.167969 59.894531 61.894531 L 60.09375 61.464844 C 59.925781 61.410156 59.78125 61.171875 59.660156 60.757812 C 59.417969 59.929688 59.429688 58.613281 59.699219 56.820312 M 62.164062 50.523438 C 62.273438 50.453125 62.375 50.429688 62.472656 50.445312 C 62.820312 50.53125 62.988281 51.179688 62.976562 52.382812 C 62.957031 53.660156 62.722656 55.152344 62.28125 56.859375 C 61.914062 58.28125 61.472656 59.519531 60.960938 60.570312 C 60.496094 61.542969 60.074219 62.160156 59.691406 62.433594 L 59.621094 62.476562 L 59.296875 62.53125 L 59.21875 62.507812 C 58.917969 62.316406 58.796875 61.632812 58.855469 60.453125 C 58.917969 59.21875 59.164062 57.777344 59.597656 56.125 C 59.972656 54.699219 60.386719 53.476562 60.847656 52.460938 C 61.320312 51.398438 61.761719 50.75 62.164062 50.523438 "/>
<path style=" stroke:none;fill-rule:nonzero;fill:rgb(40%,40%,40%);fill-opacity:1;" d="M 57.863281 58.984375 L 57.855469 58.960938 C 57.730469 58.742188 57.691406 58.328125 57.730469 57.714844 C 57.785156 57.035156 57.929688 56.265625 58.164062 55.410156 C 58.414062 54.535156 58.699219 53.789062 59.019531 53.175781 C 59.300781 52.621094 59.550781 52.292969 59.761719 52.195312 C 59.265625 53.238281 58.835938 54.457031 58.476562 55.855469 C 58.1875 56.9375 57.980469 57.980469 57.863281 58.984375 "/>
<path style=" stroke:none;fill-rule:nonzero;fill:rgb(40%,40%,40%);fill-opacity:1;" d="M 61.359375 50.28125 C 61.464844 50.21875 61.570312 50.199219 61.667969 50.21875 L 62.046875 50.328125 C 61.617188 50.582031 61.144531 51.246094 60.621094 52.320312 C 60.109375 53.394531 59.664062 54.652344 59.28125 56.089844 C 58.929688 57.433594 58.707031 58.683594 58.613281 59.839844 C 58.511719 61.085938 58.589844 61.945312 58.847656 62.417969 L 58.492188 62.324219 C 58.398438 62.292969 58.316406 62.21875 58.25 62.105469 C 58.011719 61.707031 57.933594 60.921875 58.011719 59.753906 C 58.097656 58.582031 58.324219 57.300781 58.683594 55.910156 C 59.050781 54.511719 59.488281 53.289062 59.996094 52.234375 C 60.496094 51.164062 60.949219 50.515625 61.359375 50.28125 "/>
<path style=" stroke:none;fill-rule:nonzero;fill:rgb(40%,40%,40%);fill-opacity:1;" d="M 68.84375 64.238281 L 68.84375 64.230469 L 68.972656 64.230469 L 68.84375 64.238281 M 71.042969 62.859375 C 71.042969 62.71875 70.878906 62.585938 70.554688 62.464844 L 70.554688 63.265625 C 70.878906 63.140625 71.042969 63.003906 71.042969 62.859375 M 61.078125 62.417969 L 61.132812 62.507812 L 61.132812 63.980469 C 59.957031 63.707031 59.367188 63.378906 59.367188 63 C 59.367188 62.609375 59.992188 62.277344 61.242188 62.003906 C 62.488281 61.734375 63.996094 61.597656 65.765625 61.597656 C 67.53125 61.597656 69.042969 61.734375 70.292969 62.003906 C 71.542969 62.277344 72.167969 62.609375 72.167969 63 C 72.167969 63.394531 71.542969 63.726562 70.292969 63.996094 L 70.214844 64.019531 L 70.214844 63.375 L 70.429688 63.3125 L 70.414062 63.28125 L 70.414062 62.410156 L 70.269531 62.363281 L 70.269531 63.242188 C 70.175781 63.175781 70.128906 63.121094 70.128906 63.078125 L 70.128906 62.324219 C 69.085938 62.039062 67.632812 61.894531 65.765625 61.894531 C 64.566406 61.894531 63.472656 61.96875 62.480469 62.113281 L 62.480469 63.101562 C 62.386719 63.039062 62.34375 62.988281 62.34375 62.945312 L 62.34375 62.128906 L 62.1875 62.160156 L 62.195312 62.199219 L 62.195312 63.242188 L 62.125 63.195312 L 62.125 63.09375 L 62.054688 63.09375 L 62.054688 62.175781 L 61.898438 62.199219 L 61.90625 62.238281 L 61.90625 63.09375 L 61.769531 63.085938 L 61.769531 62.230469 L 61.078125 62.417969 M 61 62.457031 C 60.660156 62.578125 60.488281 62.714844 60.488281 62.859375 C 60.488281 63.011719 60.660156 63.148438 61 63.273438 L 61 62.457031 "/>
<path style=" stroke:none;fill-rule:nonzero;fill:rgb(40%,40%,40%);fill-opacity:1;" d="M 61.132812 64.160156 L 61.132812 64.71875 C 59.980469 64.457031 59.390625 64.136719 59.367188 63.761719 C 59.214844 63.976562 59.070312 64.101562 58.925781 64.144531 L 58.367188 64.214844 C 58.132812 64.230469 57.972656 64.285156 57.878906 64.378906 L 57.28125 64.96875 C 57.054688 65.203125 56.890625 65.417969 56.785156 65.617188 C 56.777344 65.636719 56.75 65.609375 56.707031 65.53125 C 56.832031 65.316406 56.992188 65.117188 57.179688 64.929688 L 57.5 64.601562 L 57.800781 64.292969 C 57.921875 64.210938 58.09375 64.164062 58.320312 64.160156 C 58.574219 64.148438 58.75 64.117188 58.855469 64.066406 C 59.0625 63.945312 59.257812 63.746094 59.445312 63.46875 L 59.476562 63.484375 L 59.492188 63.476562 C 59.804688 63.699219 60.324219 63.914062 61.046875 64.128906 L 61.132812 64.160156 M 74.273438 65 L 74.941406 65.179688 L 74.988281 65.273438 L 74.242188 65.078125 C 73.949219 64.988281 73.726562 64.875 73.578125 64.734375 L 72.964844 64.113281 C 72.714844 63.90625 72.445312 63.8125 72.152344 63.832031 C 72.058594 64.195312 71.40625 64.507812 70.191406 64.765625 L 70.191406 64.285156 C 71.054688 64.140625 71.6875 63.960938 72.089844 63.753906 L 72.089844 63.738281 L 72.144531 63.738281 L 72.160156 63.714844 L 72.167969 63.738281 C 72.554688 63.722656 72.863281 63.855469 73.089844 64.128906 C 73.285156 64.371094 73.460938 64.550781 73.617188 64.664062 C 73.816406 64.828125 74.035156 64.9375 74.273438 65 "/>
</g>
</svg>
