<?xml version="1.0" encoding="UTF-8"?>
<svg xmlns="http://www.w3.org/2000/svg" xmlns:xlink="http://www.w3.org/1999/xlink" width="127pt" height="121pt" viewBox="0 0 127 121" version="1.1">
<g id="surface1">
<path style=" stroke:none;fill-rule:nonzero;fill:rgb(100%,100%,100%);fill-opacity:1;" d="M 34.550781 4.609375 C 34.445312 4.933594 33.734375 5.503906 32.417969 6.324219 L 25.753906 9.757812 L 22.929688 11.3125 L 24.207031 13.027344 L 25.007812 14.3125 L 24.902344 14.476562 L 24.367188 14.957031 L 23.140625 15.171875 L 22.289062 14.6875 L 20.847656 12.4375 L 16.796875 14.851562 L 16.796875 14.902344 L 16.691406 15.117188 L 16.210938 15.546875 C 15.820312 15.726562 15.429688 15.851562 15.039062 15.921875 L 14.769531 16.136719 C 12.246094 17.710938 10.167969 19.316406 8.535156 20.960938 L 9.441406 22.730469 L 9.441406 22.785156 L 8.855469 23.265625 L 8.054688 23.695312 L 7.09375 22.570312 L 6.988281 22.464844 C 5.742188 23.929688 4.785156 25.359375 4.109375 26.75 C 2.757812 29.648438 2.402344 32.953125 3.042969 36.667969 L 4.003906 36.9375 C 5.175781 37.367188 5.742188 37.9375 5.707031 38.652344 L 5.601562 38.707031 L 5.121094 39.242188 L 3.789062 39.351562 L 4.375 41.441406 L 4.535156 41.441406 L 4.535156 41.761719 L 4.910156 42.621094 L 11.679688 53.289062 L 17.222656 58.8125 L 17.382812 59.453125 L 16.796875 59.992188 C 16.121094 60.382812 14.984375 59.757812 13.386719 58.113281 L 10.933594 55.539062 L 10.027344 56.988281 L 8.375 58.0625 L 8 58.0625 C 7.824219 58.0625 7.644531 57.9375 7.46875 57.683594 L 8.800781 55.539062 L 9.601562 54.253906 L 9.441406 54.09375 L 6.082031 48.785156 L 5.761719 50.019531 L 4.695312 50.125 L 4.109375 50.019531 C 4.003906 49.804688 4.089844 49.25 4.375 48.355469 L 4.910156 47.070312 L 3.042969 44.066406 L 2.722656 43.425781 L 1.65625 44.175781 L 0.804688 43.855469 C 1.125 43.066406 1.601562 42.460938 2.242188 42.03125 L 1.125 38.226562 L 0.855469 38.0625 L 1.015625 37.636719 C 0.339844 33.882812 0.535156 30.539062 1.601562 27.609375 L 1.28125 27.878906 L 0.484375 27.503906 L 1.28125 26.324219 L 1.976562 25.734375 L 2.722656 25.359375 C 4.570312 22.105469 8.054688 18.800781 13.171875 15.441406 L 12.160156 14.851562 L 12.851562 13.617188 L 15.039062 13.671875 L 15.625 13.886719 L 18.714844 12.007812 L 25.539062 7.988281 L 28.417969 6.703125 L 31.40625 5.308594 C 33.644531 4.414062 34.691406 4.183594 34.550781 4.609375 M 84.398438 17.691406 C 84.148438 17.085938 83.953125 16.441406 83.8125 15.761719 C 83.316406 13.472656 83.671875 13.386719 84.878906 15.492188 L 85.730469 17.046875 L 85.945312 16.996094 L 88.398438 17.046875 L 88.398438 16.726562 C 88.398438 14.261719 89.054688 12.402344 90.371094 11.152344 L 90.957031 10.722656 L 91.277344 10.507812 C 93.230469 9.363281 95.683594 9.488281 98.632812 10.882812 C 101.476562 12.242188 103.929688 14.457031 105.992188 17.53125 C 108.089844 20.605469 109.171875 23.605469 109.242188 26.539062 C 109.351562 29.183594 108.585938 31.113281 106.949219 32.328125 L 107.058594 30.773438 C 107.023438 29.628906 106.808594 28.449219 106.417969 27.234375 L 105.9375 27.394531 L 105.296875 27.179688 L 105.03125 26.589844 L 105.03125 25.625 L 105.5625 25.359375 L 104.230469 23.050781 L 102.683594 21.121094 L 102.152344 21.765625 L 101.832031 21.925781 C 101.796875 21.960938 101.476562 21.800781 100.871094 21.445312 C 100.160156 21.050781 99.949219 20.585938 100.234375 20.050781 L 100.871094 19.40625 C 99.914062 18.621094 98.898438 17.976562 97.832031 17.476562 C 96.730469 16.941406 95.71875 16.621094 94.796875 16.511719 L 95.167969 17.746094 L 95.007812 18.335938 C 94.617188 18.765625 94.207031 18.925781 93.78125 18.816406 C 93.605469 18.78125 93.285156 18.621094 92.824219 18.335938 C 92.46875 18.15625 92.113281 17.710938 91.757812 16.996094 L 91.542969 17.101562 L 90.582031 17.90625 C 91.507812 18.40625 92.449219 19.121094 93.410156 20.050781 C 96.074219 22.480469 98.152344 25.714844 99.648438 29.753906 C 101.210938 33.722656 101.707031 37.296875 101.140625 40.476562 C 100.714844 43.335938 99.558594 45.121094 97.675781 45.835938 L 98.101562 44.28125 C 98.3125 42.960938 98.3125 41.546875 98.101562 40.046875 L 97.195312 40.582031 C 96.519531 40.976562 95.933594 41.082031 95.433594 40.90625 L 95.0625 40.421875 L 95.113281 39.351562 C 95.398438 38.957031 96.199219 38.527344 97.515625 38.0625 L 97.675781 38.117188 L 97.78125 38.171875 L 96.714844 35.113281 L 94.636719 30.773438 L 93.675781 31.363281 C 92.929688 31.828125 92.308594 31.988281 91.808594 31.84375 C 91.84375 32.09375 91.683594 31.917969 91.328125 31.308594 C 91.152344 30.953125 91.242188 30.558594 91.597656 30.128906 L 93.460938 29.003906 C 92.824219 28.144531 92.113281 27.378906 91.328125 26.699219 C 90.261719 25.769531 89.269531 25.070312 88.34375 24.609375 L 88.449219 25.464844 C 88.558594 26.429688 88.378906 27.128906 87.917969 27.554688 L 86.636719 27.339844 L 86.050781 26.429688 C 85.839844 26.035156 85.730469 25.699219 85.730469 25.410156 C 85.765625 25.054688 85.925781 24.609375 86.210938 24.070312 L 84.933594 24.179688 L 84.558594 24.285156 L 86.796875 27.929688 C 88.71875 31.933594 89.515625 36.5625 89.195312 41.816406 C 88.984375 47.175781 87.722656 51.589844 85.410156 55.058594 C 83.351562 58.167969 81.003906 59.722656 78.375 59.722656 L 79.601562 58.167969 C 80.632812 56.59375 81.449219 54.773438 82.054688 52.699219 C 81.699219 52.699219 81.378906 52.503906 81.09375 52.109375 L 80.507812 51.144531 C 80.4375 50.714844 80.507812 50.375 80.71875 50.125 C 81.039062 49.699219 81.699219 49.589844 82.691406 49.804688 L 82.90625 46.910156 C 83.011719 44.800781 82.925781 42.816406 82.640625 40.957031 L 82.425781 41.28125 C 82.035156 41.816406 81.589844 42.121094 81.09375 42.191406 L 80.132812 42.136719 L 79.761719 41.871094 C 79.726562 42.121094 79.652344 41.90625 79.546875 41.226562 C 79.511719 40.796875 79.777344 40.242188 80.347656 39.566406 C 80.84375 38.957031 81.429688 38.546875 82.105469 38.332031 L 80.773438 34.792969 L 79.707031 32.863281 C 79.492188 34.148438 79.101562 35.007812 78.535156 35.4375 L 77.253906 34.203125 C 77.113281 33.167969 77.167969 32.042969 77.414062 30.828125 L 77.519531 30.503906 C 76.597656 29.753906 75.566406 29.324219 74.429688 29.21875 C 72.402344 28.933594 70.589844 29.683594 68.992188 31.46875 C 69.59375 29.324219 70.429688 27.484375 71.496094 25.949219 C 73.699219 22.515625 76.242188 20.925781 79.121094 21.175781 L 79.175781 20.800781 L 80.082031 18.496094 C 80.4375 18.566406 80.683594 18.726562 80.828125 18.976562 L 80.878906 19.515625 L 80.667969 21.496094 L 81.945312 22.085938 C 82.371094 20.015625 83.191406 18.550781 84.398438 17.691406 M 99.007812 8.632812 C 98.722656 8.453125 98.367188 7.863281 97.941406 6.863281 C 97.441406 7.792969 97.40625 8.808594 97.832031 9.917969 C 96.980469 9.167969 96.324219 8.398438 95.863281 7.613281 C 95.1875 6.503906 94.867188 5.46875 94.902344 4.503906 L 95.0625 3.484375 L 95.382812 2.789062 C 96.234375 1.394531 97.796875 0.570312 100.074219 0.320312 C 102.3125 0.105469 104.640625 0.570312 107.058594 1.714844 C 109.4375 2.859375 111.144531 4.34375 112.175781 6.164062 C 113.207031 7.773438 113.4375 9.222656 112.867188 10.507812 L 112.386719 9.597656 C 111.820312 8.667969 111.039062 7.808594 110.042969 7.023438 L 109.988281 7.773438 L 109.457031 8.203125 L 108.761719 8.148438 C 108.480469 8.042969 108.246094 7.917969 108.070312 7.773438 C 107.964844 7.273438 108.035156 6.808594 108.285156 6.378906 L 108.761719 6.273438 L 107.910156 5.789062 L 104.65625 4.71875 L 104.390625 4.984375 L 103.484375 5.09375 C 103.164062 5.023438 102.917969 4.894531 102.738281 4.71875 L 102.738281 4.558594 L 101.886719 4.558594 L 99.488281 5.253906 L 99.964844 6.113281 C 100.464844 6.96875 100.660156 7.648438 100.554688 8.148438 L 100.019531 8.578125 L 99.007812 8.632812 M 126.996094 51.304688 L 124.542969 56.988281 L 114.46875 59.5625 L 112.335938 58.757812 L 114.09375 54.46875 L 116.492188 55.378906 L 121.078125 53.984375 L 123.796875 50.019531 L 123.371094 46.964844 L 126.996094 51.304688 M 111.375 61.382812 L 101.460938 67.925781 L 103.539062 69.800781 L 103.699219 70.660156 L 102.953125 71.300781 C 102.382812 71.515625 101.65625 71.125 100.765625 70.125 L 99.914062 68.945312 L 93.460938 73.179688 L 92.183594 70.125 L 94.6875 67.65625 L 96.554688 59.777344 L 100.285156 62.832031 L 102.207031 55.753906 L 104.605469 59.078125 L 105.351562 54.953125 L 109.988281 58.167969 L 108.976562 60.207031 L 111.375 61.382812 M 108.816406 86.636719 L 114.679688 88.296875 L 116.441406 84.867188 L 116.921875 81.703125 L 118.734375 86.207031 L 115.800781 91.726562 L 106.257812 92.855469 L 100.285156 94.300781 L 100.980469 95.214844 L 102.3125 97.734375 L 101.621094 98.484375 L 99.914062 97.25 L 99.058594 96.230469 L 98.527344 95.105469 L 98.472656 94.730469 L 89.996094 96.714844 L 88.664062 95.105469 L 84.878906 93.445312 L 72.191406 91.03125 L 71.65625 91.78125 L 68.136719 89.476562 L 68.03125 91.085938 L 67.070312 91.40625 L 66.164062 91.03125 L 65.953125 90.550781 L 65.953125 88.027344 L 64.621094 87.117188 L 64.511719 89.636719 L 63.554688 90.121094 C 63.164062 89.726562 62.859375 89.101562 62.648438 88.242188 L 62.433594 86.6875 L 62.488281 85.722656 L 56.035156 81.433594 L 58.59375 74.359375 L 66.378906 79.933594 L 72.5625 88.671875 L 72.9375 87.976562 L 75.867188 87.976562 L 79.867188 84.972656 L 79.867188 88.191406 L 85.144531 84.917969 L 84.878906 87.867188 L 89.25 86.367188 L 90.316406 91.03125 L 89.730469 93.175781 L 93.78125 90.816406 L 106.949219 90.066406 L 108.816406 86.636719 M 69.042969 38.171875 L 63.554688 52.269531 L 64.992188 59.078125 L 61.582031 63.152344 L 58.703125 57.472656 L 58.542969 53.664062 L 64.566406 40.101562 L 69.042969 38.171875 M 66.378906 69.585938 L 72.402344 66.046875 L 89.464844 70.070312 L 88.984375 73.070312 L 83.546875 72.804688 L 83.4375 74.304688 L 82.425781 74.625 C 81.929688 74.449219 81.609375 74.160156 81.464844 73.769531 L 81.359375 72.695312 L 76.507812 72.480469 L 76.507812 72.75 L 76.402344 75.054688 L 75.441406 75.484375 C 74.910156 75.234375 74.570312 74.789062 74.429688 74.144531 L 74.324219 72.804688 L 74.324219 72.375 L 68.136719 72.054688 L 66.378906 69.585938 M 39.988281 56.828125 L 40.148438 55.808594 C 41.355469 55.238281 42.421875 55.71875 43.347656 57.257812 L 43.5625 57.683594 L 44.199219 53.019531 C 44.378906 50.269531 45.160156 51.324219 46.546875 56.183594 C 48.359375 62.402344 49.460938 65.726562 49.851562 66.15625 C 50.953125 67.441406 52.464844 68.78125 54.382812 70.175781 C 53.351562 73.964844 52.429688 76.164062 51.609375 76.769531 L 49.957031 77.84375 L 47.078125 77.523438 C 44.308594 76.554688 40.734375 75 36.363281 72.855469 C 30.996094 70.210938 29.183594 68.730469 30.925781 68.40625 L 34.125 67.925781 L 33.429688 66.210938 C 32.828125 64.601562 32.523438 63.441406 32.523438 62.726562 L 32.632812 61.597656 C 34.300781 61.277344 35.351562 61.582031 35.777344 62.511719 C 36.773438 64.832031 37.449219 66.210938 37.804688 66.636719 L 37.375 67.335938 C 38.441406 67.015625 39.222656 66.53125 39.722656 65.886719 C 40.859375 64.421875 41.75 62.921875 42.386719 61.382812 L 42.65625 60.792969 L 41.480469 59.347656 L 39.988281 56.828125 M 24.15625 62.136719 L 28.101562 71.300781 L 31.03125 75.429688 C 31.101562 76.289062 30.304688 77.289062 28.632812 78.433594 C 26.925781 79.578125 24.066406 80.417969 20.050781 80.953125 L 14.71875 81.488281 L 12.957031 83.042969 C 11.714844 84.472656 10.878906 86.3125 10.453125 88.566406 C 10.0625 90.816406 8.410156 91.871094 5.496094 91.726562 C 4.074219 91.621094 2.667969 91.300781 1.28125 90.761719 L 5.015625 88.40625 L 8.480469 81.757812 L 7.839844 79.613281 C 6.0625 81.828125 4.054688 82.222656 1.816406 80.792969 L 0.910156 79.988281 L 0.964844 79.878906 L 0.695312 79.289062 L 1.175781 78.378906 L 2.667969 76.824219 C 3.984375 76.039062 5.742188 75.574219 7.945312 75.429688 L 8.214844 74.625 L 8.480469 73.929688 L 6.773438 73.5 L 6.242188 72.535156 C 6.097656 72.179688 6.242188 71.679688 6.667969 71.035156 C 7.058594 70.425781 7.519531 70.160156 8.054688 70.230469 C 8.515625 70.230469 9.03125 70.480469 9.601562 70.980469 C 10.167969 69.730469 10.824219 68.640625 11.574219 67.710938 C 12.921875 65.921875 15.394531 64.492188 18.984375 63.421875 L 24.15625 62.136719 M 24.742188 69.320312 C 24.03125 67.925781 23.25 67.015625 22.394531 66.585938 L 18.128906 66.691406 C 16.105469 67.335938 14.613281 68.621094 13.652344 70.550781 C 12.726562 72.339844 12.195312 74.035156 12.050781 75.644531 L 12 77.628906 C 15.445312 77.699219 18.289062 77.34375 20.527344 76.554688 L 24.046875 75.109375 C 24.828125 74.644531 25.328125 73.929688 25.539062 72.964844 C 25.789062 71.964844 25.523438 70.75 24.742188 69.320312 M 51.449219 88.136719 L 47.558594 92.371094 L 47.824219 92.53125 C 48.890625 93.535156 49.320312 94.445312 49.105469 95.265625 L 48.730469 96.179688 L 48.519531 96.285156 L 47.71875 96.285156 L 46.066406 94.835938 L 45.746094 94.410156 L 42.386719 97.949219 L 40.523438 97.195312 L 41.695312 90.65625 L 47.453125 82.773438 L 51.769531 83.257812 L 51.449219 88.136719 M 32.363281 102.613281 C 32.578125 102.648438 33.039062 102.863281 33.75 103.253906 L 34.765625 104.058594 L 36.683594 102.613281 L 44.574219 102.503906 L 44.253906 104.058594 L 37.855469 109.097656 L 38.921875 106.257812 L 33.324219 111.402344 L 35.457031 107.382812 L 25.539062 116.496094 L 26.875 113.171875 L 23.621094 112.207031 L 32.953125 105.398438 L 32.578125 105.183594 L 30.765625 104.003906 L 30.925781 102.988281 C 31.351562 102.558594 31.832031 102.433594 32.363281 102.613281 M 22.660156 115.425781 L 22.074219 117.460938 L 19.355469 118.695312 L 13.546875 115.640625 L 9.441406 118.265625 L 8.160156 121 L 6.933594 117.085938 L 10.027344 113.601562 L 14.558594 111.296875 L 22.660156 115.425781 "/>
</g>
</svg>
