<?xml version="1.0" encoding="UTF-8"?>
<svg xmlns="http://www.w3.org/2000/svg" xmlns:xlink="http://www.w3.org/1999/xlink" width="128pt" height="61pt" viewBox="0 0 128 61" version="1.1">
<g id="surface1">
<path style=" stroke:none;fill-rule:nonzero;fill:rgb(100%,100%,100%);fill-opacity:1;" d="M 124.855469 43.0625 L 121.820312 47.140625 L 121.1875 48.058594 L 117.96875 53.109375 L 116.703125 55.167969 L 123.445312 56.625 L 121.230469 59.996094 L 119.234375 59.449219 L 118.488281 59.238281 C 116.636719 58.738281 113.796875 58.292969 109.964844 57.898438 L 109.976562 57.867188 C 110.011719 57.734375 110.46875 56.933594 111.347656 55.464844 C 112.324219 53.824219 113.207031 52.4375 113.996094 51.296875 C 115.21875 49.546875 116.550781 47.789062 117.992188 46.023438 L 119.300781 44.390625 L 121.132812 42.058594 C 121.640625 41.410156 122.035156 40.945312 122.316406 40.65625 L 123.148438 40.804688 L 123.527344 40.917969 L 124.953125 41.171875 L 126.207031 41.308594 C 126.03125 41.5 125.582031 42.082031 124.855469 43.0625 "/>
<path style=" stroke:none;fill-rule:nonzero;fill:rgb(29.803922%,29.803922%,30.196078%);fill-opacity:1;" d="M 121.726562 40.066406 L 122.03125 39.75 L 123.359375 39.980469 L 123.75 40.097656 L 125.046875 40.339844 L 128 40.65625 L 126.820312 41.890625 L 125.53125 43.566406 L 122.527344 47.605469 L 121.894531 48.523438 L 118.042969 54.585938 L 123.625 55.800781 L 124.824219 56.0625 L 121.597656 60.980469 L 118.265625 60.050781 C 116.417969 59.558594 113.621094 59.121094 109.882812 58.742188 L 108.890625 58.636719 L 109.152344 57.636719 C 109.238281 57.398438 109.726562 56.527344 110.621094 55.03125 C 111.6875 53.25 112.582031 51.847656 113.296875 50.824219 C 114.515625 49.066406 115.859375 47.289062 117.328125 45.496094 L 120.46875 41.53125 C 120.96875 40.890625 121.386719 40.402344 121.726562 40.066406 M 122.316406 40.65625 C 122.035156 40.945312 121.640625 41.410156 121.132812 42.058594 L 119.300781 44.390625 L 117.992188 46.023438 C 116.550781 47.789062 115.21875 49.546875 113.996094 51.296875 C 113.207031 52.4375 112.324219 53.824219 111.347656 55.464844 C 110.46875 56.933594 110.011719 57.734375 109.976562 57.867188 L 109.964844 57.898438 C 113.796875 58.292969 116.636719 58.738281 118.488281 59.238281 L 119.234375 59.449219 L 121.230469 59.996094 L 123.445312 56.625 L 116.703125 55.167969 L 117.96875 53.109375 L 121.1875 48.058594 L 121.820312 47.140625 L 124.855469 43.0625 C 125.582031 42.082031 126.03125 41.5 126.207031 41.308594 L 124.953125 41.171875 L 123.527344 40.917969 L 123.148438 40.804688 L 122.316406 40.65625 "/>
<path style=" stroke:none;fill-rule:nonzero;fill:rgb(100%,100%,100%);fill-opacity:1;" d="M 113.804688 33.179688 L 114.246094 33.285156 L 115.933594 33.503906 L 117.402344 33.570312 C 117.238281 33.765625 116.75 34.476562 115.933594 35.699219 L 112.664062 40.644531 L 111.992188 41.753906 L 110.660156 44.179688 L 107.222656 50.328125 L 115.175781 51.59375 L 112.8125 55.664062 L 109.566406 54.96875 C 107.351562 54.496094 104.015625 54.160156 99.558594 53.953125 L 99.566406 53.914062 C 99.609375 53.738281 100.089844 52.773438 101.011719 51.023438 C 102.074219 48.992188 103.011719 47.316406 103.828125 46.003906 C 105.109375 43.90625 106.542969 41.773438 108.128906 39.601562 L 111.539062 34.769531 C 112.113281 33.949219 112.542969 33.378906 112.824219 33.0625 L 113.804688 33.179688 "/>
<path style=" stroke:none;fill-rule:nonzero;fill:rgb(29.803922%,29.803922%,30.196078%);fill-opacity:1;" d="M 113.804688 33.179688 L 112.824219 33.0625 C 112.542969 33.378906 112.113281 33.949219 111.539062 34.769531 L 108.128906 39.601562 C 106.542969 41.773438 105.109375 43.90625 103.828125 46.003906 C 103.011719 47.316406 102.074219 48.992188 101.011719 51.023438 C 100.089844 52.773438 99.609375 53.738281 99.566406 53.914062 L 99.558594 53.953125 C 104.015625 54.160156 107.351562 54.496094 109.566406 54.96875 L 112.8125 55.664062 L 115.175781 51.59375 L 107.222656 50.328125 L 110.660156 44.179688 L 111.992188 41.753906 L 112.664062 40.644531 L 115.933594 35.699219 C 116.75 34.476562 117.238281 33.765625 117.402344 33.570312 L 115.933594 33.503906 L 114.246094 33.285156 L 113.804688 33.179688 M 112.203125 32.503906 L 112.488281 32.175781 L 113.964844 32.34375 L 114.425781 32.460938 L 115.976562 32.660156 L 119.152344 32.820312 L 118.042969 34.117188 C 117.855469 34.34375 117.386719 35.023438 116.640625 36.164062 L 113.402344 41.066406 L 112.71875 42.183594 L 111.390625 44.589844 L 108.53125 49.671875 L 116.527344 50.960938 L 113.234375 56.625 L 109.394531 55.789062 C 107.195312 55.324219 103.902344 54.996094 99.515625 54.796875 L 98.523438 54.757812 L 98.746094 53.734375 C 98.785156 53.507812 99.292969 52.476562 100.261719 50.632812 C 101.351562 48.558594 102.296875 46.871094 103.101562 45.570312 C 104.464844 43.371094 105.914062 41.214844 107.445312 39.105469 L 110.839844 34.285156 C 111.410156 33.476562 111.863281 32.882812 112.203125 32.503906 "/>
<path style=" stroke:none;fill-rule:nonzero;fill:rgb(100%,100%,100%);fill-opacity:1;" d="M 106.527344 28.359375 C 106.394531 30.0625 106.214844 31.695312 105.988281 33.261719 C 105.554688 36.328125 104.921875 39.152344 104.089844 41.730469 C 103.902344 42.105469 103.28125 43.957031 102.226562 47.289062 C 101.851562 48.527344 101.472656 49.628906 101.085938 50.589844 L 94.21875 51.253906 C 95.105469 49.398438 96.367188 46.84375 98.007812 43.589844 L 92.648438 43.09375 C 91.320312 44.675781 90 46.792969 88.695312 49.453125 L 81.828125 50.136719 C 82.136719 49.40625 83.273438 47.617188 85.234375 44.769531 L 87.292969 41.753906 C 89.261719 38.878906 92.15625 35.453125 95.980469 31.480469 C 98.078125 29.273438 100.128906 27.332031 102.140625 25.660156 L 106.6875 26.089844 L 106.527344 28.359375 M 101.601562 31.226562 C 100.929688 31.921875 99.382812 33.773438 96.972656 36.773438 L 95.023438 39.210938 L 98.585938 39.652344 L 99.304688 40.390625 C 100.183594 39.027344 100.902344 36.378906 101.464844 32.441406 L 101.601562 31.226562 "/>
<path style=" stroke:none;fill-rule:nonzero;fill:rgb(29.803922%,29.803922%,30.196078%);fill-opacity:1;" d="M 100.378906 33.917969 L 97.636719 37.300781 L 96.625 38.558594 L 98.988281 38.851562 L 99.09375 38.957031 C 99.585938 37.789062 100.015625 36.109375 100.378906 33.917969 M 106.6875 26.089844 L 102.140625 25.660156 C 100.128906 27.332031 98.078125 29.273438 95.980469 31.480469 C 92.15625 35.453125 89.261719 38.878906 87.292969 41.753906 L 85.234375 44.769531 C 83.273438 47.617188 82.136719 49.40625 81.828125 50.136719 L 88.695312 49.453125 C 90 46.792969 91.320312 44.675781 92.648438 43.09375 L 98.007812 43.589844 C 96.367188 46.84375 95.105469 49.398438 94.21875 51.253906 L 101.085938 50.589844 C 101.472656 49.628906 101.851562 48.527344 102.226562 47.289062 C 103.28125 43.957031 103.902344 42.105469 104.089844 41.730469 C 104.921875 39.152344 105.554688 36.328125 105.988281 33.261719 C 106.214844 31.695312 106.394531 30.0625 106.527344 28.359375 L 106.6875 26.089844 M 101.601562 31.226562 L 101.464844 32.441406 C 100.902344 36.378906 100.183594 39.027344 99.304688 40.390625 L 98.585938 39.652344 L 95.023438 39.210938 L 96.972656 36.773438 C 99.382812 33.773438 100.929688 31.921875 101.601562 31.226562 M 80.511719 51.117188 L 81.046875 49.808594 C 81.40625 48.996094 82.570312 47.15625 84.539062 44.292969 L 86.59375 41.277344 C 88.550781 38.402344 91.476562 34.945312 95.371094 30.902344 C 97.472656 28.6875 99.550781 26.722656 101.601562 25.015625 L 101.875 24.785156 L 102.234375 24.824219 L 106.761719 25.246094 L 107.59375 25.320312 L 107.371094 28.421875 C 107.238281 30.0625 107.054688 31.710938 106.824219 33.378906 C 106.375 36.527344 105.730469 39.402344 104.894531 41.996094 L 104.871094 42.058594 L 104.839844 42.113281 C 104.636719 42.546875 104.035156 44.359375 103.035156 47.542969 C 102.644531 48.828125 102.253906 49.949219 101.867188 50.90625 L 101.664062 51.382812 L 92.828125 52.234375 L 93.460938 50.894531 C 94.042969 49.660156 95.125 47.464844 96.699219 44.316406 L 93.019531 43.96875 C 91.84375 45.429688 90.65625 47.382812 89.453125 49.820312 L 89.242188 50.242188 L 80.511719 51.117188 "/>
<path style=" stroke:none;fill-rule:nonzero;fill:rgb(100%,100%,100%);fill-opacity:1;" d="M 97.152344 20.925781 L 94.894531 26.554688 L 92.597656 26.386719 L 82.546875 25.945312 L 83.746094 26.746094 L 82.019531 30.066406 L 81.183594 31.703125 L 89.75 32.019531 L 87.566406 37.058594 L 79.117188 36.734375 L 78.210938 38.957031 C 76.753906 42.320312 75.667969 45.625 74.953125 48.882812 L 67.441406 49.386719 L 67.441406 49.324219 C 67.449219 49.15625 67.898438 47.847656 68.792969 45.402344 C 69.839844 42.554688 70.746094 40.261719 71.515625 38.527344 C 72.851562 35.523438 74.308594 32.554688 75.890625 29.613281 C 76.550781 28.433594 77.238281 27.269531 77.949219 26.125 L 73.992188 26.292969 L 76.175781 20.46875 C 79.113281 20.457031 82.414062 20.480469 86.078125 20.542969 L 97.152344 20.925781 "/>
<path style=" stroke:none;fill-rule:nonzero;fill:rgb(29.803922%,29.803922%,30.196078%);fill-opacity:1;" d="M 97.152344 20.925781 L 86.078125 20.542969 C 82.972656 20.496094 80.046875 20.46875 77.304688 20.46875 L 76.175781 20.46875 L 73.992188 26.292969 L 77.949219 26.125 C 77.238281 27.269531 76.550781 28.433594 75.890625 29.613281 C 74.308594 32.554688 72.851562 35.523438 71.515625 38.527344 C 70.746094 40.261719 69.839844 42.554688 68.792969 45.402344 C 67.898438 47.847656 67.449219 49.15625 67.441406 49.324219 L 67.441406 49.386719 L 74.953125 48.882812 C 75.667969 45.625 76.753906 42.320312 78.210938 38.957031 L 79.117188 36.734375 L 87.566406 37.058594 L 89.75 32.019531 L 81.183594 31.703125 L 82.019531 30.066406 L 83.746094 26.746094 L 82.546875 25.945312 L 82.988281 25.945312 L 92.597656 26.386719 L 94.894531 26.554688 L 97.152344 20.925781 M 97.183594 20.082031 L 98.375 20.121094 L 95.453125 27.441406 L 92.542969 27.230469 L 84.675781 26.808594 L 84.484375 27.15625 L 82.777344 30.457031 L 82.765625 30.457031 L 82.765625 30.46875 L 82.535156 30.910156 L 91.015625 31.21875 L 88.113281 37.925781 L 79.675781 37.597656 L 78.992188 39.285156 L 78.992188 39.296875 C 77.558594 42.578125 76.484375 45.835938 75.773438 49.070312 L 75.636719 49.714844 L 74.972656 49.726562 L 67.515625 50.230469 L 66.535156 50.328125 L 66.601562 49.261719 C 66.640625 48.953125 67.109375 47.566406 68.003906 45.105469 C 69.070312 42.195312 69.984375 39.890625 70.746094 38.1875 C 72.03125 35.269531 73.5 32.277344 75.152344 29.214844 C 75.617188 28.375 76.035156 27.648438 76.40625 27.03125 L 74.023438 27.136719 L 72.75 27.1875 L 75.585938 19.625 L 77.304688 19.625 C 80.058594 19.625 82.988281 19.652344 86.089844 19.699219 L 97.183594 20.082031 "/>
<path style=" stroke:none;fill-rule:nonzero;fill:rgb(100%,100%,100%);fill-opacity:1;" d="M 75.734375 24.996094 C 74.996094 28.726562 72.097656 31.394531 67.042969 33 C 64.320312 33.828125 61.070312 34.234375 57.289062 34.210938 L 56.527344 36.511719 C 55.988281 38.234375 55.050781 41.675781 53.722656 46.835938 L 53.480469 46.878906 C 51.140625 47.320312 48.429688 47.949219 45.347656 48.765625 C 46.390625 44.808594 47.632812 40.710938 49.082031 36.480469 C 49.953125 33.890625 51.359375 30.488281 53.300781 26.269531 L 54.976562 22.917969 L 53.363281 23.371094 L 51.78125 15.808594 C 55.59375 15.246094 58.863281 14.976562 61.589844 14.996094 L 63.730469 15.113281 L 67.484375 15.460938 C 68.644531 15.644531 69.925781 16.042969 71.324219 16.664062 C 74.417969 17.964844 75.953125 20.175781 75.933594 23.296875 C 75.933594 23.769531 75.867188 24.332031 75.734375 24.996094 M 60.125 22.011719 L 61.714844 22.832031 C 61.175781 23.769531 60.617188 24.921875 60.039062 26.292969 L 59.144531 28.675781 L 61.050781 28.621094 C 63.050781 28.582031 64.710938 28.300781 66.039062 27.777344 C 68.007812 27.019531 68.992188 25.839844 68.992188 24.234375 C 69.007812 23.054688 68.222656 22.175781 66.640625 21.597656 C 66.179688 21.417969 65.4375 21.324219 64.417969 21.324219 L 63.835938 21.3125 C 62.921875 21.355469 61.683594 21.589844 60.125 22.011719 "/>
<path style=" stroke:none;fill-rule:nonzero;fill:rgb(29.803922%,29.803922%,30.196078%);fill-opacity:1;" d="M 64.417969 22.167969 L 63.859375 22.15625 L 62.558594 22.316406 L 62.886719 22.496094 L 62.445312 23.253906 C 61.945312 24.121094 61.402344 25.246094 60.820312 26.628906 L 60.378906 27.800781 L 61.03125 27.777344 C 62.910156 27.75 64.480469 27.488281 65.746094 26.988281 C 66.703125 26.617188 67.371094 26.152344 67.757812 25.597656 C 68.019531 25.210938 68.148438 24.753906 68.148438 24.234375 C 68.164062 23.457031 67.566406 22.839844 66.355469 22.390625 L 66.347656 22.390625 L 66.335938 22.378906 C 65.957031 22.238281 65.316406 22.167969 64.417969 22.167969 M 63.835938 21.3125 L 64.417969 21.324219 C 65.4375 21.324219 66.179688 21.417969 66.640625 21.597656 C 68.222656 22.175781 69.007812 23.054688 68.992188 24.234375 C 68.992188 25.839844 68.007812 27.019531 66.039062 27.777344 C 64.710938 28.300781 63.050781 28.582031 61.050781 28.621094 L 59.144531 28.675781 L 60.039062 26.292969 C 60.617188 24.921875 61.175781 23.769531 61.714844 22.832031 L 60.125 22.011719 C 61.683594 21.589844 62.921875 21.355469 63.835938 21.3125 M 61.589844 14.996094 L 61.421875 14.988281 C 58.707031 14.988281 55.496094 15.261719 51.78125 15.808594 L 53.363281 23.371094 L 54.976562 22.917969 L 53.300781 26.269531 C 51.359375 30.488281 49.953125 33.890625 49.082031 36.480469 C 47.632812 40.710938 46.390625 44.808594 45.347656 48.765625 C 48.429688 47.949219 51.140625 47.320312 53.480469 46.878906 L 53.722656 46.835938 C 55.050781 41.675781 55.988281 38.234375 56.527344 36.511719 L 57.289062 34.210938 L 57.507812 34.210938 C 61.226562 34.210938 64.40625 33.808594 67.042969 33 C 72.097656 31.394531 74.996094 28.726562 75.734375 24.996094 C 75.867188 24.332031 75.933594 23.769531 75.933594 23.296875 C 75.953125 20.175781 74.417969 17.964844 71.324219 16.664062 C 69.925781 16.042969 68.644531 15.644531 67.484375 15.460938 L 63.730469 15.113281 L 61.589844 14.996094 M 50.769531 15.101562 L 51.65625 14.976562 C 55.4375 14.421875 58.695312 14.144531 61.421875 14.144531 L 61.601562 14.152344 L 63.804688 14.269531 L 67.632812 14.628906 C 68.828125 14.816406 70.171875 15.238281 71.660156 15.894531 C 75.09375 17.335938 76.796875 19.800781 76.777344 23.296875 C 76.777344 23.816406 76.703125 24.4375 76.554688 25.152344 C 75.761719 29.222656 72.671875 32.105469 67.285156 33.800781 C 64.65625 34.609375 61.527344 35.027344 57.898438 35.054688 L 57.328125 36.765625 C 56.808594 38.421875 55.882812 41.851562 54.546875 47.046875 L 54.40625 47.574219 L 53.636719 47.710938 C 51.347656 48.140625 48.652344 48.761719 45.558594 49.578125 L 44.15625 49.949219 L 44.527344 48.554688 C 45.589844 44.535156 46.84375 40.417969 48.292969 36.207031 C 49.21875 33.449219 50.636719 30.019531 52.542969 25.914062 L 53.355469 24.246094 L 52.722656 24.402344 L 50.769531 15.101562 "/>
<path style=" stroke:none;fill-rule:nonzero;fill:rgb(100%,100%,100%);fill-opacity:1;" d="M 53.765625 15.882812 L 46.394531 16.453125 L 48.574219 17.464844 C 48.148438 18.433594 47.625 19.871094 47.003906 21.777344 C 46.246094 24.050781 45.207031 27.871094 43.894531 33.242188 C 43.4375 35.191406 43.003906 37.222656 42.597656 39.335938 L 49.03125 38.640625 L 47.257812 45.867188 L 39.863281 46.433594 C 38.148438 46.660156 33.953125 47.421875 27.273438 48.722656 L 28.9375 41.289062 L 34.105469 40.519531 L 35.742188 33.769531 C 36.5 30.867188 37.789062 27.023438 39.613281 22.242188 C 40 21.160156 40.703125 19.417969 41.730469 17.023438 L 33.78125 18.71875 L 35.445312 11.316406 L 44.980469 9.902344 C 48.9375 9.339844 52.457031 8.9375 55.535156 8.691406 L 53.765625 15.882812 "/>
<path style=" stroke:none;fill-rule:nonzero;fill:rgb(29.803922%,29.803922%,30.196078%);fill-opacity:1;" d="M 53.765625 15.882812 L 55.535156 8.691406 C 52.457031 8.9375 48.9375 9.339844 44.980469 9.902344 L 35.445312 11.316406 L 33.78125 18.71875 L 41.730469 17.023438 C 40.703125 19.417969 40 21.160156 39.613281 22.242188 C 37.789062 27.023438 36.5 30.867188 35.742188 33.769531 L 34.105469 40.519531 L 28.9375 41.289062 L 27.273438 48.722656 C 33.953125 47.421875 38.148438 46.660156 39.863281 46.433594 L 47.257812 45.867188 L 49.03125 38.640625 L 42.597656 39.335938 C 43.003906 37.222656 43.4375 35.191406 43.894531 33.242188 C 45.207031 27.871094 46.246094 24.050781 47.003906 21.777344 C 47.625 19.871094 48.148438 18.433594 48.574219 17.464844 L 46.394531 16.453125 L 53.765625 15.882812 M 55.472656 7.847656 L 56.644531 7.75 L 54.429688 16.683594 L 49.640625 17.023438 L 49.683594 17.042969 L 49.347656 17.800781 C 48.929688 18.746094 48.417969 20.15625 47.804688 22.042969 C 47.019531 24.402344 45.988281 28.203125 44.714844 33.441406 C 44.328125 35.050781 43.972656 36.695312 43.652344 38.367188 L 50.136719 37.683594 L 47.921875 46.667969 L 47.308594 46.710938 L 39.96875 47.269531 C 38.183594 47.507812 34.007812 48.265625 27.441406 49.546875 L 26.164062 49.800781 L 28.242188 40.550781 L 31.21875 40.054688 L 31.238281 40.054688 L 33.410156 39.757812 L 33.925781 37.503906 L 34.929688 33.546875 C 35.714844 30.523438 37.015625 26.660156 38.820312 21.957031 C 39.164062 20.988281 39.660156 19.734375 40.308594 18.203125 L 33.949219 19.554688 L 32.671875 19.816406 L 34.75 10.566406 L 44.863281 9.058594 C 48.960938 8.488281 52.5 8.085938 55.472656 7.847656 "/>
<path style=" stroke:none;fill-rule:nonzero;fill:rgb(100%,100%,100%);fill-opacity:1;" d="M 19.730469 1.140625 L 24.996094 0.863281 C 26.617188 0.886719 28.476562 1.1875 30.5625 1.773438 C 35.105469 2.945312 37.675781 5.699219 38.273438 10.03125 C 38.363281 10.664062 38.386719 11.460938 38.335938 12.421875 C 38.0625 17.746094 34.582031 22.023438 27.894531 25.257812 C 24.324219 26.945312 19.90625 28.160156 14.636719 28.898438 L 14.046875 32.230469 C 13.652344 34.558594 13.050781 39.511719 12.234375 47.101562 L 11.90625 47.207031 C 8.695312 48.308594 5.0625 49.726562 1.011719 51.457031 C 1.660156 45.789062 2.5625 39.863281 3.722656 33.675781 C 4.433594 29.808594 5.699219 24.8125 7.519531 18.6875 C 7.90625 17.414062 8.453125 15.757812 9.164062 13.710938 L 7.011719 14.671875 L 3.3125 4.515625 C 8.429688 2.980469 12.90625 1.945312 16.738281 1.402344 L 19.730469 1.140625 M 18.476562 12.246094 C 17.929688 13.644531 17.390625 15.355469 16.863281 17.378906 L 16.105469 20.851562 L 18.71875 20.398438 C 21.460938 19.941406 23.710938 19.214844 25.46875 18.222656 C 28.035156 16.78125 29.164062 14.949219 28.855469 12.71875 C 28.621094 11.085938 27.359375 10.03125 25.070312 9.542969 C 24.394531 9.390625 23.34375 9.410156 21.914062 9.609375 L 21.125 9.722656 C 19.871094 9.957031 18.203125 10.523438 16.113281 11.421875 L 18.476562 12.246094 "/>
<path style=" stroke:none;fill-rule:nonzero;fill:rgb(29.803922%,29.803922%,30.196078%);fill-opacity:1;" d="M 18.476562 12.246094 L 16.113281 11.421875 C 18.203125 10.523438 19.871094 9.957031 21.125 9.722656 L 21.914062 9.609375 L 23.972656 9.4375 L 25.070312 9.542969 C 27.359375 10.03125 28.621094 11.085938 28.855469 12.71875 C 29.164062 14.949219 28.035156 16.78125 25.46875 18.222656 C 23.710938 19.214844 21.460938 19.941406 18.71875 20.398438 L 16.105469 20.851562 L 16.863281 17.378906 C 17.390625 15.355469 17.929688 13.644531 18.476562 12.246094 M 27.503906 11.664062 C 26.992188 11.058594 26.121094 10.628906 24.890625 10.367188 L 24.878906 10.367188 L 24.867188 10.355469 L 23.972656 10.28125 L 22.03125 10.441406 L 21.261719 10.546875 C 20.5 10.695312 19.589844 10.96875 18.519531 11.367188 L 19.59375 11.738281 L 19.269531 12.5625 C 18.726562 13.910156 18.195312 15.585938 17.675781 17.589844 L 17.675781 17.601562 L 17.191406 19.804688 L 18.582031 19.5625 C 21.226562 19.128906 23.382812 18.433594 25.058594 17.484375 C 27.285156 16.234375 28.273438 14.6875 28.019531 12.84375 C 27.945312 12.375 27.773438 11.980469 27.503906 11.664062 M 16.621094 0.570312 L 19.679688 0.296875 L 24.859375 0.0195312 L 25.027344 0.0195312 C 26.75 0.0546875 28.667969 0.371094 30.785156 0.960938 C 35.671875 2.234375 38.449219 5.21875 39.117188 9.914062 C 39.207031 10.59375 39.230469 11.445312 39.179688 12.464844 C 38.882812 18.125 35.242188 22.644531 28.253906 26.019531 C 24.738281 27.675781 20.441406 28.886719 15.367188 29.644531 L 14.878906 32.367188 C 14.488281 34.757812 13.882812 39.695312 13.066406 47.183594 L 13.015625 47.722656 L 12.179688 48.007812 C 9.117188 49.054688 5.5 50.460938 1.339844 52.226562 L 0 52.792969 L 0.167969 51.359375 C 0.824219 45.625 1.734375 39.679688 2.898438 33.527344 C 3.601562 29.652344 4.875 24.625 6.71875 18.445312 L 7.730469 15.28125 L 6.527344 15.789062 L 2.214844 3.953125 L 3.070312 3.703125 C 8.238281 2.15625 12.753906 1.109375 16.621094 0.570312 M 19.730469 1.140625 L 16.738281 1.402344 C 12.90625 1.945312 8.429688 2.980469 3.3125 4.515625 L 7.011719 14.671875 L 9.164062 13.710938 C 8.453125 15.757812 7.90625 17.414062 7.519531 18.6875 C 5.699219 24.8125 4.433594 29.808594 3.722656 33.675781 C 2.5625 39.863281 1.660156 45.789062 1.011719 51.457031 C 5.0625 49.726562 8.695312 48.308594 11.90625 47.207031 L 12.234375 47.101562 C 13.050781 39.511719 13.652344 34.558594 14.046875 32.230469 L 14.636719 28.898438 C 19.90625 28.160156 24.324219 26.945312 27.894531 25.257812 C 34.582031 22.023438 38.0625 17.746094 38.335938 12.421875 C 38.386719 11.460938 38.363281 10.664062 38.273438 10.03125 C 37.675781 5.699219 35.105469 2.945312 30.5625 1.773438 C 28.476562 1.1875 26.617188 0.886719 24.996094 0.863281 L 24.859375 0.863281 L 19.730469 1.140625 "/>
</g>
</svg>
