<?xml version="1.0" encoding="UTF-8"?>
<svg xmlns="http://www.w3.org/2000/svg" xmlns:xlink="http://www.w3.org/1999/xlink" width="128pt" height="157pt" viewBox="0 0 128 157" version="1.1">
<g id="surface1">
<path style=" stroke:none;fill-rule:nonzero;fill:rgb(9.803922%,9.803922%,9.803922%);fill-opacity:1;" d="M 127.902344 150.753906 C 127.902344 154.917969 125.957031 156.851562 122.070312 156.554688 L 10.414062 145.847656 C 6.527344 145.550781 4.582031 143.320312 4.582031 139.160156 C 4.582031 134.996094 6.527344 133.0625 10.414062 133.359375 L 122.070312 144.066406 C 125.957031 144.660156 127.902344 146.890625 127.902344 150.753906 "/>
<path style=" stroke:none;fill-rule:nonzero;fill:rgb(100%,100%,100%);fill-opacity:1;" d="M 43.148438 24.53125 C 43.148438 19.773438 41.503906 15.757812 38.214844 12.488281 C 34.925781 9.21875 30.890625 7.582031 26.109375 7.582031 C 21.324219 7.582031 17.4375 9.21875 14.449219 12.488281 C 11.160156 15.757812 9.515625 19.773438 9.515625 24.53125 C 9.515625 28.992188 11.160156 32.855469 14.449219 36.128906 C 17.4375 39.398438 21.324219 41.035156 26.109375 41.035156 C 30.890625 41.035156 34.925781 39.398438 38.214844 36.128906 C 41.503906 32.855469 43.148438 28.992188 43.148438 24.53125 M 26.109375 0 C 33.582031 0 39.859375 4.015625 44.941406 12.042969 C 50.023438 19.773438 52.566406 29.289062 52.566406 40.589844 C 52.566406 51.886719 50.023438 61.550781 44.941406 69.578125 C 39.859375 77.609375 33.582031 81.621094 26.109375 81.621094 C 18.933594 81.621094 12.804688 77.609375 7.722656 69.578125 C 2.640625 61.550781 0.0976562 51.886719 0.0976562 40.589844 C 0.0976562 29.289062 2.640625 19.773438 7.722656 12.042969 C 12.804688 4.015625 18.933594 0 26.109375 0 "/>
<path style=" stroke:none;fill-rule:nonzero;fill:rgb(9.803922%,9.803922%,9.803922%);fill-opacity:1;" d="M 43.148438 24.53125 C 43.148438 28.992188 41.503906 32.855469 38.214844 36.128906 C 34.925781 39.398438 30.890625 41.035156 26.109375 41.035156 C 21.324219 41.035156 17.4375 39.398438 14.449219 36.128906 C 11.160156 32.855469 9.515625 28.992188 9.515625 24.53125 C 9.515625 19.773438 11.160156 15.757812 14.449219 12.488281 C 17.4375 9.21875 21.324219 7.582031 26.109375 7.582031 C 30.890625 7.582031 34.925781 9.21875 38.214844 12.488281 C 41.503906 15.757812 43.148438 19.773438 43.148438 24.53125 "/>
<path style=" stroke:none;fill-rule:nonzero;fill:rgb(100%,100%,100%);fill-opacity:1;" d="M 116.242188 69.578125 C 111.160156 77.609375 104.882812 81.621094 97.40625 81.621094 C 90.234375 81.621094 84.105469 77.609375 79.023438 69.578125 C 73.941406 61.550781 71.398438 51.886719 71.398438 40.589844 C 71.398438 29.289062 73.941406 19.773438 79.023438 12.042969 C 84.105469 4.015625 90.234375 0 97.40625 0 C 104.882812 0 111.160156 4.015625 116.242188 12.042969 C 121.324219 19.773438 123.863281 29.289062 123.863281 40.589844 C 123.863281 51.886719 121.324219 61.550781 116.242188 69.578125 M 80.816406 24.53125 C 80.816406 28.992188 82.460938 32.855469 85.75 36.128906 C 88.738281 39.398438 92.625 41.035156 97.40625 41.035156 C 102.191406 41.035156 106.226562 39.398438 109.515625 36.128906 C 112.804688 32.855469 114.449219 28.992188 114.449219 24.53125 C 114.449219 19.773438 112.804688 15.757812 109.515625 12.488281 C 106.226562 9.21875 102.191406 7.582031 97.40625 7.582031 C 92.625 7.582031 88.738281 9.21875 85.75 12.488281 C 82.460938 15.757812 80.816406 19.773438 80.816406 24.53125 "/>
<path style=" stroke:none;fill-rule:nonzero;fill:rgb(9.803922%,9.803922%,9.803922%);fill-opacity:1;" d="M 80.816406 24.53125 C 80.816406 19.773438 82.460938 15.757812 85.75 12.488281 C 88.738281 9.21875 92.625 7.582031 97.40625 7.582031 C 102.191406 7.582031 106.226562 9.21875 109.515625 12.488281 C 112.804688 15.757812 114.449219 19.773438 114.449219 24.53125 C 114.449219 28.992188 112.804688 32.855469 109.515625 36.128906 C 106.226562 39.398438 102.191406 41.035156 97.40625 41.035156 C 92.625 41.035156 88.738281 39.398438 85.75 36.128906 C 82.460938 32.855469 80.816406 28.992188 80.816406 24.53125 "/>
</g>
</svg>
