<?xml version="1.0" encoding="UTF-8"?>
<svg xmlns="http://www.w3.org/2000/svg" xmlns:xlink="http://www.w3.org/1999/xlink" width="128pt" height="190pt" viewBox="0 0 128 190" version="1.1">
<g id="surface1">
<path style=" stroke:none;fill-rule:nonzero;fill:rgb(100%,100%,100%);fill-opacity:1;" d="M 113.542969 7.257812 C 113.875 7.902344 114.140625 8.570312 114.34375 9.265625 C 114.859375 10.917969 114.546875 13.042969 113.40625 15.644531 C 113.242188 14.691406 112.84375 13.839844 112.21875 13.089844 L 111.035156 11.824219 L 110.953125 11.769531 C 112.164062 11.054688 112.773438 10.328125 112.773438 9.597656 C 112.753906 8.972656 112.597656 8.421875 112.304688 7.945312 C 111.898438 7.414062 111.347656 7.101562 110.648438 7.011719 L 110.207031 7.011719 L 108.691406 7.3125 C 108.214844 7.480469 107.847656 7.5625 107.589844 7.5625 L 107.394531 7.5625 L 106.707031 6.652344 C 105.804688 5.335938 105.0625 4.628906 104.472656 4.535156 L 104.363281 4.535156 L 104.058594 4.621094 C 103.914062 4.636719 103.609375 4.765625 103.148438 5.003906 L 102.597656 5.28125 C 102.488281 5.296875 102.277344 5.390625 101.964844 5.554688 L 101.191406 5.800781 L 101.164062 5.800781 L 101 5.71875 L 100.667969 5.554688 L 100.476562 5.390625 L 100.253906 5.28125 C 99.90625 5.023438 99.621094 4.886719 99.402344 4.867188 L 99.207031 4.867188 L 98.351562 5.058594 C 97.964844 5.222656 97.230469 5.855469 96.148438 6.957031 L 95.679688 7.367188 C 95.21875 7.679688 94.757812 7.835938 94.300781 7.835938 L 94.132812 7.835938 C 93.820312 7.816406 93.566406 7.679688 93.363281 7.425781 C 92.941406 6.910156 92.691406 6.277344 92.617188 5.527344 C 92.542969 4.773438 92.636719 4.160156 92.894531 3.683594 L 93.417969 2.941406 C 93.472656 3.34375 93.601562 3.640625 93.804688 3.820312 C 94.171875 4.226562 94.601562 4.445312 95.097656 4.480469 L 95.402344 4.507812 C 96.007812 4.507812 96.570312 4.28125 97.085938 3.820312 L 97.195312 3.738281 C 98.40625 2.621094 99.261719 2.015625 99.757812 1.925781 L 100.199219 1.925781 L 101.109375 2.253906 L 101.191406 2.28125 C 101.46875 2.445312 101.707031 2.539062 101.910156 2.558594 L 102.046875 2.558594 C 102.25 2.558594 102.433594 2.492188 102.597656 2.363281 L 103.480469 1.402344 C 104.199219 0.484375 104.710938 0.0195312 105.023438 0 L 105.136719 0.0273438 C 105.503906 0.0625 105.925781 0.292969 106.402344 0.714844 L 106.707031 1.015625 C 107.019531 1.328125 107.285156 1.539062 107.507812 1.648438 C 108.074219 1.960938 108.664062 2.199219 109.269531 2.363281 C 109.804688 2.492188 110.253906 2.785156 110.621094 3.246094 L 111.449219 4.59375 C 111.722656 5.160156 111.972656 5.5 112.191406 5.609375 C 112.652344 5.867188 113.101562 6.414062 113.542969 7.257812 "/>
<path style=" stroke:none;fill-rule:nonzero;fill:rgb(100%,100%,100%);fill-opacity:1;" d="M 93.5 8.496094 C 93.058594 9.046875 92.683594 9.597656 92.371094 10.144531 C 92.1875 9.632812 92.09375 9.277344 92.09375 9.074219 C 92.074219 8.488281 92.1875 8.066406 92.425781 7.808594 L 92.507812 7.753906 L 92.5625 7.753906 L 92.726562 7.890625 C 92.984375 8.167969 93.242188 8.367188 93.5 8.496094 "/>
<path style=" stroke:none;fill-rule:nonzero;fill:rgb(100%,100%,100%);fill-opacity:1;" d="M 45.859375 126.375 C 45.546875 126.375 45.261719 126.65625 45.003906 127.226562 C 44.5625 128.199219 44.371094 129.699219 44.425781 131.734375 L 44.425781 132.808594 C 44.371094 133.484375 44.445312 134 44.644531 134.347656 C 44.867188 134.84375 45.324219 135.089844 46.023438 135.089844 C 46.8125 135.089844 47.328125 134.796875 47.566406 134.210938 L 47.625 133.933594 L 47.679688 132.640625 C 47.679688 131.140625 47.632812 130.121094 47.539062 129.589844 C 47.429688 129.058594 47.273438 128.527344 47.070312 127.996094 C 46.703125 126.914062 46.300781 126.375 45.859375 126.375 M 49.386719 125.90625 C 49.074219 125.90625 48.789062 126.179688 48.53125 126.730469 C 48.09375 127.703125 47.898438 129.207031 47.953125 131.238281 L 47.953125 132.367188 C 47.953125 133.0625 48.019531 133.558594 48.148438 133.851562 C 48.421875 134.367188 48.890625 134.621094 49.554688 134.621094 C 50.289062 134.621094 50.8125 134.339844 51.125 133.769531 L 51.179688 133.46875 L 51.179688 132.203125 C 51.234375 130.9375 51.207031 129.902344 51.097656 129.09375 C 51.003906 128.5625 50.847656 128.03125 50.628906 127.5 C 50.242188 126.4375 49.828125 125.90625 49.386719 125.90625 M 52.035156 125.960938 C 51.722656 126.640625 51.527344 127.390625 51.457031 128.214844 L 51.429688 130.496094 L 51.429688 131.597656 C 51.429688 132.347656 51.5 132.851562 51.648438 133.109375 C 51.90625 133.605469 52.367188 133.851562 53.027344 133.851562 C 53.816406 133.851562 54.339844 133.550781 54.597656 132.945312 L 54.652344 132.726562 L 54.679688 131.433594 C 54.71875 130.167969 54.679688 129.140625 54.570312 128.351562 L 54.128906 126.757812 C 53.726562 125.695312 53.300781 125.164062 52.863281 125.164062 C 52.53125 125.164062 52.253906 125.429688 52.035156 125.960938 M 39.1875 125.300781 L 42.164062 125.4375 C 47.109375 125.4375 51.585938 124.550781 55.589844 122.769531 L 55.976562 128.710938 L 55.921875 131.84375 L 55.867188 133.796875 L 55.839844 133.796875 C 51.941406 135.320312 47.136719 136.078125 41.417969 136.078125 L 39.296875 136.050781 C 39.351562 135.59375 39.351562 134.878906 39.296875 133.90625 L 39.1875 125.300781 M 42.46875 126.648438 C 42.136719 126.648438 41.859375 126.921875 41.640625 127.472656 C 41.328125 128.132812 41.144531 128.882812 41.089844 129.726562 L 41.035156 132.011719 L 41.035156 133.109375 C 40.996094 133.75 41.070312 134.246094 41.253906 134.59375 C 41.457031 135.109375 41.917969 135.363281 42.632812 135.363281 C 43.421875 135.363281 43.9375 135.070312 44.175781 134.484375 L 44.257812 134.210938 L 44.289062 132.917969 C 44.289062 131.394531 44.242188 130.378906 44.148438 129.867188 C 44.058594 129.332031 43.902344 128.800781 43.679688 128.269531 C 43.3125 127.1875 42.910156 126.648438 42.46875 126.648438 "/>
<path style=" stroke:none;fill-rule:nonzero;fill:rgb(100%,100%,100%);fill-opacity:1;" d="M 41.886719 132.367188 C 41.886719 131.03125 41.960938 130.066406 42.109375 129.480469 C 42.347656 128.601562 42.558594 128.160156 42.742188 128.160156 C 42.816406 128.160156 42.898438 128.253906 42.992188 128.4375 C 43.25 128.949219 43.378906 129.472656 43.378906 130.003906 L 43.40625 133.273438 C 43.277344 133.476562 42.972656 133.625 42.496094 133.714844 L 42.300781 133.714844 L 41.886719 133.824219 L 41.886719 132.367188 "/>
<path style=" stroke:none;fill-rule:nonzero;fill:rgb(100%,100%,100%);fill-opacity:1;" d="M 66.453125 126.8125 C 66.25 126.867188 65.902344 127.097656 65.40625 127.5 L 64.992188 127.804688 C 64.386719 128.226562 63.632812 128.644531 62.730469 129.066406 C 61.554688 129.601562 60.664062 129.867188 60.058594 129.867188 C 59.523438 129.867188 59.230469 129.636719 59.175781 129.179688 C 58.992188 126.683594 58.128906 124.511719 56.582031 122.660156 L 59.726562 120.710938 C 61.195312 122.855469 63.382812 124.648438 66.289062 126.097656 L 66.371094 126.320312 L 66.453125 126.8125 "/>
<path style=" stroke:none;fill-rule:nonzero;fill:rgb(100%,100%,100%);fill-opacity:1;" d="M 49.691406 127.417969 L 49.910156 127.691406 C 50.152344 128.207031 50.269531 128.730469 50.269531 129.261719 L 50.324219 132.53125 C 50.179688 132.753906 49.875 132.910156 49.414062 133 L 49.195312 133 L 48.808594 133.109375 L 48.78125 131.625 C 48.78125 130.34375 48.871094 129.371094 49.058594 128.710938 C 49.296875 127.847656 49.507812 127.417969 49.691406 127.417969 "/>
<path style=" stroke:none;fill-rule:nonzero;fill:rgb(100%,100%,100%);fill-opacity:1;" d="M 52.503906 127.941406 C 52.761719 127.078125 52.972656 126.648438 53.136719 126.648438 C 53.210938 126.648438 53.292969 126.75 53.386719 126.949219 C 53.644531 127.445312 53.769531 127.96875 53.769531 128.519531 L 53.800781 131.761719 C 53.671875 131.984375 53.367188 132.136719 52.890625 132.230469 L 52.695312 132.230469 L 52.308594 132.339844 L 52.28125 130.882812 C 52.28125 129.582031 52.355469 128.601562 52.503906 127.941406 "/>
<path style=" stroke:none;fill-rule:nonzero;fill:rgb(100%,100%,100%);fill-opacity:1;" d="M 46.132812 127.914062 C 46.226562 127.914062 46.308594 127.996094 46.382812 128.160156 C 46.640625 128.675781 46.769531 129.207031 46.769531 129.753906 L 46.796875 133 C 46.703125 133.183594 46.402344 133.339844 45.886719 133.46875 L 45.664062 133.441406 L 45.253906 133.550781 L 45.253906 132.121094 C 45.253906 130.820312 45.335938 129.847656 45.5 129.207031 C 45.738281 128.34375 45.949219 127.914062 46.132812 127.914062 "/>
<path style=" stroke:none;fill-rule:nonzero;fill:rgb(100%,100%,100%);fill-opacity:1;" d="M 28.074219 127.941406 L 27.855469 130.277344 L 27.578125 130.304688 L 26.835938 130.25 L 26.835938 129.78125 C 26.890625 127.253906 27.257812 125.722656 27.9375 125.191406 L 28.074219 126.621094 L 28.074219 127.941406 "/>
<path style=" stroke:none;fill-rule:nonzero;fill:rgb(100%,100%,100%);fill-opacity:1;" d="M 25.429688 126.457031 L 25.207031 128.957031 L 25.125 128.957031 L 24.324219 128.710938 L 24.324219 128.1875 C 24.398438 125.730469 24.722656 124.257812 25.292969 123.761719 L 25.429688 125.164062 L 25.429688 126.457031 "/>
<path style=" stroke:none;fill-rule:nonzero;fill:rgb(100%,100%,100%);fill-opacity:1;" d="M 23.085938 124.75 L 22.835938 127.253906 C 22.636719 127.253906 22.367188 127.152344 22.039062 126.949219 L 22.039062 126.457031 C 22.113281 124 22.414062 122.523438 22.949219 122.027344 C 23.039062 122.558594 23.085938 123.46875 23.085938 124.75 "/>
<path style=" stroke:none;fill-rule:nonzero;fill:rgb(100%,100%,100%);fill-opacity:1;" d="M 20.878906 118.507812 L 20.878906 118.097656 L 20.988281 117.410156 C 22.828125 119.40625 25.59375 121.1875 29.289062 122.742188 L 29.507812 134.375 C 24.730469 132.6875 21.414062 130.40625 19.554688 127.527344 L 19.722656 126.320312 C 20.015625 126.539062 20.273438 126.648438 20.492188 126.648438 L 20.6875 126.621094 C 20.890625 126.601562 21.046875 126.511719 21.15625 126.347656 L 21.15625 126.757812 L 21.238281 127.089844 C 21.347656 127.566406 21.570312 127.960938 21.898438 128.269531 C 22.25 128.582031 22.664062 128.757812 23.140625 128.792969 L 23.195312 128.792969 C 23.324219 128.792969 23.425781 128.746094 23.5 128.65625 L 23.527344 128.847656 C 23.785156 129.894531 24.4375 130.441406 25.484375 130.496094 L 25.511719 130.496094 C 25.695312 130.496094 25.851562 130.386719 25.980469 130.167969 L 26.007812 130.523438 C 26.285156 131.40625 26.851562 131.84375 27.71875 131.84375 L 28.160156 131.816406 C 28.414062 131.761719 28.589844 131.550781 28.683594 131.183594 C 28.738281 131.039062 28.773438 130.726562 28.792969 130.25 L 28.847656 129.617188 C 29.03125 127.75 28.976562 126.289062 28.683594 125.246094 L 28.683594 125.164062 C 28.40625 124.117188 28.085938 123.597656 27.71875 123.597656 L 27.691406 123.597656 C 27.210938 123.667969 26.789062 124.367188 26.421875 125.6875 L 26.285156 126.234375 C 26.285156 125.429688 26.230469 124.707031 26.117188 124.0625 C 25.933594 123.074219 25.660156 122.441406 25.292969 122.167969 L 25.070312 122.113281 C 24.703125 122.113281 24.316406 122.761719 23.914062 124.0625 L 23.773438 122.359375 L 23.773438 122.277344 C 23.574219 121.230469 23.277344 120.617188 22.890625 120.433594 L 22.726562 120.378906 C 22.339844 120.378906 21.972656 121.039062 21.625 122.359375 L 21.570312 122.414062 C 21.570312 121.605469 21.523438 120.863281 21.429688 120.1875 L 21.429688 120.160156 C 21.300781 119.316406 21.117188 118.765625 20.878906 118.507812 "/>
<path style=" stroke:none;fill-rule:nonzero;fill:rgb(100%,100%,100%);fill-opacity:1;" d="M 37.476562 127.996094 L 37.339844 127.941406 L 37.367188 127.144531 C 37.476562 125.054688 37.359375 123.570312 37.007812 122.6875 C 36.804688 122.175781 36.246094 121.78125 35.328125 121.507812 L 32.816406 121.066406 L 31.660156 120.902344 L 31.578125 120.902344 C 31.449219 120.902344 31.355469 120.964844 31.300781 121.09375 C 31.136719 121.699219 31.109375 122.660156 31.21875 123.980469 L 31.300781 132.367188 L 31.273438 132.808594 L 31.355469 134.347656 C 31.410156 134.933594 31.59375 135.328125 31.90625 135.53125 C 32.347656 135.824219 32.929688 136.070312 33.644531 136.273438 L 35.601562 136.65625 L 36.953125 136.878906 L 37.035156 136.878906 C 37.144531 136.878906 37.238281 136.8125 37.3125 136.683594 C 37.585938 135.914062 37.644531 134.53125 37.476562 132.53125 L 37.367188 131.019531 C 37.679688 130.890625 37.898438 130.671875 38.027344 130.359375 C 38.175781 130.03125 38.210938 129.664062 38.140625 129.261719 C 38.046875 128.65625 37.828125 128.234375 37.476562 127.996094 M 31.824219 120.296875 L 32.074219 120.269531 L 33.671875 120.597656 L 34.335938 120.820312 L 36.816406 121.367188 C 37.570312 121.625 38.046875 122.140625 38.25 122.910156 C 38.359375 123.347656 38.40625 124.101562 38.386719 125.164062 L 38.414062 133.550781 C 38.46875 134.6875 38.441406 135.492188 38.332031 135.96875 C 38.09375 136.792969 37.578125 137.289062 36.789062 137.453125 L 36.539062 137.480469 L 34.941406 137.125 L 31.769531 136.410156 C 31.015625 136.246094 30.539062 135.742188 30.335938 134.898438 C 30.226562 134.421875 30.191406 133.632812 30.226562 132.53125 L 30.171875 122.910156 C 30.226562 122.816406 30.234375 122.652344 30.199219 122.414062 C 30.328125 121.203125 30.871094 120.5 31.824219 120.296875 "/>
<path style=" stroke:none;fill-rule:nonzero;fill:rgb(100%,100%,100%);fill-opacity:1;" d="M 56.667969 129.480469 L 56.28125 123.457031 C 57.621094 125.089844 58.367188 126.886719 58.511719 128.847656 C 58.570312 129.765625 58.78125 130.40625 59.148438 130.773438 C 59.351562 130.992188 59.671875 131.101562 60.113281 131.101562 C 60.828125 131.101562 61.976562 130.707031 63.558594 129.921875 L 63.863281 129.78125 L 65.242188 129.039062 C 65.332031 131.625 64.992188 133.652344 64.21875 135.117188 C 63.722656 136.070312 62.179688 136.894531 59.589844 137.59375 L 58.101562 137.785156 L 57.078125 137.648438 C 56.511719 137.480469 56.289062 135.851562 56.417969 132.753906 L 56.417969 132.394531 L 56.554688 131.183594 C 56.648438 130.433594 56.683594 129.867188 56.667969 129.480469 "/>
<path style=" stroke:none;fill-rule:nonzero;fill:rgb(100%,100%,100%);fill-opacity:1;" d="M 36.484375 123.457031 L 36.511719 127.691406 L 36.097656 127.636719 L 35.851562 127.527344 L 34.996094 127.335938 L 34.859375 127.335938 C 34.417969 127.390625 34.234375 127.804688 34.308594 128.574219 C 34.363281 129.105469 34.574219 129.589844 34.941406 130.03125 C 35.328125 130.453125 35.851562 130.78125 36.511719 131.019531 L 36.539062 131.019531 L 36.566406 134.59375 C 36.605469 135.015625 36.59375 135.246094 36.539062 135.28125 L 32.292969 134.320312 L 32.15625 134.320312 L 32.074219 123.265625 L 32.101562 122.632812 L 32.320312 122.550781 L 35.355469 123.210938 L 35.382812 123.210938 L 36.320312 123.429688 L 36.429688 123.457031 L 36.484375 123.457031 "/>
<path style=" stroke:none;fill-rule:nonzero;fill:rgb(100%,100%,100%);fill-opacity:1;" d="M 35.355469 128.957031 L 35.300781 128.875 L 35.355469 128.875 C 35.5 128.875 35.710938 128.941406 35.988281 129.066406 L 36.179688 129.179688 L 37.175781 129.371094 L 36.648438 129.507812 L 36.566406 129.507812 L 35.90625 129.261719 L 35.824219 129.207031 L 35.355469 128.957031 "/>
<path style=" stroke:none;fill-rule:nonzero;fill:rgb(100%,100%,100%);fill-opacity:1;" d="M 86.113281 64.535156 C 87.214844 65.652344 89.109375 66.550781 91.789062 67.230469 C 94.457031 67.886719 97.453125 68.21875 100.777344 68.21875 L 105.355469 68 C 104.75 68.714844 104.28125 69.640625 103.949219 70.777344 L 100.777344 70.914062 C 96.882812 70.914062 93.464844 70.4375 90.523438 69.484375 C 87.582031 68.53125 86.113281 67.410156 86.113281 66.128906 L 86.113281 64.535156 "/>
<path style=" stroke:none;fill-rule:nonzero;fill:rgb(100%,100%,100%);fill-opacity:1;" d="M 113.929688 60.410156 C 114.960938 61.070312 115.472656 61.765625 115.472656 62.5 C 115.472656 63.234375 114.867188 63.976562 113.65625 64.726562 C 112.972656 63.792969 112.175781 63.113281 111.253906 62.691406 L 109.851562 62.363281 L 109.160156 62.445312 L 109.050781 62.222656 L 109.351562 61.839844 C 109.574219 61.453125 109.683594 60.417969 109.683594 58.730469 C 111.46875 59.191406 112.882812 59.75 113.929688 60.410156 "/>
<path style=" stroke:none;fill-rule:nonzero;fill:rgb(100%,100%,100%);fill-opacity:1;" d="M 100.367188 51.003906 L 100.253906 50.867188 L 99.042969 48.585938 C 98.96875 48.421875 98.832031 48.339844 98.628906 48.339844 L 98.378906 48.367188 L 98.160156 48.640625 C 98.121094 48.804688 98.140625 48.933594 98.214844 49.027344 L 99.34375 51.199219 C 98.703125 52.644531 98.160156 54.148438 97.71875 55.707031 C 97.371094 57.082031 97.121094 58.703125 96.972656 60.574219 L 96.449219 60.601562 C 95 60.566406 93.777344 60.382812 92.785156 60.050781 L 92.175781 59.859375 C 92.214844 57.585938 92.34375 55.367188 92.5625 53.207031 C 92.765625 50.695312 93.125 48.128906 93.636719 45.507812 L 93.777344 43.527344 L 93.527344 40.503906 L 94.851562 40.53125 L 98.433594 40.226562 L 98.519531 40.253906 C 99.492188 41.007812 100.402344 41.566406 101.246094 41.933594 C 102.773438 42.609375 104.546875 42.996094 106.570312 43.085938 C 106.625 44.058594 106.953125 45.855469 107.5625 48.476562 L 108.25 51.914062 C 108.582031 53.839844 108.746094 55.964844 108.746094 58.292969 C 108.746094 60.070312 108.671875 61.097656 108.527344 61.371094 L 108.222656 61.648438 C 107.707031 61.886719 107.148438 62.039062 106.542969 62.113281 L 106.542969 62.03125 C 106.46875 62.085938 106.394531 62.125 106.320312 62.140625 L 105.6875 62.140625 L 105.519531 62.113281 L 105.464844 62.113281 C 105.410156 62.113281 105.363281 62.097656 105.328125 62.058594 L 105.191406 62.058594 L 105.078125 62.03125 L 105.023438 62.03125 L 104.996094 62.003906 L 104.96875 62.003906 L 104.941406 62.113281 L 104.941406 62.003906 L 104.859375 61.976562 L 104.804688 61.976562 L 104.722656 61.921875 L 104.695312 61.921875 L 104.417969 61.839844 C 104.179688 61.746094 103.957031 61.410156 103.757812 60.820312 L 103.234375 58.953125 L 103.234375 58.898438 L 102.738281 57.136719 L 100.53125 51.472656 L 100.640625 51.527344 L 100.367188 51.035156 L 100.367188 51.003906 "/>
<path style=" stroke:none;fill-rule:nonzero;fill:rgb(100%,100%,100%);fill-opacity:1;" d="M 103.507812 33.351562 L 103.234375 33.628906 L 103.148438 33.875 L 103.175781 34.039062 C 103.25 34.277344 103.425781 34.398438 103.703125 34.398438 L 103.894531 34.34375 L 103.894531 34.316406 L 103.921875 34.316406 L 105.078125 34.066406 C 105.484375 34.066406 105.851562 34.195312 106.183594 34.453125 L 106.597656 34.921875 C 106.15625 34.699219 105.703125 34.589844 105.246094 34.589844 L 104.058594 34.867188 L 104.03125 34.921875 C 103.941406 34.957031 103.867188 35.019531 103.8125 35.113281 L 103.757812 35.386719 L 103.785156 35.582031 L 103.785156 35.636719 L 103.8125 35.636719 C 103.886719 35.820312 104.042969 35.910156 104.28125 35.910156 L 104.554688 35.855469 L 104.582031 35.800781 L 105.21875 35.71875 L 106.210938 35.9375 C 106.613281 36.175781 106.816406 36.421875 106.816406 36.679688 L 106.292969 36.570312 L 106.210938 36.570312 L 105.328125 36.433594 C 104.851562 36.433594 104.4375 36.570312 104.085938 36.84375 L 103.644531 37.339844 L 102.957031 37.863281 C 102.570312 38.0625 102.230469 38.183594 101.9375 38.21875 C 101.605469 37.964844 101.359375 37.632812 101.191406 37.230469 L 101.054688 36.128906 C 101.054688 35.597656 101.101562 35.242188 101.191406 35.058594 L 102.296875 33.574219 L 103.011719 33.132812 C 103.691406 32.859375 104.289062 32.71875 104.804688 32.71875 L 105.328125 32.832031 L 105.546875 33.023438 L 105.109375 32.996094 C 104.574219 32.996094 104.042969 33.113281 103.507812 33.351562 "/>
<path style=" stroke:none;fill-rule:nonzero;fill:rgb(100%,100%,100%);fill-opacity:1;" d="M 89.144531 32.226562 C 89.769531 31.328125 90.660156 30.484375 91.820312 29.695312 C 92.902344 29.019531 94.015625 28.542969 95.15625 28.265625 C 95.558594 28.449219 96.019531 28.597656 96.53125 28.707031 C 96.902344 29.621094 97.773438 30.210938 99.152344 30.464844 L 99.925781 30.492188 C 100.734375 30.492188 101.496094 30.292969 102.210938 29.886719 C 102.894531 29.503906 103.363281 29 103.617188 28.375 C 104.667969 28.632812 105.566406 28.980469 106.320312 29.421875 L 106.402344 29.449219 L 108.800781 30.90625 C 109.59375 31.457031 110.289062 32.125 110.898438 32.914062 C 111.613281 33.902344 112.101562 35.113281 112.359375 36.542969 C 112.632812 38.121094 112.515625 39.484375 112 40.640625 C 111.597656 41.078125 110.953125 41.457031 110.070312 41.765625 C 109.226562 42.023438 108.351562 42.152344 107.449219 42.152344 C 105.335938 42.152344 103.507812 41.832031 101.964844 41.191406 C 101.136719 40.878906 100.382812 40.464844 99.703125 39.953125 L 101.550781 39.292969 C 101.644531 39.273438 101.734375 39.238281 101.828125 39.183594 L 101.855469 39.183594 C 102.351562 39.164062 102.863281 39.015625 103.398438 38.742188 C 103.839844 38.484375 104.160156 38.21875 104.363281 37.945312 L 104.695312 37.613281 C 104.878906 37.449219 105.089844 37.367188 105.328125 37.367188 L 106.015625 37.503906 L 106.042969 37.503906 L 106.84375 37.640625 L 107.175781 37.613281 L 107.449219 37.476562 C 108.332031 37.625 108.949219 37.910156 109.296875 38.328125 C 109.371094 38.441406 109.480469 38.496094 109.628906 38.496094 L 109.960938 38.386719 L 110.125 38.027344 L 110.015625 37.699219 C 109.539062 37.128906 108.785156 36.746094 107.753906 36.542969 L 107.5625 35.9375 L 107.699219 35.609375 C 107.699219 34.839844 107.421875 34.222656 106.871094 33.765625 L 106.871094 33.296875 C 106.578125 32.65625 106.210938 32.207031 105.769531 31.949219 L 104.804688 31.785156 C 104.070312 31.785156 103.34375 31.941406 102.625 32.253906 L 101.6875 32.832031 L 101.578125 32.914062 L 101.550781 32.914062 L 100.53125 34.34375 L 96.589844 33.628906 L 96.589844 33.40625 L 96.339844 32.089844 L 96.3125 32.035156 L 96.3125 31.976562 L 96.257812 31.949219 C 95.980469 31.527344 95.550781 31.171875 94.960938 30.878906 C 94.410156 30.566406 93.878906 30.410156 93.363281 30.410156 L 93.003906 30.464844 C 92.488281 30.574219 92.019531 30.839844 91.597656 31.261719 L 90.882812 31.867188 C 90.511719 32.160156 90.238281 32.511719 90.054688 32.914062 L 89.859375 33.378906 C 89.695312 33.546875 89.585938 33.757812 89.53125 34.011719 C 89.457031 34.417969 89.59375 34.699219 89.945312 34.867188 L 90.742188 35.003906 L 90.9375 35.003906 L 91.570312 35.140625 L 91.652344 35.195312 L 91.761719 35.222656 L 91.820312 35.222656 L 92.066406 35.277344 L 92.257812 35.222656 L 93.226562 34.867188 L 95.539062 34.535156 L 95.761719 34.535156 C 97.046875 34.589844 98.507812 34.828125 100.144531 35.25 C 100.015625 36.019531 100.0625 36.773438 100.28125 37.503906 C 100.410156 37.851562 100.613281 38.191406 100.890625 38.523438 C 99.160156 39.21875 97.140625 39.566406 94.824219 39.566406 L 93.03125 39.511719 C 90.257812 39 88.582031 38.273438 88.015625 37.339844 C 87.792969 36.550781 87.800781 35.644531 88.042969 34.617188 C 88.261719 33.773438 88.628906 32.976562 89.144531 32.226562 "/>
<path style=" stroke:none;fill-rule:nonzero;fill:rgb(100%,100%,100%);fill-opacity:1;" d="M 19.914062 125 L 20.492188 120.957031 L 20.632812 120.378906 L 20.742188 122.359375 L 20.492188 125.027344 C 20.492188 125.082031 20.4375 125.109375 20.328125 125.109375 L 19.914062 125 "/>
<path style=" stroke:none;fill-rule:nonzero;fill:rgb(100%,100%,100%);fill-opacity:1;" d="M 37.671875 33.269531 C 38.128906 32.628906 38.222656 32.003906 37.945312 31.402344 C 37.597656 30.722656 36.960938 30.363281 36.042969 30.328125 L 35.710938 30.328125 C 34.535156 30.328125 33.195312 30.59375 31.6875 31.125 C 30.769531 31.4375 29.492188 31.96875 27.855469 32.71875 L 27.441406 32.886719 C 27.257812 32.941406 27.203125 33.125 27.277344 33.4375 L 27.359375 33.765625 C 27.449219 33.949219 27.5625 34.039062 27.691406 34.039062 L 27.746094 34.039062 C 27.78125 34.039062 27.800781 34.03125 27.800781 34.011719 C 29.820312 33.078125 31.90625 32.335938 34.058594 31.785156 L 36.484375 31.511719 C 37.019531 31.511719 37.300781 31.566406 37.339844 31.675781 L 37.367188 31.730469 C 37.273438 32.226562 36.769531 32.875 35.851562 33.683594 L 35.628906 33.875 C 34.234375 35.121094 32.542969 36.367188 30.558594 37.613281 L 24.574219 40.996094 C 24.445312 41.089844 24.398438 41.28125 24.4375 41.574219 C 24.546875 41.960938 24.683594 42.152344 24.851562 42.152344 L 24.933594 42.152344 L 24.960938 42.097656 L 30.472656 38.90625 L 31.246094 38.46875 L 34.71875 36.15625 C 36.007812 35.1875 36.988281 34.222656 37.671875 33.269531 M 29.371094 30.660156 L 34.804688 27.769531 C 36.382812 27.039062 37.707031 26.671875 38.773438 26.671875 C 39.96875 26.671875 40.988281 27.121094 41.832031 28.019531 C 43.542969 29.707031 45.507812 31.492188 47.734375 33.378906 L 48.148438 33.683594 C 49.527344 34.855469 50.398438 35.726562 50.765625 36.296875 C 51.519531 37.394531 52.273438 39.15625 53.027344 41.574219 C 51.355469 42.070312 49.414062 42.445312 47.210938 42.703125 L 41.28125 43.222656 L 37.945312 43.472656 L 28.378906 44.570312 C 25.273438 45.101562 22.421875 45.789062 19.832031 46.632812 C 19.042969 46.855469 18.023438 47.246094 16.773438 47.816406 L 17.183594 43.5 L 17.542969 40.335938 C 17.765625 39.144531 18.085938 38.183594 18.507812 37.449219 C 19.003906 36.605469 19.824219 35.828125 20.960938 35.113281 L 24.132812 33.4375 L 25.457031 32.777344 L 29.371094 30.660156 "/>
<path style=" stroke:none;fill-rule:nonzero;fill:rgb(100%,100%,100%);fill-opacity:1;" d="M 91.238281 58.898438 L 91.183594 59.804688 C 90.027344 60.335938 89.21875 60.765625 88.757812 61.097656 C 88.355469 61.425781 88.160156 61.746094 88.179688 62.058594 C 88.234375 62.40625 88.519531 62.691406 89.035156 62.910156 C 89.640625 63.113281 90.300781 63.222656 91.019531 63.242188 L 91.433594 63.242188 C 92.371094 63.242188 93.195312 63.140625 93.914062 62.9375 L 94.574219 62.746094 C 94.648438 62.929688 94.777344 63.023438 94.960938 63.023438 L 94.988281 63.050781 L 95.511719 63.050781 C 96.375 63.050781 96.957031 62.820312 97.25 62.363281 C 97.378906 62.160156 97.488281 61.820312 97.582031 61.34375 C 97.800781 61.199219 97.929688 61.015625 97.964844 60.792969 C 98.023438 59.65625 98.121094 58.660156 98.269531 57.796875 L 100.804688 57.714844 L 101.9375 57.714844 L 102.296875 59.117188 L 102.324219 59.171875 C 102.765625 61.042969 103.242188 62.167969 103.757812 62.554688 C 103.757812 63.160156 103.859375 63.664062 104.058594 64.066406 C 104.242188 64.414062 104.554688 64.773438 104.996094 65.140625 C 105.566406 65.597656 106.117188 65.871094 106.652344 65.964844 L 106.542969 66.816406 L 106.542969 66.84375 L 100.777344 67.257812 C 96.882812 67.257812 93.464844 66.78125 90.523438 65.828125 C 87.582031 64.875 86.113281 63.765625 86.113281 62.5 C 86.113281 61.820312 86.5625 61.171875 87.460938 60.546875 C 88.363281 59.886719 89.621094 59.335938 91.238281 58.898438 "/>
<path style=" stroke:none;fill-rule:nonzero;fill:rgb(100%,100%,100%);fill-opacity:1;" d="M 91.542969 32.636719 L 91.820312 32.5 L 92.507812 32.363281 C 92.984375 32.363281 93.425781 32.519531 93.832031 32.832031 L 94.160156 32.914062 C 94.328125 32.914062 94.457031 32.867188 94.546875 32.777344 L 94.6875 32.390625 L 94.601562 32.117188 L 94.601562 32.089844 L 94.546875 32.0625 C 94.160156 31.730469 93.683594 31.519531 93.113281 31.429688 L 93.226562 31.402344 L 93.363281 31.402344 C 93.675781 31.402344 94.050781 31.511719 94.492188 31.730469 L 95.457031 32.472656 L 95.625 33.519531 L 95.238281 33.519531 L 93.554688 33.738281 L 93.609375 33.519531 C 93.628906 33.371094 93.574219 33.242188 93.445312 33.132812 C 93.113281 32.785156 92.582031 32.609375 91.847656 32.609375 L 91.542969 32.636719 "/>
<path style=" stroke:none;fill-rule:nonzero;fill:rgb(100%,100%,100%);fill-opacity:1;" d="M 91.984375 34.289062 L 91.324219 34.066406 L 91.15625 34.039062 L 90.550781 34.039062 C 90.699219 33.875 90.925781 33.757812 91.238281 33.683594 L 91.820312 33.628906 L 92.480469 33.765625 L 92.726562 33.902344 L 92.785156 33.929688 L 91.984375 34.289062 "/>
<path style=" stroke:none;fill-rule:nonzero;fill:rgb(100%,100%,100%);fill-opacity:1;" d="M 72.738281 40.914062 C 72.886719 41.207031 72.804688 41.574219 72.492188 42.015625 C 72.070312 42.636719 71.453125 43.261719 70.644531 43.882812 C 70.183594 44.234375 69.421875 44.746094 68.355469 45.425781 L 66.976562 46.277344 C 65.25 47.46875 63.953125 49.042969 63.089844 51.003906 C 62.464844 52.417969 61.914062 53.515625 61.4375 54.304688 C 60.8125 55.386719 60.085938 56.304688 59.257812 57.054688 L 58.953125 56.449219 C 59.617188 55.351562 60.046875 54.40625 60.25 53.617188 C 60.414062 53.066406 60.527344 52.480469 60.582031 51.859375 C 60.671875 50.648438 60.472656 49.757812 59.976562 49.191406 C 58.816406 47.871094 56.609375 47.019531 53.359375 46.632812 L 50.628906 46.523438 L 41.695312 47.320312 C 37.613281 47.871094 34.066406 48.742188 31.054688 49.933594 C 28.058594 51.089844 25.363281 52.644531 22.976562 54.609375 C 19.1875 57.761719 17 60.976562 16.414062 64.257812 C 16.210938 65.617188 16.476562 66.734375 17.214844 67.613281 C 18.078125 68.601562 19.242188 69.097656 20.714844 69.097656 L 20.878906 69.097656 C 20.640625 69.628906 20.519531 70.226562 20.519531 70.886719 C 16.972656 71.417969 13.710938 71.683594 10.734375 71.683594 L 7.039062 71.546875 C 2.40625 71.253906 0.128906 70.050781 0.203125 67.945312 C 0.3125 64.917969 2.371094 61.371094 6.378906 57.300781 C 10.257812 53.378906 15.144531 50.457031 21.046875 48.53125 C 25.382812 47.121094 30.933594 46.101562 37.699219 45.480469 L 41.28125 45.203125 L 47.210938 44.679688 C 49.453125 44.40625 51.410156 44.058594 53.082031 43.636719 C 54.183594 43.378906 55.671875 42.984375 57.546875 42.453125 C 61.996094 41.171875 65.507812 40.410156 68.082031 40.171875 L 69.488281 40.089844 C 71.324219 40.089844 72.410156 40.363281 72.738281 40.914062 "/>
<path style=" stroke:none;fill-rule:nonzero;fill:rgb(100%,100%,100%);fill-opacity:1;" d="M 35.355469 115.675781 C 35.242188 115.675781 35.160156 115.722656 35.105469 115.816406 C 34.996094 116.089844 34.804688 116.238281 34.527344 116.253906 C 34.378906 116.253906 34.308594 116.347656 34.308594 116.53125 L 34.582031 117.273438 C 34.765625 117.621094 34.949219 117.792969 35.132812 117.792969 C 35.683594 117.777344 36.035156 117.527344 36.179688 117.050781 C 36.273438 116.796875 36.164062 116.476562 35.851562 116.089844 C 35.683594 115.816406 35.519531 115.675781 35.355469 115.675781 M 37.144531 106.136719 C 37.203125 105.953125 37.082031 105.640625 36.789062 105.199219 C 36.550781 104.90625 36.375 104.761719 36.265625 104.761719 L 36.042969 104.925781 C 35.933594 105.199219 35.742188 105.339844 35.464844 105.339844 C 35.316406 105.339844 35.242188 105.441406 35.242188 105.640625 L 35.519531 106.382812 C 35.722656 106.714844 35.914062 106.878906 36.097656 106.878906 C 36.59375 106.878906 36.945312 106.632812 37.144531 106.136719 M 35.628906 102.808594 C 36.035156 101.433594 36.648438 100.308594 37.476562 99.425781 L 37.53125 99.371094 C 39.40625 97.375 40.777344 95.734375 41.640625 94.449219 C 42.851562 92.582031 44.765625 90.96875 47.375 89.609375 C 47.851562 89.390625 48.285156 89.28125 48.671875 89.28125 L 49.46875 89.445312 L 49.277344 91.921875 C 48.945312 95.054688 48.789062 97.429688 48.808594 99.042969 C 48.84375 101.71875 49.269531 103.945312 50.078125 105.722656 C 50.867188 107.410156 51.953125 109.113281 53.332031 110.839844 C 54.304688 111.992188 55.277344 113.339844 56.253906 114.878906 L 58.789062 119.113281 L 59.007812 119.527344 C 56.804688 121.066406 54.230469 122.238281 51.289062 123.046875 C 48.367188 123.851562 45.261719 124.257812 41.972656 124.257812 L 39.160156 124.144531 C 39.105469 121.816406 38.285156 120.386719 36.707031 119.855469 L 35.601562 119.527344 C 34.886719 119.269531 34.234375 119.085938 33.644531 118.976562 C 33.554688 118.371094 33.609375 117.683594 33.808594 116.914062 L 34.527344 114.90625 L 35.105469 113.3125 C 35.457031 112.195312 35.519531 110.636719 35.300781 108.636719 L 35.132812 107.179688 C 35.042969 105.605469 35.207031 104.148438 35.628906 102.808594 "/>
<path style=" stroke:none;fill-rule:nonzero;fill:rgb(100%,100%,100%);fill-opacity:1;" d="M 50.214844 101.625 C 50.011719 99.648438 50.09375 96.585938 50.464844 92.441406 L 50.628906 90.40625 L 51.457031 91.589844 L 52.449219 92.882812 C 53.496094 94.109375 54.949219 95.074219 56.804688 95.769531 C 58.457031 96.375 60.121094 96.675781 61.792969 96.675781 L 63.007812 96.621094 L 63.199219 96.484375 C 63.253906 96.375 63.21875 96.171875 63.089844 95.878906 L 62.84375 95.496094 C 61.832031 94.195312 61.03125 92.800781 60.445312 91.316406 C 59.855469 89.867188 59.359375 88.117188 58.953125 86.0625 L 63.75 86.476562 C 67.722656 86.476562 71.644531 85.613281 75.523438 83.890625 C 79.421875 82.167969 82.847656 79.765625 85.808594 76.6875 L 85.78125 76.796875 C 85.488281 78.207031 85.917969 79.765625 87.078125 81.472656 C 87.019531 83.046875 87.535156 84.558594 88.621094 86.007812 C 90.257812 88.28125 92.453125 89.75 95.210938 90.40625 C 91.203125 94.148438 86.820312 97.070312 82.058594 99.179688 C 77.296875 101.289062 72.683594 102.339844 68.21875 102.339844 C 66.121094 102.339844 64.148438 102.121094 62.289062 101.679688 L 62.070312 101.570312 L 61.960938 101.625 C 60.25 101.1875 58.714844 100.636719 57.355469 99.976562 L 57.300781 99.949219 L 57.246094 99.949219 L 57.050781 100.195312 L 57.078125 100.882812 C 57.152344 101.214844 57.273438 101.414062 57.4375 101.488281 C 58.890625 102.1875 60.359375 102.71875 61.847656 103.082031 C 62.015625 106.824219 62.730469 110.5625 64 114.300781 C 65.269531 118.042969 67.152344 121.957031 69.652344 126.042969 C 67.132812 125.199219 64.964844 124.101562 63.144531 122.742188 C 61.289062 121.351562 59.890625 119.773438 58.953125 118.015625 C 57.261719 114.804688 55.445312 112.074219 53.496094 109.820312 C 51.640625 107.695312 50.546875 104.960938 50.214844 101.625 "/>
<path style=" stroke:none;fill-rule:nonzero;fill:rgb(100%,100%,100%);fill-opacity:1;" d="M 57.632812 50.621094 C 57.777344 50.4375 57.925781 50.347656 58.074219 50.347656 L 58.101562 50.347656 C 58.191406 50.347656 58.292969 50.410156 58.402344 50.539062 C 58.808594 50.976562 58.964844 51.738281 58.871094 52.820312 C 58.835938 53.332031 58.597656 54.019531 58.15625 54.882812 C 57.511719 53.691406 56.867188 52.609375 56.226562 51.636719 C 56.722656 51.4375 57.191406 51.097656 57.632812 50.621094 "/>
<path style=" stroke:none;fill-rule:nonzero;fill:rgb(100%,100%,100%);fill-opacity:1;" d="M 18.34375 62.964844 L 18.894531 61.921875 C 19.539062 64.011719 20.253906 65.714844 21.046875 67.035156 L 20.164062 67.144531 L 20.054688 67.144531 C 19.539062 67.144531 19.003906 67.035156 18.453125 66.816406 C 18.050781 66.652344 17.683594 66.402344 17.351562 66.074219 C 17.332031 65.304688 17.664062 64.269531 18.34375 62.964844 "/>
<path style=" stroke:none;fill-rule:nonzero;fill:rgb(100%,100%,100%);fill-opacity:1;" d="M 85.117188 66.101562 L 85.117188 66.128906 C 85.117188 67.265625 85.910156 68.300781 87.488281 69.234375 C 89.089844 70.1875 91.265625 70.894531 94.023438 71.351562 C 94.6875 72.050781 95.496094 72.644531 96.449219 73.140625 C 97.242188 73.523438 98.113281 73.71875 99.070312 73.71875 C 100.429688 73.71875 101.957031 73.316406 103.644531 72.507812 C 103.480469 73.847656 103.472656 75.394531 103.617188 77.15625 C 102.957031 76.660156 102.304688 76.320312 101.660156 76.136719 L 100.613281 76.027344 C 99.492188 76.027344 98.621094 76.402344 97.996094 77.15625 C 97.480469 77.796875 97.296875 78.539062 97.441406 79.382812 C 96.082031 78.539062 94.730469 78.117188 93.390625 78.117188 L 92.316406 78.199219 C 92.09375 78.199219 92.003906 78.417969 92.039062 78.859375 L 92.230469 79.683594 C 92.378906 79.996094 92.542969 80.152344 92.726562 80.152344 L 92.785156 80.152344 L 93.777344 80.042969 C 95.449219 80.042969 97.09375 80.757812 98.710938 82.1875 C 99.117188 82.71875 99.683594 83.304688 100.421875 83.945312 L 100.640625 84.027344 C 100.734375 84.027344 100.816406 83.984375 100.890625 83.890625 L 100.863281 83.011719 L 100.53125 82.242188 L 98.933594 80.507812 L 98.546875 79.988281 C 98.363281 79.65625 98.316406 79.390625 98.40625 79.191406 C 98.648438 78.675781 99.429688 78.292969 100.75 78.035156 L 101.191406 78.007812 C 101.871094 78.007812 102.582031 78.226562 103.316406 78.667969 C 104.105469 79.125 104.785156 79.839844 105.355469 80.8125 C 105.886719 81.785156 106.164062 82.738281 106.183594 83.671875 C 106.183594 84.734375 105.21875 85.878906 103.289062 87.109375 C 101.523438 88.261719 99.640625 88.839844 97.636719 88.839844 C 94.914062 88.839844 92.445312 87.859375 90.21875 85.898438 C 87.921875 83.882812 87.488281 82.011719 88.921875 80.289062 C 89.347656 79.777344 89.90625 79.335938 90.605469 78.96875 C 90.824219 78.859375 90.882812 78.558594 90.769531 78.0625 C 90.605469 77.367188 90.386719 77.015625 90.109375 77.015625 L 90.054688 77.074219 L 90 77.074219 C 88.65625 77.730469 87.765625 78.703125 87.324219 79.988281 C 86.992188 78.867188 87.316406 77.347656 88.289062 75.421875 L 88.398438 75.148438 C 88.710938 74.597656 88.886719 74.183594 88.921875 73.910156 C 89.015625 73.433594 88.894531 72.929688 88.566406 72.398438 C 88.308594 71.941406 87.941406 71.527344 87.460938 71.160156 L 86 70.308594 C 85.0625 69.851562 84.382812 69.4375 83.960938 69.070312 L 83.960938 68.796875 C 83.996094 68.15625 84.0625 67.6875 84.152344 67.394531 C 84.320312 66.769531 84.640625 66.339844 85.117188 66.101562 "/>
<path style=" stroke:none;fill-rule:nonzero;fill:rgb(100%,100%,100%);fill-opacity:1;" d="M 23.71875 58.074219 C 22.507812 59.445312 21.742188 61.015625 21.429688 62.773438 C 21.082031 61.984375 20.75 60.976562 20.4375 59.75 C 21.742188 58.101562 23.371094 56.578125 25.320312 55.183594 C 25.449219 55.332031 25.714844 55.542969 26.117188 55.816406 L 25.898438 55.984375 C 25.070312 56.679688 24.34375 57.375 23.71875 58.074219 "/>
<path style=" stroke:none;fill-rule:nonzero;fill:rgb(100%,100%,100%);fill-opacity:1;" d="M 109.851562 69.375 C 110.289062 69.832031 110.585938 70.363281 110.730469 70.96875 C 111.117188 72.507812 111.128906 74.296875 110.757812 76.328125 C 110.519531 77.558594 110.070312 78.640625 109.410156 79.574219 C 108.710938 80.472656 107.835938 81.140625 106.789062 81.582031 C 106.386719 80.519531 105.816406 79.519531 105.078125 78.585938 C 104.511719 73.597656 105.171875 70.425781 107.066406 69.070312 C 107.449219 68.796875 107.855469 68.660156 108.277344 68.660156 C 108.828125 68.660156 109.351562 68.898438 109.851562 69.375 "/>
<path style=" stroke:none;fill-rule:nonzero;fill:rgb(100%,100%,100%);fill-opacity:1;" d="M 48.230469 79.492188 L 48.503906 79.464844 C 48.835938 79.464844 49.15625 79.382812 49.46875 79.21875 L 50.628906 78.53125 C 50.867188 78.363281 50.976562 78.199219 50.960938 78.035156 C 50.886719 77.871094 50.710938 77.789062 50.433594 77.789062 L 47.484375 77.648438 L 47.320312 77.648438 C 47.082031 77.667969 46.878906 77.75 46.714844 77.898438 L 46.4375 78.390625 C 46.417969 78.613281 46.492188 78.824219 46.660156 79.023438 L 47.238281 79.382812 L 48.230469 79.492188 M 45.195312 57.933594 C 45.066406 58.136719 45.066406 58.394531 45.195312 58.703125 L 45.664062 59.859375 L 46.90625 62.140625 L 48.53125 64.808594 C 48.753906 65.101562 48.761719 65.433594 48.5625 65.800781 L 47.429688 67.613281 C 47.28125 67.832031 47.246094 68.035156 47.320312 68.21875 C 47.429688 68.4375 47.59375 68.558594 47.816406 68.574219 L 48.53125 68.714844 L 48.644531 68.714844 C 49.066406 68.675781 49.414062 68.492188 49.691406 68.164062 L 51.042969 65.714844 C 51.171875 65.53125 51.214844 65.3125 51.179688 65.054688 C 51.160156 64.800781 51.070312 64.589844 50.902344 64.425781 C 49.398438 62.847656 48.394531 61.71875 47.898438 61.042969 L 46.878906 59.28125 L 46.300781 58.347656 C 46.117188 57.925781 45.847656 57.714844 45.5 57.714844 L 45.445312 57.714844 L 45.195312 57.933594 M 53.109375 57.054688 C 53.089844 57.089844 53.054688 57.109375 53 57.109375 C 52.613281 57.148438 52.300781 57.421875 52.0625 57.933594 C 51.824219 58.449219 51.742188 59.054688 51.8125 59.75 C 51.90625 60.445312 52.109375 61.015625 52.421875 61.453125 C 52.714844 61.914062 53.0625 62.140625 53.46875 62.140625 L 53.523438 62.140625 C 53.835938 62.085938 54.066406 61.949219 54.210938 61.730469 C 54.652344 61.214844 54.820312 60.464844 54.707031 59.476562 C 54.636719 58.796875 54.453125 58.226562 54.15625 57.769531 C 53.84375 57.292969 53.496094 57.054688 53.109375 57.054688 M 40.867188 68.355469 L 40.59375 68.273438 L 40.234375 68.410156 L 36.953125 71.105469 L 36.539062 71.710938 L 36.511719 72.398438 L 37.367188 75.503906 C 37.441406 75.78125 37.585938 75.917969 37.808594 75.917969 C 37.957031 75.917969 38.09375 75.816406 38.222656 75.613281 L 38.25 75.53125 L 38.25 75.503906 L 38.140625 73.964844 C 38.269531 73.78125 38.460938 73.691406 38.71875 73.691406 L 38.746094 73.664062 L 38.910156 73.691406 C 39.8125 74.296875 40.894531 74.898438 42.164062 75.503906 C 44.371094 76.566406 46.179688 77.101562 47.59375 77.101562 L 48.007812 77.074219 C 50.214844 76.90625 52.492188 75.871094 54.847656 73.964844 L 54.984375 73.9375 C 55.148438 73.9375 55.261719 74.046875 55.316406 74.269531 L 55.316406 74.625 C 55.332031 74.9375 55.445312 75.09375 55.644531 75.09375 C 55.792969 75.09375 55.914062 74.984375 56.003906 74.761719 L 57.328125 72.371094 C 57.4375 72.167969 57.476562 71.941406 57.4375 71.683594 C 57.417969 71.425781 57.328125 71.214844 57.164062 71.050781 L 55.757812 69.59375 C 55.609375 69.445312 55.472656 69.375 55.34375 69.375 L 55.121094 69.484375 C 55.03125 69.574219 55.011719 69.710938 55.066406 69.894531 L 55.121094 70.390625 C 55.175781 70.757812 55.019531 70.976562 54.652344 71.050781 C 52.59375 71.65625 50.804688 72.011719 49.277344 72.121094 L 48.617188 72.152344 L 48.339844 72.152344 C 47.367188 72.113281 45.886719 71.847656 43.902344 71.351562 L 41.117188 70.636719 C 40.878906 70.582031 40.695312 70.453125 40.566406 70.253906 L 40.511719 70.003906 L 40.867188 68.851562 C 40.941406 68.667969 40.941406 68.503906 40.867188 68.355469 M 38.386719 58.101562 L 38.332031 58.101562 C 38.039062 58.101562 37.800781 58.226562 37.613281 58.484375 C 37.175781 59 37.019531 59.769531 37.144531 60.792969 C 37.203125 61.453125 37.386719 62.023438 37.699219 62.5 C 37.992188 62.9375 38.339844 63.160156 38.746094 63.160156 L 38.855469 63.160156 C 39.242188 63.105469 39.554688 62.820312 39.792969 62.308594 C 40.015625 61.792969 40.097656 61.179688 40.042969 60.464844 C 39.949219 59.769531 39.746094 59.199219 39.433594 58.761719 C 39.140625 58.320312 38.792969 58.101562 38.386719 58.101562 M 35.878906 55.679688 L 38.25 54.277344 C 38.652344 54.113281 38.875 53.984375 38.910156 53.894531 C 39.078125 53.601562 38.753906 53.039062 37.945312 52.214844 C 37.800781 51.976562 37.578125 51.859375 37.285156 51.859375 L 37.203125 51.859375 L 36.761719 52.050781 L 35.300781 53.699219 C 34.378906 54.875 34.03125 55.761719 34.25 56.367188 L 34.277344 56.476562 L 34.390625 56.503906 L 34.445312 56.503906 C 34.628906 56.488281 35.105469 56.210938 35.878906 55.679688 M 51.015625 51.527344 L 50.988281 51.527344 C 50.621094 51.582031 50.40625 51.8125 50.351562 52.214844 L 50.269531 52.929688 C 50.234375 53.207031 50.316406 53.445312 50.519531 53.644531 C 50.703125 53.867188 50.941406 53.976562 51.234375 53.976562 L 54.128906 53.867188 C 54.425781 53.808594 54.582031 53.71875 54.597656 53.589844 C 54.636719 53.445312 54.507812 53.277344 54.210938 53.09375 L 51.429688 51.636719 L 51.015625 51.527344 M 27.882812 65.167969 L 27.828125 65.167969 L 27.578125 65.25 L 26.695312 65.992188 C 26.402344 66.429688 26.246094 66.824219 26.230469 67.171875 C 26.230469 67.410156 26.292969 67.605469 26.421875 67.75 C 26.550781 67.859375 26.679688 67.917969 26.808594 67.917969 L 26.835938 67.917969 C 27.222656 67.859375 27.414062 67.660156 27.414062 67.3125 C 27.414062 67.019531 27.679688 66.652344 28.214844 66.210938 C 28.472656 66.046875 28.535156 65.835938 28.40625 65.578125 C 28.351562 65.304688 28.175781 65.167969 27.882812 65.167969 M 27.746094 62.5 L 27.691406 62.5 L 27.496094 62.527344 C 26.6875 63.058594 26.136719 63.527344 25.84375 63.929688 L 25.070312 65.113281 C 24.792969 65.660156 24.695312 66.054688 24.765625 66.292969 L 25.042969 66.515625 L 25.070312 66.515625 C 25.234375 66.515625 25.53125 66.210938 25.953125 65.605469 L 26.695312 64.671875 L 27.691406 63.929688 L 27.964844 63.710938 C 28.257812 63.472656 28.378906 63.203125 28.324219 62.910156 C 28.25 62.636719 28.058594 62.5 27.746094 62.5 M 27.605469 54.9375 C 27.238281 54.773438 26.890625 54.5625 26.558594 54.304688 C 28.839844 52.855469 31.503906 51.691406 34.554688 50.8125 C 36.777344 50.171875 39.554688 49.621094 42.882812 49.164062 L 49.691406 48.53125 L 50.574219 49.492188 L 51.675781 50.675781 C 52.667969 51.390625 53.613281 51.792969 54.515625 51.886719 C 56.539062 54.761719 57.925781 57.613281 58.679688 60.4375 C 60.058594 65.277344 59.863281 70.015625 58.101562 74.652344 C 56.355469 79.289062 53.496094 82.652344 49.527344 84.742188 C 47.191406 85.953125 45.105469 86.632812 43.265625 86.777344 L 41.804688 86.777344 L 41.089844 86.695312 L 40.980469 86.695312 L 40.703125 86.917969 L 40.730469 87.164062 C 40.859375 87.347656 41.335938 87.539062 42.164062 87.742188 L 44.175781 88.097656 C 43.808594 88.261719 43.351562 88.363281 42.796875 88.402344 L 42.273438 88.429688 C 40.398438 88.429688 38.523438 87.90625 36.648438 86.859375 C 34.703125 85.761719 33.488281 84.476562 33.011719 83.011719 C 34.152344 83.636719 35.179688 83.945312 36.097656 83.945312 L 36.238281 83.945312 C 36.605469 83.929688 36.804688 83.808594 36.84375 83.589844 C 36.878906 83.386719 36.695312 83.167969 36.292969 82.929688 C 33.113281 81.167969 30.382812 78.539062 28.101562 75.039062 L 28.019531 74.957031 L 27.9375 74.984375 L 27.414062 75.039062 L 27.082031 75.039062 C 26.199219 75.039062 25.390625 74.78125 24.65625 74.269531 C 23.902344 73.734375 23.371094 73.058594 23.058594 72.234375 C 22.746094 71.480469 22.691406 70.738281 22.890625 70.003906 C 23.09375 69.253906 23.507812 68.613281 24.132812 68.082031 L 24.132812 68.054688 L 24.160156 68.054688 C 24.308594 67.816406 24.355469 67.605469 24.296875 67.421875 L 24.269531 67.230469 L 23.140625 67.640625 C 23.175781 67.496094 23.160156 67.328125 23.085938 67.144531 L 23.472656 66.457031 C 24.574219 64.570312 25.429688 63.261719 26.035156 62.527344 L 27.664062 61.179688 C 28.066406 60.867188 28.222656 60.519531 28.132812 60.132812 C 28.019531 59.878906 27.863281 59.75 27.664062 59.75 L 27.605469 59.75 L 27.414062 59.804688 C 26.753906 60.117188 25.988281 60.75 25.125 61.703125 C 24.207031 62.726562 23.390625 64.128906 22.671875 65.910156 L 22.617188 65.660156 L 22.699219 65.441406 C 23.65625 63.222656 24.59375 61.59375 25.511719 60.546875 L 27.164062 58.761719 L 27.992188 58.042969 C 28.230469 57.863281 28.316406 57.640625 28.242188 57.386719 C 28.148438 57.128906 27.957031 57 27.664062 57 L 27.578125 57 L 27.277344 57.109375 C 26.78125 57.292969 25.878906 58.191406 24.574219 59.804688 C 23.691406 61.015625 22.984375 62.316406 22.453125 63.710938 C 22.523438 61.96875 23.269531 60.300781 24.683594 58.703125 C 25.402344 57.917969 26.441406 57.0625 27.800781 56.148438 C 28.074219 55.964844 28.1875 55.746094 28.132812 55.488281 C 28.058594 55.195312 27.882812 55.011719 27.605469 54.9375 "/>
<path style=" stroke:none;fill-rule:nonzero;fill:rgb(100%,100%,100%);fill-opacity:1;" d="M 54.984375 72.011719 C 55.167969 72.011719 55.277344 72.050781 55.316406 72.121094 L 55.34375 72.371094 C 55.289062 72.738281 55.121094 72.964844 54.847656 73.058594 C 52.898438 73.917969 51.5 74.515625 50.65625 74.84375 L 48.53125 75.230469 L 47.375 75.285156 L 45.085938 75.039062 C 44.480469 74.871094 43.394531 74.46875 41.832031 73.828125 L 39.65625 72.921875 C 39.269531 72.738281 39.066406 72.554688 39.046875 72.371094 C 39.03125 72.222656 39.085938 72.085938 39.214844 71.957031 C 39.472656 71.738281 39.730469 71.628906 39.984375 71.628906 L 40.097656 71.628906 L 40.703125 71.710938 L 40.757812 71.710938 L 43.460938 72.480469 C 45.351562 72.9375 46.886719 73.175781 48.0625 73.195312 L 49.027344 73.140625 C 50.773438 73.011719 52.707031 72.65625 54.820312 72.066406 L 54.875 72.011719 L 54.984375 72.011719 "/>
<path style=" stroke:none;fill-rule:nonzero;fill:rgb(100%,100%,100%);fill-opacity:1;" d="M 71.195312 184.089844 C 71.324219 184.875 71.234375 185.710938 70.921875 186.589844 C 70.625 187.523438 70.140625 188.304688 69.457031 188.925781 C 68.722656 189.640625 67.886719 190 66.949219 190 L 66.398438 189.972656 C 64.707031 189.699219 63.070312 189.046875 61.492188 188.019531 C 59.652344 186.828125 58.542969 185.492188 58.15625 184.003906 L 60.472656 184.335938 L 61.710938 184.363281 C 64.761719 184.363281 67.511719 183.5 69.957031 181.777344 C 70.652344 182.347656 71.066406 183.117188 71.195312 184.089844 "/>
<path style=" stroke:none;fill-rule:nonzero;fill:rgb(100%,100%,100%);fill-opacity:1;" d="M 18.675781 136.601562 L 19.417969 128.601562 C 21.421875 131.550781 24.859375 133.871094 29.730469 135.558594 C 30.0625 136.730469 30.777344 137.507812 31.878906 137.894531 L 34.113281 138.445312 L 35.601562 138.773438 L 37.0625 139.023438 C 37.578125 139.023438 37.984375 138.867188 38.277344 138.554688 C 38.664062 138.1875 38.929688 137.738281 39.078125 137.207031 L 41.640625 137.261719 C 47.171875 137.261719 51.914062 136.519531 55.867188 135.035156 L 56.058594 137.097656 C 56.316406 138.34375 57.097656 138.964844 58.402344 138.964844 C 59.25 138.964844 60.332031 138.691406 61.65625 138.140625 C 62.539062 143.640625 63.78125 149.625 65.378906 156.097656 C 65.800781 157.839844 66.546875 160.53125 67.613281 164.179688 C 68.804688 168.324219 69.605469 171.300781 70.011719 173.117188 L 70.203125 173.722656 C 70.9375 176.507812 71.050781 178.230469 70.535156 178.890625 C 70.148438 179.441406 69.210938 180.082031 67.722656 180.816406 L 67.5 180.925781 C 65.882812 181.75 63.992188 182.238281 61.820312 182.382812 L 60.855469 182.410156 C 58.171875 182.410156 56.207031 181.953125 54.957031 181.035156 C 54.351562 180.597656 53.515625 179.46875 52.449219 177.652344 L 52.421875 177.570312 C 51.28125 175.648438 50.207031 173.363281 49.195312 170.726562 C 48.53125 168.929688 47.722656 166.4375 46.769531 163.246094 C 45.554688 159.214844 44.371094 155.75 43.210938 152.851562 C 41.59375 148.894531 39.847656 145.429688 37.972656 142.457031 L 37.613281 141.964844 C 37.523438 141.816406 37.421875 141.742188 37.3125 141.742188 L 37.089844 141.910156 L 37.0625 142.652344 L 37.3125 143.394531 C 38.46875 145.042969 39.582031 146.976562 40.648438 149.195312 C 39.949219 152.238281 39.574219 155.722656 39.515625 159.644531 C 39.460938 161.933594 39.535156 165.4375 39.738281 170.148438 L 40.070312 178.175781 L 40.042969 178.175781 L 39.65625 178.230469 L 39.1875 178.367188 L 35.464844 179 L 29.785156 179.523438 L 26.753906 179.25 C 26.109375 179.15625 25.410156 178.929688 24.65625 178.5625 L 24.132812 178.203125 C 22.148438 169.957031 20.722656 163.558594 19.859375 159.011719 C 18.664062 152.523438 18.261719 145.445312 18.648438 137.785156 L 18.757812 137.648438 C 18.902344 137.445312 18.875 137.097656 18.675781 136.601562 "/>
<path style=" stroke:none;fill-rule:nonzero;fill:rgb(100%,100%,100%);fill-opacity:1;" d="M 67.171875 127.089844 L 66.976562 126.429688 C 68.890625 127.273438 70.984375 127.941406 73.261719 128.4375 C 75.523438 128.894531 77.792969 129.121094 80.074219 129.121094 L 82.363281 129.066406 C 81.828125 130.460938 80.882812 131.6875 79.523438 132.753906 C 78.660156 133.429688 77.234375 134.253906 75.25 135.226562 L 74.835938 135.476562 C 72.90625 136.464844 71.003906 137.628906 69.128906 138.964844 C 66.886719 140.597656 65.027344 142.238281 63.558594 143.886719 L 62.511719 137.894531 L 62.484375 137.757812 L 62.566406 137.730469 C 64.074219 137.015625 65.074219 135.769531 65.570312 133.988281 C 65.902344 132.707031 66.003906 130.910156 65.875 128.601562 L 67.117188 127.664062 C 67.226562 127.574219 67.242188 127.382812 67.171875 127.089844 "/>
<path style=" stroke:none;fill-rule:nonzero;fill:rgb(100%,100%,100%);fill-opacity:1;" d="M 27.414062 184.914062 C 25.152344 185.535156 22.882812 185.847656 20.605469 185.847656 L 18.867188 185.792969 C 17.855469 185.71875 16.855469 185.464844 15.863281 185.023438 L 15.640625 184.96875 C 17.128906 183.261719 19.933594 181.648438 24.050781 180.128906 L 24.1875 180.019531 L 25.347656 180.707031 C 26.726562 181.3125 28.425781 181.613281 30.445312 181.613281 C 32.191406 181.613281 34.832031 181.265625 38.359375 180.570312 L 39.132812 180.429688 C 39.078125 181.382812 38.726562 182.035156 38.082031 182.382812 C 37.292969 182.769531 36.382812 183.042969 35.355469 183.207031 L 35.132812 183.261719 C 34.839844 183.261719 34.546875 183.050781 34.25 182.632812 L 33.949219 182.300781 L 33.644531 182.164062 L 33.617188 182.164062 L 33.589844 182.21875 C 31.75 183.375 29.691406 184.273438 27.414062 184.914062 "/>
<path style=" stroke:none;fill-rule:nonzero;fill:rgb(100%,100%,100%);fill-opacity:1;" d="M 13.378906 135.007812 C 13.289062 134.859375 13.28125 134.6875 13.351562 134.484375 C 13.609375 133.84375 14.4375 133.414062 15.835938 133.191406 C 16.035156 133.191406 16.128906 133 16.109375 132.613281 C 16.089844 132.339844 16.019531 132.054688 15.890625 131.761719 C 15.761719 131.414062 15.585938 131.238281 15.367188 131.238281 C 14.023438 131.183594 12.882812 130.542969 11.945312 129.316406 C 11.210938 128.308594 10.945312 127.273438 11.148438 126.207031 C 11.9375 125 12.894531 124 14.015625 123.210938 C 15.339844 122.292969 16.671875 121.835938 18.011719 121.835938 L 19.144531 121.917969 L 19.058594 122.828125 C 18.398438 127.464844 17.957031 131.828125 17.738281 135.914062 L 17.183594 135.914062 L 14.898438 135.695312 C 14.070312 135.546875 13.566406 135.320312 13.378906 135.007812 "/>
<path style=" stroke:none;fill-rule:nonzero;fill:rgb(100%,100%,100%);fill-opacity:1;" d="M 24.382812 86.394531 L 22.835938 89.71875 C 22.195312 90.949219 21.476562 91.992188 20.6875 92.855469 L 20.605469 93.269531 L 20.960938 93.925781 L 21.402344 94.339844 C 22.066406 94.597656 22.679688 94.726562 23.25 94.726562 C 24.316406 94.726562 25.410156 94.25 26.53125 93.296875 L 25.320312 95.605469 C 24.050781 98.171875 23.011719 100.964844 22.203125 103.992188 C 21.488281 106.777344 20.824219 110.242188 20.21875 114.386719 L 19.527344 112.269531 C 18.425781 109.40625 16.992188 107.152344 15.226562 105.503906 L 15.035156 105.421875 C 14.941406 105.421875 14.859375 105.476562 14.785156 105.585938 C 14.714844 105.769531 14.714844 106.0625 14.785156 106.464844 C 14.859375 106.851562 14.960938 107.097656 15.089844 107.207031 C 16.101562 108.144531 17.074219 109.492188 18.011719 111.25 C 18.949219 112.917969 19.554688 114.851562 19.832031 117.050781 L 19.832031 117.191406 L 19.417969 120.023438 L 19.390625 120.160156 C 19.300781 120.105469 19.207031 120.078125 19.117188 120.078125 L 17.683594 119.9375 L 16.800781 119.996094 C 14.410156 120.195312 12.296875 121.625 10.457031 124.285156 C 7.039062 121.074219 4.328125 116.941406 2.324219 111.882812 C 1.847656 110.691406 1.433594 109.453125 1.085938 108.171875 L 1 107.867188 C 1.113281 107.757812 1.230469 107.382812 1.359375 106.742188 C 1.5625 106.0625 1.910156 105.210938 2.40625 104.183594 C 4.464844 99.894531 7.839844 95.90625 12.527344 92.222656 C 16.074219 89.417969 20.273438 86.878906 25.125 84.605469 L 24.382812 86.394531 "/>
<path style=" stroke:none;fill-rule:nonzero;fill:rgb(100%,100%,100%);fill-opacity:1;" d="M 57.246094 49.300781 L 56.804688 49.933594 C 56.417969 50.375 55.941406 50.601562 55.371094 50.621094 L 55.175781 50.621094 C 54.351562 50.621094 53.488281 50.300781 52.585938 49.660156 L 51.539062 48.53125 L 51.980469 48.503906 L 52.171875 48.503906 C 54.582031 48.578125 56.269531 48.84375 57.246094 49.300781 "/>
<path style=" stroke:none;fill-rule:nonzero;fill:rgb(100%,100%,100%);fill-opacity:1;" d="M 35.464844 99.152344 L 35.300781 99.507812 C 34.453125 101.269531 34.03125 103.515625 34.03125 106.246094 L 34.058594 107.839844 C 34.09375 109.253906 34.078125 110.304688 34.003906 111.003906 C 33.910156 112.140625 33.664062 113.222656 33.257812 114.246094 C 32.890625 115.21875 32.660156 115.960938 32.570312 116.476562 C 32.460938 117.28125 32.503906 118.058594 32.707031 118.8125 L 31.824219 118.730469 C 31.125 118.730469 30.628906 118.886719 30.335938 119.195312 C 29.785156 119.726562 29.445312 120.535156 29.316406 121.617188 C 25.695312 120.113281 22.964844 118.363281 21.128906 116.363281 C 21.769531 112.074219 22.394531 108.664062 23.003906 106.136719 C 23.71875 103.054688 24.878906 99.914062 26.476562 96.703125 L 27.359375 95 C 28.351562 93.074219 28.996094 91.71875 29.289062 90.929688 L 29.289062 90.601562 L 29.425781 90.492188 C 30.125 89.867188 30.769531 89.554688 31.355469 89.554688 C 32.589844 89.554688 33.652344 91.105469 34.554688 94.203125 C 35.160156 96.273438 35.464844 97.921875 35.464844 99.152344 "/>
<path style=" stroke:none;fill-rule:nonzero;fill:rgb(100%,100%,100%);fill-opacity:1;" d="M 51.8125 90.492188 C 51.117188 89.425781 50.492188 88.675781 49.9375 88.234375 L 48.863281 87.660156 C 49.304688 87.164062 49.664062 86.59375 49.9375 85.953125 C 52.347656 84.925781 54.453125 83.425781 56.253906 81.445312 C 56.824219 82.121094 57.273438 82.964844 57.605469 83.972656 L 58.210938 86.917969 C 58.523438 88.949219 58.917969 90.417969 59.394531 91.316406 C 60.09375 92.691406 60.855469 93.957031 61.683594 95.109375 L 61.132812 95.136719 C 59.019531 95.136719 56.75 94.476562 54.324219 93.15625 C 53.789062 92.882812 53.300781 92.488281 52.863281 91.976562 L 51.8125 90.492188 "/>
<path style=" stroke:none;fill-rule:nonzero;fill:rgb(100%,100%,100%);fill-opacity:1;" d="M 113.269531 65.578125 L 113.351562 65.800781 L 113.433594 65.9375 C 114.023438 67.054688 114.398438 68.585938 114.5625 70.527344 C 114.675781 71.757812 114.5625 72.910156 114.234375 73.992188 C 113.847656 75.203125 113.25 76.074219 112.441406 76.605469 C 112.753906 74.773438 112.660156 73.03125 112.164062 71.378906 C 111.578125 69.527344 110.539062 68.171875 109.050781 67.3125 L 108.085938 66.953125 C 108.472656 65.082031 109.425781 64.148438 110.953125 64.148438 L 111.144531 64.203125 C 112.007812 64.242188 112.71875 64.699219 113.269531 65.578125 "/>
<path style=" stroke:none;fill-rule:nonzero;fill:rgb(100%,100%,100%);fill-opacity:1;" d="M 32.488281 88.097656 L 32.460938 88.015625 C 31.722656 87.15625 31.28125 85.679688 31.136719 83.589844 C 31.945312 85.625 33.480469 87.273438 35.742188 88.539062 C 37.855469 89.730469 40.078125 90.324219 42.414062 90.324219 L 43.101562 90.269531 C 41.851562 91.535156 40.683594 92.984375 39.601562 94.613281 C 39.25 95.164062 38.589844 95.878906 37.613281 96.761719 L 36.429688 97.859375 C 36.226562 96.246094 35.859375 94.632812 35.328125 93.019531 C 34.664062 91.152344 33.867188 89.636719 32.929688 88.484375 L 32.488281 88.097656 "/>
<path style=" stroke:none;fill-rule:nonzero;fill:rgb(100%,100%,100%);fill-opacity:1;" d="M 29.261719 81.085938 C 29.464844 83.652344 30.042969 85.863281 31 87.714844 C 30.246094 87.804688 29.195312 88.429688 27.855469 89.582031 L 26.640625 90.765625 L 24.792969 92.441406 C 24.097656 92.917969 23.371094 93.15625 22.617188 93.15625 L 22.589844 93.15625 C 23.875 91.472656 24.96875 89.273438 25.871094 86.558594 C 26.714844 84.195312 27.847656 82.371094 29.261719 81.085938 "/>
<path style=" stroke:none;fill-rule:nonzero;fill:rgb(100%,100%,100%);fill-opacity:1;" d="M 115.03125 67.257812 L 114.207031 65.523438 L 115.472656 64.535156 L 115.472656 66.128906 C 115.472656 66.515625 115.328125 66.890625 115.03125 67.257812 "/>
<path style=" stroke:none;fill-rule:nonzero;fill:rgb(100%,100%,100%);fill-opacity:1;" d="M 95.097656 23.976562 C 95.027344 24.234375 95.109375 24.453125 95.347656 24.636719 L 95.980469 25.214844 C 96.367188 25.472656 96.828125 25.597656 97.359375 25.597656 L 97.582031 25.597656 L 98.160156 25.296875 C 98.324219 25.148438 98.417969 24.957031 98.433594 24.71875 C 98.433594 24.480469 98.363281 24.28125 98.214844 24.113281 L 97.582031 23.839844 L 95.789062 23.648438 C 95.402344 23.664062 95.171875 23.773438 95.097656 23.976562 M 92.507812 18.449219 L 92.507812 18.53125 L 91.984375 21.308594 L 92.617188 21.476562 L 92.644531 21.476562 C 92.882812 21.476562 93.050781 21.347656 93.140625 21.089844 C 93.507812 21.511719 93.996094 21.921875 94.601562 22.328125 C 95.394531 22.859375 96.164062 23.214844 96.917969 23.398438 L 97.882812 23.507812 L 98.351562 23.507812 C 99.546875 23.417969 100.890625 23.03125 102.378906 22.355469 L 102.707031 23.179688 C 102.820312 23.492188 103.011719 23.648438 103.289062 23.648438 L 103.316406 23.648438 C 103.535156 23.648438 103.710938 23.507812 103.839844 23.234375 L 103.839844 23.125 L 102.460938 19.054688 L 102.351562 19.054688 L 101.964844 18.945312 L 101.9375 18.945312 L 101.578125 19.164062 L 101.46875 19.21875 L 101.441406 19.300781 L 101.441406 19.359375 L 101.550781 20.292969 L 101.441406 20.375 L 101.414062 20.375 L 97.058594 20.621094 C 96.488281 20.550781 95.734375 20.3125 94.796875 19.90625 L 93.445312 19.359375 L 93.417969 19.328125 L 93.527344 18.917969 L 93.554688 18.835938 L 93.527344 18.808594 L 93.445312 18.476562 L 93.417969 18.449219 L 93.417969 18.421875 L 93.003906 18.257812 L 92.867188 18.257812 L 92.839844 18.285156 L 92.589844 18.394531 L 92.507812 18.449219 M 95.320312 11.4375 L 95.265625 11.4375 C 94.972656 11.457031 94.695312 11.613281 94.4375 11.90625 C 94.179688 12.199219 94.015625 12.566406 93.941406 13.003906 C 93.832031 13.628906 93.914062 14.132812 94.191406 14.519531 C 94.375 14.757812 94.574219 14.882812 94.796875 14.902344 L 94.960938 14.902344 C 95.238281 14.882812 95.496094 14.738281 95.734375 14.464844 C 95.9375 14.152344 96.074219 13.777344 96.148438 13.335938 C 96.21875 12.859375 96.183594 12.445312 96.035156 12.097656 C 95.90625 11.714844 95.667969 11.492188 95.320312 11.4375 M 96.644531 8.304688 L 96.203125 8.359375 L 94.574219 9.128906 C 94.28125 9.277344 94.152344 9.457031 94.191406 9.679688 C 94.191406 9.917969 94.363281 10.0625 94.714844 10.117188 L 96.449219 10.257812 L 96.503906 10.257812 C 96.726562 10.21875 96.910156 10.128906 97.058594 9.980469 C 97.1875 9.816406 97.25 9.613281 97.25 9.375 L 97.222656 8.992188 C 97.222656 8.570312 97.03125 8.339844 96.644531 8.304688 M 109.324219 15.78125 C 109.253906 15.984375 109.308594 16.160156 109.492188 16.304688 L 109.683594 16.441406 L 110.207031 16.9375 L 110.621094 17.488281 C 110.84375 17.855469 111.015625 18.046875 111.144531 18.066406 L 111.171875 18.066406 C 111.285156 18.066406 111.367188 18 111.421875 17.871094 C 111.496094 17.707031 111.441406 17.449219 111.253906 17.101562 L 110.816406 16.414062 C 110.519531 15.992188 110.207031 15.699219 109.878906 15.535156 L 109.738281 15.507812 L 109.710938 15.507812 C 109.507812 15.507812 109.382812 15.601562 109.324219 15.78125 M 109.601562 17.019531 L 109.546875 17.019531 C 109.363281 17.019531 109.234375 17.113281 109.160156 17.296875 C 109.105469 17.515625 109.152344 17.671875 109.296875 17.761719 C 109.574219 18.039062 109.710938 18.25 109.710938 18.394531 C 109.65625 18.613281 109.777344 18.753906 110.070312 18.808594 L 110.125 18.808594 C 110.382812 18.808594 110.511719 18.652344 110.511719 18.339844 C 110.53125 18.136719 110.445312 17.890625 110.261719 17.597656 L 109.765625 17.101562 L 109.601562 17.019531 M 99.757812 12.042969 L 99.675781 12.042969 C 99.328125 12.042969 99.058594 12.191406 98.875 12.484375 L 98.820312 12.539062 L 97.882812 13.96875 C 97.40625 14.589844 96.800781 15.207031 96.0625 15.808594 C 95.75 16.140625 95.695312 16.496094 95.898438 16.882812 L 96.644531 18.339844 C 96.863281 18.652344 97.128906 18.816406 97.441406 18.835938 L 97.691406 18.835938 L 98.023438 18.78125 L 98.492188 18.449219 C 98.582031 18.265625 98.5625 18.054688 98.433594 17.816406 L 97.855469 16.746094 C 97.800781 16.652344 97.800781 16.5625 97.855469 16.46875 L 98.902344 14.984375 L 99.980469 13.003906 C 100.089844 12.710938 100.097656 12.492188 100.007812 12.347656 L 99.980469 12.234375 L 99.980469 12.207031 L 99.925781 12.152344 L 99.757812 12.042969 M 104.363281 12.8125 L 103.757812 12.429688 C 103.425781 12.464844 103.140625 12.621094 102.902344 12.894531 C 102.644531 13.1875 102.488281 13.554688 102.433594 13.996094 C 102.339844 14.492188 102.367188 14.921875 102.515625 15.289062 C 102.679688 15.65625 102.929688 15.867188 103.261719 15.921875 L 103.425781 15.921875 C 103.703125 15.902344 103.957031 15.746094 104.199219 15.453125 C 104.398438 15.160156 104.539062 14.792969 104.609375 14.351562 C 104.738281 13.730469 104.65625 13.214844 104.363281 12.8125 M 104.996094 9.074219 L 104.554688 8.882812 C 104.296875 8.882812 104.078125 8.972656 103.894531 9.15625 C 103.324219 9.707031 103.113281 10.128906 103.261719 10.421875 L 103.757812 10.804688 L 104.472656 11.191406 L 105.023438 11.632812 C 105.464844 11.980469 105.789062 12.171875 105.988281 12.207031 L 106.210938 12.207031 L 106.265625 12.125 L 106.402344 11.988281 L 106.402344 11.960938 C 106.570312 11.539062 106.429688 10.972656 105.988281 10.257812 L 104.996094 9.074219 M 106.15625 7.78125 C 106.414062 8.148438 106.753906 8.339844 107.175781 8.359375 L 107.394531 8.414062 L 108.304688 8.277344 L 110.070312 8.082031 C 110.105469 8.121094 110.152344 8.140625 110.207031 8.140625 C 110.464844 8.175781 110.703125 8.320312 110.925781 8.578125 C 111.183594 8.835938 111.320312 9.109375 111.339844 9.402344 C 111.46875 10.136719 111.015625 10.722656 109.988281 11.164062 C 109.785156 11.21875 109.664062 11.328125 109.628906 11.492188 C 109.59375 11.675781 109.664062 11.839844 109.851562 11.988281 L 111.558594 13.527344 C 112.164062 14.261719 112.523438 15.066406 112.632812 15.949219 C 112.433594 15.378906 112.121094 14.757812 111.695312 14.078125 C 111 13.105469 110.503906 12.546875 110.207031 12.402344 L 109.988281 12.347656 L 109.933594 12.347656 C 109.730469 12.347656 109.582031 12.417969 109.492188 12.566406 C 109.453125 12.785156 109.519531 12.941406 109.683594 13.035156 L 111.007812 14.574219 C 111.394531 15.050781 111.742188 15.636719 112.054688 16.332031 L 111.3125 15.152344 C 110.796875 14.527344 110.363281 14.132812 110.015625 13.96875 L 109.878906 13.941406 L 109.851562 13.941406 L 109.492188 14.1875 C 109.398438 14.445312 109.492188 14.675781 109.765625 14.875 L 110.621094 15.699219 C 111.007812 16.214844 111.46875 16.992188 112 18.039062 L 112.191406 18.421875 L 112.164062 18.585938 L 111.558594 18.285156 L 111.476562 18.476562 L 111.558594 18.917969 L 111.585938 18.945312 L 111.585938 18.972656 C 112.285156 19.632812 112.460938 20.382812 112.109375 21.226562 C 111.925781 21.703125 111.625 22.078125 111.199219 22.355469 C 110.796875 22.628906 110.347656 22.765625 109.851562 22.765625 L 109.574219 22.765625 L 109.269531 22.710938 L 109.160156 22.65625 L 109.078125 22.765625 C 107.9375 24.34375 106.640625 25.664062 105.191406 26.726562 C 103.703125 27.789062 102.238281 28.441406 100.804688 28.679688 L 99.980469 28.761719 C 98.746094 28.761719 97.597656 28.421875 96.53125 27.742188 C 94.328125 26.441406 92.785156 24.433594 91.902344 21.722656 C 91 18.992188 91.019531 16.257812 91.957031 13.527344 C 92.488281 11.898438 93.371094 10.300781 94.601562 8.742188 C 95.097656 8.726562 95.660156 8.503906 96.285156 8.082031 L 96.945312 7.453125 C 97.9375 6.460938 98.554688 5.921875 98.792969 5.828125 L 99.015625 5.800781 L 99.097656 5.800781 C 99.484375 5.875 99.867188 6.058594 100.253906 6.351562 L 100.367188 6.433594 C 100.566406 6.5625 100.835938 6.652344 101.164062 6.710938 L 101.441406 6.738281 C 101.769531 6.738281 102.296875 6.609375 103.011719 6.351562 L 103.703125 6.214844 L 103.949219 6.242188 C 104.777344 6.316406 105.511719 6.828125 106.15625 7.78125 "/>
<path style=" stroke:none;fill-rule:nonzero;fill:rgb(100%,100%,100%);fill-opacity:1;" d="M 73.234375 14.875 C 73.417969 14.636719 73.640625 14.519531 73.898438 14.519531 C 76.691406 14.554688 79.550781 15.277344 82.472656 16.691406 L 82.582031 16.71875 L 82.5 16.828125 C 82.296875 17.03125 82.039062 17.128906 81.726562 17.128906 L 81.589844 17.101562 C 78.871094 15.800781 76.148438 15.132812 73.429688 15.09375 L 73.207031 15.011719 L 73.234375 14.875 "/>
<path style=" stroke:none;fill-rule:nonzero;fill:rgb(100%,100%,100%);fill-opacity:1;" d="M 78.171875 6.269531 L 78.308594 6.269531 L 79.21875 6.710938 C 80.136719 7.113281 80.773438 7.433594 81.121094 7.671875 C 81.765625 8.09375 82.242188 8.570312 82.554688 9.101562 L 82.308594 9.320312 L 81.78125 9.402344 L 81.535156 9.347656 C 81.222656 8.816406 80.746094 8.339844 80.101562 7.917969 L 78.28125 7.011719 C 77.988281 6.863281 77.683594 6.726562 77.371094 6.597656 L 77.703125 6.378906 L 78.171875 6.269531 "/>
<path style=" stroke:none;fill-rule:nonzero;fill:rgb(100%,100%,100%);fill-opacity:1;" d="M 86.664062 5.964844 L 86.414062 5.910156 L 82.222656 1.703125 L 82.472656 1.511719 L 82.996094 1.375 L 83.246094 1.457031 L 87.433594 5.609375 L 87.1875 5.828125 L 86.664062 5.964844 "/>
<path style=" stroke:none;fill-rule:nonzero;fill:rgb(100%,100%,100%);fill-opacity:1;" d="M 122.199219 22.246094 C 123.285156 22.445312 124.269531 22.832031 125.152344 23.398438 L 125.207031 23.425781 L 124.902344 23.648438 L 124.378906 23.730469 L 124.242188 23.703125 C 122.789062 22.804688 120.757812 22.355469 118.148438 22.355469 L 117.984375 22.328125 C 118.203125 22.089844 118.441406 21.96875 118.699219 21.96875 L 122.199219 22.246094 "/>
<path style=" stroke:none;fill-rule:nonzero;fill:rgb(100%,100%,100%);fill-opacity:1;" d="M 125.648438 15.976562 L 124.1875 15.976562 C 122.769531 15.976562 121.648438 16.148438 120.824219 16.496094 L 120.410156 16.609375 C 121.675781 16.078125 123.605469 15.808594 126.199219 15.808594 L 125.648438 15.976562 "/>
<path style=" stroke:none;fill-rule:nonzero;fill:rgb(100%,100%,100%);fill-opacity:1;" d="M 127.910156 6.050781 C 127.910156 6.140625 127.78125 6.203125 127.523438 6.242188 C 125.628906 6.753906 122.9375 7.882812 119.445312 9.625 L 118.949219 9.679688 L 118.753906 9.679688 L 118.808594 9.652344 C 122.46875 7.855469 125.351562 6.664062 127.46875 6.078125 L 127.742188 5.996094 L 127.910156 6.050781 "/>
</g>
</svg>
