<?xml version="1.0" encoding="UTF-8"?>
<svg xmlns="http://www.w3.org/2000/svg" xmlns:xlink="http://www.w3.org/1999/xlink" width="128pt" height="720pt" viewBox="0 0 128 720" version="1.1">
<g id="surface1">
<path style=" stroke:none;fill-rule:nonzero;fill:rgb(45.098039%,45.490196%,46.666667%);fill-opacity:1;" d="M 99.683594 713.949219 L 28.507812 713.949219 L 28.507812 676.722656 L 99.683594 676.722656 L 99.683594 713.949219 M 28.507812 7.214844 L 99.683594 7.214844 L 99.683594 44.632812 L 28.507812 44.632812 L 28.507812 7.214844 "/>
<path style=" stroke:none;fill-rule:nonzero;fill:rgb(59.215686%,60%,60.784314%);fill-opacity:1;" d="M 99.683594 44.632812 L 99.683594 676.722656 L 28.507812 676.722656 L 28.507812 44.632812 L 99.683594 44.632812 M 42.085938 94.464844 L 41.695312 98.34375 C 41.695312 104.546875 43.894531 109.910156 48.289062 114.4375 C 52.6875 118.832031 58.050781 121.027344 64.386719 121.027344 C 70.59375 121.027344 75.960938 118.832031 80.484375 114.4375 C 84.878906 109.910156 87.078125 104.546875 87.078125 98.34375 L 86.886719 94.464844 L 87.078125 90.585938 C 87.078125 84.253906 84.878906 78.890625 80.484375 74.492188 C 75.960938 70.097656 70.59375 67.902344 64.386719 67.902344 C 58.050781 67.902344 52.6875 70.097656 48.289062 74.492188 C 43.894531 78.890625 41.695312 84.253906 41.695312 90.585938 L 42.085938 94.464844 M 86.886719 164.265625 L 87.078125 160.386719 C 87.078125 154.054688 84.878906 148.691406 80.484375 144.296875 C 75.960938 139.898438 70.59375 137.703125 64.386719 137.703125 C 58.050781 137.703125 52.6875 139.898438 48.289062 144.296875 C 43.894531 148.691406 41.695312 154.054688 41.695312 160.386719 L 42.085938 164.265625 L 41.695312 168.144531 C 41.695312 174.347656 43.894531 179.710938 48.289062 184.238281 C 52.6875 188.632812 58.050781 190.828125 64.386719 190.828125 C 70.59375 190.828125 75.960938 188.632812 80.484375 184.238281 C 84.878906 179.710938 87.078125 174.347656 87.078125 168.144531 L 86.886719 164.265625 M 86.886719 234.066406 L 87.078125 230.1875 C 87.078125 223.855469 84.878906 218.492188 80.484375 214.097656 C 75.960938 209.703125 70.59375 207.503906 64.386719 207.503906 C 58.050781 207.503906 52.6875 209.703125 48.289062 214.097656 C 43.894531 218.492188 41.695312 223.855469 41.695312 230.1875 L 42.085938 234.066406 L 41.695312 237.945312 C 41.695312 244.148438 43.894531 249.515625 48.289062 254.039062 C 52.6875 258.433594 58.050781 260.628906 64.386719 260.628906 C 70.59375 260.628906 75.960938 258.433594 80.484375 254.039062 C 84.878906 249.515625 87.078125 244.148438 87.078125 237.945312 L 86.886719 234.066406 M 86.886719 484.769531 L 87.078125 480.890625 C 87.078125 474.6875 84.878906 469.386719 80.484375 464.992188 C 75.960938 460.597656 70.59375 458.398438 64.386719 458.398438 C 58.050781 458.398438 52.6875 460.597656 48.289062 464.992188 C 43.894531 469.386719 41.695312 474.6875 41.695312 480.890625 L 42.085938 484.769531 L 41.695312 488.648438 C 41.695312 494.980469 43.894531 500.34375 48.289062 504.742188 C 52.6875 509.136719 58.050781 511.332031 64.386719 511.332031 C 70.59375 511.332031 75.960938 509.136719 80.484375 504.742188 C 84.878906 500.34375 87.078125 494.980469 87.078125 488.648438 L 86.886719 484.769531 M 86.886719 554.570312 L 87.078125 550.691406 C 87.078125 544.488281 84.878906 539.1875 80.484375 534.792969 C 75.960938 530.398438 70.59375 528.203125 64.386719 528.203125 C 58.050781 528.203125 52.6875 530.398438 48.289062 534.792969 C 43.894531 539.1875 41.695312 544.488281 41.695312 550.691406 L 42.085938 554.570312 L 41.695312 558.449219 C 41.695312 564.78125 43.894531 570.148438 48.289062 574.542969 C 52.6875 578.9375 58.050781 581.132812 64.386719 581.132812 C 70.59375 581.132812 75.960938 578.9375 80.484375 574.542969 C 84.878906 570.148438 87.078125 564.78125 87.078125 558.449219 L 86.886719 554.570312 M 86.886719 624.371094 L 87.078125 620.492188 C 87.078125 614.289062 84.878906 608.988281 80.484375 604.59375 C 75.960938 600.199219 70.59375 598.003906 64.386719 598.003906 C 58.050781 598.003906 52.6875 600.199219 48.289062 604.59375 C 43.894531 608.988281 41.695312 614.289062 41.695312 620.492188 L 42.085938 624.371094 L 41.695312 628.25 C 41.695312 634.582031 43.894531 639.949219 48.289062 644.34375 C 52.6875 648.738281 58.050781 650.933594 64.386719 650.933594 C 70.59375 650.933594 75.960938 648.738281 80.484375 644.34375 C 84.878906 639.949219 87.078125 634.582031 87.078125 628.25 L 86.886719 624.371094 M 68.265625 457.042969 L 68.265625 263.152344 L 60.507812 263.152344 L 60.507812 457.042969 L 68.265625 457.042969 "/>
<path style=" stroke:none;fill-rule:nonzero;fill:rgb(37.647059%,38.039216%,38.823529%);fill-opacity:1;" d="M 107.441406 0.816406 L 120.242188 0.816406 L 120.242188 719.183594 L 107.441406 719.183594 L 107.441406 0.816406 M 20.75 719.183594 L 7.757812 719.183594 L 7.757812 0.816406 L 20.75 0.816406 L 20.75 719.183594 M 42.085938 94.464844 L 41.695312 90.585938 C 41.695312 84.253906 43.894531 78.890625 48.289062 74.492188 C 52.6875 70.097656 58.050781 67.902344 64.386719 67.902344 C 70.59375 67.902344 75.960938 70.097656 80.484375 74.492188 C 84.878906 78.890625 87.078125 84.253906 87.078125 90.585938 L 86.886719 94.464844 C 86.109375 98.988281 83.976562 103.0625 80.484375 106.679688 C 75.960938 111.074219 70.59375 113.273438 64.386719 113.273438 C 58.050781 113.273438 52.6875 111.074219 48.289062 106.679688 C 44.800781 103.0625 42.730469 98.988281 42.085938 94.464844 M 42.085938 164.265625 L 41.695312 160.386719 C 41.695312 154.054688 43.894531 148.691406 48.289062 144.296875 C 52.6875 139.898438 58.050781 137.703125 64.386719 137.703125 C 70.59375 137.703125 75.960938 139.898438 80.484375 144.296875 C 84.878906 148.691406 87.078125 154.054688 87.078125 160.386719 L 86.886719 164.265625 C 86.109375 168.789062 83.976562 172.863281 80.484375 176.480469 C 75.960938 180.875 70.59375 183.074219 64.386719 183.074219 C 58.050781 183.074219 52.6875 180.875 48.289062 176.480469 C 44.800781 172.863281 42.730469 168.789062 42.085938 164.265625 M 42.085938 234.066406 L 41.695312 230.1875 C 41.695312 223.855469 43.894531 218.492188 48.289062 214.097656 C 52.6875 209.703125 58.050781 207.503906 64.386719 207.503906 C 70.59375 207.503906 75.960938 209.703125 80.484375 214.097656 C 84.878906 218.492188 87.078125 223.855469 87.078125 230.1875 L 86.886719 234.066406 C 86.109375 238.589844 83.976562 242.664062 80.484375 246.28125 C 75.960938 250.675781 70.59375 252.875 64.386719 252.875 C 58.050781 252.875 52.6875 250.675781 48.289062 246.28125 C 44.800781 242.664062 42.730469 238.589844 42.085938 234.066406 M 42.085938 484.769531 L 41.695312 480.890625 C 41.695312 474.6875 43.894531 469.386719 48.289062 464.992188 C 52.6875 460.597656 58.050781 458.398438 64.386719 458.398438 C 70.59375 458.398438 75.960938 460.597656 80.484375 464.992188 C 84.878906 469.386719 87.078125 474.6875 87.078125 480.890625 L 86.886719 484.769531 C 86.109375 489.421875 83.976562 493.496094 80.484375 496.984375 C 75.960938 501.378906 70.59375 503.578125 64.386719 503.578125 C 58.050781 503.578125 52.6875 501.378906 48.289062 496.984375 C 44.800781 493.496094 42.730469 489.421875 42.085938 484.769531 M 42.085938 554.570312 L 41.695312 550.691406 C 41.695312 544.488281 43.894531 539.1875 48.289062 534.792969 C 52.6875 530.398438 58.050781 528.203125 64.386719 528.203125 C 70.59375 528.203125 75.960938 530.398438 80.484375 534.792969 C 84.878906 539.1875 87.078125 544.488281 87.078125 550.691406 L 86.886719 554.570312 C 86.109375 559.222656 83.976562 563.296875 80.484375 566.785156 C 75.960938 571.179688 70.59375 573.378906 64.386719 573.378906 C 58.050781 573.378906 52.6875 571.179688 48.289062 566.785156 C 44.800781 563.296875 42.730469 559.222656 42.085938 554.570312 M 42.085938 624.371094 L 41.695312 620.492188 C 41.695312 614.289062 43.894531 608.988281 48.289062 604.59375 C 52.6875 600.199219 58.050781 598.003906 64.386719 598.003906 C 70.59375 598.003906 75.960938 600.199219 80.484375 604.59375 C 84.878906 608.988281 87.078125 614.289062 87.078125 620.492188 L 86.886719 624.371094 C 86.109375 629.023438 83.976562 633.097656 80.484375 636.585938 C 75.960938 640.980469 70.59375 643.179688 64.386719 643.179688 C 58.050781 643.179688 52.6875 640.980469 48.289062 636.585938 C 44.800781 633.097656 42.730469 629.023438 42.085938 624.371094 "/>
<path style=" stroke:none;fill-rule:nonzero;fill:rgb(29.803922%,29.803922%,30.196078%);fill-opacity:1;" d="M 107.441406 719.183594 L 99.683594 719.183594 L 99.683594 0.816406 L 107.441406 0.816406 L 107.441406 719.183594 M 28.507812 713.949219 L 28.507812 719.183594 L 20.75 719.183594 L 20.75 0.816406 L 28.507812 0.816406 L 28.507812 713.949219 M 86.886719 94.464844 L 87.078125 98.34375 C 87.078125 104.546875 84.878906 109.910156 80.484375 114.4375 C 75.960938 118.832031 70.59375 121.027344 64.386719 121.027344 C 58.050781 121.027344 52.6875 118.832031 48.289062 114.4375 C 43.894531 109.910156 41.695312 104.546875 41.695312 98.34375 L 42.085938 94.464844 C 42.730469 98.988281 44.800781 103.0625 48.289062 106.679688 C 52.6875 111.074219 58.050781 113.273438 64.386719 113.273438 C 70.59375 113.273438 75.960938 111.074219 80.484375 106.679688 C 83.976562 103.0625 86.109375 98.988281 86.886719 94.464844 M 86.886719 164.265625 L 87.078125 168.144531 C 87.078125 174.347656 84.878906 179.710938 80.484375 184.238281 C 75.960938 188.632812 70.59375 190.828125 64.386719 190.828125 C 58.050781 190.828125 52.6875 188.632812 48.289062 184.238281 C 43.894531 179.710938 41.695312 174.347656 41.695312 168.144531 L 42.085938 164.265625 C 42.730469 168.789062 44.800781 172.863281 48.289062 176.480469 C 52.6875 180.875 58.050781 183.074219 64.386719 183.074219 C 70.59375 183.074219 75.960938 180.875 80.484375 176.480469 C 83.976562 172.863281 86.109375 168.789062 86.886719 164.265625 M 86.886719 234.066406 L 87.078125 237.945312 C 87.078125 244.148438 84.878906 249.515625 80.484375 254.039062 C 75.960938 258.433594 70.59375 260.628906 64.386719 260.628906 C 58.050781 260.628906 52.6875 258.433594 48.289062 254.039062 C 43.894531 249.515625 41.695312 244.148438 41.695312 237.945312 L 42.085938 234.066406 C 42.730469 238.589844 44.800781 242.664062 48.289062 246.28125 C 52.6875 250.675781 58.050781 252.875 64.386719 252.875 C 70.59375 252.875 75.960938 250.675781 80.484375 246.28125 C 83.976562 242.664062 86.109375 238.589844 86.886719 234.066406 M 86.886719 484.769531 L 87.078125 488.648438 C 87.078125 494.980469 84.878906 500.34375 80.484375 504.742188 C 75.960938 509.136719 70.59375 511.332031 64.386719 511.332031 C 58.050781 511.332031 52.6875 509.136719 48.289062 504.742188 C 43.894531 500.34375 41.695312 494.980469 41.695312 488.648438 L 42.085938 484.769531 C 42.730469 489.421875 44.800781 493.496094 48.289062 496.984375 C 52.6875 501.378906 58.050781 503.578125 64.386719 503.578125 C 70.59375 503.578125 75.960938 501.378906 80.484375 496.984375 C 83.976562 493.496094 86.109375 489.421875 86.886719 484.769531 M 86.886719 554.570312 L 87.078125 558.449219 C 87.078125 564.78125 84.878906 570.148438 80.484375 574.542969 C 75.960938 578.9375 70.59375 581.132812 64.386719 581.132812 C 58.050781 581.132812 52.6875 578.9375 48.289062 574.542969 C 43.894531 570.148438 41.695312 564.78125 41.695312 558.449219 L 42.085938 554.570312 C 42.730469 559.222656 44.800781 563.296875 48.289062 566.785156 C 52.6875 571.179688 58.050781 573.378906 64.386719 573.378906 C 70.59375 573.378906 75.960938 571.179688 80.484375 566.785156 C 83.976562 563.296875 86.109375 559.222656 86.886719 554.570312 M 86.886719 624.371094 L 87.078125 628.25 C 87.078125 634.582031 84.878906 639.949219 80.484375 644.34375 C 75.960938 648.738281 70.59375 650.933594 64.386719 650.933594 C 58.050781 650.933594 52.6875 648.738281 48.289062 644.34375 C 43.894531 639.949219 41.695312 634.582031 41.695312 628.25 L 42.085938 624.371094 C 42.730469 629.023438 44.800781 633.097656 48.289062 636.585938 C 52.6875 640.980469 58.050781 643.179688 64.386719 643.179688 C 70.59375 643.179688 75.960938 640.980469 80.484375 636.585938 C 83.976562 633.097656 86.109375 629.023438 86.886719 624.371094 M 68.265625 457.042969 L 60.507812 457.042969 L 60.507812 263.152344 L 68.265625 263.152344 L 68.265625 457.042969 "/>
<path style=" stroke:none;fill-rule:nonzero;fill:rgb(66.666667%,67.45098%,68.235294%);fill-opacity:1;" d="M 120.242188 0.816406 L 128 0.816406 L 128 719.183594 L 120.242188 719.183594 L 120.242188 0.816406 M 7.757812 719.183594 L 0 719.183594 L 0 0.816406 L 7.757812 0.816406 L 7.757812 719.183594 "/>
</g>
</svg>
