<?xml version="1.0" encoding="UTF-8"?>
<svg xmlns="http://www.w3.org/2000/svg" xmlns:xlink="http://www.w3.org/1999/xlink" width="128pt" height="83pt" viewBox="0 0 128 83" version="1.1">
<g id="surface1">
<path style=" stroke:none;fill-rule:nonzero;fill:rgb(100%,100%,100%);fill-opacity:1;" d="M 128 44.597656 L 128 60.304688 C 127.398438 66.546875 120.921875 71.886719 108.574219 76.316406 C 96.125 80.746094 81.265625 82.960938 64 82.960938 C 46.832031 82.960938 32.023438 80.746094 19.578125 76.316406 C 7.226562 71.886719 0.753906 66.546875 0.152344 60.304688 L 0 60.304688 L 0 44.292969 C 0.199219 50.636719 6.425781 56.074219 18.671875 60.605469 C 31.222656 65.136719 46.332031 67.402344 64 67.402344 C 81.367188 67.402344 96.277344 65.1875 108.726562 60.757812 C 121.171875 56.328125 127.597656 50.941406 128 44.597656 "/>
<path style=" stroke:none;fill-rule:nonzero;fill:rgb(100%,100%,100%);fill-opacity:1;" d="M 99.386719 8.042969 C 89.550781 4.417969 77.652344 2.605469 63.699219 2.605469 C 49.84375 2.605469 38 4.417969 28.160156 8.042969 C 18.320312 11.667969 13.402344 16 13.402344 21.035156 C 13.402344 26.167969 18.320312 30.550781 28.160156 34.175781 C 38 37.800781 49.84375 39.613281 63.699219 39.613281 C 77.652344 39.613281 89.550781 37.800781 99.386719 34.175781 C 109.226562 30.550781 114.144531 26.167969 114.144531 21.035156 C 114.144531 16 109.226562 11.667969 99.386719 8.042969 M 64 0.0390625 C 81.667969 0.0390625 96.777344 2.355469 109.328125 6.988281 C 121.777344 11.519531 128 17.054688 128 23.601562 C 128 30.046875 121.777344 35.585938 109.328125 40.214844 C 96.777344 44.746094 81.667969 47.011719 64 47.011719 C 46.332031 47.011719 31.222656 44.746094 18.671875 40.214844 C 6.222656 35.585938 0 30.046875 0 23.601562 C 0 17.054688 6.222656 11.519531 18.671875 6.988281 C 31.222656 2.355469 46.332031 0.0390625 64 0.0390625 "/>
<path style=" stroke:none;fill-rule:nonzero;fill:rgb(100%,100%,100%);fill-opacity:1;" d="M 73.035156 19.222656 C 73.035156 21.839844 72.132812 24.003906 70.324219 25.714844 C 68.617188 27.527344 66.460938 28.433594 63.847656 28.433594 C 61.339844 28.433594 59.230469 27.527344 57.523438 25.714844 C 55.71875 23.902344 54.8125 21.738281 54.8125 19.222656 C 54.8125 16.703125 55.71875 14.539062 57.523438 12.726562 C 59.230469 10.914062 61.339844 10.007812 63.847656 10.007812 C 66.460938 10.007812 68.617188 10.914062 70.324219 12.726562 C 72.132812 14.539062 73.035156 16.703125 73.035156 19.222656 "/>
</g>
</svg>
