<?xml version="1.0" encoding="UTF-8"?>
<svg xmlns="http://www.w3.org/2000/svg" xmlns:xlink="http://www.w3.org/1999/xlink" width="128pt" height="141pt" viewBox="0 0 128 141" version="1.1">
<g id="surface1">
<path style=" stroke:none;fill-rule:nonzero;fill:rgb(100%,100%,100%);fill-opacity:1;" d="M 80.886719 14.386719 L 81.992188 15.488281 C 82.726562 16.515625 82.898438 17.640625 82.507812 18.867188 C 82.113281 19.894531 81.328125 21.046875 80.148438 22.316406 C 78.378906 24.277344 76.117188 26.160156 73.363281 27.972656 L 66.65625 32.011719 L 65.917969 31.207031 L 64.738281 30.398438 C 65.574219 30.054688 66.285156 29.539062 66.875 28.855469 C 67.808594 27.925781 68.128906 26.996094 67.835938 26.0625 C 67.589844 25.085938 66.65625 24.082031 65.03125 23.050781 C 63.015625 21.582031 60.535156 20.628906 57.585938 20.1875 L 49.546875 19.894531 C 45.222656 20.285156 40.726562 21.679688 36.054688 24.082031 C 31.976562 26.1875 28.09375 28.855469 24.40625 32.085938 L 21.675781 34.878906 C 20.695312 36.199219 20.277344 37.375 20.425781 38.402344 C 20.523438 39.382812 21.257812 40.363281 22.636719 41.339844 L 24.183594 42.296875 L 24.996094 42.808594 L 25.070312 42.808594 L 25.804688 44.867188 C 24.183594 44.816406 21.996094 44.109375 19.246094 42.738281 C 16.539062 41.367188 14.378906 40.679688 12.753906 40.679688 L 9.363281 40.828125 L 6.046875 40.828125 L 4.496094 40.679688 C 4.007812 40.433594 3.734375 40.019531 3.6875 39.429688 C 3.6875 38.792969 4.152344 38.011719 5.085938 37.082031 C 6.660156 35.515625 8.921875 34.09375 11.871094 32.820312 L 19.464844 29.882812 L 21.308594 29.148438 C 21.40625 29.199219 21.457031 29.171875 21.457031 29.074219 C 24.796875 27.65625 28.558594 25.625 32.738281 22.980469 L 41.289062 17.691406 L 50.285156 13.285156 C 55.496094 11.082031 61.171875 10.125 67.316406 10.417969 C 72.085938 10.664062 75.871094 11.496094 78.671875 12.917969 L 80.664062 14.164062 L 80.886719 14.386719 M 3.097656 40.386719 L 3.390625 40.679688 L 3.90625 41.046875 L 3.097656 40.386719 M 84.203125 58.234375 L 85.382812 58.894531 L 85.75 59.117188 C 83.589844 60.488281 81.007812 61.390625 78.007812 61.832031 L 74.394531 61.613281 L 73.511719 61.171875 L 75.503906 60.4375 L 76.460938 61.023438 C 76.902344 61.125 77.125 60.828125 77.125 60.144531 L 78.304688 59.851562 L 79.703125 59.335938 C 79.558594 59.582031 79.65625 59.703125 80 59.703125 L 80.664062 59.554688 L 82.359375 58.601562 L 84.203125 58.234375 M 81.546875 58.234375 L 81.328125 58.085938 L 79.632812 58.382812 L 78.894531 58.601562 L 79.1875 57.941406 C 79.335938 57.351562 79.113281 56.59375 78.523438 55.664062 C 77.789062 54.585938 76.386719 53.3125 74.324219 51.84375 L 72.996094 49.273438 C 72.011719 47.609375 70.980469 46.261719 69.898438 45.234375 L 68.644531 44.5 C 70.613281 43.667969 73.09375 43.105469 76.09375 42.808594 L 84.792969 42.441406 C 88.578125 42.296875 91.921875 43.273438 94.820312 45.378906 C 97.621094 47.484375 99.613281 50.351562 100.792969 53.972656 C 101.578125 56.324219 101.972656 58.796875 101.972656 61.390625 L 101.972656 62.054688 L 101.382812 61.90625 L 92.386719 59.851562 C 90.863281 59.507812 89.707031 59.1875 88.921875 58.894531 C 87.691406 58.503906 86.636719 57.964844 85.75 57.28125 L 82.949219 57.5 L 81.546875 58.234375 M 90.984375 67.414062 L 87.59375 67.929688 L 84.054688 67.855469 C 83.023438 67.855469 82.261719 68.050781 81.769531 68.445312 C 80.34375 69.667969 79.976562 71.183594 80.664062 72.996094 L 82.726562 77.625 C 82.777344 77.917969 82.925781 78.089844 83.171875 78.136719 L 84.570312 78.285156 L 84.644531 79.679688 L 78.007812 73.585938 L 69.234375 64.332031 L 70.195312 62.054688 L 70.265625 61.980469 L 72.257812 61.539062 C 73.585938 63.105469 75.773438 63.71875 78.820312 63.375 C 81.867188 63.03125 84.621094 62.027344 87.078125 60.363281 C 87.816406 62.519531 89.117188 64.867188 90.984375 67.414062 M 91.132812 60.878906 C 94.671875 61.757812 98.261719 62.46875 101.898438 63.007812 C 101.703125 65.457031 101.015625 67.21875 99.835938 68.296875 L 99.097656 68.882812 C 97.230469 67.269531 94.820312 66.707031 91.871094 67.195312 C 89.90625 64.601562 88.652344 62.25 88.109375 60.144531 L 91.132812 60.878906 M 101.675781 53.3125 C 101.039062 51.550781 100.203125 49.960938 99.171875 48.539062 L 100.425781 50.375 L 101.675781 53.3125 M 95.703125 82.398438 L 95.851562 81.882812 L 96 80.5625 C 96.738281 80.710938 97.5 80.511719 98.285156 79.976562 C 99.367188 79.191406 100.179688 78.039062 100.71875 76.523438 C 101.605469 74.027344 101.480469 71.921875 100.351562 70.207031 L 102.195312 67.636719 C 102.636719 66.707031 102.90625 65.40625 103.003906 63.742188 L 103.078125 63.230469 L 106.46875 63.667969 L 108.3125 63.816406 C 108.953125 63.863281 109.417969 64.28125 109.714844 65.066406 L 110.15625 67.339844 C 111.042969 70.867188 110.917969 74.589844 109.789062 78.503906 C 108.953125 81.445312 107.28125 84.527344 104.773438 87.761719 L 98.507812 95.105469 C 96.785156 94.417969 95.113281 93.660156 93.492188 92.828125 L 94.304688 92.019531 L 94.453125 90.699219 L 94.304688 90.332031 L 94.597656 90.109375 L 94.820312 90.40625 C 95.015625 90.648438 95.238281 90.773438 95.484375 90.773438 C 95.925781 90.773438 96.269531 90.503906 96.515625 89.964844 C 96.761719 89.570312 96.835938 89.15625 96.738281 88.714844 L 97.179688 88.421875 C 97.277344 88.519531 97.402344 88.566406 97.546875 88.566406 C 97.992188 88.566406 98.335938 88.300781 98.582031 87.761719 L 98.800781 87.027344 C 99.882812 85.949219 100.179688 85.089844 99.6875 84.457031 C 99.246094 83.867188 98.582031 83.523438 97.695312 83.425781 L 96.8125 83.425781 L 96.367188 82.984375 L 95.703125 82.398438 M 92.386719 92.242188 L 91.945312 91.945312 L 91.796875 91.726562 L 92.019531 91.652344 L 92.09375 91.726562 L 92.386719 92.242188 M 92.535156 91.359375 L 93.789062 90.625 L 93.933594 90.84375 L 93.566406 91.066406 L 93.050781 91.507812 L 92.609375 91.433594 L 92.535156 91.359375 M 95.632812 83.5 L 95.335938 83.5 L 94.746094 83.574219 L 94.746094 83.425781 L 95.042969 83.207031 L 95.410156 83.351562 L 95.632812 83.5 M 113.402344 72.554688 C 117.039062 76.082031 119.59375 79.851562 121.070312 83.867188 C 123.429688 90.378906 121.460938 97.015625 115.171875 103.773438 C 112.859375 106.269531 110.351562 108.472656 107.648438 110.382812 C 104.652344 112.4375 101.675781 113.957031 98.726562 114.9375 C 98.53125 114.984375 98.53125 115.304688 98.726562 115.890625 L 99.171875 116.625 C 100.890625 116.085938 102.585938 115.351562 104.257812 114.421875 L 109.933594 117.140625 L 114.136719 119.636719 C 117.875 122.132812 120.234375 124.875 121.214844 127.863281 L 121.4375 128.816406 L 121.289062 128.746094 L 120.699219 129.039062 C 118.539062 130.015625 116.226562 130.53125 113.769531 130.582031 C 111.703125 130.679688 109.664062 130.433594 107.648438 129.847656 L 107.207031 128.964844 L 107.058594 128.964844 C 101.949219 127.398438 98.113281 126.148438 95.558594 125.21875 C 90.984375 123.601562 87.445312 121.691406 84.941406 119.488281 C 84.152344 118.804688 83.539062 118.019531 83.097656 117.140625 C 82.554688 115.914062 82.382812 114.519531 82.582031 112.953125 C 82.777344 111.042969 83.589844 108.765625 85.015625 106.121094 C 86.980469 102.351562 89.855469 98.65625 93.640625 95.03125 L 93.714844 94.589844 L 97.769531 96.28125 L 98.582031 96.28125 L 99.246094 95.839844 L 105.363281 88.640625 C 107.527344 85.898438 109.199219 83.28125 110.378906 80.78125 C 111.753906 77.941406 112.417969 74.90625 112.367188 71.675781 L 113.402344 72.554688 M 96.367188 69.105469 C 98.285156 69.839844 99.292969 71.085938 99.390625 72.851562 C 99.441406 74.074219 99.21875 75.46875 98.726562 77.035156 C 98.039062 79.140625 97.128906 79.730469 96 78.800781 L 94.96875 78.726562 C 94.574219 78.875 94.351562 79.117188 94.304688 79.460938 L 94.304688 81.882812 L 94.15625 82.617188 C 93.960938 82.960938 93.542969 82.960938 92.902344 82.617188 L 91.207031 81.371094 C 90.765625 81.078125 90.347656 81.078125 89.953125 81.371094 C 89.019531 82.105469 88.28125 82.351562 87.742188 82.105469 L 87.375 81.8125 C 86.734375 81.175781 86.390625 79.65625 86.339844 77.257812 L 86.339844 77.035156 L 86.5625 76.523438 C 87.101562 75.101562 86.957031 73.660156 86.121094 72.1875 C 85.921875 71.847656 85.578125 71.75 85.085938 71.894531 C 84.546875 72.042969 84.300781 72.3125 84.351562 72.703125 L 84.496094 76.816406 L 82.433594 73.070312 C 82.582031 69.984375 83.761719 68.785156 85.972656 69.472656 L 88.035156 69.546875 L 89.878906 69.179688 L 91.503906 68.589844 L 91.945312 68.515625 C 92.191406 68.761719 92.410156 68.859375 92.609375 68.8125 L 95.113281 68.738281 L 96.367188 69.105469 M 94.082031 88.273438 L 93.863281 87.980469 C 93.125 86.902344 92.707031 86.09375 92.609375 85.558594 C 92.558594 85.261719 92.78125 85.261719 93.273438 85.558594 L 94.15625 86.144531 L 94.820312 86.804688 L 95.1875 87.394531 L 94.746094 87.6875 L 94.082031 88.273438 M 95.703125 86.953125 L 94.304688 85.191406 L 94.082031 85.042969 L 94.820312 84.894531 L 95.1875 85.628906 L 95.925781 86.804688 L 95.703125 86.953125 M 92.09375 85.117188 L 92.238281 85.851562 L 93.125 87.90625 L 93.566406 88.566406 L 93.273438 88.789062 L 92.09375 87.246094 C 91.160156 86.414062 90.496094 86.023438 90.101562 86.070312 C 89.707031 86.121094 89.683594 86.730469 90.027344 87.90625 L 90.839844 89.964844 L 91.058594 90.257812 L 90.839844 90.332031 L 89.804688 89.082031 C 88.972656 88.25 88.308594 87.859375 87.816406 87.90625 C 87.570312 87.957031 87.472656 88.25 87.519531 88.789062 L 87.59375 89.230469 L 85.457031 87.613281 C 81.230469 84.285156 77.617188 80.414062 74.617188 76.007812 C 71.375 71.308594 69.382812 67.414062 68.644531 64.332031 C 73.167969 69.179688 77.664062 73.660156 82.136719 77.769531 L 84.644531 80.121094 L 85.234375 82.398438 C 85.726562 83.574219 86.613281 84.039062 87.890625 83.792969 L 88.847656 83.574219 L 89.953125 84.308594 C 90.496094 84.652344 90.9375 84.871094 91.28125 84.96875 L 92.09375 85.117188 M 96.441406 86.4375 L 95.925781 85.777344 L 95.335938 84.824219 L 96.296875 84.675781 L 96.957031 84.675781 L 97.546875 85.558594 L 97.03125 85.925781 L 96.441406 86.4375 M 97.695312 84.675781 L 98.433594 84.675781 L 97.992188 85.117188 L 97.695312 84.675781 M 89.585938 83.207031 L 90.25 82.839844 L 91.355469 83.71875 C 90.714844 83.621094 90.125 83.453125 89.585938 83.207031 M 91.574219 89.890625 C 90.886719 88.910156 90.46875 88.152344 90.324219 87.613281 C 90.273438 87.320312 90.519531 87.320312 91.058594 87.613281 L 91.871094 88.199219 L 92.535156 88.863281 L 92.753906 89.15625 L 91.574219 89.890625 M 89.660156 90.039062 L 90.25 90.699219 L 90.027344 90.773438 L 88.183594 89.597656 L 88.109375 89.449219 C 88.0625 89.15625 88.28125 89.15625 88.773438 89.449219 L 89.660156 90.039062 M 88.035156 93.636719 L 89.4375 93.046875 L 89.804688 93.5625 L 90.25 94.296875 L 90.914062 94.664062 C 91.402344 94.664062 91.773438 94.394531 92.019531 93.855469 L 92.09375 93.78125 L 92.535156 94.003906 C 90.617188 95.863281 88.945312 97.699219 87.519531 99.511719 L 87.300781 99.292969 L 86.636719 99.144531 L 87.519531 98.117188 C 87.667969 97.726562 87.617188 97.234375 87.375 96.648438 L 86.488281 95.253906 L 85.898438 94.445312 L 88.035156 93.636719 M 85.308594 94.371094 L 85.898438 95.179688 L 86.929688 96.648438 C 87.226562 97.234375 87.078125 97.699219 86.488281 98.042969 L 85.085938 98.703125 L 83.613281 99.21875 C 83.023438 99.464844 82.457031 99.316406 81.917969 98.777344 L 80.738281 97.234375 L 79.703125 95.839844 L 79.851562 95.765625 L 80.589844 95.621094 L 80.664062 95.621094 L 81.992188 97.308594 L 82.066406 97.457031 L 81.769531 97.308594 L 82.65625 98.558594 C 82.703125 98.65625 82.800781 98.703125 82.949219 98.703125 L 83.171875 98.777344 L 83.023438 98.703125 L 83.464844 98.777344 L 84.941406 98.335938 L 86.339844 97.675781 L 86.339844 97.089844 L 85.382812 95.398438 L 84.71875 94.515625 L 85.308594 94.371094 M 90.839844 93.34375 L 90.542969 93.414062 L 90.324219 93.269531 L 89.953125 92.753906 L 90.101562 92.679688 L 91.058594 93.195312 L 90.839844 93.34375 M 87.445312 91.875 C 85.628906 90.550781 83.589844 88.738281 81.328125 86.4375 L 81.179688 86.292969 L 83.464844 88.199219 L 88.257812 91.578125 L 87.445312 91.875 M 78.15625 89.300781 L 76.535156 90.625 C 76.386719 91.015625 76.4375 91.507812 76.683594 92.09375 L 77.566406 93.488281 L 78.082031 94.148438 L 77.34375 94.078125 L 76.609375 93.34375 C 76.117188 92.902344 75.847656 92.949219 75.796875 93.488281 L 75.429688 93.269531 C 74.9375 92.976562 74.445312 92.632812 73.953125 92.242188 L 72.847656 91.210938 L 70.855469 88.789062 L 70.785156 88.640625 C 70.585938 88.347656 70.339844 88.25 70.046875 88.347656 L 68.277344 85.925781 L 63.484375 76.816406 C 61.617188 73.339844 58.640625 70.15625 54.5625 67.269531 L 53.234375 66.605469 L 53.085938 66.605469 L 53.015625 66.535156 L 52.203125 66.605469 L 52.128906 66.3125 L 52.351562 65.652344 L 53.234375 65.652344 L 53.824219 65.578125 L 58.394531 66.828125 L 63.261719 69.03125 L 65.476562 71.601562 L 67.6875 74.394531 L 74.46875 81.445312 L 76.683594 83.71875 L 77.566406 84.601562 L 80.589844 87.761719 L 81.695312 88.863281 L 80.222656 88.566406 L 80.148438 88.566406 L 78.15625 89.300781 M 78.007812 91.652344 L 79.484375 94.003906 L 78.671875 94.148438 L 78.597656 94.148438 L 78.15625 93.5625 L 77.199219 92.09375 C 76.902344 91.507812 77.027344 91.039062 77.566406 90.699219 L 80.441406 89.523438 C 81.082031 89.375 81.648438 89.546875 82.136719 90.039062 L 83.316406 91.578125 L 83.539062 91.945312 L 83.023438 92.09375 L 82.359375 91.066406 L 81.105469 89.742188 L 79.558594 90.109375 L 77.933594 90.84375 L 77.933594 91.210938 L 78.007812 91.652344 M 79.925781 93.929688 L 79.851562 93.78125 L 78.523438 91.726562 L 81.03125 90.699219 L 82.285156 91.800781 L 82.65625 92.3125 L 82.65625 93.046875 L 82.066406 93.269531 L 82.066406 93.34375 L 81.992188 93.34375 L 79.925781 93.929688 M 84.054688 91.726562 L 83.390625 90.84375 L 82.507812 89.671875 L 84.570312 91.507812 L 84.351562 91.578125 L 84.054688 91.726562 M 84.425781 93.195312 L 84.425781 93.929688 L 84.277344 93.414062 L 84.054688 92.976562 L 84.425781 93.195312 M 83.835938 93.78125 L 83.390625 93.929688 L 83.023438 94.003906 L 83.539062 93.78125 L 83.980469 93.710938 L 83.835938 93.78125 M 84.203125 94.664062 L 84.277344 94.664062 L 85.234375 95.914062 L 85.824219 96.792969 L 83.539062 97.675781 C 83.144531 97.824219 82.800781 97.726562 82.507812 97.382812 L 81.84375 96.355469 L 81.179688 95.472656 L 83.171875 94.957031 L 83.6875 94.882812 L 84.203125 94.664062 M 79.261719 95.914062 L 80.738281 97.894531 L 81.992188 99.585938 C 82.53125 100.125 83.171875 100.320312 83.90625 100.171875 L 84.570312 100.027344 L 86.636719 100.6875 L 84.128906 104.652344 C 81.71875 109.109375 81.105469 113.125 82.285156 116.699219 C 79.582031 116.648438 77.320312 116.0625 75.503906 114.9375 C 73.191406 113.515625 72.0625 111.484375 72.109375 108.839844 C 72.160156 106.785156 72.921875 104.652344 74.394531 102.449219 L 77.714844 98.628906 L 77.863281 98.925781 L 78.007812 99.144531 L 78.082031 99.292969 L 78.15625 99.292969 C 78.402344 99.488281 78.746094 99.488281 79.1875 99.292969 C 79.632812 99.097656 79.828125 98.800781 79.777344 98.410156 L 79.632812 97.675781 L 81.179688 98.558594 L 79.335938 95.988281 L 79.1875 95.914062 L 79.261719 95.914062 M 78.304688 96.28125 L 79.1875 97.894531 L 78.671875 98.117188 L 78.007812 98.117188 L 77.640625 97.457031 L 76.683594 95.621094 L 76.902344 95.691406 L 78.082031 95.914062 L 78.304688 96.28125 M 97.476562 133.664062 L 102.488281 132.050781 L 106.691406 130.949219 L 106.984375 131.167969 C 109.34375 132 111.804688 132.367188 114.359375 132.269531 C 116.769531 132.171875 119.054688 131.65625 121.214844 130.726562 L 121.363281 131.019531 C 122.25 132.488281 122.371094 133.886719 121.734375 135.207031 C 121.09375 136.433594 119.988281 137.289062 118.414062 137.777344 L 115.6875 138.585938 L 113.328125 138.367188 L 112.957031 137.335938 L 112.441406 136.53125 C 111.949219 136.136719 111.164062 136.234375 110.082031 136.824219 L 107.871094 138.441406 C 106.984375 139.074219 105.683594 139.394531 103.964844 139.394531 L 99.761719 139.175781 C 97.15625 138.976562 95.089844 138.464844 93.566406 137.632812 L 92.683594 136.96875 C 92.632812 136.726562 92.753906 136.40625 93.050781 136.015625 L 95.113281 134.621094 L 97.476562 133.664062 M 126.304688 112.804688 C 127.140625 114.324219 127.214844 115.5 126.523438 116.332031 L 125.34375 117.140625 L 123.722656 117.359375 L 121.878906 117.140625 L 120.699219 116.699219 L 116.941406 114.347656 L 113.917969 111.703125 L 113.621094 110.527344 L 113.179688 109.867188 C 113.03125 109.917969 113.007812 110.1875 113.105469 110.675781 C 113.648438 112.535156 113.375 114.570312 112.296875 116.773438 L 112.296875 116.992188 C 110.476562 115.867188 108.3125 114.738281 105.804688 113.613281 L 108.902344 111.484375 C 111.753906 109.378906 114.433594 106.90625 116.941406 104.066406 L 117.605469 103.257812 C 120.0625 105.363281 122.199219 107.519531 124.019531 109.722656 L 126.304688 112.804688 M 51.464844 5.203125 L 52.644531 6.453125 L 54.339844 8.214844 L 55.964844 9.980469 L 51.761719 11.082031 C 49.15625 11.960938 46.304688 13.210938 43.207031 14.828125 L 35.097656 19.527344 C 32 21.535156 29.640625 23.027344 28.019531 24.007812 C 25.363281 25.625 23.027344 26.871094 21.015625 27.753906 L 19.90625 23.566406 C 19.515625 21.609375 19.515625 19.773438 19.90625 18.058594 L 21.234375 11.742188 L 21.605469 9.171875 L 22.265625 6.671875 C 22.710938 5.792969 23.839844 5.035156 25.660156 4.398438 L 30.597656 3.222656 L 35.6875 2.632812 L 40.480469 1.898438 L 45.273438 1.3125 C 46.453125 1.261719 47.632812 1.65625 48.8125 2.488281 L 51.464844 5.203125 M 54.339844 20.921875 C 56.945312 20.972656 59.453125 21.414062 61.863281 22.246094 C 62.351562 23.664062 62.671875 24.988281 62.820312 26.210938 C 61.394531 24.546875 59.648438 23.445312 57.585938 22.90625 L 53.824219 22.246094 L 54.339844 20.921875 M 53.308594 24.742188 L 53.75 25.035156 L 55.003906 25.257812 L 57.585938 25.84375 L 61.050781 27.3125 L 63.410156 28.78125 L 63.558594 29.222656 L 63.261719 29.367188 C 61.640625 28.195312 60.042969 27.410156 58.46875 27.019531 L 55.375 26.726562 L 55.226562 26.726562 C 55.027344 26.871094 55.003906 27.066406 55.152344 27.3125 C 55.25 27.558594 55.519531 27.679688 55.964844 27.679688 L 58.25 27.972656 L 61.714844 29.367188 L 63.261719 30.105469 L 63.632812 30.398438 L 63.851562 30.542969 L 64.296875 31.132812 L 62.96875 31.425781 L 63.335938 31.792969 C 64.269531 31.890625 65.03125 32.183594 65.621094 32.675781 L 66.136719 33.261719 L 66.359375 33.480469 C 66.753906 34.019531 67 34.730469 67.097656 35.613281 C 67.34375 37.765625 66.53125 39.382812 64.664062 40.460938 L 64.148438 40.679688 L 64 44.058594 C 63.65625 47.289062 62.796875 50.226562 61.417969 52.871094 L 61.34375 53.535156 L 61.863281 53.460938 C 62.648438 53.019531 63.410156 52.136719 64.148438 50.816406 L 64.222656 55.074219 L 63.410156 56.765625 C 62.179688 59.066406 60.65625 60.730469 58.839844 61.757812 C 58.003906 62.25 57.242188 62.46875 56.554688 62.421875 L 56.699219 62.347656 C 57.191406 62.054688 57.832031 61.492188 58.617188 60.65625 C 59.402344 59.777344 59.722656 59.261719 59.574219 59.117188 L 59.429688 59.1875 L 58.691406 59.703125 L 57.363281 60.585938 C 55.742188 61.515625 53.703125 62.152344 51.246094 62.496094 L 51.023438 62.421875 L 51.023438 62.496094 L 50.433594 62.566406 C 45.371094 63.058594 40.601562 61.636719 36.128906 58.308594 C 31.902344 55.074219 28.953125 50.988281 27.28125 46.042969 L 27.207031 45.820312 L 27.132812 45.675781 L 26.691406 44.058594 C 26.003906 41.464844 25.707031 38.625 25.804688 35.539062 C 26.640625 34.902344 27.257812 33.972656 27.648438 32.746094 L 27.945312 31.425781 L 28.019531 31.351562 L 32.738281 28.121094 C 37.160156 25.328125 41.289062 23.347656 45.125 22.171875 C 47.777344 21.386719 50.433594 20.972656 53.085938 20.921875 L 52.351562 22.316406 L 52.203125 22.757812 C 52.203125 23.050781 52.398438 23.199219 52.792969 23.199219 L 57.214844 23.714844 C 59.820312 24.351562 61.714844 25.722656 62.894531 27.828125 C 61.320312 26.601562 59.625 25.648438 57.804688 24.960938 L 53.824219 24.152344 L 53.605469 24.226562 L 53.308594 24.742188 M 56.996094 30.910156 L 58.617188 31.058594 L 60.3125 31.71875 L 61.050781 31.644531 L 60.238281 30.910156 L 58.839844 30.25 L 56.699219 29.957031 L 56.332031 30.398438 L 56.921875 30.910156 L 56.996094 30.910156 M 64.148438 23.347656 L 64.222656 23.199219 C 65.15625 23.640625 65.84375 24.152344 66.285156 24.742188 C 66.828125 25.574219 66.605469 26.527344 65.621094 27.605469 L 64.8125 28.414062 L 64.738281 28.339844 L 64.367188 28.046875 L 64.222656 27.828125 L 64.148438 27.386719 L 64.222656 27.019531 L 64.367188 25.917969 L 64.148438 23.492188 L 64.148438 23.347656 M 65.03125 31.207031 L 65.402344 31.574219 L 65.03125 31.277344 L 64.367188 30.839844 L 65.03125 31.207031 M 36.71875 4.175781 C 33.277344 4.960938 30.523438 5.914062 28.460938 7.039062 C 27.574219 7.628906 27.109375 8.242188 27.058594 8.878906 C 27.109375 9.511719 27.625 10.003906 28.609375 10.347656 C 29.789062 10.835938 31.3125 11.054688 33.179688 11.007812 L 37.824219 10.640625 L 44.902344 9.832031 L 44.3125 9.246094 L 30.820312 10.273438 C 29 10.273438 27.96875 10.050781 27.722656 9.613281 C 27.28125 8.878906 28.117188 8.019531 30.230469 7.039062 C 31.949219 6.207031 34.335938 5.449219 37.382812 4.765625 L 37.234375 4.46875 C 37.039062 4.226562 36.867188 4.128906 36.71875 4.175781 M 42.46875 25.550781 L 42.101562 26.359375 L 41.953125 27.386719 L 42.691406 27.53125 L 44.238281 27.828125 L 45.933594 28.339844 L 47.113281 28.632812 C 47.164062 28 46.550781 27.214844 45.273438 26.285156 L 43.355469 25.109375 L 42.839844 25.109375 L 42.46875 25.550781 M 44.609375 32.011719 C 44.265625 32.160156 44.066406 32.527344 44.019531 33.113281 L 44.460938 34.804688 C 44.753906 35.441406 45.125 35.929688 45.566406 36.273438 L 46.820312 36.492188 C 47.113281 36.347656 47.289062 35.980469 47.335938 35.390625 C 47.335938 34.851562 47.1875 34.265625 46.894531 33.628906 L 45.789062 32.234375 L 44.609375 32.011719 M 38.710938 37.523438 L 38.488281 36.273438 C 38.390625 35.832031 38.21875 35.636719 37.972656 35.6875 L 37.675781 36.566406 L 37.75 37.667969 L 37.75 39.796875 C 37.703125 40.679688 37.480469 42.101562 37.085938 44.058594 L 36.941406 44.574219 C 36.839844 45.0625 37.015625 45.429688 37.457031 45.675781 L 40.035156 46.996094 C 40.726562 47.289062 41.289062 47.09375 41.734375 46.410156 L 41.953125 45.96875 L 41.585938 45.601562 L 39.59375 44.644531 L 39.003906 44.058594 L 38.929688 43.542969 L 38.929688 40.238281 L 38.710938 37.523438 M 33.03125 34.070312 L 29.863281 33.042969 L 29.273438 33.042969 L 29.050781 33.628906 L 29.125 34.363281 L 29.417969 34.949219 L 30.082031 35.097656 L 32.957031 34.511719 C 33.5 34.414062 33.523438 34.265625 33.03125 34.070312 M 33.179688 40.972656 L 32 39.503906 L 30.820312 39.285156 C 30.476562 39.480469 30.304688 39.847656 30.304688 40.386719 C 30.253906 40.925781 30.402344 41.511719 30.746094 42.148438 C 31.042969 42.785156 31.410156 43.25 31.851562 43.542969 C 32.296875 43.886719 32.6875 43.960938 33.03125 43.765625 C 33.375 43.617188 33.546875 43.273438 33.546875 42.738281 C 33.597656 42.199219 33.476562 41.609375 33.179688 40.972656 M 42.542969 49.125 C 42.199219 49.324219 42.027344 49.738281 42.027344 50.375 L 42.542969 52.433594 L 43.871094 54.195312 C 44.410156 54.585938 44.855469 54.683594 45.199219 54.488281 C 45.589844 54.292969 45.789062 53.875 45.789062 53.238281 C 45.789062 52.601562 45.617188 51.917969 45.273438 51.183594 C 44.878906 50.398438 44.4375 49.8125 43.945312 49.421875 C 43.402344 49.027344 42.9375 48.929688 42.542969 49.125 M 26.617188 32.527344 C 26.175781 33.75 25.488281 34.632812 24.554688 35.171875 C 24.207031 35.367188 23.890625 35.488281 23.59375 35.539062 L 23.742188 35.246094 L 26.617188 32.453125 L 26.617188 32.527344 M 24.554688 36.199219 L 24.773438 40.902344 L 22.488281 39.210938 L 21.972656 38.402344 L 23.003906 36.273438 L 24.554688 36.199219 M 44.535156 56.691406 C 44.582031 56.789062 44.707031 56.839844 44.902344 56.839844 L 46.378906 56.839844 C 47.066406 56.742188 47.703125 56.375 48.296875 55.738281 L 48.589844 55.222656 L 48.441406 54.636719 L 48 54.414062 L 47.335938 54.636719 L 44.828125 56.398438 L 44.535156 56.691406 M 66.800781 48.613281 C 67.539062 49.054688 68.277344 49.984375 69.015625 51.402344 L 70.636719 55.296875 L 70.929688 57.28125 L 71.003906 57.941406 L 69.457031 59.851562 L 69.457031 59.921875 L 67.761719 60.4375 L 67.539062 60.511719 L 67.464844 60.585938 L 66.726562 61.097656 L 65.476562 61.246094 L 65.476562 60.070312 L 65.84375 54.339844 L 66.582031 49.347656 L 66.800781 48.613281 M 69.015625 48.539062 L 73.363281 51.992188 L 73.878906 52.359375 L 75.355469 56.25 L 75.871094 57.941406 L 76.019531 58.453125 L 75.28125 58.75 L 74.839844 58.675781 L 73.878906 58.601562 L 72.257812 57.71875 L 72.109375 56.542969 C 71.765625 54.78125 71.003906 53.066406 69.824219 51.402344 L 67.023438 48.023438 L 67.539062 47.070312 L 69.015625 48.539062 M 69.382812 45.746094 C 70.316406 45.601562 71.519531 47.117188 72.996094 50.300781 L 73.4375 51.257812 L 72.554688 50.667969 C 70.390625 49.347656 68.792969 48.050781 67.761719 46.777344 C 68.25 46.1875 68.792969 45.847656 69.382812 45.746094 M 60.3125 33.335938 L 59.28125 32.675781 L 58.175781 32.453125 L 57.734375 32.894531 L 58.101562 33.335938 L 58.765625 33.480469 L 59.574219 33.921875 L 60.238281 34.070312 C 60.484375 33.921875 60.511719 33.679688 60.3125 33.335938 M 54.785156 33.410156 L 53.898438 32.453125 L 54.121094 33.628906 L 53.972656 35.390625 C 53.875 36.519531 53.949219 37.128906 54.195312 37.226562 C 54.390625 37.375 54.636719 37.277344 54.929688 36.933594 C 55.226562 36.589844 55.398438 36.125 55.445312 35.539062 C 55.59375 34.902344 55.375 34.191406 54.785156 33.410156 M 56.996094 40.019531 L 56.921875 41.78125 L 57.289062 42.882812 C 57.535156 43.078125 57.90625 42.90625 58.394531 42.371094 C 58.886719 41.78125 59.160156 41.070312 59.207031 40.238281 C 59.402344 39.308594 59.085938 38.230469 58.25 37.007812 C 57.414062 35.785156 56.945312 35.320312 56.847656 35.613281 C 56.996094 35.613281 57.09375 36.199219 57.144531 37.375 C 57.242188 38.597656 57.191406 39.480469 56.996094 40.019531 M 49.695312 65.578125 L 49.992188 66.3125 L 51.246094 67.707031 C 50.753906 68.542969 50.53125 69.300781 50.582031 69.984375 C 50.777344 72.042969 50.828125 73.363281 50.726562 73.953125 C 50.53125 74.832031 50.136719 75.519531 49.546875 76.007812 L 49.03125 73.292969 L 47.777344 69.179688 C 47.1875 67.269531 47.632812 66.09375 49.105469 65.652344 L 49.695312 65.578125 M 56.40625 64.550781 C 57.386719 64.355469 58.371094 63.964844 59.355469 63.375 C 61.320312 62.25 62.917969 60.757812 64.148438 58.894531 L 64.222656 64.332031 C 64.269531 65.847656 64.515625 67.269531 64.957031 68.589844 L 64.074219 67.707031 C 63.878906 67.511719 63.703125 67.414062 63.558594 67.414062 L 58.324219 65.210938 L 56.40625 64.550781 M 74.839844 53.019531 L 77.199219 54.855469 C 78.28125 56.078125 78.109375 57.132812 76.683594 58.015625 L 76.609375 57.792969 L 75.207031 53.902344 L 74.839844 53.019531 M 65.546875 62.714844 L 66.582031 62.640625 C 66.628906 64.402344 67.246094 66.558594 68.425781 69.105469 L 72.480469 76.15625 L 75.945312 80.855469 L 75.355469 80.269531 L 68.644531 73.21875 L 66.433594 70.425781 L 66.359375 70.351562 C 65.867188 69.128906 65.597656 67.929688 65.546875 66.753906 L 65.402344 62.714844 L 65.546875 62.714844 M 72.480469 59.703125 L 72.847656 59.703125 L 72.554688 59.777344 L 72.480469 59.703125 M 68.570312 76.667969 L 68.054688 76.816406 L 68.054688 77.550781 C 68.203125 77.992188 68.621094 78.164062 69.308594 78.066406 L 69.824219 77.625 L 69.75 76.964844 L 69.308594 76.375 L 68.941406 76.449219 L 68.570312 76.667969 M 69.160156 77.183594 L 69.53125 77.109375 L 69.457031 77.183594 L 69.085938 77.332031 L 68.792969 77.402344 L 69.160156 77.183594 M 74.617188 83.5 L 74.101562 83.648438 L 74.101562 84.382812 C 74.25 84.824219 74.667969 84.992188 75.355469 84.894531 L 75.871094 84.457031 L 75.796875 83.792969 L 75.355469 83.207031 L 74.984375 83.28125 L 74.617188 83.5 M 74.839844 84.234375 L 75.207031 84.015625 L 75.574219 83.941406 L 75.503906 84.015625 L 75.132812 84.160156 L 74.839844 84.234375 M 61.125 75.566406 C 61.910156 76.839844 62.820312 78.554688 63.851562 80.710938 L 66.433594 85.925781 L 69.015625 89.671875 C 68.867188 90.257812 68.988281 91.039062 69.382812 92.019531 C 68.839844 93.441406 68.03125 94.714844 66.949219 95.839844 C 65.03125 97.894531 62.648438 99.195312 59.796875 99.730469 C 56.40625 100.320312 52.867188 99.855469 49.179688 98.335938 C 46.179688 97.0625 43.601562 95.300781 41.4375 93.046875 C 43.011719 91.675781 44.191406 90.085938 44.976562 88.273438 C 45.761719 86.316406 45.984375 84.40625 45.640625 82.546875 C 48.539062 82.742188 51.269531 83.304688 53.824219 84.234375 L 56.183594 85.191406 L 56.625 85.628906 L 58.839844 86.660156 L 61.273438 88.566406 C 61.46875 88.765625 61.519531 88.59375 61.417969 88.054688 L 61.125 87.027344 L 58.25 84.824219 L 56.109375 83.648438 L 55.667969 82.765625 L 55.003906 81.296875 L 52.351562 74.90625 L 52.425781 74.539062 L 52.425781 72.117188 L 52.277344 69.691406 L 52.71875 68.515625 L 53.605469 68.445312 L 57.734375 71.675781 C 59.207031 73.046875 60.339844 74.34375 61.125 75.566406 M 71.816406 92.976562 L 73.363281 94.222656 L 74.984375 96.207031 L 75.945312 98.042969 L 74.394531 99.878906 L 73.4375 97.894531 L 72.480469 94.882812 L 71.816406 92.976562 M 35.613281 77.769531 C 36.203125 76.890625 37.0625 76.375 38.195312 76.230469 C 39.273438 76.03125 40.28125 76.203125 41.214844 76.742188 C 42.445312 77.332031 43.402344 78.308594 44.09375 79.679688 C 44.78125 81.003906 45.074219 82.351562 44.976562 83.71875 L 45.125 84.234375 C 45.027344 85.261719 44.683594 86.316406 44.09375 87.394531 C 43.257812 89.105469 42.003906 90.601562 40.332031 91.875 C 39.054688 92.410156 37.800781 92.632812 36.570312 92.535156 L 35.390625 92.3125 L 35.6875 92.242188 C 36.867188 91.703125 37.53125 90.746094 37.675781 89.375 C 37.777344 88.640625 37.628906 87.957031 37.234375 87.320312 L 36.496094 86.4375 L 36.71875 85.484375 L 36.792969 84.601562 L 37.160156 84.96875 L 38.488281 85.703125 L 39.964844 85.558594 C 40.503906 85.3125 40.847656 84.796875 40.996094 84.015625 L 41.070312 82.105469 L 40.699219 81.148438 C 40.453125 80.757812 40.355469 80.832031 40.40625 81.371094 C 40.40625 82.398438 40.160156 83.15625 39.667969 83.648438 L 37.457031 83.71875 C 36.570312 83.28125 35.90625 82.375 35.464844 81.003906 C 35.023438 79.632812 35.070312 78.554688 35.613281 77.769531 M 33.179688 78.433594 L 33.992188 78.800781 C 34.238281 79.042969 34.359375 79.339844 34.359375 79.679688 C 34.359375 80.316406 34.210938 80.757812 33.917969 81.003906 L 32.515625 81.296875 L 29.566406 80.5625 C 28.828125 80.21875 28.164062 79.804688 27.574219 79.3125 L 27.355469 79.09375 L 27.058594 78.800781 C 26.273438 77.96875 26.714844 77.257812 28.386719 76.667969 L 31.777344 76.082031 L 34.875 76.449219 L 34.433594 77.699219 C 33.992188 77.109375 33.425781 76.792969 32.738281 76.742188 L 32.664062 77.625 C 32.761719 78.164062 32.933594 78.433594 33.179688 78.433594 M 34.949219 81.664062 L 35.023438 81.515625 L 35.023438 81.589844 L 35.097656 81.738281 L 34.949219 81.664062 M 35.539062 85.558594 C 34.703125 86.730469 33.03125 87.027344 30.523438 86.4375 C 28.558594 85.996094 26.960938 85.191406 25.734375 84.015625 C 25.042969 83.378906 25.019531 82.667969 25.660156 81.882812 C 26.199219 81.199219 26.863281 80.832031 27.648438 80.78125 L 27.871094 81.003906 C 28.753906 81.6875 29.933594 82.277344 31.410156 82.765625 L 34.285156 82.839844 C 35.957031 83.425781 36.375 84.332031 35.539062 85.558594 M 30.378906 87.980469 L 34.285156 88.199219 C 34.875 88.054688 35.34375 87.808594 35.6875 87.464844 L 35.980469 87.6875 C 36.523438 87.832031 36.816406 88.054688 36.867188 88.347656 C 36.914062 88.640625 36.769531 89.058594 36.425781 89.597656 C 35.835938 90.527344 34.582031 90.992188 32.664062 90.992188 C 30.941406 90.992188 29.542969 90.648438 28.460938 89.964844 C 27.28125 89.132812 26.789062 87.980469 26.984375 86.511719 C 27.871094 87.097656 29 87.589844 30.378906 87.980469 "/>
<path style=" stroke:none;fill-rule:nonzero;fill:rgb(0%,0%,0%);fill-opacity:1;" d="M 81.992188 15.488281 L 81.621094 15.046875 L 80.886719 14.386719 L 80.664062 14.164062 L 78.671875 12.917969 C 75.871094 11.496094 72.085938 10.664062 67.316406 10.417969 C 61.171875 10.125 55.496094 11.082031 50.285156 13.285156 L 41.289062 17.691406 L 32.738281 22.980469 C 28.558594 25.625 24.796875 27.65625 21.457031 29.074219 C 21.457031 29.171875 21.40625 29.199219 21.308594 29.148438 L 19.464844 29.882812 L 11.871094 32.820312 C 8.921875 34.09375 6.660156 35.515625 5.085938 37.082031 C 4.152344 38.011719 3.6875 38.792969 3.6875 39.429688 C 3.734375 40.019531 4.007812 40.433594 4.496094 40.679688 L 6.046875 40.828125 L 9.363281 40.828125 L 12.753906 40.679688 C 14.378906 40.679688 16.539062 41.367188 19.246094 42.738281 C 21.996094 44.109375 24.183594 44.816406 25.804688 44.867188 L 25.070312 42.808594 L 24.996094 42.808594 L 24.183594 42.296875 L 22.636719 41.339844 C 21.257812 40.363281 20.523438 39.382812 20.425781 38.402344 C 20.277344 37.375 20.695312 36.199219 21.675781 34.878906 L 24.40625 32.085938 C 28.09375 28.855469 31.976562 26.1875 36.054688 24.082031 C 40.726562 21.679688 45.222656 20.285156 49.546875 19.894531 L 57.585938 20.1875 C 60.535156 20.628906 63.015625 21.582031 65.03125 23.050781 C 66.65625 24.082031 67.589844 25.085938 67.835938 26.0625 C 68.128906 26.996094 67.808594 27.925781 66.875 28.855469 C 66.285156 29.539062 65.574219 30.054688 64.738281 30.398438 L 65.917969 31.207031 L 66.65625 32.011719 L 73.363281 27.972656 C 76.117188 26.160156 78.378906 24.277344 80.148438 22.316406 C 81.328125 21.046875 82.113281 19.894531 82.507812 18.867188 C 82.898438 17.640625 82.726562 16.515625 81.992188 15.488281 M 3.097656 40.386719 C 1.03125 38.28125 2.949219 35.734375 8.847656 32.746094 L 16.296875 29.589844 C 16.835938 29.050781 17.574219 28.5625 18.507812 28.121094 L 19.835938 27.605469 L 18.875 24.59375 L 18.066406 20.921875 L 18.210938 18.425781 L 18.726562 16 C 19.269531 13.945312 19.835938 10.761719 20.425781 6.453125 C 20.816406 4.59375 23.054688 3.296875 27.132812 2.558594 L 33.402344 1.53125 L 39.59375 0.652344 L 43.574219 0.136719 C 45.050781 0.0859375 46.304688 0.332031 47.335938 0.871094 L 50.285156 3.074219 L 52.792969 5.71875 L 56.773438 9.832031 L 65.992188 9.097656 C 71.445312 9.292969 76.042969 10.589844 79.777344 12.988281 C 82.875 15.046875 84.324219 16.957031 84.128906 18.71875 C 83.980469 19.894531 83.417969 21.117188 82.433594 22.390625 C 81.84375 23.273438 80.886719 24.277344 79.558594 25.402344 C 76.460938 28.046875 72.726562 30.542969 68.351562 32.894531 C 68.742188 33.679688 68.964844 34.609375 69.015625 35.6875 C 69.0625 38.132812 68.25 39.824219 66.582031 40.753906 L 66.210938 40.902344 L 65.992188 43.398438 L 70.855469 41.929688 C 74.789062 40.851562 78.574219 40.3125 82.210938 40.3125 C 87.765625 40.3125 92.3125 41.5625 95.851562 44.058594 L 98.136719 46.042969 C 101.136719 49.078125 102.734375 52.96875 102.929688 57.71875 L 103.003906 59.335938 L 103.078125 62.199219 L 110.453125 62.789062 L 110.820312 62.933594 C 111.65625 65.433594 112.171875 67.855469 112.367188 70.207031 L 114.066406 71.820312 C 117.949219 75.789062 120.527344 80.023438 121.804688 84.527344 C 123.675781 90.894531 122.496094 96.867188 118.265625 102.449219 C 121.757812 105.484375 124.265625 108.253906 125.789062 110.75 C 127.261719 113.148438 127.902344 115.082031 127.703125 116.550781 L 127.558594 117.140625 C 127.261719 117.824219 126.699219 118.339844 125.863281 118.683594 L 122.839844 118.976562 C 121.511719 118.683594 120.136719 118.070312 118.710938 117.140625 L 117.972656 116.550781 L 114.066406 113.246094 C 114.066406 114.570312 113.867188 115.867188 113.476562 117.140625 L 113.253906 117.582031 L 114.65625 118.535156 C 118.585938 121.425781 120.972656 124.582031 121.804688 128.011719 L 122.101562 129.40625 C 122.152344 129.894531 122.050781 130.238281 121.804688 130.433594 L 122.617188 132.5625 C 122.914062 133.691406 122.960938 134.695312 122.765625 135.574219 C 122.371094 137.289062 121.242188 138.539062 119.375 139.320312 L 114.136719 140.644531 C 113.84375 140.691406 113.574219 140.472656 113.328125 139.980469 L 112.886719 138.953125 C 112.589844 138.121094 112 137.902344 111.113281 138.292969 L 109.050781 139.613281 L 107.574219 140.644531 L 106.324219 140.9375 L 104.996094 140.9375 L 99.097656 140.714844 L 95.777344 140.128906 C 94.550781 139.785156 93.617188 139.273438 92.976562 138.585938 C 92.386719 138.046875 92.019531 137.363281 91.871094 136.53125 C 91.722656 135.648438 91.921875 134.9375 92.460938 134.398438 C 93.445312 133.46875 94.820312 132.6875 96.589844 132.050781 L 101.160156 130.652344 L 104.625 129.699219 L 100.277344 128.304688 C 97.328125 127.324219 94.941406 126.46875 93.125 125.734375 C 90.566406 124.65625 88.625 123.675781 87.300781 122.796875 C 85.234375 121.472656 83.785156 120.027344 82.949219 118.460938 C 80.589844 118.363281 78.523438 117.921875 76.753906 117.140625 L 76.683594 117.066406 C 73.78125 115.695312 72.0625 113.269531 71.519531 109.792969 C 71.128906 107.199219 71.691406 104.554688 73.214844 101.863281 L 73.4375 101.496094 C 72.847656 101.003906 72.332031 100.125 71.890625 98.851562 L 70.785156 95.546875 L 69.972656 93.5625 C 69.480469 94.835938 68.769531 96.035156 67.835938 97.160156 C 65.964844 99.414062 63.632812 100.785156 60.828125 101.273438 C 57.191406 101.960938 53.503906 101.542969 49.769531 100.027344 C 46.230469 98.605469 43.207031 96.476562 40.699219 93.636719 L 36.792969 94.222656 C 35.417969 94.078125 34.238281 93.5625 33.253906 92.679688 L 31.925781 92.609375 C 30.550781 92.460938 29.445312 92.117188 28.609375 91.578125 C 27.675781 90.941406 27.011719 90.039062 26.617188 88.863281 C 26.324219 87.933594 26.199219 86.953125 26.25 85.925781 C 25.414062 85.238281 24.871094 84.457031 24.625 83.574219 C 24.382812 82.546875 24.480469 81.566406 24.921875 80.636719 L 26.46875 79.242188 L 26.101562 77.917969 C 25.953125 76.5 26.519531 75.519531 27.796875 74.980469 C 29.714844 74.097656 32.417969 74.148438 35.90625 75.128906 L 36.054688 75.199219 L 37.675781 74.613281 C 39.398438 74.269531 40.871094 74.6875 42.101562 75.863281 C 43.332031 76.988281 44.265625 78.359375 44.902344 79.976562 L 45.199219 80.855469 C 48.195312 81.050781 50.972656 81.613281 53.53125 82.546875 L 55.300781 83.28125 L 53.824219 80.195312 L 52.054688 75.789062 C 51.515625 76.914062 50.605469 77.722656 49.328125 78.210938 L 48.515625 78.066406 L 48 77.332031 C 48 76.15625 47.804688 74.832031 47.410156 73.363281 L 46.304688 69.398438 L 45.863281 67.195312 C 45.8125 66.3125 46.058594 65.628906 46.597656 65.136719 C 47.582031 64.207031 48.6875 63.742188 49.917969 63.742188 L 50.359375 63.816406 L 50.433594 63.523438 C 44.828125 64.5 39.59375 63.179688 34.726562 59.554688 C 30.207031 56.128906 27.183594 51.597656 25.660156 45.96875 C 23.839844 45.722656 22.144531 45.160156 20.570312 44.277344 L 17.253906 42.515625 L 13.492188 41.855469 L 8.257812 42.148438 C 6.4375 42.101562 4.988281 41.734375 3.90625 41.046875 L 3.390625 40.679688 L 3.097656 40.386719 M 93.492188 92.828125 C 95.113281 93.660156 96.785156 94.417969 98.507812 95.105469 L 104.773438 87.761719 C 107.28125 84.527344 108.953125 81.445312 109.789062 78.503906 C 110.917969 74.589844 111.042969 70.867188 110.15625 67.339844 L 109.714844 65.066406 C 109.417969 64.28125 108.953125 63.863281 108.3125 63.816406 L 106.46875 63.667969 L 103.078125 63.230469 L 103.003906 63.742188 C 102.90625 65.40625 102.636719 66.707031 102.195312 67.636719 L 100.351562 70.207031 C 101.480469 71.921875 101.605469 74.027344 100.71875 76.523438 C 100.179688 78.039062 99.367188 79.191406 98.285156 79.976562 C 97.5 80.511719 96.738281 80.710938 96 80.5625 L 95.851562 81.882812 L 95.703125 82.398438 L 95.042969 83.207031 L 94.746094 83.425781 L 94.523438 83.574219 L 94.746094 83.574219 L 95.335938 83.5 L 95.632812 83.5 L 96.8125 83.425781 L 97.695312 83.425781 C 98.582031 83.523438 99.246094 83.867188 99.6875 84.457031 C 100.179688 85.089844 99.882812 85.949219 98.800781 87.027344 L 97.179688 88.421875 L 96.738281 88.714844 L 95.261719 89.671875 L 94.597656 90.109375 L 94.304688 90.332031 L 93.789062 90.625 L 92.535156 91.359375 L 92.019531 91.652344 L 91.796875 91.726562 L 91.945312 91.945312 L 92.386719 92.242188 L 93.492188 92.828125 M 101.675781 53.3125 L 100.425781 50.375 L 99.171875 48.539062 C 100.203125 49.960938 101.039062 51.550781 101.675781 53.3125 M 91.132812 60.878906 L 88.109375 60.144531 C 88.652344 62.25 89.90625 64.601562 91.871094 67.195312 C 94.820312 66.707031 97.230469 67.269531 99.097656 68.882812 L 99.835938 68.296875 C 101.015625 67.21875 101.703125 65.457031 101.898438 63.007812 C 98.261719 62.46875 94.671875 61.757812 91.132812 60.878906 M 90.984375 67.414062 C 89.117188 64.867188 87.816406 62.519531 87.078125 60.363281 C 84.621094 62.027344 81.867188 63.03125 78.820312 63.375 C 75.773438 63.71875 73.585938 63.105469 72.257812 61.539062 L 70.265625 61.980469 L 70.195312 62.054688 L 69.234375 64.332031 L 78.007812 73.585938 L 84.644531 79.679688 L 84.570312 78.285156 L 83.171875 78.136719 C 82.925781 78.089844 82.777344 77.917969 82.726562 77.625 L 80.664062 72.996094 C 79.976562 71.183594 80.34375 69.667969 81.769531 68.445312 C 82.261719 68.050781 83.023438 67.855469 84.054688 67.855469 L 87.59375 67.929688 L 90.984375 67.414062 M 81.546875 58.234375 L 82.949219 57.5 L 85.75 57.28125 C 86.636719 57.964844 87.691406 58.503906 88.921875 58.894531 C 89.707031 59.1875 90.863281 59.507812 92.386719 59.851562 L 101.382812 61.90625 L 101.972656 62.054688 L 101.972656 61.390625 C 101.972656 58.796875 101.578125 56.324219 100.792969 53.972656 C 99.613281 50.351562 97.621094 47.484375 94.820312 45.378906 C 91.921875 43.273438 88.578125 42.296875 84.792969 42.441406 L 76.09375 42.808594 C 73.09375 43.105469 70.613281 43.667969 68.644531 44.5 L 69.898438 45.234375 C 70.980469 46.261719 72.011719 47.609375 72.996094 49.273438 L 74.324219 51.84375 C 76.386719 53.3125 77.789062 54.585938 78.523438 55.664062 C 79.113281 56.59375 79.335938 57.351562 79.1875 57.941406 L 78.894531 58.601562 L 79.632812 58.382812 L 81.328125 58.085938 L 81.546875 58.234375 M 84.203125 58.234375 L 82.359375 58.601562 L 80.664062 59.554688 L 80 59.703125 C 79.65625 59.703125 79.558594 59.582031 79.703125 59.335938 L 78.304688 59.851562 L 77.125 60.144531 C 77.125 60.828125 76.902344 61.125 76.460938 61.023438 L 75.503906 60.4375 L 73.511719 61.171875 L 74.394531 61.613281 L 78.007812 61.832031 C 81.007812 61.390625 83.589844 60.488281 85.75 59.117188 L 85.382812 58.894531 L 84.203125 58.234375 M 96.367188 69.105469 L 95.113281 68.738281 L 92.609375 68.8125 C 92.410156 68.859375 92.191406 68.761719 91.945312 68.515625 L 91.503906 68.589844 L 89.878906 69.179688 L 88.035156 69.546875 L 85.972656 69.472656 C 83.761719 68.785156 82.582031 69.984375 82.433594 73.070312 L 84.496094 76.816406 L 84.351562 72.703125 C 84.300781 72.3125 84.546875 72.042969 85.085938 71.894531 C 85.578125 71.75 85.921875 71.847656 86.121094 72.1875 C 86.957031 73.660156 87.101562 75.101562 86.5625 76.523438 L 86.339844 77.035156 L 86.339844 77.257812 C 86.390625 79.65625 86.734375 81.175781 87.375 81.8125 L 87.742188 82.105469 C 88.28125 82.351562 89.019531 82.105469 89.953125 81.371094 C 90.347656 81.078125 90.765625 81.078125 91.207031 81.371094 L 92.902344 82.617188 C 93.542969 82.960938 93.960938 82.960938 94.15625 82.617188 L 94.304688 81.882812 L 94.304688 79.460938 C 94.351562 79.117188 94.574219 78.875 94.96875 78.726562 L 96 78.800781 C 97.128906 79.730469 98.039062 79.140625 98.726562 77.035156 C 99.21875 75.46875 99.441406 74.074219 99.390625 72.851562 C 99.292969 71.085938 98.285156 69.839844 96.367188 69.105469 M 113.402344 72.554688 L 112.367188 71.675781 C 112.417969 74.90625 111.753906 77.941406 110.378906 80.78125 C 109.199219 83.28125 107.527344 85.898438 105.363281 88.640625 L 99.246094 95.839844 L 98.582031 96.28125 L 97.769531 96.28125 L 93.714844 94.589844 L 93.640625 95.03125 C 89.855469 98.65625 86.980469 102.351562 85.015625 106.121094 C 83.589844 108.765625 82.777344 111.042969 82.582031 112.953125 C 82.382812 114.519531 82.554688 115.914062 83.097656 117.140625 C 83.539062 118.019531 84.152344 118.804688 84.941406 119.488281 C 87.445312 121.691406 90.984375 123.601562 95.558594 125.21875 C 98.113281 126.148438 101.949219 127.398438 107.058594 128.964844 L 107.207031 128.964844 L 107.648438 129.847656 C 109.664062 130.433594 111.703125 130.679688 113.769531 130.582031 C 116.226562 130.53125 118.539062 130.015625 120.699219 129.039062 L 121.289062 128.746094 L 121.4375 128.816406 L 121.214844 127.863281 C 120.234375 124.875 117.875 122.132812 114.136719 119.636719 L 109.933594 117.140625 L 104.257812 114.421875 C 102.585938 115.351562 100.890625 116.085938 99.171875 116.625 L 98.726562 115.890625 C 98.53125 115.304688 98.53125 114.984375 98.726562 114.9375 C 101.675781 113.957031 104.652344 112.4375 107.648438 110.382812 C 110.351562 108.472656 112.859375 106.269531 115.171875 103.773438 C 121.460938 97.015625 123.429688 90.378906 121.070312 83.867188 C 119.59375 79.851562 117.039062 76.082031 113.402344 72.554688 M 95.1875 87.394531 L 95.703125 86.953125 L 95.925781 86.804688 L 96.441406 86.4375 L 97.03125 85.925781 L 97.546875 85.558594 L 97.992188 85.117188 L 98.433594 84.675781 L 96.296875 84.675781 L 95.335938 84.824219 L 94.820312 84.894531 L 94.082031 85.042969 L 92.753906 85.117188 L 92.09375 85.117188 L 91.28125 84.96875 C 90.9375 84.871094 90.496094 84.652344 89.953125 84.308594 L 88.847656 83.574219 L 87.890625 83.792969 C 86.613281 84.039062 85.726562 83.574219 85.234375 82.398438 L 84.644531 80.121094 L 82.136719 77.769531 C 77.664062 73.660156 73.167969 69.179688 68.644531 64.332031 C 69.382812 67.414062 71.375 71.308594 74.617188 76.007812 C 77.617188 80.414062 81.230469 84.285156 85.457031 87.613281 L 87.59375 89.230469 L 87.519531 88.789062 C 87.472656 88.25 87.570312 87.957031 87.816406 87.90625 C 88.308594 87.859375 88.972656 88.25 89.804688 89.082031 L 90.839844 90.332031 L 91.058594 90.257812 L 91.574219 89.890625 L 92.753906 89.15625 L 93.273438 88.789062 L 93.566406 88.566406 L 94.082031 88.273438 L 94.746094 87.6875 L 95.1875 87.394531 M 89.585938 83.207031 C 90.125 83.453125 90.714844 83.621094 91.355469 83.71875 L 90.25 82.839844 L 89.585938 83.207031 M 78.007812 91.652344 L 77.933594 91.210938 L 77.933594 90.84375 L 79.558594 90.109375 L 81.105469 89.742188 L 82.359375 91.066406 L 83.023438 92.09375 L 83.539062 91.945312 L 83.316406 91.578125 L 82.136719 90.039062 C 81.648438 89.546875 81.082031 89.375 80.441406 89.523438 L 77.566406 90.699219 C 77.027344 91.039062 76.902344 91.507812 77.199219 92.09375 L 78.15625 93.5625 L 78.597656 94.148438 L 78.671875 94.148438 L 79.484375 94.003906 L 78.007812 91.652344 M 78.15625 89.300781 L 80.148438 88.566406 L 80.222656 88.566406 L 81.695312 88.863281 L 80.589844 87.761719 L 77.566406 84.601562 L 76.683594 83.71875 L 74.46875 81.445312 L 67.6875 74.394531 L 65.476562 71.601562 L 63.261719 69.03125 L 58.394531 66.828125 L 53.824219 65.578125 L 53.234375 65.652344 L 52.351562 65.652344 L 52.128906 66.3125 L 52.203125 66.605469 L 53.015625 66.535156 L 53.085938 66.605469 L 53.234375 66.605469 L 54.5625 67.269531 C 58.640625 70.15625 61.617188 73.339844 63.484375 76.816406 L 68.277344 85.925781 L 70.046875 88.347656 C 70.339844 88.25 70.585938 88.347656 70.785156 88.640625 L 70.855469 88.789062 L 72.847656 91.210938 L 73.953125 92.242188 C 74.445312 92.632812 74.9375 92.976562 75.429688 93.269531 L 75.796875 93.488281 C 75.847656 92.949219 76.117188 92.902344 76.609375 93.34375 L 77.34375 94.078125 L 78.082031 94.148438 L 77.566406 93.488281 L 76.683594 92.09375 C 76.4375 91.507812 76.386719 91.015625 76.535156 90.625 L 78.15625 89.300781 M 87.445312 91.875 L 88.257812 91.578125 L 83.464844 88.199219 L 81.179688 86.292969 L 81.328125 86.4375 C 83.589844 88.738281 85.628906 90.550781 87.445312 91.875 M 90.839844 93.34375 L 91.058594 93.195312 L 90.101562 92.679688 L 89.953125 92.753906 L 90.324219 93.269531 L 90.542969 93.414062 L 90.839844 93.34375 M 85.308594 94.371094 L 84.71875 94.515625 L 85.382812 95.398438 L 86.339844 97.089844 L 86.339844 97.675781 L 84.941406 98.335938 L 83.464844 98.777344 L 83.023438 98.703125 L 83.171875 98.777344 L 82.949219 98.703125 C 82.800781 98.703125 82.703125 98.65625 82.65625 98.558594 L 81.769531 97.308594 L 82.066406 97.457031 L 81.992188 97.308594 L 80.664062 95.621094 L 80.589844 95.621094 L 79.851562 95.765625 L 79.703125 95.839844 L 80.738281 97.234375 L 81.917969 98.777344 C 82.457031 99.316406 83.023438 99.464844 83.613281 99.21875 L 85.085938 98.703125 L 86.488281 98.042969 C 87.078125 97.699219 87.226562 97.234375 86.929688 96.648438 L 85.898438 95.179688 L 85.308594 94.371094 M 88.035156 93.636719 L 85.898438 94.445312 L 86.488281 95.253906 L 87.375 96.648438 C 87.617188 97.234375 87.667969 97.726562 87.519531 98.117188 L 86.636719 99.144531 L 87.300781 99.292969 L 87.519531 99.511719 C 88.945312 97.699219 90.617188 95.863281 92.535156 94.003906 L 92.09375 93.78125 L 92.019531 93.855469 C 91.773438 94.394531 91.402344 94.664062 90.914062 94.664062 L 90.25 94.296875 L 89.804688 93.5625 L 89.4375 93.046875 L 88.035156 93.636719 M 89.660156 90.039062 L 88.773438 89.449219 C 88.28125 89.15625 88.0625 89.15625 88.109375 89.449219 L 88.183594 89.597656 L 90.027344 90.773438 L 90.25 90.699219 L 89.660156 90.039062 M 79.925781 93.929688 L 81.992188 93.34375 L 82.066406 93.34375 L 82.066406 93.269531 L 82.65625 93.046875 L 82.65625 92.3125 L 82.285156 91.800781 L 81.03125 90.699219 L 78.523438 91.726562 L 79.851562 93.78125 L 79.925781 93.929688 M 78.304688 96.28125 L 78.082031 95.914062 L 76.902344 95.691406 L 76.683594 95.621094 L 77.640625 97.457031 L 78.007812 98.117188 L 78.671875 98.117188 L 79.1875 97.894531 L 78.304688 96.28125 M 79.261719 95.914062 L 79.1875 95.914062 L 79.335938 95.988281 L 81.179688 98.558594 L 79.632812 97.675781 L 79.777344 98.410156 C 79.828125 98.800781 79.632812 99.097656 79.1875 99.292969 C 78.746094 99.488281 78.402344 99.488281 78.15625 99.292969 L 78.082031 99.292969 L 78.007812 99.144531 L 77.863281 98.925781 L 77.714844 98.628906 L 74.394531 102.449219 C 72.921875 104.652344 72.160156 106.785156 72.109375 108.839844 C 72.0625 111.484375 73.191406 113.515625 75.503906 114.9375 C 77.320312 116.0625 79.582031 116.648438 82.285156 116.699219 C 81.105469 113.125 81.71875 109.109375 84.128906 104.652344 L 86.636719 100.6875 L 84.570312 100.027344 L 83.90625 100.171875 C 83.171875 100.320312 82.53125 100.125 81.992188 99.585938 L 80.738281 97.894531 L 79.261719 95.914062 M 84.203125 94.664062 L 83.6875 94.882812 L 83.171875 94.957031 L 81.179688 95.472656 L 81.84375 96.355469 L 82.507812 97.382812 C 82.800781 97.726562 83.144531 97.824219 83.539062 97.675781 L 85.824219 96.792969 L 85.234375 95.914062 L 84.277344 94.664062 L 84.203125 94.664062 M 83.835938 93.78125 L 83.980469 93.710938 L 83.539062 93.78125 L 83.023438 94.003906 L 83.390625 93.929688 L 83.835938 93.78125 M 84.425781 93.195312 L 84.054688 92.976562 L 84.277344 93.414062 L 84.425781 93.929688 L 84.425781 93.195312 M 84.054688 91.726562 L 84.351562 91.578125 L 84.570312 91.507812 L 82.507812 89.671875 L 83.390625 90.84375 L 84.054688 91.726562 M 126.304688 112.804688 L 124.019531 109.722656 C 122.199219 107.519531 120.0625 105.363281 117.605469 103.257812 L 116.941406 104.066406 C 114.433594 106.90625 111.753906 109.378906 108.902344 111.484375 L 105.804688 113.613281 C 108.3125 114.738281 110.476562 115.867188 112.296875 116.992188 L 112.296875 116.773438 C 113.375 114.570312 113.648438 112.535156 113.105469 110.675781 C 113.007812 110.1875 113.03125 109.917969 113.179688 109.867188 L 113.621094 110.527344 L 113.917969 111.703125 L 116.941406 114.347656 L 120.699219 116.699219 L 121.878906 117.140625 L 123.722656 117.359375 L 125.34375 117.140625 L 126.523438 116.332031 C 127.214844 115.5 127.140625 114.324219 126.304688 112.804688 M 97.476562 133.664062 L 95.113281 134.621094 L 93.050781 136.015625 C 92.753906 136.40625 92.632812 136.726562 92.683594 136.96875 L 93.566406 137.632812 C 95.089844 138.464844 97.15625 138.976562 99.761719 139.175781 L 103.964844 139.394531 C 105.683594 139.394531 106.984375 139.074219 107.871094 138.441406 L 110.082031 136.824219 C 111.164062 136.234375 111.949219 136.136719 112.441406 136.53125 L 112.957031 137.335938 L 113.328125 138.367188 L 115.6875 138.585938 L 118.414062 137.777344 C 119.988281 137.289062 121.09375 136.433594 121.734375 135.207031 C 122.371094 133.886719 122.25 132.488281 121.363281 131.019531 L 121.214844 130.726562 C 119.054688 131.65625 116.769531 132.171875 114.359375 132.269531 C 111.804688 132.367188 109.34375 132 106.984375 131.167969 L 106.691406 130.949219 L 102.488281 132.050781 L 97.476562 133.664062 M 51.464844 5.203125 L 49.402344 3 L 48.8125 2.488281 C 47.632812 1.65625 46.453125 1.261719 45.273438 1.3125 L 40.480469 1.898438 L 35.6875 2.632812 L 30.597656 3.222656 L 25.660156 4.398438 C 23.839844 5.035156 22.710938 5.792969 22.265625 6.671875 L 21.605469 9.171875 L 21.234375 11.742188 L 19.90625 18.058594 C 19.515625 19.773438 19.515625 21.609375 19.90625 23.566406 L 21.015625 27.753906 C 23.027344 26.871094 25.363281 25.625 28.019531 24.007812 C 29.640625 23.027344 32 21.535156 35.097656 19.527344 L 43.207031 14.828125 C 46.304688 13.210938 49.15625 11.960938 51.761719 11.082031 L 55.964844 9.980469 L 54.339844 8.214844 L 52.644531 6.453125 L 51.464844 5.203125 M 56.996094 30.910156 L 56.921875 30.910156 L 56.332031 30.398438 L 56.699219 29.957031 L 58.839844 30.25 L 60.238281 30.910156 L 61.050781 31.644531 L 60.3125 31.71875 L 58.617188 31.058594 L 56.996094 30.910156 M 53.308594 24.742188 L 53.605469 24.226562 L 53.824219 24.152344 L 57.804688 24.960938 C 59.625 25.648438 61.320312 26.601562 62.894531 27.828125 C 61.714844 25.722656 59.820312 24.351562 57.214844 23.714844 L 52.792969 23.199219 C 52.398438 23.199219 52.203125 23.050781 52.203125 22.757812 L 52.351562 22.316406 L 53.085938 20.921875 C 50.433594 20.972656 47.777344 21.386719 45.125 22.171875 C 41.289062 23.347656 37.160156 25.328125 32.738281 28.121094 L 28.019531 31.351562 L 27.945312 31.425781 L 27.648438 32.746094 C 27.257812 33.972656 26.640625 34.902344 25.804688 35.539062 C 25.707031 38.625 26.003906 41.464844 26.691406 44.058594 L 27.132812 45.675781 L 27.207031 45.820312 L 27.28125 46.042969 C 28.953125 50.988281 31.902344 55.074219 36.128906 58.308594 C 40.601562 61.636719 45.371094 63.058594 50.433594 62.566406 L 51.023438 62.496094 L 51.023438 62.421875 L 51.246094 62.496094 C 53.703125 62.152344 55.742188 61.515625 57.363281 60.585938 L 58.691406 59.703125 L 59.429688 59.1875 L 59.574219 59.117188 C 59.722656 59.261719 59.402344 59.777344 58.617188 60.65625 C 57.832031 61.492188 57.191406 62.054688 56.699219 62.347656 L 56.554688 62.421875 C 57.242188 62.46875 58.003906 62.25 58.839844 61.757812 C 60.65625 60.730469 62.179688 59.066406 63.410156 56.765625 L 64.222656 55.074219 L 64.148438 50.816406 C 63.410156 52.136719 62.648438 53.019531 61.863281 53.460938 L 61.34375 53.535156 L 61.417969 52.871094 C 62.796875 50.226562 63.65625 47.289062 64 44.058594 L 64.148438 40.679688 L 64.664062 40.460938 C 66.53125 39.382812 67.34375 37.765625 67.097656 35.613281 C 67 34.730469 66.753906 34.019531 66.359375 33.480469 L 66.136719 33.261719 L 65.621094 32.675781 C 65.03125 32.183594 64.269531 31.890625 63.335938 31.792969 L 62.96875 31.425781 L 64.296875 31.132812 L 63.851562 30.542969 L 63.632812 30.398438 L 63.261719 30.105469 L 61.714844 29.367188 L 58.25 27.972656 L 55.964844 27.679688 C 55.519531 27.679688 55.25 27.558594 55.152344 27.3125 C 55.003906 27.066406 55.027344 26.871094 55.226562 26.726562 L 55.375 26.726562 L 58.46875 27.019531 C 60.042969 27.410156 61.640625 28.195312 63.261719 29.367188 L 63.558594 29.222656 L 63.410156 28.78125 L 61.050781 27.3125 L 57.585938 25.84375 L 55.003906 25.257812 L 53.75 25.035156 L 53.308594 24.742188 M 54.339844 20.921875 L 53.824219 22.246094 L 57.585938 22.90625 C 59.648438 23.445312 61.394531 24.546875 62.820312 26.210938 C 62.671875 24.988281 62.351562 23.664062 61.863281 22.246094 C 59.453125 21.414062 56.945312 20.972656 54.339844 20.921875 M 64.222656 23.199219 L 64.074219 23.125 L 64.148438 23.347656 L 64.148438 23.492188 L 64.367188 25.917969 L 64.222656 27.019531 L 64.148438 27.386719 L 64.222656 27.828125 L 64.367188 28.046875 L 64.738281 28.339844 L 64.8125 28.414062 L 65.621094 27.605469 C 66.605469 26.527344 66.828125 25.574219 66.285156 24.742188 C 65.84375 24.152344 65.15625 23.640625 64.222656 23.199219 M 30.378906 87.980469 C 29 87.589844 27.871094 87.097656 26.984375 86.511719 C 26.789062 87.980469 27.28125 89.132812 28.460938 89.964844 C 29.542969 90.648438 30.941406 90.992188 32.664062 90.992188 C 34.582031 90.992188 35.835938 90.527344 36.425781 89.597656 C 36.769531 89.058594 36.914062 88.640625 36.867188 88.347656 C 36.816406 88.054688 36.523438 87.832031 35.980469 87.6875 L 35.6875 87.464844 C 35.34375 87.808594 34.875 88.054688 34.285156 88.199219 L 30.378906 87.980469 M 35.539062 85.558594 C 36.375 84.332031 35.957031 83.425781 34.285156 82.839844 L 31.410156 82.765625 C 29.933594 82.277344 28.753906 81.6875 27.871094 81.003906 L 27.648438 80.78125 C 26.863281 80.832031 26.199219 81.199219 25.660156 81.882812 C 25.019531 82.667969 25.042969 83.378906 25.734375 84.015625 C 26.960938 85.191406 28.558594 85.996094 30.523438 86.4375 C 33.03125 87.027344 34.703125 86.730469 35.539062 85.558594 M 34.949219 81.664062 L 35.097656 81.738281 L 35.023438 81.589844 L 35.023438 81.515625 L 34.949219 81.664062 M 33.179688 78.433594 C 32.933594 78.433594 32.761719 78.164062 32.664062 77.625 L 32.738281 76.742188 C 33.425781 76.792969 33.992188 77.109375 34.433594 77.699219 L 34.875 76.449219 L 31.777344 76.082031 L 28.386719 76.667969 C 26.714844 77.257812 26.273438 77.96875 27.058594 78.800781 L 27.355469 79.09375 L 27.574219 79.3125 C 28.164062 79.804688 28.828125 80.21875 29.566406 80.5625 L 32.515625 81.296875 L 33.917969 81.003906 C 34.210938 80.757812 34.359375 80.316406 34.359375 79.679688 C 34.359375 79.339844 34.238281 79.042969 33.992188 78.800781 L 33.179688 78.433594 M 35.613281 77.769531 C 35.070312 78.554688 35.023438 79.632812 35.464844 81.003906 C 35.90625 82.375 36.570312 83.28125 37.457031 83.71875 L 39.667969 83.648438 C 40.160156 83.15625 40.40625 82.398438 40.40625 81.371094 C 40.355469 80.832031 40.453125 80.757812 40.699219 81.148438 L 41.070312 82.105469 L 40.996094 84.015625 C 40.847656 84.796875 40.503906 85.3125 39.964844 85.558594 L 38.488281 85.703125 L 37.160156 84.96875 L 36.792969 84.601562 L 36.71875 85.484375 L 36.496094 86.4375 L 37.234375 87.320312 C 37.628906 87.957031 37.777344 88.640625 37.675781 89.375 C 37.53125 90.746094 36.867188 91.703125 35.6875 92.242188 L 35.390625 92.3125 L 36.570312 92.535156 C 37.800781 92.632812 39.054688 92.410156 40.332031 91.875 C 42.003906 90.601562 43.257812 89.105469 44.09375 87.394531 C 44.683594 86.316406 45.027344 85.261719 45.125 84.234375 L 44.976562 83.71875 C 45.074219 82.351562 44.78125 81.003906 44.09375 79.679688 C 43.402344 78.308594 42.445312 77.332031 41.214844 76.742188 C 40.28125 76.203125 39.273438 76.03125 38.195312 76.230469 C 37.0625 76.375 36.203125 76.890625 35.613281 77.769531 M 71.816406 92.976562 L 72.480469 94.882812 L 73.4375 97.894531 L 74.394531 99.878906 L 75.945312 98.042969 L 74.984375 96.207031 L 73.363281 94.222656 L 71.816406 92.976562 M 61.125 75.566406 C 60.339844 74.34375 59.207031 73.046875 57.734375 71.675781 L 53.605469 68.445312 L 52.71875 68.515625 L 52.277344 69.691406 L 52.425781 72.117188 L 52.425781 74.539062 L 52.351562 74.90625 L 55.003906 81.296875 L 55.667969 82.765625 L 56.109375 83.648438 L 58.25 84.824219 L 61.125 87.027344 L 61.417969 88.054688 C 61.519531 88.59375 61.46875 88.765625 61.273438 88.566406 L 58.839844 86.660156 L 56.625 85.628906 L 56.183594 85.191406 L 53.824219 84.234375 C 51.269531 83.304688 48.539062 82.742188 45.640625 82.546875 C 45.984375 84.40625 45.761719 86.316406 44.976562 88.273438 C 44.191406 90.085938 43.011719 91.675781 41.4375 93.046875 C 43.601562 95.300781 46.179688 97.0625 49.179688 98.335938 C 52.867188 99.855469 56.40625 100.320312 59.796875 99.730469 C 62.648438 99.195312 65.03125 97.894531 66.949219 95.839844 C 68.03125 94.714844 68.839844 93.441406 69.382812 92.019531 C 68.988281 91.039062 68.867188 90.257812 69.015625 89.671875 L 66.433594 85.925781 L 63.851562 80.710938 C 62.820312 78.554688 61.910156 76.839844 61.125 75.566406 M 74.839844 84.234375 L 75.132812 84.160156 L 75.503906 84.015625 L 75.574219 83.941406 L 75.207031 84.015625 L 74.839844 84.234375 M 74.617188 83.5 L 74.984375 83.28125 L 75.355469 83.207031 L 75.796875 83.792969 L 75.871094 84.457031 L 75.355469 84.894531 C 74.667969 84.992188 74.25 84.824219 74.101562 84.382812 L 74.101562 83.648438 L 74.617188 83.5 M 69.160156 77.183594 L 68.792969 77.402344 L 69.085938 77.332031 L 69.457031 77.183594 L 69.53125 77.109375 L 69.160156 77.183594 M 68.570312 76.667969 L 68.941406 76.449219 L 69.308594 76.375 L 69.75 76.964844 L 69.824219 77.625 L 69.308594 78.066406 C 68.621094 78.164062 68.203125 77.992188 68.054688 77.550781 L 68.054688 76.816406 L 68.570312 76.667969 M 72.480469 59.703125 L 72.554688 59.777344 L 72.847656 59.703125 L 72.480469 59.703125 M 65.546875 62.714844 L 65.402344 62.714844 L 65.546875 66.753906 C 65.597656 67.929688 65.867188 69.128906 66.359375 70.351562 L 66.433594 70.425781 L 68.644531 73.21875 L 75.355469 80.269531 L 75.945312 80.855469 L 72.480469 76.15625 L 68.425781 69.105469 C 67.246094 66.558594 66.628906 64.402344 66.582031 62.640625 L 65.546875 62.714844 M 74.839844 53.019531 L 75.207031 53.902344 L 76.609375 57.792969 L 76.683594 58.015625 C 78.109375 57.132812 78.28125 56.078125 77.199219 54.855469 L 74.839844 53.019531 M 56.40625 64.550781 L 58.324219 65.210938 L 63.558594 67.414062 C 63.703125 67.414062 63.878906 67.511719 64.074219 67.707031 L 64.957031 68.589844 C 64.515625 67.269531 64.269531 65.847656 64.222656 64.332031 L 64.148438 58.894531 C 62.917969 60.757812 61.320312 62.25 59.355469 63.375 C 58.371094 63.964844 57.386719 64.355469 56.40625 64.550781 M 49.695312 65.578125 L 49.105469 65.652344 C 47.632812 66.09375 47.1875 67.269531 47.777344 69.179688 L 49.03125 73.292969 L 49.546875 76.007812 C 50.136719 75.519531 50.53125 74.832031 50.726562 73.953125 C 50.828125 73.363281 50.777344 72.042969 50.582031 69.984375 C 50.53125 69.300781 50.753906 68.542969 51.246094 67.707031 L 49.992188 66.3125 L 49.695312 65.578125 M 56.996094 40.019531 C 57.191406 39.480469 57.242188 38.597656 57.144531 37.375 C 57.09375 36.199219 56.996094 35.613281 56.847656 35.613281 C 56.945312 35.320312 57.414062 35.785156 58.25 37.007812 C 59.085938 38.230469 59.402344 39.308594 59.207031 40.238281 C 59.160156 41.070312 58.886719 41.78125 58.394531 42.371094 C 57.90625 42.90625 57.535156 43.078125 57.289062 42.882812 L 56.921875 41.78125 L 56.996094 40.019531 M 54.785156 33.410156 C 55.375 34.191406 55.59375 34.902344 55.445312 35.539062 C 55.398438 36.125 55.226562 36.589844 54.929688 36.933594 C 54.636719 37.277344 54.390625 37.375 54.195312 37.226562 C 53.949219 37.128906 53.875 36.519531 53.972656 35.390625 L 54.121094 33.628906 L 53.898438 32.453125 L 54.785156 33.410156 M 60.3125 33.335938 C 60.511719 33.679688 60.484375 33.921875 60.238281 34.070312 L 59.574219 33.921875 L 58.765625 33.480469 L 58.101562 33.335938 L 57.734375 32.894531 L 58.175781 32.453125 L 59.28125 32.675781 L 60.3125 33.335938 M 69.382812 45.746094 C 68.792969 45.847656 68.25 46.1875 67.761719 46.777344 C 68.792969 48.050781 70.390625 49.347656 72.554688 50.667969 L 73.4375 51.257812 L 72.996094 50.300781 C 71.519531 47.117188 70.316406 45.601562 69.382812 45.746094 M 69.015625 48.539062 L 67.539062 47.070312 L 67.023438 48.023438 L 69.824219 51.402344 C 71.003906 53.066406 71.765625 54.78125 72.109375 56.542969 L 72.257812 57.71875 L 73.878906 58.601562 L 74.839844 58.675781 L 75.28125 58.75 L 76.019531 58.453125 L 75.871094 57.941406 L 75.355469 56.25 L 73.878906 52.359375 L 73.363281 51.992188 L 69.015625 48.539062 M 66.800781 48.613281 L 66.582031 49.347656 L 65.84375 54.339844 L 65.476562 60.070312 L 65.476562 61.246094 L 66.726562 61.097656 L 67.464844 60.585938 L 67.539062 60.511719 L 67.761719 60.4375 L 69.457031 59.921875 L 69.457031 59.851562 L 71.003906 57.941406 L 70.929688 57.28125 L 70.636719 55.296875 L 69.015625 51.402344 C 68.277344 49.984375 67.539062 49.054688 66.800781 48.613281 M 44.535156 56.691406 L 44.828125 56.398438 L 47.335938 54.636719 L 48 54.414062 L 48.441406 54.636719 L 48.589844 55.222656 L 48.296875 55.738281 C 47.703125 56.375 47.066406 56.742188 46.378906 56.839844 L 44.902344 56.839844 C 44.707031 56.839844 44.582031 56.789062 44.535156 56.691406 M 24.554688 36.199219 L 23.003906 36.273438 L 21.972656 38.402344 L 22.488281 39.210938 L 24.773438 40.902344 L 24.554688 36.199219 M 26.617188 32.527344 L 26.617188 32.453125 L 23.742188 35.246094 L 23.59375 35.539062 C 23.890625 35.488281 24.207031 35.367188 24.554688 35.171875 C 25.488281 34.632812 26.175781 33.75 26.617188 32.527344 M 42.542969 49.125 C 42.9375 48.929688 43.402344 49.027344 43.945312 49.421875 C 44.4375 49.8125 44.878906 50.398438 45.273438 51.183594 C 45.617188 51.917969 45.789062 52.601562 45.789062 53.238281 C 45.789062 53.875 45.589844 54.292969 45.199219 54.488281 C 44.855469 54.683594 44.410156 54.585938 43.871094 54.195312 L 42.542969 52.433594 L 42.027344 50.375 C 42.027344 49.738281 42.199219 49.324219 42.542969 49.125 M 33.179688 40.972656 C 33.476562 41.609375 33.597656 42.199219 33.546875 42.738281 C 33.546875 43.273438 33.375 43.617188 33.03125 43.765625 C 32.6875 43.960938 32.296875 43.886719 31.851562 43.542969 C 31.410156 43.25 31.042969 42.785156 30.746094 42.148438 C 30.402344 41.511719 30.253906 40.925781 30.304688 40.386719 C 30.304688 39.847656 30.476562 39.480469 30.820312 39.285156 L 32 39.503906 L 33.179688 40.972656 M 33.03125 34.070312 C 33.523438 34.265625 33.5 34.414062 32.957031 34.511719 L 30.082031 35.097656 L 29.417969 34.949219 L 29.125 34.363281 L 29.050781 33.628906 L 29.273438 33.042969 L 29.863281 33.042969 L 33.03125 34.070312 M 38.710938 37.523438 L 38.929688 40.238281 L 38.929688 43.542969 L 39.003906 44.058594 L 39.59375 44.644531 L 41.585938 45.601562 L 41.953125 45.96875 L 41.734375 46.410156 C 41.289062 47.09375 40.726562 47.289062 40.035156 46.996094 L 37.457031 45.675781 C 37.015625 45.429688 36.839844 45.0625 36.941406 44.574219 L 37.085938 44.058594 C 37.480469 42.101562 37.703125 40.679688 37.75 39.796875 L 37.75 37.667969 L 37.675781 36.566406 L 37.972656 35.6875 C 38.21875 35.636719 38.390625 35.832031 38.488281 36.273438 L 38.710938 37.523438 M 44.609375 32.011719 L 45.789062 32.234375 L 46.894531 33.628906 C 47.1875 34.265625 47.335938 34.851562 47.335938 35.390625 C 47.289062 35.980469 47.113281 36.347656 46.820312 36.492188 L 45.566406 36.273438 C 45.125 35.929688 44.753906 35.441406 44.460938 34.804688 L 44.019531 33.113281 C 44.066406 32.527344 44.265625 32.160156 44.609375 32.011719 M 42.46875 25.550781 L 42.839844 25.109375 L 43.355469 25.109375 L 45.273438 26.285156 C 46.550781 27.214844 47.164062 28 47.113281 28.632812 L 45.933594 28.339844 L 44.238281 27.828125 L 42.691406 27.53125 L 41.953125 27.386719 L 42.101562 26.359375 L 42.46875 25.550781 M 36.71875 4.175781 C 36.867188 4.128906 37.039062 4.226562 37.234375 4.46875 L 37.382812 4.765625 C 34.335938 5.449219 31.949219 6.207031 30.230469 7.039062 C 28.117188 8.019531 27.28125 8.878906 27.722656 9.613281 C 27.96875 10.050781 29 10.273438 30.820312 10.273438 L 44.3125 9.246094 L 44.902344 9.832031 L 37.824219 10.640625 L 33.179688 11.007812 C 31.3125 11.054688 29.789062 10.835938 28.609375 10.347656 C 27.625 10.003906 27.109375 9.511719 27.058594 8.878906 C 27.109375 8.242188 27.574219 7.628906 28.460938 7.039062 C 30.523438 5.914062 33.277344 4.960938 36.71875 4.175781 M 65.03125 31.207031 L 64.367188 30.839844 L 65.03125 31.277344 L 65.402344 31.574219 L 65.03125 31.207031 "/>
<path style=" stroke:none;fill-rule:nonzero;fill:rgb(16.078431%,16.078431%,16.078431%);fill-opacity:1;" d="M 93.492188 92.828125 L 92.386719 92.242188 L 92.09375 91.726562 L 92.019531 91.652344 L 92.535156 91.359375 L 92.609375 91.433594 L 93.050781 91.507812 L 93.566406 91.066406 L 93.933594 90.84375 L 93.789062 90.625 L 94.304688 90.332031 L 94.453125 90.699219 L 94.304688 92.019531 L 93.492188 92.828125 M 94.597656 90.109375 L 95.261719 89.671875 L 96.738281 88.714844 C 96.835938 89.15625 96.761719 89.570312 96.515625 89.964844 C 96.269531 90.503906 95.925781 90.773438 95.484375 90.773438 C 95.238281 90.773438 95.015625 90.648438 94.820312 90.40625 L 94.597656 90.109375 M 97.179688 88.421875 L 98.800781 87.027344 L 98.582031 87.761719 C 98.335938 88.300781 97.992188 88.566406 97.546875 88.566406 C 97.402344 88.566406 97.277344 88.519531 97.179688 88.421875 M 96.8125 83.425781 L 95.632812 83.5 L 95.410156 83.351562 L 95.042969 83.207031 L 95.703125 82.398438 L 96.367188 82.984375 L 96.8125 83.425781 M 94.746094 83.574219 L 94.523438 83.574219 L 94.746094 83.425781 L 94.746094 83.574219 M 95.1875 87.394531 L 94.820312 86.804688 L 94.15625 86.144531 L 93.273438 85.558594 C 92.78125 85.261719 92.558594 85.261719 92.609375 85.558594 C 92.707031 86.09375 93.125 86.902344 93.863281 87.980469 L 94.082031 88.273438 L 93.566406 88.566406 L 93.125 87.90625 L 92.238281 85.851562 L 92.09375 85.117188 L 92.753906 85.117188 L 94.082031 85.042969 L 94.304688 85.191406 L 95.703125 86.953125 L 95.1875 87.394531 M 95.925781 86.804688 L 95.1875 85.628906 L 94.820312 84.894531 L 95.335938 84.824219 L 95.925781 85.777344 L 96.441406 86.4375 L 95.925781 86.804688 M 96.957031 84.675781 L 97.695312 84.675781 L 97.992188 85.117188 L 97.546875 85.558594 L 96.957031 84.675781 M 92.753906 89.15625 L 92.535156 88.863281 L 91.871094 88.199219 L 91.058594 87.613281 C 90.519531 87.320312 90.273438 87.320312 90.324219 87.613281 C 90.46875 88.152344 90.886719 88.910156 91.574219 89.890625 L 91.058594 90.257812 L 90.839844 89.964844 L 90.027344 87.90625 C 89.683594 86.730469 89.707031 86.121094 90.101562 86.070312 C 90.496094 86.023438 91.160156 86.414062 92.09375 87.246094 L 93.273438 88.789062 L 92.753906 89.15625 "/>
</g>
</svg>
