<?xml version="1.0" encoding="UTF-8"?>
<svg xmlns="http://www.w3.org/2000/svg" xmlns:xlink="http://www.w3.org/1999/xlink" width="128pt" height="131pt" viewBox="0 0 128 131" version="1.1">
<g id="surface1">
<path style=" stroke:none;fill-rule:nonzero;fill:rgb(50.196078%,50.196078%,50.196078%);fill-opacity:1;" d="M 115.402344 111.3125 C 102.21875 124.4375 86.296875 131 67.636719 131 C 48.9375 131 32.996094 124.4375 19.8125 111.3125 C 6.628906 98.1875 0.0351562 82.339844 0.0351562 63.765625 C 0.0351562 45.195312 6.628906 29.34375 19.8125 16.21875 C 27.398438 8.625 35.921875 3.21875 45.375 0 C 34.304688 11.886719 28.769531 26.0625 28.769531 42.53125 C 28.769531 59.90625 34.945312 74.746094 47.300781 87.042969 C 59.65625 99.34375 74.582031 105.492188 92.078125 105.492188 C 105.554688 105.492188 117.515625 101.839844 127.964844 94.535156 C 124.773438 100.5625 120.585938 106.152344 115.402344 111.3125 "/>
</g>
</svg>
