<?xml version="1.0" encoding="UTF-8"?>
<svg xmlns="http://www.w3.org/2000/svg" xmlns:xlink="http://www.w3.org/1999/xlink" width="136pt" height="4pt" viewBox="0 0 136 4" version="1.1">
<g id="surface1">
<path style=" stroke:none;fill-rule:nonzero;fill:rgb(100%,100%,100%);fill-opacity:1;" d="M 25.488281 2.480469 L 25.488281 2.992188 C 25.488281 3.617188 25.050781 3.929688 24.175781 3.929688 L 22.566406 3.929688 C 22.101562 3.929688 21.78125 3.851562 21.601562 3.695312 C 21.410156 3.523438 21.3125 3.207031 21.3125 2.746094 L 21.3125 2.253906 C 21.3125 1.46875 21.601562 0.886719 22.175781 0.5 C 22.660156 0.171875 23.3125 0.0078125 24.125 0.0078125 L 24.402344 0.0273438 L 24.925781 0.636719 L 24.679688 0.636719 L 23.242188 0.757812 C 22.695312 0.902344 22.347656 1.191406 22.195312 1.625 L 23.878906 1.492188 C 24.390625 1.492188 24.753906 1.535156 24.964844 1.625 C 25.316406 1.761719 25.488281 2.046875 25.488281 2.480469 M 23.835938 2.117188 L 22.144531 2.199219 L 22.125 2.425781 C 22.125 2.777344 22.171875 3 22.269531 3.097656 C 22.355469 3.191406 22.574219 3.242188 22.914062 3.242188 L 23.980469 3.242188 L 24.464844 3.179688 C 24.601562 3.109375 24.667969 2.980469 24.667969 2.789062 L 24.667969 2.570312 C 24.667969 2.359375 24.578125 2.222656 24.390625 2.160156 L 23.835938 2.117188 M 18.914062 0.757812 L 16.390625 0.757812 L 16.390625 1.582031 L 15.582031 1.4375 L 15.582031 0.101562 L 19.816406 0.101562 L 19.816406 0.71875 L 17.828125 3.992188 L 16.863281 3.992188 L 18.914062 0.757812 M 14.050781 0.304688 C 14.167969 0.429688 14.226562 0.664062 14.226562 1.007812 L 14.226562 3.023438 C 14.226562 3.367188 14.167969 3.605469 14.050781 3.734375 C 13.929688 3.867188 13.695312 3.929688 13.355469 3.929688 L 10.78125 3.929688 C 10.4375 3.929688 10.207031 3.867188 10.082031 3.734375 C 9.964844 3.605469 9.910156 3.367188 9.910156 3.023438 L 9.910156 1.007812 C 9.910156 0.664062 9.964844 0.425781 10.082031 0.296875 C 10.207031 0.164062 10.4375 0.101562 10.78125 0.101562 L 13.355469 0.101562 C 13.695312 0.101562 13.929688 0.167969 14.050781 0.304688 M 13.425781 0.757812 L 10.707031 0.757812 L 10.707031 3.242188 L 13.425781 3.242188 L 13.425781 0.757812 M 8.484375 3.179688 C 8.484375 3.488281 8.410156 3.695312 8.265625 3.796875 C 8.144531 3.886719 7.921875 3.929688 7.601562 3.929688 L 4.398438 3.929688 L 4.398438 3.582031 C 4.398438 3.410156 4.445312 3.269531 4.535156 3.160156 L 4.882812 2.878906 L 7.519531 1.253906 L 7.519531 0.757812 L 5.34375 0.757812 L 5.34375 1.542969 L 4.59375 1.347656 L 4.59375 0.851562 C 4.59375 0.550781 4.667969 0.34375 4.8125 0.234375 C 4.925781 0.144531 5.144531 0.101562 5.46875 0.101562 L 7.425781 0.101562 C 7.742188 0.101562 7.960938 0.144531 8.082031 0.234375 C 8.226562 0.34375 8.296875 0.550781 8.296875 0.851562 L 8.296875 1.097656 C 8.296875 1.304688 8.261719 1.460938 8.183594 1.5625 L 7.796875 1.882812 L 5.558594 3.242188 L 7.773438 3.242188 L 7.773438 2.675781 L 8.484375 2.878906 L 8.484375 3.179688 "/>
<path style=" stroke:none;fill-rule:nonzero;fill:rgb(100%,100%,100%);fill-opacity:1;" d="M 3.539062 2.085938 C 3.539062 2.59375 3.367188 3.011719 3.027344 3.332031 C 2.671875 3.691406 2.25 3.867188 1.765625 3.867188 C 1.285156 3.867188 0.871094 3.695312 0.523438 3.34375 C 0.175781 2.992188 0 2.574219 0 2.085938 C 0 1.601562 0.175781 1.179688 0.523438 0.832031 C 0.859375 0.488281 1.273438 0.316406 1.765625 0.316406 C 2.257812 0.316406 2.675781 0.488281 3.027344 0.832031 C 3.367188 1.1875 3.539062 1.605469 3.539062 2.085938 M 2.863281 0.996094 C 2.5625 0.695312 2.195312 0.542969 1.765625 0.542969 C 1.355469 0.542969 0.996094 0.691406 0.6875 0.984375 C 0.378906 1.308594 0.226562 1.675781 0.226562 2.085938 C 0.226562 2.507812 0.378906 2.871094 0.6875 3.179688 C 0.988281 3.480469 1.347656 3.632812 1.765625 3.632812 C 2.078125 3.632812 2.367188 3.546875 2.625 3.375 C 2.890625 3.183594 3.082031 2.953125 3.191406 2.683594 C 3.265625 2.511719 3.304688 2.3125 3.304688 2.085938 C 3.304688 1.65625 3.15625 1.292969 2.863281 0.996094 M 2.246094 1.65625 C 2.207031 1.402344 2.042969 1.273438 1.753906 1.273438 C 1.5625 1.273438 1.417969 1.367188 1.324219 1.550781 C 1.246094 1.703125 1.210938 1.882812 1.210938 2.085938 C 1.210938 2.308594 1.25 2.488281 1.332031 2.632812 C 1.421875 2.804688 1.570312 2.890625 1.773438 2.890625 C 2.0625 2.890625 2.226562 2.75 2.265625 2.46875 L 2.617188 2.46875 C 2.609375 2.695312 2.515625 2.871094 2.339844 2.992188 C 2.195312 3.109375 2.003906 3.167969 1.765625 3.167969 C 1.449219 3.167969 1.210938 3.0625 1.046875 2.847656 C 0.902344 2.664062 0.832031 2.40625 0.832031 2.078125 C 0.832031 1.773438 0.910156 1.523438 1.066406 1.324219 C 1.238281 1.113281 1.472656 1.007812 1.773438 1.007812 C 1.992188 1.007812 2.179688 1.0625 2.328125 1.171875 C 2.492188 1.28125 2.585938 1.441406 2.605469 1.65625 L 2.246094 1.65625 "/>
<path style=" stroke:none;fill-rule:nonzero;fill:rgb(100%,100%,100%);fill-opacity:1;" d="M 30.71875 3.847656 L 28.523438 0.0195312 L 29.53125 0.0195312 L 31.078125 2.789062 L 32.546875 0.0195312 L 33.429688 0.0195312 L 31.335938 3.847656 L 30.71875 3.847656 "/>
<path style=" stroke:none;fill-rule:nonzero;fill:rgb(100%,100%,100%);fill-opacity:1;" d="M 37.488281 3.847656 L 37.039062 3.015625 L 34.617188 3.015625 L 34.175781 3.847656 L 33.292969 3.847656 L 35.449219 0.0195312 L 36.308594 0.0195312 L 38.496094 3.847656 L 37.488281 3.847656 M 36.667969 2.3125 L 35.847656 0.757812 L 34.996094 2.3125 L 36.667969 2.3125 "/>
<path style=" stroke:none;fill-rule:nonzero;fill:rgb(100%,100%,100%);fill-opacity:1;" d="M 42.722656 3.847656 L 40.3125 3.847656 C 39.957031 3.847656 39.707031 3.785156 39.570312 3.664062 C 39.433594 3.539062 39.367188 3.300781 39.367188 2.941406 L 39.367188 0.0195312 L 40.25 0.0195312 L 40.25 3.128906 L 42.78125 3.128906 L 42.78125 0.0195312 L 43.664062 0.0195312 L 43.664062 2.941406 C 43.664062 3.300781 43.597656 3.539062 43.460938 3.664062 C 43.328125 3.785156 43.082031 3.847656 42.722656 3.847656 "/>
<path style=" stroke:none;fill-rule:nonzero;fill:rgb(100%,100%,100%);fill-opacity:1;" d="M 45.429688 3.847656 L 45.429688 0.0195312 L 46.320312 0.0195312 L 46.320312 3.128906 L 49.183594 3.128906 L 49.183594 3.847656 L 45.429688 3.847656 "/>
<path style=" stroke:none;fill-rule:nonzero;fill:rgb(100%,100%,100%);fill-opacity:1;" d="M 51.195312 0.707031 L 51.195312 3.847656 L 50.300781 3.847656 L 50.300781 0.707031 L 48.558594 0.707031 L 48.558594 0.0195312 L 52.949219 0.0195312 L 52.949219 0.707031 L 51.195312 0.707031 "/>
<path style=" stroke:none;fill-rule:nonzero;fill:rgb(100%,100%,100%);fill-opacity:1;" d="M 53.234375 2.253906 L 53.234375 1.492188 L 54.949219 1.492188 L 54.949219 2.253906 L 53.234375 2.253906 "/>
<path style=" stroke:none;fill-rule:nonzero;fill:rgb(100%,100%,100%);fill-opacity:1;" d="M 59.636719 0.707031 L 57.871094 0.707031 L 57.871094 3.847656 L 56.988281 3.847656 L 56.988281 0.707031 L 55.234375 0.707031 L 55.234375 0.0195312 L 59.636719 0.0195312 L 59.636719 0.707031 "/>
<path style=" stroke:none;fill-rule:nonzero;fill:rgb(100%,100%,100%);fill-opacity:1;" d="M 64.464844 3.847656 L 60.527344 3.847656 L 60.527344 0.0195312 L 64.4375 0.0195312 L 64.4375 0.675781 L 61.421875 0.675781 L 61.421875 1.53125 L 63.175781 1.53125 L 63.175781 2.179688 L 61.421875 2.179688 L 61.421875 3.128906 L 64.464844 3.128906 L 64.464844 3.847656 "/>
<path style=" stroke:none;fill-rule:nonzero;fill:rgb(100%,100%,100%);fill-opacity:1;" d="M 69.125 0.707031 L 66.734375 0.707031 L 66.734375 3.128906 L 69.125 3.128906 L 69.125 2.304688 L 70.003906 2.488281 L 70.003906 2.941406 C 70.003906 3.304688 69.9375 3.546875 69.800781 3.664062 C 69.671875 3.785156 69.425781 3.847656 69.0625 3.847656 L 66.785156 3.847656 C 66.421875 3.847656 66.179688 3.785156 66.054688 3.664062 C 65.914062 3.539062 65.839844 3.300781 65.839844 2.941406 L 65.839844 0.925781 C 65.839844 0.566406 65.914062 0.328125 66.054688 0.203125 C 66.179688 0.078125 66.421875 0.0195312 66.785156 0.0195312 L 69.0625 0.0195312 C 69.425781 0.0195312 69.671875 0.0820312 69.800781 0.214844 C 69.9375 0.332031 70.003906 0.566406 70.003906 0.925781 L 70.003906 1.285156 L 69.125 1.429688 L 69.125 0.707031 "/>
<path style=" stroke:none;fill-rule:nonzero;fill:rgb(100%,100%,100%);fill-opacity:1;" d="M 77.902344 0.707031 L 75.132812 0.707031 L 75.132812 3.128906 L 77.902344 3.128906 L 77.902344 2.273438 L 76.457031 2.273438 L 76.457031 1.625 L 78.765625 1.625 L 78.765625 2.941406 C 78.765625 3.304688 78.695312 3.546875 78.558594 3.664062 C 78.429688 3.785156 78.183594 3.847656 77.820312 3.847656 L 75.195312 3.847656 C 74.839844 3.847656 74.59375 3.785156 74.457031 3.664062 C 74.320312 3.539062 74.25 3.300781 74.25 2.941406 L 74.25 0.925781 C 74.25 0.566406 74.320312 0.328125 74.457031 0.203125 C 74.59375 0.078125 74.839844 0.0195312 75.195312 0.0195312 L 77.820312 0.0195312 C 78.171875 0.0195312 78.414062 0.0742188 78.550781 0.191406 C 78.691406 0.316406 78.765625 0.550781 78.765625 0.894531 L 78.765625 0.976562 L 77.902344 1.128906 L 77.902344 0.707031 "/>
<path style=" stroke:none;fill-rule:nonzero;fill:rgb(100%,100%,100%);fill-opacity:1;" d="M 83.339844 3.015625 L 80.929688 3.015625 L 80.488281 3.847656 L 79.597656 3.847656 L 81.75 0.0195312 L 82.613281 0.0195312 L 84.796875 3.847656 L 83.800781 3.847656 L 83.339844 3.015625 M 81.296875 2.3125 L 82.980469 2.3125 L 82.148438 0.757812 L 81.296875 2.3125 "/>
<path style=" stroke:none;fill-rule:nonzero;fill:rgb(100%,100%,100%);fill-opacity:1;" d="M 90.808594 0.0195312 L 90.808594 3.847656 L 89.984375 3.847656 L 89.984375 1.480469 L 90.015625 1.078125 L 89.792969 1.480469 L 88.367188 3.386719 L 88.179688 3.386719 L 86.753906 1.46875 L 86.519531 1.078125 L 86.550781 1.480469 L 86.550781 3.847656 L 85.832031 3.847656 L 85.832031 0.0195312 L 86.550781 0.0195312 L 88.34375 2.335938 L 90.097656 0.0195312 L 90.808594 0.0195312 "/>
<path style=" stroke:none;fill-rule:nonzero;fill:rgb(100%,100%,100%);fill-opacity:1;" d="M 96.429688 3.847656 L 92.488281 3.847656 L 92.488281 0.0195312 L 96.386719 0.0195312 L 96.386719 0.675781 L 93.371094 0.675781 L 93.371094 1.53125 L 95.136719 1.53125 L 95.136719 2.179688 L 93.371094 2.179688 L 93.371094 3.128906 L 96.429688 3.128906 L 96.429688 3.847656 "/>
<path style=" stroke:none;fill-rule:nonzero;fill:rgb(100%,100%,100%);fill-opacity:1;" d="M 103.855469 0.6875 L 101.363281 0.6875 L 101.363281 1.511719 L 103.742188 1.511719 C 104.105469 1.511719 104.351562 1.574219 104.480469 1.695312 C 104.625 1.820312 104.695312 2.058594 104.695312 2.417969 L 104.695312 2.941406 C 104.695312 3.300781 104.625 3.539062 104.480469 3.664062 C 104.351562 3.785156 104.105469 3.847656 103.742188 3.847656 L 101.382812 3.847656 C 101.027344 3.847656 100.78125 3.785156 100.644531 3.664062 C 100.507812 3.546875 100.4375 3.304688 100.4375 2.941406 L 100.4375 2.839844 L 101.21875 2.675781 L 101.21875 3.128906 L 103.90625 3.128906 L 103.90625 2.253906 L 101.535156 2.253906 C 101.179688 2.253906 100.933594 2.195312 100.796875 2.078125 C 100.660156 1.945312 100.59375 1.703125 100.59375 1.347656 L 100.59375 0.925781 C 100.59375 0.558594 100.660156 0.320312 100.796875 0.203125 C 100.933594 0.078125 101.179688 0.0195312 101.535156 0.0195312 L 103.699219 0.0195312 C 104.027344 0.0195312 104.265625 0.0742188 104.40625 0.183594 C 104.566406 0.304688 104.644531 0.53125 104.644531 0.863281 L 104.644531 0.945312 L 103.855469 1.121094 L 103.855469 0.6875 "/>
<path style=" stroke:none;fill-rule:nonzero;fill:rgb(100%,100%,100%);fill-opacity:1;" d="M 108.121094 0.707031 L 108.121094 3.847656 L 107.230469 3.847656 L 107.230469 0.707031 L 105.484375 0.707031 L 105.484375 0.0195312 L 109.875 0.0195312 L 109.875 0.707031 L 108.121094 0.707031 "/>
<path style=" stroke:none;fill-rule:nonzero;fill:rgb(100%,100%,100%);fill-opacity:1;" d="M 114.191406 0.0195312 L 115.074219 0.0195312 L 115.074219 2.941406 C 115.074219 3.300781 115.003906 3.539062 114.859375 3.664062 C 114.738281 3.785156 114.492188 3.847656 114.132812 3.847656 L 111.722656 3.847656 C 111.367188 3.847656 111.121094 3.785156 110.984375 3.664062 C 110.847656 3.546875 110.777344 3.304688 110.777344 2.941406 L 110.777344 0.0195312 L 111.660156 0.0195312 L 111.660156 3.128906 L 114.191406 3.128906 L 114.191406 0.0195312 "/>
<path style=" stroke:none;fill-rule:nonzero;fill:rgb(100%,100%,100%);fill-opacity:1;" d="M 120.625 3.550781 C 120.304688 3.75 119.785156 3.847656 119.066406 3.847656 L 116.839844 3.847656 L 116.839844 0.0195312 L 119.292969 0.0195312 C 119.949219 0.0195312 120.464844 0.164062 120.839844 0.460938 C 121.257812 0.789062 121.464844 1.273438 121.464844 1.914062 C 121.464844 2.652344 121.183594 3.199219 120.625 3.550781 M 118.871094 3.128906 C 119.410156 3.128906 119.808594 3.054688 120.058594 2.910156 C 120.386719 2.726562 120.550781 2.386719 120.550781 1.890625 C 120.550781 1.101562 120.136719 0.707031 119.300781 0.707031 L 117.722656 0.707031 L 117.722656 3.128906 L 118.871094 3.128906 "/>
<path style=" stroke:none;fill-rule:nonzero;fill:rgb(100%,100%,100%);fill-opacity:1;" d="M 122.910156 3.847656 L 122.910156 0.0195312 L 123.792969 0.0195312 L 123.792969 3.847656 L 122.910156 3.847656 "/>
<path style=" stroke:none;fill-rule:nonzero;fill:rgb(100%,100%,100%);fill-opacity:1;" d="M 129.230469 3.847656 L 126.429688 3.847656 C 126.074219 3.847656 125.828125 3.785156 125.691406 3.664062 C 125.546875 3.539062 125.476562 3.300781 125.476562 2.941406 L 125.476562 0.925781 C 125.476562 0.566406 125.546875 0.328125 125.691406 0.203125 C 125.828125 0.078125 126.074219 0.0195312 126.429688 0.0195312 L 129.230469 0.0195312 C 129.59375 0.0195312 129.839844 0.078125 129.96875 0.203125 C 130.105469 0.328125 130.175781 0.566406 130.175781 0.925781 L 130.175781 2.941406 C 130.175781 3.300781 130.105469 3.539062 129.96875 3.664062 C 129.839844 3.785156 129.59375 3.847656 129.230469 3.847656 M 129.292969 0.707031 L 126.367188 0.707031 L 126.367188 3.128906 L 129.292969 3.128906 L 129.292969 0.707031 "/>
<path style=" stroke:none;fill-rule:nonzero;fill:rgb(100%,100%,100%);fill-opacity:1;" d="M 135.167969 0.6875 L 132.667969 0.6875 L 132.667969 1.511719 L 135.046875 1.511719 C 135.410156 1.511719 135.65625 1.574219 135.785156 1.695312 C 135.929688 1.820312 136 2.058594 136 2.417969 L 136 2.941406 C 136 3.300781 135.929688 3.539062 135.785156 3.664062 C 135.65625 3.785156 135.410156 3.847656 135.046875 3.847656 L 132.695312 3.847656 C 132.335938 3.847656 132.085938 3.785156 131.949219 3.664062 C 131.8125 3.539062 131.742188 3.300781 131.742188 2.941406 L 131.742188 2.839844 L 132.523438 2.675781 L 132.523438 3.128906 L 135.21875 3.128906 L 135.21875 2.253906 L 132.839844 2.253906 C 132.484375 2.253906 132.238281 2.195312 132.101562 2.078125 C 131.964844 1.941406 131.898438 1.695312 131.898438 1.347656 L 131.898438 0.925781 C 131.898438 0.566406 131.964844 0.328125 132.101562 0.203125 C 132.238281 0.078125 132.484375 0.0195312 132.839844 0.0195312 L 135.003906 0.0195312 C 135.332031 0.0195312 135.570312 0.0742188 135.710938 0.183594 C 135.871094 0.304688 135.949219 0.53125 135.949219 0.863281 L 135.949219 0.945312 L 135.167969 1.121094 L 135.167969 0.6875 "/>
</g>
</svg>
