<?xml version="1.0" encoding="UTF-8"?>
<svg xmlns="http://www.w3.org/2000/svg" xmlns:xlink="http://www.w3.org/1999/xlink" width="128pt" height="50pt" viewBox="0 0 128 50" version="1.1">
<g id="surface1">
<path style=" stroke:none;fill-rule:nonzero;fill:rgb(40%,40%,40%);fill-opacity:0.298039;" d="M 126.257812 0.0585938 C 127.417969 0.710938 127.878906 2.347656 127.640625 4.964844 L 127.078125 11.210938 L 127.078125 38.375 L 127.027344 38.738281 L 126.667969 44.105469 C 126.941406 44.246094 127.078125 44.503906 127.078125 44.882812 C 127.078125 45.261719 126.941406 45.5 126.667969 45.605469 L 125.691406 45.707031 C 125.042969 45.707031 124.632812 45.585938 124.460938 45.347656 L 124.410156 44.933594 C 124.410156 44.3125 124.855469 43.988281 125.742188 43.953125 L 125.898438 43.953125 C 125.726562 42.953125 125.605469 41.25 125.539062 38.839844 L 125.488281 38.425781 L 125.539062 38.117188 C 125.4375 34.433594 125.417969 29.25 125.488281 22.574219 C 125.382812 17.410156 125.382812 13.585938 125.488281 11.109375 L 125.382812 5.429688 C 125.382812 3.191406 125.675781 1.398438 126.257812 0.0585938 M 99.078125 44.726562 C 99.078125 45.003906 98.804688 45.277344 98.257812 45.554688 L 56.152344 45.554688 C 54.171875 47.996094 52.734375 49.375 51.847656 49.683594 L 51.332031 49.941406 C 49.554688 49.152344 48.597656 48.222656 48.460938 47.152344 L 48.460938 47.101562 L 47.4375 47.929688 C 47.128906 48.203125 46.582031 48.339844 45.792969 48.339844 L 44.308594 48.136719 L 43.847656 48.136719 L 43.847656 47.980469 L 43.179688 47.566406 L 42.257812 46.480469 L 42.101562 46.378906 L 39.691406 46.171875 L 39.230469 46.277344 L 38.769531 47.050781 L 38.308594 46.277344 L 38.152344 45.863281 L 38.050781 45.707031 L 37.949219 45.554688 L 21.332031 45.554688 L 20.511719 44.777344 L 20.667969 44.417969 L 21.332031 43.902344 L 38.71875 43.902344 L 40.308594 43.847656 L 40.769531 43.902344 L 54.257812 43.902344 L 54.71875 43.796875 L 55.28125 43.902344 L 98.257812 43.902344 C 98.734375 44.003906 99.007812 44.277344 99.078125 44.726562 M 6.972656 45.398438 L 6.460938 46.636719 L 5.792969 47.773438 L 5.4375 47 L 5.078125 46.019531 L 5.078125 45.347656 L 0.820312 45.347656 L 0.257812 44.933594 L 0 44.570312 L 0.207031 44.210938 L 0.820312 43.695312 L 16.769531 43.695312 C 17.316406 43.761719 17.589844 44.039062 17.589844 44.519531 C 17.589844 44.863281 17.316406 45.140625 16.769531 45.347656 L 6.972656 45.347656 L 6.972656 45.398438 M 55.488281 45.554688 L 54.972656 46.222656 L 55.488281 45.554688 "/>
</g>
</svg>
