<?xml version="1.0" encoding="UTF-8"?>
<svg xmlns="http://www.w3.org/2000/svg" xmlns:xlink="http://www.w3.org/1999/xlink" width="127pt" height="114pt" viewBox="0 0 127 114" version="1.1">
<g id="surface1">
<path style=" stroke:none;fill-rule:nonzero;fill:rgb(100%,100%,100%);fill-opacity:1;" d="M 102.945312 62.089844 C 102.945312 71.78125 99.738281 80.34375 93.324219 87.777344 C 86.269531 94.238281 78.09375 97.46875 68.792969 97.46875 C 58.851562 97.46875 50.671875 94.238281 44.257812 87.777344 C 37.203125 80.34375 33.675781 71.78125 33.675781 62.089844 C 33.675781 52.074219 37.203125 43.832031 44.257812 37.371094 C 50.671875 30.261719 58.851562 26.707031 68.792969 26.707031 C 78.09375 26.707031 86.269531 30.261719 93.324219 37.371094 C 99.738281 43.832031 102.945312 52.074219 102.945312 62.089844 "/>
<path style=" stroke:none;fill-rule:nonzero;fill:rgb(100%,100%,100%);fill-opacity:1;" d="M 102.945312 49.488281 C 118.980469 49.488281 125.074219 52.878906 121.226562 59.664062 C 119.625 62.25 116.257812 64.351562 111.125 65.964844 L 102.464844 69.359375 L 103.910156 68.390625 L 81.78125 72.75 C 76.328125 72.105469 77.769531 69.683594 86.109375 65.480469 L 89.957031 64.511719 L 89.957031 63.058594 L 87.554688 62.089844 L 81.78125 62.089844 C 79.214844 62.089844 77.609375 61.441406 76.96875 60.148438 C 76.96875 58.535156 78.09375 57.242188 80.335938 56.273438 C 87.394531 51.75 94.929688 49.488281 102.945312 49.488281 "/>
<path style=" stroke:none;fill-rule:nonzero;fill:rgb(100%,100%,100%);fill-opacity:1;" d="M 69.753906 18.46875 C 59.8125 18.46875 57.886719 15.398438 63.980469 9.261719 C 69.433594 3.121094 75.6875 0.0546875 82.742188 0.0546875 C 92.363281 0.0546875 94.289062 3.121094 88.515625 9.261719 C 83.0625 15.398438 76.808594 18.46875 69.753906 18.46875 "/>
<path style=" stroke:none;fill-rule:nonzero;fill:rgb(100%,100%,100%);fill-opacity:1;" d="M 0 33.007812 C 0 27.515625 5.453125 23.800781 16.355469 21.863281 C 26.617188 18.953125 31.75 19.761719 31.75 24.285156 L 31.75 32.523438 C 31.75 38.019531 26.617188 41.734375 16.355469 43.671875 C 5.453125 45.933594 0 45.125 0 41.25 L 0 33.007812 "/>
<path style=" stroke:none;fill-rule:nonzero;fill:rgb(100%,100%,100%);fill-opacity:1;" d="M 64.460938 104.253906 C 64.460938 108.453125 59.332031 111.683594 49.066406 113.945312 L 32.710938 112.492188 L 32.710938 101.347656 C 32.710938 97.144531 38.164062 93.914062 49.066406 91.652344 L 64.460938 93.105469 L 64.460938 104.253906 "/>
<path style=" stroke:none;fill-rule:nonzero;fill:rgb(100%,100%,100%);fill-opacity:1;" d="M 85.148438 100.863281 C 78.09375 100.863281 78.574219 98.601562 86.589844 94.078125 C 95.570312 89.875 101.824219 87.777344 105.351562 87.777344 C 112.730469 87.777344 112.246094 89.875 103.910156 94.078125 L 85.148438 100.863281 "/>
</g>
</svg>
