<?xml version="1.0" encoding="UTF-8"?>
<svg xmlns="http://www.w3.org/2000/svg" xmlns:xlink="http://www.w3.org/1999/xlink" width="128pt" height="106pt" viewBox="0 0 128 106" version="1.1">
<g id="surface1">
<path style=" stroke:none;fill-rule:nonzero;fill:rgb(13.72549%,12.156863%,12.54902%);fill-opacity:1;" d="M 77.910156 13.21875 L 77.363281 11.652344 C 76.113281 8.410156 73.871094 6.113281 70.640625 4.753906 C 67.515625 3.289062 64.285156 3.238281 60.953125 4.597656 L 58.140625 6.320312 L 56.34375 7.890625 L 55.402344 8.910156 L 55.246094 5.539062 L 56.421875 4.285156 L 55.011719 3.96875 L 54.777344 2.011719 L 57.359375 2.792969 L 58.140625 3.109375 L 60.09375 2.089844 C 63.375 0.730469 66.710938 0.757812 70.09375 2.167969 C 73.378906 3.628906 75.695312 6.058594 77.050781 9.457031 L 77.910156 13.21875 M 63.140625 25.683594 L 63.84375 24.898438 L 64.15625 24.820312 L 65.640625 23.722656 C 66.527344 23.097656 67.464844 22.652344 68.453125 22.390625 L 72.363281 22 L 75.175781 22.46875 L 76.347656 23.019531 L 77.207031 23.253906 L 77.285156 23.410156 L 73.066406 24.429688 L 72.832031 24.507812 L 72.285156 24.429688 L 71.34375 24.429688 C 69.574219 24.429688 67.984375 24.792969 66.578125 25.527344 L 63.140625 25.683594 M 85.488281 50.765625 C 86.375 49.773438 87 48.546875 87.363281 47.082031 L 87.910156 43.789062 C 87.808594 42.167969 87.363281 40.628906 86.582031 39.164062 C 85.332031 36.761719 83.457031 35.113281 80.957031 34.226562 L 80.566406 34.148438 L 76.191406 33.757812 L 73.769531 34.460938 L 72.597656 34.933594 L 71.5 35.558594 C 72.230469 34.878906 73.066406 34.277344 74.003906 33.757812 L 74.160156 33.679688 L 76.582031 32.738281 L 80.722656 32.503906 L 82.207031 32.972656 L 82.597656 33.050781 C 82.234375 31.585938 81.609375 30.28125 80.722656 29.132812 L 80.097656 28.347656 C 79.367188 27.40625 78.535156 26.625 77.597656 25.996094 L 76.347656 25.449219 L 78.378906 24.035156 L 80.566406 25.996094 L 81.191406 26.78125 C 82.648438 28.765625 83.40625 30.988281 83.457031 33.441406 C 85.75 34.332031 87.441406 35.953125 88.539062 38.304688 C 89.734375 40.289062 90.152344 42.429688 89.789062 44.730469 L 89.398438 46.296875 C 88.71875 48.335938 87.675781 49.980469 86.269531 51.238281 L 85.488281 50.765625 M 75.957031 45.828125 C 78.195312 45.566406 80.28125 46.0625 82.207031 47.316406 C 83.457031 48.257812 84.449219 49.40625 85.175781 50.765625 L 83.613281 49.824219 C 82.9375 49.617188 82.285156 49.355469 81.660156 49.042969 L 80.488281 48.023438 C 79.5 47.289062 78.429688 46.820312 77.285156 46.613281 L 75.957031 45.828125 M 86.894531 84.785156 L 87.128906 85.019531 C 87.964844 85.492188 88.902344 85.648438 89.945312 85.492188 C 90.933594 85.230469 91.6875 84.679688 92.210938 83.84375 C 92.78125 83.007812 92.9375 82.09375 92.679688 81.101562 C 92.417969 80.054688 91.898438 79.296875 91.117188 78.828125 L 90.726562 78.515625 L 91.742188 78.984375 C 92.625 79.507812 93.148438 80.289062 93.304688 81.335938 C 93.566406 82.328125 93.433594 83.296875 92.914062 84.238281 L 92.132812 85.097656 C 94.371094 86.144531 96.792969 86.429688 99.398438 85.960938 C 102.941406 85.230469 105.730469 83.375 107.761719 80.394531 C 109.6875 77.46875 110.3125 74.253906 109.636719 70.753906 C 109.0625 67.304688 107.292969 64.589844 104.324219 62.601562 L 102.835938 61.660156 C 104.089844 62.078125 105.285156 62.65625 106.433594 63.386719 C 109.296875 65.476562 111.148438 68.195312 111.980469 71.539062 C 113.023438 70.492188 113.855469 69.160156 114.480469 67.539062 C 115.730469 64.144531 115.628906 60.800781 114.167969 57.507812 C 112.761719 54.265625 110.367188 51.96875 106.980469 50.609375 L 105.261719 50.140625 L 109.246094 51.078125 C 110.339844 51.445312 111.355469 51.96875 112.292969 52.648438 C 112.449219 51.289062 112.242188 49.902344 111.667969 48.492188 C 110.730469 46.558594 109.246094 45.199219 107.214844 44.417969 L 101.351562 44.730469 L 100.414062 45.199219 L 100.648438 44.886719 L 102.445312 43.945312 C 103.800781 43.265625 105.128906 43.007812 106.433594 43.164062 C 106.902344 42.585938 107.214844 41.855469 107.371094 40.96875 C 107.683594 39.660156 107.449219 38.355469 106.667969 37.046875 C 105.832031 35.847656 104.714844 35.140625 103.304688 34.933594 C 101.847656 34.617188 100.546875 34.855469 99.398438 35.636719 L 98.929688 36.03125 L 100.101562 35.089844 C 101.300781 34.199219 102.679688 33.886719 104.246094 34.148438 C 105.652344 34.515625 106.769531 35.324219 107.605469 36.578125 L 107.996094 37.207031 C 109.246094 34.488281 109.558594 31.5625 108.933594 28.425781 C 108.203125 24.613281 106.199219 21.582031 102.914062 19.332031 C 99.632812 17.140625 96.066406 16.40625 92.210938 17.140625 C 88.355469 17.976562 85.308594 20.011719 83.066406 23.253906 L 82.050781 24.898438 C 82.46875 23.488281 83.121094 22.15625 84.003906 20.902344 C 86.347656 17.398438 89.527344 15.285156 93.539062 14.550781 C 97.550781 13.769531 101.222656 14.5 104.558594 16.746094 C 108.046875 19.097656 110.15625 22.285156 110.886719 26.308594 C 111.71875 30.28125 110.964844 33.992188 108.621094 37.441406 L 108.230469 37.988281 C 108.488281 38.773438 108.542969 39.636719 108.386719 40.574219 C 108.125 41.671875 107.707031 42.535156 107.136719 43.164062 L 108.621094 43.710938 C 110.652344 44.441406 112.164062 45.828125 113.152344 47.867188 C 114.039062 49.695312 114.167969 51.628906 113.542969 53.667969 C 114.847656 54.867188 115.886719 56.332031 116.667969 58.054688 C 118.230469 61.503906 118.335938 65.007812 116.980469 68.558594 C 115.992188 71.171875 114.429688 73.183594 112.292969 74.59375 C 112.292969 77.207031 111.484375 79.714844 109.871094 82.121094 C 107.839844 85.152344 105.027344 87.007812 101.429688 87.683594 C 97.835938 88.3125 94.503906 87.632812 91.429688 85.648438 L 90.492188 85.960938 L 87.597656 85.492188 L 86.894531 84.785156 M 83.378906 84.316406 L 84.082031 85.726562 C 84.605469 87.292969 84.527344 88.730469 83.847656 90.035156 C 83.222656 91.449219 82.128906 92.414062 80.566406 92.9375 L 76.269531 92.78125 C 74.914062 92.046875 73.949219 90.925781 73.378906 89.410156 L 73.066406 87.765625 L 73.378906 88.546875 C 73.792969 89.957031 74.730469 90.976562 76.191406 91.605469 L 80.175781 91.839844 C 81.582031 91.371094 82.648438 90.429688 83.378906 89.019531 C 84.058594 87.710938 84.136719 86.378906 83.613281 85.019531 L 83.378906 84.316406 M 76.894531 81.414062 L 76.738281 81.414062 L 75.488281 79.375 C 74.808594 80.316406 73.898438 80.996094 72.753906 81.414062 L 69.15625 81.492188 L 68.453125 81.179688 L 68.84375 81.886719 L 69.3125 83.140625 C 71.03125 87.058594 71.085938 90.976562 69.46875 94.898438 C 67.855469 98.867188 65.066406 101.691406 61.109375 103.363281 C 57.253906 105.085938 53.320312 105.140625 49.308594 103.519531 C 45.351562 101.792969 42.535156 99.023438 40.871094 95.210938 C 40.296875 93.640625 39.929688 92.101562 39.773438 90.585938 L 40.402344 92.464844 C 42.015625 96.28125 44.722656 98.921875 48.527344 100.382812 C 52.382812 102.003906 56.1875 102.003906 59.9375 100.382812 C 63.738281 98.816406 66.421875 96.152344 67.984375 92.386719 C 69.289062 89.097656 69.445312 85.777344 68.453125 82.433594 L 67.984375 80.945312 L 67.359375 80.628906 C 66.578125 79.898438 65.980469 79.011719 65.5625 77.964844 L 65.25 76.632812 L 65.40625 77.023438 C 65.824219 78.019531 66.472656 78.855469 67.359375 79.535156 L 67.046875 79.21875 L 67.4375 79.691406 L 67.75 79.925781 L 68.140625 80.160156 L 69.859375 80.710938 L 72.363281 80.394531 C 73.457031 79.976562 74.289062 79.351562 74.863281 78.515625 L 75.410156 77.886719 L 75.410156 77.496094 C 75.410156 76.554688 75.589844 75.71875 75.957031 74.988281 L 75.800781 73.496094 L 75.488281 72.871094 L 76.269531 74.359375 L 76.269531 74.59375 L 77.050781 73.890625 C 78.039062 72.792969 79.289062 72.320312 80.800781 72.480469 L 81.972656 72.558594 L 81.660156 72.558594 C 80.253906 72.558594 79.054688 73.027344 78.066406 73.96875 C 77.285156 74.699219 76.789062 75.535156 76.582031 76.476562 L 76.347656 77.417969 L 76.347656 77.574219 C 76.347656 78.984375 76.816406 80.238281 77.753906 81.335938 C 78.796875 82.328125 80.046875 82.824219 81.503906 82.824219 L 82.050781 82.824219 L 80.488281 83.140625 C 79.03125 82.980469 77.832031 82.40625 76.894531 81.414062 M 39.304688 86.746094 L 37.976562 88.078125 C 36.050781 89.644531 33.808594 90.296875 31.257812 90.035156 C 29.070312 89.933594 27.273438 89.148438 25.867188 87.683594 C 22.53125 88.519531 19.277344 88.128906 16.097656 86.507812 C 12.554688 84.785156 10.160156 82.042969 8.910156 78.277344 C 7.96875 75.71875 7.8125 73.210938 8.441406 70.753906 C 7.085938 69.394531 6.199219 67.75 5.78125 65.816406 C 5.210938 63.152344 5.652344 60.640625 7.109375 58.289062 L 8.675781 56.175781 C 7.476562 55.285156 6.746094 54.085938 6.484375 52.570312 L 6.484375 51.15625 C 3.570312 48.964844 1.769531 46.089844 1.09375 42.535156 C 0.363281 38.617188 1.066406 35.089844 3.203125 31.953125 C 5.390625 28.714844 8.386719 26.703125 12.191406 25.917969 L 14.847656 25.527344 L 17.113281 23.019531 C 16.539062 19.933594 17.0625 16.980469 18.675781 14.160156 C 20.449219 11.023438 23.050781 8.933594 26.492188 7.890625 L 30.242188 7.417969 C 31.441406 5.640625 33.082031 4.207031 35.164062 3.109375 C 38.289062 1.488281 41.597656 1.253906 45.089844 2.402344 L 47.277344 3.421875 C 47.902344 3.109375 48.5 2.820312 49.074219 2.558594 C 50.847656 1.828125 52.667969 1.59375 54.542969 1.855469 L 54.308594 3.890625 C 52.851562 3.839844 51.394531 4.074219 49.933594 4.597656 C 48.527344 5.121094 47.328125 5.878906 46.339844 6.871094 L 44.308594 9.847656 L 44.074219 10.242188 C 43.5 11.652344 43.214844 13.113281 43.214844 14.628906 L 43.371094 16.589844 L 43.917969 18.15625 L 44.621094 19.570312 C 43.941406 18.785156 43.371094 17.816406 42.902344 16.667969 L 42.433594 14.945312 C 41.910156 12.75 42.09375 10.527344 42.980469 8.28125 L 45.558594 4.597656 C 42.433594 3.710938 39.359375 4.023438 36.335938 5.539062 C 33.316406 7.105469 31.257812 9.535156 30.164062 12.828125 C 29.015625 16.066406 29.25 19.253906 30.867188 22.390625 L 30.867188 22.46875 L 31.648438 23.800781 L 30.867188 22.859375 L 29.539062 20.585938 C 27.820312 17.347656 27.558594 14.054688 28.757812 10.710938 L 29.226562 9.300781 L 28.445312 9.613281 C 25.164062 10.503906 22.660156 12.488281 20.941406 15.570312 C 19.277344 18.496094 18.910156 21.632812 19.847656 24.976562 C 20.734375 28.425781 22.714844 30.988281 25.789062 32.660156 L 27.273438 33.441406 C 25.96875 33.183594 24.71875 32.710938 23.519531 32.03125 C 20.550781 30.253906 18.546875 27.722656 17.503906 24.429688 C 16.671875 25.371094 16.070312 26.492188 15.707031 27.800781 C 15.238281 29.734375 15.550781 31.5625 16.644531 33.285156 C 17.632812 35.011719 19.09375 36.082031 21.019531 36.5 L 22.035156 36.65625 L 21.019531 36.65625 L 16.957031 35.167969 L 15.160156 33.050781 C 14.066406 31.222656 13.753906 29.339844 14.222656 27.40625 L 14.769531 25.917969 L 14.613281 25.917969 C 10.863281 26.703125 7.996094 28.609375 6.015625 31.640625 C 3.933594 34.777344 3.230469 38.199219 3.90625 41.910156 C 4.636719 45.671875 6.5625 48.570312 9.691406 50.609375 C 12.761719 52.699219 16.175781 53.378906 19.925781 52.648438 L 21.644531 52.253906 L 20.316406 52.960938 L 17.738281 53.667969 L 17.660156 53.667969 L 12.816406 53.746094 C 11.148438 53.535156 9.507812 52.960938 7.890625 52.019531 L 7.890625 52.253906 C 8.101562 53.507812 8.621094 54.605469 9.457031 55.546875 L 10.394531 56.332031 C 11.851562 57.375 13.441406 57.769531 15.160156 57.507812 L 16.019531 57.351562 L 14.144531 57.898438 C 12.320312 58.210938 10.679688 57.847656 9.222656 56.800781 L 8.675781 56.332031 L 8.285156 56.878906 C 6.824219 59.230469 6.40625 61.714844 7.03125 64.328125 C 7.605469 66.9375 9.066406 68.976562 11.410156 70.441406 C 13.703125 71.851562 16.148438 72.269531 18.753906 71.695312 L 19.457031 71.539062 L 17.269531 73.574219 C 14.820312 74.046875 12.503906 73.574219 10.316406 72.164062 L 9.691406 71.851562 L 10.394531 76.007812 C 11.589844 79.613281 13.9375 82.25 17.425781 83.921875 C 20.761719 85.648438 24.25 85.882812 27.898438 84.628906 C 31.441406 83.425781 34.042969 81.074219 35.710938 77.574219 L 35.867188 77.496094 L 36.492188 75.847656 L 36.101562 77.808594 L 35.164062 80.003906 C 33.496094 83.347656 31.023438 85.699219 27.742188 87.058594 C 28.835938 87.632812 30.085938 88 31.492188 88.15625 C 33.886719 88.417969 36.050781 87.789062 37.976562 86.273438 C 38.914062 85.492188 39.617188 84.601562 40.089844 83.609375 C 40.503906 82.929688 40.765625 82.199219 40.871094 81.414062 L 41.183594 80.160156 L 41.183594 79.0625 L 41.261719 79.296875 L 41.261719 81.886719 L 40.792969 84.238281 L 39.773438 86.117188 L 40.011719 86.746094 C 40.582031 87.632812 41.339844 88.207031 42.277344 88.46875 L 45.089844 88.078125 L 45.167969 88.078125 C 45.792969 87.660156 46.261719 87.136719 46.574219 86.507812 L 46.808594 85.648438 L 46.886719 85.332031 L 46.808594 86.351562 L 46.730469 86.667969 C 46.574219 87.398438 46.183594 88 45.558594 88.46875 C 45.402344 88.519531 45.246094 88.625 45.089844 88.78125 L 42.199219 89.175781 C 41.207031 88.914062 40.402344 88.339844 39.773438 87.449219 L 39.382812 86.667969 L 39.304688 86.746094 M 53.917969 7.183594 C 53.660156 9.222656 53.320312 11.285156 52.902344 13.375 L 52.121094 17.0625 C 51.445312 14.394531 51.707031 11.757812 52.902344 9.144531 L 53.527344 7.8125 L 53.917969 7.183594 M 36.960938 61.816406 L 37.664062 61.425781 C 38.550781 62.261719 39.617188 62.679688 40.871094 62.679688 L 41.652344 62.679688 L 40.011719 62.835938 C 38.863281 62.835938 37.847656 62.496094 36.960938 61.816406 M 54.308594 73.496094 L 54.777344 75.066406 L 53.996094 74.4375 C 53.058594 73.8125 52.410156 72.976562 52.042969 71.929688 L 51.652344 70.285156 L 51.730469 68.558594 L 51.730469 69.265625 L 52.589844 71.851562 L 53.996094 73.339844 L 54.308594 73.496094 M 55.714844 75.457031 L 55.558594 74.28125 L 58.296875 74.59375 C 59.390625 74.4375 60.378906 74.097656 61.265625 73.574219 L 62.359375 72.480469 C 63.347656 71.121094 63.765625 69.628906 63.609375 68.011719 L 63.53125 67.226562 L 64 69.03125 L 64 69.109375 C 64.15625 70.726562 63.714844 72.21875 62.671875 73.574219 L 62.28125 74.046875 L 61.421875 74.671875 C 60.640625 75.40625 59.648438 75.796875 58.453125 75.847656 L 55.714844 75.457031 M 84.082031 53.273438 L 84.472656 53.273438 L 86.269531 53.667969 C 86.636719 56.121094 86.113281 58.394531 84.707031 60.484375 C 83.25 62.628906 81.242188 63.933594 78.691406 64.40625 L 76.191406 64.71875 L 75.878906 64.640625 L 76.191406 64.640625 L 77.050781 64.40625 C 79.5 63.933594 81.453125 62.707031 82.910156 60.722656 C 84.316406 58.578125 84.761719 56.253906 84.238281 53.746094 L 84.082031 53.273438 M 120.96875 26.9375 L 120.890625 26.78125 L 120.34375 26.625 L 119.792969 26.703125 L 119.480469 27.25 L 119.558594 27.800781 L 119.480469 27.722656 L 119.402344 27.09375 L 119.792969 26.625 C 119.898438 26.414062 120.082031 26.308594 120.34375 26.308594 L 120.890625 26.703125 L 120.96875 26.9375 M 119.089844 29.132812 C 118.675781 29.550781 118.464844 30.074219 118.464844 30.699219 C 118.519531 31.328125 118.777344 31.875 119.246094 32.34375 C 119.664062 32.816406 120.210938 33.050781 120.890625 33.050781 L 122.375 32.265625 L 122.6875 32.03125 L 122.0625 32.660156 C 121.695312 33.078125 121.203125 33.339844 120.578125 33.441406 L 120.265625 33.441406 C 120.679688 33.964844 121.226562 34.304688 121.90625 34.460938 L 123.859375 34.148438 C 124.484375 33.730469 124.898438 33.128906 125.109375 32.34375 L 125.1875 32.109375 L 125.109375 32.972656 L 125.421875 32.503906 L 125.8125 31.5625 L 125.265625 30.621094 L 125.578125 30.699219 L 126.046875 31.71875 L 126.046875 32.03125 L 126.28125 31.71875 C 126.800781 31.457031 127.140625 31.066406 127.296875 30.542969 C 127.503906 29.914062 127.425781 29.339844 127.0625 28.816406 L 125.8125 27.800781 L 124.171875 28.113281 L 124.015625 28.191406 L 124.171875 27.957031 L 124.484375 27.800781 L 124.796875 27.722656 L 126.203125 27.640625 C 126.777344 27.746094 127.167969 28.0625 127.375 28.582031 C 127.792969 29.210938 127.894531 29.785156 127.6875 30.308594 C 127.480469 30.933594 127.140625 31.378906 126.671875 31.640625 C 126.515625 31.847656 126.308594 31.980469 126.046875 32.03125 L 125.65625 32.738281 L 125.109375 33.128906 L 123.859375 34.695312 C 123.234375 35.0625 122.53125 35.195312 121.75 35.089844 C 120.96875 34.878906 120.367188 34.4375 119.949219 33.757812 L 119.792969 33.285156 L 118.855469 32.660156 C 118.335938 32.242188 118.074219 31.691406 118.074219 31.011719 C 118.074219 30.4375 118.308594 29.890625 118.777344 29.367188 L 119.089844 29.132812 M 124.71875 27.640625 L 124.25 27.640625 L 124.40625 27.40625 L 124.71875 27.640625 M 121.359375 27.328125 L 121.359375 27.09375 L 121.671875 26.308594 L 122.375 25.917969 L 123.15625 26.230469 L 123.46875 26.9375 L 123.46875 27.25 L 123.15625 26.386719 L 122.375 26.230469 L 121.671875 26.625 L 121.359375 27.328125 M 91.273438 94.347656 L 91.429688 93.878906 C 91.6875 93.40625 92.027344 93.144531 92.445312 93.09375 L 93.851562 93.171875 L 94.632812 94.269531 L 94.476562 95.523438 L 94.320312 94.503906 C 94.269531 94.085938 94.035156 93.746094 93.617188 93.484375 L 92.289062 93.40625 L 91.429688 94.113281 L 91.273438 94.347656 M 94.320312 95.757812 L 94.789062 95.914062 C 94.996094 96.019531 95.101562 96.203125 95.101562 96.464844 L 96.117188 97.167969 C 96.535156 97.589844 96.742188 98.136719 96.742188 98.816406 L 96.039062 100.382812 L 95.335938 100.855469 L 95.257812 101.324219 C 94.894531 102.109375 94.347656 102.605469 93.617188 102.8125 L 91.429688 102.734375 L 90.726562 102.109375 L 89.945312 102.109375 C 89.320312 102.054688 88.851562 101.714844 88.539062 101.089844 L 88.304688 100.617188 C 87.675781 100.359375 87.234375 99.914062 86.972656 99.285156 C 86.660156 98.554688 86.636719 97.847656 86.894531 97.167969 C 87.207031 96.386719 87.703125 95.835938 88.382812 95.523438 L 88.460938 95.523438 C 87.988281 95.890625 87.675781 96.359375 87.519531 96.933594 C 87.15625 97.667969 87.15625 98.398438 87.519531 99.128906 L 88.304688 99.914062 L 89.007812 100.382812 L 91.117188 100.304688 L 91.429688 100.226562 L 90.726562 100.617188 L 88.695312 100.695312 L 90.023438 101.714844 L 91.507812 101.402344 C 92.027344 101.089844 92.339844 100.644531 92.445312 100.070312 L 92.601562 99.835938 L 92.445312 100.382812 C 92.339844 101.011719 92.027344 101.480469 91.507812 101.792969 L 91.117188 102.109375 L 91.273438 102.1875 L 93.539062 102.34375 C 94.113281 102.132812 94.605469 101.664062 95.023438 100.933594 C 95.230469 100.199219 95.230469 99.496094 95.023438 98.816406 L 94.789062 98.425781 L 95.257812 99.207031 L 95.492188 100.382812 L 95.648438 100.304688 C 96.011719 99.886719 96.195312 99.390625 96.195312 98.816406 C 96.195312 98.136719 96.011719 97.589844 95.648438 97.167969 C 95.230469 96.699219 94.710938 96.464844 94.085938 96.464844 L 93.851562 96.464844 L 94.398438 96.386719 L 95.023438 96.464844 L 94.710938 95.992188 L 94.242188 95.914062 L 93.851562 95.992188 C 93.902344 95.835938 94.035156 95.757812 94.242188 95.757812 L 94.320312 95.757812 M 7.734375 10.085938 L 7.5 9.457031 L 7.890625 8.832031 C 7.578125 7.941406 7.578125 7.105469 7.890625 6.320312 L 9.847656 4.363281 C 10.785156 4.046875 11.695312 4.046875 12.582031 4.363281 L 13.128906 4.597656 L 15.160156 4.910156 C 15.785156 5.222656 16.226562 5.722656 16.488281 6.398438 L 16.722656 7.339844 L 16.644531 6.871094 C 16.382812 6.242188 15.914062 5.746094 15.238281 5.382812 L 13.207031 5.304688 L 11.722656 6.714844 C 11.410156 7.394531 11.382812 8.046875 11.644531 8.671875 L 11.722656 9.144531 L 11.332031 8.28125 C 11.070312 7.550781 11.097656 6.84375 11.410156 6.164062 L 12.425781 4.988281 C 11.695312 4.726562 10.886719 4.726562 10.003906 4.988281 C 9.222656 5.460938 8.648438 6.085938 8.285156 6.871094 C 7.96875 7.757812 7.96875 8.671875 8.285156 9.613281 L 8.441406 9.925781 L 8.050781 9.222656 L 7.890625 9.457031 L 8.207031 10.632812 L 8.988281 11.261719 L 8.832031 11.261719 L 7.8125 10.632812 L 7.734375 10.085938 M 16.488281 8.910156 L 16.644531 9.457031 L 16.253906 10.085938 C 16.046875 10.292969 15.8125 10.371094 15.550781 10.320312 L 15.394531 10.320312 L 16.019531 10.085938 L 16.332031 9.457031 C 16.4375 9.089844 16.410156 8.832031 16.253906 8.671875 L 15.550781 8.28125 L 15.316406 8.28125 L 15.707031 8.28125 L 16.332031 8.671875 L 16.488281 8.910156 M 12.113281 13.613281 C 12.164062 13.871094 12.058594 14.160156 11.800781 14.472656 C 11.695312 14.683594 11.460938 14.789062 11.097656 14.789062 C 10.835938 14.789062 10.574219 14.710938 10.316406 14.550781 L 10.238281 14.238281 L 9.222656 14.789062 L 7.421875 14.628906 C 6.796875 14.316406 6.433594 13.847656 6.328125 13.21875 L 6.40625 11.339844 L 6.796875 10.867188 L 6.71875 11.101562 C 6.460938 11.574219 6.382812 12.148438 6.484375 12.828125 C 6.695312 13.453125 7.109375 13.898438 7.734375 14.160156 C 8.207031 14.472656 8.777344 14.578125 9.457031 14.472656 C 10.027344 14.160156 10.445312 13.742188 10.707031 13.21875 L 10.628906 13.613281 L 10.316406 14.160156 L 10.316406 14.238281 C 10.574219 14.449219 10.835938 14.550781 11.097656 14.550781 C 11.460938 14.550781 11.695312 14.421875 11.800781 14.160156 L 12.113281 13.613281 M 50.714844 67.148438 L 50.714844 66.519531 L 50.871094 67.855469 C 50.714844 69.109375 50.117188 70.179688 49.074219 71.066406 C 48.085938 71.851562 46.914062 72.191406 45.558594 72.085938 C 44.308594 71.980469 43.265625 71.433594 42.433594 70.441406 C 41.597656 69.449219 41.261719 68.246094 41.417969 66.835938 L 41.652344 66.050781 L 41.652344 66.128906 C 41.496094 67.382812 41.832031 68.480469 42.667969 69.421875 C 43.394531 70.414062 44.410156 70.988281 45.714844 71.144531 C 46.964844 71.304688 48.085938 70.964844 49.074219 70.128906 C 50.011719 69.34375 50.558594 68.351562 50.714844 67.148438 M 12.894531 88.546875 L 10.941406 88.625 C 10.261719 88.886719 9.792969 89.359375 9.535156 90.035156 C 9.167969 90.714844 9.167969 91.421875 9.535156 92.152344 C 9.847656 92.832031 10.367188 93.304688 11.097656 93.5625 L 11.332031 93.800781 L 10.628906 93.484375 L 8.988281 91.996094 L 8.910156 91.839844 L 8.519531 93.5625 C 8.519531 94.660156 8.855469 95.496094 9.535156 96.074219 C 10.261719 96.804688 11.121094 97.167969 12.113281 97.167969 C 13.101562 97.167969 13.9375 96.804688 14.613281 96.074219 L 14.222656 96.699219 L 14.144531 96.777344 C 14.5625 96.882812 14.925781 96.777344 15.238281 96.464844 C 15.757812 96.203125 16.046875 95.835938 16.097656 95.367188 C 16.253906 94.84375 16.226562 94.375 16.019531 93.957031 L 15.941406 93.800781 L 16.253906 94.269531 C 16.515625 94.738281 16.539062 95.238281 16.332031 95.757812 L 15.707031 96.777344 L 16.722656 97.167969 C 17.503906 97.273438 18.234375 97.039062 18.910156 96.464844 C 19.589844 95.992188 19.953125 95.339844 20.003906 94.503906 C 20.109375 93.773438 19.925781 93.066406 19.457031 92.386719 L 19.457031 92.308594 L 19.925781 92.78125 C 20.394531 93.460938 20.578125 94.191406 20.472656 94.976562 C 20.371094 95.863281 19.953125 96.542969 19.222656 97.011719 C 18.546875 97.535156 17.816406 97.769531 17.035156 97.71875 L 15.550781 96.933594 L 13.910156 97.167969 L 13.832031 97.011719 C 13.152344 97.484375 12.449219 97.746094 11.722656 97.796875 C 10.730469 97.796875 9.820312 97.429688 8.988281 96.699219 C 8.257812 95.96875 7.890625 95.105469 7.890625 94.113281 C 7.890625 93.066406 8.230469 92.230469 8.910156 91.605469 C 8.753906 90.976562 8.777344 90.429688 8.988281 89.957031 C 9.300781 89.175781 9.769531 88.679688 10.394531 88.46875 L 12.582031 88.234375 L 12.894531 88.546875 M 15.628906 89.957031 L 15.628906 89.644531 C 15.628906 89.332031 15.472656 89.042969 15.160156 88.78125 L 13.910156 88.546875 L 13.128906 89.019531 L 12.816406 90.195312 L 12.816406 90.351562 L 12.738281 89.957031 L 13.128906 88.78125 L 13.128906 88.625 L 13.050781 88.546875 L 13.207031 88.625 L 13.910156 88.234375 C 14.378906 88.183594 14.796875 88.285156 15.160156 88.546875 C 15.472656 88.808594 15.628906 89.097656 15.628906 89.410156 L 15.628906 89.957031 "/>
<path style=" stroke:none;fill-rule:nonzero;fill:rgb(100%,100%,100%);fill-opacity:1;" d="M 55.402344 8.910156 L 56.34375 7.890625 L 58.140625 6.320312 L 60.953125 4.597656 C 64.285156 3.238281 67.515625 3.289062 70.640625 4.753906 C 73.871094 6.113281 76.113281 8.410156 77.363281 11.652344 L 77.910156 13.21875 C 78.640625 15.988281 78.429688 18.707031 77.285156 21.371094 L 76.894531 22.078125 L 76.347656 23.019531 L 75.175781 22.46875 L 72.363281 22 L 68.453125 22.390625 C 67.464844 22.652344 66.527344 23.097656 65.640625 23.722656 L 64.15625 24.820312 L 63.84375 24.898438 L 63.140625 25.683594 C 61.890625 25.578125 60.875 25.316406 60.09375 24.898438 C 58.0625 23.695312 56.550781 19.152344 55.558594 11.261719 L 55.402344 8.910156 M 55.011719 3.96875 L 56.421875 4.285156 L 55.246094 5.539062 L 55.011719 3.96875 M 76.347656 25.449219 L 77.597656 25.996094 C 78.535156 26.625 79.367188 27.40625 80.097656 28.347656 L 80.722656 29.132812 C 81.609375 30.28125 82.234375 31.585938 82.597656 33.050781 L 82.207031 32.972656 L 80.722656 32.503906 L 76.582031 32.738281 L 74.160156 33.679688 L 74.003906 33.757812 C 73.066406 34.277344 72.230469 34.878906 71.5 35.558594 L 72.597656 34.933594 L 73.769531 34.460938 L 76.191406 33.757812 L 80.566406 34.148438 L 80.957031 34.226562 C 83.457031 35.113281 85.332031 36.761719 86.582031 39.164062 C 87.363281 40.628906 87.808594 42.167969 87.910156 43.789062 L 87.363281 47.082031 C 87 48.546875 86.375 49.773438 85.488281 50.765625 L 85.175781 50.765625 C 84.449219 49.40625 83.457031 48.257812 82.207031 47.316406 C 80.28125 46.0625 78.195312 45.566406 75.957031 45.828125 C 70.746094 42.535156 68.117188 39.609375 68.0625 37.046875 C 68.011719 33.703125 70.382812 30.152344 75.175781 26.386719 L 76.347656 25.449219 M 86.269531 51.238281 C 87.675781 49.980469 88.71875 48.335938 89.398438 46.296875 L 89.789062 44.730469 C 90.152344 42.429688 89.734375 40.289062 88.539062 38.304688 C 87.441406 35.953125 85.75 34.332031 83.457031 33.441406 C 83.40625 30.988281 82.648438 28.765625 81.191406 26.78125 L 82.050781 24.898438 L 83.066406 23.253906 C 85.308594 20.011719 88.355469 17.976562 92.210938 17.140625 C 96.066406 16.40625 99.632812 17.140625 102.914062 19.332031 C 106.199219 21.582031 108.203125 24.613281 108.933594 28.425781 C 109.558594 31.5625 109.246094 34.488281 107.996094 37.207031 L 107.605469 36.578125 C 106.769531 35.324219 105.652344 34.515625 104.246094 34.148438 C 102.679688 33.886719 101.300781 34.199219 100.101562 35.089844 L 98.929688 36.03125 L 99.398438 35.636719 C 100.546875 34.855469 101.847656 34.617188 103.304688 34.933594 C 104.714844 35.140625 105.832031 35.847656 106.667969 37.046875 C 107.449219 38.355469 107.683594 39.660156 107.371094 40.96875 C 107.214844 41.855469 106.902344 42.585938 106.433594 43.164062 C 105.128906 43.007812 103.800781 43.265625 102.445312 43.945312 L 100.648438 44.886719 L 100.414062 45.199219 L 101.351562 44.730469 L 107.214844 44.417969 C 109.246094 45.199219 110.730469 46.558594 111.667969 48.492188 C 112.242188 49.902344 112.449219 51.289062 112.292969 52.648438 C 111.355469 51.96875 110.339844 51.445312 109.246094 51.078125 L 105.261719 50.140625 L 106.980469 50.609375 C 110.367188 51.96875 112.761719 54.265625 114.167969 57.507812 C 115.628906 60.800781 115.730469 64.144531 114.480469 67.539062 C 113.855469 69.160156 113.023438 70.492188 111.980469 71.539062 C 111.148438 68.195312 109.296875 65.476562 106.433594 63.386719 C 105.285156 62.65625 104.089844 62.078125 102.835938 61.660156 L 104.324219 62.601562 C 107.292969 64.589844 109.0625 67.304688 109.636719 70.753906 C 110.3125 74.253906 109.6875 77.46875 107.761719 80.394531 C 105.730469 83.375 102.941406 85.230469 99.398438 85.960938 C 96.792969 86.429688 94.371094 86.144531 92.132812 85.097656 L 92.914062 84.238281 C 93.433594 83.296875 93.566406 82.328125 93.304688 81.335938 C 93.148438 80.289062 92.625 79.507812 91.742188 78.984375 L 90.726562 78.515625 L 91.117188 78.828125 C 91.898438 79.296875 92.417969 80.054688 92.679688 81.101562 C 92.9375 82.09375 92.78125 83.007812 92.210938 83.84375 C 91.6875 84.679688 90.933594 85.230469 89.945312 85.492188 C 88.902344 85.648438 87.964844 85.492188 87.128906 85.019531 L 86.816406 84.707031 C 86.140625 84.183594 85.699219 83.53125 85.488281 82.746094 C 85.28125 81.703125 85.464844 80.761719 86.035156 79.925781 L 85.878906 79.691406 L 85.800781 79.925781 C 85.175781 81.230469 84.109375 82.171875 82.597656 82.746094 L 82.285156 82.824219 L 83.378906 84.316406 L 83.613281 85.019531 C 84.136719 86.378906 84.058594 87.710938 83.378906 89.019531 C 82.648438 90.429688 81.582031 91.371094 80.175781 91.839844 L 76.191406 91.605469 C 74.730469 90.976562 73.792969 89.957031 73.378906 88.546875 L 73.066406 87.765625 C 72.855469 86.613281 72.988281 85.464844 73.457031 84.316406 C 74.132812 83.007812 75.199219 82.066406 76.660156 81.492188 L 76.894531 81.414062 C 77.832031 82.40625 79.03125 82.980469 80.488281 83.140625 L 82.050781 82.824219 L 81.503906 82.824219 C 80.046875 82.824219 78.796875 82.328125 77.753906 81.335938 C 76.816406 80.238281 76.347656 78.984375 76.347656 77.574219 L 76.347656 77.417969 L 76.582031 76.476562 C 76.789062 75.535156 77.285156 74.699219 78.066406 73.96875 C 79.054688 73.027344 80.253906 72.558594 81.660156 72.558594 L 81.972656 72.558594 L 80.800781 72.480469 C 79.289062 72.320312 78.039062 72.792969 77.050781 73.890625 L 76.269531 74.59375 L 76.269531 74.359375 L 75.488281 72.871094 L 75.800781 73.496094 L 75.957031 74.988281 C 75.589844 75.71875 75.410156 76.554688 75.410156 77.496094 L 75.410156 77.886719 L 74.863281 78.515625 C 74.289062 79.351562 73.457031 79.976562 72.363281 80.394531 L 69.859375 80.710938 L 68.140625 80.160156 L 67.75 79.925781 L 67.4375 79.691406 L 67.046875 79.21875 L 67.359375 79.535156 C 66.472656 78.855469 65.824219 78.019531 65.40625 77.023438 L 65.25 76.632812 L 65.5625 77.964844 C 65.980469 79.011719 66.578125 79.898438 67.359375 80.628906 L 67.984375 80.945312 L 68.453125 82.433594 C 69.445312 85.777344 69.289062 89.097656 67.984375 92.386719 C 66.421875 96.152344 63.738281 98.816406 59.9375 100.382812 C 56.1875 102.003906 52.382812 102.003906 48.527344 100.382812 C 44.722656 98.921875 42.015625 96.28125 40.402344 92.464844 L 39.773438 90.585938 L 39.304688 86.746094 L 39.382812 86.667969 L 39.773438 87.449219 C 40.402344 88.339844 41.207031 88.914062 42.199219 89.175781 L 45.089844 88.78125 C 45.246094 88.625 45.402344 88.519531 45.558594 88.46875 C 46.183594 88 46.574219 87.398438 46.730469 86.667969 L 46.808594 86.351562 L 46.886719 85.332031 L 46.808594 85.648438 L 46.574219 86.507812 C 46.261719 87.136719 45.792969 87.660156 45.167969 88.078125 L 45.089844 88.078125 L 42.277344 88.46875 C 41.339844 88.207031 40.582031 87.632812 40.011719 86.746094 L 39.773438 86.117188 L 40.792969 84.238281 L 41.261719 81.886719 L 41.261719 79.296875 L 41.183594 79.0625 L 41.183594 80.160156 L 40.871094 81.414062 C 40.765625 82.199219 40.503906 82.929688 40.089844 83.609375 C 39.617188 84.601562 38.914062 85.492188 37.976562 86.273438 C 36.050781 87.789062 33.886719 88.417969 31.492188 88.15625 C 30.085938 88 28.835938 87.632812 27.742188 87.058594 C 31.023438 85.699219 33.496094 83.347656 35.164062 80.003906 L 36.101562 77.808594 L 36.492188 75.847656 L 35.867188 77.496094 L 35.710938 77.574219 C 34.042969 81.074219 31.441406 83.425781 27.898438 84.628906 C 24.25 85.882812 20.761719 85.648438 17.425781 83.921875 C 13.9375 82.25 11.589844 79.613281 10.394531 76.007812 L 9.691406 71.851562 L 10.316406 72.164062 C 12.503906 73.574219 14.820312 74.046875 17.269531 73.574219 C 16.125 74.777344 14.898438 75.925781 13.597656 77.023438 L 19.222656 73.105469 C 20.785156 72.53125 22.113281 71.640625 23.207031 70.441406 L 28.289062 66.992188 L 36.960938 61.816406 C 37.847656 62.496094 38.863281 62.835938 40.011719 62.835938 L 41.652344 62.679688 L 40.871094 62.679688 C 39.617188 62.679688 38.550781 62.261719 37.664062 61.425781 C 42.355469 59.074219 45.375 58.289062 46.730469 59.074219 C 48.867188 60.277344 51.132812 64.40625 53.527344 71.460938 L 54.308594 73.496094 L 53.996094 73.339844 L 52.589844 71.851562 L 51.730469 69.265625 L 51.730469 68.558594 L 51.652344 70.285156 L 52.042969 71.929688 C 52.410156 72.976562 53.058594 73.8125 53.996094 74.4375 L 54.777344 75.066406 L 56.734375 81.335938 L 55.714844 75.457031 L 58.453125 75.847656 C 59.648438 75.796875 60.640625 75.40625 61.421875 74.671875 L 62.28125 74.046875 L 62.671875 73.574219 C 63.714844 72.21875 64.15625 70.726562 64 69.109375 L 64 69.03125 L 63.53125 67.226562 L 63.609375 68.011719 C 63.765625 69.628906 63.347656 71.121094 62.359375 72.480469 L 61.265625 73.574219 C 60.378906 74.097656 59.390625 74.4375 58.296875 74.59375 L 55.558594 74.28125 L 55.402344 73.65625 C 55.089844 68.167969 55.925781 65.164062 57.90625 64.640625 C 59.363281 64.273438 61.238281 65.136719 63.53125 67.226562 L 66.421875 70.285156 L 71.265625 76.789062 C 69.652344 74.175781 68.273438 71.304688 67.125 68.167969 C 64.78125 61.636719 64.597656 57.140625 66.578125 54.683594 C 68.558594 52.28125 74.394531 51.8125 84.082031 53.273438 L 84.238281 53.746094 C 84.761719 56.253906 84.316406 58.578125 82.910156 60.722656 C 81.453125 62.707031 79.5 63.933594 77.050781 64.40625 L 76.191406 64.640625 L 75.878906 64.640625 L 76.191406 64.71875 L 78.691406 64.40625 C 81.242188 63.933594 83.25 62.628906 84.707031 60.484375 C 86.113281 58.394531 86.636719 56.121094 86.269531 53.667969 L 98.773438 56.332031 C 94.660156 54.867188 90.492188 53.167969 86.269531 51.238281 M 54.308594 3.890625 L 53.917969 7.183594 L 53.527344 7.8125 L 52.902344 9.144531 C 51.707031 11.757812 51.445312 14.394531 52.121094 17.0625 C 50.402344 24.21875 48.292969 28.375 45.792969 29.523438 C 43.03125 30.726562 38.5 29.054688 32.195312 24.507812 L 23.753906 17.375 L 31.570312 25.996094 C 36.570312 32.109375 38.34375 36.132812 36.882812 38.066406 C 35.320312 39.949219 31.023438 39.816406 23.988281 37.675781 L 21.019531 36.65625 L 22.035156 36.65625 L 21.019531 36.5 C 19.09375 36.082031 17.632812 35.011719 16.644531 33.285156 C 15.550781 31.5625 15.238281 29.734375 15.707031 27.800781 C 16.070312 26.492188 16.671875 25.371094 17.503906 24.429688 C 18.546875 27.722656 20.550781 30.253906 23.519531 32.03125 C 24.71875 32.710938 25.96875 33.183594 27.273438 33.441406 L 25.789062 32.660156 C 22.714844 30.988281 20.734375 28.425781 19.847656 24.976562 C 18.910156 21.632812 19.277344 18.496094 20.941406 15.570312 C 22.660156 12.488281 25.164062 10.503906 28.445312 9.613281 L 29.226562 9.300781 L 28.757812 10.710938 C 27.558594 14.054688 27.820312 17.347656 29.539062 20.585938 L 30.867188 22.859375 L 31.648438 23.800781 L 30.867188 22.46875 L 30.867188 22.390625 C 29.25 19.253906 29.015625 16.066406 30.164062 12.828125 C 31.257812 9.535156 33.316406 7.105469 36.335938 5.539062 C 39.359375 4.023438 42.433594 3.710938 45.558594 4.597656 L 42.980469 8.28125 C 42.09375 10.527344 41.910156 12.75 42.433594 14.945312 L 42.902344 16.667969 C 43.371094 17.816406 43.941406 18.785156 44.621094 19.570312 L 43.917969 18.15625 L 43.371094 16.589844 L 43.214844 14.628906 C 43.214844 13.113281 43.5 11.652344 44.074219 10.242188 L 44.308594 9.847656 L 46.339844 6.871094 C 47.328125 5.878906 48.527344 5.121094 49.933594 4.597656 C 51.394531 4.074219 52.851562 3.839844 54.308594 3.890625 M 16.957031 35.167969 L 24.382812 38.382812 C 31.726562 41.777344 35.582031 45.097656 35.945312 48.335938 C 36.519531 51.574219 32.976562 57.324219 25.320312 65.582031 L 19.457031 71.539062 L 18.753906 71.695312 C 16.148438 72.269531 13.703125 71.851562 11.410156 70.441406 C 9.066406 68.976562 7.605469 66.9375 7.03125 64.328125 C 6.40625 61.714844 6.824219 59.230469 8.285156 56.878906 L 8.675781 56.332031 L 9.222656 56.800781 C 10.679688 57.847656 12.320312 58.210938 14.144531 57.898438 L 16.019531 57.351562 L 15.160156 57.507812 C 13.441406 57.769531 11.851562 57.375 10.394531 56.332031 L 9.457031 55.546875 C 8.621094 54.605469 8.101562 53.507812 7.890625 52.253906 L 7.890625 52.019531 C 9.507812 52.960938 11.148438 53.535156 12.816406 53.746094 L 17.660156 53.667969 L 17.738281 53.667969 L 20.316406 52.960938 L 21.644531 52.253906 L 19.925781 52.648438 C 16.175781 53.378906 12.761719 52.699219 9.691406 50.609375 C 6.5625 48.570312 4.636719 45.671875 3.90625 41.910156 C 3.230469 38.199219 3.933594 34.777344 6.015625 31.640625 C 7.996094 28.609375 10.863281 26.703125 14.613281 25.917969 L 14.769531 25.917969 L 14.222656 27.40625 C 13.753906 29.339844 14.066406 31.222656 15.160156 33.050781 L 16.957031 35.167969 M 72.832031 24.507812 L 66.578125 25.527344 C 67.984375 24.792969 69.574219 24.429688 71.34375 24.429688 L 72.285156 24.429688 L 72.832031 24.507812 M 77.285156 46.613281 C 78.429688 46.820312 79.5 47.289062 80.488281 48.023438 L 81.660156 49.042969 L 77.285156 46.613281 M 119.558594 27.800781 L 119.480469 27.25 L 119.792969 26.703125 L 120.34375 26.625 L 120.890625 26.78125 L 121.203125 27.40625 L 120.8125 27.957031 C 120.601562 28.113281 120.421875 28.191406 120.265625 28.191406 C 120.003906 28.140625 119.847656 28.0625 119.792969 27.957031 L 119.558594 27.800781 M 124.015625 28.191406 L 124.171875 28.113281 L 125.8125 27.800781 L 127.0625 28.816406 C 127.425781 29.339844 127.503906 29.914062 127.296875 30.542969 C 127.140625 31.066406 126.800781 31.457031 126.28125 31.71875 L 126.046875 32.03125 L 126.046875 31.71875 L 125.578125 30.699219 L 125.265625 30.621094 L 125.8125 31.5625 L 125.421875 32.503906 L 125.109375 32.972656 L 125.1875 32.109375 L 125.109375 32.34375 C 124.898438 33.128906 124.484375 33.730469 123.859375 34.148438 L 121.90625 34.460938 C 121.226562 34.304688 120.679688 33.964844 120.265625 33.441406 L 120.578125 33.441406 C 121.203125 33.339844 121.695312 33.078125 122.0625 32.660156 L 122.6875 32.03125 L 122.375 32.265625 L 120.890625 33.050781 C 120.210938 33.050781 119.664062 32.816406 119.246094 32.34375 C 118.777344 31.875 118.519531 31.328125 118.464844 30.699219 C 118.464844 30.074219 118.675781 29.550781 119.089844 29.132812 L 119.402344 28.898438 L 119.402344 28.816406 L 120.8125 28.347656 C 121.382812 28.347656 121.90625 28.53125 122.375 28.898438 L 122.53125 29.132812 L 123 29.210938 L 123.3125 29.210938 L 124.015625 28.191406 M 124.796875 27.722656 L 124.484375 27.800781 L 124.171875 27.957031 L 124.171875 27.722656 L 124.25 27.722656 L 124.25 27.640625 L 124.71875 27.640625 L 124.796875 27.722656 M 121.359375 27.328125 L 121.671875 26.625 L 122.375 26.230469 L 123.15625 26.386719 L 123.46875 27.25 L 123.46875 27.328125 L 123.3125 27.957031 C 123.101562 28.21875 122.84375 28.347656 122.53125 28.347656 C 122.21875 28.347656 121.957031 28.269531 121.75 28.113281 L 121.359375 27.40625 L 121.359375 27.328125 M 91.273438 94.347656 L 91.429688 94.113281 L 92.289062 93.40625 L 93.617188 93.484375 C 94.035156 93.746094 94.269531 94.085938 94.320312 94.503906 L 94.476562 95.523438 L 94.398438 95.601562 L 94.320312 95.757812 L 94.242188 95.757812 C 94.035156 95.757812 93.902344 95.835938 93.851562 95.992188 L 94.242188 95.914062 L 94.710938 95.992188 L 95.023438 96.464844 L 94.398438 96.386719 L 93.851562 96.464844 L 94.085938 96.464844 C 94.710938 96.464844 95.230469 96.699219 95.648438 97.167969 C 96.011719 97.589844 96.195312 98.136719 96.195312 98.816406 C 96.195312 99.390625 96.011719 99.886719 95.648438 100.304688 L 95.492188 100.382812 L 95.257812 99.207031 L 94.789062 98.425781 L 95.023438 98.816406 C 95.230469 99.496094 95.230469 100.199219 95.023438 100.933594 C 94.605469 101.664062 94.113281 102.132812 93.539062 102.34375 L 91.273438 102.1875 L 91.117188 102.109375 L 91.507812 101.792969 C 92.027344 101.480469 92.339844 101.011719 92.445312 100.382812 L 92.601562 99.835938 L 92.445312 100.070312 C 92.339844 100.644531 92.027344 101.089844 91.507812 101.402344 L 90.023438 101.714844 L 88.695312 100.695312 L 90.726562 100.617188 L 91.429688 100.226562 L 91.117188 100.304688 L 89.007812 100.382812 L 88.304688 99.914062 L 87.519531 99.128906 C 87.15625 98.398438 87.15625 97.667969 87.519531 96.933594 C 87.675781 96.359375 87.988281 95.890625 88.460938 95.523438 L 88.773438 95.367188 L 89.085938 95.289062 L 90.882812 95.367188 L 91.195312 95.523438 L 91.195312 95.367188 L 91.273438 94.347656 M 93.539062 96.699219 L 93.539062 96.464844 L 93.226562 96.699219 L 92.289062 96.464844 L 92.445312 96.777344 L 92.445312 97.011719 L 92.679688 97.011719 L 93.539062 96.699219 M 7.734375 10.085938 L 7.8125 10.632812 L 8.832031 11.261719 L 8.988281 11.261719 L 8.207031 10.632812 L 7.890625 9.457031 L 8.050781 9.222656 L 8.441406 9.925781 L 8.285156 9.613281 C 7.96875 8.671875 7.96875 7.757812 8.285156 6.871094 C 8.648438 6.085938 9.222656 5.460938 10.003906 4.988281 C 10.886719 4.726562 11.695312 4.726562 12.425781 4.988281 L 11.410156 6.164062 C 11.097656 6.84375 11.070312 7.550781 11.332031 8.28125 L 11.722656 9.144531 L 11.644531 8.671875 C 11.382812 8.046875 11.410156 7.394531 11.722656 6.714844 L 13.207031 5.304688 L 15.238281 5.382812 C 15.914062 5.746094 16.382812 6.242188 16.644531 6.871094 L 16.722656 7.339844 C 16.878906 7.863281 16.800781 8.386719 16.488281 8.910156 L 16.332031 8.671875 L 15.707031 8.28125 L 15.316406 8.28125 L 15.550781 8.28125 L 16.253906 8.671875 C 16.410156 8.832031 16.4375 9.089844 16.332031 9.457031 L 16.019531 10.085938 L 15.394531 10.320312 L 15.003906 10.320312 L 13.910156 10.398438 C 13.648438 10.867188 13.257812 11.183594 12.738281 11.339844 C 12.113281 11.601562 11.511719 11.703125 10.941406 11.652344 L 10.941406 12.359375 L 11.722656 12.75 L 12.113281 13.21875 L 12.113281 13.613281 L 11.800781 14.160156 C 11.695312 14.421875 11.460938 14.550781 11.097656 14.550781 C 10.835938 14.550781 10.574219 14.449219 10.316406 14.238281 L 10.316406 14.160156 L 10.628906 13.613281 L 10.707031 13.21875 C 10.445312 13.742188 10.027344 14.160156 9.457031 14.472656 C 8.777344 14.578125 8.207031 14.472656 7.734375 14.160156 C 7.109375 13.898438 6.695312 13.453125 6.484375 12.828125 C 6.382812 12.148438 6.460938 11.574219 6.71875 11.101562 L 6.796875 10.867188 L 7.734375 10.085938 M 50.714844 67.148438 C 50.558594 68.351562 50.011719 69.34375 49.074219 70.128906 C 48.085938 70.964844 46.964844 71.304688 45.714844 71.144531 C 44.410156 70.988281 43.394531 70.414062 42.667969 69.421875 C 41.832031 68.480469 41.496094 67.382812 41.652344 66.128906 L 41.652344 66.050781 L 41.417969 66.835938 C 41.261719 68.246094 41.597656 69.449219 42.433594 70.441406 C 43.265625 71.433594 44.308594 71.980469 45.558594 72.085938 C 46.914062 72.191406 48.085938 71.851562 49.074219 71.066406 C 50.117188 70.179688 50.714844 69.109375 50.871094 67.855469 L 50.714844 66.519531 L 50.714844 67.148438 M 19.457031 92.308594 L 19.457031 92.386719 C 19.925781 93.066406 20.109375 93.773438 20.003906 94.503906 C 19.953125 95.339844 19.589844 95.992188 18.910156 96.464844 C 18.234375 97.039062 17.503906 97.273438 16.722656 97.167969 L 15.707031 96.777344 L 16.332031 95.757812 C 16.539062 95.238281 16.515625 94.738281 16.253906 94.269531 L 15.941406 93.800781 L 16.019531 93.957031 C 16.226562 94.375 16.253906 94.84375 16.097656 95.367188 C 16.046875 95.835938 15.757812 96.203125 15.238281 96.464844 C 14.925781 96.777344 14.5625 96.882812 14.144531 96.777344 L 14.222656 96.699219 L 14.613281 96.074219 C 13.9375 96.804688 13.101562 97.167969 12.113281 97.167969 C 11.121094 97.167969 10.261719 96.804688 9.535156 96.074219 C 8.855469 95.496094 8.519531 94.660156 8.519531 93.5625 L 8.910156 91.839844 L 8.988281 91.996094 L 10.628906 93.484375 L 11.332031 93.800781 L 11.097656 93.5625 C 10.367188 93.304688 9.847656 92.832031 9.535156 92.152344 C 9.167969 91.421875 9.167969 90.714844 9.535156 90.035156 C 9.792969 89.359375 10.261719 88.886719 10.941406 88.625 L 12.894531 88.546875 L 13.050781 88.546875 L 13.128906 88.625 L 13.128906 88.78125 L 12.738281 89.957031 L 12.816406 90.351562 L 12.816406 90.195312 L 13.128906 89.019531 L 13.910156 88.546875 L 15.160156 88.78125 C 15.472656 89.042969 15.628906 89.332031 15.628906 89.644531 L 15.628906 89.957031 L 15.316406 90.820312 L 14.769531 91.371094 L 15.238281 91.996094 L 15.316406 91.839844 C 15.941406 91.316406 16.671875 91.082031 17.503906 91.132812 C 18.179688 91.289062 18.753906 91.605469 19.222656 92.074219 L 19.457031 92.308594 "/>
<path style=" stroke:none;fill-rule:nonzero;fill:rgb(0%,0%,0%);fill-opacity:1;" d="M 76.347656 23.019531 L 76.894531 22.078125 L 77.207031 23.253906 L 76.347656 23.019531 M 69.15625 81.492188 L 68.84375 81.886719 L 68.453125 81.179688 L 69.15625 81.492188 "/>
</g>
</svg>
