<?xml version="1.0" encoding="UTF-8"?>
<svg xmlns="http://www.w3.org/2000/svg" xmlns:xlink="http://www.w3.org/1999/xlink" width="126pt" height="29pt" viewBox="0 0 126 29" version="1.1">
<g id="surface1">
<path style=" stroke:none;fill-rule:nonzero;fill:rgb(100%,100%,100%);fill-opacity:1;" d="M 75.886719 3.890625 C 79.746094 6.480469 81.675781 9.609375 81.675781 13.273438 C 81.675781 16.9375 79.746094 20.09375 75.886719 22.742188 C 71.96875 25.335938 67.265625 26.632812 61.78125 26.632812 C 56.296875 26.632812 51.597656 25.335938 47.679688 22.742188 C 43.820312 20.09375 41.886719 16.9375 41.886719 13.273438 C 41.886719 9.609375 43.820312 6.480469 47.679688 3.890625 C 51.597656 1.296875 56.296875 0 61.78125 0 C 67.265625 0 71.96875 1.296875 75.886719 3.890625 "/>
<path style=" stroke:none;fill-rule:nonzero;fill:rgb(100%,100%,100%);fill-opacity:1;" d="M 79.746094 20.207031 C 78.347656 20.996094 77.199219 20.65625 76.304688 19.191406 C 75.464844 17.726562 75.746094 16.601562 77.144531 15.808594 L 86.378906 10.90625 L 88.226562 10.652344 L 89.820312 11.835938 L 97.292969 24.351562 C 98.128906 25.757812 97.824219 26.886719 96.367188 27.730469 C 94.914062 28.578125 93.765625 28.296875 92.925781 26.886719 L 86.714844 16.488281 L 79.746094 20.207031 "/>
<path style=" stroke:none;fill-rule:nonzero;fill:rgb(100%,100%,100%);fill-opacity:1;" d="M 45.664062 15.386719 C 47.121094 16.175781 47.429688 17.304688 46.589844 18.769531 C 45.75 20.234375 44.601562 20.574219 43.148438 19.785156 L 37.101562 16.488281 L 30.890625 26.886719 C 30.050781 28.296875 28.90625 28.578125 27.449219 27.730469 C 25.996094 26.886719 25.6875 25.757812 26.527344 24.351562 L 33.996094 11.835938 L 35.59375 10.652344 L 37.4375 10.90625 L 45.664062 15.386719 "/>
<path style=" stroke:none;fill-rule:nonzero;fill:rgb(100%,100%,100%);fill-opacity:1;" d="M 45.917969 8.03125 L 45.078125 10.738281 L 39.371094 8.371094 L 32.066406 10.570312 L 22.75 21.730469 L 0.0820312 14.625 L 22.582031 9.554688 L 11.164062 10.90625 L 23.503906 1.523438 L 31.730469 7.695312 L 38.78125 5.328125 L 45.917969 8.03125 "/>
<path style=" stroke:none;fill-rule:nonzero;fill:rgb(100%,100%,100%);fill-opacity:1;" d="M 125.917969 14.625 L 103.25 21.730469 L 93.847656 10.570312 L 86.628906 8.371094 L 80.921875 10.738281 L 80.082031 8.03125 L 87.21875 5.328125 L 94.269531 7.695312 L 102.496094 1.523438 L 114.835938 10.90625 L 103.417969 9.554688 L 125.917969 14.625 "/>
</g>
</svg>
