<?xml version="1.0" encoding="UTF-8"?>
<svg xmlns="http://www.w3.org/2000/svg" xmlns:xlink="http://www.w3.org/1999/xlink" width="128pt" height="128pt" viewBox="0 0 128 128" version="1.1">
<defs>
<radialGradient id="radial0" gradientUnits="userSpaceOnUse" cx="0" cy="0" fx="0" fy="0" r="819.2" gradientTransform="matrix(0.0781543,0,0,-0.0781543,64.04794,63.90412)">
<stop offset="0.266667" style="stop-color:rgb(100%,100%,100%);stop-opacity:0;"/>
<stop offset="0.835294" style="stop-color:rgb(100%,100%,100%);stop-opacity:0.431373;"/>
<stop offset="0.92549" style="stop-color:rgb(100%,100%,100%);stop-opacity:0.917647;"/>
</radialGradient>
</defs>
<g id="surface1">
<path style=" stroke:none;fill-rule:nonzero;fill:url(#radial0);" d="M 0 63.902344 C 0 46.199219 6.265625 31.144531 18.792969 18.746094 C 31.257812 6.28125 46.34375 0.046875 64.046875 0.046875 C 81.816406 0.046875 96.871094 6.28125 109.207031 18.746094 C 121.734375 31.144531 128 46.199219 128 63.902344 C 128 81.609375 121.734375 96.726562 109.207031 109.253906 C 96.871094 121.71875 81.816406 127.953125 64.046875 127.953125 C 46.34375 127.953125 31.257812 121.71875 18.792969 109.253906 C 6.265625 96.726562 0 81.609375 0 63.902344 "/>
<path style=" stroke:none;fill-rule:nonzero;fill:rgb(100%,100%,100%);fill-opacity:1;" d="M 38.351562 91.519531 C 37.394531 91.519531 37.167969 91.167969 37.679688 90.464844 C 38.128906 89.824219 38.734375 89.503906 39.503906 89.503906 C 40.460938 89.503906 40.683594 89.824219 40.171875 90.464844 C 39.726562 91.167969 39.117188 91.519531 38.351562 91.519531 "/>
<path style=" stroke:none;fill-rule:nonzero;fill:rgb(100%,100%,100%);fill-opacity:1;" d="M 57.910156 105.132812 C 56.953125 105.132812 56.730469 104.875 57.242188 104.367188 C 57.816406 103.726562 58.421875 103.40625 59.0625 103.40625 C 60.019531 103.40625 60.246094 103.726562 59.734375 104.367188 C 59.15625 104.875 58.550781 105.132812 57.910156 105.132812 "/>
<path style=" stroke:none;fill-rule:nonzero;fill:rgb(100%,100%,100%);fill-opacity:1;" d="M 73.730469 105.996094 C 73.730469 105.675781 74.273438 105.386719 75.363281 105.132812 C 76.320312 104.941406 76.800781 104.941406 76.800781 105.132812 L 76.800781 106.28125 C 76.800781 106.859375 75.777344 107.144531 73.730469 107.144531 L 73.730469 105.996094 "/>
<path style=" stroke:none;fill-rule:nonzero;fill:rgb(100%,100%,100%);fill-opacity:1;" d="M 97.988281 97.175781 C 97.03125 96.726562 96.933594 96.183594 97.703125 95.542969 C 98.339844 94.90625 99.042969 94.746094 99.8125 95.066406 L 103.070312 96.214844 C 103.902344 96.535156 103.996094 97.078125 103.359375 97.84375 C 102.589844 98.484375 101.886719 98.707031 101.25 98.515625 L 97.988281 97.175781 "/>
<path style=" stroke:none;fill-rule:nonzero;fill:rgb(100%,100%,100%);fill-opacity:1;" d="M 95.6875 68.984375 C 94.859375 68.984375 94.601562 68.667969 94.921875 68.027344 C 95.367188 67.578125 95.945312 67.292969 96.648438 67.164062 L 98.660156 66.875 C 99.425781 67.066406 99.425781 67.453125 98.660156 68.027344 C 97.894531 68.472656 96.902344 68.792969 95.6875 68.984375 "/>
<path style=" stroke:none;fill-rule:nonzero;fill:rgb(100%,100%,100%);fill-opacity:1;" d="M 92.429688 57.769531 C 91.789062 57.769531 91.917969 57.542969 92.8125 57.097656 C 93.578125 56.648438 94.15625 56.425781 94.539062 56.425781 C 95.625 56.425781 94.921875 56.871094 92.429688 57.769531 "/>
<path style=" stroke:none;fill-rule:nonzero;fill:rgb(100%,100%,100%);fill-opacity:1;" d="M 75.171875 22.195312 C 75.171875 22.964844 74.625 23.410156 73.539062 23.539062 C 72.453125 23.601562 71.910156 23.28125 71.910156 22.578125 L 71.910156 20.085938 C 71.910156 19.449219 72.453125 19.0625 73.539062 18.9375 C 74.625 18.746094 75.171875 19.03125 75.171875 19.800781 L 75.171875 22.195312 "/>
<path style=" stroke:none;fill-rule:nonzero;fill:rgb(100%,100%,100%);fill-opacity:1;" d="M 46.117188 28.046875 C 46.246094 28.941406 45.765625 29.484375 44.679688 29.675781 C 43.722656 29.996094 43.179688 29.738281 43.050781 28.90625 L 42.761719 26.414062 C 42.632812 25.648438 43.113281 25.105469 44.199219 24.785156 C 45.160156 24.59375 45.703125 24.882812 45.832031 25.648438 L 46.117188 28.046875 "/>
<path style=" stroke:none;fill-rule:nonzero;fill:rgb(100%,100%,100%);fill-opacity:1;" d="M 29.339844 47.796875 C 28.378906 47.796875 28.1875 47.476562 28.765625 46.835938 C 29.277344 46.199219 29.851562 45.878906 30.488281 45.878906 C 31.511719 45.878906 31.738281 46.199219 31.160156 46.835938 C 30.714844 47.476562 30.105469 47.796875 29.339844 47.796875 "/>
<path style=" stroke:none;fill-rule:nonzero;fill:rgb(100%,100%,100%);fill-opacity:1;" d="M 21.191406 62.273438 L 23.203125 62.464844 C 23.714844 63.105469 23.492188 63.648438 22.53125 64.097656 L 19.558594 65.246094 L 17.640625 64.957031 C 17.066406 64.382812 17.289062 63.871094 18.3125 63.425781 C 19.273438 63.105469 20.230469 62.722656 21.191406 62.273438 "/>
<path style=" stroke:none;fill-rule:nonzero;fill:rgb(100%,100%,100%);fill-opacity:1;" d="M 92.332031 36.195312 C 91.4375 36.640625 90.703125 36.769531 90.128906 36.578125 C 89.617188 36.324219 89.742188 35.9375 90.511719 35.425781 L 91.949219 33.988281 C 92.269531 33.285156 92.875 32.933594 93.769531 32.933594 L 94.539062 32.933594 L 95.015625 33.414062 C 94.378906 34.628906 93.484375 35.554688 92.332031 36.195312 "/>
<path style=" stroke:none;fill-rule:nonzero;fill:rgb(100%,100%,100%);fill-opacity:1;" d="M 59.828125 67.644531 C 58.871094 67.644531 58.648438 67.386719 59.15625 66.875 C 59.859375 66.300781 60.46875 66.011719 60.980469 66.011719 C 61.9375 66.011719 62.164062 66.300781 61.652344 66.875 C 61.011719 67.386719 60.40625 67.644531 59.828125 67.644531 "/>
<path style=" stroke:none;fill-rule:nonzero;fill:rgb(100%,100%,100%);fill-opacity:1;" d="M 19.082031 92.09375 C 18.121094 92.09375 17.898438 91.835938 18.410156 91.324219 C 18.984375 90.6875 19.589844 90.367188 20.230469 90.367188 C 21.191406 90.367188 21.414062 90.6875 20.902344 91.324219 C 20.261719 91.835938 19.65625 92.09375 19.082031 92.09375 "/>
<path style=" stroke:none;fill-rule:nonzero;fill:rgb(100%,100%,100%);fill-opacity:1;" d="M 58.871094 120.472656 C 58.742188 119.707031 59.222656 119.226562 60.308594 119.035156 C 61.332031 118.84375 61.875 119.066406 61.9375 119.707031 C 61.9375 120.34375 62.289062 120.984375 62.992188 121.625 C 63.503906 122.199219 63.28125 122.679688 62.320312 123.0625 L 60.019531 122.964844 C 59.253906 121.945312 58.871094 121.113281 58.871094 120.472656 "/>
<path style=" stroke:none;fill-rule:nonzero;fill:rgb(100%,100%,100%);fill-opacity:1;" d="M 121.097656 74.355469 C 120.136719 74.355469 119.945312 74.035156 120.519531 73.394531 C 121.03125 72.757812 121.671875 72.4375 122.4375 72.4375 C 123.398438 72.4375 123.621094 72.757812 123.109375 73.394531 C 122.535156 74.035156 121.863281 74.355469 121.097656 74.355469 "/>
</g>
</svg>
