<?xml version="1.0" encoding="UTF-8"?>
<svg xmlns="http://www.w3.org/2000/svg" xmlns:xlink="http://www.w3.org/1999/xlink" width="128pt" height="840pt" viewBox="0 0 128 840" version="1.1">
<g id="surface1">
<path style=" stroke:none;fill-rule:nonzero;fill:rgb(66.666667%,67.45098%,68.235294%);fill-opacity:1;" d="M 113.425781 449.9375 L 113.425781 385.703125 L 14.574219 385.703125 L 14.574219 449.9375 L 113.425781 449.9375 M 113.425781 767.335938 L 113.425781 702.808594 L 14.574219 702.808594 L 14.574219 767.335938 L 113.425781 767.335938 M 113.425781 608.636719 L 113.425781 544.109375 L 14.574219 544.109375 L 14.574219 608.636719 L 113.425781 608.636719 M 113.425781 687.984375 L 113.425781 623.460938 L 14.574219 623.460938 L 14.574219 687.984375 L 113.425781 687.984375 M 113.425781 529.289062 L 113.425781 465.050781 L 14.574219 465.050781 L 14.574219 529.289062 L 113.425781 529.289062 M 113.425781 132.832031 L 113.425781 68.304688 L 14.574219 68.304688 L 14.574219 132.832031 L 113.425781 132.832031 M 113.425781 291.53125 L 113.425781 227.003906 L 14.574219 227.003906 L 14.574219 291.53125 L 113.425781 291.53125 M 113.425781 370.589844 L 113.425781 306.351562 L 14.574219 306.351562 L 14.574219 370.589844 L 113.425781 370.589844 M 113.425781 212.179688 L 113.425781 147.652344 L 14.574219 147.652344 L 14.574219 212.179688 L 113.425781 212.179688 M 113.425781 0 L 127.960938 0 L 127.960938 840 L 113.425781 840 L 113.425781 781.867188 L 14.574219 781.867188 L 14.574219 840 L 0.0390625 840 L 0.0390625 0 L 14.574219 0 L 14.574219 53.773438 L 113.425781 53.773438 L 113.425781 0 "/>
</g>
</svg>
