<?xml version="1.0" encoding="UTF-8"?>
<svg xmlns="http://www.w3.org/2000/svg" xmlns:xlink="http://www.w3.org/1999/xlink" width="128pt" height="142pt" viewBox="0 0 128 142" version="1.1">
<g id="surface1">
<path style=" stroke:none;fill-rule:nonzero;fill:rgb(0%,0%,0%);fill-opacity:1;" d="M 75.285156 14.617188 L 73.519531 16.253906 L 75.410156 16.128906 C 80.875 13.019531 86.71875 11.800781 92.9375 12.472656 C 99.324219 13.144531 104.875 15.664062 109.582031 20.035156 C 115.128906 25.074219 118.238281 31.332031 118.910156 38.808594 C 119.246094 42.753906 118.910156 46.492188 117.902344 50.019531 L 115.507812 55.566406 L 114.75 53.675781 C 113.320312 50.566406 110.800781 48.46875 107.183594 47.375 L 96.214844 48.003906 L 105.292969 48.761719 C 108.066406 49.851562 110.042969 51.617188 111.21875 54.054688 C 112.648438 57.246094 112.480469 60.605469 110.714844 64.132812 C 108.949219 67.660156 106.09375 70.347656 102.140625 72.195312 L 98.609375 73.457031 C 101.300781 73.539062 103.949219 72.996094 106.554688 71.820312 C 110.335938 70.054688 113.027344 67.367188 114.625 63.753906 C 115.382812 62.160156 115.800781 60.605469 115.886719 59.09375 L 120.804688 66.90625 L 122.945312 73.457031 L 123.199219 74.96875 C 124.542969 82.445312 123.617188 89.585938 120.425781 96.386719 L 117.144531 102.183594 L 112.605469 107.351562 L 108.195312 111.003906 L 99.117188 115.289062 L 88.777344 117.179688 L 88.398438 117.304688 L 88.144531 117.179688 C 82.933594 117.179688 77.933594 116.042969 73.140625 113.777344 L 65.199219 108.738281 C 68.140625 111.761719 71.585938 114.195312 75.535156 116.042969 C 79.570312 117.890625 83.648438 118.984375 87.769531 119.320312 L 87.640625 119.949219 L 84.992188 124.109375 L 81.335938 127.511719 C 76.125 131.375 70.03125 132.632812 63.054688 131.289062 C 55.742188 129.945312 49.5625 126.167969 44.519531 119.949219 C 40.988281 115.5 38.71875 110.710938 37.710938 105.585938 L 45.277344 104.074219 L 43.257812 102.4375 C 35.777344 103.445312 28.925781 102.5625 22.707031 99.789062 C 16.316406 96.851562 11.820312 92.441406 9.214844 86.5625 C 6.355469 80.175781 6.144531 73.414062 8.585938 66.273438 C 11.105469 59.21875 15.6875 53.253906 22.328125 48.382812 L 15.519531 53.046875 C 13.25 49.265625 12.28125 45.234375 12.617188 40.949219 C 12.957031 36.496094 14.59375 32.675781 17.535156 29.484375 C 21.320312 25.535156 26.070312 23.5625 31.785156 23.5625 C 37.417969 23.5625 42.417969 25.578125 46.789062 29.609375 L 50.066406 33.515625 C 49.058594 29.820312 47.125 26.667969 44.265625 24.066406 L 43.132812 23.058594 C 43.046875 19.277344 43.847656 15.832031 45.527344 12.726562 C 47.714844 8.695312 50.78125 6.257812 54.734375 5.417969 C 58.09375 4.660156 61.375 5.207031 64.566406 7.054688 C 67.761719 8.902344 70.324219 11.675781 72.257812 15.371094 L 73.265625 16.378906 L 72.761719 14.742188 L 73.265625 15.496094 L 75.285156 14.617188 M 42.375 21.671875 L 42.5 22.554688 L 41.242188 21.671875 L 42.375 21.671875 M 20.6875 20.914062 L 20.5625 21.042969 L 20.5625 20.914062 L 20.6875 20.914062 M 13.753906 51.027344 L 15.519531 53.171875 L 14.132812 54.304688 L 13.753906 51.027344 M 58.136719 30.238281 C 55.445312 30.742188 53.007812 31.835938 50.824219 33.515625 C 47.460938 36.121094 45.359375 39.3125 44.519531 43.089844 C 43.761719 46.871094 44.476562 50.1875 46.664062 53.046875 C 48.765625 55.816406 51.664062 57.328125 55.363281 57.582031 C 59.144531 57.917969 62.675781 56.910156 65.953125 54.558594 C 62.929688 55.816406 59.945312 56.238281 57.003906 55.816406 C 53.976562 55.3125 51.621094 53.96875 49.941406 51.785156 C 47.839844 49.097656 47.292969 45.820312 48.300781 41.957031 C 49.3125 38.175781 51.539062 34.945312 54.984375 32.253906 L 58.136719 30.238281 "/>
<path style=" stroke:none;fill-rule:nonzero;fill:rgb(100%,100%,100%);fill-opacity:1;" d="M 108.195312 111.003906 L 112.605469 107.351562 L 117.144531 102.183594 L 120.425781 96.386719 C 123.617188 89.585938 124.542969 82.445312 123.199219 74.96875 L 122.945312 73.457031 L 120.804688 66.90625 L 115.886719 59.09375 C 115.800781 60.605469 115.382812 62.160156 114.625 63.753906 C 113.027344 67.367188 110.335938 70.054688 106.554688 71.820312 C 103.949219 72.996094 101.300781 73.539062 98.609375 73.457031 L 102.140625 72.195312 C 106.09375 70.347656 108.949219 67.660156 110.714844 64.132812 C 112.480469 60.605469 112.648438 57.246094 111.21875 54.054688 C 110.042969 51.617188 108.066406 49.851562 105.292969 48.761719 L 96.214844 48.003906 L 107.183594 47.375 C 110.800781 48.46875 113.320312 50.566406 114.75 53.675781 L 115.507812 55.566406 L 117.902344 50.019531 C 118.910156 46.492188 119.246094 42.753906 118.910156 38.808594 C 118.238281 31.332031 115.128906 25.074219 109.582031 20.035156 C 104.875 15.664062 99.324219 13.144531 92.9375 12.472656 C 86.71875 11.800781 80.875 13.019531 75.410156 16.128906 L 73.519531 16.253906 L 75.285156 14.617188 C 80.414062 10.246094 86.464844 7.980469 93.441406 7.8125 C 101.175781 7.644531 107.941406 10.207031 113.742188 15.496094 C 119.625 20.957031 122.734375 27.71875 123.074219 35.785156 C 123.410156 43.679688 120.929688 50.566406 115.632812 56.445312 L 115.886719 58.589844 L 116.011719 58.839844 C 120.632812 63.460938 123.703125 69.046875 125.214844 75.597656 C 127.066406 83.578125 126.265625 91.265625 122.820312 98.65625 C 118.703125 107.558594 112.019531 113.734375 102.773438 117.179688 C 98.066406 118.859375 93.441406 119.613281 88.902344 119.445312 C 87.894531 123.226562 86.128906 126.710938 83.605469 129.902344 C 80.496094 133.683594 76.585938 136.457031 71.878906 138.21875 C 64.902344 140.738281 58.011719 140.445312 51.203125 137.339844 C 44.476562 134.144531 39.8125 129.0625 37.207031 122.09375 C 36.113281 118.984375 35.566406 115.75 35.566406 112.390625 L 36.574219 105.710938 C 31.195312 106.132812 25.984375 105.460938 20.941406 103.695312 C 13.207031 101.007812 7.828125 96.261719 4.800781 89.457031 C 1.605469 82.402344 1.691406 74.925781 5.054688 67.03125 C 7.15625 62.160156 10.179688 57.917969 14.132812 54.304688 L 15.519531 53.171875 L 13.753906 51.027344 C 11.230469 47.585938 9.929688 43.679688 9.84375 39.3125 C 9.761719 33.851562 11.566406 29.105469 15.265625 25.074219 L 20.5625 21.042969 L 20.6875 20.914062 C 23.378906 19.488281 26.363281 18.691406 29.640625 18.523438 C 33.929688 18.355469 37.792969 19.402344 41.242188 21.671875 L 42.5 22.554688 L 42.375 21.671875 C 41.789062 17.304688 42.417969 13.230469 44.265625 9.449219 C 46.367188 4.996094 49.5625 2.269531 53.851562 1.261719 C 57.96875 0.421875 61.878906 1.429688 65.574219 4.285156 C 68.9375 6.886719 71.335938 10.375 72.761719 14.742188 L 73.265625 16.378906 L 72.257812 15.371094 C 70.324219 11.675781 67.761719 8.902344 64.566406 7.054688 C 61.375 5.207031 58.09375 4.660156 54.734375 5.417969 C 50.78125 6.257812 47.714844 8.695312 45.527344 12.726562 C 43.847656 15.832031 43.046875 19.277344 43.132812 23.058594 L 44.265625 24.066406 C 47.125 26.667969 49.058594 29.820312 50.066406 33.515625 L 46.789062 29.609375 C 42.417969 25.578125 37.417969 23.5625 31.785156 23.5625 C 26.070312 23.5625 21.320312 25.535156 17.535156 29.484375 C 14.59375 32.675781 12.957031 36.496094 12.617188 40.949219 C 12.28125 45.234375 13.25 49.265625 15.519531 53.046875 L 22.328125 48.382812 C 15.6875 53.253906 11.105469 59.21875 8.585938 66.273438 C 6.144531 73.414062 6.355469 80.175781 9.214844 86.5625 C 11.820312 92.441406 16.316406 96.851562 22.707031 99.789062 C 28.925781 102.5625 35.777344 103.445312 43.257812 102.4375 L 45.277344 104.074219 L 37.710938 105.585938 C 38.71875 110.710938 40.988281 115.5 44.519531 119.949219 C 49.5625 126.167969 55.742188 129.945312 63.054688 131.289062 C 70.03125 132.632812 76.125 131.375 81.335938 127.511719 L 81.96875 127.007812 L 84.992188 124.109375 L 87.640625 119.949219 L 88.019531 119.320312 L 87.769531 119.320312 C 83.648438 118.984375 79.570312 117.890625 75.535156 116.042969 C 71.585938 114.195312 68.140625 111.761719 65.199219 108.738281 L 73.140625 113.777344 C 77.933594 116.042969 82.933594 117.179688 88.144531 117.179688 L 88.398438 117.304688 L 88.777344 117.304688 L 88.777344 117.179688 L 89.28125 117.179688 L 89.28125 117.304688 L 89.660156 117.050781 C 96.214844 116.800781 102.269531 114.867188 107.816406 111.257812 L 108.195312 111.003906 M 58.136719 30.238281 L 54.984375 32.253906 C 51.539062 34.945312 49.3125 38.175781 48.300781 41.957031 C 47.292969 45.820312 47.839844 49.097656 49.941406 51.785156 C 51.621094 53.96875 53.976562 55.3125 57.003906 55.816406 C 59.945312 56.238281 62.929688 55.816406 65.953125 54.558594 C 62.675781 56.910156 59.144531 57.917969 55.363281 57.582031 C 51.664062 57.328125 48.765625 55.816406 46.664062 53.046875 C 44.476562 50.1875 43.761719 46.871094 44.519531 43.089844 C 45.359375 39.3125 47.460938 36.121094 50.824219 33.515625 C 53.007812 31.835938 55.445312 30.742188 58.136719 30.238281 "/>
</g>
</svg>
