<?xml version="1.0" encoding="UTF-8"?>
<svg xmlns="http://www.w3.org/2000/svg" xmlns:xlink="http://www.w3.org/1999/xlink" width="127pt" height="125pt" viewBox="0 0 127 125" version="1.1">
<g id="surface1">
<path style=" stroke:none;fill-rule:nonzero;fill:rgb(100%,100%,100%);fill-opacity:1;" d="M 120.484375 0.40625 L 123.917969 1.421875 C 120.28125 3.183594 117.789062 5.960938 116.441406 9.757812 C 115.632812 12.601562 114.21875 13.144531 112.199219 11.382812 C 109.90625 9.347656 108.425781 9.078125 107.753906 10.570312 C 107.214844 11.652344 107.484375 13.414062 108.5625 15.855469 C 109.640625 18.15625 109.839844 19.511719 109.167969 19.917969 L 104.316406 24.390625 C 104.046875 25.066406 104.453125 26.492188 105.53125 28.660156 C 106.742188 31.097656 107.148438 36.382812 106.742188 44.511719 C 106.339844 51.964844 106.609375 56.097656 107.550781 56.910156 L 117.046875 65.855469 L 124.324219 73.171875 L 126.949219 78.253906 L 123.3125 85.976562 L 118.867188 76.21875 L 108.359375 71.136719 L 95.832031 68.496094 C 94.886719 68.902344 94.886719 69.375 95.832031 69.917969 L 96.640625 71.136719 L 97.449219 72.359375 L 96.839844 73.375 L 94.214844 72.96875 L 90.980469 70.730469 L 90.171875 71.746094 L 90.578125 73.171875 L 90.171875 74.390625 L 88.152344 73.984375 L 86.132812 71.542969 L 85.121094 71.542969 L 85.726562 73.578125 L 85.523438 74.59375 C 85.121094 74.863281 84.582031 74.730469 83.910156 74.1875 L 82.695312 72.15625 L 82.292969 69.308594 L 81.886719 69.105469 L 65.320312 90.445312 L 47.941406 110.773438 L 50.972656 116.871094 L 44.304688 125 L 40.058594 107.519531 L 52.589844 96.953125 L 41.675781 88.617188 L 37.433594 81.503906 L 32.988281 82.316406 C 29.890625 83.265625 27.800781 84.824219 26.722656 86.992188 C 24.972656 90.242188 16.753906 91.125 2.070312 89.632812 L 0.0507812 81.503906 L 11.367188 75 L 12.175781 69.917969 L 19.449219 68.292969 L 16.621094 66.058594 L 2.675781 62.804688 L 9.347656 60.976562 L 18.84375 60.570312 L 24.300781 63.210938 L 23.492188 57.925781 C 23.222656 56.976562 23.960938 57.25 25.714844 58.738281 L 28.339844 61.179688 L 40.667969 48.578125 L 91.992188 24.390625 C 97.785156 24.121094 101.894531 22.222656 104.316406 18.699219 L 104.722656 13.210938 C 104.316406 10.367188 104.453125 8.332031 105.125 7.113281 L 111.1875 5.691406 C 114.421875 5.421875 115.96875 4.878906 115.835938 4.066406 C 113.546875 5.148438 113.34375 4.605469 115.230469 2.4375 C 116.308594 0.8125 118.058594 0.136719 120.484375 0.40625 "/>
</g>
</svg>
