<?xml version="1.0" encoding="UTF-8"?>
<svg xmlns="http://www.w3.org/2000/svg" xmlns:xlink="http://www.w3.org/1999/xlink" width="128pt" height="135pt" viewBox="0 0 128 135" version="1.1">
<g id="surface1">
<path style=" stroke:none;fill-rule:nonzero;fill:rgb(100%,100%,100%);fill-opacity:1;" d="M 63.789062 15.398438 L 16.285156 15.398438 C 16.285156 28.757812 17.550781 41.0625 20.085938 52.3125 L 63.789062 52.3125 L 63.789062 15.398438 M 126.707031 29.109375 C 125.300781 51.328125 120.796875 69.398438 113.195312 83.320312 C 104.75 98.929688 94.050781 112.21875 81.101562 123.1875 L 64.210938 135 C 59.425781 132.75 53.796875 128.8125 47.320312 123.1875 C 34.230469 112.21875 23.460938 98.929688 15.015625 83.320312 C 7.273438 69.398438 2.699219 51.328125 1.292969 29.109375 C 0.449219 18 0.449219 8.296875 1.292969 0 L 126.707031 0 C 127.550781 8.296875 127.550781 18 126.707031 29.109375 M 99.683594 75.9375 C 103.058594 69.75 105.875 62.015625 108.128906 52.734375 L 64.210938 52.734375 L 64.210938 116.859375 C 78.851562 106.03125 90.671875 92.390625 99.683594 75.9375 "/>
</g>
</svg>
