<?xml version="1.0" encoding="UTF-8"?>
<svg xmlns="http://www.w3.org/2000/svg" xmlns:xlink="http://www.w3.org/1999/xlink" width="128pt" height="227pt" viewBox="0 0 128 227" version="1.1">
<g id="surface1">
<path style=" stroke:none;fill-rule:nonzero;fill:rgb(100%,100%,100%);fill-opacity:1;" d="M 30.398438 2.09375 C 32.535156 2.09375 33.492188 2.835938 33.28125 4.328125 L 33.28125 49.019531 C 33.492188 50.507812 34.558594 51.359375 36.480469 51.570312 L 43.839844 51.253906 C 45.972656 51.253906 46.933594 50.507812 46.71875 49.019531 L 46.71875 4.328125 L 49.921875 1.773438 L 53.441406 2.09375 C 55.574219 2.09375 56.640625 2.945312 56.640625 4.644531 L 56.640625 74.875 C 56.640625 76.578125 55.785156 77.855469 54.078125 78.707031 L 38.078125 87.003906 L 36.480469 88.601562 L 35.839844 93.707031 L 44.480469 213.734375 C 44.265625 217.566406 42.667969 220.652344 39.679688 222.992188 C 36.691406 225.546875 32.960938 226.824219 28.480469 226.824219 C 24.214844 226.609375 20.585938 225.332031 17.601562 222.992188 C 14.398438 220.4375 12.90625 217.457031 13.121094 214.054688 C 12.90625 211.289062 15.574219 171.171875 21.121094 93.707031 L 19.839844 88.601562 L 18.558594 86.6875 L 2.558594 79.023438 C 0.851562 77.746094 0 76.46875 0 75.195312 L 0.320312 4.644531 C 0.105469 2.730469 1.066406 1.773438 3.199219 1.773438 L 7.039062 1.773438 C 9.171875 1.773438 10.132812 2.730469 9.921875 4.644531 L 9.921875 48.699219 L 13.121094 51.253906 L 20.480469 51.570312 C 22.613281 51.570312 23.679688 50.71875 23.679688 49.019531 L 23.679688 4.328125 C 23.679688 2.625 24.640625 1.878906 26.558594 2.09375 L 30.398438 2.09375 M 105.28125 137.761719 C 105.28125 146.273438 107.199219 171.386719 111.039062 213.097656 C 111.039062 216.5 109.546875 219.480469 106.558594 222.035156 C 103.574219 224.589844 99.945312 225.863281 95.679688 225.863281 C 91.199219 225.863281 87.464844 224.589844 84.480469 222.035156 C 81.707031 219.695312 80.105469 216.714844 79.679688 213.097656 L 82.878906 182.453125 C 84.800781 158.617188 85.761719 132.972656 85.761719 105.519531 C 85.761719 62.53125 83.839844 27.417969 80 0.175781 C 93.441406 4.007812 103.464844 9.433594 110.078125 16.457031 C 122.027344 29.011719 128 48.699219 128 75.511719 C 128 95.941406 126.078125 110.414062 122.238281 118.925781 C 119.894531 124.035156 114.238281 130.3125 105.28125 137.761719 "/>
</g>
</svg>
