<?xml version="1.0" encoding="UTF-8"?>
<svg xmlns="http://www.w3.org/2000/svg" xmlns:xlink="http://www.w3.org/1999/xlink" width="128pt" height="111pt" viewBox="0 0 128 111" version="1.1">
<g id="surface1">
<path style=" stroke:none;fill-rule:nonzero;fill:rgb(100%,100%,100%);fill-opacity:1;" d="M 63.90625 105.605469 C 66.738281 105.605469 69.203125 104.621094 71.296875 102.648438 C 73.265625 100.554688 74.25 98.089844 74.25 95.253906 C 74.25 92.417969 73.265625 90.015625 71.296875 88.042969 C 69.324219 85.945312 66.863281 84.898438 63.90625 84.898438 C 60.953125 84.898438 58.550781 85.945312 56.703125 88.042969 C 54.609375 90.015625 53.5625 92.417969 53.5625 95.253906 C 53.5625 98.089844 54.609375 100.554688 56.703125 102.648438 C 58.675781 104.621094 61.074219 105.605469 63.90625 105.605469 M 69.078125 27.394531 L 63.90625 25.730469 L 58.734375 27.394531 L 54.855469 31.277344 C 53.871094 32.878906 53.378906 34.605469 53.378906 36.457031 L 53.75 40.894531 L 57.257812 63.449219 L 58.734375 81.015625 L 69.449219 81.015625 L 70.1875 66.777344 L 73.882812 42.003906 L 74.4375 36.457031 C 74.4375 34.730469 73.941406 33.003906 72.957031 31.277344 L 69.078125 27.394531 M 63.90625 0.03125 C 65.140625 0.03125 66.125 0.707031 66.863281 2.066406 L 126.707031 105.605469 C 127.570312 107.085938 127.691406 108.378906 127.078125 109.488281 C 126.460938 110.476562 125.289062 110.96875 123.566406 110.96875 L 4.25 110.96875 C 2.523438 110.96875 1.355469 110.476562 0.738281 109.488281 C 0.246094 108.378906 0.371094 107.085938 1.109375 105.605469 L 60.953125 2.066406 C 61.8125 0.707031 62.800781 0.03125 63.90625 0.03125 "/>
</g>
</svg>
