<?xml version='1.0' encoding='UTF-8'?>
<svg xmlns:xlink="http://www.w3.org/1999/xlink" xmlns="http://www.w3.org/2000/svg" version="1.1" width="511px" height="515px" viewBox="-245.416204834 -246.749988556 510.61619339 514.767544556"><defs><g id="c62"><path fill="#ffffff" stroke="none" d="M5.4 -9.15 L5.4 -4.05 Q-2.0 -3.8 -4.2 -4.05 -5.4 -4.15 -7.4 -5.4 L-9.2 -6.6 -7.5 -7.75 Q-5.5 -8.95 -4.2 -9.15 L1.45 -9.25 5.4 -9.15 M9.25 -4.05 L6.6 -4.05 6.6 -9.15 9.25 -9.15 9.25 -4.05 M5.4 -2.55 L5.4 2.55 Q-2.0 2.8 -4.2 2.55 -5.4 2.45 -7.4 1.2 L-9.2 0.0 -7.5 -1.15 Q-5.5 -2.35 -4.2 -2.55 L1.45 -2.65 5.4 -2.55 M9.25 -2.55 L9.25 2.55 6.6 2.55 6.6 -2.55 9.25 -2.55 M5.4 9.15 Q-2.0 9.35 -4.2 9.15 -5.4 9.05 -7.4 7.8 L-9.2 6.55 -7.5 5.45 Q-5.5 4.25 -4.2 4.05 L1.45 3.95 5.4 4.05 5.4 9.15 M9.25 9.15 L6.6 9.15 6.6 4.05 9.25 4.05 9.25 9.15"/></g></defs><g><g><use transform="matrix(27.6756744385,0.0,0.0,27.6756744385,9.2,9.25)" xlink:href="#c62"/></g></g></svg>