<?xml version="1.0" encoding="UTF-8"?>
<svg xmlns="http://www.w3.org/2000/svg" xmlns:xlink="http://www.w3.org/1999/xlink" width="128pt" height="31pt" viewBox="0 0 128 31" version="1.1">
<g id="surface1">
<path style=" stroke:none;fill-rule:nonzero;fill:rgb(100%,100%,100%);fill-opacity:1;" d="M 29.5 9.714844 L 29.5 12.285156 L 45.5 12.285156 L 45.5 9.714844 L 29.5 9.714844 M 16.355469 10.285156 L 16.355469 11.714844 L 16.785156 12.285156 L 27.644531 12.285156 L 27.644531 9.714844 L 16.785156 9.714844 L 16.355469 10.285156 M 105.929688 25.144531 L 112.644531 28.714844 L 114.5 24.855469 L 106.785156 21.570312 L 92.644531 21.144531 L 91.644531 22.429688 C 92.214844 23.761719 92.929688 24.90625 93.785156 25.855469 C 94.832031 27.09375 96.070312 27.90625 97.5 28.285156 L 103.355469 27.285156 L 104.929688 26.285156 L 105.929688 25.144531 M 65.929688 10.855469 L 65.929688 11.429688 L 78.785156 11.429688 L 78.785156 10.855469 L 65.929688 10.855469 M 65.929688 4.570312 L 65.929688 5.285156 L 78.785156 5.285156 L 78.785156 4.570312 L 65.929688 4.570312 M 65.929688 7.429688 L 65.929688 8.714844 L 78.785156 8.714844 L 78.785156 7.429688 L 65.929688 7.429688 M 80.929688 4.429688 L 81.5 3.429688 L 82.5 3.144531 L 83.5 3.144531 L 84.5 3.570312 L 84.929688 4.570312 L 84.929688 5.855469 L 85.929688 5.429688 C 86.5 5.429688 86.882812 5.617188 87.070312 6 L 87.644531 7.144531 L 87.644531 8 L 88.214844 7.855469 L 88.5 7.855469 L 89.355469 8.285156 L 89.929688 9.429688 L 89.929688 9.570312 L 90.214844 9.570312 L 94.644531 11.285156 L 94.785156 5.570312 L 97.929688 6.714844 L 98.644531 10.144531 C 99.117188 12.523438 99.832031 14.046875 100.785156 14.714844 L 102.644531 15.144531 L 104.929688 14.429688 L 107.5 13.570312 L 110.355469 13.429688 L 125.785156 16.855469 C 124.738281 18.761719 124.738281 21.144531 125.785156 24 L 127.785156 27.714844 L 127.070312 29.429688 C 126.59375 29.808594 125.976562 29.808594 125.214844 29.429688 L 116.070312 25.285156 L 113.355469 31 L 106.214844 27.144531 L 102.929688 29.144531 L 97.355469 29.714844 C 95.644531 29.332031 94.167969 28.476562 92.929688 27.144531 L 90.5 23.714844 L 88.214844 26.570312 L 75.5 17.855469 L 46.929688 17.855469 C 45.976562 17.855469 45.5 17.382812 45.5 16.429688 L 4.5 16.429688 L 4.5 20.144531 C 4.5 21.09375 3.976562 21.570312 2.929688 21.570312 L 1.785156 21.570312 C 0.738281 21.570312 0.214844 21.09375 0.214844 20.144531 L 0.214844 6.855469 C 0.214844 5.90625 0.738281 5.429688 1.785156 5.429688 L 2.929688 5.429688 C 3.976562 5.429688 4.5 5.90625 4.5 6.855469 L 4.5 7.429688 L 16.355469 7.429688 L 16.355469 7.855469 L 27.644531 7.855469 L 27.644531 7.285156 C 27.644531 6.429688 27.976562 6 28.644531 6 C 29.214844 6 29.5 6.429688 29.5 7.285156 L 29.5 7.855469 L 45.5 7.855469 C 45.5 6.714844 45.976562 6.144531 46.929688 6.144531 L 57.355469 6.144531 C 57.832031 6.144531 58.214844 6.332031 58.5 6.714844 L 59.070312 7.855469 L 59.070312 11.570312 L 61.070312 11.570312 L 61.070312 6 L 61.644531 4.855469 L 61.644531 0.714844 L 61.785156 0.144531 L 62.5 0 L 62.785156 0.144531 L 63.214844 0.714844 L 63.214844 4.855469 L 63.785156 6 L 63.785156 4 L 64.355469 2.855469 L 65.355469 2.570312 L 79.5 2.570312 L 80.5 2.855469 L 80.929688 4 L 80.929688 4.429688 "/>
</g>
</svg>
