<?xml version="1.0" encoding="UTF-8"?>
<svg xmlns="http://www.w3.org/2000/svg" xmlns:xlink="http://www.w3.org/1999/xlink" width="128pt" height="101pt" viewBox="0 0 128 101" version="1.1">
<g id="surface1">
<path style=" stroke:none;fill-rule:nonzero;fill:rgb(100%,100%,100%);fill-opacity:1;" d="M 51.199219 74.191406 L 51.199219 83.410156 L 24.535156 83.410156 L 24.535156 74.191406 L 51.199219 74.191406 M 24.535156 66.042969 L 24.535156 57.039062 L 51.199219 57.039062 L 51.199219 66.042969 L 24.535156 66.042969 M 24.535156 22.308594 L 51.199219 22.308594 L 51.199219 31.527344 L 24.535156 31.527344 L 24.535156 22.308594 M 24.535156 48.890625 L 24.535156 39.671875 L 51.199219 39.671875 L 51.199219 48.890625 L 24.535156 48.890625 M 61.011719 11.371094 C 56.890625 9.085938 51.34375 7.941406 44.375 7.941406 C 40.675781 7.941406 36.550781 9.15625 32 11.585938 C 28.300781 13.730469 25.171875 14.730469 22.613281 14.589844 L 11.519531 13.515625 L 11.519531 93.058594 L 61.011719 93.058594 L 61.011719 11.371094 M 78.292969 83.410156 L 78.292969 74.191406 L 104.960938 74.191406 L 104.960938 83.410156 L 78.292969 83.410156 M 104.960938 57.039062 L 104.960938 66.042969 L 78.292969 66.042969 L 78.292969 57.039062 L 104.960938 57.039062 M 78.292969 22.308594 L 104.960938 22.308594 L 104.960938 50.605469 L 78.292969 50.605469 L 78.292969 22.308594 M 105.386719 14.589844 C 102.683594 14.730469 99.554688 13.730469 96 11.585938 C 91.164062 9.15625 86.96875 7.941406 83.414062 7.941406 C 76.445312 7.941406 70.898438 9.085938 66.773438 11.371094 L 66.773438 93.058594 L 116.480469 93.058594 L 116.480469 13.515625 L 105.386719 14.589844 M 64 4.511719 C 68.691406 1.511719 75.875 0.0117188 85.546875 0.0117188 C 90.667969 0.0117188 96.214844 1.582031 102.1875 4.726562 C 105.601562 6.441406 108.019531 7.226562 109.441406 7.085938 L 109.867188 7.085938 L 123.945312 5.15625 L 126.71875 5.585938 L 128 7.941406 L 128 97.988281 C 128 99.988281 126.933594 100.988281 124.800781 100.988281 L 2.988281 100.988281 C 0.996094 100.988281 0 99.988281 0 97.988281 L 0 7.941406 L 1.28125 5.585938 L 4.054688 5.15625 L 17.921875 7.085938 L 18.347656 7.085938 C 20.054688 7.226562 22.472656 6.441406 25.601562 4.726562 C 31.574219 1.582031 37.191406 0.0117188 42.453125 0.0117188 C 52.125 0.0117188 59.308594 1.511719 64 4.511719 "/>
</g>
</svg>
