<?xml version="1.0" encoding="UTF-8"?>
<svg xmlns="http://www.w3.org/2000/svg" xmlns:xlink="http://www.w3.org/1999/xlink" width="128pt" height="82pt" viewBox="0 0 128 82" version="1.1">
<g id="surface1">
<path style=" stroke:none;fill-rule:nonzero;fill:rgb(100%,100%,100%);fill-opacity:1;" d="M 74.59375 1.894531 L 76.484375 1.324219 L 78.375 1.894531 L 79.324219 4.167969 L 79.324219 14.015625 L 96.535156 14.015625 C 99.058594 14.015625 101.078125 14.898438 102.589844 16.664062 C 104.355469 18.433594 105.238281 20.453125 105.238281 22.726562 L 105.238281 24.996094 L 110.535156 24.996094 L 113.183594 24.238281 L 114.320312 21.589844 L 114.320312 12.5 L 115.074219 10.226562 C 115.832031 9.46875 116.652344 9.089844 117.535156 9.089844 L 120.371094 10.035156 L 122.265625 12.308594 L 127.9375 25.945312 L 127.75 28.40625 C 127.371094 29.039062 126.679688 29.351562 125.667969 29.351562 L 121.886719 29.351562 L 119.425781 30.109375 L 118.480469 32.003906 L 119.046875 34.65625 L 120.183594 37.308594 L 122.074219 39.957031 L 123.210938 42.988281 L 123.398438 46.207031 L 122.265625 55.675781 L 121.128906 59.085938 L 119.425781 61.546875 L 108.265625 72.910156 L 105.617188 74.425781 L 102.210938 75.183594 L 95.96875 75.183594 L 94.457031 74.992188 C 93.445312 78.023438 89.851562 80.105469 83.671875 81.242188 L 70.808594 82 C 68.792969 82 64.695312 79.980469 58.515625 75.941406 L 45.839844 67.230469 L 44.894531 68.363281 L 44.894531 69.3125 C 44.894531 71.964844 43.949219 74.234375 42.054688 76.128906 C 40.289062 78.023438 38.082031 78.96875 35.4375 78.96875 C 33.417969 78.96875 31.527344 78.339844 29.761719 77.078125 L 26.542969 72.71875 L 20.492188 68.363281 L 15.003906 67.417969 C 12.484375 66.40625 10.96875 64.894531 10.464844 62.871094 L 0.0625 60.980469 L 0.0625 46.207031 L 10.464844 44.125 C 11.097656 41.976562 12.863281 40.464844 15.761719 39.578125 C 14.5 37.6875 12.863281 36.613281 10.84375 36.359375 C 12.230469 32.445312 14.628906 29.164062 18.03125 26.511719 L 18.03125 1.703125 L 18.597656 0.378906 L 19.734375 0 L 34.679688 0 L 36.382812 0.566406 L 36.949219 2.460938 C 36.949219 3.09375 36.757812 3.660156 36.382812 4.167969 C 35.75 4.546875 35.183594 4.734375 34.679688 4.734375 L 21.625 4.734375 L 21.625 10.984375 L 23.140625 8.902344 L 25.789062 8.144531 L 41.109375 8.144531 C 41.992188 8.144531 43.695312 9.027344 46.21875 10.792969 L 52.648438 15.90625 L 63.242188 15.90625 C 64.882812 14.644531 66.710938 14.015625 68.730469 14.015625 L 73.648438 14.015625 L 73.648438 4.167969 L 74.59375 1.894531 "/>
</g>
</svg>
