<?xml version="1.0" encoding="UTF-8"?>
<svg xmlns="http://www.w3.org/2000/svg" xmlns:xlink="http://www.w3.org/1999/xlink" width="128pt" height="163pt" viewBox="0 0 128 163" version="1.1">
<g id="surface1">
<path style=" stroke:none;fill-rule:nonzero;fill:rgb(100%,100%,100%);fill-opacity:1;" d="M 118.695312 110.96875 C 117.667969 114.253906 115.6875 116.847656 112.75 118.746094 C 114.804688 113.195312 116.457031 107.425781 117.703125 101.4375 C 119.390625 104.429688 119.71875 107.609375 118.695312 110.96875 M 62.460938 161.464844 C 58.425781 162.488281 54.609375 162.269531 51.015625 160.808594 C 70.234375 155.113281 83.257812 140.945312 90.082031 118.304688 C 95.582031 99.902344 96.464844 79.34375 92.722656 56.632812 C 98.445312 61.746094 103.285156 66.96875 107.25 72.296875 C 109.449219 75.875 111.980469 80.625 114.84375 86.539062 C 115.429688 89.023438 115.648438 91.066406 115.503906 92.671875 C 114.546875 100.925781 112.496094 109.433594 109.339844 118.195312 C 104.351562 131.851562 96.683594 142.734375 86.339844 150.839844 C 80.25 155.660156 72.289062 159.203125 62.460938 161.464844 M 55.085938 121.8125 L 55.085938 128.824219 L 47.492188 126.632812 L 47.492188 119.183594 C 50.355469 119.765625 52.886719 120.644531 55.085938 121.8125 M 57.285156 129.589844 L 57.285156 123.125 C 60.734375 125.464844 62.9375 128.601562 63.890625 132.546875 L 57.285156 129.589844 M 34.949219 119.183594 L 45.292969 118.855469 L 45.292969 126.195312 L 34.949219 124.878906 L 34.949219 119.183594 M 46.171875 115.128906 C 40.15625 114.691406 34.25 115.566406 28.453125 117.757812 C 22.4375 120.023438 17.890625 123.164062 14.808594 127.179688 C 14.222656 127.910156 14.148438 128.566406 14.589844 129.152344 C 14.808594 129.589844 15.285156 129.773438 16.019531 129.699219 C 24.457031 128.164062 32.894531 128.128906 41.332031 129.589844 C 50.132812 131.050781 58.09375 133.933594 65.210938 138.242188 C 65.945312 138.679688 66.640625 138.5 67.300781 137.695312 L 68.292969 135.613281 C 68.21875 122.980469 60.84375 116.152344 46.171875 115.128906 M 41.332031 96.835938 C 40.449219 91.503906 39.164062 87.671875 37.480469 85.335938 C 34.324219 88.546875 32.234375 90.992188 31.207031 92.671875 C 29.152344 95.960938 28.710938 98.878906 29.886719 101.4375 C 31.132812 103.992188 32.964844 105.597656 35.386719 106.257812 L 40.671875 105.710938 C 41.917969 105.125 42.136719 102.167969 41.332031 96.835938 M 22.953125 63.207031 C 17.082031 65.398438 13.304688 67.699219 11.617188 70.109375 C 10.078125 72.515625 9.820312 76.132812 10.847656 80.953125 C 11.875 85.84375 14.183594 88.804688 17.78125 89.824219 C 21.375 90.847656 24.859375 89.421875 28.234375 85.554688 C 32.195312 81.097656 33.957031 75.730469 33.515625 69.449219 C 33.078125 62.804688 29.554688 60.722656 22.953125 63.207031 M 25.484375 68.902344 C 28.199219 69.558594 28.929688 72.445312 27.683594 77.554688 C 26.582031 82.011719 24.601562 83.945312 21.742188 83.363281 C 20.273438 83.070312 19.175781 82.085938 18.441406 80.40625 C 17.707031 78.796875 17.597656 76.972656 18.109375 74.925781 C 18.695312 72.957031 19.6875 71.386719 21.082031 70.21875 C 22.476562 69.046875 23.941406 68.609375 25.484375 68.902344 M 66.972656 69.230469 C 56.625 63.898438 50.574219 64.738281 48.8125 71.75 C 47.199219 77.8125 48.519531 83.910156 52.773438 90.042969 C 55.855469 94.5 59.929688 96.617188 64.992188 96.398438 C 69.90625 96.179688 73.832031 93.804688 76.765625 89.277344 C 79.773438 84.675781 80.652344 81.136719 79.40625 78.652344 C 78.160156 76.023438 74.015625 72.882812 66.972656 69.230469 M 56.40625 81.390625 C 56.40625 76.714844 58.203125 74.378906 61.800781 74.378906 C 63.925781 74.378906 65.6875 75.109375 67.082031 76.570312 C 68.546875 78.03125 69.28125 79.785156 69.28125 81.828125 C 69.28125 83.875 68.546875 85.625 67.082031 87.085938 C 65.613281 88.546875 63.851562 89.277344 61.800781 89.277344 C 58.203125 89.277344 56.40625 86.648438 56.40625 81.390625 M 67.960938 38.121094 L 68.183594 38.339844 L 87.769531 51.15625 L 87.769531 51.8125 C 91.21875 68.246094 92.464844 82.996094 91.511719 96.070312 C 90.558594 110.089844 86.414062 122.796875 79.078125 134.191406 C 70.933594 147.042969 60.515625 155.003906 47.824219 158.070312 C 44.449219 157.339844 40.304688 155.808594 35.386719 153.46875 C 33.039062 152.300781 30.582031 150.804688 28.015625 148.976562 C 23.757812 145.984375 20.054688 142.480469 16.898438 138.460938 L 16.898438 138.570312 C 10.222656 130.320312 5.710938 120.605469 3.363281 109.433594 C 1.164062 98.480469 1.382812 87.671875 4.023438 77.007812 C 5.34375 71.605469 7.472656 66.054688 10.40625 60.359375 C 19.945312 51.15625 34.800781 44.363281 54.976562 39.984375 L 67.960938 38.121094 M 109.449219 18.621094 C 112.382812 22.859375 114.109375 25.960938 114.621094 27.933594 C 93.933594 11.574219 68.328125 5.148438 37.808594 8.652344 C 43.53125 4.785156 50.355469 2.117188 58.277344 0.65625 L 80.285156 0 C 88.796875 1.09375 96.539062 4.855469 103.507812 11.28125 C 104.753906 12.378906 106.734375 14.824219 109.449219 18.621094 M 106.148438 43.816406 C 116.640625 46.8125 122.289062 49.222656 123.09375 51.046875 C 126.324219 58.421875 127.902344 65.617188 127.828125 72.628906 C 127.828125 79.566406 126.175781 86.613281 122.875 93.769531 L 118.144531 83.691406 C 116.824219 79.089844 113.925781 73.867188 109.449219 68.027344 C 106.222656 63.058594 102.847656 58.789062 99.324219 55.210938 C 94.554688 50.390625 87 44.804688 76.65625 38.449219 L 85.019531 39.214844 C 91.035156 39.875 98.078125 41.40625 106.148438 43.816406 M 104.71875 26.617188 C 113.960938 32.167969 119.683594 38.195312 121.886719 44.695312 C 105.230469 37.246094 88.355469 33.886719 71.261719 34.617188 L 70.050781 34.617188 L 69.722656 34.726562 C 62.605469 35.089844 55.34375 36.1875 47.933594 38.011719 C 28.636719 42.976562 14.257812 50.9375 4.792969 61.890625 C 2.667969 43.125 8.535156 28.664062 22.402344 18.511719 C 27.171875 15.082031 33.480469 12.890625 41.332031 11.941406 L 52.003906 11.503906 C 61.617188 11.792969 71.628906 13.511719 82.046875 16.652344 C 90.265625 19.058594 97.820312 22.382812 104.71875 26.617188 "/>
</g>
</svg>
