<?xml version="1.0" encoding="UTF-8"?>
<svg xmlns="http://www.w3.org/2000/svg" xmlns:xlink="http://www.w3.org/1999/xlink" width="128pt" height="156pt" viewBox="0 0 128 156" version="1.1">
<g id="surface1">
<path style=" stroke:none;fill-rule:nonzero;fill:rgb(100%,100%,100%);fill-opacity:1;" d="M 66.933594 9.792969 C 66.804688 8.570312 66.882812 7.296875 67.175781 5.972656 C 67.464844 4.523438 67.917969 3.429688 68.53125 2.6875 L 68.675781 2.347656 C 71.261719 0.964844 74.039062 0.753906 77.011719 1.71875 C 79.535156 2.527344 81.941406 4.074219 84.234375 6.359375 C 85.882812 8.003906 87.707031 10.148438 89.710938 12.789062 L 94.800781 19.558594 C 90.730469 19.234375 87.011719 19.65625 83.652344 20.816406 C 79.679688 22.199219 76.867188 24.472656 75.21875 27.628906 C 72.828125 23.925781 71.117188 21.105469 70.082031 19.171875 C 68.242188 15.820312 67.191406 12.695312 66.933594 9.792969 M 52.148438 15.496094 C 51.664062 21.394531 51.699219 26.679688 52.246094 31.351562 C 49.113281 24.683594 46.898438 17.398438 45.605469 9.503906 C 46.964844 10.277344 48.464844 10.761719 50.113281 10.953125 L 56.65625 10.566406 C 58.917969 10.019531 60.9375 9.132812 62.714844 7.90625 L 62.570312 8.585938 C 61.535156 10.390625 60.179688 11.855469 58.5 12.984375 C 56.722656 14.144531 54.816406 14.804688 52.78125 14.964844 C 52.425781 14.964844 52.214844 15.144531 52.148438 15.496094 M 54.039062 16.949219 C 57.078125 16.5625 59.726562 15.289062 61.988281 13.128906 C 61.859375 15.996094 62.199219 19.285156 63.007812 22.988281 C 63.523438 25.375 64.394531 28.46875 65.625 32.269531 L 67.125 36.863281 C 63.476562 38.472656 60.4375 39.957031 58.015625 41.308594 C 56.949219 39.796875 55.914062 38.183594 54.914062 36.476562 C 54.167969 32.964844 53.796875 28.53125 53.796875 23.183594 L 53.992188 18.011719 L 54.039062 16.949219 M 64.800781 9.117188 C 65.21875 13.175781 66.964844 17.59375 70.035156 22.363281 C 74.847656 29.871094 78.484375 36.6875 80.9375 42.808594 C 82.394531 46.355469 83.378906 49.464844 83.894531 52.136719 C 84.605469 55.746094 84.605469 58.96875 83.894531 61.804688 L 74.25 64.273438 L 69.890625 65.140625 C 71.441406 62.789062 72.296875 59.695312 72.457031 55.859375 C 72.585938 52.863281 72.28125 49.671875 71.535156 46.289062 C 71.019531 43.9375 70.148438 40.890625 68.917969 37.152344 L 66.011719 27.96875 C 63.910156 20.621094 63.492188 14.386719 64.75 9.261719 L 64.800781 9.117188 M 53.214844 37.105469 C 53.3125 37.460938 53.523438 37.71875 53.847656 37.878906 C 54.847656 39.523438 55.769531 40.941406 56.609375 42.132812 C 54.476562 43.421875 52.601562 44.742188 50.988281 46.097656 C 47.304688 40.039062 44.574219 33.320312 42.796875 25.9375 C 41.019531 18.65625 40.339844 11.40625 40.761719 4.1875 L 41.390625 4.523438 C 41.808594 5.8125 42.503906 6.941406 43.472656 7.90625 C 45.023438 18.511719 48.242188 28.082031 53.121094 36.621094 L 53.214844 37.105469 M 79.628906 35.65625 C 83.765625 34.238281 88.304688 33.816406 93.25 34.398438 C 97.804688 34.945312 102.199219 36.234375 106.433594 38.265625 C 107.53125 42.648438 106.917969 46.417969 104.589844 49.578125 C 95.671875 42.066406 87.984375 38.765625 81.519531 39.667969 L 79.628906 35.65625 M 76.625 30 C 78.078125 26.582031 80.875 24.167969 85.011719 22.75 C 88.5 21.523438 92.296875 21.167969 96.398438 21.683594 L 96.546875 21.683594 L 97.273438 22.507812 L 99.792969 25.601562 L 87.871094 26.132812 C 83.476562 27.164062 80.050781 29.046875 77.59375 31.789062 L 76.625 30 M 101.101562 27.726562 L 101.34375 27.726562 C 103.347656 30.5625 104.816406 33.320312 105.753906 35.992188 C 101.488281 34.09375 97.144531 32.882812 92.714844 32.367188 C 87.835938 31.820312 83.347656 32.175781 79.242188 33.429688 C 81.503906 30.851562 84.847656 29.082031 89.273438 28.113281 L 101.101562 27.726562 M 92.765625 43.777344 C 93.605469 48.640625 92.378906 53.925781 89.082031 59.632812 L 88.984375 60.019531 L 86.171875 61.03125 C 86.691406 57.585938 86.15625 53.203125 84.574219 47.882812 L 82.394531 41.695312 C 85.300781 41.214844 88.757812 41.90625 92.765625 43.777344 M 103.574219 50.882812 C 100.761719 53.910156 96.933594 56.519531 92.085938 58.710938 C 94.476562 53.71875 95.382812 49.078125 94.800781 44.789062 C 97.742188 46.402344 100.664062 48.433594 103.574219 50.882812 M 99.210938 58.710938 C 99.082031 58.710938 98.96875 58.761719 98.871094 58.859375 C 93.636719 64.691406 85.609375 69.042969 74.785156 71.910156 C 67.417969 73.8125 60.632812 73.714844 54.429688 71.621094 C 52.585938 71.007812 50.792969 70.136719 49.046875 69.007812 L 47.738281 67.992188 L 47.59375 67.898438 C 47.851562 66.125 47.917969 64.480469 47.789062 62.964844 L 47.691406 62.046875 C 49.660156 64.144531 52.457031 65.800781 56.074219 67.027344 C 58.628906 67.929688 62.296875 68.121094 67.078125 67.605469 L 67.804688 67.511719 L 68.144531 67.460938 C 72.992188 66.945312 78.304688 65.769531 84.089844 63.933594 C 90.292969 62 95.21875 59.9375 98.871094 57.746094 L 99.210938 58.710938 M 102.992188 80.03125 C 103.378906 83.21875 103.6875 87.296875 103.914062 92.261719 L 104.007812 93.035156 L 103.960938 93.128906 C 103.347656 95.128906 100.40625 97.320312 95.140625 99.703125 C 87.480469 103.054688 81.601562 103.84375 77.496094 102.074219 C 75.300781 94.5625 72.214844 89.359375 68.242188 86.460938 C 67.625 86.007812 67.207031 86.039062 66.980469 86.554688 C 66.753906 87.070312 66.917969 87.523438 67.464844 87.910156 C 68.433594 88.652344 69.371094 89.570312 70.277344 90.664062 C 68.953125 93.46875 67.980469 96.496094 67.367188 99.753906 C 63.234375 100.785156 59.289062 101.300781 55.542969 101.300781 L 48.613281 100.429688 C 45.832031 99.976562 43.621094 99.300781 41.972656 98.398438 L 43.910156 86.847656 C 44.652344 82.300781 45.378906 78.449219 46.089844 75.292969 L 47.304688 69.78125 C 50.371094 72.359375 54.296875 74.050781 59.082031 74.859375 C 63.3125 75.566406 67.59375 75.519531 71.925781 74.714844 C 77.289062 73.746094 82.296875 72.199219 86.949219 70.074219 C 92.246094 67.65625 96.5625 64.691406 99.890625 61.179688 C 101.085938 65.785156 102.117188 72.070312 102.992188 80.03125 M 67.804688 64.125 C 67.253906 60.484375 65.929688 57.328125 63.832031 54.652344 C 61.535156 51.785156 58.660156 49.980469 55.203125 49.238281 L 53.699219 46.964844 L 56.707031 44.839844 C 59.453125 43.066406 63.152344 41.132812 67.804688 39.039062 C 69.289062 43.777344 70.148438 47.722656 70.375 50.882812 C 70.792969 56.777344 69.9375 61.195312 67.804688 64.125 M 54.089844 50.785156 C 54.929688 52.816406 55.316406 54.992188 55.25 57.3125 C 55.1875 59.566406 54.703125 61.742188 53.796875 63.835938 L 53.75 64.125 C 52.296875 63.449219 51.066406 62.742188 50.066406 62 C 47.351562 59.90625 46.429688 57.488281 47.304688 54.75 C 47.980469 52.589844 49.695312 50.332031 52.441406 47.980469 L 53.507812 49.671875 C 53.507812 50.1875 53.699219 50.558594 54.089844 50.785156 M 66.058594 65.625 C 62.085938 66.011719 58.644531 65.753906 55.738281 64.851562 C 56.609375 62.691406 57.078125 60.453125 57.140625 58.132812 C 57.238281 55.78125 56.898438 53.539062 56.125 51.414062 C 59.128906 52.285156 61.535156 54.089844 63.34375 56.828125 C 64.960938 59.339844 65.867188 62.273438 66.058594 65.625 M 69.839844 110.097656 C 68.191406 112.0625 64.914062 113.382812 60 114.0625 L 59.757812 113.867188 C 57.660156 112.480469 55.980469 110.917969 54.71875 109.179688 C 53.265625 107.179688 52.472656 105.070312 52.34375 102.847656 L 55.929688 103.328125 L 56.027344 103.328125 L 56.171875 103.378906 C 60.019531 103.378906 64.105469 102.832031 68.433594 101.734375 L 69.839844 110.097656 M 70.132812 112.804688 C 70.488281 116.058594 70.664062 119.167969 70.664062 122.132812 C 67.691406 122.9375 64.21875 123.230469 60.242188 123.003906 L 49.824219 121.648438 L 43.570312 120.636719 C 41.148438 120.085938 39.257812 119.25 37.902344 118.121094 C 37.511719 116.027344 37.304688 114.09375 37.269531 112.320312 C 38.757812 113.964844 40.390625 114.949219 42.164062 115.269531 L 46.332031 116.089844 L 50.503906 116.625 C 57.417969 116.847656 63.070312 116.042969 67.464844 114.207031 C 68.46875 113.820312 69.355469 113.351562 70.132812 112.804688 M 75.800781 110.289062 C 78.710938 112.578125 81.988281 114.5625 85.640625 116.238281 C 83.121094 117.363281 80.84375 119.410156 78.804688 122.375 C 77.480469 118.316406 76.578125 114.851562 76.09375 111.984375 L 75.800781 110.289062 M 77.109375 103.863281 C 79.628906 104.957031 82.667969 105.230469 86.222656 104.683594 L 86.269531 104.730469 C 97.125 110.46875 106.964844 114.175781 115.785156 115.851562 L 115.980469 116.625 L 117.773438 124.839844 C 114.476562 123.101562 110.503906 121.554688 105.851562 120.199219 L 93.347656 117.105469 C 86.949219 115.59375 81.035156 112.546875 75.609375 107.96875 C 75.609375 105.90625 76.109375 104.539062 77.109375 103.863281 M 49.628906 114.398438 L 44.394531 113.675781 C 42.519531 113.351562 41.082031 112.949219 40.082031 112.464844 C 38.402344 111.691406 37.511719 110.613281 37.417969 109.226562 L 37.320312 108.9375 C 37.640625 104.972656 38.949219 101.976562 41.246094 99.945312 C 43.441406 101.171875 46.496094 102.039062 50.40625 102.554688 C 50.535156 104.84375 51.292969 107.050781 52.683594 109.179688 C 53.910156 111.082031 55.542969 112.804688 57.578125 114.351562 L 54.863281 114.542969 L 49.628906 114.398438 M 62.28125 125.082031 C 62.375 125.5 62.601562 125.808594 62.957031 126 C 64.636719 126.96875 66.042969 128.078125 67.175781 129.335938 C 68.53125 130.851562 69.324219 132.414062 69.550781 134.023438 L 69.792969 134.558594 C 69.535156 136.363281 69.160156 137.941406 68.675781 139.292969 C 66.640625 134.652344 62.472656 131.027344 56.171875 128.417969 C 52.359375 126.839844 46.738281 125.371094 39.304688 124.019531 L 38.386719 120.441406 C 39.808594 121.3125 41.550781 121.988281 43.621094 122.472656 L 49.339844 123.488281 C 54.671875 124.484375 58.984375 125.019531 62.28125 125.082031 M 70.277344 130.882812 C 69.046875 128.691406 67.191406 126.757812 64.703125 125.082031 L 70.617188 124.40625 L 70.375 129.722656 L 70.277344 130.882812 M 85.105469 137.84375 C 86.820312 132.460938 91.554688 127.757812 99.308594 123.730469 C 96.980469 127.082031 95.074219 130.738281 93.589844 134.703125 C 92.136719 138.632812 91.179688 142.613281 90.730469 146.640625 C 88.660156 144.226562 86.769531 141.355469 85.058594 138.039062 L 85.105469 137.84375 M 82.925781 133.300781 L 79.777344 125.082031 C 82.199219 120.988281 85.089844 118.492188 88.453125 117.589844 L 88.644531 117.492188 L 90.828125 118.316406 L 99.890625 120.875 C 91.519531 124.9375 86.140625 129.753906 83.75 135.332031 L 82.925781 133.300781 M 115.203125 113.769531 C 110.457031 112.867188 105.429688 111.371094 100.132812 109.277344 C 101.683594 108.375 103.363281 107.148438 105.171875 105.601562 L 109.777344 101.445312 C 112.039062 105.054688 113.847656 109.164062 115.203125 113.769531 M 108.515625 99.460938 L 103.425781 104.101562 C 101.425781 105.777344 99.550781 107.066406 97.804688 107.96875 L 97.5625 108.210938 C 94.6875 106.988281 91.8125 105.632812 88.9375 104.152344 C 91.003906 103.636719 93.167969 102.925781 95.429688 102.023438 C 100.601562 100.027344 103.914062 97.804688 105.367188 95.355469 L 106.042969 96.175781 L 108.515625 99.460938 M 103.667969 121.84375 C 110.164062 123.453125 115.285156 125.324219 119.035156 127.449219 L 119.710938 127.597656 L 121.746094 129.722656 C 118.515625 129.753906 115.125 130.671875 111.570312 132.476562 C 108.4375 134.058594 105.574219 136.085938 102.992188 138.570312 C 101.183594 140.277344 99.648438 142.210938 98.386719 144.371094 C 96.996094 146.753906 96.09375 149.105469 95.671875 151.425781 L 92.570312 148.671875 C 92.992188 143.804688 94.152344 139.050781 96.0625 134.410156 C 98 129.609375 100.535156 125.421875 103.667969 121.84375 M 123.492188 131.800781 L 124.945312 133.878906 C 126.949219 136.84375 127.96875 139.730469 128 142.53125 L 127.128906 141.808594 C 126.253906 141.226562 125.058594 141.082031 123.542969 141.371094 L 119.953125 142.4375 C 112.101562 144.53125 107.546875 149.011719 106.285156 155.875 C 103.28125 155.550781 100.375 154.503906 97.5625 152.734375 C 98.210938 148.703125 100.324219 144.757812 103.914062 140.890625 C 106.398438 138.214844 109.355469 136.039062 112.78125 134.363281 C 116.5625 132.460938 120.132812 131.609375 123.492188 131.800781 M 123.589844 143.742188 L 126.253906 143.597656 C 126.964844 143.820312 127.402344 144.449219 127.5625 145.480469 L 126.980469 146.933594 C 125.753906 149.445312 123.429688 151.539062 120.003906 153.214844 C 117.222656 154.570312 114.171875 155.441406 110.84375 155.828125 L 108.417969 155.972656 C 109.613281 150.847656 112.878906 147.285156 118.210938 145.289062 L 123.589844 143.742188 M 63.296875 146.496094 L 60.050781 148.238281 L 54.863281 150.507812 C 53.863281 142.710938 50.535156 137.101562 44.878906 133.6875 C 43.265625 132.71875 41.421875 131.914062 39.355469 131.269531 C 37.285156 130.65625 35.25 130.269531 33.246094 130.109375 L 39.113281 125.902344 C 44.800781 126.96875 48.675781 127.804688 50.746094 128.417969 C 60.566406 131.445312 66.207031 135.878906 67.660156 141.710938 L 66.109375 144.175781 C 65.460938 144.980469 64.523438 145.753906 63.296875 146.496094 M 53.023438 150.992188 L 53.070312 151.136719 L 50.988281 151.863281 L 50.792969 151.910156 C 50.308594 149.976562 49.082031 148.140625 47.109375 146.398438 C 46.203125 145.660156 44.332031 144.355469 41.488281 142.484375 L 41.148438 142.292969 L 40.566406 141.855469 L 37.753906 139.730469 C 36.59375 138.828125 35.605469 138.214844 34.800781 137.890625 C 32.019531 136.796875 29.402344 136.121094 26.949219 135.863281 L 30.921875 132.042969 L 31.261719 132.140625 C 33.199219 132.042969 35.265625 132.285156 37.464844 132.863281 L 43.328125 134.847656 C 46.238281 135.847656 48.578125 138.070312 50.355469 141.519531 C 51.777344 144.320312 52.667969 147.480469 53.023438 150.992188 M 49 152.441406 C 46.316406 153.214844 43.847656 153.683594 41.585938 153.84375 C 42.554688 152.652344 43.214844 151.347656 43.570312 149.929688 C 43.925781 148.445312 43.894531 147.042969 43.472656 145.722656 L 47.0625 148.574219 C 48.191406 149.800781 48.839844 151.089844 49 152.441406 M 35.042969 0.0273438 C 36.300781 1.253906 37.5625 2.269531 38.820312 3.074219 C 38.371094 10.648438 39.082031 18.285156 40.953125 25.988281 C 42.859375 33.785156 45.769531 40.859375 49.679688 47.207031 C 47.0625 49.558594 45.527344 51.945312 45.074219 54.363281 L 43.910156 51.460938 C 40.257812 41.117188 37.109375 28.210938 34.460938 12.742188 C 34.363281 12.195312 33.992188 11.808594 33.34375 11.582031 C 32.667969 11.355469 32.390625 11.582031 32.519531 12.257812 L 33.539062 18.011719 L 33.492188 18.011719 L 29.371094 16.851562 C 29.304688 13.371094 29.628906 10.277344 30.339844 7.570312 C 31.277344 3.929688 32.84375 1.414062 35.042969 0.0273438 M 33.925781 20.042969 L 36.59375 32.464844 L 36.445312 32.417969 C 34.476562 32.289062 32.472656 31.917969 30.4375 31.304688 C 28.238281 30.660156 26.398438 29.820312 24.910156 28.789062 C 24.007812 28.179688 23.539062 26.761719 23.507812 24.535156 C 23.441406 21.699219 23.34375 20.089844 23.214844 19.703125 C 22.503906 17.671875 21.179688 16.480469 19.242188 16.125 C 19.789062 15.511719 20.566406 15.417969 21.566406 15.835938 L 23.894531 17.140625 C 25.089844 17.722656 26.703125 18.269531 28.742188 18.785156 L 33.734375 19.992188 L 33.925781 20.042969 M 17.835938 18.253906 C 20 17.609375 21.261719 18.753906 21.617188 21.683594 L 21.859375 25.40625 C 21.988281 26.824219 22.214844 27.824219 22.535156 28.402344 C 23.152344 29.433594 24.054688 30.289062 25.25 30.964844 L 28.691406 32.464844 C 31.828125 33.65625 34.621094 34.316406 37.078125 34.445312 L 38.046875 38.167969 L 26.800781 34.640625 C 26.542969 33.964844 26.089844 33.285156 25.445312 32.609375 C 24.863281 31.996094 24.28125 31.546875 23.699219 31.257812 L 21.421875 31.0625 C 20.679688 31.257812 19.984375 31.625 19.339844 32.175781 C 16.171875 31.53125 14.425781 29.582031 14.105469 26.324219 C 13.8125 23.199219 14.910156 20.636719 17.398438 18.640625 L 17.738281 18.300781 L 17.835938 18.253906 M 23.699219 39.375 C 21.664062 46.242188 19.953125 52.316406 18.5625 57.601562 C 16.527344 65.59375 15.542969 72.3125 15.605469 77.757812 C 15.703125 80.753906 16.234375 83.832031 17.207031 86.992188 C 17.882812 89.117188 18.289062 90.617188 18.417969 91.488281 C 18.675781 93.035156 18.660156 94.5625 18.367188 96.078125 C 18.238281 96.625 18.496094 97.078125 19.144531 97.433594 C 19.789062 97.820312 20.179688 97.691406 20.308594 97.046875 C 20.761719 94.886719 20.710938 92.710938 20.160156 90.519531 C 22.292969 89.648438 24.589844 87.636719 27.042969 84.476562 C 29.175781 81.671875 30.742188 78.53125 31.746094 75.050781 L 31.746094 75.003906 C 33.585938 75.230469 35.15625 74.457031 36.445312 72.683594 C 37.773438 70.910156 38.09375 69.121094 37.417969 67.316406 C 39.160156 66.222656 40.113281 64.753906 40.277344 62.917969 C 40.371094 61.308594 39.855469 59.648438 38.726562 57.9375 L 41.34375 49.238281 L 41.34375 49.382812 L 43.183594 54.023438 L 42.796875 54.554688 C 39.886719 65.609375 37.042969 74.214844 34.265625 80.367188 C 33.199219 82.65625 31.308594 85.410156 28.59375 88.632812 C 25.300781 92.46875 23.199219 95.097656 22.292969 96.515625 C 21.488281 97.738281 20.777344 99.253906 20.160156 101.058594 L 18.660156 105.890625 L 10.421875 133.203125 L 5.476562 149.976562 L 5.332031 150.265625 L 4.894531 150.316406 C 4.121094 150.703125 3.296875 150.832031 2.421875 150.703125 C 1.550781 150.574219 0.808594 150.21875 0.195312 149.640625 L 0 149.492188 L 1.9375 142.484375 L 4.945312 132.71875 L 7.996094 122.90625 C 9.902344 116.429688 11.535156 110.453125 12.890625 104.972656 L 14.347656 99.511719 C 14.863281 97.320312 15.105469 95.464844 15.074219 93.953125 C 15.074219 92.824219 14.703125 91.324219 13.957031 89.457031 L 12.261719 85.007812 C 10.96875 80.175781 11.113281 73.988281 12.699219 66.445312 C 13.765625 61.515625 16.140625 51.914062 19.824219 37.636719 L 20.792969 34.011719 L 21.714844 33.335938 L 23.941406 33.382812 C 24.878906 33.769531 25.25 34.316406 25.058594 35.027344 L 23.699219 39.375 M 38.628906 40.246094 L 40.277344 45.855469 L 39.984375 46.289062 L 37.078125 55.957031 C 36.496094 55.378906 35.914062 54.910156 35.332031 54.554688 C 32.003906 52.332031 27.738281 51.15625 22.535156 51.027344 L 26.800781 36.523438 L 38.53125 40.246094 L 38.628906 40.246094 M 33.492188 56.054688 C 33.167969 55.472656 32.730469 55.265625 32.183594 55.425781 C 31.632812 55.585938 31.535156 55.988281 31.890625 56.632812 C 32.375 57.472656 32.148438 58.324219 31.210938 59.195312 C 30.5 59.839844 29.597656 60.355469 28.5 60.742188 C 27.980469 60.9375 27.902344 61.324219 28.257812 61.902344 C 28.578125 62.449219 28.96875 62.726562 29.417969 62.726562 L 31.988281 63.113281 C 32.40625 63.242188 32.648438 63.402344 32.714844 63.59375 L 32.519531 64.511719 C 31.972656 65.835938 31.003906 66.59375 29.613281 66.785156 C 28.222656 66.980469 26.949219 66.65625 25.785156 65.820312 C 24.621094 64.980469 23.910156 63.886719 23.652344 62.53125 C 23.265625 60.792969 23.457031 58.96875 24.234375 57.070312 C 24.425781 56.585938 24.234375 56.085938 23.652344 55.570312 C 23.070312 55.085938 22.667969 55.121094 22.441406 55.667969 C 21.632812 57.761719 21.390625 59.808594 21.714844 61.804688 L 21.664062 61.855469 C 21.113281 62.273438 20.421875 62.417969 19.582031 62.289062 L 22.003906 53.058594 C 25.042969 53.023438 28.175781 53.523438 31.40625 54.554688 C 34.152344 55.457031 36.238281 57.085938 37.660156 59.4375 C 39.273438 62.144531 38.578125 64.238281 35.574219 65.722656 C 35.058594 66.011719 35.058594 66.527344 35.574219 67.269531 C 36.21875 68.171875 36.058594 69.347656 35.089844 70.796875 C 34.089844 72.246094 32.957031 72.972656 31.695312 72.972656 C 32.730469 71.554688 33.28125 69.75 33.34375 67.558594 L 33.34375 67.511719 C 34.054688 66.769531 34.476562 65.914062 34.605469 64.949219 C 34.765625 63.917969 34.523438 63.046875 33.878906 62.339844 C 33.457031 61.886719 32.925781 61.53125 32.277344 61.273438 C 34.152344 59.761719 34.554688 58.019531 33.492188 56.054688 M 18.515625 67.367188 L 19.144531 64.125 C 20.308594 64.449219 21.359375 64.433594 22.292969 64.078125 L 22.632812 64.851562 C 23.117188 65.882812 23.957031 66.769531 25.152344 67.511719 C 24.441406 68.378906 23.636719 69.042969 22.730469 69.492188 C 21.730469 70.007812 20.628906 69.796875 19.433594 68.863281 L 18.804688 67.945312 L 18.515625 67.367188 M 23.894531 71.425781 C 25.1875 70.878906 26.316406 69.878906 27.285156 68.429688 L 31.117188 68.71875 C 30.855469 69.910156 30.40625 70.894531 29.757812 71.667969 C 28.722656 72.890625 27.140625 73.070312 25.007812 72.199219 L 23.894531 71.425781 M 31.746094 138.761719 C 32.875 139.050781 34.007812 139.535156 35.136719 140.210938 L 38.144531 142.242188 C 39.597656 143.210938 40.566406 144.015625 41.050781 144.660156 C 41.761719 145.625 42.035156 146.851562 41.875 148.332031 C 41.648438 150.171875 40.597656 151.894531 38.726562 153.507812 L 38.480469 153.941406 L 34.945312 153.507812 L 28.257812 151.863281 C 25.863281 150.992188 24.070312 149.621094 22.875 147.753906 C 21.164062 145.144531 21.9375 141.824219 25.203125 137.796875 C 27.207031 137.796875 29.386719 138.117188 31.746094 138.761719 "/>
</g>
</svg>
