<?xml version="1.0" encoding="UTF-8"?>
<svg xmlns="http://www.w3.org/2000/svg" xmlns:xlink="http://www.w3.org/1999/xlink" width="128pt" height="168pt" viewBox="0 0 128 168" version="1.1">
<g id="surface1">
<path style=" stroke:none;fill-rule:nonzero;fill:rgb(100%,100%,100%);fill-opacity:1;" d="M 103.601562 96.109375 C 103.601562 95.242188 103.09375 94.164062 102.078125 92.863281 L 99.472656 90.703125 C 98.746094 90.34375 98.167969 90.523438 97.734375 91.242188 C 97.300781 91.964844 97.445312 92.539062 98.167969 92.972656 L 99.582031 94.269531 C 100.523438 95.207031 101.027344 96 101.101562 96.648438 C 101.171875 97.511719 101.644531 97.910156 102.515625 97.835938 C 103.308594 97.835938 103.671875 97.261719 103.601562 96.109375 M 99.253906 82.378906 C 98.601562 82.089844 98.09375 82.304688 97.734375 83.027344 C 97.300781 83.746094 97.550781 84.433594 98.492188 85.082031 L 102.621094 88 L 106.097656 91.785156 C 107.257812 93.226562 107.945312 93.585938 108.164062 92.863281 C 108.234375 92.289062 107.875 91.277344 107.078125 89.835938 L 104.46875 86.164062 C 102.875 84.359375 101.136719 83.097656 99.253906 82.378906 M 39.285156 124.214844 C 41.746094 122.917969 43.703125 122.164062 45.152344 121.945312 L 44.390625 125.1875 C 43.519531 127.785156 43.265625 129.800781 43.628906 131.242188 C 44.207031 133.980469 44.136719 136.902344 43.414062 140 C 42.46875 144.035156 40.625 146.378906 37.871094 147.027344 C 34.828125 147.675781 32.113281 147.136719 29.722656 145.40625 C 27.550781 143.820312 26.066406 141.695312 25.269531 139.027344 C 24.617188 136.648438 24.835938 133.800781 25.921875 130.488281 C 26.933594 127.386719 28.167969 125.40625 29.613281 124.539062 L 31.789062 123.675781 L 31.679688 125.082031 L 29.070312 130.59375 C 27.914062 134.054688 28.203125 136.648438 29.941406 138.378906 C 30.519531 138.953125 30.953125 138.089844 31.246094 135.785156 C 31.605469 132.613281 32.257812 130.378906 33.199219 129.082031 C 34.359375 127.421875 36.386719 125.800781 39.285156 124.214844 M 39.71875 81.40625 C 41.964844 78.738281 43.957031 75.820312 45.695312 72.648438 C 46.417969 71.566406 46.417969 70.882812 45.695312 70.59375 C 44.96875 70.304688 44.28125 70.703125 43.628906 71.785156 L 38.089844 78.488281 L 32.332031 83.566406 L 28.417969 86.703125 C 27.40625 87.421875 27.117188 88.394531 27.550781 89.621094 L 30.375 96.863281 C 31.246094 98.523438 32.691406 99.0625 34.722656 98.488281 L 35.914062 97.945312 L 35.914062 96.648438 L 33.527344 91.242188 L 33.308594 89.511719 C 33.453125 88.863281 33.707031 88.359375 34.070312 88 L 39.71875 81.40625 M 29.832031 71.890625 C 29.179688 70.089844 28.601562 69.296875 28.09375 69.511719 C 25.703125 70.164062 23.203125 71.496094 20.597656 73.511719 L 16.25 77.40625 C 15.746094 78.054688 16.035156 78.558594 17.121094 78.917969 L 19.621094 79.136719 L 29.507812 75.136719 C 30.375 74.773438 30.484375 73.695312 29.832031 71.890625 M 69.488281 81.296875 L 72.527344 82.917969 C 73.542969 83.496094 74.265625 83.675781 74.703125 83.460938 C 75.351562 83.171875 74.847656 81.910156 73.179688 79.675781 L 68.398438 74.917969 C 64.632812 72.46875 62.28125 71.710938 61.339844 72.648438 C 60.832031 73.152344 60.433594 74.019531 60.144531 75.242188 C 59.851562 76.324219 59.78125 77.1875 59.925781 77.835938 C 60.144531 78.558594 61.519531 79.242188 64.054688 79.890625 L 69.488281 81.296875 M 73.179688 57.730469 C 72.238281 55.710938 70.5 54.164062 67.964844 53.082031 C 65.140625 51.855469 63.511719 52.503906 63.078125 55.027344 C 62.785156 56.972656 63.582031 58.164062 65.464844 58.59375 C 68.074219 59.316406 69.558594 59.855469 69.921875 60.214844 L 73.289062 64.863281 C 74.664062 66.8125 75.570312 67.675781 76.003906 67.460938 C 76.945312 66.953125 76.003906 63.710938 73.179688 57.730469 M 39.285156 52.433594 L 33.089844 52.757812 C 30.628906 53.910156 28.273438 55.820312 26.03125 58.488281 C 23.855469 61.082031 23.203125 62.523438 24.074219 62.8125 C 24.4375 62.953125 25.414062 62.269531 27.007812 60.757812 L 31.027344 57.621094 L 36.785156 56.863281 C 39.246094 56.578125 40.625 56.070312 40.914062 55.351562 C 41.421875 54.199219 40.878906 53.226562 39.285156 52.433594 M 2.78125 55.351562 C 2.417969 52.394531 2.742188 50.089844 3.757812 48.433594 C 4.699219 46.703125 5.894531 46.558594 7.34375 48 C 8.863281 49.511719 10.53125 50.558594 12.339844 51.136719 L 5.605469 62.8125 C 3.867188 59.566406 2.925781 57.082031 2.78125 55.351562 M 90.128906 43.136719 L 99.6875 41.621094 C 103.671875 41.261719 106.425781 43.351562 107.945312 47.890625 C 109.46875 52.648438 107.148438 56.578125 100.992188 59.675781 C 100.703125 59.675781 100.378906 59.964844 100.015625 60.539062 C 99.507812 61.261719 99.726562 61.910156 100.667969 62.488281 C 105.085938 65.371094 108.417969 67.964844 110.660156 70.269531 C 116.09375 75.964844 118.59375 82.164062 118.160156 88.863281 C 116.203125 83.53125 113.558594 78.703125 110.226562 74.378906 C 106.171875 69.621094 103.382812 66.953125 101.863281 66.378906 C 100.921875 65.945312 100.230469 66.054688 99.796875 66.703125 C 99.363281 67.277344 99.507812 67.820312 100.230469 68.324219 L 102.839844 70.703125 L 108.273438 76.109375 C 111.457031 79.421875 114.535156 84.46875 117.507812 91.242188 L 116.746094 93.296875 C 114.210938 87.675781 111.496094 83.351562 108.597656 80.324219 C 105.84375 77.441406 103.527344 75.605469 101.644531 74.8125 C 100.777344 74.449219 100.269531 74.738281 100.125 75.675781 C 99.980469 76.539062 100.449219 77.332031 101.535156 78.054688 L 106.640625 82.269531 C 108.886719 84.648438 111.929688 89.046875 115.769531 95.460938 L 115.441406 96.324219 L 113.59375 96.757812 C 112.507812 97.261719 112.363281 98.125 113.160156 99.351562 C 118.375 103.675781 119.390625 108.792969 116.203125 114.703125 C 112.945312 120.613281 108.054688 123.027344 101.535156 121.945312 C 94.582031 133.1875 86.21875 141.695312 76.441406 147.460938 C 73.757812 148.902344 73.941406 149.585938 76.984375 149.511719 C 80.023438 149.371094 83.429688 148.144531 87.195312 145.835938 C 86.109375 152.46875 80.675781 157.835938 70.898438 161.945312 C 61.410156 165.980469 54.421875 166.34375 49.929688 163.027344 L 57.101562 162.054688 C 60.796875 161.1875 62.535156 160.433594 62.316406 159.785156 L 55.472656 160 C 49.386719 159.855469 42.542969 157.910156 34.9375 154.164062 L 30.375 151.566406 L 30.59375 151.566406 L 37.980469 151.027344 C 40.226562 150.304688 42 149.117188 43.304688 147.460938 C 46.128906 144.070312 47.46875 140.613281 47.324219 137.082031 L 46.5625 130.378906 C 46.34375 128.214844 46.890625 126.234375 48.191406 124.433594 C 51.742188 119.675781 53.769531 116.324219 54.277344 114.378906 C 54.421875 113.875 55.542969 113.1875 57.644531 112.324219 L 60.796875 111.242188 L 62.535156 112.972656 C 63.765625 114.054688 64.632812 114.378906 65.140625 113.945312 C 65.792969 113.371094 66.011719 112.46875 65.792969 111.242188 C 65.574219 109.875 64.777344 108.539062 63.402344 107.242188 C 60.433594 104.433594 58.296875 103.605469 56.992188 104.757812 C 56.484375 105.1875 56.449219 105.945312 56.882812 107.027344 L 57.644531 108.539062 C 55.253906 110.414062 53.480469 111.242188 52.320312 111.027344 L 47.757812 110.164062 C 45.078125 109.585938 42.867188 108.863281 41.128906 108 C 38.597656 106.703125 35.878906 105.765625 32.984375 105.1875 C 29.433594 104.394531 26.464844 104.359375 24.074219 105.082031 L 17.339844 107.242188 L 14.1875 108.648438 C 14.042969 108.9375 14.585938 109.332031 15.816406 109.835938 L 18.96875 111.242188 C 21.359375 112.972656 23.566406 116.578125 25.59375 122.054688 L 23.097656 127.675781 C 21.503906 131.710938 20.851562 134.628906 21.140625 136.433594 C 21.429688 138.164062 21.972656 140.109375 22.769531 142.269531 C 23.710938 144.792969 24.796875 146.882812 26.03125 148.539062 C 22.554688 145.875 19.402344 142.847656 16.578125 139.460938 C 9.988281 131.316406 5.570312 121.765625 3.324219 110.8125 C 1.148438 99.929688 1.367188 89.261719 3.976562 78.8125 C 6.148438 69.875 10.3125 60.757812 16.46875 51.460938 C 19.367188 51.097656 22.261719 49.800781 25.160156 47.566406 L 30.917969 41.082031 C 34.394531 37.046875 36.710938 34.738281 37.871094 34.164062 C 39.246094 33.511719 41.167969 33.730469 43.628906 34.8125 L 47.324219 36.757812 C 49.421875 37.765625 51.667969 38.054688 54.058594 37.621094 C 55.796875 37.332031 58.042969 36.503906 60.796875 35.136719 L 70.03125 34.8125 C 73.578125 36.035156 76.730469 38.378906 79.480469 41.835938 C 80.710938 43.421875 82.414062 44.253906 84.585938 44.324219 C 86.035156 44.324219 87.882812 43.929688 90.128906 43.136719 M 104.359375 19.351562 C 108.054688 24.613281 110.082031 27.316406 110.445312 27.460938 C 113.195312 28.757812 116.023438 31.675781 118.917969 36.214844 C 121.019531 39.53125 122.757812 42.992188 124.132812 46.59375 C 126.667969 53.007812 126.851562 61.332031 124.675781 71.566406 C 123.519531 76.613281 122.140625 81.046875 120.546875 84.863281 C 119.535156 78.738281 116.964844 73.441406 112.835938 68.972656 L 104.578125 61.730469 C 106.96875 60.144531 109.03125 58.378906 110.769531 56.433594 C 113.089844 53.765625 114.136719 51.421875 113.921875 49.40625 C 113.632812 46.164062 112.582031 43.496094 110.769531 41.40625 C 108.308594 38.378906 104.722656 37.082031 100.015625 37.511719 L 91.867188 40.109375 C 88.390625 41.40625 86.109375 41.910156 85.023438 41.621094 L 77.199219 32.972656 C 72.78125 28 69.195312 26.054688 66.445312 27.136719 L 58.949219 31.242188 L 53.515625 34.164062 L 49.605469 34.488281 L 46.671875 32.863281 L 42 30.703125 C 40.40625 30.34375 38.414062 30.773438 36.023438 32 C 34.503906 32.722656 31.96875 35.097656 28.417969 39.136719 L 22.988281 45.296875 C 20.523438 47.171875 18.097656 48.289062 15.707031 48.648438 C 13.027344 49.007812 10.820312 48.289062 9.082031 46.488281 C 6.546875 43.820312 4.878906 40.394531 4.082031 36.214844 C 3.285156 32.179688 3.539062 28.648438 4.84375 25.621094 C 5.929688 23.171875 7.414062 21.117188 9.296875 19.460938 C 9.007812 22.269531 9.660156 24.359375 11.253906 25.730469 C 13.644531 27.746094 16.398438 28.648438 19.511719 28.433594 C 22.625 28.144531 25.339844 26.8125 27.660156 24.433594 C 34.324219 17.296875 38.992188 13.476562 41.675781 12.972656 C 43.773438 12.539062 46.636719 13.007812 50.257812 14.378906 L 56.558594 14.164062 L 60.578125 9.082031 L 64.921875 3.566406 C 66.660156 1.476562 68.109375 0.394531 69.269531 0.324219 C 71.441406 0.109375 74.195312 1.261719 77.527344 3.785156 L 80.351562 6.164062 C 81.507812 7.097656 82.597656 7.785156 83.609375 8.214844 C 87.59375 9.730469 90.746094 10.703125 93.0625 11.136719 C 97.261719 11.855469 101.027344 14.59375 104.359375 19.351562 "/>
</g>
</svg>
