<?xml version="1.0" encoding="UTF-8"?>
<svg xmlns="http://www.w3.org/2000/svg" xmlns:xlink="http://www.w3.org/1999/xlink" width="128pt" height="155pt" viewBox="0 0 128 155" version="1.1">
<g id="surface1">
<path style=" stroke:none;fill-rule:nonzero;fill:rgb(100%,100%,100%);fill-opacity:1;" d="M 86.566406 12.71875 L 91.738281 19.578125 C 87.601562 19.25 83.824219 19.675781 80.40625 20.851562 C 76.367188 22.257812 73.507812 24.558594 71.832031 27.761719 L 66.5625 19.1875 C 64.722656 15.789062 63.65625 12.636719 63.359375 9.726562 C 63.261719 8.488281 63.34375 7.179688 63.605469 5.808594 C 63.933594 4.339844 64.410156 3.226562 65.035156 2.476562 L 65.183594 2.183594 C 67.808594 0.777344 70.617188 0.546875 73.605469 1.496094 C 76.167969 2.3125 78.617188 3.878906 80.949219 6.199219 C 82.625 7.867188 84.496094 10.039062 86.566406 12.71875 M 19.066406 17.324219 C 19.65625 17.550781 20.464844 17.976562 21.480469 18.597656 C 22.695312 19.1875 24.257812 19.691406 26.160156 20.117188 L 31.039062 21.195312 C 31.730469 25.082031 32.597656 29.265625 33.652344 33.738281 C 30.234375 33.445312 26.738281 32.417969 23.15625 30.652344 C 22.105469 30.128906 21.496094 28.824219 21.332031 26.734375 C 21.332031 24.378906 21.234375 22.8125 21.039062 22.027344 C 20.773438 20.851562 20.265625 19.871094 19.511719 19.089844 C 18.722656 18.304688 17.800781 17.832031 16.75 17.667969 C 17.277344 17.046875 18.046875 16.933594 19.066406 17.324219 M 27.738281 8.308594 C 28.789062 4.484375 30.546875 1.953125 33.011719 0.710938 L 33.15625 0.566406 L 35.671875 2.328125 C 34.914062 10.070312 35.40625 17.894531 37.148438 25.800781 C 38.921875 33.871094 41.828125 41.140625 45.867188 47.609375 C 43.996094 49.242188 42.648438 50.988281 41.828125 52.851562 C 40.285156 49.289062 38.890625 45.484375 37.640625 41.433594 C 37.707031 41.007812 37.574219 40.601562 37.246094 40.207031 L 35.917969 35.308594 L 35.769531 34.816406 C 34.257812 28.808594 32.945312 21.847656 31.828125 13.941406 C 31.761719 13.386719 31.382812 12.996094 30.695312 12.765625 C 30.039062 12.539062 29.757812 12.765625 29.855469 13.453125 L 30.695312 19.136719 L 26.65625 18.109375 C 26.589844 14.382812 26.949219 11.117188 27.738281 8.308594 M 39.367188 6.59375 C 40.910156 17.832031 44.242188 27.925781 49.367188 36.875 L 49.417969 37.367188 C 49.515625 37.726562 49.746094 37.988281 50.105469 38.148438 C 50.863281 39.457031 51.796875 40.910156 52.914062 42.511719 C 50.84375 43.71875 48.921875 45.058594 47.148438 46.53125 C 43.40625 40.355469 40.710938 33.445312 39.070312 25.800781 C 37.429688 18.320312 36.933594 10.90625 37.59375 3.554688 C 38.019531 4.664062 38.609375 5.675781 39.367188 6.59375 M 48.382812 15.460938 C 47.890625 21.40625 47.90625 26.765625 48.429688 31.535156 C 45.113281 24.476562 42.816406 16.753906 41.535156 8.355469 C 42.878906 9.207031 44.488281 9.777344 46.363281 10.070312 L 53.0625 9.726562 C 55.394531 9.171875 57.496094 8.257812 59.367188 6.984375 L 59.023438 8.109375 C 58.039062 10.039062 56.707031 11.589844 55.03125 12.765625 C 53.257812 14.039062 51.253906 14.757812 49.023438 14.921875 C 48.59375 14.921875 48.382812 15.101562 48.382812 15.460938 M 58.335938 13.011719 C 58.234375 15.984375 58.597656 19.332031 59.417969 23.058594 C 59.976562 25.605469 60.863281 28.742188 62.078125 32.464844 L 63.605469 37.121094 C 60.089844 38.65625 57.003906 40.160156 54.34375 41.628906 L 51.191406 36.777344 C 50.304688 32.597656 49.941406 27.238281 50.105469 20.707031 L 50.304688 16.933594 L 50.746094 16.832031 C 53.703125 16.3125 56.230469 15.035156 58.335938 13.011719 M 62.421875 28.007812 C 60.289062 20.558594 59.894531 14.203125 61.242188 8.945312 C 61.601562 12.929688 63.359375 17.421875 66.511719 22.421875 C 71.441406 30.097656 75.152344 37.007812 77.648438 43.148438 C 79.125 46.773438 80.128906 49.925781 80.652344 52.605469 C 81.375 56.265625 81.375 59.53125 80.652344 62.40625 C 77.695312 63.320312 74.429688 64.171875 70.847656 64.957031 L 66.414062 65.789062 C 67.992188 63.402344 68.859375 60.265625 69.027344 56.378906 C 69.15625 53.308594 68.84375 50.074219 68.089844 46.675781 C 67.5625 44.292969 66.675781 41.1875 65.429688 37.367188 L 62.421875 28.007812 M 35.128906 39.277344 L 24.832031 36.238281 C 24.570312 35.585938 24.09375 34.917969 23.402344 34.230469 C 22.777344 33.640625 22.171875 33.199219 21.578125 32.90625 L 19.265625 32.761719 C 18.507812 32.988281 17.820312 33.378906 17.195312 33.9375 C 13.941406 33.347656 12.121094 31.421875 11.726562 28.152344 C 11.332031 24.984375 12.382812 22.355469 14.878906 20.265625 L 15.222656 19.921875 L 15.324219 19.921875 C 17.492188 19.203125 18.804688 20.246094 19.265625 23.058594 L 19.558594 26.734375 C 19.691406 28.171875 19.90625 29.167969 20.199219 29.722656 C 20.691406 30.734375 21.449219 31.566406 22.464844 32.222656 C 23.089844 32.582031 24.140625 33.054688 25.621094 33.640625 C 28.675781 34.851562 31.53125 35.570312 34.191406 35.796875 L 35.128906 39.277344 M 49.761719 50.105469 C 49.761719 50.597656 49.941406 50.988281 50.304688 51.285156 C 51.15625 53.308594 51.550781 55.496094 51.484375 57.851562 C 51.421875 60.136719 50.925781 62.339844 50.007812 64.464844 L 49.957031 64.757812 C 48.742188 64.238281 47.511719 63.519531 46.261719 62.601562 C 43.503906 60.511719 42.566406 58.0625 43.453125 55.253906 C 44.144531 53.0625 45.886719 50.777344 48.675781 48.390625 L 49.761719 50.105469 M 38.132812 49.078125 L 35.71875 57.652344 L 34.339844 56.574219 C 32.5 55.398438 30.285156 54.597656 27.6875 54.175781 L 20.59375 53.976562 L 20.546875 53.976562 L 24.832031 38.199219 L 35.769531 41.433594 L 38.332031 48.785156 L 38.132812 49.078125 M 37.394531 59.613281 L 39.5625 51.96875 L 41.089844 55.398438 L 41.039062 56.234375 L 41.1875 57.898438 L 41.140625 58.046875 C 39.496094 64.644531 38.265625 69.25 37.445312 71.863281 C 35.867188 77.027344 34.078125 81.421875 32.074219 85.046875 C 31.152344 86.710938 28.96875 89.605469 25.519531 93.71875 C 22.597656 97.214844 20.675781 100.253906 19.757812 102.835938 L 17.441406 110.824219 L 9.507812 139.34375 L 5.617188 153.457031 C 5.417969 154.207031 4.679688 154.550781 3.398438 154.484375 C 2.25 154.453125 1.3125 154.207031 0.589844 153.75 L 0 153.210938 L 0.394531 151.59375 L 3.054688 141.546875 C 5.582031 133.152344 7.40625 126.828125 8.523438 122.582031 C 10.265625 116.082031 11.710938 110.121094 12.859375 104.695312 C 13.382812 102.671875 13.730469 101.121094 13.894531 100.042969 C 14.222656 98.179688 14.222656 96.628906 13.894531 95.386719 C 13.632812 94.375 13.007812 92.558594 12.023438 89.945312 C 11.167969 87.691406 10.625 85.832031 10.394531 84.359375 C 9.9375 81.648438 9.871094 78.660156 10.199219 75.394531 C 10.394531 73.007812 10.871094 70.035156 11.628906 66.472656 C 13.136719 59.253906 15.339844 49.632812 18.230469 37.609375 L 18.625 35.796875 L 19.953125 34.917969 C 20.480469 34.65625 21.167969 34.753906 22.023438 35.210938 C 22.84375 35.667969 23.171875 36.15625 23.007812 36.679688 L 21.777344 41.140625 C 19.675781 48.71875 18.066406 54.910156 16.949219 59.710938 C 14.945312 68.207031 14.089844 75.179688 14.386719 80.636719 C 14.519531 83.347656 15.109375 86.320312 16.160156 89.554688 L 17.539062 94.0625 C 17.835938 95.632812 17.835938 97.183594 17.539062 98.71875 C 17.441406 99.273438 17.71875 99.730469 18.378906 100.089844 C 19 100.484375 19.378906 100.351562 19.511719 99.699219 C 19.90625 97.507812 19.804688 95.304688 19.214844 93.082031 C 21.449219 92.136719 23.746094 90.042969 26.113281 86.8125 C 28.246094 83.902344 29.757812 80.703125 30.644531 77.207031 L 30.695312 77.058594 C 32.535156 77.253906 34.109375 76.4375 35.425781 74.609375 C 36.707031 72.78125 36.984375 70.964844 36.261719 69.167969 C 38.003906 68.027344 38.9375 66.523438 39.070312 64.660156 C 39.136719 62.996094 38.578125 61.3125 37.394531 59.613281 M 36.457031 61.425781 C 37.96875 64.039062 37.28125 66.097656 34.390625 67.601562 C 34.09375 67.765625 33.960938 68.007812 33.996094 68.335938 L 34.390625 69.121094 C 35.078125 70.035156 34.949219 71.242188 33.996094 72.746094 C 33.011719 74.25 31.875 75.015625 30.597656 75.050781 C 31.613281 73.578125 32.125 71.734375 32.125 69.511719 L 32.125 69.464844 C 32.8125 68.710938 33.222656 67.847656 33.355469 66.867188 C 33.484375 65.820312 33.222656 64.9375 32.566406 64.21875 C 32.171875 63.796875 31.628906 63.4375 30.941406 63.140625 C 32.847656 61.574219 33.207031 59.824219 32.023438 57.898438 C 31.695312 57.3125 31.253906 57.097656 30.695312 57.261719 C 30.136719 57.390625 30.054688 57.785156 30.449219 58.4375 C 30.972656 59.351562 30.761719 60.25 29.808594 61.132812 C 29.117188 61.753906 28.214844 62.277344 27.097656 62.699219 C 26.570312 62.898438 26.488281 63.289062 26.851562 63.878906 C 27.179688 64.464844 27.574219 64.742188 28.035156 64.710938 L 30.644531 65.003906 C 31.730469 65.296875 31.8125 66 30.890625 67.109375 C 30.039062 68.125 29.199219 68.695312 28.378906 68.828125 C 27 69.023438 25.734375 68.746094 24.585938 67.992188 C 23.402344 67.242188 22.613281 66.230469 22.21875 64.957031 C 21.695312 63.160156 21.84375 61.199219 22.664062 59.074219 C 22.828125 58.585938 22.613281 58.09375 22.023438 57.605469 L 20.839844 57.652344 C 20.050781 59.679688 19.839844 61.769531 20.199219 63.925781 L 20.152344 63.976562 C 19.625 64.433594 18.902344 64.597656 17.984375 64.464844 L 20.199219 55.351562 C 20.496094 55.875 20.855469 56.101562 21.285156 56.035156 C 24.371094 55.742188 27.394531 55.988281 30.347656 56.773438 C 33.074219 57.492188 35.113281 59.042969 36.457031 61.425781 M 42.320312 62.160156 L 42.566406 61.132812 C 44.507812 63.941406 47.757812 66.132812 52.324219 67.699219 C 54.917969 68.613281 58.664062 68.808594 63.554688 68.289062 L 64.246094 68.1875 L 64.640625 68.1875 C 69.601562 67.601562 75.003906 66.390625 80.851562 64.5625 C 88.175781 62.242188 93.726562 59.808594 97.503906 57.261719 L 97.550781 59.269531 L 96.863281 59.464844 C 91.476562 65.378906 83.3125 69.773438 72.375 72.648438 C 64.820312 74.609375 57.90625 74.511719 51.632812 72.355469 C 49.792969 71.734375 47.988281 70.851562 46.214844 69.707031 L 44.882812 68.726562 L 44.441406 68.335938 L 44.242188 68.1875 C 44.078125 66.359375 43.867188 64.757812 43.601562 63.386719 C 43.503906 62.765625 43.078125 62.359375 42.320312 62.160156 M 49.957031 47.363281 L 53.011719 45.207031 C 55.902344 43.3125 59.664062 41.351562 64.296875 39.328125 C 65.773438 44.0625 66.628906 48.066406 66.859375 51.332031 C 67.351562 57.277344 66.496094 61.753906 64.296875 64.757812 C 63.738281 61.066406 62.375 57.867188 60.207031 55.15625 C 57.875 52.246094 54.949219 50.417969 51.4375 49.667969 L 49.957031 47.363281 M 53.457031 58.683594 C 53.523438 56.296875 53.175781 54.027344 52.421875 51.871094 C 55.476562 52.753906 57.90625 54.582031 59.714844 57.359375 C 61.390625 59.941406 62.324219 62.929688 62.523438 66.328125 C 58.382812 66.652344 54.867188 66.375 51.976562 65.496094 C 52.867188 63.339844 53.359375 61.066406 53.457031 58.683594 M 21.183594 66.964844 C 21.710938 68.042969 22.582031 68.925781 23.796875 69.609375 C 23.042969 70.589844 22.253906 71.277344 21.433594 71.667969 C 20.378906 72.222656 19.246094 72.042969 18.03125 71.128906 L 17.390625 70.246094 C 17.359375 70.050781 17.226562 69.839844 16.996094 69.609375 L 17.589844 66.328125 L 20.839844 66.230469 L 21.183594 66.964844 M 22.613281 73.628906 C 23.894531 73.105469 25.011719 72.078125 25.964844 70.542969 L 29.90625 70.738281 C 29.710938 71.882812 29.28125 72.878906 28.625 73.726562 C 28.097656 74.378906 27.378906 74.738281 26.457031 74.804688 L 23.945312 74.460938 C 23.320312 74.332031 22.878906 74.054688 22.613281 73.628906 M 60.699219 90.484375 L 62.324219 98.570312 C 63.835938 103.894531 66.347656 107.996094 69.863281 110.871094 C 70.09375 120.476562 70.617188 128.691406 71.441406 135.519531 C 71.769531 138.003906 72.144531 140.191406 72.574219 142.085938 L 72.671875 142.722656 L 72.917969 142.675781 L 72.128906 143.410156 C 66.054688 145.890625 60.683594 146.578125 56.019531 145.46875 C 54.738281 145.171875 53.472656 144.667969 52.226562 143.949219 L 51.042969 143.117188 C 46.871094 134.652344 43.882812 124.363281 42.074219 112.242188 C 41.289062 107.082031 41.453125 100.125 42.566406 91.367188 C 43.882812 81.207031 44.472656 74.234375 44.34375 70.445312 C 47.460938 73.089844 51.46875 74.820312 56.363281 75.636719 C 60.667969 76.355469 65.035156 76.308594 69.46875 75.492188 C 74.789062 74.542969 79.78125 73.007812 84.445312 70.882812 C 89.765625 68.5 94.121094 65.59375 97.503906 62.160156 C 97.273438 68.53125 96.125 75.328125 94.054688 82.546875 C 93.035156 86.207031 92.035156 88.542969 91.046875 89.554688 C 90.6875 89.945312 90.753906 90.4375 91.246094 91.023438 C 91.769531 91.613281 92.230469 91.710938 92.625 91.320312 C 93.316406 90.566406 93.957031 89.503906 94.546875 88.132812 C 95.433594 91.957031 95.5 95.632812 94.742188 99.160156 C 93.921875 102.949219 92.199219 106.214844 89.570312 108.960938 C 87.992188 110.59375 84.890625 111.65625 80.257812 112.144531 C 76.480469 112.539062 73.164062 111.539062 70.304688 109.15625 C 67.1875 106.574219 64.96875 102.296875 63.65625 96.316406 L 62.175781 88.964844 C 61.519531 86.15625 60.75 83.871094 59.863281 82.105469 C 59.566406 81.519531 59.140625 81.289062 58.582031 81.421875 C 58.054688 81.582031 57.957031 81.992188 58.285156 82.644531 C 59.238281 84.574219 60.042969 87.1875 60.699219 90.484375 M 103.5625 38.542969 C 104.679688 42.984375 104.054688 46.824219 101.691406 50.058594 C 92.65625 42.382812 84.839844 39.03125 78.238281 40.011719 L 76.269531 35.894531 C 80.472656 34.457031 85.101562 34.050781 90.160156 34.671875 C 94.761719 35.195312 99.226562 36.484375 103.5625 38.542969 M 98.390625 27.859375 C 100.394531 30.765625 101.886719 33.578125 102.871094 36.289062 C 98.570312 34.328125 94.136719 33.085938 89.570312 32.5625 C 84.609375 31.976562 80.046875 32.335938 75.875 33.640625 C 78.207031 31.0625 81.621094 29.28125 86.121094 28.300781 L 98.09375 27.859375 L 98.390625 27.859375 M 96.8125 25.703125 L 84.691406 26.242188 C 80.226562 27.289062 76.746094 29.214844 74.246094 32.023438 L 73.214844 30.164062 C 74.722656 26.699219 77.582031 24.25 81.785156 22.8125 C 85.332031 21.570312 89.191406 21.210938 93.363281 21.734375 L 93.511719 21.734375 L 94.25 22.617188 L 96.8125 25.703125 M 81.34375 48.292969 C 80.652344 46.007812 79.898438 43.917969 79.078125 42.023438 C 82.066406 41.53125 85.578125 42.234375 89.621094 44.128906 C 90.441406 49.027344 89.210938 54.386719 85.925781 60.203125 L 85.824219 60.59375 L 82.96875 61.671875 C 83.492188 58.078125 82.953125 53.617188 81.34375 48.292969 M 100.65625 51.332031 L 100.605469 51.382812 C 97.816406 54.355469 93.9375 57 88.980469 59.320312 C 91.378906 54.257812 92.28125 49.535156 91.6875 45.15625 C 94.480469 46.691406 97.46875 48.75 100.65625 51.332031 M 102.921875 75.980469 C 104.894531 76.796875 106.585938 78.21875 107.996094 80.246094 C 109.246094 82.039062 110.179688 84.148438 110.804688 86.566406 C 110.804688 86.761719 110.855469 86.925781 110.953125 87.054688 L 111.445312 90.242188 C 111.773438 94.324219 110.757812 98.210938 108.390625 101.902344 C 106.355469 105.105469 103.464844 107.949219 99.71875 110.429688 C 105.632812 102.753906 107.703125 95.207031 105.925781 87.789062 C 104.910156 83.773438 102.957031 80.324219 100.066406 77.449219 C 101.3125 76.730469 102.265625 76.242188 102.921875 75.980469 M 107.207031 74.558594 C 111.214844 73.679688 114.617188 74.574219 117.40625 77.253906 C 116.585938 80.292969 114.878906 82.90625 112.285156 85.09375 C 110.804688 80.652344 108.40625 77.335938 105.089844 75.148438 L 107.207031 74.558594 M 97.15625 79.507812 L 98.636719 78.382812 C 100.933594 80.539062 102.644531 83.363281 103.761719 86.859375 C 105.171875 91.238281 104.859375 95.894531 102.824219 100.824219 C 101.179688 104.746094 98.503906 108.699219 94.792969 112.683594 C 92.132812 113.335938 89.785156 113.355469 87.746094 112.734375 C 89.226562 112.179688 90.472656 111.394531 91.492188 110.382812 C 94.546875 107.050781 96.386719 103.0625 97.011719 98.425781 C 97.601562 94.113281 97.109375 89.703125 95.53125 85.195312 L 97.15625 79.507812 M 102.578125 111.3125 L 102.726562 111.359375 C 107.390625 111.328125 111.953125 110.234375 116.421875 108.078125 C 120.789062 105.921875 124.46875 103 127.457031 99.304688 L 127.753906 101.414062 L 128 104.648438 C 124.714844 108.894531 120.824219 112.078125 116.324219 114.203125 C 111.199219 116.589844 106.289062 117.0625 101.59375 115.625 L 99.867188 113.125 L 102.578125 111.3125 M 105.335938 109.058594 C 111.445312 103.4375 114.105469 96.953125 113.316406 89.605469 L 112.972656 87.546875 C 115.929688 85.355469 117.980469 82.5625 119.132812 79.167969 L 121.644531 82.890625 L 121.59375 83.234375 C 121.957031 87.839844 120.839844 92.511719 118.246094 97.25 C 115.945312 101.460938 112.824219 105.171875 108.882812 108.371094 L 105.335938 109.058594 M 120.757812 97.296875 C 122.464844 93.738281 123.417969 90.191406 123.613281 86.664062 C 124.996094 89.636719 126.078125 92.839844 126.867188 96.269531 C 123.746094 100.710938 119.589844 104.109375 114.402344 106.460938 C 117.0625 103.617188 119.179688 100.5625 120.757812 97.296875 M 110.214844 121.898438 C 107.980469 121.210938 105.894531 119.96875 103.957031 118.171875 C 108.195312 118.957031 112.53125 118.367188 116.964844 116.410156 C 120.9375 114.644531 124.535156 112.015625 127.753906 108.519531 C 126.800781 115.3125 123.386719 119.722656 117.503906 121.75 C 115.109375 122.566406 112.675781 122.617188 110.214844 121.898438 M 71.734375 148.898438 C 71.339844 149.84375 70.585938 150.464844 69.46875 150.761719 L 64.34375 151.496094 L 64.34375 150.320312 C 64.34375 149.992188 64.164062 149.683594 63.804688 149.386719 C 63.410156 149.0625 63.0625 148.964844 62.769531 149.09375 C 54.558594 152.980469 47.414062 154.761719 41.335938 154.433594 L 38.332031 153.847656 L 36.507812 153.015625 L 35.964844 152.523438 L 35.816406 152.328125 C 36.210938 151.414062 37 150.546875 38.183594 149.730469 C 38.839844 149.273438 39.875 148.703125 41.289062 148.015625 C 43.816406 146.742188 46.855469 145.664062 50.402344 144.78125 C 53.09375 147.035156 56.59375 148.144531 60.894531 148.113281 C 64.34375 148.082031 68.054688 147.347656 72.03125 145.910156 C 72.128906 147.183594 72.03125 148.179688 71.734375 148.898438 "/>
</g>
</svg>
