<?xml version="1.0" encoding="UTF-8"?>
<svg xmlns="http://www.w3.org/2000/svg" xmlns:xlink="http://www.w3.org/1999/xlink" width="128pt" height="183pt" viewBox="0 0 128 183" version="1.1">
<g id="surface1">
<path style=" stroke:none;fill-rule:nonzero;fill:rgb(100%,100%,100%);fill-opacity:1;" d="M 92.464844 3.863281 C 95.566406 5.347656 98.953125 8.113281 102.617188 12.160156 C 106.042969 15.929688 109.003906 20.058594 111.5 24.546875 C 106.746094 24.226562 102.394531 24.707031 98.449219 25.992188 C 93.652344 27.554688 90.25 30.058594 88.234375 33.507812 C 87.550781 30.5 86.964844 25.289062 86.480469 17.875 C 86.039062 11.097656 85.273438 5.929688 84.183594 2.359375 L 84.367188 0.554688 C 85.976562 0.996094 88.675781 2.101562 92.464844 3.863281 M 81.648438 1.699219 C 80.71875 6.667969 77.800781 12.5625 72.882812 19.375 C 69.015625 24.789062 63.878906 30.601562 57.472656 36.8125 L 54.933594 30.558594 C 61.097656 24.628906 66.175781 19.277344 70.164062 14.507812 L 74.878906 8.433594 C 76.488281 5.988281 77.558594 3.664062 78.082031 1.457031 L 78.082031 1.339844 L 78.503906 0.195312 L 79.046875 0.195312 L 81.042969 0.015625 L 81.648438 1.699219 M 43.089844 5.066406 C 44.058594 5.546875 45.085938 5.96875 46.171875 6.328125 C 40.128906 17.273438 35.011719 27.292969 30.820312 36.394531 C 27.113281 44.488281 24.675781 50.804688 23.507812 55.332031 C 22.339844 59.984375 21.757812 63.972656 21.757812 67.296875 C 21.675781 71.910156 22.644531 75.695312 24.65625 78.664062 L 21.453125 78.121094 C 18.59375 77.519531 16.195312 76.859375 14.261719 76.136719 C 13.054688 69.082031 13.800781 61.226562 16.5 52.566406 C 18.472656 46.3125 21.734375 39.019531 26.289062 30.679688 C 31.605469 20.980469 37.1875 12.480469 43.027344 5.1875 L 43.089844 5.066406 M 40.550781 3.683594 C 35.796875 9.695312 31.164062 16.570312 26.652344 24.308594 L 24.476562 22.925781 C 25.242188 18.152344 26.632812 14.003906 28.644531 10.476562 C 31.144531 6.109375 34.347656 3.324219 38.253906 2.121094 L 40.550781 3.683594 M 49.554688 10.058594 C 51.972656 12.101562 55.015625 13.125 58.683594 13.125 C 62.710938 13.125 66.640625 11.980469 70.464844 9.695312 L 66.78125 14.085938 C 63.113281 18.335938 58.824219 22.804688 53.90625 27.492188 C 52.054688 21.882812 50.605469 16.070312 49.554688 10.058594 M 47.257812 10.175781 C 49.152344 20.597656 52.074219 30.097656 56.023438 38.675781 C 56.023438 39.039062 56.203125 39.4375 56.566406 39.878906 C 59.023438 44.929688 61.765625 49.519531 64.785156 53.648438 C 62.933594 54.773438 61.019531 56.113281 59.042969 57.679688 L 57.773438 55.8125 C 57.695312 55.332031 57.472656 54.953125 57.109375 54.671875 L 56.628906 54.371094 L 53.425781 51.003906 C 51.128906 46.3125 49.273438 41.605469 47.863281 36.875 C 47.90625 36.671875 47.804688 36.332031 47.5625 35.851562 C 45.628906 29.277344 44.460938 22.683594 44.058594 16.070312 L 47.257812 10.175781 M 21.816406 33.085938 C 19.640625 31.683594 16.257812 31.101562 11.664062 31.34375 L 14.867188 27.132812 C 16.761719 24.929688 19.519531 24.148438 23.144531 24.789062 L 25.140625 25.75 L 25.625 26.109375 L 21.816406 33.085938 M 42.0625 19.917969 C 42.667969 25.410156 43.714844 30.679688 45.203125 35.730469 L 42.242188 38.378906 C 40.589844 35.011719 38.65625 32.566406 36.441406 31.042969 L 42.0625 19.917969 M 38.558594 41.382812 C 36.703125 40.382812 34.6875 39.71875 32.515625 39.398438 L 35.535156 32.964844 C 37.46875 34.289062 39.160156 36.574219 40.613281 39.820312 L 39.039062 41.203125 L 38.558594 41.382812 M 31.546875 41.746094 C 32.917969 41.785156 34.328125 42.066406 35.777344 42.585938 C 33.199219 43.828125 31.125 44.972656 29.550781 46.011719 L 31.425781 41.683594 L 31.546875 41.746094 M 28.285156 50.523438 C 31.144531 48.15625 34.808594 46.035156 39.28125 44.148438 C 44.15625 46.394531 48.285156 49.039062 51.671875 52.085938 L 51.792969 52.445312 C 46.273438 51.605469 41.054688 53.96875 36.140625 59.542969 C 31.222656 65.113281 29.332031 70.664062 30.457031 76.199219 L 30.820312 79.324219 L 27.558594 79.023438 C 24.980469 76.21875 23.8125 72.230469 24.054688 67.058594 C 24.214844 63.570312 25.058594 59.320312 26.589844 54.3125 L 27.738281 50.703125 L 28.285156 50.523438 M 40.066406 59.78125 C 41.839844 58.097656 43.875 56.796875 46.171875 55.875 C 48.789062 54.871094 51.167969 54.652344 53.304688 55.210938 L 56.265625 60.082031 C 52.4375 63.652344 50.523438 67.21875 50.523438 70.785156 C 50.5625 72.390625 50.988281 73.953125 51.792969 75.476562 C 49.65625 76.558594 47.5625 77.359375 45.507812 77.882812 C 42.445312 75.957031 40.328125 73.429688 39.160156 70.304688 C 37.914062 67.019531 37.992188 63.730469 39.402344 60.445312 L 40.066406 59.78125 M 47.140625 46.074219 C 45.40625 44.910156 43.554688 43.828125 41.578125 42.828125 L 46.113281 38.796875 L 48.347656 44.8125 L 47.140625 46.074219 M 61.21875 59.601562 C 65.410156 56.273438 71.132812 52.949219 78.382812 49.621094 C 78.664062 51.785156 79.089844 54.03125 79.652344 56.355469 C 81.101562 62.808594 81.910156 66.957031 82.070312 68.800781 C 82.472656 73.8125 81.546875 77.800781 79.289062 80.765625 C 78.523438 76.238281 76.773438 72.328125 74.03125 69.042969 C 71.089844 65.515625 67.464844 63.332031 63.152344 62.488281 L 61.21875 59.601562 M 61.097656 63.089844 C 61.097656 63.730469 61.339844 64.191406 61.824219 64.472656 C 62.914062 66.957031 63.457031 69.644531 63.457031 72.53125 C 63.414062 75.335938 62.851562 78.042969 61.765625 80.648438 L 61.765625 81.1875 C 59.105469 80.066406 56.988281 78.683594 55.417969 77.039062 C 53.523438 75.035156 52.738281 72.851562 53.0625 70.484375 C 53.464844 67.558594 55.660156 64.371094 59.648438 60.925781 L 61.097656 63.089844 M 58.742188 39.640625 C 65.269531 33.265625 70.726562 27.09375 75.121094 21.121094 L 77.777344 17.390625 L 77.476562 32.0625 C 77.4375 37.714844 77.636719 42.566406 78.082031 46.613281 C 73.449219 48.738281 69.582031 50.722656 66.476562 52.566406 C 63.738281 48.917969 61.160156 44.609375 58.742188 39.640625 M 10.152344 34.109375 C 15.308594 33.585938 18.875 33.886719 20.851562 35.011719 L 17.828125 41.382812 L 17.164062 41.382812 C 13.898438 42.425781 10.816406 44.027344 7.917969 46.195312 C 5.054688 48.316406 2.617188 50.824219 0.605469 53.710938 C 1.734375 48.699219 4.53125 42.566406 9.003906 35.308594 L 9.851562 34.046875 L 10.152344 34.109375 M 0.0585938 60.382812 C 1.632812 56.894531 3.867188 53.75 6.769531 50.945312 C 9.667969 48.179688 12.914062 46.054688 16.5 44.570312 C 14.925781 48.5 13.699219 52.304688 12.8125 55.996094 L 12.207031 56.113281 C 9.832031 57.558594 7.816406 59.300781 6.164062 61.347656 C 4.351562 63.589844 3.222656 65.9375 2.78125 68.378906 C 1.085938 66.015625 0.160156 63.371094 0 60.445312 L 0.0585938 60.382812 M 5.015625 70.90625 C 5.136719 66.859375 7.472656 63.128906 12.027344 59.722656 C 11.058594 65.132812 10.957031 70.265625 11.722656 75.113281 C 9.105469 73.953125 6.871094 72.550781 5.015625 70.90625 M 53.425781 77.820312 C 55.921875 80.707031 59.667969 82.972656 64.664062 84.617188 L 68.289062 85.335938 L 54.453125 84.855469 C 49.65625 84.175781 45.488281 83.050781 41.941406 81.488281 L 46.050781 80.648438 L 46.714844 80.464844 C 49.214844 79.746094 51.449219 78.863281 53.425781 77.820312 M 50.34375 90.507812 C 50.101562 96.839844 49.675781 103.113281 49.074219 109.328125 C 45.285156 105.558594 42.0625 101.390625 39.402344 96.820312 C 36.542969 91.929688 34.609375 87 33.601562 82.03125 L 38.074219 81.910156 C 42.304688 84.433594 47.84375 86.238281 54.691406 87.320312 L 71.433594 87.800781 C 77.394531 87.160156 82.773438 85.757812 87.570312 83.59375 L 87.8125 83.414062 L 95.003906 81.488281 C 95.203125 87.382812 94.640625 93.875 93.3125 100.96875 C 92.304688 106.222656 90.691406 112.535156 88.476562 119.910156 C 83.921875 135.023438 78.019531 148.933594 70.769531 161.640625 C 68.390625 165.769531 65.996094 169.394531 63.578125 172.523438 C 61.078125 167.511719 58.136719 163.203125 54.753906 159.59375 C 50.683594 155.226562 46.394531 152.359375 41.882812 150.996094 C 43.695312 148.269531 45.324219 144.222656 46.777344 138.851562 C 48.226562 133.597656 49.496094 126.824219 50.582031 118.527344 C 51.753906 109.628906 52.476562 100.691406 52.757812 91.710938 C 52.757812 91.070312 52.355469 90.507812 51.550781 90.027344 C 50.746094 89.585938 50.34375 89.746094 50.34375 90.507812 M 64.179688 82.03125 C 65.230469 79.304688 65.773438 76.5 65.8125 73.613281 C 65.894531 70.644531 65.429688 67.839844 64.421875 65.195312 C 68.171875 66.195312 71.191406 68.359375 73.488281 71.6875 C 75.625 74.816406 76.832031 78.441406 77.113281 82.570312 L 64.421875 82.089844 L 64.179688 82.03125 M 32.9375 76.917969 L 32.875 76.257812 L 32.695312 75.714844 C 32.371094 72.628906 33.421875 69.082031 35.835938 65.074219 C 35.878906 67.640625 36.542969 70.105469 37.832031 72.46875 C 39.039062 74.753906 40.734375 76.777344 42.910156 78.542969 L 37.410156 79.265625 L 34.023438 79.382812 L 32.9375 76.917969 M 124.855469 61.765625 C 119.980469 57.839844 115.207031 54.851562 110.535156 52.808594 C 104.53125 50.160156 99.050781 49.261719 94.097656 50.101562 L 92.164062 45.351562 L 92.34375 45.292969 C 97.542969 43.207031 103.34375 42.445312 109.75 43.007812 C 115.589844 43.527344 121.25 45.050781 126.730469 47.578125 L 127.515625 51.84375 C 127.839844 55.375 126.953125 58.679688 124.855469 61.765625 M 125.824219 44.75 C 120.464844 42.464844 115.027344 41.0625 109.507812 40.542969 C 103.382812 39.980469 97.804688 40.542969 92.765625 42.226562 C 95.585938 38.9375 99.738281 36.652344 105.214844 35.371094 C 109.890625 34.25 114.765625 33.988281 119.839844 34.589844 L 120.144531 34.589844 C 122.722656 38.117188 124.617188 41.503906 125.824219 44.75 M 113.554688 27.191406 L 118.148438 32.003906 C 112.710938 31.441406 107.675781 31.78125 103.039062 33.027344 C 97.5625 34.46875 93.332031 36.992188 90.347656 40.601562 L 89.320312 37.59375 C 90.933594 33.304688 94.339844 30.28125 99.535156 28.515625 C 103.683594 27.113281 108.359375 26.671875 113.554688 27.191406 M 82.976562 7.050781 C 83.417969 9.574219 83.84375 14.046875 84.246094 20.457031 C 84.566406 26.152344 85.113281 30.558594 85.878906 33.6875 C 86.761719 37.175781 88.113281 41.203125 89.925781 45.773438 L 94.882812 57.558594 L 98.507812 67.117188 C 99.636719 70.964844 99.898438 74.332031 99.292969 77.21875 C 93.492188 79.265625 87.730469 80.789062 82.007812 81.789062 C 83.78125 78.984375 84.628906 75.375 84.546875 70.964844 C 84.46875 67.917969 83.882812 64.191406 82.796875 59.78125 C 81.023438 52.6875 79.996094 46.132812 79.714844 40.121094 C 79.59375 36.914062 79.632812 32.566406 79.832031 27.074219 L 80.195312 13.964844 L 80.074219 13.484375 C 81.363281 11.199219 82.332031 9.054688 82.976562 7.050781 M 109.929688 54.972656 C 110.976562 60.984375 109.566406 67.5 105.699219 74.515625 L 105.640625 74.753906 L 102.011719 76.199219 C 102.175781 73.953125 101.871094 71.386719 101.105469 68.5 L 98.628906 61.164062 L 95.125 52.628906 C 99.394531 51.824219 104.328125 52.605469 109.929688 54.972656 M 109.507812 73.070312 C 112.207031 66.976562 113.171875 61.347656 112.40625 56.175781 C 115.992188 57.9375 119.71875 60.34375 123.589844 63.390625 C 120.605469 66.878906 115.914062 70.105469 109.507812 73.070312 M 109.992188 149.492188 C 110.191406 151.417969 109.769531 153.683594 108.722656 156.289062 C 108.078125 157.929688 107.027344 160.015625 105.578125 162.542969 C 102.679688 167.792969 98.609375 171.882812 93.371094 174.808594 C 87.046875 178.214844 82.632812 178.714844 80.136719 176.308594 C 78.804688 175.027344 78.484375 173.265625 79.167969 171.019531 C 79.53125 169.855469 80.398438 168.074219 81.769531 165.667969 C 84.304688 165.105469 87.367188 165.707031 90.953125 167.472656 C 91.757812 167.871094 92.183594 167.671875 92.222656 166.871094 C 92.261719 166.109375 91.960938 165.546875 91.316406 165.1875 C 88.414062 163.824219 85.757812 163.082031 83.339844 162.960938 L 86 158.875 C 90.792969 161.117188 95.507812 160.859375 100.140625 158.089844 C 104.371094 155.566406 107.390625 151.777344 109.203125 146.726562 L 109.992188 149.492188 M 106.726562 142.039062 L 107.511719 143.359375 L 107.390625 143.660156 C 106.0625 148.632812 103.382812 152.5 99.355469 155.265625 C 94.921875 158.3125 90.410156 158.691406 85.816406 156.40625 L 80.136719 149.613281 C 84.085938 141.035156 87.648438 131.574219 90.832031 121.234375 C 93.933594 123.636719 96.917969 126.84375 99.777344 130.855469 C 101.914062 133.738281 104.230469 137.46875 106.726562 142.039062 M 38.980469 152.441406 C 41.519531 155.527344 44.296875 159.375 47.320312 163.984375 L 50.460938 168.914062 L 36.742188 175.167969 C 32.59375 171.519531 28.746094 167.152344 25.199219 162.058594 C 23.265625 159.335938 21.976562 157.289062 21.332031 155.925781 C 19.84375 153 19.5625 150.734375 20.488281 149.132812 C 21.292969 147.609375 23.144531 146.929688 26.046875 147.089844 C 28.183594 147.207031 30.257812 147.667969 32.273438 148.472656 C 34.648438 149.433594 36.886719 150.757812 38.980469 152.441406 M 53.0625 182.203125 L 50.460938 182.804688 C 48.648438 182.925781 46.636719 182.363281 44.417969 181.121094 L 39.101562 177.210938 L 51.851562 171.320312 C 54.230469 176.089844 54.671875 179.617188 53.183594 181.902344 L 53.0625 182.203125 M 60.375 176.371094 L 56.507812 180.039062 C 56.628906 177.875 55.921875 175.207031 54.390625 172.042969 L 50.523438 165.1875 C 48.066406 161.179688 45.386719 157.328125 42.484375 153.640625 C 46.636719 155.046875 50.542969 157.851562 54.210938 162.058594 C 57.191406 165.46875 59.828125 169.535156 62.125 174.265625 L 60.375 176.371094 "/>
</g>
</svg>
