<?xml version="1.0" encoding="UTF-8"?>
<svg xmlns="http://www.w3.org/2000/svg" xmlns:xlink="http://www.w3.org/1999/xlink" width="128pt" height="189pt" viewBox="0 0 128 189" version="1.1">
<g id="surface1">
<path style=" stroke:none;fill-rule:nonzero;fill:rgb(100%,100%,100%);fill-opacity:1;" d="M 71.730469 10.359375 C 70.453125 12.597656 68.773438 14.414062 66.695312 15.8125 C 64.5 17.25 62.140625 18.070312 59.625 18.269531 C 59.105469 18.269531 58.847656 18.488281 58.847656 18.925781 C 58.246094 26.195312 58.265625 32.746094 58.90625 38.578125 C 54.871094 29.949219 52.074219 20.503906 50.515625 10.242188 C 52.632812 11.957031 56.25 12.515625 61.363281 11.917969 C 66.078125 11.398438 69.691406 10.28125 72.210938 8.5625 L 71.730469 10.359375 M 74.488281 11.019531 C 75.007812 15.972656 77.144531 21.445312 80.898438 27.433594 C 86.8125 36.621094 91.324219 45.066406 94.441406 52.773438 C 96.238281 57.167969 97.457031 61.023438 98.097656 64.335938 C 98.976562 68.808594 98.976562 72.804688 98.097656 76.316406 L 86.171875 79.375 L 80.777344 80.453125 C 82.695312 77.496094 83.753906 73.664062 83.953125 68.949219 C 84.113281 65.195312 83.734375 61.242188 82.816406 57.089844 C 82.175781 54.210938 81.097656 50.4375 79.582031 45.765625 C 77.582031 39.773438 76.363281 35.980469 75.925781 34.382812 C 73.328125 25.277344 72.828125 17.550781 74.425781 11.199219 L 74.488281 11.019531 M 89.527344 1.792969 C 92.683594 2.832031 95.660156 4.769531 98.457031 7.605469 C 100.496094 9.640625 102.773438 12.296875 105.289062 15.574219 L 111.582031 23.960938 C 106.546875 23.558594 101.953125 24.078125 97.796875 25.515625 C 92.882812 27.234375 89.410156 30.050781 87.371094 33.964844 L 80.957031 23.480469 C 78.722656 19.328125 77.421875 15.453125 77.0625 11.859375 C 76.945312 10.339844 77.042969 8.742188 77.363281 7.066406 C 77.761719 5.269531 78.34375 3.910156 79.101562 2.992188 L 79.28125 2.632812 C 82.476562 0.914062 85.894531 0.636719 89.527344 1.792969 M 26.128906 22.703125 C 27.605469 23.378906 29.503906 24.019531 31.820312 24.617188 L 37.753906 25.9375 L 40.929688 41.273438 C 36.933594 40.953125 32.679688 39.695312 28.164062 37.5 C 26.886719 36.859375 26.148438 35.261719 25.949219 32.707031 C 25.949219 29.832031 25.828125 27.914062 25.589844 26.953125 C 25.269531 25.515625 24.648438 24.320312 23.730469 23.359375 C 22.773438 22.402344 21.652344 21.824219 20.375 21.625 C 21.015625 20.863281 21.953125 20.726562 23.191406 21.203125 L 26.128906 22.703125 M 43.386719 2.871094 C 42.46875 12.335938 43.066406 21.902344 45.183594 31.566406 C 47.339844 41.433594 50.875 50.320312 55.789062 58.226562 C 53.472656 60.261719 51.835938 62.378906 50.875 64.578125 C 49 60.261719 47.300781 55.609375 45.78125 50.617188 C 45.863281 50.140625 45.703125 49.640625 45.304688 49.121094 L 43.683594 43.191406 L 43.503906 42.589844 C 41.667969 35.164062 40.070312 26.636719 38.710938 17.011719 C 38.632812 16.332031 38.171875 15.851562 37.332031 15.574219 C 36.535156 15.292969 36.195312 15.574219 36.316406 16.410156 L 37.332031 23.421875 L 32.417969 22.164062 C 32.339844 17.609375 32.777344 13.617188 33.738281 10.179688 C 35.015625 5.507812 37.152344 2.394531 40.148438 0.835938 L 40.328125 0.714844 L 43.386719 2.871094 M 61.183594 20.726562 C 65.019531 20.164062 68.273438 18.589844 70.953125 15.992188 C 70.832031 19.585938 71.269531 23.660156 72.269531 28.214844 C 72.949219 31.328125 74.027344 35.164062 75.503906 39.714844 L 77.363281 45.40625 C 73.089844 47.285156 69.332031 49.121094 66.097656 50.917969 L 62.261719 44.925781 C 61.34375 40.8125 60.882812 35.320312 60.882812 28.453125 L 61.125 22.042969 L 61.183594 20.726562 M 47.878906 8.023438 C 49.757812 21.722656 53.8125 34.082031 60.046875 45.105469 L 60.105469 45.707031 C 60.226562 46.144531 60.503906 46.464844 60.945312 46.664062 C 62.183594 48.703125 63.320312 50.457031 64.359375 51.9375 C 61.804688 53.492188 59.464844 55.132812 57.347656 56.847656 C 52.792969 49.339844 49.519531 40.914062 47.519531 31.566406 C 45.523438 22.382812 44.925781 13.316406 45.722656 4.371094 C 46.242188 5.769531 46.960938 6.984375 47.878906 8.023438 M 24.570312 36.359375 C 25.167969 37.597656 26.085938 38.617188 27.324219 39.414062 C 28.085938 39.855469 29.363281 40.433594 31.160156 41.152344 C 35.117188 42.671875 38.589844 43.550781 41.589844 43.789062 L 42.726562 48.042969 L 30.203125 44.328125 C 29.882812 43.527344 29.304688 42.710938 28.464844 41.871094 C 27.707031 41.152344 26.964844 40.613281 26.246094 40.253906 L 23.429688 40.074219 C 22.511719 40.3125 21.671875 40.792969 20.914062 41.511719 C 16.957031 40.753906 14.742188 38.378906 14.261719 34.382812 C 13.78125 30.507812 15.0625 27.3125 18.097656 24.796875 L 18.515625 24.378906 L 18.636719 24.320312 C 21.273438 23.441406 22.871094 24.738281 23.429688 28.214844 L 23.789062 32.644531 C 23.949219 34.402344 24.210938 35.640625 24.570312 36.359375 M 24.269531 42.710938 C 24.910156 42.390625 25.746094 42.511719 26.785156 43.070312 C 27.785156 43.628906 28.183594 44.226562 27.984375 44.867188 L 26.488281 50.320312 C 23.929688 59.585938 21.972656 67.152344 20.613281 73.023438 C 18.175781 83.40625 17.136719 91.914062 17.5 98.542969 C 17.65625 101.898438 18.378906 105.554688 19.65625 109.507812 L 21.332031 115.019531 C 21.691406 116.933594 21.691406 118.832031 21.332031 120.710938 C 21.214844 121.347656 21.554688 121.90625 22.351562 122.386719 C 23.109375 122.824219 23.570312 122.667969 23.730469 121.90625 C 24.210938 119.191406 24.089844 116.496094 23.371094 113.820312 C 26.128906 112.582031 28.925781 110.027344 31.761719 106.152344 C 34.355469 102.476562 36.195312 98.542969 37.273438 94.351562 L 37.332031 94.230469 C 39.570312 94.46875 41.488281 93.472656 43.085938 91.234375 C 44.644531 89 44.984375 86.78125 44.105469 84.585938 C 46.222656 83.1875 47.359375 81.351562 47.519531 79.074219 C 47.601562 77.039062 46.921875 74.960938 45.484375 72.84375 L 48.121094 63.5 L 49.976562 67.75 L 49.917969 68.769531 L 50.097656 70.6875 L 50.039062 71.046875 C 48.078125 78.953125 46.582031 84.566406 45.542969 87.878906 C 43.585938 94.191406 41.410156 99.5625 39.011719 103.996094 C 37.894531 105.992188 35.234375 109.507812 31.042969 114.539062 C 27.527344 118.8125 25.1875 122.546875 24.03125 125.742188 L 21.214844 135.507812 L 11.566406 170.371094 L 6.832031 187.625 C 6.589844 188.503906 5.691406 188.921875 4.136719 188.882812 C 2.695312 188.804688 1.558594 188.484375 0.71875 187.925781 L 0 187.324219 L 3.714844 173.007812 C 6.792969 162.742188 9.007812 155.035156 10.367188 149.882812 C 12.484375 141.894531 14.242188 134.585938 15.640625 127.957031 C 16.28125 125.480469 16.699219 123.605469 16.898438 122.328125 C 17.296875 120.050781 17.296875 118.132812 16.898438 116.574219 C 16.578125 115.296875 15.820312 113.082031 14.621094 109.925781 C 13.582031 107.171875 12.925781 104.914062 12.644531 103.15625 C 12.085938 99.839844 12.003906 96.167969 12.40625 92.132812 C 12.644531 89.21875 13.222656 85.582031 14.140625 81.230469 C 16.058594 72.085938 18.738281 60.324219 22.171875 45.945312 L 22.652344 43.789062 L 24.269531 42.710938 M 43.503906 50.679688 L 46.621094 59.605469 L 46.382812 60.023438 L 43.445312 70.507812 L 41.769531 69.1875 C 39.53125 67.75 36.832031 66.773438 33.679688 66.253906 L 25.046875 66.015625 L 24.988281 66.015625 L 30.203125 46.722656 L 43.503906 50.679688 M 25.886719 68.53125 C 29.484375 68.132812 33.160156 68.429688 36.914062 69.429688 C 40.230469 70.308594 42.707031 72.203125 44.34375 75.121094 C 46.183594 78.316406 45.34375 80.832031 41.828125 82.667969 C 41.148438 83.027344 41.148438 83.648438 41.828125 84.527344 C 42.667969 85.644531 42.507812 87.121094 41.347656 88.957031 C 40.148438 90.796875 38.773438 91.734375 37.214844 91.773438 C 38.453125 89.976562 39.070312 87.71875 39.070312 85.003906 L 39.070312 84.945312 C 39.910156 83.988281 40.410156 82.929688 40.570312 81.769531 C 40.730469 80.492188 40.410156 79.414062 39.609375 78.535156 C 39.132812 78.015625 38.472656 77.578125 37.632812 77.21875 C 39.910156 75.261719 40.347656 73.101562 38.953125 70.746094 C 38.550781 70.066406 38.011719 69.828125 37.332031 70.027344 C 36.652344 70.1875 36.554688 70.667969 37.035156 71.464844 C 37.671875 72.542969 37.414062 73.621094 36.253906 74.699219 C 35.414062 75.460938 34.316406 76.097656 32.957031 76.617188 C 32.320312 76.859375 32.21875 77.335938 32.660156 78.054688 C 33.058594 78.773438 33.539062 79.132812 34.097656 79.132812 L 37.273438 79.492188 C 38.589844 79.851562 38.691406 80.691406 37.574219 82.007812 C 36.535156 83.246094 35.515625 83.945312 34.515625 84.105469 C 32.839844 84.386719 31.300781 84.066406 29.902344 83.148438 C 28.464844 82.230469 27.503906 80.992188 27.027344 79.433594 C 26.347656 77.195312 26.527344 74.800781 27.566406 72.246094 C 27.765625 71.644531 27.503906 71.046875 26.785156 70.449219 L 25.347656 70.507812 C 24.390625 72.945312 24.128906 75.5 24.570312 78.175781 L 24.507812 78.234375 C 23.832031 78.714844 22.953125 78.894531 21.871094 78.773438 L 24.570312 67.691406 C 24.96875 68.332031 25.410156 68.609375 25.886719 68.53125 M 25.769531 81.890625 C 26.445312 83.246094 27.503906 84.324219 28.945312 85.125 C 28.105469 86.242188 27.144531 87.082031 26.066406 87.640625 C 24.789062 88.320312 23.410156 88.101562 21.933594 86.980469 L 21.152344 85.84375 L 20.675781 85.125 L 21.394531 81.109375 L 25.347656 80.992188 L 25.769531 81.890625 M 60.765625 57.867188 L 64.480469 55.230469 C 68.074219 52.953125 72.648438 50.578125 78.203125 48.101562 C 80 53.8125 81.039062 58.707031 81.316406 62.78125 C 81.917969 70.046875 80.878906 75.5 78.203125 79.132812 C 77.523438 74.660156 75.863281 70.765625 73.226562 67.453125 C 70.390625 63.898438 66.835938 61.660156 62.5625 60.742188 L 60.765625 57.867188 M 60.523438 61.28125 C 60.523438 61.839844 60.742188 62.300781 61.183594 62.660156 C 62.222656 65.136719 62.703125 67.832031 62.621094 70.746094 C 62.542969 73.503906 61.941406 76.179688 60.824219 78.773438 L 60.765625 79.195312 C 59.085938 78.394531 57.589844 77.515625 56.269531 76.558594 C 52.914062 73.960938 51.773438 70.964844 52.855469 67.570312 C 53.691406 64.894531 55.808594 62.101562 59.207031 59.183594 L 60.523438 61.28125 M 65.019531 71.765625 C 65.097656 68.851562 64.679688 66.074219 63.761719 63.4375 C 67.476562 64.515625 70.433594 66.753906 72.628906 70.148438 C 74.667969 73.261719 75.804688 76.898438 76.046875 81.050781 C 71.089844 81.53125 66.816406 81.210938 63.222656 80.09375 C 64.300781 77.417969 64.898438 74.640625 65.019531 71.765625 M 51.476562 93.75 L 52.734375 85.066406 C 56.488281 88.699219 61.484375 91.117188 67.714844 92.3125 C 73.226562 93.351562 78.820312 93.351562 84.496094 92.3125 C 90.726562 91.195312 96.578125 89.417969 102.050781 86.980469 C 108.285156 84.226562 113.457031 80.890625 117.574219 76.976562 C 117.292969 82.6875 116.613281 88.640625 115.535156 94.828125 C 115.296875 95.070312 115.234375 95.46875 115.355469 96.027344 L 114.21875 101.839844 L 109.960938 118.074219 C 108.085938 124.824219 106.847656 130.292969 106.246094 134.488281 C 105.566406 139.28125 105.226562 144.453125 105.226562 150.003906 L 105.226562 150.84375 C 105.308594 156.792969 105.808594 162.523438 106.726562 168.035156 L 108.164062 174.503906 L 108.40625 175.824219 C 107.285156 176.664062 105.46875 177.222656 102.953125 177.5 L 97.378906 177.800781 L 89.347656 177.320312 C 86.433594 176.722656 83.933594 175.742188 81.859375 174.386719 C 74.507812 151.5 71.390625 130.335938 72.507812 110.882812 C 72.550781 110.246094 72.167969 109.6875 71.371094 109.207031 C 70.570312 108.769531 70.152344 108.925781 70.113281 109.6875 C 69.59375 119.03125 70.011719 128.757812 71.371094 138.859375 L 71.132812 138.859375 C 65.9375 139.660156 61.242188 138.363281 57.046875 134.96875 C 53.054688 131.652344 50.636719 127.398438 49.796875 122.207031 C 49.117188 118.054688 49.019531 113.28125 49.5 107.890625 L 51.476562 93.75 M 52.972656 83.085938 C 53.171875 80.691406 53.214844 78.453125 53.09375 76.378906 C 55.570312 79.054688 59.085938 81.191406 63.640625 82.789062 C 65.558594 83.46875 67.816406 83.828125 70.410156 83.867188 L 77.304688 83.507812 L 78.140625 83.386719 L 78.621094 83.328125 C 84.613281 82.6875 91.1875 81.230469 98.335938 78.953125 C 106.804688 76.238281 113.257812 73.441406 117.691406 70.566406 L 117.691406 72.785156 C 111.179688 79.972656 101.292969 85.304688 88.03125 88.777344 C 78.960938 91.175781 70.550781 91.074219 62.800781 88.480469 C 60.523438 87.71875 58.328125 86.621094 56.210938 85.183594 L 54.589844 83.988281 L 54.050781 83.566406 C 53.734375 83.246094 53.375 83.085938 52.972656 83.085938 M 34.816406 90.15625 C 34.175781 90.957031 33.296875 91.394531 32.179688 91.476562 L 29.125 91.054688 L 27.503906 90.035156 C 29.0625 89.359375 30.421875 88.101562 31.582031 86.261719 L 36.375 86.441406 C 36.136719 87.878906 35.617188 89.117188 34.816406 90.15625 M 119.671875 34.082031 C 122.148438 37.71875 123.964844 41.132812 125.125 44.328125 C 119.851562 41.933594 114.457031 40.414062 108.945312 39.773438 C 102.910156 39.097656 97.359375 39.535156 92.285156 41.09375 C 95.121094 37.9375 99.277344 35.761719 104.75 34.5625 L 119.3125 34.082031 L 119.671875 34.082031 M 122.367188 62.78125 C 118.972656 66.492188 114.257812 69.726562 108.226562 72.484375 C 111.140625 66.375 112.238281 60.621094 111.519531 55.230469 C 115.195312 57.226562 118.832031 59.742188 122.425781 62.78125 L 122.367188 62.78125 M 123.683594 61.160156 C 112.621094 51.816406 103.109375 47.722656 95.160156 48.882812 L 92.765625 43.847656 C 97.878906 42.089844 103.511719 41.59375 109.664062 42.351562 C 115.296875 42.988281 120.730469 44.585938 125.960938 47.144531 C 127.320312 52.574219 126.5625 57.246094 123.683594 61.160156 M 117.753906 31.449219 L 103.011719 32.105469 C 97.578125 33.386719 93.34375 35.722656 90.308594 39.117188 L 89.046875 36.898438 C 90.886719 32.625 94.363281 29.609375 99.476562 27.855469 C 103.789062 26.375 108.484375 25.957031 113.558594 26.59375 L 113.738281 26.59375 L 117.753906 31.449219 M 104.507812 73.621094 L 104.390625 74.101562 L 100.914062 75.359375 C 101.554688 71.007812 100.894531 65.554688 98.9375 59.003906 L 96.179688 51.398438 C 99.816406 50.796875 104.089844 51.65625 109.003906 53.972656 C 110.003906 59.964844 108.503906 66.511719 104.507812 73.621094 M 115.296875 108.847656 L 117.574219 98.664062 C 118.53125 99.78125 119.492188 101.359375 120.449219 103.394531 L 121.410156 105.671875 C 120.089844 108.269531 117.792969 110.304688 114.515625 111.78125 L 115.296875 108.847656 M 111.101562 123.285156 L 113.5 115.136719 L 113.679688 115.078125 L 116.375 114.058594 C 115.574219 117.09375 113.816406 120.171875 111.101562 123.285156 M 108.585938 136.226562 C 110.582031 135.785156 112.621094 135.085938 114.695312 134.128906 L 115.59375 133.949219 L 115.894531 133.648438 C 119.371094 131.933594 122.566406 129.714844 125.484375 127 L 125.664062 132.929688 L 125.484375 132.988281 C 120.25 137.503906 114.4375 140.339844 108.046875 141.496094 C 108.164062 139.738281 108.34375 137.980469 108.585938 136.226562 M 109.84375 128.675781 C 115.835938 123.125 118.953125 117.695312 119.191406 112.382812 C 120.667969 111.304688 121.808594 110.1875 122.605469 109.027344 L 123.386719 111.84375 C 122.066406 119.152344 118.972656 125.660156 114.097656 131.371094 C 112.660156 132.050781 110.960938 132.691406 109.003906 133.289062 L 109.84375 128.675781 M 125.242188 123.226562 L 125.003906 123.40625 C 123.566406 124.960938 121.96875 126.378906 120.210938 127.660156 C 122.207031 124.265625 123.664062 121.027344 124.585938 117.953125 L 125.242188 123.226562 M 107.863281 144.191406 C 114.097656 143.355469 119.949219 140.878906 125.421875 136.765625 C 124.945312 141.355469 123.445312 144.832031 120.929688 147.1875 C 119.492188 148.507812 117.433594 149.523438 114.757812 150.242188 C 112 150.921875 109.644531 150.960938 107.683594 150.363281 L 107.863281 144.191406 M 81.199219 176.363281 C 84.914062 178.878906 89.746094 180.238281 95.699219 180.4375 C 99.65625 180.554688 103.730469 180.035156 107.925781 178.878906 L 108.164062 178.820312 L 107.863281 180.316406 C 107.625 181.394531 107.285156 182.171875 106.847656 182.652344 L 104.6875 183.972656 C 102.332031 185.167969 100.316406 185.6875 98.636719 185.527344 L 98.21875 183.910156 C 98.136719 183.511719 97.898438 183.191406 97.5 182.953125 C 97.097656 182.632812 96.71875 182.554688 96.359375 182.710938 C 88.328125 185.789062 81.160156 187.566406 74.847656 188.042969 L 69.394531 187.804688 C 66.996094 187.285156 66.277344 186.1875 67.234375 184.511719 C 68.316406 182.59375 70.371094 180.875 73.410156 179.359375 C 74.964844 178.597656 77.5625 177.601562 81.199219 176.363281 "/>
</g>
</svg>
