<?xml version="1.0" encoding="UTF-8"?>
<svg xmlns="http://www.w3.org/2000/svg" xmlns:xlink="http://www.w3.org/1999/xlink" width="128pt" height="163pt" viewBox="0 0 128 163" version="1.1">
<g id="surface1">
<path style=" stroke:none;fill-rule:nonzero;fill:rgb(100%,100%,100%);fill-opacity:1;" d="M 118.695312 110.96875 C 117.667969 114.253906 115.6875 116.847656 112.75 118.746094 C 114.804688 113.195312 116.457031 107.425781 117.703125 101.4375 C 119.390625 104.429688 119.71875 107.609375 118.695312 110.96875 M 62.570312 161.464844 C 58.460938 162.488281 54.609375 162.269531 51.015625 160.808594 C 70.234375 155.113281 83.257812 140.945312 90.082031 118.304688 C 95.582031 99.902344 96.464844 79.34375 92.722656 56.632812 C 98.445312 61.746094 103.285156 66.96875 107.25 72.296875 L 114.84375 86.539062 C 115.429688 89.023438 115.648438 91.066406 115.503906 92.671875 C 114.546875 100.925781 112.496094 109.433594 109.339844 118.195312 C 104.425781 131.851562 96.792969 142.734375 86.449219 150.839844 C 80.214844 155.734375 72.253906 159.277344 62.570312 161.464844 M 32.417969 130.027344 C 32.785156 130.539062 33.40625 130.683594 34.289062 130.464844 L 36.15625 129.808594 L 38.140625 130.355469 L 40.339844 130.136719 C 41.148438 129.480469 41.109375 128.640625 40.230469 127.617188 C 39.277344 126.59375 37.917969 126.085938 36.15625 126.085938 C 34.910156 126.085938 33.847656 126.59375 32.964844 127.617188 C 32.160156 128.566406 31.976562 129.371094 32.417969 130.027344 M 25.484375 124.660156 C 25.628906 125.390625 26.070312 125.644531 26.804688 125.425781 L 30.433594 122.46875 C 33.371094 120.644531 36.085938 120.132812 38.578125 120.933594 L 47.273438 124.988281 C 50.28125 126.667969 52.152344 127.398438 52.886719 127.179688 C 54.574219 126.667969 53.324219 124.367188 49.144531 120.277344 C 44.960938 116.1875 40.558594 114.691406 35.9375 115.785156 C 31.242188 116.882812 28.015625 118.925781 26.253906 121.921875 C 25.59375 123.015625 25.335938 123.929688 25.484375 124.660156 M 25.484375 70.765625 L 26.253906 68.902344 L 26.144531 67.257812 C 25.703125 66.675781 24.859375 67.039062 23.613281 68.355469 C 21.117188 70.910156 18.625 72.589844 16.128906 73.394531 L 14.148438 73.832031 C 13.707031 73.90625 13.523438 74.269531 13.597656 74.925781 L 14.480469 76.132812 C 15.285156 76.9375 16.128906 77.410156 17.007812 77.554688 C 17.007812 79.382812 17.339844 80.914062 18 82.15625 C 18.660156 83.398438 19.46875 84.054688 20.421875 84.128906 C 22.476562 84.203125 23.6875 82.011719 24.054688 77.554688 C 24.199219 75.875 23.980469 74.34375 23.390625 72.957031 L 25.484375 70.765625 M 45.953125 73.066406 C 46.320312 71.675781 46.171875 70.875 45.511719 70.65625 C 44.777344 70.507812 44.082031 71.09375 43.421875 72.40625 L 38.578125 81.0625 L 33.078125 87.851562 L 29.335938 92.015625 L 28.675781 93.769531 C 28.601562 94.425781 28.710938 95.011719 29.003906 95.523438 L 33.625 102.96875 C 34.433594 103.992188 35.535156 104.46875 36.929688 104.394531 L 38.800781 103.957031 C 39.386719 103.882812 39.789062 103.628906 40.007812 103.191406 C 40.230469 102.75 40.15625 102.238281 39.789062 101.65625 L 36.046875 96.070312 C 35.167969 94.902344 35.132812 93.660156 35.9375 92.34375 L 41 83.910156 C 42.90625 80.476562 44.558594 76.863281 45.953125 73.066406 M 69.722656 82.046875 L 69.722656 80.183594 C 71.484375 80.476562 73.171875 80.113281 74.785156 79.089844 L 76.65625 77.445312 C 76.582031 76.714844 76.03125 76.242188 75.003906 76.023438 L 71.921875 75.695312 C 70.824219 75.621094 69.390625 75.148438 67.632812 74.269531 C 65.722656 73.246094 63.964844 72.007812 62.347656 70.546875 C 60.882812 69.304688 60 69.121094 59.707031 69.996094 C 59.488281 70.4375 59.453125 70.984375 59.597656 71.640625 L 60.367188 73.175781 L 63.230469 76.460938 C 62.277344 78.066406 61.761719 79.710938 61.6875 81.390625 C 61.542969 83.507812 61.800781 85.296875 62.460938 86.757812 C 63.121094 88.292969 64 89.09375 65.101562 89.167969 C 66.199219 89.3125 67.191406 88.691406 68.070312 87.304688 C 69.027344 85.84375 69.574219 84.09375 69.722656 82.046875 M 67.960938 38.121094 L 68.183594 38.339844 L 87.769531 51.15625 L 87.769531 51.8125 C 91.21875 68.171875 92.503906 82.925781 91.621094 96.070312 C 90.59375 110.089844 86.449219 122.796875 79.1875 134.191406 C 70.96875 147.042969 60.515625 155.003906 47.824219 158.070312 C 44.449219 157.339844 40.304688 155.808594 35.386719 153.46875 L 28.015625 148.976562 C 23.757812 145.984375 20.054688 142.480469 16.898438 138.460938 L 16.898438 138.570312 C 10.222656 130.320312 5.75 120.605469 3.472656 109.433594 C 1.199219 98.480469 1.382812 87.671875 4.023438 77.007812 C 5.566406 71.167969 7.691406 65.617188 10.40625 60.359375 C 19.945312 51.15625 34.800781 44.363281 54.976562 39.984375 L 67.960938 38.121094 M 59.269531 52.691406 L 62.019531 53.238281 C 64.074219 53.601562 65.6875 54.152344 66.859375 54.882812 C 67.960938 55.464844 69.207031 56.597656 70.601562 58.277344 C 71.851562 59.664062 72.65625 60.359375 73.023438 60.359375 C 73.609375 58.53125 72.546875 56.121094 69.832031 53.128906 L 65.539062 49.183594 C 65.027344 48.820312 63.78125 49.183594 61.800781 50.28125 C 59.816406 51.375 58.972656 52.179688 59.269531 52.691406 M 27.574219 53.457031 C 25.960938 52.070312 24.96875 51.523438 24.601562 51.8125 L 21.300781 54.992188 C 19.175781 57.402344 18.367188 59.519531 18.878906 61.34375 L 20.75 59.699219 L 23.613281 57.070312 L 27.464844 56.304688 L 29.664062 56.085938 C 29.886719 55.648438 29.1875 54.773438 27.574219 53.457031 M 109.449219 18.621094 C 112.382812 22.859375 114.109375 25.960938 114.621094 27.933594 C 104.058594 19.535156 91.953125 13.730469 78.304688 10.515625 C 65.761719 7.59375 52.261719 6.972656 37.808594 8.652344 C 43.53125 4.785156 50.355469 2.117188 58.277344 0.65625 L 80.285156 0 C 88.722656 1.023438 96.5 4.785156 103.617188 11.28125 L 109.449219 18.621094 M 106.148438 43.816406 C 116.640625 46.8125 122.289062 49.222656 123.09375 51.046875 C 126.324219 58.421875 127.902344 65.617188 127.828125 72.628906 C 127.828125 79.566406 126.175781 86.613281 122.875 93.769531 L 118.144531 83.691406 C 116.824219 79.089844 113.925781 73.867188 109.449219 68.027344 C 106.222656 63.058594 102.847656 58.789062 99.324219 55.210938 C 94.777344 50.535156 87.21875 44.949219 76.65625 38.449219 L 85.019531 39.214844 C 91.035156 39.875 98.078125 41.40625 106.148438 43.816406 M 104.71875 26.617188 C 113.960938 32.167969 119.683594 38.195312 121.886719 44.695312 C 105.304688 37.246094 88.429688 33.886719 71.261719 34.617188 L 70.050781 34.617188 L 69.722656 34.726562 C 62.605469 35.089844 55.34375 36.1875 47.933594 38.011719 C 28.636719 42.976562 14.257812 50.9375 4.792969 61.890625 C 2.667969 43.125 8.535156 28.664062 22.402344 18.511719 C 27.171875 15.082031 33.480469 12.890625 41.332031 11.941406 L 52.003906 11.503906 C 61.617188 11.792969 71.628906 13.511719 82.046875 16.652344 C 90.265625 19.058594 97.820312 22.382812 104.71875 26.617188 "/>
</g>
</svg>
