<?xml version="1.0" encoding="UTF-8"?>
<svg xmlns="http://www.w3.org/2000/svg" xmlns:xlink="http://www.w3.org/1999/xlink" width="128pt" height="89pt" viewBox="0 0 128 89" version="1.1">
<g id="surface1">
<path style=" stroke:none;fill-rule:nonzero;fill:rgb(100%,100%,100%);fill-opacity:1;" d="M 47.960938 22.027344 C 47.960938 25.675781 46.679688 28.730469 44.117188 31.195312 C 41.554688 33.757812 38.449219 35.039062 34.800781 35.039062 C 31.15625 35.039062 28.097656 33.757812 25.636719 31.195312 C 23.074219 28.730469 21.792969 25.675781 21.792969 22.027344 C 21.792969 18.382812 23.074219 15.277344 25.636719 12.714844 C 28.097656 10.152344 31.15625 8.871094 34.800781 8.871094 C 38.449219 8.871094 41.554688 10.152344 44.117188 12.714844 C 46.679688 15.277344 47.960938 18.382812 47.960938 22.027344 M 73.683594 19.664062 C 85.707031 19.664062 95.910156 21.4375 104.285156 24.984375 L 104.285156 53.371094 L 22.53125 53.371094 L 22.53125 45.535156 C 23.515625 43.269531 25.144531 40.753906 27.410156 37.996094 C 29.773438 39.078125 32.238281 39.621094 34.800781 39.621094 C 39.53125 39.621094 43.574219 37.996094 46.925781 34.742188 C 50.375 31.390625 52.199219 27.398438 52.394531 22.765625 C 58.898438 20.699219 65.996094 19.664062 73.683594 19.664062 M 127.054688 88.113281 L 124.984375 89 L 113.304688 89 C 112.515625 89 111.828125 88.703125 111.234375 88.113281 C 110.644531 87.523438 110.347656 86.832031 110.347656 86.042969 L 110.347656 76.582031 L 17.503906 76.582031 L 17.503906 86.042969 L 16.765625 88.113281 L 14.546875 89 L 3.015625 89 C 2.226562 89 1.539062 88.703125 0.945312 88.113281 C 0.355469 87.523438 0.0585938 86.832031 0.0585938 86.042969 L 0.0585938 2.957031 C 0.0585938 0.984375 1.042969 0 3.015625 0 L 14.546875 0 C 16.519531 0 17.503906 0.984375 17.503906 2.957031 L 17.503906 58.988281 L 110.347656 58.988281 L 110.347656 27.941406 C 110.347656 27.152344 110.644531 26.464844 111.234375 25.871094 C 111.828125 25.28125 112.515625 24.984375 113.304688 24.984375 L 124.984375 24.984375 C 125.773438 24.984375 126.460938 25.28125 127.054688 25.871094 L 127.941406 27.941406 L 127.941406 86.042969 L 127.054688 88.113281 "/>
</g>
</svg>
